<svg xmlns="http://www.w3.org/2000/svg" xmlns:xlink="http://www.w3.org/1999/xlink" width="130.014" height="130" viewBox="0 0 130.014 130">
  <defs>
    <linearGradient id="linear-gradient" x1="0.893" y1="-0.284" x2="0" y2="1.248" gradientUnits="objectBoundingBox">
      <stop offset="0" stop-color="#fff"/>
      <stop offset="0.502" stop-color="#98dbf9"/>
      <stop offset="1" stop-color="#fff"/>
    </linearGradient>
  </defs>
  <g id="Group_4651" data-name="Group 4651" opacity="0.3">
    <path id="Path_20740" data-name="Path 20740" d="M130.009,24.83c-.13-11.035-5.776-17.112-15.9-17.112a35.71,35.71,0,0,0-10.163,1.673c.246-4.51.25-7.294.25-7.433V.027H25.82V1.958c0,.066.007,2.894.255,7.435a35.713,35.713,0,0,0-10.17-1.675C5.781,7.718.134,13.795,0,24.83-.123,35.685,2.353,45.348,7.362,53.551A46.467,46.467,0,0,0,22.976,69.11a36.512,36.512,0,0,0,18.793,5.141,32.365,32.365,0,0,0,3.3-.161l.2-.023a29.751,29.751,0,0,0,7.3,5.835,7.6,7.6,0,0,1,3.713,5.073,6.36,6.36,0,0,0,.176,12.2v8.1H46.015v8.456H35.706v16.294h58.6V113.733H84v-8.456H73.552v-8.1a6.36,6.36,0,0,0,.176-12.2A7.6,7.6,0,0,1,77.441,79.9a29.876,29.876,0,0,0,7.308-5.834,31.974,31.974,0,0,0,3.5.183h0a36.513,36.513,0,0,0,18.791-5.141A46.472,46.472,0,0,0,122.65,53.551C127.661,45.348,130.136,35.685,130.009,24.83ZM100.3,3.888c-.017.706-.045,1.594-.087,2.633H29.808c-.044-1.039-.073-1.928-.092-2.633H100.3Zm2.626,17.728a30.416,30.416,0,0,1,9.044-1.749c2.547,0,4.38.622,5.45,1.849,1.23,1.41,1.626,3.78,1.177,7.043-1.867,13.592-7.761,24.2-16.6,29.874a20.958,20.958,0,0,1-9.169,3.082C98.709,49.367,101.553,33.873,102.927,21.616ZM29.074,35.065a110.865,110.865,0,0,0,7.794,26c.1.219.2.435.307.652a20.963,20.963,0,0,1-9.165-3.082c-8.835-5.673-14.728-16.282-16.6-29.874-.448-3.263-.052-5.633,1.178-7.043,1.07-1.227,2.9-1.849,5.45-1.849a30.435,30.435,0,0,1,9.05,1.751C27.56,25.8,28.2,30.375,29.074,35.065ZM41.769,70.389a32.65,32.65,0,0,1-16.8-4.588c-6.444-3.878-21.4-15.628-21.1-40.927.105-8.947,4.043-13.3,12.04-13.3a33.45,33.45,0,0,1,10.431,1.969c.1,1.3.2,2.594.324,3.888a31.711,31.711,0,0,0-8.617-1.431c-3.712,0-6.525,1.067-8.361,3.172-2,2.289-2.7,5.689-2.093,10.106a54.381,54.381,0,0,0,6.458,19.88A36.563,36.563,0,0,0,25.923,61.883a25.678,25.678,0,0,0,13.328,3.829l.037.063q.3.519.6,1.022.094.157.189.313c.192.316.386.629.582.935.074.115.148.228.222.342q.2.307.4.609t.393.577q.194.279.389.554c.061.086.121.175.183.26Q42.015,70.389,41.769,70.389ZM90.448,117.6v8.571H39.568V117.6h50.88Zm-16.9-8.456h6.586v4.595H49.877v-4.595H73.552Zm-13.228-3.862V97.41h9.366v7.867ZM74.34,91.049a2.5,2.5,0,0,1-2.5,2.5H58.174a2.5,2.5,0,0,1,0-5H71.841A2.5,2.5,0,0,1,74.34,91.049ZM84,68.976l-.064.083c-.19.246-.381.486-.574.722-.047.058-.094.116-.141.174q-.317.385-.639.754l-.03.036a26.57,26.57,0,0,1-6.986,5.783,11.48,11.48,0,0,0-5.713,8.161H60.165a11.481,11.481,0,0,0-5.714-8.161,26.158,26.158,0,0,1-6.515-5.244l-.472-.539a43.176,43.176,0,0,1-5.378-7.883l-.505-.932c-8.3-16.043-10.814-39.23-11.571-51.546H100.02c-.032.536-.068,1.089-.107,1.664l-.006.081q-.064.934-.137,1.872c0,.018,0,.037,0,.055-.154,1.981-.337,3.969-.546,5.933l-.126,1.188c-1.4,12.577-4.366,28.6-10.615,40.668l-.552,1.017A46.183,46.183,0,0,1,84,68.976ZM105.046,65.8a32.646,32.646,0,0,1-16.8,4.588h0q-.246,0-.48,0l.008-.011q.376-.519.74-1.053l.089-.131q.308-.454.608-.919l.154-.239c.221-.348.441-.7.655-1.054.034-.056.067-.113.1-.169q.264-.441.522-.891c.04-.07.082-.137.122-.208a25.678,25.678,0,0,0,13.328-3.829,36.572,36.572,0,0,0,11.877-12.718,54.39,54.39,0,0,0,6.458-19.88c.606-4.417-.1-7.818-2.093-10.106-1.836-2.105-4.649-3.173-8.361-3.173a31.7,31.7,0,0,0-8.617,1.43c.122-1.319.226-2.585.315-3.787,0-.034.005-.067.008-.1a33.447,33.447,0,0,1,10.431-1.969c8,0,11.935,4.349,12.04,13.3C126.444,50.174,111.49,61.924,105.046,65.8Z" transform="translate(0 -0.027)" fill="url(#linear-gradient)"/>
  </g>
</svg>
