<svg xmlns="http://www.w3.org/2000/svg" xmlns:xlink="http://www.w3.org/1999/xlink" width="431.623" height="363.895" viewBox="0 0 431.623 363.895">
  <defs>
    <linearGradient id="linear-gradient" x1="0.32" x2="0.886" y2="0.52" gradientUnits="objectBoundingBox">
      <stop offset="0" stop-color="#b5e2f6"/>
      <stop offset="1" stop-color="#cae4ef"/>
    </linearGradient>
  </defs>
  <g id="Group_4797" data-name="Group 4797" transform="translate(-200 -8674.006)">
    <path id="Path_20736" data-name="Path 20736" d="M411.911,85.587a89.924,89.924,0,0,0-2.7,34.051c1.651,14.336,6.729,28.185,11.165,42.078,6.1,19.1,6.408,52.63,0,71.913-2.243,6.747-53.458,120.514-53.475,121.01,0,0,72.062.027,0,.035s-287.777,0-288.252,0c-3.379-.025-6.8-14.226-7.177-15.925C69,327.7,56.684,315.891,61.808,305.519c7.274-14.725,14.855-26.43,7.518-42.627C64.5,252.237,55.163,243.983,49.819,233.63a122.792,122.792,0,0,1-8.843-90.176C50.191,111.36,71.358,88.893,98.328,66.53c24.221-20.083,44.207-43.935,65.5-66.247H467.816s0,10.64,0,10.652c-.117,4.439-12.063,13.74-15.352,17.128-12.728,13.108-26.294,24.639-34.12,40.57a95.969,95.969,0,0,0-6.433,16.954" transform="translate(163.807 8673.723)" opacity="0.46" fill="url(#linear-gradient)"/>
    <path id="Path_20739" data-name="Path 20739" d="M110.73,324.053a251.193,251.193,0,0,1-25.47-36.592l.005,0-.1-.167c2.1-1.693,10.062-9.022,4.877-19.245l-.325-.642-.608.386c-6.581,4.182-7.248,10.312-6.706,14.6-1.831-3.338-3.655-6.823-5.429-10.448q-1.286-2.631-2.565-5.421l.086-.023-.081-.178c2.276-1.454,10.99-7.864,6.959-18.594l-.254-.674-.647.318c-7.226,3.545-8.415,9.845-8.255,14.193-2.065-4.823-4.051-9.939-5.865-15.3,2.552-1.169,11.917-6.281,9.472-17.386l-.154-.7-.685.222c-7.746,2.507-9.779,8.689-10.206,13.023-1.552-5.016-2.925-10.221-4.064-15.568,2.637-.99,12.328-5.422,10.682-16.665l-.1-.712-.7.173C63.1,210.5,60.494,216,59.616,220.228a148.728,148.728,0,0,1-1.936-15.912c2.8-.51,13.078-3.152,13.47-14.482l.024-.719-.718.044c-7.966.494-11.49,5.77-13.031,9.831a125.076,125.076,0,0,1,1.144-20.937c2.687-.059,13.458-1,15.588-12.274l.133-.707-.718-.065c-7.523-.68-11.762,3.489-14.01,7.146a112.684,112.684,0,0,1,3.294-12.924c1.554-1.059,11.072-8.113,6.189-19.163l-.289-.659-.629.353c-10.564,5.945-7.111,17.356-6.519,19.071a114.214,114.214,0,0,0-3.354,13.193c-.869-4.213-3.452-9.631-10.836-11.526l-.7-.179-.112.711c-1.766,11.326,8.069,15.832,10.593,16.793l-.043.191.089.005a125.887,125.887,0,0,0-1.166,19.652,14.046,14.046,0,0,0-12.162-9.006l-.716-.071,0,.72c-.03,11.464,10.376,14.426,13.015,14.993l-.014.195.176-.017a150.232,150.232,0,0,0,1.88,15.555A14.152,14.152,0,0,0,44.4,212.91l-.718.058.127.708c2.022,11.29,12.8,12.339,15.487,12.423l.021.2.149-.043c1,4.685,2.183,9.256,3.5,13.688a14,14,0,0,0-13.807-5.422l-.712.109.179.7c2.62,10.324,12.146,11.3,15.645,11.3.273,0,.493-.007.688-.014L65,246.8l.142-.052c1.648,4.866,3.435,9.537,5.3,13.968A14.035,14.035,0,0,0,55.783,257.1l-.689.209.273.665c3.205,7.767,9.834,9.166,14.193,9.166a20,20,0,0,0,3.553-.312q1.343,2.945,2.7,5.72c1.672,3.416,3.386,6.7,5.114,9.868a14.1,14.1,0,0,0-15.295-2.248l-.661.284.345.631a14.043,14.043,0,0,0,12.977,7.672,20.237,20.237,0,0,0,5.659-.827l.082.178.063-.043a253,253,0,0,0,25.653,36.855.653.653,0,1,0,.979-.865M74.692,229.885c1.671,9.519-6.115,13.932-8.655,15.1-.273-2.782-.4-11.732,8.655-15.1M70.2,210.11c.986,9.614-7.1,13.46-9.712,14.447-.075-2.8.437-11.732,9.712-14.447m-.4-19.585c-.746,9.626-9.368,11.968-12.128,12.474.455-2.744,2.64-11.462,12.128-12.474m2.161-24.284c.25,0,.5.005.757.017-2.2,9.413-11.094,10.414-13.888,10.494.818-2.6,4.056-10.511,13.132-10.511m8.432,82.644c3.005,9.175-4.056,14.648-6.409,16.173-.635-2.708-1.962-11.6,6.409-16.173M68.133,141.276c3.521,9-3.238,14.866-5.494,16.516-.82-2.673-2.718-11.419,5.494-16.516M47.8,161.964c9.249,2.8,9.675,11.743,9.574,14.537-2.606-1.01-10.651-4.933-9.574-14.537m-3.28,28.092c9.555,1.367,11.337,10.121,11.664,12.909-2.707-.631-11.268-3.376-11.664-12.909m.719,24.113c9.627-.361,12.964,7.932,13.785,10.615-2.779-.137-11.691-1.307-13.785-10.615m4.85,21.546c9.609-1.052,13.507,7,14.511,9.613-2.8.088-11.733-.359-14.511-9.613m6.781,22.44c9.023-2.325,13.992,4.481,15.56,7.158.042.1.086.193.129.289-2.783.46-11.682,1.169-15.69-7.447M89.2,269.3c3.992,8.791-2.426,15-4.6,16.78-.927-2.623-3.222-11.313,4.6-16.78M66.833,281.095c9.036-3.418,14.831,3.4,16.452,5.68-2.681.791-11.448,2.588-16.452-5.68" transform="translate(177.109 8651.488)" fill="#fff"/>
    <g id="Group_4649" data-name="Group 4649" transform="translate(-10 8554)">
      <g id="Group_3305" data-name="Group 3305" transform="translate(27 -4)">
        <path id="Path_12" data-name="Path 12" d="M68.6,427.8s-13.843-46.929-27.986-66.252-14.5-49.192,8.485-50.874,32.691,32.4,38.974,57.434S93.649,427.8,93.649,427.8Z" transform="translate(187.409 33.671)" fill="#fff"/>
        <path id="Path_13" data-name="Path 13" d="M88.88,401.568a.457.457,0,0,0-.631.137l-7.219,11.234q-2.263-9.7-4.611-18.2l7.945-14.489a.457.457,0,0,0-.8-.439l-7.492,13.663c-1.863-6.718-3.739-12.877-5.583-18.493l6.868-19.021a.456.456,0,0,0-.274-.585.461.461,0,0,0-.585.273l-6.474,17.93c-2.911-8.758-5.728-16.159-8.269-22.259l4.558-16.252a.457.457,0,1,0-.88-.246l-4.246,15.143c-6.017-14.227-10.349-20.96-10.44-21.1a.457.457,0,0,0-.764.5c.091.139,4.444,6.911,10.479,21.226L45.89,346.529a.457.457,0,1,0-.245.88l15.266,4.26c2.548,6.119,5.378,13.554,8.3,22.364L54.1,366.609a.457.457,0,0,0-.4.82l15.918,7.821c1.858,5.663,3.75,11.878,5.63,18.667l-12.989-4.946a.456.456,0,1,0-.324.853l13.612,5.183q2.348,8.564,4.638,18.327l-12.846-5.267a.457.457,0,0,0-.346.846l13.443,5.511q1.573,6.823,3.082,14.231a.458.458,0,0,0,.448.366.439.439,0,0,0,.09-.009.457.457,0,0,0,.357-.539q-1.508-7.449-3.1-14.292l7.7-11.982a.457.457,0,0,0-.137-.631" transform="translate(186.15 32.107)" fill="#98dbf9"/>
      </g>
      <g id="Group_3306" data-name="Group 3306" transform="translate(-93.638 88.536) rotate(-16)">
        <path id="Path_14" data-name="Path 14" d="M74.332,431.733h-20.7S13.935,389.1,23.225,370.2s24.75-18.447,32.881-1.269,18.225,62.8,18.225,62.8" transform="translate(188.186 29.735)" fill="#fff"/>
        <path id="Path_15" data-name="Path 15" d="M66.762,418.81a.458.458,0,0,0-.593.255l-3.022,7.576c-1.269-3.6-2.62-7.213-4.01-10.775l4.419-10.527a.457.457,0,1,0-.842-.353l-4.054,9.66c-1.617-4.1-3.274-8.122-4.906-11.955l4.781-12.634a.456.456,0,0,0-.854-.322l-4.444,11.742c-2.229-5.2-4.388-10.007-6.305-14.169l4.646-11.658a.457.457,0,1,0-.849-.339L46.4,386.165c-3.841-8.289-6.577-13.708-6.643-13.839a.457.457,0,1,0-.815.414c.067.132,2.835,5.614,6.709,13.982L33.2,384.693a.456.456,0,1,0-.147.9l13.068,2.128c1.938,4.206,4.123,9.076,6.374,14.335L37.342,398.84a.457.457,0,1,0-.19.894l15.777,3.349c1.655,3.886,3.334,7.964,4.971,12.127l-12.653-2.934a.457.457,0,0,0-.206.891L58.3,416.24c1.41,3.615,2.78,7.284,4.065,10.934l-9.052-3.331A.457.457,0,0,0,53,424.7l9.758,3.591q.818,2.356,1.586,4.694a.456.456,0,0,0,.434.315.482.482,0,0,0,.142-.022.458.458,0,0,0,.292-.576q-.77-2.361-1.6-4.749l3.41-8.55a.456.456,0,0,0-.255-.594" transform="translate(187.246 28.346)" fill="#98dbf9"/>
      </g>
    </g>
    <g id="Group_4647" data-name="Group 4647" transform="translate(484.563 8895.281)">
      <g id="Group_3307" data-name="Group 3307" transform="translate(0 0)">
        <path id="Path_12-2" data-name="Path 12" d="M55.841,427.8s13.843-46.929,27.986-66.252,14.5-49.191-8.485-50.874-32.692,32.4-38.974,57.434S30.8,427.8,30.8,427.8Z" transform="translate(-30.772 -310.611)" fill="#fff"/>
        <path id="Path_13-2" data-name="Path 13" d="M45.52,401.568a.457.457,0,0,1,.631.137l7.219,11.234q2.263-9.7,4.611-18.2l-7.945-14.489a.457.457,0,0,1,.8-.439l7.492,13.663c1.863-6.718,3.739-12.877,5.583-18.493l-6.868-19.021a.456.456,0,0,1,.274-.585.461.461,0,0,1,.585.273l6.474,17.93c2.911-8.758,5.728-16.158,8.269-22.259l-4.558-16.252a.457.457,0,1,1,.88-.246l4.246,15.143c6.017-14.227,10.349-20.96,10.44-21.1a.457.457,0,0,1,.765.5c-.091.139-4.444,6.911-10.479,21.226l14.571-4.065a.457.457,0,1,1,.245.88l-15.266,4.26c-2.548,6.119-5.378,13.554-8.3,22.364L80.3,366.609a.457.457,0,0,1,.4.82L64.784,375.25c-1.858,5.663-3.75,11.878-5.63,18.667l12.989-4.946a.456.456,0,1,1,.324.853l-13.612,5.183q-2.348,8.564-4.638,18.327l12.846-5.267a.457.457,0,0,1,.346.846l-13.443,5.511q-1.573,6.823-3.082,14.231a.458.458,0,0,1-.448.366.439.439,0,0,1-.09-.009.457.457,0,0,1-.357-.539q1.508-7.449,3.1-14.292l-7.7-11.982a.457.457,0,0,1,.137-.631" transform="translate(-39.467 -312.175)" fill="#98dbf9"/>
      </g>
      <g id="Group_3308" data-name="Group 3308" transform="translate(72.607 134.132) rotate(-164)">
        <path id="Path_14-2" data-name="Path 14" d="M52.516,0h-20.7S-7.881,42.635,1.409,61.531,26.159,79.979,34.29,62.8,52.516,0,52.516,0" transform="translate(0 0.178)" fill="#fff"/>
        <path id="Path_15-2" data-name="Path 15" d="M34.1,14.491a.458.458,0,0,1-.593-.255L30.482,6.659c-1.269,3.6-2.62,7.213-4.01,10.775l4.419,10.527a.457.457,0,1,1-.842.353l-4.054-9.66c-1.617,4.1-3.274,8.122-4.906,11.955l4.781,12.634a.456.456,0,0,1-.854.322L20.572,31.823c-2.229,5.2-4.388,10.007-6.305,14.169L18.913,57.65a.457.457,0,1,1-.849.339L13.739,47.136C9.9,55.424,7.162,60.843,7.1,60.974a.457.457,0,1,1-.815-.414c.067-.132,2.835-5.615,6.709-13.982L.53,48.607a.456.456,0,1,1-.147-.9l13.068-2.128c1.938-4.206,4.123-9.076,6.374-14.335L4.677,34.461a.457.457,0,1,1-.19-.894l15.777-3.349c1.655-3.886,3.334-7.964,4.971-12.127L12.582,21.024a.457.457,0,0,1-.206-.891L25.638,17.06c1.41-3.615,2.78-7.284,4.065-10.934L20.65,9.457a.457.457,0,0,1-.316-.857l9.759-3.591q.818-2.356,1.586-4.694A.456.456,0,0,1,32.112,0a.482.482,0,0,1,.142.022A.458.458,0,0,1,32.546.6q-.77,2.361-1.6,4.749l3.41,8.55a.456.456,0,0,1-.255.594" transform="translate(9.909 0)" fill="#98dbf9"/>
      </g>
    </g>
    <path id="Path_20737" data-name="Path 20737" d="M43.367,324.052a251.193,251.193,0,0,0,25.47-36.592l-.005,0,.1-.167c-2.1-1.693-10.062-9.022-4.877-19.245l.325-.642.608.386c6.581,4.182,7.248,10.312,6.706,14.6,1.831-3.338,3.655-6.823,5.429-10.448q1.286-2.631,2.565-5.421L79.6,266.5l.081-.178c-2.276-1.454-10.991-7.864-6.959-18.594l.254-.674.647.318c7.226,3.545,8.415,9.845,8.255,14.193,2.065-4.823,4.051-9.939,5.865-15.3-2.552-1.169-11.917-6.281-9.472-17.386l.154-.7.685.222c7.746,2.507,9.779,8.689,10.206,13.023,1.552-5.016,2.925-10.221,4.064-15.568-2.637-.99-12.328-5.422-10.682-16.665l.1-.712.7.173C91,210.5,93.6,216,94.481,220.227a148.726,148.726,0,0,0,1.936-15.912c-2.8-.51-13.078-3.152-13.47-14.482l-.024-.719.718.044c7.966.494,11.49,5.77,13.031,9.831a125.074,125.074,0,0,0-1.144-20.936c-2.687-.059-13.458-1-15.588-12.274l-.133-.707.718-.065c7.523-.68,11.762,3.489,14.01,7.146a112.683,112.683,0,0,0-3.294-12.924c-1.554-1.059-11.072-8.113-6.189-19.163l.289-.659.629.353c10.564,5.945,7.111,17.356,6.519,19.071a114.212,114.212,0,0,1,3.354,13.193c.869-4.213,3.452-9.631,10.836-11.526l.7-.179.112.711c1.766,11.326-8.069,15.832-10.593,16.793l.043.191-.089.005a125.887,125.887,0,0,1,1.166,19.652,14.046,14.046,0,0,1,12.162-9.006l.716-.071,0,.72c.03,11.464-10.376,14.426-13.015,14.993l.014.195-.176-.017a150.228,150.228,0,0,1-1.88,15.555,14.152,14.152,0,0,1,13.858-7.13l.718.058-.127.708c-2.022,11.29-12.8,12.339-15.487,12.423l-.021.2-.149-.043c-1,4.685-2.183,9.256-3.5,13.688a14,14,0,0,1,13.807-5.422l.712.109-.179.7c-2.62,10.324-12.146,11.3-15.645,11.3-.273,0-.493-.007-.688-.014l-.035.195-.142-.052c-1.648,4.866-3.435,9.537-5.3,13.968A14.035,14.035,0,0,1,98.314,257.1l.689.209-.273.665c-3.205,7.767-9.834,9.166-14.193,9.166a20,20,0,0,1-3.553-.312q-1.343,2.945-2.7,5.72c-1.672,3.416-3.386,6.7-5.114,9.868a14.1,14.1,0,0,1,15.295-2.248l.661.284-.345.631A14.043,14.043,0,0,1,75.8,288.755a20.237,20.237,0,0,1-5.659-.827l-.082.178L70,288.063a252.993,252.993,0,0,1-25.653,36.855.653.653,0,1,1-.979-.865M79.4,229.884c-1.671,9.519,6.115,13.932,8.655,15.1.273-2.782.4-11.732-8.655-15.1M83.9,210.11c-.986,9.614,7.1,13.46,9.712,14.447.075-2.8-.437-11.732-9.712-14.447m.4-19.585c.746,9.626,9.368,11.968,12.128,12.474-.455-2.744-2.64-11.462-12.128-12.474m-2.161-24.284c-.25,0-.5.005-.757.017,2.2,9.413,11.094,10.414,13.888,10.494-.818-2.6-4.056-10.511-13.132-10.511M73.7,248.885c-3.005,9.175,4.056,14.648,6.409,16.173.635-2.708,1.962-11.6-6.409-16.173M85.964,141.276c-3.521,9,3.238,14.866,5.494,16.516.82-2.673,2.718-11.419-5.494-16.516m20.33,20.688c-9.249,2.8-9.675,11.743-9.574,14.537,2.606-1.01,10.651-4.933,9.574-14.537m3.28,28.092c-9.555,1.367-11.337,10.121-11.664,12.909,2.707-.631,11.268-3.376,11.664-12.909m-.719,24.113c-9.627-.361-12.964,7.932-13.785,10.615,2.779-.137,11.691-1.307,13.785-10.615m-4.85,21.546c-9.609-1.052-13.507,7-14.511,9.613,2.8.088,11.733-.359,14.511-9.613m-6.781,22.44c-9.023-2.325-13.992,4.481-15.56,7.158-.042.1-.086.193-.129.289,2.783.46,11.682,1.169,15.69-7.447M64.9,269.3c-3.992,8.791,2.426,15,4.6,16.78.927-2.623,3.222-11.313-4.6-16.78m22.364,11.793c-9.036-3.418-14.831,3.4-16.452,5.68,2.681.791,11.448,2.588,16.452-5.68" transform="translate(447.109 8651.488)" fill="#fff"/>
    <path id="Path_20738" data-name="Path 20738" d="M418.629,456.253c0,9.778-83.73,17.706-187.016,17.706S44.6,466.031,44.6,456.253s83.731-17.713,187.017-17.713,187.016,7.932,187.016,17.713" transform="translate(159.454 8563.941)" fill="#c7dbe4"/>
    <g id="Group_4650" data-name="Group 4650" transform="translate(12888 21330)">
      <rect id="Rectangle_1954" data-name="Rectangle 1954" width="7.571" height="0.218" transform="translate(-12403.618 -12325.914)" fill="#ebebeb"/>
      <rect id="Rectangle_1956" data-name="Rectangle 1956" width="37.619" height="0.218" transform="translate(-12638.834 -12334.902)" fill="#ebebeb"/>
      <rect id="Rectangle_1957" data-name="Rectangle 1957" width="5.516" height="0.218" transform="translate(-12593.46 -12334.902)" fill="#ebebeb"/>
      <rect id="Rectangle_1958" data-name="Rectangle 1958" width="81.587" height="0.218" transform="translate(-12570.019 -12331.225)" fill="#ebebeb"/>
      <rect id="Rectangle_1959" data-name="Rectangle 1959" width="4.64" height="124.369" transform="matrix(0.985, -0.172, 0.172, 0.985, -12601.213, -12459.061)" fill="#263238"/>
      <g id="Group_4535" data-name="Group 4535" transform="translate(-12601.213 -12459.857)" opacity="0.2" style="isolation: isolate">
        <g id="Group_4534" data-name="Group 4534" transform="translate(0)">
          <rect id="Rectangle_1960" data-name="Rectangle 1960" width="25.903" height="123.321" transform="translate(0.005)" fill="none"/>
          <rect id="Rectangle_1961" data-name="Rectangle 1961" width="4.64" height="124.369" transform="matrix(0.985, -0.172, 0.172, 0.985, 0, 0.797)" fill="#fff"/>
        </g>
      </g>
      <path id="Path_20599" data-name="Path 20599" d="M116.674,133.988a25.5,25.5,0,1,1-29-21.423,25.5,25.5,0,0,1,29,21.423" transform="translate(-12693.035 -12611.079)" fill="#407bff"/>
      <g id="Group_4537" data-name="Group 4537" transform="translate(-12627.076 -12498.801)" opacity="0.6" style="isolation: isolate">
        <g id="Group_4536" data-name="Group 4536">
          <rect id="Rectangle_1962" data-name="Rectangle 1962" width="51" height="51" transform="translate(0 0.001)" fill="none"/>
          <path id="Path_20600" data-name="Path 20600" d="M116.674,133.988a25.5,25.5,0,1,1-29-21.423,25.5,25.5,0,0,1,29,21.423" transform="translate(-65.96 -112.279)" fill="#fff"/>
        </g>
      </g>
      <path id="Path_20601" data-name="Path 20601" d="M115.061,134.558a23.578,23.578,0,1,1-26.822-19.811,23.579,23.579,0,0,1,26.822,19.811" transform="translate(-12693.32 -12611.363)" fill="#407bff"/>
      <path id="Path_20602" data-name="Path 20602" d="M79.43,141.479l6.622-1.707s.428-5.045-2.069-15.344a12.558,12.558,0,0,1,3.444-.754c1.195.058,4.329,11.445,4.329,11.445s11.782-3.669,12.548-3.31c.486.228,1.009,1.979,1.327,3.229a1.554,1.554,0,0,1-.862,1.8l-.394.18,2.156,11.563a1.715,1.715,0,0,1-1.271,1.978l-11.144,2.776a5.606,5.606,0,0,1-3.326-.189l-1.414-.531-6.763,2.143Z" transform="translate(-12694.773 -12612.55)" fill="#407bff"/>
      <g id="Group_4539" data-name="Group 4539" transform="translate(-12615.344 -12488.878)" opacity="0.7" style="isolation: isolate">
        <g id="Group_4538" data-name="Group 4538">
          <rect id="Rectangle_1963" data-name="Rectangle 1963" width="27.13" height="31.085" transform="translate(0 0)" fill="none"/>
          <path id="Path_20603" data-name="Path 20603" d="M79.43,141.479l6.622-1.707s.428-5.045-2.069-15.344a12.558,12.558,0,0,1,3.444-.754c1.195.058,4.329,11.445,4.329,11.445s11.782-3.669,12.548-3.31c.486.228,1.009,1.979,1.327,3.229a1.554,1.554,0,0,1-.862,1.8l-.394.18,2.156,11.563a1.715,1.715,0,0,1-1.271,1.978l-11.144,2.776a5.606,5.606,0,0,1-3.326-.189l-1.414-.531-6.763,2.143Z" transform="translate(-79.43 -123.672)" fill="#fff"/>
        </g>
      </g>
      <path id="Path_20604" data-name="Path 20604" d="M190.838,242.407l-1.977-5.2c-26.446,1.22-29.41-8.74-29.681-11.913-.5-5.881,4.816-11.237,11.849-11.94,9.7-.994,16.154,7.693,19.448,13.415,4.992-6.01,14.647-10.977,21.926-10.977h.009c5.573,0,9.53,2.625,10.856,7.929a8.766,8.766,0,0,1-1.9,8.536c-6.15,6.932-23.887,5.59-29.221,5.036Zm3.128-10.539c8.036.708,19.714.18,23-3.521.523-.591,1.063-1.2.59-3.092-.672-2.688-2.258-3.574-5.144-3.574H212.4c-6.435,0-15.5,5.487-18.437,10.188m-21.434-12.7a8.994,8.994,0,0,0-.915.046c-4,.4-6.764,3.277-6.567,5.581.221,2.6,5.093,7.015,21.442,6.6-2.015-4.07-6.931-12.231-13.96-12.231" transform="translate(-12705.062 -12624.112)" fill="#263238"/>
      <rect id="Rectangle_1964" data-name="Rectangle 1964" width="114.782" height="78.851" transform="translate(-12572.189 -12389.996)" fill="#407bff"/>
      <g id="Group_4541" data-name="Group 4541" transform="translate(-12572.189 -12389.996)" opacity="0.2" style="isolation: isolate">
        <g id="Group_4540" data-name="Group 4540">
          <rect id="Rectangle_1965" data-name="Rectangle 1965" width="114.781" height="78.851" transform="translate(0.001)" fill="none"/>
          <rect id="Rectangle_1966" data-name="Rectangle 1966" width="114.782" height="78.851" fill="#fff"/>
        </g>
      </g>
      <g id="Group_4543" data-name="Group 4543" transform="translate(-12572.189 -12362.753)" opacity="0.2" style="isolation: isolate">
        <g id="Group_4542" data-name="Group 4542">
          <rect id="Rectangle_1967" data-name="Rectangle 1967" width="114.781" height="51.607" transform="translate(0.001)" fill="none"/>
          <rect id="Rectangle_1968" data-name="Rectangle 1968" width="114.782" height="51.607"/>
        </g>
      </g>
      <rect id="Rectangle_1969" data-name="Rectangle 1969" width="9.326" height="78.851" transform="translate(-12495.694 -12389.996)" fill="#263238"/>
      <rect id="Rectangle_1970" data-name="Rectangle 1970" width="6.849" height="78.851" transform="translate(-12556.072 -12389.996)" fill="#263238"/>
      <g id="Group_4545" data-name="Group 4545" transform="translate(-12572.189 -12389.996)" opacity="0.2" style="isolation: isolate">
        <g id="Group_4544" data-name="Group 4544">
          <rect id="Rectangle_1971" data-name="Rectangle 1971" width="45.606" height="78.851" transform="translate(0.001)" fill="none"/>
          <rect id="Rectangle_1972" data-name="Rectangle 1972" width="45.607" height="78.851"/>
        </g>
      </g>
      <path id="Path_20605" data-name="Path 20605" d="M111.933,266.547c-3.608.375-15.608,1.284-19.768-3.406a5.949,5.949,0,0,1-1.285-5.784c.9-3.587,3.574-5.373,7.345-5.373h.005c4.924,0,11.456,3.369,14.834,7.434,2.229-3.871,6.6-9.743,13.157-9.071,4.759.476,8.355,4.1,8.017,8.08-.183,2.147-2.189,8.885-20.08,8.061l-1.338,3.52Zm-13.7-10.636h0c-1.953,0-3.026.638-3.48,2.456a1.91,1.91,0,0,0,.4,2.11c2.223,2.5,10.122,2.833,15.559,2.354-1.987-3.18-8.119-6.921-12.474-6.921m17.53,6.649c11.06.278,14.357-2.711,14.507-4.468.133-1.559-1.738-3.5-4.443-3.776-.209-.021-.415-.031-.618-.031-4.756,0-8.082,5.521-9.445,8.275" transform="translate(-12696.22 -12628.891)" fill="#407bff"/>
      <rect id="Rectangle_1973" data-name="Rectangle 1973" width="77.653" height="53.345" transform="translate(-12621.839 -12364.49)" fill="#407bff"/>
      <g id="Group_4547" data-name="Group 4547" transform="translate(-12621.839 -12364.49)" opacity="0.6">
        <g id="Group_4546" data-name="Group 4546">
          <rect id="Rectangle_1974" data-name="Rectangle 1974" width="77.654" height="53.345" fill="none"/>
          <rect id="Rectangle_1975" data-name="Rectangle 1975" width="77.653" height="53.345" fill="#fff"/>
        </g>
      </g>
      <g id="Group_4549" data-name="Group 4549" transform="translate(-12621.839 -12346.06)" opacity="0.1" style="isolation: isolate">
        <g id="Group_4548" data-name="Group 4548">
          <rect id="Rectangle_1976" data-name="Rectangle 1976" width="77.654" height="34.914" fill="none"/>
          <rect id="Rectangle_1977" data-name="Rectangle 1977" width="77.653" height="34.914"/>
        </g>
      </g>
      <g id="Group_4551" data-name="Group 4551" transform="translate(-12575.04 -12364.49)" opacity="0.2">
        <g id="Group_4550" data-name="Group 4550">
          <rect id="Rectangle_1978" data-name="Rectangle 1978" width="30.855" height="53.345" fill="none"/>
          <rect id="Rectangle_1979" data-name="Rectangle 1979" width="30.854" height="53.345" fill="#fff"/>
        </g>
      </g>
      <rect id="Rectangle_1980" data-name="Rectangle 1980" width="6.31" height="53.345" transform="translate(-12602.244 -12364.49)" fill="#407bff"/>
      <rect id="Rectangle_1981" data-name="Rectangle 1981" width="4.634" height="53.345" transform="translate(-12559.722 -12364.49)" fill="#407bff"/>
      <path id="Path_20630" data-name="Path 20630" d="M356.643,48.328s-2.238-5.168-9.475-5.168-13.265,4.307-12.921,9.82-3.79,5-4.478,10.336,1.894,6.719,2.068,8.959-2.757,1.55-4.652,5.34-4.307,9.131,3.789,16.194,31.011,5.857,36.006,1.55,4.824-12.576,0-14.816-.343-1.9.173-6.891-3.962-6.891-3.619-10.853,1.55-14.127-6.891-14.472" transform="translate(-12726.505 -12602.159)" fill="#263238"/>
      <path id="Path_20631" data-name="Path 20631" d="M309.9,130.657l-7.13-3.9s-2.02-5.239-3.089-5.776-8.793-.4-9.743-.4-.713,7.254-.238,8.463,9.031,1.612,9.863,1.746l8.674,6.314Z" transform="translate(-12721.855 -12612.149)" fill="#b97964"/>
      <path id="Path_20632" data-name="Path 20632" d="M323.557,87.371c-5.37-.03-9.734,37.87-9.734,37.87l-7.35-2.756-4.594,6.661s8.27,10.566,16.308,9.188S330.36,95.549,330.36,95.549Z" transform="translate(-12723.48 -12607.865)" fill="#407bff"/>
      <g id="Group_4573" data-name="Group 4573" transform="translate(-12421.601 -12520.494)" opacity="0.2" style="isolation: isolate">
        <g id="Group_4572" data-name="Group 4572">
          <rect id="Rectangle_1994" data-name="Rectangle 1994" width="28.48" height="51.082" fill="none"/>
          <path id="Path_20633" data-name="Path 20633" d="M330.36,95.549s-.1,1.08-.322,2.909c-1.115,9.441-5.1,38.722-11.854,39.872a8.086,8.086,0,0,1-1.942.1c-7.377-.357-14.362-9.293-14.362-9.293l4.59-6.654,7.351,2.752s4.363-37.9,9.737-37.869Z" transform="translate(-301.88 -87.371)" fill="#fff"/>
        </g>
      </g>
      <g id="Group_4575" data-name="Group 4575" transform="translate(-12407.242 -12515.242)" opacity="0.2" style="isolation: isolate">
        <g id="Group_4574" data-name="Group 4574">
          <rect id="Rectangle_1995" data-name="Rectangle 1995" width="13.798" height="45.829" transform="translate(0.001 0.001)" fill="none"/>
          <path id="Path_20634" data-name="Path 20634" d="M332.165,99.236c-1.115,9.441-5.1,38.722-11.854,39.872a8.085,8.085,0,0,1-1.942.1C318.2,114.9,325.6,93.4,325.6,93.4Z" transform="translate(-318.367 -93.401)"/>
        </g>
      </g>
      <path id="Path_20635" data-name="Path 20635" d="M327.034,151.651s-9.439,50.31-11.958,70.965c-3.29,26.948-16.747,66.368-16.747,66.368l5.381,1.391s18.969-33.5,22.668-63.641C341.446,195.93,342.662,158,342.662,158Z" transform="translate(-12723.022 -12616.16)" fill="#b97964"/>
      <path id="Path_20636" data-name="Path 20636" d="M286.754,321.819a7.859,7.859,0,0,1,2.764-.7s3.308-1.947,6.586-9.511l3.688-.022a3.043,3.043,0,0,1,2.832,2.028,1.769,1.769,0,0,1,.1.51,20.591,20.591,0,0,1-.283,2.657,73.548,73.548,0,0,1-2.156,8.674l-.625-.159,1.137-5.5c.377-1.869-1.587-.064-2.5,1.821s-2.31,3.782-6.38,2.851c-4.746-1.11-6.658-1.792-5.171-2.647" transform="translate(-12721.465 -12636.8)" fill="#263238"/>
      <path id="Path_20637" data-name="Path 20637" d="M342.542,150.73s1.171,51.174,2.98,71.9c2.355,27.044-2.656,68.4-2.656,68.4l5.551.247s11.631-36.7,9.014-66.953c8.371-33.255,1.714-70.62,1.714-70.62Z" transform="translate(-12728.729 -12616.041)" fill="#b97964"/>
      <path id="Path_20638" data-name="Path 20638" d="M332.929,323.551a7.874,7.874,0,0,1,2.671-1s3.079-2.292,5.52-10.167l3.662-.42a3.043,3.043,0,0,1,3.036,1.711,1.694,1.694,0,0,1,.158.5,20.262,20.262,0,0,1,.006,2.672,73.327,73.327,0,0,1-1.2,8.856l-.638-.091.534-5.592c.174-1.9-1.583.108-2.285,2.081s-1.886,4.008-6.034,3.524c-4.836-.59-6.813-1.063-5.425-2.073" transform="translate(-12727.432 -12636.848)" fill="#263238"/>
      <path id="Path_20639" data-name="Path 20639" d="M297.255,309.321s-4.6,9.634-7.254,11.493c0,0,3.553,2.119,7.254-2.6,4.784-6.1,5.956-4.4,5.956-4.4a17.318,17.318,0,0,0-.576-3.108c-.719-1.968-5.38-1.391-5.38-1.391" transform="translate(-12721.948 -12636.497)" fill="#b97964"/>
      <path id="Path_20640" data-name="Path 20640" d="M342.592,309.243s-1.306,3.566-3.048,7.485a17.011,17.011,0,0,1-3.484,5.476s3.026.982,4.659-.914,4.426-8.749,7.56-7.962a7.317,7.317,0,0,0-.7-1.594c-.469-.776-4.987-2.491-4.987-2.491" transform="translate(-12727.892 -12636.497)" fill="#b97964"/>
      <path id="Path_20641" data-name="Path 20641" d="M323.987,142.011s-3.737,37.242-9.288,74.582A394.758,394.758,0,0,1,299.769,279.3l11.026.918s21.132-52.371,27.564-82.692c0,0,2.3,53.751-1.378,83.611l9.647-.459S370.17,179.525,352.6,143.088Z" transform="translate(-12723.208 -12614.916)" fill="#407bff"/>
      <g id="Group_4577" data-name="Group 4577" transform="translate(-12423.439 -12472.905)" opacity="0.4" style="isolation: isolate">
        <g id="Group_4576" data-name="Group 4576">
          <rect id="Rectangle_1996" data-name="Rectangle 1996" width="59.344" height="139.125" transform="translate(0 0.001)" fill="none"/>
          <path id="Path_20642" data-name="Path 20642" d="M346.627,280.684l-9.65.453c3.675-29.856,1.385-83.611,1.385-83.611-1.629,7.656-4.189,16.7-7.107,25.972-8.649,27.444-20.459,56.726-20.459,56.726L299.77,279.3A394.382,394.382,0,0,0,314.7,216.59c5.557-37.338,9.293-74.579,9.293-74.579l28.611,1.081c17.568,36.431-5.975,137.592-5.975,137.592" transform="translate(-299.77 -142.011)" fill="#fff"/>
        </g>
      </g>
      <g id="Group_4579" data-name="Group 4579" transform="translate(-12392.134 -12440.132)" opacity="0.2" style="isolation: isolate">
        <g id="Group_4578" data-name="Group 4578">
          <rect id="Rectangle_1997" data-name="Rectangle 1997" width="7.287" height="48.711" transform="translate(0 0.001)" fill="none"/>
          <path id="Path_20643" data-name="Path 20643" d="M343,202.382c-1.629,7.656-4.189,16.7-7.107,25.972-1.115-17.436,3.318-48.712,3.318-48.712Z" transform="translate(-335.714 -179.641)"/>
        </g>
      </g>
      <path id="Path_20644" data-name="Path 20644" d="M356.09,140.812l.079,4.207-28.778-1.66-.094-4.976Z" transform="translate(-12726.761 -12614.448)" fill="#263238"/>
      <rect id="Rectangle_1998" data-name="Rectangle 1998" width="4.786" height="6.31" transform="translate(-12393.138 -12470.391) rotate(-85.965)" fill="#fff"/>
      <rect id="Rectangle_1999" data-name="Rectangle 1999" width="7.272" height="1.428" transform="translate(-12380.586 -12467.955) rotate(-88.139)" fill="#407bff"/>
      <g id="Group_4581" data-name="Group 4581" transform="translate(-12380.586 -12475.223)" opacity="0.4" style="isolation: isolate">
        <g id="Group_4580" data-name="Group 4580" transform="translate(0 0)">
          <rect id="Rectangle_2000" data-name="Rectangle 2000" width="1.66" height="7.312" transform="translate(0.001 0.001)" fill="none"/>
          <rect id="Rectangle_2001" data-name="Rectangle 2001" width="7.272" height="1.428" transform="translate(0 7.268) rotate(-88.139)" fill="#fff"/>
        </g>
      </g>
      <rect id="Rectangle_2002" data-name="Rectangle 2002" width="7.271" height="1.428" transform="translate(-12398.179 -12469.552) rotate(-88.139)" fill="#407bff"/>
      <g id="Group_4583" data-name="Group 4583" transform="translate(-12398.179 -12476.819)" opacity="0.4" style="isolation: isolate">
        <g id="Group_4582" data-name="Group 4582" transform="translate(0)">
          <rect id="Rectangle_2003" data-name="Rectangle 2003" width="1.659" height="7.313" transform="translate(0.002)" fill="none"/>
          <rect id="Rectangle_2004" data-name="Rectangle 2004" width="7.271" height="1.428" transform="translate(0 7.267) rotate(-88.139)" fill="#fff"/>
        </g>
      </g>
      <path id="Path_20645" data-name="Path 20645" d="M327.315,130.59l28.75,2.483a102.2,102.2,0,0,1,3.056-21.113c.688-2.751,1.551-5.827,2.656-9.38.593-1.9,1.246-3.937,1.978-6.131.549-1.664,1.14-3.432,1.793-5.3a85.172,85.172,0,0,0-11.932-2.883,91.354,91.354,0,0,0-12.907-1.359c-5.592-.044-12.02.583-12.02.583s-.915.218-1.489,6.149c-.523,5.566-1.036,16.7.114,36.946" transform="translate(-12726.674 -12607.806)" fill="#407bff"/>
      <path id="Path_20646" data-name="Path 20646" d="M327.263,132.274,356,134.17a112.579,112.579,0,0,1,3.12-22.209c.688-2.752,1.551-5.828,2.657-9.38.592-1.9,1.245-3.937,1.977-6.131.549-1.664,1.14-3.432,1.793-5.3a85.159,85.159,0,0,0-11.931-2.883,91.379,91.379,0,0,0-12.907-1.359c-5.592-.044-12.019.583-12.019.583s-.914.218-1.489,6.149c-.523,5.566-1.084,18.381.065,38.63" transform="translate(-12726.67 -12607.806)" fill="#263238"/>
      <g id="Group_4585" data-name="Group 4585" transform="translate(-12400.052 -12520.896)" opacity="0.1" style="isolation: isolate">
        <g id="Group_4584" data-name="Group 4584">
          <rect id="Rectangle_2005" data-name="Rectangle 2005" width="38.927" height="46.163" transform="translate(0)" fill="none"/>
          <path id="Path_20647" data-name="Path 20647" d="M327.315,130.59l28.75,2.483a102.2,102.2,0,0,1,3.056-21.113c.688-2.751,1.551-5.827,2.656-9.38.593-1.9,1.246-3.937,1.978-6.131.549-1.664,1.14-3.432,1.793-5.3a85.172,85.172,0,0,0-11.932-2.883,91.354,91.354,0,0,0-12.907-1.359c-5.592-.044-12.02.583-12.02.583s-.915.218-1.489,6.149c-.523,5.566-1.036,16.7.114,36.946" transform="translate(-326.623 -86.91)" fill="#fff"/>
        </g>
      </g>
      <path id="Path_20648" data-name="Path 20648" d="M345.168,91.9c7.085-.907,9.214-3.933,9.214-3.933-4.5-4.242-.761-11.591-.761-11.591l-8.527,1.592a25.041,25.041,0,0,1,.334,3.59c.064,5.176-2.276,5.227-2.276,5.227-1.5,2.8,2.017,5.115,2.017,5.115" transform="translate(-12728.759 -12606.446)" fill="#b97964"/>
      <g id="Group_4587" data-name="Group 4587" transform="translate(-12383.666 -12530.069)" opacity="0.2" style="isolation: isolate">
        <g id="Group_4586" data-name="Group 4586">
          <rect id="Rectangle_2006" data-name="Rectangle 2006" width="8.528" height="5.183" fill="none"/>
          <path id="Path_20649" data-name="Path 20649" d="M345.436,77.969a24.913,24.913,0,0,1,.333,3.591c5.761,0,8.2-5.183,8.2-5.183Z" transform="translate(-345.436 -76.377)"/>
        </g>
      </g>
      <path id="Path_20650" data-name="Path 20650" d="M349.173,50.823c-7.413-.406-10.017,3.432-10.977,11.041-1.2,9.511.543,16.41,9.924,14.877,12.739-2.078,13.365-25.244,1.054-25.918" transform="translate(-12728.124 -12603.145)" fill="#b97964"/>
      <path id="Path_20656" data-name="Path 20656" d="M349.428,57.045a3.864,3.864,0,0,1,3.154,1.3" transform="translate(-12729.617 -12603.951)" fill="none" stroke="#2e353a" stroke-linecap="round" stroke-linejoin="round" stroke-width="0.725"/>
      <path id="Path_20661" data-name="Path 20661" d="M356.659,63.339s-3.132-6.28-2.349-10.954c0,0-14.361-6.806-15.9,8.065,0,0-.709-13.319,12.05-12.915,12.74.4,11.684,19.042,4.8,24.238,0,0,3.34-4.507,1.4-8.433" transform="translate(-12728.193 -12602.723)" fill="#263238"/>
      <path id="Path_20662" data-name="Path 20662" d="M358.087,49.378s-5.8-5.168-11.084-4.191-4.363,7.925,2.585,10.565,8.384,6.03,8.384,6.03l6.029-5.4Z" transform="translate(-12728.866 -12602.405)" fill="#263238"/>
      <path id="Path_20663" data-name="Path 20663" d="M345.443,47.7s-2.469.172-1.78,3.847,5.915,5.522,10.855,7.245,4.536,3.666,4.536,3.666" transform="translate(-12728.857 -12602.745)" fill="none" stroke="#263238" stroke-miterlimit="10" stroke-width="0.5"/>
      <path id="Path_20664" data-name="Path 20664" d="M357.867,66.984a3.258,3.258,0,0,1,3.664-2.779c2.283.376,3.12,5.153-2.656,5.973-.829.118-1.247-.709-1.008-3.194" transform="translate(-12730.697 -12604.87)" fill="#b97964"/>
      <path id="Path_20665" data-name="Path 20665" d="M359.713,90.1s-8.319,6.75-16.064,6.641-10.466-8.818-10.466-8.818,12.012-3.556,26.53,2.177" transform="translate(-12727.521 -12607.796)" fill="#b97964"/>
      <path id="Path_20666" data-name="Path 20666" d="M357.532,87.864a185.931,185.931,0,0,0,.431,56.965l8.269-.917,3.905-53.063Z" transform="translate(-12730.408 -12607.929)" fill="#407bff"/>
      <g id="Group_4589" data-name="Group 4589" transform="translate(-12374.84 -12520.067)" opacity="0.2" style="isolation: isolate">
        <g id="Group_4588" data-name="Group 4588">
          <rect id="Rectangle_2007" data-name="Rectangle 2007" width="14.571" height="56.969" transform="translate(0 0.001)" fill="none"/>
          <path id="Path_20667" data-name="Path 20667" d="M370.141,90.848l-.418,5.626-2.1,28.489-1.393,18.943-8.265.922c-.1-.6-.192-1.2-.279-1.793a186.377,186.377,0,0,1-2.116-28.219v-.966a174.785,174.785,0,0,1,1.96-25.99l3.832.906Z" transform="translate(-355.57 -87.861)" fill="#fff"/>
        </g>
      </g>
      <path id="Path_20668" data-name="Path 20668" d="M337.507,86.545s-9.189,27.1-10.567,54.9l-2.986-.919s-2.211-30.063,2.383-53.262Z" transform="translate(-12726.261 -12607.759)" fill="#407bff"/>
      <g id="Group_4591" data-name="Group 4591" transform="translate(-12402.839 -12521.217)" opacity="0.2" style="isolation: isolate">
        <g id="Group_4590" data-name="Group 4590">
          <rect id="Rectangle_2008" data-name="Rectangle 2008" width="14.081" height="54.905" transform="translate(0 0)" fill="none"/>
          <path id="Path_20669" data-name="Path 20669" d="M337.5,86.541a234.331,234.331,0,0,0-6.488,24.683c-.47,2.257-.933,4.617-1.36,7.055-.8,4.512-1.5,9.285-2.012,14.17-.314,2.971-.557,5.974-.705,9l-2.988-.924s-.287-3.857-.435-9.884c-.1-4.137-.147-9.3.01-14.927a175.407,175.407,0,0,1,2.813-28.445l7.656-.5Z" transform="translate(-323.422 -86.541)" fill="#fff"/>
        </g>
      </g>
      <g id="Group_4593" data-name="Group 4593" transform="translate(-12374.84 -12520.067)" opacity="0.2" style="isolation: isolate">
        <g id="Group_4592" data-name="Group 4592">
          <rect id="Rectangle_2009" data-name="Rectangle 2009" width="8.248" height="25.989" transform="translate(0 0.001)" fill="none"/>
          <path id="Path_20670" data-name="Path 20670" d="M358.653,98.112l2.926,4.137-6.01,11.6a174.766,174.766,0,0,1,1.96-25.989l3.832.906,2.456,5.47Z" transform="translate(-355.57 -87.861)" fill="#fff"/>
        </g>
      </g>
      <g id="Group_4595" data-name="Group 4595" transform="translate(-12397.424 -12521.217)" opacity="0.2" style="isolation: isolate">
        <g id="Group_4594" data-name="Group 4594">
          <rect id="Rectangle_2010" data-name="Rectangle 2010" width="8.666" height="24.682" transform="translate(0 0)" fill="none"/>
          <path id="Path_20671" data-name="Path 20671" d="M338.306,86.541a234.331,234.331,0,0,0-6.488,24.683l-2.177-11.906,4.3-3.875-2.752-4.3,3.606-4.372Z" transform="translate(-329.64 -86.541)" fill="#fff"/>
        </g>
      </g>
      <g id="Group_4597" data-name="Group 4597" transform="translate(-12374.84 -12511.454)" opacity="0.2" style="isolation: isolate">
        <g id="Group_4596" data-name="Group 4596">
          <rect id="Rectangle_2011" data-name="Rectangle 2011" width="14.153" height="46.562" transform="translate(0)" fill="none"/>
          <path id="Path_20672" data-name="Path 20672" d="M369.723,97.751l-2.1,28.489c-2.446,6.124-5.775,12.9-9.938,18.072a186.377,186.377,0,0,1-2.116-28.219c3.806-6.209,9.232-14.248,13.935-18.167.07-.062.148-.123.218-.175" transform="translate(-355.57 -97.751)"/>
        </g>
      </g>
      <g id="Group_4599" data-name="Group 4599" transform="translate(-12402.839 -12492.049)" opacity="0.2" style="isolation: isolate">
        <g id="Group_4598" data-name="Group 4598">
          <rect id="Rectangle_2012" data-name="Rectangle 2012" width="6.234" height="16.739" fill="none"/>
          <path id="Path_20673" data-name="Path 20673" d="M329.656,122.6c-.8,4.512-1.5,9.285-2.012,14.17-1.367-.584-2.77-1.2-4.128-1.812-.1-4.137-.148-9.3.009-14.928Z" transform="translate(-323.422 -120.031)"/>
        </g>
      </g>
      <path id="Path_20674" data-name="Path 20674" d="M295.363,124.75s-6.484-2.583-3.721-9.321c0,0-1.872,1.763-6.226-.42,0,0,4.538,2.173,3.9,3.585-.529,1.175-6.495,1.812-6.495,1.812s6.711-.466,7.423.984c.451.916-4.064,6.318-4.064,6.318s4.75-4.589,5.753-3.992-.321,4.412-.321,4.412,1.291-3.3,2.035-3.2.628,2.31.628,2.31-.023-2.346,1.085-2.492" transform="translate(-12721.021 -12611.432)" fill="#407bff"/>
      <path id="Path_20675" data-name="Path 20675" d="M301.224,108.063s-5.4-4.42-9.956,1.262c0,0,.635-2.492-3.384-5.243,0,0,4.1,2.917,5.026,1.677.771-1.032-1.562-6.559-1.562-6.559s2.843,6.1,4.457,6.017c1.021-.051,3.559-6.617,3.559-6.617s-1.712,6.379-.706,6.968,3.705-2.419,3.705-2.419-2.259,2.726-1.809,3.329,2.325-.57,2.325-.57-2.063,1.117-1.655,2.156" transform="translate(-12721.675 -12609.314)" fill="#407bff"/>
      <g id="Group_4601" data-name="Group 4601" transform="translate(-12438.198 -12496.423)" opacity="0.7" style="isolation: isolate">
        <g id="Group_4600" data-name="Group 4600">
          <rect id="Rectangle_2013" data-name="Rectangle 2013" width="12.539" height="13.119" transform="translate(0)" fill="none"/>
          <path id="Path_20676" data-name="Path 20676" d="M295.363,124.75s-6.484-2.583-3.721-9.321c0,0-1.872,1.763-6.226-.42,0,0,4.538,2.173,3.9,3.585-.529,1.175-6.495,1.812-6.495,1.812s6.711-.466,7.423.984c.451.916-4.064,6.318-4.064,6.318s4.75-4.589,5.753-3.992-.321,4.412-.321,4.412,1.291-3.3,2.035-3.2.628,2.31.628,2.31-.023-2.346,1.085-2.492" transform="translate(-282.823 -115.009)" fill="#fff"/>
        </g>
      </g>
      <g id="Group_4603" data-name="Group 4603" transform="translate(-12433.79 -12510.716)" opacity="0.7" style="isolation: isolate">
        <g id="Group_4602" data-name="Group 4602">
          <rect id="Rectangle_2014" data-name="Rectangle 2014" width="14.993" height="10.727" fill="none"/>
          <path id="Path_20677" data-name="Path 20677" d="M301.224,108.063s-5.4-4.42-9.956,1.262c0,0,.635-2.492-3.384-5.243,0,0,4.1,2.917,5.026,1.677.771-1.032-1.562-6.559-1.562-6.559s2.843,6.1,4.457,6.017c1.021-.051,3.559-6.617,3.559-6.617s-1.712,6.379-.706,6.968,3.705-2.419,3.705-2.419-2.259,2.726-1.809,3.329,2.325-.57,2.325-.57-2.063,1.117-1.655,2.156" transform="translate(-287.885 -98.599)" fill="#fff"/>
        </g>
      </g>
      <path id="Path_20678" data-name="Path 20678" d="M323.034,121.552l-11.694-7.959s-3.784-11.126-4.687-11.3-7.157,3.2-7.463,4.19,3.381,8.946,4.358,9.95,3.412,1.118,3.412,1.118l11.389,8.952Z" transform="translate(-12723.132 -12609.79)" fill="#b97964"/>
      <path id="Path_20679" data-name="Path 20679" d="M364.724,91.292c-3.329-.215-15.62,32.618-17.457,35.375s-29.516-11.83-29.516-11.83l-4.135,9.131s30.148,17.916,38.475,15.333c6.024-1.87,11.715-20.9,14.242-29.173,4.028-13.182,1.444-18.637-1.608-18.835" transform="translate(-12724.995 -12608.371)" fill="#407bff"/>
      <g id="Group_4605" data-name="Group 4605" transform="translate(-12411.38 -12517.08)" opacity="0.2" style="isolation: isolate">
        <g id="Group_4604" data-name="Group 4604">
          <rect id="Rectangle_2015" data-name="Rectangle 2015" width="54.783" height="48.264" transform="translate(0)" fill="none"/>
          <path id="Path_20680" data-name="Path 20680" d="M364.724,91.292c-3.329-.215-15.62,32.618-17.457,35.375s-29.516-11.83-29.516-11.83l-4.135,9.131s30.148,17.916,38.475,15.333c6.024-1.87,11.715-20.9,14.242-29.173,4.028-13.182,1.444-18.637-1.608-18.835" transform="translate(-313.615 -91.291)" fill="#fff"/>
        </g>
      </g>
      <path id="Path_20681" data-name="Path 20681" d="M249.418,20.191l-11.77-2.037a3.215,3.215,0,0,1-2.62-3.717l2.036-11.769a3.215,3.215,0,0,1,3.717-2.62l11.77,2.036a3.216,3.216,0,0,1,2.62,3.718l-2.037,11.769a3.215,3.215,0,0,1-3.716,2.62" transform="translate(-12714.848 -12596.59)" fill="#407bff"/>
      <g id="Group_4607" data-name="Group 4607" transform="translate(-12475.077 -12591.82)" opacity="0.6" style="isolation: isolate">
        <g id="Group_4606" data-name="Group 4606">
          <rect id="Rectangle_2016" data-name="Rectangle 2016" width="11.222" height="10.161" transform="translate(0.001)" fill="none"/>
          <path id="Path_20682" data-name="Path 20682" d="M251.41,8.125c-.919-2.3-3.5-1.923-5.043-.527-.982-1.832-3.288-3.053-4.926-1.2-2.763,3.127,1.119,7.14,3,8.774.213.188.388.341.536.463.18-.065.4-.151.661-.255,2.318-.908,7.324-3.383,5.774-7.258" transform="translate(-240.48 -5.477)" fill="#fff"/>
        </g>
      </g>
      <path id="Path_20683" data-name="Path 20683" d="M245.989,20.629s-3.317,5.022-8.929,5.8c0,0,3.236-1.19,3.989-6.887Z" transform="translate(-12715.116 -12599.111)" fill="#407bff"/>
      <path id="Path_20684" data-name="Path 20684" d="M198.982,318.461h-8.622a.625.625,0,0,0-.605.488l-1.4,6.32a1.048,1.048,0,0,0,.807,1.242,1.138,1.138,0,0,0,.231.022c2.79-.045,4.821-.217,8.324-.217,2.157,0,8.667.226,11.645.226s3.368-2.944,2.149-3.215c-5.47-1.191-9.587-2.843-11.339-4.414a1.712,1.712,0,0,0-1.191-.452" transform="translate(-12708.828 -12637.688)" fill="#263238"/>
      <path id="Path_20685" data-name="Path 20685" d="M240.962,318.2h-8.621a.623.623,0,0,0-.606.487l-1.4,6.32a1.049,1.049,0,0,0,1.039,1.264c2.789-.045,4.82-.217,8.323-.217,2.157,0,8.667.226,11.646.226s3.367-2.943,2.149-3.214c-5.472-1.191-9.589-2.844-11.339-4.415a1.716,1.716,0,0,0-1.193-.45" transform="translate(-12714.245 -12637.653)" fill="#263238"/>
      <path id="Path_20686" data-name="Path 20686" d="M194.422,134.962h37.669c3.581,19.557,13.825,98.7,5.781,160.37L225.3,296.711s1.972-94.762-9.286-125.026c-1.3,16.2-2.833,33.43-4.168,42.6-3.277,22.571-10.665,81.392-10.665,81.392l-12.747.344s2.793-57.054,4.019-79.235c1.342-24.082,1.921-76.877,1.974-81.824" transform="translate(-12708.84 -12614.007)" fill="#263238"/>
      <g id="Group_4609" data-name="Group 4609" transform="translate(-12520.411 -12479.045)" opacity="0.2" style="isolation: isolate">
        <g id="Group_4608" data-name="Group 4608">
          <rect id="Rectangle_2017" data-name="Rectangle 2017" width="52.449" height="161.748" transform="translate(0 0.001)" fill="none"/>
          <path id="Path_20687" data-name="Path 20687" d="M194.422,134.962h37.669c3.581,19.557,13.825,98.7,5.781,160.37L225.3,296.711s1.972-94.762-9.286-125.026c-1.3,16.2-2.833,33.43-4.168,42.6-3.277,22.571-10.665,81.392-10.665,81.392l-12.747.344s2.793-57.054,4.019-79.235c1.342-24.082,1.921-76.877,1.974-81.824" transform="translate(-188.429 -134.962)" fill="#fff"/>
        </g>
      </g>
      <g id="Group_4611" data-name="Group 4611" transform="translate(-12492.828 -12455.723)" opacity="0.2" style="isolation: isolate">
        <g id="Group_4610" data-name="Group 4610">
          <rect id="Rectangle_2018" data-name="Rectangle 2018" width="4.376" height="29.699" transform="translate(0)" fill="none"/>
          <path id="Path_20688" data-name="Path 20688" d="M220.1,175.143a100.967,100.967,0,0,1,4.208,16.3c1.053-14.412-3.16-29.7-3.16-29.7Z" transform="translate(-220.099 -161.74)"/>
        </g>
      </g>
      <path id="Path_20689" data-name="Path 20689" d="M233.3,135.48H195.387v4.514l38.4-.467Z" transform="translate(-12709.738 -12614.073)" fill="#263238"/>
      <rect id="Rectangle_2019" data-name="Rectangle 2019" width="1.354" height="8.012" transform="translate(-12502.163 -12480.625)" fill="#263238"/>
      <rect id="Rectangle_2020" data-name="Rectangle 2020" width="1.354" height="8.012" transform="translate(-12482.979 -12480.625)" fill="#263238"/>
      <rect id="Rectangle_2021" data-name="Rectangle 2021" width="7.013" height="5.053" transform="translate(-12493.715 -12479.383)" fill="#fff"/>
      <g id="Group_4613" data-name="Group 4613" transform="translate(-12502.163 -12480.625)" opacity="0.2" style="isolation: isolate">
        <g id="Group_4612" data-name="Group 4612">
          <rect id="Rectangle_2022" data-name="Rectangle 2022" width="1.354" height="8.012" transform="translate(0 0.001)" fill="none"/>
          <rect id="Rectangle_2023" data-name="Rectangle 2023" width="1.354" height="8.012" fill="#fff"/>
        </g>
      </g>
      <g id="Group_4615" data-name="Group 4615" transform="translate(-12482.979 -12480.625)" opacity="0.2" style="isolation: isolate">
        <g id="Group_4614" data-name="Group 4614">
          <rect id="Rectangle_2024" data-name="Rectangle 2024" width="1.354" height="8.012" transform="translate(0 0.001)" fill="none"/>
          <rect id="Rectangle_2025" data-name="Rectangle 2025" width="1.354" height="8.012" fill="#fff"/>
        </g>
      </g>
      <path id="Path_20690" data-name="Path 20690" d="M284.165,80.61l3.184-3.275s1.273-4.913,2-5.823,6.277-3.457,6.277-3.457,1.91.091,2.183.455-.637,8.642-1.455,9.735-4.822,2-5.368,2.183-6.186,5.914-6.186,5.914Z" transform="translate(-12721.194 -12605.372)" fill="#ebb376"/>
      <path id="Path_20691" data-name="Path 20691" d="M234.17,60.133c5.948.723,17.662,27.77,22.141,30.182s22.223-12.748,22.223-12.748l4.479,5.512s-20.156,21.534-28.08,19.123-19.123-22.741-22.568-29.114,1.8-12.955,1.8-12.955" transform="translate(-12714.359 -12604.35)" fill="#407bff"/>
      <g id="Group_4617" data-name="Group 4617" transform="translate(-12483.167 -12544.219)" opacity="0.6" style="isolation: isolate">
        <g id="Group_4616" data-name="Group 4616">
          <rect id="Rectangle_2026" data-name="Rectangle 2026" width="51.82" height="42.256" transform="translate(0)" fill="none"/>
          <path id="Path_20692" data-name="Path 20692" d="M283.011,83.081s-20.153,21.531-28.079,19.118c-3.459-1.054-7.542-5.523-11.331-10.748a174.185,174.185,0,0,1-11.235-18.36,10.873,10.873,0,0,1-.192-9.406,15.8,15.8,0,0,1,1.994-3.553c5.949.723,17.663,27.775,22.14,30.187s22.227-12.751,22.227-12.751Z" transform="translate(-231.192 -60.131)" fill="#fff"/>
        </g>
      </g>
      <g id="Group_4619" data-name="Group 4619" transform="translate(-12483.167 -12540.665)" opacity="0.2" style="isolation: isolate">
        <g id="Group_4618" data-name="Group 4618">
          <rect id="Rectangle_2027" data-name="Rectangle 2027" width="12.409" height="27.765" transform="translate(0 0.001)" fill="none"/>
          <path id="Path_20693" data-name="Path 20693" d="M243.6,91.977a174.184,174.184,0,0,1-11.235-18.36,10.873,10.873,0,0,1-.192-9.406A52.289,52.289,0,0,1,243.6,91.977" transform="translate(-231.192 -64.211)"/>
        </g>
      </g>
      <path id="Path_20694" data-name="Path 20694" d="M228.418,60.114s-23.962-1.128-41.813,3.378c0,0,7.881,39.677,7.582,62.247h37.985s2.469-42.332-3.754-65.624" transform="translate(-12708.604 -12604.331)" fill="#407bff"/>
      <g id="Group_4621" data-name="Group 4621" transform="translate(-12521.995 -12544.343)" opacity="0.6" style="isolation: isolate">
        <g id="Group_4620" data-name="Group 4620">
          <rect id="Rectangle_2028" data-name="Rectangle 2028" width="46.041" height="65.751" transform="translate(0 0.001)" fill="none"/>
          <path id="Path_20695" data-name="Path 20695" d="M232.169,125.739H194.2c.035-2.455-.035-5.1-.174-7.891-.331-6.515-1.071-13.735-1.968-20.72l-.261-2.038c-.61-4.538-1.263-8.927-1.9-12.934-1.716-10.756-3.283-18.664-3.283-18.664,17.846-4.5,41.806-3.379,41.806-3.379,6.219,23.3,3.754,65.626,3.754,65.626" transform="translate(-186.61 -59.988)" fill="#fff"/>
        </g>
      </g>
      <g id="Group_4623" data-name="Group 4623" transform="translate(-12516.552 -12507.203)" opacity="0.2" style="isolation: isolate">
        <g id="Group_4622" data-name="Group 4622">
          <rect id="Rectangle_2029" data-name="Rectangle 2029" width="25.258" height="20.721" fill="none"/>
          <path id="Path_20696" data-name="Path 20696" d="M218.118,107.169s-6.558,15.634-23.289,16.182c-.331-6.515-1.071-13.735-1.968-20.72Z" transform="translate(-192.86 -102.631)"/>
        </g>
      </g>
      <path id="Path_20697" data-name="Path 20697" d="M202.669,59.255c3.441,3.126,11.869,1.97,11.869,1.97s5.261-1.441,4.157-3.084c-3.1-.512-4.6-1.958-5.22-3.809a9.027,9.027,0,0,1-.314-3.54,18.711,18.711,0,0,1,.261-1.976L203,41.1c1.366,5.093,3.038,14.463-.332,18.155" transform="translate(-12710.678 -12601.894)" fill="#ebb376"/>
      <g id="Group_4625" data-name="Group 4625" transform="translate(-12505.269 -12555.89)" opacity="0.2" style="isolation: isolate">
        <g id="Group_4624" data-name="Group 4624">
          <rect id="Rectangle_2030" data-name="Rectangle 2030" width="8.067" height="8.327" transform="translate(0 0.001)" fill="none"/>
          <path id="Path_20698" data-name="Path 20698" d="M205.815,46.731c.414,6.253,5.552,7.978,8.068,8.327a9.007,9.007,0,0,1-.315-3.54Z" transform="translate(-205.815 -46.731)"/>
        </g>
      </g>
      <path id="Path_20699" data-name="Path 20699" d="M221.985,22.5s2.907,9.4-1.645,13.872S213.1,22.921,213.1,22.921Z" transform="translate(-12712.023 -12599.493)" fill="#263238"/>
      <path id="Path_20700" data-name="Path 20700" d="M205.173,46.077a8.832,8.832,0,0,0,10.538,1.88,9.971,9.971,0,0,0,5.2-6.348c1.632-6.258.888-16.666-5.909-19.588a9.579,9.579,0,0,0-13.393,9.3c.268,6.991.1,11.113,3.568,14.753" transform="translate(-12710.539 -12598.327)" fill="#ebb376"/>
      <path id="Path_20706" data-name="Path 20706" d="M206.4,22.924,206.863,26a2.3,2.3,0,0,0-1.075,2.925c1.067,2.566-.294,6.627-2.238,8.284,0,0-.093-1.122-1.033-.829s-.518,6.134,1.407,8.872a20.392,20.392,0,0,1-5.09-9.093c-1.616-5.639-1.45-9.816-.344-12.044Z" transform="translate(-12710.028 -12599.548)" fill="#263238"/>
      <path id="Path_20707" data-name="Path 20707" d="M197.919,38.682a6.665,6.665,0,0,0,3.746,3.443c2.2.786,3.461-1.142,3-3.3-.432-1.919-2.083-4.7-4.361-4.536a2.97,2.97,0,0,0-2.381,4.4" transform="translate(-12710.023 -12601.014)" fill="#ebb376"/>
      <path id="Path_20711" data-name="Path 20711" d="M208.488,23.038s.459,3.675-4.134,5.571-6.26,3.5-6.26,3.5-3.1-9.016,2.527-12.346c0,0,.115-1.723,4.938-3.388s11.74-.871,14.873,4.938c2.354,4.364.172,7.464.172,7.464s-.459-2.527-4.938-3.1a17.626,17.626,0,0,1-7.178-2.642" transform="translate(-12709.978 -12598.604)" fill="#263238"/>
      <path id="Path_20712" data-name="Path 20712" d="M219.074,63.591l-1.009,4.957s5.772,24.075,7.013,36.563l-2.1,2.107-3.309-2.107S219.37,79.683,216.45,69l-5.233-4.285,4.119-1.333Z" transform="translate(-12711.781 -12604.77)" fill="#263238"/>
      <path id="Path_20713" data-name="Path 20713" d="M203.464,56.529l10.011,4.514.586-3.619,3.681,1.3a3.024,3.024,0,0,1,2,3.168l-.415,3.971-5.078-2.779-2.531,3.58L199.7,60.866Z" transform="translate(-12710.295 -12603.885)" fill="#407bff"/>
      <g id="Group_4627" data-name="Group 4627" transform="translate(-12510.597 -12547.355)" opacity="0.7" style="isolation: isolate">
        <g id="Group_4626" data-name="Group 4626">
          <rect id="Rectangle_2031" data-name="Rectangle 2031" width="20.064" height="10.129" transform="translate(0 0.001)" fill="none"/>
          <path id="Path_20714" data-name="Path 20714" d="M203.464,56.529l10.011,4.514.586-3.619,3.681,1.3a3.024,3.024,0,0,1,2,3.168l-.415,3.971-5.078-2.779-2.531,3.58L199.7,60.866Z" transform="translate(-199.698 -56.529)" fill="#fff"/>
        </g>
      </g>
      <path id="Path_20715" data-name="Path 20715" d="M234.517,99.859l12.059-2.239s2.239-2.24,3.272-2.24,14.472,4.134,14.472,4.134-3.617,3.618-5.341,4.308-9.648-1.034-9.648-1.034l-11.714,3.1Z" transform="translate(-12714.788 -12608.898)" fill="#ebb376"/>
      <path id="Path_20716" data-name="Path 20716" d="M185.92,64c5.51-2,13.645,30.6,15.368,33.18s34.111-3.8,34.111-3.8l2.584,7.589s-27.392,9.477-38.763,7.582-13.954-18.434-16.711-28.254-.586-14.848,3.411-16.3" transform="translate(-12707.917 -12604.837)" fill="#407bff"/>
      <g id="Group_4629" data-name="Group 4629" transform="translate(-12526.644 -12540.929)" opacity="0.7" style="isolation: isolate">
        <g id="Group_4628" data-name="Group 4628">
          <rect id="Rectangle_2032" data-name="Rectangle 2032" width="56.708" height="44.888" transform="translate(0)" fill="none"/>
          <path id="Path_20717" data-name="Path 20717" d="M185.92,64c5.51-2,13.645,30.6,15.368,33.18s34.111-3.8,34.111-3.8l2.584,7.589s-27.392,9.477-38.763,7.582-13.954-18.434-16.711-28.254-.586-14.848,3.411-16.3" transform="translate(-181.273 -63.909)" fill="#fff"/>
        </g>
      </g>
      <path id="Path_20718" data-name="Path 20718" d="M284.9,63.614a4.2,4.2,0,0,1,2.644-2.282,5.306,5.306,0,0,1,3.224.062,5.2,5.2,0,0,1,2.614,1.9,3.674,3.674,0,0,1,.422.71,3.478,3.478,0,0,1,.3.759l.117.389.054.365.1.732a7.609,7.609,0,0,1-1.757,5.487,10.557,10.557,0,0,1-4.559,3.152,15.008,15.008,0,0,1-5.292.9,17.4,17.4,0,0,1-2.645-.194,13.945,13.945,0,0,0-2.393-.244,3.338,3.338,0,0,0-1.989.655,1.481,1.481,0,0,0-.587,1.607,1.191,1.191,0,0,0,1.4.7.962.962,0,0,0,.216-1.673,1.122,1.122,0,0,1,.9,1.024,1.529,1.529,0,0,1-.71,1.389,1.744,1.744,0,0,1-1.63.106,2.172,2.172,0,0,1-1.181-1.123,2.621,2.621,0,0,1,.783-2.946A4.6,4.6,0,0,1,277.623,74a15.094,15.094,0,0,1,2.669.115,15.823,15.823,0,0,0,2.428.05,13.55,13.55,0,0,0,4.641-1.032,8.573,8.573,0,0,0,3.623-2.685,5.782,5.782,0,0,0,1.119-4.226,2.978,2.978,0,0,0-3.358-2.633,5.537,5.537,0,0,0-3.553,3.133Z" transform="translate(-12719.879 -12604.477)" fill="#407bff"/>
      <path id="Path_20719" data-name="Path 20719" d="M258.9,54.3a4.193,4.193,0,0,0-.7-3.421,5.308,5.308,0,0,0-2.59-1.92,5.2,5.2,0,0,0-3.227-.093,5.036,5.036,0,0,0-1.468.724l-.329.237-.266.257-.524.519a7.616,7.616,0,0,0-1.959,5.419,10.567,10.567,0,0,0,1.685,5.279,15.033,15.033,0,0,0,3.64,3.945,17.4,17.4,0,0,0,2.214,1.461,13.933,13.933,0,0,1,2.045,1.269,3.33,3.33,0,0,1,1.175,1.732,1.481,1.481,0,0,1-.516,1.631,1.19,1.19,0,0,1-1.533-.3.963.963,0,0,1,.85-1.458,1.123,1.123,0,0,0-1.341.26,1.523,1.523,0,0,0-.287,1.532,1.742,1.742,0,0,0,1.226,1.08,2.17,2.17,0,0,0,1.622-.167,2.621,2.621,0,0,0,1.176-2.811,4.59,4.59,0,0,0-1.466-2.5,15.275,15.275,0,0,0-2.184-1.538,15.76,15.76,0,0,1-1.953-1.442,13.558,13.558,0,0,1-3.046-3.651,8.575,8.575,0,0,1-1.231-4.339,5.785,5.785,0,0,1,1.694-4.031,2.978,2.978,0,0,1,4.267-.035,5.535,5.535,0,0,1,.9,4.651Z" transform="translate(-12716.506 -12602.868)" fill="#407bff"/>
      <g id="Group_4631" data-name="Group 4631" transform="translate(-12468.676 -12554.22)" opacity="0.2" style="isolation: isolate">
        <g id="Group_4630" data-name="Group 4630">
          <rect id="Rectangle_2033" data-name="Rectangle 2033" width="43.203" height="29.048" transform="translate(0 0)" fill="none"/>
          <path id="Path_20720" data-name="Path 20720" d="M284.9,63.614a4.2,4.2,0,0,1,2.644-2.282,5.306,5.306,0,0,1,3.224.062,5.2,5.2,0,0,1,2.614,1.9,3.674,3.674,0,0,1,.422.71,3.478,3.478,0,0,1,.3.759l.117.389.054.365.1.732a7.609,7.609,0,0,1-1.757,5.487,10.557,10.557,0,0,1-4.559,3.152,15.008,15.008,0,0,1-5.292.9,17.4,17.4,0,0,1-2.645-.194,13.945,13.945,0,0,0-2.393-.244,3.338,3.338,0,0,0-1.989.655,1.481,1.481,0,0,0-.587,1.607,1.191,1.191,0,0,0,1.4.7.962.962,0,0,0,.216-1.673,1.122,1.122,0,0,1,.9,1.024,1.529,1.529,0,0,1-.71,1.389,1.744,1.744,0,0,1-1.63.106,2.172,2.172,0,0,1-1.181-1.123,2.621,2.621,0,0,1,.783-2.946A4.6,4.6,0,0,1,277.623,74a15.094,15.094,0,0,1,2.669.115,15.823,15.823,0,0,0,2.428.05,13.55,13.55,0,0,0,4.641-1.032,8.573,8.573,0,0,0,3.623-2.685,5.782,5.782,0,0,0,1.119-4.226,2.978,2.978,0,0,0-3.358-2.633,5.537,5.537,0,0,0-3.553,3.133Z" transform="translate(-251.203 -50.257)"/>
          <path id="Path_20721" data-name="Path 20721" d="M258.9,54.3a4.193,4.193,0,0,0-.7-3.421,5.308,5.308,0,0,0-2.59-1.92,5.2,5.2,0,0,0-3.227-.093,5.036,5.036,0,0,0-1.468.724l-.329.237-.266.257-.524.519a7.616,7.616,0,0,0-1.959,5.419,10.567,10.567,0,0,0,1.685,5.279,15.033,15.033,0,0,0,3.64,3.945,17.4,17.4,0,0,0,2.214,1.461,13.933,13.933,0,0,1,2.045,1.269,3.33,3.33,0,0,1,1.175,1.732,1.481,1.481,0,0,1-.516,1.631,1.19,1.19,0,0,1-1.533-.3.963.963,0,0,1,.85-1.458,1.123,1.123,0,0,0-1.341.26,1.523,1.523,0,0,0-.287,1.532,1.742,1.742,0,0,0,1.226,1.08,2.17,2.17,0,0,0,1.622-.167,2.621,2.621,0,0,0,1.176-2.811,4.59,4.59,0,0,0-1.466-2.5,15.275,15.275,0,0,0-2.184-1.538,15.76,15.76,0,0,1-1.953-1.442,13.558,13.558,0,0,1-3.046-3.651,8.575,8.575,0,0,1-1.231-4.339,5.785,5.785,0,0,1,1.694-4.031,2.978,2.978,0,0,1,4.267-.035,5.535,5.535,0,0,1,.9,4.651Z" transform="translate(-247.83 -48.648)"/>
        </g>
      </g>
      <path id="Path_20722" data-name="Path 20722" d="M269.505,75.078c5.408-.6,10.785-4.7,13.782-11.009l1.377-2.9-26.412-9-.678,3.135c-1.479,6.827.28,13.355,4.194,17.134a3.894,3.894,0,0,1,.969,3.958l-1.866,5.843a3,3,0,0,1-3.354,2.065,5.437,5.437,0,0,0-3.77.734l-1.373.875,16.346,5.569-.553-1.531a5.434,5.434,0,0,0-2.538-2.884,3,3,0,0,1-1.4-3.683l2.089-5.768a3.894,3.894,0,0,1,3.183-2.542" transform="translate(-12717.092 -12603.322)" fill="#407bff"/>
      <path id="Path_20723" data-name="Path 20723" d="M251.525,89.011l18.065,6.155-1.316,6.1-19.43-6.619Z" transform="translate(-12716.637 -12608.077)" fill="#263238"/>
      <g id="Group_4633" data-name="Group 4633" transform="translate(-12463.671 -12517.661)" opacity="0.2" style="isolation: isolate">
        <g id="Group_4632" data-name="Group 4632">
          <rect id="Rectangle_2034" data-name="Rectangle 2034" width="12.501" height="9.445" fill="none"/>
          <path id="Path_20724" data-name="Path 20724" d="M256.257,90.624l9.821,3.345-1.317,6.1-11.185-3.81Z" transform="translate(-253.576 -90.624)" fill="#fff"/>
        </g>
      </g>
      <rect id="Rectangle_2035" data-name="Rectangle 2035" width="2.412" height="6.201" transform="translate(-12460.384 -12512.97) rotate(-71.19)" fill="#fff"/>
      <g id="Group_4635" data-name="Group 4635" transform="translate(-12460.989 -12549.861)" opacity="0.3" style="isolation: isolate">
        <g id="Group_4634" data-name="Group 4634">
          <rect id="Rectangle_2036" data-name="Rectangle 2036" width="9.316" height="32.676" transform="translate(0.001)" fill="none"/>
          <path id="Path_20725" data-name="Path 20725" d="M263.272,72.223a4.349,4.349,0,0,1,.751,4.243l-2.244,6.587c-.442,1.3-.987,1.656-2.53,1.711a5.356,5.356,0,0,0-2.593.631l2.746.934a3.445,3.445,0,0,1,1.015-.245l.44-.031a1.51,1.51,0,0,0,1.327-1.02l3.648-10.71a2.626,2.626,0,0,0-.3-2.3l-.468-.705a13.666,13.666,0,0,1-2.061-9.961L264.148,55l-3.965-1.35-.9,7.358a15.214,15.214,0,0,0,3.985,11.212" transform="translate(-256.656 -53.653)" fill="#fff"/>
        </g>
      </g>
      <path id="Path_20726" data-name="Path 20726" d="M210.57,89.115l-3.067-.846L204.54,89.68l-.657-7,6.03-.566Z" transform="translate(-12710.835 -12607.187)" fill="#407bff"/>
      <g id="Group_4637" data-name="Group 4637" transform="translate(-12506.951 -12525.074)" opacity="0.2" style="isolation: isolate">
        <g id="Group_4636" data-name="Group 4636">
          <rect id="Rectangle_2037" data-name="Rectangle 2037" width="6.686" height="7.568" transform="translate(0 0)" fill="none"/>
          <path id="Path_20727" data-name="Path 20727" d="M210.57,89.115l-3.067-.846L204.54,89.68l-.657-7,6.03-.566Z" transform="translate(-203.883 -82.112)" fill="#fff"/>
        </g>
      </g>
      <path id="Path_20728" data-name="Path 20728" d="M206.041,75.774l.64.342.66-.3.534.49.715-.126.4.608.723.056.233.687.688.233.054.724.607.4-.127.715.49.535-.3.66.342.64-.457.564.172.706-.582.434-.011.726-.671.275-.189.7-.72.1-.358.632-.721-.082-.5.522-.677-.259-.619.381-.591-.42-.693.215-.469-.554-.725.036-.317-.652-.711-.145-.144-.711-.652-.318.037-.725-.553-.47.216-.694-.418-.592.381-.618-.259-.679.524-.5-.082-.721.632-.357.1-.718.7-.189.275-.672.726-.008.435-.581.7.171Z" transform="translate(-12710.506 -12606.368)" fill="#407bff"/>
      <g id="Group_4639" data-name="Group 4639" transform="translate(-12508.367 -12529.831)" opacity="0.4" style="isolation: isolate">
        <g id="Group_4638" data-name="Group 4638">
          <rect id="Rectangle_2038" data-name="Rectangle 2038" width="8.77" height="8.77" transform="translate(0 0)" fill="none"/>
          <path id="Path_20729" data-name="Path 20729" d="M211.008,80.626a4.385,4.385,0,1,1-4.775-3.956,4.384,4.384,0,0,1,4.775,3.956" transform="translate(-202.258 -76.651)" fill="#fff"/>
        </g>
      </g>
      <path id="Path_20730" data-name="Path 20730" d="M207.064,81.046l-.055.785.633-.058-.037.627-.642.06-.068.981-.613.057.069-.981-.534.05-.068.982-.613.057.069-.982-.605.057.037-.627.612-.058.055-.786-.6.056.037-.625.611-.057.079-1.123.613-.059-.078,1.123.533-.049.079-1.123.612-.058-.079,1.123.635-.058-.037.626Zm-.617.057-.53.05-.052.785.53-.05Z" transform="translate(-12710.927 -12606.823)" fill="#407bff"/>
      <path id="Path_20731" data-name="Path 20731" d="M209.488,83.218l-.294-3.139-.523.051-.04-.431a.9.9,0,0,0,.4-.206.815.815,0,0,0,.255-.371l.429-.041.383,4.08Z" transform="translate(-12711.447 -12606.795)" fill="#407bff"/>
    </g>
  </g>
</svg>
