<svg xmlns="http://www.w3.org/2000/svg" xmlns:xlink="http://www.w3.org/1999/xlink" width="431.623" height="363.895" viewBox="0 0 431.623 363.895">
  <defs>
    <linearGradient id="linear-gradient" x1="0.32" x2="0.886" y2="0.52" gradientUnits="objectBoundingBox">
      <stop offset="0" stop-color="#b5e2f6"/>
      <stop offset="1" stop-color="#cae4ef"/>
    </linearGradient>
  </defs>
  <g id="Group_4796" data-name="Group 4796" transform="translate(-200 -8054.006)">
    <path id="Path_20888" data-name="Path 20888" d="M411.911,85.587a89.924,89.924,0,0,0-2.7,34.051c1.651,14.336,6.729,28.185,11.165,42.078,6.1,19.1,6.408,52.63,0,71.913-2.243,6.747-53.458,120.514-53.475,121.01,0,0,72.062.027,0,.035s-287.777,0-288.252,0c-3.379-.025-6.8-14.226-7.177-15.925C69,327.7,56.684,315.891,61.808,305.519c7.274-14.725,14.855-26.43,7.518-42.627C64.5,252.237,55.163,243.983,49.819,233.63a122.792,122.792,0,0,1-8.843-90.176C50.191,111.36,71.358,88.893,98.328,66.53c24.221-20.083,44.207-43.935,65.5-66.247H467.816s0,10.64,0,10.652c-.117,4.439-12.063,13.74-15.352,17.128-12.728,13.108-26.294,24.639-34.12,40.57a95.969,95.969,0,0,0-6.433,16.954" transform="translate(163.807 8053.723)" opacity="0.46" fill="url(#linear-gradient)"/>
    <path id="Path_20894" data-name="Path 20894" d="M110.73,324.053a251.193,251.193,0,0,1-25.47-36.592l.005,0-.1-.167c2.1-1.693,10.062-9.022,4.877-19.245l-.325-.642-.608.386c-6.581,4.182-7.248,10.312-6.706,14.6-1.831-3.338-3.655-6.823-5.429-10.448q-1.286-2.631-2.565-5.421l.086-.023-.081-.178c2.276-1.454,10.99-7.864,6.959-18.594l-.254-.674-.647.318c-7.226,3.545-8.415,9.845-8.255,14.193-2.065-4.823-4.051-9.939-5.865-15.3,2.552-1.169,11.917-6.281,9.472-17.386l-.154-.7-.685.222c-7.746,2.507-9.779,8.689-10.206,13.023-1.552-5.016-2.925-10.221-4.064-15.568,2.637-.99,12.328-5.422,10.682-16.665l-.1-.712-.7.173C63.1,210.5,60.494,216,59.616,220.228a148.728,148.728,0,0,1-1.936-15.912c2.8-.51,13.078-3.152,13.47-14.482l.024-.719-.718.044c-7.966.494-11.49,5.77-13.031,9.831a125.076,125.076,0,0,1,1.144-20.937c2.687-.059,13.458-1,15.588-12.274l.133-.707-.718-.065c-7.523-.68-11.762,3.489-14.01,7.146a112.684,112.684,0,0,1,3.294-12.924c1.554-1.059,11.072-8.113,6.189-19.163l-.289-.659-.629.353c-10.564,5.945-7.111,17.356-6.519,19.071a114.214,114.214,0,0,0-3.354,13.193c-.869-4.213-3.452-9.631-10.836-11.526l-.7-.179-.112.711c-1.766,11.326,8.069,15.832,10.593,16.793l-.043.191.089.005a125.887,125.887,0,0,0-1.166,19.652,14.046,14.046,0,0,0-12.162-9.006l-.716-.071,0,.72c-.03,11.464,10.376,14.426,13.015,14.993l-.014.195.176-.017a150.232,150.232,0,0,0,1.88,15.555A14.152,14.152,0,0,0,44.4,212.91l-.718.058.127.708c2.022,11.29,12.8,12.339,15.487,12.423l.021.2.149-.043c1,4.685,2.183,9.256,3.5,13.688a14,14,0,0,0-13.807-5.422l-.712.109.179.7c2.62,10.324,12.146,11.3,15.645,11.3.273,0,.493-.007.688-.014L65,246.8l.142-.052c1.648,4.866,3.435,9.537,5.3,13.968A14.035,14.035,0,0,0,55.783,257.1l-.689.209.273.665c3.205,7.767,9.834,9.166,14.193,9.166a20,20,0,0,0,3.553-.312q1.343,2.945,2.7,5.72c1.672,3.416,3.386,6.7,5.114,9.868a14.1,14.1,0,0,0-15.295-2.248l-.661.284.345.631a14.043,14.043,0,0,0,12.977,7.672,20.237,20.237,0,0,0,5.659-.827l.082.178.063-.043a253,253,0,0,0,25.653,36.855.653.653,0,1,0,.979-.865M74.692,229.885c1.671,9.519-6.115,13.932-8.655,15.1-.273-2.782-.4-11.732,8.655-15.1M70.2,210.11c.986,9.614-7.1,13.46-9.712,14.447-.075-2.8.437-11.732,9.712-14.447m-.4-19.585c-.746,9.626-9.368,11.968-12.128,12.474.455-2.744,2.64-11.462,12.128-12.474m2.161-24.284c.25,0,.5.005.757.017-2.2,9.413-11.094,10.414-13.888,10.494.818-2.6,4.056-10.511,13.132-10.511m8.432,82.644c3.005,9.175-4.056,14.648-6.409,16.173-.635-2.708-1.962-11.6,6.409-16.173M68.133,141.276c3.521,9-3.238,14.866-5.494,16.516-.82-2.673-2.718-11.419,5.494-16.516M47.8,161.964c9.249,2.8,9.675,11.743,9.574,14.537-2.606-1.01-10.651-4.933-9.574-14.537m-3.28,28.092c9.555,1.367,11.337,10.121,11.664,12.909-2.707-.631-11.268-3.376-11.664-12.909m.719,24.113c9.627-.361,12.964,7.932,13.785,10.615-2.779-.137-11.691-1.307-13.785-10.615m4.85,21.546c9.609-1.052,13.507,7,14.511,9.613-2.8.088-11.733-.359-14.511-9.613m6.781,22.44c9.023-2.325,13.992,4.481,15.56,7.158.042.1.086.193.129.289-2.783.46-11.682,1.169-15.69-7.447M89.2,269.3c3.992,8.791-2.426,15-4.6,16.78-.927-2.623-3.222-11.313,4.6-16.78M66.833,281.095c9.036-3.418,14.831,3.4,16.452,5.68-2.681.791-11.448,2.588-16.452-5.68" transform="translate(177.109 8031.488)" fill="#fff"/>
    <g id="Group_4736" data-name="Group 4736" transform="translate(-10 7934)">
      <g id="Group_3305" data-name="Group 3305" transform="translate(27 -4)">
        <path id="Path_12" data-name="Path 12" d="M68.6,427.8s-13.843-46.929-27.986-66.252-14.5-49.192,8.485-50.874,32.691,32.4,38.974,57.434S93.649,427.8,93.649,427.8Z" transform="translate(187.409 33.671)" fill="#fff"/>
        <path id="Path_13" data-name="Path 13" d="M88.88,401.568a.457.457,0,0,0-.631.137l-7.219,11.234q-2.263-9.7-4.611-18.2l7.945-14.489a.457.457,0,0,0-.8-.439l-7.492,13.663c-1.863-6.718-3.739-12.877-5.583-18.493l6.868-19.021a.456.456,0,0,0-.274-.585.461.461,0,0,0-.585.273l-6.474,17.93c-2.911-8.758-5.728-16.159-8.269-22.259l4.558-16.252a.457.457,0,1,0-.88-.246l-4.246,15.143c-6.017-14.227-10.349-20.96-10.44-21.1a.457.457,0,0,0-.764.5c.091.139,4.444,6.911,10.479,21.226L45.89,346.529a.457.457,0,1,0-.245.88l15.266,4.26c2.548,6.119,5.378,13.554,8.3,22.364L54.1,366.609a.457.457,0,0,0-.4.82l15.918,7.821c1.858,5.663,3.75,11.878,5.63,18.667l-12.989-4.946a.456.456,0,1,0-.324.853l13.612,5.183q2.348,8.564,4.638,18.327l-12.846-5.267a.457.457,0,0,0-.346.846l13.443,5.511q1.573,6.823,3.082,14.231a.458.458,0,0,0,.448.366.439.439,0,0,0,.09-.009.457.457,0,0,0,.357-.539q-1.508-7.449-3.1-14.292l7.7-11.982a.457.457,0,0,0-.137-.631" transform="translate(186.15 32.107)" fill="#98dbf9"/>
      </g>
      <g id="Group_3306" data-name="Group 3306" transform="translate(-93.638 88.536) rotate(-16)">
        <path id="Path_14" data-name="Path 14" d="M74.332,431.733h-20.7S13.935,389.1,23.225,370.2s24.75-18.447,32.881-1.269,18.225,62.8,18.225,62.8" transform="translate(188.186 29.735)" fill="#fff"/>
        <path id="Path_15" data-name="Path 15" d="M66.762,418.81a.458.458,0,0,0-.593.255l-3.022,7.576c-1.269-3.6-2.62-7.213-4.01-10.775l4.419-10.527a.457.457,0,1,0-.842-.353l-4.054,9.66c-1.617-4.1-3.274-8.122-4.906-11.955l4.781-12.634a.456.456,0,0,0-.854-.322l-4.444,11.742c-2.229-5.2-4.388-10.007-6.305-14.169l4.646-11.658a.457.457,0,1,0-.849-.339L46.4,386.165c-3.841-8.289-6.577-13.708-6.643-13.839a.457.457,0,1,0-.815.414c.067.132,2.835,5.614,6.709,13.982L33.2,384.693a.456.456,0,1,0-.147.9l13.068,2.128c1.938,4.206,4.123,9.076,6.374,14.335L37.342,398.84a.457.457,0,1,0-.19.894l15.777,3.349c1.655,3.886,3.334,7.964,4.971,12.127l-12.653-2.934a.457.457,0,0,0-.206.891L58.3,416.24c1.41,3.615,2.78,7.284,4.065,10.934l-9.052-3.331A.457.457,0,0,0,53,424.7l9.758,3.591q.818,2.356,1.586,4.694a.456.456,0,0,0,.434.315.482.482,0,0,0,.142-.022.458.458,0,0,0,.292-.576q-.77-2.361-1.6-4.749l3.41-8.55a.456.456,0,0,0-.255-.594" transform="translate(187.246 28.346)" fill="#98dbf9"/>
      </g>
    </g>
    <g id="Group_4734" data-name="Group 4734" transform="translate(484.563 8275.281)">
      <g id="Group_3307" data-name="Group 3307" transform="translate(0 0)">
        <path id="Path_12-2" data-name="Path 12" d="M55.841,427.8s13.843-46.929,27.986-66.252,14.5-49.191-8.485-50.874-32.692,32.4-38.974,57.434S30.8,427.8,30.8,427.8Z" transform="translate(-30.772 -310.611)" fill="#fff"/>
        <path id="Path_13-2" data-name="Path 13" d="M45.52,401.568a.457.457,0,0,1,.631.137l7.219,11.234q2.263-9.7,4.611-18.2l-7.945-14.489a.457.457,0,0,1,.8-.439l7.492,13.663c1.863-6.718,3.739-12.877,5.583-18.493l-6.868-19.021a.456.456,0,0,1,.274-.585.461.461,0,0,1,.585.273l6.474,17.93c2.911-8.758,5.728-16.158,8.269-22.259l-4.558-16.252a.457.457,0,1,1,.88-.246l4.246,15.143c6.017-14.227,10.349-20.96,10.44-21.1a.457.457,0,0,1,.765.5c-.091.139-4.444,6.911-10.479,21.226l14.571-4.065a.457.457,0,1,1,.245.88l-15.266,4.26c-2.548,6.119-5.378,13.554-8.3,22.364L80.3,366.609a.457.457,0,0,1,.4.82L64.784,375.25c-1.858,5.663-3.75,11.878-5.63,18.667l12.989-4.946a.456.456,0,1,1,.324.853l-13.612,5.183q-2.348,8.564-4.638,18.327l12.846-5.267a.457.457,0,0,1,.346.846l-13.443,5.511q-1.573,6.823-3.082,14.231a.458.458,0,0,1-.448.366.439.439,0,0,1-.09-.009.457.457,0,0,1-.357-.539q1.508-7.449,3.1-14.292l-7.7-11.982a.457.457,0,0,1,.137-.631" transform="translate(-39.467 -312.175)" fill="#98dbf9"/>
      </g>
      <g id="Group_3308" data-name="Group 3308" transform="translate(72.607 134.132) rotate(-164)">
        <path id="Path_14-2" data-name="Path 14" d="M52.516,0h-20.7S-7.881,42.635,1.409,61.531,26.159,79.979,34.29,62.8,52.516,0,52.516,0" transform="translate(0 0.178)" fill="#fff"/>
        <path id="Path_15-2" data-name="Path 15" d="M34.1,14.491a.458.458,0,0,1-.593-.255L30.482,6.659c-1.269,3.6-2.62,7.213-4.01,10.775l4.419,10.527a.457.457,0,1,1-.842.353l-4.054-9.66c-1.617,4.1-3.274,8.122-4.906,11.955l4.781,12.634a.456.456,0,0,1-.854.322L20.572,31.823c-2.229,5.2-4.388,10.007-6.305,14.169L18.913,57.65a.457.457,0,1,1-.849.339L13.739,47.136C9.9,55.424,7.162,60.843,7.1,60.974a.457.457,0,1,1-.815-.414c.067-.132,2.835-5.615,6.709-13.982L.53,48.607a.456.456,0,1,1-.147-.9l13.068-2.128c1.938-4.206,4.123-9.076,6.374-14.335L4.677,34.461a.457.457,0,1,1-.19-.894l15.777-3.349c1.655-3.886,3.334-7.964,4.971-12.127L12.582,21.024a.457.457,0,0,1-.206-.891L25.638,17.06c1.41-3.615,2.78-7.284,4.065-10.934L20.65,9.457a.457.457,0,0,1-.316-.857l9.759-3.591q.818-2.356,1.586-4.694A.456.456,0,0,1,32.112,0a.482.482,0,0,1,.142.022A.458.458,0,0,1,32.546.6q-.77,2.361-1.6,4.749l3.41,8.55a.456.456,0,0,1-.255.594" transform="translate(9.909 0)" fill="#98dbf9"/>
      </g>
    </g>
    <path id="Path_20889" data-name="Path 20889" d="M43.367,324.052a251.193,251.193,0,0,0,25.47-36.592l-.005,0,.1-.167c-2.1-1.693-10.062-9.022-4.877-19.245l.325-.642.608.386c6.581,4.182,7.248,10.312,6.706,14.6,1.831-3.338,3.655-6.823,5.429-10.448q1.286-2.631,2.565-5.421L79.6,266.5l.081-.178c-2.276-1.454-10.991-7.864-6.959-18.594l.254-.674.647.318c7.226,3.545,8.415,9.845,8.255,14.193,2.065-4.823,4.051-9.939,5.865-15.3-2.552-1.169-11.917-6.281-9.472-17.386l.154-.7.685.222c7.746,2.507,9.779,8.689,10.206,13.023,1.552-5.016,2.925-10.221,4.064-15.568-2.637-.99-12.328-5.422-10.682-16.665l.1-.712.7.173C91,210.5,93.6,216,94.481,220.227a148.726,148.726,0,0,0,1.936-15.912c-2.8-.51-13.078-3.152-13.47-14.482l-.024-.719.718.044c7.966.494,11.49,5.77,13.031,9.831a125.074,125.074,0,0,0-1.144-20.936c-2.687-.059-13.458-1-15.588-12.274l-.133-.707.718-.065c7.523-.68,11.762,3.489,14.01,7.146a112.683,112.683,0,0,0-3.294-12.924c-1.554-1.059-11.072-8.113-6.189-19.163l.289-.659.629.353c10.564,5.945,7.111,17.356,6.519,19.071a114.212,114.212,0,0,1,3.354,13.193c.869-4.213,3.452-9.631,10.836-11.526l.7-.179.112.711c1.766,11.326-8.069,15.832-10.593,16.793l.043.191-.089.005a125.887,125.887,0,0,1,1.166,19.652,14.046,14.046,0,0,1,12.162-9.006l.716-.071,0,.72c.03,11.464-10.376,14.426-13.015,14.993l.014.195-.176-.017a150.228,150.228,0,0,1-1.88,15.555,14.152,14.152,0,0,1,13.858-7.13l.718.058-.127.708c-2.022,11.29-12.8,12.339-15.487,12.423l-.021.2-.149-.043c-1,4.685-2.183,9.256-3.5,13.688a14,14,0,0,1,13.807-5.422l.712.109-.179.7c-2.62,10.324-12.146,11.3-15.645,11.3-.273,0-.493-.007-.688-.014l-.035.195-.142-.052c-1.648,4.866-3.435,9.537-5.3,13.968A14.035,14.035,0,0,1,98.314,257.1l.689.209-.273.665c-3.205,7.767-9.834,9.166-14.193,9.166a20,20,0,0,1-3.553-.312q-1.343,2.945-2.7,5.72c-1.672,3.416-3.386,6.7-5.114,9.868a14.1,14.1,0,0,1,15.295-2.248l.661.284-.345.631A14.043,14.043,0,0,1,75.8,288.755a20.237,20.237,0,0,1-5.659-.827l-.082.178L70,288.063a252.993,252.993,0,0,1-25.653,36.855.653.653,0,1,1-.979-.865M79.4,229.884c-1.671,9.519,6.115,13.932,8.655,15.1.273-2.782.4-11.732-8.655-15.1M83.9,210.11c-.986,9.614,7.1,13.46,9.712,14.447.075-2.8-.437-11.732-9.712-14.447m.4-19.585c.746,9.626,9.368,11.968,12.128,12.474-.455-2.744-2.64-11.462-12.128-12.474m-2.161-24.284c-.25,0-.5.005-.757.017,2.2,9.413,11.094,10.414,13.888,10.494-.818-2.6-4.056-10.511-13.132-10.511M73.7,248.885c-3.005,9.175,4.056,14.648,6.409,16.173.635-2.708,1.962-11.6-6.409-16.173M85.964,141.276c-3.521,9,3.238,14.866,5.494,16.516.82-2.673,2.718-11.419-5.494-16.516m20.33,20.688c-9.249,2.8-9.675,11.743-9.574,14.537,2.606-1.01,10.651-4.933,9.574-14.537m3.28,28.092c-9.555,1.367-11.337,10.121-11.664,12.909,2.707-.631,11.268-3.376,11.664-12.909m-.719,24.113c-9.627-.361-12.964,7.932-13.785,10.615,2.779-.137,11.691-1.307,13.785-10.615m-4.85,21.546c-9.609-1.052-13.507,7-14.511,9.613,2.8.088,11.733-.359,14.511-9.613m-6.781,22.44c-9.023-2.325-13.992,4.481-15.56,7.158-.042.1-.086.193-.129.289,2.783.46,11.682,1.169,15.69-7.447M64.9,269.3c-3.992,8.791,2.426,15,4.6,16.78.927-2.623,3.222-11.313-4.6-16.78m22.364,11.793c-9.036-3.418-14.831,3.4-16.452,5.68,2.681.791,11.448,2.588,16.452-5.68" transform="translate(447.109 8031.488)" fill="#fff"/>
    <path id="Path_20890" data-name="Path 20890" d="M418.629,456.253c0,9.778-83.73,17.706-187.016,17.706S44.6,466.031,44.6,456.253s83.731-17.713,187.017-17.713,187.016,7.932,187.016,17.713" transform="translate(159.454 7943.941)" fill="#c7dbe4"/>
    <g id="Group_4782" data-name="Group 4782" transform="translate(193.52 8120.7)">
      <path id="Path_20978" data-name="Path 20978" d="M245.425,1333.522s1.488-9.754,20.482-12.378,36.654-23.663,67.977-20.61,57.315,22.214,92.969,16.343,57.981,1.612,65.978,7.514,41.1-1.385,43.54,9.429Z" transform="translate(-211.415 -1054.943)" fill="#a8d29f"/>
      <path id="Path_20979" data-name="Path 20979" d="M601.7,244.7s-21.437-1.049-10.065,64.286c0,0,7.651,22.178-2.007,36.472H731.8V244.7Z" transform="translate(-489.616 -198.533)" fill="#afcdfb"/>
      <g id="Group_4766" data-name="Group 4766" transform="translate(34.01 135.319)">
        <g id="Group_4761" data-name="Group 4761" transform="translate(75.891 56.68)">
          <path id="Path_20980" data-name="Path 20980" d="M716.906,1041.78s-9.932-11.587-.612-18.947c0,0,6.807-4.121,12.358-3.787,0,0-7.865,13.189-5.32,14.5s7.7-15.328,7.7-15.328,15.491-1.5,20.475.894c0,0-13.243,10.837-10.454,11.483s17.094-9.992,17.094-9.992,14.418,2.454,13.649,11.249-5.737,11.511-7.92,11.277-14.956-5.109-15.235-3.32,7.41,7.636,12.794,7.91c0,0-10.165,11.21-16.921,7.975s-7.332-8.364-11.544-10.288-7.806-1.919-6.068.043,9.36,3.868,11.768,8.128,4.569,7.133-2.42,6.081-18.351-6.166-18.85-12.022Z" transform="translate(-700.118 -1017.754)" fill="#599dad"/>
          <g id="Group_4760" data-name="Group 4760" transform="translate(0 14.268)">
            <path id="Path_20981" data-name="Path 20981" d="M747.021,1093.453s-39.161-1.509-47.809,9.69a28.324,28.324,0,0,1-7.8,10.944l-.917,2.5s6.786-7.155,9.214-7.588C699.711,1109,695.914,1095.124,747.021,1093.453Z" transform="translate(-682.425 -1093.385)" fill="#599dad"/>
            <path id="Path_20982" data-name="Path 20982" d="M656.7,1198.886a24.591,24.591,0,0,0-8.989,17.323l1.525.136s2.685-11.484,7.537-15.976S656.7,1198.886,656.7,1198.886Z" transform="translate(-647.709 -1178.183)" fill="#599dad"/>
          </g>
        </g>
        <g id="Group_4763" data-name="Group 4763" transform="translate(0 25.22)">
          <path id="Path_20983" data-name="Path 20983" d="M303.378,891.9s15.8-8.848,8.426-20.855c0,0-5.9-7.373-12.218-9.269,0,0,3.37,17.906,0,18.327s-2.317-20.223-2.317-20.223-16.642-8.005-23.172-7.373c0,0,10.322,17.484,6.952,17.063s-14.957-18.117-14.957-18.117-17.063-3.16-19.8,6.952,1.685,15.167,4.213,15.8,18.749.421,18.327,2.528-11.376,5.477-17.485,3.581c0,0,6.741,16.642,15.589,15.8S278.52,889.8,284,889.377s9.479,1.053,6.741,2.528-12.008.483-16.431,4.244-8.005,6.078.211,7.763,22.962.632,25.911-5.688Z" transform="translate(-245.425 -850.991)" fill="#6bb7bf"/>
          <g id="Group_4762" data-name="Group 4762" transform="translate(8.658 10.579)">
            <path id="Path_20984" data-name="Path 20984" d="M291.322,907.069s44.238,14.325,49.294,30.335a33.6,33.6,0,0,0,4.213,15.378v3.16s-4.635-10.743-7.162-12.218C337.667,943.724,347.568,929.82,291.322,907.069Z" transform="translate(-291.322 -907.069)" fill="#6bb7bf"/>
            <path id="Path_20985" data-name="Path 20985" d="M565.863,1140.926s6.822,10.36,2.933,22.971l-1.755-.472s1.7-13.89-1.866-20.876S565.863,1140.926,565.863,1140.926Z" transform="translate(-512.356 -1095.213)" fill="#6bb7bf"/>
          </g>
        </g>
        <g id="Group_4765" data-name="Group 4765" transform="translate(69.396)">
          <path id="Path_20986" data-name="Path 20986" d="M626.974,771.235s-20.827-11.663-11.107-27.491c0,0,7.775-9.719,16.106-12.218,0,0-4.443,23.6,0,24.158s3.054-26.658,3.054-26.658,21.937-10.552,30.546-9.719c0,0-13.607,23.048-9.164,22.493s19.716-23.881,19.716-23.881,22.493-4.165,26.1,9.164-2.221,19.993-5.554,20.826-24.714.556-24.159,3.333,15,7.22,23.048,4.721c0,0-8.886,21.937-20.549,20.826s-15.273-8.331-22.492-8.886-12.5,1.388-8.886,3.332,15.828.637,21.66,5.594,10.552,8.012-.278,10.234-30.268.833-34.156-7.5Z" transform="translate(-613.282 -717.303)" fill="#86d1cd"/>
          <g id="Group_4764" data-name="Group 4764" transform="translate(2.692 13.945)">
            <path id="Path_20987" data-name="Path 20987" d="M726.952,791.224s-58.314,18.882-64.979,39.987a44.3,44.3,0,0,1-5.554,20.271v4.165s6.109-14.162,9.441-16.106C665.861,839.541,652.81,821.214,726.952,791.224Z" transform="translate(-650.974 -791.224)" fill="#6bb7bf"/>
            <path id="Path_20988" data-name="Path 20988" d="M633,1099.491s-8.993,13.656-3.866,30.28l2.314-.622s-2.246-18.31,2.459-27.518S633,1099.491,633,1099.491Z" transform="translate(-627.552 -1039.233)" fill="#6bb7bf"/>
          </g>
        </g>
        <path id="Path_20989" data-name="Path 20989" d="M506.684,1286.782a40.8,40.8,0,0,0,40.8-40.8H465.888A40.8,40.8,0,0,0,506.684,1286.782Z" transform="translate(-424.298 -1146.25)" fill="#efcbab"/>
        <path id="Path_20990" data-name="Path 20990" d="M538.106,1286.469a40.823,40.823,0,0,1-45.862-40.484h10.135A40.8,40.8,0,0,0,538.106,1286.469Z" transform="translate(-445.682 -1146.249)" fill="#ffebdc"/>
        <path id="Path_20991" data-name="Path 20991" d="M545.62,1451.594H462.9a5.033,5.033,0,0,1,5.033-5.033h72.652a5.033,5.033,0,0,1,5.033,5.033Z" transform="translate(-421.875 -1308.986)" fill="#efcbab"/>
        <rect id="Rectangle_2075" data-name="Rectangle 2075" width="83.861" height="1.251" transform="translate(40.249 99.736)" fill="#efcdaf"/>
      </g>
      <g id="Group_4768" data-name="Group 4768" transform="translate(241.436 59.839)">
        <path id="Path_20992" data-name="Path 20992" d="M1454.613,337.294s-7.147-13.485,3.561-18.62c0,0,7.546-2.526,12.888-.982,0,0-10.568,11.141-8.374,12.979s10.881-13.263,10.881-13.263,15.443,1.935,19.78,5.366c0,0-15.3,7.666-12.72,8.908s18.87-6,18.87-6,13.528,5.559,10.847,13.971-8.123,9.971-10.2,9.264-13.47-8.268-14.135-6.583,5.554,9.076,10.746,10.525c0,0-12.377,8.706-18.258,4.066s-5.318-9.769-9-12.57-7.195-3.585-5.929-1.29,8.283,5.828,9.7,10.513,2.892,7.962-3.7,5.4-16.55-10.044-15.751-15.867Z" transform="translate(-1432.031 -317.193)" fill="#599dad"/>
        <g id="Group_4767" data-name="Group 4767" transform="translate(0 16.342)">
          <path id="Path_20993" data-name="Path 20993" d="M1464.168,408.617s-37.875-10.068-48.77-1.04a28.324,28.324,0,0,1-10.01,8.966l-1.444,2.238s8.191-5.491,10.655-5.38C1414.6,413.4,1413.94,399.031,1464.168,408.617Z" transform="translate(-1392.815 -403.818)" fill="#599dad"/>
          <path id="Path_20994" data-name="Path 20994" d="M1357.526,469.054a24.591,24.591,0,0,0-12.573,14.928l1.458.468s5.14-10.615,10.86-13.932S1357.526,469.054,1357.526,469.054Z" transform="translate(-1344.953 -456.328)" fill="#599dad"/>
        </g>
      </g>
      <g id="Group_4770" data-name="Group 4770" transform="translate(202.705 0)">
        <path id="Path_20995" data-name="Path 20995" d="M1153.906,55.618s-21.164-11.038-11.921-27.148c0,0,7.482-9.946,15.735-12.692,0,0-3.738,23.725.719,24.148s2.26-26.737,2.26-26.737,21.613-11.2,30.243-10.624c0,0-12.915,23.443-8.49,22.755s19-24.457,19-24.457,22.358-4.833,26.364,8.382-1.625,20.051-4.931,20.983-24.686,1.291-24.048,4.05,15.2,6.77,23.178,4.033c0,0-8.229,22.192-19.92,21.429s-15.514-7.872-22.747-8.212-12.449,1.76-8.783,3.6,15.84.165,21.816,4.947,10.786,7.695.027,10.237-30.23,1.734-34.364-6.477Z" transform="translate(-1139.649 0)" fill="#86d1cd"/>
        <g id="Group_4769" data-name="Group 4769" transform="translate(4.439 13.714)">
          <path id="Path_20996" data-name="Path 20996" d="M1257.706,72.7s-57.726,20.61-63.76,41.9A44.3,44.3,0,0,1,1189,135.028l.124,4.163s5.685-14.337,8.958-16.38C1198.081,122.812,1184.49,104.881,1257.706,72.7Z" transform="translate(-1184.128 -72.697)" fill="#6bb7bf"/>
          <path id="Path_20997" data-name="Path 20997" d="M1168.049,391.621s-8.583,13.918-2.963,30.381l2.294-.69s-2.79-18.235,1.639-27.58S1168.049,391.621,1168.049,391.621Z" transform="translate(-1163.178 -329.289)" fill="#6bb7bf"/>
        </g>
      </g>
      <rect id="Rectangle_2076" data-name="Rectangle 2076" width="148.426" height="193.568" transform="translate(121.101 84.834)" fill="#9abcef"/>
      <rect id="Rectangle_2077" data-name="Rectangle 2077" width="145.931" height="193.568" transform="translate(125.954 84.834)" fill="#e9f3fe"/>
      <path id="Path_20998" data-name="Path 20998" d="M1923.315,1332.872h-29.406c-1.575-1.337,1.091-4.372,3.876-4.576a17.169,17.169,0,0,1,4.488.531c.4-5.375,2.716-29.537,11.425-28.566,9.793,1.087,0,10.641-2.768,16.3a134.443,134.443,0,0,0-5.2,13.032c.795.172,1.618.341,2.458.5,1.3-3.985,6.128-17.391,12.269-16.61,7.211.914,4.313,6.289-.8,9.48-3.75,2.346-8.354,5.681-10.542,7.292a31.235,31.235,0,0,0,5.751.461C1919.9,1330.589,1922.362,1332.073,1923.315,1332.872Z" transform="translate(-1548.531 -1054.944)" fill="#a8d29f"/>
      <path id="Path_20999" data-name="Path 20999" d="M824.757,283.365l0,0H678.823c.807-11.035-.409-19.049-2.358-24.811-3.742-11.08-10.192-13.86-10.192-13.86H803.9c11.747,0,20.854,7.076,23.334,16.47.092.354.179.705.253,1.057C829.841,272.969,824.853,283.169,824.757,283.365Z" transform="translate(-552.87 -198.534)" fill="#e9f3fe"/>
      <path id="Path_21000" data-name="Path 21000" d="M868.593,342.976l0,0H722.659c.807-11.035-.409-19.049-2.358-24.811,14.914,2.731,51.85,8.55,91.386,7.57,25.577-.635,45.79-2.346,59.636-3.9C873.677,332.58,868.689,342.78,868.593,342.976Z" transform="translate(-596.706 -258.145)" fill="#d8e8fd"/>
      <g id="Group_4772" data-name="Group 4772" transform="translate(144.898 125.838)">
        <path id="Rectangle_2078" data-name="Rectangle 2078" d="M1.815,0H78.464a1.815,1.815,0,0,1,1.815,1.815v0A1.815,1.815,0,0,1,78.464,3.63H1.815A1.815,1.815,0,0,1,0,1.815v0A1.815,1.815,0,0,1,1.815,0Z" transform="translate(9.604 0)" fill="#bbd5fc"/>
        <rect id="Rectangle_2079" data-name="Rectangle 2079" width="50.022" height="3.63" rx="1.815" transform="translate(9.604 6.107)" fill="#bbd5fc"/>
        <g id="Group_4771" data-name="Group 4771">
          <path id="Path_21001" data-name="Path 21001" d="M835.372,676.2v-7.415h-.979q-.89,0-.89-.741,0-.534.7-.756a5.156,5.156,0,0,1,1.134-.178q.778-.059,1.253-.059.46,0,.578.186a2.211,2.211,0,0,1,.119.941V676.2h1.009q.979,0,.979.846,0,.889-.979.89H834.23a1.12,1.12,0,0,1-.719-.23.778.778,0,0,1-.289-.645q0-.859.994-.86Z" transform="translate(-833.222 -667.047)" fill="#bbd5fc"/>
        </g>
      </g>
      <g id="Group_4774" data-name="Group 4774" transform="translate(144.837 164.068)">
        <rect id="Rectangle_2080" data-name="Rectangle 2080" width="80.279" height="3.63" rx="1.815" transform="translate(9.665)" fill="#d2e4fd"/>
        <path id="Rectangle_2081" data-name="Rectangle 2081" d="M1.815,0H48.207a1.815,1.815,0,0,1,1.815,1.815v0A1.815,1.815,0,0,1,48.207,3.63H1.815A1.815,1.815,0,0,1,0,1.815v0A1.815,1.815,0,0,1,1.815,0Z" transform="translate(9.665 6.107)" fill="#d2e4fd"/>
        <g id="Group_4773" data-name="Group 4773" transform="translate(0 0)">
          <path id="Path_21002" data-name="Path 21002" d="M839.164,878.692q0,.741-1.035.741h-4.3q-.93,0-.93-.747a.943.943,0,0,1,.249-.551q.366-.419,1.074-1.258,1.074-1.35,1.8-2.333.249-.327.708-1a2.408,2.408,0,0,0,.38-1.127,1.158,1.158,0,0,0-.328-.845,1.124,1.124,0,0,0-.839-.334,1.286,1.286,0,0,0-.865.315,1.493,1.493,0,0,0-.393.786,8.9,8.9,0,0,1-.236.865.664.664,0,0,1-.642.42.736.736,0,0,1-.616-.288.983.983,0,0,1-.21-.655,3.165,3.165,0,0,1,.144-.931,2.8,2.8,0,0,1,1.114-1.546,3.233,3.233,0,0,1,1.848-.511,2.862,2.862,0,0,1,1.992.722,2.526,2.526,0,0,1,.826,1.943,3.387,3.387,0,0,1-.59,1.811q-.328.512-1.35,1.812-.524.669-1.651,1.943h2.831Q839.164,877.926,839.164,878.692Z" transform="translate(-832.899 -869.695)" fill="#d2e4fd"/>
        </g>
      </g>
      <g id="Group_4776" data-name="Group 4776" transform="translate(144.671 195.555)">
        <path id="Rectangle_2082" data-name="Rectangle 2082" d="M1.815,0H78.464a1.815,1.815,0,0,1,1.815,1.815v0A1.815,1.815,0,0,1,78.464,3.63H1.815A1.815,1.815,0,0,1,0,1.815v0A1.815,1.815,0,0,1,1.815,0Z" transform="translate(9.831 0.403)" fill="#d2e4fd"/>
        <path id="Rectangle_2083" data-name="Rectangle 2083" d="M1.815,0H48.207a1.815,1.815,0,0,1,1.815,1.815v0A1.815,1.815,0,0,1,48.207,3.63H1.815A1.815,1.815,0,0,1,0,1.815v0A1.815,1.815,0,0,1,1.815,0Z" transform="translate(9.831 6.511)" fill="#d2e4fd"/>
        <g id="Group_4775" data-name="Group 4775">
          <path id="Path_21003" data-name="Path 21003" d="M838.451,1043.7a2.81,2.81,0,0,1-.978,2.237,3.444,3.444,0,0,1-2.344.8,3.283,3.283,0,0,1-1.875-.522,2.388,2.388,0,0,1-1.233-2,.837.837,0,0,1,.215-.576.7.7,0,0,1,.549-.241q.348,0,.656.469.5.777.576.857a1.5,1.5,0,0,0,1.139.469,1.423,1.423,0,0,0,1.34-.7,1.855,1.855,0,0,0,.188-.884q0-1.312-1.541-1.46-.871-.081-.871-.737a.7.7,0,0,1,.506-.683q.945-.348.958-.362a1.293,1.293,0,0,0,.506-1.166,1.049,1.049,0,0,0-.294-.784,1.078,1.078,0,0,0-.788-.288,1.441,1.441,0,0,0-.961.295,1.93,1.93,0,0,0-.494.871.61.61,0,0,1-.614.469.629.629,0,0,1-.527-.281,1.019,1.019,0,0,1-.207-.616,1.714,1.714,0,0,1,.228-.831,2.571,2.571,0,0,1,1.152-1.085,3.374,3.374,0,0,1,1.554-.362,2.708,2.708,0,0,1,1.9.69,2.34,2.34,0,0,1,.757,1.815,2.488,2.488,0,0,1-1.125,2.144A2.428,2.428,0,0,1,838.451,1043.7Z" transform="translate(-832.021 -1036.601)" fill="#d2e4fd"/>
        </g>
      </g>
      <g id="Group_4777" data-name="Group 4777" transform="translate(161.7 93.473)">
        <path id="Rectangle_2084" data-name="Rectangle 2084" d="M2.108,0H49.1a2.109,2.109,0,0,1,2.109,2.109v0A2.108,2.108,0,0,1,49.1,4.217H2.108A2.108,2.108,0,0,1,0,2.109v0A2.108,2.108,0,0,1,2.108,0Z" transform="translate(12.911)" fill="#bbd5fc"/>
        <path id="Rectangle_2085" data-name="Rectangle 2085" d="M2.108,0H74.925a2.108,2.108,0,0,1,2.108,2.108v0a2.109,2.109,0,0,1-2.109,2.109H2.109A2.109,2.109,0,0,1,0,2.109v0A2.108,2.108,0,0,1,2.108,0Z" transform="translate(0 6.502)" fill="#bbd5fc"/>
      </g>
      <g id="Group_4778" data-name="Group 4778" transform="translate(134.85 111.592)">
        <path id="Path_21004" data-name="Path 21004" d="M839.673,628.98a178.7,178.7,0,0,1-42.23-4.846c-11.362-2.881-17.482-7.589-17.482-11.765,0-3.785,4.988-7.266,14.424-10.067h0c-9.043,2.685-13.88,6.626-13.88,10.067,0,3.818,6.269,7.6,17.2,10.369,11.207,2.841,26.111,4.406,41.968,4.406s30.761-1.565,41.968-4.406c10.93-2.771,17.2-6.551,17.2-10.369,0-4.044-6.6-9.07-17.228-13.115-12.082-4.6-26.977-6.308-41.939-6.308-28.091,0-39.655,3.279-49.687,7.388h0c10.076-4.127,21.5-8.8,49.687-8.8,15.023,0,29.981,2.546,42.12,7.168,10.851,4.132,17.591,9.37,17.591,13.672,0,4.176-6.258,8.062-17.62,10.943A174.146,174.146,0,0,1,839.673,628.98Z" transform="translate(-779.961 -591.529)" fill="#c65447"/>
      </g>
      <g id="Group_4781" data-name="Group 4781" transform="translate(207.82 102.742)">
        <path id="Path_21005" data-name="Path 21005" d="M1580.638,983.109s-.523,5.089-1.1,6.052a21.677,21.677,0,0,1-4.061,4.643c-1.042.6.636-4.053.424-4.959s-.858,1.654-1.317,1.714-.341-2.244-.357-3.082,2.234-2.908,3.027-4.694S1580.638,983.109,1580.638,983.109Z" transform="translate(-1497.358 -899.541)" fill="#ffb27d"/>
        <path id="Path_21006" data-name="Path 21006" d="M1240.086,700.893l-1.17-2.207s.581-3.933-4.347-6.42a2.4,2.4,0,0,0-2.817.736c-.937,1.353,1.784,1.109,1.638,3.423a4.256,4.256,0,0,0,2.482,4.426l1.264,1.464Z" transform="translate(-1219.331 -664.263)" fill="#ffb27d"/>
        <path id="Path_21007" data-name="Path 21007" d="M1302.983,707.543s-4.232,20.769-27.518,27.555c-7.269,2.119-23.783-21.813-23.783-21.813s.581-2.206,4.218-1.7c0,0,16.079,10.645,18.1,11.8,1.8,1.026,13.609-13.19,18.994-15.484A13.745,13.745,0,0,1,1302.983,707.543Z" transform="translate(-1235.661 -676.189)" fill="#e58638"/>
        <g id="Group_4779" data-name="Group 4779" transform="translate(0 27.27)">
          <rect id="Rectangle_2086" data-name="Rectangle 2086" width="4.349" height="21.878" transform="translate(4.697 4.299) rotate(-81.268)" fill="#c65447"/>
          <path id="Path_21008" data-name="Path 21008" d="M1166.759,690.544l4.7,2.922.66-4.3Z" transform="translate(-1166.759 -689.167)" fill="#ffb27d"/>
          <path id="Path_21009" data-name="Path 21009" d="M1309.243,708.585l-.209,1.359a1.531,1.531,0,0,1-1.746,1.281l-1-.153.66-4.3,1.088.167A1.443,1.443,0,0,1,1309.243,708.585Z" transform="translate(-1279.966 -703.452)" fill="#ffb27d"/>
        </g>
        <g id="Group_4780" data-name="Group 4780" transform="translate(42.701 78.362)">
          <path id="Path_21010" data-name="Path 21010" d="M1625.978,1397.531s2.889,2.636,2.325,4.51-3.171,3.122-3.523,5.411-1.761,3.538-3.03,3.538H1615.7s-.934-1.611,1.321-2.1,3.1-3.176,2.964-5.673a44.026,44.026,0,0,1,.211-5.828l4.791-1.11Z" transform="translate(-1573.556 -1313.977)" fill="#233862"/>
          <path id="Path_21011" data-name="Path 21011" d="M1410.093,1429.058s.518,6-.75,6.624l-16.23-.033s0-1.873,2.607-2.29,7.187-1.943,7.962-5.342S1410.093,1429.058,1410.093,1429.058Z" transform="translate(-1393.112 -1338.687)" fill="#233862"/>
          <path id="Path_21012" data-name="Path 21012" d="M1410.484,983.523s.856,10.517,1.862,23.159c1.368,17.173,3.012,38.267,3.175,42.263.281,6.939,1.41,18.039,1.41,18.039s2.676,2.637,8.032,1.526a179.118,179.118,0,0,0,6.136-32.61c.021-.275.042-.552.063-.828,1.268-17.067,3.241-53.005,3.241-53.005Z" transform="translate(-1407.207 -977.903)" fill="#2b478b"/>
          <path id="Path_21013" data-name="Path 21013" d="M1410.484,983.523s.856,10.517,1.862,23.159L1431.1,1035.9c.021-.275.042-.552.063-.828,1.268-17.067,3.241-53.005,3.241-53.005Z" transform="translate(-1407.207 -977.903)" fill="#233862"/>
          <path id="Path_21014" data-name="Path 21014" d="M1431.208,966.869s15.431,38.088,25.576,55.988,13.317,22.895,13.317,22.895,5.813-2.29,6.341-3.85c0,0-3.88-34.556-10.675-42.979-3.839-4.76-8.349-19.044-8.561-24.04S1455.833,960,1455.833,960Z" transform="translate(-1424.021 -960)" fill="#2b478b"/>
        </g>
        <path id="Path_21015" data-name="Path 21015" d="M1468.037,630.857s-10.44,5.038-16.459,3.168a14.2,14.2,0,0,1,4.074-3.259c-.208-1.208-.37-2.257-.463-3.146a29.087,29.087,0,0,1-.254-3.214l4.028-3.168,3.82-3.032A15.392,15.392,0,0,0,1468.037,630.857Z" transform="translate(-1397.846 -604.323)" fill="#ffb27d"/>
        <path id="Path_21016" data-name="Path 21016" d="M1436.466,728.861c.023.638-1.343,1.367-1.945,1.641a42.638,42.638,0,0,1-13.357,3.784c-5.579.57-12.177-.684-14.445-.639a.943.943,0,0,1-.625-.251c-.162-.114-.278-6.838-.162-15.295,0-.342,0-.684.023-1.026v-.114c.047-3.305.162-6.77.324-10.235.324-7.614.926-14.953,1.945-19.011a20.611,20.611,0,0,1,6.528-10.257l2.084-1.824a10.01,10.01,0,0,0,6.482-.775c2.407-1.163,5-2.417,5.417-2.1,3.148,2.3,5.278,7.477,6.412,14.087a73.257,73.257,0,0,1,.949,12.537c0,1.641-.046,3.328-.139,4.992a157.419,157.419,0,0,0,.324,21.4C1436.373,727.106,1436.443,728.132,1436.466,728.861Z" transform="translate(-1360.773 -648.548)" fill="#ee9849"/>
        <path id="Path_21017" data-name="Path 21017" d="M1488.724,789.25c-36.56-.073-6.743-39.671-6.743-39.671l5.923-1.924a115.1,115.1,0,0,1,.686,13.394c0,1.754-.033,3.555-.1,5.333C1488.088,776.026,1488.489,784.4,1488.724,789.25Z" transform="translate(-1413.217 -709.352)" fill="#e58638"/>
        <path id="Path_21018" data-name="Path 21018" d="M1477.288,634.5s-2.639,4.81-7.663,6.155a29.115,29.115,0,0,1-.254-3.214l4.027-3.168Z" transform="translate(-1412.284 -617.362)" fill="#ed985f"/>
        <path id="Path_21019" data-name="Path 21019" d="M1451.276,580.556s9.96,1.629,10.895-4.493,2.85-10.037-3.469-11.335-7.915.854-8.732,2.823S1448.709,579.975,1451.276,580.556Z" transform="translate(-1396.025 -560.612)" fill="#ffb27d"/>
        <path id="Path_21020" data-name="Path 21020" d="M1451.948,548c.09-.1.3-.187.763-.213a1.882,1.882,0,0,0-.867-.244,2.336,2.336,0,0,0-1.551-2.065,1.393,1.393,0,0,1,.675,1c-1.286-1.321-4.043-2.283-11.676-1.681-10.06.794-6.744,7.235-5.442,8s4.581-1.337,7.007-1.144,2.888,3.7,3.711,4.18.5-.37,1.613-.873,1.22,1.342.9,2.542,1.209,2.783,1.209,2.783l1.546-1.666c1.546-1.666,3-8.72,2.3-10.223C1452.073,548.266,1452.011,548.132,1451.948,548Z" transform="translate(-1382.182 -544.615)" fill="#2c3a64"/>
        <path id="Path_21021" data-name="Path 21021" d="M1506.466,672.713s6.3,2.984,9.323,7.572c4.687,7.116,10.12,33.05,10.22,35.452s-3.965,19.356-3.965,19.356-4.123-.272-5.187-2.353c0,0,.824-17.421.3-18.541s-17.19-23.368-15.316-28.115S1506.466,672.713,1506.466,672.713Z" transform="translate(-1438.51 -648.547)" fill="#ee9849"/>
        <path id="Path_21022" data-name="Path 21022" d="M1257.239,709.234s.343-1.354-.6-1.962-1.8-2.263-2.2-2.039c-.82.464.449,1.908.217,3.709C1254.58,709.573,1256.048,711.225,1257.239,709.234Z" transform="translate(-1237.676 -674.915)" fill="#ffb27d"/>
      </g>
      <path id="Path_21023" data-name="Path 21023" d="M342.3,1266.2s-14.8-37.9-25.184-31.868S342.3,1266.2,342.3,1266.2Z" transform="translate(-268.039 -1000.943)" fill="#a8d29f"/>
      <path id="Path_21024" data-name="Path 21024" d="M291.535,1345.2s-19.555-16.9-28.488-13.761S291.535,1345.2,291.535,1345.2Z" transform="translate(-224.594 -1079.947)" fill="#a8d29f"/>
      <path id="Path_21025" data-name="Path 21025" d="M1517.561,1374.9s4.506-15.669,9.793-13.82S1517.561,1374.9,1517.561,1374.9Z" transform="translate(-1243.563 -1104.192)" fill="#a8d29f"/>
      <path id="Path_21026" data-name="Path 21026" d="M1539.36,1406.1s11.5-7.552,14.032-5.217S1539.36,1406.1,1539.36,1406.1Z" transform="translate(-1261.25 -1136.242)" fill="#a8d29f"/>
      <path id="Path_21027" data-name="Path 21027" d="M940.331,1243.225H850.6a1.1,1.1,0,0,1-1.092-1.092h0a1.1,1.1,0,0,1,1.092-1.092h89.736a1.1,1.1,0,0,1,1.092,1.092h0A1.1,1.1,0,0,1,940.331,1243.225Z" transform="translate(-701.534 -1006.919)" fill="#d2e4fd"/>
      <path id="Path_21028" data-name="Path 21028" d="M940.331,1266.4H850.6a1.1,1.1,0,0,1-1.092-1.092h0a1.1,1.1,0,0,1,1.092-1.092h89.736a1.1,1.1,0,0,1,1.092,1.092h0A1.1,1.1,0,0,1,940.331,1266.4Z" transform="translate(-701.534 -1025.718)" fill="#d2e4fd"/>
      <path id="Path_21029" data-name="Path 21029" d="M940.331,1292.072H850.6a1.1,1.1,0,0,1-1.092-1.092h0a1.1,1.1,0,0,1,1.092-1.092h89.736a1.1,1.1,0,0,1,1.092,1.092h0A1.1,1.1,0,0,1,940.331,1292.072Z" transform="translate(-701.534 -1046.551)" fill="#d2e4fd"/>
      <path id="Rectangle_2087" data-name="Rectangle 2087" d="M1.092,0H78.975a1.092,1.092,0,0,1,1.092,1.092v0a1.092,1.092,0,0,1-1.092,1.092H1.092A1.092,1.092,0,0,1,0,1.092v0A1.092,1.092,0,0,1,1.092,0Z" transform="translate(147.969 248.181)" fill="#d2e4fd"/>
    </g>
  </g>
</svg>
