<svg xmlns="http://www.w3.org/2000/svg" xmlns:xlink="http://www.w3.org/1999/xlink" width="431.623" height="363.895" viewBox="0 0 431.623 363.895">
  <defs>
    <linearGradient id="linear-gradient" x1="0.32" x2="0.886" y2="0.52" gradientUnits="objectBoundingBox">
      <stop offset="0" stop-color="#b5e2f6"/>
      <stop offset="1" stop-color="#cae4ef"/>
    </linearGradient>
    <clipPath id="clip-path">
      <path id="Path_20820" data-name="Path 20820" d="M157.941,415.393c-.949-25.689-3.419-52.807-5.87-57.4-2.328-2.772-15.288-8.893-27.88-13.142l5.32-15.784c8.838,2.978,30.048,10.814,36.125,19.253,2.566,3.561,5.389,13.158,6.874,39.3.778,13.694,2.379,27.136,2.379,27.136Z" transform="translate(-124.191 -329.07)" fill="none"/>
    </clipPath>
  </defs>
  <g id="Group_4798" data-name="Group 4798" transform="translate(-200 -9294.006)">
    <path id="Path_20741" data-name="Path 20741" d="M411.911,85.587a89.924,89.924,0,0,0-2.7,34.051c1.651,14.336,6.729,28.185,11.165,42.078,6.1,19.1,6.408,52.63,0,71.913-2.243,6.747-53.458,120.514-53.475,121.01,0,0,72.062.027,0,.035s-287.777,0-288.252,0c-3.379-.025-6.8-14.226-7.177-15.925C69,327.7,56.684,315.891,61.808,305.519c7.274-14.725,14.855-26.43,7.518-42.627C64.5,252.237,55.163,243.983,49.819,233.63a122.792,122.792,0,0,1-8.843-90.176C50.191,111.36,71.358,88.893,98.328,66.53c24.221-20.083,44.207-43.935,65.5-66.247H467.816s0,10.64,0,10.652c-.117,4.439-12.063,13.74-15.352,17.128-12.728,13.108-26.294,24.639-34.12,40.57a95.969,95.969,0,0,0-6.433,16.954" transform="translate(163.807 9293.723)" opacity="0.46" fill="url(#linear-gradient)"/>
    <path id="Path_20744" data-name="Path 20744" d="M110.73,324.053a251.193,251.193,0,0,1-25.47-36.592l.005,0-.1-.167c2.1-1.693,10.062-9.022,4.877-19.245l-.325-.642-.608.386c-6.581,4.182-7.248,10.312-6.706,14.6-1.831-3.338-3.655-6.823-5.429-10.448q-1.286-2.631-2.565-5.421l.086-.023-.081-.178c2.276-1.454,10.99-7.864,6.959-18.594l-.254-.674-.647.318c-7.226,3.545-8.415,9.845-8.255,14.193-2.065-4.823-4.051-9.939-5.865-15.3,2.552-1.169,11.917-6.281,9.472-17.386l-.154-.7-.685.222c-7.746,2.507-9.779,8.689-10.206,13.023-1.552-5.016-2.925-10.221-4.064-15.568,2.637-.99,12.328-5.422,10.682-16.665l-.1-.712-.7.173C63.1,210.5,60.494,216,59.616,220.228a148.728,148.728,0,0,1-1.936-15.912c2.8-.51,13.078-3.152,13.47-14.482l.024-.719-.718.044c-7.966.494-11.49,5.77-13.031,9.831a125.076,125.076,0,0,1,1.144-20.937c2.687-.059,13.458-1,15.588-12.274l.133-.707-.718-.065c-7.523-.68-11.762,3.489-14.01,7.146a112.684,112.684,0,0,1,3.294-12.924c1.554-1.059,11.072-8.113,6.189-19.163l-.289-.659-.629.353c-10.564,5.945-7.111,17.356-6.519,19.071a114.214,114.214,0,0,0-3.354,13.193c-.869-4.213-3.452-9.631-10.836-11.526l-.7-.179-.112.711c-1.766,11.326,8.069,15.832,10.593,16.793l-.043.191.089.005a125.887,125.887,0,0,0-1.166,19.652,14.046,14.046,0,0,0-12.162-9.006l-.716-.071,0,.72c-.03,11.464,10.376,14.426,13.015,14.993l-.014.195.176-.017a150.232,150.232,0,0,0,1.88,15.555A14.152,14.152,0,0,0,44.4,212.91l-.718.058.127.708c2.022,11.29,12.8,12.339,15.487,12.423l.021.2.149-.043c1,4.685,2.183,9.256,3.5,13.688a14,14,0,0,0-13.807-5.422l-.712.109.179.7c2.62,10.324,12.146,11.3,15.645,11.3.273,0,.493-.007.688-.014L65,246.8l.142-.052c1.648,4.866,3.435,9.537,5.3,13.968A14.035,14.035,0,0,0,55.783,257.1l-.689.209.273.665c3.205,7.767,9.834,9.166,14.193,9.166a20,20,0,0,0,3.553-.312q1.343,2.945,2.7,5.72c1.672,3.416,3.386,6.7,5.114,9.868a14.1,14.1,0,0,0-15.295-2.248l-.661.284.345.631a14.043,14.043,0,0,0,12.977,7.672,20.237,20.237,0,0,0,5.659-.827l.082.178.063-.043a253,253,0,0,0,25.653,36.855.653.653,0,1,0,.979-.865M74.692,229.885c1.671,9.519-6.115,13.932-8.655,15.1-.273-2.782-.4-11.732,8.655-15.1M70.2,210.11c.986,9.614-7.1,13.46-9.712,14.447-.075-2.8.437-11.732,9.712-14.447m-.4-19.585c-.746,9.626-9.368,11.968-12.128,12.474.455-2.744,2.64-11.462,12.128-12.474m2.161-24.284c.25,0,.5.005.757.017-2.2,9.413-11.094,10.414-13.888,10.494.818-2.6,4.056-10.511,13.132-10.511m8.432,82.644c3.005,9.175-4.056,14.648-6.409,16.173-.635-2.708-1.962-11.6,6.409-16.173M68.133,141.276c3.521,9-3.238,14.866-5.494,16.516-.82-2.673-2.718-11.419,5.494-16.516M47.8,161.964c9.249,2.8,9.675,11.743,9.574,14.537-2.606-1.01-10.651-4.933-9.574-14.537m-3.28,28.092c9.555,1.367,11.337,10.121,11.664,12.909-2.707-.631-11.268-3.376-11.664-12.909m.719,24.113c9.627-.361,12.964,7.932,13.785,10.615-2.779-.137-11.691-1.307-13.785-10.615m4.85,21.546c9.609-1.052,13.507,7,14.511,9.613-2.8.088-11.733-.359-14.511-9.613m6.781,22.44c9.023-2.325,13.992,4.481,15.56,7.158.042.1.086.193.129.289-2.783.46-11.682,1.169-15.69-7.447M89.2,269.3c3.992,8.791-2.426,15-4.6,16.78-.927-2.623-3.222-11.313,4.6-16.78M66.833,281.095c9.036-3.418,14.831,3.4,16.452,5.68-2.681.791-11.448,2.588-16.452-5.68" transform="translate(177.109 9271.488)" fill="#fff"/>
    <g id="Group_4655" data-name="Group 4655" transform="translate(-10 9174)">
      <g id="Group_3305" data-name="Group 3305" transform="translate(27 -4)">
        <path id="Path_12" data-name="Path 12" d="M68.6,427.8s-13.843-46.929-27.986-66.252-14.5-49.192,8.485-50.874,32.691,32.4,38.974,57.434S93.649,427.8,93.649,427.8Z" transform="translate(187.409 33.671)" fill="#fff"/>
        <path id="Path_13" data-name="Path 13" d="M88.88,401.568a.457.457,0,0,0-.631.137l-7.219,11.234q-2.263-9.7-4.611-18.2l7.945-14.489a.457.457,0,0,0-.8-.439l-7.492,13.663c-1.863-6.718-3.739-12.877-5.583-18.493l6.868-19.021a.456.456,0,0,0-.274-.585.461.461,0,0,0-.585.273l-6.474,17.93c-2.911-8.758-5.728-16.159-8.269-22.259l4.558-16.252a.457.457,0,1,0-.88-.246l-4.246,15.143c-6.017-14.227-10.349-20.96-10.44-21.1a.457.457,0,0,0-.764.5c.091.139,4.444,6.911,10.479,21.226L45.89,346.529a.457.457,0,1,0-.245.88l15.266,4.26c2.548,6.119,5.378,13.554,8.3,22.364L54.1,366.609a.457.457,0,0,0-.4.82l15.918,7.821c1.858,5.663,3.75,11.878,5.63,18.667l-12.989-4.946a.456.456,0,1,0-.324.853l13.612,5.183q2.348,8.564,4.638,18.327l-12.846-5.267a.457.457,0,0,0-.346.846l13.443,5.511q1.573,6.823,3.082,14.231a.458.458,0,0,0,.448.366.439.439,0,0,0,.09-.009.457.457,0,0,0,.357-.539q-1.508-7.449-3.1-14.292l7.7-11.982a.457.457,0,0,0-.137-.631" transform="translate(186.15 32.107)" fill="#98dbf9"/>
      </g>
      <g id="Group_3306" data-name="Group 3306" transform="translate(-93.638 88.536) rotate(-16)">
        <path id="Path_14" data-name="Path 14" d="M74.332,431.733h-20.7S13.935,389.1,23.225,370.2s24.75-18.447,32.881-1.269,18.225,62.8,18.225,62.8" transform="translate(188.186 29.735)" fill="#fff"/>
        <path id="Path_15" data-name="Path 15" d="M66.762,418.81a.458.458,0,0,0-.593.255l-3.022,7.576c-1.269-3.6-2.62-7.213-4.01-10.775l4.419-10.527a.457.457,0,1,0-.842-.353l-4.054,9.66c-1.617-4.1-3.274-8.122-4.906-11.955l4.781-12.634a.456.456,0,0,0-.854-.322l-4.444,11.742c-2.229-5.2-4.388-10.007-6.305-14.169l4.646-11.658a.457.457,0,1,0-.849-.339L46.4,386.165c-3.841-8.289-6.577-13.708-6.643-13.839a.457.457,0,1,0-.815.414c.067.132,2.835,5.614,6.709,13.982L33.2,384.693a.456.456,0,1,0-.147.9l13.068,2.128c1.938,4.206,4.123,9.076,6.374,14.335L37.342,398.84a.457.457,0,1,0-.19.894l15.777,3.349c1.655,3.886,3.334,7.964,4.971,12.127l-12.653-2.934a.457.457,0,0,0-.206.891L58.3,416.24c1.41,3.615,2.78,7.284,4.065,10.934l-9.052-3.331A.457.457,0,0,0,53,424.7l9.758,3.591q.818,2.356,1.586,4.694a.456.456,0,0,0,.434.315.482.482,0,0,0,.142-.022.458.458,0,0,0,.292-.576q-.77-2.361-1.6-4.749l3.41-8.55a.456.456,0,0,0-.255-.594" transform="translate(187.246 28.346)" fill="#98dbf9"/>
      </g>
    </g>
    <g id="Group_4652" data-name="Group 4652" transform="translate(484.563 9515.281)">
      <g id="Group_3307" data-name="Group 3307" transform="translate(0 0)">
        <path id="Path_12-2" data-name="Path 12" d="M55.841,427.8s13.843-46.929,27.986-66.252,14.5-49.191-8.485-50.874-32.692,32.4-38.974,57.434S30.8,427.8,30.8,427.8Z" transform="translate(-30.772 -310.611)" fill="#fff"/>
        <path id="Path_13-2" data-name="Path 13" d="M45.52,401.568a.457.457,0,0,1,.631.137l7.219,11.234q2.263-9.7,4.611-18.2l-7.945-14.489a.457.457,0,0,1,.8-.439l7.492,13.663c1.863-6.718,3.739-12.877,5.583-18.493l-6.868-19.021a.456.456,0,0,1,.274-.585.461.461,0,0,1,.585.273l6.474,17.93c2.911-8.758,5.728-16.158,8.269-22.259l-4.558-16.252a.457.457,0,1,1,.88-.246l4.246,15.143c6.017-14.227,10.349-20.96,10.44-21.1a.457.457,0,0,1,.765.5c-.091.139-4.444,6.911-10.479,21.226l14.571-4.065a.457.457,0,1,1,.245.88l-15.266,4.26c-2.548,6.119-5.378,13.554-8.3,22.364L80.3,366.609a.457.457,0,0,1,.4.82L64.784,375.25c-1.858,5.663-3.75,11.878-5.63,18.667l12.989-4.946a.456.456,0,1,1,.324.853l-13.612,5.183q-2.348,8.564-4.638,18.327l12.846-5.267a.457.457,0,0,1,.346.846l-13.443,5.511q-1.573,6.823-3.082,14.231a.458.458,0,0,1-.448.366.439.439,0,0,1-.09-.009.457.457,0,0,1-.357-.539q1.508-7.449,3.1-14.292l-7.7-11.982a.457.457,0,0,1,.137-.631" transform="translate(-39.467 -312.175)" fill="#98dbf9"/>
      </g>
      <g id="Group_3308" data-name="Group 3308" transform="translate(72.607 134.132) rotate(-164)">
        <path id="Path_14-2" data-name="Path 14" d="M52.516,0h-20.7S-7.881,42.635,1.409,61.531,26.159,79.979,34.29,62.8,52.516,0,52.516,0" transform="translate(0 0.178)" fill="#fff"/>
        <path id="Path_15-2" data-name="Path 15" d="M34.1,14.491a.458.458,0,0,1-.593-.255L30.482,6.659c-1.269,3.6-2.62,7.213-4.01,10.775l4.419,10.527a.457.457,0,1,1-.842.353l-4.054-9.66c-1.617,4.1-3.274,8.122-4.906,11.955l4.781,12.634a.456.456,0,0,1-.854.322L20.572,31.823c-2.229,5.2-4.388,10.007-6.305,14.169L18.913,57.65a.457.457,0,1,1-.849.339L13.739,47.136C9.9,55.424,7.162,60.843,7.1,60.974a.457.457,0,1,1-.815-.414c.067-.132,2.835-5.615,6.709-13.982L.53,48.607a.456.456,0,1,1-.147-.9l13.068-2.128c1.938-4.206,4.123-9.076,6.374-14.335L4.677,34.461a.457.457,0,1,1-.19-.894l15.777-3.349c1.655-3.886,3.334-7.964,4.971-12.127L12.582,21.024a.457.457,0,0,1-.206-.891L25.638,17.06c1.41-3.615,2.78-7.284,4.065-10.934L20.65,9.457a.457.457,0,0,1-.316-.857l9.759-3.591q.818-2.356,1.586-4.694A.456.456,0,0,1,32.112,0a.482.482,0,0,1,.142.022A.458.458,0,0,1,32.546.6q-.77,2.361-1.6,4.749l3.41,8.55a.456.456,0,0,1-.255.594" transform="translate(9.909 0)" fill="#98dbf9"/>
      </g>
    </g>
    <path id="Path_20742" data-name="Path 20742" d="M43.367,324.052a251.193,251.193,0,0,0,25.47-36.592l-.005,0,.1-.167c-2.1-1.693-10.062-9.022-4.877-19.245l.325-.642.608.386c6.581,4.182,7.248,10.312,6.706,14.6,1.831-3.338,3.655-6.823,5.429-10.448q1.286-2.631,2.565-5.421L79.6,266.5l.081-.178c-2.276-1.454-10.991-7.864-6.959-18.594l.254-.674.647.318c7.226,3.545,8.415,9.845,8.255,14.193,2.065-4.823,4.051-9.939,5.865-15.3-2.552-1.169-11.917-6.281-9.472-17.386l.154-.7.685.222c7.746,2.507,9.779,8.689,10.206,13.023,1.552-5.016,2.925-10.221,4.064-15.568-2.637-.99-12.328-5.422-10.682-16.665l.1-.712.7.173C91,210.5,93.6,216,94.481,220.227a148.726,148.726,0,0,0,1.936-15.912c-2.8-.51-13.078-3.152-13.47-14.482l-.024-.719.718.044c7.966.494,11.49,5.77,13.031,9.831a125.074,125.074,0,0,0-1.144-20.936c-2.687-.059-13.458-1-15.588-12.274l-.133-.707.718-.065c7.523-.68,11.762,3.489,14.01,7.146a112.683,112.683,0,0,0-3.294-12.924c-1.554-1.059-11.072-8.113-6.189-19.163l.289-.659.629.353c10.564,5.945,7.111,17.356,6.519,19.071a114.212,114.212,0,0,1,3.354,13.193c.869-4.213,3.452-9.631,10.836-11.526l.7-.179.112.711c1.766,11.326-8.069,15.832-10.593,16.793l.043.191-.089.005a125.887,125.887,0,0,1,1.166,19.652,14.046,14.046,0,0,1,12.162-9.006l.716-.071,0,.72c.03,11.464-10.376,14.426-13.015,14.993l.014.195-.176-.017a150.228,150.228,0,0,1-1.88,15.555,14.152,14.152,0,0,1,13.858-7.13l.718.058-.127.708c-2.022,11.29-12.8,12.339-15.487,12.423l-.021.2-.149-.043c-1,4.685-2.183,9.256-3.5,13.688a14,14,0,0,1,13.807-5.422l.712.109-.179.7c-2.62,10.324-12.146,11.3-15.645,11.3-.273,0-.493-.007-.688-.014l-.035.195-.142-.052c-1.648,4.866-3.435,9.537-5.3,13.968A14.035,14.035,0,0,1,98.314,257.1l.689.209-.273.665c-3.205,7.767-9.834,9.166-14.193,9.166a20,20,0,0,1-3.553-.312q-1.343,2.945-2.7,5.72c-1.672,3.416-3.386,6.7-5.114,9.868a14.1,14.1,0,0,1,15.295-2.248l.661.284-.345.631A14.043,14.043,0,0,1,75.8,288.755a20.237,20.237,0,0,1-5.659-.827l-.082.178L70,288.063a252.993,252.993,0,0,1-25.653,36.855.653.653,0,1,1-.979-.865M79.4,229.884c-1.671,9.519,6.115,13.932,8.655,15.1.273-2.782.4-11.732-8.655-15.1M83.9,210.11c-.986,9.614,7.1,13.46,9.712,14.447.075-2.8-.437-11.732-9.712-14.447m.4-19.585c.746,9.626,9.368,11.968,12.128,12.474-.455-2.744-2.64-11.462-12.128-12.474m-2.161-24.284c-.25,0-.5.005-.757.017,2.2,9.413,11.094,10.414,13.888,10.494-.818-2.6-4.056-10.511-13.132-10.511M73.7,248.885c-3.005,9.175,4.056,14.648,6.409,16.173.635-2.708,1.962-11.6-6.409-16.173M85.964,141.276c-3.521,9,3.238,14.866,5.494,16.516.82-2.673,2.718-11.419-5.494-16.516m20.33,20.688c-9.249,2.8-9.675,11.743-9.574,14.537,2.606-1.01,10.651-4.933,9.574-14.537m3.28,28.092c-9.555,1.367-11.337,10.121-11.664,12.909,2.707-.631,11.268-3.376,11.664-12.909m-.719,24.113c-9.627-.361-12.964,7.932-13.785,10.615,2.779-.137,11.691-1.307,13.785-10.615m-4.85,21.546c-9.609-1.052-13.507,7-14.511,9.613,2.8.088,11.733-.359,14.511-9.613m-6.781,22.44c-9.023-2.325-13.992,4.481-15.56,7.158-.042.1-.086.193-.129.289,2.783.46,11.682,1.169,15.69-7.447M64.9,269.3c-3.992,8.791,2.426,15,4.6,16.78.927-2.623,3.222-11.313-4.6-16.78m22.364,11.793c-9.036-3.418-14.831,3.4-16.452,5.68,2.681.791,11.448,2.588,16.452-5.68" transform="translate(447.109 9271.488)" fill="#fff"/>
    <path id="Path_20743" data-name="Path 20743" d="M418.629,456.253c0,9.778-83.73,17.706-187.016,17.706S44.6,466.031,44.6,456.253s83.731-17.713,187.017-17.713,187.016,7.932,187.016,17.713" transform="translate(159.454 9183.941)" fill="#c7dbe4"/>
    <g id="Group_4730" data-name="Group 4730" transform="translate(259.855 9410.896)">
      <path id="Rectangle_2039" data-name="Rectangle 2039" d="M18.712,0H45.3A18.712,18.712,0,0,1,64.008,18.712V71.406A18.711,18.711,0,0,1,45.3,90.117H18.712A18.712,18.712,0,0,1,0,71.4V18.712A18.712,18.712,0,0,1,18.712,0Z" transform="translate(103.09 72.657)" fill="#65324e"/>
      <g id="Group_4661" data-name="Group 4661" transform="translate(99.852 151.178)">
        <path id="Path_20745" data-name="Path 20745" d="M291.514,412.276H323.1a3.168,3.168,0,0,0,3.158-3.158h0a3.168,3.168,0,0,0-3.158-3.158H291.514a3.168,3.168,0,0,0-3.158,3.158h0A3.168,3.168,0,0,0,291.514,412.276Z" transform="translate(-271.401 -392.692)" fill="#07113d"/>
        <path id="Path_20746" data-name="Path 20746" d="M254.4,389h36.3a7.92,7.92,0,0,0,7.9-7.9h0a7.92,7.92,0,0,0-7.9-7.9H254.4a7.92,7.92,0,0,0-7.9,7.9h0A7.92,7.92,0,0,0,254.4,389Z" transform="translate(-246.5 -373.207)" fill="#65324e"/>
        <path id="Path_20747" data-name="Path 20747" d="M325.143,389.52H354.18a7.92,7.92,0,0,0,7.9-7.9h0a7.92,7.92,0,0,0-7.9-7.9H325.143a7.921,7.921,0,0,0-7.9,7.9h0A7.921,7.921,0,0,0,325.143,389.52Z" transform="translate(-288.588 -373.516)" fill="#65324e"/>
        <g id="Group_4658" data-name="Group 4658" transform="translate(6.533 57.799)">
          <g id="Group_4657" data-name="Group 4657">
            <path id="Path_20748" data-name="Path 20748" d="M262.627,529.895h4.421a9.591,9.591,0,0,1,9.58-9.58h32.215a9.591,9.591,0,0,1,9.58,9.58h4.421a14.017,14.017,0,0,0-14-14H276.629A14.017,14.017,0,0,0,262.627,529.895Z" transform="translate(-262.627 -515.893)" fill="#07113d"/>
          </g>
        </g>
        <g id="Group_4659" data-name="Group 4659" transform="translate(3.239 69.803)">
          <path id="Path_20749" data-name="Path 20749" d="M397.176,555.619a3.673,3.673,0,1,0,3.672-3.673A3.673,3.673,0,0,0,397.176,555.619Z" transform="translate(-339.38 -549.346)" fill="#07113d"/>
          <path id="Rectangle_2040" data-name="Rectangle 2040" d="M0,0H10.051a0,0,0,0,1,0,0V.923A5.026,5.026,0,0,1,5.026,5.949h0A5.026,5.026,0,0,1,0,.923V0A0,0,0,0,1,0,0Z" transform="translate(66.224 5.949) rotate(180)" fill="#07113d"/>
          <path id="Path_20750" data-name="Path 20750" d="M258.506,555.619a3.673,3.673,0,1,0,3.672-3.673A3.673,3.673,0,0,0,258.506,555.619Z" transform="translate(-256.882 -549.346)" fill="#07113d"/>
          <path id="Rectangle_2041" data-name="Rectangle 2041" d="M0,0H10.052a0,0,0,0,1,0,0V.923A5.026,5.026,0,0,1,5.026,5.949h0A5.026,5.026,0,0,1,0,.923V0A0,0,0,0,1,0,0Z" transform="translate(10.052 5.949) rotate(180)" fill="#07113d"/>
        </g>
        <rect id="Rectangle_2042" data-name="Rectangle 2042" width="5.853" height="13.265" transform="translate(39.255 72.432) rotate(180)" fill="#07113d"/>
        <g id="Group_4660" data-name="Group 4660" transform="translate(30.908 69.803)">
          <path id="Path_20751" data-name="Path 20751" d="M326.811,555.619a3.673,3.673,0,1,0,3.673-3.673A3.673,3.673,0,0,0,326.811,555.619Z" transform="translate(-325.187 -549.346)" fill="#07113d"/>
          <path id="Rectangle_2043" data-name="Rectangle 2043" d="M0,0H10.052a0,0,0,0,1,0,0V.923A5.026,5.026,0,0,1,5.026,5.949h0A5.026,5.026,0,0,1,0,.923V0A0,0,0,0,1,0,0Z" transform="translate(10.052 5.949) rotate(180)" fill="#2c3765"/>
        </g>
      </g>
      <g id="Group_4667" data-name="Group 4667" transform="translate(88.719 1.02)">
        <path id="Path_20752" data-name="Path 20752" d="M220.885,183.473c.512-1.162,21.165-34.71,28.784-38.52s22.36-4.846,26.649-2.631c16.761,8.655,30.487,36.655,33.036,42.844,2.963,7.2,0,16.509-3.386,16.509H226.388S214.536,197.865,220.885,183.473Z" transform="translate(-219.015 -85.006)" fill="#25253a"/>
        <g id="Group_4662" data-name="Group 4662" transform="translate(27.499)">
          <path id="Rectangle_2044" data-name="Rectangle 2044" d="M20.445,0h0A20.445,20.445,0,0,1,40.89,20.445v9.929A16.264,16.264,0,0,1,24.627,46.637H16.264A16.264,16.264,0,0,1,0,30.374V20.445A20.445,20.445,0,0,1,20.445,0Z" fill="#07113d"/>
          <path id="Path_20753" data-name="Path 20753" d="M293.353,66.21l-.263,4.532-.181,3.06-1.367-.06a2.527,2.527,0,0,1-.293-.028,4.131,4.131,0,0,1-3.881-4.082,3.5,3.5,0,0,1,1.442-2.571,4.594,4.594,0,0,1,2.808-.912h.006a1.938,1.938,0,0,1,.356,0Z" transform="translate(-287.175 -40.368)" fill="#f4a891"/>
          <path id="Path_20754" data-name="Path 20754" d="M375.683,66.466,375.945,71l.181,3.06,1.367-.06a2.706,2.706,0,0,0,.293-.028,4.132,4.132,0,0,0,3.882-4.082,3.5,3.5,0,0,0-1.442-2.571,4.591,4.591,0,0,0-2.808-.912h-.006a1.933,1.933,0,0,0-.356,0Z" transform="translate(-339.719 -40.521)" fill="#f4a891"/>
          <path id="Rectangle_2045" data-name="Rectangle 2045" d="M6.736,0h0a6.736,6.736,0,0,1,6.736,6.736v11.5a6.736,6.736,0,0,1-6.736,6.736h0A6.736,6.736,0,0,1,0,18.235V6.736A6.736,6.736,0,0,1,6.736,0Z" transform="translate(13.486 37.315)" fill="#f4a891"/>
          <path id="Path_20755" data-name="Path 20755" d="M330.079,38.02l-.424,8.293-.063,1.242a17.01,17.01,0,0,1-.293,2.409,17.4,17.4,0,0,1-12.755,13.453,17.155,17.155,0,0,1-2.2.418,6.15,6.15,0,0,1-.68.068,13.534,13.534,0,0,1-1.429.075c-.344,0-.687-.013-1.036-.025a17.413,17.413,0,0,1-2.3-.281c-.312-.056-.618-.124-.923-.2a16.75,16.75,0,0,1-3.333-1.173.02.02,0,0,1-.013-.006,17.5,17.5,0,0,1-9.741-12.63.154.154,0,0,1-.006-.05c-.1-.6-.175-1.2-.218-1.816-.019-.194-.025-.38-.032-.574s-.013-.393-.006-.593a6.753,6.753,0,0,1,.012-.705V45.8l.025-.568.081-1.479.124-2.533V41.2l.125-2.558.006-.05v-.006l.05-.942.037-.736.037-.674.013-.175a13.943,13.943,0,0,1,.649-3.395,18.711,18.711,0,0,1,.836-2.215c.043-.118.087-.218.137-.324a15.944,15.944,0,0,1,.9-1.716.023.023,0,0,1,.006-.013,17.474,17.474,0,0,1,4.942-5.316c.4-.281.811-.549,1.229-.8a17.759,17.759,0,0,1,22.1,3.282,14.742,14.742,0,0,1,2.2,3.183,19.6,19.6,0,0,1,1.248,2.945,12.824,12.824,0,0,1,.506,1.99v.013c.038.231.069.456.094.687.05.406.087.817.106,1.235A23.828,23.828,0,0,1,330.079,38.02Z" transform="translate(-291.491 -12.807)" fill="#ffc7b0"/>
          <path id="Path_20756" data-name="Path 20756" d="M330.079,61.224l-.424,8.293-.063,1.242a17.01,17.01,0,0,1-.293,2.409,17.4,17.4,0,0,1-12.755,13.453,17.159,17.159,0,0,1-2.2.418,6.148,6.148,0,0,1-.68.068,13.536,13.536,0,0,1-1.429.075c-.344,0-.687-.013-1.036-.025a20.257,20.257,0,0,1-2.627-.287c-.175-.031-.344-.056-.519-.094a16.787,16.787,0,0,1-3.357-1.173.019.019,0,0,1-.013-.006,17.56,17.56,0,0,1-9.8-12.73.154.154,0,0,1-.006-.05A15.887,15.887,0,0,1,294.661,71c-.019-.194-.025-.38-.032-.574s-.013-.393-.006-.593a6.753,6.753,0,0,1,.012-.705v-.125l.025-.568.081-1.479.124-2.533c.78,9.279,4.063,21,15.632,21.478,16.018.655,19.344-16.955,19.594-27.088A23.828,23.828,0,0,1,330.079,61.224Z" transform="translate(-291.491 -36.01)" fill="#f4a891"/>
          <path id="Path_20757" data-name="Path 20757" d="M307.081,27.064l9.451,2.925a1.876,1.876,0,0,0,2.311-2.45l-.061-.163,1.139.606a18.231,18.231,0,0,1,7.73,7.929l2.157,4.308s5.1-21.84-18.825-22.36c-19.091-.415-16.692,18.72-16.692,18.72S298.5,25.816,307.081,27.064Z" transform="translate(-291.238 -11.641)" fill="#07113d"/>
        </g>
        <path id="Path_20758" data-name="Path 20758" d="M319.821,350.2a6.51,6.51,0,0,1-2.873,5.071,16.091,16.091,0,0,1-9.665,2.893H286.211q-.94,0-1.84-.089a17.383,17.383,0,0,1-4.306-.937c-.233-.08-.46-.169-.68-.262-3.433-1.419-5.706-3.88-5.706-6.676l.386-4.249,45.388-.25Z" transform="translate(-251.536 -206.688)" fill="#181827"/>
        <g id="Group_4663" data-name="Group 4663" transform="translate(20.394 139.888)">
          <path id="Path_20759" data-name="Path 20759" d="M285.679,552.884h-12a4.329,4.329,0,0,1-4.317-4.316h0a4.329,4.329,0,0,1,4.317-4.316h12A4.329,4.329,0,0,1,290,548.568h0A4.329,4.329,0,0,1,285.679,552.884Z" transform="translate(-269.361 -464.695)" fill="#65324e"/>
          <path id="Path_20760" data-name="Path 20760" d="M290.561,427.653h-16v-71.8a8,8,0,0,1,8-8h0a8,8,0,0,1,8,8Z" transform="translate(-272.453 -347.854)" fill="#181827"/>
        </g>
        <g id="Group_4664" data-name="Group 4664" transform="translate(50.293 139.888)">
          <path id="Path_20761" data-name="Path 20761" d="M359.488,552.884h-12a4.329,4.329,0,0,1-4.316-4.316h0a4.329,4.329,0,0,1,4.316-4.316h12a4.329,4.329,0,0,1,4.316,4.316h0A4.328,4.328,0,0,1,359.488,552.884Z" transform="translate(-343.17 -464.695)" fill="#65324e"/>
          <path id="Path_20762" data-name="Path 20762" d="M364.37,427.653h-16v-71.8a8,8,0,0,1,8-8h0a8,8,0,0,1,8,8Z" transform="translate(-346.262 -347.854)" fill="#181827"/>
        </g>
        <rect id="Rectangle_2046" data-name="Rectangle 2046" width="46.111" height="19.714" transform="translate(22.289 129.111)" fill="#181827"/>
        <g id="Group_4666" data-name="Group 4666" transform="translate(21.31 55.245)">
          <path id="Path_20763" data-name="Path 20763" d="M319.709,162.548l-1.417,48.389-45.479.421-1.189-48.81a20.586,20.586,0,0,1,16.991-20.262,21.05,21.05,0,0,1,3.575-.305h6.952A20.569,20.569,0,0,1,319.709,162.548Z" transform="translate(-271.623 -140.733)" fill="#25253a"/>
          <g id="Group_4665" data-name="Group 4665" transform="translate(17.191)">
            <path id="Path_20764" data-name="Path 20764" d="M332.17,208.445H314.063l.043-69.545h18.408Z" transform="translate(-314.063 -138.899)" fill="#eaecee"/>
          </g>
          <path id="Path_20765" data-name="Path 20765" d="M325.628,140.119c.312.468,4.992,7.176,4.992,7.176l5.616-6.864-2.885-.722-5.148.624Z" transform="translate(-303.752 -139.381)" fill="#d93838"/>
          <path id="Path_20766" data-name="Path 20766" d="M332.633,145.288,324,140.218l-10.089,5.07v-6.24h18.72Z" transform="translate(-296.782 -138.988)" fill="#fff"/>
          <rect id="Rectangle_2047" data-name="Rectangle 2047" width="4.212" height="23.712" transform="translate(24.996 3.702)" fill="#d93838"/>
        </g>
        <path id="Path_20767" data-name="Path 20767" d="M296.32,37.99l-.573,14.387a1.126,1.126,0,0,1-1.324,1.064h0a1.127,1.127,0,0,1-.928-1.089l-.217-12.178Z" transform="translate(-263.196 -23.621)" fill="#07113d"/>
        <path id="Path_20768" data-name="Path 20768" d="M375.886,41.263l.572,14.387a1.126,1.126,0,0,0,1.323,1.064h0a1.126,1.126,0,0,0,.929-1.089l.217-12.178Z" transform="translate(-312.341 -25.568)" fill="#07113d"/>
      </g>
      <g id="Group_4668" data-name="Group 4668" transform="translate(107.166 78.687)">
        <path id="Path_20769" data-name="Path 20769" d="M320.14,200.177v33.554H264.554V200.177a5.921,5.921,0,0,1,5.925-5.925h43.736a5.925,5.925,0,0,1,5.925,5.925Z" transform="translate(-264.554 -194.252)" fill="#9995a7"/>
        <circle id="Ellipse_225" data-name="Ellipse 225" cx="4.106" cy="4.106" r="4.106" transform="translate(21.986 19.736) rotate(-45)" fill="#fff"/>
      </g>
      <g id="Group_4669" data-name="Group 4669" transform="translate(107.166 84.407)" opacity="0.25" style="mix-blend-mode: multiply;isolation: isolate">
        <path id="Path_20770" data-name="Path 20770" d="M320.14,208.577v8.338c-4.523-.448-20.674-1.668-21.426.764a18.9,18.9,0,0,1-2.268,4.876c-1.112,1.617-2.552,2.811-4.258,2.489a8.775,8.775,0,0,0-2.71.284c-.954.189-2.1.467-3.354.8.19,3.443,1.011,15.552,1.011,15.552l-17.706.448-4.876.076V215.046C267.718,214.623,320.14,207.043,320.14,208.577Z" transform="translate(-264.554 -208.373)" fill="#787684"/>
      </g>
      <g id="Group_4670" data-name="Group 4670" transform="translate(85.133 117.662)">
        <path id="Path_20771" data-name="Path 20771" d="M320.39,551.316H275.858a6.948,6.948,0,0,1,6.949-6.948h30.635a6.948,6.948,0,0,1,6.948,6.948Z" transform="translate(-249.247 -441.518)" fill="#fff"/>
        <path id="Path_20772" data-name="Path 20772" d="M330.577,317.627v92.017a2.078,2.078,0,0,1-2.078,2.078h-4.686a2.078,2.078,0,0,1-2.079-2.078V317.627Z" transform="translate(-276.539 -306.625)" fill="#9995a7"/>
        <rect id="Rectangle_2048" data-name="Rectangle 2048" width="56.218" height="5.685" transform="translate(21.51 9.739)" fill="#5d5872"/>
        <rect id="Rectangle_2049" data-name="Rectangle 2049" width="99.24" height="11.371" transform="translate(0)" fill="#fff"/>
        <path id="Path_20773" data-name="Path 20773" d="M320.39,560.816H275.858a6.948,6.948,0,0,1,6.949-6.948h30.635a6.948,6.948,0,0,1,6.948,6.948Z" transform="translate(-249.247 -447.169)" fill="#ecebef"/>
        <rect id="Rectangle_2050" data-name="Rectangle 2050" width="99.239" height="5.42" transform="translate(0 5.949)" fill="#ecebef"/>
        <path id="Path_20774" data-name="Path 20774" d="M321.734,322.694l8.843-.2v6.986l-8.843,3.449Z" transform="translate(-276.54 -309.519)" fill="#5d5872"/>
        <path id="Path_20775" data-name="Path 20775" d="M255.73,293.111h0a1.645,1.645,0,0,1-1.645,1.645H210.164v-3.289h43.921A1.645,1.645,0,0,1,255.73,293.111Z" transform="translate(-210.164 -291.061)" fill="#9995a7"/>
        <path id="Path_20776" data-name="Path 20776" d="M430.065,293.467v2.479H414.224a1.24,1.24,0,0,1-1.24-1.24h0a1.239,1.239,0,0,1,1.24-1.239Z" transform="translate(-330.826 -292.251)" fill="#9995a7"/>
      </g>
      <g id="Group_4677" data-name="Group 4677" transform="translate(0.001 88.486)">
        <path id="Path_20777" data-name="Path 20777" d="M23.155,292.745,6.971,220.562c-.409-3.028,8.721-1.872,11.772-2.039,1.961-.107,5.81.512,6.249,4.763l9.175,67.973a5.572,5.572,0,0,1-4.763,6.249h0A5.572,5.572,0,0,1,23.155,292.745Z" transform="translate(-4.14 -218.44)" fill="#65324e"/>
        <path id="Path_20778" data-name="Path 20778" d="M9.225,292.792.051,224.819a5.572,5.572,0,0,1,4.763-6.249h0a5.572,5.572,0,0,1,6.249,4.763l9.174,67.973a5.572,5.572,0,0,1-4.763,6.249h0A5.572,5.572,0,0,1,9.225,292.792Z" transform="translate(-0.001 -218.488)" fill="#d93838"/>
        <g id="Group_4676" data-name="Group 4676" transform="translate(10.046 68.792)">
          <g id="Group_4671" data-name="Group 4671" transform="translate(30.598 14.824)">
            <rect id="Rectangle_2051" data-name="Rectangle 2051" width="6.463" height="38.118" fill="#9995a7"/>
            <path id="Path_20779" data-name="Path 20779" d="M106.8,430.336v8.614l-6.463-2.5v-5.832C101.953,430.541,105.066,430.412,106.8,430.336Z" transform="translate(-100.336 -428.118)" fill="#25253a"/>
          </g>
          <path id="Path_20780" data-name="Path 20780" d="M98.624,423.986H69.747a2.9,2.9,0,0,1-2.888-2.888h0a2.9,2.9,0,0,1,2.888-2.888H98.624a2.9,2.9,0,0,1,2.888,2.888h0A2.9,2.9,0,0,1,98.624,423.986Z" transform="translate(-49.822 -406.08)" fill="#25253a"/>
          <path id="Path_20781" data-name="Path 20781" d="M120.815,402.7H87.624a7.242,7.242,0,0,1-7.22-7.22h0a7.241,7.241,0,0,1,7.22-7.22h33.191a7.242,7.242,0,0,1,7.221,7.22h0A7.242,7.242,0,0,1,120.815,402.7Z" transform="translate(-57.88 -388.264)" fill="#65324e"/>
          <path id="Path_20782" data-name="Path 20782" d="M95.152,402.7H61.961a7.242,7.242,0,0,1-7.22-7.22h0a7.241,7.241,0,0,1,7.22-7.22H95.152a7.241,7.241,0,0,1,7.22,7.22h0A7.242,7.242,0,0,1,95.152,402.7Z" transform="translate(-42.613 -388.264)" fill="#65324e"/>
          <path id="Path_20783" data-name="Path 20783" d="M58.569,403.18H32.02a7.242,7.242,0,0,1-7.22-7.221h0a7.241,7.241,0,0,1,7.22-7.22H58.569a7.242,7.242,0,0,1,7.221,7.22h0A7.242,7.242,0,0,1,58.569,403.18Z" transform="translate(-24.8 -388.547)" fill="#d93838"/>
          <g id="Group_4673" data-name="Group 4673" transform="translate(6.16 46.783)">
            <g id="Group_4672" data-name="Group 4672" transform="translate(0 6.064)">
              <path id="Path_20784" data-name="Path 20784" d="M95.067,531.528H91.024a8.769,8.769,0,0,0-8.759-8.759H52.81a8.769,8.769,0,0,0-8.759,8.759H40.008a12.817,12.817,0,0,1,12.8-12.8H82.265A12.817,12.817,0,0,1,95.067,531.528Z" transform="translate(-40.008 -518.726)" fill="#07113d"/>
            </g>
            <rect id="Rectangle_2052" data-name="Rectangle 2052" width="9.433" height="6.16" transform="translate(22.909)" fill="#07113d"/>
          </g>
          <g id="Group_4674" data-name="Group 4674" transform="translate(3.68 63.823)">
            <path id="Path_20785" data-name="Path 20785" d="M43.044,555.049a3.358,3.358,0,1,1-3.359-3.359A3.358,3.358,0,0,1,43.044,555.049Z" transform="translate(-35.337 -549.313)" fill="#07113d"/>
            <path id="Rectangle_2053" data-name="Rectangle 2053" d="M4.6,0h0a4.6,4.6,0,0,1,4.6,4.6v.844a0,0,0,0,1,0,0H0a0,0,0,0,1,0,0V4.6A4.6,4.6,0,0,1,4.6,0Z" fill="#2c3765"/>
            <circle id="Ellipse_226" data-name="Ellipse 226" cx="3.358" cy="3.358" r="3.358" transform="translate(51.668 8.232) rotate(-76.717)" fill="#07113d"/>
            <path id="Rectangle_2054" data-name="Rectangle 2054" d="M4.6,0h0A4.595,4.595,0,0,1,9.19,4.595v.844a0,0,0,0,1,0,0H0a0,0,0,0,1,0,0V4.6A4.6,4.6,0,0,1,4.6,0Z" transform="translate(51.36)" fill="#2c3765"/>
          </g>
          <rect id="Rectangle_2055" data-name="Rectangle 2055" width="5.351" height="12.129" transform="translate(31.301 54.098)" fill="#07113d"/>
          <g id="Group_4675" data-name="Group 4675" transform="translate(29.34 63.823)">
            <circle id="Ellipse_227" data-name="Ellipse 227" cx="3.358" cy="3.358" r="3.358" transform="translate(0 5.736) rotate(-45)" fill="#07113d"/>
            <path id="Rectangle_2056" data-name="Rectangle 2056" d="M4.6,0h0a4.6,4.6,0,0,1,4.6,4.6v.844a0,0,0,0,1,0,0H0a0,0,0,0,1,0,0V4.6A4.6,4.6,0,0,1,4.6,0Z" transform="translate(0.402)" fill="#2c3765"/>
          </g>
        </g>
      </g>
      <g id="Group_4684" data-name="Group 4684" transform="translate(176.02 88.486)">
        <path id="Path_20786" data-name="Path 20786" d="M569.334,292.745l16.183-72.183c.409-3.028-8.72-1.872-11.772-2.039-1.961-.107-5.809.512-6.249,4.763l-9.175,67.973a5.572,5.572,0,0,0,4.763,6.249h0A5.572,5.572,0,0,0,569.334,292.745Z" transform="translate(-508.147 -218.44)" fill="#65324e"/>
        <path id="Path_20787" data-name="Path 20787" d="M593.5,292.792l9.174-67.973a5.572,5.572,0,0,0-4.763-6.249h0a5.572,5.572,0,0,0-6.249,4.763l-9.174,67.973a5.572,5.572,0,0,0,4.763,6.249h0A5.572,5.572,0,0,0,593.5,292.792Z" transform="translate(-522.527 -218.488)" fill="#d93838"/>
        <g id="Group_4683" data-name="Group 4683" transform="translate(0 68.792)">
          <g id="Group_4678" data-name="Group 4678" transform="translate(33.095 14.824)">
            <rect id="Rectangle_2057" data-name="Rectangle 2057" width="6.463" height="38.118" transform="translate(0)" fill="#9995a7"/>
            <path id="Path_20788" data-name="Path 20788" d="M516.231,430.336v8.614l6.463-2.5v-5.832C521.077,430.541,517.964,430.412,516.231,430.336Z" transform="translate(-516.231 -428.118)" fill="#25253a"/>
          </g>
          <path id="Path_20789" data-name="Path 20789" d="M483,423.986h28.877a2.9,2.9,0,0,0,2.888-2.888h0a2.9,2.9,0,0,0-2.888-2.888H483a2.9,2.9,0,0,0-2.888,2.888h0A2.9,2.9,0,0,0,483,423.986Z" transform="translate(-461.651 -406.08)" fill="#25253a"/>
          <path id="Path_20790" data-name="Path 20790" d="M441.752,402.7h33.191a7.242,7.242,0,0,0,7.22-7.22h0a7.242,7.242,0,0,0-7.22-7.22H441.752a7.241,7.241,0,0,0-7.22,7.22h0A7.242,7.242,0,0,0,441.752,402.7Z" transform="translate(-434.532 -388.264)" fill="#65324e"/>
          <path id="Path_20791" data-name="Path 20791" d="M467.416,402.7h33.191a7.242,7.242,0,0,0,7.221-7.22h0a7.242,7.242,0,0,0-7.221-7.22H467.416a7.242,7.242,0,0,0-7.221,7.22h0A7.242,7.242,0,0,0,467.416,402.7Z" transform="translate(-449.799 -388.264)" fill="#65324e"/>
          <path id="Path_20792" data-name="Path 20792" d="M513.753,403.18H540.3a7.242,7.242,0,0,0,7.221-7.221h0a7.242,7.242,0,0,0-7.221-7.22H513.753a7.242,7.242,0,0,0-7.221,7.22h0A7.242,7.242,0,0,0,513.753,403.18Z" transform="translate(-477.366 -388.547)" fill="#d93838"/>
          <g id="Group_4680" data-name="Group 4680" transform="translate(8.936 46.783)">
            <g id="Group_4679" data-name="Group 4679" transform="translate(0 6.064)">
              <path id="Path_20793" data-name="Path 20793" d="M456.592,531.528h4.043a8.769,8.769,0,0,1,8.759-8.759h29.455a8.769,8.769,0,0,1,8.759,8.759h4.043a12.817,12.817,0,0,0-12.8-12.8H469.394A12.817,12.817,0,0,0,456.592,531.528Z" transform="translate(-456.592 -518.726)" fill="#07113d"/>
            </g>
            <rect id="Rectangle_2058" data-name="Rectangle 2058" width="9.433" height="6.16" transform="translate(32.15 6.16) rotate(180)" fill="#07113d"/>
          </g>
          <g id="Group_4681" data-name="Group 4681" transform="translate(5.925 63.823)">
            <circle id="Ellipse_228" data-name="Ellipse 228" cx="3.358" cy="3.358" r="3.358" transform="translate(52.163 3.239) rotate(-13.283)" fill="#07113d"/>
            <path id="Rectangle_2059" data-name="Rectangle 2059" d="M0,0H9.19a0,0,0,0,1,0,0V.844a4.6,4.6,0,0,1-4.6,4.6h0A4.6,4.6,0,0,1,0,.844V0A0,0,0,0,1,0,0Z" transform="translate(60.551 5.439) rotate(180)" fill="#2c3765"/>
            <circle id="Ellipse_229" data-name="Ellipse 229" cx="3.358" cy="3.358" r="3.358" transform="translate(0.094 5.736) rotate(-45)" fill="#07113d"/>
            <path id="Rectangle_2060" data-name="Rectangle 2060" d="M0,0H9.19a0,0,0,0,1,0,0V.844a4.6,4.6,0,0,1-4.6,4.6h0A4.595,4.595,0,0,1,0,.844V0A0,0,0,0,1,0,0Z" transform="translate(9.19 5.439) rotate(180)" fill="#2c3765"/>
          </g>
          <rect id="Rectangle_2061" data-name="Rectangle 2061" width="5.351" height="12.129" transform="translate(38.855 66.227) rotate(180)" fill="#07113d"/>
          <g id="Group_4682" data-name="Group 4682" transform="translate(31.224 63.823)">
            <circle id="Ellipse_230" data-name="Ellipse 230" cx="3.358" cy="3.358" r="3.358" transform="translate(0.455 7.553) rotate(-67.5)" fill="#07113d"/>
            <path id="Rectangle_2062" data-name="Rectangle 2062" d="M0,0H9.19a0,0,0,0,1,0,0V.844a4.6,4.6,0,0,1-4.6,4.6h0A4.595,4.595,0,0,1,0,.844V0A0,0,0,0,1,0,0Z" transform="translate(9.19 5.439) rotate(180)" fill="#2c3765"/>
          </g>
        </g>
      </g>
      <g id="Group_4686" data-name="Group 4686" transform="translate(167.82 103.199)">
        <g id="Group_4685" data-name="Group 4685">
          <path id="Path_20794" data-name="Path 20794" d="M426.91,259.043l-.013.215-.038.512-.057.745-.063.834-.089,1.264v.025l-.158,2.072-.3,4.093-.2,2.684-.246,2.542L417.543,274l-.216-2.511-.2-2.684-.3-4.093-.151-2.072-.088-1.219-.082-1.118-.038-.53-.038-.512-.019-.215Z" transform="translate(-415.555 -257.309)" fill="#fbfcfc"/>
          <path id="Path_20795" data-name="Path 20795" d="M434.439,256.224h-1.979a.731.731,0,0,1-.732-.731h0a.731.731,0,0,1,.732-.731h1.979a.731.731,0,0,1,.732.731h0A.731.731,0,0,1,434.439,256.224Z" transform="translate(-424.664 -254.762)" fill="#061d48"/>
          <path id="Path_20796" data-name="Path 20796" d="M426.29,257.672v.883a1.31,1.31,0,0,1-.816,1.213,1.326,1.326,0,0,1-.5.1H415.6a1.2,1.2,0,0,1-.273-.031,1.307,1.307,0,0,1-1.037-1.28v-.883a1.312,1.312,0,0,1,1.311-1.291h9.38A1.313,1.313,0,0,1,426.29,257.672Z" transform="translate(-414.288 -255.725)" fill="#d93838"/>
        </g>
        <path id="Path_20797" data-name="Path 20797" d="M427.04,267.916l-.158,2.072-.3,4.093-.2,2.684h-8.673l-.2-2.684-.3-4.093-.151-2.072Z" transform="translate(-415.944 -262.587)" fill="#4a8ecc"/>
      </g>
      <g id="Group_4690" data-name="Group 4690" transform="translate(119.849 68.025)">
        <g id="Group_4687" data-name="Group 4687" transform="translate(18.359)">
          <path id="Path_20798" data-name="Path 20798" d="M400.813,175.391l-.07.076c-2.154,2.286-6.784,7.213-19.48,11.231-2.161.682-4.548,1.345-7.2,1.958-2.426.562-4.794,1-7.068,1.345a96.644,96.644,0,0,1-14.294,1.061,73.735,73.735,0,0,1-11.452-.777l.8-4.668-.84-3.79a121.412,121.412,0,0,0,25.323-1.333c1.782-.3,3.588-.651,5.4-1.074,2.887-.67,5.388-1.377,7.568-2.11,9.487-3.165,17.667-7.706,19.24-9.38l-4.82.966Z" transform="translate(-341.188 -167.931)" fill="#f4a891"/>
        </g>
        <g id="Group_4689" data-name="Group 4689" transform="translate(0 13.366)">
          <g id="Group_4688" data-name="Group 4688" transform="translate(0 2.414)">
            <path id="Path_20799" data-name="Path 20799" d="M308.2,208.281a1.26,1.26,0,0,1-.006.145,1.4,1.4,0,0,1-.8,1.124l-4.447,2.046-5.1,2.349a1.338,1.338,0,0,1-.84.1,1.4,1.4,0,0,1-1.011-.783,1.361,1.361,0,0,1-.126-.581,1.405,1.405,0,0,1,.808-1.27l1.876-.866,1.832-.847,4.5-2.072.12-.057,1.219-.562a1.4,1.4,0,0,1,1.769.537c.032.05.056.1.082.152A1.362,1.362,0,0,1,308.2,208.281Z" transform="translate(-295.865 -206.887)" fill="#f4a891"/>
            <path id="Path_20800" data-name="Path 20800" d="M310,218.593a1.4,1.4,0,0,1-.815,1.27l-.72.335-6.942,3.2a1.394,1.394,0,0,1-1.851-.689,1.363,1.363,0,0,1-.126-.581,1.389,1.389,0,0,1,.808-1.27l5.552-2.558,2.11-.973a1.406,1.406,0,0,1,1.857.682A1.461,1.461,0,0,1,310,218.593Z" transform="translate(-298.054 -213.024)" fill="#f4a891"/>
            <path id="Path_20801" data-name="Path 20801" d="M327.132,218.761a1.361,1.361,0,0,1-.113.55,1.38,1.38,0,0,1-.7.72l-6.646,3.371a1.4,1.4,0,0,1-1.851-.683,1.361,1.361,0,0,1-.126-.581,1.406,1.406,0,0,1,.809-1.27l3.829-2.076,2.817-1.3a1.4,1.4,0,0,1,1.851.682A1.354,1.354,0,0,1,327.132,218.761Z" transform="translate(-308.855 -213.124)" fill="#f4a891"/>
          </g>
          <path id="Path_20802" data-name="Path 20802" d="M320.508,209.056c-1.01.581-5.371,3.414-6.243,3.749-1.112.423-1.62-.194-2.5-.067-2.545.373-1.229-.758-1.772-1.03-.145-.07-1.064-.456-1.064-.456l.5-.939-2.558-1.895-.77-.568-2.565-1.9-.095-.069c.051-.013.979-.751,2.091-1.6.2-.145.392-.291.588-.442a18.8,18.8,0,0,1,3.013-1.964,14.831,14.831,0,0,1,3.9-.891h.019a14.709,14.709,0,0,1,3.07.038l4.535.524S320.793,208.891,320.508,209.056Z" transform="translate(-300.376 -200.927)" fill="#f4a891"/>
        </g>
        <path id="Path_20803" data-name="Path 20803" d="M418.477,200.473c-2.161.682-4.548,1.345-7.2,1.958-2.426.562-4.794,1-7.068,1.345-.12-2.356-.411-8.205-.468-9.506,1.782-.3,3.588-.651,5.4-1.074,2.887-.67,5.388-1.377,7.568-2.11Z" transform="translate(-360.042 -181.707)" fill="#cd8f7c"/>
      </g>
      <g id="Group_4692" data-name="Group 4692" transform="translate(179.912 5.44)">
        <path id="Path_20804" data-name="Path 20804" d="M475.829,101.665c-.32.058-.64.1-.954.145a20.054,20.054,0,0,1-22.158-16.733l-4.061-23.917,14.151-2.488,25.949-4.09,3.781,31.528C494.417,97.189,486.708,99.747,475.829,101.665Z" transform="translate(-446.827 -37.913)" fill="#723343"/>
        <path id="Path_20805" data-name="Path 20805" d="M484.709,98.559c-.742,3.79-4.792,7.09-9.834,9.258a20.054,20.054,0,0,1-22.158-16.733l-4.061-23.917,14.151-2.488c8.818,2.238,18.475,7.166,19.126,8.265C482.242,73.463,486.708,88.388,484.709,98.559Z" transform="translate(-446.827 -43.92)" fill="#591239"/>
        <path id="Path_20806" data-name="Path 20806" d="M502.082,120.194h1.906a4.514,4.514,0,0,0,4.5-4.5l-1.553-14.739c0-2.475-.473-4.018-2.949-4.018h-1.906a4.514,4.514,0,0,0-4.5,4.5v14.257A4.514,4.514,0,0,0,502.082,120.194Z" transform="translate(-475.934 -63.109)" fill="#f4a891"/>
        <path id="Path_20807" data-name="Path 20807" d="M445.563,40.092c.609,1.607,1.281,3.131,1.958,4.726.161.379-1.366-3.663-.991-3.482a4.5,4.5,0,0,0,3.166-.222c3.506-1.147,6.734-3.224,9.924-5.034s6.5-3.886,10.071-4.883A4.639,4.639,0,0,1,473,31.15a8.891,8.891,0,0,1,2.572,3.045c2.186,3.344,3.979,6.939,5.84,10.468.314.595.627,1.19.956,1.776.093.166.354.822.556.89.471.158,1.842-4.769,1.99-5.322a39.343,39.343,0,0,0,1.417-8.158,17.5,17.5,0,0,0-1.415-7.551A21.607,21.607,0,0,0,456.2,15.414c-5.714,2.741-10.635,7.778-11.892,13.992A23.925,23.925,0,0,0,445.563,40.092Z" transform="translate(-444.141 -13.43)" fill="#723343"/>
        <g id="Group_4691" data-name="Group 4691" transform="translate(1.971 6.761)">
          <path id="Path_20808" data-name="Path 20808" d="M512,71.32a3.333,3.333,0,0,0,.3,1.22,3.813,3.813,0,0,0,.872,1.273,3.583,3.583,0,0,0,2.551.977l2.1-.111,1.61-.081-.239-4.778h-.006l-.04-.883-.035-.686-.035-.628-.006-.162h-.006l-3.7.192a3.532,3.532,0,0,0-3.185,2.424A3.186,3.186,0,0,0,512,71.32Z" transform="translate(-486.481 -52.335)" fill="#ffc4bc"/>
          <path id="Path_20809" data-name="Path 20809" d="M478.275,64.073c-2.478,3.551-2.457,4.172-5.525,5.614a.019.019,0,0,1-.012.006,15.991,15.991,0,0,1-3.964,1.279c-.511.092-1.023.169-1.546.221-.209.017-.418.029-.633.04a15.369,15.369,0,0,1-2.261-.047,5.784,5.784,0,0,1-.634-.064A16.222,16.222,0,0,1,449.77,58.2a15.807,15.807,0,0,1-.273-2.243l-.058-1.157-.395-7.724a19.32,19.32,0,0,1,.087-3.394,11.92,11.92,0,0,1,.558-2.505,15.658,15.658,0,0,1,3.214-5.707,16.54,16.54,0,0,1,20.586-3.058c.389.233.773.482,1.145.744,1.86,1.308,3.01,4.853,3.01,4.859C477.952,38.528,478.339,63.981,478.275,64.073Z" transform="translate(-449.008 -30.12)" fill="#ffc7b0"/>
          <path id="Path_20810" data-name="Path 20810" d="M530.147,77.6a3.292,3.292,0,0,1-2.424,3.307,3.075,3.075,0,0,1-.418.081,1.137,1.137,0,0,1-.215.023l-.994.053-.11-2.075-.023-.465-.192-3.766,1-.052a2.022,2.022,0,0,1,.262,0h.005a2.623,2.623,0,0,1,.378.029s.006-.006.006,0a3.08,3.08,0,0,1,2.726,2.866Z" transform="translate(-494.675 -56.641)" fill="#ffc4bc"/>
        </g>
        <path id="Path_20811" data-name="Path 20811" d="M505.722,62.86c-.307-1-.623-1.989-.96-2.976a4.375,4.375,0,0,0-.967,1.391s.122,1.209.232,3.064a.335.335,0,0,1,.006.075c.081,1.342.163,3.017.18,4.795V69.5c.035,3.882-.2,8.224-1.2,10.856a18.392,18.392,0,0,1-5.894,8.375c-.18.117,1.163.291,1.163.291s.18.244,2.97-1.43a.018.018,0,0,0,.012-.006c3.272-1.546,3.917-2.717,5.545-5.885a48.923,48.923,0,0,0-.237-9.317C506.036,68.335,505.972,65.264,505.722,62.86Z" transform="translate(-475.65 -41.066)" fill="#f4a891"/>
        <path id="Path_20812" data-name="Path 20812" d="M459.024,43.658c-.256,1.409-.053,4.511,2.093,6.076,5.6,4.086,21.431,1.559,22.119,7.029,2.9,23,7.787,28.853,7.869,28.214.4-3.11,2.29-17.1,2.211-17.792-2.316-20.213-5.139-23.047-5.883-23.8a4.112,4.112,0,0,0-2.906-1.209H464.447C462.425,42.179,459.385,41.668,459.024,43.658Z" transform="translate(-452.944 -30.499)" fill="#723343"/>
        <path id="Path_20813" data-name="Path 20813" d="M454.682,35.333s-4.9-.194-6.882,5.642c0,0-1.109-5.933,7.028-12.035s22.522-1.017,23.684,1.6a10.689,10.689,0,0,1,1.017,4.649Z" transform="translate(-446.287 -20.942)" fill="#723343"/>
      </g>
      <g id="Group_4702" data-name="Group 4702" transform="translate(23.439 133.299)">
        <g id="Group_4694" data-name="Group 4694" transform="translate(63.02 85.988)">
          <path id="Path_20814" data-name="Path 20814" d="M213.436,551.053l26.286,1.068a2.84,2.84,0,0,0,2.953-2.722h0a2.84,2.84,0,0,0-1.795-2.757l-12.821-5.065-14.23-.231Z" transform="translate(-213.436 -541.345)" fill="#89362e"/>
          <path id="Path_20815" data-name="Path 20815" d="M240.463,565.7l-26.618-.884.063-1.908,28.526.948h0A1.909,1.909,0,0,1,240.463,565.7Z" transform="translate(-213.679 -554.175)" fill="#07113d"/>
          <g id="Group_4693" data-name="Group 4693" transform="translate(14.175 0.867)">
            <line id="Line_109" data-name="Line 109" y1="3.198" x2="3.198" fill="none" stroke="#07113d" stroke-linecap="round" stroke-miterlimit="10" stroke-width="1.559"/>
            <line id="Line_110" data-name="Line 110" y1="3.198" x2="3.197" transform="translate(2.231 1.029)" fill="none" stroke="#07113d" stroke-linecap="round" stroke-miterlimit="10" stroke-width="1.559"/>
            <line id="Line_111" data-name="Line 111" y1="3.627" x2="3.601" transform="translate(4.355 1.949)" fill="none" stroke="#07113d" stroke-linecap="round" stroke-miterlimit="10" stroke-width="1.559"/>
          </g>
        </g>
        <g id="Group_4697" data-name="Group 4697" transform="translate(45.328 86.441)">
          <g id="Group_4695" data-name="Group 4695">
            <path id="Path_20816" data-name="Path 20816" d="M169.762,552.523l26.308.007a2.84,2.84,0,0,0,2.841-2.84h0a2.84,2.84,0,0,0-1.9-2.682l-13.015-4.544-14.228.343Z" transform="translate(-169.762 -542.464)" fill="#a54437"/>
            <path id="Path_20817" data-name="Path 20817" d="M196.875,566.3l-26.632.19-.014-1.909,28.541-.2h0A1.908,1.908,0,0,1,196.875,566.3Z" transform="translate(-170.04 -555.498)" fill="#061d48"/>
          </g>
          <g id="Group_4696" data-name="Group 4696" transform="translate(12.844 0.134)">
            <line id="Line_112" data-name="Line 112" y1="3.226" x2="3.169" fill="none" stroke="#07113d" stroke-linecap="round" stroke-miterlimit="10" stroke-width="1.559"/>
            <line id="Line_113" data-name="Line 113" y1="3.226" x2="3.169" transform="translate(2.24 1.01)" fill="none" stroke="#07113d" stroke-linecap="round" stroke-miterlimit="10" stroke-width="1.559"/>
            <line id="Line_114" data-name="Line 114" y1="3.659" x2="3.568" transform="translate(4.376 1.907)" fill="none" stroke="#07113d" stroke-linecap="round" stroke-miterlimit="10" stroke-width="1.559"/>
          </g>
        </g>
        <g id="Group_4700" data-name="Group 4700" transform="translate(26.868)">
          <g id="Group_4699" data-name="Group 4699" clip-path="url(#clip-path)">
            <g id="Group_4698" data-name="Group 4698">
              <path id="Path_20818" data-name="Path 20818" d="M158,416.1c-.949-25.689-3.477-53.513-5.928-58.1-2.328-2.772-15.288-8.893-27.88-13.142l5.32-15.784c8.838,2.978,30.048,10.814,36.125,19.253,2.566,3.561,5.389,13.158,6.874,39.3.778,13.694,1.911,27.842,1.911,27.842Z" transform="translate(-124.191 -329.07)" fill="#25253a"/>
            </g>
            <path id="Path_20819" data-name="Path 20819" d="M104.968,346.185s31.881,8.131,36.294,16.589,7.915,60.26,7.915,60.26l-10.229,1.411-41.9-79.188Z" transform="translate(-108.045 -338.701)" fill="#181827"/>
          </g>
        </g>
        <path id="Path_20821" data-name="Path 20821" d="M109.5,341.46A11.884,11.884,0,0,1,98.82,354.423l-19.874,1.92a11.3,11.3,0,0,1-1.748.036,11.584,11.584,0,0,1-4.2-1c-.231-.1-.458-.21-.679-.328a11.86,11.86,0,0,1-6.339-9.388l-.245-6.342,42.774-4.508Z" transform="translate(-62.548 -332.488)" fill="#181827"/>
        <g id="Group_4701" data-name="Group 4701" transform="translate(7.479 12.272)">
          <path id="Path_20822" data-name="Path 20822" d="M128.042,406.587c1.768,13.476,2.655,26.2,2.686,26.724l-8.987.253-7.78.463c-1.377-23.231-5.1-48.665-8.185-53.212-3.08-2.105-14.232-5.07-24.474-7.014-1.443-.272-2.87-.521-4.248-.745-.244-.045-.486-.084-.729-.122l.031-.164s5.819-15.385,23.518-13.19c3.73.463,7.194,3.392,11.272,5.295a26.383,26.383,0,0,1,5.337,3.157C120.451,371.218,124.593,380.229,128.042,406.587Z" transform="translate(-76.326 -359.365)" fill="#25253a"/>
        </g>
        <path id="Path_20823" data-name="Path 20823" d="M110.756,430.566l-7.78.463c-1.377-23.231-5.1-48.665-8.185-53.212-3.08-2.105-14.232-5.07-24.474-7.014a11.594,11.594,0,0,1-4.248-.745c-.244-.045-.486-.083-.729-.122l.031-.165a11.863,11.863,0,0,1-6.888-8.994l-.623-6.316,6.923-.136c-.086.512-.251,5.436,1.872,8.044a4.119,4.119,0,0,0,2.406,1.514c2.811.594,13.289,1.477,21.886,3.809,5.558,1.511,10.335,3.631,11.735,6.678C105.971,381.527,110.137,424.391,110.756,430.566Z" transform="translate(-57.862 -344.095)" fill="#181827"/>
      </g>
      <g id="Group_4708" data-name="Group 4708" transform="translate(67.354 76.12)">
        <g id="Group_4707" data-name="Group 4707" transform="translate(30.543 26.994)">
          <g id="Group_4706" data-name="Group 4706" transform="translate(1.673)">
            <path id="Path_20824" data-name="Path 20824" d="M261.42,268.258c-.105-.035-1.241-.586-2.471-1.186a14.889,14.889,0,0,0-6.824-1.507l-4.523.088s-.527,7.1-.553,7.422c-.358,4.516,8.59,3.253,8.59,3.253Z" transform="translate(-246.539 -261.102)" fill="#f4a891"/>
            <path id="Path_20825" data-name="Path 20825" d="M265.711,271.7l10.4.655a1.388,1.388,0,0,0,1.468-1.294h0a1.388,1.388,0,0,0-1.294-1.468l-10.4-.655a1.388,1.388,0,0,0-1.468,1.294h0A1.388,1.388,0,0,0,265.711,271.7Z" transform="translate(-256.875 -263.108)" fill="#f4a891"/>
            <path id="Path_20826" data-name="Path 20826" d="M267.928,280.612l8.333.767a1.388,1.388,0,0,0,1.5-1.251h0a1.388,1.388,0,0,0-1.251-1.505l-8.334-.767a1.388,1.388,0,0,0-1.5,1.251h0A1.388,1.388,0,0,0,267.928,280.612Z" transform="translate(-258.218 -268.412)" fill="#f4a891"/>
            <path id="Path_20827" data-name="Path 20827" d="M259.894,288.027l9.886.606a1.388,1.388,0,0,0,1.466-1.3h0a1.388,1.388,0,0,0-1.3-1.466l-9.886-.606a1.388,1.388,0,0,0-1.466,1.3h0A1.388,1.388,0,0,0,259.894,288.027Z" transform="translate(-253.413 -272.822)" fill="#f4a891"/>
            <g id="Group_4705" data-name="Group 4705" transform="translate(10.27)">
              <g id="Group_4704" data-name="Group 4704">
                <path id="Path_20828" data-name="Path 20828" d="M294.865,255.79v15.5H281.916v-15.5a1.24,1.24,0,0,1,1.238-1.238h10.473A1.24,1.24,0,0,1,294.865,255.79Z" transform="translate(-277.557 -254.552)" fill="#f4b84d"/>
                <g id="Group_4703" data-name="Group 4703" transform="translate(0 3.154)" opacity="0.95">
                  <path id="Path_20829" data-name="Path 20829" d="M275.674,273.27c-.169-.1-4.144-2.425-4.5-6.5a3.739,3.739,0,0,1,.971-3.053,5.676,5.676,0,0,1,4.052-1.371l-.1,1.893a3.844,3.844,0,0,0-2.591.8,1.9,1.9,0,0,0-.44,1.566c.27,3.1,3.522,5.006,3.555,5.025Z" transform="translate(-271.155 -262.337)" fill="#db734c"/>
                </g>
                <path id="Path_20830" data-name="Path 20830" d="M297.118,272.075h-3.711a2.329,2.329,0,0,1-2.329-2.33h0a2.329,2.329,0,0,1,2.329-2.329h3.711a2.329,2.329,0,0,1,2.329,2.329h0A2.329,2.329,0,0,1,297.118,272.075Z" transform="translate(-283.008 -262.205)" fill="#db734c" opacity="0.71"/>
              </g>
              <path id="Path_20831" data-name="Path 20831" d="M288.814,271.291h-6.9v-15.5a1.24,1.24,0,0,1,1.238-1.238h.417c.019.809.24,6.992,1.977,11.445C287.058,269.876,288.4,271.019,288.814,271.291Z" transform="translate(-277.557 -254.552)" fill="#db734c" opacity="0.71"/>
            </g>
            <path id="Path_20832" data-name="Path 20832" d="M247.383,266.889l10.318-1.472a1.387,1.387,0,0,0,1.174-1.565h0a1.384,1.384,0,0,0-1.565-1.175l-10.318,1.472a1.388,1.388,0,0,0-1.174,1.565h0A1.388,1.388,0,0,0,247.383,266.889Z" transform="translate(-245.804 -259.378)" fill="#f4a891"/>
          </g>
          <rect id="Rectangle_2063" data-name="Rectangle 2063" width="4.316" height="11.565" transform="translate(0 3.812)" fill="#eaecee"/>
        </g>
        <path id="Path_20833" data-name="Path 20833" d="M166.272,187.914l4.6,29.489c2.33,5.042,3.83,7.31,9.384,7.255l18.352-.226" transform="translate(-166.272 -187.914)" fill="none" stroke="#181827" stroke-miterlimit="10" stroke-width="34.306"/>
      </g>
      <g id="Group_4710" data-name="Group 4710" transform="translate(38.606 0)">
        <rect id="Rectangle_2064" data-name="Rectangle 2064" width="13.638" height="25.277" rx="6.819" transform="translate(10.35 36.913)" fill="#f4a891"/>
        <path id="Path_20834" data-name="Path 20834" d="M140.5,23.015q-.009.5-.039,1.007a22.6,22.6,0,0,1-13.186,19.159,22.482,22.482,0,0,1-9.779,2.025c-5.648-.1-6.758.673-11.688-1.087-2.836-1.013-10.5-5.57-10.5-21.917A22.46,22.46,0,0,1,117.279.007q.514-.012,1.028,0a22.568,22.568,0,0,1,18.259,9.852l.007.007A22.564,22.564,0,0,1,140.5,23.015Z" transform="translate(-95.304 0)" fill="#b95241"/>
        <g id="Group_4709" data-name="Group 4709" transform="translate(3.732 7.496)">
          <path id="Path_20835" data-name="Path 20835" d="M122.582,63.288a3.63,3.63,0,0,1-.322,1.327A4.16,4.16,0,0,1,121.312,66a3.9,3.9,0,0,1-2.773,1.061l-2.281-.12-1.75-.089.259-5.192h.006l.044-.96.038-.745.038-.683.006-.177h.006l4.024.208a3.841,3.841,0,0,1,3.462,2.634A3.464,3.464,0,0,1,122.582,63.288Z" transform="translate(-110.461 -42.653)" fill="#ffc4bc"/>
          <path id="Path_20836" data-name="Path 20836" d="M150.1,36.937l-.429,8.395-.063,1.257a17.119,17.119,0,0,1-.3,2.438,17.631,17.631,0,0,1-15.141,14.042,6.476,6.476,0,0,1-.688.07,16.806,16.806,0,0,1-2.457.051,18,18,0,0,1-6.677-1.674.02.02,0,0,1-.013-.006,17.627,17.627,0,0,1-10.119-15.3c-.006-.2-.013-.4-.006-.6a6.908,6.908,0,0,1,.012-.714V44.77l.026-.568.082-1.5.253-5.141.006-.051v-.006l.051-.954.038-.745.038-.683.013-.177a14.142,14.142,0,0,1,.657-3.436,19,19,0,0,1,.846-2.243c.044-.12.089-.221.139-.328a16.235,16.235,0,0,1,.909-1.737.023.023,0,0,1,.006-.013,17.7,17.7,0,0,1,5-5.382c.4-.284.821-.556,1.244-.808A17.975,17.975,0,0,1,145.9,24.323a17.021,17.021,0,0,1,3.493,6.2A12.957,12.957,0,0,1,150,33.248,21.015,21.015,0,0,1,150.1,36.937Z" transform="translate(-110.277 -18.506)" fill="#ffc7b0"/>
          <path id="Path_20837" data-name="Path 20837" d="M110.579,65.481l-.265,5.211-.183,3.518-1.383-.069a2.2,2.2,0,0,1-.3-.032,4.543,4.543,0,0,1-3.929-4.693,4.181,4.181,0,0,1,1.459-2.956,4.294,4.294,0,0,1,2.842-1.048h.006a1.725,1.725,0,0,1,.36,0Z" transform="translate(-104.516 -46.405)" fill="#ffc4bc"/>
        </g>
        <path id="Path_20838" data-name="Path 20838" d="M124.772,80.832a11.745,11.745,0,0,1-6.19-1.611.02.02,0,0,1-.013-.006,17.627,17.627,0,0,1-10.119-15.3,4.543,4.543,0,0,1-3.929-4.693,4.181,4.181,0,0,1,1.459-2.956,4.294,4.294,0,0,1,2.842-1.048v-.006l.051-.954.038-.745.038-.683.006-.177h.006a14.141,14.141,0,0,1,.657-3.436c2.388-1.333,4.82-1.585,6.2,1.4,0,0-.139,1.352-.259,3.411-.094,1.541-.183,3.474-.2,5.527-.038,4.22.215,8.938,1.3,11.8C118.98,77.466,124.772,80.832,124.772,80.832Z" transform="translate(-100.784 -28.717)" fill="#f4a891"/>
        <path id="Path_20839" data-name="Path 20839" d="M157.717,23.982H129.242a3.41,3.41,0,0,1-3.4-3.4h0a3.41,3.41,0,0,1,3.4-3.4h28.475a3.41,3.41,0,0,1,3.4,3.4h0A3.41,3.41,0,0,1,157.717,23.982Z" transform="translate(-113.472 -10.223)" fill="#b95241"/>
        <path id="Path_20840" data-name="Path 20840" d="M155.93,35.382a4.483,4.483,0,0,1-4.4,5.281H125.567a6.743,6.743,0,0,0-6.743,6.743v4.2a2.54,2.54,0,0,1-2.533,2.533h-.6a2.533,2.533,0,0,1-2.533-2.533V38.957a2.186,2.186,0,0,1,.019-.29,4.41,4.41,0,0,1-.758-2.476,4.487,4.487,0,0,1,4.472-4.479h34.456A4.608,4.608,0,0,1,155.93,35.382Z" transform="translate(-105.486 -18.866)" fill="#b95241"/>
      </g>
      <g id="Group_4713" data-name="Group 4713" transform="translate(21.879 52.635)">
        <path id="Path_20841" data-name="Path 20841" d="M106.5,159.859l-4.245,63.683-33.528,3.2h-.007L54.466,228.1l-.455.044.019-.215,4.352-55.838c1.636-19.827,8.211-33.73,18.071-34.792a21.508,21.508,0,0,1,2.723-.113c.3.006.607.025.909.044l7.024.467A20.82,20.82,0,0,1,106.5,159.859Z" transform="translate(-54.011 -134.249)" fill="#181827"/>
        <g id="Group_4711" data-name="Group 4711" transform="translate(18.637 1.583)">
          <rect id="Rectangle_2065" data-name="Rectangle 2065" width="18.634" height="81.407" transform="translate(5.418 0) rotate(3.816)" fill="#eaecee"/>
        </g>
        <path id="Path_20842" data-name="Path 20842" d="M130.813,142.886l-4.226-6.961,4.474-2.286,4.866,2.91Z" transform="translate(-97.188 -132.14)" fill="#5371b7"/>
        <path id="Path_20843" data-name="Path 20843" d="M123.147,218.517l-4.747-7.386,6.281-62.634,3.217.527.585,62.522Z" transform="translate(-92.318 -140.979)" fill="#5371b7"/>
        <path id="Path_20844" data-name="Path 20844" d="M131.264,137.5l-8.377-5.7-10.531,4.441.421-6.3,18.908,1.261Z" transform="translate(-88.722 -129.939)" fill="#fff"/>
        <g id="Group_4712" data-name="Group 4712" transform="translate(18.25 82.667)">
          <rect id="Rectangle_2066" data-name="Rectangle 2066" width="18.932" height="3.988" transform="translate(0.265 0) rotate(3.816)" fill="#6d322e"/>
        </g>
        <rect id="Rectangle_2067" data-name="Rectangle 2067" width="6.79" height="4.106" transform="matrix(0.998, 0.067, -0.067, 0.998, 26.984, 83.195)" fill="#b7b9bd"/>
      </g>
      <g id="Group_4714" data-name="Group 4714" transform="translate(165.016 65.366)">
        <path id="Path_20845" data-name="Path 20845" d="M436.518,177.074c-.809.588-23.052,9.517-23.052,9.517l-1.085-2.71-3.181-7.948s21.153-7.328,28.417-14.434c.787-.77,4.457,2.016,4.75,2.983a1.619,1.619,0,0,1,.077.67C442.106,169.49,439.96,174.573,436.518,177.074Z" transform="translate(-408.458 -161.365)" fill="#578dce"/>
        <path id="Path_20846" data-name="Path 20846" d="M410.124,196.005l3.412,9.376a1.452,1.452,0,0,1-.854,1.856h0a1.452,1.452,0,0,1-1.878-.872l-3.352-9.4a1.421,1.421,0,0,1,.711-1.752h0A1.421,1.421,0,0,1,410.124,196.005Z" transform="translate(-407.368 -181.417)" fill="#fff"/>
      </g>
      <path id="Path_20847" data-name="Path 20847" d="M506.628,172.947l-3.1,52.11h-.047l-10.625-.459-25.363-1.087.012-3.557,4.373-29.811-4.187-18.167c.773-13.559,4.725-26.875,15.3-26.875h6.474a19.615,19.615,0,0,1,3.331.285,11.354,11.354,0,0,1,4.493,1.842C503.286,151.331,506.308,161.241,506.628,172.947Z" transform="translate(-278.119 -86.324)" fill="#0c2d63"/>
      <g id="Group_4715" data-name="Group 4715" transform="translate(196.511 56.955)">
        <path id="Path_20848" data-name="Path 20848" d="M491.734,189.641s1.3-15.445,2.545-22.481c2.858-16.177,8.5-24.015,8.5-24.015L492.315,140.6l-5.53,2.355s-2.716,9.114-1.215,23.6C486.183,172.465,491.734,189.641,491.734,189.641Z" transform="translate(-485.117 -140.602)" fill="#578dce"/>
      </g>
      <path id="Path_20849" data-name="Path 20849" d="M513.348,142.757l-6.829.581a3.633,3.633,0,0,1-3.632-3.633H512.3a1.289,1.289,0,0,1,1.276,1.471Z" transform="translate(-299.177 -83.114)" fill="#fff"/>
      <path id="Path_20850" data-name="Path 20850" d="M487.5,143.774l2.47-.435a3.633,3.633,0,0,0,3.632-3.633h0l-4.762.053a1.574,1.574,0,0,0-1.549,1.716Z" transform="translate(-289.898 -83.114)" fill="#fff"/>
      <path id="Path_20851" data-name="Path 20851" d="M488.538,408.576l.262-.1A.21.21,0,0,1,488.538,408.576Z" transform="translate(-290.641 -243.008)" fill="#061d48"/>
      <g id="Group_4721" data-name="Group 4721" transform="translate(144.243 132.789)">
        <g id="Group_4720" data-name="Group 4720" transform="translate(0 0.931)">
          <g id="Group_4717" data-name="Group 4717" transform="translate(13.759)">
            <path id="Path_20852" data-name="Path 20852" d="M402.323,408.432c-4.745-22.5-13.807-48.635-8.211-60.639,2.932-6.29,17.055-11.16,38.3-16.476a13.617,13.617,0,0,0,2.811-1.208c-.147.072-.256.138-.333.184l7.325,12.277a36.325,36.325,0,0,1-4.295,1.948c-21.694,9.154-30.223,7.615-31.175,8.959-1.895,13.054,2.011,32.686,4.632,53.48Zm8.341-49.349h0Z" transform="translate(-391.416 -330.109)" fill="#f4a891"/>
            <g id="Group_4716" data-name="Group 4716" transform="translate(0 75.436)">
              <path id="Path_20853" data-name="Path 20853" d="M400.962,522.024l-4.006,9.688a4.991,4.991,0,0,1-3.743,2.871h0a2.592,2.592,0,0,0-2.171,2.725v.006a2.592,2.592,0,0,0,2.925,2.417l4.135-.507a8.557,8.557,0,0,0,5.509-2.993l9.918-11.8a3.556,3.556,0,0,0,.389-2.557h0a3.518,3.518,0,0,0-4.375-2.631Z" transform="translate(-390.637 -517.988)" fill="#07113d"/>
              <rect id="Rectangle_2068" data-name="Rectangle 2068" width="2.956" height="15.585" transform="translate(19.991 3.233)" fill="#07113d"/>
              <path id="Path_20854" data-name="Path 20854" d="M399.976,519.247l-4.006,9.688a4.989,4.989,0,0,1-3.743,2.871h0a2.592,2.592,0,0,0-2.171,2.725v.006a2.592,2.592,0,0,0,2.925,2.417l2.964-.363a11.566,11.566,0,0,0,7.444-4.043l9.155-10.893a3.556,3.556,0,0,0,.389-2.557h0a3.519,3.519,0,0,0-4.375-2.631Z" transform="translate(-390.05 -516.336)" fill="#2c3765"/>
              <line id="Line_115" data-name="Line 115" x2="2.476" y2="1.125" transform="translate(6.809 10.141)" fill="none" stroke="#07113d" stroke-linecap="round" stroke-miterlimit="10" stroke-width="1.582"/>
              <line id="Line_116" data-name="Line 116" x2="2.477" y2="1.125" transform="translate(7.528 8.213)" fill="none" stroke="#07113d" stroke-linecap="round" stroke-miterlimit="10" stroke-width="1.582"/>
              <line id="Line_117" data-name="Line 117" x2="2.476" y2="1.125" transform="translate(8.247 6.366)" fill="none" stroke="#07113d" stroke-linecap="round" stroke-miterlimit="10" stroke-width="1.582"/>
            </g>
          </g>
          <g id="Group_4719" data-name="Group 4719" transform="translate(0 8.977)">
            <path id="Path_20855" data-name="Path 20855" d="M440.8,352.33c.066-.016.152-.037.256-.059-.488.058-1.775.173-2.931.282-9.317.855-16.627,1.787-22.363,2.909a80.047,80.047,0,0,0-13.833,3.832c-2.52,1.114-4.641,2.175-5.72,3.853-5.65,8.78-10.726,36.012-13.019,58.892l9.265-1.895c4.421-19.582,6.527-29.267,13.686-48.637.421.21,5.042-.356,8.843-1.263,1.929-.466,4.448-.964,7.731-1.469,4.186-.657,9.619-1.326,16.661-1.972a35.837,35.837,0,0,0,4.683-.554Z" transform="translate(-372.212 -352.271)" fill="#ffc7b0"/>
            <g id="Group_4718" data-name="Group 4718" transform="translate(0 67.017)">
              <path id="Path_20856" data-name="Path 20856" d="M367.514,523.032,363.1,532.54a4.99,4.99,0,0,1-3.862,2.708h0a2.592,2.592,0,0,0-2.285,2.629v.007a2.591,2.591,0,0,0,2.819,2.539l4.154-.33a8.556,8.556,0,0,0,5.632-2.754l10.412-11.366a3.556,3.556,0,0,0,.5-2.538h0a3.518,3.518,0,0,0-4.259-2.815Z" transform="translate(-356.6 -519.387)" fill="#07113d"/>
              <rect id="Rectangle_2069" data-name="Rectangle 2069" width="2.956" height="15.585" transform="translate(20.608 3.255) rotate(2.455)" fill="#07113d"/>
              <path id="Path_20857" data-name="Path 20857" d="M366.648,520.217l-4.415,9.507a4.992,4.992,0,0,1-3.862,2.709h0a2.591,2.591,0,0,0-2.285,2.63v.006a2.591,2.591,0,0,0,2.819,2.539l2.977-.237a11.562,11.562,0,0,0,7.61-3.721l9.612-10.492a3.556,3.556,0,0,0,.5-2.538h0a3.519,3.519,0,0,0-4.259-2.815Z" transform="translate(-356.085 -517.712)" fill="#4d6199"/>
              <line id="Line_118" data-name="Line 118" x2="2.426" y2="1.229" transform="translate(7.142 9.595)" fill="none" stroke="#07113d" stroke-linecap="round" stroke-miterlimit="10" stroke-width="1.582"/>
              <line id="Line_119" data-name="Line 119" x2="2.426" y2="1.229" transform="translate(7.943 7.7)" fill="none" stroke="#07113d" stroke-linecap="round" stroke-miterlimit="10" stroke-width="1.582"/>
              <line id="Line_120" data-name="Line 120" x2="2.426" y2="1.229" transform="translate(8.74 5.884)" fill="none" stroke="#07113d" stroke-linecap="round" stroke-miterlimit="10" stroke-width="1.582"/>
            </g>
          </g>
        </g>
        <path id="Path_20858" data-name="Path 20858" d="M409.183,357.361s5.9.421,8.211,3.158c0,0,7.79-3.58,14.528,1.263S438.179,370,438.179,370l7.429-.636s-3.79-11.16-12.212-14.107S409.183,357.361,409.183,357.361Z" transform="translate(-387.674 -343.589)" fill="#f4a891"/>
        <path id="Path_20859" data-name="Path 20859" d="M459.494,353.1l-18.413,1.067c.126-.252.02-1.054-1.415-3.411-6.244-10.249-30.483-9.169-30.483-9.169,3.369-3.79,21.975-9.18,21.975-9.18l1.817-3.874,25.882-.7.631-.018,9.159,2.849.146,3.095.209,4.39A15.381,15.381,0,0,1,459.494,353.1Z" transform="translate(-387.674 -327.811)" fill="#07113d"/>
      </g>
      <g id="Group_4722" data-name="Group 4722" transform="translate(202.814 61.847)">
        <path id="Path_20860" data-name="Path 20860" d="M503.789,153.452c-.041.4-.29.7-.556.673s-.449-.373-.408-.772.29-.7.556-.673S503.83,153.054,503.789,153.452Z" transform="translate(-501.952 -152.679)" fill="#fff"/>
        <path id="Path_20861" data-name="Path 20861" d="M502.718,163.88c-.041.4-.29.7-.556.673s-.449-.373-.407-.772.29-.7.556-.673S502.759,163.481,502.718,163.88Z" transform="translate(-501.314 -158.882)" fill="#fff"/>
        <path id="Path_20862" data-name="Path 20862" d="M501.646,174.307c-.041.4-.29.7-.556.674s-.448-.373-.407-.772.29-.7.556-.673S501.688,173.908,501.646,174.307Z" transform="translate(-500.677 -165.085)" fill="#fff"/>
      </g>
      <path id="Path_20863" data-name="Path 20863" d="M488.538,408.576l.262-.1A.21.21,0,0,1,488.538,408.576Z" transform="translate(-290.641 -243.008)" fill="#061d48"/>
      <path id="Path_20864" data-name="Path 20864" d="M513.771,232.573a15.381,15.381,0,0,1-9.507,14.951l-18.413,1.067c.126-.252,0-1.042-1.415-3.411a56.328,56.328,0,0,0,12.513-6.538c3.626-2.716,5.129-5.969,5.988-10.921.171-.992.316-2.053.448-3.2.083-.72.164-1.478.241-2.262.221-2.356.429-5.009.681-8.022,1.163-13.562,2.489-60.847,2.716-62.382a8.313,8.313,0,0,1,.348-1.5c5.994,4.1,9.02,14.01,9.336,25.715l-3.1,52.112h-.044Z" transform="translate(-288.201 -89.45)" fill="#07113d"/>
      <g id="Group_4726" data-name="Group 4726" transform="translate(167.89 67.799)">
        <g id="Group_4724" data-name="Group 4724" transform="translate(0 40.607)">
          <g id="Group_4723" data-name="Group 4723">
            <path id="Path_20865" data-name="Path 20865" d="M425.78,271.038l-8.012-1.281a1.08,1.08,0,0,1-.894-1.234h0a1.08,1.08,0,0,1,1.234-.894l8.012,1.28a1.081,1.081,0,0,1,.894,1.234h0A1.081,1.081,0,0,1,425.78,271.038Z" transform="translate(-415.889 -267.617)" fill="#ffc7b0"/>
            <path id="Path_20866" data-name="Path 20866" d="M421.8,276.757l-6.433-1.029a1.081,1.081,0,0,1-.894-1.234h0a1.081,1.081,0,0,1,1.234-.894l6.433,1.028a1.081,1.081,0,0,1,.894,1.234h0A1.081,1.081,0,0,1,421.8,276.757Z" transform="translate(-414.461 -271.169)" fill="#ffc7b0"/>
            <path id="Path_20867" data-name="Path 20867" d="M423.738,283.414l-7.614-1.217a1.081,1.081,0,0,1-.894-1.234h0a1.081,1.081,0,0,1,1.234-.894l7.614,1.217a1.08,1.08,0,0,1,.894,1.234h0A1.081,1.081,0,0,1,423.738,283.414Z" transform="translate(-414.911 -275.017)" fill="#ffc7b0"/>
          </g>
          <path id="Path_20868" data-name="Path 20868" d="M430.342,270.649c.086.01,1.462-.186,2.527-.2a11.405,11.405,0,0,1,5.183,1.485l2.892,1.44s-1.947,5.658-2.2,5.7c-5.847,1.043-8.044-1.952-8.044-1.952Z" transform="translate(-423.909 -269.299)" fill="#ffc7b0"/>
        </g>
        <g id="Group_4725" data-name="Group 4725" transform="translate(13.827 4.34)">
          <path id="Path_20869" data-name="Path 20869" d="M491.655,189.13s-2.406,10.066-5.074,18.337c-.744,2.3-1.505,4.452-2.237,6.219-.216.512-.436,1.011-.674,1.494-2.93,6.091-7.4,9.84-14.391,9.84-.064,0-20.685-.942-20.685-.942l.3-7.148,21.115-.773c2.3.029,5.254-3.545,6.44-5.876.093-.18.174-.354.244-.517.54-1.267,1.11-2.819,1.7-4.545,3.5-10.369,7.457-27.131,7.457-27.131Z" transform="translate(-448.594 -178.087)" fill="#ffc7b0"/>
        </g>
        <path id="Path_20870" data-name="Path 20870" d="M519.29,245.063l8.195,2.249c-.744,2.3-1.5,4.452-2.237,6.219-.216.512-.436,1.012-.674,1.494l-7.225-4.9Z" transform="translate(-475.671 -213.592)" fill="#f4a891"/>
        <path id="Path_20871" data-name="Path 20871" d="M533.533,178.989a14.631,14.631,0,0,1-.308,3l-4.545,21.853-2.831-.715-8.3-2.1,7.893-32.292a1.8,1.8,0,0,1,2.336-1.273,1.594,1.594,0,0,1,.587.331A14.709,14.709,0,0,1,533.533,178.989Z" transform="translate(-475.791 -167.372)" fill="#578dce"/>
        <path id="Path_20872" data-name="Path 20872" d="M517.853,246.4l9.591,2.75a1.452,1.452,0,0,1,1,1.782h0a1.452,1.452,0,0,1-1.809,1.007l-9.573-2.811a1.422,1.422,0,0,1-1-1.6h0A1.421,1.421,0,0,1,517.853,246.4Z" transform="translate(-474.892 -214.354)" fill="#fff"/>
      </g>
      <path id="Path_20873" data-name="Path 20873" d="M77.739,137.434l-6.367,88.539s-1.029.392-2.621.884h-.007c-3.676,1.137-10.34,2.8-14.249,1.358a4.414,4.414,0,0,1-.436-.171l4.352-55.838c1.636-19.827,8.211-33.73,18.071-34.792A4.667,4.667,0,0,1,77.739,137.434Z" transform="translate(-32.16 -81.726)" fill="#2c2c44"/>
      <path id="Path_20874" data-name="Path 20874" d="M84.234,177.666l42.152,29.044s-13.277,4.114-24.572-1.762S85.161,188.287,84.234,177.666Z" transform="translate(-50.112 -105.697)" fill="#181827" opacity="0.39" style="mix-blend-mode: multiply;isolation: isolate"/>
      <g id="Group_4728" data-name="Group 4728" transform="translate(115.211 82.489)">
        <g id="Group_4727" data-name="Group 4727" transform="translate(6.492 0.441)">
          <path id="Path_20875" data-name="Path 20875" d="M310.813,207.563l9.72,6.107a1.484,1.484,0,0,0,2.069-.493h0a1.568,1.568,0,0,0-.512-2.115l-9.72-6.107a1.485,1.485,0,0,0-2.07.493h0A1.569,1.569,0,0,0,310.813,207.563Z" transform="translate(-306.179 -204.725)" fill="#ffc7b0"/>
          <path id="Path_20876" data-name="Path 20876" d="M310.777,217.356l7.8,4.9a1.485,1.485,0,0,0,2.07-.493h0a1.569,1.569,0,0,0-.512-2.115l-7.805-4.9a1.484,1.484,0,0,0-2.069.493h0A1.567,1.567,0,0,0,310.777,217.356Z" transform="translate(-306.158 -210.551)" fill="#ffc7b0"/>
          <path id="Path_20877" data-name="Path 20877" d="M301.17,221.052l9.238,5.8a1.485,1.485,0,0,0,2.069-.493h0a1.568,1.568,0,0,0-.512-2.115l-9.238-5.8a1.485,1.485,0,0,0-2.069.493h0A1.568,1.568,0,0,0,301.17,221.052Z" transform="translate(-300.443 -212.75)" fill="#ffc7b0"/>
        </g>
        <path id="Path_20878" data-name="Path 20878" d="M299.861,207.385a6.411,6.411,0,0,0-2.111-2,16.575,16.575,0,0,0-7.583-1.744l-3.969.247s-2.048,7.852-1.754,8.064c7.18,5.183,11.584,2.9,11.584,2.9Z" transform="translate(-284.416 -203.637)" fill="#ffc7b0"/>
      </g>
      <rect id="Rectangle_2070" data-name="Rectangle 2070" width="3.868" height="12.571" transform="translate(113.463 83.091) rotate(-9.126)" fill="#eaecee"/>
      <path id="Path_20879" data-name="Path 20879" d="M95.561,168.611c6.724,10.236,28.132,33.919,76.969,21.361" transform="translate(-56.851 -100.31)" fill="none" stroke="#2c2c44" stroke-miterlimit="10" stroke-width="37.424"/>
      <path id="Path_20880" data-name="Path 20880" d="M521.352,81.944a2.837,2.837,0,0,1-2.588,3.065c-1.582.158-1.6-1.1-1.756-2.631s-.381-2.768,1.2-2.926A2.837,2.837,0,0,1,521.352,81.944Z" transform="translate(-307.514 -47.258)" fill="#f4a891"/>
      <path id="Path_20881" data-name="Path 20881" d="M493.651,65.5c5.1,1.463,6.929,2.265,7.089,5.536.135,2.768,3.174,3.7,3.266,2.785.079-.789,0-2.747,0-3.277,0-.908-.434-6.119-.434-6.119Z" transform="translate(-293.683 -38.33)" fill="#723343"/>
      <path id="Path_20882" data-name="Path 20882" d="M298.44,201.993l4.607-2.076a8.222,8.222,0,0,0-5.023-1.251c-2.934.234-8.041,2.264-8.041,2.264l4.191,2.468Z" transform="translate(-172.517 -118.175)" fill="#ffc7b0"/>
      <path id="Path_20883" data-name="Path 20883" d="M303.167,223.824a1.363,1.363,0,0,1,.181.531,1.38,1.38,0,0,1-.233.973l-1.289,2.289a1.4,1.4,0,0,1-1.941.351,1.36,1.36,0,0,1-.4-.437,1.4,1.4,0,0,1,.053-1.5l.733-1.162.556-1.127a1.4,1.4,0,0,1,1.94-.351A1.363,1.363,0,0,1,303.167,223.824Z" transform="translate(-178.052 -132.751)" fill="#f4a891"/>
      <path id="Path_20884" data-name="Path 20884" d="M309.31,225.746a1.567,1.567,0,0,1-.059,1.671l-1.432,2.544a1.557,1.557,0,0,1-2.157.39,1.517,1.517,0,0,1-.449-.485,1.563,1.563,0,0,1,.059-1.672l.815-1.291.617-1.253a1.555,1.555,0,0,1,2.156-.39A1.514,1.514,0,0,1,309.31,225.746Z" transform="translate(-181.45 -133.849)" fill="#f4a891"/>
      <path id="Path_20885" data-name="Path 20885" d="M315.458,229.866a1.359,1.359,0,0,1,.181.531,1.38,1.38,0,0,1-.234.973l-1.289,2.289a1.4,1.4,0,0,1-1.941.351,1.357,1.357,0,0,1-.4-.437,1.4,1.4,0,0,1,.052-1.5l.733-1.162.556-1.128a1.4,1.4,0,0,1,1.941-.351A1.361,1.361,0,0,1,315.458,229.866Z" transform="translate(-185.365 -136.345)" fill="#f4a891"/>
      <path id="Path_20886" data-name="Path 20886" d="M309.48,204.88a1.35,1.35,0,0,1,.05.559,1.379,1.379,0,0,1-.456.89l-3.491,3.346a1.4,1.4,0,0,1-1.968-.118,1.359,1.359,0,0,1-.289-.52,1.406,1.406,0,0,1,.407-1.449l.987-.955,2.5-2.39a1.4,1.4,0,0,1,1.969.118A1.362,1.362,0,0,1,309.48,204.88Z" transform="translate(-180.419 -121.3)" fill="#f4a891"/>
      <path id="Path_20887" data-name="Path 20887" d="M310.1,204.852a3.394,3.394,0,0,1,.86-2.3c1.587-1.62,4.425-2.457,9.124-1.752s1.205,6.123,1.205,6.123a7.57,7.57,0,0,1-3.7-1.063c-2.178-1.165-4.658-1.57-6.177.051S310.1,204.852,310.1,204.852Z" transform="translate(-184.477 -119.313)" fill="#f4a891"/>
    </g>
  </g>
</svg>
