<svg xmlns="http://www.w3.org/2000/svg" xmlns:xlink="http://www.w3.org/1999/xlink" width="431.623" height="363.895" viewBox="0 0 431.623 363.895">
  <defs>
    <linearGradient id="linear-gradient" x1="0.32" x2="0.886" y2="0.52" gradientUnits="objectBoundingBox">
      <stop offset="0" stop-color="#b5e2f6"/>
      <stop offset="1" stop-color="#cae4ef"/>
    </linearGradient>
  </defs>
  <g id="Group_4795" data-name="Group 4795" transform="translate(-200 -7434.006)">
    <path id="Path_20888" data-name="Path 20888" d="M411.911,85.587a89.924,89.924,0,0,0-2.7,34.051c1.651,14.336,6.729,28.185,11.165,42.078,6.1,19.1,6.408,52.63,0,71.913-2.243,6.747-53.458,120.514-53.475,121.01,0,0,72.062.027,0,.035s-287.777,0-288.252,0c-3.379-.025-6.8-14.226-7.177-15.925C69,327.7,56.684,315.891,61.808,305.519c7.274-14.725,14.855-26.43,7.518-42.627C64.5,252.237,55.163,243.983,49.819,233.63a122.792,122.792,0,0,1-8.843-90.176C50.191,111.36,71.358,88.893,98.328,66.53c24.221-20.083,44.207-43.935,65.5-66.247H467.816s0,10.64,0,10.652c-.117,4.439-12.063,13.74-15.352,17.128-12.728,13.108-26.294,24.639-34.12,40.57a95.969,95.969,0,0,0-6.433,16.954" transform="translate(163.807 7433.723)" opacity="0.46" fill="url(#linear-gradient)"/>
    <path id="Path_20894" data-name="Path 20894" d="M110.73,324.053a251.193,251.193,0,0,1-25.47-36.592l.005,0-.1-.167c2.1-1.693,10.062-9.022,4.877-19.245l-.325-.642-.608.386c-6.581,4.182-7.248,10.312-6.706,14.6-1.831-3.338-3.655-6.823-5.429-10.448q-1.286-2.631-2.565-5.421l.086-.023-.081-.178c2.276-1.454,10.99-7.864,6.959-18.594l-.254-.674-.647.318c-7.226,3.545-8.415,9.845-8.255,14.193-2.065-4.823-4.051-9.939-5.865-15.3,2.552-1.169,11.917-6.281,9.472-17.386l-.154-.7-.685.222c-7.746,2.507-9.779,8.689-10.206,13.023-1.552-5.016-2.925-10.221-4.064-15.568,2.637-.99,12.328-5.422,10.682-16.665l-.1-.712-.7.173C63.1,210.5,60.494,216,59.616,220.228a148.728,148.728,0,0,1-1.936-15.912c2.8-.51,13.078-3.152,13.47-14.482l.024-.719-.718.044c-7.966.494-11.49,5.77-13.031,9.831a125.076,125.076,0,0,1,1.144-20.937c2.687-.059,13.458-1,15.588-12.274l.133-.707-.718-.065c-7.523-.68-11.762,3.489-14.01,7.146a112.684,112.684,0,0,1,3.294-12.924c1.554-1.059,11.072-8.113,6.189-19.163l-.289-.659-.629.353c-10.564,5.945-7.111,17.356-6.519,19.071a114.214,114.214,0,0,0-3.354,13.193c-.869-4.213-3.452-9.631-10.836-11.526l-.7-.179-.112.711c-1.766,11.326,8.069,15.832,10.593,16.793l-.043.191.089.005a125.887,125.887,0,0,0-1.166,19.652,14.046,14.046,0,0,0-12.162-9.006l-.716-.071,0,.72c-.03,11.464,10.376,14.426,13.015,14.993l-.014.195.176-.017a150.232,150.232,0,0,0,1.88,15.555A14.152,14.152,0,0,0,44.4,212.91l-.718.058.127.708c2.022,11.29,12.8,12.339,15.487,12.423l.021.2.149-.043c1,4.685,2.183,9.256,3.5,13.688a14,14,0,0,0-13.807-5.422l-.712.109.179.7c2.62,10.324,12.146,11.3,15.645,11.3.273,0,.493-.007.688-.014L65,246.8l.142-.052c1.648,4.866,3.435,9.537,5.3,13.968A14.035,14.035,0,0,0,55.783,257.1l-.689.209.273.665c3.205,7.767,9.834,9.166,14.193,9.166a20,20,0,0,0,3.553-.312q1.343,2.945,2.7,5.72c1.672,3.416,3.386,6.7,5.114,9.868a14.1,14.1,0,0,0-15.295-2.248l-.661.284.345.631a14.043,14.043,0,0,0,12.977,7.672,20.237,20.237,0,0,0,5.659-.827l.082.178.063-.043a253,253,0,0,0,25.653,36.855.653.653,0,1,0,.979-.865M74.692,229.885c1.671,9.519-6.115,13.932-8.655,15.1-.273-2.782-.4-11.732,8.655-15.1M70.2,210.11c.986,9.614-7.1,13.46-9.712,14.447-.075-2.8.437-11.732,9.712-14.447m-.4-19.585c-.746,9.626-9.368,11.968-12.128,12.474.455-2.744,2.64-11.462,12.128-12.474m2.161-24.284c.25,0,.5.005.757.017-2.2,9.413-11.094,10.414-13.888,10.494.818-2.6,4.056-10.511,13.132-10.511m8.432,82.644c3.005,9.175-4.056,14.648-6.409,16.173-.635-2.708-1.962-11.6,6.409-16.173M68.133,141.276c3.521,9-3.238,14.866-5.494,16.516-.82-2.673-2.718-11.419,5.494-16.516M47.8,161.964c9.249,2.8,9.675,11.743,9.574,14.537-2.606-1.01-10.651-4.933-9.574-14.537m-3.28,28.092c9.555,1.367,11.337,10.121,11.664,12.909-2.707-.631-11.268-3.376-11.664-12.909m.719,24.113c9.627-.361,12.964,7.932,13.785,10.615-2.779-.137-11.691-1.307-13.785-10.615m4.85,21.546c9.609-1.052,13.507,7,14.511,9.613-2.8.088-11.733-.359-14.511-9.613m6.781,22.44c9.023-2.325,13.992,4.481,15.56,7.158.042.1.086.193.129.289-2.783.46-11.682,1.169-15.69-7.447M89.2,269.3c3.992,8.791-2.426,15-4.6,16.78-.927-2.623-3.222-11.313,4.6-16.78M66.833,281.095c9.036-3.418,14.831,3.4,16.452,5.68-2.681.791-11.448,2.588-16.452-5.68" transform="translate(177.109 7411.488)" fill="#fff"/>
    <g id="Group_4736" data-name="Group 4736" transform="translate(-10 7314)">
      <g id="Group_3305" data-name="Group 3305" transform="translate(27 -4)">
        <path id="Path_12" data-name="Path 12" d="M68.6,427.8s-13.843-46.929-27.986-66.252-14.5-49.192,8.485-50.874,32.691,32.4,38.974,57.434S93.649,427.8,93.649,427.8Z" transform="translate(187.409 33.671)" fill="#fff"/>
        <path id="Path_13" data-name="Path 13" d="M88.88,401.568a.457.457,0,0,0-.631.137l-7.219,11.234q-2.263-9.7-4.611-18.2l7.945-14.489a.457.457,0,0,0-.8-.439l-7.492,13.663c-1.863-6.718-3.739-12.877-5.583-18.493l6.868-19.021a.456.456,0,0,0-.274-.585.461.461,0,0,0-.585.273l-6.474,17.93c-2.911-8.758-5.728-16.159-8.269-22.259l4.558-16.252a.457.457,0,1,0-.88-.246l-4.246,15.143c-6.017-14.227-10.349-20.96-10.44-21.1a.457.457,0,0,0-.764.5c.091.139,4.444,6.911,10.479,21.226L45.89,346.529a.457.457,0,1,0-.245.88l15.266,4.26c2.548,6.119,5.378,13.554,8.3,22.364L54.1,366.609a.457.457,0,0,0-.4.82l15.918,7.821c1.858,5.663,3.75,11.878,5.63,18.667l-12.989-4.946a.456.456,0,1,0-.324.853l13.612,5.183q2.348,8.564,4.638,18.327l-12.846-5.267a.457.457,0,0,0-.346.846l13.443,5.511q1.573,6.823,3.082,14.231a.458.458,0,0,0,.448.366.439.439,0,0,0,.09-.009.457.457,0,0,0,.357-.539q-1.508-7.449-3.1-14.292l7.7-11.982a.457.457,0,0,0-.137-.631" transform="translate(186.15 32.107)" fill="#98dbf9"/>
      </g>
      <g id="Group_3306" data-name="Group 3306" transform="translate(-93.638 88.536) rotate(-16)">
        <path id="Path_14" data-name="Path 14" d="M74.332,431.733h-20.7S13.935,389.1,23.225,370.2s24.75-18.447,32.881-1.269,18.225,62.8,18.225,62.8" transform="translate(188.186 29.735)" fill="#fff"/>
        <path id="Path_15" data-name="Path 15" d="M66.762,418.81a.458.458,0,0,0-.593.255l-3.022,7.576c-1.269-3.6-2.62-7.213-4.01-10.775l4.419-10.527a.457.457,0,1,0-.842-.353l-4.054,9.66c-1.617-4.1-3.274-8.122-4.906-11.955l4.781-12.634a.456.456,0,0,0-.854-.322l-4.444,11.742c-2.229-5.2-4.388-10.007-6.305-14.169l4.646-11.658a.457.457,0,1,0-.849-.339L46.4,386.165c-3.841-8.289-6.577-13.708-6.643-13.839a.457.457,0,1,0-.815.414c.067.132,2.835,5.614,6.709,13.982L33.2,384.693a.456.456,0,1,0-.147.9l13.068,2.128c1.938,4.206,4.123,9.076,6.374,14.335L37.342,398.84a.457.457,0,1,0-.19.894l15.777,3.349c1.655,3.886,3.334,7.964,4.971,12.127l-12.653-2.934a.457.457,0,0,0-.206.891L58.3,416.24c1.41,3.615,2.78,7.284,4.065,10.934l-9.052-3.331A.457.457,0,0,0,53,424.7l9.758,3.591q.818,2.356,1.586,4.694a.456.456,0,0,0,.434.315.482.482,0,0,0,.142-.022.458.458,0,0,0,.292-.576q-.77-2.361-1.6-4.749l3.41-8.55a.456.456,0,0,0-.255-.594" transform="translate(187.246 28.346)" fill="#98dbf9"/>
      </g>
    </g>
    <g id="Group_4734" data-name="Group 4734" transform="translate(484.563 7655.281)">
      <g id="Group_3307" data-name="Group 3307" transform="translate(0 0)">
        <path id="Path_12-2" data-name="Path 12" d="M55.841,427.8s13.843-46.929,27.986-66.252,14.5-49.191-8.485-50.874-32.692,32.4-38.974,57.434S30.8,427.8,30.8,427.8Z" transform="translate(-30.772 -310.611)" fill="#fff"/>
        <path id="Path_13-2" data-name="Path 13" d="M45.52,401.568a.457.457,0,0,1,.631.137l7.219,11.234q2.263-9.7,4.611-18.2l-7.945-14.489a.457.457,0,0,1,.8-.439l7.492,13.663c1.863-6.718,3.739-12.877,5.583-18.493l-6.868-19.021a.456.456,0,0,1,.274-.585.461.461,0,0,1,.585.273l6.474,17.93c2.911-8.758,5.728-16.158,8.269-22.259l-4.558-16.252a.457.457,0,1,1,.88-.246l4.246,15.143c6.017-14.227,10.349-20.96,10.44-21.1a.457.457,0,0,1,.765.5c-.091.139-4.444,6.911-10.479,21.226l14.571-4.065a.457.457,0,1,1,.245.88l-15.266,4.26c-2.548,6.119-5.378,13.554-8.3,22.364L80.3,366.609a.457.457,0,0,1,.4.82L64.784,375.25c-1.858,5.663-3.75,11.878-5.63,18.667l12.989-4.946a.456.456,0,1,1,.324.853l-13.612,5.183q-2.348,8.564-4.638,18.327l12.846-5.267a.457.457,0,0,1,.346.846l-13.443,5.511q-1.573,6.823-3.082,14.231a.458.458,0,0,1-.448.366.439.439,0,0,1-.09-.009.457.457,0,0,1-.357-.539q1.508-7.449,3.1-14.292l-7.7-11.982a.457.457,0,0,1,.137-.631" transform="translate(-39.467 -312.175)" fill="#98dbf9"/>
      </g>
      <g id="Group_3308" data-name="Group 3308" transform="translate(72.607 134.132) rotate(-164)">
        <path id="Path_14-2" data-name="Path 14" d="M52.516,0h-20.7S-7.881,42.635,1.409,61.531,26.159,79.979,34.29,62.8,52.516,0,52.516,0" transform="translate(0 0.178)" fill="#fff"/>
        <path id="Path_15-2" data-name="Path 15" d="M34.1,14.491a.458.458,0,0,1-.593-.255L30.482,6.659c-1.269,3.6-2.62,7.213-4.01,10.775l4.419,10.527a.457.457,0,1,1-.842.353l-4.054-9.66c-1.617,4.1-3.274,8.122-4.906,11.955l4.781,12.634a.456.456,0,0,1-.854.322L20.572,31.823c-2.229,5.2-4.388,10.007-6.305,14.169L18.913,57.65a.457.457,0,1,1-.849.339L13.739,47.136C9.9,55.424,7.162,60.843,7.1,60.974a.457.457,0,1,1-.815-.414c.067-.132,2.835-5.615,6.709-13.982L.53,48.607a.456.456,0,1,1-.147-.9l13.068-2.128c1.938-4.206,4.123-9.076,6.374-14.335L4.677,34.461a.457.457,0,1,1-.19-.894l15.777-3.349c1.655-3.886,3.334-7.964,4.971-12.127L12.582,21.024a.457.457,0,0,1-.206-.891L25.638,17.06c1.41-3.615,2.78-7.284,4.065-10.934L20.65,9.457a.457.457,0,0,1-.316-.857l9.759-3.591q.818-2.356,1.586-4.694A.456.456,0,0,1,32.112,0a.482.482,0,0,1,.142.022A.458.458,0,0,1,32.546.6q-.77,2.361-1.6,4.749l3.41,8.55a.456.456,0,0,1-.255.594" transform="translate(9.909 0)" fill="#98dbf9"/>
      </g>
    </g>
    <path id="Path_20889" data-name="Path 20889" d="M43.367,324.052a251.193,251.193,0,0,0,25.47-36.592l-.005,0,.1-.167c-2.1-1.693-10.062-9.022-4.877-19.245l.325-.642.608.386c6.581,4.182,7.248,10.312,6.706,14.6,1.831-3.338,3.655-6.823,5.429-10.448q1.286-2.631,2.565-5.421L79.6,266.5l.081-.178c-2.276-1.454-10.991-7.864-6.959-18.594l.254-.674.647.318c7.226,3.545,8.415,9.845,8.255,14.193,2.065-4.823,4.051-9.939,5.865-15.3-2.552-1.169-11.917-6.281-9.472-17.386l.154-.7.685.222c7.746,2.507,9.779,8.689,10.206,13.023,1.552-5.016,2.925-10.221,4.064-15.568-2.637-.99-12.328-5.422-10.682-16.665l.1-.712.7.173C91,210.5,93.6,216,94.481,220.227a148.726,148.726,0,0,0,1.936-15.912c-2.8-.51-13.078-3.152-13.47-14.482l-.024-.719.718.044c7.966.494,11.49,5.77,13.031,9.831a125.074,125.074,0,0,0-1.144-20.936c-2.687-.059-13.458-1-15.588-12.274l-.133-.707.718-.065c7.523-.68,11.762,3.489,14.01,7.146a112.683,112.683,0,0,0-3.294-12.924c-1.554-1.059-11.072-8.113-6.189-19.163l.289-.659.629.353c10.564,5.945,7.111,17.356,6.519,19.071a114.212,114.212,0,0,1,3.354,13.193c.869-4.213,3.452-9.631,10.836-11.526l.7-.179.112.711c1.766,11.326-8.069,15.832-10.593,16.793l.043.191-.089.005a125.887,125.887,0,0,1,1.166,19.652,14.046,14.046,0,0,1,12.162-9.006l.716-.071,0,.72c.03,11.464-10.376,14.426-13.015,14.993l.014.195-.176-.017a150.228,150.228,0,0,1-1.88,15.555,14.152,14.152,0,0,1,13.858-7.13l.718.058-.127.708c-2.022,11.29-12.8,12.339-15.487,12.423l-.021.2-.149-.043c-1,4.685-2.183,9.256-3.5,13.688a14,14,0,0,1,13.807-5.422l.712.109-.179.7c-2.62,10.324-12.146,11.3-15.645,11.3-.273,0-.493-.007-.688-.014l-.035.195-.142-.052c-1.648,4.866-3.435,9.537-5.3,13.968A14.035,14.035,0,0,1,98.314,257.1l.689.209-.273.665c-3.205,7.767-9.834,9.166-14.193,9.166a20,20,0,0,1-3.553-.312q-1.343,2.945-2.7,5.72c-1.672,3.416-3.386,6.7-5.114,9.868a14.1,14.1,0,0,1,15.295-2.248l.661.284-.345.631A14.043,14.043,0,0,1,75.8,288.755a20.237,20.237,0,0,1-5.659-.827l-.082.178L70,288.063a252.993,252.993,0,0,1-25.653,36.855.653.653,0,1,1-.979-.865M79.4,229.884c-1.671,9.519,6.115,13.932,8.655,15.1.273-2.782.4-11.732-8.655-15.1M83.9,210.11c-.986,9.614,7.1,13.46,9.712,14.447.075-2.8-.437-11.732-9.712-14.447m.4-19.585c.746,9.626,9.368,11.968,12.128,12.474-.455-2.744-2.64-11.462-12.128-12.474m-2.161-24.284c-.25,0-.5.005-.757.017,2.2,9.413,11.094,10.414,13.888,10.494-.818-2.6-4.056-10.511-13.132-10.511M73.7,248.885c-3.005,9.175,4.056,14.648,6.409,16.173.635-2.708,1.962-11.6-6.409-16.173M85.964,141.276c-3.521,9,3.238,14.866,5.494,16.516.82-2.673,2.718-11.419-5.494-16.516m20.33,20.688c-9.249,2.8-9.675,11.743-9.574,14.537,2.606-1.01,10.651-4.933,9.574-14.537m3.28,28.092c-9.555,1.367-11.337,10.121-11.664,12.909,2.707-.631,11.268-3.376,11.664-12.909m-.719,24.113c-9.627-.361-12.964,7.932-13.785,10.615,2.779-.137,11.691-1.307,13.785-10.615m-4.85,21.546c-9.609-1.052-13.507,7-14.511,9.613,2.8.088,11.733-.359,14.511-9.613m-6.781,22.44c-9.023-2.325-13.992,4.481-15.56,7.158-.042.1-.086.193-.129.289,2.783.46,11.682,1.169,15.69-7.447M64.9,269.3c-3.992,8.791,2.426,15,4.6,16.78.927-2.623,3.222-11.313-4.6-16.78m22.364,11.793c-9.036-3.418-14.831,3.4-16.452,5.68,2.681.791,11.448,2.588,16.452-5.68" transform="translate(447.109 7411.488)" fill="#fff"/>
    <path id="Path_20890" data-name="Path 20890" d="M418.629,456.253c0,9.778-83.73,17.706-187.016,17.706S44.6,466.031,44.6,456.253s83.731-17.713,187.017-17.713,187.016,7.932,187.016,17.713" transform="translate(159.454 7323.941)" fill="#c7dbe4"/>
    <g id="Group_4742" data-name="Group 4742" transform="translate(12530.333 20386.4)">
      <path id="Path_20896" data-name="Path 20896" d="M422.975,178.5a73.608,73.608,0,1,1-73.609-73.607A73.608,73.608,0,0,1,422.975,178.5" transform="translate(-12562.999 -12979.999)" fill="#4fbc8e"/>
      <line id="Line_121" data-name="Line 121" y2="172.849" transform="translate(-12213.636 -12846.164)" fill="none" stroke="#501919" stroke-miterlimit="10" stroke-width="1.066"/>
      <line id="Line_122" data-name="Line 122" x2="31.891" y2="28.895" transform="translate(-12245.527 -12788.633)" fill="none" stroke="#501919" stroke-miterlimit="10" stroke-width="1.066"/>
      <line id="Line_123" data-name="Line 123" x1="36.075" y2="49.846" transform="translate(-12213.636 -12836.586)" fill="none" stroke="#501919" stroke-miterlimit="10" stroke-width="1.066"/>
    </g>
    <path id="Path_20895" data-name="Path 20895" d="M16.745,181.652s5.744-16.1,22.976-17.059,25.024,5.366,43.395,3c20.785-2.672,24.31-18.937,57.623-20.917s24.217,11.788,72.328,14.816c30.637,1.926,42.094-7.95,67.889-9.314,44.924-2.376,45.949,29.47,45.949,29.47Z" transform="translate(216 7595)" fill="#d2b8aa"/>
    <g id="Group_4741" data-name="Group 4741" transform="translate(293 390)">
      <path id="Path_20898" data-name="Path 20898" d="M166.541,95.131a1.29,1.29,0,0,1-.931-.395L155.776,84.56a1.295,1.295,0,0,1,1.862-1.8l9.834,10.176a1.3,1.3,0,0,1-.931,2.195" transform="translate(-38 7205)" fill="#501919"/>
      <path id="Path_20899" data-name="Path 20899" d="M148.8,91.806a1.294,1.294,0,0,1-.916-2.21l14.728-14.761a1.294,1.294,0,0,1,1.83,1.83L149.717,91.427a1.289,1.289,0,0,1-.915.379" transform="translate(-38 7205)" fill="#501919"/>
      <path id="Path_20900" data-name="Path 20900" d="M167.786,83.131h42.835v8.675l-39.532,2.005Z" transform="translate(-38 7205)" fill="#cd513c"/>
      <path id="Path_20901" data-name="Path 20901" d="M215.851,87.575H204.724v-20.6a3.236,3.236,0,0,1,3.237-3.236h4.652a3.237,3.237,0,0,1,3.238,3.236Z" transform="translate(-38 7205)" fill="#501919"/>
      <path id="Path_20902" data-name="Path 20902" d="M212.229,69.073h-3.883V46.651c-.132-8.5,5.638-10.891,8.708-10.966l.113,3.882c-.842.039-5.039.56-4.938,7.054Z" transform="translate(-38 7205)" fill="#501919"/>
      <path id="Path_20903" data-name="Path 20903" d="M237.011,139.934H157.847V98.5a13.069,13.069,0,0,1,13.281-12.845H238.1a9.467,9.467,0,0,1,9.621,9.305Z" transform="translate(-38 7205)" fill="#e1725c"/>
      <path id="Path_20904" data-name="Path 20904" d="M174.134,89.269c-.423.068-6.348-6.139-6.348-6.139L156.36,93.71v9.449a6.21,6.21,0,0,0,6.209,6.21h7.9Z" transform="translate(-38 7205)" fill="#e1725c"/>
      <line id="Line_128" data-name="Line 128" x1="2.685" y2="8.439" transform="translate(191.422 7301.529)" fill="none" stroke="#501919" stroke-linecap="round" stroke-linejoin="round" stroke-width="1.294"/>
      <line id="Line_129" data-name="Line 129" x1="2.685" y2="8.439" transform="translate(187.999 7301.529)" fill="none" stroke="#501919" stroke-linecap="round" stroke-linejoin="round" stroke-width="1.294"/>
      <line id="Line_130" data-name="Line 130" x1="2.685" y2="8.439" transform="translate(184.577 7301.529)" fill="none" stroke="#501919" stroke-linecap="round" stroke-linejoin="round" stroke-width="1.294"/>
      <line id="Line_131" data-name="Line 131" x1="2.685" y2="8.439" transform="translate(181.153 7301.529)" fill="none" stroke="#501919" stroke-linecap="round" stroke-linejoin="round" stroke-width="1.294"/>
      <line id="Line_132" data-name="Line 132" x1="2.685" y2="8.439" transform="translate(177.731 7301.529)" fill="none" stroke="#501919" stroke-linecap="round" stroke-linejoin="round" stroke-width="1.294"/>
      <path id="Path_20905" data-name="Path 20905" d="M226.054,36.2a2.135,2.135,0,1,1-2.134-2.134,2.134,2.134,0,0,1,2.134,2.134" transform="translate(-38 7205)" fill="#fff"/>
      <path id="Path_20906" data-name="Path 20906" d="M238.376,28.975a3.854,3.854,0,1,1-3.853-3.854,3.855,3.855,0,0,1,3.853,3.854" transform="translate(-38 7205)" fill="#fff"/>
      <path id="Path_20907" data-name="Path 20907" d="M246.585,7.788A7.787,7.787,0,1,1,238.8,0a7.787,7.787,0,0,1,7.787,7.788" transform="translate(-38 7205)" fill="#fff"/>
      <path id="Path_20908" data-name="Path 20908" d="M121.922,102.417h-5.9V75.473a2.948,2.948,0,1,1,5.9,0Z" transform="translate(-38 7205)"/>
      <path id="Path_20909" data-name="Path 20909" d="M149.2,104.89h0a2.948,2.948,0,0,1-2.949,2.948h-24a2.948,2.948,0,1,1,0-5.9h24a2.948,2.948,0,0,1,2.949,2.948" transform="translate(-38 7205)"/>
      <path id="Path_20910" data-name="Path 20910" d="M138.208,50.256a16.19,16.19,0,0,0-9.738,7.711c-3.239,6.177-5.553,31.589-5.553,31.589a31.531,31.531,0,0,0,20.779-.767s3.707-27.678-.611-33.451Z" transform="translate(-38 7205)" fill="#ffc05e"/>
      <path id="Path_20911" data-name="Path 20911" d="M160.6,71.484l-8.563,3.491,1.877,3.826,7.449-2.107a5.144,5.144,0,0,0,.637.945,33.054,33.054,0,0,0-.082-5.581Z" transform="translate(-38 7205)" fill="#ffbe9e"/>
      <path id="Path_20912" data-name="Path 20912" d="M138.143,74.991c-1.781.415-2.062,3.17-2.047,5,.018,2.516,2.862,4.94,5.309,4.352l18.555-5.156-3.168-8.541Z" transform="translate(-38 7205)" fill="#ffc05e"/>
      <path id="Path_20913" data-name="Path 20913" d="M161.667,77.9a3.967,3.967,0,1,1,5.045-2.455,3.968,3.968,0,0,1-5.045,2.455" transform="translate(-38 7205)" fill="#ffbe9e"/>
      <path id="Path_20914" data-name="Path 20914" d="M141.261,60.188,145.5,79.66c.37,2.056-1.6,3.972-3.6,4.587a4.13,4.13,0,0,1-4.953-2.191A92.789,92.789,0,0,1,130.3,62.293a5.579,5.579,0,1,1,10.957-2.1" transform="translate(-38 7205)" fill="#ffc05e"/>
      <path id="Path_20915" data-name="Path 20915" d="M140.79,57.521l3.258,15.514,1,.345" transform="translate(-38 7205)" fill="none" stroke="#ffac33" stroke-miterlimit="10" stroke-width="0.761"/>
      <path id="Path_20916" data-name="Path 20916" d="M131.29,66.15a112.713,112.713,0,0,0,5.594,15.921,3.922,3.922,0,0,0,4.5,2.173l2.906-.706" transform="translate(-38 7205)" fill="none" stroke="#ffac33" stroke-miterlimit="10" stroke-width="0.761"/>
      <path id="Path_20917" data-name="Path 20917" d="M141.216,30.755a17.622,17.622,0,0,1,14.232,0,1.612,1.612,0,0,1,.594,2.571l-3.207,3.4Z" transform="translate(-38 7205)" fill="#501919"/>
      <path id="Path_20918" data-name="Path 20918" d="M147.6,48.554l-3.912,7.84-5.768-5.355,4.342-9.839Z" transform="translate(-38 7205)" fill="#ffbe9e"/>
      <path id="Path_20919" data-name="Path 20919" d="M145.425,52.913c-2.883-2.516-1.506-6.484-1.506-6.484l3.307,3Z" transform="translate(-38 7205)" fill="#ffa684"/>
      <path id="Path_20920" data-name="Path 20920" d="M151,32.33s3.7.913,3.537,5.638c0,0-.152,3.423-.412,8.347a4.079,4.079,0,0,1-5.148,3.773c-1.528-.463-2.807-1.753-4.251-3.056l-2.417-1.683c-4.619-6.045.711-14.737,8.15-13.145.178.038.357.08.541.126" transform="translate(-38 7205)" fill="#ffbe9e"/>
      <path id="Path_20921" data-name="Path 20921" d="M153.756,42.833l1.583,1.752a.38.38,0,0,1-.272.635l-1.714.05Z" transform="translate(-38 7205)" fill="#ffbe9e"/>
      <path id="Path_20922" data-name="Path 20922" d="M145.366,40.39s-.315-8.507,8.65-6.008c0,0-4.787-6.576-12.8-3.627a7.776,7.776,0,0,0-4.428,4.659c-.789,3.123.94,5.69,3.369,10.879a4.51,4.51,0,0,0,4.311-3.35c.258-.778.9-2.553.9-2.553" transform="translate(-38 7205)" fill="#501919"/>
      <path id="Path_20923" data-name="Path 20923" d="M143.141,36.149l2.225,4.241,3.471-2.775s-1.946-3.455.109-4.37-3.316-1.473-3.316-1.473l-4.268.827Z" transform="translate(-38 7205)" fill="#501919"/>
      <path id="Path_20924" data-name="Path 20924" d="M141.167,40.759a2.509,2.509,0,1,0,2.873-2.082,2.509,2.509,0,0,0-2.873,2.082" transform="translate(-38 7205)" fill="#ffbe9e"/>
      <path id="Path_20925" data-name="Path 20925" d="M144.648,42.016h-.014a.19.19,0,0,1-.159-.219,1.665,1.665,0,0,0-.282-1.193,1.242,1.242,0,0,0-1-.375.2.2,0,0,1-.192-.189.189.189,0,0,1,.19-.191,1.61,1.61,0,0,1,1.3.508,2.039,2.039,0,0,1,.369,1.5.191.191,0,0,1-.2.161" transform="translate(-38 7205)"/>
      <path id="Path_20926" data-name="Path 20926" d="M154.183,45.246c-9.125-.182-6.607-7.652-6.607-7.652l-.992.56-.329.882c.043.3-.681-.579-.65-.3l.231,1.2.589,3.191c.248,1.772-2.506,3.3-2.506,3.3l.148.721a5.154,5.154,0,0,0,10.2-1.227Z" transform="translate(-38 7205)" fill="#501919"/>
      <path id="Path_20927" data-name="Path 20927" d="M152.862,39.121s1.26-.106,1.313.461c0,0,.024.386-1.076.456s-1.4-.023-1.521-.385.691-.532,1.284-.532" transform="translate(-38 7205)"/>
      <path id="Path_20928" data-name="Path 20928" d="M152.452,42.238a.53.53,0,1,0,.653-.389.539.539,0,0,0-.653.389" transform="translate(-38 7205)"/>
      <path id="Path_20929" data-name="Path 20929" d="M148.075,123.592v8.957H167.55s1.4-6.492-8.464-6.492v-2.465Z" transform="translate(-38 7205)"/>
      <rect id="Rectangle_2071" data-name="Rectangle 2071" width="19.543" height="1.939" transform="translate(110.075 7337.549)"/>
      <path id="Path_20930" data-name="Path 20930" d="M134.191,102.343h-3.458c-5.13,0-8.542-4.162-8.412-9.292a21.331,21.331,0,0,1,.75-5.043H150.96a9.63,9.63,0,0,1,8.4,14.335H134.191Z" transform="translate(-38 7205)" fill="#7292ff"/>
      <path id="Path_20931" data-name="Path 20931" d="M147.284,99.757v23.835H160.7V96.808a8.8,8.8,0,0,0-8.8-8.8H141.413Z" transform="translate(-38 7205)" fill="#7292ff"/>
      <rect id="Rectangle_2072" data-name="Rectangle 2072" width="15.241" height="5.391" transform="translate(108.272 7324.174)" fill="#9cb8ff"/>
      <rect id="Rectangle_2073" data-name="Rectangle 2073" width="85.846" height="11.999" transform="translate(98.366 7339.488)" fill="#cd513c"/>
      <rect id="Rectangle_2074" data-name="Rectangle 2074" width="85.846" height="3.126" transform="translate(98.366 7351.486)" fill="#e1725c"/>
      <path id="Path_20932" data-name="Path 20932" d="M271.419,157.56v-9.974a1.189,1.189,0,0,0-1.188-1.189h0a1.186,1.186,0,0,1-1.141-.891,27.058,27.058,0,0,0-2.721-6.556,1.184,1.184,0,0,1,.178-1.437l0-.005a1.187,1.187,0,0,0,0-1.681l-7.053-7.053a1.188,1.188,0,0,0-1.68,0l0,0a1.185,1.185,0,0,1-1.438.177,27.07,27.07,0,0,0-6.557-2.723,1.183,1.183,0,0,1-.892-1.14,1.188,1.188,0,0,0-1.189-1.188h-9.973a1.189,1.189,0,0,0-1.189,1.188,1.185,1.185,0,0,1-.891,1.14,27.053,27.053,0,0,0-6.557,2.723,1.183,1.183,0,0,1-1.437-.177l0,0a1.19,1.19,0,0,0-1.682,0l-7.051,7.053a1.187,1.187,0,0,0,0,1.681l0,.005a1.183,1.183,0,0,1,.176,1.437,27.052,27.052,0,0,0-2.719,6.556,1.184,1.184,0,0,1-1.14.891h0a1.189,1.189,0,0,0-1.189,1.189v9.974a1.188,1.188,0,0,0,1.189,1.188h0a1.185,1.185,0,0,1,1.14.892,27.079,27.079,0,0,0,2.722,6.553,1.184,1.184,0,0,1-.177,1.437l-.008.008a1.187,1.187,0,0,0,0,1.681L226,176.373a1.194,1.194,0,0,0,1.682,0l.008-.011a1.184,1.184,0,0,1,1.437-.177,27.132,27.132,0,0,0,6.553,2.721,1.181,1.181,0,0,1,.891,1.138v.01a1.189,1.189,0,0,0,1.189,1.188h9.973a1.188,1.188,0,0,0,1.189-1.188v-.01a1.179,1.179,0,0,1,.892-1.138,27.1,27.1,0,0,0,6.551-2.721,1.184,1.184,0,0,1,1.438.177l.009.011a1.191,1.191,0,0,0,1.68,0l7.053-7.054a1.187,1.187,0,0,0,0-1.681l-.008-.008a1.184,1.184,0,0,1-.177-1.437,27.077,27.077,0,0,0,2.722-6.553,1.186,1.186,0,0,1,1.141-.892h0a1.188,1.188,0,0,0,1.188-1.188" transform="translate(-38 7205)" fill="#501919"/>
      <path id="Path_20933" data-name="Path 20933" d="M258.641,152.569a15.891,15.891,0,1,1-15.892-15.891,15.892,15.892,0,0,1,15.892,15.891" transform="translate(-38 7205)" fill="#fffff1"/>
      <path id="Path_20934" data-name="Path 20934" d="M253.233,152.569a10.483,10.483,0,1,1-10.484-10.483,10.483,10.483,0,0,1,10.484,10.483" transform="translate(-38 7205)" fill="#ffa695"/>
      <path id="Path_20935" data-name="Path 20935" d="M70.87,101.949,79.3,114.382l67.094,27.7,6.682-5.407s-.639-29.778-31.483-44.486c0,0-27.2-10.372-50.719,9.757" transform="translate(-38 7205)" fill="#cd513c"/>
      <path id="Path_20936" data-name="Path 20936" d="M153.07,141.437a1.941,1.941,0,0,1-1.938-1.888c-.834-29.654-20.77-40.914-21.617-41.38-31.4-18.84-59.412,6.916-59.692,7.181a1.943,1.943,0,0,1-2.66-2.832c.3-.282,30.463-28.009,64.28-7.717.855.463,22.67,12.666,23.57,44.64a1.942,1.942,0,0,1-1.887,2h-.056" transform="translate(-38 7205)" fill="#e1725c"/>
      <path id="Path_20937" data-name="Path 20937" d="M145.378,146.762V132.24a1.731,1.731,0,0,0-1.73-1.73h0a1.726,1.726,0,0,1-1.661-1.3,39.45,39.45,0,0,0-3.96-9.546,1.722,1.722,0,0,1,.255-2.091l.009-.008a1.732,1.732,0,0,0,0-2.447l-10.268-10.268a1.731,1.731,0,0,0-2.448,0l0,.006a1.724,1.724,0,0,1-2.093.257,39.372,39.372,0,0,0-9.547-3.964,1.725,1.725,0,0,1-1.3-1.66,1.729,1.729,0,0,0-1.73-1.73H96.377a1.728,1.728,0,0,0-1.729,1.73,1.727,1.727,0,0,1-1.3,1.66,39.372,39.372,0,0,0-9.547,3.964,1.724,1.724,0,0,1-2.092-.257l-.006-.006a1.73,1.73,0,0,0-2.447,0L68.987,115.12a1.733,1.733,0,0,0,0,2.447l.009.008a1.724,1.724,0,0,1,.257,2.091,39.376,39.376,0,0,0-3.962,9.546,1.725,1.725,0,0,1-1.66,1.3h0a1.73,1.73,0,0,0-1.73,1.73v14.522a1.729,1.729,0,0,0,1.73,1.73h.008a1.726,1.726,0,0,1,1.66,1.3,39.38,39.38,0,0,0,3.962,9.541A1.724,1.724,0,0,1,69,161.423l-.013.012a1.733,1.733,0,0,0,0,2.447l10.269,10.27a1.733,1.733,0,0,0,2.447,0l.014-.015a1.725,1.725,0,0,1,2.093-.257,39.431,39.431,0,0,0,9.538,3.959,1.726,1.726,0,0,1,1.3,1.66v.013a1.729,1.729,0,0,0,1.729,1.73H110.9a1.729,1.729,0,0,0,1.73-1.73V179.5a1.724,1.724,0,0,1,1.3-1.66,39.462,39.462,0,0,0,9.54-3.959,1.724,1.724,0,0,1,2.092.257l.013.015a1.735,1.735,0,0,0,2.448,0l10.268-10.27a1.732,1.732,0,0,0,0-2.447l-.012-.012a1.719,1.719,0,0,1-.256-2.092,39.44,39.44,0,0,0,3.961-9.541,1.726,1.726,0,0,1,1.66-1.3h.008a1.73,1.73,0,0,0,1.73-1.73" transform="translate(-38 7205)" fill="#501919"/>
      <path id="Path_20938" data-name="Path 20938" d="M126.774,139.495a23.137,23.137,0,1,1-23.136-23.136,23.136,23.136,0,0,1,23.136,23.136" transform="translate(-38 7205)" fill="#fffff1"/>
      <path id="Path_20939" data-name="Path 20939" d="M118.9,139.495a15.263,15.263,0,1,1-15.263-15.263A15.263,15.263,0,0,1,118.9,139.495" transform="translate(-38 7205)" fill="#ffa695"/>
    </g>
    <g id="Group_4740" data-name="Group 4740" transform="translate(182 397.658)">
      <path id="Path_20941" data-name="Path 20941" d="M208.557,59.792v49.622H200.6s-.481-23.2-12.011-34.455Z" transform="translate(-64.797 7278.408)" fill="#162806"/>
      <path id="Path_20942" data-name="Path 20942" d="M209.609,132.892h-5.74s-.981-4.924,5.74-4.924Z" transform="translate(-70.04 7254.929)" fill="#162806"/>
      <path id="Path_20943" data-name="Path 20943" d="M218.483,90.047c0,6.111-5.925,11.064-13.235,11.064s-13.235-4.953-13.235-11.064,5.926-11.063,13.235-11.063,13.235,4.953,13.235,11.063" transform="translate(-65.975 7271.798)" fill="#ffa695"/>
      <path id="Path_20944" data-name="Path 20944" d="M110.2,59.792v49.622h-7.953s-.481-23.2-12.013-34.455Z" transform="translate(-30.922 7278.408)" fill="#162806"/>
      <path id="Path_20945" data-name="Path 20945" d="M111.248,132.892h-5.741s-.979-4.924,5.741-4.924Z" transform="translate(-36.166 7254.929)" fill="#162806"/>
      <path id="Path_20946" data-name="Path 20946" d="M89.853,19.676H168.87c11.4,0,21.147,7.857,22.594,18.431a29.372,29.372,0,0,1-2.689,18.164,39.837,39.837,0,0,1-36.131,22.478H107.705c-12.916,0-19.951-11.728-19.045-23.776Z" transform="translate(-30.354 7292.224)" fill="#fff"/>
      <path id="Path_20947" data-name="Path 20947" d="M235.476,59.792v49.622h-7.953s-.481-23.2-12.011-34.455Z" transform="translate(-74.067 7278.408)" fill="#fff"/>
      <path id="Path_20948" data-name="Path 20948" d="M235.976,132.892h-5.741s-.98-4.924,5.741-4.924Z" transform="translate(-79.121 7254.929)" fill="#fff"/>
      <path id="Path_20949" data-name="Path 20949" d="M134.76,59.792v49.622h-7.953s-.48-23.2-12.011-34.455Z" transform="translate(-39.382 7278.408)" fill="#fff"/>
      <path id="Path_20950" data-name="Path 20950" d="M135.26,132.892h-5.74s-.979-4.924,5.74-4.924Z" transform="translate(-44.435 7254.929)" fill="#fff"/>
      <path id="Path_20951" data-name="Path 20951" d="M234.6,37.4s12.95-4.267,13.654,5.608,3.433,25.032,15.4,23.926" transform="translate(-80.642 7286.438)" fill="none" stroke="#fff" stroke-miterlimit="10" stroke-width="3.417"/>
      <path id="Path_20952" data-name="Path 20952" d="M276.449,80V82.97a1.091,1.091,0,0,0,1.607.9l3.349-1.683a.993.993,0,0,0-.1-1.842l-3.35-1.283a1.086,1.086,0,0,0-1.5.944" transform="translate(-95.054 7271.799)" fill="#162806"/>
      <path id="Path_20953" data-name="Path 20953" d="M161.758,32.506h-6.034a10.478,10.478,0,0,1-10.477-10.477V19.676h26.987v2.353a10.476,10.476,0,0,1-10.476,10.477" transform="translate(-49.869 7292.224)" fill="#162806"/>
      <path id="Path_20954" data-name="Path 20954" d="M128.051,61.347a6.9,6.9,0,1,1-6.88-6.433,6.668,6.668,0,0,1,6.88,6.433" transform="translate(-39.208 7280.088)" fill="#162806"/>
      <path id="Path_20955" data-name="Path 20955" d="M223.141,53.727a5.257,5.257,0,1,1-5.245-4.905,5.084,5.084,0,0,1,5.245,4.905" transform="translate(-73.082 7282.186)" fill="#162806"/>
      <path id="Path_20956" data-name="Path 20956" d="M58.551,19.14s-15.187-3.088-20.359,4.5c0,0,6.714,9.906,20.359.714Z" transform="translate(-13 7292.623)" fill="#98b4bc"/>
      <path id="Path_20957" data-name="Path 20957" d="M98.8,19.14s15.187-3.088,20.359,4.5c0,0-6.714,9.906-20.359.714Z" transform="translate(-33.874 7292.623)" fill="#98b4bc"/>
      <path id="Path_20958" data-name="Path 20958" d="M67.733,5.765H61.455A5.674,5.674,0,0,1,57.219,0S49.029,11.841,64.35,12.763Z" transform="translate(-18.8 7299)" fill="#d2b8aa"/>
      <path id="Path_20959" data-name="Path 20959" d="M94.063,5.765h6.278A5.674,5.674,0,0,0,104.578,0s8.191,11.841-7.132,12.763Z" transform="translate(-32.242 7299)" fill="#d2b8aa"/>
      <path id="Path_20960" data-name="Path 20960" d="M88.79,16.022c-.218-7.228-4.261-7.228-4.261-7.228H71.421s-4.042,0-4.26,7.228-1.42,6.734-1.42,12.378c0,4.153,2.425,19.385,6.8,26.183a6.589,6.589,0,0,0,10.878,0c4.372-6.8,6.8-22.03,6.8-26.183,0-5.644-1.2-5.148-1.42-12.378" transform="translate(-22.488 7295.972)" fill="#fff"/>
      <path id="Path_20961" data-name="Path 20961" d="M65.887,33.378s8.7,4.593,9.353,20.706l-5.209,3.9s-3.585-7.246-4.5-21.044c0,0-.082-3.334.352-3.561" transform="translate(-22.415 7287.505)" fill="#162806"/>
      <path id="Path_20962" data-name="Path 20962" d="M97.605,33.378s-8.7,4.593-9.354,20.706l5.233,4.074s3.646-7.393,4.556-21.191c0,0,0-3.363-.435-3.589" transform="translate(-30.24 7287.505)" fill="#162806"/>
      <path id="Path_20963" data-name="Path 20963" d="M72.1,72.847H88.438s2.67-8.149-8.071-8.173C69.8,64.65,72.1,72.847,72.1,72.847" transform="translate(-24.603 7276.727)" fill="#ffa695"/>
      <path id="Path_20964" data-name="Path 20964" d="M77.591,72.417a1.073,1.073,0,1,1-1.064-.932,1,1,0,0,1,1.064.932" transform="translate(-25.836 7274.381)" fill="#162806"/>
      <path id="Path_20965" data-name="Path 20965" d="M92.586,72.417a1.073,1.073,0,1,1-1.064-.932,1,1,0,0,1,1.064.932" transform="translate(-31 7274.381)" fill="#162806"/>
    </g>
  </g>
</svg>
