<svg xmlns="http://www.w3.org/2000/svg" xmlns:xlink="http://www.w3.org/1999/xlink" width="130.001" height="130" viewBox="0 0 130.001 130">
  <defs>
    <linearGradient id="linear-gradient" x1="1.116" y1="-0.122" x2="-0.054" y2="1.178" gradientUnits="objectBoundingBox">
      <stop offset="0" stop-color="#fff"/>
      <stop offset="0.502" stop-color="#98dbf9"/>
      <stop offset="1" stop-color="#fff"/>
    </linearGradient>
  </defs>
  <path id="Union_4" data-name="Union 4" d="M12131.525,20189.992a2.54,2.54,0,1,1,.893-5,59.924,59.924,0,0,0,58.061-95.543,9.663,9.663,0,1,1,3.785-3.406A65,65,0,0,1,12143,20191,65.786,65.786,0,0,1,12131.525,20189.992Zm51.393-112.408a4.575,4.575,0,1,0,3.233-1.338A4.586,4.586,0,0,0,12182.918,20077.584Zm-64.061,108.785-.076-.031a2.538,2.538,0,1,1,1.9-4.707l-.952,2.352.963-2.352a2.537,2.537,0,0,1-.923,4.9A2.615,2.615,0,0,1,12118.857,20186.369Zm-25.833-8.367a9.646,9.646,0,0,1-1.287-12.039,65.033,65.033,0,0,1,64.811-103.551,2.542,2.542,0,0,1-1.054,4.973,59.924,59.924,0,0,0-59.972,95.168,9.651,9.651,0,1,1-2.5,15.449Zm3.593-10.053a4.575,4.575,0,1,0,3.233-1.338A4.556,4.556,0,0,0,12096.617,20167.949Zm43.827,4.027v-16.609a23.178,23.178,0,0,1-4.09.369,21.071,21.071,0,0,1-15.237-6.414,21.568,21.568,0,0,1-5.447-21.729,2.536,2.536,0,0,1,1.566-1.672,17.8,17.8,0,0,1,3.35-.787,21.57,21.57,0,0,1-4.916-21.176,2.54,2.54,0,0,1,1.566-1.672,21.89,21.89,0,0,1,13.682.152,22.828,22.828,0,0,1-.634-5.432,21.481,21.481,0,0,1,11.66-19.287,2.536,2.536,0,0,1,2.29.076,21.56,21.56,0,0,1,11.508,19.211,22.744,22.744,0,0,1-.634,5.422,21.9,21.9,0,0,1,13.657-.143,2.538,2.538,0,0,1,1.565,1.672,21.571,21.571,0,0,1-4.915,21.176,17.969,17.969,0,0,1,3.35.787,2.534,2.534,0,0,1,1.565,1.672,21.578,21.578,0,0,1-5.447,21.729,21.074,21.074,0,0,1-15.242,6.414,22.422,22.422,0,0,1-4.12-.379v16.619a2.539,2.539,0,1,1-5.077,0Zm16.844-41.271c-.365.141-.73.268-1.095.385a16.824,16.824,0,0,0-5.727,3.816,9.116,9.116,0,1,0,15.35-4.547,17.142,17.142,0,0,0-3.635-.389A16.439,16.439,0,0,0,12157.288,20130.705Zm-37.108-.34a16.753,16.753,0,0,0,19.89,19.9,17.148,17.148,0,0,0,.375-2.818v-1.7a16.192,16.192,0,0,0-4.915-10.848,16.624,16.624,0,0,0-5.9-3.873c-.238-.08-.481-.166-.725-.252a16.426,16.426,0,0,0-5.1-.8A17.228,17.228,0,0,0,12120.18,20130.365Zm30.4-19.2q-.562.645-1.125,1.2a16.064,16.064,0,0,0-3.922,10.633v.061a4.764,4.764,0,0,0,8.934,3.242c.369-.146.744-.279,1.109-.395a16.744,16.744,0,0,0,5.711-3.811,16.35,16.35,0,0,0,4.525-15.365,17.05,17.05,0,0,0-3.639-.391A16.185,16.185,0,0,0,12150.584,20111.166Zm-30.4-4.43a16.377,16.377,0,0,0,4.525,15.359,16.763,16.763,0,0,0,5.721,3.811c.365.121.73.248,1.095.391a4.651,4.651,0,0,0,8.924-2.479v-1.693a16.077,16.077,0,0,0-4.141-10.021c-.223-.229-.445-.467-.668-.721-.036-.035-.071-.07-.106-.111a16.21,16.21,0,0,0-11.721-4.918A17.278,17.278,0,0,0,12120.18,20106.736Zm15.182-9.729a16.2,16.2,0,0,0,4.186,11.111c.122.133.243.264.365.391a17.3,17.3,0,0,0,3.106,2.568,16.9,16.9,0,0,0,2.69-2.137q.539-.624,1.16-1.248a16.812,16.812,0,0,0-3.871-24.748A16.383,16.383,0,0,0,12135.361,20097.008Zm30.069-26.594-.03-.01a2.538,2.538,0,1,1,1.885-4.713l.046.016a2.54,2.54,0,0,1-.952,4.895A2.5,2.5,0,0,1,12165.431,20070.414Z" transform="translate(-12078 -20061)" opacity="0.3" fill="url(#linear-gradient)"/>
</svg>
