<svg xmlns="http://www.w3.org/2000/svg" xmlns:xlink="http://www.w3.org/1999/xlink" width="63" height="63" viewBox="0 0 63 63">
  <defs>
    <linearGradient id="linear-gradient" x1="0.5" x2="0.5" y2="1" gradientUnits="objectBoundingBox">
      <stop offset="0.13" stop-color="#00a9ed"/>
      <stop offset="1" stop-color="#65106b"/>
    </linearGradient>
  </defs>
  <g id="corpse" transform="translate(0 0.002)">
    <g id="Group_2316" data-name="Group 2316" transform="translate(0 -0.002)">
      <path id="Path_17384" data-name="Path 17384" d="M60.231,57.461H51.716q.525-.309,1.027-.668a13.38,13.38,0,0,0,5.394-8.5c0-.009,0-.019,0-.028l2.466-16.236a.923.923,0,1,0-1.825-.277L56.319,47.971a11.589,11.589,0,0,1-22.985-2.1q0-.524.049-1.069l1.068-13.32h6.42a3.381,3.381,0,0,0,3.376-3.378V15.261a6.584,6.584,0,0,0-7.623-6.5l.665-4.511A2.806,2.806,0,0,1,40.4,1.868,2.32,2.32,0,0,1,42.439,3.42,4.164,4.164,0,0,1,42.68,5l-.545,3.693a.923.923,0,0,0,1.826.269l.549-3.717c0-.011,0-.022,0-.033.531-2.9,3.51-1.836,3.229.062l-.182,1.241,0,.014L46.927,10.8a.923.923,0,0,0,1.826.269l.611-4.14a1.6,1.6,0,0,1,3.006.976l-.412,2.787c0,.01,0,.021,0,.031l-.478,3.235a.923.923,0,0,0,1.826.269l.459-3.106a1.6,1.6,0,0,1,2.959,1.061l-.53,3.593,0,.029L55.76,18.7a.923.923,0,0,0,1.826.269L58,16.139a1.6,1.6,0,0,1,3.072.833l-1.41,9.551c-.065.435-.141.871-.225,1.3a.923.923,0,1,0,1.81.36c.09-.453.171-.919.241-1.385l1.41-9.552a3.448,3.448,0,0,0-4.5-3.782l.148-1a3.45,3.45,0,0,0-4.418-3.814l.069-.464a3.444,3.444,0,0,0-4.639-3.733,3.45,3.45,0,0,0-2.89-2.825A3.111,3.111,0,0,0,44,2.388,4.106,4.106,0,0,0,40.649.038a4.659,4.659,0,0,0-5.187,3.945l-.8,5.424a6.588,6.588,0,0,0-3.577,5.854V28.107a3.378,3.378,0,0,0,1.556,2.843C31.43,46.07,31.517,44.9,31.5,45.3c-.016-.371.146,1.72-2.35-29.425-.044-.936-.135-1.88-.272-2.807L27.537,3.982A4.658,4.658,0,0,0,22.351.039,4.124,4.124,0,0,0,19,2.389a3.083,3.083,0,0,0-2.666-.77,3.455,3.455,0,0,0-2.892,2.826A3.445,3.445,0,0,0,8.8,8.177l.069.465a3.451,3.451,0,0,0-4.419,3.812l.148,1A3.448,3.448,0,0,0,.1,17.242l1.41,9.552c.114.771.261,1.546.439,2.3L4.858,48.263c0,.009,0,.019,0,.028a13.332,13.332,0,0,0,2.272,5.376.923.923,0,1,0,1.5-1.072,11.5,11.5,0,0,1-1.957-4.623L3.767,28.784q-.006-.037-.014-.073c-.169-.72-.31-1.456-.418-2.187l-1.41-9.552A1.6,1.6,0,0,1,5,16.141l.417,2.824A.923.923,0,0,0,7.24,18.7l-.431-2.918v0l-.53-3.588a1.6,1.6,0,0,1,2.96-1.061L9.7,14.231a.923.923,0,0,0,1.826-.269L11.04,10.7l-.412-2.788a1.6,1.6,0,0,1,3.006-.975l.611,4.14a.923.923,0,0,0,1.826-.269L15.441,6.53h0l-.185-1.255A1.609,1.609,0,0,1,16.6,3.445a1.33,1.33,0,0,1,1.459.682,3.356,3.356,0,0,1,.425,1.115l.549,3.721a.923.923,0,0,0,1.826-.269L20.32,5c-.027-.378-.105-2.816,2.275-3.134a2.8,2.8,0,0,1,3.117,2.384l1.341,9.083a26.464,26.464,0,0,1,.255,2.638c0,.01,0,.021,0,.031l2.309,28.811A11.588,11.588,0,0,1,11.194,55.192a.923.923,0,1,0-1.1,1.485,13.707,13.707,0,0,0,1.186.784H2.769a2.768,2.768,0,1,0,0,5.537H60.231a2.769,2.769,0,0,0,0-5.537ZM42.4,24.382H38.108a1.128,1.128,0,0,1,0-2.256H42.4Zm-9.47-9.12a4.735,4.735,0,0,1,9.47,0V20.28H38.108a2.974,2.974,0,0,0,0,5.947H42.4v1.88a1.533,1.533,0,0,1-1.531,1.532H34.462a1.534,1.534,0,0,1-1.532-1.532V15.262ZM31.5,46.456a13.447,13.447,0,0,0,6.63,11H24.872A13.464,13.464,0,0,0,31.5,46.456Zm28.731,14.7H2.769a.923.923,0,0,1,0-1.846H60.231a.923.923,0,0,1,0,1.846Z" transform="translate(0 0.002)" fill="url(#linear-gradient)"/>
      <path id="Path_17385" data-name="Path 17385" d="M281.568,104.28a3.322,3.322,0,1,0-3.322-3.322A3.326,3.326,0,0,0,281.568,104.28Zm0-4.8a1.477,1.477,0,1,1-1.477,1.477A1.478,1.478,0,0,1,281.568,99.481Z" transform="translate(-244.009 -85.621)" fill="url(#linear-gradient)"/>
    </g>
  </g>
</svg>
