<?xml version="1.0" encoding="utf-8"?>
<!-- Generator: Adobe Illustrator 16.0.0, SVG Export Plug-In . SVG Version: 6.00 Build 0)  -->
<!DOCTYPE svg PUBLIC "-//W3C//DTD SVG 1.1//EN" "http://www.w3.org/Graphics/SVG/1.1/DTD/svg11.dtd">
<svg version="1.1" id="Layer_1" xmlns="http://www.w3.org/2000/svg" xmlns:xlink="http://www.w3.org/1999/xlink" x="0px" y="0px"
	 width="65px" height="65px" viewBox="0 0 65 65" enable-background="new 0 0 65 65" xml:space="preserve">
<g id="_007---Car-Insurance" transform="translate(0 0)">
	
		<linearGradient id="Shape_1_" gradientUnits="userSpaceOnUse" x1="-260.999" y1="415.7295" x2="-260.999" y2="414.7285" gradientTransform="matrix(23.092 0 0 -29.3076 6075.2295 12189.5723)">
		<stop  offset="0.13" style="stop-color:#00A9ED"/>
		<stop  offset="1" style="stop-color:#65106B"/>
	</linearGradient>
	<path id="Shape" fill="url(#Shape_1_)" d="M39.438,28.849l8.201,5.838c0.363,0.26,0.854,0.26,1.217,0l8.201-5.838
		c1.71-1.209,2.732-3.169,2.743-5.264V11.161c0.001-0.418-0.247-0.797-0.63-0.964l-10.5-4.536c-0.266-0.115-0.566-0.115-0.832,0
		l-10.5,4.536c-0.383,0.167-0.631,0.546-0.63,0.964v12.424C36.717,25.677,37.732,27.637,39.438,28.849z M38.8,11.849l9.45-4.081
		l9.45,4.083v11.734c-0.008,1.417-0.699,2.744-1.857,3.561l-7.593,5.4l-7.593-5.405C39.5,26.325,38.809,25,38.8,23.585V11.849z"/>
	
		<linearGradient id="Shape-2_1_" gradientUnits="userSpaceOnUse" x1="-254.4307" y1="398.1309" x2="-254.4307" y2="397.1309" gradientTransform="matrix(14.6995 0 0 -12.6003 3788.2744 5030.1523)">
		<stop  offset="0.13" style="stop-color:#00A9ED"/>
		<stop  offset="1" style="stop-color:#65106B"/>
	</linearGradient>
	<path id="Shape-2" fill="url(#Shape-2_1_)" d="M45.52,25.99c0.454,0.34,1.096,0.259,1.451-0.184l8.399-10.5
		c0.362-0.453,0.288-1.114-0.164-1.476c-0.453-0.362-1.114-0.289-1.476,0.164L45.96,23.7l-3.38-2.54
		c-0.465-0.348-1.123-0.253-1.47,0.211s-0.253,1.121,0.21,1.469L45.52,25.99z"/>
	
		<linearGradient id="Shape-3_1_" gradientUnits="userSpaceOnUse" x1="-268.2837" y1="422.8262" x2="-268.2837" y2="421.8262" gradientTransform="matrix(63 0 0 -62.9999 16934.4063 26638.998)">
		<stop  offset="0.13" style="stop-color:#00A9ED"/>
		<stop  offset="1" style="stop-color:#65106B"/>
	</linearGradient>
	<path id="Shape-3" fill="url(#Shape-3_1_)" d="M3.1,56.65h1.05v4.199C4.15,62.59,5.561,64,7.3,64h6.3c1.74,0,3.15-1.41,3.15-3.15
		l0,0V56.65h25.2v4.199c0,1.74,1.41,3.15,3.149,3.15H51.4c1.739,0,3.149-1.41,3.149-3.15l0,0V56.65h1.05
		c1.16,0,2.101-0.94,2.101-2.101V38.8c0.004-1.521-0.659-2.968-1.815-3.958l3.612-2.57c2.815-2,4.491-5.235,4.503-8.688V8.4
		c0-0.418-0.246-0.796-0.63-0.964l-14.7-6.35c-0.266-0.114-0.566-0.114-0.832,0L33.13,7.436C32.747,7.604,32.5,7.982,32.5,8.4v4.15
		H16.614c-2.225,0-4.208,1.402-4.95,3.5L5.479,33.628C2.912,34.006,1.007,36.205,1,38.8v15.75C1,55.71,1.94,56.65,3.1,56.65
		L3.1,56.65z M14.65,60.85c0,0.58-0.47,1.051-1.05,1.051H7.3c-0.58,0-1.05-0.471-1.05-1.051V56.65h8.4V60.85z M10.45,54.55h-2.1
		v-2.1h2.1V54.55z M52.45,60.85c0,0.58-0.47,1.051-1.05,1.051H45.1c-0.58,0-1.05-0.471-1.05-1.051V56.65h8.4V60.85z M50.35,54.55
		h-2.1v-2.1h2.1V54.55z M34.6,9.09l13.65-5.9l13.65,5.9v14.49c-0.011,2.773-1.359,5.371-3.621,6.976L48.25,37.7l-10.029-7.14
		c-2.262-1.604-3.61-4.203-3.621-6.976V9.09z M50.35,39.85c0.58,0,1.051,0.471,1.051,1.051l0,0V43c0,0.58-0.471,1.05-1.051,1.05
		h-6.3C43.471,44.05,43,43.58,43,43l0,0c0-1.74,1.41-3.15,3.15-3.15l0,0H50.35z M32.5,18.85v2.1h-7.35v-2.1H32.5z M32.5,16.75h-2.1
		v-2.1h2.1V16.75z M13.645,16.75c0.445-1.258,1.634-2.099,2.968-2.1H28.3v2.1h-3.15c-1.16,0-2.1,0.94-2.1,2.1l0,0v2.1
		c0,1.16,0.94,2.1,2.1,2.1l0,0h7.35v0.534c0.011,3.452,1.687,6.687,4.5,8.687l1.8,1.279H7.733L13.645,16.75z M3.1,38.8
		c0-1.739,1.41-3.149,3.15-3.149l0,0h35.5l3.173,2.26c-2.354,0.566-4.017,2.668-4.022,5.09c0,1.74,1.41,3.15,3.149,3.15l0,0h6.3
		c1.74,0,3.15-1.41,3.15-3.15v-2.1c-0.004-1.297-0.802-2.459-2.012-2.928l2.601-1.852c0.941,0.563,1.517,1.582,1.511,2.679v15.75
		H52.45v-2.1c0-1.16-0.94-2.101-2.101-2.101h-2.1c-1.16,0-2.1,0.94-2.1,2.101v2.1H12.55v-2.1c0-1.16-0.94-2.101-2.1-2.101h-2.1
		c-1.16,0-2.1,0.94-2.1,2.101v2.1H3.1V38.8z"/>
	
		<linearGradient id="Shape-4_1_" gradientUnits="userSpaceOnUse" x1="-245.4614" y1="402.543" x2="-245.4614" y2="401.543" gradientTransform="matrix(9.8233 0 0 -14.7008 2427.2917 5934.439)">
		<stop  offset="0.13" style="stop-color:#00A9ED"/>
		<stop  offset="1" style="stop-color:#65106B"/>
	</linearGradient>
	<path id="Shape-4" fill="url(#Shape-4_1_)" d="M19.9,16.75h-1.8c-1.335,0.001-2.525,0.842-2.972,2.1l-3.938,11.2
		c-0.193,0.547,0.094,1.147,0.641,1.341s1.147-0.094,1.34-0.641l3.942-11.2c0.148-0.419,0.545-0.7,0.99-0.7h1.8
		c0.58,0,1.05-0.47,1.05-1.05c0-0.58-0.47-1.05-1.05-1.05H19.9z"/>
	
		<linearGradient id="Shape-5_1_" gradientUnits="userSpaceOnUse" x1="-251.4199" y1="382.6953" x2="-251.4199" y2="381.6953" gradientTransform="matrix(12.6 0 0 -8.4 3179.4031 3252.3875)">
		<stop  offset="0.13" style="stop-color:#00A9ED"/>
		<stop  offset="1" style="stop-color:#65106B"/>
	</linearGradient>
	<path id="Shape-5" fill="url(#Shape-5_1_)" d="M8.35,46.15h6.3c1.74,0,3.15-1.41,3.15-3.15l0,0c-0.003-2.898-2.352-5.246-5.25-5.25
		h-4.2c-1.74,0-3.15,1.41-3.15,3.15l0,0V43C5.2,44.74,6.61,46.15,8.35,46.15L8.35,46.15z M7.3,40.9c0-0.58,0.47-1.051,1.05-1.051
		l0,0h4.2c1.74,0,3.15,1.41,3.15,3.15l0,0c0,0.58-0.47,1.05-1.05,1.05h-6.3c-0.58,0-1.05-0.47-1.05-1.05V40.9z"/>
	
		<linearGradient id="Shape-6_1_" gradientUnits="userSpaceOnUse" x1="-258.4473" y1="382.6953" x2="-258.4473" y2="381.6953" gradientTransform="matrix(18.9 0 0 -8.4 4914.0034 3258.6921)">
		<stop  offset="0.13" style="stop-color:#00A9ED"/>
		<stop  offset="1" style="stop-color:#65106B"/>
	</linearGradient>
	<path id="Shape-6" fill="url(#Shape-6_1_)" d="M22,52.45h14.7c1.159,0,2.1-0.94,2.1-2.101V46.15c0-1.16-0.94-2.101-2.1-2.101H22
		c-1.16,0-2.1,0.94-2.1,2.101v4.199C19.9,51.51,20.84,52.45,22,52.45L22,52.45z M22,46.15h14.7v4.199H22V46.15z"/>
</g>
</svg>
