<?xml version="1.0" encoding="utf-8"?>
<!-- Generator: Adobe Illustrator 16.0.0, SVG Export Plug-In . SVG Version: 6.00 Build 0)  -->
<!DOCTYPE svg PUBLIC "-//W3C//DTD SVG 1.1//EN" "http://www.w3.org/Graphics/SVG/1.1/DTD/svg11.dtd">
<svg version="1.1" id="refund" xmlns="http://www.w3.org/2000/svg" xmlns:xlink="http://www.w3.org/1999/xlink" x="0px" y="0px"
	 width="63px" height="63px" viewBox="0 0 63 63" enable-background="new 0 0 63 63" xml:space="preserve">
<g id="automatic-reinstatement-icon" transform="translate(0.003)">
	<g id="Group_2459">
		<g id="Group_2458">
			
				<linearGradient id="Path_17503_1_" gradientUnits="userSpaceOnUse" x1="-269.2872" y1="421.8262" x2="-269.2872" y2="420.8262" gradientTransform="matrix(63.0001 0 0 -63.0002 16996.6191 26575.0996)">
				<stop  offset="0" style="stop-color:#00A9E0"/>
				<stop  offset="1" style="stop-color:#801C7D"/>
			</linearGradient>
			<path id="Path_17503" fill="url(#Path_17503_1_)" d="M61.685,30.188c-0.725-0.001-1.313,0.586-1.314,1.311c0,0,0,0,0,0.001
				c0.004,15.957-12.928,28.898-28.887,28.902C15.527,60.406,2.587,47.473,2.583,31.515C2.579,15.558,15.512,2.618,31.47,2.613
				c7.38-0.001,14.479,2.82,19.845,7.887h-4.816c-0.725,0-1.313,0.587-1.313,1.312s0.588,1.312,1.313,1.312h7.875
				c0.725,0.001,1.313-0.586,1.314-1.311c0,0,0,0,0-0.001V3.938c0-0.725-0.588-1.313-1.313-1.314c-0.725,0-1.313,0.587-1.314,1.313
				c0,0,0,0.001,0,0.001v4.6C40.381-3.372,20.445-2.746,8.535,9.936C-3.374,22.617-2.749,42.553,9.933,54.461
				c12.682,11.91,32.616,11.285,44.526-1.396c5.484-5.842,8.539-13.553,8.539-21.564C62.998,30.776,62.41,30.188,61.685,30.188z"/>
		</g>
	</g>
	<g id="Group_2461" transform="translate(13.125 18.375)">
		<g id="Group_2460">
			
				<linearGradient id="Path_17504_1_" gradientUnits="userSpaceOnUse" x1="-279.4014" y1="391.1045" x2="-279.4014" y2="390.1045" gradientTransform="matrix(36.752 0 0 -21 10286.9131 8213.1719)">
				<stop  offset="0" style="stop-color:#00A9E0"/>
				<stop  offset="1" style="stop-color:#801C7D"/>
			</linearGradient>
			<path id="Path_17504" fill="url(#Path_17504_1_)" d="M-0.003,0v21H36.75V0H-0.003z M34.123,10.5v7.875H2.622V2.624h31.501V10.5z"
				/>
		</g>
	</g>
	<g id="Group_2463" transform="translate(24.914 22.23)">
		<g id="Group_2462">
			
				<linearGradient id="Path_17505_1_" gradientUnits="userSpaceOnUse" x1="-278.1826" y1="376.1372" x2="-278.1826" y2="375.1372" gradientTransform="matrix(13.126 0 0 -13.126 3657.9863 4937.1826)">
				<stop  offset="0" style="stop-color:#00A9E0"/>
				<stop  offset="1" style="stop-color:#801C7D"/>
			</linearGradient>
			<path id="Path_17505" fill="url(#Path_17505_1_)" d="M6.561,0c-3.625,0-6.564,2.938-6.564,6.562c0,3.624,2.938,6.563,6.563,6.563
				c3.625,0.002,6.563-2.938,6.564-6.562c0,0,0,0,0-0.001C13.123,2.939,10.186,0,6.561,0z M6.561,10.5
				c-2.175,0-3.938-1.764-3.938-3.938s1.763-3.938,3.938-3.938c2.174,0,3.938,1.763,3.938,3.938S8.734,10.5,6.561,10.5L6.561,10.5z"
				/>
		</g>
	</g>
	<g id="Group_2465" transform="translate(13.125 40.686)">
		<g id="Group_2464">
			
				<linearGradient id="Path_17506_1_" gradientUnits="userSpaceOnUse" x1="-279.4" y1="239.1958" x2="-279.4" y2="238.1958" gradientTransform="matrix(36.749 0 0 -2.626 10286.0635 628.1295)">
				<stop  offset="0" style="stop-color:#00A9E0"/>
				<stop  offset="1" style="stop-color:#801C7D"/>
			</linearGradient>
			<path id="Path_17506" fill="url(#Path_17506_1_)" d="M35.434,0H1.31C0.585,0-0.003,0.587-0.003,1.314
				c0,0.725,0.588,1.313,1.313,1.313l0,0h34.124c0.725,0,1.313-0.588,1.313-1.313C36.746,0.587,36.158,0,35.434,0z"/>
		</g>
	</g>
	<g id="Group_2467" transform="translate(13.125 44.624)">
		<g id="Group_2466">
			
				<linearGradient id="Path_17507_1_" gradientUnits="userSpaceOnUse" x1="-279.4" y1="235.2578" x2="-279.4" y2="234.2588" gradientTransform="matrix(36.749 0 0 -2.626 10286.0635 617.7878)">
				<stop  offset="0" style="stop-color:#00A9E0"/>
				<stop  offset="1" style="stop-color:#801C7D"/>
			</linearGradient>
			<path id="Path_17507" fill="url(#Path_17507_1_)" d="M35.434,0.001H1.31c-0.725,0-1.313,0.588-1.313,1.313
				S0.585,2.626,1.31,2.626l0,0h34.124c0.725,0,1.313-0.588,1.313-1.313S36.158,0.001,35.434,0.001z"/>
		</g>
	</g>
</g>
</svg>
