<?xml version="1.0" encoding="utf-8"?>
<!-- Generator: Adobe Illustrator 14.0.0, SVG Export Plug-In . SVG Version: 6.00 Build 43363)  -->
<!DOCTYPE svg PUBLIC "-//W3C//DTD SVG 1.1//EN" "http://www.w3.org/Graphics/SVG/1.1/DTD/svg11.dtd">
<svg version="1.1" id="refund" xmlns="http://www.w3.org/2000/svg" xmlns:xlink="http://www.w3.org/1999/xlink" x="0px" y="0px"
	 width="63px" height="63px" viewBox="0 0 63 63" enable-background="new 0 0 63 63" xml:space="preserve">
<g id="Group_2459">
	<g id="Group_2458">
		
			<linearGradient id="Path_17503_1_" gradientUnits="userSpaceOnUse" x1="11.3569" y1="50.7148" x2="11.3569" y2="49.7148" gradientTransform="matrix(63.0001 0 0 -63.0002 -684.0032 3195.0376)">
			<stop  offset="0.13" style="stop-color:#00A9ED"/>
			<stop  offset="1" style="stop-color:#65106B"/>
		</linearGradient>
		<path id="Path_17503" fill="url(#Path_17503_1_)" d="M61.689,30.188c-0.726-0.001-1.314,0.586-1.315,1.311c0,0,0,0,0,0.001
			c-0.011,15.951-12.95,28.875-28.902,28.863C19.878,60.355,9.413,53.416,4.893,42.74c-6.218-14.684,0.646-31.629,15.33-37.847
			C30.782,0.422,42.986,2.623,51.318,10.5H46.5c-0.725,0-1.313,0.587-1.313,1.312s0.588,1.312,1.313,1.312h7.875
			c0.725,0.001,1.314-0.586,1.314-1.311c0,0,0,0,0-0.001V3.938c0-0.725-0.588-1.313-1.313-1.312c-0.724,0-1.312,0.587-1.312,1.312
			v4.6C40.383-3.371,20.448-2.745,8.538,9.936C-3.371,22.618-2.746,42.553,9.936,54.461c12.682,11.91,32.617,11.285,44.526-1.396
			C59.947,47.223,63,39.512,63,31.5C63,30.776,62.413,30.189,61.689,30.188z"/>
	</g>
</g>
<g id="Group_2461" transform="translate(13.125 18.375)">
	<g id="Group_2460">
		
			<linearGradient id="Path_17504_1_" gradientUnits="userSpaceOnUse" x1="1.3433" y1="20.7686" x2="1.3433" y2="19.7686" gradientTransform="matrix(36.752 0 0 -21 -31.0065 436.125)">
			<stop  offset="0.13" style="stop-color:#00A9ED"/>
			<stop  offset="1" style="stop-color:#65106B"/>
		</linearGradient>
		<path id="Path_17504" fill="url(#Path_17504_1_)" d="M0,0v21h36.752V0H0z M34.125,10.5v7.875h-31.5V2.625h31.5V10.5z"/>
	</g>
</g>
<g id="Group_2463" transform="translate(24.914 22.23)">
	<g id="Group_2462">
		
			<linearGradient id="Path_17505_1_" gradientUnits="userSpaceOnUse" x1="2.9986" y1="6.501" x2="2.9986" y2="5.5014" gradientTransform="matrix(13.126 0 0 -13.126 -32.7999 85.3314)">
			<stop  offset="0.13" style="stop-color:#00A9ED"/>
			<stop  offset="1" style="stop-color:#65106B"/>
		</linearGradient>
		<path id="Path_17505" fill="url(#Path_17505_1_)" d="M6.563,0C2.939,0,0,2.938-0.001,6.562c0,3.624,2.938,6.563,6.562,6.563
			c3.625,0.002,6.564-2.936,6.564-6.561c0,0,0,0,0-0.001C13.125,2.939,10.188,0.001,6.563,0z M6.563,10.5
			c-2.174,0-3.938-1.763-3.938-3.938s1.763-3.938,3.938-3.938c2.176,0,3.938,1.763,3.938,3.938c0,0,0,0.001,0,0.001
			C10.498,8.737,8.736,10.499,6.563,10.5z"/>
	</g>
</g>
<g id="Group_2465" transform="translate(13.125 40.686)">
	<g id="Group_2464">
		
			<linearGradient id="Path_17506_1_" gradientUnits="userSpaceOnUse" x1="1.3452" y1="-122.9897" x2="1.3452" y2="-123.9902" gradientTransform="matrix(36.749 0 0 -2.626 -31.0439 -322.972)">
			<stop  offset="0.13" style="stop-color:#00A9ED"/>
			<stop  offset="1" style="stop-color:#65106B"/>
		</linearGradient>
		<path id="Path_17506" fill="url(#Path_17506_1_)" d="M35.436,0H1.313C0.588,0,0,0.587,0,1.314c0,0.725,0.588,1.313,1.313,1.313
			l0,0h34.123c0.726,0,1.313-0.588,1.313-1.313C36.749,0.587,36.161,0,35.436,0z"/>
	</g>
</g>
<g id="Group_2467" transform="translate(13.125 44.624)">
	<g id="Group_2466">
		
			<linearGradient id="Path_17507_1_" gradientUnits="userSpaceOnUse" x1="1.3452" y1="-126.9282" x2="1.3452" y2="-127.9277" gradientTransform="matrix(36.749 0 0 -2.626 -31.0439 -333.3138)">
			<stop  offset="0.13" style="stop-color:#00A9ED"/>
			<stop  offset="1" style="stop-color:#65106B"/>
		</linearGradient>
		<path id="Path_17507" fill="url(#Path_17507_1_)" d="M35.436,0.001H1.313C0.588,0.001,0,0.589,0,1.313s0.588,1.313,1.313,1.313
			l0,0h34.123c0.726,0,1.313-0.588,1.313-1.313S36.161,0.001,35.436,0.001z"/>
	</g>
</g>
</svg>
