<?xml version="1.0" encoding="utf-8"?>
<!-- Generator: Adobe Illustrator 16.0.0, SVG Export Plug-In . SVG Version: 6.00 Build 0)  -->
<!DOCTYPE svg PUBLIC "-//W3C//DTD SVG 1.1//EN" "http://www.w3.org/Graphics/SVG/1.1/DTD/svg11.dtd">
<svg version="1.1" id="Layer_1" xmlns="http://www.w3.org/2000/svg" xmlns:xlink="http://www.w3.org/1999/xlink" x="0px" y="0px"
	 width="63px" height="62.973px" viewBox="0 0 63 62.973" enable-background="new 0 0 63 62.973" xml:space="preserve">
<g id="_038---Therapy" transform="translate(0 -0.015)">
	
		<linearGradient id="Shape_1_" gradientUnits="userSpaceOnUse" x1="-269.2822" y1="414.3219" x2="-269.2822" y2="413.3561" gradientTransform="matrix(62.9905 0 0 -28.349 16993.7969 11779.0908)">
		<stop  offset="0.13" style="stop-color:#00A9ED"/>
		<stop  offset="1" style="stop-color:#65106B"/>
	</linearGradient>
	<path id="Shape" fill="url(#Shape_1_)" d="M4.19,60.839h5.072c0.861-0.002,1.68-0.371,2.251-1.014h25.43
		c1.486,0,2.947-0.409,4.217-1.183l19.004-11.569c1.793-1.087,2.362-3.422,1.275-5.213c-0.92-1.516-2.769-2.192-4.45-1.629
		c-21.138,7.051-18.771,6.412-20.31,6.412c1.228-3.408-1.846-7.098-5.686-7.098h-5.307c-1.87-0.002-3.685-0.639-5.146-1.807
		c-1.822-1.454-4.083-2.247-6.413-2.251h-2.011c-0.428-1.21-1.57-2.021-2.854-2.026H4.19c-1.68,0-3.042,1.361-3.042,3.041v21.299
		c0,1.681,1.362,3.041,3.042,3.041V60.839z M19.274,39.324c1.822,1.454,4.083,2.247,6.413,2.25h5.308
		c2.691,0,5.023,2.914,3.417,5.07h-6.164c-2.002-0.002-3.96,0.591-5.625,1.704l-0.744,0.494c-0.47,0.305-0.604,0.934-0.3,1.403
		s0.933,0.604,1.403,0.3c0.007-0.005,0.015-0.011,0.022-0.016c1.493-1.185,3.337-1.837,5.242-1.857c9.642,0,9.563,0.091,10.616-0.26
		l18.771-6.258c0.924-0.31,1.926,0.189,2.235,1.115c0.097,0.289,0.117,0.599,0.059,0.898c-0.091,0.489-0.387,0.916-0.812,1.173
		l-19.01,11.569c-0.953,0.581-2.047,0.887-3.164,0.888H12.303V37.515c2.304,0,4.493-0.179,6.971,1.806V39.324z M3.177,36.504
		c0-0.56,0.455-1.015,1.014-1.015h5.071c0.561,0,1.015,0.455,1.015,1.015v21.299c0,0.56-0.454,1.015-1.015,1.015H4.19
		c-0.56-0.001-1.013-0.455-1.013-1.015V36.504z"/>
	
		<linearGradient id="Shape-2_1_" gradientUnits="userSpaceOnUse" x1="-268.3398" y1="416.3756" x2="-268.3398" y2="415.4098" gradientTransform="matrix(51.4535 0 0 -33.4575 13844.1934 13930.8936)">
		<stop  offset="0.13" style="stop-color:#00A9ED"/>
		<stop  offset="1" style="stop-color:#65106B"/>
	</linearGradient>
	<path id="Shape-2" fill="url(#Shape-2_1_)" d="M59.657,0.017c-0.54,0.032-13.396,0.861-19.193,9.21
		c-1.958,2.993-3.061,6.464-3.188,10.038c-1.211-2.511-3.026-4.684-5.283-6.322c-7.475-5.201-18.512-1.885-18.979-1.738
		c-0.444,0.139-0.737,0.562-0.71,1.026c0.027,0.483,0.773,11.988,8.247,17.182c3.162,2.022,6.863,3.036,10.613,2.908
		c2.831-0.011,5.646-0.408,8.37-1.179h0.025c0.544-0.032,13.399-0.861,19.196-9.207c5.798-8.345,2.093-20.686,1.933-21.202
		c-0.137-0.45-0.563-0.747-1.032-0.715L59.657,0.017z M21.704,27.747c-5.587-3.883-6.989-12.183-7.301-14.814
		c2.576-0.628,10.844-2.21,16.427,1.671c4.165,2.897,6.272,8.464,7.098,13.443l-6.017-4.179l0.067-3.52
		c0.011-0.561-0.435-1.023-0.995-1.034c-0.56-0.01-1.023,0.435-1.034,0.995l-0.039,2.168l-2.625-1.825l0.066-3.522
		c0.011-0.56-0.435-1.022-0.995-1.034c0,0,0,0-0.001,0c-0.552-0.018-1.014,0.415-1.032,0.967c0,0.009-0.001,0.019-0.001,0.028
		l-0.033,2.174l-4.926-3.42c-0.46-0.32-1.092-0.207-1.412,0.253c-0.32,0.46-0.207,1.092,0.253,1.412l0,0l4.926,3.42l-2.018,0.795
		c-0.521,0.206-0.777,0.795-0.572,1.316c0.206,0.521,0.795,0.777,1.316,0.571l3.275-1.291l2.628,1.826l-2.018,0.795
		c-0.521,0.206-0.777,0.795-0.571,1.317c0.206,0.521,0.795,0.776,1.316,0.571l3.274-1.292l6.016,4.174
		c-3.429,0.666-10.248,1.391-15.078-1.963V27.747z M57.092,20.777c-3.885,5.593-11.671,7.475-15.468,8.074l4.899-7.051
		c0.982,0.02,4.145,0.078,4.039,0.078c0.56,0.005,1.019-0.444,1.024-1.004c0.005-0.56-0.444-1.019-1.004-1.024l-2.669-0.049
		l2.222-3.194c0.983,0.018,4.142,0.077,4.037,0.077c0.561,0.006,1.019-0.444,1.024-1.003c0.006-0.56-0.443-1.02-1.004-1.024
		l-2.667-0.054l3.973-5.716c0.336-0.449,0.243-1.083-0.205-1.419c-0.449-0.335-1.085-0.242-1.419,0.207
		c-0.014,0.018-0.026,0.036-0.039,0.054l-3.972,5.72l-0.982-2.484c-0.204-0.521-0.794-0.777-1.315-0.571
		c-0.521,0.205-0.777,0.794-0.571,1.314l1.474,3.74l-2.221,3.195l-0.978-2.482c-0.206-0.521-0.795-0.778-1.316-0.572
		s-0.777,0.795-0.572,1.316l1.474,3.741l-4.9,7.052c-0.759-3.768-1.714-11.721,2.173-17.313c4.442-6.396,13.993-7.938,16.833-8.262
		c0.692,2.777,2.581,12.249-1.871,18.657L57.092,20.777z"/>
</g>
</svg>
