<?xml version="1.0" encoding="utf-8"?>
<!-- Generator: Adobe Illustrator 14.0.0, SVG Export Plug-In . SVG Version: 6.00 Build 43363)  -->
<!DOCTYPE svg PUBLIC "-//W3C//DTD SVG 1.1//EN" "http://www.w3.org/Graphics/SVG/1.1/DTD/svg11.dtd">
<svg version="1.1" id="lost" xmlns="http://www.w3.org/2000/svg" xmlns:xlink="http://www.w3.org/1999/xlink" x="0px" y="0px"
	 width="60.375px" height="63px" viewBox="0 0 60.375 63" enable-background="new 0 0 60.375 63" xml:space="preserve">
<g id="Group_1225">
	
		<linearGradient id="Path_16026_1_" gradientUnits="userSpaceOnUse" x1="110.2393" y1="-81.6733" x2="110.2393" y2="-82.6733" gradientTransform="matrix(2.6381 0 0 -2.638 -282.4729 -201.5356)">
		<stop  offset="0.13" style="stop-color:#00A9ED"/>
		<stop  offset="1" style="stop-color:#65106B"/>
	</linearGradient>
	<path id="Path_16026" fill="url(#Path_16026_1_)" d="M8.351,13.918H8.325c-0.718,0-1.3,0.582-1.3,1.3c0,0.004,0,0.009,0,0.013
		c-0.003,0.729,0.584,1.322,1.313,1.325c0.729,0.003,1.322-0.584,1.325-1.313C9.666,14.515,9.079,13.922,8.351,13.918z"/>
	
		<linearGradient id="Path_16027_1_" gradientUnits="userSpaceOnUse" x1="10.2563" y1="50.7158" x2="10.2563" y2="49.7158" gradientTransform="matrix(60.375 0 0 -63 -589.0078 3195)">
		<stop  offset="0.13" style="stop-color:#00A9ED"/>
		<stop  offset="1" style="stop-color:#65106B"/>
	</linearGradient>
	<path id="Path_16027" fill="url(#Path_16027_1_)" d="M59.063,26.25h-2.107l3.365-11.442c0.204-0.695-0.193-1.424-0.889-1.629
		c-0.596-0.175-1.233,0.091-1.527,0.639c-0.506,0.95-2.668,1.932-5.399,1.932c-3.006,0-5.25-1.386-5.25-2.625V5.25
		c0-2.899-2.351-5.25-5.25-5.25s-5.25,2.351-5.25,5.25v1.313c0.021,0.725,0.624,1.296,1.349,1.276
		c0.697-0.02,1.258-0.58,1.276-1.276V5.25c0-1.45,1.175-2.625,2.625-2.625S44.63,3.8,44.63,5.25v7.875
		c0,1.239-2.244,2.625-5.25,2.625c-2.735,0-4.899-0.982-5.407-1.932c-0.344-0.639-1.139-0.878-1.777-0.536
		c-0.547,0.293-0.813,0.931-0.639,1.526l3.361,11.442h-4.389l-8.4-18.68c-0.893-1.979-3.22-2.86-5.2-1.97L4.948,10.98
		c-1.977,0.896-2.858,3.219-1.974,5.2L7.5,26.25H1.313C0.588,26.25,0,26.838,0,27.563v23.625C0.008,57.709,5.292,62.992,11.813,63
		h36.75c6.521-0.008,11.805-5.292,11.813-11.813V27.563C60.375,26.838,59.787,26.25,59.063,26.25z M47.25,17.057
		c1.603,0.896,3.414,1.35,5.25,1.318c1.443,0.003,2.879-0.234,4.245-0.7l-2.522,8.575H47.25V17.057z M39.375,18.375
		c1.836,0.032,3.647-0.422,5.25-1.318v9.193h-6.969l-2.522-8.576C36.499,18.14,37.932,18.377,39.375,18.375L39.375,18.375z
		 M5.368,15.112c-0.298-0.66-0.004-1.437,0.656-1.735l11.973-5.384c0.658-0.298,1.433-0.006,1.731,0.652
		c0,0.001,0.001,0.002,0.002,0.004l7.917,17.6h-17.27L5.368,15.112z M57.75,51.188c-0.007,5.072-4.116,9.182-9.188,9.188h-36.75
		c-5.072-0.007-9.181-4.116-9.188-9.188V28.875H57.75V51.188z"/>
	
		<linearGradient id="Path_16028_1_" gradientUnits="userSpaceOnUse" x1="26.6968" y1="33.3096" x2="26.6968" y2="32.3096" gradientTransform="matrix(13.1281 0 0 -15.7168 -320.2917 557.626)">
		<stop  offset="0.13" style="stop-color:#00A9ED"/>
		<stop  offset="1" style="stop-color:#65106B"/>
	</linearGradient>
	<path id="Path_16028" fill="url(#Path_16028_1_)" d="M24.848,41.359c0.711,0.061,1.336-0.467,1.397-1.178
		c0.001-0.015,0.002-0.029,0.003-0.043c0.318-2.169,2.334-3.668,4.503-3.35c1.815,0.268,3.212,1.744,3.375,3.572
		c0,2.349-2.006,3.129-3.969,3.58l-0.291,0.072c-0.58,0.146-0.985,0.67-0.984,1.268v3.281c0.02,0.725,0.624,1.296,1.349,1.275
		c0.697-0.02,1.257-0.579,1.276-1.275v-2.261c3.483-1,5.247-3,5.247-5.946c-0.196-3.633-3.301-6.42-6.935-6.224
		c-3.207,0.173-5.822,2.634-6.19,5.824c-0.05,0.724,0.496,1.35,1.219,1.399V41.359z"/>
	
		<linearGradient id="Path_16029_1_" gradientUnits="userSpaceOnUse" x1="110.7188" y1="-82.3032" x2="110.7188" y2="-83.3032" gradientTransform="matrix(2.626 0 0 -2.626 -260.5598 -163.6123)">
		<stop  offset="0.13" style="stop-color:#00A9ED"/>
		<stop  offset="1" style="stop-color:#65106B"/>
	</linearGradient>
	<path id="Path_16029" fill="url(#Path_16029_1_)" d="M29.269,52.893c-0.518,0.508-0.526,1.34-0.019,1.857
		c0.508,0.518,1.339,0.525,1.857,0.019c0.518-0.508,0.525-1.339,0.019-1.856c-0.007-0.007-0.013-0.013-0.019-0.02
		C30.597,52.393,29.779,52.393,29.269,52.893z"/>
</g>
</svg>
