<svg id="tools" xmlns="http://www.w3.org/2000/svg" xmlns:xlink="http://www.w3.org/1999/xlink" width="63" height="63" viewBox="0 0 63 63">
  <defs>
    <linearGradient id="linear-gradient" x1="0.5" x2="0.5" y2="1" gradientUnits="objectBoundingBox">
      <stop offset="0.13" stop-color="#00a9ed"/>
      <stop offset="1" stop-color="#65106b"/>
    </linearGradient>
  </defs>
  <g id="Group_2251" data-name="Group 2251">
    <g id="Group_2250" data-name="Group 2250">
      <path id="Path_17333" data-name="Path 17333" d="M58.179,10.644v-3H49.528v3H44.4A10.974,10.974,0,0,0,33.424,0H29.576A10.992,10.992,0,0,0,18.6,10.644H13.275v-3H4.624v3H0V60.773H5.556V63h6.879V60.773h38.13V63h6.879V60.773H63V10.644ZM51.374,9.485h4.959v1.158H51.374Zm-21.8-7.64h3.848a9.133,9.133,0,0,1,9.127,8.8H37.962a3.583,3.583,0,0,0-3.133-5.322H28.171a3.583,3.583,0,0,0-3.133,5.322H20.449A9.144,9.144,0,0,1,29.576,1.846Zm6.991,7.06a1.74,1.74,0,0,1-1.738,1.738H28.171a1.738,1.738,0,1,1,0-3.476h6.658a1.737,1.737,0,0,1,1.738,1.738Zm-30.1.58h4.959v1.158H6.47ZM7.4,61.154v-.381h3.188v.381Zm48.2,0H52.411v-.381H55.6Zm5.556-2.227H1.846V12.489H61.154Z" fill="url(#linear-gradient)"/>
      <path id="Path_17334" data-name="Path 17334" d="M213.291,250.548a5.993,5.993,0,1,0,5.993,5.993A6,6,0,0,0,213.291,250.548Zm0,10.14a4.147,4.147,0,1,1,4.147-4.147A4.152,4.152,0,0,1,213.291,260.688Z" transform="translate(-181.791 -219.719)" fill="url(#linear-gradient)"/>
      <path id="Path_17335" data-name="Path 17335" d="M161.27,187.828l2.11-2.11-4.622-4.622-2.11,2.11a12.111,12.111,0,0,0-2.767-1.147v-2.983h-6.536v2.983a12.117,12.117,0,0,0-2.767,1.147l-2.11-2.11-4.622,4.622,2.11,2.11a12.117,12.117,0,0,0-1.147,2.767h-2.983v6.536h2.983a12.117,12.117,0,0,0,1.147,2.767l-2.11,2.11,4.622,4.622,2.11-2.11a12.112,12.112,0,0,0,2.767,1.147v2.983h6.536v-2.983a12.114,12.114,0,0,0,2.767-1.147l2.11,2.11,4.622-4.622-2.11-2.11a12.115,12.115,0,0,0,1.147-2.767H165.4v-6.536h-2.983A12.111,12.111,0,0,0,161.27,187.828Zm2.285,7.458h-2.611l-.154.733a10.3,10.3,0,0,1-1.457,3.516l-.409.627,1.847,1.847-2.012,2.011-1.847-1.847-.627.409a10.3,10.3,0,0,1-3.516,1.457l-.733.154V206.8h-2.845v-2.611l-.733-.154a10.3,10.3,0,0,1-3.516-1.457l-.627-.409-1.847,1.847-2.012-2.011,1.847-1.847-.409-.627a10.3,10.3,0,0,1-1.457-3.516l-.154-.733h-2.611v-2.845h2.611l.154-.733a10.3,10.3,0,0,1,1.457-3.516l.409-.627-1.847-1.847,2.012-2.011,1.847,1.847.627-.409a10.3,10.3,0,0,1,3.516-1.457l.733-.154v-2.611h2.845v2.611l.733.154a10.3,10.3,0,0,1,3.516,1.457l.627.409,1.847-1.847,2.012,2.011-1.847,1.847.409.627a10.3,10.3,0,0,1,1.457,3.516l.154.733h2.611Z" transform="translate(-119.113 -157.041)" fill="url(#linear-gradient)"/>
      <path id="Path_17336" data-name="Path 17336" d="M414.562,163.581h-2.3V149.075H413.8v-5.2h-4.917v5.2h1.536c0,4.71,0,11.968,0,14.506h-2.2v3.232h-1.045v15.3H415.5v-15.3h-.943Zm-3.837-17.857h1.226v1.505h-1.226Zm-.664,19.7h2.655v1.386h-2.655Zm3.6,14.842h-4.643v-11.61h4.643Z" transform="translate(-357.07 -126.174)" fill="url(#linear-gradient)"/>
      <path id="Path_17337" data-name="Path 17337" d="M37.333,140.622l-1.281-.539v5.524l-1.04.6-1.04-.6v-5.524l-1.281.539a5.986,5.986,0,0,0-1.1,10.427v24.378a3.32,3.32,0,0,0,3.274,3.358,3.228,3.228,0,0,0,2.563-1.268,3.424,3.424,0,0,0,.711-2.09v-24.18a5.987,5.987,0,0,0-.8-10.626Zm-.49,9.232a6.993,6.993,0,0,1-2.072.385v1.846a7.578,7.578,0,0,0,1.518-.17v23.513a1.548,1.548,0,0,1-.324.958,1.4,1.4,0,0,1-1.1.554,1.474,1.474,0,0,1-1.428-1.512V150.006l-.466-.266a4.142,4.142,0,0,1-.841-6.571v3.506l2.886,1.655,2.886-1.655V143.17a4.143,4.143,0,0,1-1.055,6.684Z" transform="translate(-25.454 -122.846)" fill="url(#linear-gradient)"/>
    </g>
  </g>
</svg>
