<?xml version="1.0" encoding="utf-8"?>
<!-- Generator: Adobe Illustrator 16.0.0, SVG Export Plug-In . SVG Version: 6.00 Build 0)  -->
<!DOCTYPE svg PUBLIC "-//W3C//DTD SVG 1.1//EN" "http://www.w3.org/Graphics/SVG/1.1/DTD/svg11.dtd">
<svg version="1.1" id="Layer_1" xmlns="http://www.w3.org/2000/svg" xmlns:xlink="http://www.w3.org/1999/xlink" x="0px" y="0px"
	 width="56.699px" height="63px" viewBox="0 0 56.699 63" enable-background="new 0 0 56.699 63" xml:space="preserve">
<g id="terrorist" transform="translate(-25.607)">
	<g id="Group_1964" transform="translate(45.371 15.125)">
		<g id="Group_1963">
			
				<linearGradient id="Path_16747_1_" gradientUnits="userSpaceOnUse" x1="-220.2147" y1="201.0981" x2="-220.2147" y2="200.1411" gradientTransform="matrix(3.546 0 0 -1.846 784.1428 373.2111)">
				<stop  offset="0.13" style="stop-color:#00A9ED"/>
				<stop  offset="1" style="stop-color:#65106B"/>
			</linearGradient>
			<path id="Path_16747" fill="url(#Path_16747_1_)" d="M4.046,1.981H2.416C1.928,1.997,1.545,2.406,1.561,2.895
				c0.016,0.466,0.39,0.84,0.855,0.855h1.629c0.488,0.016,0.897-0.367,0.914-0.855c0.016-0.489-0.367-0.898-0.855-0.914
				C4.085,1.981,4.065,1.981,4.046,1.981z"/>
		</g>
	</g>
	<g id="Group_1966" transform="translate(55.118 15.125)">
		<g id="Group_1965">
			
				<linearGradient id="Path_16748_1_" gradientUnits="userSpaceOnUse" x1="-230.0755" y1="201.0981" x2="-230.0755" y2="200.1401" gradientTransform="matrix(3.5461 0 0 -1.846 818.6584 373.2111)">
				<stop  offset="0.13" style="stop-color:#00A9ED"/>
				<stop  offset="1" style="stop-color:#65106B"/>
			</linearGradient>
			<path id="Path_16748" fill="url(#Path_16748_1_)" d="M3.642,1.981H2.013C1.524,1.965,1.115,2.348,1.099,2.836
				C1.083,3.325,1.467,3.734,1.955,3.75c0.019,0,0.039,0,0.059,0h1.629c0.488-0.016,0.871-0.425,0.855-0.914
				C4.483,2.371,4.108,1.997,3.642,1.981z"/>
		</g>
	</g>
	<g id="Group_1968" transform="translate(41.819 11.814)">
		<g id="Group_1967">
			
				<linearGradient id="Path_16749_1_" gradientUnits="userSpaceOnUse" x1="-279.6324" y1="370.0097" x2="-279.6324" y2="369.0508" gradientTransform="matrix(20.4076 0 0 -8.469 5718.0591 3135.7126)">
				<stop  offset="0.13" style="stop-color:#00A9ED"/>
				<stop  offset="1" style="stop-color:#65106B"/>
			</linearGradient>
			<path id="Path_16749" fill="url(#Path_16749_1_)" d="M17.516,2.118H5.39C3.338,2.115,1.673,3.776,1.67,5.828
				C1.667,7.652,2.99,9.208,4.79,9.5l2.554,0.418c2.506,0.411,5.062,0.425,7.573,0.042l3.187-0.485l0,0
				c1.806-0.266,3.141-1.819,3.129-3.643C21.23,3.78,19.567,2.119,17.516,2.118z M17.836,7.725l-3.188,0.485
				C12.321,8.564,9.953,8.551,7.63,8.17L5.077,7.752c-1.061-0.171-1.781-1.169-1.61-2.23c0.152-0.943,0.968-1.636,1.924-1.634
				h12.125c1.075,0.001,1.943,0.872,1.945,1.945C19.467,6.78,18.773,7.586,17.836,7.725z"/>
		</g>
	</g>
	<g id="Group_1970" transform="translate(25.607)">
		<g id="Group_1969" transform="translate(0)">
			
				<linearGradient id="Path_16750_1_" gradientUnits="userSpaceOnUse" x1="-271.8902" y1="421.7886" x2="-271.8902" y2="420.8296" gradientTransform="matrix(56.6992 0 0 -63.0304 15445.4678 26588.0293)">
				<stop  offset="0.13" style="stop-color:#00A9ED"/>
				<stop  offset="1" style="stop-color:#65106B"/>
			</linearGradient>
			<path id="Path_16750" fill="url(#Path_16750_1_)" d="M56.14,29.958L56.14,29.958l-2.101-1.821
				c-0.656-0.568-1.643-0.521-2.243,0.105c-1.189,1.245-2.494,2.375-3.895,3.375v-1.374c-0.001-1.282-0.455-2.521-1.281-3.501
				c-0.529-0.645-0.815-1.456-0.805-2.29v-8.672c-0.017-0.489-0.425-0.872-0.914-0.856c-0.466,0.016-0.84,0.39-0.855,0.856v2.619
				h-0.875V7.175h0.677c0.106,0,0.193,0.084,0.196,0.191v4.251c-0.016,0.489,0.367,0.897,0.856,0.914
				c0.487,0.016,0.896-0.367,0.912-0.855c0.001-0.02,0.001-0.039,0-0.059V7.371c-0.001-1.005-0.76-1.848-1.76-1.954l0,0V3.492
				c0.016-0.488-0.366-0.897-0.854-0.913c-0.489-0.017-0.898,0.367-0.914,0.855c-0.001,0.02-0.001,0.039,0,0.058v1.917
				c-0.488,0-0.886,0.396-0.886,0.885v12.392c-0.368,0.272-0.588,0.705-0.588,1.164v12.981c-0.843-0.411-1.743-0.79-2.572-1.139
				c-0.606-0.255-1.194-0.502-1.699-0.737c2.618-3.345,3.963-7.535,3.963-9.586v-6.057c0.035-3.495-1.453-6.832-4.079-9.139
				c-2.414-2.138-5.522-3.328-8.748-3.348h-0.02c-3.225,0.021-6.333,1.21-8.748,3.348c-2.627,2.307-4.117,5.644-4.082,9.139v6.056
				c0,2.052,1.342,6.241,3.962,9.586c-0.505,0.234-1.091,0.479-1.698,0.736c-2.173,0.915-4.637,1.952-5.702,3.346
				c-0.961,1.333-1.205,3.053-0.653,4.601l-0.255,0.047c-0.03,0.007-0.06,0.013-0.089,0.022c-4.771,1.406-8.045,5.783-8.046,10.756
				v1.116c-0.016,0.488,0.367,0.896,0.855,0.914c0.488,0.015,0.897-0.367,0.914-0.855c0-0.021,0-0.04,0-0.059v-1.112
				c0-4.171,2.737-7.849,6.734-9.046l0.958-0.177c0.625,0.533,1.312,0.99,2.046,1.357l0.024,0.013l0.212,0.11l0.141,0.071
				l0.231,0.114l0.251,0.122l0.117,0.055c0.121,0.058,0.243,0.113,0.368,0.17c7.927,3.58,17.011,3.58,24.937,0l0.325-0.149
				l0.076-0.036l0.238-0.114l0.039-0.02V45.5c0.001,0.929,0.643,1.735,1.547,1.946l1.84,13.783H11.344v-6.291
				c0.016-0.488-0.367-0.897-0.855-0.913C10,54.01,9.591,54.393,9.575,54.88c0,0.021,0,0.039,0,0.059v6.292h-4.98
				c-0.265,0-0.479-0.214-0.479-0.479V55.75c0.016-0.488-0.367-0.898-0.855-0.913c-0.489-0.017-0.898,0.366-0.914,0.854
				c0,0.021,0,0.04,0,0.06v5.002C2.35,61.994,3.354,62.999,4.595,63h46.139l-3.719-1.007L50.734,63
				c1.241-0.002,2.247-1.007,2.248-2.249V50.465c0.002-1.07-0.151-2.136-0.455-3.162c0.563-0.088,1.031-0.477,1.22-1.013
				l0.548-1.556c0.284-0.804-0.139-1.686-0.942-1.968l-2.42-0.856c0.067-0.229,0.101-0.468,0.102-0.707v-3.146
				c0-0.38-0.085-0.755-0.25-1.097c1.987-1.349,3.82-2.909,5.47-4.653c0.617-0.654,0.588-1.686-0.065-2.304
				C56.171,29.989,56.156,29.974,56.14,29.958L56.14,29.958z M16.595,21.368v-6.057c-0.035-2.979,1.23-5.827,3.467-7.797
				c4.321-3.894,10.886-3.894,15.206,0c2.236,1.97,3.502,4.817,3.467,7.797v6.056c-0.322,2.702-1.307,5.282-2.867,7.511
				c-0.413,0.619-0.868,1.209-1.362,1.766l0,0c-0.496,0.559-1.041,1.072-1.629,1.534c-0.012,0.008-0.022,0.02-0.034,0.028
				c-3.002,2.473-7.336,2.473-10.339,0c-0.011-0.011-0.023-0.021-0.034-0.031c-0.588-0.461-1.134-0.974-1.63-1.533l-0.006-0.007
				c-0.494-0.555-0.948-1.145-1.359-1.763C17.909,26.646,16.921,24.069,16.595,21.368z M33.895,39.014
				c-1.724,1.308-3.814,2.037-5.978,2.086c-0.056,0-0.113,0-0.169,0h-0.167c-0.057,0-0.113,0-0.169,0
				c-2.162-0.049-4.254-0.778-5.977-2.086c0.85-0.767,1.344-1.85,1.368-2.994v-1.491c3.007,1.745,6.717,1.745,9.723,0v1.492
				C32.55,37.165,33.045,38.248,33.895,39.014z M39.405,41.645c-7.464,3.37-16.016,3.37-23.479,0l-0.216-0.096l-0.057-0.027
				l-0.158-0.073l-0.052-0.024c-0.138-0.064-0.269-0.129-0.393-0.193l-0.019-0.007l-0.169-0.087l-0.022-0.012
				c-0.184-0.096-0.354-0.188-0.509-0.275l0,0c-0.157-0.089-0.3-0.175-0.431-0.255l-0.01-0.006l-0.112-0.071l-0.016-0.012
				l-0.112-0.072l0,0l-0.096-0.067l-0.045-0.032l-0.042-0.03l-0.058-0.041l-0.015-0.01c-0.226-0.159-0.434-0.342-0.622-0.544
				l-0.015-0.017c-0.067-0.073-0.125-0.156-0.174-0.243c-0.551-1.064-0.466-2.347,0.22-3.33c0.78-1.021,3.11-2.001,4.984-2.789
				c0.804-0.34,1.576-0.664,2.213-0.982c0.332,0.339,0.681,0.661,1.045,0.965v2.714c0.011,0.869-0.525,1.65-1.339,1.953
				c-0.479,0.097-0.789,0.563-0.693,1.042c0.035,0.176,0.124,0.337,0.252,0.461c2.18,2.109,5.075,3.318,8.106,3.387
				c0.073,0,0.146,0,0.219,0h0.153c0.072,0,0.146,0,0.22,0c3.033-0.069,5.927-1.28,8.105-3.391c0.352-0.341,0.36-0.9,0.021-1.252
				c-0.126-0.128-0.285-0.216-0.462-0.252c-0.812-0.307-1.343-1.089-1.328-1.956v-2.714c0.364-0.305,0.714-0.625,1.045-0.965
				c0.638,0.318,1.408,0.644,2.213,0.982c1.076,0.453,2.276,0.958,3.259,1.498v6.132l0,0C40.397,41.175,39.927,41.409,39.405,41.645
				L39.405,41.645z M47.901,38.698c0.457-0.243,0.908-0.498,1.354-0.767c0.007,0.041,0.011,0.08,0.011,0.121V41.2
				c0,0.038-0.003,0.076-0.009,0.116l-1.355-0.479V38.698L47.901,38.698z M42.811,45.731c-0.126,0-0.229-0.103-0.229-0.229V20.169
				h1.464v4.285c-0.009,1.252,0.424,2.468,1.223,3.432c0.559,0.66,0.863,1.495,0.863,2.359v15.486H42.811L42.811,45.731z
				 M46.371,47.5l2.995,9.347l-3.834,1.027L44.151,47.5H46.371z M45.978,61.196l-0.207-1.554l4.135-1.108l0.479,1.48L45.978,61.196z
				 M47.901,46.478v-0.612l2.558,0.9c0.501,1.17,0.758,2.43,0.756,3.701v6.35L47.901,46.478z M52.553,44.358l-0.397,1.129
				l-4.252-1.497v-1.271L52.553,44.358z M47.901,36.68v-2.925c1.849-1.2,3.554-2.608,5.081-4.195l1.886,1.637
				c-2.049,2.151-4.395,3.996-6.967,5.481V36.68z"/>
		</g>
	</g>
</g>
</svg>
