<?xml version="1.0" encoding="utf-8"?>
<!-- Generator: Adobe Illustrator 14.0.0, SVG Export Plug-In . SVG Version: 6.00 Build 43363)  -->
<!DOCTYPE svg PUBLIC "-//W3C//DTD SVG 1.1//EN" "http://www.w3.org/Graphics/SVG/1.1/DTD/svg11.dtd">
<svg version="1.1" id="briefcase" xmlns="http://www.w3.org/2000/svg" xmlns:xlink="http://www.w3.org/1999/xlink" x="0px" y="0px"
	 width="63px" height="63px" viewBox="0 0 63 63" enable-background="new 0 0 63 63" xml:space="preserve">
<g id="Group_2576">
	
		<linearGradient id="Path_17586_1_" gradientUnits="userSpaceOnUse" x1="20.0713" y1="21.7861" x2="20.0713" y2="20.7861" gradientTransform="matrix(21 0 0 -10.5 -390 232.9532)">
		<stop  offset="0.13" style="stop-color:#00A9ED"/>
		<stop  offset="1" style="stop-color:#65106B"/>
	</linearGradient>
	<path id="Path_17586" fill="url(#Path_17586_1_)" d="M40.95,14.7c0.579,0,1.05-0.47,1.05-1.05l0,0v-8.4
		c0-0.58-0.471-1.05-1.05-1.05l0,0h-18.9C21.47,4.2,21,4.67,21,5.25l0,0v8.4c0,0.58,0.47,1.05,1.05,1.05c0.58,0,1.05-0.47,1.05-1.05
		V6.3h16.8v7.35C39.9,14.23,40.37,14.7,40.95,14.7L40.95,14.7L40.95,14.7z"/>
	
		<linearGradient id="Path_17587_1_" gradientUnits="userSpaceOnUse" x1="11.3574" y1="48.6094" x2="11.3574" y2="47.6094" gradientTransform="matrix(63 0 0 -46.2 -683.9999 2262.5879)">
		<stop  offset="0.13" style="stop-color:#00A9ED"/>
		<stop  offset="1" style="stop-color:#65106B"/>
	</linearGradient>
	<path id="Path_17587" fill="url(#Path_17587_1_)" d="M60.9,16.8H2.1c-1.16,0-2.1,0.94-2.1,2.1l0,0v10.5c0,1.16,0.94,2.1,2.1,2.1
		l0,0h19.95c0.58,0,1.05-0.47,1.05-1.05c0-0.58-0.47-1.05-1.05-1.05l0,0H2.1V18.9h58.8v10.5H59.85c-0.58,0-1.05,0.47-1.05,1.05l0,0
		v27.3c-0.002,1.738-1.411,3.148-3.149,3.15H7.35c-1.739-0.002-3.148-1.412-3.15-3.15v-23.1c0-0.58-0.47-1.051-1.05-1.051
		c-0.58,0-1.05,0.471-1.05,1.051v23.1c0.003,2.898,2.352,5.246,5.25,5.25h48.3c2.898-0.004,5.246-2.352,5.25-5.25V31.5
		c1.159,0,2.1-0.94,2.1-2.1l0,0V18.9C63,17.74,62.06,16.8,60.9,16.8L60.9,16.8z"/>
	
		<linearGradient id="Path_17588_1_" gradientUnits="userSpaceOnUse" x1="16.3374" y1="31.7041" x2="16.3374" y2="30.7041" gradientTransform="matrix(29.4 0 0 -14.7 -448.8003 466.0485)">
		<stop  offset="0.13" style="stop-color:#00A9ED"/>
		<stop  offset="1" style="stop-color:#65106B"/>
	</linearGradient>
	<path id="Path_17588" fill="url(#Path_17588_1_)" d="M17.85,14.7c0.58,0,1.05-0.47,1.05-1.05l0,0V2.1h25.2v11.55
		c0,0.58,0.471,1.05,1.051,1.05s1.05-0.47,1.05-1.05l0,0V2.1C46.2,0.94,45.26,0,44.1,0l0,0H18.9c-1.16,0-2.1,0.94-2.1,2.1l0,0v11.55
		C16.8,14.23,17.27,14.7,17.85,14.7L17.85,14.7z"/>
	
		<linearGradient id="Path_17589_1_" gradientUnits="userSpaceOnUse" x1="137.7129" y1="42.0352" x2="137.7129" y2="41.0352" gradientTransform="matrix(2.1 0 0 -25.2 -237.751 1092.9004)">
		<stop  offset="0.13" style="stop-color:#00A9ED"/>
		<stop  offset="1" style="stop-color:#65106B"/>
	</linearGradient>
	<path id="Path_17589" fill="url(#Path_17589_1_)" d="M50.4,34.65v23.1c0,0.58,0.47,1.05,1.05,1.05c0.579,0,1.05-0.47,1.05-1.05
		v-23.1c0-0.58-0.471-1.051-1.05-1.051C50.87,33.6,50.4,34.07,50.4,34.65z"/>
	
		<linearGradient id="Path_17590_1_" gradientUnits="userSpaceOnUse" x1="137.7139" y1="42.0342" x2="137.7139" y2="41.0342" gradientTransform="matrix(2.1 0 0 -25.1975 -277.6492 1092.7588)">
		<stop  offset="0.13" style="stop-color:#00A9ED"/>
		<stop  offset="1" style="stop-color:#65106B"/>
	</linearGradient>
	<path id="Path_17590" fill="url(#Path_17590_1_)" d="M12.6,57.75v-23.1c-0.001-0.58-0.471-1.05-1.051-1.049
		c-0.579,0-1.048,0.47-1.049,1.049v23.1c0,0.58,0.471,1.049,1.051,1.049C12.13,58.799,12.599,58.329,12.6,57.75z"/>
	
		<linearGradient id="Path_17591_1_" gradientUnits="userSpaceOnUse" x1="15.7144" y1="34.8037" x2="15.7144" y2="33.8037" gradientTransform="matrix(31.5 0 0 -16.8 -454.0474 612.0063)">
		<stop  offset="0.13" style="stop-color:#00A9ED"/>
		<stop  offset="1" style="stop-color:#65106B"/>
	</linearGradient>
	<path id="Path_17591" fill="url(#Path_17591_1_)" d="M56.701,30.45c0-0.58-0.471-1.05-1.051-1.05l0,0h-17.85
		c0-1.16-0.939-2.1-2.1-2.1l0,0h-8.4c-1.16,0-2.1,0.94-2.1,2.1l0,0v8.4c0,3.479,2.82,6.3,6.3,6.3s6.3-2.82,6.3-6.3l0,0v-6.3h17.85
		C56.23,31.5,56.701,31.03,56.701,30.45L56.701,30.45L56.701,30.45z M35.701,37.8c0.002,2.319-1.875,4.202-4.195,4.205
		c-2.319,0.003-4.202-1.876-4.205-4.195c0-0.003,0-0.007,0-0.01v-8.4h8.4V37.8z"/>
	
		<linearGradient id="Path_17592_1_" gradientUnits="userSpaceOnUse" x1="72.3574" y1="-30.2856" x2="72.3574" y2="-31.2856" gradientTransform="matrix(4.2 0 0 -4.2 -272.3999 -91.498)">
		<stop  offset="0.13" style="stop-color:#00A9ED"/>
		<stop  offset="1" style="stop-color:#65106B"/>
	</linearGradient>
	<path id="Path_17592" fill="url(#Path_17592_1_)" d="M31.5,39.9c1.16,0,2.1-0.94,2.1-2.101c0-1.159-0.939-2.1-2.1-2.1
		c-1.16,0-2.1,0.94-2.1,2.1C29.4,38.96,30.34,39.9,31.5,39.9L31.5,39.9z"/>
</g>
</svg>
