<?xml version="1.0" encoding="utf-8"?>
<!-- Generator: Adobe Illustrator 16.0.0, SVG Export Plug-In . SVG Version: 6.00 Build 0)  -->
<!DOCTYPE svg PUBLIC "-//W3C//DTD SVG 1.1//EN" "http://www.w3.org/Graphics/SVG/1.1/DTD/svg11.dtd">
<svg version="1.1" id="Layer_1" xmlns="http://www.w3.org/2000/svg" xmlns:xlink="http://www.w3.org/1999/xlink" x="0px" y="0px"
	 width="63px" height="62.165px" viewBox="0 0 63 62.165" enable-background="new 0 0 63 62.165" xml:space="preserve">
<g id="money_1_" transform="translate(0 -0.222)">
	
		<linearGradient id="Path_17446_1_" gradientUnits="userSpaceOnUse" x1="-269.2847" y1="419.9686" x2="-269.2847" y2="418.9686" gradientTransform="matrix(63 0 0 -49.69 16996.4063 20880.9199)">
		<stop  offset="0" style="stop-color:#00A9E0"/>
		<stop  offset="1" style="stop-color:#801C7D"/>
	</linearGradient>
	<path id="Path_17446" fill="url(#Path_17446_1_)" d="M54.339,39.92c-0.333-0.166-0.688-0.283-1.055-0.349
		c-0.972-0.188-1.979-0.021-2.837,0.474l-11.564,6.672c-0.223-0.586-0.574-1.115-1.029-1.549L63,30.649L52.639,12.701L31.6,24.847
		L10.562,12.701L0.2,30.649l17.287,9.978h-1.821c-0.939,0.002-1.861,0.257-2.667,0.738l-2.638,1.579v-3.353H0V62.39h10.361v-3.635
		l3.03,1.2c0.607,0.245,1.257,0.368,1.912,0.366h16.67c0.965,0,1.912-0.269,2.732-0.777L54.6,47.226
		c1.28-0.74,2.064-2.109,2.055-3.588c0-0.728-0.189-1.441-0.551-2.072c-0.408-0.713-1.023-1.286-1.763-1.643L54.339,39.92z
		 M60.169,29.89l-24.5,14.145l-6.631-1.771l-5.865-10.152l28.709-16.577L60.169,29.89z M21.907,34.058
		c-1.533,0.216-2.986-0.748-3.382-2.244c-0.217-0.798-0.104-1.649,0.311-2.364c0.866-1.484,2.766-1.992,4.257-1.139
		c0.385,0.225,0.714,0.532,0.965,0.9l-3.711,2.142L21.907,34.058z M3.032,29.89l8.288-14.363l18.208,10.512l-3.685,2.128
		c-0.435-0.683-1.028-1.252-1.729-1.658c-2.473-1.449-5.652-0.62-7.102,1.853c-1.45,2.473-0.62,5.653,1.853,7.103
		c1.25,0.732,2.749,0.908,4.135,0.487l3.211,5.558l-2.621-0.701c-0.439-0.117-0.892-0.179-1.347-0.18h-0.614L3.032,29.89z
		 M8.289,60.314H2.073V41.666h6.216V60.314z M53.527,45.448L33.615,57.777c-0.493,0.305-1.062,0.466-1.641,0.466H15.3
		c-0.39,0.001-0.777-0.073-1.14-0.218l-3.8-1.5V45.362l3.7-2.216c0.483-0.289,1.036-0.442,1.6-0.444h6.579
		c0.273,0.001,0.545,0.038,0.809,0.11l5.038,1.347l5.623,1.5l1.878,0.5c0.803,0.249,1.38,0.952,1.47,1.788
		c-0.001,0.248-0.021,0.496-0.061,0.74c-0.241,0.896-1.049,1.522-1.977,1.533c-0.153-0.01-0.764-0.135-1.199-0.233l-10.765-2.88
		l-0.534,2l10.799,2.89c0.549,0.147,1.107,0.248,1.673,0.3c1.876-0.002,3.517-1.26,4.007-3.07c0.018-0.063,0.018-0.129,0.031-0.193
		l12.447-7.189c0.43-0.246,0.934-0.328,1.418-0.231c0.184,0.032,0.36,0.091,0.526,0.174c0.365,0.175,0.669,0.456,0.872,0.808
		c0.184,0.318,0.281,0.679,0.282,1.047c0.003,0.75-0.399,1.443-1.054,1.813L53.527,45.448z"/>
	
		<linearGradient id="Path_17447_1_" gradientUnits="userSpaceOnUse" x1="-247.8643" y1="390.1981" x2="-247.8643" y2="389.1981" gradientTransform="matrix(10.3606 0 0 -10.3537 2609.6943 4065.8184)">
		<stop  offset="0" style="stop-color:#00A9E0"/>
		<stop  offset="1" style="stop-color:#801C7D"/>
	</linearGradient>
	<path id="Path_17447" fill="url(#Path_17447_1_)" d="M37.188,33.592c1.431,2.475,4.597,3.32,7.071,1.889
		c2.475-1.431,3.321-4.597,1.89-7.071c-1.432-2.475-4.598-3.321-7.072-1.89c-0.293,0.169-0.569,0.368-0.824,0.592
		C36.387,28.735,35.939,31.455,37.188,33.592z M38.672,30.191c0.447-1.657,2.152-2.639,3.81-2.192s2.64,2.152,2.192,3.81
		c-0.446,1.656-2.152,2.639-3.809,2.191c-0.262-0.07-0.512-0.174-0.746-0.309C38.899,32.986,38.306,31.551,38.672,30.191z"/>
	
		<linearGradient id="Path_17449_1_" gradientUnits="userSpaceOnUse" x1="-260.6821" y1="409.0145" x2="-260.6821" y2="408.0145" gradientTransform="matrix(20.722 0 0 -20.722 5432.9429 8475.8105)">
		<stop  offset="0" style="stop-color:#00A9E0"/>
		<stop  offset="1" style="stop-color:#801C7D"/>
	</linearGradient>
	<path id="Path_17449" fill="url(#Path_17449_1_)" d="M31.083,20.944c5.722,0,10.36-4.639,10.36-10.361S36.805,0.222,31.083,0.222
		c-5.722,0-10.361,4.639-10.361,10.361l0,0C20.722,16.305,25.361,20.944,31.083,20.944z M31.083,2.295
		c4.577,0,8.289,3.711,8.289,8.289c0,4.578-3.712,8.289-8.289,8.289c-4.578,0-8.289-3.711-8.289-8.289
		C22.797,6.008,26.507,2.3,31.083,2.3V2.295z"/>
</g>
</svg>
