<svg xmlns="http://www.w3.org/2000/svg" xmlns:xlink="http://www.w3.org/1999/xlink" width="72" height="72.002" viewBox="0 0 72 72.002">
  <defs>
    <linearGradient id="linear-gradient" x1="0.5" x2="0.5" y2="1" gradientUnits="objectBoundingBox">
      <stop offset="0.13" stop-color="#00a9ed"/>
      <stop offset="1" stop-color="#65106b"/>
    </linearGradient>
  </defs>
  <path id="Union_64" data-name="Union 64" d="M1334.473,20107.076a3.18,3.18,0,0,1-.853-2.928l-14.771-14.766a3.176,3.176,0,0,1-2.927-.857,3.227,3.227,0,0,1,.025-4.543c4.466-4.465,11.829-4.672,18.213-3.7a25.963,25.963,0,0,1-.4-3.24,22.211,22.211,0,0,1,2.644-12.449,1.053,1.053,0,0,1,1.832,1.039,20.133,20.133,0,0,0-2.367,11.279,23.94,23.94,0,0,0,.52,3.754c.8.156,1.62.344,2.417.535a22.534,22.534,0,0,1-.737-4.512c-.343-5.258,1.226-9.906,4.416-13.1a14.47,14.47,0,0,1,3.81-2.719.343.343,0,0,0,.1-.566,2.358,2.358,0,0,0-2.977-.271,16.735,16.735,0,0,0-2.362,1.928,1.055,1.055,0,0,1-1.479-1.5,18.67,18.67,0,0,1,2.665-2.176,4.481,4.481,0,0,1,5.642.531,2.478,2.478,0,0,1-.651,3.951,12.641,12.641,0,0,0-2.362,1.518l13.858,13.863a13.143,13.143,0,0,0,2.387-4.582l-7.807-7.807a1.053,1.053,0,0,1,1.489-1.488l6.833,6.832a21.237,21.237,0,0,0-.888-8.826,23.56,23.56,0,0,0-5.294-.994,2.539,2.539,0,0,1-2.735-2.881,4.017,4.017,0,0,1,4.406-3.336c.636.07,1.4.162,2.1.262a34.631,34.631,0,0,1-.3-8.992,15.3,15.3,0,0,1,4.062-9.371,3.186,3.186,0,0,1,5.324,3.184l14.5,14.58a3.186,3.186,0,0,1,3.245,5.3,14.968,14.968,0,0,1-8.609,3.967,1.056,1.056,0,0,1-.308-2.09,12.862,12.862,0,0,0,7.423-3.369,1.086,1.086,0,1,0-1.534-1.535c-2.19,2.2-5.642,2.938-9.311,2.938a41.6,41.6,0,0,1-8.761-1.08c-3.6-.793-4.315-1.348-8.069-1.7a1.9,1.9,0,0,0-2.089,1.584c-.056.465.464.414.787.436,3.644.172,7.413,1.734,10.986,2.295a41.726,41.726,0,0,0,5.844.662,1.055,1.055,0,0,1-.035,2.109h-.04a41.9,41.9,0,0,1-4.6-.445,28.268,28.268,0,0,1,.409,3.271c.424,6.525-1.6,12.379-5.7,16.477-4.688,4.865-12.546,6.727-19.712,5.3a34.738,34.738,0,0,1,.343,8.633,1.055,1.055,0,1,1-2.1-.211,33.767,33.767,0,0,0-.459-8.928c-.807-.223-1.575-.459-2.4-.66,1.115,5.783,1.458,12.768-2.12,16.35a1.084,1.084,0,1,0,1.534,1.529,10.879,10.879,0,0,0,2.407-3.77,1.056,1.056,0,0,1,1.968.768,13.061,13.061,0,0,1-2.887,4.5,3.171,3.171,0,0,1-2.3.949A3.089,3.089,0,0,1,1334.473,20107.076Zm-13.752-18.809,14.014,14.014a9.168,9.168,0,0,0,1.913-5.076l-10.885-10.83A9.178,9.178,0,0,0,1320.721,20088.268Zm16.043,6.076a40.751,40.751,0,0,0-.913-7.2,39.15,39.15,0,0,0-7.222-.9Zm-19.323-8.867a1.084,1.084,0,1,0,1.534,1.529c2.256-2.256,6.111-3.2,11.466-2.791,6.384.373,10.048,2.5,15.654,2.922,5.91.385,11.188-1.422,14.852-5.086s5.47-8.937,5.087-14.852a26.829,26.829,0,0,0-.53-3.791c-.792-.15-1.6-.328-2.412-.525a24.352,24.352,0,0,1,.737,4.537c.343,5.254-1.226,9.906-4.416,13.1s-7.842,4.76-13.1,4.416c-3.654-.156-7.383-1.752-11.032-2.332a39.008,39.008,0,0,0-7-.7C1324.13,20081.9,1320.124,20082.795,1317.441,20085.477Zm23.577-4.193c.056.182.106.363.156.545a20.57,20.57,0,0,0,9.159.848l-2.493-2.492a1.055,1.055,0,0,1,1.494-1.49l3.422,3.422a12.9,12.9,0,0,0,4.491-2.467l-13.893-13.9a12.939,12.939,0,0,0-2.473,4.492l4.971,4.971a1.053,1.053,0,1,1-1.489,1.488l-4.042-4.037A20.167,20.167,0,0,0,1341.018,20081.283Zm25.046-24.35a41.084,41.084,0,0,0,6.939.879l-7.812-7.818A40.4,40.4,0,0,0,1366.064,20056.934Zm-.782-9.83,10.613,10.613a9.874,9.874,0,0,0,5.142-1.777l-13.938-14.02A9.8,9.8,0,0,0,1365.282,20047.1Zm-.812-8.66c-4.173,4.174-4.007,11.592-3.048,17.324.823.223,1.373.4,2.387.65-1.1-5.809-1.418-12.828,2.2-16.441a1.1,1.1,0,0,0,.025-1.559,1.049,1.049,0,0,0-.752-.309A1.147,1.147,0,0,0,1364.47,20038.443Zm-19.979,16.008-5.622-5.971a1.055,1.055,0,0,1,1.534-1.447l5.627,5.969a1.057,1.057,0,0,1-1.539,1.449Zm8.675-1.529a1.058,1.058,0,0,1-.661-1.338l2.619-7.771a1.054,1.054,0,0,1,2,.672l-2.619,7.771a1.059,1.059,0,0,1-1.005.721A1.03,1.03,0,0,1,1353.165,20052.922Zm-4.234-1.105a1.056,1.056,0,0,1-1.03-.828l-1.807-8.246a1.056,1.056,0,0,1,2.064-.449l1.8,8.242a1.057,1.057,0,0,1-1.014,1.281Z" transform="translate(-1315 -20035.998)" fill="url(#linear-gradient)"/>
</svg>
