<?xml version="1.0" encoding="utf-8"?>
<!-- Generator: Adobe Illustrator 16.0.0, SVG Export Plug-In . SVG Version: 6.00 Build 0)  -->
<!DOCTYPE svg PUBLIC "-//W3C//DTD SVG 1.1//EN" "http://www.w3.org/Graphics/SVG/1.1/DTD/svg11.dtd">
<svg version="1.1" id="Layer_1" xmlns="http://www.w3.org/2000/svg" xmlns:xlink="http://www.w3.org/1999/xlink" x="0px" y="0px"
	 width="53.118px" height="63px" viewBox="0 0 53.118 63" enable-background="new 0 0 53.118 63" xml:space="preserve">
<g id="Group_1980" transform="translate(0 36.378)">
	<g id="Group_1979">
		
			<linearGradient id="Path_16772_1_" gradientUnits="userSpaceOnUse" x1="-274.5488" y1="379.3017" x2="-274.5488" y2="378.579" gradientTransform="matrix(67.73 0 0 -31.352 18622.1016 11889.1699)">
			<stop  offset="0" style="stop-color:#6BC4F0"/>
			<stop  offset="1" style="stop-color:#801C7D"/>
		</linearGradient>
		<path id="Path_16772" fill="url(#Path_16772_1_)" d="M48.069,7.514c0.341-0.909,0.515-1.872,0.513-2.843
			c0-4.063-2.962-7.366-6.602-7.366c-3.641,0-6.602,3.304-6.602,7.366c-0.002,0.971,0.171,1.935,0.512,2.845
			c-1.856,0.728-3.129,2.457-3.272,4.446c-0.648-0.533-1.419-0.898-2.242-1.065c0.274-0.604,0.415-1.257,0.414-1.92
			c0.098-2.27-1.654-4.192-3.923-4.306c-2.27,0.113-4.021,2.036-3.923,4.306c-0.001,0.663,0.14,1.316,0.413,1.92
			c-0.823,0.167-1.593,0.532-2.242,1.065c-0.139-1.99-1.414-3.723-3.273-4.447c0.34-0.909,0.514-1.872,0.512-2.844
			c-0.004-4.063-2.963-7.366-6.605-7.366c-3.642,0-6.601,3.304-6.601,7.366C5.145,5.642,5.319,6.604,5.659,7.514
			c-1.981,0.773-3.287,2.684-3.286,4.811v6.698c0,0.528,0.428,0.956,0.957,0.956H50.4c0.528,0,0.956-0.428,0.956-0.956v-6.698
			C51.355,10.198,50.049,8.29,48.069,7.514z M11.749-0.782c2.585,0,4.688,2.446,4.688,5.453c0,3.006-2.103,5.453-4.688,5.453
			S7.061,7.677,7.061,4.671C7.061,1.664,9.164-0.782,11.749-0.782z M4.286,18.065v-5.741c0.009-1.419,0.93-2.67,2.281-3.102
			c0.026,0.037,3.745,8.842,3.745,8.842L4.286,18.065z M9.7,11.673c1.322,0.486,2.775,0.486,4.098,0l-2.049,4.877L9.7,11.673z
			 M19.211,18.065h-6.023c0,0,3.719-8.806,3.745-8.842c1.351,0.432,2.27,1.684,2.279,3.101V18.065z M26.865,6.585
			c1.321,0.232,2.203,1.492,1.969,2.813c-0.177,1.006-0.965,1.793-1.969,1.971c-1.322-0.233-2.204-1.493-1.971-2.813
			C25.072,7.549,25.859,6.762,26.865,6.585z M32.603,18.065H21.125v-2.103c0-1.797,1.457-3.254,3.254-3.254h0.535
			c1.189,0.765,2.716,0.765,3.905,0h0.53c1.798,0,3.254,1.457,3.254,3.254V18.065z M41.98-0.782c2.585,0,4.688,2.446,4.688,5.453
			c0,3.006-2.103,5.453-4.688,5.453s-4.688-2.447-4.688-5.453C37.292,1.664,39.395-0.782,41.98-0.782L41.98-0.782z M49.442,18.065
			H34.517v-5.741c0.003-1.421,0.925-2.676,2.281-3.102c1.859,2.864,5.688,3.678,8.552,1.817c0.726-0.472,1.346-1.091,1.817-1.817
			c1.355,0.427,2.276,1.683,2.277,3.102L49.442,18.065z"/>
	</g>
</g>
<g id="Group_1982" transform="translate(0)">
	<g id="Group_1981">
		
			<linearGradient id="Path_16773_1_" gradientUnits="userSpaceOnUse" x1="-274.5488" y1="418.9775" x2="-274.5488" y2="418.2539" gradientTransform="matrix(67.729 0 0 -43.9244 18621.8242 18410.6777)">
			<stop  offset="0" style="stop-color:#6BC4F0"/>
			<stop  offset="1" style="stop-color:#801C7D"/>
		</linearGradient>
		<path id="Path_16773" fill="url(#Path_16773_1_)" d="M44.093,12.553c-2.334-1.771-4.979-3.09-7.798-3.889
			c-3.065-0.88-6.242-1.315-9.43-1.291c-3.19-0.024-6.367,0.411-9.432,1.291c-2.819,0.799-5.462,2.118-7.796,3.889
			c-4.752,3.685-7.264,9.039-7.264,15.484v1.914c0,0.528,0.428,0.957,0.957,0.957c0.529,0,0.957-0.428,0.957-0.957l0,0v-0.955h5.741
			v0.957c0,0.528,0.428,0.957,0.957,0.957c0.528,0,0.956-0.429,0.956-0.957v-0.957h6.123v0.957c0,0.528,0.429,0.957,0.957,0.957
			s0.957-0.428,0.957-0.957l0,0v-0.957h5.93v9.185c0,0.528,0.428,0.957,0.957,0.957s0.957-0.428,0.957-0.957l0,0v-9.185h5.931v0.957
			c0,0.528,0.428,0.957,0.956,0.957s0.957-0.429,0.958-0.957v-0.957h6.123v0.957c0,0.528,0.429,0.957,0.957,0.957
			s0.956-0.429,0.956-0.957v-0.957h5.74v0.957c0,0.528,0.428,0.957,0.956,0.957c0.53,0,0.958-0.429,0.958-0.957v-1.916
			C51.356,21.592,48.844,16.238,44.093,12.553z M11.63,19.125c-0.98,2.542-1.519,5.232-1.591,7.956H4.308
			c0.37-8.304,5.586-14.324,13.99-16.689c-0.927,0.672-1.791,1.429-2.578,2.261c-0.852,0.899-1.616,1.877-2.281,2.922
			C12.723,16.698,12.118,17.886,11.63,19.125z M18.076,27.081H11.96c0.242-6.569,2.899-10.741,5.146-13.113
			c1.963-2.106,4.478-3.618,7.258-4.365c-0.827,1.015-1.576,2.091-2.242,3.218c-2.537,4.333-3.929,9.24-4.044,14.261L18.076,27.081z
			 M19.99,27.081L19.99,27.081c0.114-4.647,1.398-9.191,3.732-13.211c0.884-1.517,1.938-2.928,3.143-4.206
			c4.333,4.775,6.778,10.969,6.871,17.417H19.99z M43.682,27.081c-0.049-1.5-0.228-2.992-0.537-4.459
			c-0.096-0.44-0.484-0.753-0.936-0.755c-0.528-0.003-0.959,0.423-0.96,0.952c-0.002,0.069,0.006,0.138,0.021,0.205
			c0.28,1.335,0.446,2.693,0.492,4.058H35.65c-0.114-5.02-1.504-9.927-4.04-14.259c-0.666-1.126-1.415-2.201-2.241-3.216
			c1.241,0.312,2.434,0.795,3.542,1.435c2.248,1.306,4.16,3.116,5.589,5.288c0.313,0.424,0.913,0.513,1.337,0.198
			c0.395-0.292,0.505-0.835,0.253-1.257c-0.827-1.249-1.799-2.398-2.893-3.423c-0.56-0.521-1.149-1.006-1.769-1.454
			c8.407,2.365,13.623,8.385,13.992,16.69H43.682z"/>
	</g>
</g>
<g id="Group_1984" transform="translate(52.203 14.993)">
	<g id="Group_1983">
		
			<linearGradient id="Path_16774_1_" gradientUnits="userSpaceOnUse" x1="-232.9745" y1="264.6046" x2="-232.9745" y2="263.882" gradientTransform="matrix(2.6426 0 0 -2.6427 604.5372 702.4915)">
			<stop  offset="0" style="stop-color:#6BC4F0"/>
			<stop  offset="1" style="stop-color:#801C7D"/>
		</linearGradient>
		<path id="Path_16774" fill="url(#Path_16774_1_)" d="M-10.235,3.815c-0.202-0.487-0.762-0.718-1.249-0.516
			c-0.487,0.202-0.717,0.761-0.516,1.249c0.202,0.487,0.762,0.718,1.249,0.516c0.233-0.097,0.418-0.282,0.516-0.516
			C-10.137,4.314-10.137,4.049-10.235,3.815z"/>
	</g>
</g>
</svg>
