<svg xmlns="http://www.w3.org/2000/svg" xmlns:xlink="http://www.w3.org/1999/xlink" width="71.002" height="62.582" viewBox="0 0 71.002 62.582">
  <defs>
    <linearGradient id="linear-gradient" x1="0.5" x2="0.5" y2="1" gradientUnits="objectBoundingBox">
      <stop offset="0.13" stop-color="#00a9ed"/>
      <stop offset="1" stop-color="#65106b"/>
    </linearGradient>
  </defs>
  <path id="Union_71" data-name="Union 71" d="M1346.126,20096.871l-14.462-6.572a71.534,71.534,0,0,1-13.261-7.859l-1.372-1.029a5.081,5.081,0,0,1,1.816-8.994,9.606,9.606,0,0,1,5.175.143v-4.379a1.19,1.19,0,0,1,1.2-1.189h1.19v-2.387h-1.19a1.194,1.194,0,0,1-1.2-1.189v-4.768a1.2,1.2,0,0,1,1.2-1.2h3.7a8.336,8.336,0,0,1,5.831-14.3v-2.381a1.2,1.2,0,0,1,.434-.922,1.186,1.186,0,0,1,.989-.248,15.049,15.049,0,0,0,10.411-1.689l3.067-1.75a1.18,1.18,0,0,1,1.185,0l3.067,1.75a15.049,15.049,0,0,0,10.411,1.689,1.19,1.19,0,0,1,1.422,1.17v7.279c0,.752-.03,1.5-.086,2.254h4.938a9.273,9.273,0,0,0,8.3-5.129l1.276-2.559a1.208,1.208,0,0,1,.762-.615,1.182,1.182,0,0,1,.969.162l3.576,2.381a1.193,1.193,0,0,1,.4,1.523l-.59,1.176a16.3,16.3,0,0,1-5.538,6.279c-.187.121-.373.242-.565.354h5.629a1.2,1.2,0,0,1,1.19,1.2v17.785c0,.016-.005.031-.005.045a.146.146,0,0,1,.005.047v23.838a1.193,1.193,0,0,1-1.19,1.191h-9.539a1.193,1.193,0,0,1-1.19-1.191v-1l-17.236,2.588a18.875,18.875,0,0,1-2.83.213A19.069,19.069,0,0,1,1346.126,20096.871Zm-26.7-22.139a2.692,2.692,0,0,0-.964,4.771l1.367,1.023a68.509,68.509,0,0,0,12.817,7.6l14.467,6.576a16.634,16.634,0,0,0,9.377,1.313l17.589-2.639v-19.238h-5.957a1.224,1.224,0,0,1-.58-.146l-3.95-2.2a12.835,12.835,0,0,0-7.713-1.508,30.335,30.335,0,0,1-5.034,3.693,1.2,1.2,0,0,1-1.206,0c-.378-.223-.752-.455-1.125-.691l-1.271.705a1.2,1.2,0,0,1-.575.146h-7.153a3.576,3.576,0,1,0,0,7.152h15.637a1.193,1.193,0,0,1,0,2.387h-15.637a5.97,5.97,0,0,1-5.9-5.105l-9.962-3.621a7.215,7.215,0,0,0-4.232-.217Zm57.039,20.857h7.148v-21.453h-7.148Zm-42.684-19.5a5.951,5.951,0,0,1,.974-1.957h-6.351Zm39.107-4.338h10.724v-3.576h-10.724Zm-4.767-.172.308.172h2.073v-19.072h-2.381Zm-27.415.172h5.65a30.743,30.743,0,0,1-3.38-3.066,1.193,1.193,0,0,1-1.074.682h-1.2Zm-4.767,0h2.386v-2.385h-2.386Zm-4.767,0h2.386v-2.385h-2.386Zm-4.767,0h2.381v-2.385h-2.381Zm10.724-23.707a27.734,27.734,0,0,0,13.11,23.506,27.727,27.727,0,0,0,13.115-23.506v-5.887a17.446,17.446,0,0,1-10.638-2.184l-2.477-1.412-2.472,1.412a17.446,17.446,0,0,1-10.638,2.184Zm27.617,21.664.989.545v-2.078h-5.014A15.169,15.169,0,0,1,1364.749,20069.713Zm-26.421-2.723h2.381v-1c-.338-.453-.666-.912-.979-1.387h-1.4Zm-4.767,0h2.381v-2.387h-2.381Zm-4.772,0h2.386v-2.387h-2.386Zm44.1-1.191h10.724v-3.576h-10.724Zm-11.143-2.8a30.579,30.579,0,0,1-1.826,2.8h5.816v-3.576h-3.556C1362.041,20062.48,1361.9,20062.742,1361.748,20063Zm-25.806-.777h2.366c-.414-.781-.8-1.574-1.14-2.387h-1.226Zm-4.767,0h2.386v-2.387h-2.386Zm-4.767,0h2.381v-2.387h-2.381Zm46.482-2.387h10.724v-3.576h-10.724Zm-9.569,0h2.416v-3.576h-1.15A30.912,30.912,0,0,1,1363.322,20059.836Zm-34.532-8.342a5.965,5.965,0,0,0,7.42,5.779c-.247-.76-.459-1.527-.646-2.3a3.577,3.577,0,1,1-.812-7.057v-2.381A5.966,5.966,0,0,0,1328.789,20051.494Zm36.379,2.381h.57v-1.191h-.363C1365.309,20053.082,1365.244,20053.48,1365.168,20053.875Zm15.854-7.633a11.676,11.676,0,0,1-8.131,6.215v1.246a13.921,13.921,0,0,0,10.265-7.525l.116-.232-1.579-1.055Zm-47.355,4.762a1.191,1.191,0,0,0,1.443,1.625c-.121-.768-.212-1.543-.267-2.32a.473.473,0,0,0-.091-.006A1.186,1.186,0,0,0,1333.667,20051Zm14.477,10.791-7.006-5.812a1.19,1.19,0,0,1-.146-1.684l2.926-3.471a1.2,1.2,0,0,1,1.68-.141l2.87,2.41,8.071-8.389a1.177,1.177,0,0,1,.858-.367h.005a1.177,1.177,0,0,1,.858.367l3.127,3.279a1.187,1.187,0,0,1,0,1.648l-11.622,12.066a1.182,1.182,0,0,1-1.619.092Zm-4.555-6.877,5.226,4.334,10.058-10.447-1.478-1.549-7.98,8.3a1.19,1.19,0,0,1-1.624.086l-2.815-2.367Z" transform="translate(-1314.999 -20036)" fill="url(#linear-gradient)"/>
</svg>
