<svg xmlns="http://www.w3.org/2000/svg" xmlns:xlink="http://www.w3.org/1999/xlink" width="57.91" height="72.001" viewBox="0 0 57.91 72.001">
  <defs>
    <linearGradient id="linear-gradient" x1="0.5" x2="0.5" y2="1" gradientUnits="objectBoundingBox">
      <stop offset="0.13" stop-color="#00a9ed"/>
      <stop offset="1" stop-color="#65106b"/>
    </linearGradient>
  </defs>
  <g id="home-insurance" transform="translate(-0.477 0.001)">
    <path id="Path_19293" data-name="Path 19293" d="M73.282,134.729a1.171,1.171,0,0,0-.342,1.313,1.188,1.188,0,0,0,1.137.762h2.518v17.279a1.27,1.27,0,0,0,1.233,1.247l25.681.272h.011a1.324,1.324,0,0,0,1.271-1.28V136.8h2.822a1.184,1.184,0,0,0,.8-2.087L91.661,120.183a1.213,1.213,0,0,0-1.589,0Zm20.595,18.29-5.912-.056v-6.912h5.912Zm8.489.078-6.064-.056v-8.2a1.169,1.169,0,0,0-1.159-1.214H86.683a1.157,1.157,0,0,0-1.144,1.214v8.1l-6.519-.059V136.8h23.345Zm2-18.719H77.329l13.536-11.723Zm0,0" transform="translate(-61.413 -101.714)" fill="url(#linear-gradient)"/>
    <path id="Path_19294" data-name="Path 19294" d="M29.966.123a1.213,1.213,0,0,0-1.068,0L1.178,13.688a1.233,1.233,0,0,0-.7,1.089V40.732a22.844,22.844,0,0,0,2.866,10.3A22.854,22.854,0,0,0,10.272,59.2L28.743,71.789a1.219,1.219,0,0,0,1.371,0L48.58,59.2a22.846,22.846,0,0,0,6.94-8.152,22.834,22.834,0,0,0,2.867-10.312V14.816a1.234,1.234,0,0,0-.7-1.089ZM55.961,40.732c0,5.8-3.926,13.188-8.725,16.46L29.442,69.319,11.655,57.191a20.411,20.411,0,0,1-6.164-7.3A20.414,20.414,0,0,1,2.9,40.732v-25.2L29.432,2.563,55.961,15.571Zm0,0" fill="url(#linear-gradient)"/>
  </g>
</svg>
