<svg xmlns="http://www.w3.org/2000/svg" xmlns:xlink="http://www.w3.org/1999/xlink" width="72" height="72" viewBox="0 0 72 72">
  <defs>
    <linearGradient id="linear-gradient" x1="0.5" x2="0.5" y2="1" gradientUnits="objectBoundingBox">
      <stop offset="0.13" stop-color="#00a9ed"/>
      <stop offset="1" stop-color="#65106b"/>
    </linearGradient>
  </defs>
  <path id="disabled" d="M72.051,64.17A4.6,4.6,0,0,0,73,61.387a4.65,4.65,0,0,0-4.645-4.645H64.528l-4.43-12.4a5.818,5.818,0,0,0-5.469-3.853h-.21V39.323a3.488,3.488,0,0,0-3.484-3.484h-1.3L48.6,27.494a11.693,11.693,0,0,0-6.241-8.925,9.287,9.287,0,1,0-9.449-.626,12.814,12.814,0,0,0-6.357,4.767v-3.13A4.65,4.65,0,0,0,21.9,14.935H5.645a4.645,4.645,0,1,0,0,9.29H17.258V36.451A18.569,18.569,0,1,0,40.322,56.742H44.9l-.83,5.091a5.8,5.8,0,1,0,6.837,8.844H70.677A2.325,2.325,0,0,0,73,68.355V66.032A2.313,2.313,0,0,0,72.051,64.17ZM57.91,45.119l4.981,13.946h5.464a2.323,2.323,0,0,1,0,4.645h-8a2.325,2.325,0,0,1-2.187-1.542L53.466,48.993a2.328,2.328,0,0,0-2.188-1.541H39.117a18.222,18.222,0,0,0-1.139-2.323H50.935a3.479,3.479,0,0,0,3.27-2.323h.424a3.49,3.49,0,0,1,3.281,2.312Zm-5.271,8.467,3.345,9.363a4.57,4.57,0,0,0,.361.761H51.017ZM52.1,39.323v2.323a1.163,1.163,0,0,1-1.161,1.161H36.4a18.828,18.828,0,0,0-2.885-2.86V38.161H50.935A1.163,1.163,0,0,1,52.1,39.323Zm-27.844,3.75a4.625,4.625,0,0,0,3.216,4.139l-3.22,3.22a4.644,4.644,0,0,0-1.183-.494V42.884a11.983,11.983,0,0,1,1.188.188ZM21.9,56.742a2.323,2.323,0,1,1,2.323-2.323A2.325,2.325,0,0,1,21.9,56.742Zm-1.161-6.8a4.546,4.546,0,0,0-1.183.494l-5-5a11.558,11.558,0,0,1,6.183-2.568Zm-7.825-2.864,5,5a4.645,4.645,0,0,0-.494,1.183H10.35a11.549,11.549,0,0,1,2.568-6.183Zm4.506,8.505a4.546,4.546,0,0,0,.494,1.183l-5,5a11.549,11.549,0,0,1-2.568-6.183Zm2.136,2.825a4.644,4.644,0,0,0,1.183.494v7.073a11.558,11.558,0,0,1-6.183-2.568Zm3.506.494a4.546,4.546,0,0,0,1.183-.494l5,5a11.558,11.558,0,0,1-6.183,2.568Zm7.825,2.864-5-5a4.645,4.645,0,0,0,.494-1.183h7.073a11.549,11.549,0,0,1-2.568,6.183Zm-4.506-8.505a4.546,4.546,0,0,0-.494-1.183l5-5a11.519,11.519,0,0,1,2.566,6.185Zm4.81-42.968a6.968,6.968,0,1,1,6.968,6.968,6.975,6.975,0,0,1-6.968-6.968ZM37,19.581a9.377,9.377,0,0,1,9.29,8.2L47.3,35.839H33.516V29.834A6.725,6.725,0,0,1,35.5,25.047L33.856,23.4a9.028,9.028,0,0,0-2.663,6.429V42.806a2.323,2.323,0,1,1-4.645,0V30.032A10.464,10.464,0,0,1,37,19.581ZM5.645,21.9a2.323,2.323,0,0,1,0-4.645H21.9a2.325,2.325,0,0,1,2.323,2.323V36a18.7,18.7,0,0,0-2.323-.161A18.468,18.468,0,0,0,19.581,36V21.9ZM21.9,70.677a16.258,16.258,0,1,1,0-32.516,16.509,16.509,0,0,1,2.323.185v2.339a14.1,14.1,0,0,0-2.323-.2A13.957,13.957,0,1,0,32.62,45.525a4.59,4.59,0,0,0,.872-2.483,16.092,16.092,0,0,1,4.67,11.377A16.276,16.276,0,0,1,21.9,70.677Zm17.985-20.9H50.935v1.161a3.488,3.488,0,0,1-3.484,3.484H40.484A18.752,18.752,0,0,0,39.888,49.774Zm7.563,6.968a5.751,5.751,0,0,0,2.417-.543l-.938,5.853a5.742,5.742,0,0,0-2.439-.645l.762-4.665ZM46.29,70.677a3.484,3.484,0,1,1,3.484-3.484A3.488,3.488,0,0,1,46.29,70.677Zm24.387-2.323h-18.7a5.808,5.808,0,0,0,0-2.323h18.7Z" transform="translate(-1 -1)" fill="url(#linear-gradient)"/>
</svg>
