<?xml version="1.0" encoding="utf-8"?>
<!-- Generator: Adobe Illustrator 14.0.0, SVG Export Plug-In . SVG Version: 6.00 Build 43363)  -->
<!DOCTYPE svg PUBLIC "-//W3C//DTD SVG 1.1//EN" "http://www.w3.org/Graphics/SVG/1.1/DTD/svg11.dtd">
<svg version="1.1" id="depreciation" xmlns="http://www.w3.org/2000/svg" xmlns:xlink="http://www.w3.org/1999/xlink" x="0px"
	 y="0px" width="65px" height="65px" viewBox="0 0 65 65" enable-background="new 0 0 65 65" xml:space="preserve">
<g id="Out_line" transform="translate(-16 -16)">
	
		<linearGradient id="Path_19045_1_" gradientUnits="userSpaceOnUse" x1="34.0552" y1="59.0371" x2="34.0552" y2="58.0371" gradientTransform="matrix(27.3 0 0 -25.2 -899.0437 1542.5022)">
		<stop  offset="0.13" style="stop-color:#00A9ED"/>
		<stop  offset="1" style="stop-color:#65106B"/>
	</linearGradient>
	<path id="Path_19045" fill="url(#Path_19045_1_)" d="M39.05,73.7h-4.2V71.6h8.4c0.58,0,1.05-0.47,1.05-1.05v-14.7
		c0-0.58-0.47-1.05-1.05-1.05h-25.2c-0.58,0-1.05,0.47-1.05,1.05v14.7c0,0.58,0.47,1.05,1.05,1.05h8.4V73.7h-4.2
		c-0.58,0-1.05,0.47-1.05,1.05v4.2c0,0.579,0.47,1.05,1.05,1.05h16.8c0.58,0,1.05-0.471,1.05-1.05v-4.2
		C40.1,74.17,39.63,73.7,39.05,73.7z M19.1,56.9h23.1v12.6H19.1V56.9z M28.55,71.6h4.2V73.7h-4.2V71.6z M38,77.9H23.3V75.8H38V77.9z
		"/>
	
		<linearGradient id="Path_19046_1_" gradientUnits="userSpaceOnUse" x1="67.5703" y1="-100.0718" x2="67.5703" y2="-101.0713" gradientTransform="matrix(6.3 0 0 -2.1 -380.3486 -132.2501)">
		<stop  offset="0.13" style="stop-color:#00A9ED"/>
		<stop  offset="1" style="stop-color:#65106B"/>
	</linearGradient>
	<path id="Path_19046" fill="url(#Path_19046_1_)" d="M42.2,77.9h6.3V80h-6.3V77.9z"/>
	
		<linearGradient id="Path_19047_1_" gradientUnits="userSpaceOnUse" x1="154.7129" y1="-42.2139" x2="154.7129" y2="-43.2139" gradientTransform="matrix(2.1 0 0 -3.15 -267.9999 -93.9238)">
		<stop  offset="0.13" style="stop-color:#00A9ED"/>
		<stop  offset="1" style="stop-color:#65106B"/>
	</linearGradient>
	<path id="Path_19047" fill="url(#Path_19047_1_)" d="M55.85,39.05h2.101v3.15H55.85V39.05z"/>
	
		<linearGradient id="Path_19048_1_" gradientUnits="userSpaceOnUse" x1="32.7139" y1="63.29" x2="32.7139" y2="62.29" gradientTransform="matrix(31.5 0 0 -35.7 -988.2965 2276.4563)">
		<stop  offset="0.13" style="stop-color:#00A9ED"/>
		<stop  offset="1" style="stop-color:#65106B"/>
	</linearGradient>
	<path id="Path_19048" fill="url(#Path_19048_1_)" d="M28.55,35.9h25.2v-2.1h-25.2V19.1h27.3v1.05h2.101v-2.1
		c0-0.58-0.47-1.05-1.05-1.05H27.5c-0.58,0-1.05,0.47-1.05,1.05l0,0V52.7h2.1V35.9z"/>
	
		<linearGradient id="Path_19049_1_" gradientUnits="userSpaceOnUse" x1="154.7139" y1="15.6431" x2="154.7139" y2="14.6431" gradientTransform="matrix(2.1 0 0 -6.3 -293.2007 121.8486)">
		<stop  offset="0.13" style="stop-color:#00A9ED"/>
		<stop  offset="1" style="stop-color:#65106B"/>
	</linearGradient>
	<path id="Path_19049" fill="url(#Path_19049_1_)" d="M30.65,23.3h2.1v6.3h-2.1V23.3z"/>
	
		<linearGradient id="Path_19050_1_" gradientUnits="userSpaceOnUse" x1="154.7139" y1="23.9077" x2="154.7139" y2="22.9077" gradientTransform="matrix(2.1 0 0 -7.35 -293.2007 214.7753)">
		<stop  offset="0.13" style="stop-color:#00A9ED"/>
		<stop  offset="1" style="stop-color:#65106B"/>
	</linearGradient>
	<path id="Path_19050" fill="url(#Path_19050_1_)" d="M30.65,39.05h2.1v7.35h-2.1V39.05z"/>
	
		<linearGradient id="Path_19051_1_" gradientUnits="userSpaceOnUse" x1="34.0547" y1="63.29" x2="34.0547" y2="62.29" gradientTransform="matrix(27.3 0 0 -35.7 -865.4494 2303.7373)">
		<stop  offset="0.13" style="stop-color:#00A9ED"/>
		<stop  offset="1" style="stop-color:#65106B"/>
	</linearGradient>
	<path id="Path_19051" fill="url(#Path_19051_1_)" d="M76.85,44.3H51.65c-0.58,0-1.051,0.47-1.051,1.05v33.6
		c0,0.579,0.471,1.05,1.051,1.05H76.85c0.58,0,1.051-0.471,1.051-1.05v-33.6C77.9,44.77,77.43,44.3,76.85,44.3z M75.8,49.55H72.65
		V46.4H75.8V49.55z M55.85,46.4v3.15H52.7V46.4H55.85z M52.7,51.65h4.2c0.58,0,1.05-0.471,1.05-1.051v-4.2h12.6v4.2
		c0,0.58,0.47,1.051,1.05,1.051h4.2v21h-4.2c-0.58,0-1.05,0.47-1.05,1.05v4.2H52.7V51.65z M72.65,77.9v-3.15H75.8v3.15H72.65z"/>
	
		<linearGradient id="Path_19052_1_" gradientUnits="userSpaceOnUse" x1="37.0718" y1="56.1436" x2="37.0718" y2="55.1436" gradientTransform="matrix(21 0 0 -21 -714.25 1230.6563)">
		<stop  offset="0.13" style="stop-color:#00A9ED"/>
		<stop  offset="1" style="stop-color:#65106B"/>
	</linearGradient>
	<path id="Path_19052" fill="url(#Path_19052_1_)" d="M74.75,62.15c0-5.799-4.701-10.5-10.5-10.5s-10.5,4.701-10.5,10.5
		s4.701,10.5,10.5,10.5S74.75,67.949,74.75,62.15L74.75,62.15z M55.85,62.15c0-4.64,3.762-8.4,8.4-8.4s8.4,3.761,8.4,8.4
		c0,4.639-3.762,8.399-8.4,8.399l0,0C59.611,70.55,55.85,66.789,55.85,62.15z"/>
	
		<linearGradient id="Path_19053_1_" gradientUnits="userSpaceOnUse" x1="42.6733" y1="48.7046" x2="42.6733" y2="47.7046" gradientTransform="matrix(14.7 0 0 -14.7 -563.0506 770.7537)">
		<stop  offset="0.13" style="stop-color:#00A9ED"/>
		<stop  offset="1" style="stop-color:#65106B"/>
	</linearGradient>
	<path id="Path_19053" fill="url(#Path_19053_1_)" d="M71.6,62.15c0-4.06-3.29-7.351-7.35-7.351c-4.059,0-7.35,3.291-7.35,7.351
		c0,4.059,3.291,7.35,7.35,7.35C68.31,69.5,71.6,66.209,71.6,62.15L71.6,62.15z M69.5,62.15c0.002,2.896-2.345,5.248-5.242,5.25
		c-0.925,0-1.834-0.244-2.634-0.707c2.101-2.664,2.101-6.422,0-9.086c2.507-1.453,5.717-0.598,7.169,1.908
		C69.257,60.316,69.5,61.225,69.5,62.15z M59,62.15c-0.001-1.135,0.367-2.24,1.05-3.146c1.399,1.864,1.399,4.429,0,6.293
		C59.367,64.391,58.998,63.285,59,62.15z"/>
	
		<linearGradient id="Path_19054_1_" gradientUnits="userSpaceOnUse" x1="34.8926" y1="59.0361" x2="34.8926" y2="58.0361" gradientTransform="matrix(25.2 0 0 -25.2 -811.8943 1504.7063)">
		<stop  offset="0.13" style="stop-color:#00A9ED"/>
		<stop  offset="1" style="stop-color:#65106B"/>
	</linearGradient>
	<path id="Path_19054" fill="url(#Path_19054_1_)" d="M67.4,42.2c6.959,0,12.6-5.642,12.6-12.6C80,22.641,74.359,17,67.4,17
		S54.8,22.641,54.8,29.6C54.8,36.559,60.441,42.2,67.4,42.2L67.4,42.2z M67.4,19.1c5.799,0,10.5,4.701,10.5,10.5
		c0,5.799-4.701,10.5-10.5,10.5s-10.5-4.701-10.5-10.5C56.9,23.801,61.602,19.1,67.4,19.1z"/>
	
		<linearGradient id="Path_19055_1_" gradientUnits="userSpaceOnUse" x1="43.4893" y1="41.0771" x2="43.4893" y2="40.0771" gradientTransform="matrix(14.085 0 0 -11.242 -545.1411 485.3973)">
		<stop  offset="0.13" style="stop-color:#00A9ED"/>
		<stop  offset="1" style="stop-color:#65106B"/>
	</linearGradient>
	<path id="Path_19055" fill="url(#Path_19055_1_)" d="M64.25,34.85c0.279,0,0.546-0.11,0.743-0.307l9.45-9.45l-1.485-1.485
		l-8.708,8.708l-2.407-2.408l-1.485,1.485l3.15,3.15C63.705,34.74,63.973,34.851,64.25,34.85L64.25,34.85z"/>
</g>
</svg>
