<svg xmlns="http://www.w3.org/2000/svg" xmlns:xlink="http://www.w3.org/1999/xlink" width="71.998" height="72.002" viewBox="0 0 71.998 72.002">
  <defs>
    <linearGradient id="linear-gradient" x1="0.5" x2="0.5" y2="1" gradientUnits="objectBoundingBox">
      <stop offset="0.13" stop-color="#00a9ed"/>
      <stop offset="1" stop-color="#65106b"/>
    </linearGradient>
  </defs>
  <path id="Union_34" data-name="Union 34" d="M-2041.4,20190a1.2,1.2,0,0,1-.846-.35l-7.2-7.205a1.072,1.072,0,0,1-.193-.248,1.2,1.2,0,0,1,.446-1.637l7.033-4.023-4.89-4.891a1.211,1.211,0,0,1-.3-1.176,1.2,1.2,0,0,1,1.485-.824l16.8,4.8a1.253,1.253,0,0,1,.517.3,1.2,1.2,0,0,1,0,1.7l-4.783,4.783,14.041,6.48h-.005a1.2,1.2,0,0,1,.694,1.09,1.2,1.2,0,0,1-1.2,1.2Zm7.2-2.4h8.938l-8.938-4.119Zm-5.153-11.645a1.172,1.172,0,0,1,.324.848h.025v10.8h2.4v-5.994h.01a1.228,1.228,0,0,1,.35-.846l4.56-4.555-10.393-2.975Zm-7.286,5.908,5.239,5.24v-8.234Zm-24.4,7.783a1.2,1.2,0,0,1,0-1.691l6.349-6.354-2.746-2.752a1.2,1.2,0,0,1,0-1.7l4.8-4.8a1.2,1.2,0,0,1,1.611,0,1.2,1.2,0,0,1,.081,1.7l-3.952,3.953,2.757,2.746a1.2,1.2,0,0,1,0,1.7l-7.2,7.2a1.183,1.183,0,0,1-.847.354A1.2,1.2,0,0,1-2071.041,20189.645Zm60.08-3.521-7.2-6a1.2,1.2,0,0,1-.431-.873,1.2,1.2,0,0,1,.35-.9l2.751-2.752-1.551-1.551a1.2,1.2,0,0,1,0-1.627,1.2,1.2,0,0,1,1.693-.07l2.4,2.4a1.2,1.2,0,0,1,0,1.691l-2.67,2.676,6.192,5.158a1.2,1.2,0,0,1,.147,1.646,1.192,1.192,0,0,1-.94.457A1.192,1.192,0,0,1-2010.961,20186.123Zm-11.239-16.523a1.2,1.2,0,0,1-1.2-1.2,1.2,1.2,0,0,1,1.2-1.2h12a1.2,1.2,0,0,1,1.2,1.2,1.2,1.2,0,0,1-1.2,1.2Zm-57.6,0a1.2,1.2,0,0,1-1.2-1.2,1.2,1.2,0,0,1,1.2-1.2h12a1.2,1.2,0,0,1,1.2,1.2,1.2,1.2,0,0,1-1.2,1.2Zm52.8-2.4h-36a1.2,1.2,0,0,1-1.181-1.055l-2.4-19.2c0-.021-.005-.037-.005-.057a1.2,1.2,0,0,1,1.074-1.312,1.192,1.192,0,0,1,1.312,1.068l2.265,18.15h8.538v-20.4a1.2,1.2,0,0,1,1.2-1.2h14.4a1.2,1.2,0,0,1,1.2,1.2v20.4h8.244l-1.029-8.248a1.207,1.207,0,0,1,1.039-1.344h.005a1.207,1.207,0,0,1,1.343,1.045l1.2,9.6a.79.79,0,0,1,.01.156,1.2,1.2,0,0,1-1.2,1.191Zm-24-2.4h12v-19.2h-12Zm28.816-1.027-1.2-8.4a1.194,1.194,0,0,1,1.018-1.357,1.2,1.2,0,0,1,1.358,1.018l1.2,8.4a.92.92,0,0,1,.015.166,1.2,1.2,0,0,1-1.2,1.2A1.2,1.2,0,0,1-2022.185,20163.773ZM-2069,20164.8a1.194,1.194,0,0,1-1.181-1l-1.2-7.2a.206.206,0,0,1-.01-.055,1.2,1.2,0,0,1,1.019-1.359,1.2,1.2,0,0,1,1.358,1.02l1.2,7.2a1.2,1.2,0,0,1-.988,1.379.64.64,0,0,1-.148.018Zm-5.974-2.164-1.2-6a1.2,1.2,0,0,1,.907-1.363,1.2,1.2,0,0,1,1.444.893l1.2,6v0a1.207,1.207,0,0,1-.943,1.414,1.257,1.257,0,0,1-.238.02A1.2,1.2,0,0,1-2074.973,20162.633Zm31.172-8.629v-2.4a1.2,1.2,0,0,1,1.2-1.2,1.2,1.2,0,0,1,1.2,1.2v2.4a1.2,1.2,0,0,1-1.2,1.2A1.2,1.2,0,0,1-2043.8,20154Zm-27.6-2.4v-1.2a1.2,1.2,0,0,1,1.2-1.2,1.2,1.2,0,0,1,1.2,1.2v1.2a1.2,1.2,0,0,1-1.2,1.2A1.2,1.2,0,0,1-2071.4,20151.6Zm42.969,1.176a1.205,1.205,0,0,1-.937-1.408l1.2-6a1.2,1.2,0,0,1,1.363-.906,1.194,1.194,0,0,1,.988,1.377l-1.2,6a1.194,1.194,0,0,1-1.171.957.318.318,0,0,1-.043,0A1.159,1.159,0,0,1-2028.432,20152.777Zm5.031-2.377v-1.2a1.2,1.2,0,0,1,1.2-1.2,1.2,1.2,0,0,1,1.2,1.2v1.2a1.2,1.2,0,0,1-1.2,1.2A1.2,1.2,0,0,1-2023.4,20150.4Zm-34.441.848-3.6-3.6a1.2,1.2,0,0,1,0-1.7l1.546-1.549-1.546-1.557c-.03-.025-.056-.051-.086-.08a1.2,1.2,0,0,1,.081-1.693,1.2,1.2,0,0,1,1.7.076l2.4,2.4a1.2,1.2,0,0,1,0,1.7l-1.555,1.551,2.756,2.75a1.2,1.2,0,0,1,0,1.668,1.2,1.2,0,0,1-.865.367A1.193,1.193,0,0,1-2057.842,20151.248Zm-14.426-4.8a1.2,1.2,0,0,1,.025-1.7l26.4-26.4a1.2,1.2,0,0,1,1.7,0l3.6,3.6a1.212,1.212,0,0,1,0,1.672,1.2,1.2,0,0,1-1.7.025l-2.762-2.752-25.543,25.555-.03.029a1.2,1.2,0,0,1-.832.338A1.187,1.187,0,0,1-2072.267,20146.449Zm52.829,0-15.6-15.6a1.194,1.194,0,0,1-.005-1.566,1.2,1.2,0,0,1,1.692-.127l15.6,15.6a1.2,1.2,0,0,1,.35.846,1.2,1.2,0,0,1-1.2,1.205A1.2,1.2,0,0,1-2019.438,20146.449Zm-22.832-8.4a1.2,1.2,0,0,1,.03-1.7l1.545-1.551-2.751-2.75a1.207,1.207,0,0,1,0-1.7l3.6-3.6a1.193,1.193,0,0,1,1.7,0,1.2,1.2,0,0,1,0,1.7l-2.751,2.75,2.751,2.752a1.2,1.2,0,0,1,0,1.7l-2.4,2.4-.03.031a1.193,1.193,0,0,1-.832.336A1.2,1.2,0,0,1-2042.27,20138.047Zm-29.972-2.4a1.2,1.2,0,0,1,0-1.7l8.4-8.4a1.2,1.2,0,0,1,1.571,0,1.2,1.2,0,0,1,.116,1.693l-8.4,8.4a1.219,1.219,0,0,1-.851.35A1.194,1.194,0,0,1-2072.242,20135.65Zm46.774-1.2a1.2,1.2,0,0,1,.025-1.7l5.148-5.152-3.106-3.1-2.741,2.752a1.2,1.2,0,0,1-1.667,0,1.2,1.2,0,0,1-.03-1.7l3.6-3.6a1.193,1.193,0,0,1,1.7,0l4.8,4.8a1.2,1.2,0,0,1,0,1.7l-6,6c-.01.01-.015.021-.025.031a1.2,1.2,0,0,1-.834.336A1.2,1.2,0,0,1-2025.468,20134.449Zm-49.171-4.8a1.2,1.2,0,0,1,0-1.7l3.6-3.6a1.347,1.347,0,0,1,.127-.121,1.2,1.2,0,0,1,1.692.125,1.2,1.2,0,0,1-.132,1.693l-3.6,3.6a1.2,1.2,0,0,1-.846.35A1.177,1.177,0,0,1-2074.639,20129.65Zm14.37-6a1.2,1.2,0,0,1,.03-1.7l1.2-1.2a1.2,1.2,0,0,1,1.616,0,1.206,1.206,0,0,1,.081,1.7l-1.2,1.2h.005l-.03.031a1.193,1.193,0,0,1-.832.336A1.2,1.2,0,0,1-2060.269,20123.646Z" transform="translate(2080.998 -20117.998)" fill="url(#linear-gradient)"/>
</svg>
