<svg xmlns="http://www.w3.org/2000/svg" xmlns:xlink="http://www.w3.org/1999/xlink" width="64.799" height="72.002" viewBox="0 0 64.799 72.002">
  <defs>
    <linearGradient id="linear-gradient" x1="0.5" x2="0.5" y2="1" gradientUnits="objectBoundingBox">
      <stop offset="0.13" stop-color="#00a9ed"/>
      <stop offset="1" stop-color="#65106b"/>
    </linearGradient>
  </defs>
  <path id="Union_35" data-name="Union 35" d="M-2023.313,20190h-55.008a2.687,2.687,0,0,1-2.68-2.68v-5.963a1.053,1.053,0,0,1,1.054-1.055,1.053,1.053,0,0,1,1.054,1.055v5.963a.575.575,0,0,0,.573.572h5.939v-7.5a1.054,1.054,0,0,1,1.054-1.055,1.054,1.054,0,0,1,1.054,1.055v7.5h39.168l-2.194-16.432a2.389,2.389,0,0,1-1.839-2.32v-3.061c-.015.01-.036.016-.051.025l-.284.137a.914.914,0,0,0-.091.039c-.127.063-.253.123-.385.178a36.024,36.024,0,0,1-14.867,3.2,36.018,36.018,0,0,1-14.862-3.2c-.152-.064-.3-.131-.441-.2-.046-.021-.091-.041-.142-.066-.1-.047-.2-.1-.3-.143l-.273-.137c-.056-.029-.112-.061-.167-.086-.086-.041-.172-.086-.253-.131a.223.223,0,0,0-.03-.016,12.257,12.257,0,0,1-2.437-1.617l-1.14.209a11.175,11.175,0,0,0-5.787,4.043,11.191,11.191,0,0,0-2.245,6.744v1.328a1.053,1.053,0,0,1-1.054,1.053,1.053,1.053,0,0,1-1.054-1.053v-1.328a13.288,13.288,0,0,1,2.665-8.012,13.285,13.285,0,0,1,6.927-4.812.531.531,0,0,1,.106-.025l.3-.057a5.969,5.969,0,0,1,.781-5.492c1.267-1.662,4.206-2.9,6.795-3.988.724-.3,1.424-.6,2.027-.877-3.121-3.986-4.728-8.982-4.728-11.426v-7.221a14.3,14.3,0,0,1,4.869-10.9,15.859,15.859,0,0,1,10.428-3.988h.025a15.868,15.868,0,0,1,10.428,3.988,14.312,14.312,0,0,1,4.864,10.9v7.217c0,2.447-1.6,7.443-4.722,11.43.6.279,1.3.572,2.022.877.993.416,2.062.867,3.071,1.357v-15.475a1.727,1.727,0,0,1,.7-1.387v-14.775a1.056,1.056,0,0,1,1.054-1.055v-2.285a1.061,1.061,0,0,1,1.059-1.055,1.057,1.057,0,0,1,1.054,1.055v2.295a2.353,2.353,0,0,1,2.1,2.33v5.063a1.053,1.053,0,0,1-1.054,1.055,1.057,1.057,0,0,1-1.059-1.055v-5.062a.233.233,0,0,0-.233-.232h-.806v13.383h1.039v-3.121a1.057,1.057,0,0,1,1.059-1.055,1.053,1.053,0,0,1,1.054,1.055v10.336a4.213,4.213,0,0,0,.958,2.73,6.49,6.49,0,0,1,1.525,4.176v1.637a32.832,32.832,0,0,0,4.646-4.023,1.945,1.945,0,0,1,2.675-.131l2.5,2.178a1.95,1.95,0,0,1,.664,1.369,1.949,1.949,0,0,1-.527,1.428,39.634,39.634,0,0,1-6.521,5.549,3.054,3.054,0,0,1,.3,1.307v3.75a3.108,3.108,0,0,1-.122.842l2.883,1.018a1.85,1.85,0,0,1,1.049.943,1.826,1.826,0,0,1,.076,1.4l-.654,1.854a1.841,1.841,0,0,1-1.454,1.211,13.284,13.284,0,0,1,.542,3.775v12.262A2.684,2.684,0,0,1-2023.313,20190Zm-5.918-4.008.248,1.855,5.249-1.408-.568-1.77Zm-.279-2.107,4.565-1.227-3.572-11.137h-2.645Zm2.817-13.584,3.952,12.328v-7.57a11.149,11.149,0,0,0-.9-4.414l-3.05-1.074Zm-6.339-1.16a.271.271,0,0,0,.274.268h3.957v-18.459a4.359,4.359,0,0,0-1.029-2.812,6.359,6.359,0,0,1-1.459-4.094v-5.107h-1.743Zm6.339-1.809,5.072,1.787.476-1.348-5.548-1.955Zm-35.91-12.715c-2.235.938-5.011,2.109-5.944,3.324a3.861,3.861,0,0,0-.259,3.973,1.377,1.377,0,0,0,.208.289.079.079,0,0,1,.015.02,4.905,4.905,0,0,0,.745.65c.005,0,.01,0,.015.01a.412.412,0,0,0,.071.051c.015.01.031.025.046.035a.527.527,0,0,1,.056.035,1.037,1.037,0,0,0,.117.08l0,.006c.041.025.086.057.132.086.005.006.015.006.02.01.041.031.086.057.132.086a.017.017,0,0,0,.015.006c.152.1.324.2.512.3,0,0,0,0,.005,0,.182.107.385.213.608.33a.035.035,0,0,0,.025.01l.2.107c.005,0,.01,0,.02.01.147.076.3.152.466.229l.061.029c.066.031.127.061.192.086a.369.369,0,0,0,.066.035c.086.041.172.076.259.117a34.008,34.008,0,0,0,27.99,0c.623-.283,1.186-.557,1.682-.83v-7.3c-1.171-.648-2.6-1.246-3.886-1.789-.958-.4-1.88-.789-2.64-1.17a15.783,15.783,0,0,1-1.246,1.15v3.232a2.453,2.453,0,0,0,1.586,2.336,1.054,1.054,0,0,1,.806.734,1.054,1.054,0,0,1-.279,1.055,14.329,14.329,0,0,1-9.663,4.043,1.979,1.979,0,0,1-.264,0h-.177a1.976,1.976,0,0,1-.263,0,14.329,14.329,0,0,1-9.663-4.043,1.044,1.044,0,0,1-.279-1.055,1.054,1.054,0,0,1,.806-.734,2.456,2.456,0,0,0,1.581-2.336v-3.232q-.639-.533-1.247-1.15C-2060.728,20153.828-2061.645,20154.213-2062.6,20154.617Zm35.91,6.41v2.555l1.616.572a.676.676,0,0,0,.01-.143v-3.75c0-.049-.005-.1-.01-.146C-2025.609,20160.436-2026.146,20160.734-2026.693,20161.027Zm-29.921-3.2a4.949,4.949,0,0,1-1.627,3.572,12.232,12.232,0,0,0,7.124,2.488h.6a12.244,12.244,0,0,0,7.124-2.488,4.954,4.954,0,0,1-1.632-3.572v-1.773a11.615,11.615,0,0,1-5.8,1.557,11.628,11.628,0,0,1-5.8-1.557Zm29.921-2.7v3.48a36.733,36.733,0,0,0,8.3-6.531l-2.245-1.951A34.274,34.274,0,0,1-2026.693,20155.135Zm-33.189-31.283a12.2,12.2,0,0,0-4.13,9.3v7.221c0,1.592,1.059,5.428,3.415,8.949a19.242,19.242,0,0,0,1.621,2.1l.01.012a15.046,15.046,0,0,0,1.946,1.828c.015.01.025.025.041.035a9.971,9.971,0,0,0,6.162,2.209,10,10,0,0,0,6.167-2.209.126.126,0,0,1,.041-.035,15.361,15.361,0,0,0,1.946-1.828c0-.006,0-.006.005-.006a19.494,19.494,0,0,0,1.621-2.107c2.356-3.521,3.42-7.357,3.42-8.949v-7.221a12.2,12.2,0,0,0-4.135-9.3,13.82,13.82,0,0,0-9.065-3.482A13.83,13.83,0,0,0-2059.882,20123.852ZM-2023.313,20190Zm-32.4-49.2-3.04-.5a4.408,4.408,0,0,1-3.714-4.367,4.433,4.433,0,0,1,4.429-4.43h14.456a4.433,4.433,0,0,1,4.429,4.43,4.361,4.361,0,0,1-3.729,4.336l-3.8.584a29.433,29.433,0,0,1-4.358.328A29.113,29.113,0,0,1-2055.717,20140.8Zm-4.646-4.869a2.314,2.314,0,0,0,1.946,2.289l3.045.5a26.944,26.944,0,0,0,8.366.047l3.8-.578a2.265,2.265,0,0,0,1.936-2.254,2.32,2.32,0,0,0-2.316-2.322h-14.456A2.321,2.321,0,0,0-2060.363,20135.932Zm14.142,1.463a1.054,1.054,0,0,1-1.054-1.059,1.049,1.049,0,0,1,1.054-1.049h1.951a1.052,1.052,0,0,1,1.054,1.049,1.057,1.057,0,0,1-1.054,1.059Zm-11.137,0a1.054,1.054,0,0,1-1.054-1.059,1.049,1.049,0,0,1,1.054-1.049h1.946a1.049,1.049,0,0,1,1.054,1.049,1.054,1.054,0,0,1-1.054,1.059Z" transform="translate(2081.001 -20117.998)" fill="url(#linear-gradient)"/>
</svg>
