<?xml version="1.0" encoding="utf-8"?>
<!-- Generator: Adobe Illustrator 14.0.0, SVG Export Plug-In . SVG Version: 6.00 Build 43363)  -->
<!DOCTYPE svg PUBLIC "-//W3C//DTD SVG 1.1//EN" "http://www.w3.org/Graphics/SVG/1.1/DTD/svg11.dtd">
<svg version="1.1" id="depreciation" xmlns="http://www.w3.org/2000/svg" xmlns:xlink="http://www.w3.org/1999/xlink" x="0px"
	 y="0px" width="65px" height="65px" viewBox="0 0 65 65" enable-background="new 0 0 65 65" xml:space="preserve">
<g id="crane" transform="translate(0)">
	
		<linearGradient id="Path_19062_1_" gradientUnits="userSpaceOnUse" x1="138.7139" y1="-116.0708" x2="138.7139" y2="-117.0703" gradientTransform="matrix(2.1 0 0 -2.1 -271.3998 -207.0494)">
		<stop  offset="0.13" style="stop-color:#00A9ED"/>
		<stop  offset="1" style="stop-color:#65106B"/>
	</linearGradient>
	<path id="Path_19062" fill="url(#Path_19062_1_)" d="M18.85,36.7h2.1v2.1h-2.1V36.7z"/>
	
		<linearGradient id="Path_19063_1_" gradientUnits="userSpaceOnUse" x1="138.7139" y1="-116.0708" x2="138.7139" y2="-117.0703" gradientTransform="matrix(2.1 0 0 -2.1 -267.2006 -207.0494)">
		<stop  offset="0.13" style="stop-color:#00A9ED"/>
		<stop  offset="1" style="stop-color:#65106B"/>
	</linearGradient>
	<path id="Path_19063" fill="url(#Path_19063_1_)" d="M23.05,36.7h2.1v2.1h-2.1V36.7z"/>
	
		<linearGradient id="Path_19064_1_" gradientUnits="userSpaceOnUse" x1="138.7139" y1="-116.0708" x2="138.7139" y2="-117.0703" gradientTransform="matrix(2.1 0 0 -2.1 -262.9994 -207.0494)">
		<stop  offset="0.13" style="stop-color:#00A9ED"/>
		<stop  offset="1" style="stop-color:#65106B"/>
	</linearGradient>
	<path id="Path_19064" fill="url(#Path_19064_1_)" d="M27.25,36.7h2.1v2.1h-2.1V36.7z"/>
	
		<linearGradient id="Path_19065_1_" gradientUnits="userSpaceOnUse" x1="138.7139" y1="-116.0718" x2="138.7139" y2="-117.0718" gradientTransform="matrix(2.1 0 0 -2.1 -271.3998 -202.8502)">
		<stop  offset="0.13" style="stop-color:#00A9ED"/>
		<stop  offset="1" style="stop-color:#65106B"/>
	</linearGradient>
	<path id="Path_19065" fill="url(#Path_19065_1_)" d="M18.85,40.9h2.1V43h-2.1V40.9z"/>
	
		<linearGradient id="Path_19066_1_" gradientUnits="userSpaceOnUse" x1="138.7139" y1="-116.0718" x2="138.7139" y2="-117.0718" gradientTransform="matrix(2.1 0 0 -2.1 -267.2006 -202.8502)">
		<stop  offset="0.13" style="stop-color:#00A9ED"/>
		<stop  offset="1" style="stop-color:#65106B"/>
	</linearGradient>
	<path id="Path_19066" fill="url(#Path_19066_1_)" d="M23.05,40.9h2.1V43h-2.1V40.9z"/>
	
		<linearGradient id="Path_19067_1_" gradientUnits="userSpaceOnUse" x1="138.7139" y1="-116.0718" x2="138.7139" y2="-117.0718" gradientTransform="matrix(2.1 0 0 -2.1 -262.9994 -202.8502)">
		<stop  offset="0.13" style="stop-color:#00A9ED"/>
		<stop  offset="1" style="stop-color:#65106B"/>
	</linearGradient>
	<path id="Path_19067" fill="url(#Path_19067_1_)" d="M27.25,40.9h2.1V43h-2.1V40.9z"/>
	
		<linearGradient id="Path_19068_1_" gradientUnits="userSpaceOnUse" x1="138.7139" y1="-116.0718" x2="138.7139" y2="-117.0718" gradientTransform="matrix(2.1 0 0 -2.1 -258.8002 -202.8502)">
		<stop  offset="0.13" style="stop-color:#00A9ED"/>
		<stop  offset="1" style="stop-color:#65106B"/>
	</linearGradient>
	<path id="Path_19068" fill="url(#Path_19068_1_)" d="M31.45,40.9h2.1V43h-2.1V40.9z"/>
	
		<linearGradient id="Path_19069_1_" gradientUnits="userSpaceOnUse" x1="138.7139" y1="-116.0718" x2="138.7139" y2="-117.0718" gradientTransform="matrix(2.1 0 0 -2.1 -254.601 -202.8502)">
		<stop  offset="0.13" style="stop-color:#00A9ED"/>
		<stop  offset="1" style="stop-color:#65106B"/>
	</linearGradient>
	<path id="Path_19069" fill="url(#Path_19069_1_)" d="M35.65,40.9h2.1V43h-2.1V40.9z"/>
	
		<linearGradient id="Path_19070_1_" gradientUnits="userSpaceOnUse" x1="138.7139" y1="-116.0703" x2="138.7139" y2="-117.0708" gradientTransform="matrix(2.1 0 0 -2.1 -271.3998 -198.649)">
		<stop  offset="0.13" style="stop-color:#00A9ED"/>
		<stop  offset="1" style="stop-color:#65106B"/>
	</linearGradient>
	<path id="Path_19070" fill="url(#Path_19070_1_)" d="M18.85,45.1h2.1V47.2h-2.1V45.1z"/>
	
		<linearGradient id="Path_19071_1_" gradientUnits="userSpaceOnUse" x1="138.7139" y1="-116.0703" x2="138.7139" y2="-117.0708" gradientTransform="matrix(2.1 0 0 -2.1 -267.2006 -198.649)">
		<stop  offset="0.13" style="stop-color:#00A9ED"/>
		<stop  offset="1" style="stop-color:#65106B"/>
	</linearGradient>
	<path id="Path_19071" fill="url(#Path_19071_1_)" d="M23.05,45.1h2.1V47.2h-2.1V45.1z"/>
	
		<linearGradient id="Path_19072_1_" gradientUnits="userSpaceOnUse" x1="138.7139" y1="-116.0703" x2="138.7139" y2="-117.0708" gradientTransform="matrix(2.1 0 0 -2.1 -262.9994 -198.649)">
		<stop  offset="0.13" style="stop-color:#00A9ED"/>
		<stop  offset="1" style="stop-color:#65106B"/>
	</linearGradient>
	<path id="Path_19072" fill="url(#Path_19072_1_)" d="M27.25,45.1h2.1V47.2h-2.1V45.1z"/>
	
		<linearGradient id="Path_19073_1_" gradientUnits="userSpaceOnUse" x1="138.7139" y1="-116.0703" x2="138.7139" y2="-117.0708" gradientTransform="matrix(2.1 0 0 -2.1 -258.8002 -198.649)">
		<stop  offset="0.13" style="stop-color:#00A9ED"/>
		<stop  offset="1" style="stop-color:#65106B"/>
	</linearGradient>
	<path id="Path_19073" fill="url(#Path_19073_1_)" d="M31.45,45.1h2.1V47.2h-2.1V45.1z"/>
	
		<linearGradient id="Path_19074_1_" gradientUnits="userSpaceOnUse" x1="138.7139" y1="-116.0703" x2="138.7139" y2="-117.0708" gradientTransform="matrix(2.1 0 0 -2.1 -254.601 -198.649)">
		<stop  offset="0.13" style="stop-color:#00A9ED"/>
		<stop  offset="1" style="stop-color:#65106B"/>
	</linearGradient>
	<path id="Path_19074" fill="url(#Path_19074_1_)" d="M35.65,45.1h2.1V47.2h-2.1V45.1z"/>
	
		<linearGradient id="Path_19075_1_" gradientUnits="userSpaceOnUse" x1="138.7139" y1="-116.0703" x2="138.7139" y2="-117.0708" gradientTransform="matrix(2.1 0 0 -2.1 -271.3998 -194.4498)">
		<stop  offset="0.13" style="stop-color:#00A9ED"/>
		<stop  offset="1" style="stop-color:#65106B"/>
	</linearGradient>
	<path id="Path_19075" fill="url(#Path_19075_1_)" d="M18.85,49.3h2.1V51.4h-2.1V49.3z"/>
	
		<linearGradient id="Path_19076_1_" gradientUnits="userSpaceOnUse" x1="138.7139" y1="-116.0703" x2="138.7139" y2="-117.0708" gradientTransform="matrix(2.1 0 0 -2.1 -267.2006 -194.4498)">
		<stop  offset="0.13" style="stop-color:#00A9ED"/>
		<stop  offset="1" style="stop-color:#65106B"/>
	</linearGradient>
	<path id="Path_19076" fill="url(#Path_19076_1_)" d="M23.05,49.3h2.1V51.4h-2.1V49.3z"/>
	
		<linearGradient id="Path_19077_1_" gradientUnits="userSpaceOnUse" x1="138.7139" y1="-116.0703" x2="138.7139" y2="-117.0708" gradientTransform="matrix(2.1 0 0 -2.1 -262.9994 -194.4498)">
		<stop  offset="0.13" style="stop-color:#00A9ED"/>
		<stop  offset="1" style="stop-color:#65106B"/>
	</linearGradient>
	<path id="Path_19077" fill="url(#Path_19077_1_)" d="M27.25,49.3h2.1V51.4h-2.1V49.3z"/>
	
		<linearGradient id="Path_19078_1_" gradientUnits="userSpaceOnUse" x1="138.7139" y1="-116.0703" x2="138.7139" y2="-117.0708" gradientTransform="matrix(2.1 0 0 -2.1 -258.8002 -194.4498)">
		<stop  offset="0.13" style="stop-color:#00A9ED"/>
		<stop  offset="1" style="stop-color:#65106B"/>
	</linearGradient>
	<path id="Path_19078" fill="url(#Path_19078_1_)" d="M31.45,49.3h2.1V51.4h-2.1V49.3z"/>
	
		<linearGradient id="Path_19079_1_" gradientUnits="userSpaceOnUse" x1="138.7139" y1="-116.0703" x2="138.7139" y2="-117.0708" gradientTransform="matrix(2.1 0 0 -2.1 -254.601 -194.4498)">
		<stop  offset="0.13" style="stop-color:#00A9ED"/>
		<stop  offset="1" style="stop-color:#65106B"/>
	</linearGradient>
	<path id="Path_19079" fill="url(#Path_19079_1_)" d="M35.65,49.3h2.1V51.4h-2.1V49.3z"/>
	
		<linearGradient id="Path_19080_1_" gradientUnits="userSpaceOnUse" x1="138.7139" y1="-116.0713" x2="138.7139" y2="-117.0713" gradientTransform="matrix(2.1 0 0 -2.1 -271.3998 -190.2506)">
		<stop  offset="0.13" style="stop-color:#00A9ED"/>
		<stop  offset="1" style="stop-color:#65106B"/>
	</linearGradient>
	<path id="Path_19080" fill="url(#Path_19080_1_)" d="M18.85,53.5h2.1v2.1h-2.1V53.5z"/>
	
		<linearGradient id="Path_19081_1_" gradientUnits="userSpaceOnUse" x1="138.7139" y1="-116.0713" x2="138.7139" y2="-117.0713" gradientTransform="matrix(2.1 0 0 -2.1 -267.2006 -190.2506)">
		<stop  offset="0.13" style="stop-color:#00A9ED"/>
		<stop  offset="1" style="stop-color:#65106B"/>
	</linearGradient>
	<path id="Path_19081" fill="url(#Path_19081_1_)" d="M23.05,53.5h2.1v2.1h-2.1V53.5z"/>
	
		<linearGradient id="Path_19082_1_" gradientUnits="userSpaceOnUse" x1="138.7139" y1="-116.0713" x2="138.7139" y2="-117.0713" gradientTransform="matrix(2.1 0 0 -2.1 -262.9994 -190.2506)">
		<stop  offset="0.13" style="stop-color:#00A9ED"/>
		<stop  offset="1" style="stop-color:#65106B"/>
	</linearGradient>
	<path id="Path_19082" fill="url(#Path_19082_1_)" d="M27.25,53.5h2.1v2.1h-2.1V53.5z"/>
	
		<linearGradient id="Path_19083_1_" gradientUnits="userSpaceOnUse" x1="138.7139" y1="-116.0713" x2="138.7139" y2="-117.0713" gradientTransform="matrix(2.1 0 0 -2.1 -258.8002 -190.2506)">
		<stop  offset="0.13" style="stop-color:#00A9ED"/>
		<stop  offset="1" style="stop-color:#65106B"/>
	</linearGradient>
	<path id="Path_19083" fill="url(#Path_19083_1_)" d="M31.45,53.5h2.1v2.1h-2.1V53.5z"/>
	
		<linearGradient id="Path_19084_1_" gradientUnits="userSpaceOnUse" x1="138.7139" y1="-116.0713" x2="138.7139" y2="-117.0713" gradientTransform="matrix(2.1 0 0 -2.1 -254.601 -190.2506)">
		<stop  offset="0.13" style="stop-color:#00A9ED"/>
		<stop  offset="1" style="stop-color:#65106B"/>
	</linearGradient>
	<path id="Path_19084" fill="url(#Path_19084_1_)" d="M35.65,53.5h2.1v2.1h-2.1V53.5z"/>
	
		<linearGradient id="Path_19085_1_" gradientUnits="userSpaceOnUse" x1="138.7139" y1="-116.0708" x2="138.7139" y2="-117.0703" gradientTransform="matrix(2.1 0 0 -2.1 -271.3998 -186.0494)">
		<stop  offset="0.13" style="stop-color:#00A9ED"/>
		<stop  offset="1" style="stop-color:#65106B"/>
	</linearGradient>
	<path id="Path_19085" fill="url(#Path_19085_1_)" d="M18.85,57.7h2.1v2.1h-2.1V57.7z"/>
	
		<linearGradient id="Path_19086_1_" gradientUnits="userSpaceOnUse" x1="138.7139" y1="-116.0708" x2="138.7139" y2="-117.0703" gradientTransform="matrix(2.1 0 0 -2.1 -267.2006 -186.0494)">
		<stop  offset="0.13" style="stop-color:#00A9ED"/>
		<stop  offset="1" style="stop-color:#65106B"/>
	</linearGradient>
	<path id="Path_19086" fill="url(#Path_19086_1_)" d="M23.05,57.7h2.1v2.1h-2.1V57.7z"/>
	
		<linearGradient id="Path_19087_1_" gradientUnits="userSpaceOnUse" x1="138.7139" y1="-116.0708" x2="138.7139" y2="-117.0703" gradientTransform="matrix(2.1 0 0 -2.1 -262.9994 -186.0494)">
		<stop  offset="0.13" style="stop-color:#00A9ED"/>
		<stop  offset="1" style="stop-color:#65106B"/>
	</linearGradient>
	<path id="Path_19087" fill="url(#Path_19087_1_)" d="M27.25,57.7h2.1v2.1h-2.1V57.7z"/>
	
		<linearGradient id="Path_19088_1_" gradientUnits="userSpaceOnUse" x1="138.7139" y1="-116.0708" x2="138.7139" y2="-117.0703" gradientTransform="matrix(2.1 0 0 -2.1 -258.8002 -186.0494)">
		<stop  offset="0.13" style="stop-color:#00A9ED"/>
		<stop  offset="1" style="stop-color:#65106B"/>
	</linearGradient>
	<path id="Path_19088" fill="url(#Path_19088_1_)" d="M31.45,57.7h2.1v2.1h-2.1V57.7z"/>
	
		<linearGradient id="Path_19089_1_" gradientUnits="userSpaceOnUse" x1="138.7139" y1="-116.0708" x2="138.7139" y2="-117.0703" gradientTransform="matrix(2.1 0 0 -2.1 -254.601 -186.0494)">
		<stop  offset="0.13" style="stop-color:#00A9ED"/>
		<stop  offset="1" style="stop-color:#65106B"/>
	</linearGradient>
	<path id="Path_19089" fill="url(#Path_19089_1_)" d="M35.65,57.7h2.1v2.1h-2.1V57.7z"/>
	
		<linearGradient id="Path_19090_1_" gradientUnits="userSpaceOnUse" x1="12.3569" y1="51.7148" x2="12.3569" y2="50.7148" gradientTransform="matrix(63 0 0 -63 -746.0007 3259)">
		<stop  offset="0.13" style="stop-color:#00A9ED"/>
		<stop  offset="1" style="stop-color:#65106B"/>
	</linearGradient>
	<path id="Path_19090" fill="url(#Path_19090_1_)" d="M62.949,4.15H55.6v-2.1C55.6,1.47,55.13,1,54.55,1h-10.5
		C43.471,1,43,1.47,43,2.05v2.1H2.05C1.47,4.15,1,4.62,1,5.2l0,0v4.2c0,0.58,0.47,1.05,1.05,1.05l0,0H5.2V30.4
		c0,0.58,0.47,1.05,1.05,1.05S7.3,31.92,7.3,32.5s-0.47,1.05-1.05,1.05S5.2,33.08,5.2,32.5H3.1c0.002,0.769,0.287,1.51,0.8,2.081
		L1.21,38.17l0.013,0.01C1.083,38.356,1.004,38.574,1,38.8V43c0,0.278,0.111,0.545,0.308,0.742l2.1,2.1
		c0.196,0.197,0.463,0.309,0.742,0.309h4.2c0.278,0,0.545-0.111,0.742-0.309l2.1-2.1C11.389,43.545,11.5,43.278,11.5,43v-4.2
		c-0.005-0.226-0.083-0.442-0.224-0.618l0.013-0.011L8.6,34.58c1.156-1.286,1.05-3.266-0.236-4.422
		C8.055,29.88,7.693,29.667,7.3,29.53V10.45H43v1.05c0,0.58,0.471,1.05,1.05,1.05h2.101V61.9h-4.2v-42H39.85v4.2h-6.3V22h-2.1v2.1
		h-6.3v-1.05h-2.1v1.05h-6.3v-3.15H30.4v-2.1H16.75v-4.2h-2.1V61.9h-1.665l-4.943-4.942c-0.41-0.41-1.075-0.41-1.485,0l0,0
		L1.615,61.9H1V64h63v-2.1h-0.818c1.164-1.272,1.076-3.247-0.195-4.411c-0.375-0.343-0.826-0.589-1.317-0.718
		c0.653-1.611-0.123-3.449-1.735-4.103c-1.611-0.653-3.449,0.123-4.103,1.735c-0.308,0.759-0.308,1.608,0,2.367
		c-1.668,0.438-2.667,2.143-2.229,3.811c0.128,0.491,0.374,0.943,0.717,1.318H52.45V12.55h2.1c0.58,0,1.05-0.47,1.05-1.05v-1.05
		h7.351c0.579,0,1.05-0.47,1.05-1.05l0,0V5.2C64,4.62,63.529,4.15,62.949,4.15L62.949,4.15z M6.775,35.65l1.575,2.1h-4.2l1.575-2.1
		H6.775z M9.4,42.564L7.915,44.05h-3.33L3.1,42.564V39.85h6.3V42.564z M58.436,6.25L55.6,8.14V6.25H58.436z M45.1,3.1h4.2v4.2h-4.2
		V3.1z M16.75,6.46l2.835,1.89h-5.67L16.75,6.46z M10.45,8.14L7.615,6.25h5.67L10.45,8.14z M20.215,6.25h5.67L23.05,8.14
		L20.215,6.25z M29.35,6.46l2.835,1.89h-5.67L29.35,6.46z M32.815,6.25h5.669L35.65,8.14L32.815,6.25z M3.1,6.25h0.735l3.15,2.1H3.1
		V6.25z M39.113,8.35l3.15-2.1H43v2.1H39.113z M50.35,58.436L48.46,55.6l1.89-2.834V58.436z M50.35,33.234L48.46,30.4l1.89-2.835
		V33.234z M48.25,33.865l1.891,2.835l-1.891,2.835V33.865z M48.25,26.935v-5.67l1.891,2.835L48.25,26.935z M48.25,46.465
		l1.891,2.835l-1.891,2.835V46.465z M50.35,45.829L48.46,43l1.89-2.835V45.829z M48.46,17.8l1.89-2.835v5.67L48.46,17.8z
		 M48.25,14.335V12.55h1.188L48.25,14.335z M39.85,26.2v10.5h-6.3V26.2H39.85z M31.45,26.2v9.03l-2.415-2.388
		c-0.197-0.192-0.46-0.299-0.735-0.3h-3.15V26.2H31.45z M23.05,26.2v1.75h-6.3V26.2H23.05z M7.3,59.184l2.715,2.717h-5.43
		L7.3,59.184z M16.75,61.9V30.05h6.3v3.544c0,0.58,0.47,1.051,1.05,1.051h3.768l3.9,3.853c0.196,0.192,0.46,0.3,0.735,0.3h7.351
		V61.9H16.75z M48.25,59.064l1.891,2.836H48.25V59.064z M60.85,60.85c-0.58,0-1.05-0.47-1.05-1.05c0-0.579,0.47-1.05,1.05-1.05
		S61.9,59.221,61.9,59.8C61.9,60.38,61.43,60.85,60.85,60.85L60.85,60.85L60.85,60.85z M58.75,54.55c0.58,0,1.05,0.47,1.05,1.05
		s-0.47,1.051-1.05,1.051S57.7,56.18,57.7,55.6l0,0C57.7,55.021,58.17,54.551,58.75,54.55L58.75,54.55z M56.65,58.75
		c0.58,0,1.05,0.471,1.05,1.05c0,0.58-0.47,1.05-1.05,1.05S55.6,60.38,55.6,59.8l0,0c0-0.579,0.47-1.05,1.049-1.05H56.65z
		 M53.5,10.45h-8.4V9.4h5.25c0.58,0,1.051-0.47,1.051-1.05l0,0V3.1h2.1V10.45z M59.064,8.35L61.9,6.46v1.89H59.064z"/>
</g>
</svg>
