<svg xmlns="http://www.w3.org/2000/svg" xmlns:xlink="http://www.w3.org/1999/xlink" width="72.002" height="72.002" viewBox="0 0 72.002 72.002">
  <defs>
    <linearGradient id="linear-gradient" x1="0.5" x2="0.5" y2="1" gradientUnits="objectBoundingBox">
      <stop offset="0.13" stop-color="#00a9ed"/>
      <stop offset="1" stop-color="#65106b"/>
    </linearGradient>
  </defs>
  <path id="Union_45" data-name="Union 45" d="M-2077.834,20190a3.167,3.167,0,0,1-3.167-3.166,3.168,3.168,0,0,1,3.167-3.162h9.729a15.626,15.626,0,0,1-1.353-.9,1.053,1.053,0,0,1-.223-1.475,1.053,1.053,0,0,1,1.474-.223,13.142,13.142,0,0,0,9.8,2.447,13.254,13.254,0,0,0,11.259-14.3l-2.64-32.93c0-.01-.005-.021-.005-.031a30.15,30.15,0,0,0-.289-3.02l-1.535-10.377a3.2,3.2,0,0,0-3.562-2.727c-2.716.365-2.63,3.152-2.6,3.582l.623,4.217a1.055,1.055,0,0,1-2.088.309l-.623-4.252a3.9,3.9,0,0,0-.486-1.271,1.526,1.526,0,0,0-1.672-.779,1.836,1.836,0,0,0-1.541,2.086l.213,1.436v0l.719,4.881a1.055,1.055,0,0,1-2.088.309l-.694-4.732a1.837,1.837,0,0,0-1.9-.973,1.833,1.833,0,0,0-1.541,2.088l.466,3.186.552,3.73a1.055,1.055,0,0,1-2.088.309l-.522-3.547a1.819,1.819,0,0,0-1.839-.877,1.837,1.837,0,0,0-1.546,2.088l.608,4.1v.01l.491,3.334a1.055,1.055,0,0,1-2.088.3l-.476-3.229a1.836,1.836,0,0,0-1.966-1.141,1.849,1.849,0,0,0-1.545,2.094l1.611,10.914c.127.836.284,1.678.481,2.5.005.031.01.061.015.086l3.329,21.926a13.149,13.149,0,0,0,2.235,5.285,1.06,1.06,0,0,1-.243,1.475,1.058,1.058,0,0,1-1.469-.25,15.227,15.227,0,0,1-2.6-6.141c0-.01-.005-.025-.005-.035l-3.324-21.9c-.2-.861-.375-1.748-.5-2.631l-1.611-10.914a3.946,3.946,0,0,1,3.319-4.484,3.87,3.87,0,0,1,1.824.158l-.167-1.146a3.952,3.952,0,0,1,3.319-4.488,3.977,3.977,0,0,1,1.728.131l-.076-.531a3.95,3.95,0,0,1,3.319-4.484,3.955,3.955,0,0,1,1.981.217,3.947,3.947,0,0,1,3.309-3.227,3.514,3.514,0,0,1,3.045.881,4.707,4.707,0,0,1,3.826-2.686,5.314,5.314,0,0,1,5.928,4.506l1.535,10.381c.152,1.061.258,2.139.309,3.207,2.853,35.592,2.665,33.205,2.686,33.631.02-.451-.081.881,1.3-16.4a3.87,3.87,0,0,1-1.779-3.254v-14.68a7.533,7.533,0,0,1,4.089-6.693l.917-6.2a5.318,5.318,0,0,1,5.923-4.51,4.692,4.692,0,0,1,3.836,2.686,3.562,3.562,0,0,1,3.045-.877,3.942,3.942,0,0,1,3.3,3.227,3.89,3.89,0,0,1,1.981-.217,3.95,3.95,0,0,1,3.319,4.484l-.076.531a3.977,3.977,0,0,1,1.728-.131,3.944,3.944,0,0,1,3.319,4.488l-.167,1.15a3.823,3.823,0,0,1,1.824-.162,3.946,3.946,0,0,1,3.319,4.484l-1.611,10.914c-.076.533-.167,1.064-.274,1.582a1.056,1.056,0,0,1-1.034.852.97.97,0,0,1-.208-.021,1.054,1.054,0,0,1-.826-1.24c.1-.486.182-.984.258-1.48l1.611-10.914a1.849,1.849,0,0,0-1.545-2.094,1.836,1.836,0,0,0-1.966,1.141l-.476,3.229a1.055,1.055,0,0,1-2.088-.3l.486-3.3a.063.063,0,0,1,.005-.031l.6-4.109a1.835,1.835,0,0,0-1.54-2.092,1.825,1.825,0,0,0-1.839.881l-.522,3.547a1.055,1.055,0,1,1-2.088-.309l.547-3.7v-.035l.471-3.186a1.833,1.833,0,0,0-1.54-2.088,1.829,1.829,0,0,0-1.9.973l-.7,4.732a1.053,1.053,0,1,1-2.083-.309l.72-4.885v-.016l.213-1.42c.319-2.168-3.086-3.379-3.694-.07a.115.115,0,0,1-.005.041l-.628,4.246a1.053,1.053,0,1,1-2.083-.309l.623-4.217a4.823,4.823,0,0,0-.279-1.809,2.64,2.64,0,0,0-2.326-1.773,3.208,3.208,0,0,0-3.562,2.727l-.76,5.152a7.8,7.8,0,0,1,1.2-.09,7.516,7.516,0,0,1,7.519,7.518v14.68a3.866,3.866,0,0,1-3.861,3.861h-7.337l-1.221,15.227c-.036.41-.051.82-.051,1.221a13.268,13.268,0,0,0,3.2,8.625,13.223,13.223,0,0,0,8.112,4.469,13.166,13.166,0,0,0,9.643-2.33,13.2,13.2,0,0,0,5.315-8.371l2.812-18.535a1.062,1.062,0,0,1,1.206-.887,1.054,1.054,0,0,1,.882,1.2l-2.817,18.555c0,.01-.005.025-.005.035a15.273,15.273,0,0,1-6.167,9.713c-.38.275-.77.527-1.171.766h9.729a3.168,3.168,0,0,1,3.167,3.162,3.167,3.167,0,0,1-3.167,3.166Zm-1.054-3.166a1.058,1.058,0,0,0,1.054,1.059h65.669a1.058,1.058,0,0,0,1.054-1.059,1.057,1.057,0,0,0-1.054-1.055h-65.669A1.057,1.057,0,0,0-2078.888,20186.834Zm26.313-3.162h15.15a15.433,15.433,0,0,1-3.881-3.242,15.4,15.4,0,0,1-3.694-9.334A15.387,15.387,0,0,1-2052.575,20183.672Zm9.212-48.229v14.68a1.753,1.753,0,0,0,1.748,1.754h7.322a1.754,1.754,0,0,0,1.753-1.754v-2.148h-4.91a3.4,3.4,0,0,1-3.395-3.395,3.4,3.4,0,0,1,3.395-3.4h4.91v-5.736a5.392,5.392,0,0,0-1.586-3.824,5.374,5.374,0,0,0-3.826-1.586A5.416,5.416,0,0,0-2043.363,20135.443Zm4.626,9.137a1.289,1.289,0,0,0,1.287,1.287h4.91v-2.58h-4.91A1.29,1.29,0,0,0-2038.737,20144.58Zm-3.136-9.055a3.8,3.8,0,0,1,3.8-3.795,3.8,3.8,0,0,1,3.8,3.795,3.8,3.8,0,0,1-3.8,3.8A3.8,3.8,0,0,1-2041.874,20135.525Zm2.113,0a1.687,1.687,0,0,0,1.687,1.688,1.691,1.691,0,0,0,1.687-1.687,1.693,1.693,0,0,0-1.687-1.687A1.69,1.69,0,0,0-2039.761,20135.525Z" transform="translate(2081.001 -20117.998)" fill="url(#linear-gradient)"/>
</svg>
