<?xml version="1.0" encoding="utf-8"?>
<!-- Generator: Adobe Illustrator 16.0.0, SVG Export Plug-In . SVG Version: 6.00 Build 0)  -->
<!DOCTYPE svg PUBLIC "-//W3C//DTD SVG 1.1//EN" "http://www.w3.org/Graphics/SVG/1.1/DTD/svg11.dtd">
<svg version="1.1" id="Layer_1" xmlns="http://www.w3.org/2000/svg" xmlns:xlink="http://www.w3.org/1999/xlink" x="0px" y="0px"
	 width="63px" height="63px" viewBox="0 0 63 63" enable-background="new 0 0 63 63" xml:space="preserve">
<g id="cough" transform="translate(-1 -1)">
	
		<linearGradient id="Path_18144_1_" gradientUnits="userSpaceOnUse" x1="-229.8955" y1="371.0059" x2="-229.8955" y2="370.0059" gradientTransform="matrix(6.234 0 0 -6.707 1458.937 2516.061)">
		<stop  offset="0.13" style="stop-color:#00A9ED"/>
		<stop  offset="1" style="stop-color:#65106B"/>
	</linearGradient>
	<path id="Path_18144" fill="url(#Path_18144_1_)" d="M28.138,29.154l-1.437-1.437l-4.045,4.045l5.326,2.662l0.908-1.819l-2.8-1.4
		L28.138,29.154z"/>
	
		<linearGradient id="Path_18145_1_" gradientUnits="userSpaceOnUse" x1="-267.6592" y1="422.8262" x2="-267.6592" y2="421.8262" gradientTransform="matrix(54.87 0 0 -63.0017 14723.041 26639.8086)">
		<stop  offset="0.13" style="stop-color:#00A9ED"/>
		<stop  offset="1" style="stop-color:#65106B"/>
	</linearGradient>
	<path id="Path_18145" fill="url(#Path_18145_1_)" d="M53.839,56.646v-9.553l3.101-3.722c4.558-5.477,7.055-12.375,7.06-19.5
		C64,11.24,53.76,0.999,41.127,0.998c-2.459,0-4.901,0.396-7.234,1.174l-0.8,0.268c-2.363,0.784-4.916,0.784-7.279,0l-3.2-1.068
		C21.87,1.124,21.09,0.999,20.306,1C14.136,1.008,9.137,6.007,9.129,12.177v0.3c0.013,5.6,4.268,10.279,9.842,10.823
		c-0.461,1.729-0.696,3.511-0.7,5.3v3.68c0,1.412-0.173,2.819-0.516,4.188l-0.668,2.672l0.944,0.471
		c1.095,0.545,2.282,0.879,3.5,0.982l1.024,4.1h4.721c-0.177,0.656-0.521,1.254-1,1.736l-1.065,1.07l0.332,0.83
		c1.596,3.987,5.846,6.23,10.039,5.3l4.029-0.899v0.027c0,0.984-0.476,1.907-1.275,2.48l-2.8,2c-1.876,1.336-3.277,3.234-4,5.421
		L31.091,64h28.222l-0.709-2.133C57.82,59.534,56.091,57.639,53.839,56.646z M11.161,12.482v-0.3
		c0.006-5.048,4.097-9.139,9.145-9.145c0.564,0,1.124,0.09,1.659,0.27l3.2,1.067c2.78,0.923,5.784,0.923,8.563,0l0.801-0.267
		c10.918-3.64,22.72,2.26,26.359,13.178c0.709,2.126,1.07,4.352,1.07,6.593c-0.004,6.65-2.335,13.089-6.589,18.2l-2.625,3.15
		l-7.642-7.642c1.706-1.784,2.65-4.163,2.633-6.632c0-2.51-2.035-4.544-4.545-4.543c-0.019,0-0.037,0-0.055,0
		c-1.229-0.005-2.407,0.481-3.275,1.351L39.43,28.2c-2.06-1.217-3.607-3.139-4.355-5.41l-0.764-2.293
		c-0.869-2.51-3.609-3.841-6.12-2.971c-0.517,0.179-0.999,0.444-1.426,0.785l-1.8,1.438c-1.274,1.019-2.856,1.575-4.488,1.577
		h-0.445c-4.89,0.004-8.859-3.951-8.874-8.84L11.161,12.482z M41.93,61.968h-7.9c0.643-1.221,1.563-2.273,2.688-3.073l2.801-2
		c1.334-0.955,2.125-2.494,2.127-4.135v-0.48l2.254-0.5L43.457,49.8l-8.314,1.849c-0.48,0.106-0.97,0.16-1.461,0.16
		c-2.596,0.008-4.963-1.484-6.075-3.83l0.111-0.111c1.107-1.113,1.73-2.617,1.735-4.188v-1.019h-5.3L23.129,38.6h-0.79
		c-0.986,0-1.963-0.193-2.876-0.566l0.267-1.068c0.382-1.531,0.576-3.104,0.576-4.681V28.6c0.004-1.785,0.264-3.56,0.77-5.271
		c1.884-0.125,3.685-0.822,5.161-2l1.8-1.439c0.507-0.401,1.138-0.613,1.785-0.6c1.163-0.002,2.195,0.742,2.561,1.845l0.764,2.293
		c0.997,3.021,3.162,5.517,6.011,6.931l0.655,0.327l1.5-1.5c0.503-0.497,1.186-0.768,1.893-0.754
		c0.666-0.002,1.305,0.263,1.775,0.736c0.484,0.489,0.75,1.155,0.734,1.844c0.006,1.985-0.785,3.889-2.193,5.288l-1.28,1.281
		l9.565,9.565v8.867c-4.283-0.783-8.487,1.717-9.844,5.854L41.93,61.968z M44.098,61.968c1.476-3.415,5.441-4.987,8.857-3.512
		c1.575,0.681,2.831,1.937,3.512,3.512H44.098z"/>
	
		<linearGradient id="Path_18146_1_" gradientUnits="userSpaceOnUse" x1="-260.936" y1="416.2393" x2="-260.936" y2="415.2402" gradientTransform="matrix(22.969 0 0 -30.4835 6005.9277 12721.9834)">
		<stop  offset="0.13" style="stop-color:#00A9ED"/>
		<stop  offset="1" style="stop-color:#65106B"/>
	</linearGradient>
	<path id="Path_18146" fill="url(#Path_18146_1_)" d="M19.395,61.635c-0.288,0.217-0.639,0.334-1,0.332
		c-0.629,0-1.14-0.512-1.139-1.141c0-0.302,0.12-0.591,0.333-0.805l0.77-0.77c1.238-1.239,1.237-3.248-0.002-4.486
		c-0.594-0.594-1.4-0.928-2.241-0.928h-0.137c-0.721,0.002-1.419,0.25-1.981,0.7l-3.412,2.729c-0.637,0.55-1.599,0.479-2.148-0.158
		s-0.479-1.598,0.158-2.147c0.029-0.025,0.059-0.05,0.09-0.071l3.356-2.687c1.326-1.062,1.54-2.997,0.478-4.322
		c-0.583-0.729-1.466-1.153-2.399-1.153H4.048c-0.561,0-1.016-0.455-1.016-1.016s0.455-1.016,1.016-1.016h6.245
		c1.602,0.002,2.901-1.295,2.903-2.896c0.001-1.1-0.62-2.105-1.604-2.598L10,38.402c-0.532-0.264-0.868-0.806-0.867-1.399
		c-0.001-0.802,0.647-1.452,1.449-1.453c0.226-0.001,0.449,0.052,0.651,0.153l3.543,1.771l0.909-1.817l-3.545-1.773
		c-1.722-0.859-3.814-0.16-4.673,1.562c-0.241,0.482-0.366,1.014-0.367,1.553c-0.004,1.363,0.766,2.611,1.987,3.218l1.593,0.8
		c0.428,0.215,0.602,0.736,0.387,1.165c-0.146,0.294-0.446,0.479-0.774,0.479H4.048c-1.684,0-3.05,1.365-3.05,3.05
		s1.366,3.05,3.05,3.05h6.07c0.575,0,1.042,0.465,1.043,1.041c0,0.316-0.144,0.617-0.392,0.815L7.414,53.3
		c-1.533,1.228-1.78,3.465-0.553,4.997c1.228,1.533,3.465,1.781,4.998,0.553l0,0l3.412-2.729c0.202-0.161,0.453-0.249,0.711-0.249
		h0.137c0.629,0,1.139,0.512,1.139,1.141c0,0.302-0.12,0.591-0.333,0.805l-0.77,0.77c-1.238,1.239-1.237,3.248,0.002,4.486
		C16.752,63.666,17.559,64,18.4,64c0.799-0.002,1.577-0.262,2.217-0.74l3.35-2.512l-1.219-1.626L19.395,61.635z"/>
	
		<linearGradient id="Path_18147_1_" gradientUnits="userSpaceOnUse" x1="-141.7915" y1="237.582" x2="-141.7915" y2="236.582" gradientTransform="matrix(2.032 0 0 -2.032 304.3619 529.4943)">
		<stop  offset="0.13" style="stop-color:#00A9ED"/>
		<stop  offset="1" style="stop-color:#65106B"/>
	</linearGradient>
	<path id="Path_18147" fill="url(#Path_18147_1_)" d="M15.226,46.727h2.032v2.031h-2.032V46.727z"/>
	
		<linearGradient id="Path_18148_1_" gradientUnits="userSpaceOnUse" x1="-141.7915" y1="237.582" x2="-141.7915" y2="236.582" gradientTransform="matrix(2.032 0 0 -2.032 306.3931 525.4298)">
		<stop  offset="0.13" style="stop-color:#00A9ED"/>
		<stop  offset="1" style="stop-color:#65106B"/>
	</linearGradient>
	<path id="Path_18148" fill="url(#Path_18148_1_)" d="M17.258,42.661h2.032v2.032h-2.032V42.661z"/>
	
		<linearGradient id="Path_18149_1_" gradientUnits="userSpaceOnUse" x1="-141.7915" y1="237.582" x2="-141.7915" y2="236.582" gradientTransform="matrix(2.032 0 0 -2.032 308.4263 531.5255)">
		<stop  offset="0.13" style="stop-color:#00A9ED"/>
		<stop  offset="1" style="stop-color:#65106B"/>
	</linearGradient>
	<path id="Path_18149" fill="url(#Path_18149_1_)" d="M19.29,48.758h2.032v2.032H19.29V48.758z"/>
	
		<linearGradient id="Path_18150_1_" gradientUnits="userSpaceOnUse" x1="-141.7915" y1="237.582" x2="-141.7915" y2="236.582" gradientTransform="matrix(2.032 0 0 -2.032 310.4595 535.5919)">
		<stop  offset="0.13" style="stop-color:#00A9ED"/>
		<stop  offset="1" style="stop-color:#65106B"/>
	</linearGradient>
	<path id="Path_18150" fill="url(#Path_18150_1_)" d="M21.323,52.823h2.032v2.032h-2.032V52.823z"/>
</g>
</svg>
