<?xml version="1.0" encoding="utf-8"?>
<!-- Generator: Adobe Illustrator 14.0.0, SVG Export Plug-In . SVG Version: 6.00 Build 43363)  -->
<!DOCTYPE svg PUBLIC "-//W3C//DTD SVG 1.1//EN" "http://www.w3.org/Graphics/SVG/1.1/DTD/svg11.dtd">
<svg version="1.1" id="depreciation" xmlns="http://www.w3.org/2000/svg" xmlns:xlink="http://www.w3.org/1999/xlink" x="0px"
	 y="0px" width="65px" height="65px" viewBox="0 0 65 65" enable-background="new 0 0 65 65" xml:space="preserve">
<g id="Group_3607" transform="translate(-346.854 -6953.642)">
	
		<linearGradient id="Path_18960_1_" gradientUnits="userSpaceOnUse" x1="360.6567" y1="7003.4839" x2="360.6567" y2="7002.4839" gradientTransform="matrix(47.6002 0 0 -47.6 -16788.1348 340320.5625)">
		<stop  offset="0.13" style="stop-color:#00A9ED"/>
		<stop  offset="1" style="stop-color:#65106B"/>
	</linearGradient>
	<path id="Path_18960" fill="url(#Path_18960_1_)" d="M362.451,6963.405c-0.573-0.457-1.408-0.363-1.865,0.21
		c-3.373,4.203-5.202,9.436-5.183,14.825c0,13.145,10.655,23.8,23.8,23.801s23.8-10.655,23.801-23.799
		c0-13.145-10.655-23.8-23.8-23.801c-5.165,0-10.189,1.68-14.315,4.787c-0.586,0.441-0.702,1.274-0.26,1.86
		c0.441,0.585,1.274,0.702,1.859,0.26c9.315-7.036,22.57-5.187,29.606,4.128c6.542,8.663,5.459,20.873-2.506,28.249v-2.03
		c-0.003-1.593-0.852-3.063-2.229-3.863l-0.515-0.3c-0.636-0.367-1.448-0.15-1.815,0.484c-0.367,0.636-0.149,1.448,0.485,1.815l0,0
		l0.515,0.3c0.558,0.325,0.899,0.921,0.9,1.565v4.132c-1.026,0.688-2.111,1.282-3.242,1.779v-1.387
		c-0.021-0.732-0.631-1.311-1.364-1.291c-0.704,0.02-1.271,0.587-1.291,1.291v2.347c-3.823,1.095-7.878,1.091-11.699-0.011v-2.336
		c0.02-0.732-0.559-1.344-1.291-1.363c-0.733-0.021-1.345,0.558-1.364,1.291c-0.001,0.024-0.001,0.049,0,0.072v1.367
		c-1.066-0.471-2.091-1.03-3.065-1.67v-4.225c0.001-0.645,0.344-1.24,0.9-1.564l6.588-3.811c1.117,2.252,3.849,3.172,6.101,2.055
		c0.918-0.456,1.656-1.208,2.094-2.135l1.21,0.7c0.635,0.366,1.447,0.149,1.814-0.485c0.367-0.636,0.149-1.448-0.485-1.815
		l-2.101-1.215v-1.4c2.666-1.595,4.298-4.472,4.3-7.578v-8.774c-0.002-2.412-1.957-4.367-4.369-4.369h-8.328l-2.447-0.8
		c-1.01-0.332-2.097,0.218-2.428,1.228c-0.063,0.193-0.097,0.396-0.097,0.599v12.123c0.005,3.089,1.622,5.951,4.266,7.549v1.523
		l-7.441,4.3c-1.378,0.8-2.227,2.271-2.229,3.864v2.159c-8.227-7.491-9.233-20.079-2.301-28.781c0.458-0.573,0.363-1.409-0.21-1.866
		L362.451,6963.405z M374.712,6964.09c0.134,0.044,0.273,0.066,0.414,0.066h8.54c0.945,0.001,1.713,0.768,1.714,1.714v2.672h-12.358
		v-5.007L374.712,6964.09z M373.023,6971.197h12.358v3.45c0,3.413-2.767,6.179-6.18,6.179c-3.412,0-6.179-2.767-6.179-6.179
		V6971.197z M379.202,6983.481c0.633,0.001,1.263-0.066,1.881-0.2v1.214c0,1.049-0.851,1.9-1.9,1.9s-1.9-0.851-1.9-1.9l0,0v-1.225
		C377.913,6983.411,378.555,6983.481,379.202,6983.481L379.202,6983.481z"/>
	
		<linearGradient id="Path_18962_1_" gradientUnits="userSpaceOnUse" x1="401.4595" y1="6873.9072" x2="401.4595" y2="6872.9077" gradientTransform="matrix(5.927 0 0 -2.656 -2026.8743 25264.5508)">
		<stop  offset="0.13" style="stop-color:#00A9ED"/>
		<stop  offset="1" style="stop-color:#65106B"/>
	</linearGradient>
	<path id="Path_18962" fill="url(#Path_18962_1_)" d="M354.188,7009.858c0.733,0.021,1.344-0.558,1.364-1.291
		c0.02-0.733-0.558-1.344-1.291-1.364c-0.024,0-0.049,0-0.073,0h-3.271c-0.733,0.021-1.312,0.631-1.291,1.364
		c0.019,0.705,0.586,1.272,1.291,1.291H354.188z"/>
	
		<linearGradient id="Path_18963_1_" gradientUnits="userSpaceOnUse" x1="401.4595" y1="6873.9072" x2="401.4595" y2="6872.9077" gradientTransform="matrix(5.927 0 0 -2.656 -1973.2717 25264.5508)">
		<stop  offset="0.13" style="stop-color:#00A9ED"/>
		<stop  offset="1" style="stop-color:#65106B"/>
	</linearGradient>
	<path id="Path_18963" fill="url(#Path_18963_1_)" d="M407.792,7007.203h-3.271c-0.733,0.021-1.312,0.631-1.291,1.364
		c0.02,0.705,0.586,1.272,1.291,1.291h3.271c0.732,0.021,1.344-0.558,1.363-1.291c0.021-0.733-0.558-1.344-1.291-1.364
		C407.84,7007.203,407.817,7007.203,407.792,7007.203z"/>
	
		<linearGradient id="Path_18964_1_" gradientUnits="userSpaceOnUse" x1="361.3389" y1="6873.9072" x2="361.3389" y2="6872.9072" gradientTransform="matrix(42.5989 0 0 -2.656 -15013.3867 25264.5508)">
		<stop  offset="0.13" style="stop-color:#00A9ED"/>
		<stop  offset="1" style="stop-color:#65106B"/>
	</linearGradient>
	<path id="Path_18964" fill="url(#Path_18964_1_)" d="M359.292,7007.203c-0.733-0.02-1.344,0.559-1.364,1.291
		c-0.021,0.734,0.558,1.344,1.291,1.364c0.024,0.001,0.049,0.001,0.073,0h39.869c0.733,0.021,1.345-0.558,1.364-1.291
		c0.021-0.733-0.558-1.344-1.291-1.364c-0.024,0-0.049,0-0.073,0H359.292z"/>
	
		<linearGradient id="Path_18965_1_" gradientUnits="userSpaceOnUse" x1="359.5322" y1="6873.8535" x2="359.5322" y2="6872.8535" gradientTransform="matrix(59.0491 0 0 -2.655 -20850.498 25265.0605)">
		<stop  offset="0.13" style="stop-color:#00A9ED"/>
		<stop  offset="1" style="stop-color:#65106B"/>
	</linearGradient>
	<path id="Path_18965" fill="url(#Path_18965_1_)" d="M407.792,7014.988h-56.467c-0.732,0.02-1.311,0.631-1.291,1.363
		c0.02,0.705,0.587,1.271,1.291,1.291h56.467c0.732-0.02,1.311-0.631,1.291-1.363
		C409.064,7015.574,408.497,7015.006,407.792,7014.988z"/>
</g>
</svg>
