<?xml version="1.0" encoding="utf-8"?>
<!-- Generator: Adobe Illustrator 16.0.0, SVG Export Plug-In . SVG Version: 6.00 Build 0)  -->
<!DOCTYPE svg PUBLIC "-//W3C//DTD SVG 1.1//EN" "http://www.w3.org/Graphics/SVG/1.1/DTD/svg11.dtd">
<svg version="1.1" id="Layer_1" xmlns="http://www.w3.org/2000/svg" xmlns:xlink="http://www.w3.org/1999/xlink" x="0px" y="0px"
	 width="63px" height="60.898px" viewBox="0 0 63 60.898" enable-background="new 0 0 63 60.898" xml:space="preserve">
<g id="money" transform="translate(0 -7.982)">
	<g id="Group_2358" transform="translate(0 27.984)">
		<g id="Group_2357">
			
				<linearGradient id="Path_17439_1_" gradientUnits="userSpaceOnUse" x1="-268.6201" y1="392.5363" x2="-268.6201" y2="391.5363" gradientTransform="matrix(54.425 0 0 -27.062 14646.8574 10622.7988)">
				<stop  offset="0.13" style="stop-color:#00A9ED"/>
				<stop  offset="1" style="stop-color:#65106B"/>
			</linearGradient>
			<path id="Path_17439" fill="url(#Path_17439_1_)" d="M53.529,0H0.9C0.403,0,0,0.403,0,0.9v25.263c0,0.497,0.403,0.899,0.9,0.899
				h35.788c0.496,0,0.899-0.402,0.899-0.899s-0.403-0.9-0.899-0.9l0,0H1.8V1.804h50.825V4.06c0,0.497,0.402,0.9,0.9,0.9l0,0
				c0.496,0,0.899-0.403,0.899-0.9V0.9C54.425,0.404,54.025,0.003,53.529,0z"/>
		</g>
	</g>
	<g id="Group_2360" transform="translate(2.104 14.302)">
		<g id="Group_2359">
			
				<linearGradient id="Path_17440_1_" gradientUnits="userSpaceOnUse" x1="-269.8335" y1="386.0552" x2="-269.8335" y2="385.0552" gradientTransform="matrix(46.032 0 0 -11.2804 12444.0137 4354.8745)">
				<stop  offset="0.13" style="stop-color:#00A9ED"/>
				<stop  offset="1" style="stop-color:#65106B"/>
			</linearGradient>
			<path id="Path_17440" fill="url(#Path_17440_1_)" d="M45.305,9.494l-42.1-9.472C2.72-0.088,2.238,0.214,2.127,0.7
				c0,0.002-0.001,0.004-0.001,0.006l-2.104,9.476c-0.108,0.486,0.198,0.969,0.685,1.077c0.486,0.108,0.969-0.199,1.077-0.686
				l1.908-8.592l41.218,9.274c0.066,0.015,0.133,0.022,0.2,0.021c0.497,0.013,0.909-0.381,0.922-0.877
				c0.011-0.438-0.294-0.818-0.722-0.905L45.305,9.494z"/>
		</g>
	</g>
	<g id="Group_2362" transform="translate(13.666 7.982)">
		<g id="Group_2361">
			
				<linearGradient id="Path_17441_1_" gradientUnits="userSpaceOnUse" x1="-278.0688" y1="395.3254" x2="-278.0688" y2="394.3245" gradientTransform="matrix(29.1935 0 0 -12.3327 8132.3691 4875.4375)">
				<stop  offset="0.13" style="stop-color:#00A9ED"/>
				<stop  offset="1" style="stop-color:#65106B"/>
			</linearGradient>
			<path id="Path_17441" fill="url(#Path_17441_1_)" d="M28.632,10.595L3.372,0.07C2.933-0.113,2.427,0.074,2.214,0.5L0.109,4.71
				C-0.133,5.148,0.025,5.698,0.462,5.94C0.9,6.182,1.451,6.024,1.693,5.586c0.002-0.005,0.005-0.01,0.008-0.016
				C1.71,5.554,1.719,5.536,1.727,5.518l0,0l1.727-3.456l24.479,10.2c0.461,0.193,0.992-0.023,1.186-0.484s-0.024-0.991-0.485-1.185
				l0,0L28.632,10.595z"/>
		</g>
	</g>
	<g id="Group_2364" transform="translate(33.68 32.194)">
		<g id="Group_2363">
			
				<linearGradient id="Path_17442_1_" gradientUnits="userSpaceOnUse" x1="-281.0228" y1="186.0656" x2="-281.0228" y2="185.0656" gradientTransform="matrix(10.154 0 0 -1.8 2858.5784 334.9181)">
				<stop  offset="0.13" style="stop-color:#00A9ED"/>
				<stop  offset="1" style="stop-color:#65106B"/>
			</linearGradient>
			<path id="Path_17442" fill="url(#Path_17442_1_)" d="M9.256,0H0.9C0.403,0,0,0.403,0,0.901S0.403,1.8,0.9,1.8h8.354
				c0.498,0,0.9-0.402,0.9-0.899S9.752,0,9.254,0H9.256z"/>
		</g>
	</g>
	<g id="Group_2366" transform="translate(16.9 32.254)">
		<g id="Group_2365">
			
				<linearGradient id="Path_17443_1_" gradientUnits="userSpaceOnUse" x1="-276.0616" y1="381.6228" x2="-276.0616" y2="380.6228" gradientTransform="matrix(18.524 0 0 -18.524 5123.0293 7069.188)">
				<stop  offset="0.13" style="stop-color:#00A9ED"/>
				<stop  offset="1" style="stop-color:#65106B"/>
			</linearGradient>
			<path id="Path_17443" fill="url(#Path_17443_1_)" d="M9.262,0C4.147,0,0,4.147,0,9.262s4.147,9.262,9.262,9.262
				s9.262-4.146,9.262-9.262l0,0C18.524,4.147,14.377,0,9.262,0z M9.262,16.84c-4.186,0-7.578-3.393-7.578-7.577
				c0-4.186,3.393-7.578,7.578-7.578c4.185,0,7.578,3.393,7.578,7.578C16.84,13.447,13.447,16.84,9.262,16.84L9.262,16.84z"/>
		</g>
	</g>
	<g id="Group_2368" transform="translate(39.845 35.201)">
		<g id="Group_2367">
			
				<linearGradient id="Path_17444_1_" gradientUnits="userSpaceOnUse" x1="-301.8753" y1="388.1504" x2="-301.8753" y2="387.1504" gradientTransform="matrix(23.156 0 0 -33.68 7001.8013 13072.9063)">
				<stop  offset="0.13" style="stop-color:#00A9ED"/>
				<stop  offset="1" style="stop-color:#65106B"/>
			</linearGradient>
			<path id="Path_17444" fill="url(#Path_17444_1_)" d="M11.578,0C6.001,0,0.001,1.318,0.001,4.21v25.26c0,2.893,6,4.21,11.577,4.21
				c5.578,0,11.578-1.317,11.578-4.21V4.21C23.155,1.318,17.156,0,11.578,0z M21.051,29.454c-0.16,0.584-3.315,2.121-9.474,2.121
				c-6.157,0-9.313-1.537-9.473-2.105v-1.654c2.239,1.128,5.938,1.654,9.473,1.654s7.234-0.531,9.474-1.655V29.454z M21.051,25.244
				c-0.16,0.584-3.315,2.121-9.474,2.121c-6.157,0-9.313-1.537-9.473-2.105v-1.654c2.239,1.128,5.938,1.654,9.473,1.654
				s7.234-0.531,9.474-1.655V25.244z M21.051,21.034c-0.16,0.584-3.315,2.121-9.474,2.121c-6.157,0-9.313-1.537-9.473-2.105v-1.654
				c2.239,1.128,5.938,1.654,9.473,1.654s7.234-0.532,9.474-1.656V21.034z M21.051,16.824c-0.16,0.584-3.315,2.121-9.474,2.121
				c-6.157,0-9.313-1.537-9.473-2.105v-1.655c2.239,1.129,5.938,1.655,9.473,1.655s7.234-0.532,9.474-1.656V16.824z M21.051,12.614
				c-0.16,0.584-3.315,2.121-9.474,2.121c-6.157,0-9.313-1.537-9.473-2.105v-1.655c2.239,1.123,5.938,1.655,9.473,1.655
				s7.234-0.532,9.474-1.656V12.614z M21.051,8.404c-0.16,0.584-3.315,2.121-9.474,2.121c-6.157,0-9.313-1.537-9.473-2.105V6.765
				C4.344,7.888,8.044,8.42,11.578,8.42s7.234-0.532,9.474-1.656V8.404z M11.578,6.315c-6.147,0-9.3-1.532-9.473-2.086V4.228
				c0.169-0.587,3.325-2.118,9.473-2.118c6.101,0,9.263,1.509,9.474,2.104C20.844,4.806,17.682,6.315,11.578,6.315L11.578,6.315z"/>
		</g>
	</g>
	<g id="Group_2370" transform="translate(4.209 32.194)">
		<g id="Group_2369">
			
				<linearGradient id="Path_17445_1_" gradientUnits="userSpaceOnUse" x1="-259.3062" y1="381.8166" x2="-259.3062" y2="380.8166" gradientTransform="matrix(14.433 0 0 -18.643 3749.7917 7118.2241)">
				<stop  offset="0.13" style="stop-color:#00A9ED"/>
				<stop  offset="1" style="stop-color:#65106B"/>
			</linearGradient>
			<path id="Path_17445" fill="url(#Path_17445_1_)" d="M13.533,16.839H5.577l-3.769-4.126V5.872l4.166-4.068h7.562
				c0.497,0,0.9-0.402,0.9-0.899s-0.403-0.9-0.9-0.9H5.608C5.372,0.003,5.145,0.095,4.976,0.26l-4.7,4.586
				C0.1,5.051,0.004,5.313,0.004,5.583v7.485c0,0.225,0.084,0.441,0.236,0.607l4.276,4.677c0.17,0.188,0.413,0.295,0.666,0.294
				h8.355c0.497,0,0.9-0.402,0.9-0.899s-0.403-0.9-0.9-0.9L13.533,16.839z"/>
		</g>
	</g>
</g>
</svg>
