<?xml version="1.0" encoding="utf-8"?>
<!-- Generator: Adobe Illustrator 14.0.0, SVG Export Plug-In . SVG Version: 6.00 Build 43363)  -->
<!DOCTYPE svg PUBLIC "-//W3C//DTD SVG 1.1//EN" "http://www.w3.org/Graphics/SVG/1.1/DTD/svg11.dtd">
<svg version="1.1" id="Layer_1" xmlns="http://www.w3.org/2000/svg" xmlns:xlink="http://www.w3.org/1999/xlink" x="0px" y="0px"
	 width="63px" height="63px" viewBox="0 0 63 63" enable-background="new 0 0 63 63" xml:space="preserve">
<g id="injured" transform="translate(0 0)">
	
		<linearGradient id="Path_17549_1_" gradientUnits="userSpaceOnUse" x1="142.0879" y1="-122.8799" x2="142.0879" y2="-123.8799" gradientTransform="matrix(2.032 0 0 -2.032 -252.1436 -229.3706)">
		<stop  offset="0.13" style="stop-color:#00A9ED"/>
		<stop  offset="1" style="stop-color:#65106B"/>
	</linearGradient>
	<path id="Path_17549" fill="url(#Path_17549_1_)" d="M37.598,21.338c0,0.562-0.455,1.016-1.017,1.016s-1.017-0.455-1.017-1.016
		s0.455-1.016,1.017-1.016S37.598,20.777,37.598,21.338L37.598,21.338z"/>
	
		<linearGradient id="Path_17550_1_" gradientUnits="userSpaceOnUse" x1="142.0889" y1="-122.8799" x2="142.0889" y2="-123.8799" gradientTransform="matrix(2.032 0 0 -2.032 -262.3052 -229.3706)">
		<stop  offset="0.13" style="stop-color:#00A9ED"/>
		<stop  offset="1" style="stop-color:#65106B"/>
	</linearGradient>
	<path id="Path_17550" fill="url(#Path_17550_1_)" d="M27.435,21.338c0,0.562-0.455,1.016-1.016,1.016s-1.016-0.455-1.016-1.016
		s0.455-1.016,1.016-1.016l0,0C26.98,20.322,27.435,20.777,27.435,21.338z"/>
	
		<linearGradient id="Path_17551_1_" gradientUnits="userSpaceOnUse" x1="13.1396" y1="50.7139" x2="13.1396" y2="49.7139" gradientTransform="matrix(44.71 0 0 -63.001 -555.97 3195.032)">
		<stop  offset="0.13" style="stop-color:#00A9ED"/>
		<stop  offset="1" style="stop-color:#65106B"/>
	</linearGradient>
	<path id="Path_17551" fill="url(#Path_17551_1_)" d="M48.139,37.652l-9.525-1.9v-3.1c1.207-1.18,2.101-2.642,2.601-4.253
		c2.563-0.282,4.508-2.444,4.517-5.024v-9.15c0-7.857-6.369-14.226-14.227-14.226c-7.857,0-14.226,6.369-14.226,14.226v9.145
		c0.009,2.58,1.952,4.742,4.516,5.024c0.5,1.611,1.394,3.073,2.6,4.252v3.101l-9.524,1.899c-3.325,0.67-5.719,3.589-5.724,6.98V63
		h44.709V44.627C53.849,41.238,51.459,38.324,48.139,37.652z M39.63,17.273H23.371v-2.031h16.258L39.63,17.273z M41.62,26.245
		c0.022-0.278,0.043-0.558,0.043-0.842v-4.894c1.579,0.552,2.413,2.28,1.862,3.859C43.215,25.255,42.512,25.949,41.62,26.245z
		 M31.5,2.032c6.731,0.007,12.188,5.462,12.193,12.194v5.107c-0.598-0.462-1.292-0.783-2.031-0.939v-5.185H21.339v5.183
		c-0.739,0.157-1.434,0.478-2.032,0.939v-5.106C19.314,7.494,24.769,2.04,31.5,2.032z M19.307,23.371
		c0.004-1.288,0.818-2.433,2.032-2.861v4.89c0,0.284,0.019,0.564,0.043,0.842c-1.236-0.415-2.071-1.571-2.075-2.875V23.371z
		 M23.371,25.4v-6.1h16.258v6.1c0.003,4.49-3.634,8.131-8.124,8.135c-4.489,0.002-8.131-3.634-8.134-8.124
		C23.371,25.407,23.371,25.404,23.371,25.4z M31.5,35.561c1.785,0,3.539-0.475,5.081-1.375v2.051
		c-2.348,2.806-6.525,3.178-9.331,0.83c-0.301-0.252-0.579-0.529-0.83-0.83v-2.051c1.542,0.901,3.294,1.377,5.08,1.379V35.561z
		 M24.996,37.7c0.113,0.129,0.25,0.272,0.407,0.43v8.614c0,0.561-0.456,1.016-1.018,1.014c-0.56,0-1.013-0.454-1.014-1.014v-3.051
		c0-1.685-1.366-3.051-3.05-3.051c-1.684,0-3.05,1.366-3.05,3.051v10.16c0.001,0.562-0.453,1.018-1.015,1.018
		c-0.561,0.002-1.017-0.453-1.017-1.014c0-0.002,0-0.002,0-0.004V39.65c0.006-0.002,0.013-0.004,0.02-0.006L24.996,37.7z
		 M11.178,44.627c0.008-1.59,0.76-3.085,2.032-4.039v13.266c0.003,1.683,1.367,3.045,3.049,3.047
		c0.347-0.004,0.691-0.066,1.016-0.188v4.252h-6.1L11.178,44.627z M45.727,50.807h6.1v2.031h-6.1V50.807z M45.727,54.871h6.1V56.9
		h-6.1V54.871z M45.727,60.971v-2.035h6.1v2.031L45.727,60.971z M51.826,48.777h-6.1v-3.053h-2.033v15.242H19.307V43.693
		c0-0.562,0.457-1.016,1.018-1.015c0.56,0.001,1.013,0.454,1.014,1.015v3.048c0,1.685,1.366,3.05,3.05,3.05
		c1.684,0,3.05-1.365,3.05-3.05v-7.11c1.249,0.673,2.646,1.021,4.065,1.014c2.49,0.004,4.861-1.071,6.5-2.946l9.734,1.946
		c2.373,0.48,4.08,2.563,4.085,4.982L51.826,48.777z"/>
	
		<linearGradient id="Path_17552_1_" gradientUnits="userSpaceOnUse" x1="56.8906" y1="-9.749" x2="56.8906" y2="-10.749" gradientTransform="matrix(5.502 0 0 -5.502 -276.4355 -47.2446)">
		<stop  offset="0.13" style="stop-color:#00A9ED"/>
		<stop  offset="1" style="stop-color:#65106B"/>
	</linearGradient>
	<path id="Path_17552" fill="url(#Path_17552_1_)" d="M35.266,11.895l1.314-1.314l1.314,1.314l1.437-1.437l-1.313-1.314l1.313-1.314
		l-1.437-1.437L36.58,7.707l-1.314-1.314L33.829,7.83l1.313,1.314l-1.313,1.314L35.266,11.895z"/>
	
		<linearGradient id="Path_17553_1_" gradientUnits="userSpaceOnUse" x1="40.7637" y1="-31.7827" x2="40.7637" y2="-32.7827" gradientTransform="matrix(8.13 0 0 -4.1288 -299.9106 -104.8652)">
		<stop  offset="0.13" style="stop-color:#00A9ED"/>
		<stop  offset="1" style="stop-color:#65106B"/>
	</linearGradient>
	<path id="Path_17553" fill="url(#Path_17553_1_)" d="M29.467,30.484c0-1.123,0.91-2.032,2.033-2.032s2.033,0.91,2.033,2.032h2.032
		c0.035-2.245-1.756-4.093-4.001-4.128c-2.245-0.035-4.093,1.756-4.128,4.001c0,0.042,0,0.085,0,0.127H29.467z"/>
	
		<linearGradient id="Path_17554_1_" gradientUnits="userSpaceOnUse" x1="45.5908" y1="5.2559" x2="45.5908" y2="4.2559" gradientTransform="matrix(7.113 0 0 -7.113 -264.8467 58.7256)">
		<stop  offset="0.13" style="stop-color:#00A9ED"/>
		<stop  offset="1" style="stop-color:#65106B"/>
	</linearGradient>
	<path id="Path_17554" fill="url(#Path_17554_1_)" d="M58.936,26.419c-0.562,0-1.016-0.455-1.017-1.016v-4.065h-2.032v4.065
		c0.002,1.683,1.365,3.046,3.049,3.048H63v-2.032H58.936z"/>
	
		<linearGradient id="Path_17555_1_" gradientUnits="userSpaceOnUse" x1="45.5908" y1="5.2554" x2="45.5908" y2="4.2554" gradientTransform="matrix(7.113 0 0 -7.113 -264.8467 67.8662)">
		<stop  offset="0.13" style="stop-color:#00A9ED"/>
		<stop  offset="1" style="stop-color:#65106B"/>
	</linearGradient>
	<path id="Path_17555" fill="url(#Path_17555_1_)" d="M55.887,33.531v4.064h2.032v-4.064c0.001-0.561,0.455-1.016,1.017-1.016H63
		v-2.033h-4.064C57.252,30.485,55.889,31.849,55.887,33.531z"/>
	
		<linearGradient id="Path_17556_1_" gradientUnits="userSpaceOnUse" x1="45.5908" y1="5.2559" x2="45.5908" y2="4.2559" gradientTransform="matrix(7.113 0 0 -7.113 -273.9912 58.7256)">
		<stop  offset="0.13" style="stop-color:#00A9ED"/>
		<stop  offset="1" style="stop-color:#65106B"/>
	</linearGradient>
	<path id="Path_17556" fill="url(#Path_17556_1_)" d="M51.823,25.403c-0.001,0.561-0.456,1.016-1.017,1.016h-4.064v2.032h4.064
		c1.683-0.002,3.047-1.366,3.049-3.048v-4.065h-2.032V25.403z"/>
	
		<linearGradient id="Path_17557_1_" gradientUnits="userSpaceOnUse" x1="45.5908" y1="5.2554" x2="45.5908" y2="4.2554" gradientTransform="matrix(7.113 0 0 -7.113 -273.9912 67.8662)">
		<stop  offset="0.13" style="stop-color:#00A9ED"/>
		<stop  offset="1" style="stop-color:#65106B"/>
	</linearGradient>
	<path id="Path_17557" fill="url(#Path_17557_1_)" d="M50.807,30.483h-4.064v2.033h4.064c0.561,0,1.016,0.455,1.017,1.016v4.064
		h2.032v-4.064C53.854,31.849,52.489,30.485,50.807,30.483z"/>
	
		<linearGradient id="Path_17558_1_" gradientUnits="userSpaceOnUse" x1="45.5908" y1="5.2554" x2="45.5908" y2="4.2554" gradientTransform="matrix(7.113 0 0 -7.113 -311.5886 37.3816)">
		<stop  offset="0.13" style="stop-color:#00A9ED"/>
		<stop  offset="1" style="stop-color:#65106B"/>
	</linearGradient>
	<path id="Path_17558" fill="url(#Path_17558_1_)" d="M12.193,7.113h4.065V5.081h-4.065c-0.561,0-1.015-0.455-1.016-1.016V0H9.145
		v4.065C9.147,5.748,10.511,7.111,12.193,7.113z"/>
	
		<linearGradient id="Path_17559_1_" gradientUnits="userSpaceOnUse" x1="45.5908" y1="5.2559" x2="45.5908" y2="4.2559" gradientTransform="matrix(7.113 0 0 -7.113 -311.5886 46.53)">
		<stop  offset="0.13" style="stop-color:#00A9ED"/>
		<stop  offset="1" style="stop-color:#65106B"/>
	</linearGradient>
	<path id="Path_17559" fill="url(#Path_17559_1_)" d="M11.177,12.193c0.001-0.561,0.455-1.015,1.016-1.016h4.065V9.145h-4.065
		c-1.682,0.002-3.046,1.366-3.048,3.048v4.065h2.032V12.193z"/>
	
		<linearGradient id="Path_17560_1_" gradientUnits="userSpaceOnUse" x1="45.5908" y1="5.2554" x2="45.5908" y2="4.2554" gradientTransform="matrix(7.113 0 0 -7.113 -320.7332 37.3816)">
		<stop  offset="0.13" style="stop-color:#00A9ED"/>
		<stop  offset="1" style="stop-color:#65106B"/>
	</linearGradient>
	<path id="Path_17560" fill="url(#Path_17560_1_)" d="M5.081,4.065c0,0.561-0.455,1.016-1.016,1.016H0v2.032h4.065
		c1.683-0.002,3.046-1.365,3.048-3.048V0H5.081V4.065z"/>
	
		<linearGradient id="Path_17561_1_" gradientUnits="userSpaceOnUse" x1="45.5908" y1="5.2559" x2="45.5908" y2="4.2559" gradientTransform="matrix(7.113 0 0 -7.113 -320.7332 46.53)">
		<stop  offset="0.13" style="stop-color:#00A9ED"/>
		<stop  offset="1" style="stop-color:#65106B"/>
	</linearGradient>
	<path id="Path_17561" fill="url(#Path_17561_1_)" d="M4.065,9.145H0v2.032h4.065c0.561,0.001,1.016,0.455,1.016,1.016v4.065h2.032
		v-4.065C7.111,10.511,5.748,9.147,4.065,9.145z"/>
</g>
</svg>
