<?xml version="1.0" encoding="utf-8"?>
<!-- Generator: Adobe Illustrator 14.0.0, SVG Export Plug-In . SVG Version: 6.00 Build 43363)  -->
<!DOCTYPE svg PUBLIC "-//W3C//DTD SVG 1.1//EN" "http://www.w3.org/Graphics/SVG/1.1/DTD/svg11.dtd">
<svg version="1.1" id="Layer_1" xmlns="http://www.w3.org/2000/svg" xmlns:xlink="http://www.w3.org/1999/xlink" x="0px" y="0px"
	 width="63px" height="63px" viewBox="0 0 63 63" enable-background="new 0 0 63 63" xml:space="preserve">
<g id="data" transform="translate(-1 -1)">
	
		<linearGradient id="Path_17813_1_" gradientUnits="userSpaceOnUse" x1="12.3579" y1="51.7158" x2="12.3579" y2="50.7158" gradientTransform="matrix(63 0 0 -63 -746 3259)">
		<stop  offset="0.13" style="stop-color:#00A9ED"/>
		<stop  offset="1" style="stop-color:#65106B"/>
	</linearGradient>
	<path id="Path_17813" fill="url(#Path_17813_1_)" d="M59.936,31.484V1H19.29v8.129h-8.129v20.323h-5.08
		C3.276,29.455,1.003,31.728,1,34.532v24.387C1.003,61.725,3.276,63.997,6.081,64h52.838c2.806-0.003,5.078-2.275,5.081-5.081
		V31.484H59.936z M21.323,3.032H57.9V57.9h-2.029V28.435c-0.004-2.413-1.701-4.492-4.064-4.978V9.129H21.323V3.032z M13.194,11.161
		h36.58v12.194h-9.681c-1.927-0.006-3.688,1.083-4.544,2.809L33.9,29.452H13.194V11.161z M6.081,31.484H35.16l2.206-4.412
		c0.513-1.035,1.57-1.689,2.726-1.685h10.7c1.683,0.002,3.046,1.365,3.048,3.048v7.113H3.032v-1.016
		C3.034,32.849,4.398,31.486,6.081,31.484z M6.081,61.968c-1.683-0.002-3.046-1.365-3.048-3.048V37.581h50.806v21.338
		c-0.001,1.1,0.356,2.169,1.019,3.048L6.081,61.968z M61.968,58.92c0.005,1.68-1.354,3.045-3.033,3.049
		c-1.294,0.004-2.448-0.813-2.876-2.033h3.877v-26.42h2.032V58.92z"/>
	
		<linearGradient id="Path_17814_1_" gradientUnits="userSpaceOnUse" x1="27.2915" y1="-2.2549" x2="27.2915" y2="-3.2549" gradientTransform="matrix(14.229 0 0 -6.1 -343.6351 13.6672)">
		<stop  offset="0.13" style="stop-color:#00A9ED"/>
		<stop  offset="1" style="stop-color:#65106B"/>
	</linearGradient>
	<path id="Path_17814" fill="url(#Path_17814_1_)" d="M40.629,33.52h8.129c1.685,0,3.051-1.366,3.051-3.051
		c0-1.684-1.366-3.05-3.051-3.05h-8.129c-1.685,0-3.05,1.366-3.05,3.05C37.579,32.153,38.944,33.52,40.629,33.52z M40.629,29.454
		h8.129c0.562,0,1.016,0.456,1.016,1.017c0,0.561-0.455,1.015-1.016,1.015h-8.129c-0.561,0-1.016-0.456-1.016-1.017
		C39.614,29.909,40.068,29.455,40.629,29.454z"/>
	
		<linearGradient id="Path_17815_1_" gradientUnits="userSpaceOnUse" x1="143.0889" y1="-121.8794" x2="143.0889" y2="-122.8794" gradientTransform="matrix(2.032 0 0 -2.032 -274.513 -234.4655)">
		<stop  offset="0.13" style="stop-color:#00A9ED"/>
		<stop  offset="1" style="stop-color:#65106B"/>
	</linearGradient>
	<path id="Path_17815" fill="url(#Path_17815_1_)" d="M15.226,13.194h2.032v2.032h-2.032V13.194z"/>
	
		<linearGradient id="Path_17816_1_" gradientUnits="userSpaceOnUse" x1="17.6479" y1="-121.8799" x2="17.6479" y2="-122.8804" gradientTransform="matrix(28.452 0 0 -2.032 -468.6035 -234.4655)">
		<stop  offset="0.13" style="stop-color:#00A9ED"/>
		<stop  offset="1" style="stop-color:#65106B"/>
	</linearGradient>
	<path id="Path_17816" fill="url(#Path_17816_1_)" d="M19.29,13.194h28.452v2.032H19.29V13.194z"/>
	
		<linearGradient id="Path_17817_1_" gradientUnits="userSpaceOnUse" x1="35.0146" y1="-121.8809" x2="35.0146" y2="-122.8813" gradientTransform="matrix(10.161 0 0 -2.032 -317.188 -230.403)">
		<stop  offset="0.13" style="stop-color:#00A9ED"/>
		<stop  offset="1" style="stop-color:#65106B"/>
	</linearGradient>
	<path id="Path_17817" fill="url(#Path_17817_1_)" d="M33.516,17.258h10.161v2.032H33.516V17.258z"/>
	
		<linearGradient id="Path_17818_1_" gradientUnits="userSpaceOnUse" x1="17.6479" y1="-121.8799" x2="17.6479" y2="-122.8799" gradientTransform="matrix(28.452 0 0 -2.032 -464.541 -242.5944)">
		<stop  offset="0.13" style="stop-color:#00A9ED"/>
		<stop  offset="1" style="stop-color:#65106B"/>
	</linearGradient>
	<path id="Path_17818" fill="url(#Path_17818_1_)" d="M23.355,5.065h28.452v2.032H23.355V5.065z"/>
	
		<linearGradient id="Path_17819_1_" gradientUnits="userSpaceOnUse" x1="143.0879" y1="-121.8794" x2="143.0879" y2="-122.8794" gradientTransform="matrix(2.032 0 0 -2.032 -235.8998 -242.5944)">
		<stop  offset="0.13" style="stop-color:#00A9ED"/>
		<stop  offset="1" style="stop-color:#65106B"/>
	</linearGradient>
	<path id="Path_17819" fill="url(#Path_17819_1_)" d="M53.839,5.065h2.032v2.032h-2.032V5.065z"/>
	
		<linearGradient id="Path_17820_1_" gradientUnits="userSpaceOnUse" x1="19.2578" y1="31.8657" x2="19.2578" y2="30.8657" gradientTransform="matrix(24.383 0 0 -14.2191 -441.1239 496.7767)">
		<stop  offset="0.13" style="stop-color:#00A9ED"/>
		<stop  offset="1" style="stop-color:#65106B"/>
	</linearGradient>
	<path id="Path_17820" fill="url(#Path_17820_1_)" d="M28.436,43.677c-4.2-0.007-8.226,1.673-11.177,4.66
		c-0.652,0.649-1.019,1.532-1.017,2.453c0.004,0.942,0.389,1.845,1.067,2.5c6.147,6.144,16.111,6.142,22.253-0.006
		c0.016-0.016,0.031-0.03,0.047-0.046c0.652-0.649,1.018-1.533,1.016-2.453c-0.004-0.943-0.389-1.845-1.066-2.5
		C36.614,45.326,32.61,43.667,28.436,43.677z M33.518,50.79c0,2.806-2.275,5.081-5.082,5.081s-5.081-2.275-5.081-5.081
		s2.275-5.081,5.081-5.081S33.518,47.984,33.518,50.79L33.518,50.79z M18.275,50.79c0.004-0.405,0.174-0.792,0.471-1.067
		c1.052-1.047,2.266-1.916,3.596-2.574c-1.35,2.236-1.352,5.036-0.005,7.274c-1.345-0.671-2.573-1.556-3.637-2.618
		c-0.271-0.269-0.422-0.635-0.421-1.016L18.275,50.79z M38.126,51.857c-1.05,1.047-2.263,1.916-3.591,2.574
		c1.348-2.237,1.348-5.037,0-7.274c1.345,0.672,2.572,1.557,3.636,2.62c0.271,0.269,0.422,0.635,0.421,1.016
		c-0.005,0.404-0.176,0.789-0.472,1.064H38.126z"/>
	
		<linearGradient id="Path_17821_1_" gradientUnits="userSpaceOnUse" x1="53.0293" y1="-2.2935" x2="53.0293" y2="-3.2935" gradientTransform="matrix(6.096 0 0 -6.096 -294.832 33.7657)">
		<stop  offset="0.13" style="stop-color:#00A9ED"/>
		<stop  offset="1" style="stop-color:#65106B"/>
	</linearGradient>
	<path id="Path_17821" fill="url(#Path_17821_1_)" d="M28.435,53.842c1.683,0,3.048-1.364,3.048-3.048
		c0-1.683-1.365-3.048-3.048-3.048c-1.682,0-3.046,1.362-3.048,3.044c-0.002,1.683,1.36,3.05,3.044,3.052
		C28.432,53.842,28.434,53.842,28.435,53.842z M28.435,49.777c0.561,0,1.016,0.455,1.016,1.016s-0.455,1.016-1.016,1.016
		s-1.016-0.455-1.016-1.016l0,0C27.419,50.232,27.874,49.777,28.435,49.777z"/>
	
		<linearGradient id="Path_17822_1_" gradientUnits="userSpaceOnUse" x1="143.0879" y1="-121.8804" x2="143.0879" y2="-122.8804" gradientTransform="matrix(2.032 0 0 -2.032 -258.2553 -208.0475)">
		<stop  offset="0.13" style="stop-color:#00A9ED"/>
		<stop  offset="1" style="stop-color:#65106B"/>
	</linearGradient>
	<path id="Path_17822" fill="url(#Path_17822_1_)" d="M31.484,39.613h2.032v2.031h-2.032V39.613z"/>
	
		<linearGradient id="Path_17823_1_" gradientUnits="userSpaceOnUse" x1="143.0879" y1="-121.8804" x2="143.0879" y2="-122.8804" gradientTransform="matrix(2.032 0 0 -2.032 -262.3216 -208.0475)">
		<stop  offset="0.13" style="stop-color:#00A9ED"/>
		<stop  offset="1" style="stop-color:#65106B"/>
	</linearGradient>
	<path id="Path_17823" fill="url(#Path_17823_1_)" d="M27.419,39.613h2.032v2.031h-2.032V39.613z"/>
	
		<linearGradient id="Path_17824_1_" gradientUnits="userSpaceOnUse" x1="143.0879" y1="-121.8804" x2="143.0879" y2="-122.8804" gradientTransform="matrix(2.032 0 0 -2.032 -266.3841 -208.0475)">
		<stop  offset="0.13" style="stop-color:#00A9ED"/>
		<stop  offset="1" style="stop-color:#65106B"/>
	</linearGradient>
	<path id="Path_17824" fill="url(#Path_17824_1_)" d="M23.355,39.613h2.032v2.031h-2.032V39.613z"/>
	
		<linearGradient id="Path_17825_1_" gradientUnits="userSpaceOnUse" x1="143.0879" y1="-121.8804" x2="143.0879" y2="-122.8809" gradientTransform="matrix(2.032 0 0 -2.032 -244.0287 -230.403)">
		<stop  offset="0.13" style="stop-color:#00A9ED"/>
		<stop  offset="1" style="stop-color:#65106B"/>
	</linearGradient>
	<path id="Path_17825" fill="url(#Path_17825_1_)" d="M45.71,17.258h2.032v2.032H45.71V17.258z"/>
	
		<linearGradient id="Path_17826_1_" gradientUnits="userSpaceOnUse" x1="24.8838" y1="21.6279" x2="24.8838" y2="20.6279" gradientTransform="matrix(16.258 0 0 -10.161 -381.2015 237.0161)">
		<stop  offset="0.13" style="stop-color:#00A9ED"/>
		<stop  offset="1" style="stop-color:#65106B"/>
	</linearGradient>
	<path id="Path_17826" fill="url(#Path_17826_1_)" d="M15.226,27.419h16.258V17.258H15.226V27.419z M17.258,19.29h12.194v6.1H17.258
		V19.29z"/>
</g>
</svg>
