<?xml version="1.0" encoding="utf-8"?>
<!-- Generator: Adobe Illustrator 14.0.0, SVG Export Plug-In . SVG Version: 6.00 Build 43363)  -->
<!DOCTYPE svg PUBLIC "-//W3C//DTD SVG 1.1//EN" "http://www.w3.org/Graphics/SVG/1.1/DTD/svg11.dtd">
<svg version="1.1" id="depreciation" xmlns="http://www.w3.org/2000/svg" xmlns:xlink="http://www.w3.org/1999/xlink" x="0px"
	 y="0px" width="65px" height="65px" viewBox="0 0 65 65" enable-background="new 0 0 65 65" xml:space="preserve">
<g id="fire" transform="translate(-56.012 -26.777)">
	
		<linearGradient id="Path_18957_1_" gradientUnits="userSpaceOnUse" x1="69.0808" y1="78.4948" x2="69.0808" y2="77.4948" gradientTransform="matrix(54.9489 0 0 -63.0244 -3707.416 4974.7822)">
		<stop  offset="0.13" style="stop-color:#00A9ED"/>
		<stop  offset="1" style="stop-color:#65106B"/>
	</linearGradient>
	<path id="Path_18957" fill="url(#Path_18957_1_)" d="M74.805,75.31c0.062,0.015,0.125,0.021,0.189,0.021h9.1
		c0.218,1.085,0.567,2.14,1.039,3.141c0.921,2.084,2.369,3.893,4.199,5.248l10.146,6.912c0.28,0.191,0.648,0.191,0.929,0
		l10.145-6.912c3.244-2.446,5.234-6.207,5.434-10.264V59.233c0-0.314-0.18-0.602-0.461-0.74l-15.205-7.467
		c-0.229-0.112-0.496-0.112-0.726,0l-5.86,2.867c0.496-4.672-0.67-9.369-3.293-13.266c-1.223-1.834-2.787-3.416-4.609-4.656
		c-0.387-0.238-0.895-0.118-1.133,0.27c-0.092,0.15-0.134,0.325-0.12,0.5c0.098,1.584,0.027,3.175-0.212,4.744
		c-0.167,1.219-0.536,2.402-1.09,3.5c-0.236,0.447-0.535,0.857-0.887,1.219l0.056-0.345c0.485-3,0.986-6.108,0.148-9.069
		c-1.694-5.987-6.9-8.681-8.611-8.984c-0.45-0.142-0.942,0.001-1.245,0.363c-0.5,0.695-0.336,1.969-0.043,3.692
		c0.054,0.316,0.1,0.615,0.119,0.772c0.215,2.368,0.33,4.867-0.8,7.119c-1.295,2.302-2.852,4.447-4.64,6.392
		c-3.325,3.922-6.763,7.978-6.295,13.635C61.656,66.809,67.687,73.629,74.805,75.31z M99.951,52.685l14.393,7.062v13.709
		c-0.198,3.511-1.919,6.762-4.712,8.899l-9.681,6.601l-9.682-6.601c-1.588-1.187-2.841-2.765-3.637-4.581
		c-0.659-1.349-1.026-2.82-1.076-4.321V59.726L99.951,52.685z M68.626,47.215c1.875-2.041,3.505-4.294,4.856-6.715
		c1.325-2.64,1.2-5.517,0.97-8.008c-0.02-0.221-0.071-0.52-0.135-0.9c-0.128-0.683-0.214-1.372-0.259-2.065
		c3.387,1.357,5.953,4.209,6.946,7.72c0.738,2.61,0.267,5.532-0.189,8.358c-0.114,0.709-0.233,1.441-0.329,2.153
		c-0.062,0.451,0.254,0.866,0.705,0.928c0.131,0.018,0.265,0.004,0.389-0.041c4.057-1.45,4.656-7.267,4.688-10.256
		c1.082,0.955,2.04,2.042,2.85,3.236c2.57,3.86,3.591,8.546,2.86,13.125l-7.606,3.722c-0.283,0.139-0.462,0.426-0.462,0.741v14.244
		c0,0.074,0,0.15,0,0.227h-8.817c-3.235-0.853-6.14-2.658-8.335-5.184c-2.262-2.439-3.678-5.543-4.039-8.851
		C62.305,54.672,65.375,51.05,68.626,47.215z"/>
	
		<linearGradient id="Path_18958_1_" gradientUnits="userSpaceOnUse" x1="93.6077" y1="60.6784" x2="93.6077" y2="59.6779" gradientTransform="matrix(9.4108 0 0 -15.4455 -808.6462 991.6423)">
		<stop  offset="0.13" style="stop-color:#00A9ED"/>
		<stop  offset="1" style="stop-color:#65106B"/>
	</linearGradient>
	<path id="Path_18958" fill="url(#Path_18958_1_)" d="M71.177,67.093c1.338,1.292,2.971,2.24,4.756,2.764
		c0.438,0.123,0.893-0.133,1.016-0.571s-0.133-0.894-0.571-1.016c-0.018-0.005-0.035-0.009-0.053-0.013
		c-1.503-0.455-2.876-1.262-4.006-2.354c-2.57-2.46-3.551-5.991-2.916-10.495c0.078-0.449-0.222-0.876-0.671-0.954
		c-0.449-0.079-0.876,0.222-0.955,0.671c-0.003,0.018-0.006,0.036-0.008,0.053C66.877,61.478,69.132,65.134,71.177,67.093z"/>
	
		<linearGradient id="Path_18959_1_" gradientUnits="userSpaceOnUse" x1="83.1868" y1="46.7975" x2="83.1868" y2="45.797" gradientTransform="matrix(14.5254 0 0 -9.7255 -1108.3647 521.1282)">
		<stop  offset="0.13" style="stop-color:#00A9ED"/>
		<stop  offset="1" style="stop-color:#65106B"/>
	</linearGradient>
	<path id="Path_18959" fill="url(#Path_18959_1_)" d="M97.533,75.49c0.32,0.313,0.83,0.313,1.15,0l8.281-8.077
		c0.326-0.317,0.332-0.839,0.015-1.165s-0.84-0.332-1.165-0.015l0,0L98.11,73.75l-4.021-3.923c-0.326-0.317-0.848-0.312-1.166,0.015
		c-0.317,0.326-0.311,0.848,0.016,1.166l0,0L97.533,75.49z"/>
</g>
</svg>
