<svg xmlns="http://www.w3.org/2000/svg" xmlns:xlink="http://www.w3.org/1999/xlink" width="60.08" height="72.002" viewBox="0 0 60.08 72.002">
  <defs>
    <linearGradient id="linear-gradient" x1="0.5" x2="0.5" y2="1" gradientUnits="objectBoundingBox">
      <stop offset="0.13" stop-color="#00a9ed"/>
      <stop offset="1" stop-color="#65106b"/>
    </linearGradient>
  </defs>
  <path id="Union_46" data-name="Union 46" d="M-2027.4,20190a1.053,1.053,0,0,1-1.054-1.053,1.054,1.054,0,0,1,1.054-1.055h3.881v-2.193a5.485,5.485,0,0,0-5.477-5.482h-6.395a5.563,5.563,0,0,1-5.432,4.494h-.01a5.511,5.511,0,0,1-3.917-1.621,5.518,5.518,0,0,1-1.53-2.873h-6.395a5.485,5.485,0,0,0-5.478,5.482v2.193h25.832a1.054,1.054,0,0,1,1.054,1.055,1.052,1.052,0,0,1-1.054,1.053h-46.1a1.761,1.761,0,0,1-1.758-1.758v-13.807a1.054,1.054,0,0,1,1.059-1.055,1.056,1.056,0,0,1,1.054,1.055v13.457h17.811v-2.193a7.6,7.6,0,0,1,7.585-7.59h6.293v-3.283a14.592,14.592,0,0,1-8.741-10.789h-.192a5.556,5.556,0,0,1-5.432,4.49h-.01a5.52,5.52,0,0,1-3.917-1.621,5.53,5.53,0,0,1-1.53-2.869h-6.389a5.482,5.482,0,0,0-5.478,5.479,1.056,1.056,0,0,1-1.054,1.053,1.057,1.057,0,0,1-1.059-1.053,7.6,7.6,0,0,1,7.59-7.592h6.293v-2.934a14.567,14.567,0,0,1-8.746-10.8h-1.186a4.784,4.784,0,0,1-4.768-4.789v-.029a4.81,4.81,0,0,1,2.336-4.125v-7.018a5.565,5.565,0,0,1,1.647-3.963,5.587,5.587,0,0,1,3.978-1.646.6.6,0,0,1,.132.01,3.452,3.452,0,0,0,2.594-1.262c2.235-2.752,7.514-7.373,17.791-7.373h1a3.542,3.542,0,0,1,3.547,3.451c0,.066.03.146.117.117a6.09,6.09,0,0,1,7.823,3.369l.076.191a7.108,7.108,0,0,1-1.713,7.688c-.5.426-1.013.836-1.55,1.217h9.911a9.5,9.5,0,0,1,9.491,9.49v2.889a3.864,3.864,0,0,1,2.108,3.439v.988a1.479,1.479,0,0,1-1.475,1.475h-.633v2.488a4.8,4.8,0,0,1,2.9,4.412v.031a4.784,4.784,0,0,1-4.768,4.793h-.861a14.57,14.57,0,0,1-8.741,10.789v3.283H-2029a7.594,7.594,0,0,1,7.585,7.59v2.543a1.757,1.757,0,0,1-1.753,1.758Zm-16.868-10.838a3.416,3.416,0,0,0,1.008,2.438,3.444,3.444,0,0,0,2.432,1,3.449,3.449,0,0,0,3.43-3.441v-3.648a14.477,14.477,0,0,1-3.436.416,14.413,14.413,0,0,1-3.435-.416Zm-6.025-23.9a4.294,4.294,0,0,1-2.959,1.262v4.879a12.432,12.432,0,0,0,12.419,12.414,12.428,12.428,0,0,0,12.414-12.414v-4.879a4.324,4.324,0,0,1-4.216-4.211h-16.4A4.282,4.282,0,0,1-2050.3,20155.262Zm-13.9,7.717a3.413,3.413,0,0,0,1.008,2.432,3.408,3.408,0,0,0,2.427,1h.01a3.431,3.431,0,0,0,3.3-2.518,4.786,4.786,0,0,1-3.552-3.811,14.77,14.77,0,0,1-3.192-.406Zm37.886-1.576c0,.172-.005.35-.01.521h.628a2.669,2.669,0,0,0,2.66-2.68v-.031a2.675,2.675,0,0,0-2.66-2.689h-.618Zm-32.662-2.189v.031a2.673,2.673,0,0,0,2.66,2.68h.958c0-.172-.01-.35-.01-.521v-4.879h-.948A2.679,2.679,0,0,0-2058.97,20159.213Zm-14.208-13.654a12.432,12.432,0,0,0,12.262,12.418,4.8,4.8,0,0,1,3.045-3.3v-2.266a7.774,7.774,0,0,1-2.893.563,7.913,7.913,0,0,1-5.123-1.91,1.048,1.048,0,0,1-.122-1.484,1.048,1.048,0,0,1,1.485-.123,5.764,5.764,0,0,0,4.56,1.348v-.957a3.868,3.868,0,0,1,2.113-3.439v-2.889a9.435,9.435,0,0,1,1.606-5.275c-.152,0-.3.006-.456.006h-12.333a.353.353,0,0,0-.35.35v3.881a2.8,2.8,0,0,1-2.8,2.8h-1Zm44.858,8.857h2.392v-2.1h-4.6A2.211,2.211,0,0,0-2028.319,20154.416Zm-27.438,0h2.407a2.194,2.194,0,0,0,1.566-.648,2.224,2.224,0,0,0,.643-1.455h-4.616Zm-2.093-4.566v.355h34.03v-.355a1.763,1.763,0,0,0-1.758-1.758h-30.514A1.759,1.759,0,0,0-2057.85,20149.85Zm-21.038-6.475v.029a2.67,2.67,0,0,0,2.655,2.682h.953c-.005-.174-.01-.35-.01-.527v-4.875h-.942A2.675,2.675,0,0,0-2078.888,20143.375Zm46.667-2.666v5.275h6.293v-2.463a7.394,7.394,0,0,0-7.383-7.383h-.73A6.659,6.659,0,0,1-2032.221,20140.709Zm-15.12,0v5.275h13.007v-5.275a4.575,4.575,0,0,0-4.571-4.57h-3.866A4.578,4.578,0,0,0-2047.341,20140.709Zm-8.4,2.813v2.463h6.293v-5.275a6.654,6.654,0,0,1,1.814-4.57h-.724A7.394,7.394,0,0,0-2055.742,20143.521Zm-18.495-4.945a1.057,1.057,0,0,1,1.059,1.053v3.543h1a.7.7,0,0,0,.689-.689v-3.881a2.464,2.464,0,0,1,2.458-2.463h12.328c.755,0,1.51-.035,2.245-.107a.946.946,0,0,1,.269.012,9.445,9.445,0,0,1,5.832-2.012h1.084a.659.659,0,0,1,.162-.1,20.209,20.209,0,0,0,4.069-2.717,5.027,5.027,0,0,0,1.135-5.285l-.076-.191a3.975,3.975,0,0,0-5.067-2.221.354.354,0,0,1-.041.016,2.2,2.2,0,0,1-2.037-.232,2.211,2.211,0,0,1-.953-1.707v-.076a1.409,1.409,0,0,0-1.439-1.4h-1c-9.4,0-14.152,4.125-16.149,6.588a5.553,5.553,0,0,1-4.332,2.041c-.046,0-.091,0-.132,0a3.515,3.515,0,0,0-2.392,1.023,3.477,3.477,0,0,0-1.023,2.473v6.354c.106-.006.213-.01.319-.01Zm28.269,28.33a1.064,1.064,0,0,1-.122-1.49,1.059,1.059,0,0,1,1.49-.117,5.752,5.752,0,0,0,7.535,0,1.053,1.053,0,0,1,1.485.125,1.059,1.059,0,0,1-.127,1.49,7.988,7.988,0,0,1-5.138,1.91A7.9,7.9,0,0,1-2045.968,20166.906Zm10.2-5.8v-1.8a1.054,1.054,0,0,1,1.054-1.055,1.054,1.054,0,0,1,1.054,1.055v1.8a1.054,1.054,0,0,1-1.054,1.055A1.054,1.054,0,0,1-2035.768,20161.1Zm-12.247,0v-1.8a1.054,1.054,0,0,1,1.054-1.055,1.054,1.054,0,0,1,1.054,1.055v1.8a1.054,1.054,0,0,1-1.054,1.055A1.054,1.054,0,0,1-2048.015,20161.1Zm-19.924-15.84v-1.8a1.057,1.057,0,0,1,1.059-1.053,1.056,1.056,0,0,1,1.054,1.053v1.8a1.056,1.056,0,0,1-1.054,1.055A1.057,1.057,0,0,1-2067.938,20145.264Z" transform="translate(2081.001 -20117.998)" fill="url(#linear-gradient)"/>
</svg>
