<?xml version="1.0" encoding="utf-8"?>
<!-- Generator: Adobe Illustrator 16.0.0, SVG Export Plug-In . SVG Version: 6.00 Build 0)  -->
<!DOCTYPE svg PUBLIC "-//W3C//DTD SVG 1.1//EN" "http://www.w3.org/Graphics/SVG/1.1/DTD/svg11.dtd">
<svg version="1.1" id="bribe" xmlns="http://www.w3.org/2000/svg" xmlns:xlink="http://www.w3.org/1999/xlink" x="0px" y="0px"
	 width="62px" height="60.063px" viewBox="0 0 62 60.063" enable-background="new 0 0 62 60.063" xml:space="preserve">
<linearGradient id="Path_18057_1_" gradientUnits="userSpaceOnUse" x1="-136.6929" y1="399.6692" x2="-136.6929" y2="398.6692" gradientTransform="matrix(1.938 0 0 -14.5344 319.1594 5821.5215)">
	<stop  offset="0" style="stop-color:#00A9E0"/>
	<stop  offset="1" style="stop-color:#801C7D"/>
</linearGradient>
<path id="Path_18057" fill="url(#Path_18057_1_)" d="M54.251,27.119c-0.534,0-0.968-0.433-0.97-0.968c0,0,0-0.001,0-0.002V13.557
	c-0.001-0.535,0.432-0.971,0.967-0.973c0.535-0.001,0.971,0.431,0.973,0.966c0,0.003,0,0.005,0,0.007v12.594
	C55.221,26.686,54.787,27.119,54.251,27.119C54.252,27.119,54.252,27.119,54.251,27.119z"/>
<linearGradient id="Path_18058_1_" gradientUnits="userSpaceOnUse" x1="-218.6987" y1="225.0715" x2="-218.6987" y2="224.0715" gradientTransform="matrix(4.8118 0 0 -1.938 1108.0602 461.3735)">
	<stop  offset="0" style="stop-color:#00A9E0"/>
	<stop  offset="1" style="stop-color:#801C7D"/>
</linearGradient>
<path id="Path_18058" fill="url(#Path_18058_1_)" d="M57.156,27.12h-2.905c-0.534-0.018-0.954-0.465-0.938-1
	c0.017-0.511,0.427-0.921,0.938-0.938h2.905c0.535,0,0.969,0.434,0.969,0.969S57.691,27.121,57.156,27.12L57.156,27.12z"/>
<linearGradient id="Path_18059_1_" gradientUnits="userSpaceOnUse" x1="-218.6987" y1="225.0715" x2="-218.6987" y2="224.0725" gradientTransform="matrix(4.8118 0 0 -1.938 1108.0602 448.7798)">
	<stop  offset="0" style="stop-color:#00A9E0"/>
	<stop  offset="1" style="stop-color:#801C7D"/>
</linearGradient>
<path id="Path_18059" fill="url(#Path_18059_1_)" d="M57.156,14.526h-2.905c-0.534-0.017-0.954-0.465-0.938-0.999
	c0.017-0.511,0.427-0.921,0.938-0.938h2.905c0.535,0,0.969,0.434,0.969,0.969S57.691,14.527,57.156,14.526L57.156,14.526z"/>
<linearGradient id="Path_18060_1_" gradientUnits="userSpaceOnUse" x1="-136.6929" y1="405.3157" x2="-136.6929" y2="404.3157" gradientTransform="matrix(1.938 0 0 -18.4026 322.0647 7469.5322)">
	<stop  offset="0" style="stop-color:#00A9E0"/>
	<stop  offset="1" style="stop-color:#801C7D"/>
</linearGradient>
<path id="Path_18060" fill="url(#Path_18060_1_)" d="M57.156,29.057c-0.535,0.001-0.969-0.433-0.969-0.967c0-0.001,0-0.001,0-0.002
	V11.62c0.002-0.535,0.437-0.968,0.972-0.966c0.532,0.002,0.964,0.433,0.966,0.966v16.469C58.125,28.623,57.691,29.057,57.156,29.057
	C57.156,29.057,57.156,29.057,57.156,29.057z"/>
<linearGradient id="Path_18061_1_" gradientUnits="userSpaceOnUse" x1="-227.9771" y1="225.0715" x2="-227.9771" y2="224.0725" gradientTransform="matrix(5.7818 0 0 -1.938 1377.2317 463.311)">
	<stop  offset="0" style="stop-color:#00A9E0"/>
	<stop  offset="1" style="stop-color:#801C7D"/>
</linearGradient>
<path id="Path_18061" fill="url(#Path_18061_1_)" d="M61.031,29.057h-3.875c-0.535-0.017-0.955-0.465-0.938-0.999
	c0.017-0.511,0.427-0.921,0.938-0.938h3.875c0.535,0,0.969,0.434,0.969,0.969S61.566,29.058,61.031,29.057L61.031,29.057z"/>
<linearGradient id="Path_18062_1_" gradientUnits="userSpaceOnUse" x1="-227.9771" y1="225.0715" x2="-227.9771" y2="224.0715" gradientTransform="matrix(5.7818 0 0 -1.938 1377.2317 446.8423)">
	<stop  offset="0" style="stop-color:#00A9E0"/>
	<stop  offset="1" style="stop-color:#801C7D"/>
</linearGradient>
<path id="Path_18062" fill="url(#Path_18062_1_)" d="M61.031,12.589h-3.875c-0.535-0.018-0.955-0.465-0.938-1
	c0.017-0.511,0.427-0.921,0.938-0.938h3.875c0.535,0,0.969,0.435,0.969,0.97S61.566,12.59,61.031,12.589L61.031,12.589z"/>
<linearGradient id="Path_18063_1_" gradientUnits="userSpaceOnUse" x1="-212.127" y1="368.9377" x2="-212.127" y2="367.9377" gradientTransform="matrix(4.3008 0 0 -6.779 946.499 2508.77)">
	<stop  offset="0" style="stop-color:#00A9E0"/>
	<stop  offset="1" style="stop-color:#801C7D"/>
</linearGradient>
<path id="Path_18063" fill="url(#Path_18063_1_)" d="M35.375,14.524c-1.872-0.032-3.363-1.575-3.331-3.447
	c0.031-1.827,1.505-3.3,3.331-3.331c0.535,0,0.969,0.434,0.969,0.969s-0.434,0.969-0.969,0.969
	c-0.801,0.042-1.416,0.726-1.374,1.526c0.039,0.742,0.632,1.335,1.374,1.374c0.535,0,0.969,0.434,0.969,0.969
	s-0.434,0.969-0.969,0.969V14.524z"/>
<linearGradient id="Path_18064_1_" gradientUnits="userSpaceOnUse" x1="-213.7583" y1="368.9456" x2="-213.7583" y2="367.9456" gradientTransform="matrix(4.4173 0 0 -6.78 978.3639 2514.043)">
	<stop  offset="0" style="stop-color:#00A9E0"/>
	<stop  offset="1" style="stop-color:#801C7D"/>
</linearGradient>
<path id="Path_18064" fill="url(#Path_18064_1_)" d="M35.375,19.368c-1.872,0.032-3.416-1.46-3.447-3.332
	c-0.033-1.871,1.459-3.415,3.33-3.447c0.039-0.001,0.078-0.001,0.117,0c0.535,0,0.969,0.434,0.969,0.969s-0.434,0.969-0.969,0.969
	c-0.801-0.042-1.484,0.573-1.526,1.374s0.573,1.484,1.374,1.526c0.051,0.003,0.102,0.003,0.152,0c0.535,0,0.969,0.434,0.969,0.969
	s-0.434,0.97-0.969,0.97V19.368z"/>
<linearGradient id="Path_18065_1_" gradientUnits="userSpaceOnUse" x1="-213.7563" y1="368.9465" x2="-213.7563" y2="367.9475" gradientTransform="matrix(4.4171 0 0 -6.78 978.3081 2518.8865)">
	<stop  offset="0" style="stop-color:#00A9E0"/>
	<stop  offset="1" style="stop-color:#801C7D"/>
</linearGradient>
<path id="Path_18065" fill="url(#Path_18065_1_)" d="M35.375,24.211c-1.872,0.032-3.416-1.46-3.447-3.332
	c-0.032-1.871,1.459-3.415,3.331-3.447c0.039,0,0.077,0,0.116,0c0.535,0,0.969,0.434,0.969,0.969s-0.434,0.97-0.969,0.97
	c-0.801-0.042-1.484,0.572-1.526,1.373s0.573,1.484,1.374,1.526c0.051,0.003,0.102,0.003,0.152,0c0.535,0,0.969,0.435,0.969,0.97
	s-0.434,0.969-0.969,0.969V24.211z"/>
<linearGradient id="Path_18066_1_" gradientUnits="userSpaceOnUse" x1="-213.7563" y1="368.9475" x2="-213.7563" y2="367.9475" gradientTransform="matrix(4.4171 0 0 -6.78 978.3081 2523.7302)">
	<stop  offset="0" style="stop-color:#00A9E0"/>
	<stop  offset="1" style="stop-color:#801C7D"/>
</linearGradient>
<path id="Path_18066" fill="url(#Path_18066_1_)" d="M35.375,29.055c-1.872,0.032-3.416-1.459-3.447-3.331
	c-0.032-1.872,1.459-3.416,3.331-3.448c0.039,0,0.077,0,0.116,0c0.535,0,0.969,0.435,0.969,0.97s-0.434,0.969-0.969,0.969
	c-0.801-0.042-1.484,0.573-1.526,1.374s0.573,1.483,1.374,1.526c0.051,0.002,0.102,0.002,0.152,0c0.535,0,0.969,0.434,0.969,0.969
	s-0.434,0.969-0.969,0.969V29.055z"/>
<linearGradient id="Path_18067_1_" gradientUnits="userSpaceOnUse" x1="-218.7222" y1="225.0725" x2="-218.7222" y2="224.0715" gradientTransform="matrix(4.8138 0 0 -1.938 1105.7234 449.7485)">
	<stop  offset="0" style="stop-color:#00A9E0"/>
	<stop  offset="1" style="stop-color:#801C7D"/>
</linearGradient>
<path id="Path_18067" fill="url(#Path_18067_1_)" d="M54.266,15.495h-2.904c-0.535-0.018-0.955-0.465-0.938-1
	c0.016-0.511,0.426-0.921,0.938-0.938h2.906c0.535,0,0.969,0.434,0.969,0.969s-0.434,0.97-0.969,0.97L54.266,15.495z"/>
<linearGradient id="Path_18068_1_" gradientUnits="userSpaceOnUse" x1="-204.79" y1="225.0725" x2="-204.79" y2="224.0725" gradientTransform="matrix(3.8448 0 0 -1.938 840.6929 460.4048)">
	<stop  offset="0" style="stop-color:#00A9E0"/>
	<stop  offset="1" style="stop-color:#801C7D"/>
</linearGradient>
<path id="Path_18068" fill="url(#Path_18068_1_)" d="M54.266,26.151h-1.937c-0.535-0.017-0.954-0.465-0.938-0.999
	c0.017-0.511,0.427-0.921,0.938-0.938h1.938c0.535,0,0.969,0.434,0.969,0.969s-0.434,0.969-0.969,0.969L54.266,26.151z"/>
<linearGradient id="Path_18069_1_" gradientUnits="userSpaceOnUse" x1="-219.1567" y1="381.9221" x2="-219.1567" y2="380.9221" gradientTransform="matrix(4.852 0 0 -8.7521 1113.2483 3349.3718)">
	<stop  offset="0" style="stop-color:#00A9E0"/>
	<stop  offset="1" style="stop-color:#801C7D"/>
</linearGradient>
<path id="Path_18069" fill="url(#Path_18069_1_)" d="M51.359,15.494c-0.387,0-0.737-0.231-0.889-0.587l-2.9-6.781
	c-0.229-0.483-0.023-1.062,0.461-1.291c0.483-0.229,1.061-0.022,1.29,0.461c0.011,0.022,0.021,0.044,0.028,0.067l2.9,6.78
	c0.211,0.492-0.018,1.062-0.509,1.272C51.621,15.468,51.491,15.494,51.359,15.494z"/>
<linearGradient id="Path_18070_1_" gradientUnits="userSpaceOnUse" x1="-247.8408" y1="225.0725" x2="-247.8408" y2="224.0725" gradientTransform="matrix(10.1721 0 0 -1.938 2560.5723 443.9381)">
	<stop  offset="0" style="stop-color:#00A9E0"/>
	<stop  offset="1" style="stop-color:#801C7D"/>
</linearGradient>
<path id="Path_18070" fill="url(#Path_18070_1_)" d="M43.609,9.682h-8.232c-0.535-0.017-0.955-0.465-0.938-0.999
	c0.017-0.511,0.427-0.922,0.938-0.938h8.234c0.535-0.018,0.982,0.402,1,0.938c0.017,0.534-0.403,0.982-0.938,0.999
	c-0.021,0.001-0.042,0.001-0.063,0H43.609z"/>
<linearGradient id="Path_18071_1_" gradientUnits="userSpaceOnUse" x1="-255.0151" y1="225.0735" x2="-255.0151" y2="224.0735" gradientTransform="matrix(14.0168 0 0 -1.938 3615.9546 463.311)">
	<stop  offset="0" style="stop-color:#00A9E0"/>
	<stop  offset="1" style="stop-color:#801C7D"/>
</linearGradient>
<path id="Path_18071" fill="url(#Path_18071_1_)" d="M47.484,29.057H35.377c-0.535-0.017-0.955-0.465-0.938-0.999
	c0.017-0.511,0.427-0.921,0.938-0.938h12.109c0.535,0,0.97,0.434,0.97,0.969s-0.435,0.969-0.97,0.969L47.484,29.057z"/>
<linearGradient id="Path_18072_1_" gradientUnits="userSpaceOnUse" x1="-234.791" y1="345.9495" x2="-234.791" y2="344.9495" gradientTransform="matrix(6.7868 0 0 -4.8451 1643.3807 1700.3608)">
	<stop  offset="0" style="stop-color:#00A9E0"/>
	<stop  offset="1" style="stop-color:#801C7D"/>
</linearGradient>
<path id="Path_18072" fill="url(#Path_18072_1_)" d="M47.486,29.062c-0.535,0.003-0.971-0.428-0.974-0.963
	c-0.002-0.343,0.179-0.661,0.474-0.837l4.844-2.906c0.459-0.275,1.055-0.128,1.33,0.331c0.276,0.458,0.129,1.054-0.33,1.33
	l-4.844,2.906C47.835,29.014,47.662,29.062,47.486,29.062z"/>
<linearGradient id="Path_18073_1_" gradientUnits="userSpaceOnUse" x1="-136.6929" y1="399.6653" x2="-136.6929" y2="398.6653" gradientTransform="matrix(1.938 0 0 -14.5315 272.66 5820.3252)">
	<stop  offset="0" style="stop-color:#00A9E0"/>
	<stop  offset="1" style="stop-color:#801C7D"/>
</linearGradient>
<path id="Path_18073" fill="url(#Path_18073_1_)" d="M7.749,27.125c-0.535,0-0.968-0.433-0.969-0.967c0-0.001,0-0.002,0-0.002
	V13.563c0-0.535,0.435-0.969,0.97-0.968c0.535,0,0.968,0.434,0.968,0.968v12.595c0.001,0.534-0.432,0.968-0.967,0.969
	C7.75,27.126,7.75,27.126,7.749,27.125L7.749,27.125z"/>
<linearGradient id="Path_18074_1_" gradientUnits="userSpaceOnUse" x1="-218.6987" y1="225.0735" x2="-218.6987" y2="224.0735" gradientTransform="matrix(4.8118 0 0 -1.938 1058.6538 461.3794)">
	<stop  offset="0" style="stop-color:#00A9E0"/>
	<stop  offset="1" style="stop-color:#801C7D"/>
</linearGradient>
<path id="Path_18074" fill="url(#Path_18074_1_)" d="M7.749,27.125H4.844c-0.535-0.018-0.955-0.465-0.938-1
	c0.017-0.511,0.427-0.921,0.938-0.938h2.905c0.535,0,0.969,0.435,0.969,0.97S8.284,27.126,7.749,27.125L7.749,27.125z"/>
<linearGradient id="Path_18075_1_" gradientUnits="userSpaceOnUse" x1="-218.6987" y1="225.0735" x2="-218.6987" y2="224.0735" gradientTransform="matrix(4.8118 0 0 -1.938 1058.6538 448.7856)">
	<stop  offset="0" style="stop-color:#00A9E0"/>
	<stop  offset="1" style="stop-color:#801C7D"/>
</linearGradient>
<path id="Path_18075" fill="url(#Path_18075_1_)" d="M7.749,14.532H4.844c-0.535-0.018-0.955-0.465-0.938-1
	c0.017-0.511,0.427-0.921,0.938-0.938h2.905c0.535,0,0.969,0.434,0.969,0.969S8.284,14.533,7.749,14.532L7.749,14.532z"/>
<linearGradient id="Path_18076_1_" gradientUnits="userSpaceOnUse" x1="-136.6929" y1="405.3196" x2="-136.6929" y2="404.3196" gradientTransform="matrix(1.938 0 0 -18.4055 269.7557 7470.7607)">
	<stop  offset="0" style="stop-color:#00A9E0"/>
	<stop  offset="1" style="stop-color:#801C7D"/>
</linearGradient>
<path id="Path_18076" fill="url(#Path_18076_1_)" d="M4.844,29.062c-0.535,0.001-0.969-0.432-0.969-0.967c0-0.001,0-0.001,0-0.002
	V11.625c0-0.535,0.434-0.969,0.969-0.969s0.968,0.434,0.969,0.969v16.469C5.813,28.628,5.379,29.062,4.844,29.062
	C4.845,29.062,4.844,29.062,4.844,29.062z"/>
<linearGradient id="Path_18077_1_" gradientUnits="userSpaceOnUse" x1="-227.9771" y1="225.0715" x2="-227.9771" y2="224.0725" gradientTransform="matrix(5.7818 0 0 -1.938 1321.0442 463.3169)">
	<stop  offset="0" style="stop-color:#00A9E0"/>
	<stop  offset="1" style="stop-color:#801C7D"/>
</linearGradient>
<path id="Path_18077" fill="url(#Path_18077_1_)" d="M4.844,29.063H0.969c-0.535-0.017-0.955-0.465-0.938-0.999
	c0.017-0.511,0.427-0.921,0.938-0.938h3.875c0.535,0,0.969,0.434,0.969,0.969S5.379,29.064,4.844,29.063L4.844,29.063z"/>
<linearGradient id="Path_18078_1_" gradientUnits="userSpaceOnUse" x1="-228.2231" y1="225.0735" x2="-228.2231" y2="224.0735" gradientTransform="matrix(5.813 0 0 -1.938 1329.5701 446.8481)">
	<stop  offset="0" style="stop-color:#00A9E0"/>
	<stop  offset="1" style="stop-color:#801C7D"/>
</linearGradient>
<path id="Path_18078" fill="url(#Path_18078_1_)" d="M4.844,12.594H0.969C0.434,12.594,0,12.16,0,11.625s0.434-0.969,0.969-0.969
	h3.875c0.535,0,0.969,0.434,0.969,0.969S5.379,12.594,4.844,12.594z"/>
<linearGradient id="Path_18079_1_" gradientUnits="userSpaceOnUse" x1="-211.6753" y1="368.9387" x2="-211.6753" y2="367.9387" gradientTransform="matrix(4.2696 0 0 -6.779 931.6055 2508.7856)">
	<stop  offset="0" style="stop-color:#00A9E0"/>
	<stop  offset="1" style="stop-color:#801C7D"/>
</linearGradient>
<path id="Path_18079" fill="url(#Path_18079_1_)" d="M26.641,14.529c-0.535-0.017-0.955-0.464-0.938-0.999
	c0.017-0.511,0.427-0.921,0.938-0.938c0.801-0.042,1.416-0.726,1.374-1.526c-0.039-0.742-0.632-1.335-1.374-1.374
	c-0.535-0.017-0.955-0.465-0.938-0.999c0.017-0.511,0.427-0.921,0.938-0.938c1.872,0.032,3.363,1.576,3.331,3.447
	c-0.031,1.827-1.504,3.3-3.331,3.332V14.529z"/>
<linearGradient id="Path_18080_1_" gradientUnits="userSpaceOnUse" x1="-211.6753" y1="368.9387" x2="-211.6753" y2="367.9387" gradientTransform="matrix(4.2696 0 0 -6.779 931.6055 2513.6294)">
	<stop  offset="0" style="stop-color:#00A9E0"/>
	<stop  offset="1" style="stop-color:#801C7D"/>
</linearGradient>
<path id="Path_18080" fill="url(#Path_18080_1_)" d="M26.641,19.373c-0.535-0.018-0.955-0.465-0.938-1
	c0.017-0.511,0.427-0.921,0.938-0.938c0.801-0.042,1.416-0.726,1.374-1.526c-0.039-0.741-0.632-1.334-1.374-1.373
	c-0.535-0.018-0.955-0.465-0.938-1c0.017-0.511,0.427-0.921,0.938-0.938c1.872,0.032,3.363,1.576,3.331,3.448
	c-0.031,1.826-1.504,3.3-3.331,3.331V19.373z"/>
<linearGradient id="Path_18081_1_" gradientUnits="userSpaceOnUse" x1="-211.6782" y1="368.9387" x2="-211.6782" y2="367.9387" gradientTransform="matrix(4.2698 0 0 -6.779 931.6686 2518.4734)">
	<stop  offset="0" style="stop-color:#00A9E0"/>
	<stop  offset="1" style="stop-color:#801C7D"/>
</linearGradient>
<path id="Path_18081" fill="url(#Path_18081_1_)" d="M26.641,24.217c-0.535-0.018-0.955-0.465-0.938-1
	c0.017-0.511,0.427-0.921,0.938-0.937c0.801-0.043,1.416-0.726,1.374-1.526c-0.039-0.742-0.632-1.335-1.374-1.374
	c-0.535-0.018-0.955-0.465-0.938-1c0.017-0.511,0.427-0.921,0.938-0.938c1.872,0.032,3.363,1.576,3.332,3.448
	c-0.031,1.826-1.505,3.3-3.332,3.331V24.217z"/>
<linearGradient id="Path_18082_1_" gradientUnits="userSpaceOnUse" x1="-213.3281" y1="368.9456" x2="-213.3281" y2="367.9456" gradientTransform="matrix(4.3859 0 0 -6.78 963.5249 2523.738)">
	<stop  offset="0" style="stop-color:#00A9E0"/>
	<stop  offset="1" style="stop-color:#801C7D"/>
</linearGradient>
<path id="Path_18082" fill="url(#Path_18082_1_)" d="M26.641,29.061c-0.535-0.017-0.955-0.465-0.938-0.999
	c0.017-0.511,0.427-0.921,0.938-0.938c0.801,0.042,1.484-0.573,1.526-1.374c0.042-0.801-0.573-1.484-1.374-1.526
	c-0.051-0.003-0.102-0.003-0.152,0c-0.535-0.017-0.955-0.465-0.938-1c0.017-0.51,0.427-0.92,0.938-0.937
	c1.872-0.032,3.416,1.459,3.447,3.331c0.032,1.872-1.459,3.416-3.332,3.447c-0.039,0.001-0.077,0.001-0.116,0V29.061z"/>
<linearGradient id="Path_18083_1_" gradientUnits="userSpaceOnUse" x1="-204.8081" y1="225.0725" x2="-204.8081" y2="224.0725" gradientTransform="matrix(3.8458 0 0 -1.938 796.3933 449.7544)">
	<stop  offset="0" style="stop-color:#00A9E0"/>
	<stop  offset="1" style="stop-color:#801C7D"/>
</linearGradient>
<path id="Path_18083" fill="url(#Path_18083_1_)" d="M9.688,15.5H7.749c-0.535-0.018-0.955-0.465-0.938-1
	c0.017-0.511,0.427-0.921,0.938-0.938h1.939c0.535,0,0.969,0.435,0.969,0.97S10.223,15.501,9.688,15.5L9.688,15.5z"/>
<linearGradient id="Path_18084_1_" gradientUnits="userSpaceOnUse" x1="-204.8081" y1="225.0725" x2="-204.8081" y2="224.0725" gradientTransform="matrix(3.8458 0 0 -1.938 796.3933 460.4106)">
	<stop  offset="0" style="stop-color:#00A9E0"/>
	<stop  offset="1" style="stop-color:#801C7D"/>
</linearGradient>
<path id="Path_18084" fill="url(#Path_18084_1_)" d="M9.688,26.157H7.749c-0.535-0.018-0.955-0.465-0.938-1
	c0.017-0.511,0.427-0.921,0.938-0.938h1.939c0.535,0,0.969,0.434,0.969,0.969S10.223,26.158,9.688,26.157L9.688,26.157z"/>
<linearGradient id="Path_18085_1_" gradientUnits="userSpaceOnUse" x1="-239.5962" y1="376.051" x2="-239.5962" y2="375.051" gradientTransform="matrix(7.7347 0 0 -7.7341 1865.7944 2916.1643)">
	<stop  offset="0" style="stop-color:#00A9E0"/>
	<stop  offset="1" style="stop-color:#801C7D"/>
</linearGradient>
<path id="Path_18085" fill="url(#Path_18085_1_)" d="M9.686,15.5c-0.535,0-0.969-0.435-0.969-0.97c0-0.257,0.102-0.503,0.284-0.685
	l5.813-5.812c0.387-0.37,1-0.355,1.37,0.031c0.357,0.375,0.357,0.964,0,1.338l-5.812,5.813C10.19,15.399,9.943,15.5,9.686,15.5z"/>
<linearGradient id="Path_18086_1_" gradientUnits="userSpaceOnUse" x1="-253.6025" y1="225.0725" x2="-253.6025" y2="224.0725" gradientTransform="matrix(13.0458 0 0 -1.938 3329.5408 443.9419)">
	<stop  offset="0" style="stop-color:#00A9E0"/>
	<stop  offset="1" style="stop-color:#801C7D"/>
</linearGradient>
<path id="Path_18086" fill="url(#Path_18086_1_)" d="M26.638,9.688H15.499c-0.535-0.017-0.955-0.465-0.938-0.999
	c0.017-0.511,0.427-0.921,0.938-0.938h11.139c0.535,0,0.969,0.434,0.969,0.969S27.173,9.689,26.638,9.688L26.638,9.688z"/>
<linearGradient id="Path_18087_1_" gradientUnits="userSpaceOnUse" x1="-255.0151" y1="225.0715" x2="-255.0151" y2="224.0725" gradientTransform="matrix(14.0168 0 0 -1.938 3595.1104 463.3169)">
	<stop  offset="0" style="stop-color:#00A9E0"/>
	<stop  offset="1" style="stop-color:#801C7D"/>
</linearGradient>
<path id="Path_18087" fill="url(#Path_18087_1_)" d="M26.641,29.063h-12.11c-0.535-0.017-0.954-0.465-0.937-0.999
	c0.017-0.511,0.427-0.921,0.937-0.938h12.11c0.535,0,0.969,0.434,0.969,0.969S27.176,29.064,26.641,29.063L26.641,29.063z"/>
<linearGradient id="Path_18088_1_" gradientUnits="userSpaceOnUse" x1="-234.7769" y1="345.9485" x2="-234.7769" y2="344.9485" gradientTransform="matrix(6.7843 0 0 -4.845 1604.9077 1700.3525)">
	<stop  offset="0" style="stop-color:#00A9E0"/>
	<stop  offset="1" style="stop-color:#801C7D"/>
</linearGradient>
<path id="Path_18088" fill="url(#Path_18088_1_)" d="M14.531,29.062c-0.176,0.001-0.349-0.048-0.5-0.139l-4.844-2.906
	c-0.458-0.276-0.606-0.872-0.331-1.33c0.276-0.459,0.872-0.606,1.331-0.331l0,0l4.844,2.906c0.459,0.275,0.608,0.87,0.333,1.329
	C15.188,28.884,14.872,29.063,14.531,29.062z"/>
<linearGradient id="Path_18089_1_" gradientUnits="userSpaceOnUse" x1="-205.3579" y1="368.9719" x2="-205.3579" y2="367.9719" gradientTransform="matrix(3.8767 0 0 -6.7829 813.5397 2505.6003)">
	<stop  offset="0" style="stop-color:#00A9E0"/>
	<stop  offset="1" style="stop-color:#801C7D"/>
</linearGradient>
<path id="Path_18089" fill="url(#Path_18089_1_)" d="M18.405,9.687c-0.396,0-0.752-0.241-0.9-0.608l-1.937-4.845
	c-0.198-0.497,0.043-1.061,0.541-1.259c0.497-0.199,1.061,0.043,1.26,0.54l1.938,4.844c0.198,0.498-0.044,1.062-0.541,1.261
	c-0.114,0.046-0.236,0.069-0.359,0.068L18.405,9.687z"/>
<linearGradient id="Path_18090_1_" gradientUnits="userSpaceOnUse" x1="-205.3584" y1="368.9709" x2="-205.3584" y2="367.9709" gradientTransform="matrix(3.8766 0 0 -6.7829 821.288 2505.6003)">
	<stop  offset="0" style="stop-color:#00A9E0"/>
	<stop  offset="1" style="stop-color:#801C7D"/>
</linearGradient>
<path id="Path_18090" fill="url(#Path_18090_1_)" d="M24.217,9.688c-0.123,0.001-0.245-0.022-0.359-0.068
	c-0.497-0.199-0.739-0.763-0.541-1.261l1.938-4.844c0.199-0.497,0.763-0.739,1.26-0.54c0.497,0.198,0.739,0.762,0.541,1.259
	l-1.937,4.845C24.971,9.447,24.614,9.689,24.217,9.688z"/>
<linearGradient id="Path_18091_1_" gradientUnits="userSpaceOnUse" x1="-251.0249" y1="286.7161" x2="-251.0249" y2="285.7161" gradientTransform="matrix(11.5819 0 0 -2.7925 2928.6548 803.1235)">
	<stop  offset="0" style="stop-color:#00A9E0"/>
	<stop  offset="1" style="stop-color:#801C7D"/>
</linearGradient>
<path id="Path_18091" fill="url(#Path_18091_1_)" d="M23.432,5.27c-0.881,0.022-1.755-0.158-2.555-0.528
	c-1.3-0.649-3.4-0.183-4.1,0.053c-0.511,0.158-1.054-0.128-1.212-0.64c-0.153-0.495,0.111-1.023,0.599-1.198
	c0.134-0.045,3.312-1.083,5.584,0.053c1.3,0.649,3.4,0.182,4.1-0.053c0.511-0.158,1.054,0.128,1.212,0.64
	c0.153,0.495-0.111,1.023-0.599,1.198C25.48,5.099,24.459,5.26,23.432,5.27z"/>
<linearGradient id="Path_18092_1_" gradientUnits="userSpaceOnUse" x1="-265.9214" y1="414.678" x2="-265.9214" y2="413.678" gradientTransform="matrix(32.938 0 0 -32.9381 8780.2188 13685.8369)">
	<stop  offset="0" style="stop-color:#00A9E0"/>
	<stop  offset="1" style="stop-color:#801C7D"/>
</linearGradient>
<path id="Path_18092" fill="url(#Path_18092_1_)" d="M21.312,60.063c-9.091-0.01-16.459-7.377-16.469-16.469
	c0-6.056,3.349-11.686,9.685-16.285c0.434-0.313,1.039-0.217,1.353,0.217c0.314,0.434,0.217,1.039-0.216,1.353
	c-5.894,4.279-8.883,9.229-8.883,14.716c0,8.025,6.506,14.531,14.532,14.531s14.531-6.506,14.531-14.531
	c0-5.484-2.988-10.435-8.884-14.715c-0.433-0.314-0.53-0.92-0.215-1.354c0.314-0.434,0.92-0.53,1.354-0.216
	c6.335,4.601,9.683,10.231,9.683,16.285C37.771,52.687,30.403,60.054,21.312,60.063z"/>
<linearGradient id="Path_18093_1_" gradientUnits="userSpaceOnUse" x1="-256.832" y1="401.344" x2="-256.832" y2="400.344" gradientTransform="matrix(15.5 0 0 -15.5 4002.2109 6256.6602)">
	<stop  offset="0" style="stop-color:#00A9E0"/>
	<stop  offset="1" style="stop-color:#801C7D"/>
</linearGradient>
<path id="Path_18093" fill="url(#Path_18093_1_)" d="M21.312,51.344c-4.28,0-7.75-3.47-7.75-7.75s3.47-7.75,7.75-7.75
	s7.75,3.47,7.75,7.75C29.057,47.872,25.59,51.339,21.312,51.344z M21.312,37.782c-3.21,0-5.813,2.603-5.813,5.813
	c0,3.211,2.603,5.813,5.813,5.813s5.813-2.603,5.813-5.813l0,0C27.122,40.386,24.521,37.784,21.312,37.782z"/>
<linearGradient id="Path_18094_1_" gradientUnits="userSpaceOnUse" x1="-136.6929" y1="359.3674" x2="-136.6929" y2="358.3674" gradientTransform="matrix(1.938 0 0 -5.813 286.2244 2129.6826)">
	<stop  offset="0" style="stop-color:#00A9E0"/>
	<stop  offset="1" style="stop-color:#801C7D"/>
</linearGradient>
<path id="Path_18094" fill="url(#Path_18094_1_)" d="M21.312,46.5c-0.535,0-0.968-0.433-0.969-0.967c0-0.001,0-0.002,0-0.002v-3.875
	c0-0.535,0.434-0.97,0.969-0.97s0.969,0.435,0.969,0.97v3.875c0.001,0.534-0.432,0.968-0.967,0.969
	C21.313,46.5,21.313,46.5,21.312,46.5z"/>
<linearGradient id="Path_18095_1_" gradientUnits="userSpaceOnUse" x1="-136.6929" y1="381.7102" x2="-136.6929" y2="380.7102" gradientTransform="matrix(1.938 0 0 -8.7106 313.3645 3324.9333)">
	<stop  offset="0" style="stop-color:#00A9E0"/>
	<stop  offset="1" style="stop-color:#801C7D"/>
</linearGradient>
<path id="Path_18095" fill="url(#Path_18095_1_)" d="M48.456,8.713c-0.535,0-0.97-0.434-0.97-0.969V0.968
	C47.488,0.433,47.924,0,48.459,0.002c0.533,0.002,0.965,0.434,0.966,0.966v6.776C49.425,8.28,48.991,8.713,48.456,8.713z"/>
<linearGradient id="Path_18096_1_" gradientUnits="userSpaceOnUse" x1="-136.6919" y1="376.1174" x2="-136.6919" y2="375.1174" gradientTransform="matrix(1.938 0 0 -7.7444 308.5208 2914.7207)">
	<stop  offset="0" style="stop-color:#00A9E0"/>
	<stop  offset="1" style="stop-color:#801C7D"/>
</linearGradient>
<path id="Path_18096" fill="url(#Path_18096_1_)" d="M43.611,9.682c-0.533,0.001-0.968-0.433-0.969-0.967c0-0.001,0-0.001,0-0.002
	V2.91c-0.002-0.535,0.432-0.971,0.967-0.973s0.97,0.431,0.972,0.966c0,0.002,0,0.004,0,0.007v5.8
	c0.001,0.535-0.431,0.97-0.966,0.972C43.613,9.682,43.613,9.682,43.611,9.682z"/>
<linearGradient id="Path_18097_1_" gradientUnits="userSpaceOnUse" x1="-218.3398" y1="224.968" x2="-218.3398" y2="223.968" gradientTransform="matrix(4.7808 0 0 -1.937 1090.8386 435.7648)">
	<stop  offset="0" style="stop-color:#00A9E0"/>
	<stop  offset="1" style="stop-color:#801C7D"/>
</linearGradient>
<path id="Path_18097" fill="url(#Path_18097_1_)" d="M45.549,1.939c-0.535-0.017-0.955-0.465-0.938-0.999
	c0.017-0.511,0.427-0.921,0.938-0.938h2.905l0,0c0.534,0.017,0.954,0.465,0.938,0.999c-0.017,0.511-0.427,0.922-0.938,0.938H45.549z
	"/>
<linearGradient id="Path_18098_1_" gradientUnits="userSpaceOnUse" x1="-205.3291" y1="325.8528" x2="-205.3291" y2="324.8528" gradientTransform="matrix(3.875 0 0 -3.878 840.2217 1263.6611)">
	<stop  offset="0" style="stop-color:#00A9E0"/>
	<stop  offset="1" style="stop-color:#801C7D"/>
</linearGradient>
<path id="Path_18098" fill="url(#Path_18098_1_)" d="M43.611,3.879c-0.533,0-0.968-0.433-0.969-0.967c0-0.001,0-0.002,0-0.002
	c0.002-1.604,1.303-2.905,2.906-2.908c0.535,0,0.969,0.434,0.969,0.969S46.084,1.94,45.549,1.94c-0.536,0-0.971,0.436-0.971,0.972
	l0,0C44.578,3.446,44.146,3.879,43.611,3.879C43.61,3.88,43.609,3.88,43.609,3.88L43.611,3.879z"/>
</svg>
