<svg xmlns="http://www.w3.org/2000/svg" xmlns:xlink="http://www.w3.org/1999/xlink" width="71.996" height="57.676" viewBox="0 0 71.996 57.676">
  <defs>
    <linearGradient id="linear-gradient" x1="0.5" x2="0.5" y2="1" gradientUnits="objectBoundingBox">
      <stop offset="0.13" stop-color="#00a9ed"/>
      <stop offset="1" stop-color="#65106b"/>
    </linearGradient>
  </defs>
  <path id="Union_37" data-name="Union 37" d="M-2081,20175.674v-2.406h4.805v-2.471a5.717,5.717,0,0,1-4.805-5.641v-7.6a1.159,1.159,0,0,1,.03-.193l1.215-5.266a23.681,23.681,0,0,1,3.782-8.41l1.955,1.393a21.239,21.239,0,0,0-3.393,7.559l-.835,3.615,15.889-1.867a3.308,3.308,0,0,0,2.744-2.238l4.577-13.723H-2066.3a21.3,21.3,0,0,0-5.894,4.426l-1.752-1.641a23.638,23.638,0,0,1,6.7-5l.121-.061a1.217,1.217,0,0,1,.537-.127h1.828l3.089-3.863a5.687,5.687,0,0,1,4.456-2.143h3.843v-2.557a4.818,4.818,0,0,1-2.942-2.217l-17.849.992c-.076,0-.157,0-.233,0a4.207,4.207,0,0,1-4.208-4.207v-2.83a1.207,1.207,0,0,1,.375-.871,1.212,1.212,0,0,1,.891-.33l22.011,1.186a4.8,4.8,0,0,1,6.314,0L-2027,20118a1.212,1.212,0,0,1,.891.33,1.207,1.207,0,0,1,.375.871v2.83a4.207,4.207,0,0,1-4.208,4.207c-.076,0-.157,0-.233,0l-17.849-.992a4.818,4.818,0,0,1-2.942,2.217v2.557h1.757a5.679,5.679,0,0,1,5.3,3.586l.992,2.486a5.667,5.667,0,0,1,3.9,2.475l5.544,8.32,14.33,1.1,4.324-6.613a1.213,1.213,0,0,1,1.008-.547h3.605a1.2,1.2,0,0,1,.937.451,1.206,1.206,0,0,1,.233,1.018l-1.62,7.205-2.344-.525,1.291-5.742h-1.453l-4.36,6.662a1.188,1.188,0,0,1-1.1.543l-2.81-.219-2.268,6.229h7.575a1.784,1.784,0,0,0,1.757-1.408l.825-3.66,2.344.527-.825,3.66a4.183,4.183,0,0,1-4.1,3.285h-18.689l-9.114,10.123a5.687,5.687,0,0,1-4.238,1.889h-1.6v2.4h5.509l3.256-3.25,1.7,1.7-3.605,3.605a1.186,1.186,0,0,1-.846.355Zm7.205-2.406h21.631v-2.4h-21.631Zm16.466-20.359a5.72,5.72,0,0,1-4.75,3.863l-16.522,1.949v6.436a3.307,3.307,0,0,0,3.306,3.307h27.13a3.316,3.316,0,0,0,2.456-1.094l9.469-10.521a1.2,1.2,0,0,1,.9-.4h1.884l2.532-6.957-3.306-.254a1.209,1.209,0,0,1-.911-.531l-5.869-8.811a3.3,3.3,0,0,0-2.75-1.469h-8.74Zm26.426,3.539h4.648l2.339-6.42-4.527-.346Zm-28.887-22.791-1.894,2.365h16.152l-.613-1.529a3.289,3.289,0,0,0-3.063-2.076h-8.005A3.29,3.29,0,0,0-2059.787,20133.656Zm5.22-10.85a2.411,2.411,0,0,0,2.405,2.4,2.4,2.4,0,0,0,2.4-2.4,2.4,2.4,0,0,0-2.4-2.406A2.4,2.4,0,0,0-2054.567,20122.807Zm7.033-1.3a4.883,4.883,0,0,1,.177,1.3v.064l17.322.963a1.815,1.815,0,0,0,1.337-.492,1.8,1.8,0,0,0,.562-1.311v-1.564Zm-28.659.521a1.8,1.8,0,0,0,.562,1.311,1.815,1.815,0,0,0,1.337.492l17.322-.963v-.064a4.883,4.883,0,0,1,.177-1.3l-19.4-1.043Zm10.81,40.426v-2.4h4.805v2.4Zm10.815-10.814a8.412,8.412,0,0,1,8.41-8.41,8.417,8.417,0,0,1,8.41,8.41,8.413,8.413,0,0,1-8.41,8.41A8.413,8.413,0,0,1-2054.567,20151.643Zm2.405,0a6.009,6.009,0,0,0,6.005,6.01,6.013,6.013,0,0,0,6.005-6.01,6.006,6.006,0,0,0-6.005-6.006A6.006,6.006,0,0,0-2052.162,20151.643Zm4.805,3.605v-2.406h-2.405v-2.4h2.405v-2.4h2.4v2.4h2.405v2.4h-2.405v2.406Z" transform="translate(2080.998 -20117.998)" fill="url(#linear-gradient)"/>
</svg>
