<?xml version="1.0" encoding="utf-8"?>
<!-- Generator: Adobe Illustrator 16.0.0, SVG Export Plug-In . SVG Version: 6.00 Build 0)  -->
<!DOCTYPE svg PUBLIC "-//W3C//DTD SVG 1.1//EN" "http://www.w3.org/Graphics/SVG/1.1/DTD/svg11.dtd">
<svg version="1.1" id="Layer_1" xmlns="http://www.w3.org/2000/svg" xmlns:xlink="http://www.w3.org/1999/xlink" x="0px" y="0px"
	 width="63px" height="63px" viewBox="0 0 63 63" enable-background="new 0 0 63 63" xml:space="preserve">
<g id="patient" transform="translate(0)">
	
		<linearGradient id="Path_17394_1_" gradientUnits="userSpaceOnUse" x1="-142.7905" y1="236.582" x2="-142.7905" y2="235.582" gradientTransform="matrix(2.032 0 0 -2.032 316.5701 496.9919)">
		<stop  offset="0.13" style="stop-color:#00A9ED"/>
		<stop  offset="1" style="stop-color:#65106B"/>
	</linearGradient>
	<path id="Path_17394" fill="url(#Path_17394_1_)" d="M25.403,16.258h2.032v2.032h-2.032V16.258z"/>
	
		<linearGradient id="Path_17395_1_" gradientUnits="userSpaceOnUse" x1="-142.7905" y1="236.582" x2="-142.7905" y2="235.582" gradientTransform="matrix(2.032 0 0 -2.032 308.4412 496.9919)">
		<stop  offset="0.13" style="stop-color:#00A9ED"/>
		<stop  offset="1" style="stop-color:#65106B"/>
	</linearGradient>
	<path id="Path_17395" fill="url(#Path_17395_1_)" d="M17.274,16.258h2.032v2.032h-2.032V16.258z"/>
	
		<linearGradient id="Path_17396_1_" gradientUnits="userSpaceOnUse" x1="-142.7915" y1="236.584" x2="-142.7915" y2="235.584" gradientTransform="matrix(2.032 0 0 -2.032 345.0264 514.2738)">
		<stop  offset="0.13" style="stop-color:#00A9ED"/>
		<stop  offset="1" style="stop-color:#65106B"/>
	</linearGradient>
	<path id="Path_17396" fill="url(#Path_17396_1_)" d="M53.855,33.532h2.031v2.032h-2.031V33.532z"/>
	
		<linearGradient id="Path_17397_1_" gradientUnits="userSpaceOnUse" x1="-142.7915" y1="236.584" x2="-142.7915" y2="235.584" gradientTransform="matrix(2.032 0 0 -2.032 345.0264 518.3383)">
		<stop  offset="0.13" style="stop-color:#00A9ED"/>
		<stop  offset="1" style="stop-color:#65106B"/>
	</linearGradient>
	<path id="Path_17397" fill="url(#Path_17397_1_)" d="M53.855,37.597h2.031v2.032h-2.031V37.597z"/>
	
		<linearGradient id="Path_17398_1_" gradientUnits="userSpaceOnUse" x1="-268.7476" y1="421.8262" x2="-268.7476" y2="420.8262" gradientTransform="matrix(55.887 0 0 -63 15047.4434 26575.0625)">
		<stop  offset="0.13" style="stop-color:#00A9ED"/>
		<stop  offset="1" style="stop-color:#65106B"/>
	</linearGradient>
	<path id="Path_17398" fill="url(#Path_17398_1_)" d="M53.855,49.79c-0.001,0.562-0.455,1.016-1.017,1.017H44.71V5.081
		c-0.001-1.122-0.91-2.031-2.032-2.032h-2.045c-0.064-1.746-1.531-3.109-3.278-3.045c-0.798,0.03-1.557,0.36-2.122,0.926
		L34.34,1.822C31.701,0.625,28.838,0.003,25.94,0h-7.17c-2.897,0.003-5.761,0.625-8.4,1.822L9.478,0.929
		C8.243-0.307,6.24-0.308,5.003,0.927C4.438,1.492,4.107,2.25,4.078,3.049H2.032C0.91,3.05,0.001,3.959,0,5.081V63h44.71V52.839
		h8.129c1.683-0.002,3.046-1.365,3.048-3.048v-8.13h-2.031V49.79z M42.677,50.807H31.5c-0.561-0.001-1.016-0.455-1.016-1.017v-1.017
		h5.081c1.684-0.002,3.047-1.365,3.049-3.047V37.6h4.064L42.677,50.807z M30.484,43.693h3.048v-8.129H11.177v8.129h6.6
		c0.842,0,1.524,0.684,1.524,1.524c0,0.842-0.682,1.524-1.524,1.524H9.145c-0.561-0.001-1.016-0.455-1.016-1.016v-9.818
		c-0.001-1.473,1.051-2.736,2.5-3l7.206-1.31c1.133,1.298,2.796,2.011,4.518,1.934c1.722,0.077,3.385-0.634,4.519-1.932l7.206,1.31
		c1.449,0.265,2.5,1.527,2.5,3v9.818c0,0.561-0.455,1.016-1.016,1.016h-5.079V43.693z M28.452,46.742h-1.525
		c-0.842,0-1.524-0.683-1.524-1.524c0-0.841,0.683-1.524,1.524-1.524h1.524L28.452,46.742z M29.468,12.194H15.259
		c0.183-3.546,3.206-6.272,6.752-6.089c1.906,0.098,3.67,1.039,4.814,2.566l0.437,0.582c0.344,0.456,0.789,0.827,1.3,1.082
		c0.559,0.277,0.912,0.848,0.909,1.471L29.468,12.194z M15.242,14.226h14.226v6.1H15.242V14.226z M29.168,22.355
		c-1.121,3.763-5.08,5.904-8.843,4.783c-2.299-0.685-4.098-2.484-4.783-4.783H29.168z M19.306,28.935c1.971,0.712,4.129,0.712,6.1,0
		v1.251c-0.74,0.912-1.88,1.402-3.051,1.314c-1.17,0.087-2.309-0.404-3.048-1.315L19.306,28.935z M42.678,35.564h-4.095
		c-0.15-2.316-1.856-4.235-4.142-4.654l-7.005-1.273v-1.214c2.398-0.137,4.746-0.743,6.91-1.785l0.885,0.885
		c1.24,1.238,3.248,1.237,4.486-0.002c0.594-0.595,0.928-1.401,0.928-2.242V5.081h2.033V35.564z M6.1,3.171
		c0-0.629,0.512-1.139,1.141-1.139c0.301,0,0.59,0.12,0.804,0.333l1.92,1.919l0.655-0.327c2.531-1.263,5.321-1.922,8.15-1.925h7.17
		c2.831,0.003,5.622,0.662,8.154,1.926l0.655,0.327l1.919-1.919c0.445-0.445,1.166-0.444,1.611,0
		c0.213,0.214,0.332,0.503,0.332,0.805V25.28c0,0.629-0.511,1.139-1.141,1.139c-0.301,0-0.59-0.12-0.804-0.333l-1.92-1.919
		l-1.083,0.541c-1.34,0.66-2.766,1.131-4.235,1.4c1.34-1.63,2.072-3.675,2.07-5.786v-8.516c0.004-1.394-0.783-2.669-2.032-3.289
		c-0.228-0.114-0.426-0.28-0.579-0.484l-0.437-0.582c-2.807-3.741-8.115-4.498-11.856-1.69c-2.13,1.599-3.385,4.107-3.385,6.771
		v7.791c-0.001,2.11,0.73,4.156,2.071,5.787c-1.469-0.269-2.895-0.74-4.235-1.4l-1.083-0.541l-1.92,1.919
		C7.828,26.3,7.538,26.419,7.236,26.42C6.608,26.418,6.1,25.908,6.1,25.28V3.171z M2.032,5.081h2.032v20.2
		c0,1.751,1.421,3.171,3.173,3.171c0.84,0,1.646-0.334,2.241-0.928l0.885-0.885c2.165,1.042,4.512,1.648,6.91,1.785v1.213
		l-7.006,1.273c-2.284,0.42-3.991,2.338-4.141,4.656H2.032V5.081z M42.677,60.968H2.032V37.6H6.1v8.129
		c0.002,1.684,1.365,3.047,3.048,3.049h8.637c1.964,0,3.556-1.593,3.556-3.557c0-1.965-1.592-3.557-3.556-3.557H13.21V37.6H31.5
		v4.065h-4.573c-1.964,0-3.557,1.593-3.557,3.557s1.592,3.556,3.557,3.556h1.524v1.013c0.001,1.683,1.366,3.048,3.049,3.049h11.177
		V60.968z"/>
	
		<linearGradient id="Path_17399_1_" gradientUnits="userSpaceOnUse" x1="-257.1636" y1="415.6523" x2="-257.1636" y2="414.6523" gradientTransform="matrix(16.258 0 0 -31.5 4235.8398 13093.0313)">
		<stop  offset="0.13" style="stop-color:#00A9ED"/>
		<stop  offset="1" style="stop-color:#65106B"/>
	</linearGradient>
	<path id="Path_17399" fill="url(#Path_17399_1_)" d="M59.952,0H49.79c-1.683,0.002-3.046,1.366-3.048,3.048v15.171
		c0,0.998,0.489,1.933,1.311,2.5l3.77,3.126v4.6h2.033V31.5h2.031v-3.048h2.032v-4.6l3.771-3.126c0.821-0.568,1.311-1.502,1.311-2.5
		V3.048C62.998,1.366,61.635,0.002,59.952,0z M48.773,3.048c0.001-0.561,0.455-1.015,1.017-1.016h10.162
		c0.561,0,1.015,0.455,1.016,1.016v15.171c0,0.024-0.007,0.048-0.009,0.071h-5.072v2.032h3.107l-2.452,2.033h-3.333l-2.452-2.032
		h3.101V18.29h-5.072c0-0.024-0.01-0.047-0.01-0.071L48.773,3.048z M53.855,26.419v-2.032h2.031v2.032H53.855z"/>
	
		<linearGradient id="Path_17400_1_" gradientUnits="userSpaceOnUse" x1="-229.9595" y1="364.2344" x2="-229.9595" y2="363.2344" gradientTransform="matrix(6.1 0 0 -6.1 1457.6243 2229.9673)">
		<stop  offset="0.13" style="stop-color:#00A9ED"/>
		<stop  offset="1" style="stop-color:#65106B"/>
	</linearGradient>
	<path id="Path_17400" fill="url(#Path_17400_1_)" d="M53.855,14.229h2.031v-2.035h2.036v-2.033h-2.032V8.129h-2.031v2.032h-2.037
		v2.032h2.033V14.229z"/>
</g>
</svg>
