<svg xmlns="http://www.w3.org/2000/svg" xmlns:xlink="http://www.w3.org/1999/xlink" width="62.892" height="63.001" viewBox="0 0 62.892 63.001">
  <defs>
    <linearGradient id="linear-gradient" x1="0.5" x2="0.5" y2="1" gradientUnits="objectBoundingBox">
      <stop offset="0.13" stop-color="#00a9ed"/>
      <stop offset="1" stop-color="#65106b"/>
    </linearGradient>
  </defs>
  <g id="drought" transform="translate(-0.24 0.002)">
    <path id="Path_17645" data-name="Path 17645" d="M61.56,327.344H1.815a1.572,1.572,0,0,0-1.573,1.572v18.867a1.572,1.572,0,0,0,1.573,1.572H39.75a1.1,1.1,0,0,0,.185.069,1.169,1.169,0,0,0,.291.041,1.37,1.37,0,0,0,.5-.1H61.56a1.572,1.572,0,0,0,1.572-1.578V328.916A1.572,1.572,0,0,0,61.56,327.344Zm-4.953,14.642-8.717-.969-2.4-2.4,1.741-4.353,5.793-4.828H55.08l1.832,4.582a1.048,1.048,0,0,0,.72.629l3.4.848v3.829ZM26.76,347.259l-5.688-3.792-.683-2.733,3.857-.771,4.953,1.981a1.059,1.059,0,0,0,.392.074,1.02,1.02,0,0,0,.287-.041l6-1.714v3.851a1.047,1.047,0,0,0,.267.7c.7.785,1.458,1.7,2.03,2.445ZM13.869,332.585v-3.144h5.855l4.537,4.537-.8,4.005-4.229.846L11.5,335.392l2.066-2.066a1.048,1.048,0,0,0,.307-.741Zm17.171-3.144.906,1.811-6.2,1.243-3.055-3.054Zm15.06,3.047-3.677-.92a1.042,1.042,0,0,0-.54.01l-6.5,1.857-2-3.994H49.756Zm-19.81,2.037,6.628-1.329.977,1.955,1.531,3.063-5.777,1.65-4.1-1.639Zm11.287,3.3-1.242-2.484,5.854-1.677,2.755.689-1.387,3.472Zm-18.435,6.544a1.046,1.046,0,0,0,.435.617l3.412,2.273H13.255l5.287-5.287Zm18.835-.653v-3.794h5.855l2.111,2.109a61.541,61.541,0,0,1-5.354,5.019,31.2,31.2,0,0,0-2.613-3.334Zm23.06-10.377-2.371-.592-1.322-3.307h3.693Zm-49.264-3.9v2.71L9.1,334.827l-6.758,2.534V329.44ZM2.339,339.6l7.3-2.739,7.652,3.4-7,7H2.339Zm45.467,3.517,8.16.907.647,3.236H43.59c1.046-.938,2.414-2.268,4.216-4.142Zm10.945,4.142-.734-3.674,3.019-1.813v5.486Zm0,0" transform="translate(0 -286.466)" fill="url(#linear-gradient)"/>
    <path id="Path_17646" data-name="Path 17646" d="M69.479,79.717A10.482,10.482,0,1,0,59,69.236,10.482,10.482,0,0,0,69.479,79.717Zm0-18.867a8.385,8.385,0,1,1-8.385,8.385,8.385,8.385,0,0,1,8.385-8.385Zm0,0" transform="translate(-51.417 -51.417)" fill="url(#linear-gradient)"/>
    <path id="Path_17647" data-name="Path 17647" d="M135.588,5.241a1.048,1.048,0,0,0,1.048-1.048V1.048a1.05,1.05,0,1,0-2.1,0V4.193a1.048,1.048,0,0,0,1.052,1.048Zm0,0" transform="translate(-117.526)" fill="url(#linear-gradient)"/>
    <path id="Path_17648" data-name="Path 17648" d="M69.08,22.233a1.05,1.05,0,0,0,1.82-1.048L69.324,18.46a1.048,1.048,0,1,0-1.816,1.048Zm0,0" transform="translate(-58.74 -15.691)" fill="url(#linear-gradient)"/>
    <path id="Path_17649" data-name="Path 17649" d="M18.722,69.079l2.725,1.572A1.048,1.048,0,1,0,22.5,68.836L19.77,67.264a1.048,1.048,0,1,0-1.048,1.815Zm0,0" transform="translate(-15.708 -58.738)" fill="url(#linear-gradient)"/>
    <path id="Path_17650" data-name="Path 17650" d="M1.29,136.393H4.435a1.05,1.05,0,0,0,0-2.1H1.29a1.05,1.05,0,1,0,0,2.1Zm0,0" transform="translate(0 -117.526)" fill="url(#linear-gradient)"/>
    <path id="Path_17651" data-name="Path 17651" d="M21.423,188.969,18.7,190.542a1.048,1.048,0,1,0,1.048,1.816l2.725-1.572a1.048,1.048,0,1,0-1.048-1.816Zm0,0" transform="translate(-15.687 -165.245)" fill="url(#linear-gradient)"/>
    <path id="Path_17652" data-name="Path 17652" d="M69.08,229.352l-1.572,2.725a1.048,1.048,0,1,0,1.816,1.048L70.9,230.4a1.048,1.048,0,1,0-1.816-1.048Zm0,0" transform="translate(-58.74 -200.257)" fill="url(#linear-gradient)"/>
    <path id="Path_17653" data-name="Path 17653" d="M134.539,244.459V247.6a1.05,1.05,0,0,0,2.1,0v-3.144a1.05,1.05,0,1,0-2.1,0Zm0,0" transform="translate(-117.526 -213.014)" fill="url(#linear-gradient)"/>
    <path id="Path_17654" data-name="Path 17654" d="M189.619,228.928a1.047,1.047,0,0,0-.383,1.432l1.572,2.725a1.048,1.048,0,1,0,1.815-1.048l-1.572-2.725a1.048,1.048,0,0,0-1.432-.383Zm0,0" transform="translate(-165.269 -200.216)" fill="url(#linear-gradient)"/>
    <path id="Path_17655" data-name="Path 17655" d="M229.606,190.831l2.725,1.572a1.048,1.048,0,1,0,1.048-1.816l-2.725-1.572a1.048,1.048,0,1,0-1.048,1.816Zm0,0" transform="translate(-200.268 -165.292)" fill="url(#linear-gradient)"/>
    <path id="Path_17656" data-name="Path 17656" d="M243.652,135.345a1.048,1.048,0,0,0,1.048,1.048h3.144a1.05,1.05,0,1,0,0-2.1H244.7a1.048,1.048,0,0,0-1.048,1.052Zm0,0" transform="translate(-213.013 -117.526)" fill="url(#linear-gradient)"/>
    <path id="Path_17657" data-name="Path 17657" d="M230.1,70.792a1.037,1.037,0,0,0,.524-.14l2.725-1.572a1.048,1.048,0,1,0-1.048-1.815l-2.725,1.572a1.048,1.048,0,0,0,.524,1.956Zm0,0" transform="translate(-200.233 -58.738)" fill="url(#linear-gradient)"/>
    <path id="Path_17658" data-name="Path 17658" d="M189.619,22.617a1.048,1.048,0,0,0,1.432-.384l1.572-2.725a1.048,1.048,0,1,0-1.815-1.048l-1.572,2.725a1.048,1.048,0,0,0,.383,1.432Zm0,0" transform="translate(-165.269 -15.691)" fill="url(#linear-gradient)"/>
  </g>
</svg>
