<?xml version="1.0" encoding="utf-8"?>
<!-- Generator: Adobe Illustrator 16.0.0, SVG Export Plug-In . SVG Version: 6.00 Build 0)  -->
<!DOCTYPE svg PUBLIC "-//W3C//DTD SVG 1.1//EN" "http://www.w3.org/Graphics/SVG/1.1/DTD/svg11.dtd">
<svg version="1.1" id="Layer_1" xmlns="http://www.w3.org/2000/svg" xmlns:xlink="http://www.w3.org/1999/xlink" x="0px" y="0px"
	 width="65px" height="65px" viewBox="0 0 65 65" enable-background="new 0 0 65 65" xml:space="preserve">
<g id="ground" transform="translate(0 -0.001)">
	<g id="Group_3537" transform="translate(39.958 9.504)">
		<g id="Group_3536">
			
				<linearGradient id="Path_18881_1_" gradientUnits="userSpaceOnUse" x1="-295.5337" y1="394.7119" x2="-295.5337" y2="393.7119" gradientTransform="matrix(15.6931 0 0 -15.6935 4646.6875 6195.4028)">
				<stop  offset="0.13" style="stop-color:#00A9ED"/>
				<stop  offset="1" style="stop-color:#65106B"/>
			</linearGradient>
			<path id="Path_18881" fill="url(#Path_18881_1_)" d="M16.386,14.904L2.735,1.254c-0.439-0.378-1.104-0.328-1.48,0.112
				c-0.34,0.395-0.339,0.979,0.003,1.373l13.65,13.65c0.409,0.408,1.073,0.406,1.481-0.004
				C16.797,15.975,16.795,15.312,16.386,14.904z"/>
		</g>
	</g>
	<g id="Group_3539" transform="translate(7.344 0.001)">
		<g id="Group_3538" transform="translate(0 0)">
			
				<linearGradient id="Path_18882_1_" gradientUnits="userSpaceOnUse" x1="-270.4792" y1="413.5742" x2="-270.4792" y2="412.5742" gradientTransform="matrix(28.3633 0 0 -25.2133 7686.8799 10428.5498)">
				<stop  offset="0.13" style="stop-color:#00A9ED"/>
				<stop  offset="1" style="stop-color:#65106B"/>
			</linearGradient>
			<path id="Path_18882" fill="url(#Path_18882_1_)" d="M29.054,4.457l-3.149-3.15c-0.41-0.41-1.075-0.41-1.485,0l0,0l-23.1,23.1
				c-0.417,0.403-0.429,1.067-0.026,1.485c0.403,0.417,1.067,0.429,1.485,0.026l0,0l0.026-0.026l22.35-22.358l2.415,2.408
				c0.41,0.41,1.074,0.41,1.484,0C29.465,5.532,29.465,4.867,29.054,4.457z"/>
		</g>
	</g>
	<g id="Group_3541" transform="translate(45.159 23.14)">
		<g id="Group_3540">
			
				<linearGradient id="Path_18883_1_" gradientUnits="userSpaceOnUse" x1="-233.1273" y1="352.6589" x2="-233.1273" y2="351.6589" gradientTransform="matrix(3.142 0 0 -7.311 735.0644 2579.2988)">
				<stop  offset="0.13" style="stop-color:#00A9ED"/>
				<stop  offset="1" style="stop-color:#65106B"/>
			</linearGradient>
			<path id="Path_18883" fill="url(#Path_18883_1_)" d="M3.262,1.014C2.718,0.924,2.196,1.272,2.07,1.809l-1.049,5.25
				C0.909,7.625,1.275,8.174,1.84,8.29c0.069,0.014,0.14,0.021,0.21,0.021c0.498,0,0.928-0.352,1.027-0.84l1.051-5.25
				C4.222,1.649,3.835,1.109,3.262,1.014C3.263,1.014,3.263,1.014,3.262,1.014z"/>
		</g>
	</g>
	<g id="Group_3543" transform="translate(12.605 22.051)">
		<g id="Group_3542">
			
				<linearGradient id="Path_18884_1_" gradientUnits="userSpaceOnUse" x1="-277.666" y1="388.4295" x2="-277.666" y2="387.4295" gradientTransform="matrix(35.7046 0 0 -21.001 9932.8154 8158.4111)">
				<stop  offset="0.13" style="stop-color:#00A9ED"/>
				<stop  offset="1" style="stop-color:#65106B"/>
			</linearGradient>
			<path id="Path_18884" fill="url(#Path_18884_1_)" d="M36.695,20.82l-1.05-8.399c-0.072-0.576-0.596-0.984-1.172-0.912l0,0l0,0
				c-0.575,0.072-0.982,0.596-0.911,1.172l0.899,7.22h-7.215V2.05c0-0.58-0.47-1.05-1.049-1.05l0,0H13.597
				c-0.58,0-1.05,0.47-1.05,1.05l0,0v17.851H5.078L3.097,4.021C3.05,3.443,2.542,3.013,1.965,3.06
				C1.387,3.108,0.957,3.615,1.004,4.193c0.001,0.013,0.002,0.026,0.004,0.04c0,0.017,0,0.033,0.006,0.049l2.1,16.8
				c0.065,0.522,0.506,0.916,1.033,0.92h31.5c0.58,0.005,1.054-0.462,1.059-1.041c0-0.047-0.003-0.093-0.009-0.139L36.695,20.82z
				 M25.145,19.9h-10.5V3.101h10.5V19.9z"/>
		</g>
	</g>
	<g id="Group_3545" transform="translate(46.221 3.151)">
		<g id="Group_3544">
			
				<linearGradient id="Path_18885_1_" gradientUnits="userSpaceOnUse" x1="-290.6219" y1="392.1752" x2="-290.6219" y2="391.1752" gradientTransform="matrix(9.4521 0 0 -11.5506 2752.7129 4530.8765)">
				<stop  offset="0.13" style="stop-color:#00A9ED"/>
				<stop  offset="1" style="stop-color:#65106B"/>
			</linearGradient>
			<path id="Path_18885" fill="url(#Path_18885_1_)" d="M10.129,5.507l-4.199-4.2c-0.41-0.41-1.075-0.41-1.485,0l0,0l-3.149,3.15
				c-0.41,0.41-0.41,1.075,0,1.485c0.41,0.41,1.074,0.41,1.484,0l2.4-2.408l2.72,2.715l-4.5,4.508
				c-0.411,0.41-0.411,1.074-0.001,1.485c0.4,0.401,1.046,0.412,1.46,0.025l0.026-0.026l5.25-5.25
				C10.543,6.58,10.54,5.915,10.129,5.507z"/>
		</g>
	</g>
	<g id="Group_3547" transform="translate(27.302 45.15)">
		<g id="Group_3546">
			
				<linearGradient id="Path_18886_1_" gradientUnits="userSpaceOnUse" x1="-290.0701" y1="362.061" x2="-290.0701" y2="361.062" gradientTransform="matrix(27.2903 0 0 -17.8513 7930.7373 6464.2739)">
				<stop  offset="0.13" style="stop-color:#00A9ED"/>
				<stop  offset="1" style="stop-color:#65106B"/>
			</linearGradient>
			<path id="Path_18886" fill="url(#Path_18886_1_)" d="M27.688,16.847L27.688,16.847l-12.285-5.67l4.186-4.186
				c0.409-0.41,0.408-1.074-0.002-1.484c-0.126-0.125-0.281-0.217-0.453-0.266L4.434,1.04C3.876,0.882,3.296,1.207,3.137,1.764
				C3.033,2.129,3.135,2.523,3.403,2.792L7.68,7.07l-6.155,3.52c-0.504,0.287-0.679,0.929-0.391,1.432
				c0.046,0.082,0.103,0.156,0.169,0.223l6.299,6.299c0.197,0.197,0.463,0.309,0.74,0.31h18.9c0.58-0.004,1.047-0.478,1.043-1.058
				c-0.003-0.403-0.237-0.771-0.604-0.942L27.688,16.847z M8.348,16.316l-4.582-4.585L8.348,9.11V16.316z M12.559,11.501h-0.01v5.25
				h-2.101V7.305h-0.022c0.008-0.275-0.096-0.543-0.285-0.742L7.76,4.177l9.094,2.6l-3.99,3.99
				c-0.195,0.195-0.305,0.461-0.305,0.738V11.501z M14.649,16.751v-3.609l7.824,3.609H14.649z"/>
		</g>
	</g>
	<g id="Group_3549" transform="translate(7.358 6.354)">
		<g id="Group_3548">
			
				<linearGradient id="Path_18887_1_" gradientUnits="userSpaceOnUse" x1="-251.588" y1="381.2496" x2="-251.588" y2="380.2496" gradientTransform="matrix(9.3954 0 0 -9.3957 2369.4714 3583.0981)">
				<stop  offset="0.13" style="stop-color:#00A9ED"/>
				<stop  offset="1" style="stop-color:#65106B"/>
			</linearGradient>
			<path id="Path_18887" fill="url(#Path_18887_1_)" d="M10.032,1.258c-0.395-0.341-0.979-0.341-1.374,0l-7.35,7.35
				c-0.41,0.408-0.412,1.071-0.004,1.481c0.408,0.41,1.071,0.412,1.481,0.004l7.35-7.35c0.382-0.437,0.337-1.1-0.099-1.482
				C10.035,1.26,10.033,1.259,10.032,1.258z"/>
		</g>
	</g>
	<g id="Group_3551" transform="translate(5.258 5.197)">
		<g id="Group_3550">
			
				<linearGradient id="Path_18888_1_" gradientUnits="userSpaceOnUse" x1="-227.6784" y1="350.4603" x2="-227.6784" y2="349.4603" gradientTransform="matrix(5.3035 0 0 -5.3033 1211.1477 1859.5841)">
				<stop  offset="0.13" style="stop-color:#00A9ED"/>
				<stop  offset="1" style="stop-color:#65106B"/>
			</linearGradient>
			<path id="Path_18888" fill="url(#Path_18888_1_)" d="M6.043,1.365C5.664,0.926,5.001,0.878,4.562,1.257
				C4.523,1.29,4.487,1.327,4.454,1.365l-3.15,3.15C0.894,4.923,0.892,5.586,1.3,5.996C1.708,6.406,2.371,6.408,2.781,6l3.15-3.15
				c0.441-0.376,0.493-1.04,0.116-1.48C6.046,1.368,6.044,1.367,6.043,1.365z"/>
		</g>
	</g>
	<g id="Group_3553" transform="translate(17.845 2.137)">
		<g id="Group_3552">
			
				<linearGradient id="Path_18889_1_" gradientUnits="userSpaceOnUse" x1="-205.4256" y1="302.5008" x2="-205.4256" y2="301.4998" gradientTransform="matrix(3.1277 0 0 -3.1276 645.0708 947.0972)">
				<stop  offset="0.13" style="stop-color:#00A9ED"/>
				<stop  offset="1" style="stop-color:#65106B"/>
			</linearGradient>
			<path id="Path_18889" fill="url(#Path_18889_1_)" d="M3.78,1.272c-0.4-0.363-1.01-0.363-1.41,0l-1.05,1.05
				C0.903,2.725,0.891,3.39,1.294,3.807c0.403,0.417,1.067,0.429,1.485,0.026l0,0l0.026-0.026l0,0l1.05-1.05
				c0.389-0.43,0.356-1.094-0.073-1.483C3.781,1.273,3.78,1.273,3.78,1.272z"/>
		</g>
	</g>
	<g id="Group_3555" transform="translate(8.397 32.526)">
		<g id="Group_3554">
			
				<linearGradient id="Path_18890_1_" gradientUnits="userSpaceOnUse" x1="-196.7115" y1="350.3207" x2="-196.7115" y2="349.3207" gradientTransform="matrix(3.155 0 0 -8.4274 623.1934 2953.2908)">
				<stop  offset="0.13" style="stop-color:#00A9ED"/>
				<stop  offset="1" style="stop-color:#65106B"/>
			</linearGradient>
			<path id="Path_18890" fill="url(#Path_18890_1_)" d="M4.139,8.202l-1.05-6.3C3.006,1.329,2.474,0.93,1.899,1.012
				C1.325,1.095,0.927,1.627,1.01,2.202c0,0.018,0.005,0.033,0.008,0.051l1.05,6.3c0.084,0.505,0.521,0.876,1.034,0.877
				c0.058,0,0.117-0.005,0.174-0.015C3.848,9.319,4.235,8.778,4.14,8.206C4.14,8.205,4.139,8.204,4.139,8.202z"/>
		</g>
	</g>
	<g id="Group_3557" transform="translate(4.211 32.582)">
		<g id="Group_3556">
			
				<linearGradient id="Path_18891_1_" gradientUnits="userSpaceOnUse" x1="-192.2208" y1="343.2823" x2="-192.2208" y2="342.2813" gradientTransform="matrix(3.1436 0 0 -7.32 606.8304 2513.8162)">
				<stop  offset="0.13" style="stop-color:#00A9ED"/>
				<stop  offset="1" style="stop-color:#65106B"/>
			</linearGradient>
			<path id="Path_18891" fill="url(#Path_18891_1_)" d="M4.123,7.066L4.123,7.066l-1.05-5.25C2.94,1.251,2.375,0.9,1.81,1.033
				C1.272,1.159,0.925,1.682,1.015,2.228l1.05,5.25C2.161,7.968,2.59,8.322,3.09,8.325c0.071,0,0.141-0.007,0.21-0.021
				c0.568-0.113,0.937-0.666,0.823-1.235C4.123,7.067,4.123,7.066,4.123,7.066z"/>
		</g>
	</g>
	<g id="Group_3559" transform="translate(50.401 31.5)">
		<g id="Group_3558">
			
				<linearGradient id="Path_18892_1_" gradientUnits="userSpaceOnUse" x1="-238.6041" y1="356.3448" x2="-238.6041" y2="355.3448" gradientTransform="matrix(3.1508 0 0 -9.4508 754.3676 3368.7512)">
				<stop  offset="0.13" style="stop-color:#00A9ED"/>
				<stop  offset="1" style="stop-color:#65106B"/>
			</linearGradient>
			<path id="Path_18892" fill="url(#Path_18892_1_)" d="M4.14,9.251l-1.05-7.35C3.007,1.327,2.474,0.929,1.9,1.012
				C1.327,1.094,0.928,1.627,1.011,2.201l0,0l1.05,7.35c0.083,0.574,0.616,0.973,1.189,0.89C3.825,10.358,4.223,9.825,4.14,9.251z"
				/>
		</g>
	</g>
	<g id="Group_3561" transform="translate(32.55 28.351)">
		<g id="Group_3560">
			
				<linearGradient id="Path_18893_1_" gradientUnits="userSpaceOnUse" x1="-178.5734" y1="308.0406" x2="-178.5734" y2="307.0406" gradientTransform="matrix(2.1 0 0 -4.2 377.0561 1294.7756)">
				<stop  offset="0.13" style="stop-color:#00A9ED"/>
				<stop  offset="1" style="stop-color:#65106B"/>
			</linearGradient>
			<path id="Path_18893" fill="url(#Path_18893_1_)" d="M2.05,1.001C1.47,1.001,1,1.471,1,2.051l0,0v2.1c0,0.58,0.47,1.05,1.05,1.05
				S3.1,4.731,3.1,4.151v-2.1C3.1,1.471,2.63,1.001,2.05,1.001L2.05,1.001z"/>
		</g>
	</g>
	<g id="Group_3563" transform="translate(32.555 7.351)">
		<g id="Group_3562">
			
				<linearGradient id="Path_18894_1_" gradientUnits="userSpaceOnUse" x1="-254.5115" y1="384.6119" x2="-254.5115" y2="383.6119" gradientTransform="matrix(5.2549 0 0 -10.5015 1341.0679 4039.98)">
				<stop  offset="0.13" style="stop-color:#00A9ED"/>
				<stop  offset="1" style="stop-color:#65106B"/>
			</linearGradient>
			<path id="Path_18894" fill="url(#Path_18894_1_)" d="M5.945,7.607L3.534,5.199l2.408-2.408c0.41-0.41,0.41-1.075,0-1.485
				s-1.075-0.41-1.485,0l-3.15,3.15c-0.409,0.41-0.41,1.075,0,1.485l0,0l2.408,2.408L2.36,9.707c-0.41,0.41-0.411,1.075-0.001,1.485
				c0.4,0.401,1.047,0.412,1.46,0.025l0.026-0.026l2.1-2.1c0.41-0.409,0.413-1.073,0.004-1.483C5.948,7.607,5.947,7.606,5.945,7.607
				z"/>
		</g>
	</g>
	<g id="Group_3565" transform="translate(8.408 47.287)">
		<g id="Group_3564">
			
				<linearGradient id="Path_18895_1_" gradientUnits="userSpaceOnUse" x1="-252.6897" y1="356.9631" x2="-252.6897" y2="355.9631" gradientTransform="matrix(9.4124 0 0 -15.7144 2384.1211 5610.4673)">
				<stop  offset="0.13" style="stop-color:#00A9ED"/>
				<stop  offset="1" style="stop-color:#65106B"/>
			</linearGradient>
			<path id="Path_18895" fill="url(#Path_18895_1_)" d="M10.067,1.273c-0.4-0.362-1.01-0.362-1.41,0l-4.2,4.2
				c-0.41,0.41-0.41,1.075,0,1.485c0,0,0,0,0,0l2.4,2.408l-5.55,5.557c-0.41,0.41-0.41,1.075,0,1.484c0.41,0.41,1.075,0.41,1.485,0
				l6.3-6.299c0.41-0.41,0.41-1.075,0-1.485l0,0L6.681,6.215l3.458-3.458C10.529,2.327,10.497,1.663,10.067,1.273
				C10.068,1.274,10.067,1.274,10.067,1.273z"/>
		</g>
	</g>
	<g id="Group_3567" transform="translate(0 43.051)">
		<g id="Group_3566">
			
				<linearGradient id="Path_18896_1_" gradientUnits="userSpaceOnUse" x1="-251.4204" y1="200.7303" x2="-251.4204" y2="199.7303" gradientTransform="matrix(12.6 0 0 -2.1 3175.2002 422.5373)">
				<stop  offset="0.13" style="stop-color:#00A9ED"/>
				<stop  offset="1" style="stop-color:#65106B"/>
			</linearGradient>
			<path id="Path_18896" fill="url(#Path_18896_1_)" d="M12.55,1.001H2.05C1.47,1.001,1,1.472,1,2.052C1,2.631,1.47,3.1,2.05,3.1
				h10.5c0.58,0,1.05-0.47,1.05-1.049C13.6,1.472,13.13,1.001,12.55,1.001L12.55,1.001z"/>
		</g>
	</g>
	<g id="Group_3569" transform="translate(50.4 43.051)">
		<g id="Group_3568">
			
				<linearGradient id="Path_18897_1_" gradientUnits="userSpaceOnUse" x1="-301.8204" y1="200.7303" x2="-301.8204" y2="199.7303" gradientTransform="matrix(12.6 0 0 -2.1 3810.2388 422.5373)">
				<stop  offset="0.13" style="stop-color:#00A9ED"/>
				<stop  offset="1" style="stop-color:#65106B"/>
			</linearGradient>
			<path id="Path_18897" fill="url(#Path_18897_1_)" d="M12.55,1.001H2.05C1.47,1.001,1,1.472,1,2.052C1,2.631,1.47,3.1,2.05,3.1
				h10.5c0.579,0,1.05-0.47,1.05-1.049C13.6,1.472,13.129,1.001,12.55,1.001L12.55,1.001z"/>
		</g>
	</g>
	<g id="Group_3571" transform="translate(50.4 26.251)">
		<g id="Group_3570">
			
				<linearGradient id="Path_18898_1_" gradientUnits="userSpaceOnUse" x1="-196.4234" y1="279.2725" x2="-196.4234" y2="278.2725" gradientTransform="matrix(2.1 0 0 -3.15 414.5428 880.7073)">
				<stop  offset="0.13" style="stop-color:#00A9ED"/>
				<stop  offset="1" style="stop-color:#65106B"/>
			</linearGradient>
			<path id="Path_18898" fill="url(#Path_18898_1_)" d="M2.05,1.001C1.47,1.001,1,1.471,1,2.051v1.05c0,0.58,0.47,1.05,1.05,1.05
				c0.579,0,1.05-0.47,1.05-1.05v-1.05C3.1,1.471,2.629,1.001,2.05,1.001L2.05,1.001z"/>
		</g>
	</g>
	<g id="Group_3573" transform="translate(8.4 27.301)">
		<g id="Group_3572">
			
				<linearGradient id="Path_18899_1_" gradientUnits="userSpaceOnUse" x1="-154.4239" y1="278.1747" x2="-154.4239" y2="277.1747" gradientTransform="matrix(2.1 0 0 -3.1488 326.3384 876.9146)">
				<stop  offset="0.13" style="stop-color:#00A9ED"/>
				<stop  offset="1" style="stop-color:#65106B"/>
			</linearGradient>
			<path id="Path_18899" fill="url(#Path_18899_1_)" d="M2.05,1.001C1.47,1.001,1,1.471,1,2.051l0,0v1.05
				c0.001,0.58,0.471,1.05,1.051,1.049C2.63,4.149,3.1,3.68,3.1,3.101v-1.05C3.1,1.471,2.63,1.001,2.05,1.001z"/>
		</g>
	</g>
	<g id="Group_3575" transform="translate(54.605 47.281)">
		<g id="Group_3574">
			
				<linearGradient id="Path_18900_1_" gradientUnits="userSpaceOnUse" x1="-295.4229" y1="350.7552" x2="-295.4229" y2="349.7552" gradientTransform="matrix(8.3832 0 0 -12.5614 2481.7842 4406.9673)">
				<stop  offset="0.13" style="stop-color:#00A9ED"/>
				<stop  offset="1" style="stop-color:#65106B"/>
			</linearGradient>
			<path id="Path_18900" fill="url(#Path_18900_1_)" d="M9.022,11.714L3.605,7.199l2.337-2.336c0.41-0.41,0.41-1.075,0-1.485l0,0
				l-2.1-2.101c-0.426-0.395-1.09-0.37-1.484,0.055C1.983,1.736,1.984,2.361,2.36,2.763L3.715,4.12l-2.4,2.408
				C0.905,6.935,0.9,7.597,1.306,8.008c0.024,0.024,0.05,0.048,0.075,0.069l6.301,5.25c0.453,0.362,1.113,0.289,1.476-0.164
				c0.352-0.44,0.294-1.079-0.132-1.448L9.022,11.714z"/>
		</g>
	</g>
	<g id="Group_3577" transform="translate(16.769 19.914)">
		<g id="Group_3576">
			
				<linearGradient id="Path_18901_1_" gradientUnits="userSpaceOnUse" x1="-239.0444" y1="368.0919" x2="-239.0444" y2="367.0909" gradientTransform="matrix(5.2883 0 0 -9.4878 1267.7754 3493.3608)">
				<stop  offset="0.13" style="stop-color:#00A9ED"/>
				<stop  offset="1" style="stop-color:#65106B"/>
			</linearGradient>
			<path id="Path_18901" fill="url(#Path_18901_1_)" d="M5.98,8.694L3.569,6.286l1.358-1.358c0.41-0.41,0.41-1.075,0-1.485
				c0,0,0,0,0,0l-2.1-2.1c-0.39-0.429-1.054-0.461-1.484-0.071c-0.429,0.39-0.461,1.054-0.071,1.483
				C1.295,2.78,1.32,2.805,1.345,2.828L2.7,4.186L1.345,5.544c-0.41,0.41-0.41,1.075,0,1.485l0,0l3.15,3.15
				c0.41,0.41,1.075,0.41,1.485,0C6.39,9.769,6.39,9.104,5.98,8.694z"/>
		</g>
	</g>
</g>
</svg>
