<?xml version="1.0" encoding="utf-8"?>
<!-- Generator: Adobe Illustrator 16.0.0, SVG Export Plug-In . SVG Version: 6.00 Build 0)  -->
<!DOCTYPE svg PUBLIC "-//W3C//DTD SVG 1.1//EN" "http://www.w3.org/Graphics/SVG/1.1/DTD/svg11.dtd">
<svg version="1.1" id="Layer_1" xmlns="http://www.w3.org/2000/svg" xmlns:xlink="http://www.w3.org/1999/xlink" x="0px" y="0px"
	 width="60.885px" height="63.355px" viewBox="0 0 60.885 63.355" enable-background="new 0 0 60.885 63.355" xml:space="preserve">
<g id="notepad" transform="translate(-1.135)">
	
		<linearGradient id="Path_16331_1_" gradientUnits="userSpaceOnUse" x1="-264.0852" y1="414.5535" x2="-264.0852" y2="413.5535" gradientTransform="matrix(28.5594 0 0 -28.5351 7589.8721 11864.1152)">
		<stop  offset="0.13" style="stop-color:#00A9ED"/>
		<stop  offset="1" style="stop-color:#65106B"/>
	</linearGradient>
	<path id="Path_16331" fill="url(#Path_16331_1_)" d="M61.071,38.839l-3.101-3.1c-1.284-1.225-3.306-1.225-4.59,0L36.649,52.475
		l-2.307,8.458l-0.564,0.563c-0.421,0.421-0.424,1.104-0.006,1.528l-0.006,0.021l0.021-0.005c0.424,0.42,1.107,0.418,1.529-0.005
		l0.564-0.564l8.457-2.307L61.071,43.43C62.336,42.162,62.336,40.107,61.071,38.839z M39.158,53.039l11.135-11.137l4.613,4.613
		L43.772,57.652L39.158,53.039z M38.178,55.133l3.5,3.5l-4.814,1.313L38.178,55.133z M59.531,41.893l-3.086,3.087l-4.613-4.613
		l3.087-3.087c0.425-0.403,1.091-0.403,1.515,0l3.1,3.1C59.949,40.799,59.949,41.475,59.531,41.893z"/>
	
		<linearGradient id="Path_16332_1_" gradientUnits="userSpaceOnUse" x1="-264.6638" y1="249.4285" x2="-264.6638" y2="248.4275" gradientTransform="matrix(30.444 0 0 -2.175 8080.2939 579.4702)">
		<stop  offset="0.13" style="stop-color:#00A9ED"/>
		<stop  offset="1" style="stop-color:#65106B"/>
	</linearGradient>
	<path id="Path_16332" fill="url(#Path_16332_1_)" d="M8.745,39.14h28.269c0.601,0,1.088-0.487,1.088-1.088
		s-0.487-1.088-1.088-1.088H8.745c-0.601,0-1.087,0.487-1.087,1.088S8.144,39.14,8.745,39.14z"/>
	
		<linearGradient id="Path_16333_1_" gradientUnits="userSpaceOnUse" x1="-263.2043" y1="249.4285" x2="-263.2043" y2="248.4285" gradientTransform="matrix(26.095 0 0 -2.175 6889.0176 585.9936)">
		<stop  offset="0.13" style="stop-color:#00A9ED"/>
		<stop  offset="1" style="stop-color:#65106B"/>
	</linearGradient>
	<path id="Path_16333" fill="url(#Path_16333_1_)" d="M32.664,43.488H8.745c-0.601,0-1.087,0.487-1.087,1.088
		s0.487,1.087,1.087,1.087h23.919c0.602,0,1.088-0.486,1.088-1.087S33.266,43.488,32.664,43.488z"/>
	
		<linearGradient id="Path_16334_1_" gradientUnits="userSpaceOnUse" x1="-257.073" y1="249.4285" x2="-257.073" y2="248.4285" gradientTransform="matrix(16.31 0 0 -2.175 4208.6768 559.8999)">
		<stop  offset="0.13" style="stop-color:#00A9ED"/>
		<stop  offset="1" style="stop-color:#65106B"/>
	</linearGradient>
	<path id="Path_16334" fill="url(#Path_16334_1_)" d="M8.745,19.569H22.88c0.601,0,1.087-0.487,1.087-1.088
		s-0.487-1.087-1.087-1.087H8.745c-0.601,0-1.087,0.486-1.087,1.087S8.144,19.569,8.745,19.569z"/>
	
		<linearGradient id="Path_16335_1_" gradientUnits="userSpaceOnUse" x1="-257.073" y1="249.4275" x2="-257.073" y2="248.4285" gradientTransform="matrix(16.31 0 0 -2.175 4208.6768 592.517)">
		<stop  offset="0.13" style="stop-color:#00A9ED"/>
		<stop  offset="1" style="stop-color:#65106B"/>
	</linearGradient>
	<path id="Path_16335" fill="url(#Path_16335_1_)" d="M22.88,52.187c0.601,0,1.087-0.487,1.087-1.088s-0.487-1.087-1.087-1.087
		H8.745c-0.601,0-1.087,0.486-1.087,1.087s0.487,1.088,1.087,1.088H22.88z"/>
	
		<linearGradient id="Path_16336_1_" gradientUnits="userSpaceOnUse" x1="-265.511" y1="249.4285" x2="-265.511" y2="248.4285" gradientTransform="matrix(33.705 0 0 -2.175 8973.5645 566.4233)">
		<stop  offset="0.13" style="stop-color:#00A9ED"/>
		<stop  offset="1" style="stop-color:#65106B"/>
	</linearGradient>
	<path id="Path_16336" fill="url(#Path_16336_1_)" d="M40.276,23.918H8.745c-0.601,0-1.087,0.487-1.087,1.088
		s0.487,1.087,1.087,1.087h31.531c0.6,0,1.087-0.486,1.087-1.087S40.875,23.918,40.276,23.918L40.276,23.918z"/>
	
		<linearGradient id="Path_16337_1_" gradientUnits="userSpaceOnUse" x1="-258.094" y1="249.4285" x2="-258.094" y2="248.4285" gradientTransform="matrix(17.397 0 0 -2.175 4506.4336 572.9467)">
		<stop  offset="0.13" style="stop-color:#00A9ED"/>
		<stop  offset="1" style="stop-color:#65106B"/>
	</linearGradient>
	<path id="Path_16337" fill="url(#Path_16337_1_)" d="M8.745,32.616h15.222c0.601,0,1.087-0.487,1.087-1.088
		s-0.487-1.087-1.087-1.087H8.745c-0.601,0-1.087,0.486-1.087,1.087S8.144,32.616,8.745,32.616z"/>
	
		<linearGradient id="Path_16338_1_" gradientUnits="userSpaceOnUse" x1="-246.1721" y1="249.4285" x2="-246.1721" y2="248.4285" gradientTransform="matrix(9.7855 0 0 -2.175 2445.3872 572.9467)">
		<stop  offset="0.13" style="stop-color:#00A9ED"/>
		<stop  offset="1" style="stop-color:#65106B"/>
	</linearGradient>
	<path id="Path_16338" fill="url(#Path_16338_1_)" d="M41.362,31.528c0-0.601-0.486-1.087-1.086-1.087h-7.611
		c-0.602,0-1.088,0.486-1.088,1.087s0.486,1.088,1.088,1.088l0,0h7.611c0.6,0.001,1.086-0.485,1.086-1.085
		C41.362,31.53,41.362,31.529,41.362,31.528z"/>
	
		<linearGradient id="Path_16339_1_" gradientUnits="userSpaceOnUse" x1="-151.3264" y1="250.3025" x2="-151.3264" y2="249.3025" gradientTransform="matrix(2.184 0 0 -2.1857 358.8173 577.5092)">
		<stop  offset="0.13" style="stop-color:#00A9ED"/>
		<stop  offset="1" style="stop-color:#65106B"/>
	</linearGradient>
	<path id="Path_16339" fill="url(#Path_16339_1_)" d="M29.087,32.299c0.429-0.423,0.434-1.114,0.01-1.544
		c-0.424-0.43-1.115-0.434-1.544-0.01c-0.209,0.206-0.326,0.488-0.325,0.782c0.001,0.288,0.114,0.564,0.315,0.771
		C27.971,32.72,28.659,32.72,29.087,32.299z"/>
	
		<linearGradient id="Path_16340_1_" gradientUnits="userSpaceOnUse" x1="-267.719" y1="422.0134" x2="-267.719" y2="421.0134" gradientTransform="matrix(46.751 0 0 -63.061 12540.6455 26612.541)">
		<stop  offset="0.13" style="stop-color:#00A9ED"/>
		<stop  offset="1" style="stop-color:#65106B"/>
	</linearGradient>
	<path id="Path_16340" fill="url(#Path_16340_1_)" d="M28.315,60.884H3.309V8.698h7.61v2.175c0,0.601,0.486,1.087,1.087,1.087
		h25.007c0.601,0,1.087-0.487,1.086-1.088c0,0,0,0,0-0.001V8.698h7.611v23.92c0,0.601,0.487,1.088,1.087,1.088
		c0.602,0,1.088-0.487,1.088-1.088V7.609c0-0.6-0.486-1.087-1.086-1.087h-8.7V4.347c0-0.601-0.486-1.087-1.087-1.087l0,0H30.49
		V1.085c0-0.6-0.487-1.087-1.087-1.087c-0.001,0-0.003,0-0.004,0h-9.782c-0.6,0-1.087,0.487-1.087,1.087V3.26h-6.523
		c-0.601-0.001-1.087,0.485-1.088,1.086c0,0,0,0,0,0.001v2.175h-8.7c-0.6,0.001-1.085,0.487-1.085,1.087v54.363
		c0,0.6,0.487,1.087,1.087,1.087l0,0h26.094c0.601,0,1.087-0.487,1.087-1.088S28.916,60.884,28.315,60.884L28.315,60.884z
		 M20.705,2.173h7.611v4.35h-7.611V2.173z M13.094,5.434h5.436v2.175c-0.001,0.601,0.485,1.088,1.085,1.089c0,0,0.001,0,0.002,0
		h9.782c0.6,0,1.087-0.486,1.087-1.087V5.434h5.436v4.349H13.094V5.434z"/>
</g>
</svg>
