<?xml version="1.0" encoding="utf-8"?>
<!-- Generator: Adobe Illustrator 16.0.0, SVG Export Plug-In . SVG Version: 6.00 Build 0)  -->
<!DOCTYPE svg PUBLIC "-//W3C//DTD SVG 1.1//EN" "http://www.w3.org/Graphics/SVG/1.1/DTD/svg11.dtd">
<svg version="1.1" id="Layer_1" xmlns="http://www.w3.org/2000/svg" xmlns:xlink="http://www.w3.org/1999/xlink" x="0px" y="0px"
	 width="56.602px" height="63px" viewBox="0 0 56.602 63" enable-background="new 0 0 56.602 63" xml:space="preserve">
<g id="humanitarian" transform="translate(0)">
	
		<linearGradient id="Path_18151_1_" gradientUnits="userSpaceOnUse" x1="-167.4309" y1="269.8857" x2="-167.4309" y2="268.8857" gradientTransform="matrix(2.46 0 0 -2.46 447.5601 708.2139)">
		<stop  offset="0" style="stop-color:#00A9E0"/>
		<stop  offset="1" style="stop-color:#801C7D"/>
	</linearGradient>
	<path id="Path_18151" fill="url(#Path_18151_1_)" d="M35.683,46.758c0.68,0,1.23-0.551,1.23-1.23c0-0.679-0.551-1.229-1.23-1.229
		c-0.679,0-1.229,0.551-1.229,1.229C34.453,46.207,35.004,46.758,35.683,46.758z"/>
	
		<linearGradient id="Path_18152_1_" gradientUnits="userSpaceOnUse" x1="-167.4319" y1="269.8857" x2="-167.4319" y2="268.8857" gradientTransform="matrix(2.46 0 0 -2.46 432.798 708.2139)">
		<stop  offset="0" style="stop-color:#00A9E0"/>
		<stop  offset="1" style="stop-color:#801C7D"/>
	</linearGradient>
	<path id="Path_18152" fill="url(#Path_18152_1_)" d="M20.917,46.758c0.679,0,1.229-0.551,1.229-1.23
		c0-0.679-0.551-1.229-1.229-1.229c-0.68,0-1.23,0.551-1.23,1.229C19.688,46.207,20.238,46.758,20.917,46.758z"/>
	
		<linearGradient id="Path_18153_1_" gradientUnits="userSpaceOnUse" x1="-271.949" y1="419.9375" x2="-271.949" y2="418.9375" gradientTransform="matrix(56.598 0 0 -48.235 15420.0957 20270.3945)">
		<stop  offset="0" style="stop-color:#00A9E0"/>
		<stop  offset="1" style="stop-color:#801C7D"/>
	</linearGradient>
	<path id="Path_18153" fill="url(#Path_18153_1_)" d="M16,63h24.604c0.68,0,1.23-0.551,1.23-1.23v-5.474
		c0-0.298,0.108-0.587,0.305-0.812l0.008-0.01l13.544-15.828c0.586-0.673,0.908-1.534,0.908-2.426V19.688
		c0-2.718-2.203-4.922-4.922-4.922s-4.922,2.204-4.922,4.922l0,0c0,0,0,10.579,0,10.63c-1.604-2.141-4.64-2.576-6.78-0.972
		c-0.114,0.085-0.225,0.176-0.331,0.272L28.819,40.773c-0.186,0.19-0.358,0.394-0.519,0.606c-0.159-0.211-0.331-0.411-0.516-0.601
		L16.959,29.622c-1.917-1.712-4.836-1.636-6.66,0.175c-0.163,0.163-0.314,0.337-0.453,0.521c0-0.051,0-10.631,0-10.631
		c0-2.718-2.203-4.922-4.922-4.922s-4.922,2.204-4.922,4.922V37.22c0,0.892,0.322,1.753,0.908,2.425l13.553,15.84
		c0.196,0.225,0.305,0.512,0.305,0.811v5.471c0,0.68,0.551,1.23,1.23,1.23L16,63z M30.587,42.49l10.782-11.109
		c1.009-0.845,2.512-0.713,3.356,0.296c0.799,0.953,0.73,2.36-0.157,3.231l0,0L38.3,41.177c-0.496,0.466-0.521,1.244-0.056,1.74
		s1.244,0.521,1.74,0.056c0.019-0.018,0.037-0.037,0.056-0.056l6.664-6.664c1.62-1.611,2.528-3.805,2.521-6.09V19.688
		c0-1.359,1.102-2.461,2.461-2.461s2.461,1.102,2.461,2.461l0,0v17.533c0,0.299-0.108,0.587-0.305,0.812l-0.008,0.01l-13.544,15.83
		c-0.586,0.672-0.908,1.532-0.908,2.424v4.244h-9.853V45.066c-0.001-0.965,0.377-1.893,1.053-2.58L30.587,42.49z M2.774,38.041
		l-0.008-0.01c-0.196-0.225-0.305-0.513-0.305-0.812V19.688c0-1.359,1.102-2.461,2.461-2.461s2.461,1.102,2.461,2.461l0,0v10.478
		c-0.007,2.285,0.901,4.479,2.521,6.09l6.664,6.664c0.496,0.465,1.275,0.44,1.74-0.056c0.444-0.474,0.444-1.211,0-1.685
		l-6.271-6.271c-0.943-0.918-0.964-2.427-0.046-3.37c0.872-0.896,2.29-0.966,3.245-0.158l10.785,11.112
		c0.673,0.687,1.049,1.611,1.047,2.573v15.469h-9.844v-4.239c0-0.892-0.322-1.752-0.908-2.424L2.774,38.041z"/>
	
		<linearGradient id="Path_18154_1_" gradientUnits="userSpaceOnUse" x1="-264.5623" y1="401.6426" x2="-264.5623" y2="400.6426" gradientTransform="matrix(22.148 0 0 -14.757 5887.8223 5939.3662)">
		<stop  offset="0" style="stop-color:#00A9E0"/>
		<stop  offset="1" style="stop-color:#801C7D"/>
	</linearGradient>
	<path id="Path_18154" fill="url(#Path_18154_1_)" d="M17.226,23.379v2.461c0,0.68,0.551,1.23,1.23,1.23h19.688
		c0.68,0,1.23-0.55,1.23-1.23v-2.461c-0.005-6.116-4.966-11.07-11.082-11.066C22.182,12.317,17.231,17.269,17.226,23.379z
		 M28.3,14.766c4.755-0.002,8.611,3.852,8.613,8.607c0,0.002,0,0.004,0,0.006v1.23H19.687v-1.23
		C19.693,18.625,23.545,14.771,28.3,14.766z"/>
	
		<linearGradient id="Path_18155_1_" gradientUnits="userSpaceOnUse" x1="-254.8528" y1="396.3877" x2="-254.8528" y2="395.3877" gradientTransform="matrix(12.304 0 0 -12.304 3164.0034 4877.1499)">
		<stop  offset="0" style="stop-color:#00A9E0"/>
		<stop  offset="1" style="stop-color:#801C7D"/>
	</linearGradient>
	<path id="Path_18155" fill="url(#Path_18155_1_)" d="M34.448,6.152C34.448,2.754,31.694,0,28.296,0s-6.152,2.754-6.152,6.152
		c0,3.398,2.755,6.152,6.152,6.152l0,0C31.692,12.3,34.445,9.548,34.448,6.152z M28.296,9.843c-2.039,0-3.691-1.652-3.691-3.691
		s1.652-3.691,3.691-3.691c2.038,0,3.69,1.652,3.69,3.691l0,0c-0.004,2.036-1.651,3.685-3.687,3.692L28.296,9.843z"/>
</g>
</svg>
