<?xml version="1.0" encoding="utf-8"?>
<!-- Generator: Adobe Illustrator 14.0.0, SVG Export Plug-In . SVG Version: 6.00 Build 43363)  -->
<!DOCTYPE svg PUBLIC "-//W3C//DTD SVG 1.1//EN" "http://www.w3.org/Graphics/SVG/1.1/DTD/svg11.dtd">
<svg version="1.1" id="Layer_1" xmlns="http://www.w3.org/2000/svg" xmlns:xlink="http://www.w3.org/1999/xlink" x="0px" y="0px"
	 width="55.887px" height="63px" viewBox="0 0 55.887 63" enable-background="new 0 0 55.887 63" xml:space="preserve">
<g id="Accept" transform="translate(-40 -8)">
	
		<linearGradient id="Path_17522_1_" gradientUnits="userSpaceOnUse" x1="82.5178" y1="-114.8784" x2="82.5178" y2="-115.8784" gradientTransform="matrix(7.116 0 0 -2.032 -540.5941 -167.5163)">
		<stop  offset="0.13" style="stop-color:#00A9ED"/>
		<stop  offset="1" style="stop-color:#65106B"/>
	</linearGradient>
	<path id="Path_17522" fill="url(#Path_17522_1_)" d="M49.148,65.919h-5.084c-0.561,0-1.016,0.455-1.016,1.017
		c0,0.561,0.455,1.016,1.016,1.016h5.084c0.562,0,1.017-0.455,1.017-1.016C50.164,66.374,49.709,65.919,49.148,65.919z"/>
	
		<linearGradient id="Path_17523_1_" gradientUnits="userSpaceOnUse" x1="134.6692" y1="-114.8784" x2="134.6692" y2="-115.8784" gradientTransform="matrix(3.048 0 0 -2.032 -357.7734 -167.5163)">
		<stop  offset="0.13" style="stop-color:#00A9ED"/>
		<stop  offset="1" style="stop-color:#65106B"/>
	</linearGradient>
	<path id="Path_17523" fill="url(#Path_17523_1_)" d="M53.209,65.919h-1.017c-0.561,0-1.016,0.455-1.016,1.017
		c0,0.561,0.455,1.016,1.016,1.016h1.017c0.561,0,1.016-0.455,1.016-1.016C54.225,66.374,53.77,65.919,53.209,65.919z"/>
	
		<linearGradient id="Path_17524_1_" gradientUnits="userSpaceOnUse" x1="51.4924" y1="4.7466" x2="51.4924" y2="3.7466" gradientTransform="matrix(34.548 0 0 -6.1 -1716.5844 49.1445)">
		<stop  offset="0.13" style="stop-color:#00A9ED"/>
		<stop  offset="1" style="stop-color:#65106B"/>
	</linearGradient>
	<path id="Path_17524" fill="url(#Path_17524_1_)" d="M46.097,26.294h32.516c0.562,0,1.017-0.455,1.017-1.017v-4.064
		c0.002-0.561-0.452-1.017-1.013-1.019c-0.001,0-0.003,0-0.004,0H46.097c-0.561,0-1.016,0.455-1.016,1.016v4.065
		c-0.002,0.561,0.451,1.018,1.013,1.019C46.095,26.294,46.096,26.294,46.097,26.294z M47.113,22.229h30.484v2.032H47.113V22.229z"/>
	
		<linearGradient id="Path_17525_1_" gradientUnits="userSpaceOnUse" x1="51.4915" y1="4.7456" x2="51.4915" y2="3.7456" gradientTransform="matrix(34.548 0 0 -6.1 -1716.5844 57.2737)">
		<stop  offset="0.13" style="stop-color:#00A9ED"/>
		<stop  offset="1" style="stop-color:#65106B"/>
	</linearGradient>
	<path id="Path_17525" fill="url(#Path_17525_1_)" d="M46.097,34.423h32.516c0.562,0,1.017-0.454,1.017-1.016l0,0v-4.065
		c0.002-0.561-0.452-1.018-1.013-1.019c-0.001,0-0.003,0-0.004,0H46.097c-0.561,0-1.016,0.454-1.016,1.016l0,0v4.065
		c-0.002,0.561,0.451,1.018,1.013,1.019C46.095,34.423,46.096,34.423,46.097,34.423z M47.113,30.357h30.484v2.033H47.113V30.357z"/>
	
		<linearGradient id="Path_17526_1_" gradientUnits="userSpaceOnUse" x1="51.4915" y1="4.7461" x2="51.4915" y2="3.7456" gradientTransform="matrix(34.548 0 0 -6.1 -1716.5844 65.4026)">
		<stop  offset="0.13" style="stop-color:#00A9ED"/>
		<stop  offset="1" style="stop-color:#65106B"/>
	</linearGradient>
	<path id="Path_17526" fill="url(#Path_17526_1_)" d="M46.097,42.553h32.516c0.562,0,1.017-0.455,1.017-1.017l0,0v-4.065
		c0.002-0.561-0.452-1.018-1.013-1.019c-0.001,0-0.003,0-0.004,0H46.097c-0.561,0-1.016,0.454-1.016,1.016l0,0v4.065
		c-0.002,0.561,0.451,1.018,1.013,1.02C46.095,42.553,46.096,42.553,46.097,42.553z M47.113,38.486h30.484v2.033H47.113V38.486z"/>
	
		<linearGradient id="Path_17527_1_" gradientUnits="userSpaceOnUse" x1="56.4744" y1="-114.8794" x2="56.4744" y2="-115.8794" gradientTransform="matrix(21.338 0 0 -2.032 -1149.3037 -188.8542)">
		<stop  offset="0.13" style="stop-color:#00A9ED"/>
		<stop  offset="1" style="stop-color:#65106B"/>
	</linearGradient>
	<path id="Path_17527" fill="url(#Path_17527_1_)" d="M65.404,44.581H46.097c-0.562,0-1.016,0.455-1.016,1.017
		c0,0.561,0.454,1.016,1.016,1.016l0,0h19.306c0.562,0,1.017-0.455,1.017-1.016C66.419,45.036,65.964,44.581,65.404,44.581
		L65.404,44.581z"/>
	
		<linearGradient id="Path_17528_1_" gradientUnits="userSpaceOnUse" x1="61.6868" y1="-114.8784" x2="61.6868" y2="-115.8789" gradientTransform="matrix(15.242 0 0 -2.032 -887.5246 -185.8054)">
		<stop  offset="0.13" style="stop-color:#00A9ED"/>
		<stop  offset="1" style="stop-color:#65106B"/>
	</linearGradient>
	<path id="Path_17528" fill="url(#Path_17528_1_)" d="M59.307,47.629h-13.21c-0.562,0-1.016,0.455-1.016,1.016
		c0,0.562,0.454,1.017,1.016,1.017l0,0h13.21c0.562,0,1.017-0.455,1.017-1.017C60.323,48.084,59.868,47.629,59.307,47.629z"/>
	
		<linearGradient id="Path_17529_1_" gradientUnits="userSpaceOnUse" x1="111.8616" y1="-114.8794" x2="111.8616" y2="-115.8794" gradientTransform="matrix(4.064 0 0 -2.032 -407.501 -182.7585)">
		<stop  offset="0.13" style="stop-color:#00A9ED"/>
		<stop  offset="1" style="stop-color:#65106B"/>
	</linearGradient>
	<path id="Path_17529" fill="url(#Path_17529_1_)" d="M48.129,52.709c0.561,0,1.016-0.455,1.016-1.016
		c0-0.562-0.455-1.017-1.016-1.017h-2.032c-0.562,0-1.016,0.455-1.016,1.017c0,0.561,0.454,1.016,1.016,1.016l0,0H48.129z"/>
	
		<linearGradient id="Path_17530_1_" gradientUnits="userSpaceOnUse" x1="134.6692" y1="-114.8784" x2="134.6692" y2="-115.8784" gradientTransform="matrix(3.048 0 0 -2.032 -358.7885 -182.7585)">
		<stop  offset="0.13" style="stop-color:#00A9ED"/>
		<stop  offset="1" style="stop-color:#65106B"/>
	</linearGradient>
	<path id="Path_17530" fill="url(#Path_17530_1_)" d="M52.193,52.709c0.562,0,1.017-0.455,1.017-1.016
		c0-0.562-0.455-1.017-1.017-1.017h-1.016c-0.562,0-1.016,0.455-1.016,1.017c0,0.561,0.454,1.016,1.016,1.016H52.193z"/>
	
		<linearGradient id="Path_17531_1_" gradientUnits="userSpaceOnUse" x1="48.4197" y1="58.7148" x2="48.4197" y2="57.7148" gradientTransform="matrix(55.887 0 0 -63 -2638.0391 3707)">
		<stop  offset="0.13" style="stop-color:#00A9ED"/>
		<stop  offset="1" style="stop-color:#65106B"/>
	</linearGradient>
	<path id="Path_17531" fill="url(#Path_17531_1_)" d="M95.887,55.758c-0.008-6.337-4.862-11.615-11.177-12.15V17.145
		c-0.001-0.27-0.108-0.529-0.3-0.719L76.283,8.3C76.093,8.108,75.834,8,75.564,8H41.016C40.455,8,40,8.455,40,9.016v60.968
		C40,70.545,40.455,71,41.016,71h42.678c0.562,0,1.017-0.455,1.017-1.016v-2.075C91.025,67.373,95.879,62.096,95.887,55.758z
		 M76.581,11.469l4.66,4.66h-4.66V11.469z M42.033,68.969V10.032h32.515v7.113c0,0.561,0.455,1.016,1.016,1.016h7.113v25.446
		c-6.71,0.571-11.687,6.475-11.115,13.185c0.504,5.917,5.198,10.61,11.115,11.115v1.059L42.033,68.969z M83.694,65.921
		c-5.611,0-10.16-4.55-10.16-10.161s4.549-10.16,10.16-10.16s10.16,4.547,10.161,10.158c0,5.611-4.549,10.161-10.161,10.161l0,0
		V65.921z"/>
	
		<linearGradient id="Path_17532_1_" gradientUnits="userSpaceOnUse" x1="62.9905" y1="24.6318" x2="62.9905" y2="23.6318" gradientTransform="matrix(14.2252 0 0 -9.1427 -811.3458 276.9045)">
		<stop  offset="0.13" style="stop-color:#00A9ED"/>
		<stop  offset="1" style="stop-color:#65106B"/>
	</linearGradient>
	<path id="Path_17532" fill="url(#Path_17532_1_)" d="M91.525,51.994c-0.396-0.396-1.04-0.396-1.437,0l0,0l-6.552,6.552l-4.4-2.64
		c-0.481-0.289-1.105-0.133-1.395,0.348c-0.289,0.482-0.133,1.106,0.349,1.395l5.081,3.045c0.399,0.24,0.911,0.178,1.241-0.151
		l7.112-7.113C91.92,53.032,91.92,52.391,91.525,51.994z"/>
</g>
</svg>
