<svg xmlns="http://www.w3.org/2000/svg" xmlns:xlink="http://www.w3.org/1999/xlink" width="57.744" height="63.007" viewBox="0 0 57.744 63.007">
  <defs>
    <linearGradient id="linear-gradient" x1="0.5" x2="0.5" y2="1" gradientUnits="objectBoundingBox">
      <stop offset="0.13" stop-color="#00a9ed"/>
      <stop offset="1" stop-color="#65106b"/>
    </linearGradient>
  </defs>
  <g id="burn" transform="translate(-21.53 0.006)">
    <path id="Path_17374" data-name="Path 17374" d="M63.871,33.5a.923.923,0,0,0-.835.782,14.219,14.219,0,0,1-3.462,7.146,24.411,24.411,0,0,0,.5-9.2A23.879,23.879,0,0,0,56,21.916C51.529,15.5,50,10.192,49.5,6.867a16.051,16.051,0,0,1-.009-5.716.93.93,0,0,0-1.5-.924,34.649,34.649,0,0,0-10.375,15.6,28.383,28.383,0,0,0-.823,3.38c-2.941-4.7-8.92-6.639-9.232-6.738a.931.931,0,0,0-1.072,1.349c2.817,4.78,1.6,8.438-.141,12.387a.923.923,0,1,0,1.689.746c1.616-3.659,2.89-7.335,1.154-11.8,2.575,1.274,6.59,3.925,7.263,8.286a.925.925,0,0,0,1.833-.2c-.007-.107-.5-10.184,9.128-19.918-.087,3.6.791,10.641,7.081,19.657A22.141,22.141,0,0,1,56.8,44.128a.93.93,0,0,0,1.383,1.09,17.561,17.561,0,0,0,5.711-7.21,11.381,11.381,0,0,1,.191,1.889,21.272,21.272,0,0,1-21.24,21.256,19.819,19.819,0,0,1-14.833-6.4A18.336,18.336,0,0,1,23.52,40.275a30.042,30.042,0,0,1,2.164-8.06.923.923,0,1,0-1.709-.7,31.82,31.82,0,0,0-2.289,8.553,20.16,20.16,0,0,0,4.951,15.91A21.665,21.665,0,0,0,42.846,63,23.12,23.12,0,0,0,65.932,39.9a22.79,22.79,0,0,0-1.106-5.768.924.924,0,0,0-.955-.632Z" fill="url(#linear-gradient)"/>
    <path id="Path_17375" data-name="Path 17375" d="M309.727,5.7h2.766V8.469a.923.923,0,0,0,1.846,0V5.7H317.1a.923.923,0,1,0,0-1.846h-2.766V1.091a.923.923,0,0,0-1.846,0V3.857h-2.766a.923.923,0,0,0,0,1.843Z" transform="translate(-251.934 -0.174)" fill="url(#linear-gradient)"/>
    <path id="Path_17376" data-name="Path 17376" d="M424.213,54.487h-2.766V51.721a.923.923,0,1,0-1.846,0v2.766h-2.766a.923.923,0,0,0,0,1.846H419.6V59.1a.923.923,0,1,0,1.846,0V56.333h2.766a.923.923,0,0,0,0-1.846Z" transform="translate(-345.861 -44.574)" fill="url(#linear-gradient)"/>
    <path id="Path_17377" data-name="Path 17377" d="M349.03,125.069h-2.766V122.3a.923.923,0,0,0-1.846,0v2.766h-2.766a.923.923,0,0,0,0,1.846h2.766v2.766a.923.923,0,1,0,1.846,0v-2.766h2.766a.923.923,0,0,0,0-1.843Z" transform="translate(-279.93 -106.444)" fill="url(#linear-gradient)"/>
    <path id="Path_17378" data-name="Path 17378" d="M145.4,312.057a.923.923,0,0,0,1.588-.94c-1.593-2.691-3.1-4.856-3.162-4.947a.934.934,0,0,0-1.514,0c-.7,1-6.818,9.893-6.818,13.746a7.575,7.575,0,1,0,15.15,0,12.515,12.515,0,0,0-1.55-4.916.924.924,0,0,0-1.663.8,10.7,10.7,0,0,1,1.364,4.112,5.729,5.729,0,1,1-11.458,0c0-2.442,3.628-8.411,5.727-11.572C143.654,309.234,144.519,310.574,145.4,312.057Z" transform="translate(-99.922 -268.154)" fill="url(#linear-gradient)"/>
  </g>
</svg>
