<?xml version="1.0" encoding="utf-8"?>
<!-- Generator: Adobe Illustrator 14.0.0, SVG Export Plug-In . SVG Version: 6.00 Build 43363)  -->
<!DOCTYPE svg PUBLIC "-//W3C//DTD SVG 1.1//EN" "http://www.w3.org/Graphics/SVG/1.1/DTD/svg11.dtd">
<svg version="1.1" id="depreciation" xmlns="http://www.w3.org/2000/svg" xmlns:xlink="http://www.w3.org/1999/xlink" x="0px"
	 y="0px" width="65px" height="65px" viewBox="0 0 65 65" enable-background="new 0 0 65 65" xml:space="preserve">
<linearGradient id="Path_18960_1_" gradientUnits="userSpaceOnUse" x1="12.3579" y1="51.7158" x2="12.3579" y2="50.7158" gradientTransform="matrix(63.0002 0 0 -63 -746.0068 3259)">
	<stop  offset="0.13" style="stop-color:#00A9ED"/>
	<stop  offset="1" style="stop-color:#65106B"/>
</linearGradient>
<path id="Path_18960" fill="url(#Path_18960_1_)" d="M10.326,12.599c-0.759-0.605-1.864-0.481-2.469,0.277c0,0,0,0.001-0.001,0.001
	C3.392,18.44,0.971,25.366,0.997,32.499c0,17.397,14.104,31.499,31.501,31.499c17.396,0,31.5-14.104,31.499-31.5
	s-14.104-31.5-31.501-31.5c-6.834,0-13.484,2.224-18.944,6.334c-0.774,0.584-0.929,1.686-0.345,2.461s1.686,0.929,2.461,0.345
	c12.335-9.305,29.879-6.848,39.184,5.488c8.645,11.461,7.211,27.606-3.317,37.366v-2.688c-0.003-2.107-1.127-4.055-2.95-5.113
	l-0.682-0.396c-0.84-0.485-1.916-0.198-2.401,0.642s-0.199,1.914,0.642,2.4l0,0l0.682,0.395c0.738,0.43,1.193,1.218,1.195,2.072
	v5.469c-1.359,0.908-2.795,1.697-4.291,2.354v-1.83c0-0.971-0.787-1.757-1.758-1.757s-1.758,0.786-1.758,1.757v3.101
	c-5.06,1.447-10.425,1.442-15.482-0.016v-3.09c0-0.971-0.787-1.758-1.757-1.758s-1.758,0.787-1.758,1.758v1.811
	c-1.411-0.625-2.768-1.365-4.057-2.213V50.3c0.001-0.854,0.456-1.644,1.195-2.071l8.721-5.043c1.474,2.982,5.087,4.206,8.07,2.732
	c1.22-0.604,2.2-1.602,2.78-2.832l1.6,0.926c0.841,0.486,1.916,0.199,2.401-0.641c0.486-0.84,0.199-1.915-0.641-2.4l-2.783-1.613
	v-1.851c3.527-2.111,5.688-5.919,5.69-10.03V15.858c-0.004-3.192-2.591-5.78-5.783-5.783H27.387l-3.239-1.064
	c-1.336-0.439-2.774,0.288-3.214,1.624c-0.084,0.257-0.127,0.525-0.127,0.795v16.046c0.003,4.09,2.141,7.881,5.64,10v2.016
	l-9.849,5.699c-1.823,1.059-2.947,3.006-2.95,5.115v2.858c-10.89-9.917-12.22-26.582-3.041-38.1c0.605-0.758,0.48-1.864-0.278-2.469
	L10.326,12.599z M26.555,13.505c0.177,0.058,0.362,0.088,0.548,0.088h11.299c1.254,0.001,2.269,1.017,2.27,2.269v3.536H24.326V12.77
	L26.555,13.505z M24.319,22.912h16.358v4.566c0,4.517-3.661,8.179-8.179,8.179c-4.517,0-8.179-3.662-8.179-8.179V22.912z
	 M32.498,39.172c0.836,0,1.671-0.09,2.488-0.27v1.607c0,1.389-1.125,2.514-2.514,2.514c-1.388,0-2.514-1.125-2.514-2.514v-1.617
	c0.834,0.186,1.687,0.279,2.541,0.28L32.498,39.172z"/>
</svg>
