<?xml version="1.0" encoding="utf-8"?>
<!-- Generator: Adobe Illustrator 16.0.0, SVG Export Plug-In . SVG Version: 6.00 Build 0)  -->
<!DOCTYPE svg PUBLIC "-//W3C//DTD SVG 1.1//EN" "http://www.w3.org/Graphics/SVG/1.1/DTD/svg11.dtd">
<svg version="1.1" id="invoice" xmlns="http://www.w3.org/2000/svg" xmlns:xlink="http://www.w3.org/1999/xlink" x="0px" y="0px"
	 width="65px" height="65px" viewBox="0 0 65 65" enable-background="new 0 0 65 65" xml:space="preserve">
<g id="bill" transform="translate(-0.004 0)">
	<g id="Group_2501" transform="translate(14.704 8.401)">
		<g id="Group_2500">
			
				<linearGradient id="Path_17562_1_" gradientUnits="userSpaceOnUse" x1="-269.0633" y1="394.139" x2="-269.0633" y2="393.139" gradientTransform="matrix(14.7 0 0 -14.7 3964.5911 5794.8486)">
				<stop  offset="0.13" style="stop-color:#00A9ED"/>
				<stop  offset="1" style="stop-color:#65106B"/>
			</linearGradient>
			<path id="Path_17562" fill="url(#Path_17562_1_)" d="M9.35,1C5.291,1,2,4.29,2,8.35c0,4.059,3.291,7.35,7.35,7.35
				c4.06,0,7.35-3.291,7.35-7.35l0,0C16.695,4.293,13.407,1.005,9.35,1z M9.35,13.6c-2.899,0-5.25-2.351-5.25-5.25
				S6.45,3.1,9.35,3.1c2.9,0,5.25,2.351,5.25,5.25C14.597,11.248,12.248,13.597,9.35,13.6z"/>
		</g>
	</g>
	<g id="Group_2503" transform="translate(6.304 30.451)">
		<g id="Group_2502">
			
				<linearGradient id="Rectangle_761_1_" gradientUnits="userSpaceOnUse" x1="-264.7687" y1="268.8957" x2="-264.7687" y2="267.8957" gradientTransform="matrix(19 0 0 -3 5041.8062 807.235)">
				<stop  offset="0.13" style="stop-color:#00A9ED"/>
				<stop  offset="1" style="stop-color:#65106B"/>
			</linearGradient>
			<rect id="Rectangle_761" x="1.7" y="0.549" fill="url(#Rectangle_761_1_)" width="19" height="3"/>
		</g>
	</g>
	<g id="Group_2505" transform="translate(6.304 35.701)">
		<g id="Group_2504">
			
				<linearGradient id="Rectangle_762_1_" gradientUnits="userSpaceOnUse" x1="-264.7687" y1="198.8185" x2="-264.7687" y2="197.8185" gradientTransform="matrix(19 0 0 -2 5041.8062 398.938)">
				<stop  offset="0.13" style="stop-color:#00A9ED"/>
				<stop  offset="1" style="stop-color:#65106B"/>
			</linearGradient>
			<rect id="Rectangle_762" x="1.7" y="1.3" fill="url(#Rectangle_762_1_)" width="19" height="2"/>
		</g>
	</g>
	<g id="Group_2507" transform="translate(6.304 40.951)">
		<g id="Group_2506">
			
				<linearGradient id="Rectangle_763_1_" gradientUnits="userSpaceOnUse" x1="-264.7687" y1="193.5685" x2="-264.7687" y2="192.5685" gradientTransform="matrix(19 0 0 -2 5041.8062 388.188)">
				<stop  offset="0.13" style="stop-color:#00A9ED"/>
				<stop  offset="1" style="stop-color:#65106B"/>
			</linearGradient>
			<rect id="Rectangle_763" x="1.7" y="1.05" fill="url(#Rectangle_763_1_)" width="19" height="2"/>
		</g>
	</g>
	<g id="Group_2509" transform="translate(6.304 46.201)">
		<g id="Group_2508">
			
				<linearGradient id="Rectangle_764_1_" gradientUnits="userSpaceOnUse" x1="-264.7687" y1="188.3185" x2="-264.7687" y2="187.3185" gradientTransform="matrix(19 0 0 -2 5041.8062 377.438)">
				<stop  offset="0.13" style="stop-color:#00A9ED"/>
				<stop  offset="1" style="stop-color:#65106B"/>
			</linearGradient>
			<rect id="Rectangle_764" x="1.7" y="0.8" fill="url(#Rectangle_764_1_)" width="19" height="2"/>
		</g>
	</g>
	<g id="Group_2511" transform="translate(6.304 51.451)">
		<g id="Group_2510">
			
				<linearGradient id="Rectangle_765_1_" gradientUnits="userSpaceOnUse" x1="-264.7687" y1="247.8947" x2="-264.7687" y2="246.8947" gradientTransform="matrix(19 0 0 -3 5041.8062 744.235)">
				<stop  offset="0.13" style="stop-color:#00A9ED"/>
				<stop  offset="1" style="stop-color:#65106B"/>
			</linearGradient>
			<rect id="Rectangle_765" x="1.7" y="0.55" fill="url(#Rectangle_765_1_)" width="19" height="3"/>
		</g>
	</g>
	<g id="Group_2513" transform="translate(31.503 30.451)">
		<g id="Group_2512">
			
				<linearGradient id="Rectangle_766_1_" gradientUnits="userSpaceOnUse" x1="-250.6782" y1="268.8957" x2="-250.6782" y2="267.8957" gradientTransform="matrix(5 0 0 -3 1257.3944 807.235)">
				<stop  offset="0.13" style="stop-color:#00A9ED"/>
				<stop  offset="1" style="stop-color:#65106B"/>
			</linearGradient>
			<rect id="Rectangle_766" x="1.5" y="0.549" fill="url(#Rectangle_766_1_)" width="5.001" height="3"/>
		</g>
	</g>
	<g id="Group_2515" transform="translate(31.503 35.701)">
		<g id="Group_2514">
			
				<linearGradient id="Rectangle_767_1_" gradientUnits="userSpaceOnUse" x1="-250.6782" y1="198.8185" x2="-250.6782" y2="197.8185" gradientTransform="matrix(5 0 0 -2 1257.3944 398.938)">
				<stop  offset="0.13" style="stop-color:#00A9ED"/>
				<stop  offset="1" style="stop-color:#65106B"/>
			</linearGradient>
			<rect id="Rectangle_767" x="1.5" y="1.3" fill="url(#Rectangle_767_1_)" width="5.001" height="2"/>
		</g>
	</g>
	<g id="Group_2517" transform="translate(37.803 35.701)">
		<g id="Group_2516">
			
				<linearGradient id="Rectangle_768_1_" gradientUnits="userSpaceOnUse" x1="-176.9987" y1="198.8185" x2="-176.9987" y2="197.8185" gradientTransform="matrix(2 0 0 -2 357.1994 398.938)">
				<stop  offset="0.13" style="stop-color:#00A9ED"/>
				<stop  offset="1" style="stop-color:#65106B"/>
			</linearGradient>
			<rect id="Rectangle_768" x="2.201" y="1.3" fill="url(#Rectangle_768_1_)" width="2" height="2"/>
		</g>
	</g>
	<g id="Group_2519" transform="translate(37.803 30.451)">
		<g id="Group_2518">
			
				<linearGradient id="Rectangle_769_1_" gradientUnits="userSpaceOnUse" x1="-176.9987" y1="268.8957" x2="-176.9987" y2="267.8957" gradientTransform="matrix(2 0 0 -3 357.1994 807.235)">
				<stop  offset="0.13" style="stop-color:#00A9ED"/>
				<stop  offset="1" style="stop-color:#65106B"/>
			</linearGradient>
			<rect id="Rectangle_769" x="2.201" y="0.549" fill="url(#Rectangle_769_1_)" width="2" height="3"/>
		</g>
	</g>
	<g id="Group_2521" transform="translate(31.503 40.951)">
		<g id="Group_2520">
			
				<linearGradient id="Rectangle_770_1_" gradientUnits="userSpaceOnUse" x1="-250.6782" y1="193.5685" x2="-250.6782" y2="192.5685" gradientTransform="matrix(5 0 0 -2 1257.3944 388.188)">
				<stop  offset="0.13" style="stop-color:#00A9ED"/>
				<stop  offset="1" style="stop-color:#65106B"/>
			</linearGradient>
			<rect id="Rectangle_770" x="1.5" y="1.05" fill="url(#Rectangle_770_1_)" width="5.001" height="2"/>
		</g>
	</g>
	<g id="Group_2523" transform="translate(31.503 46.201)">
		<g id="Group_2522">
			
				<linearGradient id="Rectangle_771_1_" gradientUnits="userSpaceOnUse" x1="-250.6782" y1="188.3185" x2="-250.6782" y2="187.3185" gradientTransform="matrix(5 0 0 -2 1257.3944 377.438)">
				<stop  offset="0.13" style="stop-color:#00A9ED"/>
				<stop  offset="1" style="stop-color:#65106B"/>
			</linearGradient>
			<rect id="Rectangle_771" x="1.5" y="0.8" fill="url(#Rectangle_771_1_)" width="5.001" height="2"/>
		</g>
	</g>
	<g id="Group_2525" transform="translate(31.503 51.451)">
		<g id="Group_2524">
			
				<linearGradient id="Rectangle_772_1_" gradientUnits="userSpaceOnUse" x1="-250.6782" y1="247.8947" x2="-250.6782" y2="246.8947" gradientTransform="matrix(5 0 0 -3 1257.3944 744.235)">
				<stop  offset="0.13" style="stop-color:#00A9ED"/>
				<stop  offset="1" style="stop-color:#65106B"/>
			</linearGradient>
			<rect id="Rectangle_772" x="1.5" y="0.55" fill="url(#Rectangle_772_1_)" width="5.001" height="3"/>
		</g>
	</g>
	<g id="Group_2527" transform="translate(0.004 0)">
		<g id="Group_2526" transform="translate(0 0)">
			
				<linearGradient id="Path_17563_1_" gradientUnits="userSpaceOnUse" x1="-268.2686" y1="422.8262" x2="-268.2686" y2="421.8262" gradientTransform="matrix(63 0 0 -63.0062 16934.4121 26641.7129)">
				<stop  offset="0.13" style="stop-color:#00A9ED"/>
				<stop  offset="1" style="stop-color:#65106B"/>
			</linearGradient>
			<path id="Path_17563" fill="url(#Path_17563_1_)" d="M64.445,9.525c-0.342-0.182-0.756-0.162-1.076,0.052l-2.572,1.71
				l-2.564-1.713c-0.354-0.235-0.813-0.235-1.164,0l-2.572,1.707l-2.563-1.719c-0.354-0.234-0.811-0.234-1.164,0l-2.563,1.7
				l-2.111-1.433V2.051c-0.002-0.58-0.473-1.048-1.053-1.046c-0.275,0.001-0.541,0.11-0.736,0.304L42.814,2.8l-2.432-1.622
				c-0.354-0.236-0.813-0.236-1.164,0l-2.57,1.711l-2.566-1.711c-0.354-0.236-0.813-0.236-1.165,0L30.35,2.889l-2.568-1.711
				c-0.353-0.236-0.812-0.236-1.164,0L24.05,2.889l-2.568-1.711c-0.352-0.236-0.812-0.236-1.164,0L17.75,2.889l-2.567-1.711
				c-0.352-0.236-0.812-0.236-1.164,0L11.45,2.889L8.882,1.178c-0.352-0.236-0.812-0.236-1.164,0L5.283,2.8L3.796,1.309
				C3.39,0.895,2.726,0.888,2.311,1.294C2.108,1.493,1.994,1.766,1.996,2.051V57.7C2,61.178,4.818,63.996,8.296,64h44.101
				c6.955-0.008,12.592-5.645,12.6-12.6V10.451C64.996,10.064,64.785,9.709,64.445,9.525z M8.296,61.9c-2.319,0-4.2-1.881-4.2-4.2
				l0,0V4.586l0.308,0.308c0.354,0.355,0.909,0.41,1.325,0.131l2.567-1.711l2.572,1.711c0.352,0.236,0.812,0.236,1.164,0
				l2.564-1.711l2.567,1.711c0.352,0.236,0.812,0.236,1.164,0l2.569-1.711l2.567,1.711c0.352,0.236,0.812,0.236,1.164,0l2.569-1.711
				l2.567,1.711c0.352,0.236,0.812,0.236,1.164,0l2.569-1.711l2.568,1.711c0.352,0.236,0.813,0.236,1.164,0l2.568-1.711l2.566,1.711
				c0.418,0.284,0.979,0.229,1.332-0.131l0.301-0.308v37.365h0.1c-5.225,4.567-5.756,12.506-1.189,17.729
				c0.744,0.851,1.6,1.597,2.543,2.22H8.296z M52.396,61.9c-5.799,0-10.5-4.701-10.5-10.5s4.701-10.5,10.5-10.5
				s10.5,4.701,10.5,10.5C62.889,57.196,58.193,61.894,52.396,61.9z M62.896,44.45c-3.664-5.567-11.041-7.3-16.801-3.945V12.364
				l1.512,1.024c0.352,0.238,0.813,0.241,1.168,0.006l2.566-1.7l2.57,1.72c0.352,0.235,0.811,0.235,1.164,0l2.566-1.708l2.568,1.714
				c0.352,0.236,0.813,0.236,1.164,0l1.521-1.008V44.45L62.896,44.45z"/>
		</g>
	</g>
	<g id="Group_2529" transform="translate(43.361 45.458)">
		<g id="Group_2528">
			
				<linearGradient id="Path_17564_1_" gradientUnits="userSpaceOnUse" x1="-296.9293" y1="345.3809" x2="-296.9293" y2="344.3818" gradientTransform="matrix(14.085 0 0 -10.1925 4191.2866 3521.3074)">
				<stop  offset="0.13" style="stop-color:#00A9ED"/>
				<stop  offset="1" style="stop-color:#65106B"/>
			</linearGradient>
			<path id="Path_17564" fill="url(#Path_17564_1_)" d="M14.6,1L6.942,8.658L3.485,5.2L1.998,6.685l4.201,4.2
				c0.41,0.41,1.074,0.41,1.484,0l0,0l8.4-8.399L14.6,1z"/>
		</g>
	</g>
	<g id="Group_2531" transform="translate(21.004 25.201)">
		<g id="Group_2530">
			
				<linearGradient id="Rectangle_773_1_" gradientUnits="userSpaceOnUse" x1="-160.1997" y1="209.3185" x2="-160.1997" y2="208.3185" gradientTransform="matrix(2 0 0 -2 323.4004 419.4361)">
				<stop  offset="0.13" style="stop-color:#00A9ED"/>
				<stop  offset="1" style="stop-color:#65106B"/>
			</linearGradient>
			<rect id="Rectangle_773" x="2" y="0.799" fill="url(#Rectangle_773_1_)" width="2" height="2"/>
		</g>
	</g>
	<g id="Group_2533" transform="translate(16.804 25.201)">
		<g id="Group_2532">
			
				<linearGradient id="Rectangle_774_1_" gradientUnits="userSpaceOnUse" x1="-155.9997" y1="209.3185" x2="-155.9997" y2="208.3185" gradientTransform="matrix(2 0 0 -2 315.2004 419.4361)">
				<stop  offset="0.13" style="stop-color:#00A9ED"/>
				<stop  offset="1" style="stop-color:#65106B"/>
			</linearGradient>
			<rect id="Rectangle_774" x="2.2" y="0.799" fill="url(#Rectangle_774_1_)" width="2" height="2"/>
		</g>
	</g>
	<g id="Group_2535" transform="translate(25.204 25.201)">
		<g id="Group_2534">
			
				<linearGradient id="Rectangle_775_1_" gradientUnits="userSpaceOnUse" x1="-164.3997" y1="209.3185" x2="-164.3997" y2="208.3185" gradientTransform="matrix(2 0 0 -2 331.6004 419.4361)">
				<stop  offset="0.13" style="stop-color:#00A9ED"/>
				<stop  offset="1" style="stop-color:#65106B"/>
			</linearGradient>
			<rect id="Rectangle_775" x="1.8" y="0.799" fill="url(#Rectangle_775_1_)" width="2" height="2"/>
		</g>
	</g>
</g>
</svg>
