<?xml version="1.0" encoding="utf-8"?>
<!-- Generator: Adobe Illustrator 16.0.0, SVG Export Plug-In . SVG Version: 6.00 Build 0)  -->
<!DOCTYPE svg PUBLIC "-//W3C//DTD SVG 1.1//EN" "http://www.w3.org/Graphics/SVG/1.1/DTD/svg11.dtd">
<svg version="1.1" id="Layer_1" xmlns="http://www.w3.org/2000/svg" xmlns:xlink="http://www.w3.org/1999/xlink" x="0px" y="0px"
	 width="63px" height="53.497px" viewBox="0 0 63 53.497" enable-background="new 0 0 63 53.497" xml:space="preserve">
<g id="flood" transform="translate(-2 -7.052)">
	
		<linearGradient id="Path_17636_1_" gradientUnits="userSpaceOnUse" x1="-267.2837" y1="359.6257" x2="-267.2837" y2="358.6257" gradientTransform="matrix(63 0 0 -5.5707 16872.4063 2047.4944)">
		<stop  offset="0.13" style="stop-color:#00A9ED"/>
		<stop  offset="1" style="stop-color:#65106B"/>
	</linearGradient>
	<path id="Path_17636" fill="url(#Path_17636_1_)" d="M63.314,45.847c-2.77-2.428-6.948-2.293-9.557,0.309
		c-1.91,1.907-5.004,1.907-6.915,0c-2.731-2.725-7.153-2.725-9.885,0c-1.911,1.907-5.004,1.907-6.915,0
		c-2.732-2.725-7.153-2.725-9.885,0c-1.911,1.907-5.005,1.907-6.915,0c-2.608-2.602-6.787-2.736-9.557-0.309H2v2.101h2.535
		l0.308-0.308c1.911-1.908,5.005-1.908,6.915,0c2.732,2.724,7.153,2.724,9.885,0c1.911-1.908,5.004-1.908,6.915,0
		c2.732,2.724,7.153,2.724,9.885,0c1.91-1.908,5.004-1.908,6.914,0c2.732,2.724,7.154,2.724,9.886,0c1.91-1.908,5.005-1.908,6.915,0
		l0.308,0.308H65v-2.101H63.314z"/>
	
		<linearGradient id="Path_17637_1_" gradientUnits="userSpaceOnUse" x1="-252.6387" y1="350.0623" x2="-252.6387" y2="349.0623" gradientTransform="matrix(14.082 0 0 -4.9068 3607.9604 1773.3147)">
		<stop  offset="0.13" style="stop-color:#00A9ED"/>
		<stop  offset="1" style="stop-color:#65106B"/>
	</linearGradient>
	<path id="Path_17637" fill="url(#Path_17637_1_)" d="M49.559,57.345c-1.23,1.329-3.307,1.41-4.636,0.18
		c-0.062-0.059-0.122-0.117-0.18-0.18l-1.485,1.484c1.068,1.059,2.498,1.674,4,1.719c1.443-0.03,2.811-0.652,3.782-1.719
		c1.233-1.33,3.312-1.41,4.642-0.176c0.063,0.057,0.121,0.115,0.178,0.176l1.48-1.488c-1.994-2.15-5.354-2.277-7.502-0.283
		c-0.098,0.091-0.192,0.186-0.283,0.283L49.559,57.345z"/>
	
		<linearGradient id="Path_17638_1_" gradientUnits="userSpaceOnUse" x1="-252.6387" y1="350.0779" x2="-252.6387" y2="349.0779" gradientTransform="matrix(14.082 0 0 -4.9077 3591.1636 1771.6226)">
		<stop  offset="0.13" style="stop-color:#00A9ED"/>
		<stop  offset="1" style="stop-color:#65106B"/>
	</linearGradient>
	<path id="Path_17638" fill="url(#Path_17638_1_)" d="M32.758,55.245c-1.231,1.329-3.307,1.409-4.636,0.179
		c-0.062-0.057-0.122-0.117-0.179-0.179l-1.485,1.485c1.068,1.059,2.497,1.673,4,1.719c1.443-0.031,2.81-0.652,3.782-1.719
		c1.232-1.331,3.312-1.41,4.643-0.177c0.061,0.057,0.119,0.115,0.176,0.177l1.481-1.489c-1.992-2.149-5.351-2.277-7.5-0.285
		c-0.099,0.091-0.194,0.187-0.285,0.285L32.758,55.245z"/>
	
		<linearGradient id="Path_17639_1_" gradientUnits="userSpaceOnUse" x1="-252.6387" y1="350.0623" x2="-252.6387" y2="349.0623" gradientTransform="matrix(14.082 0 0 -4.9068 3573.3118 1773.3147)">
		<stop  offset="0.13" style="stop-color:#00A9ED"/>
		<stop  offset="1" style="stop-color:#65106B"/>
	</linearGradient>
	<path id="Path_17639" fill="url(#Path_17639_1_)" d="M14.908,57.345c-1.23,1.329-3.306,1.41-4.635,0.18
		c-0.063-0.059-0.123-0.117-0.18-0.18L8.608,58.83c1.068,1.059,2.497,1.674,4,1.719c1.443-0.03,2.81-0.652,3.782-1.719
		c1.233-1.33,3.312-1.41,4.642-0.176c0.061,0.057,0.12,0.115,0.177,0.176l1.481-1.488c-1.994-2.15-5.353-2.277-7.503-0.283
		c-0.097,0.091-0.191,0.186-0.282,0.283L14.908,57.345z"/>
	
		<linearGradient id="Path_17640_1_" gradientUnits="userSpaceOnUse" x1="-246.9888" y1="393.9666" x2="-246.9888" y2="392.9666" gradientTransform="matrix(10.8355 0 0 -10.8358 2696.6072 4296.2529)">
		<stop  offset="0.13" style="stop-color:#00A9ED"/>
		<stop  offset="1" style="stop-color:#65106B"/>
	</linearGradient>
	<path id="Path_17640" fill="url(#Path_17640_1_)" d="M25.683,34.492c0.176-0.527,0.135-1.103-0.114-1.6l-2.21-4.428
		c-0.519-1.038-1.78-1.458-2.817-0.939c0,0,0,0,0,0l-4.424,2.213c-1.038,0.519-1.458,1.78-0.939,2.817c0,0,0,0,0,0l2.211,4.42
		c0.519,1.038,1.78,1.459,2.817,0.939h0l4.421-2.211c0.499-0.248,0.878-0.686,1.053-1.214L25.683,34.492z M19.269,36.038
		l-2.212-4.42l4.423-2.212l2.211,4.421L19.269,36.038z"/>
	
		<linearGradient id="Path_17641_1_" gradientUnits="userSpaceOnUse" x1="-245.2466" y1="391.3845" x2="-245.2466" y2="390.3835" gradientTransform="matrix(10.117 0 0 -10.117 2518.3523 3992.5696)">
		<stop  offset="0.13" style="stop-color:#00A9ED"/>
		<stop  offset="1" style="stop-color:#65106B"/>
	</linearGradient>
	<path id="Path_17641" fill="url(#Path_17641_1_)" d="M33.721,41.289c0.777,1.557,2.669,2.188,4.226,1.41v-0.001l2.544-1.271
		c1.556-0.778,2.187-2.67,1.409-4.227c0,0,0,0,0-0.001l-1.271-2.543c-0.777-1.556-2.67-2.187-4.226-1.41c-0.001,0-0.001,0-0.001,0
		l-2.543,1.271c-1.556,0.777-2.187,2.67-1.41,4.226c0,0.001,0,0.001,0.001,0.001L33.721,41.289z M34.271,37.006
		c0.087-0.266,0.277-0.484,0.526-0.607l2.543-1.271c0.146-0.072,0.306-0.111,0.47-0.111c0.113,0,0.225,0.018,0.332,0.054
		c0.266,0.087,0.483,0.277,0.607,0.526l1.271,2.543c0.26,0.519,0.05,1.148-0.469,1.408c0,0-0.001,0.001-0.002,0.002l-2.543,1.271
		c-0.518,0.259-1.148,0.05-1.408-0.468c0-0.001,0-0.002,0-0.002l-1.271-2.543C34.203,37.558,34.183,37.269,34.271,37.006
		L34.271,37.006z"/>
	
		<linearGradient id="Path_17642_1_" gradientUnits="userSpaceOnUse" x1="-246.9888" y1="393.9685" x2="-246.9888" y2="392.9685" gradientTransform="matrix(10.8358 0 0 -10.8364 2708.2522 4291.2549)">
		<stop  offset="0.13" style="stop-color:#00A9ED"/>
		<stop  offset="1" style="stop-color:#65106B"/>
	</linearGradient>
	<path id="Path_17642" fill="url(#Path_17642_1_)" d="M30.822,32.889c0.326,0,0.646-0.077,0.937-0.223l4.421-2.211
		c1.037-0.519,1.458-1.78,0.939-2.817v0l-2.21-4.423c-0.519-1.038-1.78-1.458-2.817-0.939c0,0,0,0-0.001,0l-4.424,2.213
		c-1.038,0.519-1.458,1.78-0.939,2.817c0,0,0,0,0,0l2.211,4.421c0.357,0.712,1.085,1.162,1.881,1.162H30.822z M28.607,26.368
		l4.423-2.212l2.211,4.421l-4.421,2.211L28.607,26.368z"/>
	
		<linearGradient id="Path_17643_1_" gradientUnits="userSpaceOnUse" x1="-266.1504" y1="419.7087" x2="-266.1504" y2="418.7087" gradientTransform="matrix(49.6434 0 0 -37.1695 13240.0791 15607.3975)">
		<stop  offset="0.13" style="stop-color:#00A9ED"/>
		<stop  offset="1" style="stop-color:#65106B"/>
	</linearGradient>
	<path id="Path_17643" fill="url(#Path_17643_1_)" d="M4.224,31.548c0.243-0.001,0.482-0.058,0.7-0.166l1.832-0.916l5.513,11.633
		l1.9-0.899l-5.53-11.673L36.18,15.756L50.413,44.22l1.879-0.938L38.059,14.817l1.801-0.9c0.777-0.39,1.092-1.336,0.701-2.114
		c-0.227-0.453-0.657-0.769-1.158-0.849L15.145,7.071c-0.679-0.107-1.349,0.237-1.656,0.851L2.815,29.269
		c-0.389,0.778-0.073,1.724,0.705,2.113C3.738,31.491,3.979,31.548,4.224,31.548L4.224,31.548z M15.195,9.205l22.266,3.563
		l-0.341,0.171l0,0L5.861,28.568l0,0L5.397,28.8L15.195,9.205z"/>
	
		<linearGradient id="Path_17644_1_" gradientUnits="userSpaceOnUse" x1="-239.2319" y1="339.0466" x2="-239.2319" y2="338.0466" gradientTransform="matrix(8.231 0 0 -4.3144 1994.7146 1500.5886)">
		<stop  offset="0.13" style="stop-color:#00A9ED"/>
		<stop  offset="1" style="stop-color:#65106B"/>
	</linearGradient>
	<path id="Path_17644" fill="url(#Path_17644_1_)" d="M26.728,39.907l1.105,2.211l1.879-0.938l-1.103-2.215
		c-0.519-1.037-1.78-1.457-2.817-0.939l0,0.001l-4.31,2.155l0.939,1.879L26.728,39.907z"/>
</g>
</svg>
