<?xml version="1.0" encoding="utf-8"?>
<!-- Generator: Adobe Illustrator 16.0.0, SVG Export Plug-In . SVG Version: 6.00 Build 0)  -->
<!DOCTYPE svg PUBLIC "-//W3C//DTD SVG 1.1//EN" "http://www.w3.org/Graphics/SVG/1.1/DTD/svg11.dtd">
<svg version="1.1" id="Layer_1" xmlns="http://www.w3.org/2000/svg" xmlns:xlink="http://www.w3.org/1999/xlink" x="0px" y="0px"
	 width="58.795px" height="63px" viewBox="0 0 58.795 63" enable-background="new 0 0 58.795 63" xml:space="preserve">
<g id="grocery" transform="translate(0 0.001)">
	
		<linearGradient id="Path_17891_1_" gradientUnits="userSpaceOnUse" x1="-209.519" y1="372.0341" x2="-209.519" y2="371.0341" gradientTransform="matrix(4.051 0 0 -6.95 899.0662 2594.7593)">
		<stop  offset="0" style="stop-color:#00A9E0"/>
		<stop  offset="1" style="stop-color:#801C7D"/>
	</linearGradient>
	<path id="Path_17891" fill="url(#Path_17891_1_)" d="M48.278,9.774l2-0.65l2.052,6.3l-2,0.65L48.278,9.774z"/>
	
		<linearGradient id="Path_17892_1_" gradientUnits="userSpaceOnUse" x1="-209.5195" y1="372.041" x2="-209.5195" y2="371.041" gradientTransform="matrix(4.051 0 0 -6.951 895.988 2602.5332)">
		<stop  offset="0" style="stop-color:#00A9E0"/>
		<stop  offset="1" style="stop-color:#801C7D"/>
	</linearGradient>
	<path id="Path_17892" fill="url(#Path_17892_1_)" d="M45.201,17.125l2-0.65l2.051,6.3l-2,0.651L45.201,17.125z"/>
	
		<linearGradient id="Path_17893_1_" gradientUnits="userSpaceOnUse" x1="-270.4707" y1="421.8252" x2="-270.4707" y2="420.8252" gradientTransform="matrix(52.1592 0 0 -63 14140.2207 26574.998)">
		<stop  offset="0" style="stop-color:#00A9E0"/>
		<stop  offset="1" style="stop-color:#801C7D"/>
	</linearGradient>
	<path id="Path_17893" fill="url(#Path_17893_1_)" d="M9.794,20.187c-0.222,1.604,0.247,3.228,1.289,4.467l1.516,1.9v17.546h2.1
		V28.212l1.517,1.011c0.353,0.235,0.813,0.235,1.166,0l2.567-1.713l2.567,1.711c0.353,0.235,0.813,0.235,1.166,0l2.567-1.711
		l2.567,1.711c0.353,0.235,0.813,0.235,1.166,0l2.567-1.711l2.567,1.711c0.354,0.235,0.813,0.235,1.166,0l2.566-1.711l2.101,1.4
		v31.989H17.85V63h29.4c2.897-0.003,5.247-2.353,5.25-5.25v-31.5c-0.003-0.231-0.083-0.454-0.226-0.635L58.342,9.46
		c0.817-2.17,0.519-4.603-0.8-6.51C56.29,1.1,54.199-0.007,51.965,0c-2.847,0.026-5.384,1.806-6.378,4.474L43.94,8.856L42,6.914
		V3.149C41.999,2.569,41.529,2.1,40.95,2.1H29.4c-0.58,0-1.05,0.47-1.05,1.05l0,0v1.8c-1.187-1.076-2.978-1.137-4.235-0.144V3.149
		c0-1.719-1.392-3.113-3.11-3.114s-3.113,1.392-3.114,3.11c0,0.001,0,0.002,0,0.003v1.659c-1.289-1.064-3.179-0.962-4.346,0.234
		c-1.245,1.284-1.253,3.322-0.018,4.615l0.978,1.009c-0.355,0.163-0.679,0.39-0.953,0.669h-0.007l-0.01,0.011
		c-0.245,0.251-0.448,0.541-0.6,0.857L11.739,10l-1.847,1l2.715,5.012c-0.122,0.069-0.244,0.136-0.359,0.215
		c-0.043,0.029-0.081,0.063-0.123,0.092L8.06,12.571l-1.424,1.544l4.036,3.721c-0.463,0.709-0.764,1.512-0.88,2.351H9.794z
		 M31.967,25.375L29.4,27.089l-2.567-1.711c-0.353-0.235-0.813-0.235-1.166,0l-2.543,1.7c-0.006-0.105-0.024-0.2-0.024-0.3
		c-0.009-2.602,2.093-4.719,4.695-4.729c2.023-0.007,3.827,1.279,4.477,3.195c-0.107,0.028-0.211,0.073-0.306,0.133V25.375z
		 M34.649,26.387l-0.02-0.013c-0.215-3.758-3.437-6.63-7.195-6.415c-0.769,0.044-1.524,0.218-2.235,0.515v-6.825h9.449V26.387z
		 M50.399,57.749c0,1.74-1.41,3.15-3.149,3.15l0,0h-4.2V28.911l2.1-1.4l2.567,1.711c0.353,0.235,0.813,0.235,1.166,0l1.517-1.009
		V57.749z M47.554,5.211c0.685-1.851,2.439-3.087,4.412-3.111c1.543-0.003,2.986,0.762,3.85,2.041
		c0.928,1.343,1.137,3.054,0.561,4.581l-6.5,17.317l-1.575,1.05l-2.567-1.711c-0.353-0.235-0.813-0.235-1.166,0L42,27.089
		l-2.13-1.42L47.554,5.211z M43.13,11.011l-5.57,14.837l-0.809,0.539V13.034l4.2-4.2L43.13,11.011z M30.45,4.2h9.449v2.1H30.45V4.2z
		 M29.835,8.4h8.58l-3.15,3.15h-8.58L29.835,8.4z M15.043,6.515c0.43-0.444,1.137-0.455,1.581-0.025
		c0.008,0.008,0.017,0.017,0.025,0.025l1.542,1.575c0.406,0.415,1.071,0.421,1.485,0.015c0.203-0.199,0.317-0.472,0.315-0.756v-4.2
		c-0.025-0.559,0.408-1.032,0.967-1.057c0.559-0.024,1.032,0.408,1.057,0.967c0.001,0.03,0.001,0.06,0,0.09v4.2
		c0.001,0.581,0.473,1.05,1.053,1.048c0.281,0,0.55-0.113,0.747-0.313l1.545-1.575c0.443-0.438,1.157-0.438,1.6,0
		c0.458,0.467,0.458,1.214,0,1.68l-3.1,3.15l0.031,0.032l-0.487,0.487c-0.083,0.088-0.151,0.189-0.2,0.3
		c-0.015,0.032-0.023,0.065-0.035,0.1c-0.031,0.09-0.05,0.183-0.056,0.277c0,0.023-0.013,0.042-0.013,0.065v9.26
		c-0.239,0.229-0.46,0.474-0.663,0.735l-1.984-4.221c-0.732-1.457-2.056-2.528-3.633-2.94c-0.367-0.095-0.743-0.152-1.122-0.17
		l-0.269-0.315c-0.21-0.24-0.368-0.428-0.394-0.454c-0.271-0.284-0.389-0.682-0.315-1.068c0.039-0.219,0.14-0.422,0.291-0.586
		l0.019-0.018l0.03-0.029c0.38-0.372,0.969-0.427,1.412-0.132c0.481,0.324,1.133,0.196,1.457-0.285
		c0.276-0.411,0.229-0.958-0.115-1.315L15.036,8.2c-0.45-0.472-0.447-1.216,0.008-1.683L15.043,6.515z M11.875,20.474
		c0.137-1.018,0.701-1.93,1.55-2.507c1.62-1.096,3.822-0.672,4.919,0.948c0.083,0.124,0.159,0.252,0.226,0.385l2.676,5.7
		c-0.066,0.246-0.118,0.495-0.156,0.746l-0.553-0.37c-0.353-0.235-0.813-0.235-1.165,0l-2.572,1.71l-2.329-1.554l-0.225-0.282
		l2.707-2.093L15.668,21.5l-2.73,2.111l-0.233-0.291C12.037,22.533,11.735,21.498,11.875,20.474L11.875,20.474z"/>
	
		<linearGradient id="Path_17894_1_" gradientUnits="userSpaceOnUse" x1="-261.4385" y1="409.4765" x2="-261.4385" y2="408.4765" gradientTransform="matrix(18.9001 0 0 -21 4950.6611 8641.0254)">
		<stop  offset="0" style="stop-color:#00A9E0"/>
		<stop  offset="1" style="stop-color:#801C7D"/>
	</linearGradient>
	<path id="Path_17894" fill="url(#Path_17894_1_)" d="M2.242,60.38c0.797,1.609,2.441,2.625,4.237,2.619
		c0.735-0.001,1.46-0.172,2.119-0.5l0.852-0.426l0.853,0.426c0.658,0.328,1.383,0.499,2.118,0.5c1.796,0.006,3.44-1.01,4.238-2.619
		l0.366-0.734c1.229-2.467,1.871-5.186,1.875-7.941c0.012-3.029-2.434-5.494-5.462-5.506c-1.039-0.004-2.058,0.287-2.938,0.84v-0.84
		c0-2.319-1.881-4.199-4.2-4.199v2.1c1.16,0,2.1,0.94,2.1,2.101l0,0v0.84c-2.565-1.61-5.95-0.837-7.561,1.729
		C0.287,49.647-0.004,50.665,0,51.704c0.003,2.757,0.645,5.476,1.875,7.943L2.242,60.38z M5.505,48.299
		c0.904-0.002,1.771,0.358,2.408,1l0.795,0.795c0.41,0.409,1.075,0.409,1.485,0l0.795-0.795c1.33-1.329,3.486-1.33,4.815-0.001
		c0.639,0.639,0.998,1.506,0.998,2.409c-0.003,2.43-0.569,4.825-1.654,7l-0.366,0.735c-0.445,0.895-1.359,1.458-2.359,1.455
		c-0.409-0.001-0.813-0.096-1.179-0.278l-1.323-0.66c-0.295-0.147-0.644-0.147-0.939,0L7.66,60.62
		c-0.367,0.183-0.771,0.277-1.18,0.277c-1,0.004-1.915-0.563-2.359-1.459l-0.366-0.734c-1.084-2.174-1.65-4.57-1.654-7
		C2.104,49.825,3.626,48.302,5.505,48.299z"/>
</g>
</svg>
