<svg xmlns="http://www.w3.org/2000/svg" xmlns:xlink="http://www.w3.org/1999/xlink" width="72.002" height="68.992" viewBox="0 0 72.002 68.992">
  <defs>
    <linearGradient id="linear-gradient" x1="0.5" x2="0.5" y2="1" gradientUnits="objectBoundingBox">
      <stop offset="0.13" stop-color="#00a9ed"/>
      <stop offset="1" stop-color="#65106b"/>
    </linearGradient>
  </defs>
  <path id="Union_44" data-name="Union 44" d="M-2026.325,20186.994a1.039,1.039,0,0,1-1.039-1.037,1.042,1.042,0,0,1,1.039-1.045h15.244v-3.643a16.706,16.706,0,0,0-16.516-16.687l-7.8,20.33h4.063a1.042,1.042,0,0,1,1.039,1.045,1.039,1.039,0,0,1-1.039,1.037h-47.937a1.738,1.738,0,0,1-1.733-1.732v-3.992a18.791,18.791,0,0,1,18.771-18.77h1.165a1.8,1.8,0,0,1,.507-.416l1.849-1.014a2.31,2.31,0,0,1,.5-.207v-3.607l-.415-.34a12.582,12.582,0,0,1-4.342-7.32,6.427,6.427,0,0,1-6.095-6.408v-2.027a3.776,3.776,0,0,1,3.769-3.77,5.631,5.631,0,0,1,2.092.406v-2.234c-.035-.016-.076-.031-.111-.051a1.9,1.9,0,0,1-1.074-1.723v-6.322a6.561,6.561,0,0,1,3.187-5.613l4.078-2.428a1.888,1.888,0,0,1,1.718-.121,1.848,1.848,0,0,1,.572.369,15.3,15.3,0,0,1,6.971-1.672h5.142a1.037,1.037,0,0,1,1.039,1.039,1.041,1.041,0,0,1-1.039,1.039h-5.142a13.264,13.264,0,0,0-6.176,1.525l.208.83a9.4,9.4,0,0,1-3.359,9.682l-3.931,3.055v2.787h3.268a5.55,5.55,0,0,1,5.441-4.5,5.556,5.556,0,0,1,5.2,3.637,4.482,4.482,0,0,1,2.037-.578q.175-.006.35,0a4.516,4.516,0,0,1,2.031.578,5.556,5.556,0,0,1,5.2-3.637,5.55,5.55,0,0,1,5.441,4.5h3.268v-2.787l-3.931-3.055a9.4,9.4,0,0,1-3.359-9.682l.208-.836a13.452,13.452,0,0,0-2.3-.947,1.037,1.037,0,0,1-.694-1.3,1.046,1.046,0,0,1,1.3-.689,15.487,15.487,0,0,1,2.482,1.008,1.848,1.848,0,0,1,.573-.369,1.888,1.888,0,0,1,1.717.121l4.078,2.428a6.562,6.562,0,0,1,3.187,5.613v6.322a1.9,1.9,0,0,1-1.074,1.723c-.036.02-.076.035-.111.051v2.234a5.624,5.624,0,0,1,2.087-.406,3.776,3.776,0,0,1,3.769,3.77v2.027a6.417,6.417,0,0,1-6.09,6.4,12.561,12.561,0,0,1-4.347,7.326l-.41.34v3.607a2.311,2.311,0,0,1,.5.207l1.849,1.014a1.7,1.7,0,0,1,.5.416h1.17a18.791,18.791,0,0,1,18.771,18.77v3.992a1.738,1.738,0,0,1-1.733,1.732Zm-13.375-12.771-1.191,2.063a3.388,3.388,0,0,1-.3.436l1.18,8.191h2.391l5.993-15.619-3.05,5a2.158,2.158,0,0,1-1.383.982,2.138,2.138,0,0,1-1.662-.324l-1.748-1.2A4.058,4.058,0,0,1-2039.7,20174.223Zm-8.177,10.689h5.76l-1.008-7.012a3.313,3.313,0,0,1-.684.066h-2.381a3.3,3.3,0,0,1-.679-.066Zm-4.5,0h2.4l1.18-8.187a3.224,3.224,0,0,1-.3-.439l-1.2-2.062a3.338,3.338,0,0,1-.223-.471l-1.753,1.2a2.163,2.163,0,0,1-3.045-.658l-3.05-5Zm-26.547-3.643v3.643h24.318l-7.8-20.33A16.711,16.711,0,0,0-2078.923,20181.27Zm30.256-8.789a1.328,1.328,0,0,0,.172.7l1.19,2.063a1.284,1.284,0,0,0,1.115.643h2.381a1.292,1.292,0,0,0,1.12-.643l1.191-2.062a1.262,1.262,0,0,0,.167-.7l-3.668-2.508Zm16.03-9.6-11.085,5.451,7.169,4.9a.083.083,0,0,0,.056.01.055.055,0,0,0,.041-.031l5.765-9.443-1.6-.877a.384.384,0,0,0-.184-.049A.354.354,0,0,0-2032.638,20162.879Zm-25.068.01-1.6.877,5.76,9.443a.069.069,0,0,0,.046.031.091.091,0,0,0,.056-.01l7.169-4.9-11.085-5.451a.373.373,0,0,0-.163-.039A.378.378,0,0,0-2057.706,20162.889Zm1.571-1.721,11.136,5.477,11.136-5.477v-2.189l-1.581,1.307a14.945,14.945,0,0,1-9.555,3.439,14.934,14.934,0,0,1-9.555-3.439l-1.581-1.307Zm-4.985-16.283v2.3a10.533,10.533,0,0,0,3.82,8.133l4.073,3.373a12.913,12.913,0,0,0,16.455,0l4.073-3.373a10.533,10.533,0,0,0,3.82-8.133v-7.148h-3.268a5.55,5.55,0,0,1-5.441,4.5,5.533,5.533,0,0,1-1.566-.227,2.56,2.56,0,0,1-.963,1.828,10.349,10.349,0,0,1,5.325,7.564,1.371,1.371,0,0,1-.319,1.1,1.376,1.376,0,0,1-1.044.477h-4.058a4.364,4.364,0,0,1-1.854-.41,2.906,2.906,0,0,1-1.935.725h-2a2.926,2.926,0,0,1-1.935-.725,4.364,4.364,0,0,1-1.854.41h-4.058a1.369,1.369,0,0,1-1.044-.477,1.392,1.392,0,0,1-.324-1.1,10.353,10.353,0,0,1,5.33-7.564,2.583,2.583,0,0,1-.968-1.828,5.5,5.5,0,0,1-1.56.227,5.55,5.55,0,0,1-5.441-4.5h-3.268v.137a1.042,1.042,0,0,1-1.044,1.039,1.041,1.041,0,0,1-1.039-1.039v-.02a3.544,3.544,0,0,0-2.092-.68,1.692,1.692,0,0,0-1.692,1.688v2.027a4.347,4.347,0,0,0,3.79,4.3c-.005-.1-.005-.2-.005-.3v-2.3a1.037,1.037,0,0,1,1.039-1.039A1.038,1.038,0,0,1-2061.12,20144.885Zm14.92,8.611a.864.864,0,0,0,.2.025h2a.9.9,0,0,0,.2-.025l-1.2-1.2Zm2.173-3.16,2.214,2.209a2.24,2.24,0,0,0,1.6.662H-2037a8.254,8.254,0,0,0-6.247-6.027,3.537,3.537,0,0,1-1.748.465,3.536,3.536,0,0,1-1.748-.465,8.247,8.247,0,0,0-6.247,6.027h3.207a2.239,2.239,0,0,0,1.6-.662l2.209-2.209a1.368,1.368,0,0,1,.978-.406A1.348,1.348,0,0,1-2044.027,20150.336Zm17.23-10.184v7.031c0,.1-.005.2-.005.3a4.337,4.337,0,0,0,3.785-4.295v-2.027a1.692,1.692,0,0,0-1.692-1.687A3.529,3.529,0,0,0-2026.8,20140.152Zm-19.424-1.068a1.74,1.74,0,0,0-.537,1.26v1.15a2.036,2.036,0,0,1-1.008,1.758l-.77.451a.5.5,0,0,0-.243.426.49.49,0,0,0,.491.492h.948a1.9,1.9,0,0,1,1.327.537,1.454,1.454,0,0,0,1.013.41,1.433,1.433,0,0,0,1.008-.41,1.911,1.911,0,0,1,1.332-.537h.947a.493.493,0,0,0,.491-.492.51.51,0,0,0-.243-.426l-.77-.451a2.035,2.035,0,0,1-1.008-1.758v-1.078a1.807,1.807,0,0,0-1.677-1.824c-.031,0-.061,0-.092,0A1.729,1.729,0,0,0-2046.22,20139.084Zm5.173-.088a3.465,3.465,0,0,0,3.46,3.461,3.465,3.465,0,0,0,3.46-3.461,3.462,3.462,0,0,0-3.46-3.459A3.462,3.462,0,0,0-2041.048,20139Zm-14.824,0a3.465,3.465,0,0,0,3.46,3.461,3.468,3.468,0,0,0,3.46-3.461,3.465,3.465,0,0,0-3.46-3.459A3.462,3.462,0,0,0-2055.872,20139Zm21.719-16.064a7.322,7.322,0,0,0,2.614,7.539l3.85,2.988v-5.992a4.472,4.472,0,0,0-2.173-3.826l-3.891-2.314Zm-25.985.709a4.472,4.472,0,0,0-2.174,3.826v5.992l3.85-2.988a7.322,7.322,0,0,0,2.614-7.539l-.4-1.605Zm-9.347,57.9a1.041,1.041,0,0,1-1.039-1.039,1.041,1.041,0,0,1,1.039-1.039h8.131a1.041,1.041,0,0,1,1.039,1.039,1.041,1.041,0,0,1-1.039,1.039Zm30.453-42.547a1.443,1.443,0,0,1,1.444-1.443,1.447,1.447,0,0,1,1.449,1.443,1.449,1.449,0,0,1-1.449,1.449A1.444,1.444,0,0,1-2039.031,20138.992Zm-14.829,0a1.447,1.447,0,0,1,1.449-1.443,1.446,1.446,0,0,1,1.444,1.443,1.448,1.448,0,0,1-1.444,1.449A1.449,1.449,0,0,1-2053.86,20138.992Z" transform="translate(2081 -20118.002)" fill="url(#linear-gradient)"/>
</svg>
