<?xml version="1.0" encoding="utf-8"?>
<!-- Generator: Adobe Illustrator 16.0.0, SVG Export Plug-In . SVG Version: 6.00 Build 0)  -->
<!DOCTYPE svg PUBLIC "-//W3C//DTD SVG 1.1//EN" "http://www.w3.org/Graphics/SVG/1.1/DTD/svg11.dtd">
<svg version="1.1" id="Layer_1" xmlns="http://www.w3.org/2000/svg" xmlns:xlink="http://www.w3.org/1999/xlink" x="0px" y="0px"
	 width="49.6px" height="62px" viewBox="0 0 49.6 62" enable-background="new 0 0 49.6 62" xml:space="preserve">
<g id="Page-1" transform="translate(0)">
	<g id="_003---Credit-Card-Scam" transform="translate(0 0)">
		
			<linearGradient id="Shape_1_" gradientUnits="userSpaceOnUse" x1="-274.7097" y1="421.2188" x2="-274.7097" y2="420.2188" gradientTransform="matrix(49.6 0 0 -62 13650.417 26115.5625)">
			<stop  offset="0" style="stop-color:#00A9E0"/>
			<stop  offset="1" style="stop-color:#801C7D"/>
		</linearGradient>
		<path id="Shape" fill="url(#Shape_1_)" d="M47.533,41.523v-2.256c-0.006-1.31-0.833-2.475-2.067-2.91v-3.291
			c0-1.711-1.388-3.1-3.1-3.1h-3.101v-6.2c0-1.712-1.388-3.1-3.1-3.1h-5.148c0.019-0.376,0.013-0.753-0.018-1.129
			c-0.134-1.221-0.489-2.407-1.048-3.5l12.699,6.019c1.702,0.818,3.745,0.101,4.563-1.601c0.785-1.635,0.158-3.598-1.43-4.475
			c-0.388-0.215-0.833-0.461-1.321-0.723c0.322-0.825,0.378-1.731,0.158-2.59c-0.48-1.477-1.586-2.667-3.022-3.255
			c-3.057-1.539-11.671-3.007-16.653-3.755C17.658,2.54,10.184,0,5.167,0c-0.781,0-1.55,0.023-2.29,0.069
			C1.253,0.183-0.005,1.535,0,3.163v8.758c0,1.706,1.383,3.089,3.089,3.089c0.081,0,0.161-0.003,0.242-0.01
			c1.209-0.105,2.415,0.242,3.384,0.974c1.101,0.874,2.028,1.946,2.735,3.161c0.316,0.521,0.63,1.029,0.941,1.528h-0.06
			c-1.712,0-3.101,1.388-3.101,3.1l0,0V30.1c-3.746,0.428-6.199,1.98-6.199,4v23.768C1.033,60.58,5.191,62,9.3,62h35.133
			c1.712,0,3.101-1.388,3.101-3.1v-2.258c1.234-0.436,2.062-1.601,2.066-2.91v-9.299C49.595,43.124,48.768,41.959,47.533,41.523z
			 M42.366,32.033c0.57-0.001,1.033,0.461,1.033,1.031c0,0.001,0,0.002,0,0.002v3.101h-4.133v-4.134H42.366z M40.675,11.257
			c0.889,0.338,1.595,1.034,1.944,1.918c0.091,0.353,0.088,0.724-0.008,1.075c-2.719-1.459-6.323-3.333-10.3-5.239
			C35.173,9.455,37.977,10.208,40.675,11.257z M7.975,14.338c-1.374-1.045-3.087-1.543-4.807-1.4
			c-0.284,0.025-0.564-0.073-0.772-0.268c-0.211-0.193-0.331-0.467-0.33-0.754V3.163C2.059,2.625,2.47,2.173,3.006,2.13
			c0.7-0.041,1.423-0.063,2.161-0.063c10.788,0,34.889,13.1,39.617,15.724c0.662,0.346,0.92,1.163,0.574,1.826
			c-0.346,0.663-1.163,0.92-1.825,0.574l0,0L27.309,12.5c-0.449-0.208-0.983-0.062-1.265,0.345c-0.288,0.412-0.246,0.97,0.1,1.334
			c1.494,1.506,2.47,3.448,2.786,5.546c0.026,0.313,0.031,0.628,0.014,0.942h-2.253c0-0.116,0.015-0.235,0.01-0.349
			c-0.216-2.254-1.639-4.214-3.716-5.118c-1.137-0.545-3.273-1.357-4.872-0.682c-0.73,0.309-1.289,0.924-1.525,1.682
			c-0.504,1.969-0.295,4.052,0.59,5.882v0.02c0.228,0.565,0.489,1.148,0.776,1.733l0.041,0.123c0.208,0.577-0.036,1.22-0.575,1.512
			c-0.601,0.299-1.33,0.098-1.693-0.467c-0.154-0.226-1.033-1.458-2.591-3.863c-0.62-0.966-1.264-2-1.918-3.076
			c-0.839-1.435-1.939-2.699-3.244-3.729L7.975,14.338z M18.868,20.666c-0.526-1.198-0.64-2.538-0.321-3.807
			c0.046-0.198,0.185-0.362,0.372-0.44c1.099-0.158,2.219,0.069,3.17,0.642c1.381,0.582,2.351,1.853,2.547,3.339
			c0,0.085-0.005,0.175-0.008,0.262L18.868,20.666z M9.3,23.767c0-0.571,0.463-1.033,1.033-1.033h1.373
			c1.318,2.019,1.577,2.365,2.32,3.448c0.646,0.935,1.707,1.495,2.844,1.5c0.553,0.002,1.098-0.141,1.579-0.413
			c1.38-0.758,2.025-2.392,1.535-3.889c-0.039-0.156-0.095-0.308-0.167-0.453c-0.03-0.062-0.062-0.131-0.092-0.2h16.441
			c0.57,0,1.033,0.462,1.033,1.033c0,0.002,0,0.005,0,0.007v12.4H9.3V23.767z M7.233,32.182v3.834C4.64,35.654,3.1,34.686,3.1,34.1
			C3.1,33.568,4.519,32.55,7.233,32.182z M44.433,59.934H9.3c-3.846,0-6.2-1.344-6.2-2.067V36.925c1.936,0.917,4.06,1.364,6.2,1.308
			h35.133c0.57,0,1.033,0.463,1.033,1.033l0,0v2.067H41.85c-4.28,0-7.75,3.47-7.75,7.75s3.47,7.75,7.75,7.75h3.617V58.9
			C45.467,59.471,45.004,59.934,44.433,59.934L44.433,59.934z M47.533,53.732c0,0.571-0.462,1.034-1.032,1.035
			c-0.001,0-0.001,0-0.001,0h-4.65c-3.139,0-5.684-2.545-5.684-5.684c0-3.14,2.545-5.684,5.684-5.684h4.65
			c0.57,0,1.033,0.462,1.033,1.033l0,0V53.732z"/>
		
			<linearGradient id="Shape-2_1_" gradientUnits="userSpaceOnUse" x1="-242.5579" y1="373.6641" x2="-242.5579" y2="372.6641" gradientTransform="matrix(7.234 0 0 -7.234 1796.5178 2748.543)">
			<stop  offset="0" style="stop-color:#00A9E0"/>
			<stop  offset="1" style="stop-color:#801C7D"/>
		</linearGradient>
		<path id="Shape-2" fill="url(#Shape-2_1_)" d="M41.85,45.467c-1.997,0-3.617,1.619-3.617,3.617s1.62,3.617,3.617,3.617
			c1.998,0,3.617-1.619,3.617-3.617S43.848,45.467,41.85,45.467L41.85,45.467z M41.85,50.634c-0.855,0-1.55-0.694-1.55-1.55
			s0.694-1.55,1.55-1.55c0.856,0,1.55,0.694,1.55,1.55l0,0C43.4,49.939,42.706,50.634,41.85,50.634z"/>
		
			<linearGradient id="Shape-3_1_" gradientUnits="userSpaceOnUse" x1="-258.2703" y1="373.667" x2="-258.2703" y2="372.667" gradientTransform="matrix(12.417 0 0 -7.2345 3236.9148 2729.1208)">
			<stop  offset="0" style="stop-color:#00A9E0"/>
			<stop  offset="1" style="stop-color:#801C7D"/>
		</linearGradient>
		<path id="Shape-3" fill="url(#Shape-3_1_)" d="M32.55,25.833c-0.974,0-1.906,0.394-2.584,1.093
			c-1.394-1.431-3.684-1.461-5.115-0.067c-1.431,1.394-1.461,3.684-0.067,5.114c1.394,1.432,3.684,1.462,5.115,0.068
			c0.022-0.022,0.045-0.045,0.067-0.068c1.394,1.432,3.684,1.463,5.114,0.069c1.432-1.394,1.463-3.684,0.069-5.115
			C34.467,26.226,33.529,25.831,32.55,25.833z M27.383,31c-0.856,0-1.55-0.694-1.55-1.55c0-0.856,0.693-1.55,1.55-1.55
			s1.55,0.694,1.55,1.55l0,0C28.933,30.306,28.24,31,27.383,31z M32.55,31C31.694,31,31,30.306,31,29.45
			c0-0.856,0.693-1.55,1.55-1.55s1.55,0.694,1.55,1.55l0,0C34.1,30.306,33.406,31,32.55,31z"/>
		
			<linearGradient id="Shape-4_1_" gradientUnits="userSpaceOnUse" x1="-148.4631" y1="333.2803" x2="-148.4631" y2="332.2803" gradientTransform="matrix(2.067 0 0 -4.1335 313.0742 1417.9122)">
			<stop  offset="0" style="stop-color:#00A9E0"/>
			<stop  offset="1" style="stop-color:#801C7D"/>
		</linearGradient>
		<path id="Shape-4" fill="url(#Shape-4_1_)" d="M6.2,40.3c-0.571,0-1.033,0.463-1.033,1.033l0,0V43.4
			c0,0.57,0.463,1.033,1.033,1.033c0.571,0,1.033-0.463,1.033-1.033v-2.067C7.234,40.763,6.772,40.3,6.2,40.3
			C6.2,40.3,6.2,40.3,6.2,40.3z"/>
		
			<linearGradient id="Shape-5_1_" gradientUnits="userSpaceOnUse" x1="-148.4626" y1="389.8105" x2="-148.4626" y2="388.8105" gradientTransform="matrix(2.067 0 0 -10.3335 313.0742 4074.6145)">
			<stop  offset="0" style="stop-color:#00A9E0"/>
			<stop  offset="1" style="stop-color:#801C7D"/>
		</linearGradient>
		<path id="Shape-5" fill="url(#Shape-5_1_)" d="M6.2,46.5c-0.571,0-1.033,0.463-1.033,1.033l0,0V55.8
			c0,0.571,0.463,1.034,1.033,1.034c0.571,0,1.033-0.463,1.033-1.034v-8.267C7.234,46.963,6.772,46.5,6.2,46.5
			C6.2,46.5,6.2,46.5,6.2,46.5z"/>
	</g>
</g>
</svg>
