<?xml version="1.0" encoding="utf-8"?>
<!-- Generator: Adobe Illustrator 16.0.0, SVG Export Plug-In . SVG Version: 6.00 Build 0)  -->
<!DOCTYPE svg PUBLIC "-//W3C//DTD SVG 1.1//EN" "http://www.w3.org/Graphics/SVG/1.1/DTD/svg11.dtd">
<svg version="1.1" id="Layer_1" xmlns="http://www.w3.org/2000/svg" xmlns:xlink="http://www.w3.org/1999/xlink" x="0px" y="0px"
	 width="63px" height="51.506px" viewBox="0 0 63 51.506" enable-background="new 0 0 63 51.506" xml:space="preserve">
<g id="hospitalisation" transform="translate(0 -46.705)">
	
		<linearGradient id="Ellipse_206_1_" gradientUnits="userSpaceOnUse" x1="-172.5059" y1="281.038" x2="-172.5059" y2="280.038" gradientTransform="matrix(2.219 -0.2208 -0.2208 -2.219 466.5826 648.4503)">
		<stop  offset="0.13" style="stop-color:#00A9ED"/>
		<stop  offset="1" style="stop-color:#65106B"/>
	</linearGradient>
	<circle id="Ellipse_206" fill="url(#Ellipse_206_1_)" cx="21.845" cy="64.013" r="1.115"/>
	
		<linearGradient id="Ellipse_207_1_" gradientUnits="userSpaceOnUse" x1="-172.5059" y1="281.038" x2="-172.5059" y2="280.038" gradientTransform="matrix(2.219 -0.2208 -0.2208 -2.219 474.1725 648.4464)">
		<stop  offset="0.13" style="stop-color:#00A9ED"/>
		<stop  offset="1" style="stop-color:#65106B"/>
	</linearGradient>
	<circle id="Ellipse_207" fill="url(#Ellipse_207_1_)" cx="29.436" cy="64.009" r="1.115"/>
	
		<linearGradient id="Path_17437_1_" gradientUnits="userSpaceOnUse" x1="-223.1318" y1="256.9814" x2="-223.1318" y2="255.9814" gradientTransform="matrix(5.2733 0 0 -1.862 1202.1301 546.4813)">
		<stop  offset="0.13" style="stop-color:#00A9ED"/>
		<stop  offset="1" style="stop-color:#65106B"/>
	</linearGradient>
	<path id="Path_17437" fill="url(#Path_17437_1_)" d="M27.164,67.975h-3.351c-0.514-0.017-0.944,0.386-0.961,0.9
		c-0.017,0.514,0.386,0.944,0.9,0.961c0.02,0.001,0.041,0.001,0.061,0h3.35c0.514,0.017,0.944-0.386,0.961-0.9
		c0.017-0.514-0.386-0.944-0.9-0.961C27.204,67.975,27.184,67.975,27.164,67.975L27.164,67.975z"/>
	
		<linearGradient id="Path_17438_1_" gradientUnits="userSpaceOnUse" x1="-269.2866" y1="461.2939" x2="-269.2866" y2="460.2939" gradientTransform="matrix(63.0295 0 0 -51.5075 17004.4941 23806.8438)">
		<stop  offset="0.13" style="stop-color:#00A9ED"/>
		<stop  offset="1" style="stop-color:#65106B"/>
	</linearGradient>
	<path id="Path_17438" fill="url(#Path_17438_1_)" d="M61.248,50.912h-2.811v-2.346h3.631c0.514,0.017,0.943-0.386,0.961-0.9
		c0.017-0.514-0.387-0.944-0.9-0.961c-0.02,0-0.041,0-0.061,0H14.236c-0.514-0.017-0.944,0.386-0.961,0.9
		c-0.017,0.514,0.386,0.944,0.9,0.961c0.021,0.001,0.041,0.001,0.061,0h42.34v2.346h-2.811c-0.967,0.001-1.75,0.784-1.752,1.751v8.1
		c0.002,2.008,1.1,3.856,2.861,4.82l-0.607,0.977c-0.908,1.469-0.99,3.303-0.221,4.849l2.528,5.027
		c0.609,1.227,0.349,2.707-0.644,3.649L51.3,84.268V66.324c0-1.436-1.164-2.6-2.6-2.6h-2.69c-0.069-0.456-0.174-0.905-0.312-1.344
		c-0.12-0.383-0.14-0.792-0.054-1.185l0.686-3.183c0.211-0.979-0.411-1.945-1.391-2.156c-0.252-0.054-0.514-0.054-0.766,0
		c-0.965,0.127-3.326,0.964-4.309,0.6c-0.368-0.122-0.744-0.221-1.124-0.295c-0.507-0.085-0.987,0.257-1.072,0.764
		c-0.082,0.488,0.232,0.956,0.716,1.063c0.303,0.059,0.602,0.137,0.893,0.234c0.709,0.234,1.466,0.274,2.195,0.117l3.022-0.652
		L43.83,60.8c-0.35,1.334,0.457,2.772,0.432,4.314v9.625c0,0.746-0.114,1.488-0.34,2.199c-0.07,0.227-0.122,0.457-0.154,0.691
		C41.6,75.705,38.8,74.643,35.9,74.645h-3.992v-0.914c1.326-1.279,2.229-2.934,2.584-4.742c1.381-0.567,2.444-1.711,2.908-3.131
		c0.702-1.826-0.196-3.878-2.016-4.6l0,0c-0.233-0.077-0.479-0.115-0.724-0.113v-4.438c-0.004-2.705-2.195-4.896-4.9-4.9H21.5
		c-2.431,0.005-4.492,1.788-4.846,4.193h-2.39c-1.316-0.134-2.646,0.663-4.083,0.526l-3.095-0.667
		c-0.98-0.21-1.945,0.413-2.156,1.393c-0.054,0.251-0.054,0.512,0,0.763L5.617,61.2c0.084,0.393,0.066,0.801-0.054,1.185
		c-0.138,0.439-0.242,0.889-0.312,1.344H2.889V50.572c0.001-1.107,0.898-2.003,2.005-2.005h5.06c0.514,0.017,0.944-0.386,0.961-0.9
		c0.017-0.514-0.386-0.944-0.9-0.961c-0.021,0-0.041,0-0.061,0H4.895c-2.135,0.002-3.865,1.732-3.867,3.867v13.686
		C0.381,64.749,0.001,65.513,0,66.324l0.023,30.26c0.001,0.899,0.729,1.627,1.628,1.628h48.012c0.899,0,1.628-0.729,1.628-1.628
		l0.014-9.8l5.881-5.321l0.012-0.011c1.596-1.508,2.019-3.883,1.041-5.848L55.71,70.57c-0.481-0.966-0.43-2.112,0.138-3.03
		l0.838-1.349c0.271,0.041,0.546,0.061,0.82,0.061l0,0c1.922,0,3.703-1.004,4.7-2.647c0.51-0.863,0.786-1.844,0.8-2.846v-8.1
		C63.002,51.691,62.216,50.909,61.248,50.912z M49.443,66.324v19.629l-1.018,0.92c-0.212-0.192-0.428-0.379-0.646-0.562
		c-0.035-2.155-0.662-4.26-1.809-6.084c-0.299-0.877-0.392-1.81-0.271-2.728c0.282-0.893,0.427-1.823,0.426-2.76v-9.154h2.584
		c0.407,0,0.737,0.331,0.737,0.738H49.443z M21.22,75.116c2.741,1.538,6.085,1.538,8.827,0v1.689c0,0.422-0.342,0.764-0.764,0.765
		h-7.3c-0.421-0.001-0.763-0.343-0.764-0.765L21.22,75.116z M34.813,63.024c0.838,0.409,1.201,1.408,0.82,2.258
		c-0.316,0.973-1.311,1.962-2.007,2c-0.452,0.023-0.823,0.369-0.877,0.819c-0.476,3.93-4.048,6.73-7.978,6.254
		c-3.275-0.397-5.857-2.979-6.254-6.254c-0.054-0.45-0.424-0.796-0.877-0.819c-0.7-0.035-1.69-1.024-2.007-2
		c-0.38-0.851-0.018-1.85,0.82-2.258c0.032-0.013,0.065-0.021,0.1-0.023c0.061,0,0.114,0.043,0.223,0.2
		c0.235,0.33,0.656,0.47,1.041,0.347c0.48-0.137,0.739-0.814,0.647-1.461c0.002-1.974,1.602-3.574,3.576-3.576h7.187
		c1.971,0.003,3.568,1.601,3.573,3.572c-0.021,0.5-0.058,1.157,0.647,1.461c0.385,0.123,0.807-0.017,1.041-0.347
		c0.16-0.225,0.199-0.212,0.32-0.173H34.813z M18.464,56.707c0.002-1.678,1.362-3.038,3.04-3.04h8.259
		c1.678,0.002,3.038,1.362,3.04,3.04v1.285c-0.988-0.869-2.26-1.347-3.576-1.346h-7.188c-1.316-0.001-2.587,0.478-3.576,1.346
		L18.464,56.707z M9.789,58.344c0.729,0.157,1.486,0.117,2.194-0.117c0.736-0.244,1.507-0.369,2.282-0.368H16.6v3.281
		c-0.246-0.002-0.491,0.036-0.725,0.113c-1.819,0.722-2.718,2.773-2.015,4.6c0.464,1.42,1.528,2.565,2.911,3.131
		c0.355,1.808,1.257,3.463,2.584,4.742v0.916h-3.99c-2.9-0.001-5.698,1.063-7.865,2.989c-0.032-0.233-0.083-0.466-0.154-0.69
		c-0.226-0.712-0.34-1.454-0.339-2.2v-9.622c-0.079-1.331,0.775-2.782,0.431-4.314l-0.671-3.112L9.789,58.344z M1.861,66.324
		c0-0.408,0.331-0.738,0.738-0.738h2.546v9.157c-0.001,0.937,0.143,1.867,0.426,2.76c0.281,0.567-0.146,2.109-0.275,2.723
		c-1.149,1.828-1.775,3.936-1.81,6.095c-0.372,0.31-0.734,0.632-1.086,0.969c-0.189,0.182-0.37,0.374-0.54,0.574L1.861,66.324
		L1.861,66.324z M49.43,96.351H1.884v-3.485c0.001-1.597,0.651-3.124,1.8-4.232c2.557-2.456,5.766-4.126,9.245-4.813
		c0.507-0.085,0.85-0.563,0.766-1.071c-0.084-0.507-0.564-0.85-1.071-0.766c-0.019,0.003-0.037,0.006-0.056,0.011
		c-2.521,0.497-4.926,1.468-7.086,2.862c0.821-4.817,4.992-8.343,9.878-8.35h3.993v0.301c0.001,1.448,1.176,2.623,2.625,2.625h7.3
		c1.449-0.002,2.624-1.177,2.625-2.625v-0.301H35.9c4.881,0.007,9.05,3.525,9.875,8.338c-3.293-2.119-7.129-3.243-11.045-3.236
		H17.094c-0.514-0.016-0.944,0.387-0.961,0.9c-0.017,0.514,0.386,0.944,0.9,0.961c0.02,0.001,0.041,0.001,0.061,0H34.73
		c4.183-0.009,8.246,1.401,11.523,4l0.027,0.021c0.467,0.372,0.918,0.768,1.354,1.188c1.143,1.107,1.79,2.63,1.795,4.221V96.351z
		 M61.139,52.774v2.567h-7.264v-2.567H61.139z M60.852,62.174c-0.599,1.319-1.897,2.18-3.346,2.219
		c-2.004-0.002-3.629-1.626-3.631-3.631V57.2h7.264v3.559C61.139,61.245,61.041,61.726,60.852,62.174L60.852,62.174z"/>
</g>
</svg>
