<?xml version="1.0" encoding="utf-8"?>
<!-- Generator: Adobe Illustrator 14.0.0, SVG Export Plug-In . SVG Version: 6.00 Build 43363)  -->
<!DOCTYPE svg PUBLIC "-//W3C//DTD SVG 1.1//EN" "http://www.w3.org/Graphics/SVG/1.1/DTD/svg11.dtd">
<svg version="1.1" id="Layer_1" xmlns="http://www.w3.org/2000/svg" xmlns:xlink="http://www.w3.org/1999/xlink" x="0px" y="0px"
	 width="63px" height="63.018px" viewBox="0 0 63 63.018" enable-background="new 0 0 63 63.018" xml:space="preserve">
<g id="Group_3670" transform="translate(-868 -6638.001)">
	
		<linearGradient id="Path_17726_1_" gradientUnits="userSpaceOnUse" x1="1758.2124" y1="11.5684" x2="1758.2124" y2="12.5685" gradientTransform="matrix(63.0001 0 0 63.0227 -109868.0625 5908.9209)">
		<stop  offset="0.13" style="stop-color:#00A9ED"/>
		<stop  offset="1" style="stop-color:#65106B"/>
	</linearGradient>
	<path id="Path_17726" fill="url(#Path_17726_1_)" d="M929.949,6677.918H928.9v-2.102c0-0.579-0.471-1.05-1.051-1.05h-4.199
		c-0.58,0-1.051,0.472-1.051,1.05l0,0v2.102h-16.015c-0.808-0.51-1.676-0.913-2.586-1.2l-6.6-2.055v-5.724
		c0.278-0.229,0.564-0.448,0.816-0.699c2.172-2.165,3.391-5.107,3.385-8.174v-1.05c1.734,0.01,3.15-1.39,3.16-3.125
		c0.008-1.331-0.824-2.523-2.078-2.976c0.646-0.591,1.014-1.425,1.019-2.3v-2.101c-0.009-1.632-1.261-2.987-2.888-3.124
		c-2.276-5.939-8.938-8.909-14.876-6.632c-3.052,1.169-5.463,3.58-6.632,6.632c-1.635,0.125-2.899,1.484-2.904,3.124v2.101
		c0.003,0.875,0.372,1.709,1.017,2.3c-1.633,0.588-2.48,2.39-1.892,4.021c0.451,1.254,1.644,2.086,2.975,2.078v1.05
		c-0.005,3.441,1.537,6.705,4.2,8.887v5.709l-6.591,2.056c-4.833,1.486-8.125,5.96-8.109,11.017v12.233c0,0.58,0.47,1.05,1.05,1.05
		h42c0.58,0,1.05-0.471,1.05-1.05v-3.15h1.051c0.541,0.003,0.996-0.405,1.051-0.943l0.533-5.355h4.715
		c0.481,0,0.9-0.328,1.018-0.795l0.854-3.404h8.63c0.579,0.001,1.051-0.47,1.051-1.049c0,0,0,0,0-0.001v-6.3
		c0-0.58-0.47-1.05-1.049-1.05C929.95,6677.918,929.949,6677.918,929.949,6677.918z M924.701,6676.868h2.1v1.05h-2.1V6676.868z
		 M884.799,6670.35c1.309,0.674,2.735,1.088,4.2,1.218v5.943l-4.2-1.4V6670.35z M891.1,6671.566c1.465-0.13,2.892-0.543,4.2-1.217
		v5.762l-4.2,1.398V6671.566z M880.662,6661.118c-0.04-0.35-0.061-0.699-0.062-1.051v-6.3h18.9v6.3
		c-0.001,0.352-0.022,0.702-0.062,1.051h-4.754l-1.792-1.792c-0.197-0.197-0.464-0.309-0.742-0.31h-4.2
		c-0.278,0-0.545,0.11-0.742,0.309l-1.793,1.793H880.662z M901.599,6656.918v-2.102c0.579,0,1.051,0.472,1.051,1.051
		S902.179,6656.918,901.599,6656.918z M883.369,6642.888c3.691-3.688,9.674-3.688,13.364,0.003c0.724,0.725,1.325,1.563,1.781,2.479
		H881.6C882.051,6644.452,882.648,6643.613,883.369,6642.888z M878.5,6648.518c0-0.58,0.47-1.05,1.05-1.05l0,0h21
		c0.58,0,1.05,0.471,1.05,1.05v2.102c0,0.579-0.47,1.05-1.05,1.05h-21c-0.58,0-1.05-0.472-1.05-1.05V6648.518z M877.45,6655.868
		c0-0.58,0.47-1.051,1.05-1.051l0,0v2.101C877.919,6656.918,877.451,6656.448,877.45,6655.868L877.45,6655.868z M881.149,6663.218
		h4.7c0.278,0,0.545-0.11,0.742-0.308l1.792-1.793h3.331l1.792,1.792c0.197,0.196,0.464,0.309,0.742,0.309h4.706
		c-0.469,1.329-1.229,2.535-2.226,3.53c-0.315,0.314-0.653,0.605-1.012,0.87c-4.169,3.13-10.088,2.287-13.218-1.883
		C881.923,6664.971,881.468,6664.122,881.149,6663.218L881.149,6663.218z M870.1,6687.733c-0.015-4.007,2.516-7.581,6.3-8.898
		v20.083h-6.3V6687.733z M897.399,6698.918h-14.7v-11.55c0-0.58,0.47-1.051,1.05-1.051h12.6c0.58,0,1.05,0.471,1.05,1.051V6698.918
		L897.399,6698.918z M910,6698.918h-6.299v-11.55h-2.102v11.55h-2.1v-11.55c0-1.74-1.41-3.15-3.15-3.15l0,0h-12.6
		c-1.74,0-3.15,1.41-3.15,3.15l0,0v11.55h-2.1v-20.749l4.2-1.313v0.013c-0.002,0.453,0.288,0.855,0.718,1l6.3,2.1
		c0.216,0.072,0.449,0.072,0.664,0l6.3-2.1c0.43-0.145,0.72-0.547,0.718-1v-0.012l5.971,1.859c0.121,0.038,0.232,0.094,0.352,0.136
		c-0.01,0.036-0.018,0.072-0.021,0.109v6.3c0,0.58,0.469,1.05,1.049,1.05h1.996l-0.935,9.346c-0.063,0.576,0.356,1.093,0.935,1.154
		c0.034,0.003,0.067,0.005,0.104,0.005H910V6698.918z M908,6694.718l0.84-8.4h4.201l-0.84,8.4H908z M918.619,6688.418h-3.68
		l0.209-2.102h4L918.619,6688.418z M928.9,6684.218h-23.101v-4.2H928.9V6684.218z"/>
	
		<linearGradient id="Rectangle_787_1_" gradientUnits="userSpaceOnUse" x1="2010.9282" y1="347.1357" x2="2010.9282" y2="348.1355" gradientTransform="matrix(2.1 0 0 2.1 -3338.1479 5926.8877)">
		<stop  offset="0.13" style="stop-color:#00A9ED"/>
		<stop  offset="1" style="stop-color:#65106B"/>
	</linearGradient>
	<rect id="Rectangle_787" x="883.75" y="6655.869" fill="url(#Rectangle_787_1_)" width="2.1" height="2.1"/>
	
		<linearGradient id="Rectangle_788_1_" gradientUnits="userSpaceOnUse" x1="2010.9282" y1="347.1357" x2="2010.9282" y2="348.1355" gradientTransform="matrix(2.1 0 0 2.1 -3327.6479 5926.8877)">
		<stop  offset="0.13" style="stop-color:#00A9ED"/>
		<stop  offset="1" style="stop-color:#65106B"/>
	</linearGradient>
	<rect id="Rectangle_788" x="894.25" y="6655.869" fill="url(#Rectangle_788_1_)" width="2.1" height="2.1"/>
	
		<linearGradient id="Rectangle_789_1_" gradientUnits="userSpaceOnUse" x1="1836.6431" y1="347.1348" x2="1836.6431" y2="348.1355" gradientTransform="matrix(6.3 0 0 2.1 -10680.7949 5935.2861)">
		<stop  offset="0.13" style="stop-color:#00A9ED"/>
		<stop  offset="1" style="stop-color:#65106B"/>
	</linearGradient>
	<rect id="Rectangle_789" x="886.899" y="6664.269" fill="url(#Rectangle_789_1_)" width="6.3" height="2.102"/>
</g>
</svg>
