<?xml version="1.0" encoding="utf-8"?>
<!-- Generator: Adobe Illustrator 16.0.0, SVG Export Plug-In . SVG Version: 6.00 Build 0)  -->
<!DOCTYPE svg PUBLIC "-//W3C//DTD SVG 1.1//EN" "http://www.w3.org/Graphics/SVG/1.1/DTD/svg11.dtd">
<svg version="1.1" id="hospital" xmlns="http://www.w3.org/2000/svg" xmlns:xlink="http://www.w3.org/1999/xlink" x="0px" y="0px"
	 width="70.441px" height="70.441px" viewBox="0 0 70.441 70.441" enable-background="new 0 0 70.441 70.441" xml:space="preserve">
<linearGradient id="Path_18101_1_" gradientUnits="userSpaceOnUse" x1="-255.8376" y1="411.2126" x2="-255.8376" y2="410.2126" gradientTransform="matrix(18.784 0 0 -18.784 4830.3096 7724.1934)">
	<stop  offset="0" style="stop-color:#00A9E0"/>
	<stop  offset="1" style="stop-color:#801C7D"/>
</linearGradient>
<path id="Path_18101" fill="url(#Path_18101_1_)" d="M18.784,18.784h11.74c1.945,0,3.521-1.577,3.521-3.521l0,0V3.522
	C34.046,1.577,32.469,0,30.524,0l0,0h-11.74c-1.945,0-3.521,1.577-3.521,3.522l0,0v11.74C15.262,17.207,16.839,18.784,18.784,18.784
	L18.784,18.784z M17.61,3.522c0-0.648,0.525-1.174,1.174-1.174l0,0h11.74c0.648,0,1.174,0.525,1.174,1.174l0,0v11.74
	c0,0.647-0.525,1.174-1.174,1.174l0,0h-11.74c-0.648,0-1.174-0.526-1.174-1.174l0,0V3.522z"/>
<linearGradient id="Path_18102_1_" gradientUnits="userSpaceOnUse" x1="-266.0627" y1="425.4109" x2="-266.0627" y2="424.4109" gradientTransform="matrix(70.441 0 0 -61.048 18776.9102 25979.8203)">
	<stop  offset="0" style="stop-color:#00A9E0"/>
	<stop  offset="1" style="stop-color:#801C7D"/>
</linearGradient>
<path id="Path_18102" fill="url(#Path_18102_1_)" d="M68.093,63.397h-1.174V29.35c-0.004-3.24-2.629-5.866-5.87-5.87H49.309
	c-0.648-0.001-1.175,0.524-1.175,1.173c-0.001,0.648,0.524,1.175,1.173,1.175c0.001,0,0.001,0,0.002,0h11.739
	c1.945,0,3.522,1.577,3.522,3.522l0,0v34.047H45.787V15.261c-0.004-3.24-2.63-5.865-5.87-5.869h-2.348
	c-0.648-0.001-1.175,0.524-1.175,1.173s0.524,1.175,1.173,1.175c0.001,0,0.001,0,0.002,0h2.348c1.945,0,3.522,1.577,3.522,3.521l0,0
	v48.136h-8.218V52.831h1.174c1.297,0,2.348-1.051,2.348-2.348v-2.349c0-1.296-1.051-2.348-2.348-2.348H16.436v-7.044h16.437
	c0.648,0,1.174-0.526,1.174-1.175c-0.001-0.647-0.525-1.173-1.174-1.173H16.436c-1.297,0-2.349,1.051-2.349,2.348v7.044h-1.174
	c-1.297,0-2.348,1.052-2.348,2.348v2.349c0,1.297,1.051,2.348,2.348,2.348h1.174v10.566H5.87V15.261
	c0-1.944,1.577-3.521,3.522-3.521l0,0h2.348c0.648,0,1.175-0.525,1.175-1.173c0-0.648-0.525-1.175-1.173-1.175
	c-0.001,0-0.001,0-0.002,0H9.392c-3.24,0.004-5.866,2.629-5.87,5.869v48.136H2.348C1.052,63.397,0,64.448,0,65.745v2.347
	c0,1.297,1.052,2.349,2.349,2.349h65.744c1.297,0,2.349-1.052,2.349-2.349v-2.348C70.44,64.448,69.389,63.397,68.093,63.397z
	 M32.872,63.397h-7.043V52.831h7.044L32.872,63.397z M12.914,50.483v-2.349h23.48v2.349H12.914z M16.436,52.831h7.044v10.566h-7.044
	V52.831z M2.348,68.092v-2.348h65.744v2.348H2.348z"/>
<linearGradient id="Path_18103_1_" gradientUnits="userSpaceOnUse" x1="-232.6233" y1="377.03" x2="-232.6233" y2="376.03" gradientTransform="matrix(7.048 0 0 -7.044 1697.0563 2686.3279)">
	<stop  offset="0" style="stop-color:#00A9E0"/>
	<stop  offset="1" style="stop-color:#801C7D"/>
</linearGradient>
<path id="Path_18103" fill="url(#Path_18103_1_)" d="M56.353,37.569h2.352c1.297,0,2.349-1.052,2.349-2.348v-2.349
	c0-1.297-1.052-2.348-2.349-2.348h-2.348c-1.297-0.002-2.35,1.047-2.353,2.344c0,0.001,0,0.003,0,0.004v2.353
	C54.008,36.52,55.057,37.569,56.353,37.569z M56.353,32.869h2.352v2.356h-2.348L56.353,32.869z"/>
<linearGradient id="Path_18104_1_" gradientUnits="userSpaceOnUse" x1="-158.2463" y1="349.6306" x2="-158.2463" y2="348.6306" gradientTransform="matrix(2.348 0 0 -4.6929 420.8687 1672.4943)">
	<stop  offset="0" style="stop-color:#00A9E0"/>
	<stop  offset="1" style="stop-color:#801C7D"/>
</linearGradient>
<path id="Path_18104" fill="url(#Path_18104_1_)" d="M49.309,36.399c0.648,0,1.174-0.525,1.174-1.174l0,0v-2.349
	c-0.002-0.648-0.528-1.173-1.177-1.171c-0.646,0.002-1.17,0.525-1.171,1.171v2.349C48.135,35.874,48.661,36.399,49.309,36.399z"/>
<linearGradient id="Path_18105_1_" gradientUnits="userSpaceOnUse" x1="-232.6233" y1="366.0564" x2="-232.6233" y2="365.0574" gradientTransform="matrix(7.048 0 0 -5.8669 1697.0563 2189.8818)">
	<stop  offset="0" style="stop-color:#00A9E0"/>
	<stop  offset="1" style="stop-color:#801C7D"/>
</linearGradient>
<path id="Path_18105" fill="url(#Path_18105_1_)" d="M54.005,45.787c0,1.297,1.052,2.348,2.349,2.348h2.352
	c1.297,0,2.349-1.051,2.349-2.348v-2.348c-0.002-0.648-0.529-1.173-1.178-1.171c-0.646,0.001-1.169,0.524-1.171,1.171v2.348h-2.348
	v-2.348c-0.002-0.648-0.529-1.173-1.177-1.171c-0.646,0.001-1.17,0.524-1.171,1.171L54.005,45.787z"/>
<linearGradient id="Path_18106_1_" gradientUnits="userSpaceOnUse" x1="-158.2458" y1="349.6306" x2="-158.2458" y2="348.6306" gradientTransform="matrix(2.348 0 0 -4.6929 420.8687 1683.0522)">
	<stop  offset="0" style="stop-color:#00A9E0"/>
	<stop  offset="1" style="stop-color:#801C7D"/>
</linearGradient>
<path id="Path_18106" fill="url(#Path_18106_1_)" d="M49.309,46.965c0.648,0,1.174-0.525,1.174-1.174l0,0v-2.348
	c-0.002-0.648-0.528-1.173-1.177-1.171c-0.646,0.002-1.17,0.524-1.171,1.171v2.348C48.135,46.439,48.661,46.965,49.309,46.965z"/>
<linearGradient id="Path_18107_1_" gradientUnits="userSpaceOnUse" x1="-232.6233" y1="377.0603" x2="-232.6233" y2="376.0603" gradientTransform="matrix(7.048 0 0 -7.048 1697.0563 2709.1816)">
	<stop  offset="0" style="stop-color:#00A9E0"/>
	<stop  offset="1" style="stop-color:#801C7D"/>
</linearGradient>
<path id="Path_18107" fill="url(#Path_18107_1_)" d="M54.005,56.357c0,1.297,1.052,2.348,2.349,2.348h2.352
	c1.297,0,2.349-1.051,2.349-2.348v-2.349c0.002-1.296-1.048-2.35-2.345-2.352c-0.001,0-0.002,0-0.004,0h-2.348
	c-1.297-0.002-2.35,1.047-2.353,2.344c0,0.002,0,0.003,0,0.004V56.357z M56.353,54.009h2.352v2.349h-2.348L56.353,54.009z"/>
<linearGradient id="Path_18108_1_" gradientUnits="userSpaceOnUse" x1="-158.2458" y1="349.6306" x2="-158.2458" y2="348.6306" gradientTransform="matrix(2.348 0 0 -4.6929 420.8687 1693.6187)">
	<stop  offset="0" style="stop-color:#00A9E0"/>
	<stop  offset="1" style="stop-color:#801C7D"/>
</linearGradient>
<path id="Path_18108" fill="url(#Path_18108_1_)" d="M49.309,57.531c0.648,0,1.174-0.525,1.174-1.174l0,0v-2.349
	c-0.002-0.647-0.528-1.172-1.177-1.171c-0.646,0.002-1.17,0.525-1.171,1.171v2.349C48.135,57.006,48.661,57.531,49.309,57.531z"/>
<linearGradient id="Path_18109_1_" gradientUnits="userSpaceOnUse" x1="-241.8962" y1="390.7029" x2="-241.8962" y2="389.7029" gradientTransform="matrix(9.392 0 0 -9.392 2296.5532 3674.176)">
	<stop  offset="0" style="stop-color:#00A9E0"/>
	<stop  offset="1" style="stop-color:#801C7D"/>
</linearGradient>
<path id="Path_18109" fill="url(#Path_18109_1_)" d="M21.132,10.566h2.349v2.348c0,0.648,0.525,1.174,1.174,1.174
	s1.174-0.525,1.174-1.174v-2.348h2.348c0.648-0.001,1.174-0.526,1.174-1.175c-0.001-0.648-0.525-1.173-1.174-1.174h-2.348V5.87
	c0-0.648-0.525-1.174-1.174-1.174S23.48,5.221,23.48,5.87v2.348h-2.349c-0.648,0-1.174,0.525-1.175,1.174
	C19.957,10.04,20.482,10.565,21.132,10.566L21.132,10.566L21.132,10.566z"/>
<linearGradient id="Path_18110_1_" gradientUnits="userSpaceOnUse" x1="-241.908" y1="390.7205" x2="-241.908" y2="389.7205" gradientTransform="matrix(9.396 0 0 -9.396 2285.8877 3693.5144)">
	<stop  offset="0" style="stop-color:#00A9E0"/>
	<stop  offset="1" style="stop-color:#801C7D"/>
</linearGradient>
<path id="Path_18110" fill="url(#Path_18110_1_)" d="M8.218,24.654v4.7c0,1.297,1.052,2.348,2.349,2.348l0,0h4.7
	c1.297,0,2.348-1.051,2.348-2.348l0,0v-4.7c0-1.297-1.051-2.348-2.348-2.348c-0.002,0-0.003,0-0.004,0h-4.7
	C9.266,22.308,8.218,23.359,8.218,24.654z M15.262,29.354h-4.7v-4.7h4.7V29.354z"/>
<linearGradient id="Path_18111_1_" gradientUnits="userSpaceOnUse" x1="-241.9084" y1="390.7205" x2="-241.9084" y2="389.7205" gradientTransform="matrix(9.396 0 0 -9.396 2297.6296 3693.5144)">
	<stop  offset="0" style="stop-color:#00A9E0"/>
	<stop  offset="1" style="stop-color:#801C7D"/>
</linearGradient>
<path id="Path_18111" fill="url(#Path_18111_1_)" d="M22.306,22.306c-1.297,0-2.349,1.051-2.349,2.348l0,0v4.7
	c0,1.297,1.052,2.348,2.349,2.348l0,0h4.699c1.297,0,2.349-1.051,2.349-2.348l0,0v-4.7c0-1.297-1.052-2.348-2.349-2.348
	c-0.001,0-0.002,0-0.004,0H22.306z M22.306,29.35v-4.7h4.699v4.7H22.306z"/>
<linearGradient id="Path_18112_1_" gradientUnits="userSpaceOnUse" x1="-237.928" y1="390.7205" x2="-237.928" y2="389.7205" gradientTransform="matrix(8.222 0 0 -9.396 1992.0581 3693.5144)">
	<stop  offset="0" style="stop-color:#00A9E0"/>
	<stop  offset="1" style="stop-color:#801C7D"/>
</linearGradient>
<path id="Path_18112" fill="url(#Path_18112_1_)" d="M38.743,24.654c0.648,0,1.174-0.525,1.174-1.174s-0.525-1.174-1.174-1.174h-4.7
	c-1.295,0.002-2.344,1.053-2.344,2.348v4.7c0,1.297,1.051,2.348,2.348,2.348l0,0h4.7c0.648,0,1.174-0.525,1.174-1.174
	s-0.525-1.174-1.174-1.174h-4.7v-4.7H38.743z"/>
<linearGradient id="Path_18113_1_" gradientUnits="userSpaceOnUse" x1="-232.5906" y1="267.6492" x2="-232.5906" y2="266.6492" gradientTransform="matrix(7.0418 0 0 -2.348 1660.1676 669.5273)">
	<stop  offset="0" style="stop-color:#00A9E0"/>
	<stop  offset="1" style="stop-color:#801C7D"/>
</linearGradient>
<path id="Path_18113" fill="url(#Path_18113_1_)" d="M19.958,41.091c-0.648,0.002-1.173,0.529-1.171,1.178
	c0.002,0.646,0.525,1.169,1.171,1.171h4.7c0.648-0.002,1.173-0.529,1.171-1.178c-0.002-0.646-0.524-1.169-1.171-1.171H19.958z"/>
<linearGradient id="Path_18114_1_" gradientUnits="userSpaceOnUse" x1="-158.2468" y1="267.6492" x2="-158.2468" y2="266.6492" gradientTransform="matrix(2.348 0 0 -2.348 400.915 669.5273)">
	<stop  offset="0" style="stop-color:#00A9E0"/>
	<stop  offset="1" style="stop-color:#801C7D"/>
</linearGradient>
<path id="Path_18114" fill="url(#Path_18114_1_)" d="M30.525,42.265c0,0.648-0.525,1.174-1.174,1.174s-1.174-0.525-1.174-1.174
	s0.525-1.175,1.174-1.175S30.525,41.617,30.525,42.265L30.525,42.265z"/>
</svg>
