<?xml version="1.0" encoding="utf-8"?>
<!-- Generator: Adobe Illustrator 16.0.0, SVG Export Plug-In . SVG Version: 6.00 Build 0)  -->
<!DOCTYPE svg PUBLIC "-//W3C//DTD SVG 1.1//EN" "http://www.w3.org/Graphics/SVG/1.1/DTD/svg11.dtd">
<svg version="1.1" id="invoice" xmlns="http://www.w3.org/2000/svg" xmlns:xlink="http://www.w3.org/1999/xlink" x="0px" y="0px"
	 width="65px" height="65px" viewBox="0 0 65 65" enable-background="new 0 0 65 65" xml:space="preserve">
<g id="indemnity-cover-icon" transform="translate(0.011)">
	
		<linearGradient id="Path_16020_1_" gradientUnits="userSpaceOnUse" x1="-267.6653" y1="422.7305" x2="-267.6653" y2="421.7305" gradientTransform="matrix(55.8412 0 0 -62.2 14980.6553 26295.8184)">
		<stop  offset="0" style="stop-color:#00A9E0"/>
		<stop  offset="1" style="stop-color:#801C7D"/>
	</linearGradient>
	<path id="Path_16020" fill="url(#Path_16020_1_)" d="M58.057,2H21.723c-2.082,0.001-3.769,1.689-3.771,3.771v8.439
		C9.198,16.708,4.128,25.83,6.626,34.584c1.564,5.479,5.847,9.762,11.326,11.326v14.514c0,2.084,1.688,3.773,3.771,3.775h29.692
		c0.352,0,0.689-0.141,0.938-0.389l9.086-9.086c0.25-0.25,0.391-0.588,0.391-0.941V5.771C61.827,3.688,60.139,2.001,58.057,2z
		 M21.723,4.656h36.333c0.615,0,1.115,0.499,1.115,1.114v4.008H20.609V5.771C20.61,5.156,21.108,4.657,21.723,4.656z M8.656,30.056
		c0-7.635,6.19-13.825,13.826-13.824c7.635,0,13.823,6.191,13.823,13.826s-6.189,13.823-13.824,13.823
		c-7.635,0.002-13.825-6.188-13.825-13.822C8.656,30.058,8.656,30.057,8.656,30.056z M20.609,60.424V46.432
		c5.388,0.617,10.733-1.461,14.29-5.555h8.141c0.734,0,1.328-0.596,1.326-1.328c0-0.732-0.594-1.326-1.326-1.326h-6.246
		c1.182-2.066,1.898-4.365,2.1-6.736h4.146c0.732,0,1.328-0.594,1.328-1.327c0-0.733-0.596-1.328-1.328-1.328l0,0h-4.123
		c-0.176-2.363-0.861-4.659-2.012-6.731h6.135c0.734,0,1.328-0.595,1.328-1.328s-0.594-1.328-1.328-1.328h-7.967
		c-3.551-4.223-8.983-6.384-14.465-5.756v-1.252h38.563v40.02h-5.313c-2.082,0.002-3.77,1.689-3.771,3.771v5.313H21.723
		C21.108,61.539,20.61,61.039,20.609,60.424z M52.743,59.66v-3.436c0.002-0.615,0.5-1.115,1.115-1.115H57.3L52.743,59.66z"/>
	
		<linearGradient id="Path_16021_1_" gradientUnits="userSpaceOnUse" x1="-234.2214" y1="282.1777" x2="-234.2214" y2="281.1777" gradientTransform="matrix(7.067 0 0 -2.656 1705.6995 768.9039)">
		<stop  offset="0" style="stop-color:#00A9E0"/>
		<stop  offset="1" style="stop-color:#801C7D"/>
	</linearGradient>
	<path id="Path_16021" fill="url(#Path_16021_1_)" d="M48.259,22.095h4.41c0.734,0,1.328-0.594,1.328-1.328
		s-0.594-1.328-1.328-1.328h-4.41c-0.734,0-1.328,0.595-1.328,1.328S47.524,22.095,48.259,22.095L48.259,22.095z"/>
	
		<linearGradient id="Path_16022_1_" gradientUnits="userSpaceOnUse" x1="-234.2146" y1="282.123" x2="-234.2146" y2="281.123" gradientTransform="matrix(7.066 0 0 -2.655 1705.4238 777.867)">
		<stop  offset="0" style="stop-color:#00A9E0"/>
		<stop  offset="1" style="stop-color:#801C7D"/>
	</linearGradient>
	<path id="Path_16022" fill="url(#Path_16022_1_)" d="M48.259,31.486h4.41c0.732,0,1.328-0.594,1.328-1.327
		c0-0.733-0.596-1.328-1.328-1.328h-4.41c-0.734,0-1.328,0.594-1.328,1.328C46.93,30.892,47.524,31.486,48.259,31.486z"/>
	
		<linearGradient id="Path_16023_1_" gradientUnits="userSpaceOnUse" x1="-234.2039" y1="282.1787" x2="-234.2039" y2="281.1787" gradientTransform="matrix(7.064 0 0 -2.656 1704.8875 787.6851)">
		<stop  offset="0" style="stop-color:#00A9E0"/>
		<stop  offset="1" style="stop-color:#801C7D"/>
	</linearGradient>
	<path id="Path_16023" fill="url(#Path_16023_1_)" d="M48.259,40.877h4.41c0.734-0.002,1.328-0.596,1.326-1.33
		c0-0.732-0.594-1.326-1.326-1.326h-4.41c-0.734,0-1.328,0.596-1.328,1.33C46.932,40.283,47.526,40.875,48.259,40.877z"/>
	
		<linearGradient id="Path_16024_1_" gradientUnits="userSpaceOnUse" x1="-254.5681" y1="282.1777" x2="-254.5681" y2="281.1777" gradientTransform="matrix(15.081 0 0 -2.656 3885.5989 797.0757)">
		<stop  offset="0" style="stop-color:#00A9E0"/>
		<stop  offset="1" style="stop-color:#801C7D"/>
	</linearGradient>
	<path id="Path_16024" fill="url(#Path_16024_1_)" d="M52.669,50.268c0.734,0,1.328-0.594,1.33-1.326
		c0-0.734-0.594-1.328-1.326-1.33c-0.002,0-0.002,0-0.004,0H40.243c-0.732,0.002-1.326,0.596-1.326,1.33
		c0.002,0.732,0.596,1.326,1.326,1.326H52.669z"/>
	
		<linearGradient id="Path_16025_1_" gradientUnits="userSpaceOnUse" x1="-260.1975" y1="407.3262" x2="-260.1975" y2="406.3262" gradientTransform="matrix(21.9761 0 0 -17.9918 5740.6123 7349.606)">
		<stop  offset="0" style="stop-color:#00A9E0"/>
		<stop  offset="1" style="stop-color:#801C7D"/>
	</linearGradient>
	<path id="Path_16025" fill="url(#Path_16025_1_)" d="M32.8,23.358l-1.62-1.62c-0.902-0.901-2.364-0.901-3.267,0l-8.5,8.5
		l-2.349-2.349c-0.902-0.902-2.365-0.902-3.267,0c0,0,0,0,0,0l0,0l-1.626,1.621c-0.9,0.903-0.9,2.364,0,3.267l5.6,5.6
		c0.433,0.434,1.021,0.678,1.634,0.678l0,0c0.613,0,1.202-0.244,1.634-0.68l11.756-11.75C33.696,25.723,33.698,24.263,32.8,23.358z
		 M19.413,36.258L14.3,31.142l1.131-1.131l3.044,3.044c0.518,0.52,1.358,0.52,1.877,0.002c0-0.001,0.001-0.001,0.001-0.002
		l9.194-9.194l1.131,1.132L19.413,36.258z"/>
</g>
</svg>
