<?xml version="1.0" encoding="utf-8"?>
<!-- Generator: Adobe Illustrator 16.0.0, SVG Export Plug-In . SVG Version: 6.00 Build 0)  -->
<!DOCTYPE svg PUBLIC "-//W3C//DTD SVG 1.1//EN" "http://www.w3.org/Graphics/SVG/1.1/DTD/svg11.dtd">
<svg version="1.1" id="Layer_1" xmlns="http://www.w3.org/2000/svg" xmlns:xlink="http://www.w3.org/1999/xlink" x="0px" y="0px"
	 width="61.889px" height="63px" viewBox="0 0 61.889 63" enable-background="new 0 0 61.889 63" xml:space="preserve">
<g id="key" transform="translate(-0.475)">
	
		<linearGradient id="Path_17382_1_" gradientUnits="userSpaceOnUse" x1="-269.2655" y1="421.7725" x2="-269.2655" y2="420.8467" gradientTransform="matrix(61.8954 0 0 -62.9867 16698.6719 26569.3809)">
		<stop  offset="0.13" style="stop-color:#00A9ED"/>
		<stop  offset="1" style="stop-color:#65106B"/>
	</linearGradient>
	<path id="Path_17382" fill="url(#Path_17382_1_)" d="M60.724,50.02L38.105,28.461c3.349-7.229,2.306-14.549-2.856-19.714
		C28.036,1.55,16.356,1.563,9.159,8.774c-7.197,7.212-7.184,18.893,0.028,26.089c0.017,0.018,0.034,0.034,0.052,0.053
		c4.738,4.685,11.704,6.317,18.031,4.229l2.6,2.649c0.204,0.208,0.483,0.326,0.775,0.326h4.369v3.255
		c-0.002,0.599,0.481,1.087,1.081,1.089c0.003,0,0.006,0,0.008,0h3.256v3.252c0,0.6,0.485,1.085,1.085,1.085l0,0h4.341v4.341
		c0,0.6,0.486,1.085,1.085,1.085l0,0h2.171v1.931c-0.112,0.919,0.229,1.834,0.914,2.456c0.627,0.621,1.458,0.992,2.339,1.043h8.681
		c0.6,0,1.086-0.486,1.086-1.085l0,0v-9.767C61.06,50.508,60.939,50.225,60.724,50.02z M58.889,59.487h-7.513
		c-0.336-0.025-0.651-0.171-0.889-0.41C50.21,58.8,50.21,58.8,50.21,58.152v-3.006c0-0.599-0.485-1.085-1.085-1.085l0,0h-2.173
		v-4.346c0-0.599-0.486-1.085-1.085-1.085l0,0h-4.341V45.38c0-0.6-0.485-1.085-1.085-1.085l0,0h-3.256v-3.256
		c0-0.598-0.484-1.083-1.083-1.085h-4.997l-2.75-2.806c-0.293-0.299-0.732-0.401-1.128-0.266
		c-5.703,2.128-12.121,0.761-16.462-3.506C4.756,27.406,4.31,17.832,9.736,11.326c2.929-3.512,7.209-5.618,11.779-5.795
		c4.551-0.185,8.972,1.54,12.197,4.756c4.709,4.709,5.475,11.243,2.102,17.929c-0.215,0.426-0.126,0.944,0.221,1.273l22.853,21.783
		v8.216H58.889z"/>
	
		<linearGradient id="Path_17383_1_" gradientUnits="userSpaceOnUse" x1="-254.5086" y1="400.1943" x2="-254.5086" y2="399.2686" gradientTransform="matrix(14.07 0 0 -14.0876 3598.5349 5648.4287)">
		<stop  offset="0.13" style="stop-color:#00A9ED"/>
		<stop  offset="1" style="stop-color:#65106B"/>
	</linearGradient>
	<path id="Path_17383" fill="url(#Path_17383_1_)" d="M12.996,12.586c-2.543,2.543-2.543,6.666,0,9.209
		c2.543,2.542,6.666,2.542,9.208,0c2.542-2.543,2.542-6.666,0-9.209c-2.513-2.542-6.61-2.567-9.154-0.055
		C13.033,12.55,13.015,12.568,12.996,12.586z M20.669,20.26c-1.717,1.641-4.421,1.641-6.138,0c-1.696-1.695-1.696-4.444-0.001-6.139
		c1.696-1.696,4.444-1.696,6.139-0.001C22.365,15.815,22.365,18.563,20.669,20.26L20.669,20.26z"/>
</g>
</svg>
