<?xml version="1.0" encoding="utf-8"?>
<!-- Generator: Adobe Illustrator 16.0.0, SVG Export Plug-In . SVG Version: 6.00 Build 0)  -->
<!DOCTYPE svg PUBLIC "-//W3C//DTD SVG 1.1//EN" "http://www.w3.org/Graphics/SVG/1.1/DTD/svg11.dtd">
<svg version="1.1" id="Layer_1" xmlns="http://www.w3.org/2000/svg" xmlns:xlink="http://www.w3.org/1999/xlink" x="0px" y="0px"
	 width="55.625px" height="63px" viewBox="0 0 55.625 63" enable-background="new 0 0 55.625 63" xml:space="preserve">
<g id="kidnapping" transform="translate(-29.963)">
	
		<linearGradient id="Path_18018_1_" gradientUnits="userSpaceOnUse" x1="-242.3646" y1="421.8262" x2="-242.3646" y2="420.8262" gradientTransform="matrix(55.625 0 0 -63 13540.3291 26575.0625)">
		<stop  offset="0" style="stop-color:#00A9E0"/>
		<stop  offset="1" style="stop-color:#801C7D"/>
	</linearGradient>
	<path id="Path_18018" fill="url(#Path_18018_1_)" d="M71.343,29.56H66.47v-2.142c1.724-1.629,2.883-3.766,3.308-6.1
		c1.737-0.667,3.085-2.079,3.669-3.846c0.365-1.083,0.332-2.26-0.092-3.321c-0.402-1.036-1.246-1.838-2.301-2.19
		c-0.354-0.119-0.729-0.156-1.1-0.109V5.837C69.951,2.618,67.345,0.008,64.127,0H53.426c-3.222,0.004-5.833,2.615-5.837,5.837v2.347
		c-1.815-1.047-3.814-1.735-5.889-2.026c-0.858-0.149-1.674,0.427-1.823,1.285C39.82,7.774,39.87,8.115,40.02,8.416
		c0.543,1.106,1.177,2.165,1.894,3.167c-0.841,0.657-1.629,1.378-2.359,2.157c-0.574,0.605-0.548,1.562,0.058,2.136
		c0.235,0.223,0.536,0.364,0.857,0.403c0.861,0.107,1.727,0.163,2.594,0.167c0.27,0,0.543-0.007,0.816-0.022
		c0.038,0.356,0.112,0.707,0.223,1.047c0.584,1.767,1.931,3.179,3.669,3.846c0.425,2.334,1.584,4.471,3.308,6.1v2.143h-4.873
		c-2.718-0.002-5.388,0.723-7.731,2.1c-0.439,0.259-0.585,0.824-0.326,1.263s0.824,0.585,1.263,0.326l0,0
		c2.059-1.212,4.405-1.85,6.794-1.849h4.873v0.489c0,1.436,1.164,2.6,2.6,2.6h10.189c1.436,0,2.6-1.164,2.6-2.6l0,0V31.4h4.873
		c4.185,0,8.127,1.957,10.658,5.288l-31.414,6.301c-0.019,0.004-0.037,0.01-0.053,0.02l-16.7-3.347
		c0.609-1.462,1.473-2.805,2.551-3.966c0.347-0.373,0.325-0.956-0.048-1.303c-0.374-0.347-0.957-0.325-1.304,0.049
		c-2.62,2.816-4.074,6.521-4.07,10.369V61.34c0.001,0.916,0.744,1.659,1.66,1.66h37.407c0.51,0,0.922-0.413,0.922-0.922
		c0-0.51-0.412-0.923-0.922-0.923H32.807V44.805c0-1.143,0.145-2.281,0.433-3.387l51.5,10.323v9.414H74.427
		c-0.51,0.017-0.909,0.443-0.893,0.952c0.016,0.486,0.406,0.877,0.893,0.893h10.5c0.916-0.001,1.658-0.744,1.66-1.66V44.805
		C86.578,36.39,79.758,29.57,71.343,29.56z M49.432,13.5v-1.978c0.002-1.957,1.587-3.542,3.544-3.544h11.6
		c1.957,0.002,3.542,1.587,3.545,3.544v0.307H52.872c-0.51,0-0.923,0.413-0.923,0.922s0.413,0.922,0.923,0.922h15.246v4.74H49.432
		V13.5z M70.488,13.72c0.537,0.189,0.963,0.607,1.162,1.14c0.256,0.655,0.271,1.38,0.043,2.046c-0.33,0.934-0.943,1.741-1.754,2.311
		c0.016-0.079,0.023-5.387,0.023-5.387c0.128-0.155,0.347-0.201,0.525-0.109V13.72z M53.425,1.845h10.7
		c2.204,0.004,3.99,1.79,3.993,3.993v1.63c-0.979-0.86-2.239-1.335-3.544-1.334h-11.6C51.67,6.133,50.41,6.607,49.43,7.468V5.837
		c0.004-2.203,1.789-3.988,3.992-3.993L53.425,1.845z M46.743,9.845c0.294,0.218,0.576,0.452,0.845,0.7v1.306
		c-0.37-0.047-0.746-0.009-1.1,0.109c-0.377,0.123-0.732,0.307-1.049,0.546c-0.151-0.1-0.3-0.206-0.449-0.316
		c-1.285-1.157-2.331-2.556-3.076-4.117c1.71,0.267,3.351,0.869,4.829,1.77V9.845z M41.37,14.52c0.545-0.548,1.126-1.06,1.74-1.531
		c0.244,0.245,0.505,0.472,0.781,0.681c0.129,0.1,0.261,0.189,0.393,0.279c-0.031,0.066-0.061,0.133-0.089,0.2
		c-0.057,0.135-0.105,0.273-0.147,0.414C43.156,14.622,42.26,14.607,41.37,14.52z M45.858,16.9
		c-0.229-0.666-0.213-1.391,0.043-2.046c0.199-0.534,0.625-0.951,1.162-1.14c0.181-0.077,0.39-0.033,0.525,0.11V19.2
		c-0.799-0.569-1.403-1.37-1.73-2.294V16.9z M49.5,20.42c-0.006-0.055-0.018-0.11-0.034-0.163h18.618
		c-0.017,0.053-0.028,0.108-0.035,0.163c-0.27,2.273-1.367,4.366-3.084,5.88l-0.008,0.006c-3.865,3.415-9.768,3.05-13.183-0.816
		c-1.254-1.42-2.047-3.188-2.273-5.068V20.42z M64.627,31.894c-0.001,0.418-0.34,0.756-0.758,0.756H53.682
		c-0.418,0-0.757-0.338-0.757-0.756v-3.06c3.588,2.206,8.112,2.206,11.7,0v3.06H64.627z M55.2,43.939l27.884-5.588
		c1.091,1.976,1.662,4.197,1.659,6.455v5.053L55.2,43.939z"/>
	
		<linearGradient id="Path_18019_1_" gradientUnits="userSpaceOnUse" x1="-221.4721" y1="319.3301" x2="-221.4721" y2="318.3301" gradientTransform="matrix(10.4959 0 0 -3.5793 2399.7961 1183.8564)">
		<stop  offset="0" style="stop-color:#00A9E0"/>
		<stop  offset="1" style="stop-color:#801C7D"/>
	</linearGradient>
	<path id="Path_18019" fill="url(#Path_18019_1_)" d="M80.476,41.636c-0.101-0.499-0.587-0.823-1.086-0.723l-8.651,1.733
		c-0.499,0.101-0.823,0.586-0.724,1.086s0.586,0.824,1.086,0.724l0,0l8.65-1.733C80.252,42.622,80.576,42.137,80.476,41.636
		C80.475,41.637,80.475,41.637,80.476,41.636L80.476,41.636z"/>
	
		<linearGradient id="Path_18020_1_" gradientUnits="userSpaceOnUse" x1="-200.6386" y1="276.9854" x2="-200.6386" y2="275.9854" gradientTransform="matrix(5.802 0 0 -2.5756 1222.7338 734.7524)">
		<stop  offset="0" style="stop-color:#00A9E0"/>
		<stop  offset="1" style="stop-color:#801C7D"/>
	</linearGradient>
	<path id="Path_18020" fill="url(#Path_18020_1_)" d="M56.037,23.68c0.378,0.339,0.96,0.307,1.3-0.07
		c0.77-0.566,1.818-0.566,2.586,0c0.341,0.379,0.924,0.41,1.303,0.07c0.379-0.341,0.41-0.924,0.07-1.303l0,0
		c-1.509-1.382-3.824-1.382-5.333,0c-0.338,0.379-0.305,0.961,0.073,1.3V23.68z"/>
	
		<linearGradient id="Path_18021_1_" gradientUnits="userSpaceOnUse" x1="-227.5624" y1="336.0615" x2="-227.5624" y2="335.0615" gradientTransform="matrix(13.7473 0 0 -4.2307 3172.8794 1467.1152)">
		<stop  offset="0" style="stop-color:#00A9E0"/>
		<stop  offset="1" style="stop-color:#801C7D"/>
	</linearGradient>
	<path id="Path_18021" fill="url(#Path_18021_1_)" d="M38.73,45.375c-0.5-0.1-0.986,0.225-1.085,0.724
		c-0.1,0.499,0.224,0.985,0.723,1.085l0,0l11.872,2.379c0.497,0.117,0.993-0.191,1.109-0.688s-0.192-0.993-0.688-1.109
		c-0.02-0.004-0.039-0.008-0.058-0.012L38.73,45.375z"/>
	
		<linearGradient id="Path_18022_1_" gradientUnits="userSpaceOnUse" x1="-210.0531" y1="295.4336" x2="-210.0531" y2="294.4336" gradientTransform="matrix(7.2714 0 0 -2.9341 1584.0284 915.3545)">
		<stop  offset="0" style="stop-color:#00A9E0"/>
		<stop  offset="1" style="stop-color:#801C7D"/>
	</linearGradient>
	<path id="Path_18022" fill="url(#Path_18022_1_)" d="M54.15,48.563c-0.496-0.115-0.993,0.192-1.109,0.688
		c-0.116,0.497,0.192,0.993,0.688,1.109c0.019,0.005,0.039,0.009,0.058,0.012l5.367,1.076c0.496,0.116,0.993-0.192,1.109-0.688
		s-0.191-0.993-0.688-1.109c-0.019-0.004-0.038-0.008-0.058-0.012L54.15,48.563z"/>
</g>
</svg>
