<svg xmlns="http://www.w3.org/2000/svg" xmlns:xlink="http://www.w3.org/1999/xlink" width="63.073" height="47.209" viewBox="0 0 63.073 47.209">
  <defs>
    <linearGradient id="linear-gradient" x1="0.5" x2="0.5" y2="1" gradientUnits="objectBoundingBox">
      <stop offset="0.13" stop-color="#00a9ed"/>
      <stop offset="1" stop-color="#65106b"/>
    </linearGradient>
  </defs>
  <g id="landslide" transform="translate(0.037 -64.04)">
    <g id="Group_2607" data-name="Group 2607" transform="translate(-0.001 63.997)">
      <g id="Group_2606" data-name="Group 2606">
        <path id="Path_17659" data-name="Path 17659" d="M60.374,105.756A3.931,3.931,0,0,0,63,102.06V94.185a3.931,3.931,0,0,0-2.872-3.772l-1.92-7.684a3.932,3.932,0,0,0-3.82-2.981H34.861a3.931,3.931,0,0,0-3.82,2.983l-1.92,7.682a3.931,3.931,0,0,0-2.872,3.772v7.875a3.931,3.931,0,0,0,2.625,3.7v1.554a3.893,3.893,0,0,0,.242,1.313H22.967L15.679,98.9,13.106,83.47a1.311,1.311,0,0,0-.367-.713L7.874,77.892V73.185a1.314,1.314,0,0,0-.22-.728L2.4,64.582A1.312,1.312,0,0,0,.22,66.039l5.03,7.544v4.853a1.312,1.312,0,0,0,.385.928l4.953,4.953,2.556,15.335a1.3,1.3,0,0,0,.245.572l6.3,8.4H1.312a1.313,1.313,0,1,0,0,2.625H61.686a1.313,1.313,0,1,0,0-2.625H60.132a3.893,3.893,0,0,0,.242-1.313v-1.554ZM33.587,83.367a1.312,1.312,0,0,1,1.274-.995H54.387a1.312,1.312,0,0,1,1.274.993l1.72,6.882H31.867Zm3.162,23.943a1.313,1.313,0,0,1-1.313,1.313H32.812A1.313,1.313,0,0,1,31.5,107.31V106h5.25Zm2.383,1.312a3.893,3.893,0,0,0,.242-1.313V106h10.5v1.313a3.893,3.893,0,0,0,.242,1.313Zm18.617-1.312a1.313,1.313,0,0,1-1.313,1.313H53.812A1.313,1.313,0,0,1,52.5,107.31V106h5.25Zm1.313-3.937H30.187a1.313,1.313,0,0,1-1.313-1.313V94.185a1.313,1.313,0,0,1,1.313-1.313H59.062a1.313,1.313,0,0,1,1.313,1.313v7.875A1.314,1.314,0,0,1,59.062,103.373Z" transform="translate(0.001 -63.997)" fill="url(#linear-gradient)"/>
        <circle id="Ellipse_209" data-name="Ellipse 209" cx="2.625" cy="2.625" r="2.625" transform="translate(52.5 31.5)" fill="url(#linear-gradient)"/>
        <circle id="Ellipse_210" data-name="Ellipse 210" cx="2.625" cy="2.625" r="2.625" transform="translate(31.5 31.5)" fill="url(#linear-gradient)"/>
        <path id="Path_17660" data-name="Path 17660" d="M329.19,330.672h-7.875a1.313,1.313,0,0,0,0,2.625h7.875a1.313,1.313,0,0,0,0-2.625Z" transform="translate(-280.628 -297.859)" fill="url(#linear-gradient)"/>
        <path id="Path_17661" data-name="Path 17661" d="M86.062,117.033l5.25,2.625a1.312,1.312,0,0,0,1.832-.759l2.625-7.875a1.312,1.312,0,0,0-.317-1.343l-2.625-2.625a1.312,1.312,0,0,0-1.515-.246l-5.25,2.625a1.313,1.313,0,0,0-.725,1.174v5.25a1.313,1.313,0,0,0,.725,1.174Zm1.9-5.613,3.679-1.839,1.382,1.383-1.889,5.669-3.171-1.585Z" transform="translate(-74.836 -101.42)" fill="url(#linear-gradient)"/>
        <path id="Path_17662" data-name="Path 17662" d="M149.337,235.985v5.25a1.312,1.312,0,0,0,.385.928l2.625,2.625a1.312,1.312,0,0,0,2.1-.341l2.625-5.25a1.312,1.312,0,0,0-.246-1.515l-2.625-2.625a1.311,1.311,0,0,0-.928-.385h-2.625A1.312,1.312,0,0,0,149.337,235.985Zm2.625,1.313h.769l1.571,1.571-1.388,2.775-.952-.952Z" transform="translate(-130.961 -213.672)" fill="url(#linear-gradient)"/>
      </g>
    </g>
  </g>
</svg>
