<?xml version="1.0" encoding="utf-8"?>
<!-- Generator: Adobe Illustrator 16.0.0, SVG Export Plug-In . SVG Version: 6.00 Build 0)  -->
<!DOCTYPE svg PUBLIC "-//W3C//DTD SVG 1.1//EN" "http://www.w3.org/Graphics/SVG/1.1/DTD/svg11.dtd">
<svg version="1.1" id="Layer_1" xmlns="http://www.w3.org/2000/svg" xmlns:xlink="http://www.w3.org/1999/xlink" x="0px" y="0px"
	 width="63px" height="62.5px" viewBox="0 0 63 62.5" enable-background="new 0 0 63 62.5" xml:space="preserve">
<g id="gavel" transform="translate(0 -33.491)">
	
		<linearGradient id="Path_17608_1_" gradientUnits="userSpaceOnUse" x1="-263.2803" y1="424.5882" x2="-263.2803" y2="423.5882" gradientTransform="matrix(25.99 0 0 -10.755 6892.6641 4648.0801)">
		<stop  offset="0" style="stop-color:#00A9E0"/>
		<stop  offset="1" style="stop-color:#801C7D"/>
	</linearGradient>
	<path id="Path_17608" fill="url(#Path_17608_1_)" d="M59.803,85.983h-1.156v-1.158c0-1.768-1.434-3.199-3.201-3.199l0,0H44.563
		c-1.767,0-3.199,1.432-3.199,3.199l0,0v1.158h-1.152c-1.768,0-3.199,1.432-3.199,3.199l0,0v2.178c0,0.563,0.457,1.021,1.021,1.021
		H61.98c0.563,0,1.021-0.458,1.021-1.021v-2.178C63.001,87.415,61.569,85.983,59.803,85.983z M43.402,84.824
		c0.001-0.639,0.52-1.156,1.158-1.156h10.885c0.639,0,1.156,0.518,1.156,1.156v1.158h-13.19L43.402,84.824z M60.956,90.336H39.052
		v-1.157c0.001-0.639,0.519-1.157,1.157-1.157h19.594c0.639,0,1.156,0.519,1.157,1.157L60.956,90.336z"/>
	
		<linearGradient id="Path_17609_1_" gradientUnits="userSpaceOnUse" x1="-268.2729" y1="453.4827" x2="-268.2729" y2="452.4827" gradientTransform="matrix(50.82 0 0 -50.8026 13658.9785 23076.4258)">
		<stop  offset="0" style="stop-color:#00A9E0"/>
		<stop  offset="1" style="stop-color:#801C7D"/>
	</linearGradient>
	<path id="Path_17609" fill="url(#Path_17609_1_)" d="M39.052,64.01L39,64.059c-1.199,1.298-1.12,3.322,0.178,4.521
		c1.227,1.135,3.118,1.135,4.344,0l6.158-6.157c1.309-1.189,1.404-3.213,0.215-4.521c-1.188-1.308-3.213-1.404-4.52-0.215
		c-0.074,0.067-0.146,0.138-0.213,0.212l-0.049,0.048l-2.366-2.367c0.212-0.737,0.008-1.531-0.534-2.074L35.6,46.9
		c-0.543-0.542-1.336-0.746-2.074-0.534L31.162,44l0.048-0.048c1.298-1.2,1.378-3.224,0.178-4.522
		c-1.2-1.298-3.225-1.377-4.522-0.178c-0.062,0.057-0.121,0.116-0.178,0.178l-6.158,6.158c-1.2,1.297-1.12,3.322,0.178,4.522
		c1.227,1.133,3.118,1.133,4.345,0l0.048-0.048l2.367,2.367c-0.055,0.189-0.083,0.386-0.083,0.583c0,0.558,0.221,1.094,0.616,1.488
		l0.273,0.273L26.16,56.89c-0.649,0.65-0.986,1.548-0.925,2.465l-24.3,24.3c-1.298,1.2-1.377,3.225-0.178,4.522
		s3.225,1.377,4.522,0.177c0.062-0.057,0.121-0.115,0.178-0.177l24.3-24.3c0.068,0,0.136,0.01,0.2,0.01
		c0.848,0.001,1.662-0.335,2.261-0.935l2.116-2.116l0.273,0.274c0.396,0.396,0.932,0.619,1.492,0.618
		c0.197,0,0.393-0.028,0.582-0.083L39.052,64.01z M47.423,59.01c0.639,0,1.157,0.516,1.157,1.155c0,0.307-0.121,0.602-0.339,0.819
		l-6.158,6.158c-0.454,0.452-1.187,0.45-1.64-0.003c-0.451-0.453-0.449-1.188,0.004-1.64l6.152-6.155
		c0.219-0.218,0.515-0.34,0.823-0.338V59.01z M40.5,62.567l-2.18-2.18l3.175-3.175l2.18,2.18L40.5,62.567z M21.979,48.667
		c-0.451-0.452-0.451-1.184,0-1.636l6.158-6.158c0.459-0.444,1.192-0.431,1.636,0.028c0.433,0.448,0.433,1.159,0,1.608l-6.158,6.158
		c-0.452,0.453-1.186,0.453-1.638,0c-0.001-0.001-0.002-0.002-0.003-0.003L21.979,48.667z M29.724,45.444l2.18,2.18l-3.18,3.176
		l-2.18-2.18L29.724,45.444z M4.015,86.731c-0.422,0.48-1.153,0.527-1.633,0.105c-0.48-0.422-0.527-1.153-0.105-1.633
		c0.032-0.037,0.066-0.071,0.103-0.104l23.734-23.739c0.016,0.016,0.029,0.034,0.046,0.051l1.54,1.539
		c0.016,0.016,0.034,0.03,0.051,0.046L4.015,86.731z M30.778,61.508c-0.452,0.451-1.184,0.451-1.636,0L27.6,59.969
		c-0.451-0.452-0.451-1.184,0-1.636l2.116-2.116l3.175,3.175L30.778,61.508z M29.445,53.057c-0.027-0.025-0.029-0.068-0.004-0.096
		c0.001-0.001,0.003-0.002,0.004-0.004l4.618-4.618c0.025-0.028,0.068-0.03,0.097-0.004c0.001,0.001,0.003,0.002,0.004,0.004
		l6.608,6.609c0.028,0.025,0.029,0.068,0.004,0.096c0,0.001-0.002,0.002-0.004,0.004l-4.621,4.618
		c-0.025,0.028-0.068,0.029-0.097,0.004c-0.001-0.001-0.003-0.002-0.004-0.004L29.445,53.057z"/>
</g>
</svg>
