<?xml version="1.0" encoding="utf-8"?>
<!-- Generator: Adobe Illustrator 16.0.0, SVG Export Plug-In . SVG Version: 6.00 Build 0)  -->
<!DOCTYPE svg PUBLIC "-//W3C//DTD SVG 1.1//EN" "http://www.w3.org/Graphics/SVG/1.1/DTD/svg11.dtd">
<svg version="1.1" id="Layer_1" xmlns="http://www.w3.org/2000/svg" xmlns:xlink="http://www.w3.org/1999/xlink" x="0px" y="0px"
	 width="62.477px" height="50.5px" viewBox="0 0 62.477 50.5" enable-background="new 0 0 62.477 50.5" xml:space="preserve">
<g id="escalator" transform="translate(0 -49.077)">
	<g id="Group_2707" transform="translate(55.285 59.888)">
		<g id="Group_2706">
			
				<linearGradient id="Path_17895_1_" gradientUnits="userSpaceOnUse" x1="-263.4996" y1="198.0025" x2="-263.4996" y2="197.0025" gradientTransform="matrix(4.056 0 0 -1.856 1070.7888 367.4939)">
				<stop  offset="0" style="stop-color:#00A9E0"/>
				<stop  offset="1" style="stop-color:#801C7D"/>
			</linearGradient>
			<path id="Path_17895" fill="url(#Path_17895_1_)" d="M3.127,0h-2.2C0.414,0-0.001,0.416-0.001,0.928
				c0,0.512,0.415,0.928,0.928,0.928l0,0h2.2c0.512,0,0.928-0.416,0.928-0.928C4.055,0.416,3.639,0,3.127,0z"/>
		</g>
	</g>
	<g id="Group_2709" transform="translate(0 50.134)">
		<g id="Group_2708">
			
				<linearGradient id="Path_17896_1_" gradientUnits="userSpaceOnUse" x1="-269.5061" y1="412.6989" x2="-269.5061" y2="411.6989" gradientTransform="matrix(62.477 0 0 -49.4422 16869.1855 20404.7559)">
				<stop  offset="0" style="stop-color:#00A9E0"/>
				<stop  offset="1" style="stop-color:#801C7D"/>
			</linearGradient>
			<path id="Path_17896" fill="url(#Path_17896_1_)" d="M61.549,0.019H43.881c-0.306-0.063-0.623,0.032-0.844,0.253L8.7,34.605
				H0.928C0.415,34.605,0,35.02,0,35.533l0,0v12.98c0,0.514,0.415,0.929,0.928,0.929l0,0h16.939
				c0.246-0.001,0.481-0.099,0.655-0.272l34.339-34.338h8.688c0.513,0,0.928-0.415,0.928-0.928l0,0V0.947
				C62.477,0.434,62.062,0.019,61.549,0.019L61.549,0.019z M18.738,46.331v-1.2h1.2L18.738,46.331z M23.054,42.015v-1.2h1.2
				L23.054,42.015z M27.37,37.699v-1.2h1.199L27.37,37.699z M31.686,33.382v-1.199h1.2L31.686,33.382z M36,29.068v-1.207h1.2
				L36,29.068z M40.316,24.752v-1.2h1.2L40.316,24.752z M44.632,20.436V19.15h1.286L44.632,20.436z M48.948,16.12v-1.286h1.285
				L48.948,16.12z M60.621,9.701v3.275h-8.154c-0.029,0-0.058,0-0.087,0.005h-0.043H48.02c-0.513,0-0.928,0.416-0.928,0.928l0,0
				v3.388H43.7c-0.513,0-0.929,0.416-0.929,0.928l0,0v3.47h-3.383c-0.513,0-0.928,0.416-0.928,0.928l0,0v3.389h-3.388
				c-0.513,0-0.929,0.415-0.929,0.928l0,0v3.388h-3.388c-0.513,0-0.928,0.415-0.928,0.929l0,0v3.388h-3.389
				c-0.512,0-0.928,0.415-0.928,0.928l0,0v3.388h-3.388c-0.513,0-0.929,0.416-0.929,0.928l0,0v3.389H17.81
				c-0.513,0-0.928,0.416-0.928,0.928l0,0v3.389H1.856v-6.931h7.232c0.246,0,0.481-0.098,0.656-0.272L44.059,6.078h16.563V9.701z
				 M60.621,4.222h-16.74c-0.306-0.063-0.623,0.032-0.844,0.253L8.7,38.808H1.856v-2.348h7.232c0.246,0,0.481-0.098,0.656-0.271
				L44.059,1.874h16.563V4.222L60.621,4.222z"/>
		</g>
	</g>
	<g id="Group_2711" transform="translate(3.225 94.506)">
		<g id="Group_2710">
			
				<linearGradient id="Path_17897_1_" gradientUnits="userSpaceOnUse" x1="-211.4381" y1="163.3835" x2="-211.4381" y2="162.3835" gradientTransform="matrix(4.056 0 0 -1.856 859.6185 303.2364)">
				<stop  offset="0" style="stop-color:#00A9E0"/>
				<stop  offset="1" style="stop-color:#801C7D"/>
			</linearGradient>
			<path id="Path_17897" fill="url(#Path_17897_1_)" d="M3.127,0h-2.2C0.415-0.001-0.002,0.412-0.004,0.924s0.412,0.93,0.924,0.932
				c0.003,0,0.005,0,0.007,0h2.2c0.513-0.002,0.927-0.419,0.925-0.932C4.05,0.415,3.637,0.002,3.127,0z"/>
		</g>
	</g>
	<g id="Group_2713" transform="translate(20.361 49.077)">
		<g id="Group_2712">
			
				<linearGradient id="Path_17898_1_" gradientUnits="userSpaceOnUse" x1="-269.3398" y1="384.9082" x2="-269.3398" y2="383.9082" gradientTransform="matrix(10.7276 0 0 -10.7272 2894.7148 4129.0073)">
				<stop  offset="0" style="stop-color:#00A9E0"/>
				<stop  offset="1" style="stop-color:#801C7D"/>
			</linearGradient>
			<path id="Path_17898" fill="url(#Path_17898_1_)" d="M10.453,0.272c-0.202-0.203-0.488-0.3-0.772-0.264L2.063,0.97
				C1.554,1.034,1.194,1.498,1.258,2.007c0.025,0.205,0.119,0.395,0.265,0.54l1.6,1.6L0.272,6.998
				C-0.09,7.36-0.091,7.948,0.271,8.311c0.001,0,0.001,0,0.001,0l2.145,2.145c0.363,0.362,0.951,0.362,1.313,0l2.851-2.851
				l1.601,1.6c0.362,0.362,0.95,0.362,1.313,0c0.146-0.146,0.238-0.336,0.265-0.54l0.962-7.617
				C10.756,0.762,10.658,0.475,10.453,0.272z M8.153,6.55L7.237,5.634c-0.362-0.362-0.949-0.362-1.312,0L3.074,8.485L2.241,7.652
				l2.852-2.851c0.361-0.362,0.361-0.949,0-1.312L4.176,2.573l4.551-0.575L8.153,6.55z"/>
		</g>
	</g>
	<g id="Group_2715" transform="translate(8.85 60.588)">
		<g id="Group_2714">
			
				<linearGradient id="Path_17899_1_" gradientUnits="userSpaceOnUse" x1="-257.8214" y1="373.405" x2="-257.8214" y2="372.4059" gradientTransform="matrix(10.7245 0 0 -10.7296 2770.3733 4006.4941)">
				<stop  offset="0" style="stop-color:#00A9E0"/>
				<stop  offset="1" style="stop-color:#801C7D"/>
			</linearGradient>
			<path id="Path_17899" fill="url(#Path_17899_1_)" d="M10.724,3.073c-0.001-0.246-0.099-0.482-0.272-0.656L8.307,0.272
				c-0.363-0.362-0.95-0.362-1.313,0L4.144,3.123l-1.601-1.6c-0.362-0.363-0.95-0.363-1.313,0C1.086,1.669,0.993,1.859,0.967,2.063
				l-0.96,7.622c-0.064,0.508,0.296,0.973,0.804,1.037c0.039,0.005,0.078,0.008,0.117,0.008s0.078-0.002,0.116-0.007l7.617-0.962
				C9.17,9.697,9.53,9.233,9.466,8.724C9.44,8.52,9.347,8.33,9.201,8.184l-1.6-1.6l2.851-2.851
				C10.627,3.558,10.724,3.32,10.724,3.073z M5.633,5.924c-0.362,0.362-0.362,0.95,0,1.313v0l0.916,0.916L1.998,8.728l0.575-4.551
				l0.916,0.916c0.362,0.363,0.949,0.363,1.313,0c0,0,0,0,0,0l2.852-2.851l0.833,0.833L5.633,5.924z"/>
		</g>
	</g>
</g>
</svg>
