<svg xmlns="http://www.w3.org/2000/svg" xmlns:xlink="http://www.w3.org/1999/xlink" width="63" height="62.92" viewBox="0 0 63 62.92">
  <defs>
    <linearGradient id="linear-gradient" x1="0.5" x2="0.5" y2="1" gradientUnits="objectBoundingBox">
      <stop offset="0.13" stop-color="#00a9ed"/>
      <stop offset="1" stop-color="#65106b"/>
    </linearGradient>
  </defs>
  <g id="contract" transform="translate(0 -0.322)">
    <path id="Path_19024" data-name="Path 19024" d="M45.915,2.758,9.562.327a2.156,2.156,0,0,0-2.292,2L6.985,6.584H2.153A2.156,2.156,0,0,0,0,8.737V61.089a2.156,2.156,0,0,0,2.153,2.153H29.979a.933.933,0,0,0,.651-.269l4.2-4.182a.916.916,0,0,0,.131.019l7.171.48a2.207,2.207,0,0,0,2.292-2L47.919,5.051a2.172,2.172,0,0,0-2-2.292ZM30.9,60.086V53.676a.308.308,0,0,1,.308-.308H37.6Zm11.682-2.923a.308.308,0,0,1-.327.286l-5.695-.381,3.907-3.89a.923.923,0,0,0,.272-.654V8.737a2.156,2.156,0,0,0-2.153-2.153h-9.6a.923.923,0,0,0,0,1.846h9.6a.308.308,0,0,1,.308.308V51.522H31.21a2.156,2.156,0,0,0-2.153,2.153V61.4H2.153a.308.308,0,0,1-.308-.308V8.737a.308.308,0,0,1,.308-.308H24.076a.923.923,0,0,0,0-1.846H8.835l.276-4.129a.307.307,0,0,1,.327-.286L45.791,4.6a.308.308,0,0,1,.286.327Z" transform="translate(0 0)" fill="url(#linear-gradient)"/>
    <path id="Path_19025" data-name="Path 19025" d="M81.866,237.047H56.7a.923.923,0,0,0,0,1.846h25.17a.923.923,0,0,0,0-1.846Z" transform="translate(-48.911 -207.597)" fill="url(#linear-gradient)"/>
    <path id="Path_19026" data-name="Path 19026" d="M81.866,289.332H56.7a.923.923,0,0,0,0,1.846h25.17a.923.923,0,0,0,0-1.846Z" transform="translate(-48.911 -253.448)" fill="url(#linear-gradient)"/>
    <path id="Path_19027" data-name="Path 19027" d="M55.774,185.685a.923.923,0,0,0,.923.923h25.17a.923.923,0,1,0,0-1.846H56.7A.923.923,0,0,0,55.774,185.685Z" transform="translate(-48.911 -161.745)" fill="url(#linear-gradient)"/>
    <path id="Path_19028" data-name="Path 19028" d="M91.807,133.4a.923.923,0,0,0,.923.923h16.3a.923.923,0,0,0,0-1.846H92.73A.923.923,0,0,0,91.807,133.4Z" transform="translate(-80.51 -115.894)" fill="url(#linear-gradient)"/>
    <path id="Path_19029" data-name="Path 19029" d="M70.759,393.259l-4.979.011-1.673,0c-1.011,0-1.692-.2-1.918-1.314-.191-.94-1.521-.814-1.78,0-.639,2.01-1.695,1.223-2.286-.13a18.932,18.932,0,0,1-1-4.294c-.189-1.055-1.785-.759-1.813.245a17.2,17.2,0,0,1-.5,3.908,31.355,31.355,0,0,1-1.381,3.861c-.449,1.1,1.337,1.577,1.78.491a35.638,35.638,0,0,0,1.254-3.41c.632,1.521,1.941,3.241,3.805,2.227a3.716,3.716,0,0,0,.955-.769c.97,1.12,2.413,1.032,3.763,1.031q2.884,0,5.769-.012A.923.923,0,0,0,70.759,393.259Z" transform="translate(-46.795 -338.985)" fill="url(#linear-gradient)"/>
    <path id="Path_19030" data-name="Path 19030" d="M412.65,183.388a2.654,2.654,0,0,0-1.808-.74l-.7,0v-1.319a2.555,2.555,0,0,0-1.161-2.075V177.4c0-3.823-5.952-3.806-5.952.018v1.858a2.439,2.439,0,0,0-1.163,2.074V182.7c-3.072.209-3.081,4.89,0,5.073.02,4.131.019,8.195,0,12.4a.923.923,0,0,0,1.846.01c.022-4.2.023-8.271,0-12.406l4.579-.023s-.006,13.639-.006,19.784c0,2.995-4.58,3.015-4.58-.031l0-1.683a.923.923,0,0,0-1.842-.111v1.579a4.533,4.533,0,0,0,1.229,3.306,7.717,7.717,0,0,0,2.26,5.163.979.979,0,0,0,1.322-.022,7.61,7.61,0,0,0,2.236-5.219c.609-.607,1.219-1.218,1.219-3.309V198.8a2.586,2.586,0,0,0,3.26-2.454V185.185a2.518,2.518,0,0,0-.747-1.8Zm-8.936-.7v-1.334a.593.593,0,0,1,.44-.57l3.694-.018a.582.582,0,0,1,.451.572v1.328Zm2.3-6.4a1.2,1.2,0,0,1,1.126,1.115v1.5l-2.261.011v-1.49A1.139,1.139,0,0,1,406.011,176.285Zm0,37.394a5.888,5.888,0,0,1-.913-2.019,4.014,4.014,0,0,0,1.829-.024A5.754,5.754,0,0,1,406.01,213.679Zm5.541-17.337a.705.705,0,0,1-1.409.016s0-8.733,0-9.534a.931.931,0,0,0-.93-.924l-7.185.036a.7.7,0,0,1,.009-1.4l8.812-.044a.692.692,0,0,1,.7.691v11.157Z" transform="translate(-350.397 -152.782)" fill="url(#linear-gradient)"/>
  </g>
</svg>
