<svg xmlns="http://www.w3.org/2000/svg" width="65.913" height="65.934" viewBox="0 0 65.913 65.934">
  <g id="Group_2256" data-name="Group 2256" transform="translate(-1045.682 -812.477)">
    <g id="accident_1_" data-name="accident (1)" transform="translate(1045.768 817.524)">
      <g id="Group_2209" data-name="Group 2209" transform="translate(0.009 0.768)">
        <g id="Group_2208" data-name="Group 2208" transform="translate(0 0)">
          <path id="Path_17323" data-name="Path 17323" d="M310.88,46.678a5.727,5.727,0,1,0-8.687-4.908c0,.147.005.293.016.438a5.346,5.346,0,1,0-.681,10.635,3.008,3.008,0,0,0-.1.764,3.06,3.06,0,0,0,2.4,2.984,2.291,2.291,0,1,0,3.889-2.22,4.567,4.567,0,0,0,3.164-7.692Zm-2.172.048a.763.763,0,0,0,.344.43,3.019,3.019,0,0,1,1.54,2.632,3.055,3.055,0,0,1-3.672,2.992.764.764,0,0,0-.916.79c0,.037.007.064.007.036a1.521,1.521,0,0,1-.118.587.764.764,0,0,0,.411,1h0a.764.764,0,1,1-1.057.7.764.764,0,0,0-.764-.764,1.527,1.527,0,0,1-.875-2.774.762.762,0,0,0,.153-.146.77.77,0,0,0,.224-.042,1.427,1.427,0,0,1,.216-.063.764.764,0,0,0,.553-1.074c-.008-.017-.032-.061-.047-.089a.764.764,0,0,0-1.12-.3c-.076.052-.153.1-.236.146a.755.755,0,0,0-.212.182.771.771,0,0,0-.264.057,3.817,3.817,0,1,1,.019-7.059.764.764,0,0,0,1.021-.935,4.2,4.2,0,1,1,5.291,2.732A.764.764,0,0,0,308.708,46.726Z" transform="translate(-296.092 -36.046)" fill="#147db2"/>
        </g>
      </g>
      <g id="Group_2211" data-name="Group 2211" transform="translate(0 0)">
        <g id="Group_2210" data-name="Group 2210" transform="translate(0 0)">
          <path id="Path_17324" data-name="Path 17324" d="M298.291,28a2.291,2.291,0,1,0,2.291,2.291A2.291,2.291,0,0,0,298.291,28Zm0,3.055a.764.764,0,1,1,.764-.764A.764.764,0,0,1,298.291,31.06Z" transform="translate(-296 -28.005)" fill="#147db2"/>
        </g>
      </g>
      <g id="Group_2213" data-name="Group 2213" transform="translate(14.509 19.855)">
        <g id="Group_2212" data-name="Group 2212" transform="translate(0)">
          <path id="Path_17325" data-name="Path 17325" d="M449.145,236.005a1.145,1.145,0,1,0,1.146,1.145A1.146,1.146,0,0,0,449.145,236.005Zm0,1.527a.382.382,0,1,1,.382-.382A.382.382,0,0,1,449.145,237.532Z" transform="translate(-448 -236.005)" fill="#147db2"/>
        </g>
      </g>
    </g>
    <path id="Subtraction_9" data-name="Subtraction 9" d="M27.575,36.594l-6.483.039a.849.849,0,0,1-.857-.852.873.873,0,0,1,.867-.862l5.621-.034,0-.46-4.15.025a4.4,4.4,0,0,1-4.442-4.422l.037-6.089.006-.006.078-2.66-3.444-2.434L5.2,11.99a.858.858,0,0,1-.189-1.2.888.888,0,0,1,.7-.361.871.871,0,0,1,.5.157l11.213,7.992,1.418,1.01a5.424,5.424,0,0,1,4.679-2.783l1.89-.011A9.341,9.341,0,0,0,30.9,14.958l.011-.01.007-.006a1.1,1.1,0,0,1,.1-.068l-3.065-1.151L22.392,11.63l-6.523.039a3.838,3.838,0,0,1-2.42-.835L7.409,6.013l-4.855.029a.882.882,0,0,0-.875.872.87.87,0,0,0,.36.7L3.886,8.933a.841.841,0,0,1,.343.557.855.855,0,0,1-.154.639.874.874,0,0,1-.7.363.862.862,0,0,1-.5-.161L1.025,9.017A2.551,2.551,0,0,1-.042,6.924a2.627,2.627,0,0,1,2.606-2.6L7.721,4.3a.857.857,0,0,1,.539.185l6.276,5.009a2.145,2.145,0,0,0,1.344.464l6.2-.037a9.621,9.621,0,0,1,7.813-4.063A9.423,9.423,0,0,1,36.2,8.2a6.208,6.208,0,0,0-.539-2.786l-2.779.017a.848.848,0,0,1-.857-.852.874.874,0,0,1,.867-.864l1.8-.011-.376-.633A2.114,2.114,0,0,1,34.274.992,2.144,2.144,0,0,1,36.016-.153c.562-.045,1.136-.069,1.7-.072a19.982,19.982,0,0,1,7.926,1.5,16.933,16.933,0,0,1,6.207,4.466A5.563,5.563,0,0,1,52.935,9.1a8.982,8.982,0,0,1-.5,3.583,3.533,3.533,0,0,1-.972,1.367l-2.734,2.36a.862.862,0,0,1-.223.141,10.6,10.6,0,0,0-2.335-.245,10.712,10.712,0,0,0-10.437,8.637,10.656,10.656,0,0,0,1.359,8.1.86.86,0,0,1,.024.876.881.881,0,0,1-.758.448l-7.908.047-.008,1.317A.874.874,0,0,1,27.575,36.594ZM23.822,18.521a5.628,5.628,0,0,0-.895.056A3.618,3.618,0,0,0,19.9,22.121l-.047,7.9a2.7,2.7,0,0,0,2.728,2.715l12.321-.074a12.234,12.234,0,0,1-1.173-5.338A12.664,12.664,0,0,1,47.906,14.866l1.537-1.325a4.133,4.133,0,0,1-2.41-3.773,4.226,4.226,0,0,1,2.584-3.859A16.694,16.694,0,0,0,37.7,1.492c-.519,0-1.047.025-1.571.066a.417.417,0,0,0-.322.628L36.7,3.692l1.847-.011a.849.849,0,0,1,.857.854.874.874,0,0,1-.867.862L37.515,5.4a7.847,7.847,0,0,1,.237,4.192c-.683,3.172-2.658,4.538-4.944,6.121l-.084.057-.2.142c-.255.178-.505.352-.756.531a11.106,11.106,0,0,1-6.839,2.078c-.131,0-.266,0-.394,0h-.053c-.041,0-.081,0-.119,0h-.107l-.025,0h-.4ZM29.883,7.57A7.9,7.9,0,0,0,23.9,10.358l1.634.612,7.174,2.7a3.827,3.827,0,0,1,.31-.23l.011-.008.05-.035.016-.009a6.636,6.636,0,0,0,2.675-3.162A7.72,7.72,0,0,0,29.883,7.57Zm20.951-.246a2.488,2.488,0,0,0-2.081,2.433,2.413,2.413,0,0,0,2.039,2.407,7.257,7.257,0,0,0,.042-4.84Z" transform="translate(1046.588 856.147) rotate(-54)" stroke="rgba(0,0,0,0)" stroke-miterlimit="10" stroke-width="1"/>
    <g id="Group_2255" data-name="Group 2255" transform="matrix(0.921, -0.391, 0.391, 0.921, 1086.523, 828.896)">
      <path id="Path_16647" data-name="Path 16647" d="M9.278,8.341,0,0" transform="translate(0.563 0.938)" fill="none" stroke="#147db2" stroke-linecap="round" stroke-width="3"/>
      <path id="Subtraction_10" data-name="Subtraction 10" d="M9.56,19.12A9.56,9.56,0,0,1,2.8,2.8,9.56,9.56,0,1,1,16.32,16.32,9.5,9.5,0,0,1,9.56,19.12Zm0-17.432A7.872,7.872,0,1,0,17.432,9.56,7.881,7.881,0,0,0,9.56,1.688Z" transform="translate(0 0)" fill="#147db2"/>
      <g id="Ellipse_167" data-name="Ellipse 167" transform="translate(5.062 5.062)" fill="none" stroke="#147db2" stroke-width="2.5">
        <circle cx="4.499" cy="4.499" r="4.499" stroke="none"/>
        <circle cx="4.499" cy="4.499" r="3.249" fill="none"/>
      </g>
    </g>
  </g>
</svg>
