<?xml version="1.0" encoding="utf-8"?>
<!-- Generator: Adobe Illustrator 14.0.0, SVG Export Plug-In . SVG Version: 6.00 Build 43363)  -->
<!DOCTYPE svg PUBLIC "-//W3C//DTD SVG 1.1//EN" "http://www.w3.org/Graphics/SVG/1.1/DTD/svg11.dtd">
<svg version="1.1" id="Layer_1" xmlns="http://www.w3.org/2000/svg" xmlns:xlink="http://www.w3.org/1999/xlink" x="0px" y="0px"
	 width="63px" height="63px" viewBox="0 0 63 63" enable-background="new 0 0 63 63" xml:space="preserve">
<g id="line-chart" transform="translate(246 70)">
	<g id="Group_2679" transform="translate(-246 -70)">
		<g id="Group_2678">
			
				<linearGradient id="Path_17802_1_" gradientUnits="userSpaceOnUse" x1="11.3569" y1="50.0723" x2="11.3569" y2="49.0723" gradientTransform="matrix(63 0 0 -56.7 -684 2839.0562)">
				<stop  offset="0.13" style="stop-color:#00A9ED"/>
				<stop  offset="1" style="stop-color:#65106B"/>
			</linearGradient>
			<path id="Path_17802" fill="url(#Path_17802_1_)" d="M2.1,54.6V50.4h2.1V48.3H2.1v-4.2h4.2V42H2.1v-4.2h2.1v-2.1H2.1v-4.2h4.2
				v-2.1H2.1v-4.2h2.1v-2.1H2.1v-4.2h4.2v-2.1H2.1v-4.2h2.1v-2.1H2.1V6.3h4.2V4.2H2.1V0H0v55.65c0,0.58,0.47,1.05,1.05,1.05H63V54.6
				H2.1z"/>
			
				<linearGradient id="Rectangle_790_1_" gradientUnits="userSpaceOnUse" x1="144.25" y1="-34.6255" x2="144.25" y2="-35.6255" gradientTransform="matrix(2 0 0 -4 -276.5 -79.5)">
				<stop  offset="0.13" style="stop-color:#00A9ED"/>
				<stop  offset="1" style="stop-color:#65106B"/>
			</linearGradient>
			<rect id="Rectangle_790" x="11" y="59" fill="url(#Rectangle_790_1_)" width="2" height="4"/>
			
				<linearGradient id="Rectangle_791_1_" gradientUnits="userSpaceOnUse" x1="144.25" y1="-34.6255" x2="144.25" y2="-35.6255" gradientTransform="matrix(2 0 0 -4 -272.5 -79.5)">
				<stop  offset="0.13" style="stop-color:#00A9ED"/>
				<stop  offset="1" style="stop-color:#65106B"/>
			</linearGradient>
			<rect id="Rectangle_791" x="15" y="59" fill="url(#Rectangle_791_1_)" width="2" height="4"/>
			
				<linearGradient id="Rectangle_792_1_" gradientUnits="userSpaceOnUse" x1="144.25" y1="-34.6255" x2="144.25" y2="-35.6255" gradientTransform="matrix(2 0 0 -4 -262.5 -79.5)">
				<stop  offset="0.13" style="stop-color:#00A9ED"/>
				<stop  offset="1" style="stop-color:#65106B"/>
			</linearGradient>
			<rect id="Rectangle_792" x="25" y="59" fill="url(#Rectangle_792_1_)" width="2" height="4"/>
			
				<linearGradient id="Rectangle_793_1_" gradientUnits="userSpaceOnUse" x1="98.5" y1="-34.6255" x2="98.5" y2="-35.6255" gradientTransform="matrix(3 0 0 -4 -265 -79.5)">
				<stop  offset="0.13" style="stop-color:#00A9ED"/>
				<stop  offset="1" style="stop-color:#65106B"/>
			</linearGradient>
			<rect id="Rectangle_793" x="29" y="59" fill="url(#Rectangle_793_1_)" width="3" height="4"/>
			
				<linearGradient id="Rectangle_794_1_" gradientUnits="userSpaceOnUse" x1="144.25" y1="-34.6255" x2="144.25" y2="-35.6255" gradientTransform="matrix(2 0 0 -4 -247.5 -79.5)">
				<stop  offset="0.13" style="stop-color:#00A9ED"/>
				<stop  offset="1" style="stop-color:#65106B"/>
			</linearGradient>
			<rect id="Rectangle_794" x="40" y="59" fill="url(#Rectangle_794_1_)" width="2" height="4"/>
			
				<linearGradient id="Rectangle_795_1_" gradientUnits="userSpaceOnUse" x1="144.25" y1="-34.6255" x2="144.25" y2="-35.6255" gradientTransform="matrix(2 0 0 -4 -243.5 -79.5)">
				<stop  offset="0.13" style="stop-color:#00A9ED"/>
				<stop  offset="1" style="stop-color:#65106B"/>
			</linearGradient>
			<rect id="Rectangle_795" x="44" y="59" fill="url(#Rectangle_795_1_)" width="2" height="4"/>
			
				<linearGradient id="Rectangle_796_1_" gradientUnits="userSpaceOnUse" x1="144.25" y1="-34.6255" x2="144.25" y2="-35.6255" gradientTransform="matrix(2 0 0 -4 -232.5 -79.5)">
				<stop  offset="0.13" style="stop-color:#00A9ED"/>
				<stop  offset="1" style="stop-color:#65106B"/>
			</linearGradient>
			<rect id="Rectangle_796" x="55" y="59" fill="url(#Rectangle_796_1_)" width="2" height="4"/>
			
				<linearGradient id="Rectangle_797_1_" gradientUnits="userSpaceOnUse" x1="144.25" y1="-34.6255" x2="144.25" y2="-35.6255" gradientTransform="matrix(2 0 0 -4 -228.5 -79.5)">
				<stop  offset="0.13" style="stop-color:#00A9ED"/>
				<stop  offset="1" style="stop-color:#65106B"/>
			</linearGradient>
			<rect id="Rectangle_797" x="59" y="59" fill="url(#Rectangle_797_1_)" width="2" height="4"/>
			
				<linearGradient id="Path_17803_1_" gradientUnits="userSpaceOnUse" x1="12.2173" y1="45.6729" x2="12.2173" y2="44.6729" gradientTransform="matrix(52.6165 0 0 -33.6664 -607.1042 1556.4814)">
				<stop  offset="0.13" style="stop-color:#00A9ED"/>
				<stop  offset="1" style="stop-color:#65106B"/>
			</linearGradient>
			<path id="Path_17803" fill="url(#Path_17803_1_)" d="M11.356,51.83c1.958,1.26,4.565,0.693,5.824-1.264
				c0.435-0.676,0.667-1.463,0.67-2.267c-0.005-0.691-0.183-1.37-0.517-1.976l8.406-6.301c1.799,1.439,4.425,1.148,5.864-0.65
				c0.127-0.159,0.243-0.328,0.346-0.504l6.908,1.98c0,0.035-0.008,0.069-0.008,0.101c0,2.319,1.881,4.2,4.2,4.2s4.2-1.881,4.2-4.2
				v-0.007c-0.008-0.904-0.307-1.78-0.854-2.5l9.346-11.678c0.613,0.345,1.305,0.528,2.008,0.533
				c2.338,0.021,4.248-1.857,4.27-4.194c0.021-2.337-1.857-4.249-4.195-4.269c-2.336-0.021-4.248,1.857-4.269,4.194
				c-0.007,0.809,0.218,1.602,0.647,2.287l-9.45,11.812c-0.17-0.079-0.346-0.146-0.524-0.2c-1.837-0.529-3.799,0.247-4.775,1.891
				l-6.91-1.975c0-0.035,0.007-0.068,0.007-0.1c0.003-1.873-1.228-3.523-3.024-4.053c-2.209-0.662-4.537,0.594-5.198,2.803
				c-0.279,0.934-0.223,1.936,0.158,2.832l-8.578,6.438c-1.939-1.272-4.543-0.732-5.816,1.207c-1.273,1.939-0.733,4.543,1.207,5.816
				c0.019,0.012,0.039,0.024,0.058,0.037L11.356,51.83z M57.75,21c1.16,0,2.1,0.94,2.1,2.1s-0.939,2.1-2.1,2.1s-2.1-0.94-2.1-2.1
				S56.59,21,57.75,21L57.75,21z M41.034,40.383c0.323-1.103,1.479-1.734,2.583-1.41c1.103,0.322,1.734,1.479,1.41,2.582
				c-0.323,1.103-1.479,1.734-2.582,1.411c-0.896-0.263-1.507-1.09-1.495-2.022C40.949,40.753,40.978,40.564,41.034,40.383z
				 M26.334,36.143L26.334,36.143c0.325-1.114,1.491-1.754,2.604-1.429c0.9,0.263,1.518,1.091,1.512,2.028v0.015
				c0.001,0.19-0.027,0.379-0.084,0.56c-0.312,1.117-1.47,1.771-2.587,1.459c-1.117-0.312-1.77-1.47-1.458-2.587
				C26.325,36.173,26.329,36.157,26.334,36.143z M13.65,46.2c1.16,0,2.1,0.94,2.1,2.1c0,1.16-0.94,2.101-2.1,2.101
				s-2.1-0.94-2.1-2.101C11.55,47.141,12.49,46.2,13.65,46.2L13.65,46.2z"/>
			
				<linearGradient id="Path_17804_1_" gradientUnits="userSpaceOnUse" x1="12.2275" y1="44.9346" x2="12.2275" y2="43.9346" gradientTransform="matrix(52.5118 0 0 -31.5151 -606.3782 1421.3259)">
				<stop  offset="0.13" style="stop-color:#00A9ED"/>
				<stop  offset="1" style="stop-color:#65106B"/>
			</linearGradient>
			<path id="Path_17804" fill="url(#Path_17804_1_)" d="M13.65,36.75c2.309,0.011,4.189-1.853,4.2-4.162
				c0.005-1.045-0.382-2.055-1.085-2.829l10.3-16.331c1.302,0.451,2.744,0.205,3.821-0.654l8.321,6.546
				c-0.938,2.114,0.015,4.589,2.129,5.527c0.539,0.239,1.123,0.362,1.712,0.36h0.009c2.316-0.001,4.191-1.88,4.19-4.196
				c0-0.381-0.052-0.76-0.155-1.127l7.566-4.435c0.793,0.866,1.914,1.36,3.089,1.363h0.017c2.322-0.005,4.201-1.893,4.195-4.216
				c-0.006-2.323-1.893-4.202-4.216-4.196c-2.321,0.006-4.199,1.891-4.196,4.212c0.004,0.332,0.046,0.662,0.125,0.983l-7.63,4.47
				c-0.79-0.801-1.868-1.252-2.993-1.253h-0.012c-0.913,0.006-1.799,0.313-2.52,0.872l-8.324-6.549
				c0.938-2.121-0.021-4.602-2.143-5.54c-2.121-0.938-4.602,0.021-5.54,2.142c-0.683,1.544-0.375,3.347,0.782,4.577L15.015,28.597
				c-0.438-0.159-0.899-0.242-1.365-0.247c-2.319-0.001-4.201,1.877-4.203,4.197c-0.001,2.32,1.877,4.201,4.197,4.203
				C13.646,36.75,13.648,36.75,13.65,36.75z M57.75,10.5c1.162-0.002,2.105,0.938,2.107,2.1s-0.938,2.105-2.101,2.107l0,0H57.75
				c-0.752,0.001-1.446-0.399-1.822-1.05c-0.178-0.324-0.273-0.688-0.277-1.057C55.65,11.44,56.59,10.5,57.75,10.5L57.75,10.5z
				 M43.05,18.907c1.16,0,2.101,0.94,2.101,2.1c0,1.16-0.94,2.1-2.101,2.1c-1.159,0-2.1-0.94-2.1-2.1l0,0
				C40.95,19.847,41.891,18.907,43.05,18.907z M28.35,7.35c1.16,0,2.1,0.94,2.1,2.1c0,1.16-0.94,2.1-2.1,2.1s-2.1-0.94-2.1-2.1l0,0
				C26.25,8.29,27.19,7.35,28.35,7.35z M13.65,30.45c1.16,0,2.1,0.94,2.1,2.1c0,1.16-0.94,2.101-2.1,2.101s-2.1-0.94-2.1-2.101l0,0
				C11.55,31.39,12.49,30.45,13.65,30.45z"/>
		</g>
	</g>
</g>
</svg>
