<?xml version="1.0" encoding="utf-8"?>
<!-- Generator: Adobe Illustrator 14.0.0, SVG Export Plug-In . SVG Version: 6.00 Build 43363)  -->
<!DOCTYPE svg PUBLIC "-//W3C//DTD SVG 1.1//EN" "http://www.w3.org/Graphics/SVG/1.1/DTD/svg11.dtd">
<svg version="1.1" id="Layer_1" xmlns="http://www.w3.org/2000/svg" xmlns:xlink="http://www.w3.org/1999/xlink" x="0px" y="0px"
	 width="56.758px" height="63px" viewBox="0 0 56.758 63" enable-background="new 0 0 56.758 63" xml:space="preserve">
<g id="coins" transform="translate(-10.146)">
	<g id="Group_2443" transform="translate(21.693)">
		<g id="Group_2442">
			
				<linearGradient id="Path_17495_1_" gradientUnits="userSpaceOnUse" x1="4.3505" y1="40.7207" x2="4.3505" y2="39.7207" gradientTransform="matrix(23.1 0 0 -23.1 -88.9413 940.6531)">
				<stop  offset="0.13" style="stop-color:#00A9ED"/>
				<stop  offset="1" style="stop-color:#65106B"/>
			</linearGradient>
			<path id="Path_17495" fill="url(#Path_17495_1_)" d="M11.55,0C5.171,0,0,5.171,0,11.55S5.171,23.1,11.55,23.1
				c6.379,0,11.549-5.171,11.549-11.55C23.093,5.174,17.926,0.007,11.55,0z M11.55,21c-5.219,0-9.45-4.231-9.45-9.45
				c0-5.219,4.231-9.45,9.45-9.45c5.219,0,9.45,4.231,9.45,9.45l0,0C20.994,16.767,16.766,20.994,11.55,21z"/>
		</g>
	</g>
	<g id="Group_2445" transform="translate(21.693 21)">
		<g id="Group_2444">
			
				<linearGradient id="Path_17496_1_" gradientUnits="userSpaceOnUse" x1="4.3475" y1="-14.0913" x2="4.3475" y2="-15.0913" gradientTransform="matrix(23.1046 0 0 -7.35 -88.8958 -103.5719)">
				<stop  offset="0.13" style="stop-color:#00A9ED"/>
				<stop  offset="1" style="stop-color:#65106B"/>
			</linearGradient>
			<path id="Path_17496" fill="url(#Path_17496_1_)" d="M19.426,0H3.675c-2.03-0.001-3.676,1.643-3.677,3.673
				C-0.004,5.702,1.641,7.349,3.67,7.35c0.001,0,0.003,0,0.005,0h15.75c2.029,0.001,3.676-1.643,3.677-3.673S21.459,0.001,19.43,0
				C19.428,0,19.427,0,19.426,0z M19.426,5.25H3.675C2.805,5.25,2.1,4.545,2.1,3.675C2.1,2.805,2.805,2.1,3.675,2.1h15.75
				C20.295,2.1,21,2.805,21,3.675C21,4.545,20.295,5.25,19.426,5.25z"/>
		</g>
	</g>
	<g id="Group_2447" transform="translate(21.693 31.5)">
		<g id="Group_2446">
			
				<linearGradient id="Path_17497_1_" gradientUnits="userSpaceOnUse" x1="4.3475" y1="-24.5913" x2="4.3475" y2="-25.5913" gradientTransform="matrix(23.1046 0 0 -7.35 -88.8958 -180.7469)">
				<stop  offset="0.13" style="stop-color:#00A9ED"/>
				<stop  offset="1" style="stop-color:#65106B"/>
			</linearGradient>
			<path id="Path_17497" fill="url(#Path_17497_1_)" d="M19.426,0H3.675c-2.03-0.001-3.676,1.643-3.677,3.673
				C-0.004,5.702,1.641,7.349,3.67,7.35c0.001,0,0.003,0,0.005,0h15.75c2.029,0.002,3.676-1.643,3.677-3.672
				C23.103,1.647,21.459,0.001,19.43,0C19.428,0,19.427,0,19.426,0z M19.426,5.25H3.675C2.805,5.25,2.1,4.545,2.1,3.675
				S2.805,2.1,3.675,2.1h15.75C20.295,2.1,21,2.805,21,3.675S20.295,5.25,19.426,5.25z"/>
		</g>
	</g>
	<g id="Group_2449" transform="translate(21.693 26.25)">
		<g id="Group_2448">
			
				<linearGradient id="Path_17498_1_" gradientUnits="userSpaceOnUse" x1="4.3475" y1="-19.3428" x2="4.3475" y2="-20.3428" gradientTransform="matrix(23.1046 0 0 -7.35 -88.8958 -142.1594)">
				<stop  offset="0.13" style="stop-color:#00A9ED"/>
				<stop  offset="1" style="stop-color:#65106B"/>
			</linearGradient>
			<path id="Path_17498" fill="url(#Path_17498_1_)" d="M19.426,0H3.675c-2.03-0.001-3.676,1.643-3.677,3.673
				C-0.004,5.702,1.641,7.349,3.67,7.35c0.001,0,0.003,0,0.005,0h15.75c2.029,0.002,3.676-1.643,3.677-3.672S21.459,0.001,19.43,0
				C19.428,0,19.427,0,19.426,0z M19.426,5.25H3.675C2.805,5.25,2.1,4.545,2.1,3.675C2.1,2.805,2.805,2.1,3.675,2.1h15.75
				C20.295,2.1,21,2.805,21,3.675C21,4.545,20.295,5.25,19.426,5.25z"/>
		</g>
	</g>
	<g id="Group_2453" transform="translate(18.217 42.581)">
		<g id="Group_2452" transform="translate(0)">
			
				<linearGradient id="Path_17500_1_" gradientUnits="userSpaceOnUse" x1="22.7015" y1="-29.5771" x2="22.7015" y2="-30.5771" gradientTransform="matrix(10.323 0 0 -8.3801 -229.1883 -247.8597)">
				<stop  offset="0.13" style="stop-color:#00A9ED"/>
				<stop  offset="1" style="stop-color:#65106B"/>
			</linearGradient>
			<path id="Path_17500" fill="url(#Path_17500_1_)" d="M7.15,1.864C6.055,0.042,3.691-0.548,1.868,0.547
				C0.046,1.642-0.545,4.007,0.55,5.829l0,0l1.531,2.548l1.8-1.082L2.35,4.747c-0.497-0.828-0.229-1.903,0.6-2.4
				s1.903-0.229,2.4,0.6L8.523,8.23l1.8-1.082L7.15,1.864z"/>
		</g>
	</g>
	<g id="Group_2455" transform="translate(10.146 40.292)">
		<g id="Group_2454">
			
				<linearGradient id="Path_17501_1_" gradientUnits="userSpaceOnUse" x1="9.814" y1="-1.8594" x2="9.814" y2="-2.8594" gradientTransform="matrix(46.7714 0 0 -20.1748 -435.6401 -37.5035)">
				<stop  offset="0.13" style="stop-color:#00A9ED"/>
				<stop  offset="1" style="stop-color:#65106B"/>
			</linearGradient>
			<path id="Path_17501" fill="url(#Path_17501_1_)" d="M26.854,4.298c3.934,1.684,7.658,3.734,7.701,3.756l0.235,0.129L46.773,8.21
				v-2.1L35.327,6.084c-0.9-0.485-4.134-2.213-7.633-3.711c-7.79-3.335-9.8-2.5-10.684-1.412c-0.539,0.644-0.742,1.503-0.548,2.32
				c0.467,2.079,3.311,4.032,5.244,5.145l-1.489,0.938L10.023,9.549L5.544,7.187C3.751,6.243,1.535,6.841,0.46,8.558H0.453
				L0.335,8.778h0.007c-0.831,1.85-0.092,4.026,1.692,4.988l6.826,3.672l12.105,1.6c0.7,0.352,2.825,1.138,7.781,1.138
				c5.973-0.134,11.92-0.831,17.763-2.081l-0.399-2.061c-19.344,3.768-24.214,1.119-24.238,1.107l-0.2-0.129L9.517,15.407
				l-6.488-3.489c-0.822-0.37-1.189-1.337-0.818-2.159C2.581,8.937,3.547,8.569,4.37,8.94C4.437,8.97,4.501,9.005,4.563,9.043
				l4.957,2.616l11.32-0.205l5.122-3.225l-1.706-0.823c-2.2-1.062-5.431-3.185-5.744-4.583c-0.052-0.191-0.002-0.396,0.133-0.54
				C18.654,2.269,19.738,1.254,26.854,4.298z"/>
		</g>
	</g>
	<g id="Group_2457" transform="translate(55.36 43.031)">
		<g id="Group_2456">
			
				<linearGradient id="Path_17502_1_" gradientUnits="userSpaceOnUse" x1="-17.2858" y1="-4.7878" x2="-17.2858" y2="-5.7878" gradientTransform="matrix(11.544 0 0 -19.965 205.3233 -95.5931)">
				<stop  offset="0.13" style="stop-color:#00A9ED"/>
				<stop  offset="1" style="stop-color:#65106B"/>
			</linearGradient>
			<path id="Path_17502" fill="url(#Path_17502_1_)" d="M10.494,0H1.05C0.47,0,0,0.47,0,1.05l0,0v17.864
				c0,0.58,0.47,1.051,1.05,1.051l0,0h9.444c0.58,0,1.05-0.471,1.05-1.051l0,0V1.05C11.544,0.47,11.074,0,10.494,0L10.494,0z
				 M9.444,17.869H2.1V2.1h7.344V17.869z"/>
		</g>
	</g>
</g>
</svg>
