<?xml version="1.0" encoding="utf-8"?>
<!-- Generator: Adobe Illustrator 16.0.0, SVG Export Plug-In . SVG Version: 6.00 Build 0)  -->
<!DOCTYPE svg PUBLIC "-//W3C//DTD SVG 1.1//EN" "http://www.w3.org/Graphics/SVG/1.1/DTD/svg11.dtd">
<svg version="1.1" id="Layer_1" xmlns="http://www.w3.org/2000/svg" xmlns:xlink="http://www.w3.org/1999/xlink" x="0px" y="0px"
	 width="63px" height="47.094px" viewBox="0 0 63 47.094" enable-background="new 0 0 63 47.094" xml:space="preserve">
<g id="cargo-ship" transform="translate(0.034 0)">
	
		<linearGradient id="Path_17805_1_" gradientUnits="userSpaceOnUse" x1="-165.5667" y1="258.7002" x2="-165.5667" y2="257.7002" gradientTransform="matrix(2.46 0 0 -2.46 458.8455 665.9367)">
		<stop  offset="0" style="stop-color:#00A9E0"/>
		<stop  offset="1" style="stop-color:#801C7D"/>
	</linearGradient>
	<path id="Path_17805" fill="url(#Path_17805_1_)" d="M51.556,29.531c-0.68,0-1.23,0.551-1.23,1.229c0,0.68,0.551,1.23,1.23,1.23
		s1.229-0.551,1.229-1.23C52.784,30.082,52.236,29.531,51.556,29.531L51.556,29.531z"/>
	
		<linearGradient id="Path_17806_1_" gradientUnits="userSpaceOnUse" x1="-165.5667" y1="258.7002" x2="-165.5667" y2="257.7002" gradientTransform="matrix(2.46 0 0 -2.46 453.9236 665.9367)">
		<stop  offset="0" style="stop-color:#00A9E0"/>
		<stop  offset="1" style="stop-color:#801C7D"/>
	</linearGradient>
	<path id="Path_17806" fill="url(#Path_17806_1_)" d="M46.634,29.531c-0.68,0-1.23,0.551-1.23,1.229c0,0.68,0.551,1.23,1.23,1.23
		c0.678,0,1.229-0.551,1.229-1.23C47.862,30.082,47.312,29.531,46.634,29.531L46.634,29.531z"/>
	
		<linearGradient id="Path_17807_1_" gradientUnits="userSpaceOnUse" x1="-165.5667" y1="258.7002" x2="-165.5667" y2="257.7002" gradientTransform="matrix(2.46 0 0 -2.46 449.0018 665.9367)">
		<stop  offset="0" style="stop-color:#00A9E0"/>
		<stop  offset="1" style="stop-color:#801C7D"/>
	</linearGradient>
	<path id="Path_17807" fill="url(#Path_17807_1_)" d="M41.712,29.531c-0.68,0-1.23,0.551-1.23,1.229c0,0.68,0.551,1.23,1.23,1.23
		c0.678,0,1.229-0.551,1.229-1.23C42.941,30.082,42.39,29.531,41.712,29.531L41.712,29.531z"/>
	
		<linearGradient id="Path_17808_1_" gradientUnits="userSpaceOnUse" x1="-165.5662" y1="258.7012" x2="-165.5662" y2="257.7012" gradientTransform="matrix(2.46 0 0 -2.46 416.275 663.4758)">
		<stop  offset="0" style="stop-color:#00A9E0"/>
		<stop  offset="1" style="stop-color:#801C7D"/>
	</linearGradient>
	<path id="Path_17808" fill="url(#Path_17808_1_)" d="M8.981,27.07c-0.68,0-1.23,0.551-1.23,1.229c0,0.68,0.551,1.23,1.23,1.23
		s1.23-0.551,1.23-1.23l0,0C10.211,27.621,9.66,27.07,8.981,27.07z"/>
	
		<linearGradient id="Path_17809_1_" gradientUnits="userSpaceOnUse" x1="-269.3177" y1="410.0518" x2="-269.3177" y2="409.0518" gradientTransform="matrix(63 0 0 -39.7119 16998.5469 16283.9307)">
		<stop  offset="0" style="stop-color:#00A9E0"/>
		<stop  offset="1" style="stop-color:#801C7D"/>
	</linearGradient>
	<path id="Path_17809" fill="url(#Path_17809_1_)" d="M61.769,24.609h-4.061V11.074c-0.006-2.037-1.654-3.687-3.691-3.691h-1.23
		V1.23c0-0.68-0.551-1.23-1.23-1.23c-0.678,0-1.23,0.551-1.23,1.23v6.153h-1.225c-2.041,0-3.695,1.651-3.701,3.691v13.535h-2.457
		V11.074c0-0.68-0.551-1.23-1.23-1.23l0,0h-13.9V3.691c0-0.679-0.551-1.23-1.23-1.23h-17.6c-0.679,0-1.23,0.551-1.23,1.23v6.153
		H6.521c-0.68,0-1.23,0.551-1.23,1.23v8.613H1.23c-0.68,0-1.23,0.551-1.23,1.23c0,0,0,0,0,0.001
		c0.091,5.267,2.171,10.303,5.822,14.1C5.31,35.303,4.833,35.646,4.4,36.042c-0.895,0.751-2.018,1.178-3.186,1.208
		c-0.679,0.025-1.209,0.598-1.183,1.277c0.025,0.654,0.559,1.176,1.214,1.184c1.77-0.043,3.47-0.696,4.813-1.85
		c1.543-1.581,4.076-1.611,5.657-0.068c0.022,0.022,0.045,0.045,0.067,0.068c2.652,2.467,6.759,2.467,9.41,0
		c1.543-1.581,4.076-1.611,5.656-0.068c0.023,0.021,0.046,0.045,0.069,0.068c2.651,2.467,6.758,2.467,9.41,0
		c1.543-1.581,4.076-1.611,5.656-0.068c0.023,0.021,0.047,0.045,0.068,0.068c2.51,2.466,6.531,2.466,9.041,0
		c1.543-1.581,4.076-1.611,5.656-0.068c0.023,0.021,0.047,0.045,0.068,0.068c1.381,1.191,3.145,1.848,4.967,1.849
		c0.68-0.026,1.209-0.599,1.184-1.277c-0.025-0.655-0.559-1.175-1.215-1.184c-1.072-0.006-2.115-0.345-2.986-0.969
		c2.648-2.841,4.156-6.558,4.234-10.44c0-0.68-0.551-1.23-1.23-1.23H61.769z M47.868,14.765h7.383v9.844h-7.387L47.868,14.765z
		 M49.101,9.843h4.92c0.678,0.001,1.229,0.551,1.23,1.23V12.3h-7.387v-1.23C47.868,10.391,48.421,9.842,49.101,9.843L49.101,9.843z
		 M40.482,24.609H30.269V12.3h10.212V24.609z M10.212,4.922h15.135v4.922H10.212V4.922z M7.751,12.3h20.057v12.3h-2.931
		l-2.121-4.242c-0.208-0.417-0.634-0.68-1.1-0.68H7.751V12.3z M56.737,34.854c-2.441-1.179-5.359-0.703-7.299,1.189
		c-1.543,1.581-4.076,1.611-5.656,0.068c-0.023-0.022-0.047-0.045-0.068-0.068c-2.51-2.465-6.533-2.465-9.041,0
		c-1.713,1.61-4.383,1.61-6.095,0c-2.509-2.465-6.531-2.465-9.041,0c-1.712,1.61-4.381,1.61-6.094,0
		c-1.326-1.275-3.125-1.94-4.962-1.833c-3.405-3.151-5.531-7.444-5.973-12.062H20.9l2.121,4.243c0.209,0.414,0.636,0.672,1.1,0.668
		h36.347c-0.396,2.926-1.701,5.654-3.73,7.799V34.854z"/>
	
		<linearGradient id="Path_17810_1_" gradientUnits="userSpaceOnUse" x1="-165.6107" y1="339.3975" x2="-165.6107" y2="338.3975" gradientTransform="matrix(2.461 0 0 -4.9215 459.1219 1687.5692)">
		<stop  offset="0" style="stop-color:#00A9E0"/>
		<stop  offset="1" style="stop-color:#801C7D"/>
	</linearGradient>
	<path id="Path_17810" fill="url(#Path_17810_1_)" d="M51.556,17.226c-0.68,0-1.23,0.551-1.23,1.23l0,0v2.461
		c0,0.68,0.551,1.23,1.23,1.23s1.23-0.551,1.23-1.23v-2.461C52.786,17.777,52.236,17.226,51.556,17.226L51.556,17.226z"/>
	
		<linearGradient id="Path_17811_1_" gradientUnits="userSpaceOnUse" x1="-239.2713" y1="258.7656" x2="-239.2713" y2="257.7656" gradientTransform="matrix(7.752 0 0 -2.461 1871.3843 663.8922)">
		<stop  offset="0" style="stop-color:#00A9E0"/>
		<stop  offset="1" style="stop-color:#801C7D"/>
	</linearGradient>
	<path id="Path_17811" fill="url(#Path_17811_1_)" d="M19.194,27.07h-5.291c-0.68,0-1.23,0.551-1.23,1.23s0.551,1.23,1.23,1.23
		h5.291c0.68,0,1.23-0.551,1.23-1.23S19.874,27.07,19.194,27.07L19.194,27.07z"/>
	
		<linearGradient id="Path_17812_1_" gradientUnits="userSpaceOnUse" x1="-269.3182" y1="348.1221" x2="-269.3182" y2="347.1221" gradientTransform="matrix(63.0078 0 0 -5.5185 17000.6406 1962.6744)">
		<stop  offset="0" style="stop-color:#00A9E0"/>
		<stop  offset="1" style="stop-color:#801C7D"/>
	</linearGradient>
	<path id="Path_17812" fill="url(#Path_17812_1_)" d="M61.784,47.093c0.68-0.022,1.213-0.593,1.189-1.272
		c-0.023-0.652-0.551-1.174-1.205-1.188h-0.016c-1.201-0.003-2.361-0.431-3.277-1.207c-2.51-2.466-6.531-2.466-9.041,0
		c-1.543,1.581-4.074,1.612-5.656,0.069c-0.023-0.023-0.045-0.046-0.068-0.069c-2.51-2.466-6.531-2.466-9.041,0
		c-1.713,1.61-4.382,1.61-6.094,0c-2.509-2.466-6.532-2.466-9.041,0c-1.712,1.61-4.381,1.61-6.094,0
		c-2.509-2.466-6.532-2.466-9.041,0c-0.895,0.751-2.018,1.177-3.186,1.207c-0.68-0.009-1.238,0.535-1.247,1.215
		c-0.009,0.681,0.535,1.238,1.215,1.247c0.021,0,0.042,0,0.063-0.001c1.77-0.042,3.47-0.696,4.812-1.85
		c1.543-1.581,4.076-1.612,5.657-0.069c0.023,0.023,0.046,0.046,0.068,0.069c2.651,2.467,6.758,2.467,9.41,0
		c1.543-1.581,4.075-1.612,5.656-0.069c0.023,0.023,0.046,0.046,0.069,0.069c2.651,2.467,6.759,2.467,9.409,0
		c1.543-1.581,4.076-1.612,5.658-0.069c0.021,0.023,0.045,0.046,0.068,0.069c2.508,2.466,6.531,2.466,9.041,0
		c1.543-1.581,4.074-1.612,5.656-0.069c0.023,0.023,0.045,0.046,0.068,0.069C58.196,46.438,59.96,47.094,61.784,47.093z"/>
</g>
</svg>
