<?xml version="1.0" encoding="utf-8"?>
<!-- Generator: Adobe Illustrator 14.0.0, SVG Export Plug-In . SVG Version: 6.00 Build 43363)  -->
<!DOCTYPE svg PUBLIC "-//W3C//DTD SVG 1.1//EN" "http://www.w3.org/Graphics/SVG/1.1/DTD/svg11.dtd">
<svg version="1.1" id="depreciation" xmlns="http://www.w3.org/2000/svg" xmlns:xlink="http://www.w3.org/1999/xlink" x="0px"
	 y="0px" width="65px" height="65px" viewBox="0 0 65 65" enable-background="new 0 0 65 65" xml:space="preserve">
<g id="value" transform="translate(-56 -16.001)">
	
		<linearGradient id="Path_19142_1_" gradientUnits="userSpaceOnUse" x1="78.5967" y1="53.2608" x2="78.5967" y2="52.2608" gradientTransform="matrix(19.08 0 0 -18.02 -1412.1201 989.702)">
		<stop  offset="0.13" style="stop-color:#00A9ED"/>
		<stop  offset="1" style="stop-color:#65106B"/>
	</linearGradient>
	<path id="Path_19142" fill="url(#Path_19142_1_)" d="M90.68,31.011v2.12H87.5c-0.585,0-1.06,0.475-1.06,1.06v3.18h-3.18
		c-0.585,0-1.06,0.475-1.06,1.06v2.12h-3.18c-0.585,0-1.06,0.475-1.06,1.06v5.3c0,0.585,0.475,1.06,1.06,1.06h16.96
		c0.585,0,1.06-0.474,1.06-1.06v-15.9c0-0.585-0.475-1.06-1.06-1.06h-4.24C91.154,29.951,90.68,30.425,90.68,31.011L90.68,31.011z
		 M80.08,42.671h2.12v3.18h-2.12V42.671z M84.32,39.491h2.12v6.36h-2.12V39.491z M88.561,35.251h2.119v10.6h-2.119V35.251z
		 M92.8,32.071h2.12v13.78H92.8V32.071z"/>
	
		<linearGradient id="Path_19143_1_" gradientUnits="userSpaceOnUse" x1="195.3672" y1="-98.542" x2="195.3672" y2="-99.5425" gradientTransform="matrix(2.12 0 0 -2.12 -328.8007 -159.8769)">
		<stop  offset="0.13" style="stop-color:#00A9ED"/>
		<stop  offset="1" style="stop-color:#65106B"/>
	</linearGradient>
	<path id="Path_19143" fill="url(#Path_19143_1_)" d="M84.32,49.03h2.12v2.121h-2.12V49.03z"/>
	
		<linearGradient id="Path_19144_1_" gradientUnits="userSpaceOnUse" x1="195.3682" y1="-98.542" x2="195.3682" y2="-99.5425" gradientTransform="matrix(2.12 0 0 -2.12 -333.0389 -159.8769)">
		<stop  offset="0.13" style="stop-color:#00A9ED"/>
		<stop  offset="1" style="stop-color:#65106B"/>
	</linearGradient>
	<path id="Path_19144" fill="url(#Path_19144_1_)" d="M80.08,49.03h2.12v2.121h-2.12V49.03z"/>
	
		<linearGradient id="Path_19145_1_" gradientUnits="userSpaceOnUse" x1="195.3672" y1="-98.542" x2="195.3672" y2="-99.5425" gradientTransform="matrix(2.12 0 0 -2.12 -324.5585 -159.8769)">
		<stop  offset="0.13" style="stop-color:#00A9ED"/>
		<stop  offset="1" style="stop-color:#65106B"/>
	</linearGradient>
	<path id="Path_19145" fill="url(#Path_19145_1_)" d="M88.561,49.03h2.119v2.121h-2.119V49.03z"/>
	
		<linearGradient id="Path_19146_1_" gradientUnits="userSpaceOnUse" x1="195.3682" y1="-98.542" x2="195.3682" y2="-99.5425" gradientTransform="matrix(2.12 0 0 -2.12 -320.3202 -159.8769)">
		<stop  offset="0.13" style="stop-color:#00A9ED"/>
		<stop  offset="1" style="stop-color:#65106B"/>
	</linearGradient>
	<path id="Path_19146" fill="url(#Path_19146_1_)" d="M92.8,49.03h2.12v2.121H92.8V49.03z"/>
	
		<linearGradient id="Path_19147_1_" gradientUnits="userSpaceOnUse" x1="69.2544" y1="67.669" x2="69.2544" y2="66.669" gradientTransform="matrix(53 0 0 -62.541 -3583.002 4249.3223)">
		<stop  offset="0.13" style="stop-color:#00A9ED"/>
		<stop  offset="1" style="stop-color:#65106B"/>
	</linearGradient>
	<path id="Path_19147" fill="url(#Path_19147_1_)" d="M61,46.911V57.63c-0.005,4.254,2.122,8.229,5.664,10.584l0.7,0.464v10.033
		c0,0.585,0.474,1.06,1.06,1.06H81.14c0.585,0,1.06-0.475,1.06-1.06v-13.3c3.49,0.779,7.109,0.779,10.6,0v13.3
		c0,0.585,0.475,1.06,1.06,1.06h12.721c0.586,0,1.061-0.475,1.061-1.06V68.678l0.699-0.464c3.541-2.357,5.666-6.33,5.66-10.584
		V46.911c-0.002-1.389-0.902-2.616-2.227-3.034c0.068-0.752,0.106-1.51,0.106-2.266c0-0.585-0.475-1.06-1.06-1.06h-8.48
		c-0.586,0-1.061,0.475-1.061,1.06c0,7.611-6.17,13.78-13.78,13.779c-7.61,0-13.78-6.17-13.779-13.781
		c0-7.61,6.169-13.779,13.78-13.779c0.586,0,1.061-0.475,1.061-1.06v-8.48c0-0.585-0.475-1.06-1.061-1.06
		c-13.458,0.016-24.365,10.922-24.38,24.38c0,0.756,0.038,1.514,0.107,2.266C61.902,44.294,61.001,45.522,61,46.911z M80.08,77.651
		h-10.6v-8.48h10.6V77.651z M105.52,77.651h-10.6v-8.48h10.6V77.651z M111.88,57.631c0.004,3.546-1.769,6.856-4.72,8.819l-0.9,0.601
		H94.92V64.83c1.885-0.603,3.69-1.433,5.375-2.47c-0.049,0.361-0.074,0.726-0.074,1.091v1.479h2.119v-1.478
		c-0.002-2.034,1.016-3.935,2.709-5.062c0.295-0.196,0.473-0.527,0.473-0.882v-4.239c0-0.585,0.475-1.06,1.06-1.06
		s1.06,0.475,1.06,1.06l0,0v5.301h2.121v-11.66c0-0.585,0.474-1.06,1.059-1.06c0.586,0,1.061,0.475,1.061,1.06L111.88,57.631z
		 M86.44,19.376v6.37c-8.762,0.585-15.39,8.163-14.804,16.925c0.586,8.762,8.163,15.391,16.925,14.805
		c7.945-0.531,14.273-6.859,14.805-14.805h6.369c-0.02,0.431-0.053,0.86-0.1,1.287c-1.207,0.483-1.998,1.652-2,2.953v3.361
		c-1.656-0.585-3.473,0.283-4.059,1.938c-0.12,0.341-0.182,0.7-0.182,1.062v3.701c-0.652,0.504-1.227,1.105-1.699,1.781
		c-8.238,6.828-20.169,6.828-28.407,0c-0.474-0.676-1.047-1.277-1.7-1.781v-3.701c0.002-1.756-1.42-3.18-3.176-3.182
		c-0.362,0-0.722,0.061-1.064,0.182v-3.361c-0.001-1.301-0.793-2.47-2-2.953c-0.082-0.78-0.123-1.563-0.123-2.347
		c0.014-11.876,9.338-21.656,21.2-22.235H86.44z M63.12,46.911c0-0.585,0.476-1.06,1.061-1.059c0.584,0,1.058,0.474,1.059,1.059
		v11.66h2.12v-5.301c0-0.585,0.476-1.059,1.061-1.059c0.585,0,1.059,0.475,1.059,1.059v4.24c0,0.354,0.177,0.686,0.472,0.883
		c1.694,1.126,2.711,3.025,2.709,5.061v1.477h2.12v-1.478c-0.001-0.365-0.026-0.729-0.075-1.091
		c1.685,1.037,3.489,1.865,5.374,2.468v2.218H68.741l-0.9-0.6c-2.952-1.964-4.724-5.275-4.72-8.82L63.12,46.911z"/>
	
		<linearGradient id="Path_19148_1_" gradientUnits="userSpaceOnUse" x1="129.6836" y1="-98.5425" x2="129.6836" y2="-99.5425" gradientTransform="matrix(4.24 0 0 -2.12 -443.281 -173.6581)">
		<stop  offset="0.13" style="stop-color:#00A9ED"/>
		<stop  offset="1" style="stop-color:#65106B"/>
	</linearGradient>
	<path id="Path_19148" fill="url(#Path_19148_1_)" d="M104.46,35.251h4.24v2.12h-4.24V35.251z"/>
	
		<linearGradient id="Path_19149_1_" gradientUnits="userSpaceOnUse" x1="107.79" y1="16.1543" x2="107.79" y2="15.1543" gradientTransform="matrix(6.36 0 0 -6.36 -590.6207 122.0886)">
		<stop  offset="0.13" style="stop-color:#00A9ED"/>
		<stop  offset="1" style="stop-color:#65106B"/>
	</linearGradient>
	<path id="Path_19149" fill="url(#Path_19149_1_)" d="M93.859,19.351v2.12H91.74v2.12h2.119v2.12h2.121v-2.12H98.1v-2.12H95.98
		v-2.12H93.859z"/>
</g>
</svg>
