<?xml version="1.0" encoding="utf-8"?>
<!-- Generator: Adobe Illustrator 14.0.0, SVG Export Plug-In . SVG Version: 6.00 Build 43363)  -->
<!DOCTYPE svg PUBLIC "-//W3C//DTD SVG 1.1//EN" "http://www.w3.org/Graphics/SVG/1.1/DTD/svg11.dtd">
<svg version="1.1" id="Layer_1" xmlns="http://www.w3.org/2000/svg" xmlns:xlink="http://www.w3.org/1999/xlink" x="0px" y="0px"
	 width="63px" height="63px" viewBox="0 0 63 63" enable-background="new 0 0 63 63" xml:space="preserve">
<g id="XMLID_918_" transform="translate(-0.004 0)">
	<g id="XMLID_1218_" transform="translate(0.004 0.001)">
		
			<linearGradient id="XMLID_2_" gradientUnits="userSpaceOnUse" x1="118.54" y1="-89.7979" x2="118.54" y2="-90.7979" gradientTransform="matrix(2.461 0 0 -2.4915 -229.957 -179.9879)">
			<stop  offset="0.13" style="stop-color:#00A9ED"/>
			<stop  offset="1" style="stop-color:#65106B"/>
		</linearGradient>
		<path id="XMLID_1269_" fill="url(#XMLID_2_)" d="M61.77,43.743c-0.68,0-1.23,0.551-1.23,1.23v0.03c0,0.68,0.551,1.23,1.23,1.23
			S63,45.684,63,45.004l0,0v-0.03C63,44.294,62.449,43.743,61.77,43.743L61.77,43.743z"/>
		
			<linearGradient id="XMLID_3_" gradientUnits="userSpaceOnUse" x1="11.4082" y1="50.7138" x2="11.4082" y2="49.7138" gradientTransform="matrix(62.2734 0 0 -63.0006 -679.2795 3194.9866)">
			<stop  offset="0.13" style="stop-color:#00A9ED"/>
			<stop  offset="1" style="stop-color:#65106B"/>
		</linearGradient>
		<path id="XMLID_1339_" fill="url(#XMLID_3_)" d="M61.396,48.72c-0.65-0.199-1.338,0.166-1.537,0.816
			c-2.52,8.219-11.225,12.84-19.445,10.32c-8.219-2.52-12.839-11.225-10.319-19.444c2.519-8.22,11.226-12.84,19.444-10.321
			c4.939,1.515,8.807,5.38,10.32,10.321c0.199,0.649,0.887,1.015,1.537,0.816c0.648-0.198,1.014-0.887,0.816-1.536
			c-1.127-3.645-3.371-6.842-6.416-9.139c-2.459-1.856-5.357-3.044-8.412-3.447c-0.682-5.947-2.971-11.119-7.801-17.671
			c-0.406-0.544-1.178-0.656-1.721-0.249c-0.367,0.273-0.551,0.728-0.479,1.179c0.34,1.951,0.328,3.947-0.035,5.895
			c-0.199-0.966-0.455-1.919-0.77-2.854C34.627,7.584,30.408,2.798,24.878,0.131c-0.606-0.306-1.346-0.063-1.652,0.543
			c-0.163,0.323-0.176,0.7-0.036,1.033c1.677,3.992,2.671,7.459-0.965,12.661c-1.343,1.895-2.466,3.936-3.346,6.085
			c-0.883-3.554-2.425-7.854-4.99-10.068c-0.514-0.444-1.291-0.387-1.735,0.127c-0.193,0.224-0.3,0.51-0.299,0.805
			c0,6.419-1.267,9.192-2.493,11.874c-0.981,1.896-1.616,3.952-1.877,6.07c-2.076-0.889-4.376-1.112-6.584-0.638
			c-0.654,0.182-1.038,0.859-0.856,1.514c0.057,0.205,0.167,0.393,0.317,0.543c2.99,3.364,4.504,7.788,4.204,12.279
			c-0.127,0.67-0.214,1.347-0.26,2.026c0,0.041-0.007,0.082-0.008,0.123c-0.539,9.326,6.584,17.323,15.911,17.862
			c0.314,0.019,0.629,0.028,0.944,0.028h23.819c3.904,0.014,7.705-1.25,10.824-3.6c3.047-2.297,5.293-5.494,6.422-9.14
			c0.199-0.649-0.166-1.339-0.814-1.538C61.4,48.721,61.398,48.72,61.396,48.72z M21.155,60.539
			c-7.983-0.018-14.44-6.503-14.423-14.487c0-0.284,0.01-0.568,0.027-0.853c0-0.007,0-0.015,0-0.021
			c0.041-0.613,0.12-1.223,0.237-1.824c0.009-0.047,0.015-0.094,0.019-0.142c0.322-4.384-0.869-8.745-3.373-12.357
			c1.538,0.109,3.026,0.592,4.335,1.407c0.58,0.354,1.336,0.172,1.691-0.408c0.119-0.194,0.181-0.416,0.181-0.643
			c0,0,0-0.011,0-0.017c-0.001-2.435,0.599-4.833,1.747-6.981c1.477-2.955,2.354-6.173,2.583-9.469
			c2.034,3.706,3.048,9.354,3.3,11.69c0.038,0.678,0.618,1.198,1.296,1.161c0.679-0.038,1.198-0.618,1.161-1.297
			c0-0.044,0.063-4.45,4.307-10.523c3.246-4.644,3.3-8.4,2.387-11.754c3.558,2.442,6.219,5.981,7.579,10.077
			c0.807,2.313,1.195,4.75,1.148,7.2c-0.049,0.678,0.461,1.266,1.139,1.315c0.41,0.029,0.809-0.149,1.061-0.475
			c1.533-2.279,2.395-4.942,2.488-7.687c2.541,3.745,4.195,8.02,4.836,12.5C34.928,27,26.898,35.107,26.947,45.062
			c0.031,6.379,3.433,12.268,8.944,15.481H21.155V60.539z"/>
		
			<linearGradient id="XMLID_4_" gradientUnits="userSpaceOnUse" x1="17.252" y1="42.0039" x2="17.252" y2="41.0039" gradientTransform="matrix(26.775 0 0 -25.1474 -416.957 1087.8938)">
			<stop  offset="0.13" style="stop-color:#00A9ED"/>
			<stop  offset="1" style="stop-color:#65106B"/>
		</linearGradient>
		<path id="XMLID_1350_" fill="url(#XMLID_4_)" d="M32.816,43.743c-0.68,0-1.229,0.551-1.23,1.229
			c0.001,4.785,2.552,9.206,6.695,11.6c0.59,0.34,1.344,0.136,1.682-0.454l0,0l4.117-7.13c0.588,0.133,1.199,0.133,1.789,0
			l4.109,7.121c0.332,0.592,1.082,0.804,1.676,0.472c0.004-0.002,0.008-0.005,0.012-0.007c4.143-2.395,6.695-6.815,6.695-11.6
			c-0.002-0.68-0.553-1.229-1.232-1.229h-8.236c-0.182-0.575-0.49-1.104-0.898-1.548l4.111-7.123
			c0.346-0.585,0.152-1.34-0.432-1.686c-0.004-0.002-0.008-0.004-0.01-0.006c-4.145-2.389-9.246-2.389-13.391,0
			c-0.576,0.334-0.781,1.066-0.465,1.653l0.018,0.028l4.117,7.133c-0.41,0.443-0.717,0.973-0.9,1.548L32.816,43.743z M38.479,53.761
			c-2.439-1.805-4.02-4.542-4.363-7.557h6.936c0.184,0.575,0.49,1.104,0.9,1.547L38.479,53.761z M43.324,44.974
			c0-0.91,0.738-1.647,1.648-1.647s1.648,0.737,1.648,1.647s-0.738,1.648-1.648,1.648c-0.912-0.002-1.648-0.741-1.646-1.652
			L43.324,44.974z M54.434,50.437c-0.75,1.3-1.76,2.432-2.967,3.324l-3.469-6.009c0.41-0.443,0.717-0.972,0.898-1.547h6.938
			C55.662,47.696,55.186,49.137,54.434,50.437L54.434,50.437z M44.973,34.049c1.5,0,2.986,0.309,4.363,0.907l-3.469,6.008
			c-0.59-0.133-1.201-0.133-1.789,0l-3.471-6.008C41.986,34.357,43.471,34.049,44.973,34.049L44.973,34.049z"/>
		
			<linearGradient id="XMLID_5_" gradientUnits="userSpaceOnUse" x1="29.2842" y1="15.8144" x2="29.2842" y2="14.8144" gradientTransform="matrix(12.3181 0 0 -8.9591 -344.4915 190.7986)">
			<stop  offset="0.13" style="stop-color:#00A9ED"/>
			<stop  offset="1" style="stop-color:#65106B"/>
		</linearGradient>
		<path id="XMLID_1660_" fill="url(#XMLID_5_)" d="M21.167,55.618c-3.798-0.006-7.229-2.268-8.731-5.755
			c-0.269-0.624-0.993-0.913-1.617-0.644c-0.624,0.269-0.912,0.992-0.644,1.616c1.89,4.39,6.208,7.235,10.987,7.242l0,0
			c0.68,0,1.23-0.551,1.23-1.23s-0.551-1.23-1.23-1.23L21.167,55.618z"/>
		
			<linearGradient id="XMLID_6_" gradientUnits="userSpaceOnUse" x1="118.1045" y1="-90.9541" x2="118.1045" y2="-91.9536" gradientTransform="matrix(2.4706 0 0 -2.472 -281.3452 -180.6382)">
			<stop  offset="0.13" style="stop-color:#00A9ED"/>
			<stop  offset="1" style="stop-color:#65106B"/>
		</linearGradient>
		<path id="XMLID_1661_" fill="url(#XMLID_6_)" d="M10.445,46.669c0.683,0.003,1.238-0.549,1.241-1.23
			c0.003-0.684-0.548-1.238-1.231-1.241c-0.65-0.003-1.19,0.498-1.238,1.146v0.03c-0.037,0.677,0.481,1.257,1.159,1.294h0
			L10.445,46.669z"/>
	</g>
</g>
</svg>
