<?xml version="1.0" encoding="utf-8"?>
<!-- Generator: Adobe Illustrator 16.0.0, SVG Export Plug-In . SVG Version: 6.00 Build 0)  -->
<!DOCTYPE svg PUBLIC "-//W3C//DTD SVG 1.1//EN" "http://www.w3.org/Graphics/SVG/1.1/DTD/svg11.dtd">
<svg version="1.1" id="hierarchical-structure" xmlns="http://www.w3.org/2000/svg" xmlns:xlink="http://www.w3.org/1999/xlink"
	 x="0px" y="0px" width="63px" height="63px" viewBox="0 0 63 63" enable-background="new 0 0 63 63" xml:space="preserve">
<g id="Group_2787">
	<g id="Group_2786">
		
			<linearGradient id="Path_17948_1_" gradientUnits="userSpaceOnUse" x1="-269.2837" y1="421.8271" x2="-269.2837" y2="420.8271" gradientTransform="matrix(62.9996 0 0 -62.9996 16996.2949 26574.8926)">
			<stop  offset="0" style="stop-color:#00A9E0"/>
			<stop  offset="1" style="stop-color:#801C7D"/>
		</linearGradient>
		<path id="Path_17948" fill="url(#Path_17948_1_)" d="M58.914,39.188l-8.107-8.108V19.306h-3.916
			c-0.473-1.667-1.139-3.273-1.983-4.785l2.77-2.77L39.055,3.13l-2.77,2.77c-1.512-0.846-3.118-1.512-4.785-1.984V0H19.306v3.916
			c-1.667,0.472-3.273,1.138-4.785,1.984l-2.77-2.77L3.13,11.752l2.77,2.77c-0.845,1.512-1.511,3.118-1.983,4.785H0V31.5h3.916
			c0.472,1.667,1.138,3.273,1.984,4.785l-2.77,2.77l8.622,8.622l2.77-2.77c1.512,0.845,3.118,1.511,4.785,1.983v3.916h11.772
			l8.108,8.107c5.447,5.447,14.279,5.447,19.727,0S64.361,44.635,58.914,39.188z M21.339,48.773v-3.463l-0.774-0.19
			c-2.002-0.489-3.918-1.282-5.68-2.353l-0.682-0.416L11.752,44.8L6,39.055l2.451-2.449l-0.414-0.683
			c-1.07-1.762-1.864-3.677-2.354-5.68l-0.19-0.775H2.032v-8.129H5.5l0.19-0.774c0.49-2.002,1.284-3.918,2.354-5.68l0.414-0.682
			L6,11.752L11.752,6L14.2,8.454l0.682-0.414c1.762-1.07,3.678-1.864,5.68-2.354l0.774-0.19V2.032h8.129V5.5l0.774,0.19
			c2.003,0.49,3.918,1.284,5.68,2.354l0.683,0.414L39.055,6l5.745,5.752L42.352,14.2l0.414,0.682c1.07,1.762,1.865,3.678,2.354,5.68
			l0.19,0.774h3.463v7.708L34.99,15.263c-5.448-5.448-14.28-5.448-19.727,0c-5.448,5.447-5.448,14.279,0,19.727l13.784,13.783
			H21.339z M49.051,60.968c-3.162,0.009-6.196-1.248-8.427-3.489L16.7,33.555c-4.654-4.655-4.654-12.201,0-16.854
			c4.654-4.654,12.2-4.654,16.854,0l23.922,23.924c4.654,4.653,4.654,12.199,0.002,16.853
			C55.242,59.713,52.211,60.969,49.051,60.968L49.051,60.968z"/>
		
			<linearGradient id="Path_17949_1_" gradientUnits="userSpaceOnUse" x1="-260.4307" y1="408.8604" x2="-260.4307" y2="407.8604" gradientTransform="matrix(20.322 0 0 -20.322 5317.8682 8324.1016)">
			<stop  offset="0" style="stop-color:#00A9E0"/>
			<stop  offset="1" style="stop-color:#801C7D"/>
		</linearGradient>
		<path id="Path_17949" fill="url(#Path_17949_1_)" d="M25.403,15.242c-5.612,0-10.161,4.549-10.161,10.161
			s4.549,10.162,10.161,10.162s10.162-4.55,10.162-10.162l0,0C35.557,19.794,31.012,15.249,25.403,15.242z M25.403,33.532
			c-4.489,0-8.129-3.64-8.129-8.129c0-4.489,3.64-8.129,8.129-8.129c4.49,0,8.129,3.64,8.129,8.129l0,0
			C33.526,29.89,29.89,33.526,25.403,33.532z"/>
		
			<linearGradient id="Path_17950_1_" gradientUnits="userSpaceOnUse" x1="-260.4307" y1="408.8604" x2="-260.4307" y2="407.8604" gradientTransform="matrix(20.322 0 0 -20.322 5341.2432 8347.46)">
			<stop  offset="0" style="stop-color:#00A9E0"/>
			<stop  offset="1" style="stop-color:#801C7D"/>
		</linearGradient>
		<path id="Path_17950" fill="url(#Path_17950_1_)" d="M48.773,38.613c-5.611,0-10.16,4.549-10.16,10.16
			c0,5.612,4.549,10.162,10.16,10.162c5.612,0,10.162-4.55,10.162-10.162C58.928,43.165,54.383,38.619,48.773,38.613z
			 M48.773,56.903c-4.488,0-8.129-3.64-8.129-8.13c0-4.488,3.641-8.129,8.129-8.129c4.49,0,8.129,3.641,8.129,8.129l0,0
			C56.897,53.262,53.262,56.897,48.773,56.903z"/>
		
			<linearGradient id="Path_17951_1_" gradientUnits="userSpaceOnUse" x1="-251.7188" y1="396.1025" x2="-251.7188" y2="395.1025" gradientTransform="matrix(12.1941 0 0 -12.1941 3118.251 4872.7725)">
			<stop  offset="0" style="stop-color:#00A9E0"/>
			<stop  offset="1" style="stop-color:#801C7D"/>
		</linearGradient>
		<path id="Path_17951" fill="url(#Path_17951_1_)" d="M52.693,47.758c-0.094-0.363-0.239-0.712-0.432-1.035l1.541-1.539
			l-1.438-1.438l-1.54,1.54c-0.323-0.191-0.672-0.337-1.035-0.433v-2.177h-2.032v2.177c-0.363,0.095-0.712,0.24-1.035,0.433
			l-1.539-1.54l-1.438,1.438l1.54,1.539c-0.191,0.324-0.337,0.672-0.433,1.035h-2.176v2.032h2.176
			c0.095,0.364,0.24,0.712,0.433,1.035l-1.54,1.54l1.438,1.438l1.539-1.541c0.324,0.191,0.672,0.337,1.035,0.433v2.177h2.032v-2.177
			c0.364-0.095,0.712-0.24,1.035-0.433l1.54,1.541l1.438-1.438l-1.541-1.54c0.191-0.323,0.337-0.672,0.432-1.035h2.178v-2.032
			H52.693z M48.773,50.807c-1.121,0-2.031-0.91-2.031-2.033c0-1.121,0.91-2.031,2.031-2.031c1.123,0,2.033,0.91,2.033,2.031
			c-0.002,1.121-0.909,2.029-2.029,2.033H48.773z"/>
		
			<linearGradient id="Path_17952_1_" gradientUnits="userSpaceOnUse" x1="-251.7192" y1="396.1025" x2="-251.7192" y2="395.1025" gradientTransform="matrix(12.194 0 0 -12.194 3094.8696 4849.3882)">
			<stop  offset="0" style="stop-color:#00A9E0"/>
			<stop  offset="1" style="stop-color:#801C7D"/>
		</linearGradient>
		<path id="Path_17952" fill="url(#Path_17952_1_)" d="M28.891,23.351l1.541-1.541l-1.437-1.437l-1.541,1.541
			c-0.323-0.191-0.672-0.336-1.035-0.432v-2.176h-2.032v2.177c-0.364,0.095-0.712,0.24-1.035,0.432l-1.541-1.541l-1.437,1.437
			l1.541,1.541c-0.191,0.323-0.336,0.672-0.432,1.035h-2.177v2.032h2.177c0.095,0.364,0.24,0.712,0.432,1.035l-1.541,1.541
			l1.437,1.437l1.541-1.541c0.323,0.191,0.672,0.336,1.035,0.432V31.5h2.032v-2.177c0.364-0.095,0.712-0.24,1.035-0.432l1.541,1.541
			l1.437-1.437l-1.541-1.541c0.191-0.323,0.336-0.672,0.432-1.035H31.5v-2.032h-2.177C29.229,24.023,29.083,23.674,28.891,23.351z
			 M25.403,27.435c-1.122,0-2.032-0.91-2.032-2.032c0-1.122,0.91-2.032,2.032-2.032c1.123,0,2.032,0.91,2.032,2.032l0,0
			c-0.001,1.121-0.908,2.029-2.029,2.032H25.403z"/>
		
			<linearGradient id="Path_17953_1_" gradientUnits="userSpaceOnUse" x1="-264.8457" y1="401.1104" x2="-264.8457" y2="400.1104" gradientTransform="matrix(30.69 0 0 -14.4645 8151.0762 5808.9746)">
			<stop  offset="0" style="stop-color:#00A9E0"/>
			<stop  offset="1" style="stop-color:#801C7D"/>
		</linearGradient>
		<path id="Path_17953" fill="url(#Path_17953_1_)" d="M25.403,9.145c4.304-0.012,8.433,1.695,11.474,4.74l1.436-1.44
			c-7.159-7.13-18.742-7.107-25.872,0.051c-2.363,2.373-4.03,5.349-4.818,8.604l1.975,0.477C11.347,14.27,17.89,9.124,25.403,9.145z
			"/>
		
			<linearGradient id="Path_17954_1_" gradientUnits="userSpaceOnUse" x1="-149.6191" y1="247.1729" x2="-149.6191" y2="246.1729" gradientTransform="matrix(2.144 0 0 -2.151 328.9701 554.9199)">
			<stop  offset="0" style="stop-color:#00A9E0"/>
			<stop  offset="1" style="stop-color:#801C7D"/>
		</linearGradient>
		<path id="Path_17954" fill="url(#Path_17954_1_)" d="M7.113,25.403h2.032c0-0.64,0.038-1.279,0.112-1.914l-2.018-0.237
			C7.155,23.966,7.113,24.684,7.113,25.403z"/>
	</g>
</g>
</svg>
