<?xml version="1.0" encoding="utf-8"?>
<!-- Generator: Adobe Illustrator 14.0.0, SVG Export Plug-In . SVG Version: 6.00 Build 43363)  -->
<!DOCTYPE svg PUBLIC "-//W3C//DTD SVG 1.1//EN" "http://www.w3.org/Graphics/SVG/1.1/DTD/svg11.dtd">
<svg version="1.1" id="depreciation" xmlns="http://www.w3.org/2000/svg" xmlns:xlink="http://www.w3.org/1999/xlink" x="0px"
	 y="0px" width="65px" height="65px" viewBox="0 0 65 65" enable-background="new 0 0 65 65" xml:space="preserve">
<g id="Page-1" transform="translate(0 0)">
	<g id="_024---Location-Points" transform="translate(0 0)">
		
			<linearGradient id="Shape_1_" gradientUnits="userSpaceOnUse" x1="18.8926" y1="42.873" x2="18.8926" y2="41.873" gradientTransform="matrix(25.2 0 0 -25.2 -443.6 1090.7562)">
			<stop  offset="0.13" style="stop-color:#00A9ED"/>
			<stop  offset="1" style="stop-color:#65106B"/>
		</linearGradient>
		<path id="Shape" fill="url(#Shape_1_)" d="M32.5,10.35c-6.959,0-12.6,5.641-12.6,12.6c0,6.958,5.641,12.601,12.6,12.601
			s12.6-5.642,12.6-12.601C45.1,15.991,39.459,10.35,32.5,10.35z M32.5,33.45c-5.799,0-10.5-4.701-10.5-10.5
			c0-5.799,4.701-10.5,10.5-10.5S43,17.151,43,22.95l0,0C43,28.749,38.299,33.45,32.5,33.45z"/>
		
			<linearGradient id="Shape-2_1_" gradientUnits="userSpaceOnUse" x1="12.3579" y1="51.2324" x2="12.3579" y2="50.2324" gradientTransform="matrix(63.0001 0 0 -58.8031 -746.0021 3017.6892)">
			<stop  offset="0.13" style="stop-color:#00A9ED"/>
			<stop  offset="1" style="stop-color:#65106B"/>
		</linearGradient>
		<path id="Shape-2" fill="url(#Shape-2_1_)" d="M51.4,13.5c-1.189,0-2.373,0.172-3.512,0.513
			C43.014,5.515,32.173,2.577,23.675,7.452c-2.731,1.566-4.996,3.831-6.562,6.562C15.973,13.672,14.79,13.5,13.6,13.5
			C6.612,13.558,0.983,19.248,1,26.236c0.027,4.592,1.353,9.082,3.824,12.952c0.083,0.138,0.165,0.26,0.252,0.391l0.061,0.091
			c1.995,3.063,4.503,5.759,7.413,7.972v5.76h-2.1c-0.58,0-1.05,0.471-1.049,1.051c0,0.579,0.47,1.049,1.049,1.049h6.3
			c0.58,0,1.049-0.471,1.049-1.051c-0.001-0.579-0.47-1.049-1.049-1.049h-2.1v-5.76c2.138-1.626,4.06-3.516,5.722-5.625
			c0.045,0.067,0.087,0.141,0.133,0.209l0.085,0.129c2.914,4.47,6.59,8.393,10.86,11.59v7.857H28.3c-0.58,0-1.049,0.471-1.049,1.051
			c0.001,0.578,0.47,1.048,1.049,1.049h8.4c0.579-0.001,1.05-0.472,1.049-1.051c-0.001-0.58-0.47-1.049-1.049-1.049h-3.15v-7.857
			c4.267-3.195,7.939-7.117,10.851-11.584l0.09-0.135c0.049-0.071,0.087-0.139,0.133-0.211c1.663,2.11,3.588,4.001,5.727,5.627v5.76
			h-2.1c-0.58,0-1.049,0.471-1.049,1.051c0.001,0.579,0.47,1.049,1.049,1.049h6.3c0.58,0,1.05-0.471,1.049-1.051
			c-0.001-0.579-0.47-1.049-1.049-1.049h-2.1v-5.76c2.907-2.209,5.413-4.902,7.405-7.961l0.068-0.1
			c0.088-0.13,0.169-0.253,0.244-0.377c2.476-3.874,3.805-8.37,3.832-12.967c0.004-1.8-0.374-3.581-1.109-5.225
			C60.879,16.458,56.377,13.516,51.4,13.5z M50.055,19.949c0.418-0.094,0.844-0.144,1.272-0.149c3.479,0,6.3,2.82,6.3,6.3
			s-2.82,6.3-6.3,6.3c-0.753,0.002-1.499-0.136-2.2-0.407c0.809-2.891,1.222-5.879,1.229-8.881
			C50.348,22.051,50.247,20.993,50.055,19.949L50.055,19.949z M15.862,31.939c-0.74,0.307-1.534,0.464-2.335,0.461
			c-3.479,0-6.3-2.82-6.3-6.3s2.821-6.3,6.3-6.3c0.477,0.005,0.952,0.066,1.414,0.183c-0.187,1.033-0.285,2.08-0.291,3.129
			C14.656,26.096,15.063,29.064,15.862,31.939z M13.6,45.801c-2.62-2.043-4.885-4.502-6.706-7.281l-0.074-0.1
			c-0.067-0.1-0.131-0.193-0.2-0.314c-2.271-3.545-3.492-7.66-3.52-11.87c-0.003-1.506,0.313-2.996,0.928-4.372
			C5.703,18.07,9.453,15.616,13.6,15.6c0.859,0,1.716,0.11,2.548,0.325c-0.282,0.651-0.525,1.319-0.727,2
			c-0.622-0.15-1.26-0.226-1.9-0.227c-4.639,0-8.4,3.761-8.4,8.4s3.761,8.4,8.4,8.4c1.011-0.004,2.013-0.193,2.955-0.561
			c0.726,2.119,1.643,4.166,2.74,6.119C17.605,42.209,15.717,44.141,13.6,45.801z M42.749,41.059l-0.101,0.152
			c-2.744,4.178-6.176,7.861-10.148,10.895c-3.975-3.037-7.407-6.725-10.152-10.905l-0.1-0.146c-0.1-0.147-0.2-0.293-0.307-0.483
			c-3.345-5.212-5.145-11.266-5.191-17.459c0-8.699,7.052-15.75,15.75-15.75s15.75,7.051,15.75,15.75
			c-0.049,6.207-1.856,12.272-5.213,17.493c-0.09,0.16-0.189,0.301-0.288,0.451V41.059z M58.374,38.109
			c-0.063,0.101-0.127,0.201-0.194,0.301l-0.08,0.12c-1.818,2.774-4.082,5.23-6.699,7.271c-2.119-1.657-4.01-3.588-5.621-5.74
			c1.086-1.938,1.996-3.969,2.721-6.068c0.905,0.332,1.861,0.504,2.826,0.508c4.639,0,8.4-3.761,8.4-8.4s-3.762-8.4-8.4-8.4
			c-0.591,0.003-1.18,0.07-1.756,0.2c-0.2-0.671-0.439-1.33-0.719-1.972c0.832-0.216,1.688-0.327,2.549-0.328
			c4.147,0.016,7.898,2.47,9.572,6.265c0.614,1.375,0.93,2.865,0.928,4.371c-0.031,4.211-1.254,8.327-3.526,11.872V38.109z"/>
	</g>
</g>
</svg>
