<?xml version="1.0" encoding="utf-8"?>
<!-- Generator: Adobe Illustrator 16.0.0, SVG Export Plug-In . SVG Version: 6.00 Build 0)  -->
<!DOCTYPE svg PUBLIC "-//W3C//DTD SVG 1.1//EN" "http://www.w3.org/Graphics/SVG/1.1/DTD/svg11.dtd">
<svg version="1.1" id="Layer_1" xmlns="http://www.w3.org/2000/svg" xmlns:xlink="http://www.w3.org/1999/xlink" x="0px" y="0px"
	 width="46.675px" height="62.729px" viewBox="0 0 46.675 62.729" enable-background="new 0 0 46.675 62.729" xml:space="preserve">
<g id="account" transform="translate(-0.001)">
	
		<linearGradient id="Path_17427_1_" gradientUnits="userSpaceOnUse" x1="-256.0185" y1="391.4192" x2="-256.0185" y2="390.4192" gradientTransform="matrix(10.676 0 0 -10.676 2745.1873 4178.7852)">
		<stop  offset="0.13" style="stop-color:#00A9ED"/>
		<stop  offset="1" style="stop-color:#65106B"/>
	</linearGradient>
	<path id="Path_17427" fill="url(#Path_17427_1_)" d="M11.934,10.675c2.948,0,5.338-2.39,5.338-5.338s-2.39-5.338-5.338-5.338
		c-2.948,0-5.338,2.39-5.338,5.338C6.599,8.283,8.987,10.672,11.934,10.675z M11.934,2.462c1.588,0,2.875,1.287,2.875,2.875
		s-1.287,2.875-2.875,2.875S9.059,6.925,9.059,5.337C9.061,3.75,10.347,2.464,11.934,2.462z"/>
	
		<linearGradient id="Path_17429_1_" gradientUnits="userSpaceOnUse" x1="-256.0185" y1="391.4192" x2="-256.0185" y2="390.4192" gradientTransform="matrix(10.676 0 0 -10.676 2774.5925 4178.7852)">
		<stop  offset="0.13" style="stop-color:#00A9ED"/>
		<stop  offset="1" style="stop-color:#65106B"/>
	</linearGradient>
	<path id="Path_17429" fill="url(#Path_17429_1_)" d="M41.338,10.675c2.947,0,5.338-2.39,5.338-5.338s-2.391-5.338-5.338-5.338
		c-2.949,0-5.338,2.39-5.338,5.338C36.003,8.283,38.391,10.672,41.338,10.675z M41.338,2.462c1.588,0,2.875,1.287,2.875,2.875
		s-1.287,2.875-2.875,2.875s-2.875-1.287-2.875-2.875C38.465,3.75,39.751,2.464,41.338,2.462z"/>
	
		<linearGradient id="Path_17431_1_" gradientUnits="userSpaceOnUse" x1="-256.019" y1="391.4182" x2="-256.019" y2="390.4182" gradientTransform="matrix(10.676 0 0 -10.676 2761.3972 4190.4814)">
		<stop  offset="0.13" style="stop-color:#00A9ED"/>
		<stop  offset="1" style="stop-color:#65106B"/>
	</linearGradient>
	<path id="Path_17431" fill="url(#Path_17431_1_)" d="M28.139,11.697c-2.948,0-5.338,2.39-5.338,5.338
		c0,2.947,2.39,5.338,5.338,5.338c2.947,0,5.338-2.391,5.338-5.338C33.473,14.087,31.085,11.699,28.139,11.697z M28.139,19.909
		c-1.588,0-2.875-1.287-2.875-2.875s1.287-2.875,2.875-2.875s2.875,1.287,2.875,2.875C31.012,18.621,29.726,19.907,28.139,19.909z"
		/>
	
		<linearGradient id="Path_17432_1_" gradientUnits="userSpaceOnUse" x1="-256.0185" y1="391.4182" x2="-256.0185" y2="390.4182" gradientTransform="matrix(10.676 0 0 -10.676 2774.5925 4204.1738)">
		<stop  offset="0.13" style="stop-color:#00A9ED"/>
		<stop  offset="1" style="stop-color:#65106B"/>
	</linearGradient>
	<path id="Path_17432" fill="url(#Path_17432_1_)" d="M41.338,25.393c-2.948,0-5.338,2.391-5.338,5.338
		c0,2.948,2.39,5.338,5.338,5.338c2.947,0,5.338-2.39,5.338-5.338C46.672,27.784,44.285,25.397,41.338,25.393z M41.338,33.606
		c-1.588,0-2.875-1.287-2.875-2.875s1.287-2.875,2.875-2.875s2.875,1.287,2.875,2.875C44.211,32.319,42.925,33.605,41.338,33.606z"
		/>
	
		<linearGradient id="Path_17433_1_" gradientUnits="userSpaceOnUse" x1="-272.8037" y1="420.1086" x2="-272.8037" y2="419.1086" gradientTransform="matrix(30.9066 0 0 -50.166 8446.9072 21087.6992)">
		<stop  offset="0.13" style="stop-color:#00A9ED"/>
		<stop  offset="1" style="stop-color:#65106B"/>
	</linearGradient>
	<path id="Path_17433" fill="url(#Path_17433_1_)" d="M29.21,50.016l0.469-0.646c0.795-0.962,1.23-2.172,1.229-3.42
		c0-0.681-0.551-1.231-1.23-1.231s-1.231,0.551-1.231,1.231c-0.001,0.729-0.271,1.433-0.76,1.975l-0.47,0.646
		c-0.548,0.753-0.842,1.661-0.84,2.593v3.3H11v-2.629c0.004-1.42-0.561-2.782-1.567-3.783l-2.251-2.25
		c-0.849-0.845-1.325-1.993-1.322-3.191v-1.257c0.002-2.282-0.445-4.542-1.315-6.651L2.52,29.775
		c-0.159-0.385,0.024-0.826,0.41-0.985c0.16-0.066,0.338-0.075,0.505-0.025c1.05,0.313,1.93,1.033,2.445,2l0.448,0.834
		c0.65,1.209,1.109,2.512,1.362,3.861l0.225,1.2c0.125,0.668,0.768,1.108,1.437,0.983c0.583-0.109,1.005-0.618,1.004-1.211V16.376
		c0-0.334,0.125-0.655,0.351-0.9l0.016-0.018c0.496-0.541,1.337-0.577,1.877-0.08c0.274,0.252,0.431,0.607,0.43,0.979v15.861
		c0,0.681,0.552,1.231,1.232,1.231c0.68,0,1.231-0.551,1.231-1.231v-7.477c-0.001-0.317,0.142-0.618,0.388-0.818
		c0.598-0.49,1.48-0.402,1.97,0.196c0.206,0.251,0.317,0.565,0.317,0.89v7.923c0,0.68,0.551,1.231,1.231,1.231
		c0.68,0,1.231-0.552,1.231-1.231v-4.854c-0.007-0.447,0.109-0.887,0.335-1.272c0.168-0.284,0.444-0.488,0.765-0.565
		c0.3-0.076,0.617-0.027,0.881,0.134l0.089,0.056c0.332,0.206,0.534,0.57,0.533,0.961v6.825c0,0.68,0.551,1.231,1.231,1.231
		c0.68,0,1.231-0.552,1.231-1.231v-2.184c-0.001-0.447,0.136-0.884,0.392-1.25c0.391-0.592,1.188-0.754,1.779-0.363
		c0.362,0.24,0.579,0.647,0.575,1.082v4.744c0,0.68,0.552,1.23,1.231,1.23s1.23-0.551,1.23-1.23v-4.744
		c0-1.818-1.297-3.378-3.084-3.709c-0.717-0.131-1.456-0.045-2.124,0.247v-0.647c0.005-1.241-0.636-2.396-1.69-3.05l-0.1-0.063
		c-0.823-0.51-1.818-0.665-2.758-0.432c-0.217,0.053-0.429,0.125-0.633,0.215c-0.525-2.072-2.63-3.327-4.703-2.802
		c-0.107,0.027-0.213,0.059-0.318,0.095v-5c-0.001-1.06-0.444-2.07-1.223-2.789c-1.541-1.419-3.939-1.32-5.358,0.221
		c0,0.001-0.001,0.002-0.002,0.003l-0.016,0.018c-0.644,0.699-1.001,1.615-1,2.566v12.947c-0.84-1.411-2.18-2.453-3.753-2.921
		c-1.703-0.51-3.496,0.457-4.006,2.159c-0.212,0.707-0.174,1.465,0.106,2.147l2.026,4.926c0.748,1.813,1.132,3.757,1.13,5.719v1.257
		c-0.005,1.852,0.731,3.627,2.043,4.933l2.25,2.25c0.543,0.54,0.848,1.274,0.846,2.041v2.669h-0.71
		c-0.678,0.003-1.226,0.552-1.227,1.229v5.771c0.001,0.679,0.552,1.229,1.231,1.229l0,0l21.371-0.006c0.68,0,1.23-0.553,1.23-1.232
		l0,0l-0.01-5.769c0.001-0.677-0.545-1.228-1.223-1.231H28.84v-3.329c0-0.413,0.131-0.814,0.373-1.148L29.21,50.016z M9.066,60.266
		l-0.005-3.305l18.906-0.006l0.006,3.306L9.066,60.266z"/>
	
		<linearGradient id="Path_17434_1_" gradientUnits="userSpaceOnUse" x1="-218.9165" y1="318.512" x2="-218.9165" y2="317.511" gradientTransform="matrix(4.3631 0 0 -3.5581 959.3881 1142.8987)">
		<stop  offset="0.13" style="stop-color:#00A9ED"/>
		<stop  offset="1" style="stop-color:#65106B"/>
	</linearGradient>
	<path id="Path_17434" fill="url(#Path_17434_1_)" d="M2.655,11.887l1.9,1.095c0.589,0.34,1.342,0.139,1.682-0.45
		c0.34-0.59,0.138-1.343-0.451-1.683l0,0l-1.9-1.095c-0.589-0.34-1.342-0.138-1.682,0.451S2.066,11.547,2.655,11.887z"/>
	
		<linearGradient id="Path_17435_1_" gradientUnits="userSpaceOnUse" x1="-222.5366" y1="293.6829" x2="-222.5366" y2="292.6829" gradientTransform="matrix(4.6302 0 0 -2.8998 1034.0629 867.0554)">
		<stop  offset="0.13" style="stop-color:#00A9ED"/>
		<stop  offset="1" style="stop-color:#65106B"/>
	</linearGradient>
	<path id="Path_17435" fill="url(#Path_17435_1_)" d="M2.586,18.334c0.083,0,0.165-0.008,0.245-0.024l2.146-0.433
		c0.668-0.123,1.11-0.766,0.987-1.434c-0.124-0.669-0.766-1.111-1.434-0.987c-0.014,0.002-0.027,0.005-0.041,0.008l-2.146,0.433
		c-0.667,0.134-1.099,0.782-0.965,1.449C1.494,17.921,2,18.335,2.586,18.334L2.586,18.334z"/>
	
		<linearGradient id="Path_17436_1_" gradientUnits="userSpaceOnUse" x1="-171.0141" y1="271.675" x2="-171.0141" y2="270.676" gradientTransform="matrix(2.4742 0 0 -2.4912 452.7954 716.6252)">
		<stop  offset="0.13" style="stop-color:#00A9ED"/>
		<stop  offset="1" style="stop-color:#65106B"/>
	</linearGradient>
	<path id="Path_17436" fill="url(#Path_17436_1_)" d="M30.812,40.603c-0.255-0.63-0.973-0.935-1.603-0.68
		c-0.631,0.255-0.936,0.973-0.681,1.603l0,0l0.011,0.028c0.256,0.631,0.973,0.935,1.604,0.68s0.935-0.973,0.68-1.603L30.812,40.603z
		"/>
</g>
</svg>
