<?xml version="1.0" encoding="utf-8"?>
<!-- Generator: Adobe Illustrator 16.0.0, SVG Export Plug-In . SVG Version: 6.00 Build 0)  -->
<!DOCTYPE svg PUBLIC "-//W3C//DTD SVG 1.1//EN" "http://www.w3.org/Graphics/SVG/1.1/DTD/svg11.dtd">
<svg version="1.1" id="Layer_1" xmlns="http://www.w3.org/2000/svg" xmlns:xlink="http://www.w3.org/1999/xlink" x="0px" y="0px"
	 width="63px" height="63px" viewBox="0 0 63 63" enable-background="new 0 0 63 63" xml:space="preserve">
<linearGradient id="Union_13_1_" gradientUnits="userSpaceOnUse" x1="-269.1328" y1="421.5928" x2="-269.1328" y2="420.5928" gradientTransform="matrix(60.5916 0 0 -60.5352 16338.8516 25522.5625)">
	<stop  offset="0.13" style="stop-color:#00A9ED"/>
	<stop  offset="1" style="stop-color:#65106B"/>
</linearGradient>
<path id="Union_13" fill="url(#Union_13_1_)" d="M38.621,58.308c0-0.646,0.171-1.283,0.495-1.844l2.132-3.691
	c0.338-0.588,1.088-0.791,1.678-0.453c0.188,0.107,0.344,0.266,0.453,0.453l2.131,3.691c1.018,1.766,0.411,4.023-1.355,5.041
	c-1.766,1.018-4.023,0.412-5.041-1.355C38.791,59.589,38.621,58.954,38.621,58.308L38.621,58.308z M41.242,57.696
	c-0.337,0.59-0.133,1.342,0.457,1.678c0.59,0.338,1.342,0.133,1.68-0.457c0.215-0.379,0.215-0.842,0-1.221l-1.066-1.848
	L41.242,57.696z M23.853,58.308c0-0.646,0.171-1.283,0.495-1.844l2.131-3.691c0.338-0.588,1.089-0.791,1.678-0.453
	c0.188,0.107,0.345,0.266,0.453,0.453l2.131,3.691c1.018,1.766,0.411,4.023-1.355,5.041c-1.766,1.018-4.023,0.412-5.041-1.355
	C24.023,59.589,23.853,58.954,23.853,58.308L23.853,58.308z M26.479,57.696c-0.11,0.186-0.167,0.396-0.167,0.611
	c0,0.682,0.552,1.232,1.233,1.232c0.681,0,1.232-0.551,1.232-1.232c0-0.215-0.057-0.426-0.167-0.611l-1.066-1.848L26.479,57.696z
	 M46.004,50.923c-0.002-0.646,0.168-1.281,0.49-1.842l2.131-3.693c0.34-0.588,1.094-0.789,1.682-0.449
	c0.188,0.107,0.342,0.264,0.449,0.449l2.137,3.693c1.018,1.766,0.411,4.023-1.355,5.041c-1.766,1.018-4.023,0.412-5.041-1.355
	C46.174,52.206,46.004,51.569,46.004,50.923L46.004,50.923z M48.625,50.313c-0.336,0.592-0.131,1.344,0.461,1.68
	c0.185,0.105,0.393,0.162,0.605,0.162c0.68,0,1.231-0.553,1.232-1.232c0-0.213-0.057-0.424-0.162-0.609l-1.072-1.85L48.625,50.313z
	 M31.236,50.923c0-0.646,0.17-1.281,0.495-1.842l2.132-3.693c0.34-0.588,1.093-0.789,1.682-0.449
	c0.186,0.107,0.341,0.264,0.449,0.449l2.131,3.693c1.018,1.766,0.411,4.023-1.355,5.041c-1.766,1.018-4.023,0.412-5.041-1.355
	C31.406,52.206,31.236,51.569,31.236,50.923L31.236,50.923z M33.862,50.313c-0.11,0.184-0.168,0.395-0.167,0.609
	c-0.004,0.68,0.543,1.232,1.223,1.236s1.233-0.543,1.237-1.223c0-0.004,0-0.01,0-0.014c0.003-0.215-0.054-0.426-0.162-0.609
	l-1.065-1.85L33.862,50.313z M16.468,50.923c0-0.646,0.171-1.281,0.495-1.842l2.131-3.693c0.341-0.588,1.094-0.789,1.682-0.449
	c0.187,0.107,0.341,0.264,0.449,0.449l2.131,3.693c1.018,1.766,0.411,4.023-1.355,5.041c-1.766,1.018-4.022,0.412-5.041-1.355
	C16.638,52.206,16.467,51.569,16.468,50.923L16.468,50.923z M19.094,50.313c-0.109,0.184-0.165,0.395-0.162,0.609
	c-0.004,0.68,0.544,1.232,1.223,1.236s1.233-0.543,1.237-1.223c0-0.004,0-0.01,0-0.014c0.001-0.215-0.057-0.426-0.167-0.609
	l-1.066-1.85L19.094,50.313z M40.463,42.313c-0.68,0-1.232-0.553-1.232-1.232s0.553-1.232,1.232-1.232h11.075c4.419,0,8-3.582,8-8
	s-3.581-8-8-8c-0.587,0.004-1.171,0.072-1.741,0.207c-0.662,0.148-1.318-0.27-1.465-0.93c-0.01-0.039-0.016-0.08-0.021-0.119
	c-0.771-6.375-6.564-10.916-12.938-10.145c-4.02,0.486-7.496,3.027-9.178,6.709c-0.234,0.5-0.773,0.783-1.318,0.691
	c-0.338-0.063-0.681-0.098-1.025-0.105c-3.396,0.006-6.148,2.76-6.151,6.156c0,0.68-0.552,1.229-1.231,1.229c0,0,0,0,0,0
	c-3.396-0.047-6.189,2.668-6.237,6.064s2.667,6.189,6.064,6.236c0.058,0,0.115,0,0.173,0h12.919c0.681,0,1.232,0.553,1.232,1.232
	s-0.552,1.232-1.232,1.232H16.469c-4.762-0.006-8.617-3.871-8.611-8.633c0.001-0.914,0.147-1.822,0.435-2.691H7.61
	C2.37,23.767,3.971,13.669,11.188,8.427c1.171-0.85,2.451-1.539,3.807-2.049c0.177,0,0.348,0.006,0.52,0.02
	c13.763-3.912,28.38,2.367,35.021,15.041c0.332-0.033,0.666-0.051,1-0.051c5.775,0.016,10.447,4.711,10.431,10.488
	c-0.017,5.754-4.677,10.416-10.431,10.432L40.463,42.313z M8.844,14.999c0,0.68-0.55,1.232-1.229,1.232c-0.001,0-0.002,0-0.003,0
	c-3.396-0.047-6.189,2.668-6.237,6.064s2.667,6.189,6.064,6.236c0.058,0,0.115,0,0.173,0h1.976c1.376-1.852,3.444-3.066,5.731-3.369
	c0.582-4.27,4.226-7.455,8.535-7.459c0.177,0,0.354,0.01,0.52,0.02c2.474-4.543,7.226-7.379,12.399-7.4
	c0.828,0,1.654,0.074,2.469,0.223C37.84,4.284,31.627,0.345,25.364,1.747c-3.548,0.795-6.52,3.205-8.03,6.512
	c-0.232,0.502-0.771,0.789-1.318,0.699c-0.336-0.064-0.678-0.102-1.021-0.107C11.601,8.853,8.848,11.604,8.844,14.999z
	 M33.697,41.085c0.001-0.68,0.553-1.229,1.232-1.229c0.68,0.002,1.229,0.555,1.227,1.232c0,0.678-0.55,1.227-1.227,1.229
	c-0.682-0.002-1.232-0.555-1.23-1.236l0,0L33.697,41.085z"/>
</svg>
