<svg xmlns="http://www.w3.org/2000/svg" width="63" height="63" viewBox="0 0 63 63">
  <g id="Group_2831" data-name="Group 2831" transform="translate(-909 -11391)">
    <g id="teamwork" transform="translate(909 11391)">
      <g id="Group_2829" data-name="Group 2829">
        <g id="Group_2828" data-name="Group 2828">
          <path id="Path_18156" data-name="Path 18156" d="M66.949,296.433c-.3,0-1.165-.945-1.736-1.572-1.715-1.883-4.306-4.728-8.764-4.728-4.34,0-5.25,1.141-5.25,2.1a1.05,1.05,0,0,0,2.005.436,7.4,7.4,0,0,1,3.244-.436c3.53,0,5.572,2.242,7.211,4.042,1.149,1.261,2.056,2.258,3.289,2.258H80.6a1.05,1.05,0,0,0,0-2.1H66.949Z" transform="translate(-44.899 -254.433)" fill="#147db2"/>
          <path id="Path_18157" data-name="Path 18157" d="M159.465,53.2a7.434,7.434,0,0,1,.435,3.244c0,3.53-2.242,5.571-4.044,7.211-1.261,1.149-2.256,2.056-2.256,3.289V80.6a1.05,1.05,0,0,0,2.1,0V66.949c0-.3.945-1.165,1.571-1.736C159.154,63.5,162,60.907,162,56.449c0-4.339-1.142-5.25-2.1-5.25a1.05,1.05,0,0,0-.435,2.006Z" transform="translate(-134.7 -44.899)"/>
          <path id="Path_18158" data-name="Path 18158" d="M0,19.95A1.05,1.05,0,0,0,1.05,21h5.1A5.381,5.381,0,0,1,6.3,22.05v10.5a1.05,1.05,0,0,0,2.1,0V22.05a15.789,15.789,0,0,0-.939-4.13A20.12,20.12,0,0,1,6.3,12.6V3.15a1.05,1.05,0,0,1,2.1,0,1.05,1.05,0,1,0,2.1,0,1.05,1.05,0,1,1,2.1,0,1.05,1.05,0,1,0,2.1,0,1.05,1.05,0,0,1,2.1,0,1.05,1.05,0,0,0,2.1,0,1.05,1.05,0,0,1,2.1,0v8.4a1.05,1.05,0,0,0,2.1,0V3.15A3.148,3.148,0,0,0,17.85.8a3.143,3.143,0,0,0-4.2,0,3.143,3.143,0,0,0-4.2,0A3.148,3.148,0,0,0,4.2,3.15V6.3H1.05a1.05,1.05,0,1,0,0,2.1H4.2v4.2a21.52,21.52,0,0,0,1.256,5.943c.038.121.073.237.11.357H1.05A1.05,1.05,0,0,0,0,19.95Z"/>
          <path id="Path_18159" data-name="Path 18159" d="M229.77,157.272c1.715,1.883,4.306,4.728,8.764,4.728,4.34,0,5.25-1.141,5.25-2.1a1.05,1.05,0,0,0-2.005-.436,7.4,7.4,0,0,1-3.244.436c-3.53,0-5.572-2.242-7.211-4.042-1.149-1.261-2.056-2.258-3.289-2.258h-13.65a1.05,1.05,0,1,0,0,2.1h13.65C228.338,155.7,229.2,156.645,229.77,157.272Z" transform="translate(-187.084 -134.7)"/>
          <path id="Path_18161" data-name="Path 18161" d="M271.731,9.45a3.148,3.148,0,0,0-2.346-5.25h-3.15V1.05a1.05,1.05,0,0,0-2.1,0V4.2h-4.2a21.469,21.469,0,0,0-5.942,1.256l-.358.109V1.05a1.05,1.05,0,0,0-2.1,0v5.1a5.307,5.307,0,0,1-1.05.153h-10.5a1.05,1.05,0,1,0,0,2.1h10.5a15.771,15.771,0,0,0,4.13-.939,20.112,20.112,0,0,1,5.32-1.161h9.45a1.05,1.05,0,1,1,0,2.1,1.05,1.05,0,1,0,0,2.1,1.05,1.05,0,1,1,0,2.1,1.05,1.05,0,1,0,0,2.1,1.05,1.05,0,0,1,0,2.1,1.05,1.05,0,0,0,0,2.1,1.05,1.05,0,0,1,0,2.1h-8.4a1.05,1.05,0,0,0,0,2.1h8.4a3.148,3.148,0,0,0,2.346-5.25,3.143,3.143,0,0,0,0-4.2,3.144,3.144,0,0,0,0-4.2Z" transform="translate(-209.535)"/>
          <path id="Path_18162" data-name="Path 18162" d="M292.669,241.778a7.433,7.433,0,0,1-.435-3.244c0-3.53,2.242-5.571,4.044-7.211,1.261-1.149,2.256-2.056,2.256-3.289v-13.65a1.05,1.05,0,0,0-2.1,0v13.65c0,.3-.945,1.165-1.571,1.736-1.884,1.715-4.729,4.306-4.729,8.764,0,4.339,1.142,5.25,2.1,5.25a1.05,1.05,0,0,0,.435-2.006Z" transform="translate(-254.434 -187.084)"/>
          <path id="Path_18163" data-name="Path 18163" d="M347.372,252.585a1.05,1.05,0,0,0-1.05-1.05h-5.1a5.38,5.38,0,0,1-.153-1.05v-10.5a1.05,1.05,0,1,0-2.1,0v10.5a15.789,15.789,0,0,0,.939,4.13,20.117,20.117,0,0,1,1.161,5.32v9.45a1.05,1.05,0,1,1-2.1,0,1.05,1.05,0,1,0-2.1,0,1.05,1.05,0,1,1-2.1,0,1.05,1.05,0,0,0-2.1,0,1.05,1.05,0,0,1-2.1,0,1.05,1.05,0,0,0-2.1,0,1.05,1.05,0,0,1-2.1,0v-8.4a1.05,1.05,0,0,0-2.1,0v8.4a3.148,3.148,0,0,0,5.25,2.346,3.143,3.143,0,0,0,4.2,0,3.144,3.144,0,0,0,4.2,0,3.148,3.148,0,0,0,5.25-2.346v-3.15h3.15a1.05,1.05,0,0,0,0-2.1h-3.15v-4.2a21.52,21.52,0,0,0-1.256-5.943c-.038-.121-.073-.237-.11-.357h4.516A1.05,1.05,0,0,0,347.372,252.585Z" transform="translate(-284.372 -209.535)"/>
        </g>
      </g>
    </g>
    <g id="Group_2830" data-name="Group 2830" transform="translate(56 -91)">
      <path id="Path_18166" data-name="Path 18166" d="M6.3,343.168v3.15a1.05,1.05,0,1,0,2.1,0v-3.15Z" transform="translate(853 11197.632)"/>
      <path id="Path_18165" data-name="Path 18165" d="M18.9,341.8v4.515a1.05,1.05,0,1,0,2.1,0v-5.1C21.4,341.133,18.78,341.84,18.9,341.8Z" transform="translate(853 11197.632)"/>
      <path id="Path_18164" data-name="Path 18164" d="M32.55,338.968H22.05a15.771,15.771,0,0,0-4.13.939,20.107,20.107,0,0,1-5.32,1.161H3.15a1.05,1.05,0,0,1,0-2.1,1.05,1.05,0,0,0,0-2.1,1.05,1.05,0,0,1,0-2.1,1.05,1.05,0,0,0,0-2.1,1.05,1.05,0,0,1,0-2.1,1.05,1.05,0,0,0,0-2.1,1.05,1.05,0,0,1,0-2.1h8.4a1.05,1.05,0,0,0,0-2.1H3.15A3.148,3.148,0,0,0,.8,329.518a3.143,3.143,0,0,0,0,4.2,3.143,3.143,0,0,0,0,4.2,3.148,3.148,0,0,0,2.346,5.25H12.6a21.469,21.469,0,0,0,5.942-1.256l.358-.109,2.1-.582a8.847,8.847,0,0,1,1.05-.153h10.5a1.05,1.05,0,0,0,0-2.1Z" transform="translate(853 11197.632)" fill="#147db2"/>
    </g>
  </g>
</svg>
