<?xml version="1.0" encoding="utf-8"?>
<!-- Generator: Adobe Illustrator 16.0.0, SVG Export Plug-In . SVG Version: 6.00 Build 0)  -->
<!DOCTYPE svg PUBLIC "-//W3C//DTD SVG 1.1//EN" "http://www.w3.org/Graphics/SVG/1.1/DTD/svg11.dtd">
<svg version="1.1" id="Layer_1" xmlns="http://www.w3.org/2000/svg" xmlns:xlink="http://www.w3.org/1999/xlink" x="0px" y="0px"
	 width="63px" height="63px" viewBox="0 0 63 63" enable-background="new 0 0 63 63" xml:space="preserve">
<g id="Group_2253" transform="translate(-885 -930)">
	<g id="Group_2218" transform="translate(885 930)">
		
			<linearGradient id="Path_17327_1_" gradientUnits="userSpaceOnUse" x1="-268.9009" y1="418.7383" x2="-268.9009" y2="417.7383" gradientTransform="matrix(57.7477 0 0 -41.997 15557.2607 17585.748)">
			<stop  offset="0.13" style="stop-color:#00A9ED"/>
			<stop  offset="1" style="stop-color:#65106B"/>
		</linearGradient>
		<path id="Path_17327" fill="url(#Path_17327_1_)" d="M2.1,31.5C2.118,15.271,15.271,2.118,31.5,2.1
			c9.101,0.019,17.669,4.292,23.16,11.55H48.3c-0.579,0-1.05,0.47-1.05,1.05c0,0.58,0.471,1.05,1.05,1.05h8.4
			c0.03-0.005,0.062-0.011,0.092-0.019c0.067-0.007,0.135-0.021,0.2-0.041c0.068-0.02,0.137-0.046,0.199-0.08
			c0.03-0.01,0.06-0.022,0.088-0.036c0.029-0.019,0.045-0.049,0.07-0.071c0.057-0.044,0.106-0.095,0.151-0.15
			c0.042-0.051,0.078-0.105,0.108-0.163c0.031-0.058,0.057-0.119,0.076-0.182c0.021-0.068,0.036-0.138,0.041-0.21
			c0.01-0.033,0.017-0.066,0.021-0.1V6.3c0-0.58-0.469-1.05-1.049-1.051c-0.58-0.001-1.051,0.469-1.051,1.048
			c0,0.001,0,0.002,0,0.002v5.231C49.74,4.253,40.873,0.019,31.5,0C14.09,0.014-0.013,14.138,0,31.548
			c0.002,3.301,0.523,6.583,1.544,9.723c0.141,0.433,0.544,0.727,1,0.726c0.11-0.001,0.22-0.019,0.325-0.054
			c0.551-0.18,0.852-0.771,0.673-1.323C2.584,37.676,2.097,34.598,2.1,31.5z"/>
		
			<linearGradient id="Path_17329_1_" gradientUnits="userSpaceOnUse" x1="-268.9014" y1="418.7734" x2="-268.9014" y2="417.7734" gradientTransform="matrix(57.7546 0 0 -42.1532 15564.415 17673.4648)">
			<stop  offset="0.13" style="stop-color:#00A9ED"/>
			<stop  offset="1" style="stop-color:#65106B"/>
		</linearGradient>
		<path id="Path_17329" fill="url(#Path_17329_1_)" d="M61.396,21.549c-0.193-0.547-0.795-0.834-1.342-0.641
			c-0.533,0.188-0.822,0.765-0.652,1.305c5.176,15.332-3.057,31.957-18.389,37.133c-11.907,4.021-25.053-0.001-32.673-9.996h6.36
			c0.58,0,1.05-0.47,1.05-1.05c0-0.579-0.47-1.05-1.05-1.05h-8.4c-0.03,0.005-0.06,0.012-0.09,0.02
			c-0.071,0.006-0.142,0.02-0.21,0.041c-0.066,0.021-0.131,0.047-0.193,0.078c-0.027,0.017-0.059,0.019-0.087,0.037
			c-0.028,0.02-0.045,0.049-0.071,0.071c-0.056,0.044-0.106,0.095-0.151,0.149c-0.042,0.051-0.078,0.105-0.109,0.164
			c-0.063,0.121-0.103,0.254-0.118,0.391c0,0.035-0.02,0.064-0.02,0.1v8.4c0,0.58,0.471,1.049,1.051,1.049
			c0.579-0.001,1.048-0.471,1.049-1.049v-5.233c5.907,7.279,14.775,11.515,24.15,11.533c17.409-0.01,31.514-14.13,31.504-31.54
			c-0.001-3.368-0.543-6.714-1.604-9.912L61.396,21.549z"/>
	</g>
	
		<linearGradient id="umbrella_1_" gradientUnits="userSpaceOnUse" x1="618.7559" y1="1349.1465" x2="618.7559" y2="1348.1465" gradientTransform="matrix(36.608 0 0 -43.929 -21734.9082 60206.1367)">
		<stop  offset="0.13" style="stop-color:#00A9ED"/>
		<stop  offset="1" style="stop-color:#65106B"/>
	</linearGradient>
	<path id="umbrella_2_" fill="url(#umbrella_1_)" d="M934.749,960.202c0.016-0.05,0.026-0.101,0.03-0.152
		c0-0.011,0.008-0.02,0.008-0.032c-0.013-9.818-7.762-17.882-17.572-18.285v-1.483c0-0.404-0.328-0.732-0.732-0.732
		s-0.732,0.328-0.732,0.732v1.483c-9.81,0.403-17.56,8.467-17.572,18.285c0,0.012,0.006,0.021,0.007,0.033
		c0.004,0.052,0.015,0.103,0.031,0.152c0.009,0.043,0.021,0.085,0.037,0.126c0.021,0.037,0.045,0.073,0.072,0.106
		c0.029,0.044,0.062,0.085,0.1,0.122c0.008,0.007,0.012,0.018,0.021,0.026c0.028,0.018,0.057,0.033,0.086,0.047
		c0.042,0.029,0.086,0.053,0.133,0.072c0.051,0.016,0.103,0.027,0.156,0.031c0.031,0,0.059,0.018,0.092,0.018
		c0.011,0,0.02-0.006,0.031-0.006c0.055-0.004,0.109-0.015,0.161-0.032c0.04-0.008,0.079-0.019,0.116-0.034
		c0.04-0.022,0.079-0.048,0.114-0.077c0.042-0.027,0.08-0.058,0.115-0.093c0.008-0.009,0.019-0.012,0.027-0.022
		c0.919-1.189,2.326-1.899,3.829-1.932c1.502,0.032,2.91,0.742,3.829,1.932c0.014,0.017,0.035,0.023,0.051,0.039
		c0.014,0.02,0.03,0.039,0.046,0.057c0.032,0.02,0.065,0.037,0.1,0.052c0.035,0.024,0.072,0.044,0.111,0.06
		c0.059,0.021,0.12,0.035,0.182,0.04c0.026,0.007,0.052,0.013,0.078,0.017c0.012,0,0.023-0.005,0.034-0.006
		c0.087-0.011,0.173-0.031,0.255-0.062c0.035-0.017,0.068-0.037,0.1-0.059c0.025-0.012,0.05-0.026,0.074-0.042
		c0.018-0.015,0.026-0.035,0.042-0.051c0.019-0.014,0.038-0.029,0.055-0.045c0.92-1.188,2.328-1.898,3.831-1.931
		c1.415,0.028,2.749,0.665,3.661,1.747v19.483c-0.068,1.213-1.107,2.141-2.32,2.072c-1.118-0.063-2.009-0.955-2.073-2.072
		c0-0.404-0.328-0.731-0.732-0.731s-0.732,0.327-0.732,0.731l0,0c0,2.022,1.639,3.661,3.661,3.661s3.661-1.639,3.661-3.661l0,0
		v-19.485c0.912-1.081,2.244-1.718,3.658-1.747c1.503,0.032,2.91,0.742,3.829,1.932c0.015,0.017,0.035,0.023,0.051,0.039
		c0.015,0.02,0.03,0.039,0.046,0.057c0.032,0.02,0.066,0.037,0.1,0.051c0.036,0.024,0.074,0.044,0.113,0.061
		c0.059,0.021,0.119,0.035,0.182,0.04c0.025,0.007,0.051,0.013,0.078,0.017c0.012,0,0.022-0.005,0.033-0.006
		c0.037-0.003,0.074-0.01,0.109-0.019c0.051-0.009,0.1-0.023,0.146-0.042c0.035-0.017,0.068-0.037,0.1-0.059
		c0.025-0.013,0.051-0.026,0.074-0.042c0.015-0.016,0.028-0.033,0.041-0.051c0.017-0.017,0.039-0.026,0.056-0.045
		c1.563-2.115,4.544-2.563,6.658-1c0.382,0.282,0.72,0.619,1.001,1c0.007,0.009,0.018,0.011,0.025,0.02
		c0.053,0.055,0.113,0.102,0.18,0.138c0.02,0.016,0.041,0.03,0.064,0.043c0.092,0.042,0.191,0.063,0.293,0.064l0,0
		c0.091-0.001,0.181-0.019,0.265-0.053c0.031-0.016,0.062-0.033,0.091-0.052c0.039-0.018,0.076-0.039,0.111-0.064
		c0.009-0.007,0.012-0.018,0.021-0.026c0.038-0.037,0.071-0.078,0.101-0.122c0.026-0.033,0.051-0.069,0.071-0.106
		C934.732,960.288,934.743,960.245,934.749,960.202z M929.661,957.09c-1.651,0.016-3.23,0.682-4.394,1.855
		c-2.359-2.426-6.238-2.48-8.665-0.121c-0.041,0.04-0.081,0.08-0.121,0.121c-2.359-2.426-6.239-2.48-8.666-0.121
		c-0.041,0.04-0.081,0.08-0.121,0.121c-1.163-1.173-2.741-1.839-4.393-1.855c-1.284,0.007-2.533,0.418-3.569,1.175
		c0.955-9.251,9.229-15.976,18.479-15.021c7.932,0.819,14.202,7.089,15.021,15.021C932.196,957.507,930.945,957.096,929.661,957.09z
		"/>
</g>
</svg>
