<?xml version="1.0" encoding="utf-8"?>
<!-- Generator: Adobe Illustrator 16.0.0, SVG Export Plug-In . SVG Version: 6.00 Build 0)  -->
<!DOCTYPE svg PUBLIC "-//W3C//DTD SVG 1.1//EN" "http://www.w3.org/Graphics/SVG/1.1/DTD/svg11.dtd">
<svg version="1.1" id="Layer_1" xmlns="http://www.w3.org/2000/svg" xmlns:xlink="http://www.w3.org/1999/xlink" x="0px" y="0px"
	 width="66.088px" height="62.729px" viewBox="0 0 66.088 62.729" enable-background="new 0 0 66.088 62.729" xml:space="preserve">
<g id="Group_1436" transform="translate(-672.989 -731.271)">
	
		<linearGradient id="Subtraction_5_1_" gradientUnits="userSpaceOnUse" x1="404.6379" y1="1153.2546" x2="404.6379" y2="1152.3855" gradientTransform="matrix(72.417 0 0 -66.3706 -28596.4844 77277.0313)">
		<stop  offset="0.13" style="stop-color:#00A9ED"/>
		<stop  offset="1" style="stop-color:#65106B"/>
	</linearGradient>
	<path id="Subtraction_5" fill="url(#Subtraction_5_1_)" d="M702.524,792.507c-7.229,0-13.109-6.312-13.109-14.072v-1.789
		c-1.521,0-3.147-1.104-3.147-4.194v-2.643c-1.643-0.417-3.211-1.092-4.643-1.999c-1.378-0.872-2.611-1.958-3.65-3.216
		c-1.02-1.232-1.826-2.625-2.388-4.123c-0.567-1.51-0.857-3.11-0.856-4.722v-2.182h2.096v-13.634
		c0.003-2.412,1.654-4.509,3.998-5.08v2.206c-1.147,0.497-1.893,1.625-1.898,2.875v13.635h3.146v2.217
		c0.068,3.649,2.515,6.825,6.025,7.822c0.932,0.297,1.905,0.447,2.883,0.446c0.979,0.002,1.953-0.149,2.885-0.446
		c3.514-0.996,5.963-4.171,6.036-7.822v-2.217h2.099l-0.048-13.645c-0.019-1.287-0.812-2.435-2.009-2.909v-2.19
		c1.159,0.26,2.195,0.903,2.942,1.826c0.748,0.926,1.159,2.079,1.168,3.269l0.045,13.651h2.098v2.187
		c0.001,1.611-0.29,3.21-0.856,4.718c-0.561,1.497-1.367,2.89-2.386,4.121c-1.04,1.257-2.272,2.343-3.65,3.215
		c-1.434,0.906-3.001,1.581-4.645,2v2.642c0,3.092-1.625,4.193-3.147,4.193v1.791c0,6.605,4.94,11.976,11.014,11.976
		c6.074,0,11.015-5.372,11.015-11.976v-20.67l0.06-0.01h-0.06c0.143-5.106,4.143-9.26,8.914-9.26c4.917,0,8.918,4.282,8.918,9.545
		v1.906c1.57,0.224,3.023,0.953,4.142,2.078c1.124,1.119,1.852,2.574,2.074,4.143c0.283,1.928-0.217,3.89-1.39,5.446
		c-1.161,1.563-2.901,2.596-4.83,2.867c-0.351,0.051-0.704,0.075-1.059,0.076c-1.755-0.003-3.449-0.632-4.78-1.775
		c-1.346-1.156-2.227-2.763-2.479-4.52c-0.283-1.926,0.214-3.887,1.386-5.444c1.162-1.563,2.902-2.595,4.832-2.868v-1.904
		c0-4.105-3.059-7.447-6.818-7.447c-3.656,0-6.713,3.24-6.816,7.221v20.621C715.635,786.194,709.754,792.507,702.524,792.507z
		 M688.364,770.225v2.226c0,0.631,0.103,2.098,1.051,2.098h2.095c0.947,0,1.048-1.467,1.048-2.098v-2.226
		c-0.04,0-0.078,0.006-0.125,0.008h-0.024c-0.034,0-0.064,0.007-0.101,0.009c-0.086,0.011-0.179,0.02-0.261,0.027h-0.042h-0.02
		c-0.559,0.049-1.035,0.071-1.497,0.071h-0.051c-0.458,0-0.936-0.022-1.501-0.071h-0.008c-0.087-0.007-0.201-0.018-0.304-0.03
		c-0.086-0.005-0.174-0.012-0.26-0.019L688.364,770.225z M730.321,761.959c-2.896,0.003-5.241,2.349-5.245,5.245
		c0.004,2.896,2.35,5.243,5.245,5.247c2.895-0.01,5.237-2.354,5.243-5.247C735.561,764.308,733.218,761.963,730.321,761.959
		L730.321,761.959z M676.826,755.666v0.086c0,5.833,4.5,10.968,10.699,12.208c0.479,0.101,0.962,0.174,1.449,0.22
		c0.493,0.05,0.988,0.076,1.483,0.076c0.988,0,1.973-0.098,2.942-0.292c6.199-1.244,10.699-6.379,10.699-12.212v-0.086H702v0.118
		c-0.034,2.224-0.782,4.377-2.135,6.142c-1.343,1.771-3.223,3.061-5.357,3.679c-1.14,0.362-2.328,0.546-3.524,0.546
		s-2.384-0.184-3.523-0.546c-2.135-0.621-4.012-1.912-5.357-3.681c-1.35-1.765-2.097-3.917-2.131-6.139v-0.119L676.826,755.666z"/>
	<g id="Group_1433" transform="translate(679.332 731.271)">
		<g id="Group_1431" transform="translate(0 0)">
			
				<linearGradient id="Path_16142_1_" gradientUnits="userSpaceOnUse" x1="-245.2438" y1="379.0403" x2="-245.2438" y2="378.1711" gradientTransform="matrix(8 0 0 -8 1966.3352 3033.8262)">
				<stop  offset="0.13" style="stop-color:#00A9ED"/>
				<stop  offset="1" style="stop-color:#65106B"/>
			</linearGradient>
			<path id="Path_16142" fill="url(#Path_16142_1_)" d="M4.386,1.499c-1.92,0-3.476,1.557-3.476,3.477
				c0,1.919,1.556,3.476,3.476,3.476c1.92,0,3.477-1.557,3.477-3.476C7.863,3.056,6.306,1.499,4.386,1.499z M4.386,6.134
				c-0.64,0-1.159-0.519-1.159-1.158c0-0.64,0.519-1.159,1.159-1.159c0.64,0,1.159,0.519,1.159,1.159
				C5.545,5.615,5.026,6.134,4.386,6.134L4.386,6.134z"/>
		</g>
	</g>
	<g id="Group_1434" transform="translate(695.332 731.271)">
		<g id="Group_1431-2" transform="translate(0 0)">
			
				<linearGradient id="Path_16142-2_1_" gradientUnits="userSpaceOnUse" x1="-261.5056" y1="379.0403" x2="-261.5056" y2="378.1711" gradientTransform="matrix(8 0 0 -8 2094.3352 3033.8262)">
				<stop  offset="0.13" style="stop-color:#00A9ED"/>
				<stop  offset="1" style="stop-color:#65106B"/>
			</linearGradient>
			<path id="Path_16142-2" fill="url(#Path_16142-2_1_)" d="M2.292,1.499c-1.92,0-3.477,1.557-3.477,3.477
				c0,1.919,1.557,3.476,3.477,3.476s3.476-1.557,3.476-3.476C5.768,3.056,4.212,1.499,2.292,1.499z M2.292,6.134
				c-0.64,0-1.159-0.519-1.159-1.158c0-0.64,0.519-1.159,1.159-1.159S3.45,4.336,3.45,4.976C3.45,5.615,2.931,6.134,2.292,6.134
				L2.292,6.134z"/>
		</g>
	</g>
	<g id="Group_1435" transform="translate(733.332 767.271)">
		<g id="Group_1431-3" transform="translate(0 0)">
			
				<linearGradient id="Path_16142-3_1_" gradientUnits="userSpaceOnUse" x1="-300.1271" y1="343.6292" x2="-300.1271" y2="342.76" gradientTransform="matrix(8 0 0 -8 2398.3352 2745.8254)">
				<stop  offset="0.13" style="stop-color:#00A9ED"/>
				<stop  offset="1" style="stop-color:#65106B"/>
			</linearGradient>
			<path id="Path_16142-3" fill="url(#Path_16142-3_1_)" d="M-2.683-3.214c-1.92,0-3.477,1.557-3.477,3.477S-4.603,3.74-2.683,3.74
				s3.477-1.557,3.477-3.477S-0.763-3.214-2.683-3.214z M-2.683,1.421c-0.641,0-1.159-0.519-1.159-1.158s0.519-1.158,1.159-1.158
				c0.64,0,1.157,0.519,1.157,1.158S-2.043,1.421-2.683,1.421L-2.683,1.421z"/>
		</g>
	</g>
</g>
</svg>
