<svg xmlns="http://www.w3.org/2000/svg" xmlns:xlink="http://www.w3.org/1999/xlink" width="72" height="54.23" viewBox="0 0 72 54.23">
  <defs>
    <linearGradient id="linear-gradient" x1="0.5" x2="0.5" y2="1" gradientUnits="objectBoundingBox">
      <stop offset="0.13" stop-color="#00a9ed"/>
      <stop offset="1" stop-color="#65106b"/>
    </linearGradient>
  </defs>
  <path id="Union_65" data-name="Union 65" d="M1316.029,20090.23a1.027,1.027,0,0,1-1.029-1.029v-43.633a1.03,1.03,0,0,1,1.029-1.029h4.326v-3.912a1.03,1.03,0,0,1,1.029-1.033h4.4v-2.541a1.022,1.022,0,0,1,.993-1.023c10.493-.33,18.226,2.246,24.221,8.076,5.99-5.83,13.714-8.41,24.212-8.076a1.026,1.026,0,0,1,1,1.023v2.541h4.412a1.03,1.03,0,0,1,1.029,1.033v3.912h4.321a1.03,1.03,0,0,1,1.029,1.029v8.4a1.029,1.029,0,1,1-2.057,0v-7.371h-3.292v36.984a1.026,1.026,0,0,1-1.029,1.027h-29.44a1.059,1.059,0,0,1-.177.016H1351a.48.48,0,0,1-.053,0h-.015l-.041,0-.013,0a.524.524,0,0,1-.055-.008h-29.44a1.026,1.026,0,0,1-1.029-1.027V20046.6h-3.3v41.572h67.885v-5.945a1.029,1.029,0,1,1,2.057,0v6.973a1.027,1.027,0,0,1-1.029,1.029Zm63.564-7.674v-36.846a1.034,1.034,0,0,1-.01-.143.985.985,0,0,1,.01-.141v-3.777h-3.383v35.885a1.034,1.034,0,0,1-.582,1.01,0,0,0,0,1,0,0,.18.18,0,0,1-.028.014.137.137,0,0,1-.026.01.015.015,0,0,1-.008,0,1.017,1.017,0,0,1-.288.07,134.393,134.393,0,0,0-18.673,3.912Zm-57.181,0H1345.4a134.414,134.414,0,0,0-18.653-3.91,1.03,1.03,0,0,1-.958-1.025v-35.971h-3.373v3.816c0,.033.005.068.005.1s0,.068-.005.1Zm27.56-.547v-36.027c-5.445-5.512-12.519-8.068-22.129-7.922v2.465c0,.033.005.068.005.1s0,.068-.005.1v36C1331.158,20077.2,1342.781,20079.01,1349.971,20082.01Zm2.057-.006c7.184-3,18.795-4.8,22.124-5.281v-38.662c-9.635-.115-16.684,2.41-22.124,7.922Zm32.914-4.918v-6.418a1.029,1.029,0,1,1,2.057,0v6.418a1.029,1.029,0,1,1-2.057,0Zm-29.8-3.555a1.019,1.019,0,0,1,.449-1.154,28.894,28.894,0,0,1,14.566-4.482,1.029,1.029,0,1,1,.061,2.057,26.887,26.887,0,0,0-13.538,4.17,1,1,0,0,1-.545.156h-.011A1.019,1.019,0,0,1,1355.139,20073.531Zm-9.817.59a26.925,26.925,0,0,0-13.538-4.17,1.028,1.028,0,0,1-1-1.053,1.05,1.05,0,0,1,1.059-1,28.894,28.894,0,0,1,14.566,4.482,1.028,1.028,0,0,1-.545,1.9A1.008,1.008,0,0,1,1345.322,20074.121Zm9.822-7.709a1.035,1.035,0,0,1,.444-1.16,28.887,28.887,0,0,1,14.566-4.477,1.029,1.029,0,1,1,.061,2.057,26.849,26.849,0,0,0-13.538,4.17,1.042,1.042,0,0,1-.545.156A1.026,1.026,0,0,1,1355.144,20066.412Zm-9.822.59a26.849,26.849,0,0,0-13.538-4.17,1.029,1.029,0,1,1,.061-2.057,28.887,28.887,0,0,1,14.566,4.477,1.035,1.035,0,0,1,.444,1.16,1.018,1.018,0,0,1-.988.74v.006A1.043,1.043,0,0,1,1345.322,20067Zm39.62-1.477v-6.408a1.029,1.029,0,1,1,2.057,0v6.408a1.029,1.029,0,0,1-2.057,0Zm-29.8-6.238a1.027,1.027,0,0,1,.444-1.154,28.887,28.887,0,0,1,14.566-4.477,1,1,0,0,1,1.059,1,1.033,1.033,0,0,1-1,1.059,26.887,26.887,0,0,0-13.538,4.17,1.037,1.037,0,0,1-1.533-.6Zm-9.822.59a26.849,26.849,0,0,0-13.538-4.17,1.034,1.034,0,0,1-.681-1.779,1.019,1.019,0,0,1,.741-.277,28.856,28.856,0,0,1,14.566,4.482,1.028,1.028,0,0,1-.545,1.9A1.043,1.043,0,0,1,1345.322,20059.877Zm9.822-7.713a1.034,1.034,0,0,1,.444-1.16,28.887,28.887,0,0,1,14.566-4.477,1.029,1.029,0,1,1,.061,2.057,26.887,26.887,0,0,0-13.538,4.17,1.061,1.061,0,0,1-.545.156A1.033,1.033,0,0,1,1355.144,20052.164Zm-9.822.59a26.83,26.83,0,0,0-13.538-4.17,1.03,1.03,0,0,1-1-1.059,1.042,1.042,0,0,1,1.059-1,28.887,28.887,0,0,1,14.566,4.477,1.032,1.032,0,0,1-.545,1.906A1.061,1.061,0,0,1,1345.322,20052.754Z" transform="translate(-1315 -20036)" fill="url(#linear-gradient)"/>
</svg>
