<?xml version="1.0" encoding="utf-8"?>
<!-- Generator: Adobe Illustrator 16.0.0, SVG Export Plug-In . SVG Version: 6.00 Build 0)  -->
<!DOCTYPE svg PUBLIC "-//W3C//DTD SVG 1.1//EN" "http://www.w3.org/Graphics/SVG/1.1/DTD/svg11.dtd">
<svg version="1.1" id="Layer_1" xmlns="http://www.w3.org/2000/svg" xmlns:xlink="http://www.w3.org/1999/xlink" x="0px" y="0px"
	 width="63px" height="62.989px" viewBox="0 0 63 62.989" enable-background="new 0 0 63 62.989" xml:space="preserve">
<g id="stethoscope" transform="translate(0 -0.039)">
	
		<linearGradient id="Path_17450_1_" gradientUnits="userSpaceOnUse" x1="-267.3311" y1="421.8598" x2="-267.3311" y2="420.8598" gradientTransform="matrix(43.0554 0 0 -62.991 11531.5879 26573.3613)">
		<stop  offset="0.13" style="stop-color:#00A9ED"/>
		<stop  offset="1" style="stop-color:#65106B"/>
	</linearGradient>
	<path id="Path_17450" fill="url(#Path_17450_1_)" d="M35.693,46.231c-3.65,0.004-6.744,2.688-7.264,6.301h-4.283
		c-2.896,0.005-5.242,2.352-5.246,5.248c0,1.738-1.41,3.148-3.149,3.148H5.249c-1.739,0-3.148-1.41-3.149-3.148v-6.301
		c0-1.738,1.41-3.148,3.149-3.148h10.5c2.898-0.002,5.248-2.352,5.251-5.25c-0.006-0.061-0.019-0.121-0.037-0.181
		c1.272-0.433,2.131-1.624,2.137-2.968v-1.309c8.75-1.367,15.536-8.365,16.634-17.152c0.115-0.912-0.165-1.829-0.771-2.519
		c-0.32-0.361-0.721-0.643-1.169-0.823V8.438c-0.004-2.897-2.352-5.245-5.249-5.249h-1.2c-0.477-1.847-2.138-3.14-4.045-3.15h-3.154
		c-0.58,0-1.05,0.47-1.05,1.05v6.3c0,0.58,0.47,1.05,1.05,1.05H27.3c1.909-0.007,3.573-1.301,4.05-3.149h1.2
		c1.739,0,3.148,1.41,3.149,3.149v9.6c-1.191,0.376-2.055,1.412-2.211,2.652c-0.962,7.476-7.802,12.757-15.278,11.796
		c-6.157-0.792-11.003-5.639-11.795-11.796C6.259,19.45,5.394,18.414,4.2,18.038v-9.6c0-1.739,1.41-3.149,3.149-3.15h1.2
		c0.478,1.849,2.142,3.143,4.051,3.15c0.58,0,1.05-0.47,1.05-1.05c0-0.58-0.47-1.05-1.05-1.05c-1.16,0-2.1-0.94-2.1-2.1
		c0-1.16,0.94-2.1,2.1-2.1h2.1v3.15c0,0.58,0.47,1.05,1.05,1.05s1.05-0.47,1.05-1.05v-4.2c0-0.58-0.47-1.05-1.05-1.05l0,0H12.6
		c-1.909,0.007-3.572,1.301-4.05,3.149h-1.2C4.452,3.19,2.103,5.539,2.1,8.438v9.691c-0.448,0.18-0.848,0.461-1.169,0.821
		c-0.606,0.69-0.887,1.607-0.771,2.519c1.098,8.79,7.887,15.789,16.64,17.154v1.309c0.006,1.344,0.863,2.535,2.134,2.968
		c-0.019,0.06-0.031,0.12-0.037,0.181c0,1.739-1.41,3.148-3.149,3.149H5.249C2.351,46.234,0.003,48.582,0,51.48v6.3
		c0.003,2.898,2.352,5.246,5.249,5.25h10.5c2.899-0.003,5.248-2.352,5.251-5.25c0-1.74,1.41-3.148,3.149-3.15h4.283
		c0.58,4.018,4.307,6.804,8.324,6.223c4.018-0.58,6.804-4.307,6.223-8.324c-0.522-3.618-3.625-6.303-7.281-6.298L35.693,46.231z
		 M27.3,6.338h-2.1v-4.2h2.1c1.16,0,2.1,0.94,2.1,2.1C29.4,5.398,28.46,6.338,27.3,6.338z M17.962,36.661
		C9.772,35.778,3.265,29.379,2.243,21.206c-0.042-0.314,0.054-0.631,0.263-0.869c0.196-0.225,0.48-0.354,0.778-0.352
		c0.547,0.008,1,0.427,1.05,0.972c1.111,8.625,9.004,14.717,17.629,13.606c7.102-0.914,12.692-6.504,13.607-13.606
		c0.051-0.541,0.497-0.958,1.039-0.972c0.299-0.001,0.583,0.127,0.779,0.352c0.208,0.238,0.304,0.555,0.262,0.869
		c-1.021,8.174-7.529,14.572-15.719,15.455c-0.529,0.061-0.93,0.507-0.931,1.039v2.229c0,0.58-0.47,1.05-1.05,1.05
		c-0.58,0-1.05-0.47-1.05-1.05l0,0V37.7c0-0.535-0.402-0.984-0.934-1.043L17.962,36.661z M35.693,58.829
		c-2.898,0-5.249-2.35-5.249-5.248c0-2.899,2.35-5.25,5.249-5.25c2.899,0,5.25,2.351,5.25,5.25
		C40.943,56.479,38.593,58.829,35.693,58.829L35.693,58.829z"/>
	
		<linearGradient id="Path_17451_1_" gradientUnits="userSpaceOnUse" x1="-231.3281" y1="366.2827" x2="-231.3281" y2="365.2827" gradientTransform="matrix(6.298 0 0 -6.299 1492.5984 2357.6521)">
		<stop  offset="0.13" style="stop-color:#00A9ED"/>
		<stop  offset="1" style="stop-color:#65106B"/>
	</linearGradient>
	<path id="Path_17451" fill="url(#Path_17451_1_)" d="M35.693,50.43c-0.579,0-1.049,0.471-1.049,1.05c0,0.58,0.47,1.05,1.049,1.05
		c0.58,0,1.051,0.471,1.051,1.051s-0.471,1.049-1.051,1.049c-0.579,0-1.049-0.469-1.049-1.049l0,0c0-0.58-0.471-1.051-1.051-1.051
		s-1.05,0.471-1.05,1.051c0,1.738,1.409,3.148,3.149,3.148c1.738,0,3.148-1.41,3.148-3.148C38.842,51.84,37.432,50.431,35.693,50.43
		L35.693,50.43L35.693,50.43z"/>
	
		<linearGradient id="Path_17452_1_" gradientUnits="userSpaceOnUse" x1="-265.0518" y1="413.7836" x2="-265.0518" y2="412.7836" gradientTransform="matrix(31.4394 0 0 -27.2965 8380.3379 11330.5918)">
		<stop  offset="0.13" style="stop-color:#00A9ED"/>
		<stop  offset="1" style="stop-color:#65106B"/>
	</linearGradient>
	<path id="Path_17452" fill="url(#Path_17452_1_)" d="M55.139,35.75c-2.307-0.156-4.572,0.658-6.25,2.248
		c-0.659,0.619-1.215,1.339-1.646,2.133c-0.432-0.794-0.988-1.514-1.646-2.133c-1.678-1.59-3.943-2.406-6.25-2.248
		c-4.091,0.366-7.349,3.578-7.774,7.664c-0.084,0.573,0.312,1.107,0.885,1.191c0.574,0.086,1.107-0.311,1.192-0.885
		c0.002-0.015,0.004-0.029,0.005-0.044c0.3-3.085,2.74-5.526,5.824-5.828c1.727-0.117,3.422,0.491,4.68,1.681
		c1.299,1.225,2.034,2.932,2.033,4.719c-0.001,0.58,0.468,1.051,1.047,1.053c0.58,0.002,1.053-0.467,1.054-1.047
		c0-0.002,0-0.004,0-0.006c-0.001-1.787,0.735-3.494,2.034-4.719c1.258-1.188,2.953-1.797,4.679-1.681
		c3.536,0.368,6.141,3.481,5.879,7.026c-0.42,9.369-9.622,15.084-13.64,16.031c-1.122-0.296-2.203-0.727-3.221-1.285
		c-0.496-0.301-1.142-0.145-1.443,0.352c-0.301,0.496-0.145,1.141,0.352,1.443c0.035,0.021,0.072,0.041,0.111,0.059
		c1.252,0.692,2.596,1.208,3.988,1.532c0.139,0.028,0.282,0.028,0.421,0c5.016-1.019,15.053-7.552,15.528-18.039
		C63.289,40.28,59.814,36.198,55.139,35.75L55.139,35.75z"/>
	
		<linearGradient id="Path_17453_1_" gradientUnits="userSpaceOnUse" x1="-222.9517" y1="361.4868" x2="-222.9517" y2="360.4868" gradientTransform="matrix(5.2544 0 0 -5.845 1227.6533 2152.8284)">
		<stop  offset="0.13" style="stop-color:#00A9ED"/>
		<stop  offset="1" style="stop-color:#65106B"/>
	</linearGradient>
	<path id="Path_17453" fill="url(#Path_17453_1_)" d="M54.736,42.032c1.238,0.246,2.086,1.395,1.955,2.651
		c-0.029,0.579,0.416,1.071,0.995,1.1c0.001,0.001,0.003,0.001,0.005,0.001h0.047c0.563,0,1.024-0.439,1.051-1
		c0.184-2.397-1.537-4.521-3.919-4.838c-0.095-0.008-0.185-0.008-0.272-0.008c-0.58,0-1.05,0.471-1.05,1.051
		c0,0.579,0.47,1.049,1.05,1.049L54.736,42.032z"/>
</g>
</svg>
