<svg id="oil-tank" xmlns="http://www.w3.org/2000/svg" width="63" height="52.5" viewBox="0 0 63 52.5">
  <path id="Path_17362" data-name="Path 17362" d="M63,26.25v-6.3A15.768,15.768,0,0,0,47.25,4.2H25.2V1.05A1.05,1.05,0,0,0,24.15,0h-8.4A1.05,1.05,0,0,0,14.7,1.05v3.2A15.757,15.757,0,0,0,0,19.95v6.3A15.768,15.768,0,0,0,15.75,42v4.2H1.05A1.05,1.05,0,0,0,0,47.25v4.2A1.05,1.05,0,0,0,1.05,52.5h60.9A1.05,1.05,0,0,0,63,51.45v-4.2a1.05,1.05,0,0,0-1.05-1.05H47.25V42A15.768,15.768,0,0,0,63,26.25ZM37.8,31.5h8.4v2.1H37.8Zm8.4-2.1H37.8V27.3h8.4Zm0-4.2H37.8V23.1h8.4Zm0-4.2H37.8V18.9h8.4Zm0-4.2H37.8V14.7h8.4Zm0-4.2H37.8V10.5h8.4Zm0-6.3V8.4H37.8V6.3ZM16.8,2.1h6.3V4.2H16.8ZM2.1,26.25v-6.3A13.666,13.666,0,0,1,15.75,6.3H35.7V34.65a1.05,1.05,0,0,0,1.05,1.05h10.5a1.05,1.05,0,0,0,1.05-1.05V6.353a13.658,13.658,0,0,1,12.6,13.6v6.3A13.666,13.666,0,0,1,47.25,39.9H15.75A13.666,13.666,0,0,1,2.1,26.25ZM60.9,50.4H2.1V48.3H60.9ZM45.15,46.2H17.85V42h27.3Zm0,0"/>
  <path id="Path_17363" data-name="Path 17363" d="M116.6,122.632c0-3.176-4.92-9.407-5.481-10.106a1.084,1.084,0,0,0-1.638,0c-.561.7-5.481,6.93-5.481,10.106a6.3,6.3,0,0,0,12.6,0Zm-10.5,0c0-1.6,2.318-5.221,4.2-7.733,1.882,2.513,4.2,6.136,4.2,7.733a4.2,4.2,0,1,1-8.4,0Zm0,0" transform="translate(-90.35 -97.432)" fill="#147db2"/>
</svg>
