<?xml version="1.0" encoding="utf-8"?>
<!-- Generator: Adobe Illustrator 16.0.0, SVG Export Plug-In . SVG Version: 6.00 Build 0)  -->
<!DOCTYPE svg PUBLIC "-//W3C//DTD SVG 1.1//EN" "http://www.w3.org/Graphics/SVG/1.1/DTD/svg11.dtd">
<svg version="1.1" id="wheelchair" xmlns="http://www.w3.org/2000/svg" xmlns:xlink="http://www.w3.org/1999/xlink" x="0px" y="0px"
	 width="63px" height="63px" viewBox="0 0 63 63" enable-background="new 0 0 63 63" xml:space="preserve">
<g id="Group_2318">
	<g id="Group_2317">
		
			<linearGradient id="Path_17386_1_" gradientUnits="userSpaceOnUse" x1="-266.0601" y1="408.5059" x2="-266.0601" y2="407.5059" gradientTransform="matrix(35.7 0 0 -19.9512 9522.5059 8150.1582)">
			<stop  offset="0.13" style="stop-color:#00A9ED"/>
			<stop  offset="1" style="stop-color:#65106B"/>
		</linearGradient>
		<path id="Path_17386" fill="url(#Path_17386_1_)" d="M7.35,2.1h5.589l3.861,9.652V18.9c0,0.58,0.469,1.051,1.049,1.051
			c0.58,0.001,1.051-0.469,1.051-1.049c0-0.001,0-0.001,0-0.002v-6.3h17.85c1.738,0.002,3.148,1.411,3.15,3.15v1.05H22.05
			c-0.58,0-1.05,0.47-1.05,1.05c0,0.58,0.47,1.05,1.05,1.05h18.9c0.579,0,1.05-0.47,1.05-1.05l0,0v-2.1
			c-0.004-2.898-2.352-5.247-5.25-5.25H18.561l-3.937-9.841C14.464,0.261,14.079,0,13.65,0h-6.3C6.77,0,6.3,0.47,6.3,1.05
			C6.3,1.63,6.77,2.1,7.35,2.1z"/>
		
			<linearGradient id="Path_17387_1_" gradientUnits="userSpaceOnUse" x1="-257.6904" y1="404.8477" x2="-257.6904" y2="403.8477" gradientTransform="matrix(16.8 0 0 -16.8 4350.1973 6835.0371)">
			<stop  offset="0.13" style="stop-color:#00A9ED"/>
			<stop  offset="1" style="stop-color:#65106B"/>
		</linearGradient>
		<path id="Path_17387" fill="url(#Path_17387_1_)" d="M21,33.6c-4.639,0-8.4,3.762-8.4,8.4s3.761,8.4,8.4,8.4s8.4-3.762,8.4-8.4
			l0,0C29.395,37.363,25.637,33.605,21,33.6z M21,48.3c-3.479,0-6.3-2.82-6.3-6.3s2.82-6.3,6.3-6.3s6.3,2.82,6.3,6.3l0,0
			C27.297,45.479,24.478,48.297,21,48.3z"/>
		
			<linearGradient id="Path_17388_1_" gradientUnits="userSpaceOnUse" x1="-147.7417" y1="243.835" x2="-147.7417" y2="242.835" gradientTransform="matrix(2.112 0 0 -2.112 333.0547 555.9258)">
			<stop  offset="0.13" style="stop-color:#00A9ED"/>
			<stop  offset="1" style="stop-color:#65106B"/>
		</linearGradient>
		<path id="Path_17388" fill="url(#Path_17388_1_)" d="M21.029,40.95h-0.012c-0.583,0.003-1.053,0.479-1.05,1.062
			c0.003,0.584,0.479,1.054,1.062,1.051c0.583-0.004,1.054-0.479,1.05-1.063C22.076,41.422,21.607,40.953,21.029,40.95z"/>
		
			<linearGradient id="Path_17389_1_" gradientUnits="userSpaceOnUse" x1="-265.5947" y1="416.4229" x2="-265.5947" y2="415.4238" gradientTransform="matrix(33.5978 0 0 -33.5973 8944.4014 14015.8955)">
			<stop  offset="0.13" style="stop-color:#00A9ED"/>
			<stop  offset="1" style="stop-color:#65106B"/>
		</linearGradient>
		<path id="Path_17389" fill="url(#Path_17389_1_)" d="M32.88,30.12c-0.014-0.016-0.034-0.02-0.05-0.034
			c-6.542-6.517-17.122-6.517-23.663,0c-0.014,0.013-0.033,0.017-0.046,0.031c-0.013,0.014-0.017,0.032-0.03,0.045
			c-6.521,6.545-6.52,17.132,0.005,23.674c0.012,0.012,0.015,0.027,0.025,0.039c0.01,0.012,0.027,0.014,0.038,0.023
			c6.541,6.527,17.13,6.529,23.675,0.007c0.016-0.009,0.031-0.02,0.046-0.03c0.011-0.015,0.021-0.029,0.03-0.045
			c6.519-6.541,6.519-17.123,0-23.664C32.9,30.15,32.891,30.135,32.88,30.12z M32.098,51.611l-0.701-0.7
			c-0.41-0.41-1.075-0.41-1.485,0s-0.41,1.075,0,1.485l0.7,0.699c-5.507,4.805-13.716,4.805-19.224,0l0.7-0.699
			c0.41-0.41,0.41-1.075,0-1.485s-1.075-0.41-1.485,0l-0.7,0.7c-4.804-5.508-4.804-13.718,0-19.226l0.7,0.7
			c0.41,0.41,1.075,0.41,1.485,0s0.41-1.074,0-1.485l0,0l-0.7-0.7c5.507-4.803,13.715-4.803,19.222,0l-0.7,0.7
			c-0.411,0.411-0.411,1.075,0,1.485c0.41,0.411,1.075,0.411,1.485,0.001l0,0l0.701-0.7c4.805,5.508,4.805,13.717,0,19.223
			L32.098,51.611z"/>
		
			<linearGradient id="Path_17390_1_" gradientUnits="userSpaceOnUse" x1="-262.2275" y1="417.1064" x2="-262.2275" y2="416.1064" gradientTransform="matrix(23.562 0 0 -35.703 6229.8428 14919.2148)">
			<stop  offset="0.13" style="stop-color:#00A9ED"/>
			<stop  offset="1" style="stop-color:#65106B"/>
		</linearGradient>
		<path id="Path_17390" fill="url(#Path_17390_1_)" d="M58.8,52.605V32.55c-0.003-2.898-2.352-5.247-5.25-5.25H40.49
			c-0.58,0-1.051,0.47-1.051,1.05c0,0.58,0.471,1.05,1.051,1.05h13.06c1.739,0.002,3.147,1.411,3.15,3.15v1.05H43.624
			c-0.58,0-1.05,0.471-1.05,1.051s0.47,1.05,1.05,1.05H56.7v16.905c-2.842,0.58-4.675,3.354-4.095,6.195s3.354,4.675,6.194,4.096
			c2.842-0.58,4.675-3.354,4.095-6.195C62.475,54.639,60.862,53.027,58.8,52.605z M57.75,60.9c-1.735,0.006-3.146-1.396-3.152-3.132
			c-0.004-1.339,0.84-2.532,2.103-2.976v2.957c0,0.58,0.47,1.05,1.05,1.05s1.051-0.47,1.051-1.05v-2.957
			c1.637,0.574,2.499,2.367,1.925,4.005C60.283,60.061,59.088,60.904,57.75,60.9L57.75,60.9z"/>
		
			<linearGradient id="Path_17391_1_" gradientUnits="userSpaceOnUse" x1="-267.1763" y1="418.7393" x2="-267.1763" y2="417.7393" gradientTransform="matrix(42 0 0 -42 11242.4063 17608.0313)">
			<stop  offset="0.13" style="stop-color:#00A9ED"/>
			<stop  offset="1" style="stop-color:#65106B"/>
		</linearGradient>
		<path id="Path_17391" fill="url(#Path_17391_1_)" d="M21,21C9.402,21,0,30.402,0,42c0,11.598,9.402,21,21,21
			c11.598,0,21-9.402,21-21l0,0C41.987,30.407,32.593,21.013,21,21z M21,60.9C10.562,60.9,2.1,52.438,2.1,42
			c0-10.438,8.462-18.9,18.9-18.9S39.9,31.562,39.9,42l0,0C39.888,52.434,31.433,60.888,21,60.9z"/>
	</g>
</g>
</svg>
