<?xml version="1.0" encoding="utf-8"?>
<!-- Generator: Adobe Illustrator 16.0.0, SVG Export Plug-In . SVG Version: 6.00 Build 0)  -->
<!DOCTYPE svg PUBLIC "-//W3C//DTD SVG 1.1//EN" "http://www.w3.org/Graphics/SVG/1.1/DTD/svg11.dtd">
<svg version="1.1" id="Layer_1" xmlns="http://www.w3.org/2000/svg" xmlns:xlink="http://www.w3.org/1999/xlink" x="0px" y="0px"
	 width="56.355px" height="63px" viewBox="0 0 56.355 63" enable-background="new 0 0 56.355 63" xml:space="preserve">
<g id="disabled" transform="translate(-0.001 0.012)">
	
		<linearGradient id="Path_17904_1_" gradientUnits="userSpaceOnUse" x1="-167.5915" y1="270.0036" x2="-167.5915" y2="269.0036" gradientTransform="matrix(2.462 0 0 -2.462 464.786 714.4595)">
		<stop  offset="0" style="stop-color:#00A9E0"/>
		<stop  offset="1" style="stop-color:#801C7D"/>
	</linearGradient>
	<path id="Path_17904" fill="url(#Path_17904_1_)" d="M52.173,49.712c-0.68-0.001-1.231,0.55-1.231,1.229
		c-0.001,0.68,0.55,1.231,1.23,1.232c0.68,0,1.231-0.551,1.231-1.23c0-0.326-0.129-0.64-0.36-0.871
		C52.813,49.842,52.5,49.712,52.173,49.712z"/>
	
		<linearGradient id="Path_17905_1_" gradientUnits="userSpaceOnUse" x1="-244.6838" y1="381.5066" x2="-244.6838" y2="380.5066" gradientTransform="matrix(8.368 0 0 -8.368 2099.6929 3247.0781)">
		<stop  offset="0" style="stop-color:#00A9E0"/>
		<stop  offset="1" style="stop-color:#801C7D"/>
	</linearGradient>
	<path id="Path_17905" fill="url(#Path_17905_1_)" d="M52.174,54.634c-2.311,0-4.184,1.873-4.184,4.184s1.873,4.185,4.184,4.185
		c2.312,0,4.185-1.874,4.185-4.185l0,0C56.359,56.507,54.486,54.634,52.174,54.634z M52.174,60.539
		c-0.951,0-1.723-0.771-1.723-1.723c0-0.951,0.771-1.723,1.723-1.723c0.952,0,1.724,0.771,1.724,1.723l0,0
		C53.898,59.768,53.126,60.539,52.174,60.539z"/>
	
		<linearGradient id="Path_17906_1_" gradientUnits="userSpaceOnUse" x1="-271.7849" y1="421.8161" x2="-271.7849" y2="420.8161" gradientTransform="matrix(53.403 0 0 -63.0141 14540.8545 26580.2754)">
		<stop  offset="0" style="stop-color:#00A9E0"/>
		<stop  offset="1" style="stop-color:#801C7D"/>
	</linearGradient>
	<path id="Path_17906" fill="url(#Path_17906_1_)" d="M50.944,36.667v9.353c0,0.68,0.551,1.23,1.23,1.23s1.23-0.551,1.23-1.23
		V29.347c-0.003-2.366-1.92-4.283-4.286-4.286H37c0.814-2.019-0.163-4.314-2.182-5.129c-0.487-0.196-1.01-0.293-1.535-0.285h-2.926
		c-0.41,0-0.825-0.02-1.23-0.06c-3.143-0.355-5.71-2.675-6.382-5.766c-0.135-0.577-0.355-1.131-0.653-1.644
		c3.318-0.802,5.359-4.142,4.558-7.46s-4.142-5.358-7.46-4.557s-5.358,4.142-4.557,7.459c0.155,0.642,0.411,1.254,0.76,1.813
		c-1.643,0.451-3.015,1.583-3.771,3.109c-2.013,4.109-3.062,8.624-3.066,13.199v4.526c0.001,2.203,0.457,4.382,1.34,6.4
		l-1.428,7.777l-5.84,7.519l0,0c-0.023,0.032-0.046,0.065-0.065,0.1l-0.006,0.009l0,0l-2.283,3.693
		c-0.526,0.852-0.263,1.968,0.588,2.494c0.001,0,0.001,0,0.002,0.001l7.381,4.556c0.578,0.356,1.336,0.178,1.693-0.399
		c0.861-1.388,1.132-3.061,0.752-4.648c-0.109-0.458-0.27-0.901-0.479-1.323l2.657-2.992l-0.413,3.239v0.013
		c0.001,0.025-0.001,0.05-0.005,0.074c-0.003,0.019-0.003,0.038,0,0.057v4.934c0.001,0.678,0.549,1.227,1.226,1.229h9.256
		c0.679,0,1.229-0.551,1.229-1.23c0-1.929-0.906-3.745-2.446-4.906l1.977-12.011c0.391-2.394,0.214-4.845-0.517-7.157l-2.416-7.616
		v-4.964c2.951,1.587,6.25,2.414,9.601,2.406h2.082c-0.271,0.57-0.41,1.194-0.409,1.825v32.382c0,0.68,0.551,1.23,1.23,1.23
		s1.23-0.551,1.23-1.23l0,0V36.667H50.944z M50.944,29.347v4.857H34.492v-4.857c0.001-1.008,0.817-1.824,1.825-1.825h12.8
		C50.125,27.523,50.943,28.34,50.944,29.347z M20.633,2.462c2.052,0,3.716,1.663,3.716,3.715s-1.664,3.715-3.716,3.715
		s-3.715-1.663-3.715-3.715S18.581,2.462,20.633,2.462L20.633,2.462z M8.312,59.967l-5.601-3.459L4,54.414l2.642,1.631
		C7.972,56.867,8.641,58.438,8.312,59.967L8.312,59.967z M8.719,54.42L5.413,52.39l5.188-6.671c0.121-0.156,0.203-0.34,0.238-0.534
		l0.962-5.262c0.546,0.723,1.152,1.397,1.813,2.017l0.649,0.609l-0.839,6.575L8.719,54.42z M14.907,60.539v-2.461h3.1
		c1.564,0.003,2.958,0.988,3.481,2.461H14.907z M21.265,44.452l-1.84,11.165h-4.353l0.739-5.8l0.967-7.582
		c0.05-0.392-0.091-0.783-0.379-1.054l-1.109-1.036c-2.414-2.271-3.915-5.345-4.221-8.645h7.559l2.2,6.939
		c0.614,1.942,0.763,4.002,0.435,6.012H21.265z M20.247,21.922l-0.014-0.01c-0.887-0.615-1.716-1.309-2.479-2.071
		c-0.465-0.496-1.244-0.521-1.739-0.057c-0.496,0.466-0.521,1.244-0.057,1.74c0.019,0.02,0.037,0.038,0.057,0.056
		c0.712,0.712,1.476,1.37,2.284,1.971c0,0.014,0,0.028,0,0.043v5.444h-7.289v-3.3c0.006-4.2,0.969-8.344,2.815-12.116
		c0.849-1.727,2.937-2.438,4.663-1.59c0.941,0.463,1.624,1.324,1.859,2.346c0.911,4.118,4.346,7.197,8.539,7.654
		c0.484,0.048,0.979,0.072,1.47,0.072h2.925c0.81-0.011,1.486,0.613,1.54,1.421c0.03,0.815-0.605,1.501-1.421,1.531
		c-0.019,0.001-0.037,0.001-0.055,0.001h-2.99c-3.612,0.01-7.141-1.086-10.111-3.141L20.247,21.922z"/>
</g>
</svg>
