<?xml version="1.0" encoding="utf-8"?>
<!-- Generator: Adobe Illustrator 14.0.0, SVG Export Plug-In . SVG Version: 6.00 Build 43363)  -->
<!DOCTYPE svg PUBLIC "-//W3C//DTD SVG 1.1//EN" "http://www.w3.org/Graphics/SVG/1.1/DTD/svg11.dtd">
<svg version="1.1" id="depreciation" xmlns="http://www.w3.org/2000/svg" xmlns:xlink="http://www.w3.org/1999/xlink" x="0px"
	 y="0px" width="65px" height="65px" viewBox="0 0 65 65" enable-background="new 0 0 65 65" xml:space="preserve">
<g id="five" transform="translate(-5.107)">
	<g id="Group_3619" transform="translate(5.107)">
		
			<linearGradient id="Path_19043_1_" gradientUnits="userSpaceOnUse" x1="12.4785" y1="51.7158" x2="12.4785" y2="50.7158" gradientTransform="matrix(61.465 0 0 -63.0005 -734.5013 3259.0479)">
			<stop  offset="0.13" style="stop-color:#00A9ED"/>
			<stop  offset="1" style="stop-color:#65106B"/>
		</linearGradient>
		<path id="Path_19043" fill="url(#Path_19043_1_)" d="M58.349,3.9H54.66V2.878C54.66,1.84,53.819,1,52.782,1
			c-1.038,0-1.878,0.841-1.878,1.878V3.9h-9.764V2.878C41.141,1.84,40.299,1,39.262,1s-1.878,0.841-1.878,1.878V3.9h-9.767V2.878
			C27.617,1.84,26.775,1,25.738,1c-1.038,0-1.879,0.841-1.879,1.878V3.9h-9.767V2.878C14.093,1.84,13.251,1,12.214,1
			c-1.037,0-1.878,0.841-1.878,1.878V3.9H6.651C3.955,3.903,1.769,6.089,1.768,8.786v7.1c0,1.974,1.185,3.754,3.006,4.514v38.716
			c0.003,2.697,2.19,4.883,4.887,4.884h45.682c2.696-0.003,4.881-2.188,4.884-4.884V20.4c1.818-0.76,3.004-2.537,3.006-4.508v-7.1
			C63.234,6.093,61.048,3.903,58.349,3.9z M5.524,8.786C5.525,8.164,6.029,7.66,6.651,7.659h3.684v0.854
			c0,1.037,0.841,1.878,1.878,1.878c1.038,0,1.879-0.841,1.879-1.878l0,0V7.659h9.768v0.854c0,1.037,0.841,1.878,1.879,1.878
			c1.037,0,1.878-0.841,1.878-1.878V7.659h9.767v0.854c0,1.037,0.841,1.878,1.879,1.878c1.037,0,1.878-0.841,1.878-1.878V7.659
			h9.767v0.854c0,1.037,0.842,1.878,1.879,1.878s1.879-0.841,1.879-1.878V7.659h3.684c0.622,0,1.127,0.505,1.127,1.127v7.1
			c0,0.623-0.505,1.127-1.127,1.127H6.651c-0.621,0-1.124-0.502-1.127-1.123v-7.1V8.786z M55.344,60.243H9.661
			c-0.622-0.001-1.126-0.505-1.127-1.127V20.774h47.937v38.342C56.471,59.738,55.966,60.242,55.344,60.243z"/>
		
			<linearGradient id="Path_19044_1_" gradientUnits="userSpaceOnUse" x1="24.7466" y1="41.8506" x2="24.7466" y2="40.8506" gradientTransform="matrix(16.438 0 0 -23.291 -374.2666 1002.0098)">
			<stop  offset="0.13" style="stop-color:#00A9ED"/>
			<stop  offset="1" style="stop-color:#65106B"/>
		</linearGradient>
		<path id="Path_19044" fill="url(#Path_19044_1_)" d="M38.841,31.029c1.037,0,1.878-0.841,1.878-1.878
			c0-1.037-0.841-1.878-1.878-1.878H26.16c-1.037,0-1.878,0.841-1.878,1.878l0,0v9.252c0,1.038,0.841,1.879,1.878,1.879l0,0h10.799
			v6.525H26.16c-1.038,0-1.878,0.84-1.878,1.878s0.841,1.878,1.878,1.878h12.681c1.037,0,1.878-0.84,1.878-1.877l0,0V38.404
			c0-1.037-0.841-1.879-1.878-1.879l0,0h-10.8v-5.5L38.841,31.029z"/>
	</g>
</g>
</svg>
