<?xml version="1.0" encoding="utf-8"?>
<!-- Generator: Adobe Illustrator 16.0.0, SVG Export Plug-In . SVG Version: 6.00 Build 0)  -->
<!DOCTYPE svg PUBLIC "-//W3C//DTD SVG 1.1//EN" "http://www.w3.org/Graphics/SVG/1.1/DTD/svg11.dtd">
<svg version="1.1" id="Layer_1" xmlns="http://www.w3.org/2000/svg" xmlns:xlink="http://www.w3.org/1999/xlink" x="0px" y="0px"
	 width="51.579px" height="62.73px" viewBox="0 0 51.579 62.73" enable-background="new 0 0 51.579 62.73" xml:space="preserve">
<g id="keyhole" transform="translate(-45.51 0)">
	<g id="Group_2681" transform="translate(45.51)">
		<g id="Group_2680">
			
				<linearGradient id="Path_17866_1_" gradientUnits="userSpaceOnUse" x1="-273.9502" y1="421.6643" x2="-273.9502" y2="420.6643" gradientTransform="matrix(51.58 0 0 -62.7348 14156.1484 26452.9707)">
				<stop  offset="0" style="stop-color:#00A9E0"/>
				<stop  offset="1" style="stop-color:#801C7D"/>
			</linearGradient>
			<path id="Path_17866" fill="url(#Path_17866_1_)" d="M50.272,7.67c-8.396-0.667-16.533-3.229-23.799-7.491
				c-0.424-0.238-0.943-0.238-1.367,0C17.841,4.443,9.704,7.003,1.306,7.67C0.572,7.716,0,8.325,0,9.061v26.487
				c0.023,4.457,1.445,8.794,4.065,12.4c2.395,3.284,5.352,6.118,8.736,8.37c3.889,2.662,8.113,4.797,12.562,6.35
				c0.278,0.089,0.577,0.089,0.854,0c4.45-1.553,8.672-3.688,12.561-6.35c3.385-2.251,6.342-5.086,8.736-8.37
				c2.621-3.605,4.043-7.943,4.066-12.4V9.061C51.579,8.324,51.006,7.715,50.272,7.67z M48.79,35.548
				c0,6.935-3.883,13.137-11.541,18.435c-3.563,2.426-7.41,4.401-11.458,5.88c-4.029-1.47-7.86-3.433-11.407-5.843
				C6.69,48.715,2.79,42.5,2.79,35.548v-25.2c8.094-0.836,15.926-3.344,23-7.364c7.074,4.021,14.906,6.528,23,7.364V35.548z"/>
			
				<linearGradient id="Path_17867_1_" gradientUnits="userSpaceOnUse" x1="-262.9932" y1="413.9065" x2="-262.9932" y2="412.9065" gradientTransform="matrix(16.7298 0 0 -27.8755 4425.6108 11555.4912)">
				<stop  offset="0" style="stop-color:#00A9E0"/>
				<stop  offset="1" style="stop-color:#801C7D"/>
			</linearGradient>
			<path id="Path_17867" fill="url(#Path_17867_1_)" d="M30.993,36.551c-0.199-1.184-0.4-2.4-0.58-3.6
				c3.848-2.557,4.895-7.748,2.338-11.596s-7.747-4.895-11.595-2.338c-3.847,2.557-4.894,7.748-2.338,11.595
				c0.616,0.928,1.411,1.723,2.338,2.339c-0.18,1.205-0.382,2.421-0.58,3.6c-0.4,2.423-0.822,4.929-1.058,7.418
				c-0.073,0.767,0.489,1.447,1.256,1.52c0.044,0.005,0.088,0.007,0.132,0.007h9.759c0.77,0,1.393-0.624,1.393-1.395
				c0-0.044-0.002-0.088-0.006-0.132C31.819,41.48,31.401,38.974,30.993,36.551z M27.518,32.406c0.213,1.541,0.475,3.1,0.725,4.6
				c0.311,1.873,0.633,3.8,0.865,5.7H22.46c0.233-1.9,0.554-3.825,0.866-5.7c0.251-1.506,0.511-3.063,0.724-4.6
				c0.082-0.593-0.222-1.171-0.757-1.438c-2.755-1.375-3.874-4.724-2.499-7.479c1.375-2.755,4.724-3.874,7.479-2.498
				c2.756,1.375,3.873,4.724,2.498,7.479c-0.539,1.081-1.416,1.958-2.498,2.498c-0.533,0.27-0.834,0.848-0.752,1.438H27.518z"/>
			
				<linearGradient id="Path_17868_1_" gradientUnits="userSpaceOnUse" x1="-272.4995" y1="420.1545" x2="-272.4995" y2="419.1545" gradientTransform="matrix(40.429 0 0 -50.4564 11042.6797 21205.7754)">
				<stop  offset="0" style="stop-color:#00A9E0"/>
				<stop  offset="1" style="stop-color:#801C7D"/>
			</linearGradient>
			<path id="Path_17868" fill="url(#Path_17868_1_)" d="M25.154,6.48c-5.775,3.01-11.986,5.097-18.407,6.186
				c-0.675,0.108-1.172,0.691-1.172,1.376v21.507c0,5.917,3.426,11.311,10.183,16.034c2.975,2.041,6.164,3.751,9.509,5.1
				c0.334,0.135,0.708,0.135,1.042,0c1.025-0.414,2.631-1.105,4.451-2.053c0.688-0.349,0.961-1.188,0.613-1.874
				s-1.188-0.961-1.875-0.612c-0.008,0.004-0.016,0.009-0.025,0.014c-1.438,0.748-2.732,1.327-3.685,1.726
				c-2.962-1.233-5.788-2.77-8.433-4.585c-5.967-4.17-8.992-8.8-8.992-13.748V15.216c6.059-1.147,11.925-3.145,17.425-5.933
				c5.5,2.788,11.367,4.785,17.425,5.933v20.332c0,3.669-1.672,7.182-4.969,10.44c-0.549,0.541-0.553,1.424-0.012,1.971
				c0.541,0.548,1.424,0.553,1.971,0.012l0,0c3.848-3.8,5.801-7.98,5.801-12.423V14.041c0-0.685-0.498-1.268-1.172-1.376
				C38.411,11.576,32.2,9.49,26.424,6.48C26.026,6.276,25.553,6.276,25.154,6.48L25.154,6.48z"/>
			
				<linearGradient id="Path_17869_1_" gradientUnits="userSpaceOnUse" x1="-187.1592" y1="295.8674" x2="-187.1592" y2="294.8674" gradientTransform="matrix(2.9474 0 0 -2.9477 586.5317 921.1906)">
				<stop  offset="0" style="stop-color:#00A9E0"/>
				<stop  offset="1" style="stop-color:#801C7D"/>
			</linearGradient>
			<path id="Path_17869" fill="url(#Path_17869_1_)" d="M33.981,49.47l-0.129,0.13c-0.559,0.53-0.58,1.413-0.049,1.971
				c0.529,0.559,1.412,0.58,1.971,0.05c0.012-0.013,0.025-0.026,0.039-0.039l0.148-0.149c0.543-0.547,0.539-1.43-0.008-1.972
				S34.524,48.922,33.981,49.47L33.981,49.47z"/>
		</g>
	</g>
</g>
</svg>
