<?xml version="1.0" encoding="utf-8"?>
<!-- Generator: Adobe Illustrator 16.0.0, SVG Export Plug-In . SVG Version: 6.00 Build 0)  -->
<!DOCTYPE svg PUBLIC "-//W3C//DTD SVG 1.1//EN" "http://www.w3.org/Graphics/SVG/1.1/DTD/svg11.dtd">
<svg version="1.1" id="Layer_1" xmlns="http://www.w3.org/2000/svg" xmlns:xlink="http://www.w3.org/1999/xlink" x="0px" y="0px"
	 width="51.68px" height="63px" viewBox="0 0 51.68 63" enable-background="new 0 0 51.68 63" xml:space="preserve">
<g id="danger" transform="translate(-45.999)">
	<g id="Group_2813" transform="translate(73.069 23.379)">
		<g id="Group_2812">
			
				<linearGradient id="Path_18031_1_" gradientUnits="userSpaceOnUse" x1="-195.9614" y1="246.5077" x2="-195.9614" y2="245.5077" gradientTransform="matrix(2.46 0 0 -2.46 483.2922 606.4108)">
				<stop  offset="0" style="stop-color:#00A9E0"/>
				<stop  offset="1" style="stop-color:#801C7D"/>
			</linearGradient>
			<path id="Path_18031" fill="url(#Path_18031_1_)" d="M1.23,0C0.55,0,0,0.551,0,1.23S0.55,2.46,1.23,2.46S2.46,1.909,2.46,1.23
				S1.909,0,1.23,0z"/>
		</g>
	</g>
	<g id="Group_2815" transform="translate(68.148 23.379)">
		<g id="Group_2814">
			
				<linearGradient id="Path_18032_1_" gradientUnits="userSpaceOnUse" x1="-191.0404" y1="246.5087" x2="-191.0404" y2="245.5087" gradientTransform="matrix(2.46 0 0 -2.46 471.1916 606.4108)">
				<stop  offset="0" style="stop-color:#00A9E0"/>
				<stop  offset="1" style="stop-color:#801C7D"/>
			</linearGradient>
			<path id="Path_18032" fill="url(#Path_18032_1_)" d="M1.23,0C0.55,0,0,0.551,0,1.23S0.55,2.46,1.23,2.46
				c0.679,0,1.229-0.551,1.229-1.23l0,0C2.46,0.551,1.909,0,1.23,0z"/>
		</g>
	</g>
	<g id="Group_2817" transform="translate(60.765 13.535)">
		<g id="Group_2816" transform="translate(0)">
			
				<linearGradient id="Path_18033_1_" gradientUnits="userSpaceOnUse" x1="-266.3732" y1="369.9621" x2="-266.3732" y2="368.9621" gradientTransform="matrix(9.8453 0 0 -8.74 2627.4365 3233.4666)">
				<stop  offset="0" style="stop-color:#00A9E0"/>
				<stop  offset="1" style="stop-color:#801C7D"/>
			</linearGradient>
			<path id="Path_18033" fill="url(#Path_18033_1_)" d="M5.752,0H4.091C1.834,0.005,0.005,1.834,0,4.091v0.554
				C0,6.9,1.823,8.731,4.078,8.74c1.023-0.1,2.025-0.359,2.969-0.768c2.144-0.714,3.302-3.031,2.587-5.175
				C9.077,1.126,7.514,0,5.752,0z M6.269,5.637L6.269,5.637L4.606,6.191C3.753,6.477,2.83,6.016,2.544,5.163
				C2.488,4.996,2.46,4.821,2.46,4.645V4.091l0,0c0.001-0.9,0.73-1.629,1.63-1.63h1.661c0.9,0,1.63,0.729,1.631,1.629
				C7.382,4.792,6.933,5.415,6.269,5.637L6.269,5.637z"/>
		</g>
	</g>
	<g id="Group_2819" transform="translate(73.069 13.535)">
		<g id="Group_2818">
			
				<linearGradient id="Path_18034_1_" gradientUnits="userSpaceOnUse" x1="-278.6738" y1="369.9533" x2="-278.6738" y2="368.9533" gradientTransform="matrix(9.8441 0 0 -8.7383 2748.2209 3232.7712)">
				<stop  offset="0" style="stop-color:#00A9E0"/>
				<stop  offset="1" style="stop-color:#801C7D"/>
			</linearGradient>
			<path id="Path_18034" fill="url(#Path_18034_1_)" d="M5.752,0h-1.66C1.832,0,0,1.831,0,4.091c0,1.761,1.127,3.324,2.798,3.881
				l1.661,0.554C6.6,9.242,8.917,8.087,9.632,5.946c0.141-0.419,0.212-0.858,0.212-1.3V4.092C9.839,1.834,8.01,0.005,5.752,0z
				 M7.382,4.645c0,0.899-0.729,1.629-1.628,1.63c-0.177,0-0.352-0.028-0.519-0.084l0,0L3.575,5.638
				C2.721,5.353,2.26,4.429,2.545,3.575C2.767,2.91,3.39,2.462,4.091,2.462h1.66c0.9,0.001,1.629,0.73,1.631,1.63V4.645z"/>
		</g>
	</g>
	<g id="Group_2821" transform="translate(45.999 31.008)">
		<g id="Group_2820">
			
				<linearGradient id="Path_18035_1_" gradientUnits="userSpaceOnUse" x1="-273.9114" y1="384.8387" x2="-273.9114" y2="383.8387" gradientTransform="matrix(51.6861 0 0 -32.0029 14183.2666 12315.958)">
				<stop  offset="0" style="stop-color:#00A9E0"/>
				<stop  offset="1" style="stop-color:#801C7D"/>
			</linearGradient>
			<path id="Path_18035" fill="url(#Path_18035_1_)" d="M47.671,17.329c-1.865-0.382-3.781,0.366-4.895,1.91L35.211,16l7.578-3.248
				c1.598,2.195,4.672,2.68,6.867,1.082s2.68-4.673,1.082-6.868c-0.416-0.57-0.948-1.044-1.563-1.391
				c0.362-2.688-1.524-5.163-4.213-5.525c-2.689-0.362-5.163,1.524-5.525,4.213c-0.083,0.617-0.048,1.244,0.104,1.849l-13.7,5.871
				L12.128,6.099c0.66-2.629-0.936-5.295-3.564-5.955C5.935-0.516,3.268,1.08,2.608,3.709C2.455,4.316,2.42,4.947,2.505,5.568
				c-2.361,1.322-3.202,4.309-1.879,6.67c0.711,1.269,1.949,2.156,3.379,2.422c1.865,0.383,3.78-0.365,4.894-1.91l7.57,3.25
				l-7.578,3.248c-1.597-2.195-4.672-2.68-6.867-1.083s-2.681,4.672-1.083,6.867c0.415,0.571,0.949,1.047,1.565,1.394
				c-0.362,2.688,1.523,5.162,4.213,5.524s5.163-1.524,5.525-4.213c0.083-0.618,0.048-1.245-0.104-1.849l13.7-5.871l13.712,5.875
				c-0.66,2.63,0.936,5.296,3.564,5.957c2.629,0.66,5.295-0.936,5.956-3.564c0.152-0.607,0.188-1.239,0.103-1.859
				c2.362-1.321,3.206-4.307,1.886-6.669C50.349,18.483,49.107,17.594,47.671,17.329z M8.84,10.049
				c-0.625-0.268-1.349,0.023-1.616,0.648c-0.005,0.012-0.01,0.023-0.015,0.036c-0.406,1.121-1.58,1.769-2.745,1.512
				c-1.327-0.24-2.207-1.511-1.967-2.837c0.169-0.936,0.866-1.688,1.786-1.927c0.655-0.179,1.043-0.854,0.864-1.511
				C5.136,5.925,5.12,5.88,5.103,5.836C4.595,4.578,5.204,3.146,6.462,2.638C6.755,2.52,7.067,2.46,7.382,2.46
				c1.33-0.019,2.424,1.046,2.441,2.376C9.83,5.292,9.706,5.74,9.468,6.129C9.122,6.715,9.317,7.47,9.902,7.815
				c0.046,0.026,0.092,0.05,0.141,0.071l12.673,5.431l-3.124,1.339L8.84,10.049z M10.04,24.105
				c-0.625,0.268-0.914,0.992-0.646,1.616c0.021,0.049,0.045,0.097,0.072,0.142c0.694,1.135,0.338,2.619-0.797,3.313
				c-0.389,0.237-0.836,0.36-1.29,0.354c-1.357,0-2.457-1.1-2.457-2.457c-0.001-0.314,0.06-0.627,0.178-0.919
				c0.253-0.632-0.055-1.348-0.686-1.601C4.37,24.537,4.325,24.522,4.28,24.51c-1.309-0.35-2.086-1.695-1.735-3.005
				s1.696-2.086,3.006-1.735c0.758,0.203,1.373,0.756,1.655,1.488c0.247,0.634,0.961,0.947,1.594,0.699
				c0.013-0.005,0.024-0.01,0.037-0.015l32.8-14.056c0.625-0.269,0.914-0.992,0.646-1.617c-0.021-0.049-0.045-0.096-0.071-0.141
				c-0.695-1.136-0.338-2.619,0.797-3.314c0.388-0.237,0.835-0.36,1.29-0.354c1.356,0,2.457,1.101,2.457,2.457
				c0,0.315-0.061,0.627-0.178,0.919c-0.253,0.632,0.054,1.348,0.686,1.601c0.044,0.018,0.089,0.032,0.134,0.045
				c1.309,0.352,2.084,1.696,1.732,3.005s-1.696,2.084-3.005,1.732c-0.757-0.203-1.37-0.755-1.652-1.485
				c-0.247-0.634-0.961-0.946-1.595-0.699c-0.012,0.005-0.024,0.01-0.036,0.015l-11.239,4.816L10.04,24.105z M47.393,24.512
				c-0.656,0.178-1.043,0.854-0.864,1.51c0.012,0.046,0.027,0.091,0.044,0.135c0.508,1.258-0.101,2.689-1.359,3.197
				c-0.292,0.118-0.604,0.179-0.92,0.179c-1.33,0.019-2.424-1.046-2.442-2.376c-0.006-0.456,0.117-0.904,0.356-1.293
				c0.346-0.586,0.151-1.34-0.435-1.686c-0.045-0.027-0.092-0.051-0.14-0.071L28.96,18.676l3.124-1.34l10.753,4.608
				c0.625,0.268,1.349-0.022,1.616-0.647c0.005-0.012,0.01-0.024,0.015-0.037c0.406-1.121,1.58-1.768,2.745-1.512
				c1.326,0.239,2.208,1.509,1.969,2.836c-0.168,0.934-0.863,1.686-1.781,1.928H47.393z"/>
		</g>
	</g>
	<g id="Group_2823" transform="translate(55.843)">
		<g id="Group_2822">
			
				<linearGradient id="Path_18036_1_" gradientUnits="userSpaceOnUse" x1="-280.5254" y1="417.3203" x2="-280.5254" y2="416.3203" gradientTransform="matrix(31.9934 0 0 -36.421 8990.9492 15199.2217)">
				<stop  offset="0" style="stop-color:#00A9E0"/>
				<stop  offset="1" style="stop-color:#801C7D"/>
			</linearGradient>
			<path id="Path_18036" fill="url(#Path_18036_1_)" d="M31.992,13.535C31.992,4.681,24.846,0,16,0S0,4.688,0,13.535
				c0.019,2.318,0.368,4.622,1.037,6.842c-1.666,2.133-1.287,5.212,0.846,6.878c1.245,0.972,2.883,1.285,4.398,0.839h0.813
				c0.186,0.217,0.288,0.494,0.288,0.779v3.857c0.005,2.036,1.654,3.686,3.691,3.69h9.844c2.036-0.005,3.687-1.654,3.691-3.69
				v-3.954c-0.001-0.242,0.086-0.477,0.244-0.66h0.949c2.611,0.711,5.305-0.829,6.016-3.44c0.406-1.49,0.086-3.083-0.863-4.301
				C31.624,18.157,31.974,15.853,31.992,13.535z M28.711,21.562c0.521,0.46,0.819,1.122,0.82,1.817
				c-0.01,1.359-1.118,2.453-2.477,2.443c-0.241-0.002-0.481-0.039-0.712-0.11c-0.117-0.036-0.238-0.055-0.36-0.055
				c-1.353,0.043-1.736-0.122-2.227,0.191c-1.003,0.636-1.609,1.741-1.606,2.929v3.954c-0.002,0.678-0.552,1.229-1.23,1.229h-1.229
				v-4.43c0-0.68-0.552-1.231-1.23-1.231c-0.68,0-1.231,0.551-1.231,1.231v4.43h-2.461v-4.43c0-0.68-0.551-1.231-1.23-1.231
				c-0.679,0-1.23,0.551-1.23,1.231v4.43h-1.229c-0.679-0.001-1.229-0.552-1.23-1.229v-3.856c0-1.881-1.443-3.239-2.3-3.24H6.089
				c-0.507,0-0.899,0.421-1.952,0.062l-0.055-0.017c-0.971-0.35-1.619-1.269-1.625-2.3c0.001-0.695,0.299-1.356,0.82-1.817
				c0.389-0.354,0.51-0.917,0.3-1.4c-0.744-2.129-1.124-4.369-1.123-6.624c0-8.165,6.992-11.074,13.535-11.074
				s13.535,2.909,13.535,11.074c0.001,2.255-0.379,4.495-1.123,6.624C28.193,20.647,28.318,21.21,28.711,21.562z"/>
		</g>
	</g>
</g>
</svg>
