<?xml version="1.0" encoding="utf-8"?>
<!-- Generator: Adobe Illustrator 14.0.0, SVG Export Plug-In . SVG Version: 6.00 Build 43363)  -->
<!DOCTYPE svg PUBLIC "-//W3C//DTD SVG 1.1//EN" "http://www.w3.org/Graphics/SVG/1.1/DTD/svg11.dtd">
<svg version="1.1" id="depreciation" xmlns="http://www.w3.org/2000/svg" xmlns:xlink="http://www.w3.org/1999/xlink" x="0px"
	 y="0px" width="65px" height="65px" viewBox="0 0 65 65" enable-background="new 0 0 65 65" xml:space="preserve">
<g id="metallurgy" transform="translate(0.001 -12.227)">
	
		<linearGradient id="Path_19111_1_" gradientUnits="userSpaceOnUse" x1="12.372" y1="63.6088" x2="12.372" y2="62.6088" gradientTransform="matrix(63.0027 0 0 -59.9793 -745.9659 3830.9128)">
		<stop  offset="0.13" style="stop-color:#00A9ED"/>
		<stop  offset="1" style="stop-color:#65106B"/>
	</linearGradient>
	<path id="Path_19111" fill="url(#Path_19111_1_)" d="M64.075,56.235c0.51,0.001,0.923-0.412,0.924-0.922l0,0v-8.047
		c-0.013-11.679-9.479-21.144-21.158-21.157h-9.448l-9.326-9.325c-1.413-1.398-3.692-1.386-5.091,0.027
		c-1.121,1.133-1.363,2.867-0.597,4.264c-3.98,3.319-7.838,6.841-11.474,10.485c-7.35,7.375-7.912,19.12-1.3,27.163
		c0.315,0.4,0.896,0.47,1.296,0.154c0.4-0.316,0.469-0.896,0.154-1.297c-0.009-0.01-0.017-0.021-0.026-0.031
		c-6.007-7.31-5.496-17.982,1.182-24.685c3.6-3.611,7.427-7.1,11.373-10.39l25.264,25.264c-3.279,3.937-6.77,7.761-10.388,11.373
		c-6.798,6.771-17.658,7.188-24.954,0.955c-0.371-0.35-0.955-0.333-1.305,0.037c-0.35,0.371-0.333,0.955,0.038,1.305
		c0.021,0.021,0.043,0.039,0.067,0.058c3.662,3.142,8.329,4.866,13.153,4.858c0.243,0,0.487,0,0.73-0.012
		c5.108-0.176,9.959-2.281,13.573-5.896c3.652-3.646,7.174-7.5,10.484-11.476c1.088,0.605,2.412,0.605,3.5,0v20.054
		c-0.001,1.749,1.416,3.169,3.166,3.17s3.169-1.416,3.17-3.166c0-0.001,0-0.003,0-0.004v-7.353c0-0.507,0.411-0.916,0.917-0.916
		c0.505,0,0.915,0.409,0.915,0.914V72.68c0,1.681,1.362,3.043,3.043,3.043c1.68,0,3.042-1.362,3.042-3.043V59.004
		c0-0.51-0.413-0.923-0.923-0.923s-0.924,0.413-0.924,0.923V72.68c0.051,0.661-0.443,1.238-1.104,1.289
		c-0.662,0.05-1.238-0.445-1.289-1.105c-0.004-0.061-0.004-0.123,0-0.184V61.643c-0.029-1.525-1.289-2.738-2.814-2.709
		c-1.483,0.027-2.68,1.225-2.708,2.709v7.353c0.001,0.729-0.59,1.321-1.319,1.323c-0.352,0-0.689-0.141-0.938-0.389
		c-0.249-0.248-0.389-0.584-0.387-0.935v-23.19c0,0,0-0.007,0-0.011c0-0.953-0.378-1.868-1.053-2.541l-15.3-15.3h7.6
		c10.661,0.012,19.3,8.652,19.312,19.313v8.047C63.152,55.823,63.565,56.235,64.075,56.235L64.075,56.235z M50.232,47.036
		c-0.684,0.682-1.791,0.682-2.476,0L21.286,20.566c-0.673-0.694-0.656-1.803,0.038-2.476c0.679-0.659,1.759-0.659,2.438,0
		l26.47,26.47C50.915,45.245,50.916,46.352,50.232,47.036L50.232,47.036z"/>
</g>
</svg>
