<?xml version="1.0" encoding="utf-8"?>
<!-- Generator: Adobe Illustrator 16.0.0, SVG Export Plug-In . SVG Version: 6.00 Build 0)  -->
<!DOCTYPE svg PUBLIC "-//W3C//DTD SVG 1.1//EN" "http://www.w3.org/Graphics/SVG/1.1/DTD/svg11.dtd">
<svg version="1.1" id="Layer_1" xmlns="http://www.w3.org/2000/svg" xmlns:xlink="http://www.w3.org/1999/xlink" x="0px" y="0px"
	 width="63.007px" height="63px" viewBox="0 0 63.007 63" enable-background="new 0 0 63.007 63" xml:space="preserve">
<g id="telephone" transform="translate(0 -0.5)">
	
		<linearGradient id="Path_17766_1_" gradientUnits="userSpaceOnUse" x1="-268.0933" y1="421.0088" x2="-268.0933" y2="420.0088" gradientTransform="matrix(49.1573 0 0 -51.919 13210.1758 21865.7734)">
		<stop  offset="0" style="stop-color:#00A9E0"/>
		<stop  offset="1" style="stop-color:#801C7D"/>
	</linearGradient>
	<path id="Path_17766" fill="url(#Path_17766_1_)" d="M31.406,7.439c-13.57-0.001-24.573,11-24.574,24.57
		C6.831,45.195,17.238,56.031,30.413,56.563l-1.191,1.193c-0.367,0.367-0.367,0.961,0,1.327c0.366,0.366,0.96,0.366,1.327,0
		l2.772-2.772c0.366-0.365,0.366-0.959,0.001-1.326c0,0,0,0-0.001,0l-2.772-2.772c-0.366-0.366-0.96-0.366-1.327,0
		c-0.367,0.366-0.367,0.961,0,1.327l1.146,1.146C17.844,54.108,8.159,43.488,8.736,30.965C9.313,18.441,19.932,8.756,32.456,9.333
		c11.211,0.516,20.362,9.147,21.532,20.308c0.529,5.087-0.668,10.205-3.4,14.529c-0.537,0.851-1.432,1.41-2.433,1.52
		c-0.661,0.073-1.329-0.057-1.913-0.373l1.453-1.461c1.068-1.069,1.068-2.803,0-3.873l-4.9-4.899c-1.07-1.067-2.803-1.067-3.873,0
		l-2.445,2.44c-0.898,0.899-2.354,0.9-3.253,0.002c-0.001,0-0.001-0.001-0.001-0.002l-7.336-7.334
		c-0.899-0.898-0.899-2.354-0.001-3.252c0,0,0.001-0.001,0.001-0.001l0.561-0.561l0.006-0.005l0.005-0.006l1.872-1.872
		c1.067-1.07,1.067-2.803,0-3.873l-4.9-4.9c-1.07-1.069-2.804-1.069-3.873,0l-1.873,1.874l0,0l-0.008,0.009
		c-4.467,4.479-4.461,11.734,0,16.219l11.913,11.912c4.109,4.118,10.651,4.506,15.217,0.899c2.329,1.651,5.557,1.103,7.207-1.226
		c0.054-0.076,0.105-0.152,0.154-0.229c6.162-9.72,4.758-22.414-3.379-30.553C44.187,10.003,37.927,7.416,31.406,7.439z
		 M41.466,36.406l4.9,4.9c0.336,0.336,0.336,0.881,0,1.219l-1.215,1.214l-6.121-6.121l1.215-1.216c0.336-0.336,0.881-0.336,1.219,0
		L41.466,36.406z M40.367,46.843c-3.358,0.966-6.976,0.032-9.447-2.438L19.005,32.493c-3.49-3.492-3.762-9.063-0.629-12.878
		l1.638,1.641c0.366,0.367,0.96,0.367,1.327,0c0.367-0.366,0.367-0.96,0-1.327l-1.673-1.673l1.214-1.214
		c0.337-0.336,0.882-0.336,1.219,0l4.9,4.9c0.336,0.337,0.336,0.882,0,1.219l-1.212,1.215l-2.05-2.05
		c-0.367-0.367-0.962-0.366-1.328,0.001c-0.367,0.367-0.366,0.962,0.001,1.329l0,0l2.052,2.052c-1.538,1.646-1.496,4.215,0.095,5.81
		l7.335,7.335c1.594,1.594,4.165,1.637,5.811,0.095l6.09,6.091c-1.008,0.83-2.176,1.444-3.431,1.807L40.367,46.843z"/>
	
		<linearGradient id="Path_17767_1_" gradientUnits="userSpaceOnUse" x1="-268.8281" y1="419.8633" x2="-268.8281" y2="418.8633" gradientTransform="matrix(56.8895 0 0 -45.034 15328.0332 18926.5742)">
		<stop  offset="0" style="stop-color:#00A9E0"/>
		<stop  offset="1" style="stop-color:#801C7D"/>
	</linearGradient>
	<path id="Path_17767" fill="url(#Path_17767_1_)" d="M60.208,19.014c-0.213-0.472-0.769-0.682-1.241-0.469
		c-0.472,0.213-0.682,0.77-0.468,1.242l0,0c6.742,14.91,0.12,32.461-14.789,39.203c-11.232,5.08-24.438,2.673-33.155-6.043
		c-0.998-0.998-1.924-2.065-2.772-3.194c-0.33-0.4-0.921-0.458-1.322-0.129c-0.376,0.31-0.454,0.854-0.178,1.256
		c0.901,1.199,1.885,2.333,2.946,3.394c12.307,12.301,32.255,12.296,44.556-0.012c9.266-9.27,11.824-23.306,6.426-35.248H60.208z"/>
	
		<linearGradient id="Path_17768_1_" gradientUnits="userSpaceOnUse" x1="-268.5967" y1="420.3574" x2="-268.5967" y2="419.3574" gradientTransform="matrix(54.1988 0 0 -47.7689 14584.6758 20080.4883)">
		<stop  offset="0" style="stop-color:#00A9E0"/>
		<stop  offset="1" style="stop-color:#801C7D"/>
	</linearGradient>
	<path id="Path_17768" fill="url(#Path_17768_1_)" d="M10.554,11.053C21.529,0.079,39.113-0.565,50.861,9.576h-1.545
		c-0.518,0.017-0.925,0.451-0.908,0.969c0.017,0.495,0.414,0.892,0.908,0.908h3.921c0.519,0,0.938-0.419,0.938-0.937
		c0,0,0-0.001,0-0.001V6.594c0.018-0.518-0.389-0.952-0.907-0.969c-0.519-0.017-0.952,0.389-0.97,0.908c0,0.021,0,0.041,0,0.061
		v1.748C39.244-3.157,19.339-1.896,7.84,11.159C-1.116,21.327-2.566,36.083,4.239,47.8c0.271,0.442,0.85,0.581,1.292,0.31
		c0.427-0.262,0.573-0.813,0.333-1.252c-6.722-11.619-4.798-26.305,4.691-35.799V11.053z"/>
	
		<linearGradient id="Path_17769_1_" gradientUnits="userSpaceOnUse" x1="-261.5098" y1="412.4971" x2="-261.5098" y2="411.4971" gradientTransform="matrix(22.1568 0 0 -24.3053 5831.9263 10037.7813)">
		<stop  offset="0" style="stop-color:#00A9E0"/>
		<stop  offset="1" style="stop-color:#801C7D"/>
	</linearGradient>
	<path id="Path_17769" fill="url(#Path_17769_1_)" d="M30.534,12.119c-0.412-0.315-1-0.237-1.316,0.174l-2.384,3.113
		c-0.315,0.411-0.238,1,0.173,1.315c0,0,0.001,0,0.001,0.001l3.113,2.384c0.411,0.315,1,0.237,1.315-0.174
		c0.315-0.412,0.237-1-0.174-1.315l-1.254-0.961c0.496-0.05,0.994-0.076,1.493-0.076c8.522,0.01,15.423,6.926,15.414,15.448
		c-0.001,1.033-0.106,2.064-0.313,3.076c-0.104,0.508,0.224,1.004,0.731,1.107c0.508,0.104,1.003-0.223,1.107-0.73
		c1.921-9.36-4.108-18.505-13.468-20.426c-1.748-0.359-3.542-0.445-5.316-0.256l1.049-1.369c0.315-0.411,0.238-1-0.173-1.315
		c0,0-0.001,0-0.001-0.001L30.534,12.119z"/>
</g>
</svg>
