<?xml version="1.0" encoding="utf-8"?>
<!-- Generator: Adobe Illustrator 16.0.0, SVG Export Plug-In . SVG Version: 6.00 Build 0)  -->
<!DOCTYPE svg PUBLIC "-//W3C//DTD SVG 1.1//EN" "http://www.w3.org/Graphics/SVG/1.1/DTD/svg11.dtd">
<svg version="1.1" id="Layer_1" xmlns="http://www.w3.org/2000/svg" xmlns:xlink="http://www.w3.org/1999/xlink" x="0px" y="0px"
	 width="50.617px" height="50.533px" viewBox="0 0 50.617 50.533" enable-background="new 0 0 50.617 50.533" xml:space="preserve">
<g id="car_1_" transform="translate(0 -0.002)">
	<g id="Group_3508" transform="translate(0 0.002)">
		<g id="Group_3507">
			
				<linearGradient id="Path_18875_1_" gradientUnits="userSpaceOnUse" x1="-275.4722" y1="415.4795" x2="-275.4722" y2="414.6992" gradientTransform="matrix(63 0 0 -62.9984 17380.2734 26175.4297)">
				<stop  offset="0.13" style="stop-color:#00A9ED"/>
				<stop  offset="1" style="stop-color:#65106B"/>
			</linearGradient>
			<path id="Path_18875" fill="url(#Path_18875_1_)" d="M49.507,9.172l-23.74-8.187c-0.173-0.06-0.361-0.06-0.534,0L1.493,9.172
				c-0.33,0.113-0.551,0.424-0.552,0.773v39.294c0,0.451,0.367,0.818,0.818,0.818h4.093c0.452,0,0.819-0.367,0.819-0.819V23.861
				h37.656v25.377c0,0.452,0.366,0.819,0.819,0.819l0,0h4.093c0.451,0,0.818-0.367,0.818-0.818V9.945
				C50.059,9.596,49.836,9.286,49.507,9.172z M5.035,23.043V48.42H2.579V17.313h2.456V23.043z M44.328,22.225H6.672v-1.638h37.656
				V22.225z M44.328,18.95H6.672v-1.638h37.656V18.95z M48.422,48.42h-2.456V17.313h2.456V48.42z M48.422,15.675H2.579v-5.146
				L25.5,2.625l22.922,7.904V15.675z"/>
		</g>
	</g>
	<g id="Group_3510" transform="translate(10.5 34.651)">
		<g id="Group_3509">
			
				<linearGradient id="Path_18876_1_" gradientUnits="userSpaceOnUse" x1="-283.8628" y1="373.4155" x2="-283.8628" y2="372.6352" gradientTransform="matrix(42 0 0 -28.3511 11937.2539 10580.0107)">
				<stop  offset="0.13" style="stop-color:#00A9ED"/>
				<stop  offset="1" style="stop-color:#65106B"/>
			</linearGradient>
			<path id="Path_18876" fill="url(#Path_18876_1_)" d="M30.919,1.571l-3.028-1.515l-2.702-5.402
				c-0.416-0.83-1.267-1.352-2.195-1.347H7.01C6.08-6.696,5.228-6.169,4.814-5.336L2.113,0.068l-3.029,1.514
				C-1.193,1.72-1.369,2.002-1.369,2.313v11.46c0,0.904,0.733,1.638,1.637,1.638l0,0h3.274c0.904,0,1.637-0.733,1.637-1.638l0,0
				v-2.456h19.646v2.456c0,0.903,0.733,1.637,1.638,1.637l0,0h3.274c0.904,0,1.637-0.733,1.637-1.637l0,0V2.312
				C31.379,1.997,31.2,1.709,30.919,1.571z M6.275-4.607C6.413-4.885,6.697-5.06,7.007-5.06H22.99c0.311,0,0.594,0.175,0.732,0.453
				l2.229,4.459H4.043L6.275-4.607z M3.539,13.771H0.265v-2.454h3.274V13.771z M29.735,13.771h-3.274v-2.454h3.274V13.771z
				 M29.735,9.678H0.265v-6.86l2.65-1.326h24.168l2.651,1.326V9.678z"/>
		</g>
	</g>
	<g id="Group_3512" transform="translate(14.7 47.251)">
		<g id="Group_3511">
			
				<linearGradient id="Path_18877_1_" gradientUnits="userSpaceOnUse" x1="-257.8362" y1="313.291" x2="-257.8362" y2="312.5117" gradientTransform="matrix(7.35 0 0 -6.3 1895.6599 1964.2758)">
				<stop  offset="0.13" style="stop-color:#00A9ED"/>
				<stop  offset="1" style="stop-color:#65106B"/>
			</linearGradient>
			<path id="Path_18877" fill="url(#Path_18877_1_)" d="M1.795-9.47h-2.456c-0.904,0-1.637,0.733-1.637,1.637l0,0v1.638
				c0,0.904,0.733,1.637,1.637,1.637l0,0h2.456c0.904,0,1.637-0.732,1.637-1.637l0,0v-1.638C3.432-8.736,2.699-9.47,1.795-9.47
				L1.795-9.47z M1.795-6.195h-2.456v-1.638h2.456V-6.195z"/>
		</g>
	</g>
	<g id="Group_3514" transform="translate(40.95 47.251)">
		<g id="Group_3513">
			
				<linearGradient id="Path_18878_1_" gradientUnits="userSpaceOnUse" x1="-284.8729" y1="313.292" x2="-284.8729" y2="312.5127" gradientTransform="matrix(7.35 0 0 -6.3 2088.6013 1964.2758)">
				<stop  offset="0.13" style="stop-color:#00A9ED"/>
				<stop  offset="1" style="stop-color:#65106B"/>
			</linearGradient>
			<path id="Path_18878" fill="url(#Path_18878_1_)" d="M-3.989-9.47h-2.456c-0.904,0-1.637,0.733-1.637,1.637l0,0v1.638
				c0,0.904,0.732,1.637,1.637,1.637l0,0h2.456c0.903,0,1.637-0.732,1.637-1.637l0,0v-1.638C-2.352-8.736-3.086-9.47-3.989-9.47
				L-3.989-9.47z M-3.989-6.195h-2.456v-1.638h2.456V-6.195z"/>
		</g>
	</g>
	<g id="Group_3516" transform="translate(24.15 47.251)">
		<g id="Group_3515">
			
				<linearGradient id="Path_18879_1_" gradientUnits="userSpaceOnUse" x1="-285.7599" y1="313.292" x2="-285.7599" y2="312.5127" gradientTransform="matrix(14.7 0 0 -6.3 4202.0273 1964.2758)">
				<stop  offset="0.13" style="stop-color:#00A9ED"/>
				<stop  offset="1" style="stop-color:#65106B"/>
			</linearGradient>
			<path id="Path_18879" fill="url(#Path_18879_1_)" d="M5.443-9.47h-8.186c-0.904,0-1.637,0.733-1.637,1.637l0,0v1.638
				c0,0.904,0.733,1.637,1.637,1.637l0,0h8.186c0.905,0,1.638-0.732,1.638-1.637l0,0v-1.638C7.08-8.736,6.348-9.47,5.443-9.47
				L5.443-9.47z M5.443-6.195h-8.186v-1.638h8.186V-6.195z"/>
		</g>
	</g>
</g>
</svg>
