<?xml version="1.0" encoding="utf-8"?>
<!-- Generator: Adobe Illustrator 16.0.0, SVG Export Plug-In . SVG Version: 6.00 Build 0)  -->
<!DOCTYPE svg PUBLIC "-//W3C//DTD SVG 1.1//EN" "http://www.w3.org/Graphics/SVG/1.1/DTD/svg11.dtd">
<svg version="1.1" id="_24-hours" xmlns="http://www.w3.org/2000/svg" xmlns:xlink="http://www.w3.org/1999/xlink" x="0px" y="0px"
	 width="62.986px" height="62.986px" viewBox="0 0 62.986 62.986" enable-background="new 0 0 62.986 62.986" xml:space="preserve">
<g id="Group_1566">
	<g id="Group_1565">
		
			<linearGradient id="Path_16327_1_" gradientUnits="userSpaceOnUse" x1="-260.8567" y1="413.7449" x2="-260.8567" y2="412.7449" gradientTransform="matrix(20.9981 0 0 -27.2976 5530.0137 11329.917)">
			<stop  offset="0.13" style="stop-color:#00A9ED"/>
			<stop  offset="1" style="stop-color:#65106B"/>
		</linearGradient>
		<path id="Path_16327" fill="url(#Path_16327_1_)" d="M61.936,56.681h-3.149V36.736c-0.001-0.58-0.473-1.049-1.052-1.048
			c-0.342,0.001-0.662,0.168-0.858,0.448l-14.699,21c-0.332,0.476-0.216,1.13,0.26,1.462c0.176,0.122,0.385,0.188,0.6,0.188h13.65
			v3.149c0,0.58,0.47,1.05,1.05,1.05s1.05-0.47,1.05-1.05v-3.155h3.149c0.58,0,1.05-0.47,1.05-1.05S62.516,56.681,61.936,56.681z
			 M56.687,56.681H45.055l11.632-16.615V56.681z"/>
		
			<linearGradient id="Path_16328_1_" gradientUnits="userSpaceOnUse" x1="-257.699" y1="413.7439" x2="-257.699" y2="412.7439" gradientTransform="matrix(16.802 0 0 -27.2969 4365.5566 11329.5967)">
			<stop  offset="0.13" style="stop-color:#00A9ED"/>
			<stop  offset="1" style="stop-color:#65106B"/>
		</linearGradient>
		<path id="Path_16328" fill="url(#Path_16328_1_)" d="M43.04,60.881H30.611l11.555-13.605c0.026-0.032,0.051-0.065,0.073-0.1
			c2.175-3.218,1.451-7.574-1.648-9.914c-3.768-2.707-9.016-1.846-11.723,1.923c-1.024,1.427-1.576,3.141-1.577,4.897
			c0,0.58,0.471,1.051,1.05,1.051c0.58,0,1.051-0.471,1.051-1.051c0.001-3.479,2.822-6.299,6.301-6.298
			c1.317,0,2.602,0.413,3.672,1.182c2.172,1.662,2.678,4.727,1.155,7L27.543,61.251c-0.375,0.442-0.32,1.105,0.122,1.48
			c0.189,0.16,0.43,0.249,0.679,0.249h14.699c0.58,0,1.051-0.471,1.051-1.05c0-0.58-0.471-1.051-1.051-1.051L43.04,60.881z"/>
		
			<linearGradient id="Path_16329_1_" gradientUnits="userSpaceOnUse" x1="-269.2644" y1="421.1287" x2="-269.2644" y2="420.1287" gradientTransform="matrix(62.6008 0 0 -56.668 16887.459 23864.5293)">
			<stop  offset="0.13" style="stop-color:#00A9ED"/>
			<stop  offset="1" style="stop-color:#65106B"/>
		</linearGradient>
		<path id="Path_16329" fill="url(#Path_16329_1_)" d="M28.366,55.652c0.022-0.579-0.43-1.066-1.009-1.089l0,0
			C13.661,54.055,2.669,43.083,2.135,29.388h4.163c0.58,0,1.051-0.471,1.051-1.051c0-0.579-0.471-1.05-1.051-1.05H2.135
			C2.66,13.617,13.622,2.656,27.293,2.132v3.111c0,0.58,0.471,1.05,1.051,1.05c0.579,0,1.05-0.47,1.05-1.05V2.132
			C42.877,2.652,53.76,13.33,54.537,26.802l-4.094-4.095c-0.411-0.41-1.076-0.409-1.486,0.001c-0.41,0.411-0.409,1.076,0.001,1.486
			l5.86,5.86c0.11,0.133,0.253,0.236,0.414,0.3c0.041,0.012,0.083,0.022,0.125,0.03c0.072,0.025,0.146,0.044,0.223,0.054h0.061
			c0.079-0.006,0.158-0.021,0.234-0.046c0.042-0.006,0.084-0.015,0.124-0.026c0.143-0.05,0.271-0.131,0.379-0.237l5.94-5.938
			c0.396-0.424,0.372-1.089-0.053-1.484c-0.403-0.375-1.028-0.375-1.432,0l-4.2,4.193C55.885,11.855,43.48,0.035,28.417,0.01
			c-0.025-0.001-0.048-0.016-0.073-0.016c-0.026,0-0.049,0.015-0.075,0.016C12.673,0.031,0.036,12.668,0.014,28.263
			c0,0.025-0.016,0.048-0.016,0.074c0,0.027,0.015,0.049,0.016,0.075c0.026,15.211,12.063,27.684,27.264,28.249h0.039
			C27.882,56.662,28.344,56.216,28.366,55.652z"/>
		
			<linearGradient id="Path_16330_1_" gradientUnits="userSpaceOnUse" x1="-261.8865" y1="405.8474" x2="-261.8865" y2="404.8474" gradientTransform="matrix(22.8573 0 0 -17.5638 6017.3604 7142.1445)">
			<stop  offset="0.13" style="stop-color:#00A9ED"/>
			<stop  offset="1" style="stop-color:#65106B"/>
		</linearGradient>
		<path id="Path_16330" fill="url(#Path_16330_1_)" d="M42.447,14.234c-0.41-0.409-1.074-0.409-1.484,0l-11.28,11.28
			c-0.853-0.38-1.826-0.38-2.679,0l-5.341-5.341c-0.424-0.396-1.089-0.372-1.483,0.052c-0.376,0.403-0.376,1.028,0,1.432
			l5.331,5.331c-0.751,1.565-0.091,3.442,1.475,4.193c1.565,0.75,3.442,0.09,4.193-1.476c0.411-0.858,0.411-1.858,0-2.718
			l11.27-11.27C42.857,15.308,42.857,14.643,42.447,14.234z M29.086,29.08L29.086,29.08c-0.415,0.397-1.068,0.397-1.483,0
			c-0.41-0.41-0.41-1.074,0-1.484s1.075-0.41,1.484,0C29.497,28.006,29.497,28.67,29.086,29.08L29.086,29.08z"/>
	</g>
</g>
</svg>
