<?xml version="1.0" encoding="utf-8"?>
<!-- Generator: Adobe Illustrator 16.0.0, SVG Export Plug-In . SVG Version: 6.00 Build 0)  -->
<!DOCTYPE svg PUBLIC "-//W3C//DTD SVG 1.1//EN" "http://www.w3.org/Graphics/SVG/1.1/DTD/svg11.dtd">
<svg version="1.1" id="Layer_1" xmlns="http://www.w3.org/2000/svg" xmlns:xlink="http://www.w3.org/1999/xlink" x="0px" y="0px"
	 width="63px" height="60.77px" viewBox="0 0 63 60.77" enable-background="new 0 0 63 60.77" xml:space="preserve">
<g id="world" transform="translate(0 -6.948)">
	<g id="Group_2375" transform="translate(8.441 57.502)">
		<g id="Group_2374">
			
				<linearGradient id="Path_17454_1_" gradientUnits="userSpaceOnUse" x1="-214.0274" y1="271.6616" x2="-214.0274" y2="270.6616" gradientTransform="matrix(3.9108 0 0 -3.7267 838.9607 1012.3867)">
				<stop  offset="0.13" style="stop-color:#00A9ED"/>
				<stop  offset="1" style="stop-color:#65106B"/>
			</linearGradient>
			<path id="Path_17454" fill="url(#Path_17454_1_)" d="M3.575,2.025C3.555,2.006,3.534,1.99,3.513,1.973
				c-0.642-0.533-1.285-1.101-1.875-1.7C1.272-0.112,0.664-0.128,0.279,0.238c-0.385,0.365-0.4,0.974-0.035,1.358
				c0.013,0.013,0.025,0.026,0.039,0.038c0.633,0.643,1.3,1.25,2,1.818c0.396,0.356,1.004,0.324,1.36-0.071s0.324-1.005-0.071-1.36
				L3.575,2.025z"/>
		</g>
	</g>
	<g id="Group_2377" transform="translate(0.198 30.912)">
		<g id="Group_2376">
			
				<linearGradient id="Path_17455_1_" gradientUnits="userSpaceOnUse" x1="-162.1599" y1="318.4928" x2="-162.1599" y2="317.4928" gradientTransform="matrix(2.3812 0 0 -4.6203 387.3333 1471.5201)">
				<stop  offset="0.13" style="stop-color:#00A9ED"/>
				<stop  offset="1" style="stop-color:#65106B"/>
			</linearGradient>
			<path id="Path_17455" fill="url(#Path_17455_1_)" d="M1.735,0.052C1.233-0.123,0.684,0.141,0.508,0.643
				c-0.026,0.075-0.043,0.152-0.05,0.231c-0.193,0.88-0.34,1.772-0.45,2.665c-0.069,0.522,0.294,1.003,0.816,1.079h0.122
				c0.488,0,0.899-0.364,0.957-0.849c0.1-0.835,0.244-1.676,0.424-2.491C2.502,0.777,2.237,0.228,1.735,0.052z"/>
		</g>
	</g>
	<g id="Group_2379" transform="translate(4.038 51.844)">
		<g id="Group_2378">
			
				<linearGradient id="Path_17456_1_" gradientUnits="userSpaceOnUse" x1="-198.558" y1="286.5403" x2="-198.558" y2="285.5403" gradientTransform="matrix(3.3629 0 0 -4.0868 669.4098 1171.02)">
				<stop  offset="0.13" style="stop-color:#00A9ED"/>
				<stop  offset="1" style="stop-color:#65106B"/>
			</linearGradient>
			<path id="Path_17456" fill="url(#Path_17456_1_)" d="M3.188,2.576C2.693,1.896,2.225,1.19,1.794,0.47
				c-0.271-0.458-0.862-0.608-1.32-0.337c0,0,0,0,0,0.001l0,0C0.017,0.406-0.134,0.996,0.138,1.453l0,0l0,0
				c0.462,0.771,0.963,1.529,1.5,2.254C1.962,4.13,2.566,4.21,2.988,3.886c0.409-0.313,0.499-0.893,0.204-1.315L3.188,2.576z"/>
		</g>
	</g>
	<g id="Group_2381" transform="translate(1.136 45.262)">
		<g id="Group_2380">
			
				<linearGradient id="Path_17457_1_" gradientUnits="userSpaceOnUse" x1="-178.8499" y1="299.0061" x2="-178.8499" y2="298.0061" gradientTransform="matrix(2.7728 0 0 -4.3552 497.3083 1302.2407)">
				<stop  offset="0.13" style="stop-color:#00A9ED"/>
				<stop  offset="1" style="stop-color:#65106B"/>
			</linearGradient>
			<path id="Path_17457" fill="url(#Path_17457_1_)" d="M2.731,3.082C2.423,2.306,2.14,1.502,1.902,0.694
				C1.754,0.183,1.219-0.111,0.708,0.036L0.681,0.044C0.175,0.199-0.112,0.733,0.039,1.239C0.296,2.101,0.591,2.96,0.925,3.809
				C1.161,4.291,1.744,4.49,2.227,4.254c0.434-0.213,0.646-0.712,0.498-1.172H2.731z"/>
		</g>
	</g>
	<g id="Group_2383" transform="translate(1.976 24.258)">
		<g id="Group_2382">
			
				<linearGradient id="Path_17458_1_" gradientUnits="userSpaceOnUse" x1="-186.6782" y1="318.9857" x2="-186.6782" y2="317.9866" gradientTransform="matrix(2.9911 0 0 -4.306 559.8743 1373.5376)">
				<stop  offset="0.13" style="stop-color:#00A9ED"/>
				<stop  offset="1" style="stop-color:#65106B"/>
			</linearGradient>
			<path id="Path_17458" fill="url(#Path_17458_1_)" d="M2.466,0.102C1.991-0.137,1.412,0.054,1.172,0.529
				c-0.4,0.8-0.777,1.631-1.1,2.473c-0.188,0.497,0.063,1.053,0.559,1.24c0.488,0.185,1.034-0.053,1.231-0.535l0,0
				C2.165,2.919,2.51,2.15,2.896,1.401c0.241-0.475,0.051-1.055-0.424-1.296C2.47,0.104,2.468,0.103,2.466,0.102z"/>
		</g>
	</g>
	<g id="Group_2385" transform="translate(0 38.195)">
		<g id="Group_2384">
			
				<linearGradient id="Path_17459_1_" gradientUnits="userSpaceOnUse" x1="-149.5034" y1="309.494" x2="-149.5034" y2="308.494" gradientTransform="matrix(2.142 0 0 -4.5281 321.3058 1401.4258)">
				<stop  offset="0.13" style="stop-color:#00A9ED"/>
				<stop  offset="1" style="stop-color:#65106B"/>
			</linearGradient>
			<path id="Path_17459" fill="url(#Path_17459_1_)" d="M2.133,3.445L2.133,3.445C2.033,2.61,1.96,1.763,1.927,0.928
				C1.908,0.395,1.46-0.021,0.929-0.001C0.396,0.018-0.02,0.466,0,0.998c0.015,0.903,0.087,1.806,0.218,2.7
				c0.066,0.467,0.46,0.817,0.931,0.828H1.3C1.828,4.46,2.201,3.977,2.133,3.45C2.133,3.448,2.133,3.447,2.133,3.445z"/>
		</g>
	</g>
	<g id="Group_2387" transform="translate(23.079 8.63)">
		<g id="Group_2386">
			
				<linearGradient id="Path_17460_1_" gradientUnits="userSpaceOnUse" x1="-239.3598" y1="257.8187" x2="-239.3598" y2="256.8177" gradientTransform="matrix(4.6418 0 0 -2.3304 1113.363 600.8147)">
				<stop  offset="0.13" style="stop-color:#00A9ED"/>
				<stop  offset="1" style="stop-color:#65106B"/>
			</linearGradient>
			<path id="Path_17460" fill="url(#Path_17460_1_)" d="M4.612,0.87C4.56,0.338,4.087-0.051,3.555,0h0
				C2.662,0.09,1.763,0.218,0.877,0.393c-0.533,0.036-0.937,0.498-0.9,1.031c0.036,0.533,0.498,0.937,1.031,0.9
				C1.025,2.323,1.041,2.322,1.057,2.32L1.051,2.293h0.186c0.829-0.161,1.67-0.283,2.5-0.366c0.532-0.049,0.924-0.52,0.875-1.052
				C4.612,0.873,4.612,0.872,4.612,0.87z"/>
		</g>
	</g>
	<g id="Group_2389" transform="translate(5.392 18.289)">
		<g id="Group_2388">
			
				<linearGradient id="Path_17461_1_" gradientUnits="userSpaceOnUse" x1="-204.3095" y1="317.7232" x2="-204.3095" y2="316.7232" gradientTransform="matrix(3.5612 0 0 -3.9877 729.3656 1266.9727)">
				<stop  offset="0.13" style="stop-color:#00A9ED"/>
				<stop  offset="1" style="stop-color:#65106B"/>
			</linearGradient>
			<path id="Path_17461" fill="url(#Path_17461_1_)" d="M3.234,0.243c-0.4-0.355-1.013-0.318-1.368,0.083h0
				C1.275,1,0.71,1.712,0.183,2.445C-0.13,2.875-0.034,3.477,0.396,3.79C0.56,3.909,0.757,3.973,0.96,3.973v0.014
				c0.311,0.001,0.603-0.148,0.784-0.4c0.495-0.681,1.021-1.349,1.574-1.978C3.671,1.208,3.634,0.597,3.234,0.243z"/>
		</g>
	</g>
	<g id="Group_2391" transform="translate(30.327 8.511)">
		<g id="Group_2390">
			
				<linearGradient id="Path_17462_1_" gradientUnits="userSpaceOnUse" x1="-246.2118" y1="249.1682" x2="-246.2118" y2="248.1682" gradientTransform="matrix(4.6099 0 0 -2.2144 1137.3121 551.7529)">
				<stop  offset="0.13" style="stop-color:#00A9ED"/>
				<stop  offset="1" style="stop-color:#65106B"/>
			</linearGradient>
			<path id="Path_17462" fill="url(#Path_17462_1_)" d="M3.714,0.282c-0.887-0.135-1.792-0.23-2.691-0.283
				C0.491-0.032,0.033,0.373,0.002,0.906c-0.032,0.531,0.373,0.989,0.906,1.021l0,0C1.755,1.99,2.596,2.08,3.425,2.209h0.148
				c0.531,0.039,0.994-0.36,1.033-0.893S4.246,0.322,3.714,0.282L3.714,0.282z"/>
		</g>
	</g>
	<g id="Group_2393" transform="translate(10.295 13.549)">
		<g id="Group_2392" transform="translate(0 0)">
			
				<linearGradient id="Path_17463_1_" gradientUnits="userSpaceOnUse" x1="-217.2931" y1="308.6536" x2="-217.2931" y2="307.6536" gradientTransform="matrix(3.9939 0 0 -3.4943 869.8363 1078.5367)">
				<stop  offset="0.13" style="stop-color:#00A9ED"/>
				<stop  offset="1" style="stop-color:#65106B"/>
			</linearGradient>
			<path id="Path_17463" fill="url(#Path_17463_1_)" d="M3.803,0.391c-0.302-0.412-0.872-0.517-1.3-0.239
				c-0.739,0.507-1.464,1.06-2.158,1.631c-0.41,0.342-0.465,0.952-0.123,1.361c0.342,0.41,0.952,0.465,1.361,0.123
				c0.642-0.54,1.323-1.054,2.017-1.529C4.029,1.421,4.119,0.819,3.803,0.391L3.803,0.391z"/>
		</g>
	</g>
	<g id="Group_2396" transform="translate(16.36 10.198)">
		<g id="Group_2395">
			<g id="Group_2394">
				
					<linearGradient id="Path_17464_1_" gradientUnits="userSpaceOnUse" x1="-24.7599" y1="33.5603" x2="-24.7599" y2="33.5603" gradientTransform="matrix(1 0 0 -1 25.728 36.5249)">
					<stop  offset="0.13" style="stop-color:#00A9ED"/>
					<stop  offset="1" style="stop-color:#65106B"/>
				</linearGradient>
				<path id="Path_17464" fill="url(#Path_17464_1_)" d="M0.968,2.965L0.968,2.965z"/>
				
					<linearGradient id="Path_17465_1_" gradientUnits="userSpaceOnUse" x1="-230.0626" y1="292.5857" x2="-230.0626" y2="291.5857" gradientTransform="matrix(4.4417 0 0 -2.9766 1024.0469 870.8981)">
					<stop  offset="0.13" style="stop-color:#00A9ED"/>
					<stop  offset="1" style="stop-color:#65106B"/>
				</linearGradient>
				<path id="Path_17465" fill="url(#Path_17465_1_)" d="M4.366,0.71c-0.141-0.513-0.67-0.814-1.184-0.674
					C3.138,0.048,3.093,0.063,3.05,0.083C2.201,0.385,1.369,0.734,0.558,1.13C0.067,1.329-0.17,1.887,0.03,2.379
					C0.228,2.87,0.788,3.106,1.279,2.907c0.027-0.011,0.053-0.023,0.079-0.036c0.758-0.36,1.541-0.688,2.331-0.977
					c0.514-0.139,0.817-0.667,0.678-1.181C4.367,0.712,4.367,0.711,4.366,0.71z"/>
			</g>
		</g>
	</g>
	<g id="Group_2398" transform="translate(27.83 65.73)">
		<g id="Group_2397">
			
				<linearGradient id="Path_17466_1_" gradientUnits="userSpaceOnUse" x1="-242.6859" y1="171.7861" x2="-242.6859" y2="170.7871" gradientTransform="matrix(4.529 0 0 -1.987 1101.4091 341.3351)">
				<stop  offset="0.13" style="stop-color:#00A9ED"/>
				<stop  offset="1" style="stop-color:#65106B"/>
			</linearGradient>
			<path id="Path_17466" fill="url(#Path_17466_1_)" d="M4.544,0.902C4.51,0.372,4.051-0.031,3.52,0.003
				C2.678,0.067,1.833,0.086,0.989,0.061C0.457,0.057,0.022,0.484,0.017,1.017C0.013,1.535,0.42,1.965,0.938,1.987h0.816
				c0.642,0,1.285,0,1.889-0.058c0.531-0.033,0.936-0.492,0.901-1.024C4.544,0.904,4.544,0.903,4.544,0.902z"/>
		</g>
	</g>
	<g id="Group_2400" transform="translate(55.628 44.286)">
		<g id="Group_2399">
			
				<linearGradient id="Path_17467_1_" gradientUnits="userSpaceOnUse" x1="-230.2935" y1="301.0709" x2="-230.2935" y2="300.0709" gradientTransform="matrix(2.6873 0 0 -4.4088 620.2175 1327.3523)">
				<stop  offset="0.13" style="stop-color:#00A9ED"/>
				<stop  offset="1" style="stop-color:#65106B"/>
			</linearGradient>
			<path id="Path_17467" fill="url(#Path_17467_1_)" d="M1.962,0.029C1.446-0.102,0.921,0.21,0.79,0.726c0,0.001,0,0.002,0,0.002
				C0.584,1.545,0.334,2.353,0.052,3.143c-0.168,0.505,0.106,1.049,0.611,1.216C1.156,4.522,1.69,4.263,1.868,3.776l0,0
				c0.3-0.849,0.564-1.716,0.79-2.569C2.792,0.691,2.483,0.165,1.969,0.03C1.967,0.03,1.964,0.029,1.962,0.029z"/>
		</g>
	</g>
	<g id="Group_2402" transform="translate(56.375 29.954)">
		<g id="Group_2401">
			
				<linearGradient id="Path_17468_1_" gradientUnits="userSpaceOnUse" x1="-222.0571" y1="316.401" x2="-222.0571" y2="315.401" gradientTransform="matrix(2.4634 0 0 -4.4591 548.2429 1410.8337)">
				<stop  offset="0.13" style="stop-color:#00A9ED"/>
				<stop  offset="1" style="stop-color:#65106B"/>
			</linearGradient>
			<path id="Path_17468" fill="url(#Path_17468_1_)" d="M2.445,3.33C2.297,2.444,2.111,1.55,1.887,0.683
				C1.745,0.171,1.215-0.131,0.702,0.01C0.198,0.149-0.104,0.665,0.023,1.171c0.211,0.81,0.385,1.645,0.526,2.473
				c0.083,0.454,0.477,0.786,0.938,0.79h0.16C2.174,4.349,2.53,3.854,2.445,3.33z"/>
		</g>
	</g>
	<g id="Group_2404" transform="translate(6.868 6.948)">
		<g id="Group_2403">
			
				<linearGradient id="Path_17469_1_" gradientUnits="userSpaceOnUse" x1="-275.6356" y1="419.6433" x2="-275.6356" y2="418.6433" gradientTransform="matrix(56.1294 0 0 -53.8663 15499.333 22604.6133)">
				<stop  offset="0.13" style="stop-color:#00A9ED"/>
				<stop  offset="1" style="stop-color:#65106B"/>
			</linearGradient>
			<path id="Path_17469" fill="url(#Path_17469_1_)" d="M56.046,15.277c-0.045-0.098-0.107-0.188-0.184-0.265l-1.699-1.772
				c-0.246-0.246-0.607-0.335-0.938-0.231l-3.069,0.931l-3.601-3.814l8.073-4.5c0.471-0.218,0.676-0.774,0.459-1.245
				c-0.046-0.098-0.107-0.188-0.184-0.264L52.646,1.85c-0.248-0.237-0.605-0.32-0.932-0.218l-10.23,3.1L38.04,1.076
				c-0.877-1.015-2.306-1.354-3.545-0.842h-0.059c-0.935,0.385-1.677,1.127-2.062,2.062c-0.097,0.244-0.167,0.498-0.206,0.758
				l-0.393-0.135c-0.51-0.155-1.049,0.133-1.203,0.644c-0.15,0.498,0.12,1.025,0.613,1.193c0.494,0.161,0.988,0.34,1.483,0.527
				c0.149,0.232,0.323,0.447,0.521,0.642l3.629,3.443l-1.041,3.436C25.603,5.546,11.468,7.911,4.21,18.088
				s-4.892,24.311,5.284,31.568c10.177,7.259,24.311,4.893,31.569-5.284c5.787-8.115,5.585-19.062-0.5-26.957l1.645-2.964l3.814,3.6
				l-0.918,3.038c-0.11,0.334-0.023,0.702,0.226,0.951c0,0,1.882,1.862,1.927,1.927c0.445,0.254,1.013,0.099,1.268-0.346
				l0.012-0.021l2.512-4.604l4.534-2.474c0.472-0.215,0.679-0.771,0.464-1.242C56.046,15.279,56.046,15.278,56.046,15.277z
				 M8.091,16.551c3.873-3.87,9.125-6.042,14.6-6.037c0.428,0,0.856,0.013,1.285,0.039c3.642,3.359,2.569,6.423,0.128,9.184
				c-1.44,1.528-2.985,2.953-4.624,4.266c-2.37,2.017-4.579,3.899-5.414,5.78c-0.989,2.234-0.263,4.258,3.732,6.023
				c1.295,0.462,2.486,1.173,3.507,2.094c0.006,0.007,0.012,0.013,0.019,0.018l-0.044,0.015c-0.967,0.368-1.997,0.545-3.031,0.521
				c-4.843,0.206-8.292-2.891-10.97-5.286c-1.927-1.715-3.526-3.142-5.189-3.154C2.364,24.938,4.501,20.145,8.091,16.551z
				 M43.409,31.178h0.006c-0.004,8.951-5.758,16.887-14.264,19.672c-0.24-1.505,0.039-3.047,0.789-4.374
				c1.018-1.634,2.324-3.07,3.854-4.238c5.928-4.945,6.262-7.707,6.519-9.833c0.161-1.343,0.283-2.345,2.936-3.801
				C43.355,29.459,43.409,30.318,43.409,31.178z M42.214,24.229c0.287,0.809,0.522,1.635,0.706,2.474
				c-4.04,2.055-4.22,3.52-4.464,5.517c-0.219,1.8-0.5,4.149-5.857,8.619c-1.715,1.313-3.172,2.931-4.3,4.771
				c-0.983,1.74-1.325,3.77-0.963,5.735C16.195,53.894,5.098,46.929,2.549,35.789c-0.292-1.276-0.462-2.577-0.508-3.885
				c1.021,0,2.344,1.214,3.969,2.658c2.942,2.627,6.705,5.979,12.312,5.78c1.321,0.023,2.633-0.227,3.854-0.732
				c0.515-0.227,0.904-0.668,1.066-1.206c0.137-0.602-0.037-1.23-0.462-1.677c-1.202-1.158-2.632-2.053-4.2-2.627
				c-2.717-1.2-3.308-2.37-2.775-3.564c0.642-1.5,2.71-3.211,4.907-5.139c1.711-1.384,3.323-2.888,4.822-4.5
				c2.686-3.057,4.066-6.391,1.336-10.039c3.036,0.621,5.893,1.921,8.354,3.802l-1.477,4.875c-0.109,0.334-0.022,0.701,0.225,0.95
				c0,0,2.4,2.376,2.474,2.422c0.444,0.258,1.014,0.106,1.271-0.339c0,0,0.001,0,0.001-0.001l0.006-0.017l1.869-3.378
				C40.696,20.729,41.578,22.43,42.214,24.229L42.214,24.229z M50.825,17.051l-0.83,0.411c-0.185,0.092-0.334,0.243-0.424,0.43
				l-0.41,0.835l-1.6,2.891l-0.47-0.515l0.931-3.076c0.109-0.359-0.01-0.75-0.3-0.988l-5.067-4.772
				c-0.366-0.36-0.955-0.355-1.316,0.012l0,0l-0.025,0.027c-0.063,0.071-4.623,8.285-4.623,8.285l-1-1L38.804,9.35
				c0.114-0.363-0.005-0.759-0.3-1l-4.033-3.8c-0.446-0.378-0.595-1.003-0.366-1.541c0.205-0.467,0.58-0.838,1.047-1.04h0.032
				c0.531-0.204,1.134-0.05,1.5,0.385l3.854,4.072c0.242,0.26,0.611,0.359,0.951,0.257l10.275-3.1l1,1l-8.156,4.482
				c-0.451,0.247-0.617,0.813-0.371,1.264l0.012,0.021c0.039,0.071,4.951,5.3,4.951,5.3c0.244,0.258,0.613,0.354,0.951,0.25
				l3.09-0.931l0.481,0.482L50.825,17.051z"/>
		</g>
	</g>
	<g id="Group_2406" transform="translate(52.388 50.953)">
		<g id="Group_2405">
			
				<linearGradient id="Path_17470_1_" gradientUnits="userSpaceOnUse" x1="-245.7606" y1="289.7115" x2="-245.7606" y2="288.7115" gradientTransform="matrix(3.3147 0 0 -4.1867 816.2728 1212.9397)">
				<stop  offset="0.13" style="stop-color:#00A9ED"/>
				<stop  offset="1" style="stop-color:#65106B"/>
			</linearGradient>
			<path id="Path_17470" fill="url(#Path_17470_1_)" d="M2.826,0.131L2.783,0.107c-0.46-0.24-1.028-0.073-1.284,0.38
				c-0.4,0.738-0.849,1.464-1.324,2.157c-0.316,0.43-0.225,1.034,0.204,1.352c0.429,0.316,1.034,0.226,1.351-0.204
				c0.01-0.012,0.018-0.023,0.025-0.036c0.5-0.745,0.977-1.522,1.414-2.306C3.437,0.991,3.284,0.401,2.826,0.131z"/>
		</g>
	</g>
	<g id="Group_2408" transform="translate(57.164 37.023)">
		<g id="Group_2407">
			
				<linearGradient id="Path_17471_1_" gradientUnits="userSpaceOnUse" x1="-201.6762" y1="313.3915" x2="-201.6762" y2="312.3915" gradientTransform="matrix(2.0591 0 0 -4.6761 416.3029 1465.4583)">
				<stop  offset="0.13" style="stop-color:#00A9ED"/>
				<stop  offset="1" style="stop-color:#65106B"/>
			</linearGradient>
			<path id="Path_17471" fill="url(#Path_17471_1_)" d="M1.096,0C0.565-0.008,0.127,0.418,0.119,0.949c0,0.014,0,0.026,0,0.039
				v0.109c0,0.841-0.039,1.688-0.116,2.531c-0.048,0.529,0.341,0.998,0.871,1.047c0.001,0,0.001,0,0.001,0h0.091
				c0.509,0.005,0.933-0.386,0.97-0.894c0.084-0.893,0.123-1.8,0.123-2.699V0.955C2.054,0.427,1.625,0,1.096,0z"/>
		</g>
	</g>
	<g id="Group_2410" transform="translate(20.683 64.688)">
		<g id="Group_2409">
			
				<linearGradient id="Path_17472_1_" gradientUnits="userSpaceOnUse" x1="-236.495" y1="216.1191" x2="-236.495" y2="215.1191" gradientTransform="matrix(4.6041 0 0 -2.5491 1091.15 550.9009)">
				<stop  offset="0.13" style="stop-color:#00A9ED"/>
				<stop  offset="1" style="stop-color:#65106B"/>
			</linearGradient>
			<path id="Path_17472" fill="url(#Path_17472_1_)" d="M3.75,0.618C2.917,0.482,2.093,0.294,1.284,0.054
				c-0.502-0.177-1.052,0.087-1.229,0.59c-0.176,0.502,0.088,1.052,0.59,1.229l0,0C0.682,1.885,0.72,1.896,0.758,1.903
				c0.861,0.244,1.747,0.456,2.633,0.643h0.18c0.534,0.036,0.995-0.367,1.032-0.9C4.638,1.131,4.263,0.68,3.75,0.618L3.75,0.618z"/>
		</g>
	</g>
	<g id="Group_2412" transform="translate(34.983 64.385)">
		<g id="Group_2411">
			
				<linearGradient id="Path_17473_1_" gradientUnits="userSpaceOnUse" x1="-248.3209" y1="220.051" x2="-248.3209" y2="219.051" gradientTransform="matrix(4.4147 0 0 -2.611 1098.4751 574.5547)">
				<stop  offset="0.13" style="stop-color:#00A9ED"/>
				<stop  offset="1" style="stop-color:#65106B"/>
			</linearGradient>
			<path id="Path_17473" fill="url(#Path_17473_1_)" d="M4.355,0.633C4.181,0.16,3.671-0.097,3.187,0.04v0.026
				C2.39,0.333,1.578,0.548,0.753,0.708c-0.52,0.117-0.846,0.634-0.729,1.153c0.117,0.52,0.634,0.846,1.153,0.729l0,0
				C2.05,2.391,2.93,2.148,3.785,1.871C4.285,1.687,4.539,1.133,4.355,0.633z"/>
		</g>
	</g>
	<g id="Group_2414" transform="translate(14.129 61.874)">
		<g id="Group_2413">
			
				<linearGradient id="Path_17474_1_" gradientUnits="userSpaceOnUse" x1="-225.1768" y1="249.0191" x2="-225.1768" y2="248.0181" gradientTransform="matrix(4.2529 0 0 -3.1729 959.7742 790.1074)">
				<stop  offset="0.13" style="stop-color:#00A9ED"/>
				<stop  offset="1" style="stop-color:#65106B"/>
			</linearGradient>
			<path id="Path_17474" fill="url(#Path_17474_1_)" d="M3.694,1.333c-0.764-0.379-1.516-0.79-2.242-1.2
				c-0.459-0.27-1.05-0.115-1.319,0.344s-0.116,1.05,0.343,1.319c0.777,0.456,1.58,0.88,2.4,1.285
				C3.358,3.307,3.934,3.1,4.161,2.618s0.02-1.058-0.462-1.284L3.694,1.333z"/>
		</g>
	</g>
	<g id="Group_2416" transform="translate(47.649 56.759)">
		<g id="Group_2415">
			
				<linearGradient id="Path_17475_1_" gradientUnits="userSpaceOnUse" x1="-250.9991" y1="272.9593" x2="-250.9991" y2="271.9593" gradientTransform="matrix(3.7862 0 0 -3.7466 952.2159 1022.66)">
				<stop  offset="0.13" style="stop-color:#00A9ED"/>
				<stop  offset="1" style="stop-color:#65106B"/>
			</linearGradient>
			<path id="Path_17475" fill="url(#Path_17475_1_)" d="M3.472,0.25C3.086-0.102,2.49-0.083,2.126,0.294h0.007
				C1.562,0.915,0.956,1.505,0.322,2.061C-0.075,2.415-0.11,3.026,0.246,3.422C0.6,3.82,1.21,3.855,1.607,3.499l0,0
				C2.249,2.9,2.93,2.267,3.535,1.612C3.892,1.219,3.865,0.61,3.472,0.25L3.472,0.25z"/>
		</g>
	</g>
	<g id="Group_2418" transform="translate(41.725 61.347)">
		<g id="Group_2417">
			
				<linearGradient id="Path_17476_1_" gradientUnits="userSpaceOnUse" x1="-251.9784" y1="251.9758" x2="-251.9784" y2="250.9758" gradientTransform="matrix(4.1994 0 0 -3.2368 1060.2864 815.6033)">
				<stop  offset="0.13" style="stop-color:#00A9ED"/>
				<stop  offset="1" style="stop-color:#65106B"/>
			</linearGradient>
			<path id="Path_17476" fill="url(#Path_17476_1_)" d="M4.082,0.468C3.808,0.011,3.216-0.138,2.759,0.135L2.714,0.163V0.138
				C2.009,0.587,1.27,1.011,0.525,1.422C0.056,1.675-0.119,2.26,0.134,2.729C0.379,3.184,0.94,3.364,1.405,3.138
				c0.8-0.411,1.586-0.867,2.345-1.35C4.205,1.516,4.354,0.924,4.082,0.468L4.082,0.468z"/>
		</g>
	</g>
</g>
</svg>
