<?xml version="1.0" encoding="utf-8"?>
<!-- Generator: Adobe Illustrator 14.0.0, SVG Export Plug-In . SVG Version: 6.00 Build 43363)  -->
<!DOCTYPE svg PUBLIC "-//W3C//DTD SVG 1.1//EN" "http://www.w3.org/Graphics/SVG/1.1/DTD/svg11.dtd">
<svg version="1.1" id="Layer_1" xmlns="http://www.w3.org/2000/svg" xmlns:xlink="http://www.w3.org/1999/xlink" x="0px" y="0px"
	 width="63px" height="56.968px" viewBox="0 0 63 56.968" enable-background="new 0 0 63 56.968" xml:space="preserve">
<g id="software" transform="translate(0 -22.5)">
	
		<linearGradient id="Path_17793_1_" gradientUnits="userSpaceOnUse" x1="11.3579" y1="69.5327" x2="11.3579" y2="68.5327" gradientTransform="matrix(62.995 0 0 -56.963 -683.9651 3983.2556)">
		<stop  offset="0.13" style="stop-color:#00A9ED"/>
		<stop  offset="1" style="stop-color:#65106B"/>
	</linearGradient>
	<path id="Path_17793" fill="url(#Path_17793_1_)" d="M61.995,22.5H1c-0.552,0-1,0.448-1,1v54.962c0,0.553,0.448,1,1,1h60.99
		c0.553,0.004,1.002-0.441,1.005-0.994c0-0.002,0-0.004,0-0.006V23.5C62.995,22.948,62.547,22.5,61.995,22.5
		c-0.002,0-0.003,0-0.005,0H61.995z M60.988,77.457H2.011V24.511h37.2v6.032H5.027c-0.555-0.018-1.02,0.418-1.037,0.974
		c-0.018,0.556,0.418,1.02,0.974,1.038c0.021,0,0.042,0,0.063,0h52.946c0.556,0,1.006-0.45,1.006-1.006
		c0-0.555-0.45-1.005-1.006-1.005H41.218v-6.032h19.771V77.457z"/>
	
		<linearGradient id="Ellipse_220_1_" gradientUnits="userSpaceOnUse" x1="144.25" y1="-107.7744" x2="144.25" y2="-108.7744" gradientTransform="matrix(2 0 0 -2 -236.5 -189.0483)">
		<stop  offset="0.13" style="stop-color:#00A9ED"/>
		<stop  offset="1" style="stop-color:#65106B"/>
	</linearGradient>
	<circle id="Ellipse_220" fill="url(#Ellipse_220_1_)" cx="52" cy="27.5" r="1"/>
	
		<linearGradient id="Ellipse_221_1_" gradientUnits="userSpaceOnUse" x1="281.5" y1="-107.7744" x2="281.5" y2="-108.7744" gradientTransform="matrix(1 0 0 -2 -236 -189.0483)">
		<stop  offset="0.13" style="stop-color:#00A9ED"/>
		<stop  offset="1" style="stop-color:#65106B"/>
	</linearGradient>
	<ellipse id="Ellipse_221" fill="url(#Ellipse_221_1_)" cx="45.5" cy="27.5" rx="0.5" ry="1"/>
	
		<linearGradient id="Ellipse_222_1_" gradientUnits="userSpaceOnUse" x1="144.25" y1="-107.7744" x2="144.25" y2="-108.7744" gradientTransform="matrix(2 0 0 -2 -231.5 -189.0483)">
		<stop  offset="0.13" style="stop-color:#00A9ED"/>
		<stop  offset="1" style="stop-color:#65106B"/>
	</linearGradient>
	<circle id="Ellipse_222" fill="url(#Ellipse_222_1_)" cx="57" cy="27.5" r="1"/>
	
		<linearGradient id="Path_17794_1_" gradientUnits="userSpaceOnUse" x1="25.416" y1="51.3218" x2="25.416" y2="50.3218" gradientTransform="matrix(14.9054 0 0 -14.902 -347.3403 811.9769)">
		<stop  offset="0.13" style="stop-color:#00A9ED"/>
		<stop  offset="1" style="stop-color:#65106B"/>
	</linearGradient>
	<path id="Path_17794" fill="url(#Path_17794_1_)" d="M31.5,47.187c-4.114-0.001-7.451,3.334-7.452,7.449
		c0,4.113,3.334,7.449,7.449,7.451c1.188,0,2.357-0.283,3.413-0.828c0.493-0.254,0.688-0.86,0.433-1.354
		c-0.255-0.494-0.861-0.688-1.354-0.433l0,0c-0.77,0.397-1.623,0.603-2.488,0.601c-3.004,0-5.439-2.436-5.439-5.439
		s2.435-5.439,5.439-5.439s5.439,2.436,5.439,5.439l0,0c0.003,0.865-0.203,1.719-0.601,2.488c-0.255,0.492-0.062,1.1,0.433,1.354
		c0.494,0.255,1.1,0.062,1.354-0.432l0,0c1.884-3.658,0.444-8.15-3.212-10.033c-1.056-0.543-2.225-0.826-3.411-0.826L31.5,47.187z"
		/>
	
		<linearGradient id="Path_17795_1_" gradientUnits="userSpaceOnUse" x1="14.8457" y1="65.4868" x2="14.8457" y2="64.4868" gradientTransform="matrix(34.989 0 0 -35.01 -487.9299 2329.811)">
		<stop  offset="0.13" style="stop-color:#00A9ED"/>
		<stop  offset="1" style="stop-color:#65106B"/>
	</linearGradient>
	<path id="Path_17795" fill="url(#Path_17795_1_)" d="M47.999,50.951h-4.228c-0.249-0.826-0.58-1.624-0.99-2.382l2.992-2.992
		c0.393-0.393,0.393-1.029,0-1.422l-3.791-3.787c-0.393-0.393-1.029-0.393-1.422,0l-2.992,2.992c-0.758-0.41-1.556-0.742-2.381-0.99
		v-4.232c0.002-0.552-0.443-1.002-0.996-1.005c-0.001,0-0.003,0-0.004,0h-5.362c-0.552,0-1,0.448-1,1c0,0.002,0,0.003,0,0.005v4.23
		c-0.826,0.248-1.624,0.58-2.382,0.99l-2.992-2.992c-0.393-0.393-1.029-0.393-1.422,0l-3.791,3.791
		c-0.392,0.393-0.392,1.029,0,1.422l2.992,2.992c-0.41,0.759-0.742,1.557-0.99,2.382h-4.228c-0.552,0-1,0.448-1,1
		c0,0.002,0,0.004,0,0.006v5.361c-0.003,0.553,0.442,1.002,0.995,1.006c0.002,0,0.003,0,0.005,0h4.228
		c0.248,0.824,0.58,1.623,0.99,2.381l-2.992,2.992c-0.392,0.393-0.392,1.029,0,1.422l3.791,3.791
		c0.389,0.393,1.022,0.396,1.415,0.008c0.002-0.002,0.005-0.005,0.008-0.008l2.992-2.992c0.758,0.41,1.557,0.742,2.382,0.99v4.229
		c-0.003,0.553,0.442,1.002,0.995,1.005c0.002,0,0.003,0,0.005,0h5.358c0.552,0,1-0.448,1-1c0-0.001,0-0.003,0-0.005v-4.23
		c0.824-0.248,1.623-0.58,2.381-0.99l2.992,2.992c0.389,0.393,1.021,0.396,1.414,0.008c0.003-0.002,0.006-0.005,0.008-0.008
		l3.791-3.791c0.393-0.393,0.393-1.029,0-1.422l-2.992-2.992c0.41-0.758,0.742-1.557,0.99-2.381h4.229
		c0.553,0.002,1.002-0.443,1.005-0.996c0-0.003,0-0.006,0-0.01v-5.361c0-0.553-0.448-1-1-1c-0.003,0-0.005,0-0.007,0L47.999,50.951z
		 M46.994,56.313h-3.995c-0.468-0.002-0.874,0.321-0.979,0.776c-0.268,1.15-0.724,2.247-1.35,3.248
		c-0.25,0.396-0.19,0.912,0.143,1.242l2.828,2.828l-2.371,2.37l-2.828-2.827c-0.329-0.334-0.846-0.393-1.242-0.143
		c-1.001,0.625-2.098,1.082-3.247,1.35c-0.456,0.104-0.779,0.512-0.777,0.979v3.995h-3.351v-3.995
		c0.002-0.468-0.321-0.875-0.777-0.979c-1.149-0.268-2.246-0.725-3.247-1.35c-0.396-0.25-0.913-0.191-1.243,0.143l-2.828,2.827
		l-2.37-2.37l2.828-2.828c0.333-0.33,0.392-0.846,0.142-1.242c-0.626-1.001-1.082-2.098-1.35-3.248
		c-0.104-0.455-0.511-0.778-0.979-0.776h-4v-3.351h4c0.467,0,0.873-0.322,0.979-0.777c0.268-1.149,0.724-2.247,1.35-3.247
		c0.25-0.396,0.19-0.913-0.142-1.243l-2.828-2.828l2.37-2.37l2.828,2.828c0.33,0.333,0.846,0.392,1.243,0.142
		c1.001-0.625,2.098-1.082,3.247-1.35c0.456-0.104,0.779-0.511,0.777-0.979v-3.995h3.351v3.995
		c-0.002,0.468,0.321,0.875,0.777,0.979c1.149,0.268,2.246,0.724,3.247,1.35c0.396,0.248,0.912,0.189,1.242-0.142l2.828-2.828
		l2.371,2.37l-2.828,2.828c-0.333,0.33-0.393,0.847-0.143,1.243c0.626,1,1.082,2.098,1.35,3.247
		c0.105,0.456,0.512,0.779,0.979,0.777h3.995V56.313z"/>
</g>
</svg>
