<?xml version="1.0" encoding="utf-8"?>
<!-- Generator: Adobe Illustrator 14.0.0, SVG Export Plug-In . SVG Version: 6.00 Build 43363)  -->
<!DOCTYPE svg PUBLIC "-//W3C//DTD SVG 1.1//EN" "http://www.w3.org/Graphics/SVG/1.1/DTD/svg11.dtd">
<svg version="1.1" id="depreciation" xmlns="http://www.w3.org/2000/svg" xmlns:xlink="http://www.w3.org/1999/xlink" x="0px"
	 y="0px" width="65px" height="65px" viewBox="0 0 65 65" enable-background="new 0 0 65 65" xml:space="preserve">
<g id="paid" transform="translate(0 -113.061)">
	<g id="Group_3626" transform="translate(18.037 125.681)">
		
			<linearGradient id="Path_19112_1_" gradientUnits="userSpaceOnUse" x1="33.3683" y1="-0.2977" x2="33.3683" y2="-1.2977" gradientTransform="matrix(6.324 0 0 -8.3932 -206.8625 13.1829)">
			<stop  offset="0.13" style="stop-color:#00A9ED"/>
			<stop  offset="1" style="stop-color:#65106B"/>
		</linearGradient>
		<path id="Path_19112" fill="url(#Path_19112_1_)" stroke="#000000" stroke-miterlimit="10" d="M1,24.073v-8.392h3.582
			c0.382-0.004,0.761,0.08,1.105,0.248c0.327,0.159,0.62,0.38,0.863,0.65c0.24,0.268,0.432,0.576,0.567,0.91
			c0.135,0.326,0.206,0.675,0.207,1.028c0.001,0.363-0.064,0.724-0.195,1.064c-0.126,0.333-0.311,0.641-0.544,0.91
			c-0.234,0.27-0.522,0.486-0.845,0.638c-0.344,0.161-0.72,0.241-1.1,0.235h-1.7v2.709H1z M2.938,19.674h1.584
			c0.233-0.002,0.451-0.114,0.591-0.3c0.182-0.25,0.27-0.555,0.248-0.863c0.004-0.172-0.022-0.344-0.077-0.508
			c-0.044-0.131-0.115-0.251-0.207-0.355c-0.083-0.091-0.186-0.162-0.3-0.207c-0.105-0.042-0.217-0.064-0.331-0.065H2.933
			L2.938,19.674z"/>
		
			<linearGradient id="Path_19113_1_" gradientUnits="userSpaceOnUse" x1="24.8331" y1="-0.2987" x2="24.8331" y2="-1.2987" gradientTransform="matrix(7.872 0 0 -8.393 -183.9075 13.1795)">
			<stop  offset="0.13" style="stop-color:#00A9ED"/>
			<stop  offset="1" style="stop-color:#65106B"/>
		</linearGradient>
		<path id="Path_19113" fill="url(#Path_19113_1_)" stroke="#000000" stroke-miterlimit="10" d="M10.705,15.686h1.749l3.062,8.393
			H13.53L12.88,22.2h-2.612L9.63,24.079H7.644L10.705,15.686z M12.561,20.862l-0.981-2.966l-1,2.966H12.561z"/>
		
			<linearGradient id="Path_19114_1_" gradientUnits="userSpaceOnUse" x1="131.5304" y1="-0.2987" x2="131.5304" y2="-1.2987" gradientTransform="matrix(1.939 0 0 -8.393 -237.1342 13.1717)">
			<stop  offset="0.13" style="stop-color:#00A9ED"/>
			<stop  offset="1" style="stop-color:#65106B"/>
		</linearGradient>
		<path id="Path_19114" fill="url(#Path_19114_1_)" stroke="#000000" stroke-miterlimit="10" d="M16.934,24.073v-8.392h1.939v8.392
			H16.934z"/>
		
			<linearGradient id="Path_19115_1_" gradientUnits="userSpaceOnUse" x1="27.4708" y1="-0.2933" x2="27.4708" y2="-1.2933" gradientTransform="matrix(7.3183 0 0 -8.394 -176.3146 13.2163)">
			<stop  offset="0.13" style="stop-color:#00A9ED"/>
			<stop  offset="1" style="stop-color:#65106B"/>
		</linearGradient>
		<path id="Path_19115" fill="url(#Path_19115_1_)" stroke="#000000" stroke-miterlimit="10" d="M21.07,24.073v-8.392h3.132
			c0.623-0.013,1.242,0.099,1.821,0.331c0.991,0.4,1.758,1.214,2.1,2.228c0.18,0.523,0.27,1.072,0.266,1.625
			c0.007,0.591-0.095,1.178-0.3,1.732c-0.185,0.496-0.472,0.947-0.845,1.324c-0.377,0.373-0.828,0.663-1.324,0.852
			c-0.55,0.206-1.133,0.308-1.721,0.299L21.07,24.073z M26.414,19.866c0.004-0.342-0.046-0.684-0.148-1.011
			c-0.09-0.288-0.236-0.555-0.431-0.786c-0.19-0.221-0.431-0.396-0.7-0.508c-0.296-0.122-0.613-0.182-0.934-0.177h-1.194v4.99h1.195
			c0.325,0.006,0.647-0.059,0.946-0.189c0.268-0.119,0.504-0.3,0.69-0.525c0.19-0.234,0.335-0.504,0.427-0.793
			c0.101-0.32,0.15-0.656,0.148-0.992V19.866z"/>
	</g>
	<g id="Group_3627" transform="translate(0 113.061)">
		
			<linearGradient id="Path_19116_1_" gradientUnits="userSpaceOnUse" x1="12.3569" y1="46.2246" x2="12.3569" y2="45.2246" gradientTransform="matrix(63 0 0 -33.627 -746 1570.0665)">
			<stop  offset="0.13" style="stop-color:#00A9ED"/>
			<stop  offset="1" style="stop-color:#65106B"/>
		</linearGradient>
		<path id="Path_19116" fill="url(#Path_19116_1_)" d="M64,49.313H1V15.686h63V49.313z M4.9,45.413h55.2v-25.83H4.9V45.413z"/>
	</g>
</g>
</svg>
