<?xml version="1.0" encoding="utf-8"?>
<!-- Generator: Adobe Illustrator 16.0.0, SVG Export Plug-In . SVG Version: 6.00 Build 0)  -->
<!DOCTYPE svg PUBLIC "-//W3C//DTD SVG 1.1//EN" "http://www.w3.org/Graphics/SVG/1.1/DTD/svg11.dtd">
<svg version="1.1" id="Layer_1" xmlns="http://www.w3.org/2000/svg" xmlns:xlink="http://www.w3.org/1999/xlink" x="0px" y="0px"
	 width="62.902px" height="62.902px" viewBox="0 0 62.902 62.902" enable-background="new 0 0 62.902 62.902" xml:space="preserve">
<g id="Group_2683" transform="translate(-630 -7953)">
	<g id="decentralized" transform="translate(630 7953)">
		
			<linearGradient id="Path_17881_1_" gradientUnits="userSpaceOnUse" x1="-244.9597" y1="404.71" x2="-244.9597" y2="403.71" gradientTransform="matrix(9.2918 0 0 -16.7371 2307.5686 6773.6426)">
			<stop  offset="0" style="stop-color:#00A9E0"/>
			<stop  offset="1" style="stop-color:#801C7D"/>
		</linearGradient>
		<path id="Path_17881" fill="url(#Path_17881_1_)" d="M30.53,9.2v6.617c0,0.509,0.412,0.921,0.922,0.921
			c0.509,0,0.921-0.412,0.921-0.921V9.2c2.515-0.509,4.141-2.96,3.632-5.475c-0.51-2.514-2.96-4.14-5.475-3.631
			s-4.14,2.96-3.631,5.475C27.269,7.399,28.7,8.83,30.53,9.2z M31.451,1.847c1.547,0,2.8,1.253,2.8,2.8c0,1.546-1.253,2.8-2.8,2.8
			c-1.546,0-2.8-1.254-2.8-2.8c-0.002-1.547,1.25-2.802,2.797-2.804c0.001,0,0.003,0,0.004,0L31.451,1.847z"/>
		
			<linearGradient id="Path_17882_1_" gradientUnits="userSpaceOnUse" x1="-254.5945" y1="400.1807" x2="-254.5945" y2="399.1807" gradientTransform="matrix(14.0152 0 0 -14.0078 3616.7607 5647.1714)">
			<stop  offset="0" style="stop-color:#00A9E0"/>
			<stop  offset="1" style="stop-color:#801C7D"/>
		</linearGradient>
		<path id="Path_17882" fill="url(#Path_17882_1_)" d="M49.178,42.796c-1.375-0.001-2.713,0.443-3.813,1.268l-2.206-2.206
			c-0.337-0.382-0.919-0.418-1.3-0.081s-0.417,0.919-0.081,1.3c0.025,0.028,0.053,0.056,0.081,0.081l2.206,2.206
			c-2.104,2.826-1.519,6.823,1.308,8.928c2.826,2.104,6.823,1.519,8.927-1.308c2.104-2.826,1.52-6.823-1.307-8.928
			c-1.103-0.82-2.439-1.263-3.813-1.263L49.178,42.796z M49.178,53.717c-2.507,0-4.539-2.032-4.539-4.539s2.032-4.539,4.539-4.539
			s4.538,2.032,4.538,4.539C53.715,51.684,51.683,53.715,49.178,53.717z"/>
		
			<linearGradient id="Path_17883_1_" gradientUnits="userSpaceOnUse" x1="-254.4851" y1="400.0195" x2="-254.4851" y2="399.0205" gradientTransform="matrix(13.9346 0 0 -13.9272 3560.4614 5578.4956)">
			<stop  offset="0" style="stop-color:#00A9E0"/>
			<stop  offset="1" style="stop-color:#801C7D"/>
		</linearGradient>
		<path id="Path_17883" fill="url(#Path_17883_1_)" d="M13.725,20.107c1.374,0.001,2.712-0.443,3.812-1.268l2.206,2.206
			c0.381,0.337,0.963,0.301,1.3-0.08c0.308-0.349,0.308-0.871,0-1.22l-2.206-2.206c2.104-2.826,1.52-6.823-1.307-8.928
			c-2.827-2.104-6.823-1.519-8.928,1.308s-1.519,6.823,1.308,8.928c1.102,0.82,2.438,1.263,3.813,1.263L13.725,20.107z
			 M13.725,9.187c2.507,0,4.539,2.032,4.539,4.539s-2.032,4.539-4.539,4.539s-4.539-2.032-4.539-4.539
			C9.189,11.22,11.219,9.188,13.725,9.187z"/>
		
			<linearGradient id="Path_17884_1_" gradientUnits="userSpaceOnUse" x1="-244.9597" y1="404.71" x2="-244.9597" y2="403.709" gradientTransform="matrix(9.2918 0 0 -16.7371 2307.5686 6819.8145)">
			<stop  offset="0" style="stop-color:#00A9E0"/>
			<stop  offset="1" style="stop-color:#801C7D"/>
		</linearGradient>
		<path id="Path_17884" fill="url(#Path_17884_1_)" d="M32.373,53.706v-6.619c0-0.509-0.412-0.921-0.921-0.921
			c-0.51,0-0.922,0.412-0.922,0.921v6.617c-2.515,0.509-4.14,2.96-3.631,5.475c0.509,2.514,2.959,4.14,5.474,3.631
			s4.141-2.96,3.632-5.475c-0.371-1.83-1.802-3.261-3.632-3.631V53.706z M31.452,61.061c-1.546,0-2.8-1.254-2.8-2.801
			c0-1.546,1.254-2.8,2.8-2.8c1.547,0,2.8,1.254,2.8,2.8l0,0C34.252,59.807,32.999,61.061,31.452,61.061z"/>
		
			<linearGradient id="Path_17885_1_" gradientUnits="userSpaceOnUse" x1="-257.677" y1="386.0811" x2="-257.677" y2="385.082" gradientTransform="matrix(16.7372 0 0 -9.2909 4367.3232 3613.8618)">
			<stop  offset="0" style="stop-color:#00A9E0"/>
			<stop  offset="1" style="stop-color:#801C7D"/>
		</linearGradient>
		<path id="Path_17885" fill="url(#Path_17885_1_)" d="M58.258,26.813c-2.208,0.003-4.11,1.559-4.552,3.723h-6.619
			c-0.509,0-0.921,0.413-0.921,0.922s0.412,0.921,0.921,0.921h6.617c0.509,2.515,2.96,4.141,5.474,3.632
			c2.515-0.509,4.141-2.959,3.632-5.474c-0.438-2.167-2.343-3.725-4.554-3.724H58.258z M58.258,34.258c-1.546,0-2.8-1.253-2.8-2.8
			c0-1.546,1.254-2.8,2.8-2.8c1.547,0,2.801,1.254,2.801,2.8l0,0c-0.003,1.545-1.256,2.795-2.801,2.795V34.258z"/>
		
			<linearGradient id="Path_17886_1_" gradientUnits="userSpaceOnUse" x1="-257.6765" y1="386.085" x2="-257.6765" y2="385.0859" gradientTransform="matrix(16.7371 0 0 -9.2918 4321.123 3614.2422)">
			<stop  offset="0" style="stop-color:#00A9E0"/>
			<stop  offset="1" style="stop-color:#801C7D"/>
		</linearGradient>
		<path id="Path_17886" fill="url(#Path_17886_1_)" d="M9.2,32.373h6.617c0.509,0,0.921-0.412,0.921-0.921
			c0-0.51-0.412-0.922-0.921-0.922H9.2c-0.509-2.515-2.96-4.141-5.475-3.631c-2.514,0.509-4.14,2.959-3.631,5.474
			s2.96,4.141,5.475,3.631C7.399,35.634,8.83,34.203,9.2,32.373z M4.648,34.253c-1.547,0-2.8-1.253-2.8-2.8
			c0-1.546,1.253-2.8,2.8-2.8c1.546,0,2.8,1.254,2.8,2.8C7.448,33,6.194,34.253,4.648,34.253c-0.001,0-0.002,0-0.003,0H4.648z"/>
		
			<linearGradient id="Path_17887_1_" gradientUnits="userSpaceOnUse" x1="-254.5525" y1="400.1406" x2="-254.5525" y2="399.1406" gradientTransform="matrix(13.9835 0 0 -13.9873 3608.103 5604.2227)">
			<stop  offset="0" style="stop-color:#00A9E0"/>
			<stop  offset="1" style="stop-color:#801C7D"/>
		</linearGradient>
		<path id="Path_17887" fill="url(#Path_17887_1_)" d="M42.509,21.316c0.245,0,0.479-0.097,0.652-0.271l2.206-2.206
			c2.828,2.11,6.83,1.528,8.94-1.3c2.109-2.827,1.527-6.83-1.301-8.939c-2.827-2.11-6.83-1.528-8.939,1.3
			c-1.69,2.266-1.69,5.374,0,7.64l-2.206,2.206c-0.359,0.36-0.358,0.944,0.002,1.304c0.173,0.173,0.406,0.27,0.65,0.27
			L42.509,21.316z M49.178,9.187c2.507,0,4.538,2.032,4.538,4.539s-2.031,4.539-4.538,4.539s-4.539-2.032-4.539-4.539l0,0
			C44.641,11.22,46.673,9.189,49.178,9.187z"/>
		
			<linearGradient id="Path_17888_1_" gradientUnits="userSpaceOnUse" x1="-254.4988" y1="400.0557" x2="-254.4988" y2="399.0557" gradientTransform="matrix(13.9451 0 0 -13.9451 3563.3147 5620.4351)">
			<stop  offset="0" style="stop-color:#00A9E0"/>
			<stop  offset="1" style="stop-color:#801C7D"/>
		</linearGradient>
		<path id="Path_17888" fill="url(#Path_17888_1_)" d="M19.743,41.857l-2.206,2.206c-2.827-2.11-6.83-1.528-8.939,1.3
			c-2.11,2.827-1.528,6.83,1.3,8.939c2.827,2.11,6.83,1.528,8.939-1.3c1.691-2.266,1.691-5.374,0-7.64l2.206-2.206
			c0.337-0.381,0.301-0.963-0.08-1.3C20.614,41.55,20.092,41.55,19.743,41.857z M13.725,53.717c-2.507,0-4.539-2.032-4.539-4.539
			s2.032-4.539,4.539-4.539s4.539,2.032,4.539,4.539C18.261,51.684,16.23,53.715,13.725,53.717z"/>
	</g>
	
		<linearGradient id="Path_17889_1_" gradientUnits="userSpaceOnUse" x1="373.5208" y1="8355.9541" x2="373.5208" y2="8354.9541" gradientTransform="matrix(15.562 0 0 -15.562 -5151.2441 138012.0781)">
		<stop  offset="0" style="stop-color:#00A9E0"/>
		<stop  offset="1" style="stop-color:#801C7D"/>
	</linearGradient>
	<path id="Path_17889" fill="url(#Path_17889_1_)" d="M661.492,7992.274c1.741,0,4.648-1.545,4.648-1.545l1.589-1.585
		c0,0,1.545-2.907,1.545-4.648c0-4.298-3.483-7.781-7.781-7.781c-4.297,0-7.781,3.483-7.781,7.781c0,4.297,3.483,7.78,7.78,7.781
		V7992.274z M661.492,7978.958c3.057,0,5.535,2.479,5.535,5.535s-2.479,5.535-5.535,5.535s-5.535-2.479-5.535-5.535l0,0
		C655.961,7981.438,658.436,7978.961,661.492,7978.958z"/>
</g>
</svg>
