<?xml version="1.0" encoding="utf-8"?>
<!-- Generator: Adobe Illustrator 16.0.0, SVG Export Plug-In . SVG Version: 6.00 Build 0)  -->
<!DOCTYPE svg PUBLIC "-//W3C//DTD SVG 1.1//EN" "http://www.w3.org/Graphics/SVG/1.1/DTD/svg11.dtd">
<svg version="1.1" id="Layer_1" xmlns="http://www.w3.org/2000/svg" xmlns:xlink="http://www.w3.org/1999/xlink" x="0px" y="0px"
	 width="63px" height="59.826px" viewBox="0 0 63 59.826" enable-background="new 0 0 63 59.826" xml:space="preserve">
<g id="operation" transform="translate(-19.126 -31.002)">
	
		<linearGradient id="Path_18099_1_" gradientUnits="userSpaceOnUse" x1="-246.6518" y1="449.9971" x2="-246.6518" y2="448.9971" gradientTransform="matrix(34.3941 0 0 -52.642 8519.7217 23719.7129)">
		<stop  offset="0" style="stop-color:#00A9E0"/>
		<stop  offset="1" style="stop-color:#801C7D"/>
	</linearGradient>
	<path id="Path_18099" fill="url(#Path_18099_1_)" d="M45.425,83.642c0.516,0.001,0.936-0.415,0.939-0.931v-4.248h0.725
		c1.571-0.005,3.061-0.7,4.075-1.899c0.335-0.563,0.603-1.162,0.8-1.785c0.168-0.486-0.09-1.017-0.576-1.185
		c-0.098-0.033-0.199-0.051-0.303-0.051H39.756c-0.514,0.001-0.931,0.418-0.93,0.933c0,0.103,0.017,0.205,0.051,0.303
		c0.197,0.623,0.465,1.223,0.8,1.785c1.015,1.199,2.505,1.895,4.076,1.899H44.5v3.3c-13.498-0.525-24.015-11.894-23.489-25.392
		C21.508,43.589,31.77,33.35,44.553,32.88l-0.018,5.167h-1.023c-1.869,0-3.646,0.812-4.868,2.225
		c-0.401,0.667-0.726,1.377-0.965,2.117c-0.171,0.485,0.083,1.017,0.568,1.188c0.099,0.035,0.204,0.053,0.309,0.053h14.044
		c0.514,0,0.93-0.417,0.93-0.932c0-0.105-0.018-0.21-0.053-0.31c-0.24-0.74-0.564-1.45-0.965-2.117
		c-1.224-1.413-3-2.225-4.869-2.225H46.4l0.018-6.112c0.002-0.514-0.413-0.933-0.927-0.935c-0.001,0-0.003,0-0.004,0
		c-14.536-0.017-26.333,11.753-26.351,26.289C19.119,71.825,30.889,83.623,45.425,83.64V83.642z M41.17,75.448
		c-0.008-0.012-0.016-0.043-0.027-0.043H49.7c-0.009,0-0.016,0.029-0.023,0.039c-0.664,0.729-1.603,1.15-2.59,1.158h-3.331
		C42.771,76.595,41.834,76.176,41.17,75.448L41.17,75.448z M51.035,41.405c0.043,0.058,0.11,0.232,0.19,0.365H39.93
		c0.08-0.133,0.148-0.307,0.191-0.364c0.87-0.954,2.101-1.498,3.392-1.5h4.13C48.934,39.908,50.164,40.452,51.035,41.405
		L51.035,41.405z"/>
	
		<linearGradient id="Path_18100_1_" gradientUnits="userSpaceOnUse" x1="-249.5249" y1="445.1758" x2="-249.5249" y2="444.1758" gradientTransform="matrix(54.7731 0 0 -31.91 13722.0127 14264.4834)">
		<stop  offset="0" style="stop-color:#00A9E0"/>
		<stop  offset="1" style="stop-color:#801C7D"/>
	</linearGradient>
	<path id="Path_18100" fill="url(#Path_18100_1_)" d="M40.253,59.851c-0.008-0.517-0.43-0.932-0.947-0.931h-9.577
		c-0.506,0.001-0.915,0.412-0.914,0.918c0,0.004,0,0.009,0,0.013v3.324h-0.549c-0.506,0.001-0.916,0.412-0.914,0.918
		c0,0.004,0,0.009,0,0.014v3.19c-0.008,0.507,0.396,0.923,0.903,0.931c0.004,0,0.007,0,0.011,0H58.86v17.549h-3.873
		c-0.506,0.002-0.914,0.412-0.914,0.918c0,0.005,0,0.01,0,0.014v3.191c-0.007,0.506,0.397,0.923,0.904,0.931c0.003,0,0.007,0,0.01,0
		h26.191c0.517,0.001,0.938-0.414,0.946-0.931v-3.191c-0.008-0.518-0.43-0.932-0.946-0.932h-3.84V68.226h3.84
		c0.517,0.002,0.938-0.414,0.946-0.931v-3.19c-0.008-0.518-0.43-0.933-0.946-0.932H40.253V59.851z M30.681,60.782h7.711v2.393
		h-7.716L30.681,60.782z M80.271,88.967H55.937v-1.329h24.328L80.271,88.967z M75.483,85.776H60.722V68.226H75.48L75.483,85.776z
		 M80.271,66.366H29.213v-1.329h51.052L80.271,66.366z"/>
</g>
</svg>
