<?xml version="1.0" encoding="utf-8"?>
<!-- Generator: Adobe Illustrator 16.0.0, SVG Export Plug-In . SVG Version: 6.00 Build 0)  -->
<!DOCTYPE svg PUBLIC "-//W3C//DTD SVG 1.1//EN" "http://www.w3.org/Graphics/SVG/1.1/DTD/svg11.dtd">
<svg version="1.1" id="Layer_1" xmlns="http://www.w3.org/2000/svg" xmlns:xlink="http://www.w3.org/1999/xlink" x="0px" y="0px"
	 width="56.699px" height="63px" viewBox="0 0 56.699 63" enable-background="new 0 0 56.699 63" xml:space="preserve">
<g id="terrorist" transform="translate(-25.607)">
	<g id="Group_1964" transform="translate(45.371 15.125)">
		<g id="Group_1963">
			
				<linearGradient id="Path_16747_1_" gradientUnits="userSpaceOnUse" x1="-220.6248" y1="202.1724" x2="-220.6248" y2="201.1724" gradientTransform="matrix(3.546 0 0 -1.846 784.1433 373.2114)">
				<stop  offset="0" style="stop-color:#00A9E0"/>
				<stop  offset="1" style="stop-color:#801C7D"/>
			</linearGradient>
			<path id="Path_16747" fill="url(#Path_16747_1_)" d="M2.626,0h-1.7C0.417,0.017,0.017,0.443,0.034,0.953
				C0.05,1.439,0.44,1.829,0.926,1.845h1.7c0.509,0.017,0.936-0.383,0.953-0.892C3.596,0.443,3.196,0.017,2.687,0
				C2.667,0,2.646,0,2.626,0z"/>
		</g>
	</g>
	<g id="Group_1966" transform="translate(55.118 15.125)">
		<g id="Group_1965">
			
				<linearGradient id="Path_16748_1_" gradientUnits="userSpaceOnUse" x1="-230.3719" y1="202.1724" x2="-230.3719" y2="201.1724" gradientTransform="matrix(3.5461 0 0 -1.846 818.6586 373.2114)">
				<stop  offset="0" style="stop-color:#00A9E0"/>
				<stop  offset="1" style="stop-color:#801C7D"/>
			</linearGradient>
			<path id="Path_16748" fill="url(#Path_16748_1_)" d="M2.626,0H0.926C0.417-0.017-0.01,0.383-0.027,0.892
				c-0.018,0.509,0.383,0.936,0.893,0.953c0.02,0,0.04,0,0.061,0h1.699c0.51-0.017,0.909-0.444,0.893-0.953
				C3.503,0.406,3.112,0.016,2.626,0z"/>
		</g>
	</g>
	<g id="Group_1968" transform="translate(41.819 11.814)">
		<g id="Group_1967">
			
				<linearGradient id="Path_16749_1_" gradientUnits="userSpaceOnUse" x1="-279.6935" y1="370.2597" x2="-279.6935" y2="369.2597" gradientTransform="matrix(20.4076 0 0 -8.469 5718.064 3135.7158)">
				<stop  offset="0" style="stop-color:#00A9E0"/>
				<stop  offset="1" style="stop-color:#801C7D"/>
			</linearGradient>
			<path id="Path_16749" fill="url(#Path_16749_1_)" d="M16.524,0H3.875c-2.14-0.003-3.877,1.729-3.88,3.87
				C-0.008,5.772,1.371,7.395,3.249,7.7l2.664,0.436c2.615,0.429,5.281,0.443,7.9,0.044l3.324-0.506l0,0
				c1.883-0.277,3.275-1.897,3.264-3.8C20.399,1.734,18.664,0,16.524,0z M16.858,5.848l-3.325,0.506
				c-2.428,0.37-4.898,0.356-7.321-0.041L3.548,5.877C2.442,5.698,1.69,4.657,1.869,3.55c0.159-0.984,1.01-1.707,2.007-1.705h12.648
				c1.121,0.001,2.027,0.909,2.029,2.029C18.559,4.863,17.836,5.704,16.858,5.848z"/>
		</g>
	</g>
	<g id="Group_1970" transform="translate(25.607)">
		<g id="Group_1969" transform="translate(0)">
			
				<linearGradient id="Path_16750_1_" gradientUnits="userSpaceOnUse" x1="-271.9107" y1="421.8306" x2="-271.9107" y2="420.8306" gradientTransform="matrix(56.6992 0 0 -63.0304 15445.4756 26588.0332)">
				<stop  offset="0" style="stop-color:#00A9E0"/>
				<stop  offset="1" style="stop-color:#801C7D"/>
			</linearGradient>
			<path id="Path_16750" fill="url(#Path_16750_1_)" d="M56.115,28.532L56.115,28.532l-2.191-1.9
				c-0.685-0.592-1.713-0.544-2.34,0.11c-1.24,1.299-2.602,2.478-4.063,3.521V28.83c-0.001-1.337-0.475-2.63-1.336-3.652
				c-0.553-0.672-0.852-1.519-0.84-2.389v-9.047c-0.018-0.51-0.443-0.909-0.953-0.893c-0.486,0.016-0.877,0.406-0.893,0.893v2.732
				h-0.913V4.765h0.706c0.111,0,0.202,0.088,0.205,0.2V9.4c-0.017,0.51,0.383,0.936,0.893,0.953
				c0.509,0.017,0.936-0.383,0.952-0.892c0.001-0.021,0.001-0.041,0-0.061V4.97c-0.001-1.049-0.793-1.928-1.836-2.039l0,0V0.923
				c0.017-0.509-0.382-0.936-0.892-0.953c-0.51-0.017-0.937,0.382-0.953,0.892c-0.001,0.02-0.001,0.041,0,0.061v2
				c-0.51,0-0.924,0.414-0.924,0.923v12.927c-0.385,0.284-0.613,0.735-0.613,1.214v13.541c-0.88-0.429-1.818-0.824-2.684-1.188
				c-0.633-0.267-1.246-0.524-1.772-0.769c2.731-3.49,4.134-7.861,4.134-10v-6.318c0.037-3.646-1.516-7.126-4.255-9.533
				c-2.519-2.23-5.761-3.471-9.126-3.493h-0.021c-3.364,0.021-6.606,1.263-9.125,3.493c-2.74,2.406-4.295,5.887-4.258,9.533v6.317
				c0,2.14,1.4,6.51,4.134,10c-0.527,0.244-1.139,0.5-1.771,0.768c-2.267,0.954-4.837,2.036-5.948,3.491
				c-1.003,1.391-1.257,3.185-0.681,4.799l-0.266,0.049C8.455,38.683,8.423,38.69,8.393,38.7C3.417,40.167,0.001,44.733,0,49.92
				v1.164c-0.017,0.51,0.383,0.936,0.892,0.953c0.509,0.016,0.936-0.383,0.953-0.893c0-0.021,0-0.041,0-0.061v-1.16
				c0-4.352,2.856-8.188,7.025-9.437l1-0.185c0.651,0.557,1.368,1.033,2.134,1.416l0.025,0.014l0.221,0.115l0.147,0.074l0.241,0.119
				l0.262,0.127l0.122,0.058c0.126,0.06,0.253,0.118,0.384,0.177c8.269,3.734,17.745,3.734,26.013,0l0.339-0.156l0.08-0.037
				l0.248-0.119l0.041-0.021v2.675c0.001,0.969,0.67,1.811,1.613,2.03l1.919,14.379H9.386V54.59
				c0.017-0.509-0.383-0.936-0.893-0.952c-0.509-0.017-0.936,0.383-0.953,0.892c0,0.021,0,0.041,0,0.061v6.564H2.346
				c-0.276,0-0.5-0.224-0.5-0.5v-5.218c0.017-0.509-0.383-0.937-0.892-0.952c-0.51-0.018-0.937,0.382-0.953,0.891
				c0,0.021,0,0.041,0,0.062v5.218C0.003,61.95,1.052,62.999,2.346,63h48.13l-3.879-1.051L50.477,63
				c1.295-0.002,2.345-1.051,2.346-2.347V49.924c0.002-1.117-0.158-2.229-0.475-3.299c0.586-0.092,1.075-0.497,1.272-1.057
				l0.571-1.623c0.296-0.838-0.145-1.758-0.983-2.053L50.684,41c0.07-0.24,0.105-0.488,0.106-0.738V36.98
				c0-0.396-0.089-0.787-0.261-1.144c2.072-1.407,3.984-3.035,5.705-4.854c0.645-0.683,0.613-1.759-0.068-2.403
				C56.148,28.563,56.133,28.548,56.115,28.532L56.115,28.532z M14.864,19.571v-6.318c-0.037-3.108,1.284-6.079,3.616-8.134
				c4.508-4.062,11.356-4.062,15.863,0c2.333,2.055,3.653,5.025,3.616,8.134v6.317c-0.336,2.819-1.363,5.51-2.991,7.835
				c-0.431,0.646-0.905,1.261-1.421,1.842l0,0c-0.518,0.583-1.086,1.119-1.699,1.6c-0.013,0.009-0.023,0.02-0.035,0.03
				c-3.132,2.58-7.653,2.58-10.786,0c-0.012-0.011-0.024-0.022-0.036-0.032c-0.614-0.481-1.183-1.017-1.7-1.6l-0.007-0.007
				c-0.515-0.579-0.989-1.194-1.418-1.839C16.235,25.077,15.204,22.388,14.864,19.571z M32.91,37.979
				c-1.798,1.363-3.979,2.125-6.235,2.176c-0.059,0-0.118,0-0.177,0h-0.174c-0.059,0-0.118,0-0.176,0
				c-2.255-0.051-4.438-0.813-6.235-2.176c0.886-0.8,1.402-1.93,1.427-3.124v-1.556c3.136,1.82,7.007,1.82,10.143,0v1.557
				C31.508,36.049,32.023,37.179,32.91,37.979z M38.659,40.723c-7.786,3.516-16.708,3.516-24.493,0l-0.225-0.1l-0.06-0.029
				l-0.165-0.076l-0.054-0.025c-0.144-0.067-0.28-0.135-0.41-0.201l-0.019-0.008l-0.177-0.091l-0.023-0.012
				c-0.192-0.1-0.369-0.195-0.531-0.287l0,0c-0.164-0.093-0.313-0.183-0.45-0.267l-0.01-0.006l-0.117-0.074l-0.017-0.012
				l-0.117-0.076l0,0l-0.1-0.07l-0.047-0.033L11.6,39.325l-0.06-0.043l-0.015-0.011c-0.235-0.166-0.453-0.356-0.649-0.567
				l-0.016-0.017c-0.07-0.077-0.131-0.163-0.182-0.254c-0.575-1.11-0.486-2.448,0.229-3.474c0.814-1.064,3.245-2.088,5.2-2.91
				c0.839-0.354,1.644-0.692,2.309-1.024c0.346,0.354,0.71,0.689,1.09,1.007v2.831c0.012,0.906-0.547,1.722-1.397,2.037
				c-0.5,0.101-0.823,0.587-0.723,1.087c0.037,0.184,0.128,0.352,0.263,0.48c2.273,2.201,5.293,3.462,8.456,3.533
				c0.076,0,0.153,0,0.229,0h0.159c0.076,0,0.153,0,0.23,0c3.164-0.072,6.183-1.336,8.455-3.537
				c0.367-0.355,0.376-0.939,0.021-1.306c-0.131-0.134-0.298-0.226-0.481-0.263c-0.847-0.32-1.401-1.137-1.386-2.041v-2.831
				c0.38-0.317,0.744-0.652,1.09-1.006c0.665,0.332,1.469,0.671,2.309,1.024c1.123,0.473,2.375,1,3.399,1.563V40l0,0
				C39.693,40.233,39.203,40.476,38.659,40.723L38.659,40.723z M47.521,37.649c0.477-0.254,0.947-0.52,1.412-0.8
				c0.007,0.042,0.011,0.083,0.012,0.126v3.283c0,0.04-0.004,0.08-0.01,0.121l-1.414-0.5V37.649L47.521,37.649z M42.211,44.985
				c-0.131,0-0.238-0.106-0.238-0.238V18.32H43.5v4.47c-0.01,1.307,0.441,2.574,1.275,3.58c0.582,0.688,0.9,1.56,0.9,2.461v16.154
				H42.211L42.211,44.985z M45.926,46.831l3.124,9.75l-4,1.071l-1.44-10.821H45.926z M45.516,61.118L45.3,59.497l4.313-1.156
				l0.5,1.545L45.516,61.118z M47.521,45.764v-0.639l2.668,0.939c0.522,1.221,0.791,2.535,0.789,3.861v6.623L47.521,45.764z
				 M52.374,43.553l-0.415,1.178l-4.436-1.563v-1.326L52.374,43.553z M47.521,35.543v-3.051c1.929-1.252,3.707-2.72,5.301-4.376
				l1.967,1.708c-2.137,2.244-4.584,4.168-7.268,5.717V35.543z"/>
		</g>
	</g>
</g>
</svg>
