<?xml version="1.0" encoding="utf-8"?>
<!-- Generator: Adobe Illustrator 16.0.0, SVG Export Plug-In . SVG Version: 6.00 Build 0)  -->
<!DOCTYPE svg PUBLIC "-//W3C//DTD SVG 1.1//EN" "http://www.w3.org/Graphics/SVG/1.1/DTD/svg11.dtd">
<svg version="1.1" id="Layer_1" xmlns="http://www.w3.org/2000/svg" xmlns:xlink="http://www.w3.org/1999/xlink" x="0px" y="0px"
	 width="63px" height="59.592px" viewBox="0 0 63 59.592" enable-background="new 0 0 63 59.592" xml:space="preserve">
<g id="networking" transform="translate(0 -13.847)">
	<g id="Group_2146" transform="translate(19.507 49.453)">
		<g id="Group_2145">
			
				<linearGradient id="Path_17271_1_" gradientUnits="userSpaceOnUse" x1="-281.9254" y1="374.3637" x2="-281.9254" y2="373.4028" gradientTransform="matrix(23.9881 0 0 -23.9861 6775.0781 8980.4385)">
				<stop  offset="0.13" style="stop-color:#00A9ED"/>
				<stop  offset="1" style="stop-color:#65106B"/>
			</linearGradient>
			<path id="Path_17271" fill="url(#Path_17271_1_)" d="M12.203,0.921C5.836,0.917,0.673,6.077,0.67,12.444
				c-0.002,3.482,1.571,6.778,4.278,8.968c0.05,0.047,0.103,0.091,0.161,0.128c4.167,3.263,10.021,3.263,14.188,0
				c0.057-0.037,0.11-0.081,0.16-0.128c4.951-4.004,5.717-11.262,1.714-16.212C18.983,2.492,15.685,0.919,12.203,0.921L12.203,0.921
				z M12.203,21.62c-1.802,0.002-3.564-0.531-5.063-1.53c1.159-2.796,4.366-4.123,7.163-2.964c1.341,0.557,2.407,1.622,2.964,2.964
				C15.767,21.088,14.005,21.622,12.203,21.62z M10.118,12.454c0-1.041,0.844-1.884,1.885-1.884s1.885,0.843,1.885,1.884
				s-0.844,1.886-1.885,1.886l0,0C10.963,14.336,10.12,13.494,10.118,12.454L10.118,12.454z M19.118,18.459
				c-0.821-1.532-2.134-2.745-3.725-3.444c1.416-1.873,1.047-4.538-0.826-5.955c-1.872-1.417-4.539-1.047-5.955,0.826
				c-1.187,1.569-1.142,3.746,0.107,5.266c-1.463,0.716-2.664,1.873-3.433,3.308C1.964,14.64,2.367,8.851,6.186,5.529
				c3.819-3.322,9.609-2.921,12.932,0.899C22.118,9.876,22.118,15.01,19.118,18.459L19.118,18.459z"/>
		</g>
	</g>
	<g id="Group_2148" transform="translate(0 13.847)">
		<g id="Group_2147">
			
				<linearGradient id="Path_17272_1_" gradientUnits="userSpaceOnUse" x1="-262.3867" y1="409.9141" x2="-262.3867" y2="408.9531" gradientTransform="matrix(23.9861 0 0 -23.9861 6306.603 9834.5039)">
				<stop  offset="0.13" style="stop-color:#00A9ED"/>
				<stop  offset="1" style="stop-color:#65106B"/>
			</linearGradient>
			<path id="Path_17272" fill="url(#Path_17272_1_)" d="M12.952,2.289C6.585,2.286,1.422,7.444,1.419,13.811
				c-0.001,3.482,1.571,6.778,4.279,8.968c0.049,0.047,0.103,0.09,0.16,0.128c4.167,3.262,10.021,3.262,14.188,0
				c0.057-0.038,0.11-0.081,0.159-0.128c4.951-4.004,5.718-11.262,1.714-16.212C19.729,3.859,16.433,2.287,12.952,2.289
				L12.952,2.289z M12.952,22.988c-1.802,0.002-3.564-0.531-5.063-1.53c1.159-2.796,4.366-4.124,7.162-2.964
				c1.342,0.556,2.408,1.622,2.964,2.964C16.516,22.458,14.754,22.99,12.952,22.988z M10.867,13.821
				c-0.001-1.042,0.843-1.886,1.885-1.887c1.042-0.001,1.886,0.843,1.887,1.885s-0.843,1.886-1.885,1.887c0,0-0.001,0-0.001,0
				C11.712,15.705,10.869,14.862,10.867,13.821z M19.867,19.827c-0.821-1.533-2.131-2.748-3.723-3.448
				c1.416-1.873,1.045-4.539-0.828-5.955c-1.873-1.417-4.539-1.046-5.955,0.827c-1.186,1.569-1.141,3.746,0.108,5.264
				c-1.463,0.716-2.664,1.873-3.433,3.308c-3.323-3.819-2.92-9.608,0.899-12.932c3.819-3.322,9.608-2.92,12.931,0.9
				c3.001,3.449,3.001,8.583,0,12.032V19.827z"/>
		</g>
	</g>
	<g id="Group_2150" transform="translate(39.014 13.847)">
		<g id="Group_2149">
			
				<linearGradient id="Path_17273_1_" gradientUnits="userSpaceOnUse" x1="-301.4642" y1="409.9131" x2="-301.4642" y2="408.9521" gradientTransform="matrix(23.9861 0 0 -23.9861 7242.3975 9834.5039)">
				<stop  offset="0.13" style="stop-color:#00A9ED"/>
				<stop  offset="1" style="stop-color:#65106B"/>
			</linearGradient>
			<path id="Path_17273" fill="url(#Path_17273_1_)" d="M11.454,2.289C5.088,2.286-0.076,7.445-0.078,13.812
				c-0.001,3.482,1.571,6.778,4.278,8.968c0.05,0.047,0.103,0.09,0.16,0.128c4.166,3.262,10.021,3.262,14.188,0
				c0.056-0.038,0.11-0.081,0.159-0.128c4.951-4.004,5.717-11.262,1.715-16.212C18.232,3.859,14.936,2.287,11.454,2.289
				L11.454,2.289z M11.454,22.987c-1.803,0.002-3.564-0.531-5.063-1.53c1.158-2.796,4.365-4.124,7.162-2.964
				c1.342,0.556,2.407,1.623,2.965,2.964C15.017,22.457,13.256,22.989,11.454,22.987z M9.369,13.821
				c0-1.041,0.844-1.885,1.885-1.885c1.04,0,1.886,0.844,1.886,1.885c0,1.041-0.844,1.884-1.885,1.885
				C10.214,15.705,9.371,14.862,9.369,13.821z M18.369,19.827c-0.822-1.532-2.133-2.745-3.725-3.444
				c1.416-1.873,1.046-4.539-0.826-5.956c-1.872-1.416-4.538-1.046-5.955,0.827C6.676,12.822,6.721,15,7.97,16.519
				c-1.463,0.716-2.663,1.873-3.434,3.308c-3.322-3.819-2.919-9.609,0.9-12.932c3.819-3.322,9.608-2.919,12.932,0.9
				C21.369,11.244,21.369,16.378,18.369,19.827z"/>
		</g>
	</g>
	<g id="Group_2152" transform="translate(15.307 55.574)">
		<g id="Group_2151">
			
				<linearGradient id="Path_17274_1_" gradientUnits="userSpaceOnUse" x1="-181.226" y1="226.3911" x2="-181.226" y2="225.4302" gradientTransform="matrix(2.4761 0 0 -2.4741 450.7552 560.8025)">
				<stop  offset="0.13" style="stop-color:#00A9ED"/>
				<stop  offset="1" style="stop-color:#65106B"/>
			</linearGradient>
			<path id="Path_17274" fill="url(#Path_17274_1_)" d="M2.794,0.979L2.779,0.966C2.282,0.542,1.536,0.599,1.11,1.096
				C0.686,1.592,0.744,2.339,1.24,2.764l0.014,0.013c0.497,0.425,1.244,0.366,1.668-0.13C3.348,2.15,3.29,1.403,2.794,0.979z"/>
		</g>
	</g>
	<g id="Group_2154" transform="translate(12.762 52.956)">
		<g id="Group_2153">
			
				<linearGradient id="Path_17275_1_" gradientUnits="userSpaceOnUse" x1="-178.4021" y1="228.7133" x2="-178.4021" y2="227.7513" gradientTransform="matrix(2.4706 0 0 -2.4701 442.872 565.7327)">
				<stop  offset="0.13" style="stop-color:#00A9ED"/>
				<stop  offset="1" style="stop-color:#65106B"/>
			</linearGradient>
			<path id="Path_17275" fill="url(#Path_17275_1_)" d="M3.026,1.224L3.011,1.205c-0.421-0.5-1.167-0.564-1.667-0.144
				C0.844,1.483,0.78,2.229,1.2,2.729l0,0c0.417,0.504,1.163,0.576,1.667,0.16c0.505-0.416,0.576-1.163,0.16-1.667L3.026,1.224z"/>
		</g>
	</g>
	<g id="Group_2156" transform="translate(10.65 49.968)">
		<g id="Group_2155">
			
				<linearGradient id="Path_17276_1_" gradientUnits="userSpaceOnUse" x1="-176.1212" y1="231.7765" x2="-176.1212" y2="230.8155" gradientTransform="matrix(2.4675 0 0 -2.472 436.7808 573.8654)">
				<stop  offset="0.13" style="stop-color:#00A9ED"/>
				<stop  offset="1" style="stop-color:#65106B"/>
			</linearGradient>
			<path id="Path_17276" fill="url(#Path_17276_1_)" d="M3.223,1.498L3.21,1.476C2.873,0.915,2.147,0.733,1.586,1.069
				c-0.56,0.336-0.742,1.063-0.405,1.623l0,0l0,0c0.33,0.564,1.055,0.753,1.618,0.422C3.363,2.785,3.552,2.061,3.223,1.498
				L3.223,1.498z"/>
		</g>
	</g>
	<g id="Group_2158" transform="translate(7.966 43.201)">
		<g id="Group_2157">
			
				<linearGradient id="Path_17277_1_" gradientUnits="userSpaceOnUse" x1="-173.2634" y1="238.5337" x2="-173.2634" y2="237.5728" gradientTransform="matrix(2.4645 0 0 -2.4735 429.3132 591.1825)">
				<stop  offset="0.13" style="stop-color:#00A9ED"/>
				<stop  offset="1" style="stop-color:#65106B"/>
			</linearGradient>
			<path id="Path_17277" fill="url(#Path_17277_1_)" d="M3.453,2.096C3.315,1.458,2.686,1.05,2.047,1.188S1.002,1.956,1.139,2.594
				l0,0l0.006,0.024C1.29,3.256,1.923,3.655,2.561,3.51C3.198,3.367,3.597,2.732,3.453,2.096L3.453,2.096L3.453,2.096z"/>
		</g>
	</g>
	<g id="Group_2160" transform="translate(9.041 46.692)">
		<g id="Group_2159">
			
				<linearGradient id="Path_17278_1_" gradientUnits="userSpaceOnUse" x1="-174.3198" y1="235.0173" x2="-174.3198" y2="234.0554" gradientTransform="matrix(2.4637 0 0 -2.4723 431.7327 582.0483)">
				<stop  offset="0.13" style="stop-color:#00A9ED"/>
				<stop  offset="1" style="stop-color:#65106B"/>
			</linearGradient>
			<path id="Path_17278" fill="url(#Path_17278_1_)" d="M3.36,1.785L3.353,1.768c-0.244-0.606-0.933-0.9-1.54-0.655
				C1.208,1.357,0.915,2.047,1.159,2.652l0,0v0.005C1.4,3.263,2.088,3.561,2.695,3.32c0.607-0.241,0.904-0.929,0.663-1.536
				L3.36,1.785z"/>
		</g>
	</g>
	<g id="Group_2162" transform="translate(45.228 55.574)">
		<g id="Group_2161">
			
				<linearGradient id="Path_17279_1_" gradientUnits="userSpaceOnUse" x1="-210.2788" y1="224.69" x2="-210.2788" y2="223.7281" gradientTransform="matrix(2.4457 0 0 -2.4478 515.1593 550.6782)">
				<stop  offset="0.13" style="stop-color:#00A9ED"/>
				<stop  offset="1" style="stop-color:#65106B"/>
			</linearGradient>
			<path id="Path_17279" fill="url(#Path_17279_1_)" d="M1.773,1.104c-0.422-0.498-1.168-0.561-1.667-0.14L0.09,0.978
				c-0.484,0.438-0.521,1.187-0.083,1.671C0.428,3.115,1.14,3.171,1.629,2.775l0.015-0.012C2.134,2.339,2.192,1.599,1.773,1.104z"/>
		</g>
	</g>
	<g id="Group_2164" transform="translate(51.494 46.692)">
		<g id="Group_2163">
			
				<linearGradient id="Path_17280_1_" gradientUnits="userSpaceOnUse" x1="-217.3709" y1="234.6345" x2="-217.3709" y2="233.6725" gradientTransform="matrix(2.4622 0 0 -2.4663 535.85 579.7069)">
				<stop  offset="0.13" style="stop-color:#00A9ED"/>
				<stop  offset="1" style="stop-color:#65106B"/>
			</linearGradient>
			<path id="Path_17280" fill="url(#Path_17280_1_)" d="M1.072,1.113C0.466,0.87-0.223,1.163-0.467,1.769l-0.007,0.017
				C-0.712,2.394-0.413,3.08,0.195,3.318c0.137,0.054,0.281,0.081,0.43,0.081C1.28,3.4,1.813,2.87,1.813,2.214
				C1.813,1.731,1.52,1.296,1.072,1.113L1.072,1.113z"/>
		</g>
	</g>
	<g id="Group_2166" transform="translate(47.773 52.955)">
		<g id="Group_2165">
			
				<linearGradient id="Path_17281_1_" gradientUnits="userSpaceOnUse" x1="-213.7042" y1="228.3099" x2="-213.7042" y2="227.348" gradientTransform="matrix(2.4648 0 0 -2.4638 527.521 563.304)">
				<stop  offset="0.13" style="stop-color:#00A9ED"/>
				<stop  offset="1" style="stop-color:#65106B"/>
			</linearGradient>
			<path id="Path_17281" fill="url(#Path_17281_1_)" d="M1.537,1.065c-0.5-0.421-1.245-0.356-1.666,0.142
				C-0.13,1.207-0.13,1.207-0.131,1.207l-0.013,0.018c-0.415,0.504-0.342,1.249,0.161,1.662c0.212,0.175,0.478,0.27,0.75,0.27
				c0.655,0.001,1.188-0.528,1.189-1.183C1.957,1.623,1.803,1.291,1.537,1.065L1.537,1.065z"/>
		</g>
	</g>
	<g id="Group_2168" transform="translate(52.57 43.204)">
		<g id="Group_2167">
			
				<linearGradient id="Path_17282_1_" gradientUnits="userSpaceOnUse" x1="-218.5344" y1="238.1049" x2="-218.5344" y2="237.144" gradientTransform="matrix(2.4639 0 0 -2.4669 539.0258 588.5472)">
				<stop  offset="0.13" style="stop-color:#00A9ED"/>
				<stop  offset="1" style="stop-color:#65106B"/>
			</linearGradient>
			<path id="Path_17282" fill="url(#Path_17282_1_)" d="M0.841,1.189C0.203,1.05-0.426,1.452-0.569,2.088l0,0
				C-0.714,2.725-0.314,3.36,0.323,3.504C0.96,3.649,1.594,3.249,1.74,2.613l0.005-0.024C1.88,1.953,1.476,1.328,0.841,1.189z"/>
		</g>
	</g>
	<g id="Group_2170" transform="translate(49.88 49.97)">
		<g id="Group_2169">
			
				<linearGradient id="Path_17283_1_" gradientUnits="userSpaceOnUse" x1="-215.7379" y1="231.2432" x2="-215.7379" y2="230.2823" gradientTransform="matrix(2.4624 0 0 -2.4638 531.928 570.6393)">
				<stop  offset="0.13" style="stop-color:#00A9ED"/>
				<stop  offset="1" style="stop-color:#65106B"/>
			</linearGradient>
			<path id="Path_17283" fill="url(#Path_17283_1_)" d="M1.305,1.077C0.746,0.739,0.018,0.919-0.318,1.479l-0.015,0.022
				c-0.325,0.567-0.13,1.291,0.437,1.616C0.67,3.443,1.394,3.248,1.719,2.682c0.323-0.559,0.138-1.273-0.417-1.604H1.305z"/>
		</g>
	</g>
	<g id="Group_2172" transform="translate(53.084 39.588)">
		<g id="Group_2171">
			
				<linearGradient id="Path_17284_1_" gradientUnits="userSpaceOnUse" x1="-220.063" y1="241.301" x2="-220.063" y2="240.34" gradientTransform="matrix(2.4872 0 0 -2.4613 547.9061 595.201)">
				<stop  offset="0.13" style="stop-color:#00A9ED"/>
				<stop  offset="1" style="stop-color:#65106B"/>
			</linearGradient>
			<path id="Path_17284" fill="url(#Path_17284_1_)" d="M0.632,1.302c-0.653-0.039-1.213,0.459-1.251,1.111c0,0.002,0,0.003,0,0.005
				l0,0C-0.655,3.07-0.156,3.627,0.494,3.662c0.001,0,0.002,0,0.002,0h0.066C1.216,3.676,1.757,3.157,1.77,2.504
				c0.015-0.647-0.494-1.185-1.142-1.207L0.632,1.302z"/>
		</g>
	</g>
	<g id="Group_2174" transform="translate(37.536 16.007)">
		<g id="Group_2173">
			
				<linearGradient id="Path_17285_1_" gradientUnits="userSpaceOnUse" x1="-206.6962" y1="265.8097" x2="-206.6962" y2="264.8478" gradientTransform="matrix(2.5449 0 0 -2.4814 527.1506 661.765)">
				<stop  offset="0.13" style="stop-color:#00A9ED"/>
				<stop  offset="1" style="stop-color:#65106B"/>
			</linearGradient>
			<path id="Path_17285" fill="url(#Path_17285_1_)" d="M1.536,2.267H1.525C0.916,2.027,0.23,2.325-0.011,2.933
				C-0.25,3.54,0.047,4.227,0.655,4.467C0.7,4.486,0.747,4.5,0.794,4.512h0.012c0.622,0.201,1.289-0.14,1.49-0.762
				c0.201-0.622-0.141-1.289-0.762-1.49l0,0L1.536,2.267z"/>
		</g>
	</g>
	<g id="Group_2176" transform="translate(33.929 15.164)">
		<g id="Group_2175">
			
				<linearGradient id="Path_17286_1_" gradientUnits="userSpaceOnUse" x1="-199.9705" y1="266.058" x2="-199.9705" y2="265.0961" gradientTransform="matrix(2.4723 0 0 -2.4723 495.6987 660.0133)">
				<stop  offset="0.13" style="stop-color:#00A9ED"/>
				<stop  offset="1" style="stop-color:#65106B"/>
			</linearGradient>
			<path id="Path_17286" fill="url(#Path_17286_1_)" d="M1.507,2.256L1.475,2.251c-0.65-0.089-1.25,0.365-1.34,1.015
				c-0.09,0.65,0.365,1.25,1.016,1.34c0.649,0.089,1.25-0.365,1.34-1.015C2.579,2.953,2.141,2.361,1.507,2.256z"/>
		</g>
	</g>
	<g id="Group_2178" transform="translate(30.24 14.905)">
		<g id="Group_2177">
			
				<linearGradient id="Path_17287_1_" gradientUnits="userSpaceOnUse" x1="-196.7747" y1="265.5836" x2="-196.7747" y2="264.6227" gradientTransform="matrix(2.485 0 0 -2.461 490.4301 655.8527)">
				<stop  offset="0.13" style="stop-color:#00A9ED"/>
				<stop  offset="1" style="stop-color:#65106B"/>
			</linearGradient>
			<path id="Path_17287" fill="url(#Path_17287_1_)" d="M1.453,2.248H1.425C0.771,2.252,0.244,2.783,0.247,3.437
				C0.25,4.09,0.783,4.618,1.436,4.614h0.018c0.653,0,1.183-0.529,1.183-1.183C2.636,2.778,2.107,2.248,1.453,2.248z"/>
		</g>
	</g>
	<g id="Group_2180" transform="translate(22.942 16.023)">
		<g id="Group_2179">
			
				<linearGradient id="Path_17288_1_" gradientUnits="userSpaceOnUse" x1="-188.3028" y1="264.4275" x2="-188.3028" y2="263.4656" gradientTransform="matrix(2.4606 0 0 -2.4601 465.0746 652.7351)">
				<stop  offset="0.13" style="stop-color:#00A9ED"/>
				<stop  offset="1" style="stop-color:#65106B"/>
			</linearGradient>
			<path id="Path_17288" fill="url(#Path_17288_1_)" d="M2.863,3.045c-0.19-0.625-0.85-0.978-1.475-0.789L1.371,2.26
				C0.748,2.459,0.405,3.125,0.603,3.747C0.802,4.369,1.468,4.713,2.09,4.514C2.705,4.318,3.049,3.664,2.863,3.045z"/>
		</g>
	</g>
	<g id="Group_2182" transform="translate(26.555 15.227)">
		<g id="Group_2181">
			
				<linearGradient id="Path_17289_1_" gradientUnits="userSpaceOnUse" x1="-192.6961" y1="265.4335" x2="-192.6961" y2="264.4716" gradientTransform="matrix(2.4772 0 0 -2.4636 478.9431 656.1571)">
				<stop  offset="0.13" style="stop-color:#00A9ED"/>
				<stop  offset="1" style="stop-color:#65106B"/>
			</linearGradient>
			<path id="Path_17289" fill="url(#Path_17289_1_)" d="M2.765,3.231C2.662,2.587,2.057,2.148,1.413,2.25c-0.001,0-0.002,0-0.003,0
				l0.172,1.17l-0.175-1.17C0.761,2.347,0.315,2.95,0.412,3.596C0.508,4.242,1.11,4.688,1.757,4.592h0.026
				C2.429,4.488,2.869,3.88,2.766,3.233C2.765,3.232,2.765,3.232,2.765,3.231z"/>
		</g>
	</g>
	<g id="Group_2184" transform="translate(7.454 39.512)">
		<g id="Group_2183">
			
				<linearGradient id="Path_17290_1_" gradientUnits="userSpaceOnUse" x1="-172.7436" y1="242.167" x2="-172.7436" y2="241.2051" gradientTransform="matrix(2.4645 0 0 -2.4735 428.0516 600.3127)">
				<stop  offset="0.13" style="stop-color:#00A9ED"/>
				<stop  offset="1" style="stop-color:#65106B"/>
			</linearGradient>
			<path id="Path_17290" fill="url(#Path_17290_1_)" d="M3.473,2.243C3.336,1.604,2.706,1.197,2.066,1.335
				C1.428,1.473,1.022,2.102,1.159,2.741l0.005,0.024C1.309,3.402,1.943,3.801,2.58,3.657C3.217,3.513,3.617,2.879,3.473,2.243
				L3.473,2.243z"/>
		</g>
	</g>
</g>
</svg>
