<?xml version="1.0" encoding="utf-8"?>
<!-- Generator: Adobe Illustrator 16.0.0, SVG Export Plug-In . SVG Version: 6.00 Build 0)  -->
<!DOCTYPE svg PUBLIC "-//W3C//DTD SVG 1.1//EN" "http://www.w3.org/Graphics/SVG/1.1/DTD/svg11.dtd">
<svg version="1.1" id="Layer_1" xmlns="http://www.w3.org/2000/svg" xmlns:xlink="http://www.w3.org/1999/xlink" x="0px" y="0px"
	 width="63px" height="39.854px" viewBox="0 0 63 39.854" enable-background="new 0 0 63 39.854" xml:space="preserve">
<g id="shipped" transform="translate(0 -94.062)">
	<g id="Group_2795" transform="translate(0 94.062)">
		<g id="Group_2794" transform="translate(0 0)">
			
				<linearGradient id="Path_18001_1_" gradientUnits="userSpaceOnUse" x1="-269.2842" y1="406.3767" x2="-269.2842" y2="405.3757" gradientTransform="matrix(63.0055 0 0 -39.8525 16997.918 16195.0996)">
				<stop  offset="0" style="stop-color:#00A9E0"/>
				<stop  offset="1" style="stop-color:#801C7D"/>
			</linearGradient>
			<path id="Path_18001" fill="url(#Path_18001_1_)" d="M58.59,16.894l-1.631-6.526c0.455-0.097,0.781-0.499,0.781-0.965V8.351
				c-0.004-2.286-1.855-4.138-4.141-4.143h-7.435V2.038C46.164,0.912,45.252,0,44.126-0.001H6.247
				C5.122,0.001,4.21,0.913,4.209,2.038v17.887c0,0.545,0.442,0.987,0.986,0.987c0.545,0,0.987-0.442,0.987-0.987V2.038
				c0-0.036,0.029-0.065,0.066-0.065l0,0h37.878c0.036,0,0.065,0.029,0.065,0.065l0,0v17.888c0,0.545,0.442,0.987,0.987,0.987
				c0.544,0,0.986-0.442,0.986-0.987v-1.117h11.642c1.398,0.003,2.636,0.905,3.065,2.235H57.8c-0.544,0-0.985,0.441-0.985,0.986l0,0
				v2.1c0.001,1.707,1.385,3.09,3.09,3.092h1.119v4.34h-2.576c-1.123-3.261-4.678-4.993-7.938-3.869
				c-1.815,0.626-3.243,2.053-3.868,3.869h-0.476v-7.423c0-0.545-0.442-0.987-0.986-0.987c-0.545,0-0.987,0.442-0.987,0.987v7.431
				H23.726c-1.124-3.261-4.679-4.993-7.939-3.869c-1.816,0.626-3.243,2.053-3.869,3.869H6.247c-0.037,0-0.066-0.029-0.066-0.066l0,0
				v-2.17h4.275c0.545,0,0.986-0.441,0.986-0.986s-0.441-0.986-0.986-0.986h-9.47C0.441,27.36,0,27.802,0,28.346
				s0.442,0.986,0.986,0.986h3.223v2.17c0.003,1.124,0.915,2.033,2.038,2.035h5.328c0,0.022,0,0.044,0,0.066
				c0,3.45,2.797,6.247,6.247,6.247c3.451,0,6.248-2.797,6.248-6.247c0-0.022,0-0.044,0-0.066H46.3c0,0.022,0,0.044,0,0.066
				c0,3.45,2.798,6.247,6.247,6.247c3.451,0,6.248-2.797,6.248-6.247c0-0.022,0-0.044,0-0.066h3.225
				c0.544,0,0.985-0.441,0.985-0.986l0,0V22.03C63.003,19.463,61.127,17.281,58.59,16.894z M46.165,6.182H53.6
				c1.198,0.001,2.169,0.972,2.17,2.17v0.065h-9.6L46.165,6.182z M46.165,16.835V10.39h8.765l1.611,6.444H46.165z M17.822,37.879
				c-2.361,0-4.275-1.914-4.275-4.274c0-2.361,1.914-4.275,4.275-4.275c2.361,0,4.275,1.914,4.275,4.275
				C22.095,35.964,20.182,37.877,17.822,37.879z M52.544,37.879c-2.36,0-4.274-1.914-4.274-4.274c0-2.361,1.914-4.275,4.274-4.275
				s4.274,1.914,4.274,4.275C56.816,35.964,54.904,37.877,52.544,37.879z M61.027,25.253h-1.118c-0.617,0-1.118-0.501-1.118-1.118
				v-1.117h2.236V25.253z"/>
		</g>
	</g>
	<g id="Group_2797" transform="translate(15.783 125.628)">
		<g id="Group_2796" transform="translate(0 0)">
			
				<linearGradient id="Path_18002_1_" gradientUnits="userSpaceOnUse" x1="-224.1531" y1="286.6437" x2="-224.1531" y2="285.6437" gradientTransform="matrix(4.078 0 0 -4.078 916.1367 1168.9338)">
				<stop  offset="0" style="stop-color:#00A9E0"/>
				<stop  offset="1" style="stop-color:#801C7D"/>
			</linearGradient>
			<path id="Path_18002" fill="url(#Path_18002_1_)" d="M2.039,0.003C0.913,0.003,0,0.916,0,2.042s0.913,2.039,2.039,2.039
				c1.126,0,2.039-0.913,2.039-2.039C4.077,0.916,3.165,0.004,2.039,0.003z"/>
		</g>
	</g>
	<g id="Group_2799" transform="translate(50.505 125.628)">
		<g id="Group_2798" transform="translate(0 0)">
			
				<linearGradient id="Path_18003_1_" gradientUnits="userSpaceOnUse" x1="-258.8746" y1="286.6437" x2="-258.8746" y2="285.6437" gradientTransform="matrix(4.078 0 0 -4.078 1057.7319 1168.9338)">
				<stop  offset="0" style="stop-color:#00A9E0"/>
				<stop  offset="1" style="stop-color:#801C7D"/>
			</linearGradient>
			<path id="Path_18003" fill="url(#Path_18003_1_)" d="M2.039,0.003C0.913,0.003,0,0.916,0,2.042s0.913,2.039,2.039,2.039
				s2.039-0.913,2.039-2.039C4.077,0.916,3.165,0.004,2.039,0.003z"/>
		</g>
	</g>
	<g id="Group_2801" transform="translate(25.253 121.419)">
		<g id="Group_2800" transform="translate(0 0)">
			
				<linearGradient id="Path_18004_1_" gradientUnits="userSpaceOnUse" x1="-282.8526" y1="186.0607" x2="-282.8526" y2="185.0607" gradientTransform="matrix(16.704 0 0 -1.973 4733.123 367.0969)">
				<stop  offset="0" style="stop-color:#00A9E0"/>
				<stop  offset="1" style="stop-color:#801C7D"/>
			</linearGradient>
			<path id="Path_18004" fill="url(#Path_18004_1_)" d="M15.718,0H0.986C0.441,0-0.001,0.442-0.001,0.987s0.442,0.986,0.986,0.986
				h14.732c0.544,0,0.986-0.441,0.986-0.986S16.262,0,15.718,0z"/>
		</g>
	</g>
	<g id="Group_2803" transform="translate(2.104 117.21)">
		<g id="Group_2802">
			
				<linearGradient id="Path_18005_1_" gradientUnits="userSpaceOnUse" x1="-257.4116" y1="190.2707" x2="-257.4116" y2="189.2707" gradientTransform="matrix(14.6 0 0 -1.973 3765.5161 375.4013)">
				<stop  offset="0" style="stop-color:#00A9E0"/>
				<stop  offset="1" style="stop-color:#801C7D"/>
			</linearGradient>
			<path id="Path_18005" fill="url(#Path_18005_1_)" d="M13.613,0H0.986C0.441,0,0,0.442,0,0.987s0.442,0.986,0.986,0.986h12.627
				c0.545,0,0.987-0.441,0.987-0.986S14.158,0,13.613,0z"/>
		</g>
	</g>
	<g id="Group_2805" transform="translate(17.887 103.532)">
		<g id="Group_2804" transform="translate(0 0)">
			
				<linearGradient id="Path_18006_1_" gradientUnits="userSpaceOnUse" x1="-275.4851" y1="371.9556" x2="-275.4851" y2="370.9565" gradientTransform="matrix(16.7031 0 0 -11.4432 4609.8193 4256.3501)">
				<stop  offset="0" style="stop-color:#00A9E0"/>
				<stop  offset="1" style="stop-color:#801C7D"/>
			</linearGradient>
			<path id="Path_18006" fill="url(#Path_18006_1_)" d="M16.414,0.288c-0.385-0.385-1.009-0.385-1.395,0l0,0L6.247,9.06L1.684,4.497
				c-0.385-0.385-1.01-0.385-1.395,0c-0.385,0.386-0.385,1.01,0,1.396l5.261,5.261c0.385,0.386,1.009,0.386,1.395,0.001l0-0.001
				l9.47-9.47C16.8,1.297,16.799,0.673,16.414,0.288z"/>
		</g>
	</g>
</g>
</svg>
