<?xml version="1.0" encoding="utf-8"?>
<!-- Generator: Adobe Illustrator 14.0.0, SVG Export Plug-In . SVG Version: 6.00 Build 43363)  -->
<!DOCTYPE svg PUBLIC "-//W3C//DTD SVG 1.1//EN" "http://www.w3.org/Graphics/SVG/1.1/DTD/svg11.dtd">
<svg version="1.1" id="Layer_1" xmlns="http://www.w3.org/2000/svg" xmlns:xlink="http://www.w3.org/1999/xlink" x="0px" y="0px"
	 width="59.684px" height="63px" viewBox="0 0 59.684 63" enable-background="new 0 0 59.684 63" xml:space="preserve">
<g id="Group_2727" transform="translate(-390 -8478)">
	<g id="Damage" transform="translate(390 8487.418)">
		
			<linearGradient id="Path_17902_1_" gradientUnits="userSpaceOnUse" x1="9.97" y1="40.2783" x2="9.97" y2="39.2783" gradientTransform="matrix(59.684 0 0 -53.579 -565.1548 2158.0984)">
			<stop  offset="0.13" style="stop-color:#00A9ED"/>
			<stop  offset="1" style="stop-color:#65106B"/>
		</linearGradient>
		<path id="Path_17902" fill="url(#Path_17902_1_)" d="M59.549,0.001H0.135C0.067,0.171,0.022,0.349,0,0.53v49.737
			c0.001,1.83,1.485,3.313,3.315,3.313h53.053c1.831,0,3.315-1.484,3.315-3.315l0,0V0.53C59.662,0.349,59.617,0.171,59.549,0.001
			L59.549,0.001z M57.474,31.653L56.8,30.619c-0.331-0.51-1.012-0.656-1.521-0.324c-0.023,0.015-0.046,0.031-0.068,0.047
			l-3.444,2.601l-2.37-3.62c-0.33-0.51-1.011-0.656-1.521-0.326c-0.024,0.016-0.048,0.033-0.071,0.051l-3.443,2.6L42,28.035
			c-0.233-0.359-0.653-0.552-1.077-0.494l-1.183,0.164l1.271-1.199l4.063,2.332c0.524,0.307,1.197,0.129,1.504-0.395
			c0.016-0.026,0.029-0.053,0.043-0.08l1.892-3.883l3.748,2.152c0.528,0.305,1.204,0.123,1.51-0.405
			c0.013-0.022,0.025-0.047,0.037-0.071l1.879-3.885l1.785,1.021L57.474,31.653z M56.368,51.373H3.316
			c-0.607,0.004-1.102-0.486-1.104-1.095c0-0.001,0-0.003,0-0.005V1.636h55.263v19.1l-1.715-0.984
			c-0.524-0.306-1.198-0.129-1.505,0.396c-0.015,0.026-0.029,0.053-0.042,0.081l-1.879,3.885l-3.747-2.151
			c-0.524-0.307-1.198-0.13-1.505,0.395c-0.016,0.026-0.029,0.052-0.042,0.08l-1.89,3.888l-3.75-2.144
			c-0.423-0.243-0.955-0.181-1.31,0.155l-4.377,4.133c-0.445,0.418-0.468,1.117-0.05,1.563c0.246,0.262,0.604,0.389,0.96,0.338
			l3.899-0.535l2.624,4.022c0.334,0.511,1.019,0.655,1.529,0.321c0.021-0.014,0.043-0.029,0.064-0.045l3.444-2.6l2.37,3.62
			c0.335,0.511,1.02,0.653,1.53,0.318c0.021-0.013,0.04-0.027,0.06-0.042l3.445-2.6l1.879,2.873v14.564
			c0.003,0.607-0.486,1.103-1.094,1.105C56.373,51.373,56.371,51.373,56.368,51.373L56.368,51.373z"/>
	</g>
	<g id="Group_2726" transform="translate(408.79 8478)">
		<g id="Group_2716">
			
				<linearGradient id="Path_17903_1_" gradientUnits="userSpaceOnUse" x1="-0.7087" y1="34.6406" x2="-0.7087" y2="33.6406" gradientTransform="matrix(21.678 0 0 -16.6745 26.2053 577.6152)">
				<stop  offset="0.13" style="stop-color:#00A9ED"/>
				<stop  offset="1" style="stop-color:#65106B"/>
			</linearGradient>
			<path id="Path_17903" fill="url(#Path_17903_1_)" d="M15.843,0.001h-10C2.633,0.038,0.039,2.63,0,5.839v10
				c0,0.462,0.374,0.836,0.836,0.836s0.837-0.375,0.837-0.836v-10C1.651,3.562,3.479,1.696,5.756,1.673c0.028,0,0.056,0,0.083,0h10
				c2.278-0.022,4.144,1.806,4.166,4.083c0,0.028,0,0.055,0,0.083v10c0,0.462,0.374,0.836,0.836,0.836
				c0.463,0,0.837-0.375,0.837-0.836v-10C21.639,2.633,19.05,0.042,15.843,0.001z"/>
		</g>
	</g>
</g>
</svg>
