<?xml version="1.0" encoding="utf-8"?>
<!-- Generator: Adobe Illustrator 16.0.0, SVG Export Plug-In . SVG Version: 6.00 Build 0)  -->
<!DOCTYPE svg PUBLIC "-//W3C//DTD SVG 1.1//EN" "http://www.w3.org/Graphics/SVG/1.1/DTD/svg11.dtd">
<svg version="1.1" id="Layer_1" xmlns="http://www.w3.org/2000/svg" xmlns:xlink="http://www.w3.org/1999/xlink" x="0px" y="0px"
	 width="60.008px" height="63px" viewBox="0 0 60.008 63" enable-background="new 0 0 60.008 63" xml:space="preserve">
<g id="Group_1564" transform="translate(-219 -971)">
	<g id="internet" transform="translate(219 971)">
		<g id="Group_1563" transform="translate(0 0)">
			<g id="Group_1562">
				
					<linearGradient id="Path_16324_1_" gradientUnits="userSpaceOnUse" x1="-270.5625" y1="421.8262" x2="-270.5625" y2="420.8262" gradientTransform="matrix(60.2425 0 0 -62.995 16329.248 26572.9336)">
					<stop  offset="0.13" style="stop-color:#00A9ED"/>
					<stop  offset="1" style="stop-color:#65106B"/>
				</linearGradient>
				<path id="Path_16324" fill="url(#Path_16324_1_)" d="M59.75,24.773c-0.07-0.537-0.528-0.939-1.07-0.939
					c-0.574,0-1.139-0.015-1.693-0.042C54.609,10.137,42.818,0.128,28.959,0H28.83c-0.105,0-0.211,0-0.314,0
					C12.666-0.027-0.207,12.799-0.234,28.65C-0.262,44.5,12.565,57.373,28.416,57.4c0.076,0,1.183-0.02,1.947-0.053
					c2.708,2.475,5.887,4.373,9.348,5.584c0.234,0.084,0.491,0.084,0.727,0c5.165-1.783,9.658-5.11,12.871-9.531
					c2.692-3.826,4.572-8.164,5.524-12.745C59.981,35.443,60.291,30.082,59.75,24.773z M49.85,12.663
					c2.451,3.226,4.127,6.972,4.9,10.949c-3.293-0.375-6.518-1.208-9.58-2.475c-0.297-1.882-0.721-3.742-1.268-5.567
					c2.083-0.749,4.078-1.724,5.949-2.907H49.85z M48.463,10.986c-1.657,1.024-3.416,1.875-5.247,2.538
					c-1.187-3.446-3.068-6.612-5.53-9.3c-0.265-0.274-0.535-0.535-0.809-0.783c4.463,1.445,8.461,4.048,11.588,7.545H48.463z
					 M30.021,2.263c4.485,0.715,8.635,5.145,11.148,11.942c-3.624,1.063-7.372,1.646-11.148,1.733V2.263z M30.021,18.098
					c4.008-0.089,7.989-0.71,11.834-1.846c0.367,1.217,0.679,2.481,0.934,3.782c-0.721-0.361-1.419-0.763-2.092-1.206
					c-0.373-0.261-0.868-0.261-1.24,0c-2.908,1.821-6.096,3.153-9.436,3.944V18.1V18.098z M27.863,2.232v13.713
					c-3.845-0.072-7.664-0.658-11.354-1.74C19.06,7.3,23.302,2.842,27.863,2.232z M20.402,24.773
					c-0.015,0.112-0.147,1.159-0.216,2.852h-6.107c0.072-3.852,0.659-7.676,1.745-11.372c3.912,1.153,7.961,1.774,12.039,1.847
					v5.139c-2.107,0.392-4.247,0.59-6.391,0.591C20.929,23.83,20.471,24.234,20.402,24.773z M21.162,39.921
					c-1.805,0.295-3.588,0.707-5.339,1.234c-1.085-3.696-1.672-7.521-1.744-11.372h6.066C20.146,33.188,20.486,36.584,21.162,39.921
					L21.162,39.921z M9.878,9.988c3.08-3.113,6.886-5.411,11.075-6.688c-0.327,0.29-0.648,0.598-0.963,0.923
					c-2.462,2.688-4.344,5.854-5.53,9.3c-1.897-0.686-3.716-1.574-5.424-2.648C9.31,10.574,9.591,10.279,9.878,9.988z M13.778,15.57
					c-1.158,3.917-1.782,7.972-1.855,12.055H2.181c0.206-5.474,2.115-10.747,5.46-15.084c1.923,1.239,3.981,2.255,6.134,3.029
					H13.778z M7.658,44.857C4.313,40.522,2.4,35.254,2.182,29.783h9.738c0.073,4.084,0.697,8.139,1.855,12.055
					c-2.147,0.772-4.201,1.785-6.12,3.02H7.658z M9.051,46.527c1.705-1.071,3.52-1.957,5.413-2.642
					c1.187,3.446,3.069,6.612,5.53,9.3c0.31,0.321,0.626,0.623,0.948,0.908c-4.573-1.406-8.682-4.021-11.894-7.568L9.051,46.527z
					 M16.509,43.2c1.688-0.505,3.406-0.899,5.145-1.177c1.001,4.084,2.762,7.943,5.191,11.377c0.462,0.635,0.949,1.242,1.456,1.826
					C23.573,54.85,19.144,50.324,16.509,43.2z M56.727,40.18c-0.887,4.294-2.645,8.359-5.164,11.948
					c-2.879,3.965-6.88,6.976-11.486,8.644c-4.596-1.664-8.59-4.664-11.466-8.616c-2.519-3.577-4.278-7.633-5.171-11.916
					c-1.015-4.681-1.347-9.484-0.987-14.26c6.204-0.126,12.271-1.841,17.624-4.979c5.354,3.139,11.422,4.853,17.626,4.979
					C58.062,30.735,57.732,35.518,56.727,40.18z"/>
				
					<linearGradient id="Path_16325_1_" gradientUnits="userSpaceOnUse" x1="-266.2808" y1="416.5947" x2="-266.2808" y2="415.5947" gradientTransform="matrix(30.6475 0 0 -34.1038 8200.9316 14231.416)">
					<stop  offset="0.13" style="stop-color:#00A9ED"/>
					<stop  offset="1" style="stop-color:#65106B"/>
				</linearGradient>
				<path id="Path_16325" fill="url(#Path_16325_1_)" d="M54.436,28.206c-4.836-0.515-9.535-1.917-13.861-4.135
					c-0.312-0.162-0.682-0.162-0.993,0c-4.327,2.218-9.026,3.62-13.861,4.135c-0.545,0.059-0.959,0.516-0.963,1.064
					c-0.039,3.571,0.333,7.134,1.109,10.621c2.052,8.883,6.688,14.963,13.778,18.072c0.275,0.121,0.59,0.121,0.867,0
					c7.09-3.107,11.725-9.189,13.777-18.072c0.776-3.486,1.148-7.05,1.109-10.621C55.395,28.722,54.98,28.265,54.436,28.206z
					 M52.186,39.406c-1.847,8-5.92,13.508-12.108,16.386c-6.188-2.878-10.261-8.388-12.109-16.386
					c-0.673-3.011-1.025-6.084-1.052-9.168c4.578-0.598,9.025-1.949,13.161-4c4.136,2.051,8.583,3.402,13.161,4
					c-0.027,3.084-0.38,6.156-1.053,9.166V39.406z"/>
			</g>
		</g>
	</g>
	
		<linearGradient id="Path_16326_1_" gradientUnits="userSpaceOnUse" x1="-39.9429" y1="1370.4502" x2="-39.9429" y2="1369.4502" gradientTransform="matrix(16.6389 0 0 -13.6236 923.6231 19675.3359)">
		<stop  offset="0.13" style="stop-color:#00A9ED"/>
		<stop  offset="1" style="stop-color:#65106B"/>
	</linearGradient>
	<path id="Path_16326" fill="url(#Path_16326_1_)" d="M266.814,1006.688l-1.225-1.225c-0.683-0.684-1.79-0.684-2.473,0
		c-0.001,0-0.001,0-0.001,0l-6.435,6.436l-1.779-1.779c-0.684-0.684-1.791-0.684-2.474,0c-0.001,0-0.001,0-0.001,0l-1.227,1.227
		c-0.683,0.684-0.683,1.791,0,2.475l4.242,4.242c0.328,0.328,0.773,0.513,1.238,0.512l0,0c0.463,0.001,0.909-0.184,1.236-0.512
		l8.9-8.9C267.5,1008.478,267.498,1007.371,266.814,1006.688z M256.68,1016.453l-3.873-3.872l0.856-0.856l2.3,2.301
		c0.393,0.393,1.029,0.393,1.422,0l6.961-6.961l0.856,0.855L256.68,1016.453z"/>
</g>
</svg>
