<?xml version="1.0" encoding="utf-8"?>
<!-- Generator: Adobe Illustrator 16.0.0, SVG Export Plug-In . SVG Version: 6.00 Build 0)  -->
<!DOCTYPE svg PUBLIC "-//W3C//DTD SVG 1.1//EN" "http://www.w3.org/Graphics/SVG/1.1/DTD/svg11.dtd">
<svg version="1.1" id="Layer_1" xmlns="http://www.w3.org/2000/svg" xmlns:xlink="http://www.w3.org/1999/xlink" x="0px" y="0px"
	 width="63.003px" height="63.003px" viewBox="0 0 63.003 63.003" enable-background="new 0 0 63.003 63.003" xml:space="preserve">
<g id="discount" transform="translate(-32.284)">
	
		<linearGradient id="Path_18862_1_" gradientUnits="userSpaceOnUse" x1="-236.3176" y1="421.811" x2="-236.3176" y2="420.811" gradientTransform="matrix(55.055 0 0 -63 13074.2676 26575.1563)">
		<stop  offset="0.13" style="stop-color:#00A9ED"/>
		<stop  offset="1" style="stop-color:#65106B"/>
	</linearGradient>
	<path id="Path_18862" fill="url(#Path_18862_1_)" d="M91.338,31.721h-8.621V1H44.9v30.721h-8.616l24.392,28.587H47.4V64h32.815
		v-3.691H66.948L91.338,31.721z M48.593,4.691h30.435v30.721h4.309L63.811,58.3L44.286,35.412h4.308L48.593,4.691z"/>
	
		<linearGradient id="Path_18863_1_" gradientUnits="userSpaceOnUse" x1="-224.007" y1="404.9888" x2="-224.007" y2="403.9888" gradientTransform="matrix(15.668 0 0 -16.945 3573.5608 6875.2036)">
		<stop  offset="0.13" style="stop-color:#00A9ED"/>
		<stop  offset="1" style="stop-color:#65106B"/>
	</linearGradient>
	<path id="Path_18863" fill="url(#Path_18863_1_)" d="M60.069,29.629l11.576-16.945h-4.092L55.976,29.629H60.069z"/>
	
		<linearGradient id="Path_18864_1_" gradientUnits="userSpaceOnUse" x1="-211.3195" y1="386.7534" x2="-211.3195" y2="385.7534" gradientTransform="matrix(9.0181 0 0 -9.4538 1975.7229 3676.718)">
		<stop  offset="0.13" style="stop-color:#00A9ED"/>
		<stop  offset="1" style="stop-color:#65106B"/>
	</linearGradient>
	<path id="Path_18864" fill="url(#Path_18864_1_)" d="M65.516,25.153c0,3.027,1.938,4.722,4.5,4.722c2.564,0,4.5-1.695,4.5-4.722
		c0.123-2.487-1.793-4.603-4.279-4.726c-2.488-0.123-4.604,1.793-4.727,4.281c-0.008,0.148-0.008,0.297,0,0.445H65.516z
		 M71.086,25.153c0,1.622-0.533,2.107-1.066,2.107c-0.531,0-1.064-0.484-1.064-2.107c0-1.623,0.533-2.106,1.064-2.106
		C70.553,23.047,71.086,23.531,71.086,25.153z"/>
	
		<linearGradient id="Path_18865_1_" gradientUnits="userSpaceOnUse" x1="-211.3185" y1="386.7524" x2="-211.3185" y2="385.7524" gradientTransform="matrix(9.0181 0 0 -9.4537 1963.2952 3668.6665)">
		<stop  offset="0.13" style="stop-color:#00A9ED"/>
		<stop  offset="1" style="stop-color:#65106B"/>
	</linearGradient>
	<path id="Path_18865" fill="url(#Path_18865_1_)" d="M57.599,21.885c2.566,0,4.5-1.695,4.5-4.722
		c0.123-2.487-1.793-4.604-4.28-4.726c-2.487-0.123-4.604,1.793-4.727,4.281c-0.007,0.148-0.007,0.297,0,0.445
		C53.096,20.19,55.033,21.885,57.599,21.885z M57.599,15.057c0.533,0,1.065,0.484,1.065,2.106s-0.533,2.107-1.065,2.107
		c-0.531,0-1.064-0.484-1.064-2.107S57.067,15.056,57.599,15.057L57.599,15.057z"/>
</g>
</svg>
