<svg xmlns="http://www.w3.org/2000/svg" xmlns:xlink="http://www.w3.org/1999/xlink" width="180.996" height="144" viewBox="0 0 180.996 144">
  <defs>
    <linearGradient id="linear-gradient" x1="1.603" y1="-0.337" x2="0" y2="3.725" gradientUnits="objectBoundingBox">
      <stop offset="0" stop-color="#fff"/>
      <stop offset="0.502" stop-color="#98dbf9"/>
      <stop offset="1" stop-color="#fff"/>
    </linearGradient>
  </defs>
  <g id="Group_4731" data-name="Group 4731" opacity="0.25">
    <path id="Path_20493" data-name="Path 20493" d="M158.059,68.524l-6.983,3.395c-.038.019-.074.041-.11.061l-9.978-3.456a18.022,18.022,0,0,0-13.658.732L116.9,74.174,95.826,53.1a2.651,2.651,0,1,0-3.749,3.749l20.515,20.514L101.829,88.13a2.651,2.651,0,1,0,3.749,3.749l12.311-12.311,11.7-5.517a12.752,12.752,0,0,1,9.662-.518l18.553,6.425,7.011,7.918a2.651,2.651,0,0,0,3.97-3.515l-7.472-8.439a2.651,2.651,0,0,0-1.117-.748l-2.175-.753,1.918-.939a12.749,12.749,0,0,1,9.516.568l12.119,5.713a2.651,2.651,0,0,0,3.005-.524l22.389-22.389A2.651,2.651,0,1,0,203.22,53.1l-21.071,21.07-10.432-4.918a18.027,18.027,0,0,0-13.658-.731Z" transform="translate(-59.025 -52.326)" fill="url(#linear-gradient)"/>
    <path id="Path_20494" data-name="Path 20494" d="M4.526,144.406a2.651,2.651,0,0,0-3.749,3.749l7.6,7.6a2.651,2.651,0,1,0,3.749-3.749Z" transform="translate(0 -111.353)" fill="url(#linear-gradient)"/>
    <path id="Path_20495" data-name="Path 20495" d="M173.345,184.69a2.651,2.651,0,0,0,3.749,0s13.506-13.523,13.581-13.623a25.023,25.023,0,0,0,7.441-5.13l.749-.749,10.655,10.655a17.653,17.653,0,0,0,24.964,0,7.612,7.612,0,0,0,.316-10.413l-5.836-6.591a2.651,2.651,0,0,0-3.97,3.515l5.836,6.591a2.3,2.3,0,0,1-.1,3.148,12.35,12.35,0,0,1-17.465,0l-18.222-18.222a2.651,2.651,0,0,0-3.749,3.749l3.818,3.818-.749.749a19.807,19.807,0,0,1-19.387,5.041,2.651,2.651,0,0,0-1.444,5.1,25.08,25.08,0,0,0,7.48.94l-7.67,7.67a2.652,2.652,0,0,0,0,3.75Z" transform="translate(-110.942 -117.472)" fill="url(#linear-gradient)"/>
    <path id="Path_20496" data-name="Path 20496" d="M210.3,144.406a2.651,2.651,0,0,0-3.749,0L182.427,168.53a2.651,2.651,0,0,0-.751,1.509l-1.392,9.992a29.87,29.87,0,0,1-7.09,15.47,10.763,10.763,0,0,0-14.22.886l-1.209,1.209a10.7,10.7,0,0,0-3.154,7.613c0,.249.012.5.028.743a10.742,10.742,0,0,0-8.352,3.12l-1.209,1.209a10.742,10.742,0,0,0-3.12,8.357,10.742,10.742,0,0,0-8.357,3.12l-1.208,1.209a10.742,10.742,0,0,0-3.12,8.352c-.246-.017-.494-.028-.743-.028a10.7,10.7,0,0,0-7.613,3.154l-1.209,1.209a10.766,10.766,0,0,0-1.129,13.9,6.32,6.32,0,0,1-6.907-10.3L141.619,209.3a2.651,2.651,0,1,0-3.749-3.749l-37.436,37.436a6.319,6.319,0,0,1-8.936-8.936l38.311-38.311a2.651,2.651,0,1,0-3.749-3.749L81.69,236.359a6.319,6.319,0,0,1-8.936-8.936l44.978-44.978a2.651,2.651,0,1,0-3.749-3.749l-33.42,33.42a6.319,6.319,0,1,1-8.936-8.936l15.76-15.76a2.651,2.651,0,1,0-3.749-3.749l-13.8,13.8-.555-.555a29.851,29.851,0,0,1-8.406-16.885l-1.392-9.992a2.651,2.651,0,0,0-.751-1.509l-7.676-7.676a2.651,2.651,0,1,0-3.749,3.749l7.047,7.048,1.27,9.112a35.183,35.183,0,0,0,9.909,19.9l.752.751a11.617,11.617,0,0,0,7.385,17.593L69,223.674a11.622,11.622,0,0,0,15.584,17.208,11.619,11.619,0,0,0,19.594,5.857l.589-.589a11.614,11.614,0,0,0,17.615,7.364,7.663,7.663,0,0,0,5,1.839h0a7.677,7.677,0,0,0,5.465-2.268l5.5-5.509a7.686,7.686,0,0,0,2.232-4.942,7.661,7.661,0,0,0,4.946-2.243l5.5-5.509a7.689,7.689,0,0,0,2.232-4.938,7.69,7.69,0,0,0,4.94-2.224l5.516-5.491a7.662,7.662,0,0,0,2.249-4.943,7.689,7.689,0,0,0,4.945-2.223l5.518-5.493a7.725,7.725,0,0,0,.549-10.346,35.205,35.205,0,0,0,8.557-18.461l1.27-9.112,23.5-23.5a2.652,2.652,0,0,0,0-3.75Zm-75.7,99.422-5.5,5.51a2.408,2.408,0,0,1-1.715.712h0a2.408,2.408,0,0,1-1.713-.71l-2.211-2.211a5.465,5.465,0,0,1,0-7.728l1.209-1.209a5.464,5.464,0,0,1,7.728,0L134.6,240.4a2.427,2.427,0,0,1,0,3.427Zm12.676-12.693-5.5,5.51a2.408,2.408,0,0,1-1.715.712h0a2.411,2.411,0,0,1-1.714-.709l-2.2-2.2h0a5.47,5.47,0,0,1,0-7.728l1.208-1.209a5.471,5.471,0,0,1,7.728,0l2.2,2.2A2.428,2.428,0,0,1,147.276,231.134Zm12.7-12.664-5.518,5.493a2.428,2.428,0,0,1-3.426,0l0,0,0,0-2.2-2.2a5.47,5.47,0,0,1,0-7.728l1.209-1.209a5.47,5.47,0,0,1,7.727,0l2.214,2.214a2.425,2.425,0,0,1,0,3.434Zm12.713-12.659-5.52,5.494a2.428,2.428,0,0,1-3.424,0l-.007-.006-.009-.01-2.214-2.214a5.465,5.465,0,0,1,0-7.728l1.209-1.209a5.464,5.464,0,0,1,7.728,0l2.243,2.243a2.423,2.423,0,0,1,0,3.432Z" transform="translate(-30.081 -111.353)" fill="url(#linear-gradient)"/>
  </g>
</svg>
