<svg xmlns="http://www.w3.org/2000/svg" xmlns:xlink="http://www.w3.org/1999/xlink" width="431.623" height="363.895" viewBox="0 0 431.623 363.895">
  <defs>
    <linearGradient id="linear-gradient" x1="0.32" x2="0.886" y2="0.52" gradientUnits="objectBoundingBox">
      <stop offset="0" stop-color="#b5e2f6"/>
      <stop offset="1" stop-color="#cae4ef"/>
    </linearGradient>
    <linearGradient id="linear-gradient-2" x1="0.511" y1="0.063" x2="0.5" y2="1.027" gradientUnits="objectBoundingBox">
      <stop offset="0" stop-color="#fff"/>
      <stop offset="0.496" stop-color="#d0f382"/>
      <stop offset="1" stop-color="#65ae57"/>
    </linearGradient>
    <linearGradient id="linear-gradient-3" x1="0.5" x2="0.5" y2="1" gradientUnits="objectBoundingBox">
      <stop offset="0" stop-color="#fad961"/>
      <stop offset="1" stop-color="#f76b1c"/>
    </linearGradient>
  </defs>
  <g id="Group_5984" data-name="Group 5984" transform="translate(10367 12626.994)">
    <g id="Group_4795" data-name="Group 4795" transform="translate(-10567 -20061)">
      <path id="Path_20888" data-name="Path 20888" d="M411.911,85.587a89.924,89.924,0,0,0-2.7,34.051c1.651,14.336,6.729,28.185,11.165,42.078,6.1,19.1,6.408,52.63,0,71.913-2.243,6.747-53.458,120.514-53.475,121.01,0,0,72.062.027,0,.035s-287.777,0-288.252,0c-3.379-.025-6.8-14.226-7.177-15.925C69,327.7,56.684,315.891,61.808,305.519c7.274-14.725,14.855-26.43,7.518-42.627C64.5,252.237,55.163,243.983,49.819,233.63a122.792,122.792,0,0,1-8.843-90.176C50.191,111.36,71.358,88.893,98.328,66.53c24.221-20.083,44.207-43.935,65.5-66.247H467.816s0,10.64,0,10.652c-.117,4.439-12.063,13.74-15.352,17.128-12.728,13.108-26.294,24.639-34.12,40.57a95.969,95.969,0,0,0-6.433,16.954" transform="translate(163.807 7433.723)" opacity="0.46" fill="url(#linear-gradient)"/>
      <path id="Path_20894" data-name="Path 20894" d="M110.73,324.053a251.193,251.193,0,0,1-25.47-36.592l.005,0-.1-.167c2.1-1.693,10.062-9.022,4.877-19.245l-.325-.642-.608.386c-6.581,4.182-7.248,10.312-6.706,14.6-1.831-3.338-3.655-6.823-5.429-10.448q-1.286-2.631-2.565-5.421l.086-.023-.081-.178c2.276-1.454,10.99-7.864,6.959-18.594l-.254-.674-.647.318c-7.226,3.545-8.415,9.845-8.255,14.193-2.065-4.823-4.051-9.939-5.865-15.3,2.552-1.169,11.917-6.281,9.472-17.386l-.154-.7-.685.222c-7.746,2.507-9.779,8.689-10.206,13.023-1.552-5.016-2.925-10.221-4.064-15.568,2.637-.99,12.328-5.422,10.682-16.665l-.1-.712-.7.173C63.1,210.5,60.494,216,59.616,220.228a148.728,148.728,0,0,1-1.936-15.912c2.8-.51,13.078-3.152,13.47-14.482l.024-.719-.718.044c-7.966.494-11.49,5.77-13.031,9.831a125.076,125.076,0,0,1,1.144-20.937c2.687-.059,13.458-1,15.588-12.274l.133-.707-.718-.065c-7.523-.68-11.762,3.489-14.01,7.146a112.684,112.684,0,0,1,3.294-12.924c1.554-1.059,11.072-8.113,6.189-19.163l-.289-.659-.629.353c-10.564,5.945-7.111,17.356-6.519,19.071a114.214,114.214,0,0,0-3.354,13.193c-.869-4.213-3.452-9.631-10.836-11.526l-.7-.179-.112.711c-1.766,11.326,8.069,15.832,10.593,16.793l-.043.191.089.005a125.887,125.887,0,0,0-1.166,19.652,14.046,14.046,0,0,0-12.162-9.006l-.716-.071,0,.72c-.03,11.464,10.376,14.426,13.015,14.993l-.014.195.176-.017a150.232,150.232,0,0,0,1.88,15.555A14.152,14.152,0,0,0,44.4,212.91l-.718.058.127.708c2.022,11.29,12.8,12.339,15.487,12.423l.021.2.149-.043c1,4.685,2.183,9.256,3.5,13.688a14,14,0,0,0-13.807-5.422l-.712.109.179.7c2.62,10.324,12.146,11.3,15.645,11.3.273,0,.493-.007.688-.014L65,246.8l.142-.052c1.648,4.866,3.435,9.537,5.3,13.968A14.035,14.035,0,0,0,55.783,257.1l-.689.209.273.665c3.205,7.767,9.834,9.166,14.193,9.166a20,20,0,0,0,3.553-.312q1.343,2.945,2.7,5.72c1.672,3.416,3.386,6.7,5.114,9.868a14.1,14.1,0,0,0-15.295-2.248l-.661.284.345.631a14.043,14.043,0,0,0,12.977,7.672,20.237,20.237,0,0,0,5.659-.827l.082.178.063-.043a253,253,0,0,0,25.653,36.855.653.653,0,1,0,.979-.865M74.692,229.885c1.671,9.519-6.115,13.932-8.655,15.1-.273-2.782-.4-11.732,8.655-15.1M70.2,210.11c.986,9.614-7.1,13.46-9.712,14.447-.075-2.8.437-11.732,9.712-14.447m-.4-19.585c-.746,9.626-9.368,11.968-12.128,12.474.455-2.744,2.64-11.462,12.128-12.474m2.161-24.284c.25,0,.5.005.757.017-2.2,9.413-11.094,10.414-13.888,10.494.818-2.6,4.056-10.511,13.132-10.511m8.432,82.644c3.005,9.175-4.056,14.648-6.409,16.173-.635-2.708-1.962-11.6,6.409-16.173M68.133,141.276c3.521,9-3.238,14.866-5.494,16.516-.82-2.673-2.718-11.419,5.494-16.516M47.8,161.964c9.249,2.8,9.675,11.743,9.574,14.537-2.606-1.01-10.651-4.933-9.574-14.537m-3.28,28.092c9.555,1.367,11.337,10.121,11.664,12.909-2.707-.631-11.268-3.376-11.664-12.909m.719,24.113c9.627-.361,12.964,7.932,13.785,10.615-2.779-.137-11.691-1.307-13.785-10.615m4.85,21.546c9.609-1.052,13.507,7,14.511,9.613-2.8.088-11.733-.359-14.511-9.613m6.781,22.44c9.023-2.325,13.992,4.481,15.56,7.158.042.1.086.193.129.289-2.783.46-11.682,1.169-15.69-7.447M89.2,269.3c3.992,8.791-2.426,15-4.6,16.78-.927-2.623-3.222-11.313,4.6-16.78M66.833,281.095c9.036-3.418,14.831,3.4,16.452,5.68-2.681.791-11.448,2.588-16.452-5.68" transform="translate(177.109 7411.488)" fill="#fff"/>
      <g id="Group_4736" data-name="Group 4736" transform="translate(-10 7314)">
        <g id="Group_3305" data-name="Group 3305" transform="translate(27 -4)">
          <path id="Path_12" data-name="Path 12" d="M68.6,427.8s-13.843-46.929-27.986-66.252-14.5-49.192,8.485-50.874,32.691,32.4,38.974,57.434S93.649,427.8,93.649,427.8Z" transform="translate(187.409 33.671)" fill="#fff"/>
          <path id="Path_13" data-name="Path 13" d="M88.88,401.568a.457.457,0,0,0-.631.137l-7.219,11.234q-2.263-9.7-4.611-18.2l7.945-14.489a.457.457,0,0,0-.8-.439l-7.492,13.663c-1.863-6.718-3.739-12.877-5.583-18.493l6.868-19.021a.456.456,0,0,0-.274-.585.461.461,0,0,0-.585.273l-6.474,17.93c-2.911-8.758-5.728-16.159-8.269-22.259l4.558-16.252a.457.457,0,1,0-.88-.246l-4.246,15.143c-6.017-14.227-10.349-20.96-10.44-21.1a.457.457,0,0,0-.764.5c.091.139,4.444,6.911,10.479,21.226L45.89,346.529a.457.457,0,1,0-.245.88l15.266,4.26c2.548,6.119,5.378,13.554,8.3,22.364L54.1,366.609a.457.457,0,0,0-.4.82l15.918,7.821c1.858,5.663,3.75,11.878,5.63,18.667l-12.989-4.946a.456.456,0,1,0-.324.853l13.612,5.183q2.348,8.564,4.638,18.327l-12.846-5.267a.457.457,0,0,0-.346.846l13.443,5.511q1.573,6.823,3.082,14.231a.458.458,0,0,0,.448.366.439.439,0,0,0,.09-.009.457.457,0,0,0,.357-.539q-1.508-7.449-3.1-14.292l7.7-11.982a.457.457,0,0,0-.137-.631" transform="translate(186.15 32.107)" fill="#98dbf9"/>
        </g>
        <g id="Group_3306" data-name="Group 3306" transform="translate(-93.638 88.536) rotate(-16)">
          <path id="Path_14" data-name="Path 14" d="M74.332,431.733h-20.7S13.935,389.1,23.225,370.2s24.75-18.447,32.881-1.269,18.225,62.8,18.225,62.8" transform="translate(188.186 29.735)" fill="#fff"/>
          <path id="Path_15" data-name="Path 15" d="M66.762,418.81a.458.458,0,0,0-.593.255l-3.022,7.576c-1.269-3.6-2.62-7.213-4.01-10.775l4.419-10.527a.457.457,0,1,0-.842-.353l-4.054,9.66c-1.617-4.1-3.274-8.122-4.906-11.955l4.781-12.634a.456.456,0,0,0-.854-.322l-4.444,11.742c-2.229-5.2-4.388-10.007-6.305-14.169l4.646-11.658a.457.457,0,1,0-.849-.339L46.4,386.165c-3.841-8.289-6.577-13.708-6.643-13.839a.457.457,0,1,0-.815.414c.067.132,2.835,5.614,6.709,13.982L33.2,384.693a.456.456,0,1,0-.147.9l13.068,2.128c1.938,4.206,4.123,9.076,6.374,14.335L37.342,398.84a.457.457,0,1,0-.19.894l15.777,3.349c1.655,3.886,3.334,7.964,4.971,12.127l-12.653-2.934a.457.457,0,0,0-.206.891L58.3,416.24c1.41,3.615,2.78,7.284,4.065,10.934l-9.052-3.331A.457.457,0,0,0,53,424.7l9.758,3.591q.818,2.356,1.586,4.694a.456.456,0,0,0,.434.315.482.482,0,0,0,.142-.022.458.458,0,0,0,.292-.576q-.77-2.361-1.6-4.749l3.41-8.55a.456.456,0,0,0-.255-.594" transform="translate(187.246 28.346)" fill="#98dbf9"/>
        </g>
      </g>
      <g id="Group_4734" data-name="Group 4734" transform="translate(484.563 7655.281)">
        <g id="Group_3307" data-name="Group 3307" transform="translate(0 0)">
          <path id="Path_12-2" data-name="Path 12" d="M55.841,427.8s13.843-46.929,27.986-66.252,14.5-49.191-8.485-50.874-32.692,32.4-38.974,57.434S30.8,427.8,30.8,427.8Z" transform="translate(-30.772 -310.611)" fill="#fff"/>
          <path id="Path_13-2" data-name="Path 13" d="M45.52,401.568a.457.457,0,0,1,.631.137l7.219,11.234q2.263-9.7,4.611-18.2l-7.945-14.489a.457.457,0,0,1,.8-.439l7.492,13.663c1.863-6.718,3.739-12.877,5.583-18.493l-6.868-19.021a.456.456,0,0,1,.274-.585.461.461,0,0,1,.585.273l6.474,17.93c2.911-8.758,5.728-16.158,8.269-22.259l-4.558-16.252a.457.457,0,1,1,.88-.246l4.246,15.143c6.017-14.227,10.349-20.96,10.44-21.1a.457.457,0,0,1,.765.5c-.091.139-4.444,6.911-10.479,21.226l14.571-4.065a.457.457,0,1,1,.245.88l-15.266,4.26c-2.548,6.119-5.378,13.554-8.3,22.364L80.3,366.609a.457.457,0,0,1,.4.82L64.784,375.25c-1.858,5.663-3.75,11.878-5.63,18.667l12.989-4.946a.456.456,0,1,1,.324.853l-13.612,5.183q-2.348,8.564-4.638,18.327l12.846-5.267a.457.457,0,0,1,.346.846l-13.443,5.511q-1.573,6.823-3.082,14.231a.458.458,0,0,1-.448.366.439.439,0,0,1-.09-.009.457.457,0,0,1-.357-.539q1.508-7.449,3.1-14.292l-7.7-11.982a.457.457,0,0,1,.137-.631" transform="translate(-39.467 -312.175)" fill="#98dbf9"/>
        </g>
        <g id="Group_3308" data-name="Group 3308" transform="translate(72.607 134.132) rotate(-164)">
          <path id="Path_14-2" data-name="Path 14" d="M52.516,0h-20.7S-7.881,42.635,1.409,61.531,26.159,79.979,34.29,62.8,52.516,0,52.516,0" transform="translate(0 0.178)" fill="#fff"/>
          <path id="Path_15-2" data-name="Path 15" d="M34.1,14.491a.458.458,0,0,1-.593-.255L30.482,6.659c-1.269,3.6-2.62,7.213-4.01,10.775l4.419,10.527a.457.457,0,1,1-.842.353l-4.054-9.66c-1.617,4.1-3.274,8.122-4.906,11.955l4.781,12.634a.456.456,0,0,1-.854.322L20.572,31.823c-2.229,5.2-4.388,10.007-6.305,14.169L18.913,57.65a.457.457,0,1,1-.849.339L13.739,47.136C9.9,55.424,7.162,60.843,7.1,60.974a.457.457,0,1,1-.815-.414c.067-.132,2.835-5.615,6.709-13.982L.53,48.607a.456.456,0,1,1-.147-.9l13.068-2.128c1.938-4.206,4.123-9.076,6.374-14.335L4.677,34.461a.457.457,0,1,1-.19-.894l15.777-3.349c1.655-3.886,3.334-7.964,4.971-12.127L12.582,21.024a.457.457,0,0,1-.206-.891L25.638,17.06c1.41-3.615,2.78-7.284,4.065-10.934L20.65,9.457a.457.457,0,0,1-.316-.857l9.759-3.591q.818-2.356,1.586-4.694A.456.456,0,0,1,32.112,0a.482.482,0,0,1,.142.022A.458.458,0,0,1,32.546.6q-.77,2.361-1.6,4.749l3.41,8.55a.456.456,0,0,1-.255.594" transform="translate(9.909 0)" fill="#98dbf9"/>
        </g>
      </g>
      <path id="Path_20889" data-name="Path 20889" d="M43.367,324.052a251.193,251.193,0,0,0,25.47-36.592l-.005,0,.1-.167c-2.1-1.693-10.062-9.022-4.877-19.245l.325-.642.608.386c6.581,4.182,7.248,10.312,6.706,14.6,1.831-3.338,3.655-6.823,5.429-10.448q1.286-2.631,2.565-5.421L79.6,266.5l.081-.178c-2.276-1.454-10.991-7.864-6.959-18.594l.254-.674.647.318c7.226,3.545,8.415,9.845,8.255,14.193,2.065-4.823,4.051-9.939,5.865-15.3-2.552-1.169-11.917-6.281-9.472-17.386l.154-.7.685.222c7.746,2.507,9.779,8.689,10.206,13.023,1.552-5.016,2.925-10.221,4.064-15.568-2.637-.99-12.328-5.422-10.682-16.665l.1-.712.7.173C91,210.5,93.6,216,94.481,220.227a148.726,148.726,0,0,0,1.936-15.912c-2.8-.51-13.078-3.152-13.47-14.482l-.024-.719.718.044c7.966.494,11.49,5.77,13.031,9.831a125.074,125.074,0,0,0-1.144-20.936c-2.687-.059-13.458-1-15.588-12.274l-.133-.707.718-.065c7.523-.68,11.762,3.489,14.01,7.146a112.683,112.683,0,0,0-3.294-12.924c-1.554-1.059-11.072-8.113-6.189-19.163l.289-.659.629.353c10.564,5.945,7.111,17.356,6.519,19.071a114.212,114.212,0,0,1,3.354,13.193c.869-4.213,3.452-9.631,10.836-11.526l.7-.179.112.711c1.766,11.326-8.069,15.832-10.593,16.793l.043.191-.089.005a125.887,125.887,0,0,1,1.166,19.652,14.046,14.046,0,0,1,12.162-9.006l.716-.071,0,.72c.03,11.464-10.376,14.426-13.015,14.993l.014.195-.176-.017a150.228,150.228,0,0,1-1.88,15.555,14.152,14.152,0,0,1,13.858-7.13l.718.058-.127.708c-2.022,11.29-12.8,12.339-15.487,12.423l-.021.2-.149-.043c-1,4.685-2.183,9.256-3.5,13.688a14,14,0,0,1,13.807-5.422l.712.109-.179.7c-2.62,10.324-12.146,11.3-15.645,11.3-.273,0-.493-.007-.688-.014l-.035.195-.142-.052c-1.648,4.866-3.435,9.537-5.3,13.968A14.035,14.035,0,0,1,98.314,257.1l.689.209-.273.665c-3.205,7.767-9.834,9.166-14.193,9.166a20,20,0,0,1-3.553-.312q-1.343,2.945-2.7,5.72c-1.672,3.416-3.386,6.7-5.114,9.868a14.1,14.1,0,0,1,15.295-2.248l.661.284-.345.631A14.043,14.043,0,0,1,75.8,288.755a20.237,20.237,0,0,1-5.659-.827l-.082.178L70,288.063a252.993,252.993,0,0,1-25.653,36.855.653.653,0,1,1-.979-.865M79.4,229.884c-1.671,9.519,6.115,13.932,8.655,15.1.273-2.782.4-11.732-8.655-15.1M83.9,210.11c-.986,9.614,7.1,13.46,9.712,14.447.075-2.8-.437-11.732-9.712-14.447m.4-19.585c.746,9.626,9.368,11.968,12.128,12.474-.455-2.744-2.64-11.462-12.128-12.474m-2.161-24.284c-.25,0-.5.005-.757.017,2.2,9.413,11.094,10.414,13.888,10.494-.818-2.6-4.056-10.511-13.132-10.511M73.7,248.885c-3.005,9.175,4.056,14.648,6.409,16.173.635-2.708,1.962-11.6-6.409-16.173M85.964,141.276c-3.521,9,3.238,14.866,5.494,16.516.82-2.673,2.718-11.419-5.494-16.516m20.33,20.688c-9.249,2.8-9.675,11.743-9.574,14.537,2.606-1.01,10.651-4.933,9.574-14.537m3.28,28.092c-9.555,1.367-11.337,10.121-11.664,12.909,2.707-.631,11.268-3.376,11.664-12.909m-.719,24.113c-9.627-.361-12.964,7.932-13.785,10.615,2.779-.137,11.691-1.307,13.785-10.615m-4.85,21.546c-9.609-1.052-13.507,7-14.511,9.613,2.8.088,11.733-.359,14.511-9.613m-6.781,22.44c-9.023-2.325-13.992,4.481-15.56,7.158-.042.1-.086.193-.129.289,2.783.46,11.682,1.169,15.69-7.447M64.9,269.3c-3.992,8.791,2.426,15,4.6,16.78.927-2.623,3.222-11.313-4.6-16.78m22.364,11.793c-9.036-3.418-14.831,3.4-16.452,5.68,2.681.791,11.448,2.588,16.452-5.68" transform="translate(447.109 7411.488)" fill="#fff"/>
      <path id="Path_20890" data-name="Path 20890" d="M418.629,456.253c0,9.778-83.73,17.706-187.016,17.706S44.6,466.031,44.6,456.253s83.731-17.713,187.017-17.713,187.016,7.932,187.016,17.713" transform="translate(159.454 7323.941)" fill="#c7dbe4"/>
    </g>
    <g id="Logo-presentation" transform="translate(-10270.695 -12485.941)">
      <g id="Group-2-Copy-3" transform="translate(0)">
        <path id="Path-Copy-3" d="M.958,95.145c0,52.1,41.515,94.483,92.543,94.483s92.54-42.386,92.54-94.483S144.525.662,93.5.662.958,43.046.958,95.145Z" transform="translate(2.59 1.789)" fill-rule="evenodd" fill="url(#linear-gradient-2)"/>
        <path id="Fill-3-Copy-3" d="M25.013,54.406h0a1.081,1.081,0,0,1-1.065-1.092l.1-52.226A1.079,1.079,0,0,1,25.118,0h0a1.081,1.081,0,0,1,1.065,1.092l-.1,52.226a1.079,1.079,0,0,1-1.068,1.088" transform="translate(64.757)" fill="#417505" fill-rule="evenodd"/>
        <path id="Fill-5-Copy-3" d="M22.778,47.866h0a1.081,1.081,0,0,1-1.066-1.092l.1-45.686A1.08,1.08,0,0,1,22.881,0h0a1.078,1.078,0,0,1,1.065,1.092l-.1,45.687a1.079,1.079,0,0,1-1.068,1.088" transform="translate(58.713)" fill="#417505" fill-rule="evenodd"/>
        <path id="Fill-7-Copy-3" d="M29.164,54.406h0A1.081,1.081,0,0,1,28.1,53.314l.1-52.226A1.08,1.08,0,0,1,29.266,0h0a1.078,1.078,0,0,1,1.065,1.092l-.1,52.226a1.079,1.079,0,0,1-1.068,1.088" transform="translate(75.981)" fill="#417505" fill-rule="evenodd"/>
        <path id="Fill-9-Copy-3" d="M31.08,47.866h0a1.081,1.081,0,0,1-1.066-1.092l.1-45.686A1.077,1.077,0,0,1,31.184,0h0a1.081,1.081,0,0,1,1.065,1.092l-.1,45.687a1.079,1.079,0,0,1-1.068,1.088" transform="translate(81.161)" fill="#417505" fill-rule="evenodd"/>
        <path id="Fill-11-Copy-3" d="M31.007,53.771c-2.073-1.554-4.157-3.1-6.307-4.541a6.923,6.923,0,0,1-2.4-2.583l.1-44.893A1.072,1.072,0,0,0,21.523.7c0-.009,0-.037,0-.037l-.128.011a.469.469,0,0,0-.054-.011h0a.834.834,0,0,0-.128.026l-.982.083c-.07,14.03-.213,39.005,0,51.768A10.064,10.064,0,0,0,25.1,61.507c3.168,1.9,6.39,3.708,9.864,5.716-.224-2.76-.359-5.48-.688-8.175a7.717,7.717,0,0,0-3.269-5.278" transform="translate(54.395 1.789)" fill="#417505" fill-rule="evenodd"/>
        <path id="Fill-13-Copy-3" d="M28.8,23.6c-2.9-1.827-5.639-3.932-8.658-6.06,0,1.724.043,3.292-.021,5.41a9.343,9.343,0,0,0,4.215,8.5c3.421,2.391,6.95,4.617,10.458,6.932-.1-1.461-.306-3.379-.282-4.922C34.6,27.6,32.579,25.974,28.8,23.6" transform="translate(54.396 47.421)" fill="#417505" fill-rule="evenodd"/>
        <path id="Fill-15-Copy-3" d="M28.8,28.228c-2.9-1.827-5.639-3.932-8.658-6.06,0,1.724.043,3.292-.021,5.411a9.343,9.343,0,0,0,4.215,8.5c3.421,2.391,6.95,4.617,10.458,6.932-.1-1.461-.306-3.379-.282-4.922.087-5.855-1.933-7.477-5.712-9.855" transform="translate(54.396 59.947)" fill="#417505" fill-rule="evenodd"/>
        <path id="Fill-17-Copy-3" d="M28.8,32.528c-2.9-1.827-5.639-3.932-8.658-6.06,0,1.724.043,3.292-.021,5.411a9.343,9.343,0,0,0,4.215,8.5c3.421,2.391,6.95,4.617,10.458,6.932-.1-1.46-.306-3.379-.282-4.922.087-5.855-1.933-7.477-5.712-9.855" transform="translate(54.396 71.579)" fill="#417505" fill-rule="evenodd"/>
        <path id="Fill-19-Copy-3" d="M28.8,37.16c-2.9-1.827-5.639-3.932-8.658-6.06,0,1.724.043,3.292-.021,5.41a9.343,9.343,0,0,0,4.215,8.5c3.421,2.391,6.95,4.617,10.458,6.932-.1-1.46-.306-3.379-.282-4.922.087-5.855-1.933-7.477-5.712-9.855" transform="translate(54.396 84.105)" fill="#417505" fill-rule="evenodd"/>
        <path id="Fill-21-Copy-3" d="M43.152,52.554c.173-10.431.111-29.095.043-43.227l.017-7.558a1.074,1.074,0,0,0-.055-.288c0-.268,0-.56,0-.82l-.965.022c-.015,0-.026-.007-.041-.007h0c-.017,0-.032.009-.049.009l-.2.007V.727a1.072,1.072,0,0,0-.818,1.038l-.1,45.115a7.045,7.045,0,0,1-2.3,2.365c-2.152,1.437-4.234,2.986-6.307,4.541A7.716,7.716,0,0,0,29.1,59.063c-.329,2.7-.463,5.415-.688,8.175,3.474-2.008,6.7-3.817,9.864-5.716a10.063,10.063,0,0,0,4.872-8.968" transform="translate(76.845 1.789)" fill="#417505" fill-rule="evenodd"/>
        <path id="Fill-23-Copy-3" d="M43.067,17.535c-3.019,2.128-5.754,4.234-8.658,6.06-3.777,2.378-5.8,4-5.712,9.855.024,1.545-.186,3.462-.282,4.922,3.508-2.315,7.037-4.541,10.458-6.93a9.35,9.35,0,0,0,4.217-8.5c-.064-2.119-.024-3.684-.024-5.41" transform="translate(76.845 47.421)" fill="#417505" fill-rule="evenodd"/>
        <path id="Fill-25-Copy-3" d="M43.067,22.167c-3.019,2.128-5.754,4.234-8.658,6.06-3.777,2.378-5.8,4-5.712,9.855.024,1.545-.186,3.462-.282,4.922,3.508-2.315,7.037-4.541,10.458-6.93a9.35,9.35,0,0,0,4.217-8.5c-.064-2.119-.024-3.684-.024-5.411" transform="translate(76.845 59.947)" fill="#417505" fill-rule="evenodd"/>
        <path id="Fill-27-Copy-3" d="M43.067,26.469c-3.019,2.127-5.754,4.233-8.658,6.06-3.777,2.379-5.8,4-5.712,9.855.024,1.546-.186,3.462-.282,4.922,3.508-2.315,7.037-4.541,10.458-6.93a9.35,9.35,0,0,0,4.217-8.5c-.064-2.119-.024-3.684-.024-5.411" transform="translate(76.845 71.579)" fill="#417505" fill-rule="evenodd"/>
        <path id="Fill-29-Copy-3" d="M43.067,31.1c-3.019,2.127-5.754,4.233-8.658,6.06-3.777,2.379-5.8,4-5.712,9.855.024,1.546-.186,3.462-.282,4.922,3.508-2.315,7.037-4.541,10.458-6.93a9.35,9.35,0,0,0,4.217-8.5c-.064-2.119-.024-3.684-.024-5.41" transform="translate(76.845 84.105)" fill="#417505" fill-rule="evenodd"/>
        <path id="Fill-31-Copy-3" d="M31.558,47.986,31.652,0H29.485l-.058,47.986a18.784,18.784,0,0,1-2.844,9.463,11.984,11.984,0,0,0-.626,12.2c.662,1.351,1.268,1.171,2.231,0,.784-.951,1.467-1.7,2.27-2.843.8,1.145,1.488,1.892,2.27,2.843.963,1.171,1.57,1.351,2.231,0a11.984,11.984,0,0,0-.626-12.2,21.232,21.232,0,0,1-2.776-9.463" transform="translate(66.483)" fill="#417505" fill-rule="evenodd"/>
        <path id="Fill-33-Copy-3" d="M30.247,18.861l-.009,0v.006a.55.55,0,0,0-.331.122,44.366,44.366,0,0,0-3.143,3.93,11.2,11.2,0,0,0-.781,12.075c.734,1.48,1.48,1.526,2.489.181.609-.809,1.1-1.691,1.653-2.555a.139.139,0,0,1,.243,0c.549.863,1.044,1.746,1.652,2.555,1.01,1.345,1.755,1.3,2.49-.181a11.2,11.2,0,0,0-.782-12.075,44.426,44.426,0,0,0-3.143-3.93.551.551,0,0,0-.331-.122v-.006l-.009,0" transform="translate(66.483 51)" fill="#417505" fill-rule="evenodd"/>
        <path id="Fill-35-Copy-3" d="M25.984,39.624c.734,1.48,1.48,1.528,2.489.183.609-.811,1.1-1.694,1.655-2.557a.318.318,0,0,1,.12-.07.322.322,0,0,1,.122.07c.549.863,1.044,1.746,1.655,2.557,1.008,1.345,1.755,1.3,2.487-.183A11.2,11.2,0,0,0,33.73,27.55a44.746,44.746,0,0,0-3.141-3.93.575.575,0,0,0-.333-.122v-.006l-.009,0-.009,0V23.5a.567.567,0,0,0-.331.122,44.366,44.366,0,0,0-3.143,3.93,11.2,11.2,0,0,0-.781,12.075" transform="translate(66.483 63.526)" fill="#417505" fill-rule="evenodd"/>
        <path id="Fill-37-Copy-3" d="M25.984,44.256c.734,1.48,1.48,1.528,2.489.183.609-.811,1.1-1.694,1.655-2.557a.318.318,0,0,1,.12-.07.322.322,0,0,1,.122.07c.549.863,1.044,1.746,1.655,2.557,1.008,1.345,1.755,1.3,2.487-.183a11.2,11.2,0,0,0-.782-12.075,44.745,44.745,0,0,0-3.141-3.93.575.575,0,0,0-.333-.122v-.006l-.009,0-.009,0v.006a.567.567,0,0,0-.331.122,44.365,44.365,0,0,0-3.143,3.93,11.2,11.2,0,0,0-.781,12.075" transform="translate(66.483 76.053)" fill="#417505" fill-rule="evenodd"/>
        <path id="Fill-39-Copy-3" d="M30.328,32.755s-5.744,5.382-5.744,10.472c0,3.725,3.149,7.848,4.843,9.8V90.6h2.135V52.9c1.605-1.995,4.433-6.025,4.433-9.677,0-5.09-5.667-10.472-5.667-10.472" transform="translate(66.483 88.579)" fill="#417505" fill-rule="evenodd"/>
        <path id="Path-Copy-4" d="M43.348,5.9l-.472.342C30.21,15.35-10,49.465,4.316,106.317c8.494,33.743,30.426,51.764,47.329,60.941,17.988,9.77,34.44,11.916,40.033,11.316-.128-6.969-1.648-33.838-17.081-53.691-16.737-21.542-23.341-34.9-22.075-44.659.536-4.135.29-5.91.1-6.6-3.177,2.151-13.546,20.45-4.281,46l5.509,15.19L44.6,121.646c-1.127-1.6-27.472-39.668-18.469-75.455,6.188-24.578,14.88-34.24,19.056-38.883,1.17-1.3,1.283-2.082,1.249-2.219a1.1,1.1,0,0,0-.619-.126A4.207,4.207,0,0,0,43.348,5.9Z" transform="translate(3.454 13.421)" fill-rule="evenodd" fill="url(#linear-gradient-3)"/>
        <path id="Fill-41-Copy-3" d="M30.149,181.608c5.686.632,22.5-1.565,40.817-11.523,16.912-9.189,38.859-27.185,47.385-60.734C132.79,52.505,92.212,18.39,79.434,9.287l-.478-.342c-1.6-1.19-2.963-.99-3.183-.765a4.212,4.212,0,0,0,1.288,2.16c4.215,4.641,12.988,14.3,19.231,38.885,9.087,35.792-17.5,73.862-18.635,75.466L68.4,137.746l5.525-15.1c9.9-27.048-2.363-44.682-4.065-45.828a3.122,3.122,0,0,0-.29-.177c-.2.676-.453,2.442.092,6.614,1.277,9.764-5.387,23.122-22.282,44.666-15.567,19.85-17.1,46.715-17.231,53.682m2.152,4.434a15.844,15.844,0,0,1-5-.608l-1.381-.5-.045-1.491c-.04-1.382-.769-34.087,18.174-58.243,15.665-19.977,22.46-33.121,21.379-41.366-.824-6.328-.246-9.764,1.885-11.139.961-.621,2.588-1.044,4.87.469,3.4,2.254,12.049,15.876,9.393,36.345C88.713,95.545,97.7,72.127,92.157,50.317,86.183,26.8,77.9,17.684,73.927,13.3,70.793,9.849,71.177,6.9,72.584,5.28c1.949-2.241,5.773-2.18,8.891.144l.4.29c13.349,9.509,55.737,45.163,40.6,104.729-8.914,35.083-31.843,53.892-49.509,63.489-16.347,8.886-32.189,12.109-40.672,12.109" transform="translate(69.937 9.842)" fill="#231f20" fill-rule="evenodd"/>
        <path id="Fill-43-Copy-3" d="M48.83,8a4.208,4.208,0,0,0-2.47.942l-.472.342C33.222,18.383-6.986,52.5,7.328,109.35c8.493,33.742,30.426,51.764,47.329,60.941,17.988,9.77,34.44,11.915,40.034,11.316-.128-6.969-1.648-33.839-17.081-53.691-16.737-21.542-23.341-34.9-22.075-44.659.536-4.135.29-5.91.1-6.6-.075.044-.16.094-.256.159-2.921,1.993-13.289,20.291-4.025,45.839l5.509,15.189-9.245-13.162c-1.127-1.6-27.472-39.667-18.469-75.455,6.188-24.578,14.88-34.24,19.056-38.883,1.17-1.3,1.284-2.082,1.249-2.219A1.1,1.1,0,0,0,48.83,8m3.82,166.145c-17.659-9.589-40.578-28.423-49.46-63.705C-11.8,50.878,30.2,15.222,43.43,5.713l.4-.29c3.081-2.313,6.873-2.385,8.827-.168,1.414,1.609,1.813,4.567-1.309,8.037C47.4,17.672,39.2,26.788,33.282,50.309,27.8,72.1,36.651,95.46,43.719,109.429,41.116,89,49.671,75.415,53.036,73.166c2.263-1.513,3.884-1.094,4.84-.482,2.129,1.367,2.712,4.8,1.89,11.144-1.067,8.251,5.665,21.4,21.189,41.379C99.727,149.358,99,182.058,98.963,183.436l-.043,1.491-1.377.5a15.607,15.607,0,0,1-4.941.606C84.267,186.035,68.723,182.869,52.65,174.141Z" transform="translate(0 9.842)" fill="#231f20" fill-rule="evenodd"/>
        <path id="Clip-52-Copy-3" d="M72.782,5.135a1.134,1.134,0,0,1,.722-.172,4.213,4.213,0,0,1,2.463.937l.476.345c12.786,9.116,52.566,42.932,38.12,99.868-8.529,33.608-29.67,52-46.589,61.2-18.331,9.975-35.147,12.176-40.835,11.542.128-6.979,1.664-33.887,17.239-53.771C61.28,103.5,67.946,90.122,66.669,80.34c-.547-4.18-.29-5.948-.094-6.627.081.046.18.1.291.179C68.57,75.04,80.832,92.7,70.934,119.8L65.4,134.918l9.261-13.077C75.8,120.234,102.4,82.1,93.306,46.248,87.061,21.621,78.284,11.946,74.068,7.3A4.22,4.22,0,0,1,72.782,5.135Z" transform="translate(73.391 13.421)" fill="url(#linear-gradient-3)"/>
      </g>
    </g>
  </g>
</svg>
