<svg xmlns="http://www.w3.org/2000/svg" xmlns:xlink="http://www.w3.org/1999/xlink" width="431.623" height="361.994" viewBox="0 0 431.623 361.994">
  <defs>
    <linearGradient id="linear-gradient" x1="0.32" x2="0.886" y2="0.52" gradientUnits="objectBoundingBox">
      <stop offset="0" stop-color="#b5e2f6"/>
      <stop offset="1" stop-color="#cae4ef"/>
    </linearGradient>
  </defs>
  <g id="Group_4214" data-name="Group 4214" transform="translate(-200 -4371.006)">
    <g id="Group_4102" data-name="Group 4102" transform="translate(-10 4251)">
      <g id="Group_3305" data-name="Group 3305" transform="translate(27 -4)">
        <path id="Path_12" data-name="Path 12" d="M68.6,427.8s-13.843-46.929-27.986-66.252-14.5-49.192,8.485-50.874,32.691,32.4,38.974,57.434S93.649,427.8,93.649,427.8Z" transform="translate(187.409 33.671)" fill="#fff"/>
        <path id="Path_13" data-name="Path 13" d="M88.88,401.568a.457.457,0,0,0-.631.137l-7.219,11.234q-2.263-9.7-4.611-18.2l7.945-14.489a.457.457,0,0,0-.8-.439l-7.492,13.663c-1.863-6.718-3.739-12.877-5.583-18.493l6.868-19.021a.456.456,0,0,0-.274-.585.461.461,0,0,0-.585.273l-6.474,17.93c-2.911-8.758-5.728-16.159-8.269-22.259l4.558-16.252a.457.457,0,1,0-.88-.246l-4.246,15.143c-6.017-14.227-10.349-20.96-10.44-21.1a.457.457,0,0,0-.764.5c.091.139,4.444,6.911,10.479,21.226L45.89,346.529a.457.457,0,1,0-.245.88l15.266,4.26c2.548,6.119,5.378,13.554,8.3,22.364L54.1,366.609a.457.457,0,0,0-.4.82l15.918,7.821c1.858,5.663,3.75,11.878,5.63,18.667l-12.989-4.946a.456.456,0,1,0-.324.853l13.612,5.183q2.348,8.564,4.638,18.327l-12.846-5.267a.457.457,0,0,0-.346.846l13.443,5.511q1.573,6.823,3.082,14.231a.458.458,0,0,0,.448.366.439.439,0,0,0,.09-.009.457.457,0,0,0,.357-.539q-1.508-7.449-3.1-14.292l7.7-11.982a.457.457,0,0,0-.137-.631" transform="translate(186.15 32.107)" fill="#98dbf9"/>
      </g>
      <g id="Group_3306" data-name="Group 3306" transform="translate(-93.638 88.536) rotate(-16)">
        <path id="Path_14" data-name="Path 14" d="M74.332,431.733h-20.7S13.935,389.1,23.225,370.2s24.75-18.447,32.881-1.269,18.225,62.8,18.225,62.8" transform="translate(188.186 29.735)" fill="#fff"/>
        <path id="Path_15" data-name="Path 15" d="M66.762,418.81a.458.458,0,0,0-.593.255l-3.022,7.576c-1.269-3.6-2.62-7.213-4.01-10.775l4.419-10.527a.457.457,0,1,0-.842-.353l-4.054,9.66c-1.617-4.1-3.274-8.122-4.906-11.955l4.781-12.634a.456.456,0,0,0-.854-.322l-4.444,11.742c-2.229-5.2-4.388-10.007-6.305-14.169l4.646-11.658a.457.457,0,1,0-.849-.339L46.4,386.165c-3.841-8.289-6.577-13.708-6.643-13.839a.457.457,0,1,0-.815.414c.067.132,2.835,5.614,6.709,13.982L33.2,384.693a.456.456,0,1,0-.147.9l13.068,2.128c1.938,4.206,4.123,9.076,6.374,14.335L37.342,398.84a.457.457,0,1,0-.19.894l15.777,3.349c1.655,3.886,3.334,7.964,4.971,12.127l-12.653-2.934a.457.457,0,0,0-.206.891L58.3,416.24c1.41,3.615,2.78,7.284,4.065,10.934l-9.052-3.331A.457.457,0,0,0,53,424.7l9.758,3.591q.818,2.356,1.586,4.694a.456.456,0,0,0,.434.315.482.482,0,0,0,.142-.022.458.458,0,0,0,.292-.576q-.77-2.361-1.6-4.749l3.41-8.55a.456.456,0,0,0-.255-.594" transform="translate(187.246 28.346)" fill="#98dbf9"/>
      </g>
    </g>
    <g id="Group_4213" data-name="Group 4213">
      <g id="Group_4100" data-name="Group 4100" transform="translate(484.563 4592.281)">
        <g id="Group_3307" data-name="Group 3307" transform="translate(0 0)">
          <path id="Path_12-2" data-name="Path 12" d="M55.841,427.8s13.843-46.929,27.986-66.252,14.5-49.191-8.485-50.874-32.692,32.4-38.974,57.434S30.8,427.8,30.8,427.8Z" transform="translate(-30.772 -310.611)" fill="#fff"/>
          <path id="Path_13-2" data-name="Path 13" d="M45.52,401.568a.457.457,0,0,1,.631.137l7.219,11.234q2.263-9.7,4.611-18.2l-7.945-14.489a.457.457,0,0,1,.8-.439l7.492,13.663c1.863-6.718,3.739-12.877,5.583-18.493l-6.868-19.021a.456.456,0,0,1,.274-.585.461.461,0,0,1,.585.273l6.474,17.93c2.911-8.758,5.728-16.158,8.269-22.259l-4.558-16.252a.457.457,0,1,1,.88-.246l4.246,15.143c6.017-14.227,10.349-20.96,10.44-21.1a.457.457,0,0,1,.765.5c-.091.139-4.444,6.911-10.479,21.226l14.571-4.065a.457.457,0,1,1,.245.88l-15.266,4.26c-2.548,6.119-5.378,13.554-8.3,22.364L80.3,366.609a.457.457,0,0,1,.4.82L64.784,375.25c-1.858,5.663-3.75,11.878-5.63,18.667l12.989-4.946a.456.456,0,1,1,.324.853l-13.612,5.183q-2.348,8.564-4.638,18.327l12.846-5.267a.457.457,0,0,1,.346.846l-13.443,5.511q-1.573,6.823-3.082,14.231a.458.458,0,0,1-.448.366.439.439,0,0,1-.09-.009.457.457,0,0,1-.357-.539q1.508-7.449,3.1-14.292l-7.7-11.982a.457.457,0,0,1,.137-.631" transform="translate(-39.467 -312.175)" fill="#98dbf9"/>
        </g>
        <g id="Group_3308" data-name="Group 3308" transform="translate(72.607 134.132) rotate(-164)">
          <path id="Path_14-2" data-name="Path 14" d="M52.516,0h-20.7S-7.881,42.635,1.409,61.531,26.159,79.979,34.29,62.8,52.516,0,52.516,0" transform="translate(0 0.178)" fill="#fff"/>
          <path id="Path_15-2" data-name="Path 15" d="M34.1,14.491a.458.458,0,0,1-.593-.255L30.482,6.659c-1.269,3.6-2.62,7.213-4.01,10.775l4.419,10.527a.457.457,0,1,1-.842.353l-4.054-9.66c-1.617,4.1-3.274,8.122-4.906,11.955l4.781,12.634a.456.456,0,0,1-.854.322L20.572,31.823c-2.229,5.2-4.388,10.007-6.305,14.169L18.913,57.65a.457.457,0,1,1-.849.339L13.739,47.136C9.9,55.424,7.162,60.843,7.1,60.974a.457.457,0,1,1-.815-.414c.067-.132,2.835-5.615,6.709-13.982L.53,48.607a.456.456,0,1,1-.147-.9l13.068-2.128c1.938-4.206,4.123-9.076,6.374-14.335L4.677,34.461a.457.457,0,1,1-.19-.894l15.777-3.349c1.655-3.886,3.334-7.964,4.971-12.127L12.582,21.024a.457.457,0,0,1-.206-.891L25.638,17.06c1.41-3.615,2.78-7.284,4.065-10.934L20.65,9.457a.457.457,0,0,1-.316-.857l9.759-3.591q.818-2.356,1.586-4.694A.456.456,0,0,1,32.112,0a.482.482,0,0,1,.142.022A.458.458,0,0,1,32.546.6q-.77,2.361-1.6,4.749l3.41,8.55a.456.456,0,0,1-.255.594" transform="translate(9.909 0)" fill="#98dbf9"/>
        </g>
      </g>
      <g id="Group_4212" data-name="Group 4212">
        <path id="Path_19913" data-name="Path 19913" d="M411.911,85.587a89.924,89.924,0,0,0-2.7,34.051c1.651,14.336,6.729,28.185,11.165,42.078,6.1,19.1,6.408,52.63,0,71.913-2.243,6.747-53.458,120.514-53.475,121.01,0,0,72.062.027,0,.035s-287.777,0-288.252,0c-3.379-.025-6.8-14.226-7.177-15.925C69,327.7,56.684,315.891,61.808,305.519c7.274-14.725,14.855-26.43,7.518-42.627C64.5,252.237,55.163,243.983,49.819,233.63a122.792,122.792,0,0,1-8.843-90.176C50.191,111.36,71.358,88.893,98.328,66.53c24.221-20.083,44.207-43.935,65.5-66.247H467.816s0,10.64,0,10.652c-.117,4.439-12.063,13.74-15.352,17.128-12.728,13.108-26.294,24.639-34.12,40.57a95.969,95.969,0,0,0-6.433,16.954" transform="translate(163.807 4370.723)" opacity="0.46" fill="url(#linear-gradient)"/>
        <path id="Path_19916" data-name="Path 19916" d="M110.73,324.053a251.193,251.193,0,0,1-25.47-36.592l.005,0-.1-.167c2.1-1.693,10.062-9.022,4.877-19.245l-.325-.642-.608.386c-6.581,4.182-7.248,10.312-6.706,14.6-1.831-3.338-3.655-6.823-5.429-10.448q-1.286-2.631-2.565-5.421l.086-.023-.081-.178c2.276-1.454,10.99-7.864,6.959-18.594l-.254-.674-.647.318c-7.226,3.545-8.415,9.845-8.255,14.193-2.065-4.823-4.051-9.939-5.865-15.3,2.552-1.169,11.917-6.281,9.472-17.386l-.154-.7-.685.222c-7.746,2.507-9.779,8.689-10.206,13.023-1.552-5.016-2.925-10.221-4.064-15.568,2.637-.99,12.328-5.422,10.682-16.665l-.1-.712-.7.173C63.1,210.5,60.494,216,59.616,220.228a148.728,148.728,0,0,1-1.936-15.912c2.8-.51,13.078-3.152,13.47-14.482l.024-.719-.718.044c-7.966.494-11.49,5.77-13.031,9.831a125.076,125.076,0,0,1,1.144-20.937c2.687-.059,13.458-1,15.588-12.274l.133-.707-.718-.065c-7.523-.68-11.762,3.489-14.01,7.146a112.684,112.684,0,0,1,3.294-12.924c1.554-1.059,11.072-8.113,6.189-19.163l-.289-.659-.629.353c-10.564,5.945-7.111,17.356-6.519,19.071a114.214,114.214,0,0,0-3.354,13.193c-.869-4.213-3.452-9.631-10.836-11.526l-.7-.179-.112.711c-1.766,11.326,8.069,15.832,10.593,16.793l-.043.191.089.005a125.887,125.887,0,0,0-1.166,19.652,14.046,14.046,0,0,0-12.162-9.006l-.716-.071,0,.72c-.03,11.464,10.376,14.426,13.015,14.993l-.014.195.176-.017a150.232,150.232,0,0,0,1.88,15.555A14.152,14.152,0,0,0,44.4,212.91l-.718.058.127.708c2.022,11.29,12.8,12.339,15.487,12.423l.021.2.149-.043c1,4.685,2.183,9.256,3.5,13.688a14,14,0,0,0-13.807-5.422l-.712.109.179.7c2.62,10.324,12.146,11.3,15.645,11.3.273,0,.493-.007.688-.014L65,246.8l.142-.052c1.648,4.866,3.435,9.537,5.3,13.968A14.035,14.035,0,0,0,55.783,257.1l-.689.209.273.665c3.205,7.767,9.834,9.166,14.193,9.166a20,20,0,0,0,3.553-.312q1.343,2.945,2.7,5.72c1.672,3.416,3.386,6.7,5.114,9.868a14.1,14.1,0,0,0-15.295-2.248l-.661.284.345.631a14.043,14.043,0,0,0,12.977,7.672,20.237,20.237,0,0,0,5.659-.827l.082.178.063-.043a253,253,0,0,0,25.653,36.855.653.653,0,1,0,.979-.865M74.692,229.885c1.671,9.519-6.115,13.932-8.655,15.1-.273-2.782-.4-11.732,8.655-15.1M70.2,210.11c.986,9.614-7.1,13.46-9.712,14.447-.075-2.8.437-11.732,9.712-14.447m-.4-19.585c-.746,9.626-9.368,11.968-12.128,12.474.455-2.744,2.64-11.462,12.128-12.474m2.161-24.284c.25,0,.5.005.757.017-2.2,9.413-11.094,10.414-13.888,10.494.818-2.6,4.056-10.511,13.132-10.511m8.432,82.644c3.005,9.175-4.056,14.648-6.409,16.173-.635-2.708-1.962-11.6,6.409-16.173M68.133,141.276c3.521,9-3.238,14.866-5.494,16.516-.82-2.673-2.718-11.419,5.494-16.516M47.8,161.964c9.249,2.8,9.675,11.743,9.574,14.537-2.606-1.01-10.651-4.933-9.574-14.537m-3.28,28.092c9.555,1.367,11.337,10.121,11.664,12.909-2.707-.631-11.268-3.376-11.664-12.909m.719,24.113c9.627-.361,12.964,7.932,13.785,10.615-2.779-.137-11.691-1.307-13.785-10.615m4.85,21.546c9.609-1.052,13.507,7,14.511,9.613-2.8.088-11.733-.359-14.511-9.613m6.781,22.44c9.023-2.325,13.992,4.481,15.56,7.158.042.1.086.193.129.289-2.783.46-11.682,1.169-15.69-7.447M89.2,269.3c3.992,8.791-2.426,15-4.6,16.78-.927-2.623-3.222-11.313,4.6-16.78M66.833,281.095c9.036-3.418,14.831,3.4,16.452,5.68-2.681.791-11.448,2.588-16.452-5.68" transform="translate(177.109 4348.488)" fill="#fff"/>
        <path id="Path_19914" data-name="Path 19914" d="M43.367,324.052a251.193,251.193,0,0,0,25.47-36.592l-.005,0,.1-.167c-2.1-1.693-10.062-9.022-4.877-19.245l.325-.642.608.386c6.581,4.182,7.248,10.312,6.706,14.6,1.831-3.338,3.655-6.823,5.429-10.448q1.286-2.631,2.565-5.421L79.6,266.5l.081-.178c-2.276-1.454-10.991-7.864-6.959-18.594l.254-.674.647.318c7.226,3.545,8.415,9.845,8.255,14.193,2.065-4.823,4.051-9.939,5.865-15.3-2.552-1.169-11.917-6.281-9.472-17.386l.154-.7.685.222c7.746,2.507,9.779,8.689,10.206,13.023,1.552-5.016,2.925-10.221,4.064-15.568-2.637-.99-12.328-5.422-10.682-16.665l.1-.712.7.173C91,210.5,93.6,216,94.481,220.227a148.726,148.726,0,0,0,1.936-15.912c-2.8-.51-13.078-3.152-13.47-14.482l-.024-.719.718.044c7.966.494,11.49,5.77,13.031,9.831a125.074,125.074,0,0,0-1.144-20.936c-2.687-.059-13.458-1-15.588-12.274l-.133-.707.718-.065c7.523-.68,11.762,3.489,14.01,7.146a112.683,112.683,0,0,0-3.294-12.924c-1.554-1.059-11.072-8.113-6.189-19.163l.289-.659.629.353c10.564,5.945,7.111,17.356,6.519,19.071a114.212,114.212,0,0,1,3.354,13.193c.869-4.213,3.452-9.631,10.836-11.526l.7-.179.112.711c1.766,11.326-8.069,15.832-10.593,16.793l.043.191-.089.005a125.887,125.887,0,0,1,1.166,19.652,14.046,14.046,0,0,1,12.162-9.006l.716-.071,0,.72c.03,11.464-10.376,14.426-13.015,14.993l.014.195-.176-.017a150.228,150.228,0,0,1-1.88,15.555,14.152,14.152,0,0,1,13.858-7.13l.718.058-.127.708c-2.022,11.29-12.8,12.339-15.487,12.423l-.021.2-.149-.043c-1,4.685-2.183,9.256-3.5,13.688a14,14,0,0,1,13.807-5.422l.712.109-.179.7c-2.62,10.324-12.146,11.3-15.645,11.3-.273,0-.493-.007-.688-.014l-.035.195-.142-.052c-1.648,4.866-3.435,9.537-5.3,13.968A14.035,14.035,0,0,1,98.314,257.1l.689.209-.273.665c-3.205,7.767-9.834,9.166-14.193,9.166a20,20,0,0,1-3.553-.312q-1.343,2.945-2.7,5.72c-1.672,3.416-3.386,6.7-5.114,9.868a14.1,14.1,0,0,1,15.295-2.248l.661.284-.345.631A14.043,14.043,0,0,1,75.8,288.755a20.237,20.237,0,0,1-5.659-.827l-.082.178L70,288.063a252.993,252.993,0,0,1-25.653,36.855.653.653,0,1,1-.979-.865M79.4,229.884c-1.671,9.519,6.115,13.932,8.655,15.1.273-2.782.4-11.732-8.655-15.1M83.9,210.11c-.986,9.614,7.1,13.46,9.712,14.447.075-2.8-.437-11.732-9.712-14.447m.4-19.585c.746,9.626,9.368,11.968,12.128,12.474-.455-2.744-2.64-11.462-12.128-12.474m-2.161-24.284c-.25,0-.5.005-.757.017,2.2,9.413,11.094,10.414,13.888,10.494-.818-2.6-4.056-10.511-13.132-10.511M73.7,248.885c-3.005,9.175,4.056,14.648,6.409,16.173.635-2.708,1.962-11.6-6.409-16.173M85.964,141.276c-3.521,9,3.238,14.866,5.494,16.516.82-2.673,2.718-11.419-5.494-16.516m20.33,20.688c-9.249,2.8-9.675,11.743-9.574,14.537,2.606-1.01,10.651-4.933,9.574-14.537m3.28,28.092c-9.555,1.367-11.337,10.121-11.664,12.909,2.707-.631,11.268-3.376,11.664-12.909m-.719,24.113c-9.627-.361-12.964,7.932-13.785,10.615,2.779-.137,11.691-1.307,13.785-10.615m-4.85,21.546c-9.609-1.052-13.507,7-14.511,9.613,2.8.088,11.733-.359,14.511-9.613m-6.781,22.44c-9.023-2.325-13.992,4.481-15.56,7.158-.042.1-.086.193-.129.289,2.783.46,11.682,1.169,15.69-7.447M64.9,269.3c-3.992,8.791,2.426,15,4.6,16.78.927-2.623,3.222-11.313-4.6-16.78m22.364,11.793c-9.036-3.418-14.831,3.4-16.452,5.68,2.681.791,11.448,2.588,16.452-5.68" transform="translate(447.109 4348.488)" fill="#fff"/>
        <path id="Path_19915" data-name="Path 19915" d="M378.463,454.351c0,8.728-74.738,15.8-166.933,15.8S44.6,463.079,44.6,454.351,119.335,438.54,211.53,438.54s166.933,7.08,166.933,15.811" transform="translate(179.537 4262.844)" fill="#c7dbe4"/>
        <g id="Group_4104" data-name="Group 4104">
          <g id="Group_4103" data-name="Group 4103" transform="translate(289 4462.916)">
            <path id="Path_19917" data-name="Path 19917" d="M20.482,28.7S4.561,61.113,3.173,65.835s8.342,38.32,8.342,38.32,5.543-.278,6.932-2.221L15.39,70.555A37.4,37.4,0,0,0,29,51.4C32.606,38.9,20.482,28.7,20.482,28.7" transform="translate(1.265 11.955)" fill="#133a50"/>
            <path id="Path_19918" data-name="Path 19918" d="M6.033,68.084l34.79.572c1.567.062,2.747,1.024,2.645,2.147L41.03,95.585c-.1,1.115-1.433,1.975-2.986,1.921L3.337,97c-2.5-.453-3.428-1.132-3.33-2.276L2.3,70.1c.1-1.153.827-1.786,3.731-2.017" transform="translate(0 28.356)" fill="#97a3cc"/>
            <path id="Path_19919" data-name="Path 19919" d="M6.51,68.074l34.87.569c1.574.062,2.762,1.027,2.662,2.154l-2.459,24.89c-.1,1.118-1.441,1.977-3,1.925L3.8,97.1c-1.639-.058-2.89-1.04-2.789-2.191L3.334,70.06c.1-1.162,1.527-2.051,3.176-1.986" transform="translate(0.418 28.35)" fill="#edf1f2"/>
            <path id="Path_19920" data-name="Path 19920" d="M77.4,59.125s5.06.742,6.088.949a20.586,20.586,0,0,1,5.342,2.482c.686.673,2.673,4.036,2.468,4.189a3.778,3.778,0,0,1-1.782.364c-.411-.1-.959-.205-2.809.309s-3.288,1.295-4.727.622a7.078,7.078,0,0,1-3.15-2.174,9.18,9.18,0,0,0-3.22-2.273Z" transform="translate(31.489 24.624)" fill="#fec4ad"/>
            <path id="Path_19921" data-name="Path 19921" d="M82.393,58.618a13.331,13.331,0,0,0-.547,2.586l1.713.766,1.3-.922,2.054.156Z" transform="translate(34.087 24.413)" fill="#fec4ad"/>
            <path id="Path_19922" data-name="Path 19922" d="M92.072,60.283l-4.111.429L85.017,59.8l-1.232.911L79.331,66.14l5.309,2.534h2.705s1.643-1.965,2.6-2.275,3.775-1.162,3.775-1.162Z" transform="translate(33.04 24.906)" fill="#fec4ad"/>
            <path id="Path_19923" data-name="Path 19923" d="M86,72.661l2.69,6.742s22.59-7.33,23.766-8.309,19.2-23.909,19.2-23.909-1.371-11.17-5.291-13.717a14.625,14.625,0,0,0-7.251-2.548L103.737,60.315Z" transform="translate(35.816 12.878)" fill="#364469"/>
            <path id="Path_19924" data-name="Path 19924" d="M139.765,175.29v7.071h-13.59s.511-2.56,6.956-3.741l.948-3.33Z" transform="translate(52.55 73.005)" fill="#133a50"/>
            <path id="Path_19925" data-name="Path 19925" d="M121.171,175.29v7.071h-13.59s.51-2.56,6.955-3.741l.948-3.33Z" transform="translate(44.806 73.005)" fill="#133a50"/>
            <path id="Path_19926" data-name="Path 19926" d="M131.378,22.367a17.23,17.23,0,0,0,1.407,7.291c.66,1.816,6.864,3.928,6.864,3.928s-18.757,20.841-26,20.709,3.164-19.654,3.164-19.654,3.036-1.846,3.7-3.826a40.75,40.75,0,0,0,1.055-6.469l8.492-10.866Z" transform="translate(46.266 5.614)" fill="#fec4ad"/>
            <path id="Path_19927" data-name="Path 19927" d="M116.723,5.156c-1.232.792-3.346,2.463-3.432,3.7a51.836,51.836,0,0,0-.353,6.951c.177,2.112.263,7.567.616,10.032s.663,5.806,1.255,6.248,6.487.615,7.72,0,7.3-6.689,7.038-11.968c0,0,2.332,1.1,4.181-3.652.48-1.239-3.663-5.987-4.173-7.435-1.239-3.52-8.366-2.551-10.3-2.816a3.923,3.923,0,0,1-2.55-1.055" transform="translate(47.02 2.147)" fill="#fec4ad"/>
            <path id="Path_19928" data-name="Path 19928" d="M113.666,11s.7-1.671,2.111-.969a15.358,15.358,0,0,0,6.689.969,15.865,15.865,0,0,0,4.487-1.142s0,3.254.615,4.133,2.024,1.936,2.112,2.992a14.575,14.575,0,0,1,0,2.112s1.408-1.849,2.55-1.5,1.146,2.288,0,3.167a18.953,18.953,0,0,1-2.286,1.5,14.03,14.03,0,0,0,.265,2.639c.263,1.145.792,3.081.792,3.081s2.463-6.687,4.487-9.415,2.99-8.359-.969-10.471a6.469,6.469,0,0,0-5.543-6.247c-5.544-.969-10.383.439-12.758-.353A7.4,7.4,0,0,1,113.226,0s-2.023,4.048-.88,6.687A16.414,16.414,0,0,1,113.666,11" transform="translate(46.644)" fill="#7b2b1a"/>
            <path id="Path_19929" data-name="Path 19929" d="M113.222,19.462c.19,1.269.441,2.289,1.32,2.2s1.055-1.05,3.078-1.1,3.432,1.45,4.752,1.8,4.663-2.637,5.367-5.453,1.145-5.544,1.145-5.544l.967.967s-.616,5.1-.7,8.1-1.671,7.3-5.1,9.063-8.446.967-9.415,0-1.027-4.4-1.436-5.9a12.58,12.58,0,0,1,.03-4.135" transform="translate(47.069 4.735)" fill="#7b2b1a"/>
            <path id="Path_19930" data-name="Path 19930" d="M140.162,76.337s6.041,22.481,6.128,46.633.336,94.879.336,94.879h-9.754s-7.677-68.311-11.333-83.837-13.161-60.953-13.161-60.953Z" transform="translate(46.803 30.428)" fill="#133a50"/>
            <path id="Path_19931" data-name="Path 19931" d="M127.22,101.059s-1.829,36.8-2.194,44.046,0,72.759,0,72.759-9.139.248-9.139,0-8.618-69.138-9.734-86.993-.462-39.02-1.945-41.49,4-16.444,4-16.444l12.937,3.452Z" transform="translate(43.295 30.377)" fill="#133a50"/>
            <path id="Path_19932" data-name="Path 19932" d="M14.714,175.29v7.071H28.3s-.513-2.56-6.956-3.741l-.946-3.33Z" transform="translate(6.128 73.005)" fill="#133a50"/>
            <path id="Path_19933" data-name="Path 19933" d="M35.828,175.29v7.071H49.416s-.51-2.56-6.955-3.741l-.948-3.33Z" transform="translate(14.922 73.005)" fill="#133a50"/>
            <path id="Path_19934" data-name="Path 19934" d="M18.712,76.337s-6.043,22.481-6.131,46.633-.334,94.879-.334,94.879H22s7.677-68.311,11.333-83.837S46.5,73.059,46.5,73.059Z" transform="translate(5.101 30.428)" fill="#133a50"/>
            <path id="Path_19935" data-name="Path 19935" d="M28.425,101.059s1.827,36.8,2.193,44.046,5.948,72.759,5.948,72.759,9.139.248,9.139,0,3.86-69.138,4.976-86.993-.728-39.02.755-41.49-4-16.444-4-16.444L34.5,76.388Z" transform="translate(11.838 30.377)" fill="#133a50"/>
            <path id="Path_19936" data-name="Path 19936" d="M139.129,26.364l13.71,8.993s-5.667,13.457-5.85,18.8-4.57,41.623-4.57,41.623-13.244,2.242-22.525,0-12.937-3.451-12.937-3.451.365-38.173,1.1-43.52,2.558-16.046,2.558-16.046l7.267-3.751,4.03,3.1Z" transform="translate(44.546 10.98)" fill="#364469"/>
            <path id="Path_19937" data-name="Path 19937" d="M132.265,25.6l-14.753,6.836,4.06,4.669,13.161-10.426Z" transform="translate(48.942 10.663)" fill="#aebfde"/>
            <path id="Path_19938" data-name="Path 19938" d="M118.7,31.528l-4.029,3.236v-6.34l2.016-.635Z" transform="translate(47.757 11.573)" fill="#aebfde"/>
            <path id="Path_19939" data-name="Path 19939" d="M115.879,92.72l3.544-19.567a2.779,2.779,0,0,1,3.32-1.972L156.95,77.6a2.641,2.641,0,0,1,2.3,2.972l-3.435,19.5c-.942,2.139-2,2.843-3.581,2.558L118.226,96.37c-1.594-.288-2.384-1.041-2.347-3.65" transform="translate(48.261 29.623)" fill="#97a3cc"/>
            <path id="Path_19940" data-name="Path 19940" d="M115.955,92.182l3.551-19.634a2.79,2.79,0,0,1,3.33-1.987l34.357,6.452A2.649,2.649,0,0,1,159.5,80l-3.456,19.569a2.86,2.86,0,0,1-3.4,2.094l-34.32-6.327a2.756,2.756,0,0,1-2.374-3.153" transform="translate(48.273 29.365)" fill="#edf1f2"/>
            <path id="Path_19941" data-name="Path 19941" d="M131.738,82.363l-1.9,2.819s-4.31,2.735-4.5,3.207-.867,2.547-.867,2.547l.963.472,1.79-1.792a13.878,13.878,0,0,1-.187,2.358c-.188.755-.756,2.169-.756,2.169a23.166,23.166,0,0,0,2.643,1.133c.943.282,4.528.847,4.528.847s3.394-3.772,3.584-5,.7-5.735.7-5.735l-1.926-3.414Z" transform="translate(51.838 34.141)" fill="#fec4ad"/>
            <path id="Path_19942" data-name="Path 19942" d="M143.969,32.721s7.128,35.2,7.128,36.748-11.237,33-14.941,36.446c0,0-2.888,1.459-6-3.026,0,0,2.659-7.512,4.3-12.86s2.925-22.8,2.925-22.8-9.05-12.564-9.129-20.013c-.17-15.872,15.71-14.491,15.71-14.491" transform="translate(53.417 13.615)" fill="#364469"/>
            <path id="Path_19943" data-name="Path 19943" d="M44.692,4.042c1.8,1.111,2.521,4.164,2.521,4.164s.673,3.472,1.088,6.109,2.639,4.72,2.361,5.415-1.806.694-1.806,1.666-.416,3.774-.416,5.7-1.943,2.21-3.748,2.349S40.526,30,40.11,30.838s0,5.276,0,5.276L25.948,34.865a26.914,26.914,0,0,0,1.35-7.956c-.1-3.707-.239-8.149-.239-8.149s.833-8.053,5.833-11.247,11.8-3.47,11.8-3.47" transform="translate(10.807 1.683)" fill="#fec4ad"/>
            <path id="Path_19944" data-name="Path 19944" d="M42.445,9.581c1.249-.139,4.208,0,6.131,0a2.678,2.678,0,0,0,2.2-3.888,37.551,37.551,0,0,1-2.2-3.885s-2.1,1.8-6.131,0S30.78,0,28.143,5.693c0,0-5.136,2.084-5.414,6.109s.575,5.6,2.5,8.33c1.945,2.762,3.431,8.15,3.431,8.15a40.925,40.925,0,0,0,4.759.041c2.361-.139,4.582-3.609,5.554-5.276,0,0-3.428-2.637-2.547-5.274s4.351-1.388,4.768-.14a16.011,16.011,0,0,0,1.667,3.054l1.527.139a48.235,48.235,0,0,0,.276-6.22c-.137-2.388-2.22-5.026-2.22-5.026" transform="translate(9.445 0.308)"/>
            <path id="Path_19945" data-name="Path 19945" d="M30.26,24.654s5.66,1.033,8.437,1.4a38.478,38.478,0,0,0,6.85,0L56.1,30.5S57.528,47.16,57.83,56.046s-.814,47.992-.51,50.955c0,0-2.768,6.444-22.468,5.9a62.951,62.951,0,0,1-19.7-3.623s-.309-33.976-.678-41.751,1.3-28.243,1.283-32.687l-.014-4.444Z" transform="translate(6.005 10.268)" fill="#184867"/>
            <path id="Path_19946" data-name="Path 19946" d="M45.366,28.78s-8.087,5.54-4.051,20.006c1.429,5.123,20.128,22.535,20.128,22.535l30.869,7.2s2.426-4.122,1.752-7.054L68.194,61.383s-18.338-32.6-22.828-32.6" transform="translate(16.737 11.986)" fill="#133a50"/>
            <path id="Path_19947" data-name="Path 19947" d="M10.176,89.238,11.968,86.5h4.057l-.061,3.433-2.349.434h-4Z" transform="translate(4.003 36.027)" fill="#fec4ad"/>
          </g>
          <path id="Subtraction_1" data-name="Subtraction 1" d="M12083.011,20071.541h0a5.3,5.3,0,1,1,.53,0v-4.391a.926.926,0,0,0,.649-.875.914.914,0,1,0-1.179.875v4.393Z" transform="translate(-8706.211 -17030.148) rotate(8)" fill="#0099dc" stroke="rgba(0,0,0,0)" stroke-miterlimit="10" stroke-width="1"/>
        </g>
      </g>
    </g>
  </g>
</svg>
