<svg xmlns="http://www.w3.org/2000/svg" width="21.533" height="53.68" viewBox="0 0 21.533 53.68">
  <g id="accident" transform="translate(-138.962)">
    <g id="XMLID_29_" transform="translate(138.962 0)">
      <path id="XMLID_87_" d="M183.53,347.811v1.524l4.152-.854Z" transform="translate(-178.375 -307.581)" fill="#fff"/>
      <path id="XMLID_861_" d="M201.679,328.095v-.857l-3.375.312Z" transform="translate(-191.44 -289.388)" fill="#fff"/>
      <path id="XMLID_862_" d="M183.53,373.373v.47a2.542,2.542,0,0,0,5.084,0v-1.48C183.332,373.45,183.732,373.381,183.53,373.373Z" transform="translate(-178.375 -329.293)" fill="#fff"/>
      <circle id="XMLID_875_" cx="4.39" cy="4.39" r="4.39" transform="translate(6.398)" fill="#fff"/>
      <path id="XMLID_876_" d="M221.084,201.713a2.124,2.124,0,0,0,2.689,1.32l-1.369-4.009h0A2.12,2.12,0,0,0,221.084,201.713Z" transform="translate(-211.484 -176.004)" fill="#fff"/>
      <path id="XMLID_877_" d="M160.5,100.126l-.019-3.845-.017-3.287a5.024,5.024,0,0,0-5.013-4.988H144.053a5.024,5.024,0,0,0-5.013,4.988l-.078,15.562a2.116,2.116,0,0,0,1.992,2.122v19.672a1.157,1.157,0,1,0,2.313,0c0-1.476.009-37.334.009-37.334h0a.443.443,0,0,1,.885.025l-.044,20.784c5.355-.5,4.968-.464,5.084-.461v-4.493a.565.565,0,0,1,.565-.565.552.552,0,0,1,.552.554c-.012,3.29-.019,20.1-.019,20.1a2.542,2.542,0,1,0,5.084,0V105.89L152,107.046a4.432,4.432,0,0,1-2.864-8.388l7.105-2.426.01,1.929,1.541,4.462h0l1.271-.434h0A2.127,2.127,0,0,0,160.5,100.126Z" transform="translate(-138.962 -77.827)" fill="#fff"/>
    </g>
  </g>
</svg>
