<svg xmlns="http://www.w3.org/2000/svg" width="97.191" height="53.079" viewBox="0 0 97.191 53.079">
  <path id="accident-icon" d="M11958.734-3339.97a2.726,2.726,0,0,1-1.132-1.327l-3.984-9.921,1.967.039,5.083,2.781,2.029,5.053a2.746,2.746,0,0,1-1.523,3.571,2.735,2.735,0,0,1-1.022.2A2.747,2.747,0,0,1,11958.734-3339.97Zm25.634-7.113h-8.712a3.561,3.561,0,0,1-3.557-3.556v-13.284a4.329,4.329,0,0,1,3.388-4.09l10.605-2a7.217,7.217,0,0,0,4.055-2.73l8.7-13.477a6.6,6.6,0,0,1,5.046-2.748h11.843a3.561,3.561,0,0,1,3.557,3.556v34.773a3.561,3.561,0,0,1-3.557,3.556h-12.273a9.957,9.957,0,0,1-9.547,7.167A9.956,9.956,0,0,1,11984.368-3347.083Zm4.605-2.775a4.938,4.938,0,0,0,4.938,4.938,4.939,4.939,0,0,0,4.94-4.938,4.939,4.939,0,0,0-4.94-4.941A4.939,4.939,0,0,0,11988.974-3349.858Zm13.375-32.369-6.3,10.322c-.679,1.11-.169,2.018,1.131,2.018h16.087a2.372,2.372,0,0,0,2.364-2.365v-9.628a2.37,2.37,0,0,0-2.364-2.362h-7.324A4.694,4.694,0,0,0,12002.349-3382.228Zm-37.7,33.507-8.485-4.642-12.965-.275a2.708,2.708,0,0,1-1.354-.389,2.751,2.751,0,0,1-1.249-1.674l0,0c-.159-.748-3.291-15.384-3.463-16.177a3.2,3.2,0,0,1,2.462-3.8c1.607-.344,6.156-1.267,6.156-1.267l3.448-3.635.38-9.876a2.288,2.288,0,0,1,2.371-2.2,2.291,2.291,0,0,1,2.2,2.374l-.411,10.735a2.286,2.286,0,0,1-.627,1.487l-3.294,3.475-5.939.712,8.621,1.179c.637-.724,4.615-5.237,5.233-5.937a2.289,2.289,0,0,1,3.228-.2,2.288,2.288,0,0,1,.205,3.228l-3.083,3.5-3.086,3.5a2.287,2.287,0,0,1-2.026.754l-9.369-1.412,7.1,2.863,1.191,5.574-8.572,1.7,13.637.287a2.739,2.739,0,0,1,1.258.338l9.073,4.962a2.745,2.745,0,0,1,1.093,3.725,2.749,2.749,0,0,1-2.412,1.429A2.724,2.724,0,0,1,11964.652-3348.721Zm-28.487-5.469a1.21,1.21,0,0,1-.482-.543l-6.893-15.224a1.216,1.216,0,0,1,.609-1.614,1.22,1.22,0,0,1,1.613.606l6.893,15.227a1.219,1.219,0,0,1-.609,1.614,1.224,1.224,0,0,1-.5.107A1.224,1.224,0,0,1,11936.165-3354.19Zm-5.72-.525a.753.753,0,0,1-.129-.087l-7.756-6.117a1.219,1.219,0,0,1-.2-1.71,1.217,1.217,0,0,1,1.714-.2l7.752,6.114a1.217,1.217,0,0,1,.2,1.713,1.216,1.216,0,0,1-.956.463A1.206,1.206,0,0,1,11930.445-3354.715Zm8.235-23.525a4.739,4.739,0,0,1-1.62-6.507,4.739,4.739,0,0,1,6.5-1.623,4.743,4.743,0,0,1,1.623,6.507,4.741,4.741,0,0,1-4.07,2.3A4.717,4.717,0,0,1,11938.681-3378.24Z" transform="translate(-11922.098 3392.654)" fill="#fff"/>
</svg>
