<svg xmlns="http://www.w3.org/2000/svg" width="65" height="65" viewBox="0 0 65 65">
  <g id="Group_1821" data-name="Group 1821" transform="translate(-190 -1304)">
    <g id="Page-1" transform="translate(190 1304)">
      <g id="_007---Car-Insurance" data-name="007---Car-Insurance" transform="translate(0 0)">
        <path id="Shape" d="M36.811,28.252l8.421,5.995a1.078,1.078,0,0,0,1.25,0L54.9,28.252a6.662,6.662,0,0,0,2.811-5.405V10.092a1.078,1.078,0,0,0-.647-.99L46.289,4.445a1.078,1.078,0,0,0-.854,0L34.655,9.1a1.078,1.078,0,0,0-.647.99V22.847A6.663,6.663,0,0,0,36.811,28.252ZM36.155,10.8l9.7-4.19,9.7,4.19V22.847A4.5,4.5,0,0,1,53.652,26.5l-7.8,5.543-7.8-5.55a4.5,4.5,0,0,1-1.907-3.649Z" transform="translate(2.973 0.34)"/>
        <path id="Shape-2" data-name="Shape" d="M2.167,57.417H3.25V61.75A3.25,3.25,0,0,0,6.5,65H13a3.25,3.25,0,0,0,3.25-3.25V57.417h26V61.75A3.25,3.25,0,0,0,45.5,65H52a3.25,3.25,0,0,0,3.25-3.25V57.417h1.083A2.167,2.167,0,0,0,58.5,55.25V39a5.359,5.359,0,0,0-1.873-4.084l3.727-2.652A11.037,11.037,0,0,0,65,23.3V7.635a1.083,1.083,0,0,0-.65-.994L49.183.089a1.083,1.083,0,0,0-.858,0L33.15,6.641a1.083,1.083,0,0,0-.65.994v4.281H16.109A5.417,5.417,0,0,0,11,15.533L4.622,33.663A5.409,5.409,0,0,0,0,39V55.25A2.167,2.167,0,0,0,2.167,57.417ZM14.083,61.75A1.083,1.083,0,0,1,13,62.833H6.5A1.083,1.083,0,0,1,5.417,61.75V57.417h8.667ZM9.75,55.25H7.583V53.083H9.75Zm43.333,6.5A1.083,1.083,0,0,1,52,62.833H45.5a1.083,1.083,0,0,1-1.083-1.083V57.417h8.667Zm-2.167-6.5H48.75V53.083h2.167Zm-16.25-46.9L48.75,2.263,62.833,8.347V23.3a8.865,8.865,0,0,1-3.736,7.2L48.75,37.865,38.4,30.5a8.865,8.865,0,0,1-3.736-7.2Zm16.25,31.736A1.083,1.083,0,0,1,52,41.167v2.167a1.083,1.083,0,0,1-1.083,1.083h-6.5a1.083,1.083,0,0,1-1.083-1.083,3.25,3.25,0,0,1,3.25-3.25ZM32.5,18.417v2.167H24.917V18.417Zm0-2.167H30.333V14.083H32.5Zm-19.453,0a3.25,3.25,0,0,1,3.063-2.167H28.167V16.25h-3.25a2.167,2.167,0,0,0-2.167,2.167v2.167a2.167,2.167,0,0,0,2.167,2.167H32.5V23.3a11.037,11.037,0,0,0,4.646,8.962L39,33.583H6.946ZM2.167,39a3.25,3.25,0,0,1,3.25-3.25H42.044l3.274,2.331a5.417,5.417,0,0,0-4.151,5.252,3.25,3.25,0,0,0,3.25,3.25h6.5a3.25,3.25,0,0,0,3.25-3.25V41.167a3.25,3.25,0,0,0-2.075-3.021l2.682-1.91A3.2,3.2,0,0,1,56.333,39V55.25h-3.25V53.083a2.167,2.167,0,0,0-2.167-2.167H48.75a2.167,2.167,0,0,0-2.167,2.167V55.25H11.917V53.083A2.167,2.167,0,0,0,9.75,50.917H7.583a2.167,2.167,0,0,0-2.167,2.167V55.25H2.167Z" transform="translate(0 0)"/>
        <path id="Shape-3" data-name="Shape" d="M18.651,15H16.807a3.241,3.241,0,0,0-3.051,2.156l-4.047,11.5a1.078,1.078,0,0,0,2.034.716l4.047-11.5a1.078,1.078,0,0,1,1.017-.72h1.844a1.078,1.078,0,1,0,0-2.156Z" transform="translate(0.814 1.274)"/>
        <path id="Shape-4" data-name="Shape" d="M7.234,43.624H13.7a3.234,3.234,0,0,0,3.234-3.234A5.4,5.4,0,0,0,11.546,35H7.234A3.234,3.234,0,0,0,4,38.234V40.39A3.234,3.234,0,0,0,7.234,43.624Zm-1.078-5.39a1.078,1.078,0,0,1,1.078-1.078h4.312A3.234,3.234,0,0,1,14.78,40.39,1.078,1.078,0,0,1,13.7,41.468H7.234A1.078,1.078,0,0,1,6.156,40.39Z" transform="translate(0.312 2.945)"/>
        <path id="Shape-5" data-name="Shape" d="M20.156,49.624H35.248A2.156,2.156,0,0,0,37.4,47.468V43.156A2.156,2.156,0,0,0,35.248,41H20.156A2.156,2.156,0,0,0,18,43.156v4.312A2.156,2.156,0,0,0,20.156,49.624Zm0-6.468H35.248v4.312H20.156Z" transform="translate(1.541 3.45)"/>
      </g>
    </g>
    <g id="plus" transform="translate(232.795 1316.392)">
      <g id="Group_1820" data-name="Group 1820">
        <path id="Path_16320" data-name="Path 16320" d="M12.745,6.113h-5.6V.518a.518.518,0,1,0-1.036,0v5.6H.518a.518.518,0,1,0,0,1.036h5.6v5.6a.518.518,0,0,0,1.036,0v-5.6h5.6a.518.518,0,0,0,0-1.036Z" fill="#00b4f8" stroke="#00b4f8" stroke-width="1"/>
      </g>
    </g>
  </g>
</svg>
