<svg xmlns="http://www.w3.org/2000/svg" width="58.709" height="32.11" viewBox="0 0 58.709 32.11">
  <g id="air-transport" transform="translate(-0.001 -138.63)">
    <path id="Path_16382" data-name="Path 16382" d="M58.71,144.106c0,10.157-48.961,21.367-52.668,21.367-2.078,0-4.437-.479-4.437-2.4,0-.64.739-1.566,2.036-2.681h0L.2,154.29a1.569,1.569,0,0,1,.784-2.227l.59-.236A3.926,3.926,0,0,1,4.872,152l6.239,3.3c2.429-1.441,5.185-2.95,8.09-4.435L7.039,142.981a1.569,1.569,0,0,1,.019-2.646l.994-.625a7.062,7.062,0,0,1,5.558-.847L33.838,144.2c6.306-2.5,12.008-4.212,15.384-4.212.9,0,1.8.024,2.676.086l-6.109,2.757-.146,2.054,9.429-4.334C57.335,141.088,58.71,142.094,58.71,144.106ZM34.1,161.638l7.543,8.571a1.569,1.569,0,0,0,1.84.385l1.011-.47a4.708,4.708,0,0,0,2.694-4.817l-.945-8.073a.785.785,0,0,0-1.04-.649l-10.776,3.8a.785.785,0,0,0-.326,1.257Z" transform="translate(0)" fill="#fff"/>
  </g>
</svg>
