<svg xmlns="http://www.w3.org/2000/svg" width="33.427" height="33.21" viewBox="0 0 33.427 33.21">
  <g id="bank_1_" data-name="bank (1)" transform="translate(0 -1.666)">
    <path id="Path_15702" data-name="Path 15702" d="M39.559,19.167,23.769,9.008a.474.474,0,0,0-.513,0L7.467,19.167a.418.418,0,0,0,.226.77H39.333A.418.418,0,0,0,39.559,19.167Z" transform="translate(-6.799 -6.792)" fill="#ff4c4c"/>
    <path id="Path_15703" data-name="Path 15703" d="M41.3,31.455a.652.652,0,0,0-.706,0L25.93,40.892H55.971Z" transform="translate(-24.237 -27.747)" fill="#f33939"/>
    <path id="Path_15704" data-name="Path 15704" d="M71.038,52.344a.809.809,0,0,0-.875,0l-12.512,8.05v2.112h25.9V60.395Z" transform="translate(-53.887 -47.249)" fill="#ffb125"/>
    <path id="Path_15705" data-name="Path 15705" d="M62.277,209.557a.311.311,0,0,0,.311-.311v-1.294H62.9a.311.311,0,0,0,.311-.311v-1.687H57.651v1.687a.311.311,0,0,0,.311.311h.313v1.294a.311.311,0,0,0,.311.311h.54v10.491h-.54a.311.311,0,0,0-.311.311v1.294h-.313a.311.311,0,0,0-.311.311v1.687h5.561v-1.687a.311.311,0,0,0-.311-.311h-.313V220.36a.311.311,0,0,0-.311-.311h-.54V209.557Z" transform="translate(-53.887 -190.95)" fill="#927266"/>
    <path id="Path_15706" data-name="Path 15706" d="M100.239,223.652h2.78v-1.687a.311.311,0,0,0-.311-.311H102.4V220.36a.311.311,0,0,0-.311-.311h-.54V209.557h.54a.311.311,0,0,0,.311-.311v-1.294h.313a.311.311,0,0,0,.311-.311v-1.687h-2.78Z" transform="translate(-93.694 -190.95)" fill="#82635a"/>
    <g id="Group_1074" data-name="Group 1074" transform="translate(13.933 15.004)">
      <path id="Path_15707" data-name="Path 15707" d="M218.038,209.557a.311.311,0,0,0,.311-.311v-1.294h.313a.311.311,0,0,0,.311-.311v-1.687h-5.561v1.687a.311.311,0,0,0,.311.311h.313v1.294a.311.311,0,0,0,.311.311h.54v10.491h-.54a.311.311,0,0,0-.311.311v1.294h-.313a.311.311,0,0,0-.311.311v1.687h5.561v-1.687a.311.311,0,0,0-.311-.311h-.313V220.36a.311.311,0,0,0-.311-.311h-.54V209.557Z" transform="translate(-213.412 -205.954)" fill="#927266"/>
      <path id="Path_15708" data-name="Path 15708" d="M373.8,209.557a.311.311,0,0,0,.311-.311v-1.294h.313a.311.311,0,0,0,.311-.311v-1.687h-5.561v1.687a.311.311,0,0,0,.311.311h.313v1.294a.311.311,0,0,0,.311.311h.54v10.491h-.54a.311.311,0,0,0-.311.311v1.294h-.313a.311.311,0,0,0-.311.311v1.687h5.561v-1.687a.311.311,0,0,0-.311-.311h-.313V220.36a.311.311,0,0,0-.311-.311h-.54V209.557Z" transform="translate(-359.003 -205.954)" fill="#927266"/>
    </g>
    <g id="Group_1075" data-name="Group 1075" transform="translate(16.714 15.004)">
      <path id="Path_15709" data-name="Path 15709" d="M256,223.652h2.78v-1.687a.311.311,0,0,0-.311-.311h-.313V220.36a.311.311,0,0,0-.311-.311h-.54V209.557h.54a.311.311,0,0,0,.311-.311v-1.294h.313a.311.311,0,0,0,.311-.311v-1.687H256Z" transform="translate(-256 -205.954)" fill="#82635a"/>
      <path id="Path_15710" data-name="Path 15710" d="M411.99,223.652h2.765v-1.687a.311.311,0,0,0-.311-.311h-.313V220.36a.311.311,0,0,0-.311-.311h-.54V209.557h.54a.311.311,0,0,0,.311-.311v-1.294h.313a.311.311,0,0,0,.311-.311v-1.687H411.99Z" transform="translate(-401.806 -205.954)" fill="#82635a"/>
    </g>
    <rect id="Rectangle_540" data-name="Rectangle 540" width="25.9" height="2.111" transform="translate(3.764 13.145)" fill="#ff4c4c"/>
    <path id="Path_15712" data-name="Path 15712" d="M80.575,177.277v.558a.752.752,0,0,1-.752.752H57.651v.815h25.9v-2.125Z" transform="translate(-53.887 -164.146)" fill="#f33939"/>
    <path id="Path_15713" data-name="Path 15713" d="M48,475.1H17.784a.477.477,0,0,1-.477-.477v-1a.477.477,0,0,1,.477-.477H48a.477.477,0,0,1,.477.477v1A.477.477,0,0,1,48,475.1Z" transform="translate(-16.177 -440.7)" fill="#ff4c4c"/>
    <path id="Path_15714" data-name="Path 15714" d="M48,473.146H45.5v.784a.294.294,0,0,1-.294.293H17.784a.477.477,0,0,1-.477-.477v.876a.477.477,0,0,0,.477.477H48a.477.477,0,0,0,.477-.477v-1A.477.477,0,0,0,48,473.146Z" transform="translate(-16.177 -440.698)" fill="#f33939"/>
    <path id="Path_15715" data-name="Path 15715" d="M33.017,11.976,21.967,4.866a.475.475,0,1,0-.514.8L32.341,12.67H29.8L17.409,4.7h0a1.287,1.287,0,0,0-1.389,0L3.625,12.67H1.086L16.713,2.615l2.213,1.424a.475.475,0,0,0,.514-.8L17.227,1.817a.951.951,0,0,0-1.027,0L.411,11.976A.893.893,0,0,0,.894,13.62h2.4v3.07a.787.787,0,0,0,.624.769V18.3a.787.787,0,0,0,.786.786h.065V24.9a.475.475,0,1,0,.95,0V18.607a.475.475,0,0,0-.475-.475H4.863v-.655H8.226v.655H7.85a.475.475,0,0,0-.475.475V29.1a.475.475,0,0,0,.475.475h.377v.713H4.863v-.713H5.24a.475.475,0,0,0,.475-.475V27.884a.475.475,0,1,0-.95,0v.739H4.7a.787.787,0,0,0-.786.786v.836a.787.787,0,0,0-.624.769v.959H1.607a.953.953,0,0,0-.952.952v1a.953.953,0,0,0,.952.952H31.821a.953.953,0,0,0,.952-.952v-1a.953.953,0,0,0-.952-.952H30.138v-.959a.787.787,0,0,0-.624-.769v-.836a.787.787,0,0,0-.786-.786h-.065V19.082h.065a.787.787,0,0,0,.786-.786V17.46a.787.787,0,0,0,.624-.769V13.62h2.4a.893.893,0,0,0,.483-1.644ZM16.533,5.494a.335.335,0,0,1,.362,0h0l11.153,7.176H5.38ZM13.459,15.732v.959a.787.787,0,0,0,.624.769V18.3a.787.787,0,0,0,.786.786h.065v9.542h-.065a.787.787,0,0,0-.786.786v.836a.787.787,0,0,0-.624.769v.959H9.8v-.959a.787.787,0,0,0-.624-.769V29.41a.787.787,0,0,0-.786-.786H8.324V19.082H8.39a.787.787,0,0,0,.786-.786V17.46A.787.787,0,0,0,9.8,16.69v-.959Zm10.169,0v.959a.787.787,0,0,0,.624.769V18.3a.787.787,0,0,0,.786.786H25.1v9.542h-.065a.787.787,0,0,0-.786.786v.836a.787.787,0,0,0-.624.769v.959H19.969v-.959a.787.787,0,0,0-.624-.769V29.41a.787.787,0,0,0-.786-.786h-.065V19.082h.065a.787.787,0,0,0,.786-.786V17.46a.787.787,0,0,0,.624-.769v-.959Zm5.561.8H24.578v-.8h4.611v.8Zm-1,13.046h.377v.713H25.2v-.713h.377a.475.475,0,0,0,.475-.475V18.607a.475.475,0,0,0-.475-.475H25.2v-.655h3.363v.655h-.377a.475.475,0,0,0-.475.475V29.1A.475.475,0,0,0,28.188,29.573ZM15.409,18.132h-.377v-.655H18.4v.655h-.377a.475.475,0,0,0-.475.475V29.1a.475.475,0,0,0,.475.475H18.4v.713H15.032v-.713h.377a.475.475,0,0,0,.475-.475V18.607A.475.475,0,0,0,15.409,18.132Zm-1,13.08a.474.474,0,0,0,.147.024h4.313a.474.474,0,0,0,.151-.025v.763H14.408ZM19.02,16.527H14.408v-.8H19.02Zm-10.169,0H4.239v-.8H8.85v.8ZM4.239,31.211a.474.474,0,0,0,.149.024H8.7a.474.474,0,0,0,.149-.024v.762H4.239v-.762Zm27.584,1.714v1h0l-30.215,0,0-1Zm-7.245-.952v-.762a.473.473,0,0,0,.148.024h4.313a.475.475,0,0,0,.151-.025v.763Zm4.611-17.191H4.239V13.62h24.95v1.162Z" transform="translate(0)"/>
  </g>
</svg>
