<svg xmlns="http://www.w3.org/2000/svg" xmlns:xlink="http://www.w3.org/1999/xlink" width="167.001" height="237.001" viewBox="0 0 167.001 237.001">
  <defs>
    <linearGradient id="linear-gradient" x1="0.024" y1="-0.333" x2="0.806" y2="1.249" gradientUnits="objectBoundingBox">
      <stop offset="0" stop-color="#4991d2"/>
      <stop offset="1" stop-color="#26cbba"/>
    </linearGradient>
  </defs>
  <g id="bg-rating-card" transform="translate(-757.999 -953)">
    <path id="Intersection_1" data-name="Intersection 1" d="M12052.815-3090.728a17,17,0,0,1-17-17v-203a17,17,0,0,1,17-17h62.837l84.405,179.594c4.854,10.335,1.065,22.98-8.466,28.245l-52.788,29.161Z" transform="translate(-11277.816 4280.729)" fill="url(#linear-gradient)"/>
    <g id="award" transform="translate(780.51 1028)" opacity="0.58">
      <g id="Group_634" data-name="Group 634" transform="translate(0)">
        <g id="Group_633" data-name="Group 633">
          <path id="Path_272" data-name="Path 272" d="M40.387,93.821l11.33-14.566a16.4,16.4,0,0,1-8.964-6.636c-2.668-4.612-1.462-10.241-.294-15.678a42.822,42.822,0,0,0,1.261-8.528,42.809,42.809,0,0,0-1.261-8.535c-1.16-5.441-2.374-11.066.294-15.671,2.763-4.774,8.327-6.541,13.708-8.247a39.876,39.876,0,0,0,7.74-3.031A37.827,37.827,0,0,0,70.4,7.9C74.4,4.2,78.923,0,84.684,0S94.972,4.2,98.966,7.9a37.837,37.837,0,0,0,6.2,5.029,39.866,39.866,0,0,0,7.738,3.024c5.381,1.706,10.945,3.473,13.708,8.247,2.668,4.612,1.462,10.241.294,15.678a42.807,42.807,0,0,0-1.259,8.535,42.81,42.81,0,0,0,1.261,8.535c1.16,5.441,2.374,11.066-.294,15.671a16.4,16.4,0,0,1-8.973,6.634l11.34,14.566a1.862,1.862,0,0,1-1.7,2.99l-13.313-1.663-3.286,11.5a1.862,1.862,0,0,1-1.436,1.316,1.9,1.9,0,0,1-.354.034,1.862,1.862,0,0,1-1.471-.719L95.529,91.983a17.218,17.218,0,0,1-10.844,4.841A17.218,17.218,0,0,1,73.84,91.983L61.949,107.272a1.862,1.862,0,0,1-1.471.724,1.9,1.9,0,0,1-.354-.034,1.862,1.862,0,0,1-1.436-1.316L55.4,95.148,42.089,96.811a1.862,1.862,0,0,1-1.7-2.99Zm67.721,8.275,2.717-9.507a1.862,1.862,0,0,1,2.02-1.335l10.427,1.3-9.345-12.014-1.03.33a39.865,39.865,0,0,0-7.731,3.024,37.828,37.828,0,0,0-6.2,5.027l-.641.592Zm-23.424-9c4.3,0,7.919-3.352,11.751-6.9a41.043,41.043,0,0,1,6.869-5.525,43.174,43.174,0,0,1,8.478-3.352c4.921-1.562,9.571-3.037,11.611-6.564,1.948-3.368.942-8.062-.125-13.034a45.6,45.6,0,0,1-1.344-9.31,45.579,45.579,0,0,1,1.342-9.31c1.067-4.97,2.072-9.664.125-13.034-2.048-3.527-6.69-5-11.611-6.564a43.186,43.186,0,0,1-8.476-3.352,41.042,41.042,0,0,1-6.867-5.525c-3.834-3.553-7.452-6.9-11.753-6.9s-7.919,3.352-11.751,6.9a41.044,41.044,0,0,1-6.869,5.525A43.174,43.174,0,0,1,57.587,19.5c-4.921,1.562-9.571,3.037-11.611,6.564-1.948,3.368-.942,8.062.125,13.034a45.6,45.6,0,0,1,1.344,9.31,45.578,45.578,0,0,1-1.343,9.31c-1.067,4.97-2.072,9.664-.125,13.034,2.048,3.527,6.69,5,11.611,6.564a43.186,43.186,0,0,1,8.476,3.352A41.043,41.043,0,0,1,72.931,86.2C76.765,89.748,80.383,93.1,84.684,93.1Zm-28.17-1.847a1.862,1.862,0,0,1,2.02,1.335L61.26,102.1l9.783-12.578-.641-.592A37.837,37.837,0,0,0,64.2,83.9a39.866,39.866,0,0,0-7.738-3.024l-1.03-.33L46.087,92.556Z" transform="translate(-39.995)" fill="#99e3fe"/>
        </g>
      </g>
      <g id="Group_636" data-name="Group 636" transform="translate(11.173 14.896)">
        <g id="Group_635" data-name="Group 635">
          <path id="Path_273" data-name="Path 273" d="M121.516,64A33.516,33.516,0,1,1,88,97.516,33.516,33.516,0,0,1,121.516,64Zm0,63.308A29.792,29.792,0,1,0,91.724,97.516,29.792,29.792,0,0,0,121.516,127.308Z" transform="translate(-88 -64)" fill="#99e3fe"/>
        </g>
      </g>
      <g id="Group_638" data-name="Group 638" transform="translate(22.492 25.69)">
        <g id="Group_637" data-name="Group 637" transform="translate(0)">
          <path id="Path_274" data-name="Path 274" d="M137.33,125.32a3.723,3.723,0,0,1,3.009-1.532h11.4l3.538-10.85a3.724,3.724,0,0,1,7.076,0l3.528,10.85h11.408a3.724,3.724,0,0,1,2.193,6.735l-9.228,6.7,3.525,10.85a3.724,3.724,0,0,1-5.731,4.163l-9.234-6.7-9.23,6.7a3.724,3.724,0,0,1-5.731-4.163l3.525-10.852-9.228-6.7A3.724,3.724,0,0,1,137.33,125.32Zm13.332,9.69a1.862,1.862,0,0,1,.676,2.084l-3.944,12.136,10.325-7.5a1.862,1.862,0,0,1,2.188,0l10.325,7.5-3.942-12.136a1.862,1.862,0,0,1,.676-2.082l10.323-7.5h-12.76a1.862,1.862,0,0,1-1.771-1.287l-3.944-12.137-3.944,12.135a1.862,1.862,0,0,1-1.771,1.287l-12.76,0Z" transform="translate(-136.616 -110.376)" fill="#99e3fe"/>
        </g>
      </g>
    </g>
    <path id="Path_15989" data-name="Path 15989" d="M-11072.822,4351l82.822,167-72.5-167Z" transform="translate(11915 -3398)" fill="#fbc543"/>
  </g>
</svg>
