<svg xmlns="http://www.w3.org/2000/svg" xmlns:xlink="http://www.w3.org/1999/xlink" width="54.092" height="44.979" viewBox="0 0 54.092 44.979">
  <defs>
    <linearGradient id="linear-gradient" x1="0.5" x2="0.5" y2="1" gradientUnits="objectBoundingBox">
      <stop offset="0.13" stop-color="#00a9ed"/>
      <stop offset="1" stop-color="#65106b"/>
    </linearGradient>
  </defs>
  <path id="writing" d="M42.828,38.168a.792.792,0,0,0-1.094.245,10.669,10.669,0,0,1-9.05,4.981H12.294A10.722,10.722,0,0,1,1.585,32.683V13.694a.792.792,0,0,0-1.585,0v18.99A12.308,12.308,0,0,0,12.294,44.978h20.39a12.246,12.246,0,0,0,10.388-5.717.793.793,0,0,0-.244-1.094ZM35.862,17.111l-6.041,6.042a.792.792,0,1,0,1.12,1.12l6.041-6.041a.792.792,0,0,0-1.12-1.121ZM52.946,3.91,50.184,1.148a3.925,3.925,0,0,0-5.545,0L41.773,4.015A12.22,12.22,0,0,0,32.684,0H12.294A12.3,12.3,0,0,0,.275,9.7a.792.792,0,0,0,.608.941.831.831,0,0,0,.167.018.792.792,0,0,0,.774-.626,10.715,10.715,0,0,1,10.47-8.448h20.39A10.645,10.645,0,0,1,40.65,5.137l-8.426,8.426h-22.1a.792.792,0,1,0,0,1.585H30.639l-3.8,3.8H10.128a.793.793,0,1,0,0,1.585H25.255L20.34,25.447a17.815,17.815,0,0,0-3.463,4.882l-2.255,4.685a3.349,3.349,0,0,0,3,4.8,3.368,3.368,0,0,0,1.462-.338l2.273-1.094h0l2.411-1.16a17.827,17.827,0,0,0,4.882-3.463L43.394,19.007V32.683a10.757,10.757,0,0,1-.309,2.565.792.792,0,1,0,1.539.378,12.334,12.334,0,0,0,.355-2.943V17.422l2.2-2.2h0l5.764-5.764a3.926,3.926,0,0,0,0-5.545ZM18.392,38.044A1.755,1.755,0,0,1,16.05,35.7l.669-1.39a19.621,19.621,0,0,1,3.063,3.063Zm4.685-2.255-1.834.882a21.22,21.22,0,0,0-3.822-3.822l.882-1.834a16.225,16.225,0,0,1,2.28-3.5l5.992,5.992a16.24,16.24,0,0,1-3.5,2.28Zm4.657-3.364L21.669,26.36,39.435,8.593,45.5,14.658ZM46.622,13.538,40.556,7.472l1.956-1.956,6.066,6.065Zm5.2-5.2L49.7,10.461,43.633,4.4,45.76,2.268a2.339,2.339,0,0,1,3.3,0L51.825,5.03a2.339,2.339,0,0,1,0,3.3Zm-41.7,1.43H34.851a.792.792,0,0,0,0-1.585H10.128a.792.792,0,1,0,0,1.585Zm0,0" transform="translate(0 0.001)" fill="url(#linear-gradient)"/>
</svg>
