<?xml version="1.0" encoding="utf-8"?>
<!-- Generator: Adobe Illustrator 14.0.0, SVG Export Plug-In . SVG Version: 6.00 Build 43363)  -->
<!DOCTYPE svg PUBLIC "-//W3C//DTD SVG 1.1//EN" "http://www.w3.org/Graphics/SVG/1.1/DTD/svg11.dtd">
<svg version="1.1" id="Layer_1" xmlns="http://www.w3.org/2000/svg" xmlns:xlink="http://www.w3.org/1999/xlink" x="0px" y="0px"
	 width="65px" height="65px" viewBox="3.912 4.88 65 65" enable-background="new 3.912 4.88 65 65" xml:space="preserve">
<g id="distribution" transform="translate(0 74.76) rotate(-90)">
	<g id="Group_1080" transform="translate(0 0)">
		<path id="Path_15765" fill="#FFFFFF" d="M61.111,28.923c-0.459-0.46-1.205-0.46-1.665-0.001c-0.46,0.459-0.461,1.205-0.001,1.665
			l0,0l4.649,4.646H42.601c-0.226-5.545-2.091-10.899-5.358-15.385l11.564-7.71L47.269,18.3c-0.157,0.631,0.227,1.27,0.857,1.427
			c0.094,0.022,0.19,0.034,0.286,0.034c0.54-0.001,1.009-0.368,1.141-0.891l2.562-10.273L41.842,6.034
			c-0.63-0.158-1.27,0.226-1.427,0.857c-0.157,0.631,0.227,1.27,0.857,1.427l6.564,1.637L35.77,17.999
			c-5.351-6.237-13.158-9.826-21.376-9.827v2.356c7.433-0.001,14.506,3.2,19.41,8.786l-4.96,3.308
			c-3.763-3.963-8.985-6.208-14.45-6.209h-1.177v11.86c-4.497,0.636-7.628,4.797-6.991,9.295c0.512,3.628,3.363,6.479,6.991,6.991
			v11.861h1.177c5.465-0.002,10.688-2.246,14.45-6.21l4.96,3.3c-4.905,5.585-11.979,8.786-19.41,8.784v2.353
			c8.218,0.002,16.028-3.587,21.381-9.823l12.061,8.045l-6.568,1.637c-0.63,0.158-1.014,0.797-0.856,1.427
			c0.131,0.523,0.601,0.891,1.141,0.893c0.096-0.001,0.192-0.013,0.286-0.034l10.273-2.563l-2.562-10.274
			c-0.157-0.63-0.796-1.015-1.427-0.856c-0.631,0.157-1.014,0.796-0.857,1.428l1.538,6.162l-11.561-7.71
			c3.269-4.487,5.134-9.842,5.359-15.389h21.494l-4.649,4.647c-0.46,0.46-0.46,1.204,0,1.664c0.459,0.459,1.204,0.459,1.664,0
			l7.488-7.488L61.111,28.923z M31.985,35.232h-9.449c-0.229-1.582-0.917-3.063-1.978-4.26l7.863-5.242
			C30.519,28.478,31.759,31.784,31.985,35.232z M15.571,18.802c4.26,0.288,8.271,2.116,11.281,5.144l-8.17,5.447
			c-0.949-0.583-2.008-0.965-3.111-1.124V18.802z M8.511,36.411c0-3.25,2.634-5.883,5.883-5.883s5.884,2.634,5.884,5.883
			s-2.635,5.883-5.884,5.883l0,0C11.146,42.291,8.514,39.659,8.511,36.411z M15.57,54.02v-9.467
			c1.103-0.159,2.161-0.541,3.111-1.125l8.171,5.446C23.84,51.903,19.83,53.732,15.57,54.02z M28.423,47.093L20.56,41.85
			c1.061-1.197,1.748-2.68,1.978-4.264h9.447C31.76,41.037,30.521,44.344,28.423,47.093z M35.283,51.668l-4.913-3.275
			c2.359-3.132,3.739-6.891,3.966-10.806h5.912C40.022,42.669,38.295,47.57,35.283,51.668L35.283,51.668z M34.336,35.232
			c-0.227-3.914-1.606-7.673-3.966-10.804l4.913-3.275c3.011,4.1,4.738,8.999,4.965,14.079H34.336z"/>
	</g>
</g>
</svg>
