<svg xmlns="http://www.w3.org/2000/svg" width="64.81" height="65" viewBox="0 0 64.81 65">
  <g id="Group_2139" data-name="Group 2139" transform="translate(10878.283 -6831.089)">
    <g id="Group_2581" data-name="Group 2581" transform="translate(-11201.566 6770.178)">
      <g id="broker" transform="translate(323.283 60.911)">
        <path id="Path_17601" data-name="Path 17601" d="M63.417,12.179,44.134,0l-11.5,7.261V4.373H26.364v6.851l-1.513.955a3.466,3.466,0,0,0-1.624,2.944v.4a3.472,3.472,0,0,0,5.227,3.006v4.75A12.527,12.527,0,0,0,6.5,31.551v8.362a4.186,4.186,0,0,0,4.18,4.183H11.3a8.4,8.4,0,0,0,2.52,3.382v2.1l-8.3,2.392A7.352,7.352,0,0,0,.231,59v6H37.862V59a7.353,7.353,0,0,0-5.289-7.03l-8.3-2.394V47.473a8.394,8.394,0,0,0,2.52-3.377h.616a4.169,4.169,0,0,0,3.6-2.09h2.425a11.482,11.482,0,0,0,21.4,0h4.98V18.531a3.472,3.472,0,0,0,5.227-3.006v-.4a3.465,3.465,0,0,0-1.624-2.944ZM28.454,6.463h2.09v2.12L28.454,9.9ZM19.044,21.1A10.465,10.465,0,0,1,29.5,31.553v4.762a4.139,4.139,0,0,0-2.09-.581V34.69l-.02-1.039-1.039,0A9.032,9.032,0,0,1,19.971,31l-.927-.926-.917.917a8.984,8.984,0,0,1-6.4,2.648H10.684v2.09a4.141,4.141,0,0,0-2.09.581V31.55A10.465,10.465,0,0,1,19.049,21.095ZM10.684,42a2.09,2.09,0,0,1,0-4.181v3.136A8.412,8.412,0,0,0,10.757,42Zm3.879,9.537,2.922,2.922L14.4,56.931,12.987,52ZM35.771,59V62.91H29.5V58.729H27.409V62.91H10.684V58.729H8.594V62.91H2.321V59A5.253,5.253,0,0,1,6.1,53.983l4.875-1.407,2.273,7.95,5.8-4.639,5.8,4.64,2.273-7.95L32,53.984A5.249,5.249,0,0,1,35.771,59ZM25.11,52,23.7,56.932l-3.088-2.468,2.922-2.922Zm-2.927-2.064-3.139,3.136-3.136-3.136V48.707a8.3,8.3,0,0,0,6.272,0Zm3.136-8.975a6.272,6.272,0,1,1-12.544,0V35.684a11.04,11.04,0,0,0,6.272-2.693,11.08,11.08,0,0,0,6.271,2.689ZM27.409,42h-.072a8.411,8.411,0,0,0,.072-1.046V37.822a2.09,2.09,0,1,1,0,4.181ZM44.134,47.23a9.408,9.408,0,1,1,9.408-9.408A9.408,9.408,0,0,1,44.134,47.23Zm11.3-7.317a11.5,11.5,0,1,0-22.6,0H31.59V31.55a12.464,12.464,0,0,0-1.046-5V17.234L44.134,8.742l13.589,8.493V39.913Zm7.515-24.388a1.392,1.392,0,0,1-2.129,1.18L44.134,6.275,27.449,16.7a1.392,1.392,0,0,1-2.13-1.179v-.4a1.386,1.386,0,0,1,.649-1.177L44.134,2.474,62.3,13.947a1.382,1.382,0,0,1,.649,1.176Zm0,0" transform="translate(-0.231)" fill="#fff"/>
      </g>
      <g id="Group_2578" data-name="Group 2578" transform="translate(362.272 93.99)">
        <g id="Group_2580" data-name="Group 2580">
          <path id="Path_17604" data-name="Path 17604" d="M167.746,130.82h-.774a3.477,3.477,0,0,0-.651-1.41h1.429a.705.705,0,1,0,0-1.41H160.7a.705.705,0,1,0,0,1.41h2.816a2.111,2.111,0,0,1,1.985,1.41h-4.806a.705.705,0,1,0,0,1.41H165.5a2.111,2.111,0,0,1-1.985,1.41h-2.82a.705.705,0,0,0-.651.974.672.672,0,0,0,.154.23l5.638,5.638a.705.705,0,1,0,1-1L162.4,135.05h1.118a3.528,3.528,0,0,0,3.453-2.82h.777a.705.705,0,1,0,0-1.41Z" transform="translate(-159.99 -128)" fill="#fff"/>
        </g>
      </g>
    </g>
    <g id="Rectangle_743" data-name="Rectangle 743" transform="translate(-10841 6845)" fill="none" stroke="#fff" stroke-width="1.5">
      <rect width="13" height="10" stroke="none"/>
      <rect x="0.75" y="0.75" width="11.5" height="8.5" fill="none"/>
    </g>
  </g>
</svg>
