<?xml version="1.0" encoding="utf-8"?>
<!-- Generator: Adobe Illustrator 16.0.0, SVG Export Plug-In . SVG Version: 6.00 Build 0)  -->
<!DOCTYPE svg PUBLIC "-//W3C//DTD SVG 1.1//EN" "http://www.w3.org/Graphics/SVG/1.1/DTD/svg11.dtd">
<svg version="1.1" id="Layer_1" xmlns="http://www.w3.org/2000/svg" xmlns:xlink="http://www.w3.org/1999/xlink" x="0px" y="0px"
	 width="52.109px" height="58px" viewBox="0 0 52.109 58" enable-background="new 0 0 52.109 58" xml:space="preserve">
<g>
	<defs>
		<rect id="SVGID_1_" x="0" width="52.109" height="58"/>
	</defs>
	<clipPath id="SVGID_2_">
		<use xlink:href="#SVGID_1_"  overflow="visible"/>
	</clipPath>
	<g id="Repeat_Grid_2" clip-path="url(#SVGID_2_)">
		<g id="Group_2276" transform="translate(-191 -425)">
			<g id="Group_1580" transform="translate(228.383 469.859)">
				<g id="Group_1579">
					
						<linearGradient id="Path_16326_1_" gradientUnits="userSpaceOnUse" x1="-196.7138" y1="207.8871" x2="-196.7138" y2="206.8871" gradientTransform="matrix(2.266 0 0 -2.266 446.8846 471.0681)">
						<stop  offset="0" style="stop-color:#00A9E0"/>
						<stop  offset="1" style="stop-color:#801C7D"/>
					</linearGradient>
					<path id="Path_16326" fill="url(#Path_16326_1_)" d="M1.133,0C0.507,0,0,0.507,0,1.133c0,0.625,0.508,1.133,1.134,1.133
						c0.625,0,1.133-0.508,1.133-1.133l0,0C2.266,0.507,1.758,0,1.133,0z"/>
				</g>
			</g>
			<g id="Group_1582" transform="translate(191 425)">
				<g id="Group_1581">
					
						<linearGradient id="Path_16327_1_" gradientUnits="userSpaceOnUse" x1="-273.7444" y1="418.751" x2="-273.7444" y2="417.751" gradientTransform="matrix(52.11 0 0 -58 14290.8652 24287.5313)">
						<stop  offset="0" style="stop-color:#00A9E0"/>
						<stop  offset="1" style="stop-color:#801C7D"/>
					</linearGradient>
					<path id="Path_16327" fill="url(#Path_16327_1_)" d="M41.3,41.2l-5.379-1.8l-1.933-3.866c1.759-1.798,2.93-4.087,3.358-6.564
						l0.24-1.445h2.063c1.878,0,3.399-1.522,3.399-3.4l0,0v-7.133C43.049,7.607,35.441,0,26.057,0
						C16.673,0,9.065,7.607,9.065,16.992v7.137c0.002,1.438,0.909,2.72,2.266,3.2v1.331c0,1.877,1.522,3.4,3.4,3.4l0,0h1
						c0.489,1.064,1.13,2.055,1.899,2.939c0.16,0.184,0.328,0.363,0.5,0.537L16.189,39.4l-5.39,1.8C4.544,43.284,0,49.874,0,56.867
						C0,57.492,0.508,58,1.133,58h49.845c0.625,0,1.133-0.508,1.133-1.133l0,0C52.109,49.874,47.566,43.284,41.3,41.2z
						 M40.776,24.133c-0.001,0.625-0.508,1.133-1.133,1.133H37.92c0.288-2.231,0.48-4.6,0.558-6.942c0-0.066,0-0.13,0.006-0.195h2.3
						L40.776,24.133z M12.456,25.266c-0.625,0-1.132-0.508-1.133-1.133v-6h2.3l0.012,0.356V18.5l0,0
						c0.079,2.274,0.27,4.586,0.551,6.767h-1.725L12.456,25.266z M14.722,29.8c-0.626-0.001-1.133-0.507-1.134-1.133v-1.14h0.93
						l0.24,1.445c0.047,0.275,0.101,0.547,0.169,0.82L14.722,29.8z M13.6,15.859h-2.229C11.996,7.75,19.076,1.682,27.185,2.307
						c7.241,0.558,12.995,6.311,13.553,13.552h-2.224C38.434,9.59,33.339,4.546,27.069,4.531h-2.028
						C18.773,4.548,13.679,9.592,13.6,15.859z M25.041,6.8h2.028c5.079,0.017,9.187,4.143,9.181,9.222c0,0.356,0,0.667-0.009,0.949
						v0.011l-1.417-0.2c-3.873-0.563-7.462-2.359-10.234-5.122c-0.212-0.212-0.499-0.332-0.8-0.332
						c-3.051,0.008-5.938,1.375-7.88,3.728C16.396,10.375,20.335,6.814,25.041,6.8z M17.28,29.8c-0.767-3.621-1.222-7.301-1.359-11
						l1.525-2.033c1.408-1.867,3.565-3.022,5.9-3.159c3.069,2.913,6.966,4.803,11.153,5.412l1.668,0.238
						c-0.105,2.318-0.328,4.629-0.666,6.924l0,0c-0.1,0.7-0.186,1.154-0.394,2.416c-0.583,3.685-3.245,6.702-6.829,7.739
						c-3.92,1.012-8.03-0.746-10.006-4.28h2.309c0.48,1.356,1.762,2.264,3.2,2.267h2.266c1.878-0.001,3.399-1.524,3.398-3.401
						s-1.521-3.398-3.398-3.399h-2.259c-1.441,0-2.726,0.908-3.206,2.267L17.28,29.8z M23.694,38.639
						c1.386,0.295,2.814,0.329,4.213,0.1l-2,2.117L23.694,38.639z M24.348,42.497l-3.594,3.8c-0.989-1.895-1.837-3.86-2.535-5.881
						l1.349-2.7L24.348,42.497z M32.348,37.333l1.541,3.082c-0.699,2.022-1.547,3.989-2.537,5.885l-3.847-3.846L32.348,37.333z
						 M22.655,30.934c0-0.627,0.507-1.134,1.133-1.134l0,0h2.267c0.625,0.001,1.132,0.509,1.132,1.134
						c-0.001,0.625-0.508,1.132-1.132,1.133h-2.266c-0.626-0.001-1.134-0.51-1.133-1.135c0-0.002,0-0.004,0-0.006L22.655,30.934z
						 M2.311,55.732c0.448-5.611,4.184-10.713,9.21-12.389l4.768-1.589c0.875,2.419,1.953,4.759,3.225,6.994l0.006,0.011l0,0
						c0.934,1.642,1.969,3.223,3.1,4.735l1.395,2.237H2.311z M26.055,54.723l-1.536-2.466c-0.018-0.027-0.036-0.054-0.056-0.081
						c-0.917-1.225-1.77-2.498-2.552-3.813l4.04-4.272l4.257,4.257c-0.784,1.321-1.64,2.599-2.561,3.828
						c-0.058,0.074,0.021-0.042-1.593,2.549V54.723z M28.095,55.732l1.393-2.232c1.14-1.523,2.183-3.118,3.122-4.773l0.017-0.029
						l0,0c1.257-2.218,2.323-4.537,3.19-6.934l4.768,1.588c5.026,1.676,8.762,6.777,9.21,12.39H28.095V55.732z"/>
				</g>
			</g>
			<g id="Group_1584" transform="translate(232.363 472.022)">
				<g id="Group_1583">
					
						<linearGradient id="Path_16328_1_" gradientUnits="userSpaceOnUse" x1="-267.7939" y1="310.8803" x2="-267.7939" y2="309.8803" gradientTransform="matrix(5.1613 0 0 -5.791 1384.748 1800.3014)">
						<stop  offset="0" style="stop-color:#00A9E0"/>
						<stop  offset="1" style="stop-color:#801C7D"/>
					</linearGradient>
					<path id="Path_16328" fill="url(#Path_16328_1_)" d="M5.031,4.128C4.269,2.607,3.172,1.276,1.824,0.236
						C1.327-0.145,0.615-0.051,0.233,0.445c-0.381,0.498-0.287,1.21,0.21,1.592C1.52,2.867,2.395,3.93,3.004,5.146
						c0.269,0.564,0.945,0.805,1.51,0.537c0.565-0.27,0.806-0.945,0.536-1.511C5.044,4.16,5.038,4.147,5.031,4.134V4.128z"/>
				</g>
			</g>
		</g>
	</g>
</g>
</svg>
