<?xml version="1.0" encoding="utf-8"?>
<!-- Generator: Adobe Illustrator 14.0.0, SVG Export Plug-In . SVG Version: 6.00 Build 43363)  -->
<!DOCTYPE svg PUBLIC "-//W3C//DTD SVG 1.1//EN" "http://www.w3.org/Graphics/SVG/1.1/DTD/svg11.dtd">
<svg version="1.1" id="Layer_1" xmlns="http://www.w3.org/2000/svg" xmlns:xlink="http://www.w3.org/1999/xlink" x="0px" y="0px"
	 width="59.355px" height="49.18px" viewBox="0 0 59.355 49.18" enable-background="new 0 0 59.355 49.18" xml:space="preserve">
<g id="car-compact" transform="translate(0 -38.37)">
	<path id="Path_15919" fill="#10BEDA" d="M59.354,65.689c-0.002-1.141-0.255-2.268-0.74-3.3c-0.049-0.259-0.105-0.518-0.175-0.781
		l-5.155-12.78l-0.035-0.115c-1.8-5.371-4.371-10.342-10.879-10.342H17.485c-6.669,0-9.026,5.094-10.869,10.313L1.223,61.491
		C0.427,62.747,0.004,64.202,0,65.689v3.977c0,0.606,0.07,1.21,0.211,1.8C0.073,71.822,0.001,72.201,0,72.584V84.41
		c0,1.734,1.406,3.14,3.141,3.14h6.515c1.733,0,3.139-1.406,3.139-3.14V78.5h34.139v5.91c0,1.734,1.405,3.14,3.14,3.14h6.143
		c1.734,0,3.141-1.405,3.141-3.14V72.583c-0.001-0.385-0.073-0.766-0.211-1.124c0.14-0.59,0.211-1.194,0.211-1.8L59.354,65.689
		L59.354,65.689L59.354,65.689z M10.442,49.965c2.053-5.792,3.7-7.56,7.043-7.56h24.883c3.314,0,5.16,1.972,7.035,7.534l3.762,7.624
		c-1.28-0.471-2.635-0.71-4-0.707H10.19c-1.233-0.002-2.458,0.193-3.629,0.578L10.442,49.965z M13.674,71.174H6.8
		c-1.238,0-2.242-1.004-2.242-2.242s1.004-2.243,2.242-2.243h6.875c1.239,0,2.243,1.005,2.243,2.243S14.914,71.174,13.674,71.174
		L13.674,71.174L13.674,71.174z M37.959,70.725h-15.99c-0.784-0.001-1.419-0.638-1.417-1.422c0.001-0.782,0.635-1.417,1.417-1.418
		h15.99c0.784-0.001,1.421,0.634,1.423,1.418c0.001,0.784-0.634,1.421-1.418,1.422C37.962,70.725,37.961,70.725,37.959,70.725z
		 M52.381,71.174h-6.874c-1.238,0-2.242-1.004-2.242-2.242s1.004-2.243,2.242-2.243h6.874c1.239,0,2.243,1.005,2.243,2.243
		S53.62,71.174,52.381,71.174z"/>
</g>
</svg>
