<svg id="Group_1952" data-name="Group 1952" xmlns="http://www.w3.org/2000/svg" width="49.765" height="40.045" viewBox="0 0 49.765 40.045">
  <path id="Path_16370" data-name="Path 16370" d="M33.009,122.8l-2.32-12.226a1.28,1.28,0,0,0-1.258-1.041H5.924a1.28,1.28,0,0,0-1.258,1.042L2.35,122.8A5.616,5.616,0,0,0,0,127.376v6.1a2.106,2.106,0,0,0,2.106,2.106h1v2.693a3.09,3.09,0,1,0,6.181,0V135.58H26.063v2.693a3.09,3.09,0,1,0,6.181,0V135.58h1a2.106,2.106,0,0,0,2.106-2.106v-6.1a5.621,5.621,0,0,0-2.345-4.574ZM6.113,132a2.917,2.917,0,1,1,2.917-2.939v.022A2.917,2.917,0,0,1,6.113,132Zm19.6-15.437H19.024a2.956,2.956,0,0,0-2.949,2.934l-.01,2.246H5.629c-.161,0-.32.008-.478.022l1.836-9.674H20.029a2.583,2.583,0,1,0,4.705,0h3.637l1.836,9.674c-.33-.028-.395-.022-1.532-.022l-.01-2.246a2.955,2.955,0,0,0-2.949-2.934ZM29.246,132a2.917,2.917,0,0,1-2.917-2.917c0-.007,0-.015,0-.022A2.917,2.917,0,1,1,29.245,132Z" transform="translate(0 -101.318)" fill="#fff"/>
  <path id="Path_16371" data-name="Path 16371" d="M205.186,108.443l-.539.462a1.44,1.44,0,0,0-.408,1.623l1.007,2.567V112.6a6.1,6.1,0,0,1,1.627-4.161Z" transform="translate(-170.047 -91.182)" fill="#fff"/>
  <path id="Path_16372" data-name="Path 16372" d="M276.941,106.18a6.093,6.093,0,0,1,1.631,4.024l2-4.448a2.25,2.25,0,0,1-1.313.423Z" transform="translate(-231.141 -88.927)" fill="#fff"/>
  <circle id="Ellipse_118" data-name="Ellipse 118" cx="2.487" cy="2.487" r="2.487" transform="translate(38.653 0)" fill="#fff"/>
  <path id="Path_16373" data-name="Path 16373" d="M241.263,147.746h0a1.5,1.5,0,0,0-1.5,1.5l0,5.622a1.5,1.5,0,0,0,1.5,1.5h0a1.5,1.5,0,0,0,1.5-1.5l0-5.622a1.5,1.5,0,0,0-1.5-1.5Z" transform="translate(-199.946 -124.163)" fill="#fff"/>
  <path id="Path_16374" data-name="Path 16374" d="M206.624,48.868a2.643,2.643,0,0,0,.8-1.174h4.085a1.2,1.2,0,0,0,1.822-1.294l-1.166-4.8a1.2,1.2,0,0,0-.4-.638l-3.527-2.945a1.869,1.869,0,0,0-.59-.264c-.349-.058-5.685,0-5.789.013a.905.905,0,0,0-.651.3l-3.8,3.482a1.2,1.2,0,0,0-.379.729l-.565,4.334a1.2,1.2,0,0,0,1.945,1.086H202.4a2.667,2.667,0,0,0,.8,1.172,4.717,4.717,0,0,0-3,4.4l0,5.225a1.071,1.071,0,0,0,1.07,1.069h.742v-2.63a2.9,2.9,0,0,1,2.9-2.906h0a2.907,2.907,0,0,1,2.9,2.9v2.63h.741a1.07,1.07,0,0,0,1.069-1.071v-.008l0-5.22A4.717,4.717,0,0,0,206.624,48.868ZM202.4,45.985h-3.43l.385-2.958,2.225-2.038.008,3.517a4.061,4.061,0,0,1,3.321-1.731h0a4.059,4.059,0,0,1,3.032,1.362l-.007-3.247,2,1.664.832,3.423h-3.337a2.654,2.654,0,0,0-5.025,0Zm2.514,2.1h0a1.248,1.248,0,1,1,1.249-1.249,1.248,1.248,0,0,1-1.249,1.249Z" transform="translate(-163.604 -31.847)" fill="#fff"/>
</svg>
