<svg xmlns="http://www.w3.org/2000/svg" xmlns:xlink="http://www.w3.org/1999/xlink" width="63.002" height="63.003" viewBox="0 0 63.002 63.003">
  <defs>
    <linearGradient id="linear-gradient" x1="0.5" x2="0.5" y2="1" gradientUnits="objectBoundingBox">
      <stop offset="0.13" stop-color="#00a9ed"/>
      <stop offset="1" stop-color="#65106b"/>
    </linearGradient>
  </defs>
  <path id="Union_16" data-name="Union 16" d="M21015,13768v-57.919a2.04,2.04,0,0,1,2.031-2.037h2.047a3.163,3.163,0,0,1,5.4-2.116l.893.889a20.441,20.441,0,0,1,8.4-1.819h7.168a20.475,20.475,0,0,1,8.4,1.819l.889-.889a3.166,3.166,0,0,1,5.406,2.116h2.043a2.037,2.037,0,0,1,2.031,2.037v45.72h8.129a1.014,1.014,0,0,0,1.016-1.016v-8.125h2.033v8.125a3.053,3.053,0,0,1-3.049,3.053h-8.129V13768Zm2.037-2.037h40.643v-8.125H21046.5a3.055,3.055,0,0,1-3.047-3.053v-1.016h-1.523a3.555,3.555,0,1,1,0-7.109h4.57v-4.067h-18.293v4.067h4.576a3.555,3.555,0,0,1,0,7.109h-8.639a3.048,3.048,0,0,1-3.047-3.047v-8.13h-4.062Zm28.449-11.178a1.015,1.015,0,0,0,1.016,1.016h11.178V13742.6h-4.062v8.13a3.053,3.053,0,0,1-3.053,3.047h-5.078Zm0-3.047h5.078a1.016,1.016,0,0,0,1.016-1.016v-9.817a3.051,3.051,0,0,0-2.5-3l-7.205-1.312a6.24,6.24,0,0,1-9.035,0l-7.205,1.312a3.047,3.047,0,0,0-2.5,3v9.817a1.016,1.016,0,0,0,1.016,1.016h8.639a1.523,1.523,0,0,0,0-3.047h-6.607v-8.131h22.355v8.131h-3.047Zm-5.084-1.523a1.529,1.529,0,0,0,1.529,1.523h1.523v-3.047h-1.523A1.529,1.529,0,0,0,21040.4,13750.218Zm2.037-16.795v1.217l7,1.27a5.066,5.066,0,0,1,4.141,4.654h4.1v-30.479h-2.031v20.2a3.176,3.176,0,0,1-5.418,2.243l-.883-.884A18.32,18.32,0,0,1,21042.438,13733.423Zm-25.4,7.141h4.094a5.058,5.058,0,0,1,4.137-4.654l7.01-1.275v-1.211a18.469,18.469,0,0,1-6.914-1.783l-.883.884a3.172,3.172,0,0,1-5.412-2.243v-20.2h-2.031Zm17.271-5.379a4.184,4.184,0,0,0,6.094,0v-1.249a8.957,8.957,0,0,1-6.094,0Zm3.047-2.751a7.117,7.117,0,0,0,6.813-5.078h-13.627A7.127,7.127,0,0,0,21037.354,13732.434Zm14.314-1.35a1.152,1.152,0,0,0,.809.334,1.14,1.14,0,0,0,1.139-1.138v-22.106a1.141,1.141,0,0,0-1.947-.81l-1.92,1.921-.656-.328a18.315,18.315,0,0,0-8.152-1.926h-7.168a18.332,18.332,0,0,0-8.156,1.926l-.656.328-1.92-1.921a1.137,1.137,0,0,0-1.941.81v22.106a1.136,1.136,0,0,0,1.137,1.138,1.156,1.156,0,0,0,.811-.334l1.92-1.914,1.078.539a16.361,16.361,0,0,0,4.238,1.4,9.089,9.089,0,0,1-2.074-5.787v-7.792a8.469,8.469,0,0,1,15.246-5.079l.434.582a1.637,1.637,0,0,0,.582.481,3.661,3.661,0,0,1,2.031,3.29v8.518a9.117,9.117,0,0,1-2.068,5.787,16.421,16.421,0,0,0,4.236-1.4l1.08-.539Zm-21.424-5.76h14.225v-6.1h-14.225Zm.016-8.131h14.209v-.387a1.633,1.633,0,0,0-.91-1.47,3.72,3.72,0,0,1-1.3-1.085l-.439-.582a6.429,6.429,0,0,0-11.562,3.523Zm38.594,27.434v-2.031h2.037v2.031Zm0-4.063v-2.031h2.037v2.031Zm0-4.062v-3.052h-2.031v-4.6l-3.771-3.126a3.046,3.046,0,0,1-1.311-2.5v-15.172a3.055,3.055,0,0,1,3.051-3.047h10.162a3.054,3.054,0,0,1,3.047,3.047v15.172a3.031,3.031,0,0,1-1.311,2.5l-3.768,3.126v4.6h-2.035v3.052Zm0-5.083h2.033v-2.031h-2.033Zm-.65-4.062h3.334l2.459-2.031h-3.109v-2.032h5.072c0-.026.01-.047.01-.073v-15.172a1.019,1.019,0,0,0-1.016-1.016h-10.162a1.016,1.016,0,0,0-1.016,1.016v15.172c0,.026.006.047.006.073h5.072v2.032h-3.1Zm-27.8-4.063v-2.036h2.037v2.036Zm-8.125,0v-2.036h2.031v2.036Zm36.578-4.067v-2.031h-2.031v-2.031h2.031v-2.031h2.033v2.031h2.035v2.031h-2.035v2.031Z" transform="translate(-21014.998 -13705)" fill="url(#linear-gradient)"/>
</svg>
