<?xml version="1.0" encoding="utf-8"?>
<!-- Generator: Adobe Illustrator 16.0.0, SVG Export Plug-In . SVG Version: 6.00 Build 0)  -->
<!DOCTYPE svg PUBLIC "-//W3C//DTD SVG 1.1//EN" "http://www.w3.org/Graphics/SVG/1.1/DTD/svg11.dtd">
<svg version="1.1" id="Layer_1" xmlns="http://www.w3.org/2000/svg" xmlns:xlink="http://www.w3.org/1999/xlink" x="0px" y="0px"
	 width="51.389px" height="44.867px" viewBox="0 0 51.389 44.867" enable-background="new 0 0 51.389 44.867" xml:space="preserve">
<g id="chat" transform="translate(0 -31.05)">
	<g id="Group_1361" transform="translate(0 31.05)">
		
			<linearGradient id="Path_16127_1_" gradientUnits="userSpaceOnUse" x1="-270.7888" y1="405.5093" x2="-270.7888" y2="404.5093" gradientTransform="matrix(31.8635 0 0 -29.6486 8644.1992 12037.9609)">
			<stop  offset="0" style="stop-color:#00A9E0"/>
			<stop  offset="1" style="stop-color:#801C7D"/>
		</linearGradient>
		<path id="Path_16127" fill="url(#Path_16127_1_)" d="M7.194,44.792c0.119,0.051,0.248,0.076,0.378,0.074
			c0.246,0,0.482-0.095,0.662-0.263l6.585-6.3H27.2c2.574-0.002,4.661-2.088,4.663-4.663v-7.026
			c0.017-0.527-0.396-0.969-0.925-0.986c-0.527-0.018-0.969,0.396-0.986,0.925c-0.001,0.021-0.001,0.041,0,0.062v7.026
			c-0.001,1.519-1.232,2.751-2.752,2.752H14.43c-0.246,0.001-0.482,0.095-0.662,0.263l-5.251,5.02V37.36
			c-0.002-0.527-0.429-0.954-0.956-0.956h-2.9c-1.52-0.001-2.751-1.232-2.752-2.752v-13.76c0.001-1.521,1.23-2.756,2.752-2.762
			h11.271c0.527,0.017,0.969-0.396,0.986-0.924c0.017-0.528-0.397-0.969-0.925-0.986c-0.021-0.001-0.041-0.001-0.062,0H4.663
			C2.089,15.221,0.003,17.307,0,19.881v13.758c0.002,2.575,2.089,4.661,4.663,4.663h1.953v5.619
			C6.618,44.3,6.844,44.644,7.194,44.792z"/>
		
			<linearGradient id="Path_16128_1_" gradientUnits="userSpaceOnUse" x1="-270.8547" y1="405.606" x2="-270.8547" y2="404.606" gradientTransform="matrix(32.116 0 0 -29.8667 8734.1172 12114.1191)">
			<stop  offset="0" style="stop-color:#00A9E0"/>
			<stop  offset="1" style="stop-color:#801C7D"/>
		</linearGradient>
		<path id="Path_16128" fill="url(#Path_16128_1_)" d="M36.464,23.25l6.638,6.354c0.279,0.261,0.686,0.335,1.04,0.188
			c0.349-0.148,0.576-0.492,0.578-0.871V23.25h1.974c2.594,0,4.697-2.101,4.7-4.694V4.695C51.39,2.101,49.287,0,46.693,0H23.977
			c-2.594,0-4.697,2.101-4.7,4.695v13.863c0.003,2.594,2.106,4.695,4.7,4.695L36.464,23.25z M21.194,18.55V4.695
			c0.003-1.536,1.247-2.78,2.783-2.783h22.705c1.535,0.002,2.78,1.247,2.782,2.783v13.863c-0.002,1.536-1.247,2.78-2.782,2.783
			h-2.931c-0.527,0.002-0.954,0.429-0.956,0.956v4.39l-5.3-5.073c-0.179-0.17-0.415-0.264-0.662-0.263H23.977
			c-1.54-0.003-2.786-1.253-2.784-2.793L21.194,18.55z"/>
		
			<linearGradient id="Path_16129_1_" gradientUnits="userSpaceOnUse" x1="-139.1169" y1="213.3413" x2="-139.1169" y2="212.3413" gradientTransform="matrix(1.936 0 0 -1.936 304.6746 423.8629)">
			<stop  offset="0" style="stop-color:#00A9E0"/>
			<stop  offset="1" style="stop-color:#801C7D"/>
		</linearGradient>
		<path id="Path_16129" fill="url(#Path_16129_1_)" d="M35.33,12.77c0.535,0.007,0.974-0.42,0.981-0.955
			c0.007-0.534-0.421-0.974-0.955-0.981c-0.534-0.007-0.974,0.42-0.981,0.955c-0.003,0.261,0.099,0.512,0.283,0.697
			C34.833,12.67,35.076,12.773,35.33,12.77z"/>
		
			<linearGradient id="Path_16130_1_" gradientUnits="userSpaceOnUse" x1="-139.1169" y1="213.3472" x2="-139.1169" y2="212.3472" gradientTransform="matrix(1.936 0 0 -1.9361 308.2244 423.8835)">
			<stop  offset="0" style="stop-color:#00A9E0"/>
			<stop  offset="1" style="stop-color:#801C7D"/>
		</linearGradient>
		<path id="Path_16130" fill="url(#Path_16130_1_)" d="M38.88,12.77c0.535,0.007,0.975-0.42,0.981-0.955
			c0.007-0.534-0.42-0.974-0.955-0.981c-0.534-0.007-0.974,0.42-0.98,0.955c-0.004,0.261,0.098,0.512,0.282,0.697
			C38.382,12.671,38.626,12.774,38.88,12.77z"/>
		
			<linearGradient id="Path_16131_1_" gradientUnits="userSpaceOnUse" x1="-139.1169" y1="213.3413" x2="-139.1169" y2="212.3413" gradientTransform="matrix(1.936 0 0 -1.936 301.1356 423.8629)">
			<stop  offset="0" style="stop-color:#00A9E0"/>
			<stop  offset="1" style="stop-color:#801C7D"/>
		</linearGradient>
		<path id="Path_16131" fill="url(#Path_16131_1_)" d="M31.791,12.77c0.535,0.007,0.974-0.42,0.981-0.955
			c0.007-0.534-0.421-0.974-0.955-0.981c-0.534-0.007-0.974,0.42-0.981,0.955c-0.003,0.261,0.099,0.512,0.283,0.697
			C31.294,12.67,31.537,12.773,31.791,12.77z"/>
	</g>
</g>
</svg>
