<?xml version="1.0" encoding="utf-8"?>
<!-- Generator: Adobe Illustrator 14.0.0, SVG Export Plug-In . SVG Version: 6.00 Build 43363)  -->
<!DOCTYPE svg PUBLIC "-//W3C//DTD SVG 1.1//EN" "http://www.w3.org/Graphics/SVG/1.1/DTD/svg11.dtd">
<svg version="1.1" id="skyline" xmlns="http://www.w3.org/2000/svg" xmlns:xlink="http://www.w3.org/1999/xlink" x="0px" y="0px"
	 width="65px" height="65px" viewBox="0.633 3.905 65 65" enable-background="new 0.633 3.905 65 65" xml:space="preserve">
<g id="Group_1077" transform="translate(0)">
	<g id="Group_1076">
		<path id="Path_15717" fill="#FFFFFF" d="M60.324,65.34h-1.746V10.608c0-0.577-0.469-1.045-1.047-1.045H38.013
			c-0.578,0-1.046,0.468-1.046,1.045l0,0v4.532h-2.091v-4.532c0-0.577-0.468-1.045-1.046-1.045l0,0h-4.532V6.425
			c0-0.578-0.467-1.046-1.045-1.047c-0.577-0.001-1.046,0.467-1.047,1.044c0,0,0,0.001,0,0.002v3.138h-4.532
			c-0.577,0-1.045,0.468-1.045,1.045l0,0v4.532h-3.137c-0.578,0-1.046,0.469-1.046,1.046l0,0v8.714H8.731
			c-0.578,0-1.046,0.468-1.046,1.045V65.34H5.941c-0.578,0-1.045,0.468-1.045,1.045c0,0.578,0.468,1.047,1.045,1.047l0,0h54.383
			c0.577,0,1.045-0.469,1.045-1.047C61.369,65.807,60.902,65.34,60.324,65.34z M23.721,11.654h9.063v3.485h-9.063V11.654z
			 M20.235,65.34h-0.697v-1.743c0.001-0.577-0.467-1.046-1.044-1.047s-1.046,0.467-1.047,1.045c0,0.001,0,0.002,0,0.002v1.743H16.75
			v-3.485h3.485V65.34z M27.207,38.494V65.34h-4.881v-4.532c0-0.578-0.469-1.046-1.046-1.046l0,0h-5.578
			c-0.578,0-1.045,0.468-1.045,1.046l0,0v4.532h-4.88V26.989h17.43L27.207,38.494z M28.253,24.898h-8.716v-7.67h17.43V37.45h-7.67
			v-3.485h3.137c0.578,0,1.046-0.468,1.046-1.045c0-0.577-0.469-1.046-1.046-1.046h-3.136v-3.484h3.137
			c0.578,0,1.046-0.468,1.046-1.045s-0.468-1.046-1.046-1.046h-3.137V25.95c0.001-0.578-0.465-1.047-1.043-1.049
			c-0.001,0-0.002,0-0.002,0L28.253,24.898z M46.732,65.34H29.298V39.543h17.434V65.34z M56.492,65.34h-7.67V37.102
			c0-0.578-0.469-1.046-1.047-1.046c-0.577,0-1.045,0.468-1.045,1.046v0.348h-2.094v-0.348c0-0.578-0.469-1.046-1.047-1.046
			c-0.576,0-1.045,0.468-1.045,1.046v0.348h-3.484V11.654H56.49V65.34H56.492z"/>
		<path id="Path_15718" fill="#FFFFFF" d="M33.83,63.248c0.577,0,1.046-0.468,1.046-1.046V42.68c0-0.578-0.467-1.047-1.044-1.048
			c-0.578-0.002-1.046,0.466-1.048,1.043c0,0.001,0,0.003,0,0.005v19.521C32.784,62.78,33.253,63.248,33.83,63.248z"/>
		<path id="Path_15719" fill="#FFFFFF" d="M38.013,63.248c0.577,0,1.046-0.468,1.046-1.046V42.68c0-0.578-0.469-1.046-1.046-1.046
			c-0.578,0-1.046,0.468-1.046,1.046v19.521C36.967,62.78,37.435,63.248,38.013,63.248L38.013,63.248z"/>
		<path id="Path_15720" fill="#FFFFFF" d="M42.197,63.248c0.577,0,1.046-0.468,1.046-1.046V42.68c0-0.578-0.469-1.046-1.046-1.046
			c-0.578,0-1.046,0.468-1.046,1.046v19.521C41.151,62.78,41.618,63.248,42.197,63.248L42.197,63.248z"/>
		<path id="Path_15721" fill="#FFFFFF" d="M43.591,18.625c0.577,0,1.046-0.468,1.046-1.045v-1.394c0-0.578-0.469-1.046-1.046-1.046
			s-1.046,0.469-1.046,1.046v1.392c-0.002,0.578,0.466,1.047,1.043,1.048C43.589,18.625,43.59,18.625,43.591,18.625z"/>
		<path id="Path_15722" fill="#FFFFFF" d="M47.775,18.625c0.577,0,1.046-0.468,1.046-1.045v-1.394c0-0.578-0.469-1.046-1.046-1.046
			c-0.578,0-1.046,0.469-1.046,1.046v1.392c-0.002,0.578,0.466,1.047,1.043,1.048C47.773,18.625,47.774,18.625,47.775,18.625z"/>
		<path id="Path_15723" fill="#FFFFFF" d="M51.957,18.625c0.577,0,1.046-0.468,1.046-1.045v-1.394c0-0.578-0.469-1.046-1.046-1.046
			s-1.045,0.469-1.045,1.046v1.392c-0.002,0.578,0.465,1.047,1.042,1.048C51.955,18.625,51.956,18.625,51.957,18.625z"/>
		<path id="Path_15724" fill="#FFFFFF" d="M43.591,25.598c0.577,0,1.046-0.469,1.046-1.046v-1.394c0-0.578-0.469-1.046-1.046-1.046
			s-1.046,0.469-1.046,1.046v1.394C42.545,25.129,43.014,25.598,43.591,25.598L43.591,25.598z"/>
		<path id="Path_15725" fill="#FFFFFF" d="M47.775,25.598c0.577,0,1.046-0.469,1.046-1.046v-1.394c0-0.578-0.469-1.046-1.046-1.046
			c-0.578,0-1.046,0.469-1.046,1.046v1.394C46.729,25.129,47.197,25.598,47.775,25.598L47.775,25.598z"/>
		<path id="Path_15726" fill="#FFFFFF" d="M51.957,25.598c0.577,0,1.046-0.469,1.046-1.046v-1.394c0-0.578-0.469-1.046-1.046-1.046
			s-1.045,0.469-1.045,1.046v1.394C50.912,25.129,51.38,25.598,51.957,25.598L51.957,25.598z"/>
		<path id="Path_15727" fill="#FFFFFF" d="M43.591,32.57c0.577,0,1.046-0.469,1.046-1.046V30.13c0-0.578-0.469-1.045-1.046-1.045
			s-1.046,0.468-1.046,1.045l0,0v1.394C42.545,32.101,43.014,32.57,43.591,32.57L43.591,32.57z"/>
		<path id="Path_15728" fill="#FFFFFF" d="M47.775,32.57c0.577,0,1.046-0.469,1.046-1.046V30.13c0-0.578-0.469-1.045-1.046-1.045
			c-0.578,0-1.046,0.468-1.046,1.045l0,0v1.394C46.729,32.101,47.197,32.57,47.775,32.57L47.775,32.57z"/>
		<path id="Path_15729" fill="#FFFFFF" d="M51.957,32.57c0.577,0,1.046-0.469,1.046-1.046V30.13c0-0.578-0.469-1.045-1.046-1.045
			s-1.045,0.468-1.045,1.045l0,0v1.394C50.912,32.101,51.38,32.57,51.957,32.57L51.957,32.57z"/>
		<path id="Path_15730" fill="#FFFFFF" d="M14.308,35.361c0.578,0,1.046-0.467,1.046-1.045c0-0.001,0-0.003,0-0.003v-1.394
			c0-0.578-0.468-1.046-1.045-1.046s-1.046,0.469-1.046,1.046v1.394c0,0.578,0.466,1.047,1.044,1.048
			C14.306,35.361,14.307,35.361,14.308,35.361z"/>
		<path id="Path_15731" fill="#FFFFFF" d="M18.492,35.361c0.577,0,1.045-0.468,1.045-1.046l0,0v-1.394
			c0-0.578-0.468-1.046-1.045-1.046c-0.578,0-1.046,0.469-1.046,1.046v1.394C17.446,34.893,17.914,35.361,18.492,35.361
			L18.492,35.361z"/>
		<path id="Path_15732" fill="#FFFFFF" d="M22.674,35.361c0.577,0,1.046-0.468,1.046-1.046l0,0v-1.394
			c0.001-0.578-0.466-1.047-1.043-1.048c-0.578-0.001-1.047,0.466-1.048,1.043c0,0.001,0,0.002,0,0.004v1.394
			C21.629,34.893,22.097,35.361,22.674,35.361z"/>
		<path id="Path_15733" fill="#FFFFFF" d="M14.308,42.331c0.577,0,1.045-0.467,1.046-1.045v-1.394c0-0.578-0.468-1.046-1.045-1.046
			s-1.046,0.468-1.046,1.046v1.394C13.264,41.863,13.731,42.33,14.308,42.331z"/>
		<path id="Path_15734" fill="#FFFFFF" d="M18.492,42.331c0.577,0,1.044-0.467,1.045-1.045v-1.394c0-0.578-0.468-1.046-1.045-1.046
			c-0.578,0-1.046,0.468-1.046,1.046v1.394C17.447,41.864,17.915,42.331,18.492,42.331z"/>
		<path id="Path_15735" fill="#FFFFFF" d="M22.674,42.331c0.577,0,1.045-0.467,1.046-1.045v-1.394
			c0.001-0.578-0.466-1.046-1.043-1.048c-0.578-0.001-1.047,0.466-1.048,1.044c0,0.001,0,0.002,0,0.004v1.394
			C21.629,41.864,22.097,42.331,22.674,42.331z"/>
		<path id="Path_15736" fill="#FFFFFF" d="M14.308,49.302c0.578,0,1.045-0.468,1.045-1.045v-1.396c0-0.576-0.468-1.045-1.045-1.045
			s-1.046,0.469-1.046,1.045v1.396C13.262,48.835,13.73,49.302,14.308,49.302z"/>
		<path id="Path_15737" fill="#FFFFFF" d="M18.492,49.302c0.577,0,1.045-0.468,1.045-1.045v-1.396c0-0.576-0.468-1.045-1.045-1.045
			c-0.578,0-1.046,0.469-1.046,1.045v1.396C17.446,48.835,17.914,49.302,18.492,49.302z"/>
		<path id="Path_15738" fill="#FFFFFF" d="M22.674,49.302c0.577,0,1.046-0.468,1.046-1.045v-1.396
			c0.001-0.576-0.466-1.046-1.043-1.048c-0.578,0-1.047,0.467-1.048,1.044c0,0.002,0,0.004,0,0.004v1.396
			C21.629,48.835,22.097,49.302,22.674,49.302z"/>
		<path id="Path_15739" fill="#FFFFFF" d="M14.308,56.274c0.578,0,1.045-0.468,1.045-1.045v-1.395c0-0.577-0.468-1.046-1.045-1.046
			s-1.046,0.469-1.046,1.046v1.395C13.262,55.806,13.73,56.274,14.308,56.274z"/>
		<path id="Path_15740" fill="#FFFFFF" d="M18.492,56.274c0.577,0,1.045-0.468,1.045-1.045v-1.395c0-0.577-0.468-1.046-1.045-1.046
			c-0.578,0-1.046,0.469-1.046,1.046v1.395C17.446,55.806,17.914,56.274,18.492,56.274z"/>
		<path id="Path_15741" fill="#FFFFFF" d="M22.674,56.274c0.577,0,1.046-0.468,1.046-1.045v-1.395
			c-0.001-0.577-0.47-1.044-1.048-1.043c-0.576,0.001-1.043,0.468-1.043,1.043v1.395C21.629,55.806,22.097,56.274,22.674,56.274z"/>
		<path id="Path_15742" fill="#FFFFFF" d="M51.957,39.542c0.577,0,1.046-0.468,1.046-1.045v-1.395c0-0.578-0.469-1.046-1.046-1.046
			s-1.045,0.468-1.045,1.046v1.395C50.912,39.074,51.38,39.542,51.957,39.542L51.957,39.542z"/>
		<path id="Path_15743" fill="#FFFFFF" d="M51.957,46.514c0.577,0,1.046-0.469,1.046-1.046v-1.395c0-0.577-0.469-1.045-1.046-1.045
			s-1.045,0.468-1.045,1.045v1.395C50.912,46.046,51.38,46.514,51.957,46.514L51.957,46.514z"/>
		<path id="Path_15744" fill="#FFFFFF" d="M51.957,53.486c0.577,0,1.046-0.468,1.046-1.045v-1.395c0-0.578-0.469-1.046-1.046-1.046
			s-1.045,0.468-1.045,1.046v1.395C50.912,53.018,51.38,53.486,51.957,53.486L51.957,53.486z"/>
		<path id="Path_15745" fill="#FFFFFF" d="M51.957,60.46c0.577,0,1.046-0.468,1.046-1.045V58.02c0-0.577-0.469-1.046-1.046-1.046
			s-1.045,0.469-1.045,1.046l0,0v1.395C50.912,59.992,51.38,60.46,51.957,60.46L51.957,60.46z"/>
		<path id="Path_15746" fill="#FFFFFF" d="M33.481,21.764c0-0.578-0.468-1.046-1.046-1.046l0,0h-8.366
			c-0.578,0-1.046,0.469-1.046,1.046c0,0.577,0.468,1.045,1.046,1.045h8.366C33.012,22.809,33.481,22.341,33.481,21.764
			L33.481,21.764z"/>
	</g>
</g>
</svg>
