<svg xmlns="http://www.w3.org/2000/svg" width="40.444" height="43.333" viewBox="0 0 40.444 43.333">
  <g id="clipboard" transform="translate(0 0)">
    <path id="Path_16361" data-name="Path 16361" d="M40.444,21.666a10.117,10.117,0,0,0-8.667-10V5.055a2.167,2.167,0,0,0-2.167-2.167h-6.5V1.444A1.444,1.444,0,0,0,21.666,0H10.111A1.444,1.444,0,0,0,8.667,1.444V2.889h-6.5A2.167,2.167,0,0,0,0,5.055v32.5a2.167,2.167,0,0,0,2.167,2.167H27.444v.722a2.889,2.889,0,1,0,5.778,0V33.222A.722.722,0,0,0,32.5,32.5v-.962a10.124,10.124,0,0,0,7.944-9.871Zm-1.444,0A8.667,8.667,0,1,1,30.333,13,8.667,8.667,0,0,1,39,21.666ZM29.611,4.333a.722.722,0,0,1,.722.722v6.5a10.009,10.009,0,0,0-1.444.116V7.222a1.444,1.444,0,0,0-1.444-1.444H23.111V4.333Zm-19.5-2.889H21.666V8.666H10.111Zm11.555,8.667a1.444,1.444,0,0,0,1.444-1.444V7.222h4.333v4.759a10.1,10.1,0,0,0,.722,19.556V32.5a.722.722,0,0,0-.722.722v2.167H4.333V7.222H8.667V8.666a1.444,1.444,0,0,0,1.444,1.444ZM2.167,38.277a.722.722,0,0,1-.722-.722V5.055a.722.722,0,0,1,.722-.722h6.5V5.777H4.333A1.444,1.444,0,0,0,2.889,7.222V35.388a1.444,1.444,0,0,0,1.444,1.444H27.444v1.444Zm29.611,2.167a1.444,1.444,0,0,1-2.889,0v-6.5h2.889ZM31.055,32.5H29.611V31.74c.24.017.478.037.722.037s.482-.019.722-.037Zm0,0" fill="#fff"/>
    <path id="Path_16362" data-name="Path 16362" d="M256,167.222a7.23,7.23,0,0,0,7.222,7.222V173a5.778,5.778,0,0,1,0-11.555V160A7.23,7.23,0,0,0,256,167.222Zm0,0" transform="translate(-232.889 -145.556)" fill="#fff"/>
    <path id="Path_16363" data-name="Path 16363" d="M80,140.693v5.778a.722.722,0,0,0,.722.722H86.5a.722.722,0,0,0,.722-.722V141.2l1.27-1.483-1.1-.939-1.022,1.194H80.722a.722.722,0,0,0-.722.722Zm1.444.722h3.692l-1.566,1.826-.893-.893-1.021,1.021,1.444,1.444a.722.722,0,0,0,.511.212h.028a.722.722,0,0,0,.52-.252l1.619-1.888v2.863H81.444Zm0,0" transform="translate(-72.778 -126.249)" fill="#fff"/>
  </g>
</svg>
