<svg xmlns="http://www.w3.org/2000/svg" xmlns:xlink="http://www.w3.org/1999/xlink" width="448.14" height="361.994" viewBox="0 0 448.14 361.994">
  <defs>
    <linearGradient id="linear-gradient" x1="0.32" x2="0.886" y2="0.52" gradientUnits="objectBoundingBox">
      <stop offset="0" stop-color="#b5e2f6"/>
      <stop offset="1" stop-color="#cae4ef"/>
    </linearGradient>
  </defs>
  <g id="Group_4215" data-name="Group 4215" transform="translate(-183.483 -4996.006)">
    <path id="Path_19951" data-name="Path 19951" d="M411.911,85.587a89.924,89.924,0,0,0-2.7,34.051c1.651,14.336,6.729,28.185,11.165,42.078,6.1,19.1,6.408,52.63,0,71.913-2.243,6.747-53.458,120.514-53.475,121.01,0,0,72.062.027,0,.035s-287.777,0-288.252,0c-3.379-.025-6.8-14.226-7.177-15.925C69,327.7,56.684,315.891,61.808,305.519c7.274-14.725,14.855-26.43,7.518-42.627C64.5,252.237,55.163,243.983,49.819,233.63a122.792,122.792,0,0,1-8.843-90.176C50.191,111.36,71.358,88.893,98.328,66.53c24.221-20.083,44.207-43.935,65.5-66.247H467.816s0,10.64,0,10.652c-.117,4.439-12.063,13.74-15.352,17.128-12.728,13.108-26.294,24.639-34.12,40.57a95.969,95.969,0,0,0-6.433,16.954" transform="translate(163.807 4995.723)" opacity="0.46" fill="url(#linear-gradient)"/>
    <path id="Path_19954" data-name="Path 19954" d="M378.463,454.351c0,8.728-74.738,15.8-166.933,15.8S44.6,463.079,44.6,454.351,119.335,438.54,211.53,438.54s166.933,7.08,166.933,15.811" transform="translate(179.537 4887.844)" fill="#c7dbe4"/>
    <g id="Group_4209" data-name="Group 4209" transform="translate(188.483 5099.45)">
      <g id="Group_4148" data-name="Group 4148" transform="translate(128.402 89.95)">
        <g id="Group_4119" data-name="Group 4119" transform="translate(106.152 21.037)">
          <path id="Path_19956" data-name="Path 19956" d="M232.6,209.495s7.38,2.631,7.657,2.993,0,1.406,0,1.406H228.234v-4.4Z" transform="translate(-209.14 -87.66)" fill="#e6e6e6"/>
          <path id="Path_19957" data-name="Path 19957" d="M225.066,209.495s-7.382,2.631-7.658,2.993,0,1.406,0,1.406h12.019v-4.4Z" transform="translate(-210.359 -87.66)" fill="#e6e6e6"/>
          <path id="Path_19958" data-name="Path 19958" d="M220.505,163.992l4.356,52.075h8.713l4.565-51.677,1.213-13.919h-20.1Z" transform="translate(-210.14 -94.232)" fill="#d99c8b"/>
          <path id="Path_19959" data-name="Path 19959" d="M216.167,162.434l-2.058,30.259H247l-2.919-30.78-4.155-11.441h-20.1Z" transform="translate(-210.713 -94.232)" fill="#798f91"/>
          <g id="Group_4111" data-name="Group 4111" transform="translate(16.26 16.422)">
            <g id="Group_4110" data-name="Group 4110">
              <rect id="Rectangle_1200" data-name="Rectangle 1200" width="5.79" height="8.309" fill="#bd897a"/>
            </g>
          </g>
          <g id="Group_4112" data-name="Group 4112" transform="translate(0 23.273)">
            <path id="Path_19960" data-name="Path 19960" d="M215.751,162.864a1.1,1.1,0,0,0,.608-.831c.127-.66-1.161-1.767-1.161-1.767l1.277-16.511,2.556-6.713-5.86.263-.841,6.659-.163,16.269c-.09,1.587-1.284,3.217-1.091,4.111.709.959,1.886,2.834,2.861,2.834a5.12,5.12,0,0,0,2.887-2.631A4.593,4.593,0,0,0,215.751,162.864Z" transform="translate(-211.053 -119)" fill="#e8a795"/>
            <path id="Path_19961" data-name="Path 19961" d="M217.71,139.986l1.121-2.944-5.861.264-.134,1.058Z" transform="translate(-210.855 -119)" fill="#bd897a"/>
            <path id="Path_19962" data-name="Path 19962" d="M219.125,120.808c-2.667.2-6.524,18.746-6.524,18.746l5.868,1.31,3.357-10.651S220.862,120.765,219.125,120.808Z" transform="translate(-210.881 -120.808)" fill="#81999c"/>
          </g>
          <g id="Group_4113" data-name="Group 4113" transform="translate(27.189 23.273)">
            <path id="Path_19963" data-name="Path 19963" d="M241.4,162.864a1.1,1.1,0,0,1-.608-.831c-.128-.66,1.161-1.767,1.161-1.767h.133l-1.64-17.011-1.64-5.288,5.023-.925,1.1,5.948.052,17.244c.091,1.587,1.284,3.217,1.091,4.111-.708.959-1.885,2.834-2.859,2.834a5.109,5.109,0,0,1-2.886-2.631A4.581,4.581,0,0,1,241.4,162.864Z" transform="translate(-235.152 -119)" fill="#e8a795"/>
            <path id="Path_19964" data-name="Path 19964" d="M239.145,139.057l-.339-1.091,5.023-.925.245,1.322Z" transform="translate(-235.152 -119)" fill="#bd897a"/>
            <path id="Path_19965" data-name="Path 19965" d="M238.219,120.808c2.668.2,6.372,18.129,6.372,18.129l-5.783,1.234-3.29-9.958S236.482,120.765,238.219,120.808Z" transform="translate(-235.518 -120.808)" fill="#81999c"/>
          </g>
          <g id="Group_4114" data-name="Group 4114" transform="translate(10.753 9.202)">
            <path id="Path_19966" data-name="Path 19966" d="M222.912,112.038a2,2,0,0,1-.8-3.884C223.065,107.96,223.867,111.843,222.912,112.038Z" transform="translate(-220.729 -108.147)" fill="#e8a795"/>
          </g>
          <g id="Group_4115" data-name="Group 4115" transform="translate(24.816 9.202)">
            <path id="Path_19967" data-name="Path 19967" d="M233.813,112.038a2,2,0,0,0,.8-3.884C233.66,107.96,232.856,111.843,233.813,112.038Z" transform="translate(-233.383 -108.147)" fill="#e8a795"/>
          </g>
          <g id="Group_4117" data-name="Group 4117" transform="translate(12.287 2.136)">
            <g id="Group_4116" data-name="Group 4116">
              <path id="Path_19968" data-name="Path 19968" d="M228.962,119.846c9.45-3.92,6.657-13.6,6.657-13.6s-.323-4.457-6.486-4.457a6.784,6.784,0,0,0-6.694,4.567S219.892,116.3,228.962,119.846Z" transform="translate(-222.11 -101.789)" fill="#e8a795"/>
            </g>
          </g>
          <path id="Path_19969" data-name="Path 19969" d="M221.651,109.207c.647-.139,1.34,1.09,1.34,1.09l.269-4.714a11.14,11.14,0,0,0,10.536,3.493c-1.3-3.032.915-3.5.915-3.5l.541,4.956c.341-1.331,1.285-1.192,1.285-1.192s2.02-9.469-7.452-9.469S221.638,108.937,221.651,109.207Z" transform="translate(-209.894 -99.867)" fill="#ccc"/>
          <path id="Path_19970" data-name="Path 19970" d="M228.424,115.769a2.248,2.248,0,0,0,1.895-.9c0-.176-1.082-.712-1.34-.712s-.448.287-.555.287-.3-.287-.56-.287-1.34.537-1.34.712A2.248,2.248,0,0,0,228.424,115.769Z" transform="translate(-209.331 -98.275)" fill="#c26767"/>
          <path id="Path_19971" data-name="Path 19971" d="M219.4,151.67l-2.109,6.392H241.9l-2.392-7.192a112.3,112.3,0,0,1-1.135-17.02,5.887,5.887,0,0,0,1.427-3.75,5.668,5.668,0,0,0-.916-3.048,26.181,26.181,0,0,1,1.508-6.027c-.49-.342-6.883-2.046-7.106-2.088h-.006c-.207-.033-.393-.161-.537,0l-2.866,3.355a.475.475,0,0,1-.761,0l-2.865-3.355c-.139-.161-.331-.033-.538,0h-.006c-.223.042-6.614,1.746-7.106,2.088a41.159,41.159,0,0,1,1.337,6.135,5.73,5.73,0,0,0-.841,2.941,5.889,5.889,0,0,0,1.428,3.75A95.739,95.739,0,0,1,219.4,151.67Z" transform="translate(-210.359 -97.752)" fill="#99b5b8"/>
          <g id="Group_4118" data-name="Group 4118" transform="translate(13.939 21.318)">
            <path id="Path_19972" data-name="Path 19972" d="M229.07,123.615a.645.645,0,1,1-.645-.645A.645.645,0,0,1,229.07,123.615Z" transform="translate(-223.13 -118.612)" fill="#576573"/>
            <path id="Path_19973" data-name="Path 19973" d="M231.144,123.221a.645.645,0,1,1-.646-.646A.645.645,0,0,1,231.144,123.221Z" transform="translate(-222.899 -118.656)" fill="#576573"/>
            <path id="Path_19974" data-name="Path 19974" d="M232.6,121.732a.645.645,0,1,1-.645-.646A.645.645,0,0,1,232.6,121.732Z" transform="translate(-222.737 -118.822)" fill="#576573"/>
            <path id="Path_19975" data-name="Path 19975" d="M233.254,119.945a.645.645,0,1,1-.646-.645A.645.645,0,0,1,233.254,119.945Z" transform="translate(-222.664 -119.021)" fill="#576573"/>
            <path id="Path_19976" data-name="Path 19976" d="M225.708,123.221a.645.645,0,1,0,.645-.646A.644.644,0,0,0,225.708,123.221Z" transform="translate(-223.361 -118.656)" fill="#576573"/>
            <path id="Path_19977" data-name="Path 19977" d="M224.3,121.732a.645.645,0,1,0,.646-.646A.645.645,0,0,0,224.3,121.732Z" transform="translate(-223.518 -118.822)" fill="#576573"/>
            <path id="Path_19978" data-name="Path 19978" d="M223.6,119.945a.645.645,0,1,0,.646-.645A.646.646,0,0,0,223.6,119.945Z" transform="translate(-223.596 -119.021)" fill="#576573"/>
            <path id="Path_19979" data-name="Path 19979" d="M228.9,124.189c-4.5,0-5.04-4.936-5.044-4.987a.137.137,0,0,1,.123-.151.14.14,0,0,1,.151.123c.02.193.525,4.739,4.77,4.739s4.628-4.687,4.632-4.734a.13.13,0,0,1,.148-.128.138.138,0,0,1,.128.148C233.8,119.249,233.4,124.189,228.9,124.189Z" transform="translate(-223.567 -119.049)" fill="#576573"/>
          </g>
        </g>
        <g id="Group_4128" data-name="Group 4128" transform="translate(0 13.366)">
          <path id="Path_19980" data-name="Path 19980" d="M142.842,208.691s8,3.554,8.374,4.031,0,1.915,0,1.915H133.843v-5.946Z" transform="translate(-113.499 -80.079)" fill="#2b2b2b"/>
          <path id="Path_19981" data-name="Path 19981" d="M126.6,208.691s-8,3.554-8.368,4.031,0,1.915,0,1.915H135.6v-5.946Z" transform="translate(-115.256 -80.079)" fill="#2b2b2b"/>
          <path id="Path_19982" data-name="Path 19982" d="M121.825,158.26l4.063,57.49H144.18l4.358-57.49L146.052,145.3H124.475Z" transform="translate(-114.837 -87.138)" fill="#665046"/>
          <rect id="Rectangle_1201" data-name="Rectangle 1201" width="6.344" height="11.109" transform="translate(17.285 17.778)" fill="#b38072"/>
          <g id="Group_4120" data-name="Group 4120" transform="translate(0 41.433)">
            <path id="Path_19983" data-name="Path 19983" d="M121.26,163.065a1.323,1.323,0,0,0,.719-.994c.149-.771-1.365-2.064-1.365-2.064a1.1,1.1,0,0,0-.158-.01h.206l.349-16.928v-3.49l1.227-8.063-5.369-1.27-1.333,9.935,1.507,19.773c-.1,1.873-1.513,3.8-1.29,4.847.836,1.121,2.222,3.343,3.375,3.343a6.1,6.1,0,0,0,3.4-3.1A5.278,5.278,0,0,0,121.26,163.065Z" transform="translate(-115.537 -130.247)" fill="#d99c8b"/>
            <path id="Path_19984" data-name="Path 19984" d="M122.195,131.517l-1.009,6.624-5.253-1.207.894-6.687Z" transform="translate(-115.493 -130.247)" fill="#c99182"/>
          </g>
          <g id="Group_4121" data-name="Group 4121" transform="translate(34.029 42.11)">
            <path id="Path_19985" data-name="Path 19985" d="M147.416,163.665a1.3,1.3,0,0,1-.713-.985c-.154-.771,1.365-2.074,1.365-2.074s.058,0,.159-.01l-.207.01-.349-16.927v-3.491l-1.232-8.073,5.369-1.26,1.333,9.935-1.507,19.773c.111,1.873,1.518,3.787,1.29,4.845-.836,1.122-2.222,3.333-3.37,3.333a6.034,6.034,0,0,1-3.4-3.1A5.286,5.286,0,0,1,147.416,163.665Z" transform="translate(-146.157 -130.856)" fill="#d99c8b"/>
            <path id="Path_19986" data-name="Path 19986" d="M146.41,132.117l1.009,6.633,5.259-1.217-.9-6.677Z" transform="translate(-146.129 -130.856)" fill="#c99182"/>
          </g>
          <path id="Path_19987" data-name="Path 19987" d="M154.948,129c-.059-6.919-2.541-10.134-2.541-10.134-.243-2.382-13.066-4.5-13.208-4.349l-3.18,4.242-3.18-4.242c-.141-.149-12.965,1.967-13.208,4.349,0,0-1.4,2.887-2.528,10.166h0l-.006.022a.336.336,0,0,1-.011.073h.006l-1.555,8.252,6.988,1.609.989-9.861h.031l-.082,29.511,25.11,1.044-.08-30.554h.021l1.5,10.771,6.189-1.09Z" transform="translate(-115.537 -90.567)" fill="#8dd97a"/>
          <path id="Path_19988" data-name="Path 19988" d="M152,118.862c-.427-2.713-13.066-4.5-13.208-4.349,0,0,2.288,5.16-3.18,5.16s-3.18-5.16-3.18-5.16c-.141-.149-12.9,1.607-13.208,4.349l3.883,10.261h.031l-.555,30.286,25.89.491-.388-30.778h.021Z" transform="translate(-115.127 -90.567)" fill="#583c31"/>
          <path id="Path_19989" data-name="Path 19989" d="M126.853,102.245c-1.2,2.274,1.491,10.2,3.359,10.2h8.982c1.857,0,5.084-8.475,3.433-10.147a42.566,42.566,0,0,0-7.22-3.163S128.4,100.9,126.853,102.245Z" transform="translate(-114.31 -92.278)" fill="#c2c2c2"/>
          <g id="Group_4122" data-name="Group 4122" transform="translate(11.09 10.233)">
            <path id="Path_19990" data-name="Path 19990" d="M127.941,106.5a2.219,2.219,0,0,1-.894-4.318C128.111,101.959,129.01,106.276,127.941,106.5Z" transform="translate(-125.516 -102.173)" fill="#d99c8b"/>
          </g>
          <g id="Group_4123" data-name="Group 4123" transform="translate(26.729 10.233)">
            <path id="Path_19991" data-name="Path 19991" d="M140.065,106.5a2.22,2.22,0,0,0,.9-4.318C139.9,101.959,139,106.276,140.065,106.5Z" transform="translate(-139.588 -102.173)" fill="#d99c8b"/>
          </g>
          <path id="Path_19992" data-name="Path 19992" d="M134.64,115.178c8.3,0,7.4-15.118,7.4-15.118s-.36-4.962-7.215-4.962a7.547,7.547,0,0,0-7.444,5.078S126.467,115.178,134.64,115.178Z" transform="translate(-114.221 -92.727)" fill="#d99c8b"/>
          <path id="Path_19993" data-name="Path 19993" d="M126.539,103.344c.725-.158,1.5,1.216,1.5,1.216a38.127,38.127,0,0,1,.3-5.246c2.119-4.612,5,3.172,9.929-1.673,2.344-.931,2.8,1.661,2.8,1.661s.625,5.735.6,5.512c.376-1.471,1.424-1.323,1.424-1.323s2.248-10.528-8.28-10.528S126.524,103.048,126.539,103.344Z" transform="translate(-114.335 -92.965)" fill="#c2c2c2"/>
          <g id="Group_4124" data-name="Group 4124" transform="translate(16.994 15.862)">
            <path id="Path_19994" data-name="Path 19994" d="M134.332,108.43c-.429.666-3.5.712-3.5.712l.129-.426a2.027,2.027,0,0,1,1.906-1.437l1.451-.021Z" transform="translate(-130.828 -107.235)" fill="#bfbfbf"/>
            <path id="Path_19995" data-name="Path 19995" d="M133.983,108.433c.45.651,3.525.606,3.525.606l-.142-.422a2.027,2.027,0,0,0-1.949-1.378l-1.451.023Z" transform="translate(-130.479 -107.238)" fill="#bfbfbf"/>
          </g>
          <g id="Group_4127" data-name="Group 4127" transform="translate(13.366 9.365)">
            <g id="Group_4125" data-name="Group 4125" transform="translate(0.499)">
              <path id="Path_19996" data-name="Path 19996" d="M133.957,101.6c-.342-.5-5.551-.028-5.841.613a3.157,3.157,0,0,0,.123,1.809h.018a3.19,3.19,0,0,1,.079-1.171c.313-.785,4.8-1.137,5.449-.658.237.174.306.924.108,1.773h0A2.449,2.449,0,0,0,133.957,101.6Z" transform="translate(-128.013 -101.392)" fill="#453535"/>
              <path id="Path_19997" data-name="Path 19997" d="M133.761,102.138c-.653-.479-5.136-.127-5.449.658a3.19,3.19,0,0,0-.079,1.171c.08,1.062.488,2.451,1.615,2.772a3.367,3.367,0,0,0,4.021-2.828C134.067,103.061,134,102.312,133.761,102.138Z" transform="translate(-127.99 -101.333)" fill="#fff" opacity="0.5"/>
            </g>
            <path id="Path_19998" data-name="Path 19998" d="M133.674,104.113c-.069.279-.242.476-.389.439s-.209-.29-.14-.569.242-.476.389-.44S133.743,103.834,133.674,104.113Z" transform="translate(-126.946 -101.153)" fill="#e8e8e8"/>
            <path id="Path_19999" data-name="Path 19999" d="M128.174,103.27l-.569-.018-.041-.668.557-.2Z" transform="translate(-127.564 -101.281)" fill="#453535"/>
            <g id="Group_4126" data-name="Group 4126" transform="translate(7.505 0.012)">
              <path id="Path_20000" data-name="Path 20000" d="M140.458,102.252c-.286-.643-5.492-1.148-5.838-.646a2.446,2.446,0,0,0,.051,2.365h0c-.194-.849-.121-1.6.118-1.771.656-.476,5.136-.1,5.446.689a3.183,3.183,0,0,1,.071,1.171h.019A3.155,3.155,0,0,0,140.458,102.252Z" transform="translate(-134.317 -101.402)" fill="#453535"/>
              <path id="Path_20001" data-name="Path 20001" d="M140.212,102.83c-.31-.787-4.79-1.165-5.446-.689-.239.172-.312.922-.118,1.771a3.366,3.366,0,0,0,4.005,2.851c1.128-.315,1.544-1.7,1.629-2.762A3.183,3.183,0,0,0,140.212,102.83Z" transform="translate(-134.293 -101.343)" fill="#fff" opacity="0.5"/>
            </g>
            <path id="Path_20002" data-name="Path 20002" d="M134.31,104.109c.067.279.24.476.387.441s.21-.289.143-.569-.24-.477-.387-.442S134.243,103.83,134.31,104.109Z" transform="translate(-126.816 -101.153)" fill="#e8e8e8"/>
            <path id="Path_20003" data-name="Path 20003" d="M139.83,103.3l.57-.015.044-.668-.555-.2Z" transform="translate(-126.198 -101.277)" fill="#453535"/>
            <rect id="Rectangle_1202" data-name="Rectangle 1202" width="0.428" height="1.173" transform="translate(6.543 2.14) rotate(-89.843)" fill="#453535"/>
            <rect id="Rectangle_1203" data-name="Rectangle 1203" width="0.733" height="1.173" transform="translate(6.544 1.541) rotate(-89.843)" fill="#453535"/>
          </g>
        </g>
        <g id="Group_4133" data-name="Group 4133" transform="translate(26.618)">
          <path id="Path_20004" data-name="Path 20004" d="M169.144,207.642s8.686,3.86,9.094,4.378,0,2.08,0,2.08H159.371v-6.458Z" transform="translate(-137.274 -66.83)" fill="#2b2b2b"/>
          <path id="Path_20005" data-name="Path 20005" d="M151.5,207.642s-8.686,3.86-9.089,4.378,0,2.08,0,2.08H161.28v-6.458Z" transform="translate(-139.183 -66.83)" fill="#2b2b2b"/>
          <path id="Path_20006" data-name="Path 20006" d="M146.317,152.865l4.413,62.443H170.6l4.734-62.443-2.7-14.076H149.2Z" transform="translate(-138.728 -74.496)" fill="#333c4a"/>
          <rect id="Rectangle_1204" data-name="Rectangle 1204" width="6.067" height="12.664" transform="translate(19.149 20.432)" fill="#bd8779"/>
          <g id="Group_4129" data-name="Group 4129" transform="translate(0 46.124)">
            <path id="Path_20007" data-name="Path 20007" d="M145.7,158.088a1.44,1.44,0,0,0,.781-1.081c.161-.837-1.483-2.24-1.483-2.24a1.178,1.178,0,0,0-.172-.011h.224l.379-18.385v-3.792l1.334-8.756-5.832-1.38-1.447,10.79,1.636,21.478c-.113,2.035-1.643,4.125-1.4,5.263.908,1.218,2.414,3.631,3.666,3.631a6.619,6.619,0,0,0,3.689-3.366A5.722,5.722,0,0,0,145.7,158.088Z" transform="translate(-139.488 -122.441)" fill="#ffb7a4"/>
            <path id="Path_20008" data-name="Path 20008" d="M146.719,123.821l-1.1,7.194-5.706-1.311.971-7.263Z" transform="translate(-139.44 -122.441)" fill="#c99182"/>
          </g>
          <g id="Group_4130" data-name="Group 4130" transform="translate(36.96 46.861)">
            <path id="Path_20009" data-name="Path 20009" d="M174.113,158.738a1.423,1.423,0,0,1-.776-1.07c-.168-.838,1.483-2.252,1.483-2.252s.062,0,.172-.011l-.224.011-.38-18.386V133.24l-1.337-8.767,5.831-1.368,1.447,10.79-1.636,21.477c.12,2.034,1.648,4.113,1.4,5.262-.909,1.219-2.414,3.62-3.661,3.62a6.56,6.56,0,0,1-3.689-3.366A5.736,5.736,0,0,1,174.113,158.738Z" transform="translate(-172.745 -123.104)" fill="#ffb7a4"/>
            <path id="Path_20010" data-name="Path 20010" d="M173.02,124.472l1.1,7.2,5.712-1.321-.977-7.252Z" transform="translate(-172.714 -123.104)" fill="#c99182"/>
          </g>
          <path id="Path_20011" data-name="Path 20011" d="M182.292,121.083c-.063-7.516-2.758-11.008-2.758-11.008-.264-2.587-14.192-4.885-14.345-4.723l-3.454,4.608-3.454-4.608c-.153-.162-14.081,2.136-14.345,4.723,0,0-1.517,3.137-2.746,11.041h0l-.007.024a.419.419,0,0,1-.011.08h.006l-1.688,8.962,7.589,1.748,1.075-10.71h.033l-.43,32.037,28.279,1.148-.752-33.185h.022l1.627,11.7,6.721-1.184Z" transform="translate(-139.488 -78.22)" fill="#77a7fb"/>
          <path id="Path_20012" data-name="Path 20012" d="M151.777,91.016c-1.3,2.471,1.62,11.078,3.647,11.078h9.757c2.017,0,5.522-9.205,3.729-11.02-2.24-1.529-7.843-3.436-7.843-3.436S153.461,89.557,151.777,91.016Z" transform="translate(-138.156 -80.192)" fill="#665046"/>
          <g id="Group_4131" data-name="Group 4131" transform="translate(12.044 11.114)">
            <path id="Path_20013" data-name="Path 20013" d="M152.96,95.637a2.409,2.409,0,0,1-.97-4.689C153.144,90.707,154.121,95.4,152.96,95.637Z" transform="translate(-150.326 -90.939)" fill="#ffb7a4"/>
          </g>
          <g id="Group_4132" data-name="Group 4132" transform="translate(29.031 11.114)">
            <path id="Path_20014" data-name="Path 20014" d="M166.128,95.637a2.41,2.41,0,0,0,.977-4.689C165.95,90.707,164.974,95.4,166.128,95.637Z" transform="translate(-165.611 -90.939)" fill="#ffb7a4"/>
          </g>
          <path id="Path_20015" data-name="Path 20015" d="M160.236,105.064c9.01,0,8.037-16.42,8.037-16.42s-.39-5.389-7.836-5.389a8.2,8.2,0,0,0-8.084,5.515S151.359,105.064,160.236,105.064Z" transform="translate(-138.059 -80.68)" fill="#ffb7a4"/>
          <path id="Path_20016" data-name="Path 20016" d="M151.437,92.212c.787-.172,1.626,1.32,1.626,1.32l.322-5.7s9.25,1.723,10.785-1.816c2.545-1.012,3.045,1.8,3.045,1.8s.678,6.228.655,5.987c.408-1.6,1.546-1.436,1.546-1.436s2.442-11.435-8.992-11.435S151.42,91.889,151.437,92.212Z" transform="translate(-138.183 -80.938)" fill="#665046"/>
        </g>
        <g id="Group_4142" data-name="Group 4142" transform="translate(76.822 7.781)">
          <path id="Path_20017" data-name="Path 20017" d="M210.372,209.183s6.377,2.837,6.676,3.228,0,1.517,0,1.517H203.2v-4.745Z" transform="translate(-182.598 -74.439)" fill="#e6e6e6"/>
          <path id="Path_20018" data-name="Path 20018" d="M197.415,209.183s-6.377,2.837-6.676,3.228,0,1.517,0,1.517H204.6v-4.745Z" transform="translate(-184 -74.439)" fill="#e6e6e6"/>
          <path id="Path_20019" data-name="Path 20019" d="M189.956,158.415l7.532,57.857h14.359l8.222-58.42-4.482-12.342H193.908Z" transform="translate(-184.072 -81.528)" fill="#424242"/>
          <path id="Path_20020" data-name="Path 20020" d="M195.36,98.317c-1.351,2.538,3.045,10.5,0,13.8,2.084,0,8.416,3.7,18.345-.415-3.57-2.472,1.126-11.468-.719-13.331-2.309-1.574-8.072-3.527-8.072-3.527S197.093,96.812,195.36,98.317Z" transform="translate(-183.5 -87.17)" fill="#454545"/>
          <g id="Group_4135" data-name="Group 4135" transform="translate(17.542 21.028)">
            <g id="Group_4134" data-name="Group 4134">
              <rect id="Rectangle_1205" data-name="Rectangle 1205" width="6.245" height="8.963" fill="#bd8779"/>
            </g>
          </g>
          <g id="Group_4136" data-name="Group 4136" transform="translate(0 28.418)">
            <path id="Path_20021" data-name="Path 20021" d="M189.729,156.373a1.182,1.182,0,0,0,.656-.9c.138-.712-1.253-1.907-1.253-1.907h.047l-3.316-.034c-.1,1.711-1.385,3.47-1.178,4.434.766,1.035,2.035,3.057,3.085,3.057a5.516,5.516,0,0,0,3.115-2.837A4.947,4.947,0,0,0,189.729,156.373Z" transform="translate(-184.662 -109.053)" fill="#ffb7a4"/>
            <path id="Path_20022" data-name="Path 20022" d="M193.556,113.51c-2.878.217-7.987,27.854-7.987,27.854l-.907,18.247,5.9.082-.017-17.238,5.923-18.8S195.429,113.464,193.556,113.51Z" transform="translate(-184.662 -113.51)" fill="#cf6c6c"/>
          </g>
          <g id="Group_4137" data-name="Group 4137" transform="translate(29.33 28.418)">
            <path id="Path_20023" data-name="Path 20023" d="M217.234,156.373a1.182,1.182,0,0,1-.655-.9c-.138-.712,1.252-1.907,1.252-1.907h-.046l3.314-.034c.1,1.711,1.385,3.47,1.178,4.434-.764,1.035-2.033,3.057-3.085,3.057a5.509,5.509,0,0,1-3.113-2.837A4.923,4.923,0,0,1,217.234,156.373Z" transform="translate(-210.493 -109.053)" fill="#ffb7a4"/>
            <path id="Path_20024" data-name="Path 20024" d="M213.967,113.51c2.878.217,7.986,27.854,7.986,27.854l.908,18.247-5.9.082.017-17.238-5.925-18.8S212.094,113.464,213.967,113.51Z" transform="translate(-211.053 -113.51)" fill="#cf6c6c"/>
          </g>
          <g id="Group_4138" data-name="Group 4138" transform="translate(10.232 11.437)">
            <path id="Path_20025" data-name="Path 20025" d="M196.582,103.065a2.48,2.48,0,0,1-1-4.827C196.771,98,197.77,102.823,196.582,103.065Z" transform="translate(-193.869 -98.23)" fill="#ffb7a4"/>
          </g>
          <g id="Group_4139" data-name="Group 4139" transform="translate(27.71 11.437)">
            <path id="Path_20026" data-name="Path 20026" d="M210.132,103.065a2.48,2.48,0,0,0,1-4.827C209.941,98,208.94,102.823,210.132,103.065Z" transform="translate(-209.596 -98.23)" fill="#ffb7a4"/>
          </g>
          <g id="Group_4141" data-name="Group 4141" transform="translate(12.139 2.655)">
            <g id="Group_4140" data-name="Group 4140">
              <path id="Path_20027" data-name="Path 20027" d="M204.1,112.769c11.745-4.871,8.274-16.9,8.274-16.9s-.4-5.538-8.061-5.538A8.432,8.432,0,0,0,195.994,96S192.828,108.357,204.1,112.769Z" transform="translate(-195.584 -90.328)" fill="#ffb7a4"/>
            </g>
          </g>
          <path id="Path_20028" data-name="Path 20028" d="M195.016,99.546c.8-.173,1.666,1.356,1.666,1.356l.333-5.86s4.372,5.733,13.094,4.343c-1.62-3.77,1.137-4.355,1.137-4.355s.7,6.411.672,6.159c.425-1.655,1.6-1.483,1.6-1.483s2.511-11.767-9.262-11.767S195,99.211,195.016,99.546Z" transform="translate(-183.535 -87.939)" fill="#454545"/>
          <path id="Path_20029" data-name="Path 20029" d="M203.433,107.7a2.794,2.794,0,0,0,2.356-1.115c0-.218-1.345-.885-1.666-.885s-.558.356-.69.356-.375-.356-.695-.356-1.667.667-1.667.885A2.8,2.8,0,0,0,203.433,107.7Z" transform="translate(-182.835 -85.961)" fill="#b55176"/>
          <path id="Path_20030" data-name="Path 20030" d="M193.663,146.8l-2.276,6.9h26.551l-2.581-7.757a121.2,121.2,0,0,1-1.224-18.362,6.355,6.355,0,0,0,1.54-4.046,6.124,6.124,0,0,0-.989-3.286,28.29,28.29,0,0,1,1.627-6.5c-.529-.368-7.425-2.207-7.666-2.253h0c-.224-.036-.426-.173-.581,0l-3.091,3.62a.511.511,0,0,1-.821,0l-3.092-3.62c-.149-.173-.356-.036-.579,0h-.007c-.241.046-7.135,1.885-7.664,2.253a44.527,44.527,0,0,1,1.441,6.619,6.164,6.164,0,0,0-.908,3.17,6.355,6.355,0,0,0,1.54,4.046A103.2,103.2,0,0,1,193.663,146.8Z" transform="translate(-183.913 -85.326)" fill="#995050"/>
        </g>
        <g id="Group_4147" data-name="Group 4147" transform="translate(59.138 45.671)">
          <path id="Path_20031" data-name="Path 20031" d="M191.157,212.131s6.564,2.594,6.871,2.942,0,1.4,0,1.4H183.773v-4.34Z" transform="translate(-167.077 -112.001)" fill="#77a7fb"/>
          <path id="Path_20032" data-name="Path 20032" d="M177.826,212.131s-6.562,2.594-6.867,2.942,0,1.4,0,1.4h14.256v-4.34Z" transform="translate(-168.519 -112.001)" fill="#77a7fb"/>
          <path id="Path_20033" data-name="Path 20033" d="M173.91,175.319l.243,19.7,10.969.046,11.211.151-.5-19.9-2.04-9.461H176.085Z" transform="translate(-168.175 -117.153)" fill="#3a4c5e"/>
          <rect id="Rectangle_1206" data-name="Rectangle 1206" width="4.583" height="7.468" transform="translate(14.469 19.229)" fill="#bd8779"/>
          <g id="Group_4143" data-name="Group 4143" transform="translate(0 36.496)">
            <path id="Path_20034" data-name="Path 20034" d="M173.447,178.828a1.007,1.007,0,0,0,.59-.727c.122-.562-1.119-1.506-1.119-1.506a.974.974,0,0,0-.13-.008h.169l.286-12.356v-2.547l1.008-5.886-4.406-.927-1.094,7.252,1.237,14.434c-.087,1.366-1.241,2.772-1.059,3.536.686.819,1.824,2.441,2.769,2.441a4.848,4.848,0,0,0,2.787-2.262A3.842,3.842,0,0,0,173.447,178.828Z" transform="translate(-168.75 -154.872)" fill="#ffb7a4"/>
            <path id="Path_20035" data-name="Path 20035" d="M174.214,155.8l-.829,4.835-4.311-.881.734-4.881Z" transform="translate(-168.714 -154.872)" fill="#c99182"/>
          </g>
          <g id="Group_4144" data-name="Group 4144" transform="translate(27.926 36.989)">
            <path id="Path_20036" data-name="Path 20036" d="M194.912,179.264a.986.986,0,0,1-.586-.718c-.128-.563,1.12-1.515,1.12-1.515s.047,0,.129-.006l-.169.006-.287-12.356v-2.547l-1.011-5.891,4.406-.921,1.094,7.253L198.371,177c.09,1.368,1.245,2.764,1.059,3.537-.687.818-1.824,2.432-2.765,2.432a4.786,4.786,0,0,1-2.787-2.262A3.859,3.859,0,0,1,194.912,179.264Z" transform="translate(-193.878 -155.316)" fill="#ffb7a4"/>
            <path id="Path_20037" data-name="Path 20037" d="M194.085,156.237l.828,4.841,4.316-.888-.738-4.874Z" transform="translate(-193.855 -155.316)" fill="#c99182"/>
          </g>
          <path id="Path_20038" data-name="Path 20038" d="M201.091,153.959a9.485,9.485,0,0,0-3.218-7.4c-.2-1.737-9.589-3.282-9.705-3.174l-2.608,3.1-2.611-3.1c-.117-.108-9.559,1.437-9.759,3.174,0,0-2.226,2.109-3.155,7.422h0l0,.016a.241.241,0,0,1-.009.054h0l-1.276,6.022,6.117,1.473.979-7.495L175,175.581l21.366.772-1.207-22.54,1.52,8.1,5.443-.8Z" transform="translate(-168.75 -119.656)" fill="#bc6683"/>
          <path id="Path_20039" data-name="Path 20039" d="M176.554,131.579c-1.24,2.155,1.54,9.658,3.466,9.658h9.271c1.916,0,5.249-8.025,3.544-9.608a46.114,46.114,0,0,0-7.453-3S178.154,130.308,176.554,131.579Z" transform="translate(-167.915 -121.298)" fill="#663f30"/>
          <g id="Group_4145" data-name="Group 4145" transform="translate(7.14 10.534)">
            <path id="Path_20040" data-name="Path 20040" d="M177.678,135.606a2.153,2.153,0,0,1-2.452-1.663,1.984,1.984,0,0,1,1.529-2.424C177.853,131.309,178.781,135.4,177.678,135.606Z" transform="translate(-175.174 -131.512)" fill="#ffb7a4"/>
          </g>
          <g id="Group_4146" data-name="Group 4146" transform="translate(23.282 10.534)">
            <path id="Path_20041" data-name="Path 20041" d="M190.19,135.606a2.149,2.149,0,0,0,2.452-1.663,1.975,1.975,0,0,0-1.523-2.424C190.022,131.309,189.094,135.4,190.19,135.606Z" transform="translate(-189.699 -131.512)" fill="#ffb7a4"/>
          </g>
          <path id="Path_20042" data-name="Path 20042" d="M184.592,143.826c8.562,0,7.638-14.315,7.638-14.315s-.372-4.7-7.447-4.7c-6.164,0-7.682,4.808-7.682,4.808S176.157,143.826,184.592,143.826Z" transform="translate(-167.824 -121.723)" fill="#ffb7a4"/>
          <path id="Path_20043" data-name="Path 20043" d="M176.23,132.705c.748-.15,1.546,1.151,1.546,1.151l.307-4.968a7.37,7.37,0,0,0,3.625,1.3,8.5,8.5,0,0,1-.313-2.087c.708.773,2.905,1.519,4.3,1.826-.63-1.591,1.5-1.321,3.063-.1-.678-1.165-.986-1.33-.313-1.721,1.187-.391,1.253.391,1.253.391.888-.835,1.533.387,1.533.387s.645,5.43.621,5.22c.388-1.393,1.47-1.253,1.47-1.253s2.319-9.968-8.546-9.968a14.179,14.179,0,0,0-3,.293l-.519-1.138-.659,1.468-2.237-1.272.308,2.277C174.954,127.244,176.219,132.5,176.23,132.705Z" transform="translate(-167.941 -122.033)" fill="#663f30"/>
          <rect id="Rectangle_1207" data-name="Rectangle 1207" width="6.07" height="1.487" transform="translate(18.403 33.521)" fill="#e6e6e6"/>
          <path id="Path_20044" data-name="Path 20044" d="M191.379,158.4l-3.036,1.236-3.035-1.236v-4.863h6.07Z" transform="translate(-166.906 -118.525)" fill="#8f4d63"/>
          <path id="Path_20045" data-name="Path 20045" d="M183.824,214.36h-5.851l-1.816-22.247,7.667.035Z" transform="translate(-167.925 -114.23)" fill="#ffb7a4"/>
          <path id="Path_20046" data-name="Path 20046" d="M184.45,214.356H190.3l1.765-22.11-7.617-.1Z" transform="translate(-167.002 -114.226)" fill="#ffb7a4"/>
        </g>
      </g>
      <g id="Group_4150" data-name="Group 4150" transform="translate(211.066 209.818)">
        <g id="Group_4149" data-name="Group 4149" transform="translate(0 20.164)">
          <path id="Path_20047" data-name="Path 20047" d="M205.618,220.945c-4.972,0-8.805-1.371-11.079-3.966a9.476,9.476,0,0,1-2.387-5.923h0l-2.184.132a12.278,12.278,0,0,0,2.914,7.243c2.707,3.087,7.112,4.719,12.736,4.719a1.1,1.1,0,0,0,0-2.2Z" transform="translate(-189.914 -206.481)" fill="#cc884c"/>
          <path id="Path_20048" data-name="Path 20048" d="M192.151,211.26c-.023-.338-.03-.682-.029-1.032,0-.158,0-.314,0-.475.019-.512.057-1.032.127-1.568a1.1,1.1,0,1,0-2.183-.288c-.08.608-.124,1.2-.147,1.786-.006.189,0,.37,0,.556,0,.393,0,.781.03,1.161.006.08,0,.167.006.247h.017l2.184-.132C192.151,211.431,192.156,211.342,192.151,211.26Z" transform="translate(-189.919 -206.939)" fill="#8a5c34"/>
        </g>
        <path id="Path_20049" data-name="Path 20049" d="M217.054,226.419H207.66c-7.164,0-12.055-7.813-9.373-14.973l4.7-12.54c3.4-9.089,15.341-9.089,18.744,0l4.7,12.54C229.108,218.606,224.217,226.419,217.054,226.419Z" transform="translate(-189.07 -188.429)" fill="#e69a57"/>
        <path id="Path_20050" data-name="Path 20050" d="M212.719,204.329c0,.511-.7.927-1.558.927s-1.557-.416-1.557-.927.7-.928,1.557-.928S212.719,203.817,212.719,204.329Z" transform="translate(-187.727 -187.169)" fill="#bdbdbd"/>
        <path id="Path_20051" data-name="Path 20051" d="M211.026,203.782s1.63,1.526,3.3,1.082c2.9-.769,1.775-4.1,1.775-4.1l-5.074.978Z" transform="translate(-187.569 -187.463)" fill="#fff"/>
        <path id="Path_20052" data-name="Path 20052" d="M211.556,203.752s-1.631,1.526-3.3,1.082c-2.9-.769-1.776-3.81-1.776-3.81l5.076.686Z" transform="translate(-188.099 -187.434)" fill="#fff"/>
        <path id="Path_20053" data-name="Path 20053" d="M217.894,199.393c0,1.933-2.907,3.5-6.494,3.5s-6.495-1.568-6.495-3.5,2.907-3.5,6.495-3.5S217.894,197.459,217.894,199.393Z" transform="translate(-188.25 -188.005)" fill="#946338"/>
        <path id="Path_20054" data-name="Path 20054" d="M220.57,218.123a8.374,8.374,0,0,1-2.885,6.3c-1.174.512-11.2.47-11.778.072a8.38,8.38,0,0,1-2.967-6.376,8.82,8.82,0,0,1,17.63,0Z" transform="translate(-188.469 -186.479)" fill="#e6c6aa"/>
        <path id="Path_20055" data-name="Path 20055" d="M215.057,199.215c0,.955-.495,1.73-1.106,1.73s-1.1-.776-1.1-1.73.495-1.731,1.1-1.731S215.057,198.26,215.057,199.215Z" transform="translate(-187.366 -187.828)" fill="#fff"/>
        <path id="Path_20056" data-name="Path 20056" d="M214.382,199.619c0,.4-.209.72-.465.72s-.465-.323-.465-.72.207-.722.465-.722S214.382,199.222,214.382,199.619Z" transform="translate(-187.298 -187.671)" fill="#2b2b2b"/>
        <path id="Path_20057" data-name="Path 20057" d="M209.394,199.215c0,.955-.495,1.73-1.1,1.73s-1.106-.776-1.106-1.73.495-1.731,1.106-1.731S209.394,198.26,209.394,199.215Z" transform="translate(-187.997 -187.828)" fill="#fff"/>
        <path id="Path_20058" data-name="Path 20058" d="M208.718,199.619c0,.4-.207.72-.463.72s-.465-.323-.465-.72.208-.722.465-.722S208.718,199.222,208.718,199.619Z" transform="translate(-187.929 -187.671)" fill="#2b2b2b"/>
        <path id="Path_20059" data-name="Path 20059" d="M218.462,196.709a21.381,21.381,0,0,0-4.862-3.288s5.471-4.9,6.069-4.613C220.049,188.919,219.053,196.381,218.462,196.709Z" transform="translate(-187.282 -188.795)" fill="#a66f3f"/>
        <path id="Path_20060" data-name="Path 20060" d="M217.527,195.086a11.81,11.81,0,0,0-2.691-1.819s3.028-2.711,3.36-2.554C218.406,190.775,217.854,194.9,217.527,195.086Z" transform="translate(-187.145 -188.583)" fill="#ffa6fc"/>
        <path id="Path_20061" data-name="Path 20061" d="M203.933,196.709a21.381,21.381,0,0,1,4.862-3.288s-5.471-4.9-6.069-4.613C202.346,188.919,203.342,196.381,203.933,196.709Z" transform="translate(-188.502 -188.795)" fill="#cf8a4e"/>
        <path id="Path_20062" data-name="Path 20062" d="M204.594,195.086a11.835,11.835,0,0,1,2.691-1.819s-3.028-2.711-3.36-2.554C203.715,190.775,204.266,194.9,204.594,195.086Z" transform="translate(-188.365 -188.583)" fill="#ffa6fc"/>
        <path id="Path_20063" data-name="Path 20063" d="M210.959,203.756l-.875-.9a.251.251,0,0,1,.18-.426h1.749a.251.251,0,0,1,.18.426l-.875.9A.25.25,0,0,1,210.959,203.756Z" transform="translate(-187.682 -187.277)" fill="#593c22"/>
        <path id="Path_20064" data-name="Path 20064" d="M228.727,203.387c-5.889-2.357-13.518-1.085-13.6-1.071l-.064-.379c.077-.013,7.635-1.245,13.66,1.45Z" transform="translate(-187.119 -187.365)" fill="#fff"/>
        <path id="Path_20065" data-name="Path 20065" d="M227.51,206.749c-4.9-3.8-12.964-3.722-13.037-3.724l-.007-.385c.1,0,8.512,0,13.044,4.109Z" transform="translate(-187.186 -187.254)" fill="#fff"/>
        <path id="Path_20066" data-name="Path 20066" d="M225.415,209.673c-4.542-5.4-12.17-5.883-12.248-5.887l.021-.386c.078,0,8.764.966,12.227,6.272Z" transform="translate(-187.33 -187.169)" fill="#fff"/>
        <path id="Path_20067" data-name="Path 20067" d="M194.456,203.387c5.889-2.357,13.52-1.085,13.6-1.071l.064-.379c-.077-.013-7.635-1.245-13.66,1.45Z" transform="translate(-189.414 -187.365)" fill="#fff"/>
        <path id="Path_20068" data-name="Path 20068" d="M195.612,206.749c4.9-3.8,12.964-3.722,13.036-3.724l.007-.385c-.1,0-8.511,0-13.043,4.109Z" transform="translate(-189.285 -187.254)" fill="#fff"/>
        <path id="Path_20069" data-name="Path 20069" d="M197.626,209.673c4.542-5.4,12.171-5.883,12.248-5.887l-.022-.386c-.078,0-8.762.966-12.226,6.272Z" transform="translate(-189.061 -187.169)" fill="#fff"/>
        <path id="Path_20070" data-name="Path 20070" d="M205.493,222.813c0,1.027-1.295,1.859-2.891,1.859s-2.892-.832-2.892-1.859,1.295-1.858,2.892-1.858S205.493,221.787,205.493,222.813Z" transform="translate(-188.829 -185.215)" fill="#fff"/>
        <path id="Path_20071" data-name="Path 20071" d="M222.446,222.813c0,1.027-1.294,1.859-2.891,1.859s-2.891-.832-2.891-1.859,1.295-1.858,2.891-1.858S222.446,221.787,222.446,222.813Z" transform="translate(-186.941 -185.215)" fill="#946338"/>
        <rect id="Rectangle_1208" data-name="Rectangle 1208" width="3.578" height="16.276" transform="translate(24.854 22.298)" fill="#e69a57"/>
        <rect id="Rectangle_1209" data-name="Rectangle 1209" width="3.579" height="16.276" transform="translate(18.168 22.298)" fill="#e69a57"/>
        <path id="Path_20072" data-name="Path 20072" d="M217.083,223.917c0,1.027-1.295,1.858-2.891,1.858s-2.891-.831-2.891-1.858,1.294-1.857,2.891-1.857S217.083,222.892,217.083,223.917Z" transform="translate(-187.538 -185.091)" fill="#fff"/>
        <path id="Path_20073" data-name="Path 20073" d="M211.058,223.908c0,1.026-1.295,1.858-2.892,1.858s-2.89-.832-2.89-1.858,1.294-1.858,2.89-1.858S211.058,222.881,211.058,223.908Z" transform="translate(-188.209 -185.093)" fill="#fff"/>
      </g>
      <g id="Group_4151" data-name="Group 4151" transform="translate(110.468 48.912)">
        <path id="Path_20074" data-name="Path 20074" d="M241.844,78.226c-8.852-6.351-13.392-20.637-19.247-22.818-6.789-.9-16.221-9.213-22.629-8.3-4.159.112-24.061-6.767-19.161,2.314,1.069,1.675,18.912,5.622,18.912,5.622s16.392,7.362,19.71,15.014a5.856,5.856,0,0,1,.166,3.457c-2.884-.107-3.664.789-6.993-1.435-2.427-1.621-5.2-3.451-5.2-3.451-2.28-1.447-6.927-2.862-8.282-.731-2,3.14,2.917,6.676,5.2,8.124l4.587,2.911c3.255,2.065,4.043,4.878,7.574,6.917,6.854,4.8,23.513,10.014,25.883,9.692,7.053-.959,21.2-5.661,21.2-5.661l-4.783-21.4C252.33,74.845,241.844,78.226,241.844,78.226Z" transform="translate(-90.421 -43.933)" fill="#ffb7a4"/>
        <path id="Path_20075" data-name="Path 20075" d="M120.848,78.832c8.7-6.553,12.918-20.938,18.723-23.252C146.337,54.53,155.578,46,162,46.765c4.161.018,23.9-7.313,19.21,1.877-1.031,1.7-18.778,6.051-18.778,6.051s-16.22,7.734-19.362,15.46a5.861,5.861,0,0,0-.088,3.461c2.881-.172,3.681.7,6.958-1.594,2.391-1.676,5.119-3.569,5.119-3.569,2.247-1.5,6.86-3.018,8.262-.92,2.068,3.093-2.764,6.741-5.01,8.241l-4.52,3.015c-3.206,2.139-3.929,4.968-7.413,7.088-6.743,4.958-23.278,10.548-25.655,10.279-7.074-.8-21.326-5.174-21.326-5.174l4.293-21.5C110.287,75.69,120.848,78.832,120.848,78.832Z" transform="translate(-99.4 -44.012)" fill="#ffb7a4"/>
      </g>
      <g id="Group_4152" data-name="Group 4152" transform="translate(60.273 97.611)">
        <path id="Path_20076" data-name="Path 20076" d="M76.767,95.223,65.44,97.448l-3.694-2.526s8.28-7.538,16.153-7.01C79.1,87.842,76.767,95.223,76.767,95.223Z" transform="translate(-53.398 -87.825)" fill="#6e785f"/>
        <path id="Path_20077" data-name="Path 20077" d="M103.427,114.731c4.505,12.283-4.021,26.328-19.761,29.42s-28.945-6.687-29.419-19.761c-.408-11.231,8.983-21.14,20.926-23.485S99.555,104.18,103.427,114.731Z" transform="translate(-54.234 -86.434)" fill="#b2c98f"/>
        <path id="Path_20078" data-name="Path 20078" d="M80.548,101.559l-12.9,2.533c-1.31.257-2.476-.063-2.6-.717l0-.023c-.129-.652.83-1.39,2.139-1.648l12.9-2.533c1.31-.257,2.475.063,2.6.716l0,.024C82.815,100.563,81.857,101.3,80.548,101.559Z" transform="translate(-53.032 -86.578)" fill="#3b3d35"/>
        <path id="Path_20079" data-name="Path 20079" d="M83.56,92.535s-1.414-5.451-5.66-4.618c-3.212.631-4.271,4.523-7.487,5.9-5.284,2.259-8.666,1.114-8.666,1.114l6.5,7.891,11.93-2.343Z" transform="translate(-53.398 -87.831)" fill="#b2c98f"/>
        <path id="Path_20080" data-name="Path 20080" d="M80.421,115.053a4.666,4.666,0,0,0-3.55-.858c-1.435.279-2.1,1-1.835,2.346.555,2.838,8.4,1.057,9.514,6.769a5.63,5.63,0,0,1-3.543,6.648l.606,3.107-2.9.566-.586-2.988a10.1,10.1,0,0,1-5.7-1.239l1.334-3.335a7.285,7.285,0,0,0,4.62.9c1.667-.325,2.285-1.16,2.014-2.537-.6-3.074-8.481-1.476-9.53-6.858a5.434,5.434,0,0,1,3.463-6.415l-.6-3.082,2.9-.566.587,3.016a7.582,7.582,0,0,1,4.933,1.585Z" transform="translate(-52.398 -85.64)" fill="#5d694a"/>
        <path id="Path_20081" data-name="Path 20081" d="M69.391,107.842l.632-4.726,1.631-.32Z" transform="translate(-52.547 -86.165)" fill="#8c9e70"/>
        <path id="Path_20082" data-name="Path 20082" d="M82.329,108.636l-7.439-6.488,1.63-.32Z" transform="translate(-51.935 -86.272)" fill="#8c9e70"/>
        <path id="Path_20083" data-name="Path 20083" d="M81.127,102.681l-3.019-1.164,1.631-.32Z" transform="translate(-51.576 -86.343)" fill="#8c9e70"/>
        <path id="Path_20084" data-name="Path 20084" d="M65.992,106.043l.946-2.314,1.63-.321Z" transform="translate(-52.925 -86.096)" fill="#8c9e70"/>
      </g>
      <g id="Group_4158" data-name="Group 4158" transform="translate(282.794 169.583)">
        <g id="Group_4157" data-name="Group 4157">
          <g id="Group_4153" data-name="Group 4153">
            <path id="Path_20085" data-name="Path 20085" d="M290.688,195.946l-35.415-12.383a1.213,1.213,0,0,1-.745-1.545l5.786-16.546a1.211,1.211,0,0,1,1.544-.745l35.416,12.382a1.213,1.213,0,0,1,.743,1.545L292.232,195.2A1.215,1.215,0,0,1,290.688,195.946Z" transform="translate(-254.46 -151.249)" fill="#424c57"/>
            <path id="Path_20086" data-name="Path 20086" d="M295.345,185.049,258.6,172.2a1.256,1.256,0,0,1-.771-1.6l6-17.167a1.258,1.258,0,0,1,1.6-.772l36.742,12.846a1.257,1.257,0,0,1,.771,1.6l-6,17.167A1.256,1.256,0,0,1,295.345,185.049Z" transform="translate(-254.093 -152.592)" fill="#576573"/>
            <rect id="Rectangle_1210" data-name="Rectangle 1210" width="8.728" height="5.377" transform="translate(30.006 28.525) rotate(-70.731)" fill="#424c57"/>
            <path id="Path_20087" data-name="Path 20087" d="M284.411,185.531l-2.619,1.226-1.413-2.636,4.414-12.624,4.032,1.41Z" transform="translate(-251.574 -150.487)" fill="#576573"/>
            <path id="Path_20088" data-name="Path 20088" d="M285.962,182.734l-5.463-1.91,1.314-3.757,5.462,1.91Zm-4.49-2.379,4.021,1.406.808-2.314-4.02-1.406Z" transform="translate(-251.561 -149.867)" fill="#9e9e9e"/>
            <rect id="Rectangle_1211" data-name="Rectangle 1211" width="8.727" height="5.377" transform="translate(11.156 21.934) rotate(-70.731)" fill="#424c57"/>
            <path id="Path_20089" data-name="Path 20089" d="M267.449,179.6l-2.619,1.227-1.413-2.636,4.413-12.624,4.033,1.41Z" transform="translate(-253.462 -151.148)" fill="#576573"/>
            <path id="Path_20090" data-name="Path 20090" d="M269,176.8l-5.463-1.909,1.314-3.757,5.462,1.909Zm-4.489-2.379,4.02,1.4.808-2.314-4.02-1.4Z" transform="translate(-253.449 -150.527)" fill="#9e9e9e"/>
            <path id="Path_20091" data-name="Path 20091" d="M277.459,153.959l-.027-.008a1.271,1.271,0,0,0-1.679.513l-.728,2.084,1.349.472Z" transform="translate(-252.17 -152.453)" fill="#424c57"/>
            <path id="Path_20092" data-name="Path 20092" d="M286.751,157.245l.027.01c.738.258,1.182.906.992,1.449l-.728,2.084-1.349-.471Z" transform="translate(-250.982 -152.074)" fill="#424c57"/>
            <path id="Path_20093" data-name="Path 20093" d="M287.043,159.691s-1.3-1.4-5-2.689-5.485-.974-5.485-.974l.725-2.075s1.779-.389,5.537.924,4.943,2.741,4.943,2.741Z" transform="translate(-251.999 -152.447)" fill="#47403e"/>
          </g>
          <g id="Group_4154" data-name="Group 4154" transform="translate(29.342 9.625)">
            <path id="Path_20094" data-name="Path 20094" d="M308.1,183.916l-26.98-9.374a.436.436,0,0,1-.233-.568l4.308-12.4a.437.437,0,0,1,.536-.3l26.98,9.374a.436.436,0,0,1,.232.568l-4.308,12.4A.436.436,0,0,1,308.1,183.916Z" transform="translate(-280.862 -161.253)" fill="#5f9653"/>
            <path id="Path_20095" data-name="Path 20095" d="M306.1,181.173l-.038.11a.674.674,0,0,1-.844.443l-21.3-7.4a.677.677,0,0,1-.384-.878l.023-.068a.675.675,0,0,0-.385-.878l-.02-.007a.674.674,0,0,1-.389-.87l2.525-7.266a.675.675,0,0,1,.845-.442l.011,0a.674.674,0,0,0,.845-.442l.037-.106a.674.674,0,0,1,.844-.442l21.31,7.4a.674.674,0,0,1,.39.864l-.041.121a.674.674,0,0,0,.391.862l.278.1a.674.674,0,0,1,.388.87l-2.513,7.236a.676.676,0,0,1-.839.443l-.289-.1A.678.678,0,0,0,306.1,181.173Z" transform="translate(-280.655 -161.07)" fill="#badbac"/>
            <path id="Path_20096" data-name="Path 20096" d="M298.83,172.99c-.8,2.294-2.865,3.659-4.618,3.05s-2.527-2.962-1.729-5.254,2.863-3.66,4.615-3.05S299.626,170.7,298.83,172.99Z" transform="translate(-279.603 -160.547)" fill="#5f9653"/>
            <path id="Path_20097" data-name="Path 20097" d="M287.127,168.706a1.394,1.394,0,1,1,.859,1.775A1.394,1.394,0,0,1,287.127,168.706Z" transform="translate(-280.173 -160.528)" fill="#5f9653"/>
            <path id="Path_20098" data-name="Path 20098" d="M301.095,173.578a1.394,1.394,0,1,1,.859,1.775A1.394,1.394,0,0,1,301.095,173.578Z" transform="translate(-278.618 -159.985)" fill="#5f9653"/>
          </g>
          <g id="Group_4155" data-name="Group 4155" transform="translate(39.868 24.181)">
            <path id="Path_20099" data-name="Path 20099" d="M290.96,175.9a3.569,3.569,0,1,1,.924,4.961A3.568,3.568,0,0,1,290.96,175.9Z" transform="translate(-290.333 -174.351)" fill="#6b6b6b"/>
            <path id="Path_20100" data-name="Path 20100" d="M291.38,176.171a2.989,2.989,0,1,1,.773,4.155A2.989,2.989,0,0,1,291.38,176.171Z" transform="translate(-290.275 -174.293)" fill="#b0b0b0"/>
            <path id="Path_20101" data-name="Path 20101" d="M292.729,178.1a.8.8,0,0,0,.32.535c.206.14.371.136.5-.058.279-.406-.875-1.146-.315-1.964a.959.959,0,0,1,1.23-.362l.3-.445.416.286-.292.427a1.713,1.713,0,0,1,.529.84l-.565.236a1.243,1.243,0,0,0-.441-.668c-.239-.163-.413-.139-.548.059-.3.44.832,1.206.3,1.975a.924.924,0,0,1-1.191.346l-.3.441-.414-.285.3-.432a1.293,1.293,0,0,1-.4-.788Z" transform="translate(-290.129 -174.189)" fill="#6b6b6b"/>
          </g>
          <g id="Group_4156" data-name="Group 4156" transform="translate(36.839 9.599)">
            <path id="Path_20102" data-name="Path 20102" d="M295.988,164.726a4.221,4.221,0,1,1-4.883-3.433A4.222,4.222,0,0,1,295.988,164.726Z" transform="translate(-287.608 -161.23)" fill="#91713a"/>
            <path id="Path_20103" data-name="Path 20103" d="M295.244,164.774a3.536,3.536,0,1,1-4.091-2.874A3.536,3.536,0,0,1,295.244,164.774Z" transform="translate(-287.539 -161.161)" fill="#f3bb61"/>
            <path id="Path_20104" data-name="Path 20104" d="M292.083,164.2a.935.935,0,0,0-.711-.187c-.29.05-.427.192-.379.465.1.573,1.686.247,1.888,1.4a1.134,1.134,0,0,1-.741,1.324l.11.629-.587.1-.1-.6a2.035,2.035,0,0,1-1.145-.273l.282-.666a1.461,1.461,0,0,0,.927.2c.337-.058.465-.223.416-.5-.108-.62-1.7-.332-1.89-1.419a1.094,1.094,0,0,1,.722-1.278l-.108-.622.587-.1.106.61a1.528,1.528,0,0,1,.987.339Z" transform="translate(-287.328 -161.07)" fill="#91713a"/>
          </g>
        </g>
      </g>
      <g id="Group_4162" data-name="Group 4162" transform="translate(280.954 98.016)">
        <rect id="Rectangle_1212" data-name="Rectangle 1212" width="13.644" height="7.299" transform="translate(17.449 38.748) rotate(-80.733)" fill="#bd8779"/>
        <path id="Path_20105" data-name="Path 20105" d="M291.5,126.922c.182-3.058-12.49-7.869-12.7-7.712l-4.892,4.7-3.142-6.013c-.148-.218-14.042.259-14.841,3.216L252.8,134.135l37.965,6.2Z" transform="translate(-252.805 -84.893)" fill="#333"/>
        <path id="Path_20106" data-name="Path 20106" d="M269.732,118.737l2.817,5.393-7.558-7.085,5.2-1.14Z" transform="translate(-251.448 -85.11)" fill="#242424"/>
        <path id="Path_20107" data-name="Path 20107" d="M276.179,119.795l-4.387,4.217,9.418-4.314-4.57-2.735Z" transform="translate(-250.691 -84.992)" fill="#242424"/>
        <path id="Path_20108" data-name="Path 20108" d="M266.425,100.164c-1.986,2.626-.218,13.191,2.141,13.576l11.346,1.852c2.345.383,8.169-9.657,6.428-12.109-2.315-2.2-8.468-5.485-8.468-5.485S268.661,98.787,266.425,100.164Z" transform="translate(-251.384 -87.104)" fill="#665046"/>
        <g id="Group_4159" data-name="Group 4159" transform="translate(12.684 13.423)">
          <path id="Path_20109" data-name="Path 20109" d="M266.857,105.912a2.839,2.839,0,0,1-.239-5.638C268.009,100.213,268.254,105.852,266.857,105.912Z" transform="translate(-264.218 -100.274)" fill="#ffb7a4"/>
        </g>
        <g id="Group_4160" data-name="Group 4160" transform="translate(32.201 16.582)">
          <path id="Path_20110" data-name="Path 20110" d="M282.2,108.418a2.841,2.841,0,0,0,2.025-5.269C282.926,102.65,280.9,107.918,282.2,108.418Z" transform="translate(-281.78 -103.116)" fill="#ffb7a4"/>
        </g>
        <path id="Path_20111" data-name="Path 20111" d="M273.671,118.152c10.479,1.71,12.465-17.572,12.465-17.572s.569-6.341-8.091-7.755a9.658,9.658,0,0,0-10.449,4.88S263.347,116.467,273.671,118.152Z" transform="translate(-251.254 -87.698)" fill="#ffb7a4"/>
        <path id="Path_20112" data-name="Path 20112" d="M265.877,101.52c.949-.05,1.641,1.846,1.641,1.846l1.457-6.567s10.43,3.76,12.886-.064c3.152-.695,3.2,2.676,3.2,2.676s-.393,7.372-.376,7.087c.778-1.781,2.072-1.378,2.072-1.378s5.009-12.834-8.288-15S265.92,101.143,265.877,101.52Z" transform="translate(-251.349 -88.009)" fill="#665046"/>
        <path id="Path_20113" data-name="Path 20113" d="M280.85,102.074c-2.268-.371-4.315.419-4.9,1.793-.122-1.489-1.81-2.888-4.079-3.258-2.523-.412-4.788.6-5.059,2.268s1.553,3.348,4.074,3.76c2.268.37,4.315-.419,4.9-1.793.123,1.489,1.811,2.89,4.08,3.26,2.523.411,4.788-.6,5.059-2.269S283.371,102.485,280.85,102.074Zm-9.6,2.331c-1.4-.229-2.469-.838-2.384-1.36s1.29-.761,2.693-.532,2.469.838,2.384,1.36S272.649,104.632,271.246,104.4Zm8.983,1.465c-1.4-.228-2.469-.837-2.384-1.36s1.291-.759,2.693-.531,2.469.838,2.385,1.36S281.632,106.1,280.229,105.869Z" transform="translate(-251.249 -86.824)" fill="#333"/>
        <g id="Group_4161" data-name="Group 4161" transform="translate(13.201)">
          <path id="Path_20114" data-name="Path 20114" d="M288.331,99c.47-2.875-3.353-9.713-9.289-10.682s-11.735,4.3-12.2,7.174Z" transform="translate(-264.444 -88.196)" fill="#333"/>
          <path id="Path_20115" data-name="Path 20115" d="M288.331,98.361a3.722,3.722,0,0,0,.017-.958l-21.194-3.516a3.766,3.766,0,0,0-.316.966Z" transform="translate(-264.444 -87.562)" fill="#242424"/>
          <path id="Path_20116" data-name="Path 20116" d="M287.935,101.629,265.721,98c-.622-.1-1.085-.436-1.034-.747l.382-2.344c.051-.311.6-.481,1.217-.38L288.5,98.158c.62.1,1.084.437,1.032.747l-.381,2.345C289.1,101.561,288.556,101.73,287.935,101.629Z" transform="translate(-264.684 -87.493)" fill="#333"/>
        </g>
      </g>
      <g id="Group_4164" data-name="Group 4164" transform="translate(111.159 -17.826)">
        <path id="Path_20117" data-name="Path 20117" d="M121.614,41.153V62.531a5.371,5.371,0,0,1-10.741,0,1.432,1.432,0,1,0-2.864,0,8.235,8.235,0,0,0,16.469,0V41.153Z" transform="translate(-99.133 -0.591)" fill="#696969"/>
        <g id="Group_4163" data-name="Group 4163" transform="translate(0 16.872)">
          <path id="Path_20118" data-name="Path 20118" d="M123.172,19.837h0s-16.022,6.1-16.022,23.69h31.3C138.448,25.939,123.173,19.837,123.172,19.837Z" transform="translate(-99.228 -19.837)" fill="#ccc"/>
          <path id="Path_20119" data-name="Path 20119" d="M122.153,19.837h0s-5.848,6.1-5.848,23.69h11.516C127.821,25.939,122.154,19.837,122.153,19.837Z" transform="translate(-98.209 -19.837)" fill="#e57368"/>
          <path id="Path_20120" data-name="Path 20120" d="M123.966,19.837a23.909,23.909,0,0,0-23.944,23.69h7.922C107.944,25.939,123.966,19.837,123.966,19.837Z" transform="translate(-100.022 -19.837)" fill="#e57368"/>
          <path id="Path_20121" data-name="Path 20121" d="M121.567,19.837h0s15.275,6.1,15.275,23.69h8.67A23.909,23.909,0,0,0,121.567,19.837Z" transform="translate(-97.623 -19.837)" fill="#e57368"/>
        </g>
        <path id="Path_20122" data-name="Path 20122" d="M106.892,24.192c-6.421,3.6-5.689-9.9-5.689-9.9S113.314,20.592,106.892,24.192Z" transform="translate(-99.893 -3.582)" fill="#6a90d9"/>
        <path id="Path_20123" data-name="Path 20123" d="M108.057,12.084c-3.883,2.176-3.441-5.986-3.441-5.986S111.941,9.907,108.057,12.084Z" transform="translate(-99.512 -4.495)" fill="#6a90d9"/>
        <path id="Path_20124" data-name="Path 20124" d="M118.806,16.3c-4.923,2.759-4.362-7.587-4.362-7.587S123.729,13.546,118.806,16.3Z" transform="translate(-98.418 -4.203)" fill="#6a90d9"/>
        <path id="Path_20125" data-name="Path 20125" d="M132.73,5.121,129,17.281l6.157-.622L129,32.285l12-18.317-7.347.414,4.5-9.728Z" transform="translate(-96.795 -4.655)" fill="#f3bb61"/>
      </g>
      <g id="Group_4168" data-name="Group 4168" transform="translate(63.96 165.345)">
        <g id="Group_4165" data-name="Group 4165">
          <path id="Path_20126" data-name="Path 20126" d="M111.707,198.159l-39.823,6.213L64.75,158.644l4.3-6.255,34.674-5.41Z" transform="translate(-64.75 -146.98)" fill="#c8d3e8"/>
          <path id="Path_20127" data-name="Path 20127" d="M69.048,151.848l-4.3,6.255,5.148-.8Z" transform="translate(-64.75 -146.437)" fill="#9c9c9c"/>
        </g>
        <g id="Group_4166" data-name="Group 4166" transform="translate(9.701 43.43)">
          <path id="Path_20128" data-name="Path 20128" d="M84.706,204.354l-3.87-1.282-3.49,2.43-1.591-10.2,7.359-1.148Z" transform="translate(-73.226 -185.156)" fill="#943e3e"/>
          <path id="Path_20129" data-name="Path 20129" d="M84.587,190.786a5.587,5.587,0,1,1-6.381-4.66A5.586,5.586,0,0,1,84.587,190.786Z" transform="translate(-73.479 -186.058)" fill="#bd7070"/>
          <path id="Path_20130" data-name="Path 20130" d="M83.32,190.848a4.423,4.423,0,1,1-5.051-3.689A4.423,4.423,0,0,1,83.32,190.848Z" transform="translate(-73.363 -185.942)" fill="#824747"/>
        </g>
        <g id="Group_4167" data-name="Group 4167" transform="translate(4.177 9.154)">
          <rect id="Rectangle_1213" data-name="Rectangle 1213" width="31.678" height="3.333" transform="translate(0 4.884) rotate(-8.869)" fill="#5e828f"/>
          <rect id="Rectangle_1214" data-name="Rectangle 1214" width="31.678" height="3.333" transform="translate(0.993 11.243) rotate(-8.867)" fill="#5e828f"/>
          <rect id="Rectangle_1215" data-name="Rectangle 1215" width="31.678" height="3.333" transform="matrix(0.988, -0.154, 0.154, 0.988, 1.985, 17.603)" fill="#5e828f"/>
          <rect id="Rectangle_1216" data-name="Rectangle 1216" width="20.184" height="3.334" transform="translate(2.977 23.962) rotate(-8.868)" fill="#5e828f"/>
          <rect id="Rectangle_1217" data-name="Rectangle 1217" width="13.702" height="3.333" transform="translate(23.006 35.727) rotate(-8.867)" fill="#405861"/>
        </g>
      </g>
      <g id="Group_4170" data-name="Group 4170" transform="translate(2.049 152.745)">
        <g id="Group_4169" data-name="Group 4169">
          <path id="Path_20131" data-name="Path 20131" d="M38.881,202.329s.249-23.494-27.242-44.3l40.52-8.205C61.339,175.717,38.881,202.329,38.881,202.329Z" transform="translate(-5.753 -146.062)" fill="#c2c2c2"/>
          <path id="Path_20132" data-name="Path 20132" d="M52.24,150.2c.579,3.491-8.2,7.855-19.605,9.748s-21.123.6-21.7-2.9,8.2-7.854,19.605-9.745S51.661,146.713,52.24,150.2Z" transform="translate(-5.835 -146.439)" fill="#c7c7c7"/>
          <path id="Path_20133" data-name="Path 20133" d="M48.023,150.73c.467,2.813-6.608,6.33-15.8,7.855s-17.025.481-17.492-2.332,6.608-6.331,15.8-7.857S47.556,147.917,48.023,150.73Z" transform="translate(-5.412 -146.299)" fill="#a6a6a6"/>
          <path id="Path_20134" data-name="Path 20134" d="M43.827,151.712c.36,2.169-5.1,4.881-12.185,6.057s-13.128.37-13.488-1.8,5.1-4.881,12.185-6.057S43.467,149.541,43.827,151.712Z" transform="translate(-5.03 -146.113)" fill="#878787"/>
          <path id="Path_20135" data-name="Path 20135" d="M40.26,152.58c.264,1.6-3.752,3.594-8.971,4.46s-9.665.272-9.93-1.325,3.751-3.594,8.971-4.46S39.994,150.983,40.26,152.58Z" transform="translate(-4.672 -145.947)" fill="#6e6e6e"/>
          <path id="Path_20136" data-name="Path 20136" d="M24.566,169.9,22.1,167.024s8.041,1.177,23.055-3.011A46.2,46.2,0,0,1,24.566,169.9Z" transform="translate(-4.589 -144.483)" fill="#a1a1a1"/>
          <path id="Path_20137" data-name="Path 20137" d="M48.29,178.335a27.6,27.6,0,0,1-13.682.887,38.832,38.832,0,0,0,14.648-3.7Z" transform="translate(-3.196 -143.2)" fill="#a1a1a1"/>
          <path id="Path_20138" data-name="Path 20138" d="M30.883,183.435,8.909,187.464a1.076,1.076,0,1,1-.389-2.117l21.975-4.03a1.077,1.077,0,0,1,.388,2.118Z" transform="translate(-6.199 -142.558)" fill="#c9c9c9"/>
          <path id="Path_20139" data-name="Path 20139" d="M26.188,178.565,7.9,181.917a1.077,1.077,0,0,1-.389-2.118L25.8,176.446a1.077,1.077,0,0,1,.388,2.119Z" transform="translate(-6.311 -143.1)" fill="#c9c9c9"/>
          <path id="Path_20140" data-name="Path 20140" d="M22.192,173.566,7.614,176.239a1.076,1.076,0,1,1-.388-2.117L21.8,171.448a1.077,1.077,0,0,1,.388,2.118Z" transform="translate(-6.343 -143.657)" fill="#c9c9c9"/>
        </g>
      </g>
      <g id="Group_4176" data-name="Group 4176" transform="translate(333.907 125.573)">
        <g id="Group_4171" data-name="Group 4171">
          <path id="Path_20141" data-name="Path 20141" d="M343.866,130.31l-30.915,22.285-13.314-8.3,43.427-31.306Z" transform="translate(-295.543 -112.991)" fill="#3b4f54"/>
          <rect id="Rectangle_1218" data-name="Rectangle 1218" width="19.088" height="10.821" transform="translate(10.77 13.154) rotate(-35.786)" fill="#ccc"/>
          <path id="Path_20142" data-name="Path 20142" d="M321.124,119.942a2.9,2.9,0,1,1-4.094-.723A2.943,2.943,0,0,1,321.124,119.942Z" transform="translate(-293.738 -112.357)" fill="#737373"/>
          <path id="Path_20143" data-name="Path 20143" d="M320.646,120.194a2.377,2.377,0,1,1-3.355-.592A2.41,2.41,0,0,1,320.646,120.194Z" transform="translate(-293.685 -112.304)" fill="#77a7fb"/>
          <rect id="Rectangle_1219" data-name="Rectangle 1219" width="0.672" height="7.766" transform="matrix(0.812, -0.584, 0.584, 0.812, 7.103, 6.222)" fill="#4d4d4d"/>
          <path id="Path_20144" data-name="Path 20144" d="M298.35,127.226l7.2-5.188-2.4-3.325-7.2,5.188,3.216.208Z" transform="translate(-295.953 -112.354)" fill="#e36055"/>
          <path id="Path_20145" data-name="Path 20145" d="M343.121,120l-38.1,27.464-2.836-1.768,40.762-29.383Z" transform="translate(-295.258 -112.622)" fill="#a35c5c"/>
        </g>
        <g id="Group_4173" data-name="Group 4173" transform="translate(0.372 25.255)">
          <g id="Group_4172" data-name="Group 4172">
            <path id="Path_20146" data-name="Path 20146" d="M345.229,148.474a1.849,1.849,0,0,1-1-.5,18.416,18.416,0,0,0-8.9-4.218,17.4,17.4,0,0,0-5.533.531,20.434,20.434,0,0,1-6.967.555c-4.205-.682-5.753-1.895-7.118-2.964a9.272,9.272,0,0,0-5.187-2.145c-6.315-1.025-9.909,1.032-9.943,1.054a1.866,1.866,0,0,1-1.934-3.191c.189-.114,4.7-2.806,12.474-1.545a12.784,12.784,0,0,1,6.89,2.891c1.157.907,2.156,1.689,5.415,2.217a17.951,17.951,0,0,0,5.661-.533,20.051,20.051,0,0,1,6.839-.55,21.9,21.9,0,0,1,10.9,5.218,1.865,1.865,0,0,1-1.6,3.181Z" transform="translate(-296.123 -135.716)" fill="#445f8f"/>
            <path id="Path_20147" data-name="Path 20147" d="M344.739,151.5a1.856,1.856,0,0,1-1-.5,18.4,18.4,0,0,0-8.9-4.216,17.36,17.36,0,0,0-5.533.53,20.435,20.435,0,0,1-6.967.553c-4.206-.681-5.752-1.894-7.118-2.963a9.281,9.281,0,0,0-5.188-2.145c-6.314-1.025-9.908,1.032-9.942,1.054a1.866,1.866,0,0,1-1.934-3.191c.189-.114,4.7-2.806,12.474-1.545a12.788,12.788,0,0,1,6.89,2.891c1.158.906,2.156,1.689,5.416,2.217a17.877,17.877,0,0,0,5.659-.535,20.17,20.17,0,0,1,6.84-.55,21.9,21.9,0,0,1,10.895,5.218,1.865,1.865,0,0,1-1.6,3.182Z" transform="translate(-296.178 -135.38)" fill="#77a7fb"/>
            <path id="Path_20148" data-name="Path 20148" d="M344.25,154.516a1.851,1.851,0,0,1-1-.5,18.409,18.409,0,0,0-8.9-4.218,17.391,17.391,0,0,0-5.532.531,20.464,20.464,0,0,1-6.967.555c-4.205-.683-5.752-1.895-7.118-2.964a9.273,9.273,0,0,0-5.187-2.145c-6.316-1.025-9.908,1.032-9.943,1.054a1.865,1.865,0,0,1-1.933-3.191c.187-.114,4.7-2.806,12.473-1.545a12.8,12.8,0,0,1,6.89,2.89c1.157.908,2.157,1.69,5.414,2.218a17.947,17.947,0,0,0,5.66-.533,20.082,20.082,0,0,1,6.839-.551,21.894,21.894,0,0,1,10.9,5.219,1.864,1.864,0,0,1-1.595,3.181Z" transform="translate(-296.233 -135.043)" fill="#445f8f"/>
            <path id="Path_20149" data-name="Path 20149" d="M343.753,157.58a1.86,1.86,0,0,1-1-.5,18.405,18.405,0,0,0-8.9-4.218,17.423,17.423,0,0,0-5.532.53,20.407,20.407,0,0,1-6.967.553c-4.205-.681-5.753-1.894-7.118-2.963a9.274,9.274,0,0,0-5.187-2.144c-6.316-1.025-9.908,1.031-9.943,1.054a1.866,1.866,0,0,1-1.934-3.191c.188-.116,4.7-2.807,12.474-1.546a12.8,12.8,0,0,1,6.89,2.891c1.157.907,2.157,1.689,5.414,2.218a17.93,17.93,0,0,0,5.661-.536,20.161,20.161,0,0,1,6.839-.55,21.893,21.893,0,0,1,10.9,5.22,1.865,1.865,0,0,1-1.6,3.181Z" transform="translate(-296.288 -134.702)" fill="#77a7fb"/>
          </g>
        </g>
        <g id="Group_4175" data-name="Group 4175" transform="translate(33.207 17.019)">
          <g id="Group_4174" data-name="Group 4174">
            <path id="Path_20150" data-name="Path 20150" d="M338.8,137.883a5.09,5.09,0,0,1-2.034,3.306l2.364,3.277a9.138,9.138,0,0,0,2.086-12.693l-3.28,2.365A5.087,5.087,0,0,1,338.8,137.883Z" transform="translate(-324.615 -127.919)" fill="#ff905e"/>
            <path id="Path_20151" data-name="Path 20151" d="M329.938,136.434a5.072,5.072,0,0,1,1.725-3.035l-2.375-3.294a9.1,9.1,0,0,0-1.945,12.16l3.292-2.373A5.066,5.066,0,0,1,329.938,136.434Z" transform="translate(-325.833 -128.104)" fill="#ff905e"/>
            <path id="Path_20152" data-name="Path 20152" d="M341.8,131.792a9.124,9.124,0,0,0-12.5-1.775c-.126.091-.245.192-.366.288l2.375,3.294c.118-.1.228-.213.355-.3a5.055,5.055,0,0,1,6.839.869c.1.12.209.232.3.36l3.28-2.365C342,132.035,341.9,131.915,341.8,131.792Z" transform="translate(-325.486 -128.305)" fill="#fff"/>
            <path id="Path_20153" data-name="Path 20153" d="M337.834,140.395c-.126.091-.267.161-.4.24a5.052,5.052,0,0,1-6.7-1.326c-.093-.127-.166-.263-.247-.4l-3.292,2.373c.084.13.167.262.259.388a9.123,9.123,0,0,0,12.357,2.256c.131-.084.263-.166.39-.257Z" transform="translate(-325.681 -127.124)" fill="#fff"/>
          </g>
        </g>
      </g>
      <g id="Group_4177" data-name="Group 4177" transform="translate(220.171 1.114)">
        <path id="Path_20154" data-name="Path 20154" d="M259.6,31.5s-10.179,3.01-20.194-5.3c-10.014,8.311-20.194,5.3-20.194,5.3S214.222,59.965,239.4,72.2C264.585,59.965,259.6,31.5,259.6,31.5Z" transform="translate(-218.807 -26.197)" fill="#e57368"/>
        <path id="Path_20155" data-name="Path 20155" d="M256.674,34.293s-8.843,2.614-17.543-4.6c-8.7,7.218-17.542,4.6-17.542,4.6s-4.33,24.123,17.542,34.75C261,58.416,256.674,34.293,256.674,34.293Z" transform="translate(-218.536 -25.808)" fill="#fff"/>
        <path id="Path_20156" data-name="Path 20156" d="M254.986,35.932a19.556,19.556,0,0,1-16.017-4.482,19.556,19.556,0,0,1-16.017,4.482s-3.565,21.779,16.017,31.292C258.551,57.711,254.986,35.932,254.986,35.932Z" transform="translate(-218.374 -25.612)" fill="#c4564a"/>
        <path id="Path_20157" data-name="Path 20157" d="M240.395,45.059V38.054h-4.278v7.006h-7.006v4.278h7.006v7.006h4.278V49.337H247.4V45.059Z" transform="translate(-217.66 -24.877)" fill="#fff"/>
      </g>
      <g id="Group_4178" data-name="Group 4178" transform="translate(178.125 -54)">
        <path id="Path_20158" data-name="Path 20158" d="M184.461,9.078S198.278-8.741,208.574,5.55c13.028,18.081-24.113,36.728-24.113,36.728S147.322,23.631,160.35,5.55C170.646-8.741,184.461,9.078,184.461,9.078Z" transform="translate(-157.579 0)" fill="#d45353"/>
        <path id="Path_20159" data-name="Path 20159" d="M186.957,29.33a1.113,1.113,0,0,1-.968-.566l-5.841-10.356-2.5,4.406a1.108,1.108,0,0,1-.965.562H168.2a1.111,1.111,0,0,1,0-2.223h7.827l3.154-5.55a1.11,1.11,0,0,1,1.933,0L186.8,25.684l1.626-3.924a1.113,1.113,0,0,1,1.027-.686h8.335a1.111,1.111,0,1,1,0,2.223H190.2l-2.216,5.346a1.106,1.106,0,0,1-.959.683C187,29.327,186.979,29.33,186.957,29.33Z" transform="translate(-156.519 1.675)" fill="#f3bb61"/>
      </g>
      <g id="Group_4180" data-name="Group 4180" transform="translate(66.696 26.182)">
        <rect id="Rectangle_1220" data-name="Rectangle 1220" width="7.045" height="10.11" transform="matrix(0.989, -0.145, 0.145, 0.989, 15.951, 28.914)" fill="#bd8779"/>
        <path id="Path_20160" data-name="Path 20160" d="M78.812,64.432l-2.406,4.031a.667.667,0,0,1-.986.153l-3.574-3.127c-.177-.146-.357.013-.575.084h-.008a.67.67,0,0,0-.447.51L68.4,78.874c-.084.449.619,3.037,1.072,2.97L86.4,79.363c.459-.068.387-2.766.167-3.173L80.312,64.71a.671.671,0,0,0-.579-.348l-.313,0C79.192,64.358,78.935,64.24,78.812,64.432Z" transform="translate(-55.08 -31.02)" fill="#d1fff4"/>
        <path id="Path_20161" data-name="Path 20161" d="M63.607,51.829c-.348,3.6,1.875,10.458,6.864,11.981l9.559-1.4c4.811-3.463,4.383-11.342,3.258-13.4C80.459,47.64,73.705,46.4,73.705,46.4S65.3,49.867,63.607,51.829Z" transform="translate(-55.617 -33.016)" fill="#89695e"/>
        <path id="Path_20162" data-name="Path 20162" d="M74.529,81.3l-17.7,2.6s-1.494-6.513,1.19-12.425c-.391-2.668,14.013-7.206,14.013-7.206Z" transform="translate(-56.414 -31.026)" fill="#385757"/>
        <path id="Path_20163" data-name="Path 20163" d="M80.959,80.138l17.72-2.6s-.46-6.7-4.729-11.592c-.391-2.671-15.494-2.881-15.494-2.881Z" transform="translate(-53.96 -31.16)" fill="#385757"/>
        <path id="Path_20164" data-name="Path 20164" d="M64.849,54.875a3.043,3.043,0,0,1-2.073-5.68C64.174,48.687,66.248,54.361,64.849,54.875Z" transform="translate(-55.895 -32.708)" fill="#ffb7a4"/>
        <path id="Path_20165" data-name="Path 20165" d="M81.268,52.459a3.043,3.043,0,0,0,.356-6.035C80.139,46.339,79.781,52.369,81.268,52.459Z" transform="translate(-53.753 -33.013)" fill="#ffb7a4"/>
        <path id="Path_20166" data-name="Path 20166" d="M75.583,65.451c11.953-1.753,7.034-21.978,7.034-21.978s-1.476-6.649-10.767-5.288a10.343,10.343,0,0,0-9.084,8.367S63.547,67.215,75.583,65.451Z" transform="translate(-55.707 -33.951)" fill="#ffb7a4"/>
        <path id="Path_20167" data-name="Path 20167" d="M62.3,51.121c.946-.361,2.266,1.348,2.266,1.348L63.925,45.3s4.849,2.431,15.911-.821c-.689-2.437,1.35-1.731,1.35-1.731S83.176,50.4,83.1,50.106c.218-2.077,1.67-2.082,1.67-2.082s2.917-15.922-14.315-13.4c-5.878.861-5.816,2.988-7.232,5.877C57.833,42.639,62.253,50.885,62.3,51.121Z" transform="translate(-55.954 -34.357)" fill="#89695e"/>
        <path id="Path_20168" data-name="Path 20168" d="M74.492,80.537l5.053-.74-4.07-11.173a.259.259,0,0,0-.372.068Z" transform="translate(-54.401 -30.547)" fill="#424242"/>
        <path id="Path_20169" data-name="Path 20169" d="M73.122,66.156l3.77-.552c.229-.033.543,1.306.406,1.49L75.626,68.8a.26.26,0,0,1-.377.043l-2.1-1.154C72.978,67.548,72.9,66.19,73.122,66.156Z" transform="translate(-54.569 -30.877)" fill="#424242"/>
        <path id="Path_20170" data-name="Path 20170" d="M75.023,66.426l3.365,1.887a.2.2,0,0,0,.3-.147l.657-4.76a.2.2,0,0,0-.05-.162l-1.156-1.264a.2.2,0,0,0-.311.021l-2.866,4.135A.2.2,0,0,0,75.023,66.426Z" transform="translate(-54.353 -31.288)" fill="#d1fff4"/>
        <path id="Path_20171" data-name="Path 20171" d="M75.153,66.376l-2.681,2.774a.2.2,0,0,1-.327-.056l-1.995-4.371a.2.2,0,0,1,0-.17L70.9,63.01a.2.2,0,0,1,.306-.07l3.932,3.14A.2.2,0,0,1,75.153,66.376Z" transform="translate(-54.887 -31.179)" fill="#d1fff4"/>
        <path id="Path_20172" data-name="Path 20172" d="M73.914,57.3c-.5,1.047-4.949,1.7-4.949,1.7l.108-.642a2.959,2.959,0,0,1,2.491-2.446l2.1-.308Z" transform="translate(-55.017 -31.99)" fill="#89695e"/>
        <path id="Path_20173" data-name="Path 20173" d="M73.443,57.338c.776.861,5.228.208,5.228.208l-.287-.585A2.962,2.962,0,0,0,75.3,55.334l-2.1.308Z" transform="translate(-54.546 -32.024)" fill="#89695e"/>
        <g id="Group_4179" data-name="Group 4179" transform="translate(28.826 40.498)">
          <rect id="Rectangle_1221" data-name="Rectangle 1221" width="7.713" height="1.385" transform="translate(0 1.549) rotate(-8.338)" fill="#876456"/>
          <rect id="Rectangle_1222" data-name="Rectangle 1222" width="7.206" height="8.362" transform="matrix(0.989, -0.145, 0.145, 0.989, 0.452, 2.883)" fill="#fff"/>
          <rect id="Rectangle_1223" data-name="Rectangle 1223" width="1.808" height="2.156" transform="translate(1.357 3.515) rotate(-8.333)" fill="#ffa682"/>
          <rect id="Rectangle_1224" data-name="Rectangle 1224" width="5.611" height="0.844" transform="translate(1.868 7) rotate(-8.341)" fill="#aba4a1"/>
          <rect id="Rectangle_1225" data-name="Rectangle 1225" width="5.611" height="0.844" transform="matrix(0.989, -0.145, 0.145, 0.989, 2.072, 8.392)" fill="#aba4a1"/>
          <rect id="Rectangle_1226" data-name="Rectangle 1226" width="1.696" height="0.875" transform="translate(2.856 0.246) rotate(-8.354)" fill="#aba4a1"/>
        </g>
      </g>
      <g id="Group_4181" data-name="Group 4181" transform="translate(274.8 23.647)">
        <path id="Path_20174" data-name="Path 20174" d="M304.44,57.343c-.468-.114-.931-.208-1.391-.291,0-.009.007-.017.008-.024.367-1.5-.8-3.1-2.664-3.815.407-4.791-3.355-9.485-8.976-10.857-5.5-1.341-10.882.96-12.841,5.219a7.256,7.256,0,0,0-2-.821c-3.376-.824-6.681.838-7.383,3.711a4.623,4.623,0,0,0-.109,1.5c-.081-.022-.158-.05-.24-.069-4.034-.985-7.984,1-8.822,4.433s1.754,7.013,5.789,8a8,8,0,0,0,6.418-1.047c1.379,3.2,5.926,6.332,11.8,7.766,7.5,1.83,14.362.2,15.592-3.625.7.246,1.438.465,2.2.65,6.172,1.506,11.764.327,12.486-2.635S310.614,58.849,304.44,57.343Z" transform="translate(-259.865 -41.974)" fill="#8c8c8c"/>
        <path id="Path_20175" data-name="Path 20175" d="M282.643,62.749l-5.13,8.624,4.836.675-7.641,10.826,12.627-11.8-5.71-1.057,5.27-6.615Z" transform="translate(-258.212 -39.66)" fill="#f3bb61"/>
        <path id="Path_20176" data-name="Path 20176" d="M288.854,76.849c2.9,1.181,1.883-4.48,1.883-4.48S285.952,75.667,288.854,76.849Z" transform="translate(-256.741 -38.589)" fill="#6a90d9"/>
        <path id="Path_20177" data-name="Path 20177" d="M294.47,70.4c2.109,1.158,1.832-3.252,1.832-3.252S292.36,69.244,294.47,70.4Z" transform="translate(-256.081 -39.17)" fill="#6a90d9"/>
        <path id="Path_20178" data-name="Path 20178" d="M264.852,66.14c2.109,1.158,1.831-3.252,1.831-3.252S262.742,64.981,264.852,66.14Z" transform="translate(-259.378 -39.645)" fill="#6a90d9"/>
        <path id="Path_20179" data-name="Path 20179" d="M264.868,71.645c2.109,1.159,1.833-3.251,1.833-3.251S262.759,70.487,264.868,71.645Z" transform="translate(-259.377 -39.032)" fill="#6a90d9"/>
        <path id="Path_20180" data-name="Path 20180" d="M270.668,71.447c3.31,2.195,3.46-5.1,3.46-5.1S267.359,69.252,270.668,71.447Z" transform="translate(-258.763 -39.259)" fill="#6a90d9"/>
      </g>
      <g id="Group_4187" data-name="Group 4187" transform="translate(313.842 61.665)">
        <g id="Group_4185" data-name="Group 4185" transform="translate(10.083)">
          <g id="Group_4184" data-name="Group 4184">
            <rect id="Rectangle_1227" data-name="Rectangle 1227" width="4.987" height="44.662" transform="translate(3.041 19.126) rotate(-80.553)" fill="#242424"/>
            <path id="Path_20181" data-name="Path 20181" d="M309.046,80.2l28.6,4.759s-2.029-10.091-12.123-11.77S309.046,80.2,309.046,80.2Z" transform="translate(-299.513 -72.54)" fill="#77a7fb"/>
            <path id="Path_20182" data-name="Path 20182" d="M339.868,84.66c-2.505-6.248-7.35-10.841-13.514-11.866-6.8-1.131-13.484,2.355-17.927,8.493-5.908-.982-7.071,6.009-7.958,11.34l3.076.512.357.059A5.488,5.488,0,1,1,314.728,95l8.484,1.411,2.918.486,9.75,1.623a5.487,5.487,0,1,1,10.826,1.8l2.168.361C350.172,92.883,348.319,86.066,339.868,84.66Zm-15.5-2.514-12.649-2.1c1.394-2.07,7.259-6.98,13.959-5.866.007,0,.119-.649.124-.648Zm1.5.25,1.316-7.915c6.568,1.749,9.877,6.275,10.562,9.892Z" transform="translate(-300.468 -72.583)" fill="#cc655c"/>
            <g id="Group_4182" data-name="Group 4182" transform="translate(41.17 29.814)">
              <path id="Path_20183" data-name="Path 20183" d="M347.206,105.09a4.879,4.879,0,1,1-4.01-5.613A4.879,4.879,0,0,1,347.206,105.09Z" transform="translate(-337.513 -99.41)" fill="#404040"/>
              <path id="Path_20184" data-name="Path 20184" d="M345.554,104.689a3.361,3.361,0,1,1-2.758-3.867A3.358,3.358,0,0,1,345.554,104.689Z" transform="translate(-337.361 -99.258)" fill="gray"/>
              <path id="Path_20185" data-name="Path 20185" d="M344.3,104.383a2.2,2.2,0,1,1-1.806-2.535A2.2,2.2,0,0,1,344.3,104.383Z" transform="translate(-337.245 -99.142)" fill="#696969"/>
            </g>
            <g id="Group_4183" data-name="Group 4183" transform="translate(4.027 16.648)">
              <path id="Path_20186" data-name="Path 20186" d="M313.786,93.243a4.88,4.88,0,1,1-4.01-5.613A4.88,4.88,0,0,1,313.786,93.243Z" transform="translate(-304.092 -87.563)" fill="#404040"/>
              <path id="Path_20187" data-name="Path 20187" d="M312.134,92.842a3.36,3.36,0,1,1-2.759-3.867A3.359,3.359,0,0,1,312.134,92.842Z" transform="translate(-303.94 -87.411)" fill="gray"/>
              <path id="Path_20188" data-name="Path 20188" d="M310.875,92.536A2.2,2.2,0,1,1,309.068,90,2.2,2.2,0,0,1,310.875,92.536Z" transform="translate(-303.824 -87.295)" fill="#696969"/>
            </g>
            <path id="Path_20189" data-name="Path 20189" d="M342.152,89.936c.1,1.176-.317,2.169-.922,2.218s-1.176-.862-1.271-2.037.317-2.167.922-2.216S342.057,88.764,342.152,89.936Z" transform="translate(-296.072 -70.877)" fill="#fde3a7"/>
            <path id="Path_20190" data-name="Path 20190" d="M304.925,84.659c-.341.8-.951,1.306-1.365,1.13s-.472-.968-.13-1.769.952-1.306,1.366-1.129S305.267,83.857,304.925,84.659Z" transform="translate(-300.163 -71.439)" fill="#96281b"/>
            <path id="Path_20191" data-name="Path 20191" d="M326.047,84.872l-2.1-.349a.725.725,0,0,1-.655-.779l0-.014a.725.725,0,0,1,.872-.525l2.1.349a.724.724,0,0,1,.655.779l0,.013A.724.724,0,0,1,326.047,84.872Z" transform="translate(-297.927 -71.401)" fill="#404040"/>
            <path id="Path_20192" data-name="Path 20192" d="M330.282,102.211l-1.915-.539,1.73-6.15,1.974.327Z" transform="translate(-297.361 -70.028)" fill="#696969"/>
            <rect id="Rectangle_1228" data-name="Rectangle 1228" width="1.067" height="5.574" transform="translate(28.976 32.18) rotate(-74.267)" fill="#424242"/>
          </g>
        </g>
        <g id="Group_4186" data-name="Group 4186" transform="translate(0 13.807)">
          <path id="Path_20193" data-name="Path 20193" d="M310.846,90.561a18.781,18.781,0,0,0-17.768-4.969s-5.7,11.909,3.875,20.39C309.535,103.7,310.846,90.561,310.846,90.561Z" transform="translate(-291.396 -85.006)" fill="#71ab95"/>
          <path id="Path_20194" data-name="Path 20194" d="M309.818,90.943A17.461,17.461,0,0,0,293.574,86.4s-5.207,10.887,3.544,18.64C308.619,102.952,309.818,90.943,309.818,90.943Z" transform="translate(-291.324 -84.907)" fill="#fff"/>
          <path id="Path_20195" data-name="Path 20195" d="M308.933,91.277A15.761,15.761,0,0,0,294,87.1s-4.787,10.008,3.256,17.134C307.832,102.316,308.933,91.277,308.933,91.277Z" transform="translate(-291.263 -84.828)" fill="#5b8a78"/>
          <path id="Path_20196" data-name="Path 20196" d="M297.77,98.431l1.387.388.4-1.441a3.2,3.2,0,0,0,1.061-.129l.733,1.306,1.256-.707-.733-1.306a3.226,3.226,0,0,0,.66-.84l1.44.4.389-1.388-1.441-.4a3.237,3.237,0,0,0-.129-1.062l1.306-.733-.708-1.256-1.3.735a3.2,3.2,0,0,0-.84-.661l.4-1.441-1.387-.388-.4,1.441a3.2,3.2,0,0,0-1.061.129l-.733-1.3-1.256.707.734,1.3a3.18,3.18,0,0,0-.659.841l-1.441-.4-.389,1.387,1.441.4a3.169,3.169,0,0,0,.129,1.061l-1.306.735.708,1.256,1.3-.736a3.2,3.2,0,0,0,.84.661Zm.353-4.335a1.59,1.59,0,1,1,.82,1.459A1.572,1.572,0,0,1,298.123,94.1Z" transform="translate(-290.988 -84.505)" fill="#fff"/>
        </g>
      </g>
      <g id="Group_4198" data-name="Group 4198" transform="translate(-5 66.889)">
        <g id="Group_4197" data-name="Group 4197">
          <g id="Group_4188" data-name="Group 4188" transform="translate(6.279 14.232)">
            <path id="Path_20197" data-name="Path 20197" d="M53.277,97.318A24.008,24.008,0,0,1,6.326,107.376c-1.147-5.351,6.18-10.208,15.374-13.154l.5,11,5.52-2.207,9.91,11.349L33.575,97.217l-5.632-1.843,3.926-.841,2.314-2.952C43.649,90.57,52.143,92.027,53.277,97.318Z" transform="translate(-5.588 -90.957)" fill="#795547"/>
            <path id="Path_20198" data-name="Path 20198" d="M21.143,93.363S5.654,98.324,5.65,105.687c0,1.065,1.691,2.5,1.691,2.5l.941-1.57,1.087.528,1.035-1.986.729.847.326-2.169,1.564.761.395-1.849,1.185.416.6-2.319,1.413.915.277-1.55,1.178.387.117-1.728,1.429.423.2-1.928,1.094.557.037-1.529,1.529.889-.337-1.57,1.347.32Z" transform="translate(-5.65 -90.726)" fill="#77b05f"/>
            <path id="Path_20199" data-name="Path 20199" d="M31.362,91.215s16.161-1.819,19.182,4.9c.437.971-.52,2.971-.52,2.971l-1.407-1.629-.87,1.509L46.4,97.152l-1.409,1.3L44.4,96.348l-1.577,1.8-.839-1.783-1.37.841-.765-1.6-1.378.742-.667-.964-1.274.659-.451-1.47L34.708,95.64l-.491-1.325-.769.956-.313-1.439-.991,1.076-.149-1.288-1.671.981Z" transform="translate(-2.903 -90.99)" fill="#77b05f"/>
          </g>
          <g id="Group_4193" data-name="Group 4193" transform="translate(36.331)">
            <g id="Group_4192" data-name="Group 4192">
              <rect id="Rectangle_1229" data-name="Rectangle 1229" width="9.014" height="11.55" transform="matrix(0.197, -0.98, 0.98, 0.197, 1.608, 13.338)" fill="#c2c2c2"/>
              <rect id="Rectangle_1230" data-name="Rectangle 1230" width="1.938" height="14.087" transform="translate(0 15.016) rotate(-78.659)" fill="#5e5e5e"/>
              <path id="Path_20200" data-name="Path 20200" d="M42.785,78.184,33.6,82.208l16.1,3.23Z" transform="translate(-32.59 -78.184)" fill="#e57368"/>
              <g id="Group_4189" data-name="Group 4189" transform="translate(3.997 5.777)">
                <rect id="Rectangle_1231" data-name="Rectangle 1231" width="2.627" height="2.627" transform="translate(0 2.576) rotate(-78.659)" fill="#7d645a"/>
                <rect id="Rectangle_1232" data-name="Rectangle 1232" width="0.753" height="2.222" transform="translate(0.526 0.984) rotate(-78.659)" fill="#77a7fb"/>
                <rect id="Rectangle_1233" data-name="Rectangle 1233" width="1.358" height="1.041" transform="translate(0.24 2.41) rotate(-78.629)" fill="#77a7fb"/>
                <rect id="Rectangle_1234" data-name="Rectangle 1234" width="1.358" height="1.04" transform="translate(1.398 2.642) rotate(-78.659)" fill="#77a7fb"/>
              </g>
              <g id="Group_4190" data-name="Group 4190" transform="translate(3.223 9.633)">
                <rect id="Rectangle_1235" data-name="Rectangle 1235" width="2.627" height="2.627" transform="translate(0 2.576) rotate(-78.661)" fill="#7d645a"/>
                <rect id="Rectangle_1236" data-name="Rectangle 1236" width="0.752" height="2.221" transform="translate(0.526 0.983) rotate(-78.647)" fill="#77a7fb"/>
                <rect id="Rectangle_1237" data-name="Rectangle 1237" width="1.358" height="1.04" transform="translate(0.24 2.41) rotate(-78.665)" fill="#77a7fb"/>
                <rect id="Rectangle_1238" data-name="Rectangle 1238" width="1.358" height="1.04" transform="translate(1.398 2.642) rotate(-78.659)" fill="#77a7fb"/>
              </g>
              <g id="Group_4191" data-name="Group 4191" transform="translate(10.006 6.982)">
                <rect id="Rectangle_1239" data-name="Rectangle 1239" width="2.627" height="2.627" transform="translate(0 2.575) rotate(-78.658)" fill="#7d645a"/>
                <rect id="Rectangle_1240" data-name="Rectangle 1240" width="0.753" height="2.221" transform="translate(0.526 0.983) rotate(-78.656)" fill="#77a7fb"/>
                <rect id="Rectangle_1241" data-name="Rectangle 1241" width="1.358" height="1.041" transform="translate(0.24 2.41) rotate(-78.66)" fill="#77a7fb"/>
                <rect id="Rectangle_1242" data-name="Rectangle 1242" width="1.358" height="1.04" transform="translate(1.398 2.642) rotate(-78.659)" fill="#77a7fb"/>
              </g>
              <rect id="Rectangle_1243" data-name="Rectangle 1243" width="3.841" height="2.68" transform="translate(8.533 14.726) rotate(-78.661)" fill="#7d645a"/>
            </g>
          </g>
          <g id="Group_4196" data-name="Group 4196" transform="translate(0 7.663)">
            <g id="Group_4195" data-name="Group 4195">
              <rect id="Rectangle_1244" data-name="Rectangle 1244" width="12.481" height="9.74" transform="matrix(0.822, -0.569, 0.569, 0.822, 2.146, 8.676)" fill="#c2c2c2"/>
              <rect id="Rectangle_1245" data-name="Rectangle 1245" width="15.222" height="2.094" transform="matrix(0.822, -0.569, 0.569, 0.822, 6.596, 17.473)" fill="#5e5e5e"/>
              <path id="Path_20201" data-name="Path 20201" d="M3.758,85.079,0,95.24l14.591-10.1Z" transform="translate(0 -85.079)" fill="#4e667a"/>
              <g id="Group_4194" data-name="Group 4194" transform="translate(6.696 5.745)">
                <rect id="Rectangle_1246" data-name="Rectangle 1246" width="4.845" height="4.846" transform="matrix(0.822, -0.569, 0.569, 0.822, 0, 2.758)" fill="#7d645a"/>
                <rect id="Rectangle_1247" data-name="Rectangle 1247" width="4.097" height="1.388" transform="matrix(0.822, -0.569, 0.569, 0.822, 0.528, 2.863)" fill="#77a7fb"/>
                <rect id="Rectangle_1248" data-name="Rectangle 1248" width="1.919" height="2.504" transform="matrix(0.822, -0.569, 0.569, 0.822, 1.42, 4.152)" fill="#77a7fb"/>
                <rect id="Rectangle_1249" data-name="Rectangle 1249" width="1.919" height="2.504" transform="matrix(0.822, -0.569, 0.569, 0.822, 3.211, 2.912)" fill="#77a7fb"/>
              </g>
            </g>
          </g>
        </g>
      </g>
      <g id="Group_4201" data-name="Group 4201" transform="translate(12.811 5.558)">
        <g id="Group_4200" data-name="Group 4200">
          <rect id="Rectangle_1250" data-name="Rectangle 1250" width="26.915" height="21.004" transform="translate(5.464 16.25) rotate(-13.859)" fill="#c2c2c2"/>
          <rect id="Rectangle_1251" data-name="Rectangle 1251" width="32.826" height="4.516" transform="translate(7.687 37.392) rotate(-13.859)" fill="#424242"/>
          <path id="Path_20202" data-name="Path 20202" d="M32.293,32l-15.366,17.6,37.155-9.166Z" transform="translate(-16.926 -31.996)" fill="#e0895e"/>
          <g id="Group_4199" data-name="Group 4199" transform="translate(14.769 16.887)">
            <rect id="Rectangle_1252" data-name="Rectangle 1252" width="10.449" height="10.449" transform="matrix(0.971, -0.24, 0.24, 0.971, 0, 2.503)" fill="#7d645a"/>
            <rect id="Rectangle_1253" data-name="Rectangle 1253" width="8.835" height="2.993" transform="matrix(0.971, -0.24, 0.24, 0.971, 0.984, 3.12)" fill="#77a7fb"/>
            <rect id="Rectangle_1254" data-name="Rectangle 1254" width="4.139" height="5.4" transform="translate(1.793 6.401) rotate(-13.86)" fill="#77a7fb"/>
            <rect id="Rectangle_1255" data-name="Rectangle 1255" width="4.139" height="5.4" transform="matrix(0.971, -0.24, 0.24, 0.971, 6.353, 5.276)" fill="#77a7fb"/>
          </g>
        </g>
      </g>
      <g id="Group_4203" data-name="Group 4203" transform="translate(281.143 -26.922)">
        <g id="Group_4202" data-name="Group 4202">
          <path id="Path_20203" data-name="Path 20203" d="M288.431,29.331c-1.211-1.21-2.355-2.327-3.448-3.372l1.175-2.7c.419.448.806.84,1.065,1.109.191.2.452.253.581.123l1.15-1.149c.129-.129.072-.39-.124-.58-.393-.379-1.028-1.052-1.717-1.7l.812-1.865c.475.513.926.97,1.215,1.271.19.2.453.252.582.124l1.149-1.15c.128-.129.073-.391-.125-.581-.423-.407-1.125-1.154-1.876-1.842l2.449-5.627a.627.627,0,0,0-.141-.738l-1.8-1.8a.591.591,0,0,0-.88-.02l-9.345,11.8c-2.427-2.092-4.45-3.662-6.111-4.833l1.594-5.875a.443.443,0,0,0-.163-.411L273.29,8.342c-.173-.176-.4-.228-.473-.113l-3.64,5.176c-2.2-1.141-3.033-1.074-3.033-1.074a7.028,7.028,0,0,0,1.082,3.03l-5.193,3.652c-.114.079-.061.3.113.473l1.179,1.179a.444.444,0,0,0,.411.162l5.9-1.6c1.276,1.814,4.8,6.146,4.8,6.146l-11.9,9.421a.589.589,0,0,0,.02.88l1.8,1.8a.628.628,0,0,0,.738.141l5.628-2.449c.687.75,1.434,1.453,1.841,1.876.19.2.452.252.581.123l1.149-1.149c.129-.129.072-.391-.123-.581-.3-.289-.758-.739-1.272-1.216l1.866-.811c.645.689,1.317,1.322,1.7,1.716.19.2.451.253.581.124L278.2,34.1c.129-.129.072-.391-.124-.581-.269-.259-.661-.646-1.109-1.065l2.856-1.242c1.047,1.1,2.167,2.244,3.383,3.46,4.613,4.613,7.926,2.641,7.926,2.641S293.043,33.945,288.431,29.331Z" transform="translate(-261.973 -8.168)" fill="#bababa"/>
          <path id="Path_20204" data-name="Path 20204" d="M285.59,33.906a4.144,4.144,0,0,0,.995-.019,2.972,2.972,0,0,0,.94-.282l-.1.1a3.007,3.007,0,0,0,.269-.945,4.252,4.252,0,0,0,.012-.994l.848.283a4.74,4.74,0,0,1-.009,1.1,3.411,3.411,0,0,1-.329,1.134l-.034.069-.067.034a3.373,3.373,0,0,1-1.135.347,4.578,4.578,0,0,1-1.1.017Z" transform="translate(-259.343 -5.54)" fill="#5b86c2"/>
        </g>
      </g>
      <g id="Group_4204" data-name="Group 4204" transform="translate(180.813 58.915)">
        <path id="Path_20205" data-name="Path 20205" d="M194.767,57.181s-5.867-4.169-15.878-4.169-15.877,4.169-15.877,4.169-3.921,22.38,15.877,32C198.688,79.561,194.767,57.181,194.767,57.181Z" transform="translate(-162.697 -53.012)" fill="#6a90d9"/>
        <path id="Path_20206" data-name="Path 20206" d="M193.265,58.252s-5.364-3.737-14.515-3.737-14.514,3.737-14.514,3.737-3.584,20.46,14.514,29.253C196.848,78.712,193.265,58.252,193.265,58.252Z" transform="translate(-162.558 -52.845)" fill="#fff"/>
        <path id="Path_20207" data-name="Path 20207" d="M191.972,59.189s-4.93-3.507-13.341-3.507-13.343,3.507-13.343,3.507S161.995,78,178.631,86.078C195.266,78,191.972,59.189,191.972,59.189Z" transform="translate(-162.438 -52.715)" fill="#5675b0"/>
        <path id="Path_20208" data-name="Path 20208" d="M177.287,73.579a1.3,1.3,0,0,1-.922-.382l-5.014-5.014a1.3,1.3,0,0,1,1.844-1.843l4.093,4.092,6.573-6.573A1.3,1.3,0,0,1,185.7,65.7L178.208,73.2A1.3,1.3,0,0,1,177.287,73.579Z" transform="translate(-161.776 -51.847)" fill="#fff"/>
      </g>
      <g id="Group_4208" data-name="Group 4208" transform="translate(340.537 196.948)">
        <g id="Group_4205" data-name="Group 4205">
          <path id="Path_20209" data-name="Path 20209" d="M355,178.534c-3.934,5.03-9.618,7.06-13.778,8.333-1.008-6.849-5.612-13.513,1.167-24.048-12.307,3.579-18.6,12.165-22.748,20.81-2.572-3.809-5.34-4.761-5.956-10.253-5.3,9.812-7.163,28.093,10.721,34.247C345.672,214.941,355.889,193.187,355,178.534Z" transform="translate(-310.017 -162.818)" fill="#eb5c50"/>
          <path id="Path_20210" data-name="Path 20210" d="M352.2,183.648c-4.536,5.257-11.454,5.2-14.462,6.125-.729-4.95-7.152-11.636-3.85-19.95-8.069,3.743-9.9,13.068-12.9,19.317-1.647-1.516-6.83-5.436-7.588-8.521-3.335,6.172-2.524,20.1,11.089,24.783C343.545,211.962,352.787,193.4,352.2,183.648Z" transform="translate(-309.825 -162.038)" fill="#dc9061"/>
          <path id="Path_20211" data-name="Path 20211" d="M347.209,189.925c-1.993,2.546-11.227,2.665-13.332,3.31-.511-3.467-6.647-9.8-4.581-15.514-4.858,3.924-5.893,9.428-8,13.8-1.154-1.061-6.07-3.361-6.994-6.2-2.372,4.389-.361,14.291,10.606,18.065C338.508,208.066,346.246,197.355,347.209,189.925Z" transform="translate(-309.639 -161.159)" fill="#ebb052"/>
        </g>
        <g id="Group_4206" data-name="Group 4206" transform="translate(30.32 3.813)">
          <path id="Path_20212" data-name="Path 20212" d="M345.621,166.249c-1.69,4.578-7.645,8.222-8.117,8.6-1.016,1.618,2.12,8.659,1.6,9.682,3.117-.226,7.3-3.391,7.3-3.391S348.569,173.169,345.621,166.249Z" transform="translate(-337.299 -166.249)" fill="#eb5c50"/>
          <path id="Path_20213" data-name="Path 20213" d="M345.634,168.812c-1.295,3.505-6.511,6.459-6.873,6.745-.779,1.239,1.624,6.631,1.222,7.416,2.387-.174,5.59-2.6,5.59-2.6S347.893,174.11,345.634,168.812Z" transform="translate(-337.154 -165.964)" fill="#dc9061"/>
          <path id="Path_20214" data-name="Path 20214" d="M344.615,172.8c-.811,2.195-4.563,4.183-4.79,4.361-.488.777,1.017,4.154.766,4.644a7.563,7.563,0,0,0,3.226-1.43S346.03,176.118,344.615,172.8Z" transform="translate(-337.029 -165.52)" fill="#ebb052"/>
        </g>
        <g id="Group_4207" data-name="Group 4207" transform="translate(5.974 2.215)">
          <path id="Path_20215" data-name="Path 20215" d="M323.516,164.811a20.183,20.183,0,0,0-.139,9.538s-3.6,3.863-4.908,7.072c-.59-1.491-2.793-2.816-3.076-4.46C315.76,173.118,320.582,166.894,323.516,164.811Z" transform="translate(-315.393 -164.811)" fill="#eb5c50"/>
          <path id="Path_20216" data-name="Path 20216" d="M321.757,167.075a15.035,15.035,0,0,0,.152,7.581,22.83,22.83,0,0,0-3.722,5.363c-.446-1.131-1.814-1.771-2.028-3.018C316.437,174.088,319.533,168.654,321.757,167.075Z" transform="translate(-315.308 -164.559)" fill="#dc9061"/>
          <path id="Path_20217" data-name="Path 20217" d="M319.96,170.773a8.49,8.49,0,0,0,.173,4.51,13.53,13.53,0,0,0-2.2,3.171c-.263-.669-.836-.718-.962-1.455C317.136,175.276,318.644,171.707,319.96,170.773Z" transform="translate(-315.217 -164.147)" fill="#ebb052"/>
        </g>
      </g>
    </g>
  </g>
</svg>
