<svg xmlns="http://www.w3.org/2000/svg" xmlns:xlink="http://www.w3.org/1999/xlink" width="53.117" height="62.999" viewBox="0 0 53.117 62.999">
  <defs>
    <linearGradient id="linear-gradient" x1="0.5" x2="0.5" y2="1" gradientUnits="objectBoundingBox">
      <stop offset="0.13" stop-color="#00a9ed"/>
      <stop offset="1" stop-color="#65106b"/>
    </linearGradient>
  </defs>
  <path id="Union_11" data-name="Union 11" d="M21051.178,13768h-19.3a.94.94,0,0,1-.941-.988v-3.331h-14.947a1.021,1.021,0,0,1-.988-1.021v-8.936a9.216,9.216,0,0,1,9.215-9.2h2.84a9.3,9.3,0,0,1,8.48,5.558,9.171,9.171,0,0,1,4.568-1.232h2.861a9.16,9.16,0,0,1,4.578,1.242,9.365,9.365,0,0,1,8.518-5.567h2.852a9.23,9.23,0,0,1,9.205,9.222v8.909a1.023,1.023,0,0,1-.994,1.021h-14.943v3.331a1,1,0,0,1-.994.988Zm-18.268-9.919v7.941h17.295v-7.915a7.271,7.271,0,0,0-7.238-7.275h-2.861A7.225,7.225,0,0,0,21032.91,13758.079Zm16.279-6.768c.1.09.2.18.3.274a9.164,9.164,0,0,1,2.7,6.52v3.6h13.959v-7.952a7.247,7.247,0,0,0-7.227-7.244h-2.852A7.387,7.387,0,0,0,21049.189,13751.312Zm-32.211,2.411v7.979h13.959v-3.622a9.127,9.127,0,0,1,2.973-6.778,7.354,7.354,0,0,0-6.859-4.8h-2.834A7.231,7.231,0,0,0,21016.979,13753.723Zm24.545-6.229a6.608,6.608,0,1,1,.01,0Zm-4.627-6.609a4.63,4.63,0,0,0,4.627,4.632h.01a4.632,4.632,0,0,0,0-9.264h0A4.63,4.63,0,0,0,21036.9,13740.885Zm-11.252,2.284h0a6.607,6.607,0,0,1-.006-13.214h.006a6.562,6.562,0,0,1,6.529,6.609v.021a6.519,6.519,0,0,1-6.506,6.583Zm-4.637-6.609a4.638,4.638,0,0,0,4.633,4.637h0a4.634,4.634,0,1,0-4.637-4.637Zm36.4,6.609a6.537,6.537,0,1,1,.09,0Zm-4.627-6.609a4.637,4.637,0,0,0,4.627,4.637h.078a4.53,4.53,0,0,0,3.215-1.374,4.656,4.656,0,0,0-3.283-7.895h0A4.63,4.63,0,0,0,21052.785,13736.56Zm-1.115-7.814a4.711,4.711,0,0,0-1.322-3.258,4.606,4.606,0,0,0-3.24-1.306,4.487,4.487,0,0,0-4.559,4.563.988.988,0,0,1-1.977,0,4.717,4.717,0,0,0-1.328-3.258,4.618,4.618,0,0,0-3.236-1.306,4.5,4.5,0,0,0-4.562,4.563.988.988,0,0,1-1.977,0,4.711,4.711,0,0,0-1.322-3.258,4.607,4.607,0,0,0-3.236-1.306,4.737,4.737,0,0,0-3.252,1.312,8.911,8.911,0,0,0-1.348,2.945.987.987,0,0,1-1.941-.249,23.19,23.19,0,1,1,46.381,0h0a.987.987,0,0,1-1.941.249,8.726,8.726,0,0,0-1.359-2.951,4.6,4.6,0,0,0-3.234-1.306,4.49,4.49,0,0,0-4.564,4.563.988.988,0,0,1-1.977,0Zm.084-4.648a.074.074,0,0,0,.021.021,7.1,7.1,0,0,1,.883,1.147,7.217,7.217,0,0,1,.883-1.147.345.345,0,0,0,.043-.042,6.649,6.649,0,0,1,8.688-.486,21.22,21.22,0,0,0-41.434.016,6.633,6.633,0,0,1,8.715.491l.021.021a7.217,7.217,0,0,1,.883,1.147,7.454,7.454,0,0,1,.883-1.147.363.363,0,0,0,.047-.042,6.655,6.655,0,0,1,9.27.021l.016.021a7.49,7.49,0,0,1,.889,1.147,7.1,7.1,0,0,1,.883-1.147c.01-.011.025-.026.043-.042a6.652,6.652,0,0,1,9.268.021Z" transform="translate(-21015.002 -13704.999)" fill="url(#linear-gradient)"/>
</svg>
