<svg xmlns="http://www.w3.org/2000/svg" width="33.827" height="40.332" viewBox="0 0 33.827 40.332">
  <g id="curriculum" transform="translate(0.001 0)">
    <path id="Path_16356" data-name="Path 16356" d="M29.923,8.188V2.6H20.75a3.253,3.253,0,0,0-6.374,0H0V36.429H3.9v3.9H33.826V12.091Zm-1.3.539L31.6,11.71H28.622Zm0-1.84-.381-.381H20.816V3.9h7.806ZM1.3,35.128V3.9h13.01v2.6H3.9V35.128Zm3.9,3.9V7.807h9.107V9.758a1.952,1.952,0,1,0,3.9,0V3.9h-1.3V9.758a.651.651,0,1,1-1.3,0V3.253a1.952,1.952,0,1,1,3.9,0V11.71h1.3v-3.9h6.505v5.2h5.2v26.02Zm0,0" fill="#fff"/>
    <path id="Path_16357" data-name="Path 16357" d="M121.758,179.515A9.758,9.758,0,1,0,112,169.758,9.769,9.769,0,0,0,121.758,179.515Zm0-1.3a8.428,8.428,0,0,1-6.088-2.6h12.176A8.428,8.428,0,0,1,121.758,178.214Zm-.974-9.38a1.931,1.931,0,0,1-.978-1.679v-1.3a1.957,1.957,0,0,1,.634-1.439,1.935,1.935,0,0,1,1.495-.5,2.039,2.039,0,0,1,1.775,2.079v1.166a1.931,1.931,0,0,1-.978,1.679l-.323.188V170.9l3.138.9a1.962,1.962,0,0,1,1.415,1.878v.639H116.554v-.639a1.961,1.961,0,0,1,1.415-1.877l3.138-.9v-1.876Zm.974-7.534a8.451,8.451,0,0,1,6.505,13.853v-1.481a3.269,3.269,0,0,0-2.359-3.128l-2.195-.626v-.174a3.256,3.256,0,0,0,1.3-2.588V165.99a3.346,3.346,0,0,0-2.964-3.375,3.253,3.253,0,0,0-3.541,3.24v1.3a3.256,3.256,0,0,0,1.3,2.588v.174l-2.195.627a3.267,3.267,0,0,0-2.359,3.128v1.481a8.451,8.451,0,0,1,6.505-13.853Zm0,0" transform="translate(-102.894 -146.989)" fill="#fff"/>
    <path id="Path_16358" data-name="Path 16358" d="M80,416h24.719v1.3H80Zm0,0" transform="translate(-73.496 -382.173)" fill="#fff"/>
    <path id="Path_16359" data-name="Path 16359" d="M80,448h22.117v1.3H80Zm0,0" transform="translate(-73.496 -411.571)" fill="#fff"/>
    <path id="Path_16360" data-name="Path 16360" d="M368,448h1.3v1.3H368Zm0,0" transform="translate(-338.077 -411.571)" fill="#fff"/>
  </g>
</svg>
