<svg xmlns="http://www.w3.org/2000/svg" width="57.238" height="50.664" viewBox="0 0 57.238 50.664">
  <g id="customer-review" transform="translate(0 -12)">
    <path id="Path_15967" data-name="Path 15967" d="M211,246.031A5.031,5.031,0,1,0,216.031,241,5.036,5.036,0,0,0,211,246.031Zm0,0" transform="translate(-187.412 -208.632)" fill="#6a8dac"/>
    <path id="Path_15968" data-name="Path 15968" d="M176.061,361A10.072,10.072,0,0,0,166,371.061v6.819h20.123v-6.819A10.072,10.072,0,0,0,176.061,361Zm0,0" transform="translate(-147.442 -315.217)" fill="#6a8dac"/>
    <path id="Path_15969" data-name="Path 15969" d="M56.061,276.031a5.031,5.031,0,1,0-5.031,5.031A5.036,5.036,0,0,0,56.061,276.031Zm0,0" transform="translate(-40.858 -235.278)" fill="#6a8dac"/>
    <path id="Path_15970" data-name="Path 15970" d="M386.061,276.031a5.031,5.031,0,1,0-5.031,5.031A5.036,5.036,0,0,0,386.061,276.031Zm0,0" transform="translate(-333.966 -235.278)" fill="#6a8dac"/>
    <path id="Path_15971" data-name="Path 15971" d="M8.5,0,5.945,6.015,0,6.853l4.288,4.073L3.3,16.881,8.5,14.166l5.194,2.715L12.7,10.926l4.176-4.073L11.11,6.015Zm0,0" transform="translate(0 12)" fill="#6a8dac"/>
    <path id="Path_15972" data-name="Path 15972" d="M192,6.015,189.385,0l-2.551,6.015L181,6.853l4.176,4.073-.986,5.955,5.194-2.715,5.194,2.715-.986-5.955,4.176-4.073Zm0,0" transform="translate(-160.766 12)" fill="#6a8dac"/>
    <path id="Path_15973" data-name="Path 15973" d="M369.384,0l-2.551,6.015L361,6.853l4.176,4.073-.986,5.955,5.194-2.715,5.194,2.715-.986-5.955,4.288-4.073L372,6.015Zm0,0" transform="translate(-320.643 12)" fill="#6a8dac"/>
    <path id="Path_15974" data-name="Path 15974" d="M373.838,391a9.977,9.977,0,0,0-5.936,1.974,13.281,13.281,0,0,1,.905,4.733v6.819h15.2v-3.466A10.157,10.157,0,0,0,373.838,391Zm0,0" transform="translate(-326.774 -341.863)" fill="#6a8dac"/>
    <path id="Path_15975" data-name="Path 15975" d="M0,401.061v3.466H15.2v-6.819a13.281,13.281,0,0,1,.905-4.733A9.977,9.977,0,0,0,10.173,391,10.157,10.157,0,0,0,0,401.061Zm0,0" transform="translate(0 -341.863)" fill="#6a8dac"/>
  </g>
</svg>
