<svg xmlns="http://www.w3.org/2000/svg" xmlns:xlink="http://www.w3.org/1999/xlink" width="63.008" height="62.955" viewBox="0 0 63.008 62.955">
  <defs>
    <linearGradient id="linear-gradient" x1="0.5" x2="0.5" y2="1" gradientUnits="objectBoundingBox">
      <stop offset="0.13" stop-color="#00a9ed"/>
      <stop offset="1" stop-color="#65106b"/>
    </linearGradient>
  </defs>
  <path id="Union_15" data-name="Union 15" d="M21042.3,13767.955a4.2,4.2,0,1,1,0-8.4h8.4a4.207,4.207,0,0,1,4.041,3.105,13.656,13.656,0,0,0,12.76-13.605v-3.344a3.142,3.142,0,0,1-2.1-2.957v-12.6a3.14,3.14,0,0,1,2.053-2.94,20.974,20.974,0,0,0-41.916,0,3.144,3.144,0,0,1,2.057,2.94v12.6a3.149,3.149,0,0,1-3.152,3.147h-4.2a5.246,5.246,0,0,1-5.246-5.247v-8.4a5.253,5.253,0,0,1,5.246-5.253h3.18a23.1,23.1,0,0,1,46.154,0h3.174a5.263,5.263,0,0,1,5.254,5.253l-.006,8.4a5.247,5.247,0,0,1-5.248,5.247h-3.152v3.153a15.749,15.749,0,0,1-14.832,15.705,4.2,4.2,0,0,1-4.068,3.2Zm-2.1-4.2a2.1,2.1,0,0,0,2.1,2.1h8.4a2.1,2.1,0,0,0,0-4.2h-8.4A2.1,2.1,0,0,0,21040.2,13763.755Zm31.506-19.953h1.047a3.146,3.146,0,0,0,3.148-3.147v-8.4a3.151,3.151,0,0,0-3.148-3.153h-1.047Zm-4.205-13.648v12.6a1.051,1.051,0,0,0,1.053,1.048h1.047v-14.7h-1.047A1.053,1.053,0,0,0,21067.5,13730.153Zm-44.1,13.648h1.047a1.051,1.051,0,0,0,1.053-1.048v-12.6a1.053,1.053,0,0,0-1.053-1.053h-1.047Zm-6.3-11.548v8.4a3.144,3.144,0,0,0,3.146,3.147h1.053v-14.7h-1.053A3.149,3.149,0,0,0,21017.1,13732.254Zm14.7,4.194a14.7,14.7,0,1,1,14.7,14.706A14.7,14.7,0,0,1,21031.8,13736.448Zm2.1,0a12.6,12.6,0,1,0,12.6-12.6A12.619,12.619,0,0,0,21033.9,13736.448Zm6.66.545,1.48-1.48,3.459,3.454,6.607-6.607,1.486,1.486-8.094,8.094Z" transform="translate(-21015.002 -13705)" fill="url(#linear-gradient)"/>
</svg>
