<svg xmlns="http://www.w3.org/2000/svg" width="88.949" height="88.733" viewBox="0 0 88.949 88.733">
  <g id="employee-group" transform="translate(0 -0.545)">
    <g id="Group_1588" data-name="Group 1588" transform="translate(0 0.545)">
      <g id="Group_1587" data-name="Group 1587" transform="translate(0)">
        <circle id="Ellipse_111" data-name="Ellipse 111" cx="7.756" cy="7.756" r="7.756" transform="translate(36.718)" fill="#26cbba"/>
        <path id="Path_16336" data-name="Path 16336" d="M173.19,88.32l-.11,0h-5.791a10.755,10.755,0,0,0-10.551,10.956c0,.037,0,.073,0,.11v1.655c0,.827.31,1.758,1.241,1.758h24.407c.931,0,1.241-.931,1.241-1.758V99.383A10.756,10.756,0,0,0,173.19,88.32Z" transform="translate(-125.71 -70.943)" fill="#26cbba"/>
        <path id="Path_16337" data-name="Path 16337" d="M48.6,141.979a1.551,1.551,0,0,0,1.551-1.551,31.957,31.957,0,0,1,12-25.027,1.448,1.448,0,0,0,.207-2.172,1.551,1.551,0,0,0-2.172-.207,35.163,35.163,0,0,0-13.134,27.406A1.551,1.551,0,0,0,48.6,141.979Z" transform="translate(-37.732 -90.476)" fill="#26cbba"/>
        <path id="Path_16338" data-name="Path 16338" d="M185.677,406.181h0a32.681,32.681,0,0,1-20.373,0,1.551,1.551,0,0,0-1.954,1l-.011.036a1.655,1.655,0,0,0,1.034,1.965,35.891,35.891,0,0,0,11.066,1.758,34.852,34.852,0,0,0,11.273-1.862,1.551,1.551,0,0,0-1.034-2.9Z" transform="translate(-130.964 -325.824)" fill="#26cbba"/>
        <path id="Path_16339" data-name="Path 16339" d="M315.383,109.254l.02.014a32.163,32.163,0,0,1,13.548,26.165,1.551,1.551,0,1,0,3.1,0,35.369,35.369,0,0,0-14.892-28.75,1.655,1.655,0,0,0-2.172.414A1.551,1.551,0,0,0,315.383,109.254Z" transform="translate(-252.416 -85.481)" fill="#26cbba"/>
        <circle id="Ellipse_112" data-name="Ellipse 112" cx="7.756" cy="7.756" r="7.756" transform="translate(5.692 56.88)" fill="#26cbba"/>
        <path id="Path_16340" data-name="Path 16340" d="M16.455,375.667l-.11,0H10.553A10.755,10.755,0,0,0,0,386.62c0,.037,0,.073,0,.11v1.655c0,.827.31,1.758,1.241,1.758H25.652c.931,0,1.241-.931,1.241-1.758V386.73A10.755,10.755,0,0,0,16.455,375.667Z" transform="translate(0 -301.409)" fill="#26cbba"/>
        <circle id="Ellipse_113" data-name="Ellipse 113" cx="7.756" cy="7.756" r="7.756" transform="translate(67.744 56.88)" fill="#26cbba"/>
        <path id="Path_16341" data-name="Path 16341" d="M329.924,375.667l-.11,0h-5.791a10.756,10.756,0,0,0-10.551,10.956c0,.037,0,.073,0,.11v1.655c0,.827.31,1.758,1.241,1.758h24.407c.931,0,1.241-.931,1.241-1.758V386.73A10.755,10.755,0,0,0,329.924,375.667Z" transform="translate(-251.418 -301.409)" fill="#26cbba"/>
      </g>
    </g>
  </g>
</svg>
