<svg xmlns="http://www.w3.org/2000/svg" width="90" height="93.683" viewBox="0 0 90 93.683">
  <g id="employe-group1" transform="translate(-5.839)">
    <path id="Path_16342" data-name="Path 16342" d="M44.155,19.517a2.361,2.361,0,0,0,3.308-.444,36.415,36.415,0,0,1,57.94,0,2.36,2.36,0,1,0,3.752-2.864,41.135,41.135,0,0,0-65.445,0A2.361,2.361,0,0,0,44.155,19.517Z" transform="translate(-25.595)" fill="#26cbba"/>
    <path id="Path_16343" data-name="Path 16343" d="M228.037,85.788a7.371,7.371,0,1,0,7.371-7.371A7.38,7.38,0,0,0,228.037,85.788Z" transform="translate(-152.11 -53.682)" fill="#26cbba"/>
    <path id="Path_16344" data-name="Path 16344" d="M231.735,131.451l-1.874-.576a2.206,2.206,0,0,0-1.966.343l-3.7,2.773-3.7-2.773a2.2,2.2,0,0,0-1.966-.343l-1.874.576a7.3,7.3,0,0,0-5,6.932v11.144a2.2,2.2,0,0,0,.362,1.209l3.737,5.688V171.36a2.2,2.2,0,0,0,2.2,2.2h12.476a2.2,2.2,0,0,0,2.2-2.2V156.424l3.737-5.688a2.2,2.2,0,0,0,.362-1.209V138.383a7.3,7.3,0,0,0-5-6.932Z" transform="translate(-140.892 -89.527)" fill="#26cbba"/>
    <path id="Path_16345" data-name="Path 16345" d="M29.6,93.16a7.371,7.371,0,1,0-7.372-7.371A7.38,7.38,0,0,0,29.6,93.16Z" transform="translate(-11.217 -53.682)" fill="#26cbba"/>
    <path id="Path_16346" data-name="Path 16346" d="M25.923,131.451l-1.874-.576a2.206,2.206,0,0,0-1.966.343l-3.7,2.773-3.7-2.773a2.2,2.2,0,0,0-1.966-.343l-1.874.576a7.3,7.3,0,0,0-5,6.932v11.144a2.2,2.2,0,0,0,.362,1.209l3.737,5.688V171.36a2.2,2.2,0,0,0,2.2,2.2H24.617a2.2,2.2,0,0,0,2.2-2.2V156.424l3.737-5.688a2.2,2.2,0,0,0,.362-1.209V138.383A7.3,7.3,0,0,0,25.923,131.451Z" transform="translate(0 -89.527)" fill="#26cbba"/>
    <path id="Path_16347" data-name="Path 16347" d="M137.373,48.217a9.508,9.508,0,1,0-9.508,9.508A9.519,9.519,0,0,0,137.373,48.217Z" transform="translate(-77.027 -26.499)" fill="#26cbba"/>
    <path id="Path_16348" data-name="Path 16348" d="M123.771,111.7l-.016-.005-2.714-.833a.843.843,0,0,0-1.039.517L114.3,127.037a1.03,1.03,0,0,1-1.936,0l-5.706-15.656a.843.843,0,0,0-.791-.555c-.082,0-2.959.869-2.959.869a8.424,8.424,0,0,0-5.782,8V136.26a.844.844,0,0,0,.138.463l5.954,9.06v22.926a.843.843,0,0,0,.843.843H122.6a.843.843,0,0,0,.843-.843V145.783l5.954-9.06a.844.844,0,0,0,.138-.463V119.654A8.369,8.369,0,0,0,123.771,111.7Z" transform="translate(-62.489 -75.868)" fill="#26cbba"/>
    <path id="Path_16349" data-name="Path 16349" d="M145.2,111.718a1.256,1.256,0,0,0-.929-.386h-2.6a1.257,1.257,0,0,0-.929.386,1.206,1.206,0,0,0-.159,1.421l1.39,2.1-.651,5.49,1.282,3.409a.391.391,0,0,0,.735,0l1.282-3.409-.651-5.49,1.39-2.1a1.206,1.206,0,0,0-.159-1.421Z" transform="translate(-92.127 -76.214)" fill="#26cbba"/>
  </g>
</svg>
