<?xml version="1.0" encoding="utf-8"?>
<!-- Generator: Adobe Illustrator 14.0.0, SVG Export Plug-In . SVG Version: 6.00 Build 43363)  -->
<!DOCTYPE svg PUBLIC "-//W3C//DTD SVG 1.1//EN" "http://www.w3.org/Graphics/SVG/1.1/DTD/svg11.dtd">
<svg version="1.1" id="Layer_1" xmlns="http://www.w3.org/2000/svg" xmlns:xlink="http://www.w3.org/1999/xlink" x="0px" y="0px"
	 width="25.387px" height="19.32px" viewBox="0 0 25.387 19.32" enable-background="new 0 0 25.387 19.32" xml:space="preserve">
<g id="envelope" transform="translate(0 -57.75)">
	<g id="Group_1596" transform="translate(0 57.75)">
		<path id="Path_16379" fill="#801C7D" d="M22.288,0H3.1C1.39,0.004,0.004,1.389,0,3.1v13.114c0.004,1.711,1.39,3.098,3.1,3.102
			h19.185c1.71-0.004,3.096-1.391,3.1-3.102V3.11c0.006-1.712-1.378-3.104-3.09-3.11C22.291,0,22.289,0,22.288,0z M23.974,16.216
			c-0.001,0.932-0.755,1.687-1.686,1.688H3.1c-0.931-0.001-1.685-0.756-1.686-1.688V3.11C1.415,2.179,2.169,1.426,3.1,1.424h19.185
			c0.931,0.002,1.685,0.757,1.686,1.688v13.104H23.974z"/>
		<path id="Path_16380" fill="#801C7D" d="M16.011,9.498L22.22,3.93c0.292-0.264,0.315-0.713,0.053-1.005
			c-0.262-0.292-0.712-0.314-1.004-0.053l0,0l-8.562,7.687l-1.67-1.492c-0.005-0.005-0.012-0.011-0.012-0.018
			c-0.035-0.035-0.073-0.068-0.114-0.1L4.111,2.868c-0.284-0.269-0.734-0.255-1.005,0.03C2.837,3.184,2.851,3.635,3.137,3.904
			c0.009,0.008,0.019,0.017,0.028,0.025l6.283,5.613L3.191,15.4c-0.281,0.269-0.297,0.714-0.03,1
			c0.135,0.143,0.322,0.225,0.52,0.226c0.179,0,0.353-0.066,0.483-0.188l6.351-5.941l1.723,1.539
			c0.271,0.241,0.68,0.238,0.946-0.005l1.771-1.586l6.313,6c0.284,0.267,0.73,0.255,1-0.026c0.268-0.284,0.255-0.729-0.024-1
			L16.011,9.498z"/>
	</g>
</g>
</svg>
