<svg xmlns="http://www.w3.org/2000/svg" width="25.387" height="19.32" viewBox="0 0 25.387 19.32">
  <g id="envelope" transform="translate(0 -57.75)">
    <g id="Group_1596" data-name="Group 1596" transform="translate(0 57.75)">
      <path id="Path_16379" data-name="Path 16379" d="M22.288,57.75H3.1a3.107,3.107,0,0,0-3.1,3.1V73.966a3.107,3.107,0,0,0,3.1,3.1H22.283a3.107,3.107,0,0,0,3.1-3.1V60.86A3.1,3.1,0,0,0,22.288,57.75Zm1.686,16.216a1.688,1.688,0,0,1-1.686,1.686H3.1a1.688,1.688,0,0,1-1.686-1.686V60.86A1.688,1.688,0,0,1,3.1,59.174H22.283a1.688,1.688,0,0,1,1.686,1.686V73.966Z" transform="translate(0 -57.75)" fill="#fff"/>
      <path id="Path_16380" data-name="Path 16380" d="M68.835,115.713l6.209-5.568a.71.71,0,1,0-.951-1.056l-8.562,7.685-1.67-1.492c-.005-.005-.01-.011-.01-.016a1.05,1.05,0,0,0-.116-.1l-6.8-6.083a.711.711,0,1,0-.946,1.061l6.283,5.615-6.256,5.857a.712.712,0,0,0-.032,1,.726.726,0,0,0,.52.226.711.711,0,0,0,.483-.189l6.351-5.941,1.723,1.539a.707.707,0,0,0,.946-.005l1.77-1.586,6.314,6a.711.711,0,0,0,1-.026.712.712,0,0,0-.026-1Z" transform="translate(-52.824 -106.215)" fill="#fff"/>
    </g>
  </g>
</svg>
