<?xml version="1.0" encoding="utf-8"?>
<!-- Generator: Adobe Illustrator 16.0.0, SVG Export Plug-In . SVG Version: 6.00 Build 0)  -->
<!DOCTYPE svg PUBLIC "-//W3C//DTD SVG 1.1//EN" "http://www.w3.org/Graphics/SVG/1.1/DTD/svg11.dtd">
<svg version="1.1" id="Layer_1" xmlns="http://www.w3.org/2000/svg" xmlns:xlink="http://www.w3.org/1999/xlink" x="0px" y="0px"
	 width="58.504px" height="78.961px" viewBox="0 0 58.504 78.961" enable-background="new 0 0 58.504 78.961" xml:space="preserve">
<g id="account" transform="translate(0 0.001)">
	
		<linearGradient id="Path_17427_1_" gradientUnits="userSpaceOnUse" x1="-250.3003" y1="400.0073" x2="-250.3003" y2="398.8178" gradientTransform="matrix(10.676 0 0 -10.676 2687.9758 4273.541)">
		<stop  offset="0.13" style="stop-color:#00A9ED"/>
		<stop  offset="1" style="stop-color:#65106B"/>
	</linearGradient>
	<path id="Path_17427" fill="url(#Path_17427_1_)" d="M15.778,15.763c3.506,0,6.347-2.841,6.347-6.347s-2.841-6.347-6.347-6.347
		S9.431,5.91,9.431,9.415S12.272,15.763,15.778,15.763L15.778,15.763z M15.778,5.997c1.888-0.003,3.421,1.524,3.424,3.413
		s-1.524,3.421-3.413,3.424s-3.421-1.524-3.424-3.413c0-0.001,0-0.003,0-0.006C12.365,7.53,13.892,6,15.778,5.997z"/>
	
		<linearGradient id="Path_17429_1_" gradientUnits="userSpaceOnUse" x1="-249.7778" y1="400.0073" x2="-249.7778" y2="398.8178" gradientTransform="matrix(10.676 0 0 -10.676 2717.373 4273.541)">
		<stop  offset="0.13" style="stop-color:#00A9ED"/>
		<stop  offset="1" style="stop-color:#65106B"/>
	</linearGradient>
	<path id="Path_17429" fill="url(#Path_17429_1_)" d="M50.741,15.763c3.506,0,6.347-2.841,6.347-6.347s-2.841-6.347-6.347-6.347
		c-3.505,0-6.347,2.841-6.347,6.347S47.236,15.763,50.741,15.763L50.741,15.763z M50.741,5.997c1.888,0,3.419,1.53,3.419,3.418
		s-1.531,3.418-3.419,3.418s-3.419-1.53-3.419-3.418S48.854,5.997,50.741,5.997z"/>
	
		<linearGradient id="Path_17431_1_" gradientUnits="userSpaceOnUse" x1="-250.0122" y1="399.7993" x2="-250.0122" y2="398.6108" gradientTransform="matrix(10.676 0 0 -10.676 2704.1777 4285.2373)">
		<stop  offset="0.13" style="stop-color:#00A9ED"/>
		<stop  offset="1" style="stop-color:#65106B"/>
	</linearGradient>
	<path id="Path_17431" fill="url(#Path_17431_1_)" d="M35.046,16.978c-3.504,0-6.346,2.841-6.346,6.347
		c0,3.505,2.842,6.347,6.346,6.347c3.506,0,6.348-2.842,6.348-6.347C41.394,19.819,38.552,16.978,35.046,16.978L35.046,16.978z
		 M35.046,26.743c-1.888,0-3.418-1.531-3.418-3.418c0-1.888,1.53-3.419,3.418-3.419c1.889,0,3.419,1.531,3.419,3.419
		C38.465,25.212,36.935,26.743,35.046,26.743L35.046,26.743z"/>
	
		<linearGradient id="Path_17432_1_" gradientUnits="userSpaceOnUse" x1="-249.7778" y1="399.5571" x2="-249.7778" y2="398.3686" gradientTransform="matrix(10.676 0 0 -10.676 2717.373 4298.937)">
		<stop  offset="0.13" style="stop-color:#00A9ED"/>
		<stop  offset="1" style="stop-color:#65106B"/>
	</linearGradient>
	<path id="Path_17432" fill="url(#Path_17432_1_)" d="M50.741,33.265c-3.505,0-6.347,2.841-6.347,6.347
		c0,3.505,2.842,6.348,6.347,6.348c3.506,0,6.347-2.843,6.347-6.348C57.088,36.106,54.247,33.265,50.741,33.265L50.741,33.265z
		 M50.741,43.031c-1.888,0-3.419-1.53-3.419-3.419c0-1.888,1.531-3.419,3.419-3.419s3.419,1.531,3.419,3.419
		C54.16,41.5,52.629,43.031,50.741,43.031L50.741,43.031z"/>
	
		<linearGradient id="Path_17433_1_" gradientUnits="userSpaceOnUse" x1="-266.937" y1="428.2768" x2="-266.937" y2="427.0874" gradientTransform="matrix(30.9066 0 0 -50.1661 8270.0527 21502.9805)">
		<stop  offset="0.13" style="stop-color:#00A9ED"/>
		<stop  offset="1" style="stop-color:#65106B"/>
	</linearGradient>
	<path id="Path_17433" fill="url(#Path_17433_1_)" d="M36.32,62.543l0.556-0.769c0.947-1.145,1.464-2.582,1.462-4.066
		c0-0.809-0.655-1.466-1.464-1.466s-1.463,0.657-1.463,1.466c-0.003,0.866-0.323,1.702-0.903,2.348l-0.559,0.769
		c-0.651,0.895-1.002,1.975-1,3.082v3.925H14.667v-3.126c0.005-1.688-0.667-3.307-1.863-4.498l-2.677-2.676
		c-1.01-1.003-1.576-2.371-1.572-3.795v-1.493c0.002-2.715-0.529-5.401-1.563-7.91l-2.408-5.859
		c-0.189-0.458,0.029-0.983,0.487-1.173c0.19-0.078,0.403-0.089,0.601-0.029c1.248,0.372,2.295,1.228,2.907,2.378l0.533,0.992
		c0.773,1.438,1.319,2.984,1.62,4.59l0.268,1.428c0.148,0.794,0.913,1.317,1.708,1.168c0.693-0.128,1.195-0.733,1.194-1.438V22.542
		c0-0.396,0.148-0.778,0.417-1.07l0.019-0.022c0.59-0.642,1.59-0.685,2.232-0.095c0.327,0.3,0.512,0.723,0.512,1.166v18.858
		c0.023,0.811,0.698,1.447,1.506,1.424c0.777-0.021,1.401-0.646,1.423-1.424v-8.89c-0.001-0.377,0.168-0.735,0.461-0.973
		c0.711-0.582,1.76-0.478,2.343,0.233c0.244,0.298,0.377,0.672,0.376,1.058v9.422c0,0.808,0.656,1.463,1.464,1.463
		c0.809,0,1.464-0.655,1.464-1.463v-5.772c-0.008-0.53,0.129-1.054,0.398-1.512c0.201-0.338,0.528-0.581,0.91-0.673
		c0.356-0.089,0.734-0.033,1.047,0.159l0.106,0.067c0.395,0.245,0.635,0.677,0.634,1.143v8.114
		c-0.023,0.811,0.614,1.484,1.421,1.507c0.81,0.023,1.484-0.612,1.508-1.423c0-0.028,0-0.056,0-0.084v-2.597
		c-0.001-0.531,0.161-1.05,0.464-1.485c0.465-0.704,1.412-0.896,2.116-0.432c0.432,0.286,0.689,0.77,0.685,1.286v5.642
		c0,0.808,0.655,1.466,1.464,1.466c0.808,0,1.463-0.658,1.463-1.466v-5.642c0.001-2.16-1.541-4.015-3.667-4.409
		c-0.853-0.155-1.73-0.052-2.524,0.293v-0.769c0.005-1.476-0.756-2.849-2.011-3.627l-0.118-0.074
		c-0.979-0.606-2.162-0.791-3.28-0.512c-0.258,0.063-0.51,0.147-0.752,0.255c-0.624-2.464-3.127-3.956-5.592-3.333
		c-0.127,0.032-0.254,0.071-0.378,0.114V22.52c0-2.491-2.019-4.509-4.509-4.509c-1.262,0-2.467,0.528-3.32,1.458l-0.02,0.022
		c-0.766,0.832-1.19,1.92-1.189,3.05v15.396c-0.999-1.677-2.592-2.917-4.462-3.472c-2.024-0.606-4.157,0.542-4.764,2.567
		c-0.252,0.84-0.207,1.742,0.127,2.552l2.409,5.858c0.889,2.157,1.346,4.468,1.344,6.8v1.495c-0.006,2.199,0.869,4.313,2.429,5.864
		l2.675,2.676c0.646,0.641,1.008,1.517,1.006,2.427v3.173h-0.844c-0.806,0.004-1.458,0.657-1.459,1.463v6.86
		c0.001,0.808,0.656,1.463,1.463,1.463l0,0l25.411-0.007c0.809-0.002,1.465-0.657,1.463-1.468l0,0l-0.01-6.858
		c0.001-0.806-0.649-1.458-1.454-1.465h-0.428v-3.958c-0.001-0.49,0.155-0.968,0.442-1.365L36.32,62.543z M12.367,74.732
		l-0.005-3.925L34.843,70.8v3.932H12.367z"/>
	
		<linearGradient id="Path_17434_1_" gradientUnits="userSpaceOnUse" x1="-213.812" y1="327.687" x2="-213.812" y2="326.4985" gradientTransform="matrix(4.3631 0 0 -3.5631 939.5039 1182.0669)">
		<stop  offset="0.13" style="stop-color:#00A9ED"/>
		<stop  offset="1" style="stop-color:#65106B"/>
	</linearGradient>
	<path id="Path_17434" fill="url(#Path_17434_1_)" d="M4.744,17.204l2.26,1.309c0.7,0.404,1.595,0.164,2-0.537
		c0.405-0.7,0.164-1.596-0.536-2l0,0l-2.259-1.309c-0.701-0.404-1.596-0.164-2,0.537C3.804,15.904,4.044,16.8,4.744,17.204z"/>
	
		<linearGradient id="Path_17435_1_" gradientUnits="userSpaceOnUse" x1="-217.4077" y1="302.5337" x2="-217.4077" y2="301.3452" gradientTransform="matrix(4.6302 0 0 -2.8998 1012.5955 898.7059)">
		<stop  offset="0.13" style="stop-color:#00A9ED"/>
		<stop  offset="1" style="stop-color:#65106B"/>
	</linearGradient>
	<path id="Path_17435" fill="url(#Path_17435_1_)" d="M4.662,24.87c0.098,0,0.196-0.009,0.292-0.028l2.552-0.516
		c0.795-0.146,1.32-0.909,1.174-1.705s-0.91-1.32-1.705-1.174c-0.016,0.004-0.032,0.006-0.047,0.01l-2.552,0.515
		c-0.793,0.159-1.307,0.93-1.148,1.722C3.364,24.379,3.965,24.871,4.662,24.87L4.662,24.87z"/>
	
		<linearGradient id="Path_17436_1_" gradientUnits="userSpaceOnUse" x1="-164.5815" y1="278.7944" x2="-164.5815" y2="277.6049" gradientTransform="matrix(2.4742 0 0 -2.4912 444.0778 744.9597)">
		<stop  offset="0.13" style="stop-color:#00A9ED"/>
		<stop  offset="1" style="stop-color:#65106B"/>
	</linearGradient>
	<path id="Path_17436" fill="url(#Path_17436_1_)" d="M38.226,51.35c-0.304-0.751-1.156-1.113-1.906-0.809
		c-0.75,0.302-1.112,1.156-0.809,1.906l0,0l0.013,0.033c0.304,0.75,1.156,1.112,1.905,0.808c0.751-0.302,1.113-1.156,0.81-1.906
		L38.226,51.35z"/>
</g>
</svg>
