<?xml version="1.0" encoding="utf-8"?>
<!-- Generator: Adobe Illustrator 16.0.0, SVG Export Plug-In . SVG Version: 6.00 Build 0)  -->
<!DOCTYPE svg PUBLIC "-//W3C//DTD SVG 1.1//EN" "http://www.w3.org/Graphics/SVG/1.1/DTD/svg11.dtd">
<svg version="1.1" id="Layer_1" xmlns="http://www.w3.org/2000/svg" xmlns:xlink="http://www.w3.org/1999/xlink" x="0px" y="0px"
	 width="58.5px" height="78.958px" viewBox="0 0 58.5 78.958" enable-background="new 0 0 58.5 78.958" xml:space="preserve">
<path id="Path_16328_1_" fill="#147DB2" d="M25.85,17.495c3.174,0,5.747-2.573,5.747-5.747s-2.573-5.747-5.747-5.747
	c-3.175,0-5.747,2.573-5.747,5.747C20.106,14.92,22.677,17.491,25.85,17.495z M25.85,8.652c1.712,0,3.1,1.388,3.1,3.1
	s-1.388,3.1-3.1,3.1c-1.713,0-3.101-1.388-3.101-3.1l0,0C22.749,10.04,24.137,8.652,25.85,8.652z"/>
<path id="Path_16329_1_" fill="#147DB2" d="M41.573,6c-3.174,0-5.747,2.573-5.747,5.747s2.573,5.747,5.747,5.747
	s5.747-2.573,5.747-5.747l0,0C47.316,8.575,44.746,6.004,41.573,6z M41.573,14.843c-1.712,0-3.1-1.388-3.1-3.1
	c0-1.712,1.388-3.1,3.1-3.1s3.1,1.388,3.1,3.1C44.673,13.455,43.285,14.843,41.573,14.843L41.573,14.843z"/>
<path id="Path_16331_1_" fill="#147DB2" d="M41.573,19.671c-3.174,0-5.747,2.573-5.747,5.747s2.573,5.747,5.747,5.747
	s5.747-2.573,5.747-5.747l0,0C47.316,22.246,44.746,19.675,41.573,19.671z M41.573,28.514c-1.712,0-3.1-1.388-3.1-3.1
	s1.388-3.1,3.1-3.1s3.1,1.388,3.1,3.1S43.285,28.514,41.573,28.514L41.573,28.514z"/>
<linearGradient id="Path_16334_2_" gradientUnits="userSpaceOnUse" x1="-267.312" y1="428.8149" x2="-267.312" y2="427.8149" gradientTransform="matrix(33.2855 0 0 -54.0154 8927.2559 23182.1172)">
	<stop  offset="0.13" style="stop-color:#00A9ED"/>
	<stop  offset="1" style="stop-color:#65106B"/>
</linearGradient>
<path id="Path_16334_1_" fill="url(#Path_16334_2_)" d="M44.452,59.854l0.5-0.699c0.856-1.035,1.324-2.338,1.323-3.682
	c0.02-0.732-0.558-1.342-1.289-1.361c-0.732-0.021-1.342,0.557-1.362,1.289c0,0.023,0,0.047,0,0.072
	c-0.001,0.785-0.292,1.543-0.817,2.125l-0.5,0.701c-0.591,0.811-0.907,1.789-0.905,2.791v3.555h-16.56v-2.83
	c0.005-1.529-0.603-2.996-1.687-4.072l-2.422-2.424c-0.914-0.908-1.427-2.146-1.423-3.436V50.53
	c0.002-2.457-0.479-4.893-1.417-7.164l-2.182-5.3c-0.17-0.415,0.028-0.89,0.443-1.061c0.172-0.071,0.363-0.08,0.542-0.027
	c1.129,0.335,2.077,1.109,2.632,2.148l0.482,0.9c0.699,1.299,1.194,2.699,1.468,4.15l0.243,1.293
	c0.136,0.719,0.829,1.193,1.549,1.057c0.626-0.117,1.079-0.664,1.08-1.301V23.632c0-0.358,0.135-0.704,0.378-0.968l0.018-0.02
	c0.535-0.582,1.44-0.621,2.022-0.086c0.295,0.271,0.463,0.654,0.463,1.055V40.69c0,0.732,0.594,1.326,1.326,1.326
	s1.326-0.594,1.326-1.326v-8.05c-0.001-0.342,0.152-0.666,0.418-0.881c0.646-0.527,1.596-0.43,2.123,0.215
	c0.22,0.27,0.34,0.606,0.34,0.954v8.532c-0.021,0.73,0.557,1.342,1.289,1.361c0.731,0.02,1.342-0.557,1.361-1.289
	c0.001-0.023,0.001-0.049,0-0.072v-5.228c-0.007-0.481,0.118-0.955,0.361-1.369c0.182-0.306,0.479-0.526,0.824-0.609
	c0.323-0.081,0.665-0.029,0.949,0.145l0.1,0.06c0.358,0.222,0.575,0.614,0.574,1.035v7.348c0,0.732,0.594,1.326,1.326,1.326
	s1.325-0.594,1.325-1.326l0,0v-2.352c0-0.48,0.147-0.951,0.423-1.346c0.42-0.637,1.276-0.813,1.914-0.394
	c0.392,0.259,0.626,0.698,0.621,1.168v5.107c-0.02,0.732,0.558,1.342,1.29,1.363c0.731,0.02,1.342-0.557,1.361-1.289
	c0.001-0.025,0.001-0.049,0-0.074v-5.107c0-1.958-1.396-3.637-3.321-3.994c-0.771-0.141-1.568-0.048-2.288,0.266v-0.7
	c0.005-1.336-0.685-2.58-1.819-3.284l-0.109-0.068c-0.887-0.549-1.958-0.716-2.97-0.464c-0.234,0.057-0.462,0.135-0.682,0.232
	c-0.565-2.232-2.832-3.583-5.063-3.018c-0.116,0.029-0.23,0.063-0.344,0.103v-5.383c-0.003-1.14-0.479-2.227-1.317-3
	c-1.659-1.527-4.243-1.421-5.771,0.239c-0.001,0-0.002,0.001-0.002,0.002l-0.019,0.02c-0.695,0.752-1.081,1.739-1.081,2.763v13.939
	c-0.904-1.517-2.346-2.638-4.039-3.14c-1.833-0.55-3.765,0.491-4.313,2.324c-0.229,0.761-0.188,1.577,0.113,2.312l2.182,5.3
	c0.805,1.953,1.219,4.045,1.217,6.158v1.354c-0.005,1.992,0.787,3.904,2.2,5.311l2.423,2.424c0.586,0.582,0.914,1.373,0.911,2.199
	v2.867h-0.766c-0.732,0-1.327,0.592-1.327,1.326c0,0,0,0.002,0,0.004l0.01,6.211c0.001,0.73,0.595,1.324,1.326,1.324l0,0
	l23.01-0.008c0.732,0,1.325-0.596,1.325-1.328l-0.011-6.211c-0.001-0.73-0.594-1.324-1.325-1.324h-0.387V61.09
	c0-0.445,0.14-0.877,0.4-1.236H44.452z M22.762,70.891l-0.007-3.559l20.359-0.006l0.006,3.559L22.762,70.891z"/>
<path id="Path_16337_1_" d="M46.178,49.719c-0.29-0.672-1.069-0.982-1.742-0.693c-0.652,0.279-0.968,1.023-0.716,1.688l0.012,0.031
	c0.26,0.684,1.025,1.029,1.71,0.77s1.029-1.025,0.77-1.711c-0.007-0.018-0.014-0.035-0.021-0.053L46.178,49.719z"/>
</svg>
