<?xml version="1.0" encoding="utf-8"?>
<!-- Generator: Adobe Illustrator 14.0.0, SVG Export Plug-In . SVG Version: 6.00 Build 43363)  -->
<!DOCTYPE svg PUBLIC "-//W3C//DTD SVG 1.1//EN" "http://www.w3.org/Graphics/SVG/1.1/DTD/svg11.dtd">
<svg version="1.1" id="Layer_1" xmlns="http://www.w3.org/2000/svg" xmlns:xlink="http://www.w3.org/1999/xlink" x="0px" y="0px"
	 width="65px" height="65px" viewBox="-2.294 1.083 65 65" enable-background="new -2.294 1.083 65 65" xml:space="preserve">
<g id="Group_1248" transform="translate(-195.296 -1400)">
	<g id="coverage" transform="translate(176.136 1385.854)">
		<path id="Path_16077" fill="#2694E7" d="M77.317,26.58c-9.509-2.834-18.842-6.229-27.952-10.164
			c-9.109,3.935-18.443,7.329-27.952,10.164c0,0-4.509,41.692,27.953,52.466C81.827,68.272,77.317,26.58,77.317,26.58z"/>
		<path id="Path_16078" fill="#E7FFFF" d="M49.365,73.709c-10.757-4.127-17.887-12.828-21.207-25.886
			c-1.399-5.716-2.044-11.593-1.915-17.478c11.104-3.514,19.438-6.887,23.124-8.452c3.686,1.564,12.019,4.942,23.126,8.452
			c0.128,5.884-0.517,11.761-1.916,17.478c-3.32,13.055-10.45,21.759-21.209,25.886H49.365z"/>
		<path id="Path_16079" fill="#B5E0F8" d="M49.366,68.872V26.586c3.957,1.633,10.451,4.17,18.712,6.883
			c-0.111,4.45-0.704,8.875-1.767,13.196C63.538,57.591,57.839,65.051,49.366,68.872z"/>
	</g>
</g>
<g id="hospital_1_" transform="translate(0 -23.536)">
	<g id="Layer_2_19_" transform="translate(0 23.536)">
		<g id="Group_1496" transform="translate(0 0)">
			<path id="Path_16164" fill="#E74424" d="M27.699,28.508c0.059-0.166,0.242-0.252,0.407-0.193c0.118,0.042,0.2,0.148,0.211,0.273
				l0.508,5.941l0.952-3.433c0.046-0.17,0.221-0.268,0.39-0.221c0.113,0.03,0.2,0.122,0.226,0.236l0.53,2.3l0.905-3.804
				c0.04-0.172,0.211-0.278,0.383-0.238c0.128,0.03,0.225,0.136,0.243,0.268l0.676,4.817l0.303-0.981
				c0.041-0.133,0.164-0.222,0.304-0.222h7.164v-1.644c0-1.514-1.226-2.741-2.741-2.741h-4.353v-4.352
				c0-1.514-1.227-2.742-2.74-2.743h-0.002h-1.833c-1.515,0-2.743,1.229-2.743,2.743v4.352h-4.354c-1.513,0-2.74,1.227-2.741,2.741
				v1.68h6.594L27.699,28.508z"/>
			<path id="Path_16165" fill="#E74424" d="M33.316,36c-0.052,0.168-0.229,0.262-0.396,0.211c-0.119-0.037-0.207-0.139-0.223-0.26
				l-0.641-4.558l-0.829,3.485c-0.033,0.143-0.162,0.244-0.308,0.244l0,0c-0.149-0.001-0.278-0.102-0.31-0.248l-0.555-2.401
				l-1.09,3.928c-0.039,0.138-0.164,0.233-0.307,0.233h-0.028c-0.154-0.016-0.275-0.137-0.288-0.291l-0.536-6.248l-1.296,3.617
				c-0.046,0.125-0.167,0.211-0.3,0.211h-6.775c0.232,1.309,1.37,2.263,2.699,2.263h4.353v4.353c0,1.516,1.229,2.743,2.743,2.743
				h1.836c1.516,0,2.743-1.228,2.743-2.743v-4.353h4.353c1.342,0,2.487-0.975,2.704-2.299h-6.896L33.316,36z"/>
			<path id="Path_16166" fill="#F7F1E6" d="M42.01,33.25h-8.273c-0.14-0.001-0.263,0.09-0.304,0.223l-0.305,0.98l-0.676-4.816
				c-0.023-0.174-0.184-0.296-0.358-0.273c-0.131,0.019-0.236,0.115-0.267,0.243l-0.905,3.804l-0.53-2.3
				c-0.041-0.172-0.209-0.279-0.38-0.24c-0.115,0.026-0.206,0.113-0.236,0.225l-0.952,3.433l-0.508-5.941
				c-0.016-0.176-0.17-0.305-0.344-0.291c-0.124,0.01-0.231,0.093-0.273,0.21l-1.714,4.776h-7.583c-0.175,0-0.318,0.143-0.318,0.319
				c0,0.176,0.143,0.317,0.318,0.317h7.807c0.135,0,0.253-0.084,0.3-0.211l1.296-3.616l0.537,6.253
				c0.013,0.154,0.134,0.277,0.288,0.292h0.028c0.143,0,0.269-0.097,0.307-0.233l1.09-3.928l0.555,2.402
				c0.032,0.145,0.161,0.246,0.31,0.247l0,0c0.146,0,0.274-0.101,0.308-0.244l0.829-3.485l0.641,4.557
				c0.022,0.175,0.185,0.295,0.358,0.272c0.122-0.018,0.225-0.103,0.261-0.223l0.652-2.115h8.04c0.176,0,0.319-0.142,0.319-0.318
				c0-0.176-0.142-0.317-0.319-0.317L42.01,33.25z"/>
		</g>
	</g>
</g>
</svg>
