<svg xmlns="http://www.w3.org/2000/svg" width="30.665" height="38.332" viewBox="0 0 30.665 38.332">
  <g id="file" transform="translate(-6)">
    <path id="Path_16364" data-name="Path 16364" d="M35.61,25H19.639a.639.639,0,1,0,0,1.278H35.61a.639.639,0,1,0,0-1.278Z" transform="translate(-4.695 -9.029)" fill="#fff"/>
    <path id="Path_16365" data-name="Path 16365" d="M19.639,18.278h6.389a.639.639,0,0,0,0-1.278H19.639a.639.639,0,1,0,0,1.278Z" transform="translate(-4.695 -6.139)" fill="#fff"/>
    <path id="Path_16366" data-name="Path 16366" d="M35.61,33H19.639a.639.639,0,0,0,0,1.278H35.61a.639.639,0,1,0,0-1.278Z" transform="translate(-4.695 -11.918)" fill="#fff"/>
    <path id="Path_16367" data-name="Path 16367" d="M35.61,41H19.639a.639.639,0,0,0,0,1.278H35.61a.639.639,0,1,0,0-1.278Z" transform="translate(-4.695 -14.807)" fill="#fff"/>
    <path id="Path_16368" data-name="Path 16368" d="M35.61,49H19.639a.639.639,0,1,0,0,1.278H35.61a.639.639,0,1,0,0-1.278Z" transform="translate(-4.695 -17.696)" fill="#fff"/>
    <path id="Path_16369" data-name="Path 16369" d="M33.471,9.318V0H6V35.137H9.194v3.194H36.665V12.513Zm-5.75-3.943,5.75,5.75,1.013,1.013H27.721ZM7.278,33.86V1.278H32.193V8.041L27.347,3.194H9.194V33.86Zm3.194,3.194V4.472H26.443v8.944h8.944V37.054Z" fill="#fff"/>
  </g>
</svg>
