<?xml version="1.0" encoding="utf-8"?>
<!-- Generator: Adobe Illustrator 14.0.0, SVG Export Plug-In . SVG Version: 6.00 Build 43363)  -->
<!DOCTYPE svg PUBLIC "-//W3C//DTD SVG 1.1//EN" "http://www.w3.org/Graphics/SVG/1.1/DTD/svg11.dtd">
<svg version="1.1" id="invoice" xmlns="http://www.w3.org/2000/svg" xmlns:xlink="http://www.w3.org/1999/xlink" x="0px" y="0px"
	 width="65px" height="65px" viewBox="-4.586 -1.402 65 65" enable-background="new -4.586 -1.402 65 65" xml:space="preserve">
<path id="Path_16020" d="M52.057,0H15.723c-2.082,0.002-3.769,1.689-3.771,3.771v8.439C3.198,14.708-1.873,23.83,0.626,32.584
	c1.564,5.479,5.847,9.762,11.326,11.326v14.515c0,2.083,1.688,3.772,3.771,3.775h29.692c0.353,0,0.69-0.141,0.938-0.39l9.086-9.085
	c0.25-0.249,0.391-0.589,0.391-0.942V3.771C55.828,1.689,54.14,0.001,52.057,0z M15.723,2.656h36.333
	c0.615,0,1.115,0.499,1.115,1.114v4.008H14.609V3.771C14.609,3.156,15.108,2.657,15.723,2.656z M2.656,28.056
	c0.001-7.635,6.191-13.823,13.826-13.822c7.635,0.002,13.823,6.191,13.823,13.826c-0.002,7.634-6.19,13.821-13.824,13.822
	C8.85,41.873,2.665,35.69,2.656,28.058V28.056z M14.609,58.425V44.432c5.389,0.617,10.735-1.46,14.293-5.554h8.138
	c0.733-0.001,1.327-0.597,1.327-1.33c-0.002-0.731-0.595-1.325-1.327-1.326h-6.246c1.183-2.065,1.901-4.363,2.104-6.735h4.142
	c0.733,0,1.328-0.594,1.328-1.327s-0.595-1.328-1.328-1.328h-4.124c-0.175-2.363-0.86-4.659-2.01-6.731h6.134
	c0.733,0,1.328-0.595,1.328-1.328s-0.595-1.328-1.328-1.328h-7.966c-3.552-4.223-8.984-6.384-14.466-5.756v-1.252h38.563v40.02
	h-5.313c-2.081,0.002-3.768,1.688-3.771,3.771v5.314H15.723C15.108,59.539,14.609,59.04,14.609,58.425z M46.744,57.661v-3.436
	c0-0.615,0.499-1.114,1.115-1.115h3.436L46.744,57.661z"/>
<path id="Path_16021" fill="#147DB2" d="M42.258,20.095h4.411c0.733,0,1.328-0.595,1.328-1.328s-0.595-1.328-1.328-1.328h-4.411
	c-0.733,0-1.328,0.595-1.328,1.328S41.524,20.095,42.258,20.095z"/>
<path id="Path_16022" fill="#147DB2" d="M42.258,29.486h4.411c0.733,0,1.328-0.594,1.328-1.327s-0.595-1.328-1.328-1.328h-4.411
	c-0.733,0-1.328,0.595-1.328,1.328S41.524,29.486,42.258,29.486z"/>
<path id="Path_16023" fill="#147DB2" d="M42.258,38.877h4.411c0.733,0,1.328-0.595,1.328-1.328s-0.595-1.328-1.328-1.328h-4.411
	c-0.733,0-1.328,0.595-1.328,1.328S41.524,38.877,42.258,38.877z"/>
<path id="Path_16024" fill="#147DB2" d="M46.669,48.268c0.733,0,1.328-0.595,1.328-1.328s-0.595-1.328-1.328-1.328H34.244
	c-0.733,0-1.328,0.595-1.328,1.328s0.595,1.328,1.328,1.328H46.669z"/>
<path id="Path_16025" fill="#147DB2" d="M26.795,21.358l-1.62-1.62c-0.902-0.901-2.364-0.901-3.267,0l-8.5,8.5l-2.349-2.349
	c-0.902-0.902-2.365-0.902-3.267,0l0,0L6.171,27.51c-0.9,0.903-0.9,2.364,0,3.267l5.6,5.601c0.433,0.435,1.021,0.678,1.634,0.677
	l0,0c0.614,0.001,1.202-0.244,1.634-0.679l11.756-11.75C27.695,23.722,27.695,22.261,26.795,21.358z M13.408,34.258l-5.113-5.116
	l1.131-1.131l3.044,3.044c0.519,0.519,1.36,0.519,1.878,0l9.194-9.194l1.131,1.132L13.408,34.258z"/>
</svg>
