<svg xmlns="http://www.w3.org/2000/svg" xmlns:xlink="http://www.w3.org/1999/xlink" width="431.623" height="361.994" viewBox="0 0 431.623 361.994">
  <defs>
    <linearGradient id="linear-gradient" x1="0.32" x2="0.886" y2="0.52" gradientUnits="objectBoundingBox">
      <stop offset="0" stop-color="#b5e2f6"/>
      <stop offset="1" stop-color="#cae4ef"/>
    </linearGradient>
  </defs>
  <g id="Group_4211" data-name="Group 4211" transform="translate(-200 -3746.006)">
    <g id="Group_4044" data-name="Group 4044" transform="translate(-10 3626)">
      <g id="Group_3305" data-name="Group 3305" transform="translate(27 -4)">
        <path id="Path_12" data-name="Path 12" d="M68.6,427.8s-13.843-46.929-27.986-66.252-14.5-49.192,8.485-50.874,32.691,32.4,38.974,57.434S93.649,427.8,93.649,427.8Z" transform="translate(187.409 33.671)" fill="#fff"/>
        <path id="Path_13" data-name="Path 13" d="M88.88,401.568a.457.457,0,0,0-.631.137l-7.219,11.234q-2.263-9.7-4.611-18.2l7.945-14.489a.457.457,0,0,0-.8-.439l-7.492,13.663c-1.863-6.718-3.739-12.877-5.583-18.493l6.868-19.021a.456.456,0,0,0-.274-.585.461.461,0,0,0-.585.273l-6.474,17.93c-2.911-8.758-5.728-16.159-8.269-22.259l4.558-16.252a.457.457,0,1,0-.88-.246l-4.246,15.143c-6.017-14.227-10.349-20.96-10.44-21.1a.457.457,0,0,0-.764.5c.091.139,4.444,6.911,10.479,21.226L45.89,346.529a.457.457,0,1,0-.245.88l15.266,4.26c2.548,6.119,5.378,13.554,8.3,22.364L54.1,366.609a.457.457,0,0,0-.4.82l15.918,7.821c1.858,5.663,3.75,11.878,5.63,18.667l-12.989-4.946a.456.456,0,1,0-.324.853l13.612,5.183q2.348,8.564,4.638,18.327l-12.846-5.267a.457.457,0,0,0-.346.846l13.443,5.511q1.573,6.823,3.082,14.231a.458.458,0,0,0,.448.366.439.439,0,0,0,.09-.009.457.457,0,0,0,.357-.539q-1.508-7.449-3.1-14.292l7.7-11.982a.457.457,0,0,0-.137-.631" transform="translate(186.15 32.107)" fill="#98dbf9"/>
      </g>
      <g id="Group_3306" data-name="Group 3306" transform="translate(-93.638 88.536) rotate(-16)">
        <path id="Path_14" data-name="Path 14" d="M74.332,431.733h-20.7S13.935,389.1,23.225,370.2s24.75-18.447,32.881-1.269,18.225,62.8,18.225,62.8" transform="translate(188.186 29.735)" fill="#fff"/>
        <path id="Path_15" data-name="Path 15" d="M66.762,418.81a.458.458,0,0,0-.593.255l-3.022,7.576c-1.269-3.6-2.62-7.213-4.01-10.775l4.419-10.527a.457.457,0,1,0-.842-.353l-4.054,9.66c-1.617-4.1-3.274-8.122-4.906-11.955l4.781-12.634a.456.456,0,0,0-.854-.322l-4.444,11.742c-2.229-5.2-4.388-10.007-6.305-14.169l4.646-11.658a.457.457,0,1,0-.849-.339L46.4,386.165c-3.841-8.289-6.577-13.708-6.643-13.839a.457.457,0,1,0-.815.414c.067.132,2.835,5.614,6.709,13.982L33.2,384.693a.456.456,0,1,0-.147.9l13.068,2.128c1.938,4.206,4.123,9.076,6.374,14.335L37.342,398.84a.457.457,0,1,0-.19.894l15.777,3.349c1.655,3.886,3.334,7.964,4.971,12.127l-12.653-2.934a.457.457,0,0,0-.206.891L58.3,416.24c1.41,3.615,2.78,7.284,4.065,10.934l-9.052-3.331A.457.457,0,0,0,53,424.7l9.758,3.591q.818,2.356,1.586,4.694a.456.456,0,0,0,.434.315.482.482,0,0,0,.142-.022.458.458,0,0,0,.292-.576q-.77-2.361-1.6-4.749l3.41-8.55a.456.456,0,0,0-.255-.594" transform="translate(187.246 28.346)" fill="#98dbf9"/>
      </g>
    </g>
    <g id="Group_4045" data-name="Group 4045" transform="translate(484.563 3967.281)">
      <g id="Group_3307" data-name="Group 3307" transform="translate(0 0)">
        <path id="Path_12-2" data-name="Path 12" d="M55.841,427.8s13.843-46.929,27.986-66.252,14.5-49.191-8.485-50.874-32.692,32.4-38.974,57.434S30.8,427.8,30.8,427.8Z" transform="translate(-30.772 -310.611)" fill="#fff"/>
        <path id="Path_13-2" data-name="Path 13" d="M45.52,401.568a.457.457,0,0,1,.631.137l7.219,11.234q2.263-9.7,4.611-18.2l-7.945-14.489a.457.457,0,0,1,.8-.439l7.492,13.663c1.863-6.718,3.739-12.877,5.583-18.493l-6.868-19.021a.456.456,0,0,1,.274-.585.461.461,0,0,1,.585.273l6.474,17.93c2.911-8.758,5.728-16.158,8.269-22.259l-4.558-16.252a.457.457,0,1,1,.88-.246l4.246,15.143c6.017-14.227,10.349-20.96,10.44-21.1a.457.457,0,0,1,.765.5c-.091.139-4.444,6.911-10.479,21.226l14.571-4.065a.457.457,0,1,1,.245.88l-15.266,4.26c-2.548,6.119-5.378,13.554-8.3,22.364L80.3,366.609a.457.457,0,0,1,.4.82L64.784,375.25c-1.858,5.663-3.75,11.878-5.63,18.667l12.989-4.946a.456.456,0,1,1,.324.853l-13.612,5.183q-2.348,8.564-4.638,18.327l12.846-5.267a.457.457,0,0,1,.346.846l-13.443,5.511q-1.573,6.823-3.082,14.231a.458.458,0,0,1-.448.366.439.439,0,0,1-.09-.009.457.457,0,0,1-.357-.539q1.508-7.449,3.1-14.292l-7.7-11.982a.457.457,0,0,1,.137-.631" transform="translate(-39.467 -312.175)" fill="#98dbf9"/>
      </g>
      <g id="Group_3308" data-name="Group 3308" transform="translate(72.607 134.132) rotate(-164)">
        <path id="Path_14-2" data-name="Path 14" d="M52.516,0h-20.7S-7.881,42.635,1.409,61.531,26.159,79.979,34.29,62.8,52.516,0,52.516,0" transform="translate(0 0.178)" fill="#fff"/>
        <path id="Path_15-2" data-name="Path 15" d="M34.1,14.491a.458.458,0,0,1-.593-.255L30.482,6.659c-1.269,3.6-2.62,7.213-4.01,10.775l4.419,10.527a.457.457,0,1,1-.842.353l-4.054-9.66c-1.617,4.1-3.274,8.122-4.906,11.955l4.781,12.634a.456.456,0,0,1-.854.322L20.572,31.823c-2.229,5.2-4.388,10.007-6.305,14.169L18.913,57.65a.457.457,0,1,1-.849.339L13.739,47.136C9.9,55.424,7.162,60.843,7.1,60.974a.457.457,0,1,1-.815-.414c.067-.132,2.835-5.615,6.709-13.982L.53,48.607a.456.456,0,1,1-.147-.9l13.068-2.128c1.938-4.206,4.123-9.076,6.374-14.335L4.677,34.461a.457.457,0,1,1-.19-.894l15.777-3.349c1.655-3.886,3.334-7.964,4.971-12.127L12.582,21.024a.457.457,0,0,1-.206-.891L25.638,17.06c1.41-3.615,2.78-7.284,4.065-10.934L20.65,9.457a.457.457,0,0,1-.316-.857l9.759-3.591q.818-2.356,1.586-4.694A.456.456,0,0,1,32.112,0a.482.482,0,0,1,.142.022A.458.458,0,0,1,32.546.6q-.77,2.361-1.6,4.749l3.41,8.55a.456.456,0,0,1-.255.594" transform="translate(9.909 0)" fill="#98dbf9"/>
      </g>
    </g>
    <g id="Group_4210" data-name="Group 4210">
      <path id="Path_19824" data-name="Path 19824" d="M411.911,85.587a89.924,89.924,0,0,0-2.7,34.051c1.651,14.336,6.729,28.185,11.165,42.078,6.1,19.1,6.408,52.63,0,71.913-2.243,6.747-53.458,120.514-53.475,121.01,0,0,72.062.027,0,.035s-287.777,0-288.252,0c-3.379-.025-6.8-14.226-7.177-15.925C69,327.7,56.684,315.891,61.808,305.519c7.274-14.725,14.855-26.43,7.518-42.627C64.5,252.237,55.163,243.983,49.819,233.63a122.792,122.792,0,0,1-8.843-90.176C50.191,111.36,71.358,88.893,98.328,66.53c24.221-20.083,44.207-43.935,65.5-66.247H467.816s0,10.64,0,10.652c-.117,4.439-12.063,13.74-15.352,17.128-12.728,13.108-26.294,24.639-34.12,40.57a95.969,95.969,0,0,0-6.433,16.954" transform="translate(163.807 3745.723)" opacity="0.46" fill="url(#linear-gradient)"/>
      <path id="Path_19825" data-name="Path 19825" d="M110.73,324.053a251.193,251.193,0,0,1-25.47-36.592l.005,0-.1-.167c2.1-1.693,10.062-9.022,4.877-19.245l-.325-.642-.608.386c-6.581,4.182-7.248,10.312-6.706,14.6-1.831-3.338-3.655-6.823-5.429-10.448q-1.286-2.631-2.565-5.421l.086-.023-.081-.178c2.276-1.454,10.99-7.864,6.959-18.594l-.254-.674-.647.318c-7.226,3.545-8.415,9.845-8.255,14.193-2.065-4.823-4.051-9.939-5.865-15.3,2.552-1.169,11.917-6.281,9.472-17.386l-.154-.7-.685.222c-7.746,2.507-9.779,8.689-10.206,13.023-1.552-5.016-2.925-10.221-4.064-15.568,2.637-.99,12.328-5.422,10.682-16.665l-.1-.712-.7.173C63.1,210.5,60.494,216,59.616,220.228a148.728,148.728,0,0,1-1.936-15.912c2.8-.51,13.078-3.152,13.47-14.482l.024-.719-.718.044c-7.966.494-11.49,5.77-13.031,9.831a125.076,125.076,0,0,1,1.144-20.937c2.687-.059,13.458-1,15.588-12.274l.133-.707-.718-.065c-7.523-.68-11.762,3.489-14.01,7.146a112.684,112.684,0,0,1,3.294-12.924c1.554-1.059,11.072-8.113,6.189-19.163l-.289-.659-.629.353c-10.564,5.945-7.111,17.356-6.519,19.071a114.214,114.214,0,0,0-3.354,13.193c-.869-4.213-3.452-9.631-10.836-11.526l-.7-.179-.112.711c-1.766,11.326,8.069,15.832,10.593,16.793l-.043.191.089.005a125.887,125.887,0,0,0-1.166,19.652,14.046,14.046,0,0,0-12.162-9.006l-.716-.071,0,.72c-.03,11.464,10.376,14.426,13.015,14.993l-.014.195.176-.017a150.232,150.232,0,0,0,1.88,15.555A14.152,14.152,0,0,0,44.4,212.91l-.718.058.127.708c2.022,11.29,12.8,12.339,15.487,12.423l.021.2.149-.043c1,4.685,2.183,9.256,3.5,13.688a14,14,0,0,0-13.807-5.422l-.712.109.179.7c2.62,10.324,12.146,11.3,15.645,11.3.273,0,.493-.007.688-.014L65,246.8l.142-.052c1.648,4.866,3.435,9.537,5.3,13.968A14.035,14.035,0,0,0,55.783,257.1l-.689.209.273.665c3.205,7.767,9.834,9.166,14.193,9.166a20,20,0,0,0,3.553-.312q1.343,2.945,2.7,5.72c1.672,3.416,3.386,6.7,5.114,9.868a14.1,14.1,0,0,0-15.295-2.248l-.661.284.345.631a14.043,14.043,0,0,0,12.977,7.672,20.237,20.237,0,0,0,5.659-.827l.082.178.063-.043a253,253,0,0,0,25.653,36.855.653.653,0,1,0,.979-.865M74.692,229.885c1.671,9.519-6.115,13.932-8.655,15.1-.273-2.782-.4-11.732,8.655-15.1M70.2,210.11c.986,9.614-7.1,13.46-9.712,14.447-.075-2.8.437-11.732,9.712-14.447m-.4-19.585c-.746,9.626-9.368,11.968-12.128,12.474.455-2.744,2.64-11.462,12.128-12.474m2.161-24.284c.25,0,.5.005.757.017-2.2,9.413-11.094,10.414-13.888,10.494.818-2.6,4.056-10.511,13.132-10.511m8.432,82.644c3.005,9.175-4.056,14.648-6.409,16.173-.635-2.708-1.962-11.6,6.409-16.173M68.133,141.276c3.521,9-3.238,14.866-5.494,16.516-.82-2.673-2.718-11.419,5.494-16.516M47.8,161.964c9.249,2.8,9.675,11.743,9.574,14.537-2.606-1.01-10.651-4.933-9.574-14.537m-3.28,28.092c9.555,1.367,11.337,10.121,11.664,12.909-2.707-.631-11.268-3.376-11.664-12.909m.719,24.113c9.627-.361,12.964,7.932,13.785,10.615-2.779-.137-11.691-1.307-13.785-10.615m4.85,21.546c9.609-1.052,13.507,7,14.511,9.613-2.8.088-11.733-.359-14.511-9.613m6.781,22.44c9.023-2.325,13.992,4.481,15.56,7.158.042.1.086.193.129.289-2.783.46-11.682,1.169-15.69-7.447M89.2,269.3c3.992,8.791-2.426,15-4.6,16.78-.927-2.623-3.222-11.313,4.6-16.78M66.833,281.095c9.036-3.418,14.831,3.4,16.452,5.68-2.681.791-11.448,2.588-16.452-5.68" transform="translate(177.109 3723.488)" fill="#fff"/>
      <path id="Path_19826" data-name="Path 19826" d="M43.367,324.052a251.193,251.193,0,0,0,25.47-36.592l-.005,0,.1-.167c-2.1-1.693-10.062-9.022-4.877-19.245l.325-.642.608.386c6.581,4.182,7.248,10.312,6.706,14.6,1.831-3.338,3.655-6.823,5.429-10.448q1.286-2.631,2.565-5.421L79.6,266.5l.081-.178c-2.276-1.454-10.991-7.864-6.959-18.594l.254-.674.647.318c7.226,3.545,8.415,9.845,8.255,14.193,2.065-4.823,4.051-9.939,5.865-15.3-2.552-1.169-11.917-6.281-9.472-17.386l.154-.7.685.222c7.746,2.507,9.779,8.689,10.206,13.023,1.552-5.016,2.925-10.221,4.064-15.568-2.637-.99-12.328-5.422-10.682-16.665l.1-.712.7.173C91,210.5,93.6,216,94.481,220.227a148.726,148.726,0,0,0,1.936-15.912c-2.8-.51-13.078-3.152-13.47-14.482l-.024-.719.718.044c7.966.494,11.49,5.77,13.031,9.831a125.074,125.074,0,0,0-1.144-20.936c-2.687-.059-13.458-1-15.588-12.274l-.133-.707.718-.065c7.523-.68,11.762,3.489,14.01,7.146a112.683,112.683,0,0,0-3.294-12.924c-1.554-1.059-11.072-8.113-6.189-19.163l.289-.659.629.353c10.564,5.945,7.111,17.356,6.519,19.071a114.212,114.212,0,0,1,3.354,13.193c.869-4.213,3.452-9.631,10.836-11.526l.7-.179.112.711c1.766,11.326-8.069,15.832-10.593,16.793l.043.191-.089.005a125.887,125.887,0,0,1,1.166,19.652,14.046,14.046,0,0,1,12.162-9.006l.716-.071,0,.72c.03,11.464-10.376,14.426-13.015,14.993l.014.195-.176-.017a150.228,150.228,0,0,1-1.88,15.555,14.152,14.152,0,0,1,13.858-7.13l.718.058-.127.708c-2.022,11.29-12.8,12.339-15.487,12.423l-.021.2-.149-.043c-1,4.685-2.183,9.256-3.5,13.688a14,14,0,0,1,13.807-5.422l.712.109-.179.7c-2.62,10.324-12.146,11.3-15.645,11.3-.273,0-.493-.007-.688-.014l-.035.195-.142-.052c-1.648,4.866-3.435,9.537-5.3,13.968A14.035,14.035,0,0,1,98.314,257.1l.689.209-.273.665c-3.205,7.767-9.834,9.166-14.193,9.166a20,20,0,0,1-3.553-.312q-1.343,2.945-2.7,5.72c-1.672,3.416-3.386,6.7-5.114,9.868a14.1,14.1,0,0,1,15.295-2.248l.661.284-.345.631A14.043,14.043,0,0,1,75.8,288.755a20.237,20.237,0,0,1-5.659-.827l-.082.178L70,288.063a252.993,252.993,0,0,1-25.653,36.855.653.653,0,1,1-.979-.865M79.4,229.884c-1.671,9.519,6.115,13.932,8.655,15.1.273-2.782.4-11.732-8.655-15.1M83.9,210.11c-.986,9.614,7.1,13.46,9.712,14.447.075-2.8-.437-11.732-9.712-14.447m.4-19.585c.746,9.626,9.368,11.968,12.128,12.474-.455-2.744-2.64-11.462-12.128-12.474m-2.161-24.284c-.25,0-.5.005-.757.017,2.2,9.413,11.094,10.414,13.888,10.494-.818-2.6-4.056-10.511-13.132-10.511M73.7,248.885c-3.005,9.175,4.056,14.648,6.409,16.173.635-2.708,1.962-11.6-6.409-16.173M85.964,141.276c-3.521,9,3.238,14.866,5.494,16.516.82-2.673,2.718-11.419-5.494-16.516m20.33,20.688c-9.249,2.8-9.675,11.743-9.574,14.537,2.606-1.01,10.651-4.933,9.574-14.537m3.28,28.092c-9.555,1.367-11.337,10.121-11.664,12.909,2.707-.631,11.268-3.376,11.664-12.909m-.719,24.113c-9.627-.361-12.964,7.932-13.785,10.615,2.779-.137,11.691-1.307,13.785-10.615m-4.85,21.546c-9.609-1.052-13.507,7-14.511,9.613,2.8.088,11.733-.359,14.511-9.613m-6.781,22.44c-9.023-2.325-13.992,4.481-15.56,7.158-.042.1-.086.193-.129.289,2.783.46,11.682,1.169,15.69-7.447M64.9,269.3c-3.992,8.791,2.426,15,4.6,16.78.927-2.623,3.222-11.313-4.6-16.78m22.364,11.793c-9.036-3.418-14.831,3.4-16.452,5.68,2.681.791,11.448,2.588,16.452-5.68" transform="translate(447.109 3723.488)" fill="#fff"/>
      <path id="Path_19827" data-name="Path 19827" d="M378.463,454.351c0,8.728-74.738,15.8-166.933,15.8S44.6,463.079,44.6,454.351,119.335,438.54,211.53,438.54s166.933,7.08,166.933,15.811" transform="translate(179.537 3637.844)" fill="#c7dbe4"/>
      <g id="Group_4096" data-name="Group 4096" transform="translate(230.707 3860.473)">
        <g id="Group_4049" data-name="Group 4049" transform="translate(54.804 67.784)">
          <g id="Group_4047" data-name="Group 4047" transform="translate(10.303)">
            <path id="Path_19828" data-name="Path 19828" d="M184.863,192.42,182.905,188l-1.928.754.669,3.327-1.077-.066,2.136,3.583,2.11-.513Z" transform="translate(-180.57 -187.995)" fill="#c48270"/>
          </g>
          <g id="Group_4048" data-name="Group 4048" transform="translate(0 5.822)">
            <path id="Path_19829" data-name="Path 19829" d="M152,236.946l14.82-10.561L163.3,204.947l4.238-.8,9.756,24.392-21,18.607Z" transform="translate(-151.996 -204.142)" fill="#474ebb"/>
          </g>
        </g>
        <g id="Group_4060" data-name="Group 4060" transform="translate(196.984 84.17)">
          <g id="Group_4059" data-name="Group 4059">
            <g id="Group_4054" data-name="Group 4054" transform="translate(0 19.252)">
              <g id="Group_4053" data-name="Group 4053">
                <path id="Path_19835" data-name="Path 19835" d="M554.692,293.838l-2.033-1.919-.032-2.466-.526-.258-.345.635-.613-2.039-1.439-.957-2.149.817-1.232,2.031,1.037,2.048,2.287,1.491,2.67,2.748Z" transform="translate(-546.323 -286.833)" fill="#efd1b9"/>
              </g>
              <path id="Path_19836" data-name="Path 19836" d="M562.5,298.987l-3.658,4.333,9.813,14.906,3.652,1.178L587.869,307l-4.16-8.495-11.6,9.861Z" transform="translate(-554.331 -294.295)" fill="#474ebb"/>
            </g>
            <g id="Group_4057" data-name="Group 4057" transform="translate(18.849 63.89)">
              <g id="Group_4055" data-name="Group 4055" transform="translate(10.815 0.459)">
                <path id="Path_19837" data-name="Path 19837" d="M693.974,620l.543,2.492-4.3,3.549-2.967-1.964,1.881-3.021,4.3-3.549Z" transform="translate(-666.098 -543.379)" fill="#282e3a"/>
                <path id="Path_19838" data-name="Path 19838" d="M641.416,411.907l4.8,11.077.453,31.167,9.878,33.524-4.593,2.037L631.8,450.786l-2.294-12.329L628.6,412.49Z" transform="translate(-628.595 -411.907)" fill="#3b455a"/>
              </g>
              <g id="Group_4056" data-name="Group 4056">
                <path id="Path_19839" data-name="Path 19839" d="M598.978,413.576l-.378,32.662,6.155,42.113h4.733l2.989-38.858,6.476-38.858Z" transform="translate(-598.6 -410.635)" fill="#3b455a"/>
                <path id="Path_19840" data-name="Path 19840" d="M615.107,624.615v2.559l-5.118,2.559-2.559-2.559,2.559-2.559Z" transform="translate(-604.246 -547.462)" fill="#282e3a"/>
              </g>
            </g>
            <path id="Path_19841" data-name="Path 19841" d="M597.1,295.3l12.571-.465s7.521,6.6,11.407,23.746c3.958,17.461-.731,42.6-.731,42.6s-33.728-4.5-39.258-5.19l8.437-34.475Z" transform="translate(-568.556 -272.7)" fill="#474ebb"/>
            <g id="Group_4058" data-name="Group 4058" transform="translate(18.706)">
              <path id="Path_19842" data-name="Path 19842" d="M627.614,271.77l4.4-.431a22.107,22.107,0,0,0-.234-3.518c1.224-.428,2.639-1.072,2.854-2.35a3.657,3.657,0,0,0-.07-1.217q-.428-2.5-.856-4.993a4.465,4.465,0,0,0-.516-1.662,3.747,3.747,0,0,0-2.623-1.423,9.119,9.119,0,0,0-7.385,1.789,4,4,0,0,0-1.249,1.643,5.418,5.418,0,0,0,.177,3.164l.751,2.876c.288,1.1.7,2.356,1.765,2.771.564.22,1.229.157,1.739.482C627.27,269.473,627.147,270.811,627.614,271.77Z" transform="translate(-613.268 -247.882)" fill="#efd1b9"/>
              <path id="Path_19843" data-name="Path 19843" d="M598.205,240.693a14.2,14.2,0,0,1,.36-3.336c.392-1.788,2.5-2.591,4.327-2.718,3.944-.274,7.75-2.061,11.6-.681,2.2.789,5.158.978,7.15,2.09a5.884,5.884,0,0,1,2.012,1.99,8.862,8.862,0,0,1,.012,9.371,12.677,12.677,0,0,1-1.381,1.736c-1.041,1.126-2.285,2.516-3.715,2.931-.032-1.279,1.138-5.309.157-6.359-1.556-1.665-5.08-1.09-7.014-.683-2.109.444-3.991,1.934-6.082,2.251a7.879,7.879,0,0,1-4.7-1.292A5.981,5.981,0,0,1,598.205,240.693Z" transform="translate(-598.202 -233.44)" fill="#3b455a"/>
            </g>
            <path id="Path_19844" data-name="Path 19844" d="M609.754,299.288l-13.216,52.865-1.083,6.933,16.466,2.167s-.65-25.315-.433-28.69,2.659-10.676,3.033-18.541c.217-4.55,1.662-12.722.65-15.383Z" transform="translate(-577.739 -275.13)" fill="#fff"/>
          </g>
        </g>
        <g id="Group_4069" data-name="Group 4069" transform="translate(109.451 0)">
          <g id="Group_4068" data-name="Group 4068">
            <path id="Path_19856" data-name="Path 19856" d="M417.363,15.753C381.68,20.512,365.193,2.781,362.988.182c0,0-.03-.244-.13-.155-.085-.1-.154.133-.154.133C360.11,2.37,340.991,17.226,306.534,6.8c0,0-10.48,62.659,7.884,90.05,19.614,29.255,37.372,39.056,37.47,38.992.087.079,19.332-6.574,43.242-32.473C417.5,79.141,417.363,15.753,417.363,15.753Z" transform="translate(-303.557 0)" fill="#ebb044"/>
            <path id="Path_19857" data-name="Path 19857" d="M420.455,35.532C388.085,39.72,373.1,23.91,371.1,21.592c0,0-.027-.217-.119-.139-.077-.092-.139.118-.139.118-2.351,1.965-19.676,15.167-50.955,5.838,0,0-9.423,55.777,7.278,80.191,17.837,26.075,33.823,36.328,33.912,36.271.079.07,17.67-7.328,39.328-30.356C420.665,91.971,420.455,35.532,420.455,35.532Z" transform="translate(-312.304 -13.703)" fill="#efb75e"/>
            <g id="Group_4067" data-name="Group 4067" transform="translate(6.58 4.809)" opacity="0.02">
              <path id="Path_19858" data-name="Path 19858" d="M373.3,21.932s.065-.221.146-.124c.1-.083.124.145.124.145,2.059,2.38,17.189,18.345,49.74,14.83.307-5.737.294-9.345.294-9.345-32.37,4.188-47.353-11.622-49.358-13.94,0,0-.027-.217-.118-.139-.078-.092-.139.118-.139.118-2.35,1.966-19.677,15.167-50.955,5.838,0,0-.6,3.557-1.229,9.266C353.384,37.287,370.888,23.951,373.3,21.932Z" transform="translate(-321.806 -13.337)"/>
            </g>
          </g>
          <path id="Path_19859" data-name="Path 19859" d="M427.873,81.132c-24.464,3.263-38.585-9.7-40.1-11.482,0,0-.021-.168-.089-.107-.058-.071-.106.091-.106.091-1.778,1.516-17.64,12.027-41.264,4.88,0,0-4.431,42.633,8.16,61.412,13.448,20.057,25.622,26.776,25.689,26.732.059.054,13.254-4.507,29.646-22.263C425.149,123.783,427.873,81.132,427.873,81.132Z" transform="translate(-330.417 -44.457)" fill="#fff" opacity="0.34"/>
        </g>
        <g id="Group_4070" data-name="Group 4070" transform="translate(84.719 85.011)">
          <path id="Path_19860" data-name="Path 19860" d="M259.667,630.838l-.07.731L259.363,634l-4.912,2.1-2.106-2.588,2.573-2.266.237-.1.029.3Z" transform="translate(-239.077 -488.392)" fill="#282e3a"/>
          <path id="Path_19861" data-name="Path 19861" d="M257.153,555.271l-.25.034.163-1.7-4.675,2L248.5,514.649l-.479-1.935c3.676.054,8.043.109,12.444.143Z" transform="translate(-236.314 -412.86)" fill="#3b455a"/>
          <path id="Path_19862" data-name="Path 19862" d="M264.65,627.831l-4.484.609-.029-.3,4.675-2Z" transform="translate(-244.06 -485.386)" fill="#909497"/>
          <path id="Path_19863" data-name="Path 19863" d="M302.108,513.053l-.9,10.722-9.069,27.8-4.431-.589-.072.544-.025,0,3.266-28.649-2.8-9.786C293.219,513.122,298.249,513.121,302.108,513.053Z" transform="translate(-261.624 -413.076)" fill="#3b455a"/>
          <path id="Path_19864" data-name="Path 19864" d="M291.725,619.809l.279.037,2.027,2.782-2.683,2.156-4.382-3.095.256-1.925,4.33.575Z" transform="translate(-261.215 -481.311)" fill="#282e3a"/>
          <path id="Path_19865" data-name="Path 19865" d="M292.179,618.845l-.173.53-4.33-.575.072-.544Z" transform="translate(-261.669 -480.347)" fill="#3e3d3b"/>
          <path id="Path_19866" data-name="Path 19866" d="M278.813,304.474a14.01,14.01,0,0,0-2.014-3.821,6.86,6.86,0,0,0-5.753-2.449l-.033,0a3.7,3.7,0,0,0,.127-.861c.03-1.577-1.144-2.876-1.9-4.259q-.107-.194-.2-.408a7.317,7.317,0,0,1-.387-1.155l.33.157a5.293,5.293,0,0,0,2.6,1.237l9.1,4.335,3.649,14.854-.94.411C280.508,311.388,279.845,307.047,278.813,304.474Z" transform="translate(-249.504 -271.423)" fill="#ccd2d9"/>
          <path id="Path_19867" data-name="Path 19867" d="M234.14,333.308c-.569,2.683-2.693,4.651-4.766,6.513a112.963,112.963,0,0,1,4.643-10.367A9.156,9.156,0,0,1,234.14,333.308Z" transform="translate(-224.389 -295.677)" fill="#d0cfd1"/>
          <path id="Path_19868" data-name="Path 19868" d="M219.8,383.314a11.8,11.8,0,0,0,5.6,1.192,21.326,21.326,0,0,1,4.614.152,4.285,4.285,0,0,1,3.381,2.807c.21.825.142,1.862.855,2.327a2.2,2.2,0,0,0,1.156.248c1.221.035,2.608,0,3.427-.9,1.269-1.4.528-4.212,2.242-5.009a6.269,6.269,0,0,1,1.628-.29c2.32-.392,3.455-3.016,3.231-5.426a4.4,4.4,0,0,0,2.7,1.32,5.237,5.237,0,0,0,3.144-1.47q.906-.71,1.846-1.394l.037.15,9.408,48.668c-1.12.143-3.368.232-6.283.284l.668-7.921-16.4,2.021,1.7,5.937c-.764,0-1.532-.01-2.3-.016l.469-6-15.673-5.3,2.76,11.156c-5.635-.083-9.641-.162-9.641-.162s-3.424-25.152-.384-43.743A7.343,7.343,0,0,0,219.8,383.314Z" transform="translate(-216.304 -325.995)" fill="#ccd2d9"/>
          <path id="Path_19869" data-name="Path 19869" d="M256.04,487.07l-.469,6c-4.4-.034-8.769-.089-12.444-.143l-2.76-11.157Z" transform="translate(-231.418 -393.074)" fill="#d0cfd1"/>
          <path id="Path_19870" data-name="Path 19870" d="M300.6,491.084l-.668,7.921c-3.859.068-8.889.069-14.033.037l-1.7-5.937Z" transform="translate(-259.449 -399.029)" fill="#d0cfd1"/>
          <path id="Path_19871" data-name="Path 19871" d="M366.951,314.781c.14-.605,3.32-3.842,3.505-3.4a8.082,8.082,0,0,1,.393,1.525c1.295-.695,4.43-3.409,4.241-.272-.082,1.359-2.466,3.708-3.659,4.12l-.081.027-4.379-.763A2.237,2.237,0,0,1,366.951,314.781Z" transform="translate(-312.311 -283.976)" fill="#e2d0b5"/>
          <path id="Path_19872" data-name="Path 19872" d="M331.9,324.623l.056.01a9.273,9.273,0,0,0,1.219,1.866c1.042-.391,2.1-.741,3.16-1.1l1.138.2c-5.813,7.5-15.048,12.149-22.854,17.867l-2.5-10.188Z" transform="translate(-277.298 -292.587)" fill="#ccd2d9"/>
          <path id="Path_19873" data-name="Path 19873" d="M283.708,336.967a4.4,4.4,0,0,1-2.7-1.32,5.907,5.907,0,0,0-.314-1.448c-.958-2.674-3.179-4.658-4.861-6.947-3.284-4.468-5.5-10.439-3.485-15.727a14.466,14.466,0,0,0,.536-1.511l.033,0a6.86,6.86,0,0,1,5.753,2.449,14.012,14.012,0,0,1,2.014,3.821c1.033,2.573,1.7,6.914,4.57,8.046l.94-.411,2.5,10.188q-.937.686-1.846,1.394A5.237,5.237,0,0,1,283.708,336.967Z" transform="translate(-251.376 -283.229)" fill="#ccd2d9"/>
          <path id="Path_19874" data-name="Path 19874" d="M367.142,324.65l4.379.763c-1.055.363-2.118.712-3.16,1.1A9.272,9.272,0,0,1,367.142,324.65Z" transform="translate(-312.483 -292.605)" fill="#d0cfd1"/>
          <path id="Path_19875" data-name="Path 19875" d="M267.973,268.424c-.853-3.694.071-9.531,2.542-11.709a4.693,4.693,0,0,1,3.318-1.021c.585,0,.78.147,1.082.094a5.985,5.985,0,0,1,1.424,4c-.1,1.15-.758,2.027-.811,3.262-.105,2.249-3.32,4.506-2.085,6.739a5.29,5.29,0,0,1-2.5.223l-2.6-1.237Q268.155,268.606,267.973,268.424Z" transform="translate(-248.872 -248.512)" fill="#e5b6a8"/>
          <path id="Path_19876" data-name="Path 19876" d="M272.162,293.2a5.292,5.292,0,0,1-2.6-1.237Z" transform="translate(-250.089 -271.702)" fill="#e5b6a8"/>
          <path id="Path_19877" data-name="Path 19877" d="M285.279,260c.053-1.235.716-2.112.811-3.262a5.985,5.985,0,0,0-1.424-4,1.49,1.49,0,0,0,.516-.228,3.32,3.32,0,0,0,1.045-1.586,5.2,5.2,0,0,1,2.213,4.033,15.066,15.066,0,0,1-.5,6.631,8.2,8.2,0,0,1-4.391,5.019c-.12.047-.239.088-.357.127C281.958,264.5,285.174,262.246,285.279,260Z" transform="translate(-258.623 -245.463)" fill="#e5b6a8"/>
          <path id="Path_19878" data-name="Path 19878" d="M215.624,288.68a5.839,5.839,0,0,0,1.608,3.044q.1-.6.2-1.185-.107.588-.2,1.185a7.334,7.334,0,0,0,1.814,1.369,11.8,11.8,0,0,0,5.6,1.192,21.325,21.325,0,0,1,4.614.153,4.284,4.284,0,0,1,3.381,2.807c.211.825.142,1.861.855,2.327a2.2,2.2,0,0,0,1.156.248c1.221.035,2.608,0,3.427-.9,1.269-1.4.528-4.212,2.242-5.009a6.269,6.269,0,0,1,1.628-.29c2.32-.392,3.455-3.016,3.231-5.426a5.9,5.9,0,0,0-.314-1.448c-.958-2.674-3.179-4.658-4.861-6.947-3.284-4.468-5.5-10.439-3.485-15.727a14.367,14.367,0,0,0,.536-1.511,3.715,3.715,0,0,0,.128-.861c.029-1.577-1.144-2.876-1.9-4.259q-.107-.194-.2-.408a7.313,7.313,0,0,1-.387-1.155c-.016-.063-.031-.126-.046-.19a9.181,9.181,0,0,1-1.729-9.863q.131-.275.277-.538-.147.263-.277.538a9.181,9.181,0,0,0,1.729,9.863c-.853-3.694.072-9.531,2.542-11.709a4.693,4.693,0,0,1,3.318-1.021c.585,0,.78.147,1.082.094a1.489,1.489,0,0,0,.516-.228,3.32,3.32,0,0,0,1.045-1.586,5.2,5.2,0,0,1,2.213,4.033,15.066,15.066,0,0,1-.5,6.631,8.2,8.2,0,0,1-4.391,5.019c-.12.047-.239.088-.357.127a2.91,2.91,0,0,0,.4.555c1.128,1.241,2.937,1.529,4.6,1.743a1.227,1.227,0,0,0,.6-.023.864.864,0,0,0,.475-.817,3.5,3.5,0,0,0-.21-.978c-.966-3.364.746-7.207,1.031-10.6s-.414-7.069-3.131-9.357a7.331,7.331,0,0,0-1.337.514c-.043-.057-.086-.112-.131-.167-3.933-4.723-9.486-.685-12.474,2.921A26.126,26.126,0,0,0,224.488,251a40.7,40.7,0,0,0-.8,12.32,60.4,60.4,0,0,0,1.49,6.233,9.156,9.156,0,0,1,.123,3.853c-.569,2.683-2.693,4.651-4.766,6.513q-.283.726-.564,1.473t-.557,1.515q-.178.5-.345,1.006.167-.51.345-1.006.276-.768.557-1.515t.564-1.473c-.287.258-.573.513-.853.769C217.371,282.788,215.1,285.6,215.624,288.68ZM236.3,241.932a9.206,9.206,0,0,1,.94-.546A9.206,9.206,0,0,0,236.3,241.932Z" transform="translate(-215.548 -235.774)" fill="#3b455a"/>
        </g>
        <g id="Group_4071" data-name="Group 4071" transform="translate(2 24.95)">
          <path id="Path_19879" data-name="Path 19879" d="M83.417,133.717l-54.838,6.452-4.465-37.947L49.768,83.988,78.953,95.77Z" transform="translate(-15.42 -78.656)" fill="#fff"/>
          <path id="Path_19880" data-name="Path 19880" d="M71.654,87.007,59.231,81.172l-20.09-9.435c-1.618-.76-3.226-1.572-4.861-2.283a2.641,2.641,0,0,0-2.877.4c-.552.446-1.091.913-1.637,1.369L13.981,84.429C9.712,88,5.383,91.5,1.168,95.147c-.07.061-.142.119-.212.178a3.052,3.052,0,0,0-.444,3.918,2.4,2.4,0,0,0,3.522.6l10.388-8.69L30.9,77.368l2.664-2.229,11.263,5.289,20.247,9.509,4.635,2.177A2.406,2.406,0,0,0,73,90.715,3.038,3.038,0,0,0,71.654,87.007Z" transform="translate(0 -69.199)" fill="#ebb044"/>
          <rect id="Rectangle_1198" data-name="Rectangle 1198" width="13.463" height="25.522" transform="translate(24.539 33.331) rotate(-6.71)" fill="#ccd2d9"/>
        </g>
        <g id="Group_4073" data-name="Group 4073" transform="translate(168.883 124.918)">
          <g id="Group_4072" data-name="Group 4072">
            <path id="Path_19881" data-name="Path 19881" d="M514.25,346.946c-5.494-.543-12.467,2.274-14.2,6.943-1.571-4.726-9.961-7.762-15.471-7.409-14.539.932-19.732,17.038-13.764,28.032,3.212,5.917,7.885,11.123,13,15.813,4.284,3.928,15.362,12.292,15.4,12.265.034.029,11.394-7.949,15.81-11.727,5.274-4.511,10.123-9.553,13.537-15.356C534.9,364.726,528.748,348.379,514.25,346.946Z" transform="translate(-468.386 -346.453)" fill="#d34e4e"/>
          </g>
          <path id="Path_19882" data-name="Path 19882" d="M545.927,396h-9.008v-9.008h-6.161V396H521.75v6.162h9.008v9.008h6.161v-9.008h9.008Z" transform="translate(-502.508 -372.376)" fill="#fff"/>
        </g>
        <g id="Group_4074" data-name="Group 4074" transform="translate(219.921 111.319)">
          <path id="Path_19883" data-name="Path 19883" d="M618.074,391.405l-2.285,2.079-2.719-.172-.329.558.67.433-2.3.5-1.176,1.5.719,2.437,2.134,1.529,2.344-.97,1.835-2.394,3.252-2.71Z" transform="translate(-609.937 -361.598)" fill="#efd1b9"/>
          <path id="Path_19884" data-name="Path 19884" d="M626.431,339.777l11.118-8.668c1-.778,2.132-1.369,3.125-2.155,1.453-1.15,1.837-1.494,1.348-3.16-1.417-4.827-4.425-9.127-5.795-13.894a47.486,47.486,0,0,1,4.656-2.789c2.752-1.225,3.382.766,4.5,2.792,1.329,2.4,2.587,4.847,3.754,7.332.966,2.06,5.779,10.707,3.046,12.761-1.955,1.479-23.337,12.749-23.12,13.195Z" transform="translate(-620.484 -308.736)" fill="#474ebb"/>
        </g>
        <g id="Group_4085" data-name="Group 4085" transform="translate(124.712 186.068)">
          <g id="Group_4084" data-name="Group 4084">
            <path id="Path_19885" data-name="Path 19885" d="M413.31,539.093l-4.885-4.686h-.147l-.832-1.729-4.39-9.128c-1.287-2.676-2.435-7.249-6.042-7.273l-34.279-.228a9.835,9.835,0,0,0-8.946,5.868l-5.769,12.568h-.571l-11.508,3.541a11.747,11.747,0,0,0-6.656,10.509l-.045,6.742,87.035.578.064-9.591A9.848,9.848,0,0,0,413.31,539.093Z" transform="translate(-329.24 -516.049)" fill="#fff"/>
            <path id="Path_19886" data-name="Path 19886" d="M469.668,539.2l22.871.152-5.11-12.827a1.644,1.644,0,0,0-1.5-1.06l-16.165-.107Z" transform="translate(-419.035 -522.001)" fill="#ccd2d9"/>
            <path id="Path_19887" data-name="Path 19887" d="M416.543,525.131l-13.1-.087a7.171,7.171,0,0,0-6.524,4.279l-4.357,9.493,23.889.159Z" transform="translate(-369.73 -521.8)" fill="#ccd2d9"/>
            <g id="Group_4075" data-name="Group 4075" transform="translate(27.146 3.396)" opacity="0.2">
              <path id="Path_19888" data-name="Path 19888" d="M507.146,529.9l.909.5-1.4-3.51a1.644,1.644,0,0,0-1.5-1.06l-5.6-.037C502.074,527.173,504.617,528.524,507.146,529.9Z" transform="translate(-465.29 -525.671)" fill="#ffffed"/>
              <path id="Path_19889" data-name="Path 19889" d="M489.911,532.75c-4.183-2.3-8.581-4.906-12.72-7.283l-5.254.049a97.113,97.113,0,0,0,12.115,8.384c2.406,1.5,4.864,2.922,7.382,4.228.825.428,1.69.817,2.556,1.209l-2.212-5.553Q490.846,533.264,489.911,532.75Z" transform="translate(-447.632 -525.467)" fill="#dae0e5"/>
              <path id="Path_19890" data-name="Path 19890" d="M420.017,535.756c-1.758-1.153-3.58-2.218-5.414-3.244-1.857-1.04-3.74-2.084-5.688-2.946-.642-.284-1.292-.549-1.939-.817a7.469,7.469,0,0,0-2.4,2.943l-.043.093c1.968,1.394,3.949,2.771,5.9,4.176a83.921,83.921,0,0,0,9.209,5.353l4.463.03.017-2.508C422.753,537.806,421.448,536.695,420.017,535.756Z" transform="translate(-404.528 -527.566)" fill="#dae0e5"/>
            </g>
            <g id="Group_4076" data-name="Group 4076" transform="translate(19.533 30.897)">
              <path id="Path_19891" data-name="Path 19891" d="M396.829,610.29a6.239,6.239,0,0,0,.124-1.2c.027-4.029-3.8-7.32-8.554-7.351a9.645,9.645,0,0,0-4.986,1.314A16.355,16.355,0,0,1,391,607.1a13.2,13.2,0,0,1,2.532,3.146Z" transform="translate(-383.413 -601.738)" opacity="0.1"/>
            </g>
            <g id="Group_4077" data-name="Group 4077" transform="translate(64.92 31.197)">
              <path id="Path_19892" data-name="Path 19892" d="M522.388,611.122a6.419,6.419,0,0,0,.121-1.2c.027-4.028-3.712-7.319-8.351-7.35a9.246,9.246,0,0,0-4.868,1.315,15.848,15.848,0,0,1,7.411,4.048,13.128,13.128,0,0,1,2.472,3.146Z" transform="translate(-509.291 -602.571)" opacity="0.1"/>
            </g>
            <g id="Group_4080" data-name="Group 4080" transform="translate(15.037 30.885)">
              <path id="Path_19893" data-name="Path 19893" d="M386.247,609.408a7.652,7.652,0,1,1-7.6-7.7A7.652,7.652,0,0,1,386.247,609.408Z" transform="translate(-370.944 -601.705)" fill="#393b41"/>
              <g id="Group_4079" data-name="Group 4079" transform="translate(3.308 3.308)">
                <g id="Group_4078" data-name="Group 4078">
                  <path id="Path_19894" data-name="Path 19894" d="M382.865,619.263a4.343,4.343,0,1,1,5.636-2.443A4.343,4.343,0,0,1,382.865,619.263Z" transform="translate(-380.117 -610.879)" fill="#fff"/>
                </g>
                <path id="Path_19895" data-name="Path 19895" d="M389.016,629.682a3.541,3.541,0,0,0,2.259-.931,2.507,2.507,0,0,1-1.69,1.573,4.018,4.018,0,0,1-.807.113,4.1,4.1,0,0,1-.862-.019,2.554,2.554,0,0,1-1.837-1.29c.121.221.971.381,1.183.422A6.927,6.927,0,0,0,389.016,629.682Z" transform="translate(-383.929 -622.307)" opacity="0.1"/>
              </g>
            </g>
            <g id="Group_4083" data-name="Group 4083" transform="translate(60.25 31.185)">
              <path id="Path_19896" data-name="Path 19896" d="M511.644,610.24a7.652,7.652,0,1,1-7.6-7.7A7.652,7.652,0,0,1,511.644,610.24Z" transform="translate(-496.341 -602.538)" fill="#393b41"/>
              <g id="Group_4082" data-name="Group 4082" transform="translate(3.308 3.308)">
                <g id="Group_4081" data-name="Group 4081">
                  <path id="Path_19897" data-name="Path 19897" d="M508.262,620.095a4.343,4.343,0,1,1,5.635-2.442A4.343,4.343,0,0,1,508.262,620.095Z" transform="translate(-505.515 -611.712)" fill="#fff"/>
                </g>
                <path id="Path_19898" data-name="Path 19898" d="M514.412,630.514a3.539,3.539,0,0,0,2.259-.93,2.506,2.506,0,0,1-1.69,1.572,4.057,4.057,0,0,1-.807.114,4.136,4.136,0,0,1-.862-.02,2.557,2.557,0,0,1-1.838-1.29c.121.221.971.382,1.183.422A6.914,6.914,0,0,0,514.412,630.514Z" transform="translate(-509.325 -623.14)" opacity="0.1"/>
              </g>
            </g>
          </g>
          <path id="Rectangle_1199" data-name="Rectangle 1199" d="M.894,0H3.266A.894.894,0,0,1,4.16.894v0a.894.894,0,0,1-.894.894H.894A.894.894,0,0,1,0,.894v0A.894.894,0,0,1,.894,0Z" transform="translate(40.579 21.045) rotate(0.385)" opacity="0.1"/>
        </g>
        <g id="Group_4088" data-name="Group 4088" transform="translate(16.71 77.36)">
          <g id="Group_4086" data-name="Group 4086">
            <path id="Path_19899" data-name="Path 19899" d="M41.505,219.731l-.709-4.786,2.032-.392,1.211,3.17.875-.631.108,4.17-2.058.693Z" transform="translate(-40.797 -214.552)" fill="#c48270"/>
          </g>
          <g id="Group_4087" data-name="Group 4087" transform="translate(0.65 5.284)">
            <path id="Path_19900" data-name="Path 19900" d="M73.4,253.971l-18.309-4.764-8.481-20L42.6,230.791l4.78,25.832,21.091,10.864Z" transform="translate(-42.6 -229.208)" fill="#474ebb"/>
          </g>
        </g>
        <g id="Group_4095" data-name="Group 4095" transform="translate(23.343 84.403)">
          <g id="Group_4091" data-name="Group 4091" transform="translate(7.382 68.131)">
            <g id="Group_4089" data-name="Group 4089">
              <path id="Path_19901" data-name="Path 19901" d="M81.774,625.017l-.244,2.4,4.553,2.886,2.642-2.154L86.57,625.5l-4.553-2.886Z" transform="translate(-80.857 -550.658)" fill="#282e3a"/>
              <path id="Path_19902" data-name="Path 19902" d="M80.4,424.239l-.74,7.283,6.5,32.55L80.408,496.6l4.661,1.435,15.069-38.677.826-11.824-2.041-24.494Z" transform="translate(-79.664 -423.042)" fill="#3b455a"/>
            </g>
            <g id="Group_4090" data-name="Group 4090" transform="translate(17.262 0.78)">
              <path id="Path_19903" data-name="Path 19903" d="M146.339,428.1l.15,30.77L140.424,498.5l-4.458-.03L133.4,461.85,127.54,425.2Z" transform="translate(-127.54 -425.204)" fill="#3b455a"/>
              <path id="Path_19904" data-name="Path 19904" d="M150.944,629.354l4.8,2.443,2.427-2.395-2.394-2.426-4.821-.032Z" transform="translate(-142.505 -554.204)" fill="#282e3a"/>
            </g>
          </g>
          <g id="Group_4092" data-name="Group 4092" transform="translate(0 20.324)">
            <path id="Path_19905" data-name="Path 19905" d="M106.391,337.421c-3.216-9.963-3.559-20.425-4.495-30.8-.277-3.062-.572-6.192-1.846-8.99a10.544,10.544,0,0,0-6.7-5.835c-3.588-1.179-7.822-1.111-11.553-1.338-3.54-.112-6.671,13.2-10.282,19.646-2.213,3.953-4.493,7.45-5.986,11.762a93.01,93.01,0,0,0-3.642,12.656c-1.258,6.5-4.476,11.04-1.4,13.252.282.093.553.186.811.278a75.621,75.621,0,0,0,15.571,3.844,62.246,62.246,0,0,0,14.23.269c6.477-.639,12.753-1.554,18.463-4.931Z" transform="translate(-59.192 -290.453)" fill="#474ebb"/>
          </g>
          <g id="Group_4094" data-name="Group 4094" transform="translate(4.99)">
            <path id="Path_19906" data-name="Path 19906" d="M116.5,253.1c2.016-6.088,10.9-8.208,12.967-1.133a14.038,14.038,0,0,1,.572,6.556,7.008,7.008,0,0,1-3.778,5.152l-.035.014q.119.846.238,1.693a.383.383,0,0,1-.406.524l-2.021.3a2.227,2.227,0,0,1-1,0A1.872,1.872,0,0,1,122,264.393c-.008-.177-.006-.355,0-.534C118.011,262.494,115.178,257.076,116.5,253.1Z" transform="translate(-100.615 -242.676)" fill="#c48270"/>
            <g id="Group_4093" data-name="Group 4093">
              <path id="Path_19907" data-name="Path 19907" d="M137.973,234.111c1.627-.242,3.012,1.336,4.513,2.164,1.249.689,2.665.871,3.959,1.443a3.984,3.984,0,0,1,2.594,3.256,6.634,6.634,0,0,1,4.2-1.1c1.47.283,2.834,2.038,2.248,3.484-.524,1.3-2.214,1.6-2.776,2.875-.889,2.017,1.515,5.148-.126,6.486-.394.322-.931.4-1.319.73a3.81,3.81,0,0,0-.85,1.745,6.363,6.363,0,0,1-6.673,4.325,7.522,7.522,0,0,1-3.8-4.483c-.759-2.353.5-3.174.712-5.383a9.633,9.633,0,0,0-2.055-6.845,6.149,6.149,0,0,0-3.9-2.414c-.608-.058-.417.449-1.1-.022a3.046,3.046,0,0,1-.777-1.331C134.465,237.725,135.832,234.429,137.973,234.111Z" transform="translate(-111.267 -234.086)" fill="#3b455a"/>
              <path id="Path_19908" data-name="Path 19908" d="M82.141,238.583a18.589,18.589,0,0,0-2.55.55c-1.2.527-1.128,1.773-1.468,2.856a11.654,11.654,0,0,1-1.714,3.74,11.4,11.4,0,0,1-2.061,1.573,2.854,2.854,0,0,0-1.317,2.218c.014.886.609,1.681.7,2.565a12.667,12.667,0,0,0,.284,3.341,4.09,4.09,0,0,0,.966,1.906,2.945,2.945,0,0,0,2.528.469,5.333,5.333,0,0,1,2.6-.1c1.84.619,1.5,2.479,1.986,4.039a4.468,4.468,0,0,0,5.6,2.914,4.938,4.938,0,0,0,2.737-4.834c-.041-1.024-.448-1.979-.478-3-.029-.989.529-2.358-.367-3.143a7.234,7.234,0,0,1-.694-.51,1.452,1.452,0,0,1-.3-.648,2.841,2.841,0,0,1,.471-2.334c.347-.45.843-.778,1.055-1.321a4.906,4.906,0,0,0,.01-2.035,4.1,4.1,0,0,1,2.192-3.93,10.954,10.954,0,0,0,2.529-1.315c.122-.1,1.934-1.7,1.981-1.354a3.651,3.651,0,0,0-.789-1.613,7.19,7.19,0,0,0-2.062-2.045c-2.668-1.539-2.8,2.038-4.939,1.567-.517-.114-.906-.587-1.37-.87a3.087,3.087,0,0,0-2.856.057A20.081,20.081,0,0,1,82.141,238.583Z" transform="translate(-73.03 -235.428)" fill="#3b455a"/>
            </g>
          </g>
        </g>
        <g id="Group_4052" data-name="Group 4052" transform="translate(218.807 15.815)">
          <g id="Group_4050" data-name="Group 4050" transform="translate(25.524)">
            <path id="Path_19830" data-name="Path 19830" d="M711.771,47.861V45.9l-.909-1.85a.63.63,0,0,0-.911.02l-.761,1.83v1.963c-.716,0-1.884.558-1.884,1.247a1.273,1.273,0,0,0,1.3,1.247h.586v66.52c0,3.753-2,6.875-4.862,6.808-2.221-.052-4.159-1.929-4.485-4.994a1.358,1.358,0,0,0-1.365-1.2h-.051a1.336,1.336,0,0,0-1.363,1.472c.567,4.359,4.046,7.477,7.349,7.477a6.571,6.571,0,0,0,5.931-3.333c1.526-2.654,1.428-5.571,1.428-8.484V50.355h.4a1.273,1.273,0,0,0,1.3-1.247C713.471,48.419,712.488,47.861,711.771,47.861Z" transform="translate(-697.053 -43.863)" fill="#333"/>
            <path id="Path_19831" data-name="Path 19831" d="M733.248,145.695,730.64,143v-4.452h2.608Z" transform="translate(-718.53 -104.408)" opacity="0.26"/>
          </g>
          <g id="Group_4051" data-name="Group 4051" transform="translate(0 5.518)">
            <path id="Path_19832" data-name="Path 19832" d="M648.439,94.272l.4-2.45a57.417,57.417,0,0,1,9.6-23.621l6.236-8.925a40.5,40.5,0,0,0-34.568,22.391,39.834,39.834,0,0,0-3.845,12.67A39.492,39.492,0,0,1,637.424,92.8,40.422,40.422,0,0,1,648.439,94.272Z" transform="translate(-626.263 -59.237)" fill="#3b455a"/>
            <path id="Path_19833" data-name="Path 19833" d="M749.967,89.276l1.069,5.26h.4a38.872,38.872,0,0,1,12.02-1.806,39.713,39.713,0,0,1,12.072,1.794,39.852,39.852,0,0,0-5.488-15.847,40.514,40.514,0,0,0-34.7-19.51c-.434,0-.866.009-1.3.022l4.982,7.242C745.126,73.9,747.93,81.462,749.967,89.276Z" transform="translate(-695.178 -59.167)" fill="#3b455a"/>
            <path id="Path_19834" data-name="Path 19834" d="M688.167,91.792l-.4,2.45.107.031A41.651,41.651,0,0,1,704.2,91.35c6.7,0,12.746,1.182,17.009,3.226h.238l-1.069-5.26c-2.037-7.813-4.841-15.378-10.947-22.845l-4.982-7.242-.446.017-6.236,8.925A57.417,57.417,0,0,0,688.167,91.792Z" transform="translate(-665.591 -59.207)" fill="#fff"/>
          </g>
        </g>
        <g id="Group_4066" data-name="Group 4066" transform="translate(255.473 73.825)">
          <g id="Group_4061" data-name="Group 4061" transform="translate(3.509)">
            <path id="Path_19845" data-name="Path 19845" d="M738.319,210l-.634-4.888,2.077-.362L740.938,208l.9-.627.033,4.249-2.108.668Z" transform="translate(-737.685 -204.748)" fill="#efd1b9"/>
            <path id="Path_19846" data-name="Path 19846" d="M770.141,245.519l-18.561-5.187-8.272-20.524-4.116,1.539,4.4,26.4,21.282,11.451Z" transform="translate(-738.649 -214.378)" fill="#ccd2d9"/>
          </g>
          <g id="Group_4064" data-name="Group 4064" transform="translate(4.708 6.792)">
            <g id="Group_4062" data-name="Group 4062" transform="translate(5.621 71.217)">
              <path id="Path_19847" data-name="Path 19847" d="M777.484,423.923l-.032,6.55-8.871,28.343,2.04,29.487-5.464,1.065L756.6,453.3l.386-10.6,4.138-21.6Z" transform="translate(-756.598 -421.103)" fill="#474ebb"/>
              <path id="Path_19848" data-name="Path 19848" d="M795.2,440.84l8.484,60.088,3.989.019,2.679-32.739,5.618-32.725Z" transform="translate(-781.285 -430.298)" fill="#474ebb"/>
              <path id="Path_19849" data-name="Path 19849" d="M775.4,611.23l-4.188,4.39,1.193,2.242,8.618-4.086-1.568-3.275Z" transform="translate(-765.945 -542.211)" fill="#282e3a"/>
              <path id="Path_19850" data-name="Path 19850" d="M809.784,620.875l-5.152,3.2.6,2.468,9.365-1.8-.7-3.563Z" transform="translate(-787.313 -548.844)" fill="#282e3a"/>
            </g>
            <g id="Group_4063" data-name="Group 4063" transform="translate(8.141)">
              <path id="Path_19851" data-name="Path 19851" d="M781.912,243.16c3.536.277,6.859-2.612,10.337-1.874a6.739,6.739,0,0,1,4.719,4.763,5.674,5.674,0,0,1,.105,3.254,5.429,5.429,0,0,1-1.035,1.835,7.706,7.706,0,0,1-2.135,1.789,13.9,13.9,0,0,0,1.5,2.017l-4.9,1.851-1.068-2.818a7.451,7.451,0,0,1-1.458-.229,8.447,8.447,0,0,1-5.914-6.308A16.421,16.421,0,0,1,781.912,243.16Z" transform="translate(-775.263 -234.827)" fill="#efd1b9"/>
              <path id="Path_19852" data-name="Path 19852" d="M771.125,232.991l10.945-1.247,2.083,8.367,3.1-2.437-1.526-13.681-15.437-.407-6.7,3.889.264,3.931,5.958,4.052Z" transform="translate(-763.588 -223.586)" fill="#3b455a"/>
            </g>
            <path id="Path_19853" data-name="Path 19853" d="M760.866,279.025l13.019-5.091a225,225,0,0,1,11.168,31.255c5.16,18.4-1.909,43.88-1.909,43.88s-36.2-7.572-42.135-8.768l11.905-36.69Z" transform="translate(-741.009 -255.78)" fill="#ccd2d9"/>
          </g>
          <g id="Group_4065" data-name="Group 4065" transform="translate(0 2.575)">
            <path id="Path_19854" data-name="Path 19854" d="M728.256,217.03l-.3-4.919,2.1-.221.954,3.323.943-.565-.253,4.241-2.149.524Z" transform="translate(-727.953 -211.889)" fill="#efd1b9"/>
            <path id="Path_19855" data-name="Path 19855" d="M757.471,254.859,739.3,248.433,732.433,227.4l-4.211,1.258,2.606,26.633,20.462,12.86Z" transform="translate(-728.125 -221.806)" fill="#ccd2d9"/>
          </g>
        </g>
      </g>
    </g>
  </g>
</svg>
