<svg xmlns="http://www.w3.org/2000/svg" xmlns:xlink="http://www.w3.org/1999/xlink" width="112.919" height="144.284" viewBox="0 0 112.919 144.284">
  <defs>
    <linearGradient id="linear-gradient" x1="1.151" y1="-0.064" x2="0" y2="1.127" gradientUnits="objectBoundingBox">
      <stop offset="0" stop-color="#fff"/>
      <stop offset="0.502" stop-color="#98dbf9"/>
      <stop offset="1" stop-color="#fff"/>
    </linearGradient>
  </defs>
  <g id="Group_4097" data-name="Group 4097" transform="translate(-1014 -4282.001)" opacity="0.25">
    <path id="Path_19910" data-name="Path 19910" d="M135.783,31.334A96.844,96.844,0,0,1,85.251,17.166l-1.157-.706a3.137,3.137,0,0,0-3.268,0l-1.157.706A96.844,96.844,0,0,1,29.137,31.334,3.137,3.137,0,0,0,26,34.471V83.456a81.534,81.534,0,0,0,55.437,76.657,3.118,3.118,0,0,0,2.045,0,81.534,81.534,0,0,0,55.437-76.656V34.471A3.137,3.137,0,0,0,135.783,31.334Zm-3.137,52.122A75.226,75.226,0,0,1,82.46,153.82,75.226,75.226,0,0,1,32.273,83.456V37.56A103.1,103.1,0,0,0,82.46,22.818,103.07,103.07,0,0,0,132.646,37.56Z" transform="translate(988 4266.001)" fill="url(#linear-gradient)"/>
    <path id="Path_19911" data-name="Path 19911" d="M72.429,21A108.842,108.842,0,0,1,32.788,33.326,3.137,3.137,0,0,0,30,36.444V73.579a68.655,68.655,0,0,0,42.7,63.166,3.156,3.156,0,0,0,2.421,0,68.655,68.655,0,0,0,42.7-63.166V36.444a3.137,3.137,0,0,0-2.792-3.118A108.842,108.842,0,0,1,75.4,21,3.112,3.112,0,0,0,72.429,21Zm39.123,18.218V73.579a62.341,62.341,0,0,1-37.64,56.855,62.341,62.341,0,0,1-37.64-56.855V39.217A114.914,114.914,0,0,0,73.913,27.3a114.89,114.89,0,0,0,37.64,11.919Z" transform="translate(996.547 4275.877)" fill="url(#linear-gradient)"/>
    <path id="Path_19912" data-name="Path 19912" d="M38.728,49.113l-4.435,4.435,18.82,18.82a3.137,3.137,0,0,0,4.435,0l37.64-37.64-4.435-4.435L55.33,65.715Z" transform="translate(1005.719 4296.539)" fill="url(#linear-gradient)"/>
  </g>
</svg>
