<?xml version="1.0" encoding="utf-8"?>
<!-- Generator: Adobe Illustrator 14.0.0, SVG Export Plug-In . SVG Version: 6.00 Build 43363)  -->
<!DOCTYPE svg PUBLIC "-//W3C//DTD SVG 1.1//EN" "http://www.w3.org/Graphics/SVG/1.1/DTD/svg11.dtd">
<svg version="1.1" id="Layer_1" xmlns="http://www.w3.org/2000/svg" xmlns:xlink="http://www.w3.org/1999/xlink" x="0px" y="0px"
	 width="156px" height="91.529px" viewBox="0 0 156 91.529" enable-background="new 0 0 156 91.529" xml:space="preserve">
<g id="Group_1651" transform="translate(-623 -1914)">
	<g id="Ellipse_147" transform="translate(623 1914)">
		<path fill="none" d="M1.193,0.001C0.424,4.396,0,8.912,0,13.529c0,43.078,34.922,78,78,78s78-34.922,78-78
			c0-4.487-0.4-8.88-1.128-13.161C103.624,0.618,52.622,1.616,1.193,0.001z"/>
		<path fill="none" d="M78-64.471c-38.461,0-70.397,27.846-76.807,64.472c51.428,1.615,102.431,0.617,153.679,0.368
			C148.613-36.439,116.59-64.471,78-64.471z"/>
		<path fill="none" stroke="#A2A2A2" stroke-width="3" stroke-linecap="round" stroke-dasharray="0,10" d="M2.709,0.047
			C1.93,4.426,1.5,8.927,1.5,13.529c0,42.25,34.25,76.5,76.5,76.5s76.5-34.25,76.5-76.5c0-4.487-0.408-8.878-1.15-13.153"/>
	</g>
	<g id="cross" transform="translate(666.465 1980)">
		<path id="Path_16306" fill="#59A70B" d="M66.769-51.603c-19.606-3.361-29.948-10.905-32.188-12.703
			c-0.273-0.22-0.662-0.22-0.935,0c-2.24,1.8-12.582,9.342-32.189,12.7c-0.331,0.056-0.583,0.325-0.619,0.658
			c-0.572,5.559-4,50.422,33.078,60.447c0.131,0.034,0.269,0.034,0.4,0C71.387-0.521,67.96-45.386,67.388-50.944
			C67.353-51.278,67.101-51.547,66.769-51.603L66.769-51.603z"/>
		<path id="Path_16307" fill="#59A70B" d="M45.289,4.935c21.518-16.111,19-48.801,18.52-53.491
			c-0.034-0.334-0.289-0.604-0.621-0.659C43.583-52.576,33.24-60.12,31.005-61.919c-0.141-0.112-0.319-0.172-0.5-0.163
			c1.085-0.686,2.133-1.428,3.14-2.224c0.273-0.221,0.664-0.221,0.937,0c2.239,1.8,12.582,9.342,32.188,12.7
			c0.332,0.055,0.584,0.324,0.619,0.658c0.508,4.936,3.269,40.879-22.1,55.879V4.935z"/>
		<path id="Path_16308" fill="#A3E72D" d="M30.503-62.082c-0.353,0.225-0.732,0.461-1.138,0.707c0.286-0.217,0.519-0.4,0.7-0.544
			C30.19-62.019,30.343-62.076,30.503-62.082z"/>
		<path id="Path_16309" fill="#FFF5F5" d="M59.284-46.073c-15.112-2.59-23.085-8.404-24.811-9.791c-0.21-0.169-0.51-0.169-0.721,0
			c-1.727,1.387-9.7,7.201-24.811,9.792c-0.256,0.042-0.451,0.25-0.478,0.508c-0.44,4.283-3.081,38.865,25.5,46.592
			c0.098,0.026,0.202,0.026,0.3,0c28.579-7.727,25.938-42.309,25.5-46.592C59.736-45.822,59.54-46.03,59.284-46.073L59.284-46.073z"
			/>
		<path id="Path_16310" fill="#EFE2DD" d="M40.494-1.288c18.076-12.021,16.041-38.5,15.658-42.209
			c-0.026-0.259-0.223-0.467-0.477-0.51c-15.113-2.59-23.084-8.399-24.813-9.791c-0.015-0.012-0.029-0.022-0.045-0.032
			c1.018-0.618,1.997-1.298,2.933-2.034c0.211-0.17,0.512-0.17,0.722,0c1.726,1.386,9.701,7.201,24.81,9.791
			c0.256,0.043,0.452,0.252,0.479,0.51C60.169-41.62,62.437-11.993,40.494-1.288L40.494-1.288z"/>
		<path id="Path_16311" fill="#EFE2DD" d="M30.819-53.83c-0.85,0.524-1.868,1.107-3.057,1.72c0.822-0.521,1.616-1.083,2.379-1.688
			C30.336-53.953,30.609-53.968,30.819-53.83L30.819-53.83z"/>
		<path id="Path_16312" fill="#EA4444" d="M46.54-33.108h-5.929c-0.477,0-0.861-0.385-0.862-0.86v-0.001v-5.93
			c0-0.476-0.386-0.861-0.86-0.861h-9.549c-0.476,0-0.862,0.386-0.862,0.86v0.001v5.93c0,0.477-0.385,0.861-0.861,0.861h-5.93
			c-0.476-0.001-0.861,0.385-0.862,0.859c0,0.001,0,0.002,0,0.002v9.551c0,0.475,0.385,0.86,0.861,0.86h0.001h5.93
			c0.476,0,0.861,0.386,0.861,0.86c0,0.001,0,0.001,0,0.001v5.93c0,0.477,0.386,0.861,0.861,0.861c0,0,0,0,0.001,0h9.549
			c0.476,0,0.86-0.386,0.86-0.861v-5.93c-0.001-0.476,0.386-0.861,0.86-0.861c0,0,0.001,0,0.002,0h5.929
			c0.476,0,0.862-0.385,0.862-0.86l0,0v-9.551c0-0.476-0.385-0.861-0.86-0.861C46.541-33.108,46.541-33.108,46.54-33.108z"/>
		<path id="Path_16313" fill="#D93131" d="M47.401-32.245v9.549c0.001,0.477-0.386,0.86-0.86,0.861c0,0-0.001,0-0.002,0h-5.93
			c-0.477,0-0.861,0.387-0.861,0.861v5.93c0,0.477-0.385,0.862-0.859,0.862h-0.002h-3.008c0.477,0,0.861-0.387,0.861-0.862v-8.81
			c0-0.476,0.385-0.861,0.861-0.861l0,0h5.295c0.477,0,0.861-0.385,0.861-0.86l0,0v-3.688c0-0.476-0.386-0.86-0.861-0.861h-5.295
			c-0.476,0.001-0.861-0.386-0.861-0.859c0,0,0-0.001,0-0.002v-8.912c0-0.477-0.385-0.861-0.861-0.862h3.008
			c0.476-0.001,0.861,0.386,0.861,0.86c0,0,0,0.001,0,0.002v5.93c0,0.477,0.387,0.861,0.861,0.861h5.93
			c0.477-0.001,0.861,0.385,0.862,0.859C47.401-32.246,47.401-32.245,47.401-32.245L47.401-32.245z"/>
	</g>
</g>
</svg>
