<svg xmlns="http://www.w3.org/2000/svg" xmlns:xlink="http://www.w3.org/1999/xlink" width="431.623" height="363.895" viewBox="0 0 431.623 363.895">
  <defs>
    <linearGradient id="linear-gradient" x1="0.32" x2="0.886" y2="0.52" gradientUnits="objectBoundingBox">
      <stop offset="0" stop-color="#b5e2f6"/>
      <stop offset="1" stop-color="#cae4ef"/>
    </linearGradient>
  </defs>
  <g id="Group_5065" data-name="Group 5065" transform="translate(10462 8137.996)">
    <g id="Group_4961" data-name="Group 4961" transform="translate(-10662 -8274)">
      <path id="Path_20741" data-name="Path 20741" d="M411.911,85.587a89.924,89.924,0,0,0-2.7,34.051c1.651,14.336,6.729,28.185,11.165,42.078,6.1,19.1,6.408,52.63,0,71.913-2.243,6.747-53.458,120.514-53.475,121.01,0,0,72.062.027,0,.035s-287.777,0-288.252,0c-3.379-.025-6.8-14.226-7.177-15.925C69,327.7,56.684,315.891,61.808,305.519c7.274-14.725,14.855-26.43,7.518-42.627C64.5,252.237,55.163,243.983,49.819,233.63a122.792,122.792,0,0,1-8.843-90.176C50.191,111.36,71.358,88.893,98.328,66.53c24.221-20.083,44.207-43.935,65.5-66.247H467.816s0,10.64,0,10.652c-.117,4.439-12.063,13.74-15.352,17.128-12.728,13.108-26.294,24.639-34.12,40.57a95.969,95.969,0,0,0-6.433,16.954" transform="translate(163.807 135.721)" opacity="0.46" fill="url(#linear-gradient)"/>
      <g id="Group_4861" data-name="Group 4861" transform="translate(0 -0.002)">
        <g id="Group_4859" data-name="Group 4859">
          <path id="Path_20742" data-name="Path 20742" d="M43.367,324.052a251.193,251.193,0,0,0,25.47-36.592l-.005,0,.1-.167c-2.1-1.693-10.062-9.022-4.877-19.245l.325-.642.608.386c6.581,4.182,7.248,10.312,6.706,14.6,1.831-3.338,3.655-6.823,5.429-10.448q1.286-2.631,2.565-5.421L79.6,266.5l.081-.178c-2.276-1.454-10.991-7.864-6.959-18.594l.254-.674.647.318c7.226,3.545,8.415,9.845,8.255,14.193,2.065-4.823,4.051-9.939,5.865-15.3-2.552-1.169-11.917-6.281-9.472-17.386l.154-.7.685.222c7.746,2.507,9.779,8.689,10.206,13.023,1.552-5.016,2.925-10.221,4.064-15.568-2.637-.99-12.328-5.422-10.682-16.665l.1-.712.7.173C91,210.5,93.6,216,94.481,220.227a148.726,148.726,0,0,0,1.936-15.912c-2.8-.51-13.078-3.152-13.47-14.482l-.024-.719.718.044c7.966.494,11.49,5.77,13.031,9.831a125.074,125.074,0,0,0-1.144-20.936c-2.687-.059-13.458-1-15.588-12.274l-.133-.707.718-.065c7.523-.68,11.762,3.489,14.01,7.146a112.683,112.683,0,0,0-3.294-12.924c-1.554-1.059-11.072-8.113-6.189-19.163l.289-.659.629.353c10.564,5.945,7.111,17.356,6.519,19.071a114.212,114.212,0,0,1,3.354,13.193c.869-4.213,3.452-9.631,10.836-11.526l.7-.179.112.711c1.766,11.326-8.069,15.832-10.593,16.793l.043.191-.089.005a125.887,125.887,0,0,1,1.166,19.652,14.046,14.046,0,0,1,12.162-9.006l.716-.071,0,.72c.03,11.464-10.376,14.426-13.015,14.993l.014.195-.176-.017a150.228,150.228,0,0,1-1.88,15.555,14.152,14.152,0,0,1,13.858-7.13l.718.058-.127.708c-2.022,11.29-12.8,12.339-15.487,12.423l-.021.2-.149-.043c-1,4.685-2.183,9.256-3.5,13.688a14,14,0,0,1,13.807-5.422l.712.109-.179.7c-2.62,10.324-12.146,11.3-15.645,11.3-.273,0-.493-.007-.688-.014l-.035.195-.142-.052c-1.648,4.866-3.435,9.537-5.3,13.968A14.035,14.035,0,0,1,98.314,257.1l.689.209-.273.665c-3.205,7.767-9.834,9.166-14.193,9.166a20,20,0,0,1-3.553-.312q-1.343,2.945-2.7,5.72c-1.672,3.416-3.386,6.7-5.114,9.868a14.1,14.1,0,0,1,15.295-2.248l.661.284-.345.631A14.043,14.043,0,0,1,75.8,288.755a20.237,20.237,0,0,1-5.659-.827l-.082.178L70,288.063a252.993,252.993,0,0,1-25.653,36.855.653.653,0,1,1-.979-.865M79.4,229.884c-1.671,9.519,6.115,13.932,8.655,15.1.273-2.782.4-11.732-8.655-15.1M83.9,210.11c-.986,9.614,7.1,13.46,9.712,14.447.075-2.8-.437-11.732-9.712-14.447m.4-19.585c.746,9.626,9.368,11.968,12.128,12.474-.455-2.744-2.64-11.462-12.128-12.474m-2.161-24.284c-.25,0-.5.005-.757.017,2.2,9.413,11.094,10.414,13.888,10.494-.818-2.6-4.056-10.511-13.132-10.511M73.7,248.885c-3.005,9.175,4.056,14.648,6.409,16.173.635-2.708,1.962-11.6-6.409-16.173M85.964,141.276c-3.521,9,3.238,14.866,5.494,16.516.82-2.673,2.718-11.419-5.494-16.516m20.33,20.688c-9.249,2.8-9.675,11.743-9.574,14.537,2.606-1.01,10.651-4.933,9.574-14.537m3.28,28.092c-9.555,1.367-11.337,10.121-11.664,12.909,2.707-.631,11.268-3.376,11.664-12.909m-.719,24.113c-9.627-.361-12.964,7.932-13.785,10.615,2.779-.137,11.691-1.307,13.785-10.615m-4.85,21.546c-9.609-1.052-13.507,7-14.511,9.613,2.8.088,11.733-.359,14.511-9.613m-6.781,22.44c-9.023-2.325-13.992,4.481-15.56,7.158-.042.1-.086.193-.129.289,2.783.46,11.682,1.169,15.69-7.447M64.9,269.3c-3.992,8.791,2.426,15,4.6,16.78.927-2.623,3.222-11.313-4.6-16.78m22.364,11.793c-9.036-3.418-14.831,3.4-16.452,5.68,2.681.791,11.448,2.588,16.452-5.68" transform="translate(447.109 113.488)" fill="#fff"/>
          <g id="Group_4652" data-name="Group 4652" transform="translate(484.563 357.281)">
            <g id="Group_3307" data-name="Group 3307" transform="translate(0 0)">
              <path id="Path_12" data-name="Path 12" d="M55.841,427.8s13.843-46.929,27.986-66.252,14.5-49.191-8.485-50.874-32.692,32.4-38.974,57.434S30.8,427.8,30.8,427.8Z" transform="translate(-30.772 -310.611)" fill="#fff"/>
              <path id="Path_13" data-name="Path 13" d="M45.52,401.568a.457.457,0,0,1,.631.137l7.219,11.234q2.263-9.7,4.611-18.2l-7.945-14.489a.457.457,0,0,1,.8-.439l7.492,13.663c1.863-6.718,3.739-12.877,5.583-18.493l-6.868-19.021a.456.456,0,0,1,.274-.585.461.461,0,0,1,.585.273l6.474,17.93c2.911-8.758,5.728-16.158,8.269-22.259l-4.558-16.252a.457.457,0,1,1,.88-.246l4.246,15.143c6.017-14.227,10.349-20.96,10.44-21.1a.457.457,0,0,1,.765.5c-.091.139-4.444,6.911-10.479,21.226l14.571-4.065a.457.457,0,1,1,.245.88l-15.266,4.26c-2.548,6.119-5.378,13.554-8.3,22.364L80.3,366.609a.457.457,0,0,1,.4.82L64.784,375.25c-1.858,5.663-3.75,11.878-5.63,18.667l12.989-4.946a.456.456,0,1,1,.324.853l-13.612,5.183q-2.348,8.564-4.638,18.327l12.846-5.267a.457.457,0,0,1,.346.846l-13.443,5.511q-1.573,6.823-3.082,14.231a.458.458,0,0,1-.448.366.439.439,0,0,1-.09-.009.457.457,0,0,1-.357-.539q1.508-7.449,3.1-14.292l-7.7-11.982a.457.457,0,0,1,.137-.631" transform="translate(-39.467 -312.175)" fill="#98dbf9"/>
            </g>
            <g id="Group_3308" data-name="Group 3308" transform="translate(72.607 134.132) rotate(-164)">
              <path id="Path_14" data-name="Path 14" d="M52.516,0h-20.7S-7.881,42.635,1.409,61.531,26.159,79.979,34.29,62.8,52.516,0,52.516,0" transform="translate(0 0.178)" fill="#fff"/>
              <path id="Path_15" data-name="Path 15" d="M34.1,14.491a.458.458,0,0,1-.593-.255L30.482,6.659c-1.269,3.6-2.62,7.213-4.01,10.775l4.419,10.527a.457.457,0,1,1-.842.353l-4.054-9.66c-1.617,4.1-3.274,8.122-4.906,11.955l4.781,12.634a.456.456,0,0,1-.854.322L20.572,31.823c-2.229,5.2-4.388,10.007-6.305,14.169L18.913,57.65a.457.457,0,1,1-.849.339L13.739,47.136C9.9,55.424,7.162,60.843,7.1,60.974a.457.457,0,1,1-.815-.414c.067-.132,2.835-5.615,6.709-13.982L.53,48.607a.456.456,0,1,1-.147-.9l13.068-2.128c1.938-4.206,4.123-9.076,6.374-14.335L4.677,34.461a.457.457,0,1,1-.19-.894l15.777-3.349c1.655-3.886,3.334-7.964,4.971-12.127L12.582,21.024a.457.457,0,0,1-.206-.891L25.638,17.06c1.41-3.615,2.78-7.284,4.065-10.934L20.65,9.457a.457.457,0,0,1-.316-.857l9.759-3.591q.818-2.356,1.586-4.694A.456.456,0,0,1,32.112,0a.482.482,0,0,1,.142.022A.458.458,0,0,1,32.546.6q-.77,2.361-1.6,4.749l3.41,8.55a.456.456,0,0,1-.255.594" transform="translate(9.909 0)" fill="#98dbf9"/>
            </g>
          </g>
        </g>
        <g id="Group_4860" data-name="Group 4860" transform="translate(204.563 252.896)">
          <path id="Path_20742-2" data-name="Path 20742" d="M110.73,324.052A251.193,251.193,0,0,1,85.26,287.46l.005,0-.1-.167c2.1-1.693,10.062-9.022,4.877-19.245l-.325-.642-.608.386c-6.581,4.182-7.248,10.312-6.706,14.6-1.831-3.338-3.655-6.823-5.429-10.448q-1.286-2.631-2.565-5.421l.086-.023-.081-.178c2.276-1.454,10.99-7.864,6.959-18.594l-.254-.674-.647.318c-7.226,3.545-8.415,9.845-8.255,14.193-2.065-4.823-4.051-9.939-5.865-15.3,2.552-1.169,11.917-6.281,9.471-17.386l-.154-.7-.685.222c-7.746,2.507-9.779,8.689-10.206,13.023-1.552-5.015-2.925-10.221-4.064-15.568,2.636-.99,12.328-5.422,10.682-16.665l-.1-.712-.7.173C63.1,210.5,60.494,216,59.616,220.227a148.726,148.726,0,0,1-1.936-15.912c2.8-.51,13.078-3.152,13.47-14.482l.024-.719-.718.044c-7.966.494-11.49,5.77-13.031,9.831a125.076,125.076,0,0,1,1.144-20.936c2.687-.059,13.458-1,15.588-12.274l.133-.707-.718-.065c-7.523-.68-11.762,3.489-14.01,7.146a112.684,112.684,0,0,1,3.294-12.924c1.554-1.059,11.071-8.113,6.189-19.163l-.289-.659-.629.353c-10.564,5.945-7.111,17.356-6.519,19.071a114.21,114.21,0,0,0-3.354,13.193c-.869-4.213-3.452-9.631-10.836-11.526l-.7-.179-.112.711c-1.766,11.326,8.069,15.832,10.593,16.793l-.043.191.089.005a125.888,125.888,0,0,0-1.166,19.652,14.046,14.046,0,0,0-12.162-9.006l-.716-.071,0,.72c-.03,11.464,10.376,14.426,13.015,14.993l-.014.195.176-.017a150.229,150.229,0,0,0,1.88,15.555A14.152,14.152,0,0,0,44.4,212.91l-.718.058.127.708c2.022,11.29,12.8,12.339,15.487,12.423l.021.2.149-.043c1,4.685,2.183,9.256,3.5,13.688a14,14,0,0,0-13.807-5.422l-.712.109.179.7c2.619,10.324,12.146,11.3,15.645,11.3.273,0,.493-.007.688-.014L65,246.8l.142-.052c1.648,4.866,3.435,9.537,5.3,13.968A14.034,14.034,0,0,0,55.783,257.1l-.689.209.273.665c3.205,7.767,9.834,9.166,14.193,9.166a20,20,0,0,0,3.553-.312q1.343,2.945,2.7,5.72c1.672,3.416,3.385,6.7,5.114,9.868a14.1,14.1,0,0,0-15.295-2.248l-.661.284.345.631a14.043,14.043,0,0,0,12.977,7.672,20.237,20.237,0,0,0,5.659-.827l.082.178.063-.043a252.991,252.991,0,0,0,25.652,36.855.653.653,0,1,0,.979-.865M74.692,229.884c1.671,9.519-6.115,13.932-8.655,15.1-.273-2.782-.4-11.732,8.655-15.1M70.2,210.11c.986,9.614-7.1,13.46-9.712,14.447-.075-2.8.437-11.732,9.712-14.447m-.4-19.585c-.746,9.626-9.368,11.968-12.128,12.474.455-2.744,2.64-11.462,12.128-12.474m2.161-24.284c.25,0,.5.005.757.017-2.2,9.413-11.094,10.414-13.888,10.494.818-2.6,4.056-10.511,13.131-10.511m8.432,82.644c3.005,9.175-4.056,14.648-6.409,16.173-.635-2.708-1.962-11.6,6.409-16.173M68.133,141.276c3.521,9-3.238,14.866-5.494,16.516-.82-2.673-2.718-11.419,5.494-16.516M47.8,161.964c9.249,2.8,9.675,11.743,9.573,14.537-2.606-1.01-10.651-4.933-9.573-14.537m-3.28,28.092c9.555,1.367,11.337,10.121,11.664,12.909-2.707-.631-11.267-3.376-11.664-12.909m.719,24.113c9.627-.361,12.964,7.932,13.785,10.615-2.779-.137-11.691-1.307-13.785-10.615m4.849,21.546c9.609-1.052,13.507,7,14.511,9.613-2.8.088-11.733-.359-14.511-9.613m6.781,22.44c9.023-2.325,13.992,4.481,15.56,7.158.042.1.086.193.129.289-2.783.46-11.682,1.169-15.69-7.447M89.2,269.3c3.992,8.791-2.426,15-4.6,16.78-.927-2.623-3.222-11.313,4.6-16.78M66.832,281.094c9.036-3.418,14.831,3.4,16.452,5.68-2.681.791-11.448,2.588-16.452-5.68" transform="translate(-23.124 -139.408)" fill="#fff"/>
          <g id="Group_4652-2" data-name="Group 4652" transform="translate(0 104.385)">
            <g id="Group_3307-2" data-name="Group 3307" transform="translate(30.618 0)">
              <path id="Path_12-2" data-name="Path 12" d="M68.6,427.8s-13.843-46.929-27.986-66.252-14.5-49.191,8.485-50.874,32.691,32.4,38.973,57.434S93.649,427.8,93.649,427.8Z" transform="translate(-30.772 -310.611)" fill="#fff"/>
              <path id="Path_13-2" data-name="Path 13" d="M88.88,401.568a.457.457,0,0,0-.631.137l-7.219,11.234q-2.263-9.7-4.611-18.2l7.945-14.489a.457.457,0,0,0-.8-.439L76.07,393.478c-1.863-6.718-3.739-12.877-5.583-18.493l6.868-19.021a.456.456,0,0,0-.274-.585.461.461,0,0,0-.585.273l-6.474,17.93c-2.911-8.758-5.728-16.158-8.269-22.259l4.558-16.252a.457.457,0,1,0-.88-.246l-4.246,15.143c-6.017-14.227-10.348-20.96-10.44-21.1a.457.457,0,0,0-.764.5c.091.139,4.444,6.911,10.479,21.226L45.89,346.529a.457.457,0,1,0-.245.88l15.266,4.26c2.548,6.119,5.378,13.554,8.3,22.364L54.1,366.609a.457.457,0,0,0-.4.82l15.918,7.821c1.858,5.663,3.75,11.878,5.63,18.667l-12.989-4.946a.456.456,0,1,0-.324.853l13.612,5.183q2.348,8.564,4.638,18.327l-12.846-5.267a.457.457,0,0,0-.346.846l13.443,5.511q1.573,6.823,3.082,14.231a.458.458,0,0,0,.448.366.439.439,0,0,0,.09-.009.457.457,0,0,0,.357-.539q-1.508-7.449-3.1-14.292l7.7-11.982a.457.457,0,0,0-.137-.631" transform="translate(-32.03 -312.175)" fill="#98dbf9"/>
            </g>
            <g id="Group_3308-2" data-name="Group 3308" transform="translate(0 61.198) rotate(-16)">
              <path id="Path_14-2" data-name="Path 14" d="M52.515,75.695h-20.7S-7.881,33.06,1.409,14.164,26.158-4.284,34.29,12.9s18.225,62.8,18.225,62.8" transform="translate(0 0)" fill="#fff"/>
              <path id="Path_15-2" data-name="Path 15" d="M34.1,46.733a.458.458,0,0,0-.593.255l-3.022,7.576c-1.269-3.6-2.62-7.213-4.01-10.775l4.419-10.527a.457.457,0,1,0-.842-.353l-4.054,9.66c-1.617-4.1-3.274-8.122-4.906-11.955L25.869,17.98a.456.456,0,0,0-.854-.322L20.572,29.4c-2.229-5.2-4.388-10.007-6.3-14.169L18.913,3.573a.457.457,0,1,0-.849-.339L13.739,14.088C9.9,5.8,7.162.38,7.1.25a.457.457,0,1,0-.815.414c.067.132,2.835,5.614,6.709,13.982L.531,12.617a.456.456,0,1,0-.147.9l13.068,2.128c1.938,4.206,4.123,9.076,6.374,14.334L4.677,26.763a.457.457,0,1,0-.19.894l15.777,3.349c1.655,3.886,3.334,7.964,4.971,12.127L12.582,40.2a.457.457,0,0,0-.206.891l13.263,3.073c1.41,3.615,2.78,7.284,4.064,10.934L20.65,51.766a.457.457,0,0,0-.316.857l9.758,3.591q.818,2.356,1.586,4.694a.456.456,0,0,0,.434.315.482.482,0,0,0,.142-.022.458.458,0,0,0,.292-.576q-.77-2.361-1.6-4.749l3.41-8.55a.456.456,0,0,0-.255-.594" transform="translate(9.909 14.649)" fill="#98dbf9"/>
            </g>
          </g>
        </g>
      </g>
    </g>
    <path id="Path_21525" data-name="Path 21525" d="M418.629,456.253c0,9.778-83.73,17.706-187.016,17.706S44.6,466.031,44.6,456.253s83.731-17.713,187.017-17.713,187.016,7.932,187.016,17.713" transform="translate(-10502.596 -8248.061)" fill="#c7dbe4"/>
    <g id="Group_5046" data-name="Group 5046">
      <g id="Group_5045" data-name="Group 5045" transform="translate(-10799.179 -8091.085)">
        <g id="Group_5044" data-name="Group 5044" transform="translate(393.148 38.598)">
          <path id="Path_21536" data-name="Path 21536" d="M550.055,433l6.186,1.628L582.29,457.42l-3.907,12.373h-12.7Z" transform="translate(-476.771 -368.662)" fill="#145566"/>
          <g id="Group_4964" data-name="Group 4964" transform="translate(183.319 71.634)">
            <path id="Path_21537" data-name="Path 21537" d="M927.072,457.879l-21.164,15.954L888,477.09V483.6l26.269-2.091,24.2-12.561-4.558-13.543Z" transform="translate(-888 -455.407)" fill="#d3efe4"/>
          </g>
          <g id="Group_4967" data-name="Group 4967" transform="translate(227.442 152.894)">
            <g id="Group_4965" data-name="Group 4965" transform="translate(14.695 93.493)">
              <path id="Path_21538" data-name="Path 21538" d="M1077.306,995.242l.316,3.126-5.67,3.9-3.309-2.74,2.677-3.512,5.67-3.9Z" transform="translate(-1068.643 -992.115)" fill="#211e1c"/>
            </g>
            <g id="Group_4966" data-name="Group 4966">
              <path id="Path_21539" data-name="Path 21539" d="M1046.728,706.017l.96,9.494-8.5,32.619,7.9,52.416-5.812,2.006-15.326-51.174-2.432-14.887.089-31.516Z" transform="translate(-1023.511 -704.975)" fill="#cab5a1"/>
            </g>
          </g>
          <g id="Group_4970" data-name="Group 4970" transform="translate(205.957 156.533)">
            <g id="Group_4968" data-name="Group 4968">
              <path id="Path_21540" data-name="Path 21540" d="M957.527,724.136l12.225,87.831h5.557l1-56.3,10.114-39.516Z" transform="translate(-957.527 -716.151)" fill="#cab5a1"/>
            </g>
            <g id="Group_4969" data-name="Group 4969" transform="translate(8.736 95.122)">
              <path id="Path_21541" data-name="Path 21541" d="M993.372,1008.292v3.155l-6.009,3.155-3-3.155,3-3.155Z" transform="translate(-984.358 -1008.292)" fill="#211e1c"/>
            </g>
          </g>
          <g id="Group_4972" data-name="Group 4972" transform="translate(187.355 70.976)">
            <g id="Group_4971" data-name="Group 4971">
              <path id="Path_21542" data-name="Path 21542" d="M963.391,525.792c-4.746-31.188-3.051-53.9-3.3-60.138a12.942,12.942,0,0,0-4.625-9.474c-1.92-.428-3.592-1.665-5.532-2.153-13.122-3.3-20.28,6.718-25.192,17.525a309.782,309.782,0,0,0-15.248,41.11c-3.608,12.318-7.223,24.748-8.737,37.532-.625,5.275-1.145,10.277,4.63,12.6,9.2,3.708,19.545,3.627,29.265,4.816,11.166,1.366,22.346,2.364,33.586,2.831C974.109,570.689,968.137,556.98,963.391,525.792Z" transform="translate(-900.393 -453.387)" fill="#b5d6ca"/>
            </g>
          </g>
          <path id="Path_21543" data-name="Path 21543" d="M748.454,259.507c-39.807.786-55.717-20.753-57.817-23.884,0,0,0-.272-.124-.187-.081-.124-.186.127-.186.127-3.126,2.107-25.986,16.052-62.555.306,0,0-19.32,67.554-2.55,99.942,17.912,34.593,36.206,47.574,36.322,47.516.085.1,22.063-4.817,51.564-30.3C740.709,329.183,748.454,259.507,748.454,259.507Z" transform="translate(-522.848 -235.402)" fill="#ebb044"/>
          <path id="Path_21544" data-name="Path 21544" d="M752.42,282.907c-36.094.571-50.591-18.669-52.505-21.466,0,0,0-.242-.113-.167-.074-.111-.168.113-.168.113-2.828,1.867-23.512,14.217-56.723.07,0,0-17.3,60.122-1.989,89.031,16.354,30.877,32.646,44.134,32.751,44.083.078.087,20.331-5.852,47-28.462C745.622,344.957,752.42,282.907,752.42,282.907Z" transform="translate(-533.785 -252.829)" fill="#dd9b4b"/>
          <g id="Group_4973" data-name="Group 4973" transform="translate(107.234 5.236)">
            <path id="Path_21545" data-name="Path 21545" d="M711.744,260.83s.1-.234.176-.118c.116-.079.118.175.118.175,1.966,2.872,16.605,22.3,52.814,22.491,1.052-6.267,1.487-10.233,1.487-10.233-36.094.571-50.591-18.669-52.505-21.465,0,0,0-.243-.113-.168-.074-.111-.168.113-.168.113-2.828,1.867-23.512,14.217-56.724.07,0,0-1.1,3.834-2.505,10.029C687.943,275.223,708.839,262.748,711.744,260.83Z" transform="translate(-654.324 -251.482)" fill="#e8a154"/>
          </g>
          <g id="Group_4974" data-name="Group 4974" transform="translate(112.075 27.298)">
            <path id="Path_21546" data-name="Path 21546" d="M762.15,337c-27.291.539-41.194-15.465-42.634-17.612,0,0,0-.187-.085-.129-.055-.085-.127.087-.127.087-2.143,1.445-20.883,11.02-45.954.225,0,0-10.179,46.3,1.319,68.5,12.28,23.716,24.822,32.617,24.9,32.577.059.067,15.127-3.3,35.352-20.774C753.845,383.535,762.15,337,762.15,337Z" transform="translate(-669.193 -319.239)" fill="#edcb9d"/>
          </g>
          <g id="Group_4975" data-name="Group 4975" transform="translate(193.924 142.809)">
            <path id="Path_21547" data-name="Path 21547" d="M920.57,693.467l17.071-7.745L948.712,674l3.582,3.907-9.117,14-13.938,10.766Z" transform="translate(-920.57 -674)" fill="#3ababa"/>
          </g>
          <g id="Group_4976" data-name="Group 4976" transform="translate(170.193 136.761)">
            <path id="Path_21548" data-name="Path 21548" d="M857.666,690.126l-9.106-15.595-.876-18.865,5.2-.242L856,673.208l8.478,7.1Z" transform="translate(-847.684 -655.425)" fill="#3ababa"/>
          </g>
          <g id="Group_4977" data-name="Group 4977" transform="translate(178.178 215.149)">
            <path id="Path_21549" data-name="Path 21549" d="M872.21,898.572v36.285h5.477l3.423-21.908,3.081-16.773Z" transform="translate(-872.21 -896.176)" fill="#1a3151"/>
          </g>
          <g id="Group_4978" data-name="Group 4978" transform="translate(190.159 213.78)">
            <path id="Path_21550" data-name="Path 21550" d="M909.005,891.971l2.054,15.746,2.738,25.331,5.477-.342V913.194l2.738-19.854Z" transform="translate(-909.005 -891.971)" fill="#1a3151"/>
          </g>
          <g id="Group_4979" data-name="Group 4979" transform="translate(170.124 160.858)">
            <path id="Path_21551" data-name="Path 21551" d="M864.942,729.469s-5.82-1.027-8.216,7.873-8.9,34.915-9.242,48.608,8.558,4.792,19.169,6.5,19.34,1.883,19.34-4.279S889.759,729.64,864.942,729.469Z" transform="translate(-847.475 -729.433)" fill="#3ababa"/>
          </g>
          <g id="Group_4983" data-name="Group 4983" transform="translate(180.352 133.55)">
            <g id="Group_4981" data-name="Group 4981" transform="translate(1.137 5.359)">
              <g id="Group_4980" data-name="Group 4980">
                <path id="Path_21552" data-name="Path 21552" d="M885.14,666.319c4.847-8.548,15.705-3.078,16.449,5.437.423,4.842-2.818,12.917-8.521,12.508-.356.781-.978,2.262-1.781,2.592-.869.357-2.784-.92-3.545-1.393a1.342,1.342,0,0,1-.537-.5,2.519,2.519,0,0,1,.227-1.469,8.016,8.016,0,0,1-1.733-1,9.339,9.339,0,0,1-3.314-7.84A18.746,18.746,0,0,1,885.14,666.319Z" transform="translate(-882.378 -662.024)" fill="#fcd8b9"/>
              </g>
            </g>
            <g id="Group_4982" data-name="Group 4982">
              <path id="Path_21553" data-name="Path 21553" d="M889.551,653s7.756,1.939,7.756,5.171c0,4.858.323,8.118,0,11.006l5.493-3.251,3.232-9.048s-.646-7.432-4.524-8.725a105.547,105.547,0,0,0-11.956-2.585l-6.14,1.939-4.524-.323,1.564,13.572S882.442,651.06,889.551,653Z" transform="translate(-878.887 -645.566)" fill="#1a3151"/>
            </g>
          </g>
          <g id="Group_4984" data-name="Group 4984" transform="translate(175.097 253.83)">
            <path id="Path_21554" data-name="Path 21554" d="M865.829,1014.974l-3.081,3.081,1.369,2.054,6.162-2.054v-3.081Z" transform="translate(-862.748 -1014.974)" fill="#2a2c2d"/>
          </g>
          <g id="Group_4985" data-name="Group 4985" transform="translate(195.864 254.564)">
            <path id="Path_21555" data-name="Path 21555" d="M926.527,1017.464l1.141,4.507,3.765,1.369,2.054-1.027-3.188-5.085Z" transform="translate(-926.527 -1017.228)" fill="#2a2c2d"/>
          </g>
          <g id="Group_4986" data-name="Group 4986" transform="translate(222.066 136.296)">
            <path id="Path_21556" data-name="Path 21556" d="M1007,660.512l.651-3.907h1.3l2.6-2.6.977,1.954-.651,4.884-2.31,2.221Z" transform="translate(-1007 -654)" fill="#fcd8b9"/>
          </g>
          <g id="Group_4987" data-name="Group 4987" transform="translate(168.993 127.831)">
            <path id="Path_21557" data-name="Path 21557" d="M849.317,636.98l2.823-4.422-1.3-1.628-1.628,1.628L847.582,628,844,629.628l1.841,7.513Z" transform="translate(-844 -628)" fill="#fcd8b9"/>
          </g>
          <g id="Group_4988" data-name="Group 4988" transform="translate(182.733 77.576)">
            <path id="Path_21558" data-name="Path 21558" d="M950.6,486.738l-30.281,22.52L886.2,507.368l.2-6.891,29.188-3.264,23.047-19.765,12.339-3.795Z" transform="translate(-886.199 -473.654)" fill="#d3efe4"/>
          </g>
          <g id="Group_4989" data-name="Group 4989" transform="translate(171.575 104.357)">
            <path id="Path_21559" data-name="Path 21559" d="M863.331,556.115l-7.683-.208-3.716,3.789,1.045,2.063,4.346.806,5.821-1.646Z" transform="translate(-851.932 -555.907)" fill="#fcd8b9"/>
          </g>
          <g id="Group_4994" data-name="Group 4994" transform="translate(220.327 36.27)">
            <g id="Group_4990" data-name="Group 4990" transform="translate(0 5.29)">
              <path id="Path_21560" data-name="Path 21560" d="M1010.51,363.042s-4.206,1.991-5.177,12.928a66.888,66.888,0,0,1-3.674,17.6s3.21,2.544,6.251,1.553,4.109-1.075,4.185-5.6,3.169-25.411,3.169-25.411Z" transform="translate(-1001.659 -363.042)" fill="#1a3151"/>
            </g>
            <g id="Group_4991" data-name="Group 4991" transform="translate(5.295 3.367)">
              <path id="Path_21561" data-name="Path 21561" d="M1029.264,364.771a10.979,10.979,0,0,0-9.8,7.042,9.676,9.676,0,0,1,5.835-14.676,11.189,11.189,0,0,1,3.648,7.63Z" transform="translate(-1017.922 -357.137)" fill="#1a3151"/>
            </g>
            <g id="Group_4992" data-name="Group 4992" transform="translate(4.792 8.661)">
              <path id="Path_21562" data-name="Path 21562" d="M1018.761,379.08c4.777-10.407,17.93-5.136,19.641,4.678.973,5.581-1.988,15.279-8.65,15.37-.336.943-.911,2.724-1.809,3.187-.973.5-3.325-.791-4.255-1.265a1.566,1.566,0,0,1-.673-.529,2.935,2.935,0,0,1,.116-1.729,9.336,9.336,0,0,1-2.112-.991,10.885,10.885,0,0,1-4.627-8.774A21.842,21.842,0,0,1,1018.761,379.08Z" transform="translate(-1016.378 -373.396)" fill="#fcd8b9"/>
            </g>
            <g id="Group_4993" data-name="Group 4993" transform="translate(12.409)">
              <path id="Path_21563" data-name="Path 21563" d="M1040.3,350.2s-2.788,5.595,4.371,9.12,10.6,10.668,7.743,16.595-9.6,9.143-7.043,11.524,13.818,3.433,13.818,3.433,12.057-20.408,5.544-32.156S1045.474,343.45,1040.3,350.2Z" transform="translate(-1039.77 -346.795)" fill="#1a3151"/>
            </g>
          </g>
          <g id="Group_5005" data-name="Group 5005" transform="translate(36.979 25.583)">
            <path id="Path_21573" data-name="Path 21573" d="M449.9,314.91a7.235,7.235,0,0,0-4.492,2.351c-1.658,2.075-6.908,11.481-6.849,18.783s-1.07,16.374,13.371,22.7c7.192,2.347,7.355-4.1,13.107-4.487s10.722,1.617,9.934-7.325-6.432-10.958-9.562-20.94S457.349,311.977,449.9,314.91Z" transform="translate(-438.556 -313.974)" fill="#3ababa"/>
          </g>
          <g id="Group_5006" data-name="Group 5006" transform="translate(23.793 27.096)">
            <path id="Path_21574" data-name="Path 21574" d="M420.51,318.619l-12.793,4.328-9.659,1.4.144,4.191,9.424,1.321,10.133-1.994Z" transform="translate(-398.057 -318.619)" fill="#3ababa"/>
          </g>
          <g id="Group_5007" data-name="Group 5007" transform="translate(58.192 25.965)">
            <path id="Path_21575" data-name="Path 21575" d="M503.7,315.146l9.331,3.381,7.829-2.77,1.216,2.623-7.384,5.355-7.387.5Z" transform="translate(-503.705 -315.146)" fill="#3ababa"/>
          </g>
          <g id="Group_5011" data-name="Group 5011" transform="translate(37.379 0.945)">
            <g id="Group_5008" data-name="Group 5008" transform="translate(17.147 4.058)">
              <path id="Path_21576" data-name="Path 21576" d="M493.737,253.746s5.843,3.851,5.311,9.667c0,0,3.83-3.072,2.189-7.35S498.5,250.1,494.45,251,493.737,253.746,493.737,253.746Z" transform="translate(-492.444 -250.767)" fill="#1a3151"/>
            </g>
            <g id="Group_5009" data-name="Group 5009" transform="translate(6.935 6.865)">
              <path id="Path_21577" data-name="Path 21577" d="M477.837,265.986c-.709-8.664-11.46-8.315-15.226-1.758-2.142,3.729-2.546,11.416,2.184,13.21-.005.76-.056,2.18.464,2.743.564.61,2.577.3,3.363.2a1.191,1.191,0,0,0,.617-.2,2.229,2.229,0,0,0,.365-1.264,7.08,7.08,0,0,0,1.763-.159,8.264,8.264,0,0,0,5.578-5.06A16.585,16.585,0,0,0,477.837,265.986Z" transform="translate(-461.082 -259.386)" fill="#fcd8b9"/>
            </g>
            <g id="Group_5010" data-name="Group 5010">
              <path id="Path_21578" data-name="Path 21578" d="M459.587,247.623c-3.011,3.16-7.787,3.362-10.655,6.43,0,0-1.875,2.007-1.394,6.788a7.86,7.86,0,0,1-7.2-4.779c-2.2-4.99,2.859-14.825,2.859-14.825a17.949,17.949,0,0,1,13.7-2.482c2.637.62,5.012,2.607,4.437,5.611A6.444,6.444,0,0,1,459.587,247.623Z" transform="translate(-439.783 -238.304)" fill="#1a3151"/>
            </g>
          </g>
          <g id="Group_5012" data-name="Group 5012" transform="translate(43.404 25.965)">
            <path id="Path_21579" data-name="Path 21579" d="M461.025,316.384s-.589,4.381,1.731,4.877,7.673-.48,8.594-1.283c1.278-1.114,0-4.336,0-4.336l1.723-.5s7.964,16.262,1.549,18.7-14.536,3.133-15.865-2,.57-14.762.57-14.762Z" transform="translate(-458.288 -315.146)" fill="#b5d6ca"/>
          </g>
          <g id="Group_5013" data-name="Group 5013" transform="translate(18.868 32.166)">
            <path id="Path_21580" data-name="Path 21580" d="M387.873,335.3l-4.728-1.112-.213.995,3.222,2.768-.8.521.592.473,2.039-.523Z" transform="translate(-382.932 -334.19)" fill="#fcd8b9"/>
          </g>
          <g id="Group_5014" data-name="Group 5014" transform="translate(75.466 25.41)">
            <path id="Path_21581" data-name="Path 21581" d="M556.757,314.948l1.218-1.505,2.391.164.64,1.87-1.088,1.847-2.069-.223Z" transform="translate(-556.757 -313.443)" fill="#fcd8b9"/>
          </g>
          <g id="Group_5015" data-name="Group 5015" transform="translate(63.553 131.099)">
            <path id="Path_21582" data-name="Path 21582" d="M551.039,642.211l1.18,50.38L543.5,757.669l-7.3.087-5.322-59.89-10.7-59.827Z" transform="translate(-520.17 -638.039)" fill="#1a3151"/>
          </g>
          <g id="Group_5016" data-name="Group 5016" transform="translate(79.609 249.853)">
            <path id="Path_21583" data-name="Path 21583" d="M569.482,1002.853l.047,3.948,7.942,3.854,3.9-3.995-3.994-3.9Z" transform="translate(-569.482 -1002.76)" fill="#1a3151"/>
          </g>
          <g id="Group_5017" data-name="Group 5017" transform="translate(47.859 251.849)">
            <path id="Path_21584" data-name="Path 21584" d="M478.875,1008.889l6.278,5.336-1.569,3.139-11.614-2.511v-5.964Z" transform="translate(-471.97 -1008.889)" fill="#1a3151"/>
          </g>
          <g id="Group_5018" data-name="Group 5018" transform="translate(41.628 148.334)">
            <path id="Path_21585" data-name="Path 21585" d="M480.309,697.726l-5.218,48.832-6.885,48.675-9.82-.467.358-50.495-5.911-46.834,13.883-6.467Z" transform="translate(-452.832 -690.971)" fill="#1a3151"/>
          </g>
          <g id="Group_5019" data-name="Group 5019" transform="translate(33.83 65.151)">
            <path id="Path_21586" data-name="Path 21586" d="M469.947,435.661s12.126,8.019,19.833,34.026c7.848,26.483,6.689,61.517,6.689,61.517s-68.977,11.674-67.548.184c0,0-2.279-92.8,28.327-95.076C458.64,436.208,469.2,435.084,469.947,435.661Z" transform="translate(-428.882 -435.497)" fill="#145566"/>
          </g>
          <g id="Group_5020" data-name="Group 5020" transform="translate(63.157 67.269)">
            <path id="Path_21587" data-name="Path 21587" d="M527.759,442.651c5.2,12.687,9.105,24.654,14.451,37.283,3.167,7.483,3.2,15.3,3.653,23.27q.674,11.886,1.348,23.772.285,5.022.57,10.044l-28.829,3.026c1.661-9.6,3.559-19.158,5.042-28.786,1.367-8.88,3.465-18.85,1.832-27.8-.8-4.358-1.655-8.713-2.471-13.07-1.5-7.994-2.168-16.174-3.736-24.154-.11-.558,1.125-3.674,1.3-4.233Z" transform="translate(-518.952 -442)" fill="#fff"/>
          </g>
          <g id="Group_5023" data-name="Group 5023" transform="translate(52.307 64.816)">
            <g id="Group_5021" data-name="Group 5021" transform="translate(0.249)">
              <path id="Path_21588" data-name="Path 21588" d="M497.713,437.036l.017,1.5-7.86,18.455-3.474-1.149,2.034-17.963,5.407-3.069A2.6,2.6,0,0,1,497.713,437.036Z" transform="translate(-486.395 -434.466)" fill="#fcd8b9"/>
            </g>
            <g id="Group_5022" data-name="Group 5022" transform="translate(0 21.031)">
              <path id="Path_21589" data-name="Path 21589" d="M489.813,500.338l1.877,3.379-1.467.849-4.592-3.061.306-2.449Z" transform="translate(-485.631 -499.056)" fill="#1a3151"/>
            </g>
          </g>
          <g id="Group_5026" data-name="Group 5026" transform="translate(71.872 60.518)">
            <g id="Group_5024" data-name="Group 5024">
              <path id="Path_21590" data-name="Path 21590" d="M552.692,422.3l.9,1.2,4.627,19.519-3.479,1.137-9.023-15.665,2.53-5.679A2.6,2.6,0,0,1,552.692,422.3Z" transform="translate(-545.72 -421.267)" fill="#e0c5a9"/>
            </g>
            <g id="Group_5025" data-name="Group 5025" transform="translate(8.866 21.63)">
              <path id="Path_21591" data-name="Path 21591" d="M576.829,487.7l3.516,1.605-.677,1.554-5.512.262-1.207-2.153Z" transform="translate(-572.948 -487.698)" fill="#1a3151"/>
            </g>
          </g>
          <g id="Group_5029" data-name="Group 5029" transform="translate(54.039 31.701)">
            <g id="Group_5027" data-name="Group 5027" transform="translate(7.576 12.311)">
              <path id="Path_21592" data-name="Path 21592" d="M524.445,394.964l-6.741-1.085a34.1,34.1,0,0,1,.7-5.394c-1.844-.777-3.96-1.9-4.169-3.893a5.645,5.645,0,0,1,.225-1.868l1.8-7.607a6.884,6.884,0,0,1,.954-2.509,5.779,5.779,0,0,1,4.175-1.94,14.065,14.065,0,0,1,11.2,3.461,6.162,6.162,0,0,1,1.766,2.649c.462,1.59-.059,3.281-.576,4.854l-1.431,4.356c-.549,1.67-1.309,3.56-2.983,4.1-.889.285-1.907.124-2.724.576C525.195,391.459,525.256,393.532,524.445,394.964Z" transform="translate(-514.216 -370.574)" fill="#fcd8b9"/>
            </g>
            <g id="Group_5028" data-name="Group 5028">
              <path id="Path_21593" data-name="Path 21593" d="M532.432,345.223a21.871,21.871,0,0,0-.235-5.172c-.432-2.79-3.6-4.23-6.4-4.6-6.046-.8-11.735-3.916-17.8-2.16-3.465,1-8.035,1.013-11.209,2.535A9.075,9.075,0,0,0,493.5,338.7a13.672,13.672,0,0,0-.915,14.429,19.5,19.5,0,0,0,1.961,2.806c1.494,1.832,3.278,4.092,5.44,4.869.172-1.966-1.244-8.284.366-9.806,2.556-2.415,7.927-1.192,10.866-.38,3.206.885,5.96,3.361,9.15,4.048,2.3.495,5.321-.462,7.364-1.539C530.932,351.435,532.155,348.393,532.432,345.223Z" transform="translate(-490.95 -332.764)" fill="#1a3151"/>
            </g>
          </g>
          <g id="Group_5030" data-name="Group 5030" transform="translate(18.89 68.246)">
            <path id="Path_21594" data-name="Path 21594" d="M418.816,445,383,467.141l7.489,12.047,22.141-10.419Z" transform="translate(-383 -445)" fill="#145566"/>
          </g>
          <g id="Group_5031" data-name="Group 5031" transform="translate(18.838 58.959)">
            <path id="Path_21595" data-name="Path 21595" d="M407.21,416.48l-24.371,31.433,7.541,12.12,8.466-3.986,13.8-35.627Z" transform="translate(-382.839 -416.48)" fill="#1c778c"/>
          </g>
          <g id="Group_5032" data-name="Group 5032" transform="translate(44.284 54.245)">
            <path id="Path_21596" data-name="Path 21596" d="M460.991,407.494l3.259-4.192,7.814-1.3,1.3,3.256-3.907,3.256-4.946,1.537Z" transform="translate(-460.991 -402)" fill="#fcd8b9"/>
          </g>
          <g id="Group_5043" data-name="Group 5043" transform="translate(0 186.578)">
            <g id="Group_5033" data-name="Group 5033" transform="translate(35.377 17.516)">
              <path id="Path_21597" data-name="Path 21597" d="M437.948,866.968s2.311,1.947,3.917-1.836,3.282-3.241,4.212-1.9-1.063,1.244-2.127,4.214c-1.7,4.735-3.959,8.36-4.774,8.858s-3.295,1.7-3.345,3.569-2.409-5.649-2.183-6.012Z" transform="translate(-433.633 -862.224)" fill="#dd9b4b"/>
            </g>
            <g id="Group_5034" data-name="Group 5034" transform="translate(34.145 25.371)">
              <path id="Path_21598" data-name="Path 21598" d="M436.5,888.747s1.546,2.6,4.3-.452,4.163-1.986,4.6-.419-1.412.827-3.39,3.284c-3.154,3.917-6.48,6.6-7.414,6.8s-3.67.526-4.33,2.276-.425-6.127-.092-6.4Z" transform="translate(-429.851 -886.347)" fill="#edcb9d"/>
            </g>
            <g id="Group_5035" data-name="Group 5035" transform="translate(15.331 44.722)">
              <path id="Path_21599" data-name="Path 21599" d="M378.593,945.778s3.114,8.644,1.591,11-5.733,10.171-5.095,11.494.309,1.922-.821,1.5-2.7-1.478-2.048-4.434,1.949-6.39.973-8.872,1.2-9.793,1.2-9.793Z" transform="translate(-372.069 -945.778)" fill="#dd9b4b"/>
            </g>
            <g id="Group_5036" data-name="Group 5036" transform="translate(5.686 14.025)">
              <path id="Path_21600" data-name="Path 21600" d="M361.766,851.522s-3.216-.5-2.988,3.172-3.256,10.058-8.984,14.795c-5.6,4.63-10.837,11.806-4.346,19.922s18.807-.316,21.455-4.96,10.029-7.593,11.543-14.457-2.315-10.01-2.5-12.138S361.766,851.522,361.766,851.522Z" transform="translate(-342.446 -851.5)" fill="#edcb9d"/>
            </g>
            <g id="Group_5037" data-name="Group 5037" transform="translate(8.948 44.413)">
              <path id="Path_21601" data-name="Path 21601" d="M365.482,951.839s1.658,4.423-1.673,7.57-6.4,4.573-7.6,6.863,1.426,3.065-.573,3.063-3.341-.311-3.163-2.791,4.237-4.634,3.686-8.108-3.226-4.185-3.537-6.745,7.6-6.862,7.6-6.862l5.74,7.185Z" transform="translate(-352.463 -944.829)" fill="#edcb9d"/>
            </g>
            <g id="Group_5038" data-name="Group 5038" transform="translate(0 38.356)">
              <path id="Path_21602" data-name="Path 21602" d="M331.948,935.853a4.349,4.349,0,0,1-5.283-.918c-2.21-2.376-2.328-5.764.165-7.848s4.375.176,4.15.945-2.91,3.732-.135,6.048C332.182,934.935,331.948,935.853,331.948,935.853Z" transform="translate(-324.984 -926.227)" fill="#dd9b4b"/>
            </g>
            <g id="Group_5039" data-name="Group 5039" transform="translate(23.545 13.897)">
              <path id="Path_21603" data-name="Path 21603" d="M413.677,856.23l-.876,1.12s-4.961,3.066-12.771-2.336c-3.306-3.07-2.687-3.874-2.687-3.874l1.445-.032S403.276,858.462,413.677,856.23Z" transform="translate(-397.297 -851.109)" fill="#9f5501"/>
            </g>
            <g id="Group_5040" data-name="Group 5040" transform="translate(30.159)">
              <path id="Path_21604" data-name="Path 21604" d="M417.61,809.846a2.563,2.563,0,0,1,1.857-1.362c1.52-.41,4.458,1.524,5.07,1.589s2.052.066.813.915S418.656,811.233,417.61,809.846Z" transform="translate(-417.61 -808.427)" fill="#b5d6ca"/>
            </g>
            <g id="Group_5041" data-name="Group 5041" transform="translate(23.739 0.989)">
              <path id="Path_21605" data-name="Path 21605" d="M399.861,816.528s1.609-3.925,5.183-4.83a8.793,8.793,0,0,1,6.148.849c.978.49,1.82,1.165,2.759,1.709.623.362,1.3.428,1.925.837a6.148,6.148,0,0,1,2.532,4.843c-.044,1.758,3.014,6.133-2.211,8.671s-13.349,1.005-15.609-1.475S396.219,822.093,399.861,816.528Z" transform="translate(-397.892 -811.464)" fill="#edcb9d"/>
            </g>
            <g id="Group_5042" data-name="Group 5042" transform="translate(21.594 6.068)">
              <path id="Path_21606" data-name="Path 21606" d="M396.416,827.233a3.643,3.643,0,0,0-3.086.425c-1.2,1.015-2.349,1.035-1.94,2.556s1.091,5.4,3.2,6.13.913-2.308,1.577-3.619S397.527,827.455,396.416,827.233Z" transform="translate(-391.305 -827.062)" fill="#dd9b4b"/>
            </g>
          </g>
        </g>
      </g>
      <g id="check_1_" data-name="check (1)" transform="translate(-10273.438 -8003.87) rotate(10)">
        <path id="Path_21607" data-name="Path 21607" d="M20.936,41.453a2.5,2.5,0,0,1-3.531,0l-14.1-14.1a3.744,3.744,0,0,1,0-5.3l1.766-1.766a3.744,3.744,0,0,1,5.3,0l8.8,8.8L42.958,5.3a3.744,3.744,0,0,1,5.3,0L50.021,7.07a3.744,3.744,0,0,1,0,5.3Z" transform="translate(0 0)" fill="#fff"/>
      </g>
    </g>
  </g>
</svg>
