<svg xmlns="http://www.w3.org/2000/svg" width="86.316" height="86.333" viewBox="0 0 86.316 86.333">
  <g id="growth" transform="translate(-0.05)">
    <g id="Group_1590" data-name="Group 1590" transform="translate(0.05)">
      <path id="Path_16354" data-name="Path 16354" d="M82.719,143.261H76.305v-61.6a3.665,3.665,0,0,0-7.33,0v61.6H56.7V96.888a3.665,3.665,0,1,0-7.33,0v46.373H36.909v-28.42a3.665,3.665,0,0,0-7.33,0v28.42H17.3V121.079a3.665,3.665,0,0,0-7.33,0v22.182H3.715a3.665,3.665,0,1,0,0,7.33h78.81a3.84,3.84,0,0,0,3.841-3.665A3.647,3.647,0,0,0,82.719,143.261Z" transform="translate(-0.05 -64.257)" fill="#26cbba"/>
      <path id="Path_16355" data-name="Path 16355" d="M31.149,37.758c1.075-.176,25.83-5.938,44.911-25.072v7.1a3.685,3.685,0,0,0,3.665,3.665,3.726,3.726,0,0,0,3.665-3.841V3.665A3.685,3.685,0,0,0,79.725,0H63.6a3.685,3.685,0,0,0-3.665,3.665A3.685,3.685,0,0,0,63.6,7.33h7.559C53.648,25.336,29.686,30.974,29.51,30.974a3.471,3.471,0,0,0-2.766,4.211A3.58,3.58,0,0,0,31.149,37.758Z" transform="translate(-21.987)" fill="#26cbba"/>
    </g>
  </g>
</svg>
