<svg xmlns="http://www.w3.org/2000/svg" width="34.418" height="34.48" viewBox="0 0 34.418 34.48">
  <g id="handshake" transform="translate(-0.467 -0.001)">
    <g id="Group_1592" data-name="Group 1592" transform="translate(17.153 16.23)">
      <g id="Group_1591" data-name="Group 1591">
        <path id="Path_16370" data-name="Path 16370" d="M255.164,244.2l-4.681-2.876a.517.517,0,0,0-.189-.069l-1.466-.259a.505.505,0,0,0-.176.995l1.383.244,4.6,2.826a.505.505,0,0,0,.529-.861Z" transform="translate(-248.236 -240.986)" fill="#fff"/>
      </g>
    </g>
    <g id="Group_1594" data-name="Group 1594" transform="translate(0.467 0.001)">
      <g id="Group_1593" data-name="Group 1593" transform="translate(0 0)">
        <path id="Path_16371" data-name="Path 16371" d="M34.749,19.6a.505.505,0,0,0-.714-.024l-2.048,1.914L22.6,12.235,34.725.874a.505.505,0,1,0-.691-.737L21.529,11.857a.51.51,0,0,0-.009.728l.83.819-.265.234-5.548-.478a.506.506,0,0,0-.253.044l-4.4,2-.039-.009-2.529-.446.2-.523a.505.505,0,0,0-.283-.653L1.16,10.342a.505.505,0,0,0-.375.938L8.4,14.327,3.913,25.8l-2.772-.982a.505.505,0,1,0-.337.952l3.233,1.145a.51.51,0,0,0,.639-.292l.75-1.917,1.966,1.1-.217.351a2.121,2.121,0,0,0,2.46,3.131,2.12,2.12,0,0,0,2.751,1.7,2.12,2.12,0,0,0,2.751,1.7,2.12,2.12,0,0,0,3.9.794l.345-.558.284.174a2.118,2.118,0,0,0,2.918-.7,2.109,2.109,0,0,0,.309-1.238,2.1,2.1,0,0,0,.49.059A2.139,2.139,0,0,0,25.2,30.207a2.106,2.106,0,0,0,.31-1.238,2.1,2.1,0,0,0,.489.059,2.138,2.138,0,0,0,1.812-1.012,2.106,2.106,0,0,0,.31-1.239,2.121,2.121,0,0,0,1.6-3.87l-.346-.213,1.161-1.213,1.086,1.071a.51.51,0,0,0,.7.009l2.4-2.245A.505.505,0,0,0,34.749,19.6ZM9.926,27.855a1.111,1.111,0,0,1-1.892-1.167L10.864,22.1a1.117,1.117,0,0,1,1.511-.373,1.149,1.149,0,0,1,.362,1.572Zm2.751,1.7a1.111,1.111,0,1,1-1.892-1.167l2.263-3.669a1.117,1.117,0,0,1,1.511-.373,1.149,1.149,0,0,1,.362,1.572Zm2.752,1.7a1.111,1.111,0,0,1-1.529.362,1.122,1.122,0,0,1-.362-1.529l1.7-2.751a1.117,1.117,0,0,1,1.511-.373,1.149,1.149,0,0,1,.362,1.572Zm3.864-.106-1.113,1.8a1.111,1.111,0,0,1-1.892-1.167l1.132-1.834a1.117,1.117,0,0,1,1.511-.373A1.149,1.149,0,0,1,19.293,31.144Zm9.2-8.99-2.5-1.539a.505.505,0,0,0-.529.861l3.731,2.292a1.111,1.111,0,1,1-1.164,1.894l-4-2.459a.505.505,0,0,0-.529.861l3.083,1.894a1.111,1.111,0,0,1-1.164,1.894l-2.794-1.717A.505.505,0,1,0,22.1,27l1.876,1.153a1.111,1.111,0,1,1-1.164,1.894s-1.65-1.013-1.665-1.02a.505.505,0,0,0-.484.885l.7.431A1.111,1.111,0,0,1,20.2,32.233l-.282-.173.238-.385a2.187,2.187,0,0,0,.258-1.663,2.089,2.089,0,0,0-2.18-1.6,2.19,2.19,0,0,0-.005-1.019,2.089,2.089,0,0,0-2.18-1.6,2.15,2.15,0,0,0-.971-2.328,2.1,2.1,0,0,0-1.215-.287A2.115,2.115,0,0,0,10,21.571L7.923,24.945,5.8,23.754,8.945,15.71l1.714.3a2.121,2.121,0,0,0,2.529,3.264l2.958-1.347a.505.505,0,1,0-.419-.919l-2.958,1.347a1.111,1.111,0,0,1-.921-2.023l4.734-2.156,5.631.485.043,0a.506.506,0,0,0,.334-.126l.479-.423,6.747,6.657Z" transform="translate(-0.467 -0.001)" fill="#fff"/>
      </g>
    </g>
  </g>
</svg>
