<svg xmlns="http://www.w3.org/2000/svg" xmlns:xlink="http://www.w3.org/1999/xlink" width="47.52" height="39.57" viewBox="0 0 47.52 39.57">
  <defs>
    <linearGradient id="linear-gradient" x1="0.5" x2="0.5" y2="1" gradientUnits="objectBoundingBox">
      <stop offset="0.13" stop-color="#00a9ed"/>
      <stop offset="1" stop-color="#65106b"/>
    </linearGradient>
  </defs>
  <g id="Group_3149" data-name="Group 3149" transform="translate(-530 -948)">
    <path id="Path_16355" data-name="Path 16355" d="M39.141,7.181H31.248c0-.08,0-.153,0-.232V2.4a2.24,2.24,0,0,0-2.24-2.24H18.48A2.239,2.239,0,0,0,16.253,2.4V6.911c0,.076,0,.153,0,.232H8.379C4.369,7.143,0,9.339,0,15.522V31.352c0,6.187,4.325,8.383,8.379,8.383H39.141c4.01,0,8.379-2.2,8.379-8.383V15.564C47.52,9.428,43.182,7.181,39.141,7.181ZM18.258,6.949V2.4a.231.231,0,0,1,.232-.229H29.04a.228.228,0,0,1,.229.229V6.911a.233.233,0,0,1-.229.232H18.48A.231.231,0,0,1,18.258,6.949ZM45.515,31.342c0,5.754-4.462,6.374-6.374,6.374H8.379C6.467,37.717,2,37.1,2,31.342V15.564C2,9.813,6.467,9.189,8.379,9.189H39.141c1.913,0,6.374.624,6.374,6.374Zm0,0" transform="translate(530 947.836)" fill="url(#linear-gradient)"/>
    <path id="Path_16356" data-name="Path 16356" d="M34.908,22.95H31v-3.9a1,1,0,0,0-1-1H24.358a1,1,0,0,0-1,1v3.9H19.448a1.007,1.007,0,0,0-1,1.006v5.63a1.007,1.007,0,0,0,1,1.006h3.908v3.9a1,1,0,0,0,1,1H30a1,1,0,0,0,1-1v-3.9h3.908a1.007,1.007,0,0,0,1-1.006v-5.63A1.007,1.007,0,0,0,34.908,22.95ZM33.9,28.583H30a1,1,0,0,0-1,1v3.908H25.361V29.586a1,1,0,0,0-1-1h-3.9V24.958h3.9a1,1,0,0,0,1-1V20.048H29v3.908a1,1,0,0,0,1,1h3.9Zm0,0" transform="translate(526.582 944.523)" fill="url(#linear-gradient)"/>
  </g>
</svg>
