<svg xmlns="http://www.w3.org/2000/svg" width="62" height="62" viewBox="0 0 62 62">
  <g id="Group_1646" data-name="Group 1646" transform="translate(-775 -2673)">
    <circle id="Ellipse_123" data-name="Ellipse 123" cx="31" cy="31" r="31" transform="translate(775 2673)" fill="#00b5ef"/>
    <g id="application-form" transform="translate(789.305 2690)">
      <path id="Path_15965" data-name="Path 15965" d="M7.984,7.315H6.042a.347.347,0,0,0-.347.347V31.67a.347.347,0,0,0,.347.347H27.788a.347.347,0,0,0,.347-.347V7.662a.347.347,0,0,0-.347-.347H25.846a.347.347,0,0,0-.347.347v3.189H8.331V7.662A.347.347,0,0,0,7.984,7.315Zm17.861,4.229a.347.347,0,0,0,.347-.347V8.009h1.249V31.323H6.389V8.009H7.637V11.2a.347.347,0,0,0,.347.347Z" transform="translate(0 -3.255)" fill="#fff"/>
      <path id="Path_15966" data-name="Path 15966" d="M23.429,0H16.122a.347.347,0,0,0-.347.347V2.494H12.469a.347.347,0,0,0-.347.347V5.391a.347.347,0,0,0,.347.347h5.45a.347.347,0,0,0,.347-.347v-2.2h3.018v2.2a.347.347,0,0,0,.347.347h5.451a.347.347,0,0,0,.347-.347V2.841a.347.347,0,0,0-.347-.347H23.776V.347A.347.347,0,0,0,23.429,0Zm3.306,3.188V5.045H21.977v-2.2a.347.347,0,0,0-.347-.347H17.919a.347.347,0,0,0-.347.347v2.2H12.816V3.188h3.306a.347.347,0,0,0,.347-.347V.694h6.613V2.841a.347.347,0,0,0,.347.347Z" transform="translate(-2.86)" fill="#fff"/>
      <path id="Path_15967" data-name="Path 15967" d="M9.195,29.189V30.84a.347.347,0,0,0,.347.347H27.4a.347.347,0,0,0,.347-.347V29.189a.347.347,0,0,0-.347-.347H9.542A.347.347,0,0,0,9.195,29.189Zm.694.347H27.056v.957H9.889Z" transform="translate(-1.558 -12.836)" fill="#fff"/>
      <path id="Path_15968" data-name="Path 15968" d="M27.4,35.031H9.542a.347.347,0,0,0-.347.347v1.653a.347.347,0,0,0,.347.347H27.4a.347.347,0,0,0,.347-.347V35.378A.348.348,0,0,0,27.4,35.031Zm-.347,1.653H9.889v-.96H27.056Z" transform="translate(-1.558 -15.59)" fill="#fff"/>
      <path id="Path_15969" data-name="Path 15969" d="M27.4,41.223H9.542a.347.347,0,0,0-.347.347v1.653a.347.347,0,0,0,.347.347H27.4a.347.347,0,0,0,.347-.347V41.57A.347.347,0,0,0,27.4,41.223Zm-.347,1.653H9.889v-.96H27.056Z" transform="translate(-1.558 -18.346)" fill="#fff"/>
      <path id="Path_15970" data-name="Path 15970" d="M23.745,21.9a2.7,2.7,0,1,0-2.7-2.7A2.708,2.708,0,0,0,23.745,21.9Zm0-4.8a2.095,2.095,0,1,1-2.1,2.094A2.1,2.1,0,0,1,23.745,17.1Z" transform="translate(-6.83 -7.341)" fill="#fff"/>
    </g>
  </g>
</svg>
