<?xml version="1.0" encoding="utf-8"?>
<!-- Generator: Adobe Illustrator 14.0.0, SVG Export Plug-In . SVG Version: 6.00 Build 43363)  -->
<!DOCTYPE svg PUBLIC "-//W3C//DTD SVG 1.1//EN" "http://www.w3.org/Graphics/SVG/1.1/DTD/svg11.dtd">
<svg version="1.1" id="Layer_1" xmlns="http://www.w3.org/2000/svg" xmlns:xlink="http://www.w3.org/1999/xlink" x="0px" y="0px"
	 width="200px" height="115px" viewBox="-39.5 1.803 200 115" enable-background="new -39.5 1.803 200 115" xml:space="preserve">
<g id="health-care" transform="translate(0 -4.501)">
	<path id="Path_15920" fill="#FFFFFF" d="M94.208,47.541H80.064v16.264H63.8v14.138h16.265v16.264h14.142V77.943h16.265v-14.14
		H94.208V47.541z"/>
	<path id="Path_15921" fill="#FFFFFF" d="M56.729,56.732h16.265V40.467h28.285v16.265h8.203c8.794-13.76,4.771-32.044-8.988-40.84
		C87.229,7.412,69.646,10.813,60.5,23.627c-9.483-13.293-27.947-16.38-41.24-6.896c-13.293,9.483-16.38,27.947-6.896,41.24
		c0.377,0.529,0.771,1.045,1.183,1.548L60.5,116.366l12.494-15.125v-16.22H56.729V56.732z"/>
</g>
</svg>
