<?xml version="1.0" encoding="utf-8"?>
<!-- Generator: Adobe Illustrator 14.0.0, SVG Export Plug-In . SVG Version: 6.00 Build 43363)  -->
<!DOCTYPE svg PUBLIC "-//W3C//DTD SVG 1.1//EN" "http://www.w3.org/Graphics/SVG/1.1/DTD/svg11.dtd">
<svg version="1.1" id="Group_2879" xmlns="http://www.w3.org/2000/svg" xmlns:xlink="http://www.w3.org/1999/xlink" x="0px" y="0px"
	 width="250.042px" height="232.17px" viewBox="0 0 250.042 232.17" enable-background="new 0 0 250.042 232.17"
	 xml:space="preserve">
<g id="Group_2878" transform="translate(0 0)">
	<g id="Group_2876" transform="translate(137.691 1.484)">
		<path id="Path_18286" fill="#C9E7F9" d="M43.105,27.547c0-5.836,4.73-10.567,10.566-10.567s10.567,4.731,10.567,10.567
			c0,5.836-4.731,10.567-10.567,10.567C47.836,38.114,43.105,33.383,43.105,27.547z"/>
		<path id="Path_18287" fill="#65106B" d="M67.355,48.919c0.001-4.92,3.99-8.909,8.912-8.909c4.92,0,8.909,3.99,8.908,8.911
			c0,4.921-3.99,8.909-8.91,8.909c-4.92,0-8.909-3.987-8.91-8.907C67.355,48.922,67.355,48.92,67.355,48.919z"/>
		<path id="Path_18288" fill="#A9DCF7" d="M65.239,8.909C65.24,3.988,69.228-0.001,74.15,0c4.92,0,8.909,3.99,8.908,8.911
			c0,4.921-3.99,8.91-8.91,8.909C69.227,17.82,65.238,13.83,65.239,8.909L65.239,8.909z"/>
		<path id="Path_18289" fill="#E0F0FB" d="M87.171,31.379c0-4.922,3.989-8.911,8.911-8.911s8.911,3.989,8.911,8.911
			c0,4.921-3.989,8.911-8.911,8.911C91.16,40.289,87.172,36.3,87.171,31.379z"/>
		<path id="Path_18290" fill="#C9E7F9" d="M63.51,206.665c0.001-4.922,3.99-8.91,8.911-8.909s8.909,3.989,8.909,8.911
			c0,4.92-3.988,8.908-8.909,8.908c-4.92,0.002-8.909-3.986-8.911-8.906C63.51,206.667,63.51,206.666,63.51,206.665z"/>
		<path id="Path_18291" fill="#E0F0FB" d="M87.171,111.811c-0.001-4.921,3.987-8.912,8.909-8.913
			c4.922-0.001,8.912,3.988,8.913,8.909c0.001,4.921-3.987,8.912-8.909,8.913h-0.002c-4.92,0.001-8.91-3.986-8.911-8.907
			C87.171,111.812,87.171,111.812,87.171,111.811z"/>
		<path id="Path_18292" fill="#E0F0FB" d="M87.171,191.201c0-4.922,3.989-8.912,8.911-8.912s8.911,3.99,8.911,8.912
			c0,4.921-3.989,8.91-8.911,8.91S87.172,196.12,87.171,191.201z"/>
		<path id="Path_18293" fill="#E0F0FB" d="M0,221.777c0-4.92,3.988-8.91,8.909-8.91c4.921-0.001,8.91,3.988,8.911,8.908
			c0,4.921-3.988,8.91-8.909,8.911c-0.001,0-0.001,0-0.002,0C3.988,230.686,0,226.697,0,221.777z"/>
	</g>
	<g id="Group_2877">
		<path id="Path_18294" fill="#6BC4F0" d="M86.355,187.897c0-7.08,5.739-12.819,12.819-12.819c7.08,0,12.819,5.739,12.819,12.819
			c0,7.079-5.739,12.818-12.819,12.818c-7.079,0.001-12.818-5.738-12.819-12.816C86.355,187.898,86.355,187.897,86.355,187.897z"/>
		<circle id="Ellipse_127" fill="#6BC4F0" cx="79.494" cy="167.725" r="12.82"/>
		<path id="Path_18296" fill="#6BC4F0" d="M25.94,170.284c0.001-7.08,5.741-12.818,12.821-12.817
			c7.08,0.001,12.818,5.741,12.817,12.821c-0.001,7.079-5.74,12.816-12.819,12.816C31.679,183.104,25.94,177.364,25.94,170.284z"/>
		<path id="Path_18297" fill="#006FB8" d="M0.747,189.373c0-7.081,5.74-12.821,12.821-12.821c7.081,0,12.821,5.74,12.821,12.821
			s-5.74,12.821-12.821,12.821l0,0C6.487,202.193,0.748,196.454,0.747,189.373z"/>
		<path id="Path_18298" fill="#006FB8" d="M0.158,146.474c-0.001-7.082,5.738-12.822,12.819-12.824
			c7.081,0,12.822,5.738,12.823,12.819c0.001,7.081-5.738,12.822-12.819,12.823c0,0-0.001,0-0.002,0
			C5.899,159.292,0.16,153.553,0.158,146.474z"/>
		<path id="Path_18299" fill="#6BC4F0" d="M19.917,123.155c-0.001-7.08,5.736-12.82,12.816-12.822
			c7.08-0.001,12.82,5.736,12.822,12.816c0.001,7.079-5.736,12.82-12.816,12.821c0,0-0.001,0-0.001,0
			C25.659,135.973,19.919,130.234,19.917,123.155z"/>
		<path id="Path_18300" fill="#006FB8" d="M41.388,143.815c0-7.079,5.739-12.818,12.819-12.818s12.819,5.739,12.819,12.818
			c0,7.08-5.739,12.819-12.819,12.819c0,0-0.001,0-0.001,0C47.127,156.634,41.389,150.896,41.388,143.815z"/>
		<path id="Path_18301" fill="#6BC4F0" d="M66.283,124.235c0.004-7.079,5.746-12.815,12.826-12.812s12.816,5.747,12.812,12.826
			c-0.004,7.078-5.744,12.813-12.822,12.812c-7.081-0.002-12.818-5.743-12.816-12.824C66.283,124.237,66.283,124.237,66.283,124.235
			z"/>
		<path id="Path_18302" fill="#006FB8" d="M86.258,143.815c0-7.079,5.739-12.818,12.819-12.818c7.08,0,12.819,5.739,12.819,12.818
			c0,7.08-5.739,12.819-12.819,12.819c-0.001,0-0.001,0-0.002,0C91.996,156.634,86.259,150.895,86.258,143.815z"/>
		<path id="Path_18303" fill="#65106B" d="M123.899,177.785c0.001-6.53,5.296-11.822,11.825-11.821
			c6.529,0.002,11.822,5.295,11.82,11.825c0,6.528-5.293,11.821-11.822,11.821s-11.823-5.293-11.823-11.823
			C123.899,177.786,123.899,177.786,123.899,177.785z"/>
		<path id="Path_18304" fill="#65106B" d="M179.828,186.569c0-6.052,4.906-10.959,10.959-10.959c6.052,0,10.959,4.907,10.959,10.959
			c0,6.053-4.907,10.959-10.959,10.959c-0.001,0-0.002,0-0.002,0c-6.052,0-10.957-4.905-10.957-10.957
			C179.828,186.571,179.828,186.57,179.828,186.569z"/>
		<circle id="Ellipse_128" fill="#A9DCF7" cx="169.583" cy="167.756" r="12.315"/>
		<path id="Path_18305" fill="#6BC4F0" d="M132.25,144.174c0-6.886,5.582-12.468,12.469-12.468c6.886,0,12.468,5.582,12.468,12.468
			s-5.582,12.468-12.468,12.468S132.25,151.06,132.25,144.174z"/>
		<path id="Path_18306" fill="#6BC4F0" d="M112.119,124.039c0.001-6.886,5.583-12.466,12.469-12.465
			c6.885,0.001,12.466,5.583,12.464,12.469c0,6.885-5.582,12.465-12.466,12.465c-6.885,0-12.467-5.581-12.467-12.467
			C112.119,124.04,112.119,124.04,112.119,124.039z"/>
		<path id="Path_18307" fill="#65106B" d="M86.36,100.451c0-7.022,5.694-12.715,12.716-12.714c7.022,0,12.714,5.694,12.714,12.716
			c0,7.021-5.692,12.713-12.713,12.714C92.054,113.167,86.36,107.474,86.36,100.451z"/>
		<path id="Path_18308" fill="#60C7EF" d="M151.645,51.323c-0.001-7.023,5.69-12.719,12.714-12.72s12.719,5.69,12.721,12.714
			c0.001,7.023-5.691,12.718-12.715,12.72c0,0-0.002,0-0.003,0C157.339,64.037,151.646,58.345,151.645,51.323z"/>
		<path id="Path_18309" fill="#006FB8" d="M41.605,100.451c0.001-7.022,5.695-12.714,12.717-12.713
			c7.022,0.001,12.714,5.694,12.713,12.717c-0.001,7.022-5.694,12.713-12.716,12.713C47.296,113.167,41.604,107.474,41.605,100.451z
			"/>
		<path id="Path_18310" fill="#60C7EF" d="M21.952,80.84c-0.001-7.022,5.691-12.715,12.714-12.716s12.715,5.691,12.716,12.714
			c0,7.022-5.691,12.715-12.713,12.716C27.646,93.554,21.954,87.862,21.952,80.84z"/>
		<path id="Path_18311" fill="#006FB8" d="M0.874,102.74c0-7.023,5.692-12.718,12.716-12.718s12.718,5.692,12.718,12.716
			s-5.693,12.718-12.716,12.718c0,0,0,0-0.001,0c-7.022,0.001-12.716-5.691-12.717-12.713C0.874,102.742,0.874,102.741,0.874,102.74
			z"/>
		<path id="Path_18312" fill="#006FB8" d="M0,59.245c0.001-7.022,5.695-12.714,12.717-12.713
			c7.022,0.001,12.714,5.694,12.713,12.717c-0.001,7.021-5.692,12.712-12.713,12.713C5.694,71.962,0,66.27,0,59.247
			C0,59.246,0,59.246,0,59.245z"/>
		<path id="Path_18313" fill="#006FB8" d="M41.768,56.609c0-7.022,5.692-12.715,12.714-12.716c7.022,0,12.715,5.691,12.716,12.714
			c0,7.022-5.692,12.715-12.714,12.716l0,0C47.462,69.322,41.77,63.631,41.768,56.609z"/>
		<path id="Path_18314" fill="#006FB8" d="M5.778,18.157c0-5.561,4.508-10.068,10.068-10.068c5.561,0,10.068,4.508,10.068,10.068
			c0,5.56-4.508,10.068-10.068,10.068l0,0c-5.56,0-10.067-4.506-10.068-10.066C5.778,18.158,5.778,18.158,5.778,18.157z"/>
		<path id="Path_18315" fill="#006FB8" d="M41.692,13.237C41.693,6.38,47.252,0.823,54.109,0.824
			c6.857,0.001,12.414,5.56,12.413,12.417c-0.001,6.855-5.558,12.412-12.413,12.413c-6.856,0.001-12.416-5.557-12.417-12.413
			C41.692,13.24,41.692,13.238,41.692,13.237z"/>
		<path id="Path_18316" fill="#65106B" d="M66.585,37.092c0-6.857,5.558-12.416,12.415-12.417c6.857,0,12.417,5.558,12.417,12.415
			c0,6.857-5.558,12.417-12.415,12.417c0,0-0.001,0-0.002,0C72.144,49.506,66.586,43.948,66.585,37.092z"/>
		<path id="Path_18317" fill="#006FB8" d="M86.197,56.706c-0.002-6.856,5.555-12.417,12.412-12.418
			c6.857-0.002,12.417,5.555,12.418,12.412c0.002,6.856-5.555,12.416-12.412,12.418c-0.001,0-0.003,0-0.004,0
			c-6.855,0.001-12.413-5.555-12.414-12.41C86.197,56.707,86.197,56.707,86.197,56.706z"/>
		<path id="Path_18318" fill="#60C7EF" d="M110.995,80.842c-0.002-6.856,5.555-12.416,12.412-12.418
			c6.856-0.001,12.417,5.556,12.418,12.412c0.001,6.856-5.557,12.417-12.413,12.418c-0.001,0-0.002,0-0.003,0
			C116.555,93.253,110.997,87.697,110.995,80.842z"/>
		<path id="Path_18319" fill="#006FB8" d="M132.021,100.451c0.001-6.857,5.561-12.414,12.417-12.413s12.414,5.561,12.413,12.417
			c-0.001,6.856-5.559,12.413-12.415,12.413c-6.855,0.001-12.414-5.556-12.415-12.411
			C132.021,100.455,132.021,100.453,132.021,100.451z"/>
		<path id="Path_18320" fill="#6BC4F0" d="M157.194,124.308c-0.001-6.857,5.558-12.417,12.415-12.417s12.416,5.558,12.417,12.416
			c0.001,6.856-5.558,12.416-12.415,12.416S157.195,131.164,157.194,124.308z"/>
		<path id="Path_18321" fill="#006FB8" d="M177.263,145.878c0-6.097,4.941-11.039,11.039-11.039c6.096,0,11.039,4.942,11.039,11.039
			s-4.943,11.039-11.039,11.039C182.207,156.915,177.265,151.974,177.263,145.878z"/>
		<path id="Path_18322" fill="#006FB8" d="M57.749,202.679c0-6.098,4.942-11.039,11.039-11.039s11.039,4.941,11.039,11.039
			c0,6.096-4.942,11.038-11.039,11.038C62.692,213.716,57.75,208.774,57.749,202.679z"/>
		<circle id="Ellipse_129" fill="#C9E7F9" cx="211.492" cy="166.139" r="11.04"/>
		<path id="Path_18323" fill="#A9DCF7" d="M196.951,123.153c0-5.822,4.719-10.542,10.541-10.542c5.82,0,10.541,4.718,10.541,10.541
			c0.001,5.821-4.719,10.541-10.539,10.541C201.671,133.692,196.953,128.975,196.951,123.153z"/>
		<circle id="Ellipse_130" fill="#006FB8" cx="157.737" cy="199.273" r="10.54"/>
		<circle id="Ellipse_131" fill="#A9DCF7" cx="126.175" cy="204.803" r="10.54"/>
		<path id="Path_18324" fill="#65106B" d="M178.228,103.286c0.001-5.265,4.27-9.531,9.534-9.53s9.53,4.27,9.53,9.534
			c-0.002,5.264-4.27,9.53-9.533,9.53c-5.264,0-9.531-4.266-9.531-9.53C178.228,103.289,178.228,103.287,178.228,103.286z"/>
		<path id="Path_18325" fill="#65C7F0" d="M111.569,36.844c-0.001-7.121,5.771-12.895,12.892-12.896
			c7.121-0.001,12.895,5.771,12.896,12.892s-5.771,12.895-12.892,12.896c-0.001,0-0.002,0-0.003,0
			C117.342,49.735,111.57,43.964,111.569,36.844z"/>
		<circle id="Ellipse_132" fill="#006FB8" cx="98.911" cy="12.894" r="12.894"/>
		<path id="Path_18326" fill="#006FB8" d="M132.001,15.922c0-5.477,4.439-9.917,9.916-9.917c5.478,0,9.918,4.44,9.918,9.917
			s-4.44,9.917-9.918,9.917l0,0C136.441,25.839,132.001,21.399,132.001,15.922z"/>
		<path id="Path_18327" fill="#C9E7F9" d="M204.699,93.022c-0.002-4.929,3.993-8.926,8.922-8.927
			c4.93-0.001,8.926,3.994,8.928,8.923c0,4.929-3.994,8.926-8.924,8.927l0,0C208.695,101.946,204.699,97.952,204.699,93.022
			C204.699,93.022,204.699,93.022,204.699,93.022z"/>
		<path id="Path_18328" fill="#65106B" d="M221.074,142.706c0-4.928,3.995-8.923,8.924-8.923c4.928,0,8.922,3.995,8.922,8.923
			s-3.994,8.923-8.922,8.923l0,0c-4.928,0.001-8.923-3.993-8.924-8.921V142.706z"/>
		<path id="Path_18329" fill="#A9DCF7" d="M232.193,76.939c-0.001-4.929,3.994-8.926,8.924-8.927
			c4.928-0.001,8.926,3.994,8.926,8.923c0.002,4.929-3.993,8.926-8.922,8.927c-0.001,0-0.002,0-0.002,0
			C236.191,85.862,232.195,81.868,232.193,76.939z"/>
		<path id="Path_18330" fill="#C9E7F9" d="M88.145,215.992c0-4.929,3.995-8.923,8.923-8.923c4.928,0,8.923,3.994,8.923,8.923
			c0,4.928-3.995,8.923-8.923,8.923l0,0C92.141,224.913,88.146,220.919,88.145,215.992z"/>
	</g>
</g>
<path id="Path_18331" fill="#006FB8" d="M181.673,72.19c0-4.928,3.994-8.923,8.923-8.923c4.928,0,8.923,3.995,8.923,8.923
	s-3.995,8.923-8.924,8.923l0,0C185.667,81.112,181.673,77.118,181.673,72.19z"/>
</svg>
