<svg xmlns="http://www.w3.org/2000/svg" xmlns:xlink="http://www.w3.org/1999/xlink" width="431.623" height="361.994" viewBox="0 0 431.623 361.994">
  <defs>
    <linearGradient id="linear-gradient" x1="0.32" x2="0.886" y2="0.52" gradientUnits="objectBoundingBox">
      <stop offset="0" stop-color="#b5e2f6"/>
      <stop offset="1" stop-color="#cae4ef"/>
    </linearGradient>
  </defs>
  <g id="Group_4042" data-name="Group 4042" transform="translate(-200 -726.006)">
    <path id="Path_1" data-name="Path 1" d="M411.911,85.587a89.924,89.924,0,0,0-2.7,34.051c1.651,14.336,6.729,28.185,11.165,42.078,6.1,19.1,6.408,52.63,0,71.913-2.243,6.747-53.458,120.514-53.475,121.01,0,0,72.062.027,0,.035s-287.777,0-288.252,0c-3.379-.025-6.8-14.226-7.177-15.925C69,327.7,56.684,315.891,61.808,305.519c7.274-14.725,14.855-26.43,7.518-42.627C64.5,252.237,55.163,243.983,49.819,233.63a122.792,122.792,0,0,1-8.843-90.176C50.191,111.36,71.358,88.893,98.328,66.53c24.221-20.083,44.207-43.935,65.5-66.247H467.816s0,10.64,0,10.652c-.117,4.439-12.063,13.74-15.352,17.128-12.728,13.108-26.294,24.639-34.12,40.57a95.969,95.969,0,0,0-6.433,16.954" transform="translate(163.807 725.723)" opacity="0.46" fill="url(#linear-gradient)"/>
    <g id="Group_3310" data-name="Group 3310" transform="translate(-10 606)">
      <g id="Group_3305" data-name="Group 3305" transform="translate(27 -4)">
        <path id="Path_12" data-name="Path 12" d="M68.6,427.8s-13.843-46.929-27.986-66.252-14.5-49.192,8.485-50.874,32.691,32.4,38.974,57.434S93.649,427.8,93.649,427.8Z" transform="translate(187.409 33.671)" fill="#fff"/>
        <path id="Path_13" data-name="Path 13" d="M88.88,401.568a.457.457,0,0,0-.631.137l-7.219,11.234q-2.263-9.7-4.611-18.2l7.945-14.489a.457.457,0,0,0-.8-.439l-7.492,13.663c-1.863-6.718-3.739-12.877-5.583-18.493l6.868-19.021a.456.456,0,0,0-.274-.585.461.461,0,0,0-.585.273l-6.474,17.93c-2.911-8.758-5.728-16.159-8.269-22.259l4.558-16.252a.457.457,0,1,0-.88-.246l-4.246,15.143c-6.017-14.227-10.349-20.96-10.44-21.1a.457.457,0,0,0-.764.5c.091.139,4.444,6.911,10.479,21.226L45.89,346.529a.457.457,0,1,0-.245.88l15.266,4.26c2.548,6.119,5.378,13.554,8.3,22.364L54.1,366.609a.457.457,0,0,0-.4.82l15.918,7.821c1.858,5.663,3.75,11.878,5.63,18.667l-12.989-4.946a.456.456,0,1,0-.324.853l13.612,5.183q2.348,8.564,4.638,18.327l-12.846-5.267a.457.457,0,0,0-.346.846l13.443,5.511q1.573,6.823,3.082,14.231a.458.458,0,0,0,.448.366.439.439,0,0,0,.09-.009.457.457,0,0,0,.357-.539q-1.508-7.449-3.1-14.292l7.7-11.982a.457.457,0,0,0-.137-.631" transform="translate(186.15 32.107)" fill="#98dbf9"/>
      </g>
      <g id="Group_3306" data-name="Group 3306" transform="translate(-93.638 88.536) rotate(-16)">
        <path id="Path_14" data-name="Path 14" d="M74.332,431.733h-20.7S13.935,389.1,23.225,370.2s24.75-18.447,32.881-1.269,18.225,62.8,18.225,62.8" transform="translate(188.186 29.735)" fill="#fff"/>
        <path id="Path_15" data-name="Path 15" d="M66.762,418.81a.458.458,0,0,0-.593.255l-3.022,7.576c-1.269-3.6-2.62-7.213-4.01-10.775l4.419-10.527a.457.457,0,1,0-.842-.353l-4.054,9.66c-1.617-4.1-3.274-8.122-4.906-11.955l4.781-12.634a.456.456,0,0,0-.854-.322l-4.444,11.742c-2.229-5.2-4.388-10.007-6.305-14.169l4.646-11.658a.457.457,0,1,0-.849-.339L46.4,386.165c-3.841-8.289-6.577-13.708-6.643-13.839a.457.457,0,1,0-.815.414c.067.132,2.835,5.614,6.709,13.982L33.2,384.693a.456.456,0,1,0-.147.9l13.068,2.128c1.938,4.206,4.123,9.076,6.374,14.335L37.342,398.84a.457.457,0,1,0-.19.894l15.777,3.349c1.655,3.886,3.334,7.964,4.971,12.127l-12.653-2.934a.457.457,0,0,0-.206.891L58.3,416.24c1.41,3.615,2.78,7.284,4.065,10.934l-9.052-3.331A.457.457,0,0,0,53,424.7l9.758,3.591q.818,2.356,1.586,4.694a.456.456,0,0,0,.434.315.482.482,0,0,0,.142-.022.458.458,0,0,0,.292-.576q-.77-2.361-1.6-4.749l3.41-8.55a.456.456,0,0,0-.255-.594" transform="translate(187.246 28.346)" fill="#98dbf9"/>
      </g>
    </g>
    <g id="Group_3309" data-name="Group 3309" transform="translate(484.563 947.281)">
      <g id="Group_3307" data-name="Group 3307" transform="translate(0 0)">
        <path id="Path_12-2" data-name="Path 12" d="M55.841,427.8s13.843-46.929,27.986-66.252,14.5-49.191-8.485-50.874-32.692,32.4-38.974,57.434S30.8,427.8,30.8,427.8Z" transform="translate(-30.772 -310.611)" fill="#fff"/>
        <path id="Path_13-2" data-name="Path 13" d="M45.52,401.568a.457.457,0,0,1,.631.137l7.219,11.234q2.263-9.7,4.611-18.2l-7.945-14.489a.457.457,0,0,1,.8-.439l7.492,13.663c1.863-6.718,3.739-12.877,5.583-18.493l-6.868-19.021a.456.456,0,0,1,.274-.585.461.461,0,0,1,.585.273l6.474,17.93c2.911-8.758,5.728-16.158,8.269-22.259l-4.558-16.252a.457.457,0,1,1,.88-.246l4.246,15.143c6.017-14.227,10.349-20.96,10.44-21.1a.457.457,0,0,1,.765.5c-.091.139-4.444,6.911-10.479,21.226l14.571-4.065a.457.457,0,1,1,.245.88l-15.266,4.26c-2.548,6.119-5.378,13.554-8.3,22.364L80.3,366.609a.457.457,0,0,1,.4.82L64.784,375.25c-1.858,5.663-3.75,11.878-5.63,18.667l12.989-4.946a.456.456,0,1,1,.324.853l-13.612,5.183q-2.348,8.564-4.638,18.327l12.846-5.267a.457.457,0,0,1,.346.846l-13.443,5.511q-1.573,6.823-3.082,14.231a.458.458,0,0,1-.448.366.439.439,0,0,1-.09-.009.457.457,0,0,1-.357-.539q1.508-7.449,3.1-14.292l-7.7-11.982a.457.457,0,0,1,.137-.631" transform="translate(-39.467 -312.175)" fill="#98dbf9"/>
      </g>
      <g id="Group_3308" data-name="Group 3308" transform="translate(72.607 134.132) rotate(-164)">
        <path id="Path_14-2" data-name="Path 14" d="M52.516,0h-20.7S-7.881,42.635,1.409,61.531,26.159,79.979,34.29,62.8,52.516,0,52.516,0" transform="translate(0 0.178)" fill="#fff"/>
        <path id="Path_15-2" data-name="Path 15" d="M34.1,14.491a.458.458,0,0,1-.593-.255L30.482,6.659c-1.269,3.6-2.62,7.213-4.01,10.775l4.419,10.527a.457.457,0,1,1-.842.353l-4.054-9.66c-1.617,4.1-3.274,8.122-4.906,11.955l4.781,12.634a.456.456,0,0,1-.854.322L20.572,31.823c-2.229,5.2-4.388,10.007-6.305,14.169L18.913,57.65a.457.457,0,1,1-.849.339L13.739,47.136C9.9,55.424,7.162,60.843,7.1,60.974a.457.457,0,1,1-.815-.414c.067-.132,2.835-5.615,6.709-13.982L.53,48.607a.456.456,0,1,1-.147-.9l13.068-2.128c1.938-4.206,4.123-9.076,6.374-14.335L4.677,34.461a.457.457,0,1,1-.19-.894l15.777-3.349c1.655-3.886,3.334-7.964,4.971-12.127L12.582,21.024a.457.457,0,0,1-.206-.891L25.638,17.06c1.41-3.615,2.78-7.284,4.065-10.934L20.65,9.457a.457.457,0,0,1-.316-.857l9.759-3.591q.818-2.356,1.586-4.694A.456.456,0,0,1,32.112,0a.482.482,0,0,1,.142.022A.458.458,0,0,1,32.546.6q-.77,2.361-1.6,4.749l3.41,8.55a.456.456,0,0,1-.255.594" transform="translate(9.909 0)" fill="#98dbf9"/>
      </g>
    </g>
    <path id="Path_20" data-name="Path 20" d="M378.463,454.351c0,8.728-74.738,15.8-166.933,15.8S44.6,463.079,44.6,454.351,119.335,438.54,211.53,438.54s166.933,7.08,166.933,15.811" transform="translate(179.537 617.844)" fill="#c7dbe4"/>
    <g id="Group_3683" data-name="Group 3683" transform="translate(19 10)">
      <g id="Group_3280" data-name="Group 3280" transform="translate(237.805 1023)">
        <g id="Group_3272" data-name="Group 3272" transform="translate(40.147 25.868)">
          <path id="Path_18827" data-name="Path 18827" d="M471.345,990.9s.377,3.105,4.18,3.158,5.353,2.609,1.867,2.561-7.637.617-9.017-1.982S470.317,989.052,471.345,990.9Z" transform="translate(-468.044 -990.326)" fill="#bcac98"/>
        </g>
        <g id="Group_3273" data-name="Group 3273" transform="translate(0.938 12.563)">
          <path id="Path_18828" data-name="Path 18828" d="M375.157,948.346s-1.357.291-2.026,2.817-16.458-1.811-21.9,1.919-6.147,6.886-6.829,12.585c-1.443,12.045,20.139,10.736,27.468,7.984s19.706-3.851,16.4-16.892C387.64,956.434,375.157,948.346,375.157,948.346Z" transform="translate(-344.335 -948.346)" fill="#d3c2a4"/>
        </g>
        <g id="Group_3274" data-name="Group 3274" transform="translate(31.549 11.155)">
          <path id="Path_18829" data-name="Path 18829" d="M455.292,952.511l-1.088.855s-5.4,1.745-11.53-5.175c-2.412-3.67-1.64-4.287-1.64-4.287l1.373.306S444.942,952.2,455.292,952.511Z" transform="translate(-440.917 -943.905)" fill="#37454d"/>
        </g>
        <g id="Group_3275" data-name="Group 3275" transform="translate(40.782)">
          <path id="Path_18830" data-name="Path 18830" d="M470.049,909.566a2.494,2.494,0,0,1,2.072-.856c1.532-.034,3.86,2.476,4.424,2.68s1.925.539.556,1.054S470.716,911.119,470.049,909.566Z" transform="translate(-470.049 -908.709)" fill="#4f3c22"/>
        </g>
        <g id="Group_3276" data-name="Group 3276" transform="translate(32.246 0.841)">
          <path id="Path_18831" data-name="Path 18831" d="M446.369,914.724s2.434-3.336,6.022-3.361a8.559,8.559,0,0,1,5.614,2.231c.81.69,1.45,1.524,2.21,2.256.5.487,1.134.708,1.626,1.238a5.985,5.985,0,0,1,1.268,5.166c-.451,1.651,1.424,6.5-4.105,7.683s-12.852-2.152-14.412-5.021S441.633,919.138,446.369,914.724Z" transform="translate(-443.117 -911.362)" fill="#dacaaf"/>
        </g>
        <g id="Group_3277" data-name="Group 3277" transform="translate(30.953 4.056)">
          <path id="Path_18832" data-name="Path 18832" d="M444.481,922.06a3.546,3.546,0,0,0-3.016-.316c-1.374.68-2.461.433-2.427,1.965s-.225,5.361,1.6,6.538,1.4-1.97,2.331-3.055S445.48,922.528,444.481,922.06Z" transform="translate(-439.037 -921.507)" fill="#4f3c22"/>
        </g>
        <g id="Group_3278" data-name="Group 3278" transform="translate(33.16 27.329)">
          <path id="Path_18833" data-name="Path 18833" d="M456.335,994.934s.3,4.436,2.513,4.783,7.572,2.64,6.6,3.895-2.536-.035-4.12-.056-6.2.637-10.058-.886c-3.626-.456-5.273,1.16-5.273,1.16Z" transform="translate(-446 -994.934)" fill="#d3c2a4"/>
        </g>
        <g id="Group_3279" data-name="Group 3279" transform="translate(0 13.479)">
          <path id="Path_18834" data-name="Path 18834" d="M344.942,961.718a4.569,4.569,0,0,1-3.56-4.366c-.117-3.407,2.123-6.176,5.535-6.114s3.35,3.153,2.642,3.608-4.879.957-4.272,4.706C345.76,961.151,344.942,961.718,344.942,961.718Z" transform="translate(-341.377 -951.237)" fill="#bcac98"/>
        </g>
      </g>
      <g id="Group_3301" data-name="Group 3301" transform="translate(445.55 940)">
        <g id="Group_3289" data-name="Group 3289" transform="translate(0 12.665)">
          <path id="Path_18843" data-name="Path 18843" d="M1029.394,687.826l-12.87-2.64-6.93-11.55-3.3,2.64,4.95,15.51,10.89,6.6Z" transform="translate(-1006.295 -673.636)" fill="#b26650"/>
        </g>
        <g id="Group_3290" data-name="Group 3290" transform="translate(11.88 78.664)">
          <path id="Path_18844" data-name="Path 18844" d="M1043.777,884.177v34.979h5.28l3.3-21.119,2.97-16.17Z" transform="translate(-1043.777 -881.867)" fill="#2e4661"/>
        </g>
        <g id="Group_3291" data-name="Group 3291" transform="translate(23.43 77.344)">
          <path id="Path_18845" data-name="Path 18845" d="M1080.218,877.7l1.98,15.18,2.64,24.42,5.28-.33v-18.81l2.64-19.14Z" transform="translate(-1080.218 -877.703)" fill="#2e4661"/>
        </g>
        <g id="Group_3292" data-name="Group 3292" transform="translate(4.116 26.325)">
          <path id="Path_18846" data-name="Path 18846" d="M1036.12,716.769s-5.61-.99-7.92,7.59-8.579,33.659-8.91,46.859,8.25,4.62,18.48,6.27,18.644,1.815,18.644-4.125S1060.044,716.934,1036.12,716.769Z" transform="translate(-1019.281 -716.734)" fill="#b26650"/>
        </g>
        <g id="Group_3296" data-name="Group 3296" transform="translate(13.976)">
          <g id="Group_3294" data-name="Group 3294" transform="translate(1.096 5.166)">
            <g id="Group_3293" data-name="Group 3293">
              <path id="Path_18847" data-name="Path 18847" d="M1056.51,654.117c4.672-8.24,15.14-2.968,15.858,5.241.408,4.668-2.716,12.453-8.214,12.058-.343.753-.943,2.181-1.717,2.5-.837.345-2.684-.887-3.417-1.343a1.294,1.294,0,0,1-.517-.484,2.429,2.429,0,0,1,.218-1.417,7.728,7.728,0,0,1-1.671-.965,9,9,0,0,1-3.194-7.559A18.068,18.068,0,0,1,1056.51,654.117Z" transform="translate(-1053.847 -649.977)" fill="#eacdb0"/>
            </g>
          </g>
          <g id="Group_3295" data-name="Group 3295">
            <path id="Path_18848" data-name="Path 18848" d="M1060.67,640.842s7.477,1.869,7.477,4.984c0,4.683.311,7.826,0,10.611l5.3-3.134,3.115-8.723s-.623-7.165-4.361-8.411a101.718,101.718,0,0,0-11.526-2.492l-5.919,1.869-4.361-.311,1.508,13.083S1053.817,638.973,1060.67,640.842Z" transform="translate(-1050.39 -633.677)" fill="#754c3d"/>
          </g>
        </g>
        <g id="Group_3297" data-name="Group 3297" transform="translate(26.73 27.515)">
          <path id="Path_18849" data-name="Path 18849" d="M1090.629,720.488l9.24,3.3,8.25,20.46,6.6,14.85-3.63,2.31-10.56-14.85Z" transform="translate(-1090.629 -720.488)" fill="#b26650"/>
        </g>
        <g id="Group_3298" data-name="Group 3298" transform="translate(47.19 66.124)">
          <path id="Path_18850" data-name="Path 18850" d="M1155.182,844.613l2.31,3.3,1.32-1.32h3.96l-3.96-4.29Z" transform="translate(-1155.182 -842.303)" fill="#eacdb0"/>
        </g>
        <g id="Group_3299" data-name="Group 3299" transform="translate(8.91 115.953)">
          <path id="Path_18851" data-name="Path 18851" d="M1037.376,999.518l-2.97,2.97,1.32,1.98,5.94-1.98v-2.97Z" transform="translate(-1034.406 -999.518)" fill="#8c9498"/>
        </g>
        <g id="Group_3300" data-name="Group 3300" transform="translate(28.93 116.661)">
          <path id="Path_18852" data-name="Path 18852" d="M1097.57,1001.979l1.1,4.345,3.63,1.32,1.98-.99-3.074-4.9Z" transform="translate(-1097.57 -1001.751)" fill="#8c9498"/>
        </g>
      </g>
      <g id="Group_3682" data-name="Group 3682" transform="translate(281 748)">
        <g id="Group_3630" data-name="Group 3630" transform="translate(59.677 305.141)">
          <path id="Path_19113" data-name="Path 19113" d="M180.33,922.058v3.854l7.708,3.854,3.854-3.854-3.854-3.854Z" transform="translate(-180.33 -922.058)" fill="#3a3029"/>
        </g>
        <g id="Group_3631" data-name="Group 3631" transform="translate(122.249 306.965)">
          <path id="Path_19114" data-name="Path 19114" d="M378.2,927.57v3.08l-5.866,3.08-2.933-3.08,2.933-3.08Z" transform="translate(-369.404 -927.57)" fill="#514943"/>
        </g>
        <g id="Group_3681" data-name="Group 3681" transform="translate(0 0)">
          <g id="Group_3632" data-name="Group 3632" transform="translate(92.894 130.449)">
            <path id="Path_19115" data-name="Path 19115" d="M286,394.515l.662,4.964-2.1,3.236-3.413-.5L280.7,396.5l4.633-2.316Z" transform="translate(-280.701 -394.184)" fill="#eac5b0"/>
          </g>
          <g id="Group_3633" data-name="Group 3633" transform="translate(61.455 126.809)">
            <path id="Path_19116" data-name="Path 19116" d="M185.7,383.184l24.158,31.77,4.633-20.849,8.6,1.655L218.133,427.2l-8.346,5.8-22.1-14.733Z" transform="translate(-185.701 -383.184)" fill="#3ababa"/>
          </g>
          <g id="Group_3634" data-name="Group 3634" transform="translate(141.872 131.773)">
            <path id="Path_19117" data-name="Path 19117" d="M435.982,398.184l7.612,5.626,30.115,41.7-1.324,9.928H458.816L428.7,415.061Z" transform="translate(-428.701 -398.184)" fill="#ebb044"/>
          </g>
          <g id="Group_3635" data-name="Group 3635" transform="translate(16.945 301.284)">
            <path id="Path_19118" data-name="Path 19118" d="M52.022,914.156l-.818,3.753,6.483,5.345,4.469-2.957-2.833-4.549L52.84,910.4Z" transform="translate(-51.204 -910.402)" fill="#3a3029"/>
          </g>
          <g id="Group_3636" data-name="Group 3636" transform="translate(17.645 189.635)">
            <path id="Path_19119" data-name="Path 19119" d="M76.111,573.027,68.876,589.71l-.682,46.938L53.318,687.137l6.917,3.067L90.591,631.58l3.455-18.568,1.373-39.107Z" transform="translate(-53.318 -573.027)" fill="#145566"/>
          </g>
          <g id="Group_3637" data-name="Group 3637" transform="translate(45.381 188.944)">
            <path id="Path_19120" data-name="Path 19120" d="M167.214,575.371l.569,49.191-9.27,63.424h-7.128l-4.5-58.522-9.754-58.522Z" transform="translate(-137.129 -570.941)" fill="#145566"/>
          </g>
          <g id="Group_3638" data-name="Group 3638" transform="translate(22.924 126.063)">
            <path id="Path_19121" data-name="Path 19121" d="M107.775,381.632l-18.933-.7s-11.327,9.938-17.18,35.763c-5.96,26.3,1.1,64.153,1.1,64.153s50.8-6.77,59.125-7.816l-12.707-51.92Z" transform="translate(-69.27 -380.931)" fill="#3ababa"/>
          </g>
          <g id="Group_3639" data-name="Group 3639" transform="translate(44.024 104.987)">
            <path id="Path_19122" data-name="Path 19122" d="M143.648,340.957l-6.633-.649a33.266,33.266,0,0,1,.352-5.3c-1.843-.646-3.974-1.614-4.3-3.54a5.509,5.509,0,0,1,.106-1.833q.645-3.76,1.289-7.52a6.716,6.716,0,0,1,.777-2.5,5.643,5.643,0,0,1,3.95-2.142,13.731,13.731,0,0,1,11.122,2.694,6.014,6.014,0,0,1,1.881,2.474,8.155,8.155,0,0,1-.267,4.764l-1.131,4.331c-.434,1.66-1.06,3.548-2.658,4.172-.849.332-1.851.236-2.619.726C144.166,337.5,144.351,339.512,143.648,340.957Z" transform="translate(-133.028 -317.245)" fill="#eac5b0"/>
          </g>
          <g id="Group_3640" data-name="Group 3640" transform="translate(35.89 92.722)">
            <path id="Path_19123" data-name="Path 19123" d="M148.805,291.107a21.325,21.325,0,0,0-.542-5.024c-.59-2.692-3.767-3.9-6.516-4.094-5.94-.412-11.671-3.1-17.471-1.027-3.315,1.188-7.768,1.473-10.768,3.148a8.857,8.857,0,0,0-3.03,3,13.346,13.346,0,0,0-.018,14.114,19.066,19.066,0,0,0,2.08,2.615c1.567,1.7,3.442,3.789,5.6,4.415.049-1.926-1.714-8-.237-9.576,2.344-2.508,7.652-1.641,10.564-1.029,3.177.668,6.011,2.914,9.16,3.39,2.266.343,5.156-.772,7.081-1.946C147.72,297.251,148.727,294.212,148.805,291.107Z" transform="translate(-108.45 -280.184)" fill="#1a3151"/>
          </g>
          <g id="Group_3641" data-name="Group 3641" transform="translate(47.513 128.127)">
            <path id="Path_19124" data-name="Path 19124" d="M152.266,388.146l19.9,79.617L173.8,478.2,149,481.468s.979-38.126.653-43.209-4-16.078-4.568-27.925c-.326-6.852-2.5-19.16-.979-23.167Z" transform="translate(-143.572 -387.167)" fill="#d1e7f5"/>
          </g>
          <g id="Group_3642" data-name="Group 3642" transform="translate(123.228 103.312)">
            <path id="Path_19125" data-name="Path 19125" d="M374.667,312.286s-3.516,2.876-1.861,13.466a65.3,65.3,0,0,1,.662,17.539s3.64,1.655,6.288,0,3.64-1.986,2.647-6.288-2.978-24.82-2.978-24.82Z" transform="translate(-372.363 -312.184)" fill="#1a3151"/>
          </g>
          <g id="Group_3643" data-name="Group 3643" transform="translate(149.039 301.823)">
            <path id="Path_19126" data-name="Path 19126" d="M458.815,915.085l.309,3.052-5.535,3.805-3.231-2.675,2.613-3.429,5.535-3.805Z" transform="translate(-450.357 -912.033)" fill="#514943"/>
          </g>
          <g id="Group_3644" data-name="Group 3644" transform="translate(134.694 210.555)">
            <path id="Path_19127" data-name="Path 19127" d="M429.674,637.261l.938,9.268-8.3,31.843,7.708,51.169-5.674,1.958-14.961-49.956L407.01,667.01l.087-30.766Z" transform="translate(-407.01 -636.244)" fill="#eac5b0"/>
          </g>
          <g id="Group_3645" data-name="Group 3645" transform="translate(113.72 214.108)">
            <path id="Path_19128" data-name="Path 19128" d="M343.634,654.773l11.934,85.741h5.425l.976-54.96,9.873-38.576Z" transform="translate(-343.634 -646.979)" fill="#eac5b0"/>
          </g>
          <g id="Group_3646" data-name="Group 3646" transform="translate(99.843 130.514)">
            <path id="Path_19129" data-name="Path 19129" d="M330.3,398.589q.164-.28.344-.553c4.26-6.457,13.9-2.4,20.218-2.4,1.728,18.225,6.506,35.594,9.592,53.488q4.916,28.507,11.067,56.782c.232,1.067-16.275.529-17.831.554-15.881.269-36.669.214-51.993-4.6,9.779-26.3,13.35-54.59,21.051-81.57,1.7-5.95,3.538-11.815,5.71-17.56A26.84,26.84,0,0,1,330.3,398.589Z" transform="translate(-301.701 -394.38)" fill="#ebb044"/>
          </g>
          <g id="Group_3647" data-name="Group 3647" transform="translate(123.633 100.693)">
            <path id="Path_19130" data-name="Path 19130" d="M384.207,310.569a10.719,10.719,0,0,0-7.625,8.978,9.445,9.445,0,0,1,2.074-15.278,10.921,10.921,0,0,1,5.252,6.371Z" transform="translate(-373.586 -304.27)" fill="#1a3151"/>
          </g>
          <g id="Group_3648" data-name="Group 3648" transform="translate(125.532 104.824)">
            <path id="Path_19131" data-name="Path 19131" d="M379.87,324.315c2.077-10.984,15.778-9.086,19.708-.191,2.235,5.058,1.713,14.943-4.577,16.6-.1.972-.222,2.8-.964,3.445-.8.7-3.336.033-4.328-.2a1.523,1.523,0,0,1-.762-.343,2.863,2.863,0,0,1-.3-1.665,9.123,9.123,0,0,1-2.234-.442,10.626,10.626,0,0,1-6.449-7.223A21.321,21.321,0,0,1,379.87,324.315Z" transform="translate(-379.325 -316.752)" fill="#eac5b0"/>
          </g>
          <g id="Group_3649" data-name="Group 3649" transform="translate(128.877 95.332)">
            <path id="Path_19132" data-name="Path 19132" d="M389.523,293.4s-1.324,5.957,6.288,7.611,12.555,7.612,11.242,13.9-6.939,10.921-3.961,12.576,13.9,0,13.9,0,6.619-22.173-2.317-31.77S392.832,285.79,389.523,293.4Z" transform="translate(-389.435 -288.068)" fill="#1a3151"/>
          </g>
          <g id="Group_3650" data-name="Group 3650" transform="translate(100.505 132.553)">
            <path id="Path_19133" data-name="Path 19133" d="M333.4,400.54l-5.239,3.356L303.7,433.516l.662,8.273h11.367l20.733-32.763Z" transform="translate(-303.701 -400.54)" fill="#ebb044"/>
          </g>
          <g id="Group_3651" data-name="Group 3651" transform="translate(108.719 134.294)">
            <path id="Path_19134" data-name="Path 19134" d="M409.74,432.8c-23.208-3.918-30.082-18.177-30.958-20.227,0,0,.029-.158-.051-.122-.033-.081-.121.053-.121.053-2.048.881-16.858,6.468-36.368-6.7,0,0-18.646,37.115-12.464,57.77,6.6,22.061,15.8,31.612,15.875,31.591.039.066,13.345-.373,33.281-11.933C397.584,472.415,409.74,432.8,409.74,432.8Z" transform="translate(-328.521 -405.802)" fill="#145566"/>
          </g>
          <g id="Group_3652" data-name="Group 3652" transform="translate(111.847 139.496)">
            <path id="Path_19135" data-name="Path 19135" d="M411.359,446.014c-21.028-3.635-27.334-16.4-28.138-18.238,0,0,.025-.141-.047-.11-.031-.072-.11.047-.11.047-1.848.774-15.219,5.674-32.955-6.193,0,0-16.656,33.02-10.94,51.494,6.106,19.732,14.112,29.223,14.179,29.2.035.059,12.452-1.165,30.427-11.367C400.592,481.308,411.359,446.014,411.359,446.014Z" transform="translate(-337.974 -421.52)" fill="#9ea6ad"/>
          </g>
          <g id="Group_3654" data-name="Group 3654" transform="translate(122.131 137.717)">
            <g id="Group_3653" data-name="Group 3653">
              <path id="Path_19136" data-name="Path 19136" d="M402.5,427.486s.083-.125.115-.049c.075-.033.049.115.049.115.826,1.884,7.194,14.778,28.2,18.868,1.3-3.524,1.988-5.78,1.988-5.78-21.028-3.635-27.333-16.4-28.138-18.238,0,0,.024-.141-.047-.11-.031-.072-.11.047-.11.047-1.848.774-15.219,5.674-32.955-6.193,0,0-1.062,2.105-2.557,5.55C387.091,433.231,400.6,428.281,402.5,427.486Z" transform="translate(-369.047 -416.146)" fill="#d1e7f5"/>
            </g>
          </g>
          <g id="Group_3655" data-name="Group 3655" transform="translate(118.288 151.316)">
            <path id="Path_19137" data-name="Path 19137" d="M414.833,477.119C398.921,474.433,392.6,463.609,392,462.2c0,0,.019-.109-.036-.084-.023-.056-.083.036-.083.036-1.4.6-13.341,4.106-26.716-4.92,0,0-11,25.775-6.762,39.936,4.527,15.125,10.833,21.673,10.884,21.658.027.045,9.149-.255,22.817-8.181C404.895,503.234,414.833,477.119,414.833,477.119Z" transform="translate(-357.435 -457.237)" fill="#b5d6ca"/>
          </g>
          <g id="Group_3656" data-name="Group 3656" transform="translate(4.203 126.147)">
            <path id="Path_19138" data-name="Path 19138" d="M51.09,381.184l-8.935,4.964L12.7,429.831l2.647,11.252L31.564,439.1Z" transform="translate(-12.701 -381.184)" fill="#3ababa"/>
          </g>
          <g id="Group_3657" data-name="Group 3657" transform="translate(14.822 135.909)">
            <path id="Path_19139" data-name="Path 19139" d="M118.77,463.994,56.184,480.2l-11.4-44.009,26.786-25.508,35.8,9.3Z" transform="translate(-44.789 -410.682)" fill="#9ea6ad"/>
          </g>
          <g id="Group_3658" data-name="Group 3658" transform="translate(0 126.169)">
            <path id="Path_19140" data-name="Path 19140" d="M92.794,394.764,75.6,390.31l-27.811-7.2c-2.24-.58-4.474-1.223-6.729-1.742a3.874,3.874,0,0,0-3.728,1.042c-.662.637-1.3,1.3-1.955,1.942L16.519,403.084c-5.1,5.066-10.286,10.057-15.3,15.2-.083.085-.169.168-.253.252a3.394,3.394,0,0,0-.015,4.723,3.386,3.386,0,0,0,4.723.014l12.406-12.327L37.758,391.4l3.182-3.161,15.591,4.037,28.029,7.258,6.417,1.662a3.34,3.34,0,0,0,1.817-6.427Z" transform="translate(0 -381.251)" fill="#1a3151"/>
          </g>
          <g id="Group_3659" data-name="Group 3659" transform="translate(27.179 168.46)">
            <rect id="Rectangle_925" data-name="Rectangle 925" width="15.764" height="30.367" transform="translate(0 3.951) rotate(-14.516)" fill="#fffff1"/>
          </g>
          <g id="Group_3664" data-name="Group 3664" transform="translate(52.742 160.83)">
            <g id="Group_3660" data-name="Group 3660" transform="translate(0 2.814)">
              <rect id="Rectangle_926" data-name="Rectangle 926" width="8.575" height="7.312" transform="matrix(0.968, -0.251, 0.251, 0.968, 0, 2.149)" fill="#fffff1"/>
            </g>
            <g id="Group_3661" data-name="Group 3661" transform="translate(10.866)">
              <rect id="Rectangle_927" data-name="Rectangle 927" width="8.575" height="7.312" transform="matrix(0.968, -0.251, 0.251, 0.968, 0, 2.149)" fill="#fffff1"/>
            </g>
            <g id="Group_3662" data-name="Group 3662" transform="translate(2.508 12.501)">
              <rect id="Rectangle_928" data-name="Rectangle 928" width="8.575" height="7.313" transform="matrix(0.968, -0.251, 0.251, 0.968, 0, 2.149)" fill="#fffff1"/>
            </g>
            <g id="Group_3663" data-name="Group 3663" transform="translate(13.374 9.687)">
              <rect id="Rectangle_929" data-name="Rectangle 929" width="8.575" height="7.312" transform="matrix(0.968, -0.251, 0.251, 0.968, 0, 2.149)" fill="#fffff1"/>
            </g>
          </g>
          <g id="Group_3665" data-name="Group 3665" transform="translate(4.203 171.485)">
            <path id="Path_19141" data-name="Path 19141" d="M12.7,521.493l10.921-3.309,36.4,19.525-2.813,7.612L15.349,532.745Z" transform="translate(-12.701 -518.184)" fill="#3ababa"/>
          </g>
          <g id="Group_3666" data-name="Group 3666" transform="translate(49.009 192.334)">
            <path id="Path_19142" data-name="Path 19142" d="M150.12,581.186l6.447,0,5.144,6.2-5.806,2.075-7.813-2.783Z" transform="translate(-148.092 -581.184)" fill="#eac5b0"/>
          </g>
          <g id="Group_3667" data-name="Group 3667" transform="translate(146.505 175.125)">
            <path id="Path_19143" data-name="Path 19143" d="M483.075,533.155l-12.245-3.971L442.7,532.162l.331,8.6,38.719,4.3Z" transform="translate(-442.701 -529.184)" fill="#ebb044"/>
          </g>
          <g id="Group_3668" data-name="Group 3668" transform="translate(133.268 179.096)">
            <path id="Path_19144" data-name="Path 19144" d="M415.928,541.266l-6.608-.083-6.619,3.971,2.647,3.64,6.619-.662,4.2-1.906Z" transform="translate(-402.701 -541.184)" fill="#eac5b0"/>
          </g>
          <g id="Group_3671" data-name="Group 3671" transform="translate(78.995 0)">
            <g id="Group_3669" data-name="Group 3669">
              <path id="Path_19145" data-name="Path 19145" d="M262.877,6.605V3.362L261.383.306a1.03,1.03,0,0,0-1.5.032l-1.25,3.024V6.605c-1.177,0-3.094.923-3.094,2.061a2.1,2.1,0,0,0,2.132,2.061h.963v109.9c0,6.2-3.278,11.358-7.987,11.248-3.649-.086-6.831-3.188-7.367-8.252a2.236,2.236,0,0,0-2.243-1.984h-.084a2.2,2.2,0,0,0-2.237,2.432c.931,7.2,6.646,12.353,12.072,12.353a10.781,10.781,0,0,0,9.74-5.506c2.507-4.385,2.346-9.2,2.346-14.016V10.727h.66a2.1,2.1,0,0,0,2.132-2.061C265.669,7.528,264.054,6.605,262.877,6.605Z" transform="translate(-238.701 0)" fill="#1a3151"/>
            </g>
            <g id="Group_3670" data-name="Group 3670" transform="translate(19.892 56.404)" opacity="0.26">
              <path id="Path_19146" data-name="Path 19146" d="M303.093,182.248l-4.284-4.453v-7.356h4.284Z" transform="translate(-298.809 -170.439)" fill="#1a3151"/>
            </g>
          </g>
          <g id="Group_3672" data-name="Group 3672" transform="translate(133.39 78.492)">
            <path id="Path_19147" data-name="Path 19147" d="M403.07,237.184c.167.08.334.161.5.243q.358-.124.72-.243H403.07Z" transform="translate(-403.07 -237.184)" fill="none"/>
          </g>
          <g id="Group_3673" data-name="Group 3673" transform="translate(27.232 10.665)">
            <path id="Path_19148" data-name="Path 19148" d="M124.614,99.415l.764-4.7A110.572,110.572,0,0,1,143.7,49.361l11.9-17.134A77.221,77.221,0,0,0,82.287,99.538a74.957,74.957,0,0,1,21.3-2.951A76.695,76.695,0,0,1,124.614,99.415Z" transform="translate(-82.287 -32.227)" fill="#b5d6ca"/>
          </g>
          <g id="Group_3674" data-name="Group 3674" transform="translate(101.402 10.589)">
            <path id="Path_19149" data-name="Path 19149" d="M336.815,89.8l2.039,10.1h.763a73.788,73.788,0,0,1,22.943-3.468,75.371,75.371,0,0,1,23.04,3.445A77.271,77.271,0,0,0,308.886,32c-.828,0-1.652.018-2.474.043l9.508,13.9C327.575,60.28,332.927,74.8,336.815,89.8Z" transform="translate(-306.412 -31.998)" fill="#b5d6ca"/>
          </g>
          <g id="Group_3675" data-name="Group 3675" transform="translate(69.558 10.633)">
            <path id="Path_19150" data-name="Path 19150" d="M210.951,94.645l-.764,4.7.2.06c8.023-3.567,19.019-5.613,31.163-5.613,12.788,0,24.328,2.268,32.464,6.193h.455l-2.039-10.1c-3.888-15-9.24-29.522-20.9-43.859l-9.508-13.9q-.426.013-.851.032L229.278,49.3A110.572,110.572,0,0,0,210.951,94.645Z" transform="translate(-210.187 -32.129)" fill="#145566"/>
          </g>
          <g id="Group_3676" data-name="Group 3676" transform="translate(69.532 77.853)">
            <path id="Path_19151" data-name="Path 19151" d="M210.133,235.251l-.026.162.231-.1Z" transform="translate(-210.107 -235.251)" fill="#fff"/>
          </g>
          <g id="Group_3677" data-name="Group 3677" transform="translate(100.505 164.687)">
            <path id="Path_19152" data-name="Path 19152" d="M303.7,498.484l10.7-.841,19.744,22.021-4.3,4.3-25.482-17.209Z" transform="translate(-303.701 -497.643)" fill="#ebb044"/>
          </g>
          <g id="Group_3678" data-name="Group 3678" transform="translate(127.825 187.618)">
            <path id="Path_19153" data-name="Path 19153" d="M388.47,566.934l4.219,3.392.331,6.288h-3.64l-3.127-7.463Z" transform="translate(-386.253 -566.934)" fill="#eac5b0"/>
          </g>
          <g id="Group_3679" data-name="Group 3679" transform="translate(88.804 128.132)">
            <path id="Path_19154" data-name="Path 19154" d="M270.446,396.781l-2.1-3.731.119-5.866,1.986.662.662,2.978,3.64,3.309-1.073,3.4Z" transform="translate(-268.342 -387.184)" fill="#eac5b0"/>
          </g>
          <g id="Group_3680" data-name="Group 3680" transform="translate(90.972 126.164)">
            <path id="Path_19155" data-name="Path 19155" d="M274.895,387.991l.477-3.844,3.917-2.912,2.682,2.079-.625,3.2Z" transform="translate(-274.895 -381.235)" fill="#eac5b0"/>
          </g>
        </g>
      </g>
    </g>
  </g>
</svg>
