<svg xmlns="http://www.w3.org/2000/svg" width="56.084" height="38.369" viewBox="0 0 56.084 38.369">
  <g id="hospital-buildings" transform="translate(0 -14.926)">
    <path id="Path_15976" data-name="Path 15976" d="M52.946,49.2a1.978,1.978,0,0,0,.1-.628V25.516a1.98,1.98,0,0,0-1.98-1.979H40.051V48.081a3.32,3.32,0,0,1-.2,1.122H38.561a1.978,1.978,0,0,0,.1-.628V16.905a1.98,1.98,0,0,0-1.98-1.979H19.4a1.979,1.979,0,0,0-1.979,1.979V48.576a1.978,1.978,0,0,0,.1.628H16.23a3.32,3.32,0,0,1-.2-1.122V23.537H5.279A1.979,1.979,0,0,0,3.3,25.516v23.06a2,2,0,0,0,.1.628H0v4.091H56.084V49.2ZM9.237,41.12H6.4V38.283H9.237Zm0-4.981H6.4V33.3H9.237Zm0-4.816H6.4V28.485H9.237Zm4.421,9.8H10.821V38.283h2.837Zm0-4.981H10.821V33.3h2.837Zm0-4.816H10.821V28.485h2.837ZM32.446,49.071h-8.33V38.679h8.33Zm-4.4-19.3a6.977,6.977,0,1,1,6.978-6.977A6.977,6.977,0,0,1,28.042,29.771ZM46.055,41.12H43.218V38.283h2.837Zm0-4.981H43.218V33.3h2.837Zm0-4.816H43.218V28.485h2.837Zm4.421,9.8H47.639V38.283h2.837Zm0-4.981H47.639V33.3h2.837Zm0-4.816H47.639V28.485h2.837Zm-20.7-10.26h2.672v3.463H29.773V27.2H26.31V24.526H23.638V21.062H26.31V18.39h3.463Z" fill="#6a8dac"/>
  </g>
</svg>
