<svg xmlns="http://www.w3.org/2000/svg" xmlns:xlink="http://www.w3.org/1999/xlink" width="47.713" height="62.999" viewBox="0 0 47.713 62.999">
  <defs>
    <linearGradient id="linear-gradient" x1="0.5" x2="0.5" y2="1" gradientUnits="objectBoundingBox">
      <stop offset="0.13" stop-color="#00a9ed"/>
      <stop offset="1" stop-color="#65106b"/>
    </linearGradient>
  </defs>
  <path id="Union_17" data-name="Union 17" d="M21027.693,13768a6.254,6.254,0,0,1-6.248-6.11h-.131a6.308,6.308,0,0,1-6.312-6.248v-41.284a.95.95,0,0,1,.334-.687l9.281-8.426a.947.947,0,0,1,.629-.243h25.041a6.259,6.259,0,0,1,6.248,6.116,6.2,6.2,0,0,1,6.18,6.248v44.393a6.192,6.192,0,0,1-6.18,6.242Zm0-1.855h28.842a4.338,4.338,0,0,0,4.318-4.387v-44.393a4.324,4.324,0,0,0-4.387-4.388v42.664a6.2,6.2,0,0,1-6.18,6.248h-26.98A4.4,4.4,0,0,0,21027.693,13766.142Zm-10.83-10.5a4.445,4.445,0,0,0,4.451,4.388h28.973a4.333,4.333,0,0,0,4.318-4.388v-44.393a4.335,4.335,0,0,0-4.318-4.387h-24.121v5.186a3.538,3.538,0,0,1-3.525,3.589h-5.777Zm1.152-41.865h4.625a1.677,1.677,0,0,0,1.666-1.729v-4.06Zm4.092,41.337a.931.931,0,0,1,0-1.861h27.916a.931.931,0,0,1,0,1.861Zm0-6.518a.928.928,0,0,1,0-1.855h22.2a.928.928,0,1,1,0,1.855Zm0-6.513a.93.93,0,0,1,0-1.86h14.092a.93.93,0,0,1,0,1.86Zm0-6.513a.93.93,0,0,1,0-1.86h14.092a.93.93,0,0,1,0,1.86Zm0-6.513a.93.93,0,0,1,0-1.86h9.309a.93.93,0,0,1,0,1.86Zm18.875-1.992a1.253,1.253,0,0,1-1.262-1.2v-4.123h-3.924a1.253,1.253,0,0,1-1.258-1.194v-3.187a1.258,1.258,0,0,1,1.258-1.2h3.924v-3.721a1.257,1.257,0,0,1,1.262-1.2h3.326a1.143,1.143,0,0,1,1.125,1.2v3.721h3.791a1.146,1.146,0,0,1,1.131,1.2v3.188a1.141,1.141,0,0,1-1.131,1.194h-3.791v4.123a1.14,1.14,0,0,1-1.125,1.2Zm-4.582-7.174h4.049a1.141,1.141,0,0,1,1.131,1.2v4.117h1.994v-4.117a1.253,1.253,0,0,1,1.262-1.2h3.658v-1.865h-3.658a1.253,1.253,0,0,1-1.262-1.2v-3.721h-1.994v3.721a1.141,1.141,0,0,1-1.131,1.2h-4.049Z" transform="translate(-21015.002 -13704.998)" fill="url(#linear-gradient)"/>
</svg>
