<svg xmlns="http://www.w3.org/2000/svg" width="47.429" height="50.333" viewBox="0 0 47.429 50.333">
  <g id="Group_1634" data-name="Group 1634" transform="translate(4566.158 -6687.667)">
    <g id="pdf" transform="translate(-4580.929 6687.667)">
      <g id="Group_1627" data-name="Group 1627" transform="translate(14.769)">
        <g id="Group_1626" data-name="Group 1626">
          <path id="Path_16410" data-name="Path 16410" d="M61.928,13.621,49.1.3a.969.969,0,0,0-.7-.3H29.3a3.883,3.883,0,0,0-3.879,3.877V17.423h-7.75a2.9,2.9,0,0,0-2.9,2.9V34.849a2.9,2.9,0,0,0,2.9,2.9h7.745v8.713A3.879,3.879,0,0,0,29.3,50.333H58.32a3.878,3.878,0,0,0,3.88-3.868V14.292a.968.968,0,0,0-.272-.671ZM48.647,2.613,59.174,13.551H48.647Zm-30.976,33.2a.967.967,0,0,1-.966-.965V20.325a.967.967,0,0,1,.966-.965H43.809a.967.967,0,0,1,.966.965V34.849a.967.967,0,0,1-.966.965ZM60.263,46.465A1.94,1.94,0,0,1,58.32,48.4H29.3a1.941,1.941,0,0,1-1.943-1.935V37.75H43.809a2.9,2.9,0,0,0,2.9-2.9V20.325a2.905,2.905,0,0,0-2.9-2.9H27.352V3.877A1.945,1.945,0,0,1,29.3,1.936H46.711V14.519a.968.968,0,0,0,.968.968H60.263Z" transform="translate(-14.769)"/>
        </g>
      </g>
      <g id="Group_1629" data-name="Group 1629" transform="translate(20.454 23.628)">
        <g id="Group_1628" data-name="Group 1628">
          <path id="Path_16411" data-name="Path 16411" d="M78.483,241.285a2.18,2.18,0,0,0-1.2-.814,9.769,9.769,0,0,0-2-.125H72.6v8.315h1.679v-3.136h1.1a9.582,9.582,0,0,0,1.741-.119,2.432,2.432,0,0,0,.871-.394,2.28,2.28,0,0,0,.706-.819,2.712,2.712,0,0,0,.278-1.287,2.582,2.582,0,0,0-.487-1.621Zm-1.438,2.289a1.1,1.1,0,0,1-.525.408,4.34,4.34,0,0,1-1.327.13h-.919v-2.359h.811a8.06,8.06,0,0,1,1.208.057,1.16,1.16,0,0,1,.675.369,1.074,1.074,0,0,1,.267.749,1.117,1.117,0,0,1-.19.645Z" transform="translate(-72.596 -240.346)" fill="#147db2"/>
        </g>
      </g>
      <g id="Group_1631" data-name="Group 1631" transform="translate(28.196 23.628)">
        <g id="Group_1630" data-name="Group 1630">
          <path id="Path_16412" data-name="Path 16412" d="M158.044,242.617a3.633,3.633,0,0,0-.794-1.347,2.781,2.781,0,0,0-1.25-.77,5.991,5.991,0,0,0-1.582-.159H151.35v8.315h3.159A5.076,5.076,0,0,0,156,248.48a2.95,2.95,0,0,0,1.18-.664,3.667,3.667,0,0,0,.89-1.469,5.464,5.464,0,0,0,.255-1.77,6.136,6.136,0,0,0-.276-1.96Zm-1.633,3.414a1.759,1.759,0,0,1-.44.8,1.549,1.549,0,0,1-.678.346,4.568,4.568,0,0,1-1.015.079h-1.253v-5.507h.754a7.6,7.6,0,0,1,1.378.079,1.6,1.6,0,0,1,.777.391,1.9,1.9,0,0,1,.476.8,4.967,4.967,0,0,1,.17,1.48,5.424,5.424,0,0,1-.169,1.528Z" transform="translate(-151.346 -240.346)" fill="#147db2"/>
        </g>
      </g>
      <g id="Group_1633" data-name="Group 1633" transform="translate(36.601 23.628)">
        <g id="Group_1632" data-name="Group 1632">
          <path id="Path_16413" data-name="Path 16413" d="M242.546,241.753v-1.407h-5.7v8.315h1.679v-3.533H242v-1.407h-3.471v-1.968Z" transform="translate(-236.846 -240.346)" fill="#147db2"/>
        </g>
      </g>
    </g>
  </g>
</svg>
