<svg xmlns="http://www.w3.org/2000/svg" xmlns:xlink="http://www.w3.org/1999/xlink" width="48.004" height="52.332" viewBox="0 0 48.004 52.332">
  <defs>
    <linearGradient id="linear-gradient" x1="0.5" x2="0.5" y2="1" gradientUnits="objectBoundingBox">
      <stop offset="0.13" stop-color="#00a9ed"/>
      <stop offset="1" stop-color="#65106b"/>
    </linearGradient>
  </defs>
  <g id="Group_2277" data-name="Group 2277" transform="translate(-641.996 -383.668)">
    <path id="Subtraction_8" data-name="Subtraction 8" d="M4626.5-3916.33h-27.746a.755.755,0,0,1-.753-.754v-40.343a.752.752,0,0,1,.359-.7.748.748,0,0,1,.391-.11.757.757,0,0,1,.393.11.755.755,0,0,1,.358.7v39.591l27,.068v1.438Zm-16.736-6.183h-5.946a.754.754,0,0,1-.751-.754v-5.948a.755.755,0,0,1,.754-.753h5.942a.742.742,0,0,1,.533.22.748.748,0,0,1,.222.533v5.948a.747.747,0,0,1-.222.532.751.751,0,0,1-.535.215Zm-5.2-5.954.008,4.445h4.437v-4.445Zm16.145,4.785h-6.185c-.119,0-.23-.142-.292-.37a1.6,1.6,0,0,1,0-.767c.06-.228.172-.37.292-.37h6.184c.184.015.328.345.328.752s-.146.738-.326.748Zm-6.246-3.616c-.106,0-.2-.135-.258-.36a1.716,1.716,0,0,1,0-.784c.054-.221.152-.36.256-.36h6.479c.166,0,.3.338.3.753s-.136.747-.3.747h-6.478Zm-4.7-5.1h-5.946a.754.754,0,0,1-.751-.753v-5.951a.752.752,0,0,1,.22-.532.762.762,0,0,1,.534-.22h5.861l.774-.987a.752.752,0,0,1,.593-.288.745.745,0,0,1,.462.161.754.754,0,0,1,.127,1.056l-1.123,1.428v5.331a.747.747,0,0,1-.222.531.747.747,0,0,1-.531.222Zm-5.2-5.954.008,4.445h4.435v-2.662l-1.051,1.337a.764.764,0,0,1-.548.287h-.045a.747.747,0,0,1-.532-.221l-1.438-1.437a.757.757,0,0,1,0-1.063.748.748,0,0,1,.532-.22.748.748,0,0,1,.533.22l.837.837,1.2-1.523Zm10.347,4.786a.758.758,0,0,1-.644-.359.748.748,0,0,1,0-.784.757.757,0,0,1,.644-.363h4.869a.756.756,0,0,1,.7.751.755.755,0,0,1-.7.75h-4.87Zm-.119-3.617a.623.623,0,0,1-.54-.359.884.884,0,0,1,0-.782.627.627,0,0,1,.541-.362H4626.5v1.5h-11.708Zm22.516-1.984h-1.014c.054-4.853.083-10.381.083-16.432h-9.4a.757.757,0,0,1-.532-.22.765.765,0,0,1-.22-.533v-9.147H4599.5v5.059a.754.754,0,0,1-.358.7.759.759,0,0,1-.393.109.754.754,0,0,1-.391-.11.748.748,0,0,1-.359-.7v-5.807a.755.755,0,0,1,.752-.752h28.225a.752.752,0,0,1,.535.219l9.9,9.9a.754.754,0,0,1,.219.533l-.323,17.179Zm-9.578-25.265v7.333h7.334l-7.334-7.332Zm-17.966,22.149h-5.942a.761.761,0,0,1-.755-.757v-5.948a.756.756,0,0,1,.22-.532.758.758,0,0,1,.534-.22h5.864l.775-.987a.752.752,0,0,1,.593-.288.734.734,0,0,1,.463.16.753.753,0,0,1,.127,1.056l-1.127,1.434v5.328a.739.739,0,0,1-.222.532.739.739,0,0,1-.534.225Zm-5.191-5.948v4.444h4.442v-2.661l-1.05,1.337a.746.746,0,0,1-.547.286h-.045a.751.751,0,0,1-.532-.219l-1.438-1.437a.758.758,0,0,1,0-1.063.75.75,0,0,1,.533-.22.749.749,0,0,1,.534.22l.836.837,1.2-1.524Zm10.34,4.783a.759.759,0,0,1-.644-.36.747.747,0,0,1,0-.784.748.748,0,0,1,.641-.36h13a.754.754,0,0,1,.7.75.758.758,0,0,1-.7.75h-13Zm.027-3.613a.751.751,0,0,1-.646-.37.752.752,0,0,1,0-.77.757.757,0,0,1,.646-.368h16.126a.75.75,0,0,1,.728.752.748.748,0,0,1-.728.752h-16.1l-.026.005Zm8.158-10.223a.416.416,0,0,1-.055,0h-9.33a.446.446,0,0,1-.054,0,.759.759,0,0,1-.644-.359.748.748,0,0,1,0-.783.745.745,0,0,1,.639-.36h9.449a.755.755,0,0,1,.64.36.746.746,0,0,1,0,.783.76.76,0,0,1-.64.363Z" transform="translate(-3956 4350.667)" fill="url(#linear-gradient)"/>
    <g id="Ellipse_112" data-name="Ellipse 112" transform="translate(664 410)" fill="none" stroke="#030303" stroke-width="1.5">
      <circle cx="13" cy="13" r="13" stroke="none"/>
      <circle cx="13" cy="13" r="12.25" fill="none"/>
    </g>
    <g id="download" transform="translate(654 415)">
      <g id="Group_1591" data-name="Group 1591" transform="translate(19.407)">
        <g id="Group_1590" data-name="Group 1590">
          <path id="Path_16346" data-name="Path 16346" d="M135.743,7.1a.486.486,0,0,0-.443-.285h-1.947V.487A.487.487,0,0,0,132.866,0h-1.947a.487.487,0,0,0-.487.487V6.815h-1.947a.487.487,0,0,0-.366.807l3.408,3.894a.486.486,0,0,0,.732,0l3.408-3.894a.485.485,0,0,0,.076-.522Z" transform="translate(-127.998)" fill="url(#linear-gradient)"/>
        </g>
      </g>
      <g id="Group_1593" data-name="Group 1593" transform="translate(16 10.709)">
        <g id="Group_1592" data-name="Group 1592">
          <path id="Path_16347" data-name="Path 16347" d="M28.656,352v2.921H17.947V352H16v3.894a.973.973,0,0,0,.974.974H29.63a.973.973,0,0,0,.974-.974V352Z" transform="translate(-16 -352)" fill="url(#linear-gradient)"/>
        </g>
      </g>
    </g>
  </g>
</svg>
