<svg xmlns="http://www.w3.org/2000/svg" xmlns:xlink="http://www.w3.org/1999/xlink" width="50.59" height="50.666" viewBox="0 0 50.59 50.666">
  <defs>
    <linearGradient id="linear-gradient" x1="0.5" x2="0.5" y2="1" gradientUnits="objectBoundingBox">
      <stop offset="0.13" stop-color="#00a9ed"/>
      <stop offset="1" stop-color="#65106b"/>
    </linearGradient>
  </defs>
  <g id="Group_1586" data-name="Group 1586" transform="translate(4553.001 -6609.334)">
    <g id="test" transform="translate(-4552.999 6609.334)">
      <path id="Path_16332" data-name="Path 16332" d="M50.435,17.983a1.922,1.922,0,0,0-1.052-1.043L46,15.557a1.937,1.937,0,0,0-2.525,1.059l-3.848,9.4V10.652a.753.753,0,0,0-.22-.532l-9.9-9.9a.752.752,0,0,0-.53-.22H.752A.753.753,0,0,0,0,.752V6.559a.752.752,0,1,0,1.5,0V1.5H28.22v9.148a.752.752,0,0,0,.753.752h9.149V29.7l-3.317,8.107a.748.748,0,0,0-.055.322l.354,7.083a.752.752,0,0,0,1.261.516l1.757-1.617v5.051H1.5V9.569a.752.752,0,1,0-1.5,0V49.913a.753.753,0,0,0,.753.753H38.877a.753.753,0,0,0,.753-.753V42.725l1.956-1.8a.76.76,0,0,0,.187-.269l3.411-8.338a.753.753,0,0,0-1.393-.57L40.664,39.39l-4.179-1.71,6.421-15.693,4.179,1.71L44.87,29.111a.753.753,0,0,0,1.393.57l4.18-10.215a1.924,1.924,0,0,0-.007-1.482ZM29.729,2.568,37.061,9.9H29.729Zm6.586,36.668,3.38,1.383L36.53,43.533ZM49.049,18.9l-1.394,3.4-4.179-1.71,1.394-3.408a.433.433,0,0,1,.563-.236l3.38,1.383a.432.432,0,0,1,.236.562Zm0,0" fill="url(#linear-gradient)"/>
      <path id="Path_16333" data-name="Path 16333" d="M161.243,83.016h-9.33a.752.752,0,1,0,0,1.5h9.33a.752.752,0,1,0,0-1.5Zm0,0" transform="translate(-136.202 -74.801)" fill="url(#linear-gradient)"/>
      <path id="Path_16334" data-name="Path 16334" d="M51.956,170.315H57.9a.752.752,0,0,0,.752-.753v-5.329L59.78,162.8a.752.752,0,0,0-1.183-.93l-.775.987H51.956a.752.752,0,0,0-.753.752v5.949a.753.753,0,0,0,.753.753Zm.752-5.949h3.931l-1.2,1.524-.837-.838a.752.752,0,0,0-1.064,1.064l1.437,1.437a.753.753,0,0,0,.532.22h.045a.752.752,0,0,0,.547-.286l1.051-1.338v2.661H52.708Zm0,0" transform="translate(-46.137 -145.597)" fill="url(#linear-gradient)"/>
      <path id="Path_16335" data-name="Path 16335" d="M180.686,186.273h-16.1a.753.753,0,1,0,0,1.5h16.1a.753.753,0,0,0,0-1.505Zm0,0" transform="translate(-147.62 -167.84)" fill="url(#linear-gradient)"/>
      <path id="Path_16336" data-name="Path 16336" d="M164.585,224.278h12.942a.752.752,0,0,0,0-1.5H164.585a.752.752,0,1,0,0,1.5Zm0,0" transform="translate(-147.621 -200.728)" fill="url(#linear-gradient)"/>
      <path id="Path_16337" data-name="Path 16337" d="M51.2,269.422a.753.753,0,0,0,.753.753H57.9a.752.752,0,0,0,.752-.753v-5.329l1.123-1.43a.752.752,0,0,0-1.183-.93l-.775.987H51.956a.752.752,0,0,0-.753.752Zm1.5-5.2h3.931l-1.2,1.524-.837-.838a.752.752,0,1,0-1.064,1.064l1.437,1.437a.753.753,0,0,0,.532.22h.045a.752.752,0,0,0,.547-.286L57.142,266v2.661H52.708Zm0,0" transform="translate(-46.137 -235.574)" fill="url(#linear-gradient)"/>
      <path id="Path_16338" data-name="Path 16338" d="M180.686,286.133h-16.1a.752.752,0,1,0,0,1.5h16.1a.752.752,0,1,0,0-1.5Zm0,0" transform="translate(-147.62 -257.818)" fill="url(#linear-gradient)"/>
      <path id="Path_16339" data-name="Path 16339" d="M164.585,324.138H169.4a.752.752,0,0,0,0-1.5h-4.816a.752.752,0,1,0,0,1.5Zm0,0" transform="translate(-147.621 -290.706)" fill="url(#linear-gradient)"/>
      <path id="Path_16340" data-name="Path 16340" d="M51.2,380.885a.753.753,0,0,0,.753.753H57.9a.752.752,0,0,0,.752-.753v-5.949a.752.752,0,0,0-.752-.753H51.956a.753.753,0,0,0-.753.753Zm1.5-5.2h4.444v4.444H52.708Zm0,0" transform="translate(-46.137 -337.155)" fill="url(#linear-gradient)"/>
      <path id="Path_16341" data-name="Path 16341" d="M181.439,386.745a.753.753,0,0,0-.753-.753h-16.1a.752.752,0,1,0,0,1.5h16.1A.752.752,0,0,0,181.439,386.745Zm0,0" transform="translate(-147.62 -347.796)" fill="url(#linear-gradient)"/>
      <path id="Path_16342" data-name="Path 16342" d="M164.585,422.488a.753.753,0,1,0,0,1.505h13.694a.753.753,0,0,0,0-1.505Zm0,0" transform="translate(-147.621 -380.68)" fill="url(#linear-gradient)"/>
    </g>
  </g>
</svg>
