<?xml version="1.0" encoding="utf-8"?>
<!-- Generator: Adobe Illustrator 16.0.0, SVG Export Plug-In . SVG Version: 6.00 Build 0)  -->
<!DOCTYPE svg PUBLIC "-//W3C//DTD SVG 1.1//EN" "http://www.w3.org/Graphics/SVG/1.1/DTD/svg11.dtd">
<svg version="1.1" id="Layer_1" xmlns="http://www.w3.org/2000/svg" xmlns:xlink="http://www.w3.org/1999/xlink" x="0px" y="0px"
	 width="65px" height="65px" viewBox="0 0 65 65" enable-background="new 0 0 65 65" xml:space="preserve">
<linearGradient id="Path_16513_1_" gradientUnits="userSpaceOnUse" x1="-268.187" y1="422.6885" x2="-268.187" y2="421.6885" gradientTransform="matrix(61.808 0 0 -61.781 16608.9902 26116.1113)">
	<stop  offset="0.13" style="stop-color:#00A9ED"/>
	<stop  offset="1" style="stop-color:#65106B"/>
</linearGradient>
<path id="Path_16513" fill="url(#Path_16513_1_)" d="M63.809,44.869h-8.852V32.108H63.3L32.9,2L2.509,32.108h8.343v12.761H2v3.621
	h8.852v15.291h44.105V48.49h8.852V44.869z M11.312,28.486L32.9,7.1l21.6,21.386h-3.165v16.383h-3.217l-5.076-3.531L38.8,45.531
	L32.9,34.063l-6.946,13.619l-4.561-7.748l-4,4.935h-2.921V28.486H11.312z M51.336,60.159H14.473V48.49h4.649l1.8-2.219l5.26,8.937
	L32.912,42l4.927,9.57l5.607-5.545l3.536,2.461h4.354V60.159z"/>
<linearGradient id="Path_16514_1_" gradientUnits="userSpaceOnUse" x1="-198.9546" y1="321.4258" x2="-198.9546" y2="320.4258" gradientTransform="matrix(3.625 0 0 -3.625 750.5 1183.9414)">
	<stop  offset="0.13" style="stop-color:#00A9ED"/>
	<stop  offset="1" style="stop-color:#65106B"/>
</linearGradient>
<path id="Path_16514" fill="url(#Path_16514_1_)" d="M27.476,18.775h3.625V22.4h-3.625V18.775z"/>
<linearGradient id="Path_16515_1_" gradientUnits="userSpaceOnUse" x1="-198.9546" y1="321.335" x2="-198.9546" y2="320.335" gradientTransform="matrix(3.625 0 0 -3.622 750.5 1189.8965)">
	<stop  offset="0.13" style="stop-color:#00A9ED"/>
	<stop  offset="1" style="stop-color:#65106B"/>
</linearGradient>
<path id="Path_16515" fill="url(#Path_16515_1_)" d="M27.476,26.019h3.625v3.622h-3.625V26.019z"/>
<linearGradient id="Path_16516_1_" gradientUnits="userSpaceOnUse" x1="-198.894" y1="321.4258" x2="-198.894" y2="320.4258" gradientTransform="matrix(3.622 0 0 -3.625 756.9177 1183.9414)">
	<stop  offset="0.13" style="stop-color:#00A9ED"/>
	<stop  offset="1" style="stop-color:#65106B"/>
</linearGradient>
<path id="Path_16516" fill="url(#Path_16516_1_)" d="M34.711,18.775h3.622V22.4h-3.622V18.775z"/>
<linearGradient id="Path_16517_1_" gradientUnits="userSpaceOnUse" x1="-198.894" y1="321.3359" x2="-198.894" y2="320.3359" gradientTransform="matrix(3.622 0 0 -3.622 756.9177 1189.8965)">
	<stop  offset="0.13" style="stop-color:#00A9ED"/>
	<stop  offset="1" style="stop-color:#65106B"/>
</linearGradient>
<path id="Path_16517" fill="url(#Path_16517_1_)" d="M34.711,26.019h3.622v3.622h-3.622V26.019z"/>
</svg>
