<svg xmlns="http://www.w3.org/2000/svg" xmlns:xlink="http://www.w3.org/1999/xlink" width="146.142" height="144.078" viewBox="0 0 146.142 144.078">
  <defs>
    <linearGradient id="linear-gradient" x1="0.022" y1="0.008" x2="0.992" y2="1.014" gradientUnits="objectBoundingBox">
      <stop offset="0" stop-color="#fff"/>
      <stop offset="0.502" stop-color="#98dbf9"/>
      <stop offset="1" stop-color="#fff"/>
    </linearGradient>
  </defs>
  <path id="Union_11" data-name="Union 11" d="M12087.229,20205.08a9.242,9.242,0,0,1-9.229-9.23v-7.91a11.082,11.082,0,0,1,4.858-9.168V20154.1a2.14,2.14,0,1,1,4.279,0v22.924a11.67,11.67,0,0,1,1.952-.172h15.319v-28.893a10.741,10.741,0,0,1,10.729-10.73h15.116a10.745,10.745,0,0,1,10.735,10.73v28.889h72.056a11.552,11.552,0,0,1,1.952.176v-49.15a16.361,16.361,0,0,1-7.185,1.668h-.006a16.312,16.312,0,0,0-28.36,0h-.011a16.312,16.312,0,0,0-28.36,0h-.011a16.312,16.312,0,0,0-28.36,0h-.011a16.312,16.312,0,0,0-28.36,0h-.006a16.436,16.436,0,0,1-7.19-1.668v17.662a2.14,2.14,0,0,1-4.279,0v-20.715a16.271,16.271,0,0,1-4.858-11.607v-35.582a16.648,16.648,0,0,1,16.633-16.627h112.876a16.651,16.651,0,0,1,16.633,16.627v10.584a2.143,2.143,0,0,1-4.285,0v-10.584a12.36,12.36,0,0,0-12.348-12.348h-112.876a12.364,12.364,0,0,0-12.353,12.348v28.256h137.576v-9.107a2.143,2.143,0,0,1,4.285,0v16.434a16.271,16.271,0,0,1-4.858,11.607v53.953a11.094,11.094,0,0,1,4.858,9.168v7.91a9.246,9.246,0,0,1-9.234,9.23Zm-4.949-17.141v7.91a4.952,4.952,0,0,0,4.949,4.945h127.678a4.952,4.952,0,0,0,4.949-4.945v-7.91a6.816,6.816,0,0,0-6.785-6.811h-124A6.825,6.825,0,0,0,12082.279,20187.939Zm26.409-39.982v28.893h28.021v-28.893a6.462,6.462,0,0,0-6.455-6.451h-15.116A6.46,6.46,0,0,0,12108.688,20147.957Zm87.08-34.746a12.059,12.059,0,0,0,12.044,12.049h.01a12.066,12.066,0,0,0,12.033-12.049v-3.047h-24.087Zm-28.371,0a12.043,12.043,0,1,0,24.087,0v-3.047H12167.4Zm-28.376,0a12.046,12.046,0,1,0,24.092,0v-3.047h-24.092Zm-28.371,0a12.046,12.046,0,1,0,24.092,0v-3.047h-24.092Zm-28.371,0a12.063,12.063,0,0,0,12.033,12.049h.015a12.06,12.06,0,0,0,12.044-12.049v-3.047h-24.092Zm77.8,54.051a8.562,8.562,0,0,1-8.554-8.555v-12.932a8.561,8.561,0,0,1,8.554-8.549h37.3a8.562,8.562,0,0,1,8.555,8.549v12.932a8.563,8.563,0,0,1-8.555,8.555Zm-4.274-21.486v12.932a4.278,4.278,0,0,0,4.274,4.273h37.3a4.278,4.278,0,0,0,4.275-4.273v-12.932a4.278,4.278,0,0,0-4.275-4.27h-37.3A4.278,4.278,0,0,0,12155.8,20145.775Zm29.807-46.961v-26.459a2.145,2.145,0,0,1,2.14-2.145h7.368a9.61,9.61,0,1,1,0,19.219c-1.2,0-3.52.01-5.229.02v9.365a2.14,2.14,0,1,1-4.279,0Zm4.32-13.65c1.7,0,4-.02,5.188-.02a5.326,5.326,0,1,0,0-10.648h-5.224C12189.912,20081.037,12189.9,20079.824,12189.928,20085.164Zm-39.807.422a15.37,15.37,0,1,1,15.37,15.369A15.39,15.39,0,0,1,12150.121,20085.586Zm4.28,0a11.09,11.09,0,1,0,11.09-11.09A11.106,11.106,0,0,0,12154.4,20085.586Zm-13.067,13.225v-11.541h-14.026v11.545a2.142,2.142,0,0,1-4.284,0v-26.459a2.142,2.142,0,1,1,4.284,0v10.635h14.026v-10.635a2.143,2.143,0,1,1,4.285,0v26.455a2.143,2.143,0,1,1-4.285,0Zm-43.508-2.48a2.139,2.139,0,1,1,3.169-2.875,10.4,10.4,0,0,0,7.637,3.221c3.286,0,5.426-2.049,5.771-3.971.355-2-1.181-3.783-4.214-4.9-4.066-1.5-7.677-3.107-7.829-3.174a2.4,2.4,0,0,1-.3-.162,7.263,7.263,0,0,1-3.23-7.186,8.154,8.154,0,0,1,5.923-6.561c6.633-2,12.114,2.52,12.343,2.717a2.14,2.14,0,0,1-2.749,3.281c-.081-.066-4-3.209-8.356-1.9a3.868,3.868,0,0,0-2.926,3.068,2.967,2.967,0,0,0,1.212,2.9c.761.34,3.95,1.725,7.394,3,3.935,1.451,7.824,4.752,6.946,9.67-.76,4.275-5.055,7.5-9.984,7.5A14.729,14.729,0,0,1,12097.826,20096.33Z" transform="translate(-12077.999 -20061.002)" opacity="0.25" fill="url(#linear-gradient)"/>
</svg>
