<svg id="search" xmlns="http://www.w3.org/2000/svg" width="62.769" height="62.769" viewBox="0 0 62.769 62.769">
  <path id="Path_16320" data-name="Path 16320" d="M43.533,0A19.215,19.215,0,0,0,27.481,29.807L24.8,32.484l-1.519-1.519L0,54.25v.419a8.108,8.108,0,0,0,8.1,8.1h.419L31.8,39.483l-1.519-1.519,2.677-2.677A19.229,19.229,0,1,0,43.533,0ZM3.159,53.955,20.248,36.866,25.9,42.521,8.814,59.61A8.117,8.117,0,0,0,3.159,53.955ZM2.153,55.793a6.086,6.086,0,0,1,4.823,4.823,6.058,6.058,0,0,1-4.823-4.823Zm25.181-14.7-5.655-5.655,1.606-1.606,5.655,5.655Zm1.519-4.556-2.618-2.618,2.456-2.456a19.5,19.5,0,0,0,2.618,2.618Zm14.68-.087A17.211,17.211,0,1,1,60.744,19.236,17.23,17.23,0,0,1,43.533,36.446Zm0,0"/>
  <path id="Path_16321" data-name="Path 16321" d="M410.008,168.235l1.856.811a11.08,11.08,0,0,0,.7-2.229l-1.984-.4a9,9,0,0,1-.575,1.821Zm0,0" transform="translate(-358.122 -145.355)" fill="#147db2"/>
  <path id="Path_16322" data-name="Path 16322" d="M355.136,75.136A11.15,11.15,0,0,0,344,64v2.025a9.123,9.123,0,0,1,9.112,9.112Zm0,0" transform="translate(-300.467 -55.901)" fill="#147db2"/>
  <path id="Path_16323" data-name="Path 16323" d="M239.186,32a15.186,15.186,0,1,0,15.186,15.186A15.2,15.2,0,0,0,239.186,32Zm0,28.347a13.161,13.161,0,1,1,13.161-13.161A13.176,13.176,0,0,1,239.186,60.347Zm0,0" transform="translate(-195.653 -27.95)"/>
  <path id="Path_16324" data-name="Path 16324" d="M109.951,320a3.141,3.141,0,0,0-2.234.925l-2.792,2.792a3.16,3.16,0,0,0,4.469,4.469l2.792-2.792A3.16,3.16,0,0,0,109.951,320Zm.8,3.963-2.792,2.792a1.135,1.135,0,0,1-1.606-1.606l2.792-2.792a1.135,1.135,0,0,1,1.606,1.606Zm0,0" transform="translate(-90.839 -279.504)"/>
  <path id="Path_16325" data-name="Path 16325" d="M50.344,411.775l1.432-1.432,3.037,3.037-1.432,1.432Zm0,0" transform="translate(-43.973 -358.415)" fill="#147db2"/>
  <path id="Path_16326" data-name="Path 16326" d="M74.344,387.775l1.432-1.432,3.037,3.037-1.432,1.432Zm0,0" transform="translate(-64.936 -337.452)" fill="#147db2"/>
</svg>
