<?xml version="1.0" encoding="utf-8"?>
<!-- Generator: Adobe Illustrator 16.0.0, SVG Export Plug-In . SVG Version: 6.00 Build 0)  -->
<!DOCTYPE svg PUBLIC "-//W3C//DTD SVG 1.1//EN" "http://www.w3.org/Graphics/SVG/1.1/DTD/svg11.dtd">
<svg version="1.1" id="Layer_1" xmlns="http://www.w3.org/2000/svg" xmlns:xlink="http://www.w3.org/1999/xlink" x="0px" y="0px"
	 width="67.232px" height="74px" viewBox="0 0 67.232 74" enable-background="new 0 0 67.232 74" xml:space="preserve">
<linearGradient id="Union_6_1_" gradientUnits="userSpaceOnUse" x1="-266.3513" y1="426.8994" x2="-266.3513" y2="425.8994" gradientTransform="matrix(53.752 0 0 -59.3125 14350.79 25328.4688)">
	<stop  offset="0.13" style="stop-color:#00A9ED"/>
	<stop  offset="1" style="stop-color:#65106B"/>
</linearGradient>
<path id="Union_6" fill="url(#Union_6_1_)" d="M7,57.959c-0.001-5.15,4.173-9.326,9.322-9.326c5.149-0.002,9.325,4.172,9.326,9.322
	s-4.173,9.324-9.322,9.326c-0.001,0-0.001,0-0.001,0C11.179,67.273,7.008,63.105,7,57.959z M9.979,57.969
	c0.001,3.504,2.842,6.344,6.346,6.344c3.504-0.002,6.343-2.844,6.343-6.346c-0.001-3.504-2.841-6.342-6.343-6.344
	C12.821,51.625,9.981,54.465,9.979,57.969z M30.4,59.469c-0.826,0.064-1.547-0.555-1.61-1.381s0.555-1.547,1.381-1.609
	c0.076-0.006,0.153-0.006,0.229,0h28.965c0.826,0.063,1.444,0.783,1.381,1.609c-0.057,0.738-0.643,1.324-1.381,1.381H30.4z
	 M6.999,38.063c-0.001-5.149,4.173-9.325,9.322-9.326s9.325,4.173,9.326,9.322c0.001,5.151-4.173,9.325-9.322,9.327
	c-0.001,0-0.001,0-0.001,0C11.177,47.381,7.006,43.209,7,38.061L6.999,38.063z M9.978,38.063c0.001,3.505,2.842,6.343,6.346,6.343
	s6.343-2.842,6.343-6.346c-0.001-3.503-2.841-6.342-6.343-6.343c-3.503,0.001-6.343,2.84-6.345,6.343L9.978,38.063z M30.399,39.559
	c-0.826,0.066-1.549-0.549-1.616-1.375c-0.066-0.826,0.549-1.55,1.374-1.616c0.081-0.007,0.162-0.007,0.242,0h28.965
	c0.826,0.066,1.441,0.79,1.374,1.616c-0.06,0.732-0.641,1.314-1.374,1.375H30.399z M6.998,18.177
	c0.003-5.151,4.182-9.325,9.334-9.322c2.521,0.001,4.934,1.023,6.688,2.832l3.269-3.245c0.557-0.6,1.495-0.634,2.095-0.077
	c0.6,0.558,0.634,1.495,0.077,2.095c-0.027,0.028-0.055,0.056-0.083,0.082L17.573,21.285c-0.275,0.278-0.65,0.436-1.042,0.437
	c-0.397,0.002-0.779-0.155-1.061-0.437l-3.548-3.572c-0.577-0.57-0.582-1.501-0.011-2.077c0.007-0.008,0.015-0.015,0.021-0.022
	c0.587-0.572,1.524-0.567,2.105,0.011l2.5,2.516l4.363-4.336c-2.424-2.521-6.433-2.602-8.954-0.178
	c-2.522,2.423-2.602,6.433-0.179,8.954c2.424,2.521,6.433,2.602,8.955,0.178c0.786-0.756,1.364-1.702,1.678-2.747
	c0.238-0.789,1.071-1.234,1.86-0.996s1.234,1.071,0.996,1.86l0,0c-1.495,4.932-6.704,7.717-11.636,6.223
	c-3.931-1.192-6.62-4.814-6.623-8.923L6.998,18.177z M30.399,19.685c-0.826,0.066-1.549-0.549-1.616-1.374
	c-0.066-0.826,0.549-1.55,1.374-1.616c0.081-0.007,0.162-0.007,0.242,0h28.965c0.826,0.066,1.441,0.79,1.374,1.616
	c-0.06,0.732-0.641,1.314-1.374,1.374H30.399z"/>
</svg>
