<svg xmlns="http://www.w3.org/2000/svg" xmlns:xlink="http://www.w3.org/1999/xlink" width="431.623" height="363.895" viewBox="0 0 431.623 363.895">
  <defs>
    <linearGradient id="linear-gradient" x1="0.32" x2="0.886" y2="0.52" gradientUnits="objectBoundingBox">
      <stop offset="0" stop-color="#b5e2f6"/>
      <stop offset="1" stop-color="#cae4ef"/>
    </linearGradient>
    <linearGradient id="linear-gradient-2" x1="-0.018" y1="0.081" x2="0.979" y2="0.081" gradientUnits="objectBoundingBox">
      <stop offset="0" stop-color="#5b5d60"/>
      <stop offset="1" stop-color="#484c4d"/>
    </linearGradient>
  </defs>
  <g id="Group_4916" data-name="Group 4916" transform="translate(-200 -11229.006)">
    <g id="Group_4915" data-name="Group 4915">
      <path id="Path_20741" data-name="Path 20741" d="M411.911,85.587a89.924,89.924,0,0,0-2.7,34.051c1.651,14.336,6.729,28.185,11.165,42.078,6.1,19.1,6.408,52.63,0,71.913-2.243,6.747-53.458,120.514-53.475,121.01,0,0,72.062.027,0,.035s-287.777,0-288.252,0c-3.379-.025-6.8-14.226-7.177-15.925C69,327.7,56.684,315.891,61.808,305.519c7.274-14.725,14.855-26.43,7.518-42.627C64.5,252.237,55.163,243.983,49.819,233.63a122.792,122.792,0,0,1-8.843-90.176C50.191,111.36,71.358,88.893,98.328,66.53c24.221-20.083,44.207-43.935,65.5-66.247H467.816s0,10.64,0,10.652c-.117,4.439-12.063,13.74-15.352,17.128-12.728,13.108-26.294,24.639-34.12,40.57a95.969,95.969,0,0,0-6.433,16.954" transform="translate(163.807 11228.723)" opacity="0.46" fill="url(#linear-gradient)"/>
      <g id="Group_4861" data-name="Group 4861" transform="translate(0 11093)">
        <g id="Group_4859" data-name="Group 4859">
          <g id="Group_4652" data-name="Group 4652" transform="translate(484.563 357.281)">
            <g id="Group_3307" data-name="Group 3307" transform="translate(0 0)">
              <path id="Path_12" data-name="Path 12" d="M55.841,427.8s13.843-46.929,27.986-66.252,14.5-49.191-8.485-50.874-32.692,32.4-38.974,57.434S30.8,427.8,30.8,427.8Z" transform="translate(-30.772 -310.611)" fill="#fff"/>
              <path id="Path_13" data-name="Path 13" d="M45.52,401.568a.457.457,0,0,1,.631.137l7.219,11.234q2.263-9.7,4.611-18.2l-7.945-14.489a.457.457,0,0,1,.8-.439l7.492,13.663c1.863-6.718,3.739-12.877,5.583-18.493l-6.868-19.021a.456.456,0,0,1,.274-.585.461.461,0,0,1,.585.273l6.474,17.93c2.911-8.758,5.728-16.158,8.269-22.259l-4.558-16.252a.457.457,0,1,1,.88-.246l4.246,15.143c6.017-14.227,10.349-20.96,10.44-21.1a.457.457,0,0,1,.765.5c-.091.139-4.444,6.911-10.479,21.226l14.571-4.065a.457.457,0,1,1,.245.88l-15.266,4.26c-2.548,6.119-5.378,13.554-8.3,22.364L80.3,366.609a.457.457,0,0,1,.4.82L64.784,375.25c-1.858,5.663-3.75,11.878-5.63,18.667l12.989-4.946a.456.456,0,1,1,.324.853l-13.612,5.183q-2.348,8.564-4.638,18.327l12.846-5.267a.457.457,0,0,1,.346.846l-13.443,5.511q-1.573,6.823-3.082,14.231a.458.458,0,0,1-.448.366.439.439,0,0,1-.09-.009.457.457,0,0,1-.357-.539q1.508-7.449,3.1-14.292l-7.7-11.982a.457.457,0,0,1,.137-.631" transform="translate(-39.467 -312.175)" fill="#98dbf9"/>
            </g>
            <g id="Group_3308" data-name="Group 3308" transform="translate(72.607 134.132) rotate(-164)">
              <path id="Path_14" data-name="Path 14" d="M52.516,0h-20.7S-7.881,42.635,1.409,61.531,26.159,79.979,34.29,62.8,52.516,0,52.516,0" transform="translate(0 0.178)" fill="#fff"/>
              <path id="Path_15" data-name="Path 15" d="M34.1,14.491a.458.458,0,0,1-.593-.255L30.482,6.659c-1.269,3.6-2.62,7.213-4.01,10.775l4.419,10.527a.457.457,0,1,1-.842.353l-4.054-9.66c-1.617,4.1-3.274,8.122-4.906,11.955l4.781,12.634a.456.456,0,0,1-.854.322L20.572,31.823c-2.229,5.2-4.388,10.007-6.305,14.169L18.913,57.65a.457.457,0,1,1-.849.339L13.739,47.136C9.9,55.424,7.162,60.843,7.1,60.974a.457.457,0,1,1-.815-.414c.067-.132,2.835-5.615,6.709-13.982L.53,48.607a.456.456,0,1,1-.147-.9l13.068-2.128c1.938-4.206,4.123-9.076,6.374-14.335L4.677,34.461a.457.457,0,1,1-.19-.894l15.777-3.349c1.655-3.886,3.334-7.964,4.971-12.127L12.582,21.024a.457.457,0,0,1-.206-.891L25.638,17.06c1.41-3.615,2.78-7.284,4.065-10.934L20.65,9.457a.457.457,0,0,1-.316-.857l9.759-3.591q.818-2.356,1.586-4.694A.456.456,0,0,1,32.112,0a.482.482,0,0,1,.142.022A.458.458,0,0,1,32.546.6q-.77,2.361-1.6,4.749l3.41,8.55a.456.456,0,0,1-.255.594" transform="translate(9.909 0)" fill="#98dbf9"/>
            </g>
          </g>
          <path id="Path_20742" data-name="Path 20742" d="M43.367,324.052a251.193,251.193,0,0,0,25.47-36.592l-.005,0,.1-.167c-2.1-1.693-10.062-9.022-4.877-19.245l.325-.642.608.386c6.581,4.182,7.248,10.312,6.706,14.6,1.831-3.338,3.655-6.823,5.429-10.448q1.286-2.631,2.565-5.421L79.6,266.5l.081-.178c-2.276-1.454-10.991-7.864-6.959-18.594l.254-.674.647.318c7.226,3.545,8.415,9.845,8.255,14.193,2.065-4.823,4.051-9.939,5.865-15.3-2.552-1.169-11.917-6.281-9.472-17.386l.154-.7.685.222c7.746,2.507,9.779,8.689,10.206,13.023,1.552-5.016,2.925-10.221,4.064-15.568-2.637-.99-12.328-5.422-10.682-16.665l.1-.712.7.173C91,210.5,93.6,216,94.481,220.227a148.726,148.726,0,0,0,1.936-15.912c-2.8-.51-13.078-3.152-13.47-14.482l-.024-.719.718.044c7.966.494,11.49,5.77,13.031,9.831a125.074,125.074,0,0,0-1.144-20.936c-2.687-.059-13.458-1-15.588-12.274l-.133-.707.718-.065c7.523-.68,11.762,3.489,14.01,7.146a112.683,112.683,0,0,0-3.294-12.924c-1.554-1.059-11.072-8.113-6.189-19.163l.289-.659.629.353c10.564,5.945,7.111,17.356,6.519,19.071a114.212,114.212,0,0,1,3.354,13.193c.869-4.213,3.452-9.631,10.836-11.526l.7-.179.112.711c1.766,11.326-8.069,15.832-10.593,16.793l.043.191-.089.005a125.887,125.887,0,0,1,1.166,19.652,14.046,14.046,0,0,1,12.162-9.006l.716-.071,0,.72c.03,11.464-10.376,14.426-13.015,14.993l.014.195-.176-.017a150.228,150.228,0,0,1-1.88,15.555,14.152,14.152,0,0,1,13.858-7.13l.718.058-.127.708c-2.022,11.29-12.8,12.339-15.487,12.423l-.021.2-.149-.043c-1,4.685-2.183,9.256-3.5,13.688a14,14,0,0,1,13.807-5.422l.712.109-.179.7c-2.62,10.324-12.146,11.3-15.645,11.3-.273,0-.493-.007-.688-.014l-.035.195-.142-.052c-1.648,4.866-3.435,9.537-5.3,13.968A14.035,14.035,0,0,1,98.314,257.1l.689.209-.273.665c-3.205,7.767-9.834,9.166-14.193,9.166a20,20,0,0,1-3.553-.312q-1.343,2.945-2.7,5.72c-1.672,3.416-3.386,6.7-5.114,9.868a14.1,14.1,0,0,1,15.295-2.248l.661.284-.345.631A14.043,14.043,0,0,1,75.8,288.755a20.237,20.237,0,0,1-5.659-.827l-.082.178L70,288.063a252.993,252.993,0,0,1-25.653,36.855.653.653,0,1,1-.979-.865M79.4,229.884c-1.671,9.519,6.115,13.932,8.655,15.1.273-2.782.4-11.732-8.655-15.1M83.9,210.11c-.986,9.614,7.1,13.46,9.712,14.447.075-2.8-.437-11.732-9.712-14.447m.4-19.585c.746,9.626,9.368,11.968,12.128,12.474-.455-2.744-2.64-11.462-12.128-12.474m-2.161-24.284c-.25,0-.5.005-.757.017,2.2,9.413,11.094,10.414,13.888,10.494-.818-2.6-4.056-10.511-13.132-10.511M73.7,248.885c-3.005,9.175,4.056,14.648,6.409,16.173.635-2.708,1.962-11.6-6.409-16.173M85.964,141.276c-3.521,9,3.238,14.866,5.494,16.516.82-2.673,2.718-11.419-5.494-16.516m20.33,20.688c-9.249,2.8-9.675,11.743-9.574,14.537,2.606-1.01,10.651-4.933,9.574-14.537m3.28,28.092c-9.555,1.367-11.337,10.121-11.664,12.909,2.707-.631,11.268-3.376,11.664-12.909m-.719,24.113c-9.627-.361-12.964,7.932-13.785,10.615,2.779-.137,11.691-1.307,13.785-10.615m-4.85,21.546c-9.609-1.052-13.507,7-14.511,9.613,2.8.088,11.733-.359,14.511-9.613m-6.781,22.44c-9.023-2.325-13.992,4.481-15.56,7.158-.042.1-.086.193-.129.289,2.783.46,11.682,1.169,15.69-7.447M64.9,269.3c-3.992,8.791,2.426,15,4.6,16.78.927-2.623,3.222-11.313-4.6-16.78m22.364,11.793c-9.036-3.418-14.831,3.4-16.452,5.68,2.681.791,11.448,2.588,16.452-5.68" transform="translate(447.109 113.488)" fill="#fff"/>
        </g>
        <g id="Group_4860" data-name="Group 4860" transform="translate(204.563 252.896)">
          <g id="Group_4652-2" data-name="Group 4652" transform="translate(0 104.385)">
            <g id="Group_3307-2" data-name="Group 3307" transform="translate(30.618 0)">
              <path id="Path_12-2" data-name="Path 12" d="M68.6,427.8s-13.843-46.929-27.986-66.252-14.5-49.191,8.485-50.874,32.691,32.4,38.973,57.434S93.649,427.8,93.649,427.8Z" transform="translate(-30.772 -310.611)" fill="#fff"/>
              <path id="Path_13-2" data-name="Path 13" d="M88.88,401.568a.457.457,0,0,0-.631.137l-7.219,11.234q-2.263-9.7-4.611-18.2l7.945-14.489a.457.457,0,0,0-.8-.439L76.07,393.478c-1.863-6.718-3.739-12.877-5.583-18.493l6.868-19.021a.456.456,0,0,0-.274-.585.461.461,0,0,0-.585.273l-6.474,17.93c-2.911-8.758-5.728-16.158-8.269-22.259l4.558-16.252a.457.457,0,1,0-.88-.246l-4.246,15.143c-6.017-14.227-10.348-20.96-10.44-21.1a.457.457,0,0,0-.764.5c.091.139,4.444,6.911,10.479,21.226L45.89,346.529a.457.457,0,1,0-.245.88l15.266,4.26c2.548,6.119,5.378,13.554,8.3,22.364L54.1,366.609a.457.457,0,0,0-.4.82l15.918,7.821c1.858,5.663,3.75,11.878,5.63,18.667l-12.989-4.946a.456.456,0,1,0-.324.853l13.612,5.183q2.348,8.564,4.638,18.327l-12.846-5.267a.457.457,0,0,0-.346.846l13.443,5.511q1.573,6.823,3.082,14.231a.458.458,0,0,0,.448.366.439.439,0,0,0,.09-.009.457.457,0,0,0,.357-.539q-1.508-7.449-3.1-14.292l7.7-11.982a.457.457,0,0,0-.137-.631" transform="translate(-32.03 -312.175)" fill="#98dbf9"/>
            </g>
            <g id="Group_3308-2" data-name="Group 3308" transform="translate(0 61.198) rotate(-16)">
              <path id="Path_14-2" data-name="Path 14" d="M52.515,75.695h-20.7S-7.881,33.06,1.409,14.164,26.158-4.284,34.29,12.9s18.225,62.8,18.225,62.8" transform="translate(0 0)" fill="#fff"/>
              <path id="Path_15-2" data-name="Path 15" d="M34.1,46.733a.458.458,0,0,0-.593.255l-3.022,7.576c-1.269-3.6-2.62-7.213-4.01-10.775l4.419-10.527a.457.457,0,1,0-.842-.353l-4.054,9.66c-1.617-4.1-3.274-8.122-4.906-11.955L25.869,17.98a.456.456,0,0,0-.854-.322L20.572,29.4c-2.229-5.2-4.388-10.007-6.3-14.169L18.913,3.573a.457.457,0,1,0-.849-.339L13.739,14.088C9.9,5.8,7.162.38,7.1.25a.457.457,0,1,0-.815.414c.067.132,2.835,5.614,6.709,13.982L.531,12.617a.456.456,0,1,0-.147.9l13.068,2.128c1.938,4.206,4.123,9.076,6.374,14.334L4.677,26.763a.457.457,0,1,0-.19.894l15.777,3.349c1.655,3.886,3.334,7.964,4.971,12.127L12.582,40.2a.457.457,0,0,0-.206.891l13.263,3.073c1.41,3.615,2.78,7.284,4.064,10.934L20.65,51.766a.457.457,0,0,0-.316.857l9.758,3.591q.818,2.356,1.586,4.694a.456.456,0,0,0,.434.315.482.482,0,0,0,.142-.022.458.458,0,0,0,.292-.576q-.77-2.361-1.6-4.749l3.41-8.55a.456.456,0,0,0-.255-.594" transform="translate(9.909 14.649)" fill="#98dbf9"/>
            </g>
          </g>
          <path id="Path_20742-2" data-name="Path 20742" d="M110.73,324.052A251.193,251.193,0,0,1,85.26,287.46l.005,0-.1-.167c2.1-1.693,10.062-9.022,4.877-19.245l-.325-.642-.608.386c-6.581,4.182-7.248,10.312-6.706,14.6-1.831-3.338-3.655-6.823-5.429-10.448q-1.286-2.631-2.565-5.421l.086-.023-.081-.178c2.276-1.454,10.99-7.864,6.959-18.594l-.254-.674-.647.318c-7.226,3.545-8.415,9.845-8.255,14.193-2.065-4.823-4.051-9.939-5.865-15.3,2.552-1.169,11.917-6.281,9.471-17.386l-.154-.7-.685.222c-7.746,2.507-9.779,8.689-10.206,13.023-1.552-5.015-2.925-10.221-4.064-15.568,2.636-.99,12.328-5.422,10.682-16.665l-.1-.712-.7.173C63.1,210.5,60.494,216,59.616,220.227a148.726,148.726,0,0,1-1.936-15.912c2.8-.51,13.078-3.152,13.47-14.482l.024-.719-.718.044c-7.966.494-11.49,5.77-13.031,9.831a125.076,125.076,0,0,1,1.144-20.936c2.687-.059,13.458-1,15.588-12.274l.133-.707-.718-.065c-7.523-.68-11.762,3.489-14.01,7.146a112.684,112.684,0,0,1,3.294-12.924c1.554-1.059,11.071-8.113,6.189-19.163l-.289-.659-.629.353c-10.564,5.945-7.111,17.356-6.519,19.071a114.21,114.21,0,0,0-3.354,13.193c-.869-4.213-3.452-9.631-10.836-11.526l-.7-.179-.112.711c-1.766,11.326,8.069,15.832,10.593,16.793l-.043.191.089.005a125.888,125.888,0,0,0-1.166,19.652,14.046,14.046,0,0,0-12.162-9.006l-.716-.071,0,.72c-.03,11.464,10.376,14.426,13.015,14.993l-.014.195.176-.017a150.229,150.229,0,0,0,1.88,15.555A14.152,14.152,0,0,0,44.4,212.91l-.718.058.127.708c2.022,11.29,12.8,12.339,15.487,12.423l.021.2.149-.043c1,4.685,2.183,9.256,3.5,13.688a14,14,0,0,0-13.807-5.422l-.712.109.179.7c2.619,10.324,12.146,11.3,15.645,11.3.273,0,.493-.007.688-.014L65,246.8l.142-.052c1.648,4.866,3.435,9.537,5.3,13.968A14.034,14.034,0,0,0,55.783,257.1l-.689.209.273.665c3.205,7.767,9.834,9.166,14.193,9.166a20,20,0,0,0,3.553-.312q1.343,2.945,2.7,5.72c1.672,3.416,3.385,6.7,5.114,9.868a14.1,14.1,0,0,0-15.295-2.248l-.661.284.345.631a14.043,14.043,0,0,0,12.977,7.672,20.237,20.237,0,0,0,5.659-.827l.082.178.063-.043a252.991,252.991,0,0,0,25.652,36.855.653.653,0,1,0,.979-.865M74.692,229.884c1.671,9.519-6.115,13.932-8.655,15.1-.273-2.782-.4-11.732,8.655-15.1M70.2,210.11c.986,9.614-7.1,13.46-9.712,14.447-.075-2.8.437-11.732,9.712-14.447m-.4-19.585c-.746,9.626-9.368,11.968-12.128,12.474.455-2.744,2.64-11.462,12.128-12.474m2.161-24.284c.25,0,.5.005.757.017-2.2,9.413-11.094,10.414-13.888,10.494.818-2.6,4.056-10.511,13.131-10.511m8.432,82.644c3.005,9.175-4.056,14.648-6.409,16.173-.635-2.708-1.962-11.6,6.409-16.173M68.133,141.276c3.521,9-3.238,14.866-5.494,16.516-.82-2.673-2.718-11.419,5.494-16.516M47.8,161.964c9.249,2.8,9.675,11.743,9.573,14.537-2.606-1.01-10.651-4.933-9.573-14.537m-3.28,28.092c9.555,1.367,11.337,10.121,11.664,12.909-2.707-.631-11.267-3.376-11.664-12.909m.719,24.113c9.627-.361,12.964,7.932,13.785,10.615-2.779-.137-11.691-1.307-13.785-10.615m4.849,21.546c9.609-1.052,13.507,7,14.511,9.613-2.8.088-11.733-.359-14.511-9.613m6.781,22.44c9.023-2.325,13.992,4.481,15.56,7.158.042.1.086.193.129.289-2.783.46-11.682,1.169-15.69-7.447M89.2,269.3c3.992,8.791-2.426,15-4.6,16.78-.927-2.623-3.222-11.313,4.6-16.78M66.832,281.094c9.036-3.418,14.831,3.4,16.452,5.68-2.681.791-11.448,2.588-16.452-5.68" transform="translate(-23.124 -139.408)" fill="#fff"/>
        </g>
      </g>
      <path id="Path_20743" data-name="Path 20743" d="M418.629,456.253c0,9.778-83.73,17.706-187.016,17.706S44.6,466.031,44.6,456.253s83.731-17.713,187.017-17.713,187.016,7.932,187.016,17.713" transform="translate(159.404 11118.941)" fill="#c7dbe4"/>
      <g id="Group_4912" data-name="Group 4912" transform="translate(64.201 11351.58)">
        <g id="Group_4908" data-name="Group 4908" transform="translate(292.055 135.21)">
          <path id="Path_21349" data-name="Path 21349" d="M294.115,106.572l-.887,11.327-5.679,72.519-1.028-.087,4.125-72.412.646-11.387Z" transform="translate(-286.521 -105.725)" fill="#263238"/>
          <path id="Path_21350" data-name="Path 21350" d="M304.95,105.935l.206,12.053,1.232,72.027-1.031.026L302.778,118l-.429-12Z" transform="translate(-280.95 -105.935)" fill="#263238"/>
          <path id="Path_21351" data-name="Path 21351" d="M334.466,188.547l-1,.275-18.135-71.345-2.552-10.041,2.342-.308,2.453,10.334Z" transform="translate(-277.279 -105.515)" fill="#263238"/>
          <path id="Path_21352" data-name="Path 21352" d="M290.218,106.532l2.823.039-.888,11.328c-.94.007-1.8.011-2.581.02Z" transform="translate(-285.447 -105.725)" fill="#263238" opacity="0.4" style="mix-blend-mode: multiply;isolation: isolate"/>
          <path id="Path_21353" data-name="Path 21353" d="M302.349,106l2.6-.065.205,12.053c-.795.005-1.589.009-2.377.016Z" transform="translate(-280.95 -105.935)" fill="#263238" opacity="0.4" style="mix-blend-mode: multiply;isolation: isolate"/>
          <path id="Path_21354" data-name="Path 21354" d="M317.576,117.461q-1.093,0-2.244.016l-2.551-10.041,2.342-.308Z" transform="translate(-277.279 -105.515)" fill="#263238" opacity="0.4" style="mix-blend-mode: multiply;isolation: isolate"/>
        </g>
        <path id="Path_21355" data-name="Path 21355" d="M351.065,32.064l2.627,104.524s-21.323-.089-36.548,1.264c-2.993.268-5.747.589-8.06.979-14.081,2.374-32.109-.539-32.109-.539l-2.784-110.8,11.995.712Z" transform="translate(1.194 1.664)" fill="#d9e5ff"/>
        <path id="Path_21356" data-name="Path 21356" d="M317.144,137.853c-2.993.268-5.747.589-8.06.979-14.081,2.374-32.109-.539-32.109-.539l-2.784-110.8,11.995.712C286.793,43.676,289.639,106.793,317.144,137.853Z" transform="translate(1.194 1.664)" fill="#f1ead8" style="mix-blend-mode: multiply;isolation: isolate"/>
        <path id="Path_21357" data-name="Path 21357" d="M355.074,26.028,355.3,35l-84.331-5.449-.17-6.793Z" transform="translate(0 0)" fill="#407bff"/>
        <path id="Path_21358" data-name="Path 21358" d="M284.924,115.441l10.093-.253-1.2-47.6-10.318.26Z" transform="translate(4.472 15.778)" fill="#407bff"/>
        <rect id="Rectangle_2297" data-name="Rectangle 2297" width="10.321" height="35.749" transform="translate(304.854 95.121) rotate(-1.437)" fill="#568aff"/>
        <rect id="Rectangle_2298" data-name="Rectangle 2298" width="10.32" height="26.999" transform="translate(321.466 103.407) rotate(-1.437)" fill="#759ffe"/>
        <rect id="Rectangle_2299" data-name="Rectangle 2299" width="10.321" height="17.614" transform="translate(338.66 112.363) rotate(-1.437)" fill="#9fbbf9"/>
        <path id="Path_21363" data-name="Path 21363" d="M302.239,46.376l.005,0-.012.005Z" transform="translate(11.063 8.311)" fill="#ffba00"/>
        <path id="Path_21365" data-name="Path 21365" d="M302.235,46.406l.058-.03-.234.119Z" transform="translate(11.002 8.312)" fill="#39b3bb"/>
        <path id="Path_21366" data-name="Path 21366" d="M302.241,46.4c.053-.027.114-.057.183-.093l-.034.016Z" transform="translate(11.067 8.287)" fill="#39b3bb"/>
        <g id="Group_4911" data-name="Group 4911" transform="translate(302.533 43.235)">
          <path id="Path_21367" data-name="Path 21367" d="M306.863,34.209c-.185,0-.374,0-.564,0a15.375,15.375,0,1,0,14.185,22.153l-14.639-5.444Z" transform="translate(-291.312 -34.206)" fill="#407bff"/>
          <path id="Path_21368" data-name="Path 21368" d="M302.607,49.561l.011,0,.151-.078.032-.016c1.813-.933,9.041-4.651,12.877-6.579a13.741,13.741,0,0,0-12.393-8.139l-.91,14.936Z" transform="translate(-286.418 -35.017)" fill="#568aff"/>
          <path id="Path_21369" data-name="Path 21369" d="M317.349,40.588l-12.733,6.457-.16.081-.181.093-.005,0h-.007l-.057.031-.177.089,14.428.174a14.4,14.4,0,0,0,.064-1.716A13.635,13.635,0,0,0,317.349,40.588Z" transform="translate(-286.837 -31.96)" fill="#759ffe"/>
          <path id="Path_21370" data-name="Path 21370" d="M316.465,50.967a13.552,13.552,0,0,0,1.328-4.578L303.379,46.1Z" transform="translate(-286.065 -30.02)" fill="#9fbbf9"/>
        </g>
        <path id="Path_21371" data-name="Path 21371" d="M302.059,46.464Z" transform="translate(11.002 8.343)" fill="#999228"/>
        <path id="Path_21372" data-name="Path 21372" d="M355.192,30.685l.077,3.053-84.331-5.449-.049-1.942Z" transform="translate(0.032 1.263)" opacity="0.4" fill="url(#linear-gradient-2)" style="mix-blend-mode: multiply;isolation: isolate"/>
      </g>
      <g id="Group_4894" data-name="Group 4894" transform="translate(13278.988 20801.291)">
        <g id="Group_4893" data-name="Group 4893" transform="translate(-13067.596 -9391.429)">
          <g id="Group_4864" data-name="Group 4864" transform="translate(0 0)">
            <g id="Group_4851" data-name="Group 4851" transform="translate(0 54.361)">
              <path id="Path_21194" data-name="Path 21194" d="M155.4,365.4H95.028a3.586,3.586,0,0,1-3.576-3.576h0a3.587,3.587,0,0,1,3.576-3.577H155.4a3.588,3.588,0,0,1,3.577,3.577h0A3.587,3.587,0,0,1,155.4,365.4Z" transform="translate(-65.699 -296.941)" fill="#407bff"/>
              <g id="Group_4849" data-name="Group 4849">
                <path id="Path_21195" data-name="Path 21195" d="M83.938,352.069H81.929l-7.664-50h2.009Z" transform="translate(-63.808 -290.76)" fill="#263238"/>
                <path id="Path_21196" data-name="Path 21196" d="M118.381,352.069h-2.009l-7.664-50h2.009Z" transform="translate(-67.598 -290.76)" fill="#263238"/>
                <path id="Path_21197" data-name="Path 21197" d="M113.386,340.622H74.021a5.7,5.7,0,0,1-5.444-4.758l-6.012-41.744a4.035,4.035,0,0,1,4.073-4.759H106a5.7,5.7,0,0,1,5.443,4.759l6.012,41.744A4.034,4.034,0,0,1,113.386,340.622Z" transform="translate(-62.516 -289.362)" fill="#407bff"/>
                <path id="Path_21198" data-name="Path 21198" d="M62.565,294.262l6.012,41.744a5.446,5.446,0,0,0,1.258,2.727c1.44,1.7,4.006.78,3.706-1.3l-6.424-44.6c-.3-2.077-3.128-3-4.08-1.3A4.285,4.285,0,0,0,62.565,294.262Z" transform="translate(-62.516 -289.504)" fill="#fff" opacity="0.4"/>
              </g>
              <g id="Group_4850" data-name="Group 4850" transform="translate(13.846 61.308)">
                <path id="Path_21199" data-name="Path 21199" d="M109.273,365.4H81.649a3.586,3.586,0,0,1-3.576-3.576h0a3.587,3.587,0,0,1,3.576-3.577h27.624a3.587,3.587,0,0,1,3.576,3.577h0A3.586,3.586,0,0,1,109.273,365.4Z" transform="translate(-78.073 -358.249)" fill="#407bff"/>
                <path id="Path_21200" data-name="Path 21200" d="M109.273,365.4H81.649a3.586,3.586,0,0,1-3.576-3.576h0a3.587,3.587,0,0,1,3.576-3.577h27.624a3.587,3.587,0,0,1,3.576,3.577h0A3.586,3.586,0,0,1,109.273,365.4Z" transform="translate(-78.073 -358.249)" fill="#fff" opacity="0.4"/>
              </g>
              <path id="Path_21201" data-name="Path 21201" d="M128.83,409.349h-2.009l-7.663-43.063h2.009Z" transform="translate(-68.747 -297.825)" fill="#263238"/>
              <path id="Path_21202" data-name="Path 21202" d="M167.961,409.349h-2.009l-7.664-43.063H160.3Z" transform="translate(-73.052 -297.825)" fill="#263238"/>
              <path id="Path_21203" data-name="Path 21203" d="M114.876,409.349h2.009l7.664-43.063h-2.009Z" transform="translate(-68.276 -297.825)" fill="#263238"/>
              <path id="Path_21204" data-name="Path 21204" d="M75.744,409.349h2.009l7.664-43.063H83.408Z" transform="translate(-63.971 -297.825)" fill="#263238"/>
            </g>
            <g id="Group_4863" data-name="Group 4863" transform="translate(7.15)">
              <g id="Group_4862" data-name="Group 4862">
                <g id="Group_4854" data-name="Group 4854" transform="translate(97.954 124.519)">
                  <g id="Group_4852" data-name="Group 4852">
                    <path id="Path_21205" data-name="Path 21205" d="M190.546,368.192l-9.929,4.315,5.693,6.643,8.3-3.6Z" transform="translate(-180.613 -368.192)" fill="#7f3e3b"/>
                    <path id="Path_21206" data-name="Path 21206" d="M190.545,368.2l-9.933,4.316,3.19,3.719,9.022-3.914Z" transform="translate(-180.612 -368.193)" opacity="0.2"/>
                  </g>
                  <g id="Group_4853" data-name="Group 4853" transform="translate(3.574 3.612)">
                    <path id="Path_21207" data-name="Path 21207" d="M185,383.152l1.131-.22a2.057,2.057,0,0,0,1.5-1.222h0l.7.359a2.051,2.051,0,0,0,1.323.185l15.425-3a6.073,6.073,0,0,0-1.162-2.942s-6.848.958-8.767-.732a.5.5,0,0,0-.53-.1c-1.254.528-6.194,2.5-9.31,2.1a.621.621,0,0,0-.68.731A33.338,33.338,0,0,1,185,383.152Z" transform="translate(-184.628 -372.602)" fill="#407bff"/>
                    <path id="Path_21208" data-name="Path 21208" d="M196.122,375.632a.147.147,0,0,1-.059-.012.165.165,0,0,1-.106-.143c-.058-1,.422-2.856,1.1-3.174a.536.536,0,0,1,.624.123.679.679,0,0,1,.214.505c.016.973-1.59,2.584-1.657,2.652A.165.165,0,0,1,196.122,375.632Zm1.161-3.053a.19.19,0,0,0-.085.021c-.432.2-.845,1.491-.907,2.452.514-.569,1.286-1.544,1.275-2.115a.356.356,0,0,0-.108-.272A.259.259,0,0,0,197.283,372.579Z" transform="translate(-185.874 -372.251)" fill="#407bff"/>
                    <path id="Path_21209" data-name="Path 21209" d="M197.59,375.994a10.678,10.678,0,0,1-1.493-.116.162.162,0,0,1-.133-.118.164.164,0,0,1,.053-.17c.772-.635,2.555-1.343,3.213-.983a.54.54,0,0,1,.269.577.682.682,0,0,1-.284.471A2.957,2.957,0,0,1,197.59,375.994Zm-1.033-.386a4.569,4.569,0,0,0,2.461-.215.358.358,0,0,0,.156-.248c.02-.159-.04-.215-.1-.248C198.656,374.667,197.37,375.092,196.557,375.607Z" transform="translate(-185.874 -372.499)" fill="#407bff"/>
                  </g>
                </g>
                <path id="Path_21210" data-name="Path 21210" d="M91.54,331.277l4.253,8.907c6.275,13.148,21.74,19.758,34.086,14.585,7.207-3.026,15.077-9.412,20.433-12.333,4.582,10.036,13.154,21.11,19.718,28.815l13.271-6.682c-4.955-11.375-12.674-29.143-17.571-40.682a11.813,11.813,0,0,0-10.318-7.168C133.345,316.122,91.54,331.277,91.54,331.277Z" transform="translate(-72.859 -238.009)" fill="#263238"/>
                <g id="Group_4857" data-name="Group 4857" transform="translate(72.373 153.147)">
                  <g id="Group_4855" data-name="Group 4855">
                    <path id="Path_21211" data-name="Path 21211" d="M162.691,400.865l-10.815-.505,2.18,8.472,9.038.432Z" transform="translate(-151.87 -400.359)" fill="#7f3e3b"/>
                    <path id="Path_21212" data-name="Path 21212" d="M162.688,400.868l-10.818-.506,1.223,4.744,9.823.465Z" transform="translate(-151.87 -400.359)" opacity="0.2"/>
                  </g>
                  <g id="Group_4856" data-name="Group 4856" transform="translate(0.529 4.679)">
                    <path id="Path_21213" data-name="Path 21213" d="M152.464,414.188h1.153a2.055,2.055,0,0,0,1.707-.912h0l.624.487a2.056,2.056,0,0,0,1.264.435h15.714a6.07,6.07,0,0,0-.579-3.11s-6.9-.368-8.466-2.393a.5.5,0,0,0-.5-.2c-1.331.279-6.557,1.266-9.54.282a.622.622,0,0,0-.807.587A33.394,33.394,0,0,1,152.464,414.188Z" transform="translate(-152.464 -405.932)" fill="#407bff"/>
                    <path id="Path_21214" data-name="Path 21214" d="M164.91,408.725a.166.166,0,0,1-.086-.024.164.164,0,0,1-.076-.162c.133-.991.957-2.722,1.684-2.9a.538.538,0,0,1,.59.239.68.68,0,0,1,.112.538c-.17.958-2.052,2.232-2.132,2.286A.163.163,0,0,1,164.91,408.725Zm1.659-2.78a.225.225,0,0,0-.056.007c-.463.117-1.113,1.3-1.359,2.234.615-.46,1.557-1.27,1.657-1.832a.357.357,0,0,0-.055-.287A.232.232,0,0,0,166.569,405.944Z" transform="translate(-153.815 -405.616)" fill="#407bff"/>
                    <path id="Path_21215" data-name="Path 21215" d="M167.247,409.494a8.609,8.609,0,0,1-2.393-.5.163.163,0,0,1-.021-.3c.878-.476,2.764-.83,3.339-.351a.538.538,0,0,1,.154.617.676.676,0,0,1-.368.408A1.648,1.648,0,0,1,167.247,409.494Zm-1.889-.684a4.559,4.559,0,0,0,2.456.26.359.359,0,0,0,.2-.214c.051-.154,0-.22-.052-.264C167.594,408.287,166.253,408.461,165.357,408.811Z" transform="translate(-153.815 -405.891)" fill="#407bff"/>
                  </g>
                </g>
                <path id="Path_21216" data-name="Path 21216" d="M84.593,329.119l.072,9.405c.111,13.877,11.874,17.906,25.921,18.949,8.2.6,19.278.794,25.671.669.933,9.714,3.968,29.519,7.023,37.816l13.811-.967c.361-11.775.893-28.473,1.339-39.546a11.625,11.625,0,0,0-6.623-10.594C131.1,334.658,84.593,329.119,84.593,329.119Z" transform="translate(-72.095 -239.375)" fill="#263238"/>
                <path id="Path_21217" data-name="Path 21217" d="M158.185,346.913a99.135,99.135,0,0,0,8.211,13.613c-.07,1.944-.145,4-.224,6.144-4.887-7.719-7.995-19.77-7.995-19.77A.023.023,0,0,0,158.185,346.913Z" transform="translate(-80.19 -241.331)" opacity="0.2"/>
                <g id="Group_4858" data-name="Group 4858" transform="translate(45.95 23.197)">
                  <path id="Path_21218" data-name="Path 21218" d="M133.8,266.56l.9.457,1.108.544c.758.349,1.52.708,2.3,1.02a38.868,38.868,0,0,0,4.627,1.6,25.6,25.6,0,0,0,4.433.788,15.982,15.982,0,0,0,4-.2l-2.675,1.6a8.2,8.2,0,0,0,2.071-2.3,34.286,34.286,0,0,0,2.208-3.926c.715-1.435,1.386-2.958,2.047-4.518l1.958-4.706.093-.224a3.818,3.818,0,0,1,7.329,1.131,42.411,42.411,0,0,1,.085,5.859,46.68,46.68,0,0,1-.675,5.862,34.406,34.406,0,0,1-1.684,6.067,20.033,20.033,0,0,1-3.937,6.532,5.246,5.246,0,0,1-2.016,1.36l-.659.244a26.149,26.149,0,0,1-8.085,1.617,32.364,32.364,0,0,1-7.727-.6,39.675,39.675,0,0,1-7.063-2.063c-1.121-.45-2.229-.921-3.308-1.468-.541-.275-1.081-.547-1.621-.854l-.815-.477-.945-.586a7.529,7.529,0,0,1,7.347-13.127Z" transform="translate(-122.181 -254.346)" fill="#803e3c"/>
                </g>
                <path id="Path_21219" data-name="Path 21219" d="M163.953,260.808l-2.965-3.194c-1.724-4.243,4.114-5.515,4.114-5.515l2.56-1.745a2.31,2.31,0,0,1,2.947.5l2.09,2.217a2.41,2.41,0,0,1,.15,3.356l-1.954,1.867a4.772,4.772,0,0,1-2.022,1.148Z" transform="translate(-80.465 -230.673)" fill="#7f3e3b"/>
                <path id="Path_21220" data-name="Path 21220" d="M117.889,260.691c1.839-2.461,7.449-1.832,13.162,3.734,1.422-.06,5.085,3.258,9.344,4.34s5.644,8.718,4.875,11.767c-.811,3.21-2.414,5.33-6.385,5.761s-9.2-2.145-13.4-5.3C121.365,277.907,114.627,265.059,117.889,260.691Z" transform="translate(-75.663 -231.696)" fill="#407bff"/>
                <g id="Group_4859-2" data-name="Group 4859" transform="translate(8.764 27.039)">
                  <path id="Path_21221" data-name="Path 21221" d="M111.775,258.663a130.522,130.522,0,0,0-23.684,2.3,9.67,9.67,0,0,0-7.368,11.973c5.855,22.218,2.54,46.612,3,51.067,0,0,46.619,6.711,53.767-7.146,3.806-18.454-6.72-25.921-12.318-47.948A14.2,14.2,0,0,0,111.775,258.663Z" transform="translate(-80.397 -258.663)" fill="#407bff"/>
                  <path id="Path_21222" data-name="Path 21222" d="M111.775,258.663a130.522,130.522,0,0,0-23.684,2.3,9.67,9.67,0,0,0-7.368,11.973c5.855,22.218,2.54,46.612,3,51.067,0,0,46.619,6.711,53.767-7.146,3.806-18.454-6.72-25.921-12.318-47.948A14.2,14.2,0,0,0,111.775,258.663Z" transform="translate(-80.397 -258.663)" fill="#fff" opacity="0.8"/>
                </g>
                <g id="Group_4860-2" data-name="Group 4860" transform="translate(15.474 42.358)" opacity="0.2">
                  <path id="Path_21223" data-name="Path 21223" d="M91.088,330.243h-.025a.211.211,0,0,1-.185-.235q.044-.391.082-.835a.221.221,0,0,1,.228-.193.212.212,0,0,1,.194.229c-.025.3-.052.583-.084.848A.212.212,0,0,1,91.088,330.243Z" transform="translate(-88.26 -281.718)" fill="#407bff"/>
                  <path id="Path_21224" data-name="Path 21224" d="M90.988,322.157h-.009a.213.213,0,0,1-.2-.222c.023-.538.04-1.112.051-1.717a.212.212,0,0,1,.212-.208h0a.212.212,0,0,1,.207.215c-.011.609-.028,1.186-.051,1.728A.211.211,0,0,1,90.988,322.157Zm.067-3.445a.213.213,0,0,1-.213-.213v-.1c0-.528,0-1.068-.01-1.624a.213.213,0,0,1,.21-.214.209.209,0,0,1,.214.21q.009.837.01,1.624v.1A.213.213,0,0,1,91.055,318.712Zm-.04-3.45a.212.212,0,0,1-.212-.207q-.019-.842-.045-1.723a.213.213,0,0,1,.206-.218h.007a.212.212,0,0,1,.212.206q.025.881.045,1.727a.212.212,0,0,1-.206.216Zm-.1-3.448a.213.213,0,0,1-.213-.2q-.031-.849-.069-1.722a.211.211,0,0,1,.2-.221h.009a.211.211,0,0,1,.212.2q.037.874.069,1.725a.213.213,0,0,1-.2.22Zm-.146-3.447a.211.211,0,0,1-.212-.2q-.041-.854-.087-1.722a.212.212,0,0,1,.2-.222h.012a.212.212,0,0,1,.212.2q.047.869.087,1.724a.213.213,0,0,1-.2.222Zm-.181-3.444a.212.212,0,0,1-.212-.2c-.033-.57-.067-1.145-.1-1.72a.213.213,0,0,1,.425-.026q.052.864.1,1.722a.213.213,0,0,1-.2.224Zm-.208-3.442a.211.211,0,0,1-.211-.2q-.055-.86-.113-1.719a.211.211,0,1,1,.422-.029q.059.861.114,1.722a.213.213,0,0,1-.2.225Zm-.231-3.443a.213.213,0,0,1-.212-.2q-.06-.862-.124-1.719a.212.212,0,0,1,.2-.228.2.2,0,0,1,.227.2q.063.858.124,1.721a.213.213,0,0,1-.2.227Zm-.253-3.441a.211.211,0,0,1-.211-.2q-.067-.865-.134-1.719a.212.212,0,0,1,.423-.034q.068.854.133,1.72a.212.212,0,0,1-.195.228Zm-.274-3.438a.211.211,0,0,1-.211-.195l-.144-1.719a.211.211,0,0,1,.193-.229.2.2,0,0,1,.229.193l.144,1.719a.212.212,0,0,1-.193.229Zm-.294-3.437a.213.213,0,0,1-.212-.194q-.076-.874-.155-1.717a.212.212,0,0,1,.191-.231.219.219,0,0,1,.231.191c.053.562.1,1.136.155,1.719a.213.213,0,0,1-.193.23Zm-.316-3.435a.212.212,0,0,1-.211-.192c-.056-.588-.113-1.161-.168-1.716a.212.212,0,0,1,.19-.231.207.207,0,0,1,.232.19q.083.833.167,1.718a.212.212,0,0,1-.191.231Zm-.344-3.434a.212.212,0,0,1-.211-.19q-.095-.9-.184-1.714a.212.212,0,1,1,.421-.047q.091.814.185,1.717a.213.213,0,0,1-.189.233Z" transform="translate(-87.974 -276.188)" fill="#407bff"/>
                  <path id="Path_21225" data-name="Path 21225" d="M88.242,277.118a.19.19,0,0,1-.2-.166l-.1-.838a.211.211,0,0,1,.184-.236.2.2,0,0,1,.237.184l.1.8a.231.231,0,0,1-.182.257Z" transform="translate(-87.937 -275.875)" fill="#407bff"/>
                </g>
                <g id="Group_4861-2" data-name="Group 4861" transform="translate(0.297 40.294)">
                  <path id="Path_21226" data-name="Path 21226" d="M92.008,284.514l-1.056,2.4-1.1,2.549c-.732,1.705-1.4,3.433-2.078,5.148s-1.262,3.445-1.837,5.16C85.386,301.5,84.9,303.2,84.47,304.9l-.247-3.11a1.171,1.171,0,0,1,.068.423,5.177,5.177,0,0,1,.3.727,13.677,13.677,0,0,0,1.078,1.818,37.912,37.912,0,0,0,3.2,4.016c1.2,1.364,2.5,2.729,3.839,4.089l4.05,4.076.126.126a3.808,3.808,0,0,1-4.021,6.257,51.771,51.771,0,0,1-5.853-2.625,56.022,56.022,0,0,1-5.551-3.312,38.058,38.058,0,0,1-5.341-4.338,27.742,27.742,0,0,1-2.572-2.911c-.423-.6-.829-1.22-1.219-1.849-.384-.76-.748-1.543-1.084-2.336a4.519,4.519,0,0,1-.338-2.206l.092-.9a58.917,58.917,0,0,1,.994-6.664A65.392,65.392,0,0,1,73.62,289.8c.621-2.086,1.358-4.121,2.155-6.13.414-1,.819-2,1.282-2.985.23-.493.456-.99.7-1.484l.808-1.563a7.543,7.543,0,0,1,13.614,6.48Z" transform="translate(-70.884 -273.556)" fill="#803e3c"/>
                </g>
                <path id="Path_21227" data-name="Path 21227" d="M97.874,323.8l-1.509,2.3c-.991,4.471,4.978,4.751,4.978,4.751l2.815,1.293a2.31,2.31,0,0,0,2.821-.99l1.689-2.536a2.408,2.408,0,0,0-.412-3.333l-2.239-1.515a4.766,4.766,0,0,0-2.185-.794l-3.48-.357A2.639,2.639,0,0,0,97.874,323.8Z" transform="translate(-73.378 -238.659)" fill="#7f3e3b"/>
                <path id="Path_21228" data-name="Path 21228" d="M85.19,263.829c-3.019-.569-7.078,5.282-7.762,11.744-2.56,2.662-2.8,7.054-4.9,10.914-4.3,7.9-.659,10.51,2.118,11.983,5.974,3.167,12.68,1.991,14.462-1.583a36.67,36.67,0,0,0,4.227-12.967C94.121,276.248,90.548,264.839,85.19,263.829Z" transform="translate(-70.55 -232.188)" fill="#407bff"/>
                <path id="Path_21230" data-name="Path 21230" d="M113.858,260.125a6.078,6.078,0,0,0-3.063-2.564,5.625,5.625,0,0,1-.328-3.769l-14.419-3.639c1.429,4.606,2.55,8.245.951,10.621,2.883,1.527,8.024,4.459,13.584,4.761C114.763,265.762,114.884,262.031,113.858,260.125Z" transform="translate(-73.355 -230.687)" fill="#7f3e3b"/>
                <path id="Path_21231" data-name="Path 21231" d="M110.835,254.74l-10.651.027c3.536,3.343,8.647,4.37,10.853,2.787A5.647,5.647,0,0,1,110.835,254.74Z" transform="translate(-73.81 -231.192)" opacity="0.2"/>
                <path id="Path_21232" data-name="Path 21232" d="M113.357,242.616c1.827-2.485,2.262-6.175.918-6.689.118-2.5-.182-5.141-2.633-5.575a4.927,4.927,0,0,0-5.8,4.744C102.211,239.217,107.922,243.992,113.357,242.616Z" transform="translate(-74.307 -228.5)" fill="#e0e0e0"/>
                <path id="Path_21233" data-name="Path 21233" d="M92.955,240.148c1.75,6.565,3.079,10.985,7.5,13.014,8.788,4.033,12.659-.52,12.906-7.493.222-6.276-2.677-15.957-9.717-17.23A9.362,9.362,0,0,0,92.955,240.148Z" transform="translate(-72.979 -228.281)" fill="#7f3e3b"/>
                <path id="Path_21235" data-name="Path 21235" d="M92.962,245.32c2.572-1.7,4.255-5.012,3.173-5.96.974-2.307,1.385-5.661-.546-6.141s-5.636-.642-7.078,2.45C83.675,238.28,87.386,244.734,92.962,245.32Z" transform="translate(-72.28 -228.795)" fill="#e0e0e0"/>
                <path id="Path_21240" data-name="Path 21240" d="M108.933,232.636a19.177,19.177,0,0,0-5.952.717A53.589,53.589,0,0,0,108.933,232.636Z" transform="translate(-74.118 -228.759)" opacity="0.2"/>
                <path id="Path_21241" data-name="Path 21241" d="M109.83,233.709s-4.575.3-6.744,1.571A37.488,37.488,0,0,0,109.83,233.709Z" transform="translate(-74.13 -228.878)" opacity="0.2"/>
                <path id="Path_21242" data-name="Path 21242" d="M91.6,248.626a6.4,6.4,0,0,0,4.209,2.545c2.242.319,3.087-1.76,2.234-3.724-.768-1.767-2.86-4.063-5-3.482A2.919,2.919,0,0,0,91.6,248.626Z" transform="translate(-72.796 -229.996)" fill="#7f3e3b"/>
                <path id="Path_21248" data-name="Path 21248" d="M114.834,272.891c-7.608-.74-23.035-10.876-17.1-13.029,3.806,4.186,10.684,5.281,13.641,5.283,1.1-1.054,2.16-4.023-.543-6.669C113.93,258.212,120.139,267.731,114.834,272.891Z" transform="translate(-73.395 -231.602)" fill="#407bff"/>
              </g>
            </g>
          </g>
          <g id="Group_4875" data-name="Group 4875" transform="translate(229.921 3.921)">
            <g id="Group_4867" data-name="Group 4867" transform="translate(24.24 45.015)">
              <path id="Path_21249" data-name="Path 21249" d="M341.288,365.971h60.369a3.587,3.587,0,0,0,3.577-3.576h0a3.587,3.587,0,0,0-3.577-3.577H341.288a3.588,3.588,0,0,0-3.577,3.577h0A3.587,3.587,0,0,0,341.288,365.971Z" transform="translate(-336.077 -297.51)" fill="#407bff"/>
              <g id="Group_4865" data-name="Group 4865" transform="translate(39.917)">
                <path id="Path_21250" data-name="Path 21250" d="M419.9,352.638h2.009l7.664-50h-2.009Z" transform="translate(-385.036 -291.329)" fill="#263238"/>
                <path id="Path_21251" data-name="Path 21251" d="M385.455,352.638h2.009l7.664-50h-2.009Z" transform="translate(-381.247 -291.329)" fill="#263238"/>
                <path id="Path_21252" data-name="Path 21252" d="M384.849,341.191h39.365a5.7,5.7,0,0,0,5.444-4.758l6.012-41.744a4.035,4.035,0,0,0-4.073-4.759H392.232a5.7,5.7,0,0,0-5.444,4.759l-6.012,41.744A4.034,4.034,0,0,0,384.849,341.191Z" transform="translate(-380.727 -289.931)" fill="#407bff"/>
                <path id="Path_21253" data-name="Path 21253" d="M441.1,294.831l-6.012,41.744a5.438,5.438,0,0,1-1.258,2.727c-1.44,1.7-4,.78-3.706-1.3l6.423-44.6c.3-2.077,3.129-3,4.081-1.3A4.286,4.286,0,0,1,441.1,294.831Z" transform="translate(-386.159 -290.073)" fill="#fff" opacity="0.4"/>
              </g>
              <g id="Group_4866" data-name="Group 4866" transform="translate(46.287 61.308)">
                <path id="Path_21254" data-name="Path 21254" d="M391.46,365.971h27.624a3.586,3.586,0,0,0,3.576-3.576h0a3.587,3.587,0,0,0-3.576-3.577H391.46a3.587,3.587,0,0,0-3.576,3.577h0A3.586,3.586,0,0,0,391.46,365.971Z" transform="translate(-387.884 -358.818)" fill="#407bff"/>
                <path id="Path_21255" data-name="Path 21255" d="M391.46,365.971h27.624a3.586,3.586,0,0,0,3.576-3.576h0a3.587,3.587,0,0,0-3.576-3.577H391.46a3.587,3.587,0,0,0-3.576,3.577h0A3.586,3.586,0,0,0,391.46,365.971Z" transform="translate(-387.884 -358.818)" fill="#fff" opacity="0.4"/>
              </g>
              <path id="Path_21256" data-name="Path 21256" d="M375.007,409.918h2.009l7.664-43.063H382.67Z" transform="translate(-340.18 -298.394)" fill="#263238"/>
              <path id="Path_21257" data-name="Path 21257" d="M335.875,409.918h2.009l7.663-43.063h-2.009Z" transform="translate(-335.875 -298.394)" fill="#263238"/>
              <path id="Path_21258" data-name="Path 21258" d="M388.96,409.918h-2.009l-7.664-43.063H381.3Z" transform="translate(-340.651 -298.394)" fill="#263238"/>
              <path id="Path_21259" data-name="Path 21259" d="M428.092,409.918h-2.009l-7.664-43.063h2.009Z" transform="translate(-344.956 -298.394)" fill="#263238"/>
            </g>
            <g id="Group_4874" data-name="Group 4874">
              <g id="Group_4873" data-name="Group 4873">
                <path id="Path_21260" data-name="Path 21260" d="M353.687,259.569c2.156,2.822,3.275,2.084,4.723-1.484.927-2.285,3.459-1.276,4.049-5.354.242-1.678-5.084-4.923-7.972-4.054S352,257.367,353.687,259.569Z" transform="translate(-313.45 -240.362)" fill="#263238"/>
                <path id="Path_21261" data-name="Path 21261" d="M354.244,281.5a7.192,7.192,0,0,0-8.9,4.927l-.138.481-.374,1.3-.439,1.443c-.314.96-.623,1.924-.975,2.859a42.741,42.741,0,0,1-2.307,5.256,17.756,17.756,0,0,1-2.64,3.808,6.8,6.8,0,0,1-.991.844c-.537-.344-1.08-.714-1.622-1.123-1.387-1.052-2.821-2.226-4.2-3.509-1.408-1.261-2.788-2.617-4.175-4-1.378-1.364-2.777-2.851-4.11-4.191l-.157-.158a3.622,3.622,0,0,0-5.949,3.849,52.593,52.593,0,0,0,2.754,5.952,60.478,60.478,0,0,0,3.419,5.61,46.728,46.728,0,0,0,4.267,5.33,30.013,30.013,0,0,0,5.748,4.882,5.414,5.414,0,0,0,2.851.845l.537,0a15.8,15.8,0,0,0,5.874-1.11,18.106,18.106,0,0,0,4.724-2.811,27.25,27.25,0,0,0,5.989-7.024,43.922,43.922,0,0,0,3.584-7.329c.465-1.235.905-2.468,1.272-3.724.186-.627.368-1.256.53-1.9l.234-.975.239-1.1A7.215,7.215,0,0,0,354.244,281.5Z" transform="translate(-309.561 -243.958)"/>
                <path id="Path_21262" data-name="Path 21262" d="M309.594,290.386l2.243,1.778a7.911,7.911,0,0,0,3.029,1.484l3.066.752a3.792,3.792,0,0,0,3.842-1.29h0a3.765,3.765,0,0,0-.425-5.228,14.683,14.683,0,0,0-3.786-2.2l-3.148-1.839a2.524,2.524,0,0,0-3.216.57l-1.979,2.391A2.524,2.524,0,0,0,309.594,290.386Z" transform="translate(-308.638 -244.208)" fill="#ffb573"/>
                <path id="Path_21263" data-name="Path 21263" d="M375.2,276.2c-7.364.59-15.635,1.527-21.878,4.461a7.933,7.933,0,0,0-4.388,8.262c.938,6.962,1.668,12.358,3.362,18.084,3.677,12.423-5.229,17.918,3.055,27.542,3.632,4.13,25.893,8,41.655,2.827,2.047-8.519,1.086-25.719-1.459-44.7A19.021,19.021,0,0,0,375.2,276.2Z" transform="translate(-313.064 -243.399)" fill="#263238"/>
                <path id="Path_21264" data-name="Path 21264" d="M388.6,305.076c3.173,18.289.784,23.148-5.368,28.244-8.633,1.643-12.092-2.729-12.092-2.729Z" transform="translate(-310.033 -245.071)"/>
                <path id="Path_21348" data-name="Path 21348" d="M388.6,305.076c3.173,18.289.784,23.148-5.368,28.244-8.633,1.643-12.092-2.729-12.092-2.729Z" transform="translate(-323.383 -247.741)" fill="#0d0b0b" opacity="0.14"/>
                <g id="Group_4868" data-name="Group 4868" transform="translate(44.834 37.244)" opacity="0.2">
                  <path id="Path_21266" data-name="Path 21266" d="M361.78,292.061a.317.317,0,0,1-.106-.616c5.477-1.94,13.25-6.954,15.694-10.122a.317.317,0,1,1,.5.386c-2.792,3.619-10.884,8.526-15.984,10.333A.316.316,0,0,1,361.78,292.061Z" transform="translate(-359.284 -281.2)" fill="#fff"/>
                  <path id="Path_21267" data-name="Path 21267" d="M366.93,292.686a.34.34,0,0,1-.093-.014c-5.208-1.611-7.366-6.924-7.819-9.81a.317.317,0,1,1,.626-.1c.431,2.741,2.471,7.785,7.38,9.3a.317.317,0,0,1-.093.62Z" transform="translate(-359.014 -281.343)" fill="#fff"/>
                </g>
                <path id="Path_21268" data-name="Path 21268" d="M371.945,264.835c-.14,3.675.829,9.253,3.631,11.372a2.366,2.366,0,0,1-.158,3.905c-2.047,1.3-7.59,4.118-10.35,4.118a4.4,4.4,0,0,1-4.059-4.563,3.517,3.517,0,0,1,1.154-1.838c1.867-1.7.5-3.447-.271-4.726Z" transform="translate(-314.396 -242.155)" fill="#ffb573"/>
                <path id="Path_21269" data-name="Path 21269" d="M369.04,270.494c-.061-.221-.144-.441-.226-.656l-6.8,3.818a5.687,5.687,0,0,1,1.208,2.959C366.639,275.23,369.656,272.6,369.04,270.494Z" transform="translate(-314.51 -242.706)" opacity="0.2"/>
                <g id="Group_4870" data-name="Group 4870" transform="translate(1.394 86.545)">
                  <path id="Path_21270" data-name="Path 21270" d="M323.127,393.439c1.125-1.177,8.417-3.414,8.417-3.414a143.756,143.756,0,0,1,4.709,16.715l-9.42.946S325.279,398.145,323.127,393.439Z" transform="translate(-311.627 -342.473)" fill="#ffb573"/>
                  <g id="Group_4869" data-name="Group 4869">
                    <path id="Path_21271" data-name="Path 21271" d="M366.09,336.6c-27.232.386-63.07-1.071-54.627,23.75,3.613,10.623.579,7.01,4.8,19.877,1.82,5.54,2.439,7.172,3.76,11.009,1.444,3.441,10.114,2.8,13.315,1.456,3.846-2.049.589-7.575.141-10.683-2.187-15.189,1.828-13.469-2.948-23.428,8.691,1.258,36.384.38,40.023-14.551C370.558,344.025,375.563,338.067,366.09,336.6Z" transform="translate(-310.205 -336.595)" fill="#407bff"/>
                    <path id="Path_21272" data-name="Path 21272" d="M366.09,336.6c-27.232.386-63.07-1.071-54.627,23.75,3.613,10.623.579,7.01,4.8,19.877,1.82,5.54,2.439,7.172,3.76,11.009,1.444,3.441,10.114,2.8,13.315,1.456,3.846-2.049.589-7.575.141-10.683-2.187-15.189,1.828-13.469-2.948-23.428,8.691,1.258,36.384.38,40.023-14.551C370.558,344.025,375.563,338.067,366.09,336.6Z" transform="translate(-310.205 -336.595)" opacity="0.4"/>
                  </g>
                  <path id="Path_21273" data-name="Path 21273" d="M323.723,399.769l1.162,2.3a.718.718,0,0,0,.764.385c1.542-.271,6.141-1.006,8.816-.684a.713.713,0,0,0,.792-.666c.054-.9.044-2.078.028-2.812a.716.716,0,0,0-.721-.7,52.02,52.02,0,0,0-10.359,1.152A.721.721,0,0,0,323.723,399.769Z" transform="translate(-311.684 -343.305)" fill="#263238"/>
                  <path id="Path_21274" data-name="Path 21274" d="M337.106,414.628l-1-6.618a.657.657,0,0,0-.7-.506l-9.658.041a3.536,3.536,0,0,0-2.2.59,23.151,23.151,0,0,1-10.436,4.464c-1.548.3-.89,3.376,2.74,3.361,6-.026,5.754-.214,10.873-.237,4.379-.019,5.478.2,8.956.237A1.312,1.312,0,0,0,337.106,414.628Z" transform="translate(-310.439 -344.396)" fill="#263238"/>
                </g>
                <path id="Path_21275" data-name="Path 21275" d="M372.188,253.937c-.006,6.675.337,10.559-2.891,14.387a8.934,8.934,0,0,1-15.488-2.638c-1.832-5.768-1.515-15.715,4.987-19.18C365.2,243.09,372.194,247.262,372.188,253.937Z" transform="translate(-313.501 -240.005)" fill="#ffb573"/>
                <path id="Path_21278" data-name="Path 21278" d="M372.494,259.935c-3.286,1.351-3.88.15-3.333-3.661.351-2.441-2.344-2.846-.8-6.665.636-1.572,6.872-1.689,8.927.516S375.056,258.881,372.494,259.935Z" transform="translate(-315.156 -240.352)" fill="#263238"/>
                <path id="Path_21279" data-name="Path 21279" d="M369.227,250.337c-7.512.652-17.154.69-18.508-4.832-.916-3.731,3.609-9.329,10.555-3.89,4.829,3.782,9.518,1.443,11.877,2.253C375.3,244.606,379.44,249.45,369.227,250.337Z" transform="translate(-313.255 -239.352)" fill="#263238"/>
                <path id="Path_21280" data-name="Path 21280" d="M376.829,250.225a5.583,5.583,0,0,1-1.022-.1.423.423,0,0,1,.156-.831,3.115,3.115,0,0,0,2.624-.473,1.7,1.7,0,0,0,.608-1.353.422.422,0,0,1,.41-.433h.012a.423.423,0,0,1,.423.411,2.522,2.522,0,0,1-.905,2.018A3.486,3.486,0,0,1,376.829,250.225Z" transform="translate(-315.99 -240.197)" fill="#263238"/>
                <path id="Path_21284" data-name="Path 21284" d="M376.851,261.8a6.161,6.161,0,0,1-3.592,3.039c-2.062.643-3.157-1.185-2.638-3.165.467-1.783,2.1-4.265,4.2-4.043A2.767,2.767,0,0,1,376.851,261.8Z" transform="translate(-315.443 -241.362)" fill="#ffb573"/>
                <g id="Group_4872" data-name="Group 4872" transform="translate(21.724 84.723)">
                  <path id="Path_21286" data-name="Path 21286" d="M353.686,392.764c1-1.284,8.029-4.248,8.029-4.248a143.944,143.944,0,0,1,6.374,16.153l-9.275,1.894S356.3,397.228,353.686,392.764Z" transform="translate(-335.318 -340.485)" fill="#ffb573"/>
                  <g id="Group_4871" data-name="Group 4871">
                    <path id="Path_21287" data-name="Path 21287" d="M372.1,334.548c-26.764,1.822-47.461,1.877-35.651,25.284,5.054,10.018,3.313,7.87,8.817,20.243,2.37,5.328,3.151,6.889,4.853,10.573,1.785,3.277,10.346,1.764,13.394.1,3.619-2.428-.18-7.6-.939-10.643-3.71-14.89.5-12.656-5.179-22.132,8.77.45,38.679,3.4,37.879-14.176C395.27,343.8,390.915,334.548,372.1,334.548Z" transform="translate(-333.048 -334.548)" fill="#407bff"/>
                    <path id="Path_21288" data-name="Path 21288" d="M372.1,334.548c-26.764,1.822-47.461,1.877-35.651,25.284,5.054,10.018,3.313,7.87,8.817,20.243,2.37,5.328,3.151,6.889,4.853,10.573,1.785,3.277,10.346,1.764,13.394.1,3.619-2.428-.18-7.6-.939-10.643-3.71-14.89.5-12.656-5.179-22.132,8.77.45,38.679,3.4,37.879-14.176C395.27,343.8,390.915,334.548,372.1,334.548Z" transform="translate(-333.048 -334.548)" opacity="0.4"/>
                  </g>
                  <path id="Path_21289" data-name="Path 21289" d="M354.9,398.97l1.388,2.168a.715.715,0,0,0,.8.306c1.508-.424,6.008-1.622,8.7-1.571a.714.714,0,0,0,.721-.743c-.037-.905-.166-2.072-.255-2.8a.716.716,0,0,0-.789-.626,51.979,51.979,0,0,0-10.189,2.193A.721.721,0,0,0,354.9,398.97Z" transform="translate(-335.439 -341.276)" fill="#263238"/>
                  <path id="Path_21290" data-name="Path 21290" d="M369.8,411.741l-1.925-6.705a.656.656,0,0,0-.763-.4l-9.549,1.444a3.535,3.535,0,0,0-2.087.9,15.956,15.956,0,0,1-9.423,5.3c-1.548.3-.89,3.376,2.74,3.361,6-.026,5.745-.792,10.811-1.533,3.83-.56,5.453-.584,8.917-.9A1.311,1.311,0,0,0,369.8,411.741Z" transform="translate(-334.392 -342.258)" fill="#263238"/>
                </g>
                <path id="Path_21291" data-name="Path 21291" d="M346.917,332.833l2.787-.649a7.921,7.921,0,0,1,3.372-.046l3.093.632a3.787,3.787,0,0,1,2.922,2.809h0a3.763,3.763,0,0,1-2.619,4.543,14.689,14.689,0,0,1-4.366.374l-3.631.316a2.523,2.523,0,0,1-2.664-1.891l-.767-3.007A2.522,2.522,0,0,1,346.917,332.833Z" transform="translate(-312.635 -249.542)" fill="#ffb573"/>
                <path id="Path_21292" data-name="Path 21292" d="M392.144,295.03c-.184-2.489-.4-4.874-.789-7.447a7.2,7.2,0,0,0-14.3,1.695l.01.107.6,6.771c.2,2.278.367,4.559.52,6.812.077,1.128.132,2.252.175,3.366.06,1.116.1,2.221.115,3.312.008,1.344,0,2.672-.041,3.947-1,.719-2.073,1.441-3.157,2.141-2.028,1.3-4.14,2.617-6.3,3.876-2.143,1.29-4.329,2.554-6.521,3.831s-4.416,2.56-6.567,3.871l-.064.037a3.077,3.077,0,0,0-1.109,3.777c.614,1.9,1.819,3.258,3.766,2.831,2.622-.575,5.121-1.281,7.649-2.037s5.01-1.605,7.5-2.523c2.478-.941,4.964-1.911,7.432-3.08a53.918,53.918,0,0,0,7.531-4.131,5.789,5.789,0,0,0,2.4-3.565l.117-.542a56.606,56.606,0,0,0,1.1-7.994c.206-2.584.246-5.1.23-7.6C392.439,299.973,392.306,297.5,392.144,295.03Z" transform="translate(-313.684 -243.983)" fill="#263238"/>
              </g>
            </g>
          </g>
        </g>
        <path id="Subtraction_3" data-name="Subtraction 3" d="M4.037,8.493h0a4.29,4.29,0,1,1,.428,0V4.953a.746.746,0,0,0,.523-.7.737.737,0,1,0-.951.7v3.54Z" transform="translate(-12782.668 -9337.414) rotate(8)" fill="#0099dc" stroke="rgba(0,0,0,0)" stroke-miterlimit="10" stroke-width="1"/>
      </g>
    </g>
    <g id="Group_4914" data-name="Group 4914" transform="translate(93.121 11366.612)">
      <path id="Path_21373" data-name="Path 21373" d="M338.059,83.569a4.386,4.386,0,0,1-2.385,2.57c-3.153,1.19-9.411-.167-11.111-2.66-.526-.765-.559-1.242-.319-1.507.42-.46,1.662-.291,2.582.042-1.127-.566-3.188-1.8-2.523-2.925.833-1.4,3.1-.434,3.462-.261-.425-.268-3.829-2.394-3.117-3.35.695-.918,3.6.3,4.164.535-.876-.465-8.2-4.38-7.563-5.526.789-1.39,8.448,3.1,10.042,4.171,0,0-1.448-2.117,1.122-1.54s6.082,4.157,6.277,6.277A9.253,9.253,0,0,1,338.059,83.569Z" transform="translate(22.117 10.448)" fill="#ffb573"/>
      <g id="Group_4913" data-name="Group 4913" transform="translate(304.796 62.471)">
        <path id="Path_21374" data-name="Path 21374" d="M358.405,89.237a.4.4,0,0,1-.162-.035c-20.174-8.669-37.726-17.89-47.158-22.843-2.625-1.378-4.7-2.467-6.078-3.15a.391.391,0,0,1,.352-.7c1.378.688,3.455,1.777,6.085,3.157,9.423,4.948,26.961,14.16,47.109,22.82a.391.391,0,0,1,.2.514A.4.4,0,0,1,358.405,89.237Z" transform="translate(-304.796 -62.471)" fill="#0f161e"/>
      </g>
      <path id="Path_21375" data-name="Path 21375" d="M325.386,71.833c-.789.744,3.758,7.056,5.747,4.9S326.806,70.5,325.386,71.833Z" transform="translate(27.622 12.263)" fill="#ffb573"/>
      <path id="Path_21376" data-name="Path 21376" d="M336.4,76.825a4.386,4.386,0,0,1-2.385,2.57c-3.153,1.19-9.411-.167-11.111-2.66-.526-.765-.559-1.242-.319-1.507a12.4,12.4,0,0,0,9.441,2.857c4.35-.683,4.256-1.38,4.186-1.523C336.239,76.6,336.31,76.7,336.4,76.825Z" transform="translate(23.777 17.191)" fill="#eb9273" opacity="0.2" style="mix-blend-mode: multiply;isolation: isolate"/>
    </g>
  </g>
</svg>
