<svg xmlns="http://www.w3.org/2000/svg" width="28.739" height="39.701" viewBox="0 0 28.739 39.701">
  <g id="links" transform="translate(-70.687)">
    <g id="Group_1469" data-name="Group 1469" transform="translate(70.687)">
      <g id="Group_1468" data-name="Group 1468" transform="translate(0)">
        <path id="Path_16065" data-name="Path 16065" d="M99.184,7.865,91.56.242A.827.827,0,0,0,90.975,0H73.268a2.584,2.584,0,0,0-2.581,2.581V37.12A2.584,2.584,0,0,0,73.268,39.7H96.844a2.584,2.584,0,0,0,2.582-2.581V8.45A.828.828,0,0,0,99.184,7.865ZM96.6,7.623H91.8v-4.8h0Zm1.17,29.5a.928.928,0,0,1-.927.927H73.268a.928.928,0,0,1-.927-.927V2.581a.928.928,0,0,1,.927-.927h16.88v6.8a.827.827,0,0,0,.827.827h6.8Z" transform="translate(-70.687)" fill="#2b75b7"/>
        <path id="Path_16066" data-name="Path 16066" d="M114.214,448h-.033a.827.827,0,0,0,0,1.654h.033a.827.827,0,0,0,0-1.654Z" transform="translate(-110.046 -413.261)" fill="#2b75b7"/>
        <path id="Path_16067" data-name="Path 16067" d="M150.159,448a.827.827,0,0,0,0,1.654h17.678a.827.827,0,0,0,0-1.654Z" transform="translate(-143.234 -413.261)" fill="#2b75b7"/>
        <path id="Path_16068" data-name="Path 16068" d="M137.952,156.9l-4.191,4.191a2.415,2.415,0,0,0,0,3.412l.487.487-1.754,1.754-.487-.487a2.415,2.415,0,0,0-3.412,0L124.4,170.45a2.412,2.412,0,0,0,0,3.412l2.144,2.145a2.412,2.412,0,0,0,3.412,0l4.191-4.191a2.412,2.412,0,0,0,0-3.412l-.487-.487,1.755-1.755.487.487a2.412,2.412,0,0,0,3.412,0l4.191-4.191a2.412,2.412,0,0,0,0-3.412l-2.145-2.144A2.415,2.415,0,0,0,137.952,156.9Zm-4.971,13.744-4.192,4.191a.758.758,0,0,1-1.072,0l-2.144-2.144a.758.758,0,0,1,0-1.072l4.191-4.192a.759.759,0,0,1,1.072,0l.487.487-1.17,1.17a.827.827,0,1,0,1.17,1.17l1.17-1.17.487.487a.758.758,0,0,1,0,1.072Zm9.358-10.43a.758.758,0,0,1,0,1.072l-4.191,4.191a.758.758,0,0,1-1.072,0h0l-.487-.487,1.17-1.17a.827.827,0,0,0-1.17-1.17l-1.17,1.17-.487-.487a.759.759,0,0,1,0-1.072l4.191-4.191a.759.759,0,0,1,1.072,0Z" transform="translate(-119.586 -144.084)" fill="#ff7863"/>
      </g>
    </g>
  </g>
</svg>
