<svg xmlns="http://www.w3.org/2000/svg" xmlns:xlink="http://www.w3.org/1999/xlink" width="163.326" height="157.871" viewBox="0 0 163.326 157.871">
  <defs>
    <linearGradient id="linear-gradient" x1="1" y1="-0.027" x2="-0.106" y2="1.17" gradientUnits="objectBoundingBox">
      <stop offset="0" stop-color="#fff"/>
      <stop offset="0.502" stop-color="#98dbf9"/>
      <stop offset="1" stop-color="#fff"/>
    </linearGradient>
  </defs>
  <g id="living" opacity="0.25">
    <path id="Path_19156" data-name="Path 19156" d="M171.132,152.439q.006-.173.006-.343a10.9,10.9,0,0,0-10.888-10.888V90.853l9.8-7.349a2.722,2.722,0,0,0-.027-4.375L146.641,62.042V32.331a2.722,2.722,0,0,0,2.722-2.722V18.722A2.722,2.722,0,0,0,146.641,16H119.422a2.722,2.722,0,0,0-2.722,2.722V29.61a2.722,2.722,0,0,0,2.722,2.722v9.82L99.253,27.412a2.722,2.722,0,0,0-3.212,0L25.271,79.128a2.722,2.722,0,0,0-.027,4.375l9.8,7.349v50.355A10.9,10.9,0,0,0,24.155,152.1q0,.17.006.343a10.888,10.888,0,0,0,2.716,21.432h141.54a10.888,10.888,0,0,0,2.716-21.432ZM122.144,21.444h21.775v5.444H122.144Zm2.722,24.5V32.331H141.2V58.064L124.608,45.941ZM97.647,32.981l66.2,48.374L157.5,86.108,99.248,43.74a2.722,2.722,0,0,0-3.2,0L37.79,86.108l-6.338-4.753Zm-76.214,130A5.45,5.45,0,0,1,26.8,157.54H26.8c.139.019.278.036.42.045a2.722,2.722,0,0,0,2.73-3.646A5.351,5.351,0,0,1,29.6,152.1a5.45,5.45,0,0,1,5.444-5.444v21.775H26.877A5.45,5.45,0,0,1,21.433,162.983Zm117.042,5.444H105.813V108.545h32.663Zm5.444,0v-62.6A2.722,2.722,0,0,0,141.2,103.1H103.091a2.722,2.722,0,0,0-2.722,2.722v62.6H40.487V90.878l57.16-41.571,57.16,41.571v77.549Zm24.5,0h-8.166V146.652a5.45,5.45,0,0,1,5.444,5.444,5.351,5.351,0,0,1-.353,1.844,2.722,2.722,0,0,0,2.73,3.646c.142-.009.281-.026.42-.045h.006a5.444,5.444,0,0,1-.082,10.888Z" transform="translate(-15.984 -16)" fill="url(#linear-gradient)"/>
    <path id="Path_19157" data-name="Path 19157" d="M155.385,272H122.722A2.722,2.722,0,0,0,120,274.722v38.107a2.722,2.722,0,0,0,2.722,2.722h32.663a2.722,2.722,0,0,0,2.722-2.722V274.722A2.722,2.722,0,0,0,155.385,272Zm-2.722,19.053H141.775v-13.61h10.888Zm-16.331-13.61v13.61H125.444v-13.61ZM125.444,296.5h10.888v13.61H125.444Zm16.332,13.61V296.5h10.888v13.61Z" transform="translate(-84.61 -184.899)" fill="url(#linear-gradient)"/>
    <ellipse id="Ellipse_224" data-name="Ellipse 224" cx="2.722" cy="2.722" rx="2.722" ry="2.722" transform="translate(94.438 121.237) rotate(-67.5)" fill="url(#linear-gradient)"/>
  </g>
</svg>
