<?xml version="1.0" encoding="utf-8"?>
<!-- Generator: Adobe Illustrator 14.0.0, SVG Export Plug-In . SVG Version: 6.00 Build 43363)  -->
<!DOCTYPE svg PUBLIC "-//W3C//DTD SVG 1.1//EN" "http://www.w3.org/Graphics/SVG/1.1/DTD/svg11.dtd">
<svg version="1.1" id="Layer_1" xmlns="http://www.w3.org/2000/svg" xmlns:xlink="http://www.w3.org/1999/xlink" x="0px" y="0px"
	 width="65px" height="65px" viewBox="-0.835 -1.299 65 65" enable-background="new -0.835 -1.299 65 65" xml:space="preserve">
<g id="hurricane" transform="translate(0 -0.5)">
	<path id="Path_16372" d="M63.173,32.613l-15.3-23.1C47.585,9.078,47,8.96,46.565,9.247c-0.434,0.288-0.553,0.873-0.266,1.308
		l14.781,22.314l-4.482,2.97L40.159,11.022c-0.288-0.434-0.873-0.553-1.307-0.265L14.035,27.194l-2.968-4.481L41.151,2.784
		l3.067,4.631c0.288,0.435,0.874,0.553,1.308,0.266c0.435-0.288,0.553-0.873,0.266-1.308l-3.589-5.417
		c-0.288-0.435-0.872-0.554-1.308-0.267L9.235,21.662c-0.434,0.287-0.553,0.873-0.265,1.307l4.011,6.056
		c0.288,0.435,0.873,0.553,1.307,0.266l24.814-16.438l16.442,24.811c0.288,0.434,0.873,0.553,1.308,0.265l6.056-4.011
		c0.435-0.288,0.553-0.873,0.265-1.308V32.613z"/>
	<path id="Path_16373" fill="#147DB2" d="M42.718,52.502c0.521,0,0.943-0.423,0.943-0.943v-15.8c0-0.521-0.422-0.943-0.943-0.943
		h-15.8c-0.521,0-0.943,0.423-0.943,0.943v15.8c0,0.521,0.422,0.943,0.943,0.943H42.718z M41.774,50.616h-6.016V36.704h6.014
		L41.774,50.616z M27.864,36.705h6.012v13.911h-6.012V36.705z"/>
	<path id="Path_16374" d="M35.269,18.097c-0.367-0.368-0.965-0.368-1.333,0c-0.001,0-0.001,0-0.001,0L15.052,36.981
		c-0.177,0.178-0.276,0.417-0.276,0.667v6.712c0,0.521,0.422,0.943,0.943,0.943c0.521,0,0.943-0.422,0.943-0.943v-6.321
		l17.94-17.941l17.942,17.941v22.978H16.662V48.133c0-0.521-0.422-0.943-0.943-0.943c-0.521,0-0.943,0.423-0.943,0.943V61.96
		c0,0.521,0.422,0.942,0.943,0.942h37.769c0.521,0,0.943-0.422,0.943-0.942V37.648c0-0.25-0.1-0.489-0.275-0.667L35.269,18.097z"/>
	<path id="Path_16375" d="M1.035,9.953h21.277c2.61,0,4.726-2.116,4.726-4.727s-2.116-4.726-4.726-4.726s-4.726,2.115-4.726,4.726
		c0,0.521,0.422,0.943,0.942,0.943c0.521,0.001,0.943-0.421,0.944-0.942c0,0,0,0,0-0.001c0-1.568,1.271-2.84,2.84-2.84
		s2.84,1.271,2.84,2.84s-1.271,2.84-2.84,2.84H1.035C0.514,8.068,0.092,8.49,0.093,9.011C0.093,9.531,0.515,9.952,1.035,9.953z"/>
	<path id="Path_16376" d="M1.035,20.907H7.35c2.61,0,4.726-2.116,4.726-4.727S9.96,11.455,7.35,11.455
		c-2.61,0-4.726,2.115-4.726,4.726l0,0c0,0.521,0.422,0.943,0.943,0.943c0.521,0,0.943-0.423,0.943-0.943
		c0-1.568,1.271-2.841,2.839-2.841c1.568-0.001,2.84,1.271,2.841,2.839S8.919,19.02,7.351,19.02c0,0,0,0-0.001,0H1.035
		c-0.521,0-0.944,0.423-0.944,0.943C0.091,20.485,0.514,20.907,1.035,20.907z"/>
	<path id="Path_16377" d="M8.605,40.265h-7.57c-0.521-0.002-0.945,0.419-0.947,0.939s0.418,0.944,0.939,0.946
		c0.002,0,0.005,0,0.007,0h7.57c1.568,0,2.84,1.271,2.84,2.841c0,1.568-1.271,2.84-2.84,2.84s-2.84-1.271-2.84-2.84l0,0
		c0-0.521-0.422-0.943-0.943-0.943c-0.521,0-0.943,0.422-0.943,0.943c0,2.609,2.116,4.726,4.726,4.726
		c2.61,0,4.726-2.116,4.726-4.726C13.331,42.381,11.215,40.265,8.605,40.265L8.605,40.265z"/>
	<path id="Path_16378" d="M0.943,26.314h5.282c0.521,0,0.943-0.422,0.943-0.942c0-0.521-0.422-0.943-0.943-0.943H0.943
		C0.422,24.428,0,24.85,0,25.371C0,25.892,0.422,26.314,0.943,26.314z"/>
	<path id="Path_16379" d="M0.943,31.596H10c0.521,0,0.943-0.422,0.943-0.943c0-0.521-0.422-0.942-0.943-0.942H0.943
		C0.422,29.71,0,30.132,0,30.653C0,31.174,0.422,31.596,0.943,31.596z"/>
	<path id="Path_16380" d="M13.52,34.617H4.968c-0.521,0.002-0.941,0.426-0.939,0.946c0.002,0.518,0.421,0.938,0.939,0.939h8.551
		c0.521-0.002,0.941-0.426,0.939-0.946C14.457,35.038,14.037,34.619,13.52,34.617L13.52,34.617z"/>
</g>
</svg>
