<?xml version="1.0" encoding="utf-8"?>
<!-- Generator: Adobe Illustrator 14.0.0, SVG Export Plug-In . SVG Version: 6.00 Build 43363)  -->
<!DOCTYPE svg PUBLIC "-//W3C//DTD SVG 1.1//EN" "http://www.w3.org/Graphics/SVG/1.1/DTD/svg11.dtd">
<svg version="1.1" id="backlink" xmlns="http://www.w3.org/2000/svg" xmlns:xlink="http://www.w3.org/1999/xlink" x="0px" y="0px"
	 width="30px" height="30px" viewBox="0 0 30 30" enable-background="new 0 0 30 30" xml:space="preserve">
<linearGradient id="SVGID_1_" gradientUnits="userSpaceOnUse" x1="1.0894" y1="15" x2="29.3467" y2="15">
	<stop  offset="0.13" style="stop-color:#00A9ED"/>
	<stop  offset="1" style="stop-color:#65106B"/>
</linearGradient>
<path fill="url(#SVGID_1_)" d="M29.283,20.31c-0.196-0.715-0.796-1.246-1.527-1.356V8.216h0.935c0.259,0,0.468-0.21,0.468-0.468
	V3.07c0-0.259-0.209-0.468-0.468-0.468H8.106c-0.258,0-0.468,0.209-0.468,0.468v4.678c0,0.258,0.209,0.468,0.468,0.468h0.936v9.356
	H8.575c-1.162-0.002-2.299,0.33-3.275,0.959v-2.362c0-0.259-0.209-0.468-0.468-0.468H1.557c-0.258,0-0.467,0.209-0.467,0.468V26.93
	c0,0.258,0.209,0.468,0.467,0.468h3.275c0.258,0,0.468-0.21,0.468-0.468v-2.362c0.977,0.628,2.113,0.961,3.275,0.958h7.681
	c0.532-0.001,1.063-0.07,1.576-0.207l10.129-2.714C28.957,22.333,29.548,21.308,29.283,20.31z M8.575,3.538h19.648V7.28H8.575V3.538
	z M9.978,8.216h16.841v10.818l-5.43,1.456c-0.224-0.533-0.68-0.935-1.237-1.087l-6.303-1.69c-0.355-0.094-0.72-0.141-1.087-0.141
	H9.978V8.216z M4.364,26.461H2.025v-9.824h2.339V26.461z M27.718,21.7l-10.126,2.714c-0.436,0.116-0.885,0.175-1.336,0.176H8.575
	c-1.114,0.003-2.199-0.358-3.088-1.029L5.3,23.421v-3.743l0.187-0.141c0.889-0.67,1.974-1.031,3.088-1.028h4.187
	c0.286-0.001,0.57,0.036,0.847,0.109l6.301,1.689c0.373,0.103,0.646,0.422,0.688,0.806c0.005,0.019,0.011,0.038,0.019,0.057
	c-0.005,0.021-0.009,0.04-0.013,0.062c0.001,0.076-0.01,0.151-0.03,0.225c-0.11,0.408-0.479,0.691-0.902,0.691
	c-0.082,0.001-0.164-0.01-0.243-0.03l-3.977-1.066c-0.163-0.049-0.34-0.005-0.461,0.115c-0.121,0.118-0.168,0.294-0.123,0.459
	c0.045,0.163,0.176,0.29,0.342,0.329l3.977,1.066c0.159,0.043,0.322,0.063,0.487,0.063c0.841,0,1.577-0.563,1.8-1.374
	c0.025-0.094,0.043-0.189,0.053-0.287l5.703-1.528c0.041-0.011,0.085-0.021,0.127-0.028c0.466-0.06,0.903,0.234,1.023,0.688
	c0.021,0.079,0.032,0.16,0.031,0.242C28.411,21.22,28.127,21.591,27.718,21.7z"/>
<linearGradient id="SVGID_2_" gradientUnits="userSpaceOnUse" x1="15.5918" y1="9.6191" x2="21.2051" y2="9.6191">
	<stop  offset="0.13" style="stop-color:#00A9ED"/>
	<stop  offset="1" style="stop-color:#65106B"/>
</linearGradient>
<path fill="url(#SVGID_2_)" d="M16.06,10.087h4.679c0.258,0,0.467-0.209,0.467-0.468c0-0.259-0.209-0.468-0.467-0.468H16.06
	c-0.258,0-0.468,0.209-0.468,0.468C15.592,9.878,15.802,10.087,16.06,10.087z"/>
</svg>
