<svg xmlns="http://www.w3.org/2000/svg" xmlns:xlink="http://www.w3.org/1999/xlink" width="35.353" height="32.51" viewBox="0 0 35.353 32.51">
  <defs>
    <linearGradient id="linear-gradient" x1="0.5" x2="0.5" y2="1" gradientUnits="objectBoundingBox">
      <stop offset="0.13" stop-color="#00a9ed"/>
      <stop offset="1" stop-color="#65106b"/>
    </linearGradient>
  </defs>
  <g id="Group_1514" data-name="Group 1514" transform="translate(0.001)">
    <path id="Path_16085" data-name="Path 16085" d="M222.4,154.409a.534.534,0,0,0-.534.534v6.676a.534.534,0,0,0,.534.534h16.022a.534.534,0,0,0,.534-.534v-6.676a.534.534,0,1,0-1.068,0v6.142h-7.477v-6.943a.534.534,0,0,0-.534-.534H225.6a.534.534,0,0,0-.534.534v6.943h-2.141v-6.142a.534.534,0,0,0-.53-.534Zm3.738.267h3.2v2.67H228.8a.534.534,0,1,0,0,1.068h.534v2.67h-3.2Z" transform="translate(-209.696 -143.995)" fill="url(#linear-gradient)"/>
    <path id="Path_16086" data-name="Path 16086" d="M205.131,10.115a.534.534,0,0,0,.582-.113l8.7-8.7,8.7,8.7a.534.534,0,0,0,.912-.377V1.61a.534.534,0,0,0-.534-.534H218.15a.534.534,0,0,0,0,1.068h4.807V8.337L214.8.165a.553.553,0,0,0-.758,0L205.87,8.337V2.14h2.67a.534.534,0,0,0,.534-.534v-.53h1.068V1.61a.534.534,0,1,0,1.068,0V.542a.534.534,0,0,0-.534-.534h-2.141A.534.534,0,0,0,208,.542v.534h-2.67a.534.534,0,0,0-.534.534V9.621a.534.534,0,0,0,.334.494Z" transform="translate(-193.699 -0.008)" fill="url(#linear-gradient)"/>
    <path id="Path_16087" data-name="Path 16087" d="M379.206,158.949a.534.534,0,0,0,.534-.534v-4.273a.534.534,0,0,0-.534-.534H376a.534.534,0,0,0-.534.534v4.273a.534.534,0,0,0,.534.534Zm-2.67-4.273h2.141v3.2h-2.141Z" transform="translate(-353.683 -143.995)" fill="url(#linear-gradient)"/>
    <g id="Group_1516" data-name="Group 1516" transform="translate(0 16.015)">
      <path id="Path_16088" data-name="Path 16088" d="M18.835,444.624a.883.883,0,1,0-.883.883.883.883,0,0,0,.883-.883Z" transform="translate(-15.888 -431.957)" fill="url(#linear-gradient)"/>
      <path id="Path_16089" data-name="Path 16089" d="M130.366,342.451a2.349,2.349,0,0,0-3.182-.882l-6.782,3.3c-1.055.527-2.118.527-4.451.527a45.3,45.3,0,0,1-5.795-.581.589.589,0,0,0-.194,1.162,45.344,45.344,0,0,0,5.989.6c2.446,0,3.674,0,4.971-.649l6.812-3.318a1.179,1.179,0,0,1,1.162,2.051l-7.966,4.958c-.017.011-1.716,1.082-5.568,1.082-3.34,0-8.5-2.844-8.574-2.884a9.111,9.111,0,0,0-3.8-.651.59.59,0,0,0,0,1.179,8.361,8.361,0,0,1,3.25.516h0c.225.124,5.478,3.021,9.127,3.021,4.255,0,6.141-1.226,6.2-1.268l7.938-4.941a2.357,2.357,0,0,0,.863-3.219Z" transform="translate(-95.33 -336.559)" fill="url(#linear-gradient)"/>
      <path id="Path_16090" data-name="Path 16090" d="M102.989,308.385H107.7a7.285,7.285,0,0,1,2.887,1.65c1.292.97,2.514,1.885,3.594,1.885h3.54a2.049,2.049,0,0,1,1.352.417.589.589,0,0,0,.833-.833,3.129,3.129,0,0,0-2.184-.762h-3.536a7.285,7.285,0,0,1-2.887-1.65c-1.292-.97-2.514-1.885-3.594-1.885h-4.713a.589.589,0,1,0,0,1.179Z" transform="translate(-95.329 -304.85)" fill="url(#linear-gradient)"/>
      <path id="Path_16091" data-name="Path 16091" d="M4.124,273.074H.589a.589.589,0,1,0,0,1.179H4.124a.589.589,0,0,1,.589.589V287.8a.589.589,0,0,1-.589.589H.589a.59.59,0,0,0,0,1.179H4.124A1.77,1.77,0,0,0,5.892,287.8V274.842a1.77,1.77,0,0,0-1.768-1.768Z" transform="translate(0 -273.074)" fill="url(#linear-gradient)"/>
    </g>
  </g>
</svg>
