<?xml version="1.0" encoding="utf-8"?>
<!-- Generator: Adobe Illustrator 14.0.0, SVG Export Plug-In . SVG Version: 6.00 Build 43363)  -->
<!DOCTYPE svg PUBLIC "-//W3C//DTD SVG 1.1//EN" "http://www.w3.org/Graphics/SVG/1.1/DTD/svg11.dtd">
<svg version="1.1" id="Layer_1" xmlns="http://www.w3.org/2000/svg" xmlns:xlink="http://www.w3.org/1999/xlink" x="0px" y="0px"
	 width="200px" height="115px" viewBox="0 7.5 200 115" enable-background="new 0 7.5 200 115" xml:space="preserve">
<filter  y="16.233" x="0" width="196.363" height="118.911" filterUnits="userSpaceOnUse" id="Path_15599">
	<feOffset  input="SourceAlpha" dy="6"></feOffset>
	<feGaussianBlur  stdDeviation="4.5" result="blur"></feGaussianBlur>
	<feFlood  flood-opacity="0.161"></feFlood>
	<feComposite  operator="in" in2="blur"></feComposite>
	<feComposite  operator="over" in="SourceGraphic"></feComposite>
</filter>
<g id="side-crash" transform="translate(13.5 -56.154)">
	<g transform="matrix(1, 0, 0, 1, -13.5, 56.15)" filter="url(#Path_15599)">
		<path fill="#FFFFFF" d="M176.141,84.389l-1.006-4.656c-0.15-0.691-0.832-1.13-1.523-0.981l-0.807,0.174l-2.84-18.136
			c0-0.024-0.008-0.048-0.012-0.074c-0.6-2.763-3.324-4.519-6.086-3.922l0,0l-2.381,0.516l-9.412-26.374
			c-0.217-0.606-0.848-0.956-1.475-0.822l-45.383,9.823c-0.629,0.136-1.059,0.718-1.006,1.358l2.332,27.905l-2.379,0.515
			c-0.994,0.212-1.9,0.719-2.604,1.452c-0.186-2.683-2.414-4.764-5.102-4.767h-2.438l-3.622-27.768
			c-0.083-0.638-0.626-1.114-1.27-1.114H42.696c-0.643,0-1.187,0.477-1.27,1.114L37.805,66.4H35.37
			c-2.826,0.004-5.117,2.295-5.12,5.119c0,0.023,0,0.049,0,0.074l1.063,18.329h-0.823c-0.707,0-1.28,0.571-1.281,1.28v4.763
			c0,0.708,0.573,1.28,1.281,1.28l0,0h5.42v6.196c0.002,2.826,2.293,5.115,5.119,5.119h3.337c2.826-0.004,5.117-2.293,5.12-5.119
			v-6.196h32.859v6.196c0.002,2.826,2.293,5.115,5.119,5.119h3.338c2.826-0.004,5.117-2.293,5.119-5.119v-6.196h5.42
			c0.705,0,1.279-0.572,1.279-1.28l0,0v-4.763c0-0.709-0.574-1.281-1.279-1.281l0,0h-0.828l0.629-10.863l4.029,14.503l-0.807,0.175
			c-0.689,0.148-1.131,0.83-0.98,1.521c0,0.001,0,0.001,0,0.001l1.006,4.655c0.129,0.589,0.648,1.009,1.252,1.011
			c0.09,0,0.18-0.011,0.271-0.031l5.293-1.146l1.309,6.056c0.6,2.763,3.324,4.519,6.088,3.92l0,0l3.26-0.705
			c2.764-0.599,4.521-3.323,3.922-6.088l0,0l-1.311-6.054l32.115-6.949l1.311,6.053c0.6,2.764,3.324,4.521,6.088,3.922l0,0
			l3.262-0.705c2.762-0.602,4.516-3.325,3.92-6.088l-1.311-6.053l5.295-1.146c0.691-0.149,1.127-0.831,0.979-1.521c0,0,0,0,0-0.002
			L176.141,84.389z M45.531,43.312c0.083-0.637,0.626-1.115,1.27-1.114h38.226c0.643-0.001,1.186,0.477,1.27,1.114l3.011,23.086
			H42.519L45.531,43.312z M44.219,86.98c-3.337,0-6.043-2.705-6.043-6.044c0-3.338,2.706-6.044,6.043-6.044
			c3.338,0,6.044,2.706,6.044,6.044l0,0C50.26,84.273,47.556,86.976,44.219,86.98z M87.611,86.98c-3.338,0-6.044-2.705-6.044-6.044
			c0-3.338,2.707-6.044,6.044-6.044c3.338,0,6.044,2.706,6.044,6.044l0,0c-0.004,3.341-2.711,6.044-6.05,6.044H87.611z
			 M117.162,87.954c-3.264,0.707-6.48-1.365-7.188-4.629c-0.705-3.264,1.367-6.48,4.629-7.187c3.262-0.707,6.48,1.366,7.186,4.63
			l0,0C122.471,84.027,120.408,87.226,117.162,87.954z M111.148,68.2l-1.936-23.199c-0.055-0.641,0.377-1.222,1.006-1.357
			l37.361-8.085c0.629-0.136,1.26,0.215,1.475,0.822l7.826,21.927L111.148,68.2z M163.373,76.146
			c-0.865,1.351-2.234,2.299-3.803,2.635c-3.262,0.708-6.475-1.36-7.186-4.62c0-0.004,0-0.006,0-0.009
			c-0.705-3.263,1.365-6.479,4.627-7.187h0.002c3.26-0.709,6.475,1.36,7.184,4.62c0,0.003,0.002,0.007,0.002,0.009
			C164.543,73.16,164.244,74.799,163.373,76.146L163.373,76.146z"/>
	</g>
	<path id="Path_15600" fill="#FFFFFF" d="M91.852,161.523c-0.633-0.852-1.836-1.025-2.686-0.393c0,0.001-0.002,0.001-0.002,0.001
		l-15.499,11.563c-0.861,0.617-1.06,1.817-0.441,2.679c0.618,0.863,1.817,1.061,2.68,0.443c0.02-0.015,0.039-0.028,0.059-0.044
		l15.497-11.563c0.852-0.633,1.027-1.835,0.396-2.688H91.852L91.852,161.523z"/>
	<path id="Path_15601" fill="#FFFFFF" d="M96.631,165.283c-1.018-0.296-2.082,0.289-2.377,1.308l-2.215,7.626
		c-0.311,1.016,0.258,2.089,1.273,2.398c1.014,0.312,2.088-0.259,2.398-1.272c0.004-0.02,0.012-0.036,0.016-0.055l2.215-7.626
		c0.297-1.02-0.289-2.084-1.307-2.378C96.633,165.283,96.633,165.283,96.631,165.283z"/>
	<path id="Path_15602" fill="#FFFFFF" d="M85.229,101.491c0.504,0.934,1.669,1.283,2.603,0.78c0.936-0.503,1.285-1.668,0.783-2.604
		l-13.78-25.581c-0.503-0.935-1.669-1.285-2.603-0.782c-0.935,0.503-1.286,1.669-0.782,2.604L85.229,101.491z"/>
	<path id="Path_15603" fill="#FFFFFF" d="M56.961,84.501l13.775,6.149c0.983,0.4,2.104-0.071,2.504-1.053
		c0.383-0.938-0.029-2.012-0.941-2.453l-13.775-6.149c-0.954-0.463-2.103-0.063-2.565,0.891c-0.462,0.955-0.063,2.103,0.892,2.565
		C56.887,84.469,56.924,84.486,56.961,84.501z"/>
	<path id="Path_15604" fill="#FFFFFF" d="M87.461,86.707h0.086c1.061-0.045,1.881-0.942,1.836-2.001l0,0l-0.736-17.219
		c-0.025-1.061-0.902-1.9-1.963-1.877c-1.061,0.023-1.901,0.901-1.877,1.963c0.001,0.026,0.002,0.053,0.003,0.08l0.738,17.219
		C85.591,85.896,86.435,86.703,87.461,86.707z"/>
</g>
</svg>
