<svg xmlns="http://www.w3.org/2000/svg" xmlns:xlink="http://www.w3.org/1999/xlink" width="180.953" height="145.626" viewBox="0 0 180.953 145.626">
  <defs>
    <linearGradient id="linear-gradient" x1="0.937" y1="-0.111" x2="0" y2="1.234" gradientUnits="objectBoundingBox">
      <stop offset="0" stop-color="#fff"/>
      <stop offset="0.502" stop-color="#98dbf9"/>
      <stop offset="1" stop-color="#fff"/>
    </linearGradient>
  </defs>
  <path id="motorcycle" d="M179.744,152.329a29.813,29.813,0,0,0-16.6-15.932,38.418,38.418,0,0,0-20.241-2.2L140.15,128.3v-8.23a13.491,13.491,0,0,0,4.659.832h9.369a6.019,6.019,0,0,0,6.015-6.011V99.783a6.02,6.02,0,0,0-6.015-6.011h-9.369a13.5,13.5,0,0,0-4.659.832V85.448a8.289,8.289,0,0,0-.972-4,8.441,8.441,0,0,0-5.818-4.73l-4.075-9.278a5.783,5.783,0,0,0,2.259-4.58V58.3c0-2.859-2.143-5.173-5.325-5.756L112.854,50.06h-.007a4.961,4.961,0,0,0-4.124,1.127,6.1,6.1,0,0,0-2.162,4.64v7.032a5.809,5.809,0,0,0,5.8,5.8h11.621l3.441,7.835-13.484-.046H113.9a7.5,7.5,0,0,0-7.842,7.329,7.746,7.746,0,0,0,7.629,8.08l10.7.626v8.582a25.675,25.675,0,0,0-8.08-3.624c-13.164-3.605-31.613-1.086-38.513,8.078H56.908a2.671,2.671,0,1,0,0,5.342h19.62v13.888H11.984c-3.546,0-5.663-1.728-5.663-4.622V108.941a3.968,3.968,0,0,1,1.005-3,5.1,5.1,0,0,1,3.754-1.005c.057,0,.117.006.172,0l4.8-.02c1.031,0,1.953.837,3.371,2.193,1.669,1.6,3.746,3.583,6.878,3.742.045,0,.091,0,.136,0H45.271a2.671,2.671,0,1,0,0-5.342H26.515c-1.048-.08-1.99-.913-3.4-2.265-1.7-1.63-3.826-3.659-7.062-3.674l-4.739.02a10.175,10.175,0,0,0-7.647,2.453,9.065,9.065,0,0,0-2.686,6.888v11.185c0,5.866,4.526,9.963,11.005,9.963H29.906l-.761,3.6c-12.157.214-25.295,6.1-28.417,17.657-1.162,4.315-.938,7.386.685,9.39A5.38,5.38,0,0,0,3.266,162.2a27.944,27.944,0,0,0,54.678,11.546l12.08-.012a2.671,2.671,0,0,0,0-5.342h0l-30.938.032a10.584,10.584,0,0,0,.7-2.276l.75-3.288H86.006c4.1,0,6.062-.974,8.384-4.167l14.739-20.223c.014-.019.029-.038.042-.058l6.067-8.324h8.635L97.983,163.924q-.048.063-.093.128c-2.931,4.341-5.854,4.341-6.954,4.341H80.513a2.671,2.671,0,1,0,0,5.342H90.936c4.53,0,8.343-2.229,11.335-6.626l24.15-31.559,2.024,4.216a26.214,26.214,0,0,0-10.058,12.714c-1.447,4-1.407,7.128.118,9.3a6.016,6.016,0,0,0,2.73,2.121,27.947,27.947,0,1,0,55.39.126,6.176,6.176,0,0,0,3.239-2.453c2.116-3.222.619-7.542-.121-9.246ZM140.15,100.572a8.179,8.179,0,0,1,4.659-1.458h9.369a.68.68,0,0,1,.673.669V114.89a.68.68,0,0,1-.673.669h-9.369a8.18,8.18,0,0,1-4.659-1.459ZM126.2,62.858a.472.472,0,0,1-.472.459H112.366a.467.467,0,0,1-.462-.459V55.826a.839.839,0,0,1,.18-.475L125.249,57.8c.537.1.953.351.953.5ZM6.528,157.47c-.043,0-.087,0-.13,0a1.572,1.572,0,0,1-.829-.092c-.156-.154-.556-1.393.318-4.64C7.934,145.164,17.164,139.6,28.01,139.07l-3.887,18.4H6.528ZM29.6,173.59c.237.042.477.074.719.1a2.672,2.672,0,0,0,.681.091h0l7.571-.008a9.984,9.984,0,0,1-17.9-6.084,9.877,9.877,0,0,1,1.281-4.872H23l-.04.187c-.007.033-.013.065-.019.1-1.022,5.926,2.579,9.764,6.665,10.492Zm15.138.172,7.7-.008A22.6,22.6,0,0,1,8.6,162.812H16.13a15.331,15.331,0,0,0,28.611,10.95ZM40.6,138.53l-4.8,21.039c0,.015-.007.03-.011.046l-1.231,5.4c-.008.036-.016.073-.023.11-.551,3-2.775,3.424-4,3.207-.7-.125-2.926-.8-2.346-4.28l.7-3.3c.009-.04.018-.081.026-.122l6.449-30.536h7.158l-1.9,8.316c-.011.041-.021.082-.029.124Zm12.88,18.94H41.762l3.3-14.5a21.262,21.262,0,0,1,8.866,10.1l.017.039a16.724,16.724,0,0,1,1.156,4.375ZM46.3,137.554,48,130.09H73.086L57.028,147.431A27,27,0,0,0,46.3,137.554Zm13.172,15.1L80.366,130.09H108.63l-3.038,4.168H89.321a2.671,2.671,0,1,0,0,5.342H101.7l-6.87,9.425a10.441,10.441,0,0,0-17.9,6.615,10.521,10.521,0,0,0,.056,1.881H60.449a18.208,18.208,0,0,0-.975-4.867Zm26.534,4.867H82.394a5.151,5.151,0,0,1-.137-1.546,5.118,5.118,0,0,1,5.106-4.778,4.91,4.91,0,0,1,4.218,2.285l-1.509,2.07C88.8,157.3,88.494,157.52,86.007,157.52Zm38.378-32.772H81.871V108.971c5.109-7.34,21.669-9.489,33.023-6.379,2.854.782,9.492,3.1,9.492,7.744v14.412ZM127.212,87.3,114,86.524a2.47,2.47,0,0,1-2.6-2.579c.021-.649.305-2.155,2.505-2.155h.021l17.59.06a3.1,3.1,0,0,1,2.825,1.858,2.663,2.663,0,0,0,.124.248,3,3,0,0,1,.346,1.493v43.445a2.668,2.668,0,0,0,.252,1.132l3.826,8.178q.05.121.11.236l12.28,26.245c.708,1.512.446,2.535-.8,3.126-.867.411-2.387.523-2.9-.54l-17.851-37.18V89.963a2.672,2.672,0,0,0-2.515-2.667Zm29.614,77.21h1.563a9.99,9.99,0,1,1-18.93,0h.866l2.438,5.077a6.844,6.844,0,0,0,6.385,3.865,8.5,8.5,0,0,0,3.618-.812A7.164,7.164,0,0,0,156.827,164.507Zm-33.946-5.793c-.261-.372-.442-1.72.532-4.414a20.762,20.762,0,0,1,7.382-9.644l6.967,14.51H124.676a2.5,2.5,0,0,1-1.8-.452Zm26.046,31.549a22.6,22.6,0,0,1-22.381-25.755h7.385a15.326,15.326,0,1,0,29.985,0h7.379a22.517,22.517,0,0,1-22.369,25.755ZM175.4,158.645c-.213.326-.917.52-1.883.52H154.592l-9.313-19.9c11.131-1.218,24.21,2.826,29.564,15.193.856,1.97.926,3.629.557,4.191Z" transform="translate(0.002 -49.977)" opacity="0.25" fill="url(#linear-gradient)"/>
</svg>
