<?xml version="1.0" encoding="utf-8"?>
<!-- Generator: Adobe Illustrator 16.0.0, SVG Export Plug-In . SVG Version: 6.00 Build 0)  -->
<!DOCTYPE svg PUBLIC "-//W3C//DTD SVG 1.1//EN" "http://www.w3.org/Graphics/SVG/1.1/DTD/svg11.dtd">
<svg version="1.1" id="Layer_1" xmlns="http://www.w3.org/2000/svg" xmlns:xlink="http://www.w3.org/1999/xlink" x="0px" y="0px"
	 width="59.986px" height="44.083px" viewBox="0 0 59.986 44.083" enable-background="new 0 0 59.986 44.083" xml:space="preserve">
<g id="Group_2276" transform="translate(5762 -4519)">
	<g id="networking" transform="translate(-5762 4519)">
		<g id="Group_1358">
			
				<linearGradient id="Path_16093_1_" gradientUnits="userSpaceOnUse" x1="-259.9717" y1="391.0806" x2="-259.9717" y2="390.0806" gradientTransform="matrix(17.766 0 0 -14.508 4669.7529 5697.5737)">
				<stop  offset="0" style="stop-color:#00A9E0"/>
				<stop  offset="1" style="stop-color:#801C7D"/>
			</linearGradient>
			<path id="Path_16093" fill="url(#Path_16093_1_)" d="M52.872,23.79h-5.014c-2.103-0.002-4.099,0.928-5.449,2.541
				c-0.304,0.379-0.241,0.932,0.139,1.234c0.366,0.293,0.896,0.246,1.207-0.105c1.016-1.213,2.518-1.914,4.1-1.914h0.601
				l-1.347,5.686c-0.068,0.289,0.014,0.592,0.219,0.809l2.399,2.525c0.335,0.354,0.891,0.367,1.243,0.031
				c0.011-0.01,0.021-0.02,0.031-0.031L53.4,32.04c0.205-0.217,0.287-0.52,0.219-0.809l-1.347-5.686h0.601
				c2.957,0.004,5.354,2.4,5.356,5.357v5.637H45.754c-0.485,0.018-0.865,0.424-0.849,0.908c0.016,0.463,0.387,0.834,0.849,0.85
				H58.62c0.752-0.002,1.361-0.613,1.362-1.365v-6.029C59.979,26.977,56.798,23.795,52.872,23.79L52.872,23.79z M51.802,31.174
				l-1.438,1.512l-1.437-1.512l1.332-5.627h0.209L51.802,31.174z"/>
			
				<linearGradient id="Path_16094_1_" gradientUnits="userSpaceOnUse" x1="-256.4287" y1="396.4419" x2="-256.4287" y2="395.4419" gradientTransform="matrix(14.378 0 0 -18.028 3737.3118 7151.4824)">
				<stop  offset="0" style="stop-color:#00A9E0"/>
				<stop  offset="1" style="stop-color:#801C7D"/>
			</linearGradient>
			<path id="Path_16094" fill="url(#Path_16094_1_)" d="M50.366,22.458c3.968-0.005,7.184-3.221,7.189-7.189V11.16
				c0.002-3.715-3.007-6.728-6.722-6.73c-0.003,0-0.005,0-0.007,0h-0.921c-3.714-0.002-6.727,3.008-6.729,6.723
				c0,0.002,0,0.005,0,0.007v4.108C43.184,19.236,46.397,22.452,50.366,22.458L50.366,22.458z M49.905,6.189h0.922
				c2.744,0.003,4.969,2.228,4.972,4.972v0.211c-0.94-0.274-1.732-0.912-2.2-1.773c-0.15-0.461-0.646-0.714-1.108-0.563
				c-0.182,0.059-0.339,0.176-0.448,0.333c-0.971,1.4-4.531,2.631-7.112,2.211v-0.418C44.932,8.416,47.158,6.189,49.905,6.189
				L49.905,6.189z M44.934,13.349c2.718,0.266,5.439-0.46,7.664-2.044c0.883,0.91,1.984,1.578,3.2,1.939v2.025
				c-0.041,3-2.507,5.399-5.507,5.358c-2.942-0.04-5.318-2.416-5.358-5.358L44.934,13.349L44.934,13.349z"/>
			
				<linearGradient id="Path_16095_1_" gradientUnits="userSpaceOnUse" x1="-259.9888" y1="391.0796" x2="-259.9888" y2="390.0796" gradientTransform="matrix(17.7862 0 0 -14.508 4633.1196 5697.5571)">
				<stop  offset="0" style="stop-color:#00A9E0"/>
				<stop  offset="1" style="stop-color:#801C7D"/>
			</linearGradient>
			<path id="Path_16095" fill="url(#Path_16095_1_)" d="M17.472,27.575c0.372-0.313,0.421-0.867,0.109-1.238
				c-1.351-1.615-3.349-2.549-5.454-2.547H7.113C3.187,23.793,0.004,26.977,0,30.903v6.029c0.001,0.754,0.611,1.365,1.365,1.365
				H14.23c0.485-0.016,0.865-0.422,0.849-0.908c-0.016-0.461-0.387-0.832-0.849-0.848H1.757v-5.639
				c0.003-2.957,2.399-5.354,5.356-5.355h0.601l-1.346,5.684c-0.069,0.289,0.013,0.594,0.218,0.809l2.399,2.527
				c0.335,0.352,0.892,0.365,1.243,0.031c0.011-0.01,0.021-0.021,0.031-0.031l2.4-2.527c0.204-0.215,0.286-0.52,0.218-0.809
				l-1.346-5.684h0.6c1.586-0.002,3.09,0.701,4.106,1.918C16.55,27.833,17.101,27.881,17.472,27.575z M11.057,31.174L9.62,32.686
				l-1.437-1.512l1.332-5.627h0.209L11.057,31.174z"/>
			
				<linearGradient id="Path_16096_1_" gradientUnits="userSpaceOnUse" x1="-259.0356" y1="398.0015" x2="-259.0356" y2="397.0015" gradientTransform="matrix(16.7245 0 0 -19.3968 4343.041 7723.103)">
				<stop  offset="0" style="stop-color:#00A9E0"/>
				<stop  offset="1" style="stop-color:#801C7D"/>
			</linearGradient>
			<path id="Path_16096" fill="url(#Path_16096_1_)" d="M2.431,15.268c-0.047,3.971,3.134,7.228,7.104,7.273
				c3.971,0.047,7.228-3.133,7.274-7.104c0.001-0.057,0.001-0.113,0-0.169V11.16c0-0.113,0-0.228-0.01-0.342
				c1.483-1.126,2.354-2.882,2.354-4.745V4.025c0-0.485-0.394-0.879-0.879-0.879H8.39c-0.396,0-0.789,0.04-1.177,0.117
				C6.734,3.344,6.412,3.797,6.492,4.276c0.081,0.479,0.535,0.801,1.014,0.72C7.523,4.994,7.541,4.99,7.558,4.986
				C7.832,4.931,8.11,4.904,8.39,4.904h9.009v1.169c-0.002,2.323-1.886,4.206-4.209,4.209h-9V9.105
				C4.19,8.127,4.531,7.181,5.153,6.427c0.298-0.383,0.228-0.936-0.156-1.233C4.631,4.91,4.107,4.959,3.801,5.306
				c-0.884,1.069-1.367,2.413-1.368,3.8v2.063L2.431,15.268z M15.053,11.74v3.528c0,3-2.432,5.432-5.432,5.432
				s-5.433-2.432-5.433-5.432l0,0v-3.229h9C13.822,12.04,14.451,11.938,15.053,11.74z"/>
			
				<linearGradient id="Path_16097_1_" gradientUnits="userSpaceOnUse" x1="-264.8276" y1="398.23" x2="-264.8276" y2="397.23" gradientTransform="matrix(26.241 0 0 -19.615 6979.3384 7835.7397)">
				<stop  offset="0" style="stop-color:#00A9E0"/>
				<stop  offset="1" style="stop-color:#801C7D"/>
			</linearGradient>
			<path id="Path_16097" fill="url(#Path_16097_1_)" d="M37.582,25.372l-0.041-0.023c-0.101-0.043-0.19-0.086-0.286-0.125
				l-0.034-0.014c-0.574-0.242-1.171-0.428-1.781-0.553l0,0c-0.155-0.031-0.313-0.061-0.471-0.084l0,0
				c-0.157-0.023-0.315-0.045-0.474-0.061h-0.011c-0.158-0.016-0.317-0.027-0.478-0.035h-0.009
				c-0.162-0.008-0.324-0.012-0.487-0.012h-7.023c-0.162,0-0.324,0-0.485,0.012h-0.011c-0.16,0.008-0.319,0.02-0.479,0.037h-0.01
				c-0.159,0.016-0.317,0.035-0.476,0.061l0,0c-0.774,0.119-1.53,0.332-2.253,0.637l-0.033,0.014
				c-0.101,0.041-0.191,0.082-0.286,0.127l-0.041,0.021c-3.375,1.584-5.532,4.973-5.537,8.699v7.957
				c0.002,1.131,0.918,2.049,2.05,2.051h22.141c1.132-0.002,2.049-0.92,2.051-2.051v-7.955
				C43.113,30.346,40.957,26.956,37.582,25.372z M32.832,32.239l-0.581-3.193c1.019-0.617,1.737-1.627,1.982-2.793h0.026
				l0.079,0.008c0.252,0.027,0.5,0.066,0.745,0.115h0.006c0.117,0.023,0.233,0.051,0.349,0.082l0.06,0.014
				c0.101,0.027,0.201,0.057,0.3,0.086l0.058,0.02l0.063,0.02L32.832,32.239z M24.063,26.6l0.063-0.02l0.06-0.02
				c0.1-0.029,0.199-0.059,0.3-0.084l0.061-0.016c0.114-0.029,0.23-0.057,0.347-0.08h0.004c0.244-0.051,0.492-0.09,0.745-0.115
				l0.079-0.008h0.026c0.246,1.164,0.964,2.176,1.982,2.791l-0.581,3.195L24.063,26.6z M30.403,28.713l1.088,5.973l-1.5,2.736
				l-1.5-2.736l1.087-5.973c0.074-0.412-0.151-0.82-0.54-0.975c-0.688-0.271-1.227-0.824-1.478-1.52h4.857
				c-0.251,0.695-0.789,1.248-1.478,1.52C30.553,27.895,30.328,28.301,30.403,28.713z M41.36,42.032
				c0,0.162-0.131,0.293-0.293,0.293h-22.15c-0.162,0-0.293-0.131-0.293-0.293v-7.955c0.001-2.768,1.458-5.33,3.835-6.746
				l6.763,12.344c0.233,0.426,0.769,0.58,1.193,0.348c0.146-0.082,0.268-0.201,0.348-0.348l6.762-12.344
				c2.377,1.416,3.834,3.979,3.835,6.746L41.36,42.032z"/>
			
				<linearGradient id="Path_16098_1_" gradientUnits="userSpaceOnUse" x1="-260.2974" y1="401.0728" x2="-260.2974" y2="400.0728" gradientTransform="matrix(18.159 0 0 -22.806 4756.7354 9146.8418)">
				<stop  offset="0" style="stop-color:#00A9E0"/>
				<stop  offset="1" style="stop-color:#801C7D"/>
			</linearGradient>
			<path id="Path_16098" fill="url(#Path_16098_1_)" d="M29.967,22.805c2.123,0,4.179-0.742,5.812-2.099
				c0.365-0.32,0.402-0.875,0.082-1.24c-0.308-0.352-0.838-0.401-1.206-0.111c-3.111,2.587-7.73,2.162-10.317-0.95
				c-1.093-1.314-1.691-2.969-1.693-4.678v-3.39c1.171,0.96,2.52,1.679,3.969,2.114c0.471,0.121,0.95-0.162,1.071-0.632
				c0.053-0.205,0.03-0.423-0.064-0.612c-0.373-0.73-0.637-1.511-0.782-2.317c1.181,0.811,2.423,1.527,3.716,2.144
				c2.169,1.061,4.426,1.931,6.745,2.6v0.083c0.003,1.066-0.229,2.119-0.679,3.085c-0.212,0.438-0.028,0.963,0.409,1.174
				c0.437,0.211,0.962,0.028,1.174-0.409c0.004-0.008,0.007-0.016,0.011-0.023c0.559-1.198,0.846-2.504,0.843-3.826V8.44
				c-0.005-4.659-3.78-8.435-8.439-8.44h-1.289c-0.144,0-0.286,0.004-0.429,0.011L28.81,0.017c-0.113,0.007-0.226,0.015-0.338,0.026
				l-0.063,0.008c-0.121,0.013-0.242,0.028-0.362,0.046h-0.021c-3.179,0.498-5.799,2.758-6.758,5.83L21.26,5.953
				c-0.036,0.117-0.07,0.235-0.1,0.353c-0.018,0.065-0.031,0.131-0.048,0.2c-0.016,0.069-0.03,0.126-0.044,0.189
				c-0.021,0.1-0.039,0.2-0.057,0.3c-0.005,0.03-0.011,0.059-0.016,0.089c-0.02,0.12-0.036,0.242-0.051,0.364v0.038
				c-0.015,0.129-0.025,0.259-0.033,0.389v0.021c-0.009,0.129-0.014,0.26-0.016,0.39v0.021l0,0v5.42
				C20.908,18.733,24.961,22.79,29.967,22.805z M30.61,1.757c3.688,0.004,6.678,2.994,6.683,6.682v3.372
				c-4.226-1.252-9.474-3.875-10.579-5.363c-0.29-0.39-0.841-0.471-1.23-0.181c-0.165,0.123-0.281,0.3-0.33,0.5
				c-0.226,1.069-0.184,2.178,0.122,3.227c-0.961-0.543-1.843-1.216-2.62-2c0.223-3.133,2.584-5.694,5.688-6.168h0.017
				C28.459,1.813,28.56,1.8,28.661,1.79l0.114-0.009c0.069-0.006,0.14-0.012,0.209-0.015c0.11,0,0.222-0.008,0.333-0.008
				L30.61,1.757z"/>
		</g>
	</g>
</g>
</svg>
