<?xml version="1.0" encoding="utf-8"?>
<!-- Generator: Adobe Illustrator 16.0.0, SVG Export Plug-In . SVG Version: 6.00 Build 0)  -->
<!DOCTYPE svg PUBLIC "-//W3C//DTD SVG 1.1//EN" "http://www.w3.org/Graphics/SVG/1.1/DTD/svg11.dtd">
<svg version="1.1" id="Layer_1" xmlns="http://www.w3.org/2000/svg" xmlns:xlink="http://www.w3.org/1999/xlink" x="0px" y="0px"
	 width="49.008px" height="45.354px" viewBox="0 0 49.008 45.354" enable-background="new 0 0 49.008 45.354" xml:space="preserve">
<g id="newspaper" transform="translate(0 -19.093)">
	
		<linearGradient id="Path_16116_1_" gradientUnits="userSpaceOnUse" x1="-274.9336" y1="429.5" x2="-274.9336" y2="428.5" gradientTransform="matrix(49.007 0 0 -45.356 13498.1689 19499.4766)">
		<stop  offset="0" style="stop-color:#00A9E0"/>
		<stop  offset="1" style="stop-color:#801C7D"/>
	</linearGradient>
	<path id="Path_16116" fill="url(#Path_16116_1_)" d="M46.535,19.093H10.678c-1.368-0.001-2.477,1.106-2.478,2.474l0,0v3.755H2.474
		C1.106,25.322-0.001,26.432,0,27.8l0,0v31.83c0.003,2.646,2.138,4.797,4.785,4.818h25.43c0.396,0,0.719-0.321,0.719-0.718
		s-0.322-0.718-0.719-0.718l0,0H8.249c0.893-0.901,1.393-2.119,1.391-3.388V42.838c0-0.396-0.322-0.718-0.718-0.718
		s-0.718,0.321-0.718,0.718v16.787c-0.002,1.86-1.505,3.371-3.366,3.384H4.82c-1.868-0.003-3.381-1.516-3.384-3.383V27.8
		c0-0.573,0.465-1.038,1.038-1.038H8.2v13.399c0,0.396,0.322,0.719,0.718,0.718c0.396,0,0.717-0.321,0.718-0.718V21.566
		c0-0.573,0.465-1.037,1.038-1.038h35.861c0.572,0.001,1.037,0.465,1.037,1.038v38.059c-0.002,1.867-1.516,3.381-3.385,3.384H32.9
		c-0.396,0-0.719,0.321-0.719,0.718s0.322,0.718,0.719,0.718h11.287c2.66-0.003,4.816-2.159,4.82-4.819V21.566
		C49.006,20.201,47.9,19.094,46.535,19.093z"/>
	
		<linearGradient id="Path_16117_1_" gradientUnits="userSpaceOnUse" x1="-259.917" y1="408.2392" x2="-259.917" y2="407.2392" gradientTransform="matrix(13.246 0 0 -13.246 3463.5056 5442.0225)">
		<stop  offset="0" style="stop-color:#00A9E0"/>
		<stop  offset="1" style="stop-color:#801C7D"/>
	</linearGradient>
	<path id="Path_16117" fill="url(#Path_16117_1_)" d="M15.729,47.737h9.847c0.938,0,1.699-0.761,1.699-1.7v-9.842
		c0-0.938-0.762-1.7-1.699-1.7h-9.847c-0.939,0-1.7,0.762-1.7,1.7v9.847c0,0.938,0.761,1.699,1.7,1.699V47.737z M15.466,36.195
		c0-0.146,0.118-0.263,0.263-0.263l0,0h9.847c0.145,0,0.262,0.117,0.262,0.263l0,0v9.847c0,0.145-0.117,0.263-0.262,0.263l0,0
		h-9.847c-0.146,0-0.263-0.118-0.263-0.263l0,0V36.195z"/>
	
		<linearGradient id="Path_16118_1_" gradientUnits="userSpaceOnUse" x1="-262.0273" y1="161.2636" x2="-262.0273" y2="160.2627" gradientTransform="matrix(14.76 0 0 -1.436 3904.0708 266.0683)">
		<stop  offset="0" style="stop-color:#00A9E0"/>
		<stop  offset="1" style="stop-color:#801C7D"/>
	</linearGradient>
	<path id="Path_16118" fill="url(#Path_16118_1_)" d="M29.883,35.931h13.324c0.396,0,0.717-0.321,0.717-0.718
		s-0.32-0.719-0.717-0.719H29.883c-0.396,0-0.719,0.322-0.719,0.719S29.486,35.931,29.883,35.931L29.883,35.931z"/>
	
		<linearGradient id="Path_16119_1_" gradientUnits="userSpaceOnUse" x1="-262.0273" y1="161.2627" x2="-262.0273" y2="160.2627" gradientTransform="matrix(14.76 0 0 -1.436 3904.0708 271.9706)">
		<stop  offset="0" style="stop-color:#00A9E0"/>
		<stop  offset="1" style="stop-color:#801C7D"/>
	</linearGradient>
	<path id="Path_16119" fill="url(#Path_16119_1_)" d="M29.883,41.834h13.324c0.396,0,0.717-0.322,0.717-0.719
		s-0.32-0.718-0.717-0.718H29.883c-0.396,0-0.719,0.321-0.719,0.718S29.486,41.834,29.883,41.834L29.883,41.834z"/>
	
		<linearGradient id="Path_16120_1_" gradientUnits="userSpaceOnUse" x1="-262.0273" y1="161.2627" x2="-262.0273" y2="160.2627" gradientTransform="matrix(14.76 0 0 -1.436 3904.0708 277.8749)">
		<stop  offset="0" style="stop-color:#00A9E0"/>
		<stop  offset="1" style="stop-color:#801C7D"/>
	</linearGradient>
	<path id="Path_16120" fill="url(#Path_16120_1_)" d="M29.883,47.737h13.324c0.396,0,0.717-0.321,0.717-0.718
		s-0.32-0.718-0.717-0.718H29.883c-0.396,0-0.719,0.321-0.719,0.718S29.486,47.737,29.883,47.737L29.883,47.737z"/>
	
		<linearGradient id="Path_16121_1_" gradientUnits="userSpaceOnUse" x1="-271.3779" y1="161.2627" x2="-271.3779" y2="160.2627" gradientTransform="matrix(29.894 0 0 -1.436 8141.5371 283.7792)">
		<stop  offset="0" style="stop-color:#00A9E0"/>
		<stop  offset="1" style="stop-color:#801C7D"/>
	</linearGradient>
	<path id="Path_16121" fill="url(#Path_16121_1_)" d="M14.748,53.642h28.459c0.396,0,0.717-0.321,0.717-0.718
		s-0.32-0.718-0.717-0.718H14.748c-0.396,0-0.718,0.321-0.718,0.718S14.352,53.642,14.748,53.642z"/>
	
		<linearGradient id="Path_16122_1_" gradientUnits="userSpaceOnUse" x1="-271.3779" y1="161.2627" x2="-271.3779" y2="160.2627" gradientTransform="matrix(29.894 0 0 -1.436 8141.5371 289.6816)">
		<stop  offset="0" style="stop-color:#00A9E0"/>
		<stop  offset="1" style="stop-color:#801C7D"/>
	</linearGradient>
	<path id="Path_16122" fill="url(#Path_16122_1_)" d="M14.748,59.545h28.459c0.396,0,0.717-0.322,0.717-0.719
		s-0.32-0.718-0.717-0.718H14.748c-0.396,0-0.718,0.321-0.718,0.718S14.352,59.545,14.748,59.545z"/>
	<g id="Group_1360" transform="translate(14.048 22.698)">
		
			<linearGradient id="Path_16123_1_" gradientUnits="userSpaceOnUse" x1="-246.4591" y1="369.0588" x2="-246.4591" y2="368.0588" gradientTransform="matrix(5.6691 0 0 -8.5522 1400.0447 3156.3015)">
			<stop  offset="0" style="stop-color:#00A9E0"/>
			<stop  offset="1" style="stop-color:#801C7D"/>
		</linearGradient>
		<path id="Path_16123" fill="url(#Path_16123_1_)" d="M0,8.123V0.537c-0.002-0.152,0.084-0.292,0.222-0.356
			C0.388,0.095,0.573,0.052,0.76,0.058c0.225-0.015,0.448,0.038,0.643,0.151C1.612,0.39,1.78,0.613,1.894,0.864l2.256,4.36v-4.7
			C4.146,0.373,4.234,0.236,4.372,0.173c0.342-0.154,0.733-0.154,1.075,0c0.138,0.063,0.225,0.2,0.222,0.352v7.6
			c-0.001,0.151-0.09,0.288-0.228,0.352C5.278,8.565,5.095,8.609,4.909,8.605C4.547,8.633,4.203,8.446,4.032,8.125L1.519,3.426
			v4.699c-0.001,0.151-0.09,0.288-0.228,0.352c-0.335,0.171-0.733,0.171-1.069,0C0.086,8.411,0,8.274,0,8.123z"/>
		
			<linearGradient id="Path_16124_1_" gradientUnits="userSpaceOnUse" x1="-243.1818" y1="369.0285" x2="-243.1818" y2="368.0285" gradientTransform="matrix(5.3074 0 0 -8.5464 1300.3831 3153.9319)">
			<stop  offset="0" style="stop-color:#00A9E0"/>
			<stop  offset="1" style="stop-color:#801C7D"/>
		</linearGradient>
		<path id="Path_16124" fill="url(#Path_16124_1_)" d="M7.071,8.123V0.537c-0.002-0.145,0.075-0.278,0.2-0.351
			c0.14-0.088,0.302-0.133,0.467-0.129h4.161c0.146-0.005,0.283,0.072,0.355,0.199c0.084,0.138,0.127,0.296,0.123,0.456
			c0.006,0.169-0.039,0.336-0.129,0.479c-0.072,0.125-0.207,0.201-0.352,0.2H8.59v2.338h1.777c0.14-0.004,0.272,0.064,0.351,0.181
			c0.088,0.125,0.133,0.274,0.129,0.427c0.001,0.144-0.041,0.283-0.123,0.4c-0.078,0.12-0.214,0.188-0.356,0.181H8.59v2.35h3.307
			c0.145-0.002,0.279,0.074,0.352,0.2c0.09,0.144,0.135,0.31,0.129,0.479c0.004,0.16-0.039,0.318-0.123,0.456
			c-0.072,0.128-0.209,0.205-0.355,0.2H7.738C7.573,8.608,7.41,8.563,7.271,8.475C7.146,8.403,7.069,8.268,7.071,8.123z"/>
		
			<linearGradient id="Path_16125_1_" gradientUnits="userSpaceOnUse" x1="-267.5788" y1="369.3996" x2="-267.5788" y2="368.3996" gradientTransform="matrix(10.109 0 0 -8.6153 2723.1553 3182.5371)">
			<stop  offset="0" style="stop-color:#00A9E0"/>
			<stop  offset="1" style="stop-color:#801C7D"/>
		</linearGradient>
		<path id="Path_16125" fill="url(#Path_16125_1_)" d="M13.138,0.666c0.018-0.189,0.141-0.354,0.316-0.427
			c0.199-0.117,0.424-0.18,0.656-0.181c0.279,0,0.447,0.1,0.5,0.3l1.848,6.336l0.992-4.068c0.07-0.28,0.32-0.421,0.748-0.421
			c0.43,0,0.674,0.141,0.736,0.421l0.994,4.068l1.848-6.335c0.055-0.2,0.221-0.3,0.5-0.3c0.23,0.001,0.457,0.063,0.654,0.181
			c0.178,0.072,0.299,0.237,0.316,0.427c0,0.048-0.008,0.095-0.023,0.141l-2.313,7.352c-0.117,0.344-0.449,0.515-0.994,0.514
			c-0.217,0.004-0.434-0.042-0.631-0.134c-0.166-0.065-0.293-0.207-0.338-0.38L18.2,5.003l-0.762,3.156
			c-0.047,0.173-0.172,0.313-0.338,0.38c-0.197,0.092-0.414,0.138-0.631,0.134c-0.223,0.005-0.441-0.041-0.643-0.134
			c-0.168-0.067-0.297-0.207-0.352-0.38l-2.314-7.352C13.145,0.762,13.138,0.714,13.138,0.666L13.138,0.666z"/>
		
			<linearGradient id="Path_16126_1_" gradientUnits="userSpaceOnUse" x1="-244.9518" y1="369.9153" x2="-244.9518" y2="368.9153" gradientTransform="matrix(5.4968 0 0 -8.7126 1372.8427 3222.918)">
			<stop  offset="0" style="stop-color:#00A9E0"/>
			<stop  offset="1" style="stop-color:#801C7D"/>
		</linearGradient>
		<path id="Path_16126" fill="url(#Path_16126_1_)" d="M23.634,7.259c0.006-0.199,0.076-0.39,0.201-0.545
			c0.1-0.161,0.271-0.265,0.461-0.274c0.129,0.011,0.248,0.062,0.346,0.146c0.131,0.1,0.256,0.207,0.373,0.322
			c0.152,0.138,0.33,0.247,0.521,0.322c0.236,0.1,0.49,0.149,0.748,0.146c0.33,0.013,0.656-0.077,0.934-0.257
			c0.25-0.17,0.391-0.459,0.375-0.76c0.004-0.225-0.066-0.444-0.201-0.625c-0.143-0.189-0.326-0.345-0.537-0.456
			c-0.223-0.121-0.467-0.237-0.73-0.351c-0.266-0.114-0.533-0.24-0.801-0.381c-0.26-0.134-0.506-0.292-0.736-0.473
			c-0.232-0.188-0.416-0.428-0.537-0.7c-0.289-0.677-0.271-1.445,0.047-2.108c0.152-0.305,0.385-0.563,0.672-0.747
			c0.277-0.177,0.582-0.31,0.9-0.393C26.001,0.041,26.343-0.001,26.684,0c0.215,0.001,0.43,0.016,0.645,0.042
			c0.242,0.031,0.482,0.077,0.719,0.139c0.227,0.051,0.439,0.153,0.619,0.3c0.15,0.114,0.238,0.292,0.24,0.479
			c-0.006,0.191-0.063,0.377-0.164,0.538c-0.084,0.169-0.256,0.276-0.443,0.278c-0.201-0.047-0.395-0.122-0.574-0.222
			c-0.324-0.151-0.68-0.228-1.039-0.223c-0.342-0.02-0.682,0.063-0.977,0.24c-0.223,0.145-0.352,0.395-0.344,0.66
			c0,0.229,0.104,0.444,0.279,0.59c0.207,0.179,0.443,0.317,0.701,0.409c0.275,0.105,0.576,0.238,0.9,0.399
			c0.311,0.153,0.611,0.327,0.898,0.521c0.299,0.208,0.539,0.487,0.701,0.812c0.193,0.386,0.291,0.813,0.281,1.245
			c0.039,0.701-0.242,1.383-0.766,1.851c-0.572,0.455-1.289,0.687-2.018,0.65c-0.668,0.02-1.328-0.14-1.916-0.461
			C23.899,7.947,23.634,7.617,23.634,7.259z"/>
	</g>
</g>
</svg>
