<svg xmlns="http://www.w3.org/2000/svg" width="49.008" height="45.353" viewBox="0 0 49.008 45.353">
  <g id="newspaper" transform="translate(0 -19.093)">
    <path id="Path_16111" data-name="Path 16111" d="M11.6,129.357h0a4.1,4.1,0,0,1-4.1-4.1V93.425a1.756,1.756,0,0,1,1.756-1.756H24.909v37.688H11.6Z" transform="translate(-6.782 -65.629)" fill="#e8e9ea"/>
    <path id="Path_16112" data-name="Path 16112" d="M33.949,91.668h.629v33.586a4.1,4.1,0,0,1-2.365,3.715,4.087,4.087,0,0,0,1.737.386H47.255V91.668Z" transform="translate(-29.129 -65.628)" fill="#d0d1d2"/>
    <path id="Path_16113" data-name="Path 16113" d="M56.217,26.592a1.756,1.756,0,0,0-1.756,1.756V66.406a4.1,4.1,0,0,1-4.1,4.1H89.726a4.1,4.1,0,0,0,4.1-4.1V28.348a1.756,1.756,0,0,0-1.756-1.756H56.217Z" transform="translate(-45.539 -6.781)" fill="#f2f3f3"/>
    <path id="Path_16114" data-name="Path 16114" d="M164.9,199.306h-9.846a.981.981,0,0,1-.981-.981V188.48a.981.981,0,0,1,.981-.981H164.9a.981.981,0,0,1,.981.981v9.846A.981.981,0,0,1,164.9,199.306Z" transform="translate(-139.326 -152.287)" fill="#ffce71"/>
    <path id="Path_16115" data-name="Path 16115" d="M156.946,198.325V188.48a.981.981,0,0,1,.981-.981h-2.872a.981.981,0,0,0-.981.981v9.846a.981.981,0,0,0,.981.981h2.872A.981.981,0,0,1,156.946,198.325Z" transform="translate(-139.326 -152.287)" fill="#e5b965"/>
    <path id="Path_16116" data-name="Path 16116" d="M46.534,19.093H10.678A2.476,2.476,0,0,0,8.2,21.567v3.755H2.474A2.476,2.476,0,0,0,0,27.8v31.83a4.825,4.825,0,0,0,4.785,4.819h25.43a.718.718,0,1,0,0-1.436H8.249A4.8,4.8,0,0,0,9.64,59.625V42.838a.718.718,0,1,0-1.436,0V59.625a3.388,3.388,0,0,1-3.366,3.384H4.82a3.388,3.388,0,0,1-3.384-3.383V27.8a1.039,1.039,0,0,1,1.038-1.038H8.2v13.4a.718.718,0,0,0,1.436,0V21.567a1.039,1.039,0,0,1,1.038-1.038H46.534a1.039,1.039,0,0,1,1.038,1.038V59.625a3.388,3.388,0,0,1-3.384,3.384H32.9a.718.718,0,0,0,0,1.436H44.187a4.826,4.826,0,0,0,4.82-4.82V21.567A2.476,2.476,0,0,0,46.534,19.093Z"/>
    <path id="Path_16117" data-name="Path 16117" d="M148.273,193.242h9.846a1.7,1.7,0,0,0,1.7-1.7V181.7a1.7,1.7,0,0,0-1.7-1.7h-9.846a1.7,1.7,0,0,0-1.7,1.7v9.846A1.7,1.7,0,0,0,148.273,193.242ZM148.01,181.7a.263.263,0,0,1,.263-.263h9.846a.263.263,0,0,1,.263.263v9.846a.263.263,0,0,1-.263.263h-9.846a.263.263,0,0,1-.263-.263Z" transform="translate(-132.544 -145.504)"/>
    <path id="Path_16118" data-name="Path 16118" d="M305.409,181.435h13.324a.718.718,0,1,0,0-1.436H305.409a.718.718,0,1,0,0,1.436Z" transform="translate(-275.527 -145.504)"/>
    <path id="Path_16119" data-name="Path 16119" d="M305.409,243.113h13.324a.718.718,0,0,0,0-1.436H305.409a.718.718,0,1,0,0,1.436Z" transform="translate(-275.527 -201.279)"/>
    <path id="Path_16120" data-name="Path 16120" d="M305.409,304.79h13.324a.718.718,0,1,0,0-1.436H305.409a.718.718,0,1,0,0,1.436Z" transform="translate(-275.527 -257.052)"/>
    <path id="Path_16121" data-name="Path 16121" d="M147.292,366.468H175.75a.718.718,0,1,0,0-1.436H147.292a.718.718,0,1,0,0,1.436Z" transform="translate(-132.544 -312.826)"/>
    <path id="Path_16122" data-name="Path 16122" d="M147.292,428.146H175.75a.718.718,0,0,0,0-1.436H147.292a.718.718,0,0,0,0,1.436Z" transform="translate(-132.544 -368.601)"/>
    <g id="Group_1360" data-name="Group 1360" transform="translate(14.048 22.698)">
      <path id="Path_16123" data-name="Path 16123" d="M146.767,65.429V57.843a.388.388,0,0,1,.222-.357,1.1,1.1,0,0,1,.538-.123,1.137,1.137,0,0,1,.643.152,1.9,1.9,0,0,1,.491.655l2.256,4.36v-4.7a.375.375,0,0,1,.222-.351,1.3,1.3,0,0,1,1.075,0,.376.376,0,0,1,.222.351v7.6a.391.391,0,0,1-.228.351,1.064,1.064,0,0,1-.532.129.912.912,0,0,1-.877-.479l-2.513-4.7v4.7a.391.391,0,0,1-.228.351,1.176,1.176,0,0,1-1.069,0A.391.391,0,0,1,146.767,65.429Z" transform="translate(-146.767 -57.305)" fill="#4a5359"/>
      <path id="Path_16124" data-name="Path 16124" d="M220.645,65.429V57.843a.4.4,0,0,1,.2-.351.841.841,0,0,1,.467-.129h4.161a.394.394,0,0,1,.356.2.85.85,0,0,1,.123.456.863.863,0,0,1-.129.479.4.4,0,0,1-.351.2h-3.308v2.338h1.777a.408.408,0,0,1,.351.181.718.718,0,0,1,.129.427.7.7,0,0,1-.123.4.4.4,0,0,1-.357.181h-1.777v2.349h3.308a.4.4,0,0,1,.351.2.864.864,0,0,1,.129.479.849.849,0,0,1-.123.456.394.394,0,0,1-.356.2h-4.161a.84.84,0,0,1-.467-.129A.4.4,0,0,1,220.645,65.429Z" transform="translate(-213.574 -57.305)" fill="#4a5359"/>
      <path id="Path_16125" data-name="Path 16125" d="M284.022,57.972a.512.512,0,0,1,.316-.427,1.3,1.3,0,0,1,.655-.181q.421,0,.5.3L287.341,64l.993-4.068q.105-.421.748-.421t.736.421L290.813,64l1.847-6.335q.082-.3.5-.3a1.3,1.3,0,0,1,.655.181.512.512,0,0,1,.316.427.444.444,0,0,1-.023.14l-2.314,7.352q-.175.515-.993.514a1.444,1.444,0,0,1-.631-.134.568.568,0,0,1-.339-.38l-.748-3.156-.76,3.156a.569.569,0,0,1-.339.38,1.443,1.443,0,0,1-.631.134,1.472,1.472,0,0,1-.643-.134.608.608,0,0,1-.351-.38l-2.314-7.352A.44.44,0,0,1,284.022,57.972Z" transform="translate(-270.884 -57.305)" fill="#4a5359"/>
      <path id="Path_16126" data-name="Path 16126" d="M393.679,64.01a.91.91,0,0,1,.2-.544.578.578,0,0,1,.462-.275.6.6,0,0,1,.345.146,3.989,3.989,0,0,1,.374.322,1.71,1.71,0,0,0,.52.322,1.872,1.872,0,0,0,.748.146,1.612,1.612,0,0,0,.935-.257.862.862,0,0,0,.374-.76,1.02,1.02,0,0,0-.2-.625,1.63,1.63,0,0,0-.538-.456q-.333-.181-.731-.351t-.8-.38a4.675,4.675,0,0,1-.736-.473,1.892,1.892,0,0,1-.538-.7,2.56,2.56,0,0,1,.047-2.109,1.911,1.911,0,0,1,.672-.747,3.149,3.149,0,0,1,.9-.392,4.034,4.034,0,0,1,1.017-.125,5.25,5.25,0,0,1,.643.042,5.957,5.957,0,0,1,.719.138,1.516,1.516,0,0,1,.62.3.615.615,0,0,1,.24.48,1.063,1.063,0,0,1-.164.538.5.5,0,0,1-.444.278,2.2,2.2,0,0,1-.573-.222,2.4,2.4,0,0,0-1.04-.222,1.7,1.7,0,0,0-.976.24.761.761,0,0,0-.345.66.769.769,0,0,0,.281.59,2.2,2.2,0,0,0,.7.409q.415.158.9.4a7.688,7.688,0,0,1,.9.52,2.183,2.183,0,0,1,.7.812,2.632,2.632,0,0,1,.281,1.245,2.3,2.3,0,0,1-.766,1.85,3.005,3.005,0,0,1-2.016.651A3.768,3.768,0,0,1,394.474,65Q393.679,64.548,393.679,64.01Z" transform="translate(-370.045 -56.751)" fill="#4a5359"/>
    </g>
  </g>
</svg>
