<svg xmlns="http://www.w3.org/2000/svg" xmlns:xlink="http://www.w3.org/1999/xlink" width="53.139" height="62.999" viewBox="0 0 53.139 62.999">
  <defs>
    <linearGradient id="linear-gradient" x1="0.5" x2="0.5" y2="1" gradientUnits="objectBoundingBox">
      <stop offset="0.13" stop-color="#00a9ed"/>
      <stop offset="1" stop-color="#65106b"/>
    </linearGradient>
  </defs>
  <path id="Union_18" data-name="Union 18" d="M21049.912,13768h-31.027a3.9,3.9,0,0,1-3.77-2.945.909.909,0,0,1-.117-.444v-.5a1.265,1.265,0,0,1,.021-.189,11.794,11.794,0,0,1,7.789-10.4,48.471,48.471,0,0,1-.941-21.615,40.77,40.77,0,0,1,3.258-10.549l-4.537-4.531a2.935,2.935,0,0,1-.846-2.188,2.894,2.894,0,0,1,1.025-2.078,32.394,32.394,0,0,1,41.6,0,2.895,2.895,0,0,1,.174,4.267l-4.436,4.437a40,40,0,0,1,3.314,10.644,48.565,48.565,0,0,1-.957,21.662,11.8,11.8,0,0,1,7.652,10.354,1.259,1.259,0,0,1,.02.189v.5a.907.907,0,0,1-.115.444,3.9,3.9,0,0,1-3.77,2.945Zm1.48-1.851h12.859a2.036,2.036,0,0,0,2.029-1.882,9.933,9.933,0,0,0-9.85-9.581C21055.029,13758.107,21053.242,13762.343,21051.393,13766.149Zm-1.5-14.244a.049.049,0,0,0-.027.042c-.629,2.94-2.088,8.872-3.494,14.2h2.961c2.01-4.045,3.986-8.734,5.494-12.415,0,0,.01-.016,0-.037a.1.1,0,0,0-.043-.037l-4.838-1.761a.18.18,0,0,0-.023,0A.057.057,0,0,0,21049.891,13751.905Zm-11.395,14.244h5.965c.988-3.738,2.014-7.825,2.77-10.992a9.758,9.758,0,0,1-11.547-.17C21036.439,13758.176,21037.486,13762.343,21038.5,13766.149Zm-5.488-14.25-4.838,1.761a.083.083,0,0,0-.037.037.06.06,0,0,0-.006.037c1.988,4.849,3.877,9.016,5.615,12.415h2.84c-1.4-5.33-2.865-11.262-3.49-14.2a.055.055,0,0,0-.031-.042.042.042,0,0,0-.025-.009C21033.023,13751.9,21033.014,13751.9,21033.008,13751.9Zm-16.152,12.368a2.036,2.036,0,0,0,2.029,1.882h12.785c-1.613-3.22-3.342-7.064-5.15-11.458A9.934,9.934,0,0,0,21016.855,13764.268Zm18.014-13.494a.97.97,0,0,1,.164.3c.793,2.385,3.484,4.045,6.535,4.045s5.742-1.66,6.535-4.045a.98.98,0,0,1,.2-.333,8.714,8.714,0,0,1-.682-3.32,8.989,8.989,0,0,1-12.051.037A8.431,8.431,0,0,1,21034.869,13750.773Zm-1.211-30.328c3.23,3.934,7.6,4.172,11.838,4.4a21.991,21.991,0,0,1,6.256.926c3.273,1.205,4.547,2.834,4.547,5.8,0,3.865-1.824,8.418-4.875,12.178a22.969,22.969,0,0,1-2,2.151.853.853,0,0,1,.025.2,9.088,9.088,0,0,0,.572,3.955,1.808,1.808,0,0,1,.555.111l4.838,1.761a1.924,1.924,0,0,1,1.041.909,11.758,11.758,0,0,1,2.227.228,46.725,46.725,0,0,0,.914-20.827,41.2,41.2,0,0,0-2.865-9.6l-1.084,1.089a.925.925,0,0,1-.656.27.906.906,0,0,1-.629-.248,18.677,18.677,0,0,0-20.705-3.3Zm-9.973,11.791a46.8,46.8,0,0,0,.91,20.8,11.212,11.212,0,0,1,1.9-.2,1.921,1.921,0,0,1,1.041-.914l4.838-1.761a1.842,1.842,0,0,1,.793-.111,9.089,9.089,0,0,0,.576-3.955.72.72,0,0,1,.012-.158,21.452,21.452,0,0,1-2.041-2.2c-3.051-3.754-4.875-8.307-4.875-12.172v-8.5l-.334-.328A41.716,41.716,0,0,0,21023.686,13732.236Zm5.088-8.486a.953.953,0,0,1-.086.073v7.746c0,3.458,1.666,7.572,4.463,11.009,2.67,3.283,5.9,5.324,8.418,5.324s5.742-2.041,8.418-5.324c2.8-3.437,4.467-7.551,4.467-11.009,0-1.919-.5-3.019-3.342-4.065a20.674,20.674,0,0,0-5.715-.81c-4.521-.248-9.639-.523-13.4-5.366A19.118,19.118,0,0,0,21028.773,13723.75Zm26.182-1.946,6.283-6.281a1.065,1.065,0,0,0,.311-.8,1.013,1.013,0,0,0-.369-.745,30.546,30.546,0,0,0-39.223,0,1,1,0,0,0-.365.745,1.047,1.047,0,0,0,.307.8l6.281,6.281a20.517,20.517,0,0,1,26.775,0Zm-14.312-7v-2.036h-2.035a.925.925,0,0,1,0-1.851h2.035v-2.035a.926.926,0,0,1,1.852,0v2.035h2.035a.925.925,0,0,1,0,1.851h-2.035v2.036a.926.926,0,0,1-1.852,0Z" transform="translate(-21014.998 -13705.001)" fill="url(#linear-gradient)"/>
</svg>
