<svg xmlns="http://www.w3.org/2000/svg" xmlns:xlink="http://www.w3.org/1999/xlink" width="170.312" height="145.909" viewBox="0 0 170.312 145.909">
  <defs>
    <linearGradient id="linear-gradient" x1="0.5" x2="0.5" y2="1" gradientUnits="objectBoundingBox">
      <stop offset="0" stop-color="#fff"/>
      <stop offset="0.502" stop-color="#98dbf9"/>
      <stop offset="1" stop-color="#fff"/>
    </linearGradient>
  </defs>
  <g id="Group_4041" data-name="Group 4041" transform="translate(-600 -3663.717)" opacity="0.27">
    <g id="Group_4032" data-name="Group 4032" transform="translate(600 3803.949)">
      <g id="Group_4031" data-name="Group 4031" transform="translate(0 0)">
        <path id="Path_19819" data-name="Path 19819" d="M167.474,443.97H2.839a2.839,2.839,0,0,0,0,5.677H167.474a2.839,2.839,0,0,0,0-5.677Z" transform="translate(0 -443.97)" fill="url(#linear-gradient)"/>
      </g>
    </g>
    <g id="Group_4036" data-name="Group 4036" transform="translate(617.017 3663.717)">
      <g id="Group_4035" data-name="Group 4035" transform="translate(0 0)">
        <path id="Path_19821" data-name="Path 19821" d="M172.538,112.537,143.664,83.669a2.839,2.839,0,0,0-4.014,0l-20.713,20.7L99.971,85.4a25.583,25.583,0,0,0,21.806-25.274v-.485a8.516,8.516,0,1,0-17.031,0,9.012,9.012,0,0,1-9,9,42.792,42.792,0,0,0-14.613,2.6A17.031,17.031,0,1,0,63.887,82.778l-.869.891a30.94,30.94,0,0,0,0,43.753l1.076,1.076A8.855,8.855,0,0,0,76.6,115.963l-1.076-1.076a13.244,13.244,0,0,1-1.791-16.464l39.478,39.461H90.552a2.839,2.839,0,1,0,0,5.677h28.329l2.9,2.9v25.49a11.337,11.337,0,0,0,1.536,5.677H104.745a2.839,2.839,0,1,0,0,5.677h28.385a11.354,11.354,0,0,0,11.354-11.354v-35.2a2.838,2.838,0,0,0-.832-2.007l-12.186-12.186L141.646,112.4l15.524,15.51a10.867,10.867,0,1,0,15.368-15.368ZM53.651,65.8A11.354,11.354,0,1,1,65.006,77.155,11.354,11.354,0,0,1,53.651,65.8Zm114.826,58.092a5.157,5.157,0,0,1-7.294-.016l-17.519-17.5a2.839,2.839,0,0,0-4.014,0L125.467,120.57a2.839,2.839,0,0,0,0,4.014l13.341,13.359v34.006a5.677,5.677,0,0,1-11.354,0V145.266a2.838,2.838,0,0,0-.832-2.007L75.528,92.165a2.839,2.839,0,0,0-4.014,0,18.913,18.913,0,0,0,0,26.722l1.076,1.076a3.183,3.183,0,0,1-4.5,4.5l-1.076-1.076a25.263,25.263,0,0,1,0-35.726l2.5-2.492A36.859,36.859,0,0,1,95.741,74.3a14.7,14.7,0,0,0,14.681-14.664,2.839,2.839,0,0,1,5.677,0v.485a19.893,19.893,0,0,1-19.87,19.87,2.839,2.839,0,0,0-2.839,2.839v2.839a2.838,2.838,0,0,0,.832,2.007l22.708,22.708a2.839,2.839,0,0,0,4.014,0l20.7-20.7,26.867,26.864A5.192,5.192,0,0,1,168.477,123.893Z" transform="translate(-47.96 -48.747)" fill="url(#linear-gradient)"/>
      </g>
    </g>
    <g id="Group_4038" data-name="Group 4038" transform="translate(653.932 3792.595)">
      <g id="Group_4037" data-name="Group 4037" transform="translate(0 0)">
        <path id="Path_19822" data-name="Path 19822" d="M160.516,411.97h-5.677a2.839,2.839,0,1,0,0,5.677h5.677a2.839,2.839,0,0,0,0-5.677Z" transform="translate(-152 -411.97)" fill="url(#linear-gradient)"/>
      </g>
    </g>
    <g id="Group_4040" data-name="Group 4040" transform="translate(639.74 3752.855)">
      <g id="Group_4039" data-name="Group 4039" transform="translate(0 0)">
        <path id="Path_19823" data-name="Path 19823" d="M120.516,299.97h-5.677a2.839,2.839,0,1,0,0,5.677h5.677a2.839,2.839,0,0,0,0-5.677Z" transform="translate(-112 -299.97)" fill="url(#linear-gradient)"/>
      </g>
    </g>
  </g>
</svg>
