<svg id="pause_1_" data-name="pause (1)" xmlns="http://www.w3.org/2000/svg" width="22" height="22" viewBox="0 0 22 22">
  <g id="Group_4898" data-name="Group 4898" transform="translate(0 0)">
    <g id="Group_4897" data-name="Group 4897">
      <path id="Path_21211" data-name="Path 21211" d="M18.778,3.222A11,11,0,0,0,3.222,18.778,11,11,0,0,0,18.778,3.222ZM11,20.711A9.711,9.711,0,1,1,20.711,11,9.722,9.722,0,0,1,11,20.711Z" transform="translate(0 0)" fill="#6bc4f0"/>
    </g>
  </g>
  <g id="Group_4900" data-name="Group 4900" transform="translate(12.311 5.159)">
    <g id="Group_4899" data-name="Group 4899">
      <path id="Path_21212" data-name="Path 21212" d="M289.94,137.723a.741.741,0,0,0-.741.741v10.2a.741.741,0,0,0,1.481,0v-10.2A.741.741,0,0,0,289.94,137.723Z" transform="translate(-289.199 -137.723)" fill="#6bc4f0"/>
    </g>
  </g>
  <g id="Group_4902" data-name="Group 4902" transform="translate(8.207 5.159)">
    <g id="Group_4901" data-name="Group 4901">
      <path id="Path_21213" data-name="Path 21213" d="M193.54,137.723a.741.741,0,0,0-.741.741v10.2a.741.741,0,1,0,1.481,0v-10.2A.741.741,0,0,0,193.54,137.723Z" transform="translate(-192.799 -137.723)" fill="#6bc4f0"/>
    </g>
  </g>
</svg>
