<svg id="file_2_" data-name="file (2)" xmlns="http://www.w3.org/2000/svg" width="23.758" height="34.449" viewBox="0 0 23.758 34.449">
  <path id="Path_15556" data-name="Path 15556" d="M23.758,32.667H0V0H18.412l5.345,5.346Zm0,0" fill="#e3e4d8"/>
  <path id="Path_15557" data-name="Path 15557" d="M273.656,0V5.346H279Zm0,0" transform="translate(-255.244)" fill="#d0cebd"/>
  <path id="Path_15558" data-name="Path 15558" d="M0,353.1H23.758v10.691H0Zm0,0" transform="translate(0 -329.344)" fill="#b53438"/>
  <g id="Group_913" data-name="Group 913" transform="translate(2.97 25.54)">
    <path id="Path_15559" data-name="Path 15559" d="M44.731,386.714a.594.594,0,0,1-.594-.594v-5.94a.594.594,0,1,1,1.188,0v5.94A.594.594,0,0,1,44.731,386.714Zm0,0" transform="translate(-44.137 -379.586)" fill="#fff"/>
    <path id="Path_15560" data-name="Path 15560" d="M242.5,380.774h-3.564a.594.594,0,1,1,0-1.188H242.5a.594.594,0,1,1,0,1.188Zm0,0" transform="translate(-225.277 -379.586)" fill="#fff"/>
    <path id="Path_15561" data-name="Path 15561" d="M242.5,424.911h-3.564a.594.594,0,0,1,0-1.188H242.5a.594.594,0,1,1,0,1.188Zm0,0" transform="translate(-225.277 -420.753)" fill="#fff"/>
    <path id="Path_15562" data-name="Path 15562" d="M238.938,386.714a.594.594,0,0,1-.594-.594v-5.94a.594.594,0,1,1,1.188,0v5.94A.594.594,0,0,1,238.938,386.714Zm0,0" transform="translate(-225.277 -379.586)" fill="#fff"/>
  </g>
  <path id="Path_15563" data-name="Path 15563" d="M85.548,80.5a1.389,1.389,0,0,0,.057,1.88c.562-1.236-.031-1.888-.057-1.88m.36,4.947a41.426,41.426,0,0,1-1.583,4.421,29.863,29.863,0,0,1,3.845-1.181,20,20,0,0,1-2.262-3.241M90.328,89.3c.482.366.6.552.916.552a.754.754,0,0,0,.852-.5c-.072-.039-.169-.115-.7-.115a8.679,8.679,0,0,0-1.072.063m-8.071,2.6c-1.265.7-1.781,1.278-1.817,1.6-.006.054-.022.2.255.4.089-.028.6-.26,1.563-2.008m-1.576,3a.958.958,0,0,1-.572-.191,1.4,1.4,0,0,1-.66-1.311c.107-.951,1.3-1.948,3.542-2.963a38.927,38.927,0,0,0,2.242-6.284c-.59-1.27-1.165-2.917-.747-3.883a1.13,1.13,0,0,1,.671-.711,2.981,2.981,0,0,1,.6-.1c.311,0,.609.371.752.612a2.407,2.407,0,0,1,.226,1.471,13.04,13.04,0,0,1-.22,1.453c-.07.353-.149.7-.233,1.054A18.655,18.655,0,0,0,89.3,88.458a11.681,11.681,0,0,1,1.988-.208c.926,0,1.488.213,1.717.652a1.171,1.171,0,0,1-.231,1.263,1.576,1.576,0,0,1-1.314.7,3.95,3.95,0,0,1-2.493-1.336,28.646,28.646,0,0,0-5.225,1.649,16.538,16.538,0,0,1-1.411,2.485c-.605.841-1.129,1.232-1.647,1.232" transform="translate(-74.096 -74.104)" fill="#b53438"/>
  <path id="Path_15564" data-name="Path 15564" d="M46.513,384.338H44.731a.594.594,0,0,1-.594-.594V380.18a.594.594,0,0,1,.594-.594h1.782a2.376,2.376,0,0,1,0,4.752Zm-1.188-1.188h1.188a1.188,1.188,0,0,0,0-2.376H45.325Zm0,0" transform="translate(-41.167 -354.046)" fill="#fff"/>
  <path id="Path_15565" data-name="Path 15565" d="M142.43,386.714h-.594a.594.594,0,0,1-.594-.594v-5.94a.594.594,0,0,1,.594-.594h.594a3.564,3.564,0,0,1,0,7.127Zm0-1.188h.006Zm0-4.752v4.752a2.376,2.376,0,0,0,0-4.752Zm0,0" transform="translate(-131.739 -354.047)" fill="#fff"/>
</svg>
