<svg id="Group_2874" data-name="Group 2874" xmlns="http://www.w3.org/2000/svg" width="18.124" height="18.124" viewBox="0 0 18.124 18.124">
  <path id="Path_18284" data-name="Path 18284" d="M650.809,195.648a5.624,5.624,0,0,1-1.042-.217,1.185,1.185,0,0,0-1.19.295l-.648.648a7.479,7.479,0,0,1-2.951-2.951l.648-.648a1.182,1.182,0,0,0,.292-1.191,5.838,5.838,0,0,1-.214-1.042,1.189,1.189,0,0,0-1.183-1.054h-1.595a1.194,1.194,0,0,0-1.193,1.2c0,.034,0,.071,0,.107a9.769,9.769,0,0,0,8.821,8.821,1.195,1.195,0,0,0,1.305-1.186v-1.6A1.188,1.188,0,0,0,650.809,195.648Z" transform="translate(-637.654 -185.756)" fill="#65106b"/>
  <path id="Path_18285" data-name="Path 18285" d="M649.117,206.079a9.062,9.062,0,1,1,9.064-9.062A9.071,9.071,0,0,1,649.117,206.079Zm0-16.907a7.845,7.845,0,1,0,7.847,7.845A7.852,7.852,0,0,0,649.117,189.172Z" transform="translate(-640.057 -187.955)" fill="#65106b"/>
</svg>
