<?xml version="1.0" encoding="utf-8"?>
<!-- Generator: Adobe Illustrator 16.0.0, SVG Export Plug-In . SVG Version: 6.00 Build 0)  -->
<!DOCTYPE svg PUBLIC "-//W3C//DTD SVG 1.1//EN" "http://www.w3.org/Graphics/SVG/1.1/DTD/svg11.dtd">
<svg version="1.1" id="invoice" xmlns="http://www.w3.org/2000/svg" xmlns:xlink="http://www.w3.org/1999/xlink" x="0px" y="0px"
	 width="65px" height="65px" viewBox="0 0 65 65" enable-background="new 0 0 65 65" xml:space="preserve">
<g id="Accept" transform="translate(-40 -8)">
	
		<linearGradient id="Path_17522_1_" gradientUnits="userSpaceOnUse" x1="-194.6133" y1="245.585" x2="-194.6133" y2="244.585" gradientTransform="matrix(7.116 0 0 -2.032 1436.4801 565.9486)">
		<stop  offset="0.13" style="stop-color:#00A9ED"/>
		<stop  offset="1" style="stop-color:#65106B"/>
	</linearGradient>
	<path id="Path_17522" fill="url(#Path_17522_1_)" d="M54.147,66.919h-5.084c-0.561,0-1.016,0.455-1.016,1.017
		c0,0.561,0.455,1.016,1.016,1.016h5.084c0.562,0,1.017-0.455,1.017-1.016C55.164,67.374,54.709,66.919,54.147,66.919z"/>
	
		<linearGradient id="Path_17523_1_" gradientUnits="userSpaceOnUse" x1="-144.0483" y1="245.585" x2="-144.0483" y2="244.585" gradientTransform="matrix(3.048 0 0 -2.032 496.7647 565.9486)">
		<stop  offset="0.13" style="stop-color:#00A9ED"/>
		<stop  offset="1" style="stop-color:#65106B"/>
	</linearGradient>
	<path id="Path_17523" fill="url(#Path_17523_1_)" d="M58.209,66.919h-1.017c-0.561,0-1.016,0.455-1.016,1.017
		c0,0.561,0.455,1.016,1.016,1.016h1.017c0.561,0,1.016-0.455,1.016-1.016C59.225,67.374,58.77,66.919,58.209,66.919z"/>
	
		<linearGradient id="Path_17524_1_" gradientUnits="userSpaceOnUse" x1="-224.6958" y1="373.2363" x2="-224.6958" y2="372.2363" gradientTransform="matrix(34.548 0 0 -6.1 7830.1553 2297.9336)">
		<stop  offset="0.13" style="stop-color:#00A9ED"/>
		<stop  offset="1" style="stop-color:#65106B"/>
	</linearGradient>
	<path id="Path_17524" fill="url(#Path_17524_1_)" d="M51.097,27.294h32.516c0.562,0,1.017-0.455,1.017-1.016v-4.065
		c0.002-0.561-0.452-1.017-1.013-1.019c-0.001,0-0.003,0-0.004,0H51.097c-0.562,0-1.016,0.455-1.016,1.016v4.065
		c-0.002,0.561,0.451,1.018,1.013,1.019C51.095,27.294,51.096,27.294,51.097,27.294z M52.112,23.229h30.484v2.032H52.112V23.229z"/>
	
		<linearGradient id="Path_17525_1_" gradientUnits="userSpaceOnUse" x1="-224.6963" y1="373.2363" x2="-224.6963" y2="372.2363" gradientTransform="matrix(34.548 0 0 -6.1 7830.1553 2306.0659)">
		<stop  offset="0.13" style="stop-color:#00A9ED"/>
		<stop  offset="1" style="stop-color:#65106B"/>
	</linearGradient>
	<path id="Path_17525" fill="url(#Path_17525_1_)" d="M51.097,35.423h32.516c0.562,0,1.017-0.455,1.017-1.016l0,0v-4.065
		c0.002-0.561-0.452-1.017-1.013-1.019c-0.001,0-0.003,0-0.004,0H51.097c-0.562,0-1.016,0.455-1.016,1.016l0,0v4.065
		c-0.002,0.561,0.451,1.018,1.013,1.019C51.095,35.423,51.096,35.423,51.097,35.423z M52.112,31.358h30.484v2.032H52.112V31.358z"/>
	
		<linearGradient id="Path_17526_1_" gradientUnits="userSpaceOnUse" x1="-224.6963" y1="373.2354" x2="-224.6963" y2="372.2354" gradientTransform="matrix(34.548 0 0 -6.1 7830.1553 2314.1948)">
		<stop  offset="0.13" style="stop-color:#00A9ED"/>
		<stop  offset="1" style="stop-color:#65106B"/>
	</linearGradient>
	<path id="Path_17526" fill="url(#Path_17526_1_)" d="M51.097,43.552h32.516c0.562,0,1.017-0.454,1.017-1.016l0,0v-4.065
		c0.002-0.561-0.452-1.018-1.013-1.019c-0.001,0-0.003,0-0.004,0H51.097c-0.562,0-1.016,0.455-1.016,1.016l0,0v4.065
		c-0.002,0.561,0.451,1.018,1.013,1.019C51.095,43.552,51.096,43.552,51.097,43.552z M52.112,39.487h30.484v2.032H52.112V39.487z"/>
	
		<linearGradient id="Path_17527_1_" gradientUnits="userSpaceOnUse" x1="-219.8657" y1="245.584" x2="-219.8657" y2="244.584" gradientTransform="matrix(21.338 0 0 -2.032 4752.2412 544.6107)">
		<stop  offset="0.13" style="stop-color:#00A9ED"/>
		<stop  offset="1" style="stop-color:#65106B"/>
	</linearGradient>
	<path id="Path_17527" fill="url(#Path_17527_1_)" d="M70.403,45.581H51.097c-0.562,0-1.016,0.455-1.016,1.017
		c0,0.561,0.454,1.016,1.016,1.016h19.306c0.562,0,1.017-0.455,1.017-1.016C71.419,46.036,70.964,45.581,70.403,45.581
		L70.403,45.581z"/>
	
		<linearGradient id="Path_17528_1_" gradientUnits="userSpaceOnUse" x1="-214.812" y1="245.585" x2="-214.812" y2="244.585" gradientTransform="matrix(15.242 0 0 -2.032 3331.8733 547.6595)">
		<stop  offset="0.13" style="stop-color:#00A9ED"/>
		<stop  offset="1" style="stop-color:#65106B"/>
	</linearGradient>
	<path id="Path_17528" fill="url(#Path_17528_1_)" d="M64.307,48.629h-13.21c-0.562,0-1.016,0.455-1.016,1.016
		c0,0.562,0.454,1.017,1.016,1.017h13.21c0.562,0,1.017-0.455,1.017-1.017C65.323,49.084,64.868,48.629,64.307,48.629z"/>
	
		<linearGradient id="Path_17529_1_" gradientUnits="userSpaceOnUse" x1="-166.1616" y1="245.584" x2="-166.1616" y2="244.584" gradientTransform="matrix(4.064 0 0 -2.032 727.395 550.7064)">
		<stop  offset="0.13" style="stop-color:#00A9ED"/>
		<stop  offset="1" style="stop-color:#65106B"/>
	</linearGradient>
	<path id="Path_17529" fill="url(#Path_17529_1_)" d="M53.129,53.709c0.561,0,1.016-0.455,1.016-1.016
		c0-0.562-0.455-1.017-1.016-1.017l0,0h-2.032c-0.562,0-1.016,0.455-1.016,1.017c0,0.561,0.454,1.016,1.016,1.016H53.129z"/>
	
		<linearGradient id="Path_17530_1_" gradientUnits="userSpaceOnUse" x1="-144.0483" y1="245.585" x2="-144.0483" y2="244.585" gradientTransform="matrix(3.048 0 0 -2.032 495.7473 550.7064)">
		<stop  offset="0.13" style="stop-color:#00A9ED"/>
		<stop  offset="1" style="stop-color:#65106B"/>
	</linearGradient>
	<path id="Path_17530" fill="url(#Path_17530_1_)" d="M57.192,53.709c0.562,0,1.017-0.455,1.017-1.016
		c0-0.562-0.455-1.017-1.017-1.017h-1.016c-0.562,0-1.016,0.455-1.016,1.017c0,0.561,0.454,1.016,1.016,1.016l0,0H57.192z"/>
	
		<linearGradient id="Path_17531_1_" gradientUnits="userSpaceOnUse" x1="-227.6758" y1="430.8262" x2="-227.6758" y2="429.8262" gradientTransform="matrix(55.887 0 0 -63 12797.0771 27151.0625)">
		<stop  offset="0.13" style="stop-color:#00A9ED"/>
		<stop  offset="1" style="stop-color:#65106B"/>
	</linearGradient>
	<path id="Path_17531" fill="url(#Path_17531_1_)" d="M100.887,56.758c-0.008-6.337-4.862-11.615-11.177-12.15V18.145
		c-0.001-0.27-0.108-0.529-0.3-0.719L81.283,9.3C81.093,9.108,80.834,9,80.563,9H46.016C45.455,9,45,9.455,45,10.016v60.968
		C45,71.545,45.455,72,46.016,72h42.678c0.562,0,1.017-0.455,1.017-1.016v-2.075C96.024,68.373,100.879,63.096,100.887,56.758z
		 M81.581,12.469l4.66,4.66h-4.66V12.469z M47.033,69.969V11.032h32.515v7.113c0,0.561,0.455,1.016,1.016,1.016h7.113v25.446
		c-6.71,0.571-11.687,6.475-11.115,13.185c0.504,5.917,5.198,10.61,11.115,11.115v1.059L47.033,69.969z M88.693,66.921
		c-5.611,0-10.16-4.55-10.16-10.161s4.549-10.16,10.16-10.16s10.16,4.547,10.161,10.158c0,5.611-4.549,10.161-10.161,10.161l0,0
		V66.921z"/>
	
		<linearGradient id="Path_17532_1_" gradientUnits="userSpaceOnUse" x1="-213.5474" y1="394.4561" x2="-213.5474" y2="393.457" gradientTransform="matrix(14.2252 0 0 -9.1427 3127.4683 3659.1077)">
		<stop  offset="0.13" style="stop-color:#00A9ED"/>
		<stop  offset="1" style="stop-color:#65106B"/>
	</linearGradient>
	<path id="Path_17532" fill="url(#Path_17532_1_)" d="M96.524,52.994c-0.396-0.396-1.04-0.396-1.437,0l0,0l-6.552,6.552l-4.4-2.64
		c-0.481-0.289-1.105-0.133-1.395,0.348c-0.289,0.482-0.133,1.106,0.349,1.395l5.081,3.045c0.399,0.24,0.911,0.178,1.241-0.151
		l7.112-7.113C96.92,54.032,96.92,53.391,96.524,52.994z"/>
</g>
</svg>
