<?xml version="1.0" encoding="utf-8"?>
<!-- Generator: Adobe Illustrator 14.0.0, SVG Export Plug-In . SVG Version: 6.00 Build 43363)  -->
<!DOCTYPE svg PUBLIC "-//W3C//DTD SVG 1.1//EN" "http://www.w3.org/Graphics/SVG/1.1/DTD/svg11.dtd">
<svg version="1.1" id="Layer_1" xmlns="http://www.w3.org/2000/svg" xmlns:xlink="http://www.w3.org/1999/xlink" x="0px" y="0px"
	 width="17.652px" height="17.652px" viewBox="0 0 17.652 17.652" enable-background="new 0 0 17.652 17.652" xml:space="preserve">
<circle fill="#FFFFFF" cx="8.826" cy="8.826" r="7.552"/>
<path id="plus_1_" fill="#65106B" d="M15.068,2.585c-3.447-3.445-9.035-3.445-12.482,0c-3.445,3.447-3.445,9.035,0,12.482
	c3.447,3.446,9.035,3.446,12.482,0C18.514,11.62,18.514,6.032,15.068,2.585z M8.827,16.273c-4.112,0-7.447-3.334-7.447-7.447
	s3.335-7.447,7.447-7.447c4.113,0,7.447,3.334,7.447,7.447C16.269,12.937,12.938,16.268,8.827,16.273z M9.517,8.135h3.1v1.381h-3.1
	v3.1h-1.38v-3.1H5.037V8.135h3.102v-3.1h1.379V8.135z"/>
</svg>
