<?xml version="1.0" encoding="utf-8"?>
<!-- Generator: Adobe Illustrator 14.0.0, SVG Export Plug-In . SVG Version: 6.00 Build 43363)  -->
<!DOCTYPE svg PUBLIC "-//W3C//DTD SVG 1.1//EN" "http://www.w3.org/Graphics/SVG/1.1/DTD/svg11.dtd">
<svg version="1.1" id="Layer_1" xmlns="http://www.w3.org/2000/svg" xmlns:xlink="http://www.w3.org/1999/xlink" x="0px" y="0px"
	 width="26px" height="40px" viewBox="-0.004 -0.579 26 40" enable-background="new -0.004 -0.579 26 40" xml:space="preserve">
<g id="Group_1297" transform="translate(-991 -546)">
	<g id="downlaod" transform="translate(942.23 546)">
		<path id="Path_16120" fill="#FFFFFF" d="M73.972,0H49.56c-0.436,0-0.79,0.354-0.79,0.79v37.262c0,0.437,0.354,0.789,0.79,0.79
			h24.412c0.437-0.001,0.789-0.354,0.79-0.79V0.79C74.761,0.354,74.409,0,73.972,0z M73.182,1.581v30.406H50.351V6.853h20.11
			c0.436,0,0.79-0.354,0.79-0.791s-0.354-0.791-0.79-0.791h-20.11V1.581H73.182z M50.351,37.261v-3.691h22.831v3.691H50.351z"/>
		<path id="Path_16121" fill="#FFFFFF" d="M61.766,22.978c0.436,0,0.789-0.354,0.79-0.789v-9.547c0-0.437-0.354-0.791-0.791-0.791
			s-0.791,0.354-0.791,0.791v9.545c0,0.437,0.353,0.791,0.789,0.791C61.765,22.978,61.765,22.978,61.766,22.978z"/>
		<path id="Path_16122" fill="#FFFFFF" d="M65.497,21.356l-3.726,3.727l-3.726-3.727c-0.309-0.309-0.809-0.309-1.118,0
			c-0.309,0.309-0.309,0.81,0,1.119l4.285,4.284c0.309,0.31,0.809,0.31,1.117,0.001c0.001,0,0.001,0,0.002-0.001l4.284-4.284
			c0.31-0.31,0.31-0.811,0-1.119C66.306,21.048,65.805,21.048,65.497,21.356z"/>
	</g>
	<rect id="Rectangle_619" x="992" y="579" fill="#1379AD" width="24" height="5"/>
</g>
</svg>
