<svg xmlns="http://www.w3.org/2000/svg" xmlns:xlink="http://www.w3.org/1999/xlink" width="46.458" height="59.674" viewBox="0 0 46.458 59.674">
  <defs>
    <linearGradient id="linear-gradient" x1="0.5" x2="0.5" y2="1" gradientUnits="objectBoundingBox">
      <stop offset="0.13" stop-color="#00a9ed"/>
      <stop offset="1" stop-color="#65106b"/>
    </linearGradient>
  </defs>
  <path id="Union_9" data-name="Union 9" d="M13658,10403.672V10344h32.039l14.419,14.508v45.166Zm1.977-1.989h42.5v-41.771h-13.837v-13.924h-28.667Zm30.642-43.76h10.466l-10.466-10.529Zm-2.964,31.824a.995.995,0,0,1,0-1.989h6.918a.995.995,0,0,1,0,1.989Zm-14.829,0a.995.995,0,0,1,0-1.989h9.886a.995.995,0,0,1,0,1.989Zm-5.642-.286a1.012,1.012,0,0,1,0-1.412,1.019,1.019,0,0,1,1.4.009.984.984,0,0,1,.287.7,1.057,1.057,0,0,1-.287.707,1.023,1.023,0,0,1-.7.286A1.036,1.036,0,0,1,13667.184,10389.461Zm26.688-6.964a1.009,1.009,0,0,1,0-1.412,1.028,1.028,0,0,1,1.4,0,1.012,1.012,0,0,1,0,1.412.993.993,0,0,1-1.4,0Zm-4.944,0a1.012,1.012,0,0,1,0-1.412,1.033,1.033,0,0,1,1.406,0,1.019,1.019,0,0,1,0,1.412,1.028,1.028,0,0,1-.705.29A.971.971,0,0,1,13688.928,10382.5Zm-21.044.286a.993.993,0,0,1,0-1.986h16.8a.993.993,0,0,1,0,1.986Zm19.771-6.96a1,1,0,0,1,0-1.99h6.918a1,1,0,0,1,0,1.99Zm-14.829,0a1,1,0,0,1,0-1.99h9.886a1,1,0,0,1,0,1.99Zm-5.642-.288a1.046,1.046,0,0,1-.287-.705.988.988,0,0,1,1.689-.707,1,1,0,0,1-1.4,1.412Zm26.688-6.964a1.039,1.039,0,0,1-.288-.7,1.06,1.06,0,0,1,.288-.71,1.032,1.032,0,0,1,1.4,0,1.014,1.014,0,0,1,.287.71.994.994,0,0,1-.287.7.99.99,0,0,1-1.4,0Zm-11.161.291a.995.995,0,0,1,0-1.989h6.918a.995.995,0,0,1,0,1.989Zm-5.643-.291a1.039,1.039,0,0,1-.288-.7,1.06,1.06,0,0,1,.288-.71,1.032,1.032,0,0,1,1.4,0,1.063,1.063,0,0,1,.287.71,1.042,1.042,0,0,1-.287.7.99.99,0,0,1-1.4,0Zm-9.185.291a.995.995,0,0,1,0-1.989h4.944a.995.995,0,0,1,0,1.989Zm0-7.957a.993.993,0,0,1,0-1.986h8.9a.993.993,0,0,1,0,1.986Z" transform="translate(-13658 -10343.998)" fill="url(#linear-gradient)"/>
</svg>
