<svg xmlns="http://www.w3.org/2000/svg" xmlns:xlink="http://www.w3.org/1999/xlink" width="48.483" height="48.483" viewBox="0 0 48.483 48.483">
  <defs>
    <linearGradient id="linear-gradient" x1="0.5" x2="0.5" y2="1" gradientUnits="objectBoundingBox">
      <stop offset="0.13" stop-color="#00a9ed"/>
      <stop offset="1" stop-color="#65106b"/>
    </linearGradient>
  </defs>
  <g id="network" transform="translate(0)">
    <path id="Path_16316" data-name="Path 16316" d="M410.947,300a.947.947,0,1,0,.947.947A.947.947,0,0,0,410.947,300Zm0,0" transform="translate(-371.176 -271.592)" fill="url(#linear-gradient)"/>
    <path id="Path_16317" data-name="Path 16317" d="M246.947,240a.947.947,0,1,0,.947.947A.947.947,0,0,0,246.947,240Zm0,0" transform="translate(-222.706 -217.274)" fill="url(#linear-gradient)"/>
    <path id="Path_16318" data-name="Path 16318" d="M82.947,300a.947.947,0,1,0,.947.947A.947.947,0,0,0,82.947,300Zm0,0" transform="translate(-74.235 -271.592)" fill="url(#linear-gradient)"/>
    <path id="Path_16319" data-name="Path 16319" d="M51.469,64.735a4.735,4.735,0,1,0-4.735,4.735A4.74,4.74,0,0,0,51.469,64.735Zm-4.735,2.841a2.841,2.841,0,1,1,2.841-2.841A2.844,2.844,0,0,1,46.735,67.575Zm0,0" transform="translate(-38.023 -54.318)" fill="url(#linear-gradient)"/>
    <path id="Path_16320" data-name="Path 16320" d="M41.665,105.682H37.877a7.16,7.16,0,0,0-4.116,1.331A8.745,8.745,0,0,0,25.188,100H23.294a8.745,8.745,0,0,0-8.573,7.012,7.16,7.16,0,0,0-4.116-1.331H6.818A6.794,6.794,0,0,0,0,112.31v7.575a2.844,2.844,0,0,0,2.841,2.841H3.977v13.446a2.844,2.844,0,0,0,2.841,2.841h3.788a2.844,2.844,0,0,0,2.841-2.841V122.726h1.136a2.844,2.844,0,0,0,2.841-2.841v-.947H18.56v17.234a2.844,2.844,0,0,0,2.841,2.841h5.682a2.844,2.844,0,0,0,2.841-2.841V118.939h1.136v.947a2.844,2.844,0,0,0,2.841,2.841h1.136v13.446a2.844,2.844,0,0,0,2.841,2.841h3.788a2.844,2.844,0,0,0,2.841-2.841V122.726h1.136a2.844,2.844,0,0,0,2.841-2.841V112.31a6.794,6.794,0,0,0-6.818-6.628ZM14.582,120.832H13.446V112.31a.947.947,0,0,0-1.894,0v23.863a.948.948,0,0,1-.947.947H9.658V123.673a.947.947,0,1,0-1.894,0V137.12H6.818a.948.948,0,0,1-.947-.947V112.31a.947.947,0,0,0-1.894,0v8.522H2.841a.948.948,0,0,1-.947-.947V112.31a4.9,4.9,0,0,1,4.924-4.735h3.788a5.093,5.093,0,0,1,3.977,1.9V116.1a2.848,2.848,0,0,0,.947,2.116v1.672a.948.948,0,0,1-.947.947Zm15.34-3.788v-8.522a.947.947,0,1,0-1.894,0v27.65a.948.948,0,0,1-.947.947H25.188V117.992a.947.947,0,1,0-1.894,0V137.12H21.4a.948.948,0,0,1-.947-.947v-27.65a.947.947,0,1,0-1.894,0v8.522H17.423a.949.949,0,0,1-.947-.947v-7.575a6.815,6.815,0,0,1,6.818-6.628h1.894a6.815,6.815,0,0,1,6.818,6.628V116.1a.95.95,0,0,1-.947.947Zm16.666,2.841a.948.948,0,0,1-.947.947H44.505V112.31a.947.947,0,0,0-1.894,0v23.863a.948.948,0,0,1-.947.947h-.947V123.673a.947.947,0,1,0-1.894,0V137.12h-.947a.948.948,0,0,1-.947-.947V112.31a.947.947,0,0,0-1.894,0v8.522H33.9a.948.948,0,0,1-.947-.947v-1.673A2.847,2.847,0,0,0,33.9,116.1v-6.626a5.093,5.093,0,0,1,3.977-1.9h3.788a4.9,4.9,0,0,1,4.924,4.735Zm0,0" transform="translate(0 -90.531)" fill="url(#linear-gradient)"/>
    <path id="Path_16321" data-name="Path 16321" d="M379.469,64.735a4.735,4.735,0,1,0-4.735,4.735A4.74,4.74,0,0,0,379.469,64.735Zm-4.735,2.841a2.841,2.841,0,1,1,2.841-2.841A2.844,2.844,0,0,1,374.735,67.575Zm0,0" transform="translate(-334.964 -54.318)" fill="url(#linear-gradient)"/>
    <path id="Path_16322" data-name="Path 16322" d="M215.469,4.735a4.735,4.735,0,1,0-4.735,4.735A4.74,4.74,0,0,0,215.469,4.735Zm-4.735,2.841a2.841,2.841,0,1,1,2.841-2.841A2.844,2.844,0,0,1,210.735,7.575Zm0,0" transform="translate(-186.494)" fill="url(#linear-gradient)"/>
  </g>
</svg>
