<svg xmlns="http://www.w3.org/2000/svg" width="18.995" height="17.852" viewBox="0 0 18.995 17.852">
  <g id="Group_3149" data-name="Group 3149" transform="translate(-1059.807 -71)">
    <g id="Group_2872" data-name="Group 2872" transform="translate(1059.807 71)">
      <path id="Rectangle_824" data-name="Rectangle 824" d="M.373,0H2.612a.372.372,0,0,1,.372.372V7.418a.373.373,0,0,1-.373.373H.373A.373.373,0,0,1,0,7.417V.373A.373.373,0,0,1,.373,0Z" transform="translate(0 3.507)" fill="#65106b"/>
      <rect id="Rectangle_825" data-name="Rectangle 825" width="2.984" height="7.79" rx="0.373" transform="translate(16.011 3.507)" fill="#65106b"/>
      <rect id="Rectangle_826" data-name="Rectangle 826" width="2.557" height="5.878" rx="0.245" transform="translate(12.102 15.294) rotate(90)" fill="#65106b"/>
      <path id="Path_18282" data-name="Path 18282" d="M722.383,195.85h-.755a6.579,6.579,0,1,0-13.157,0h-.755a7.333,7.333,0,0,1,14.667,0Z" transform="translate(-705.611 -188.517)" fill="#65106b"/>
      <g id="Group_2871" data-name="Group 2871" transform="translate(10.636 10.562)">
        <path id="Path_18283" data-name="Path 18283" d="M711.315,199.395l-.095-.75c4.278-.536,6.5-5.739,6.523-5.79l.7.292C718.346,193.376,716.016,198.8,711.315,199.395Z" transform="translate(-711.22 -192.855)" fill="#65106b"/>
      </g>
    </g>
  </g>
</svg>
