<?xml version="1.0" encoding="utf-8"?>
<!-- Generator: Adobe Illustrator 14.0.0, SVG Export Plug-In . SVG Version: 6.00 Build 43363)  -->
<!DOCTYPE svg PUBLIC "-//W3C//DTD SVG 1.1//EN" "http://www.w3.org/Graphics/SVG/1.1/DTD/svg11.dtd">
<svg version="1.1" id="Group_1210" xmlns="http://www.w3.org/2000/svg" xmlns:xlink="http://www.w3.org/1999/xlink" x="0px" y="0px"
	 width="45px" height="40px" viewBox="-3.403 -0.903 45 40" enable-background="new -3.403 -0.903 45 40" xml:space="preserve">
<path id="Path_2" fill="#FFFFFF" d="M19.1,38.194c-5.685-0.01-11.063-2.578-14.644-6.993v3.173
	c-0.015,0.352-0.311,0.625-0.662,0.611c-0.332-0.014-0.598-0.279-0.611-0.611v-5.09c0-0.022,0.01-0.039,0.012-0.062
	c0.004-0.043,0.013-0.085,0.026-0.126c0.011-0.038,0.026-0.076,0.045-0.111c0.02-0.035,0.041-0.068,0.066-0.1
	c0.027-0.033,0.058-0.063,0.092-0.09c0.016-0.014,0.025-0.032,0.043-0.043c0.018-0.009,0.035-0.016,0.053-0.022
	c0.037-0.02,0.077-0.035,0.117-0.047c0.041-0.014,0.084-0.021,0.127-0.025c0.02,0,0.036-0.012,0.055-0.012h5.094
	c0.352,0,0.637,0.285,0.637,0.638c0,0.352-0.285,0.637-0.637,0.637H5.056c3.33,4.398,8.524,6.988,14.041,7
	c9.851-0.007,17.83-7.998,17.823-17.849c-0.001-1.904-0.308-3.797-0.907-5.604c-0.094-0.339,0.104-0.69,0.443-0.784
	c0.315-0.088,0.646,0.078,0.765,0.384c3.323,10.018-2.104,20.832-12.121,24.155C23.164,37.865,21.139,38.193,19.1,38.194z
	 M34.973,9.1c-0.011,0.038-0.025,0.075-0.045,0.11c-0.019,0.035-0.041,0.068-0.066,0.1c-0.027,0.034-0.058,0.064-0.092,0.091
	c-0.016,0.014-0.024,0.031-0.043,0.043c-0.017,0.009-0.034,0.016-0.052,0.021c-0.038,0.021-0.078,0.037-0.119,0.049
	c-0.04,0.013-0.081,0.021-0.123,0.025c-0.019,0-0.036,0.011-0.056,0.011h-5.095c-0.353,0-0.638-0.285-0.638-0.637
	c0-0.353,0.285-0.638,0.638-0.638h3.855c-3.329-4.398-8.524-6.988-14.041-7c-9.851,0.008-17.831,8-17.823,17.851
	c0.001,1.868,0.296,3.724,0.873,5.5c0.106,0.333-0.075,0.689-0.407,0.8c-0.065,0.021-0.133,0.032-0.2,0.032
	c-0.276-0.001-0.521-0.179-0.605-0.441C-2.327,14.978,3.167,4.197,13.206,0.935C15.11,0.317,17.099,0.001,19.1,0
	c5.682,0.012,11.057,2.579,14.638,6.99V3.819c0-0.352,0.285-0.636,0.637-0.636s0.637,0.284,0.637,0.636v5.094
	c-0.003,0.02-0.007,0.04-0.012,0.06C34.995,9.016,34.987,9.059,34.973,9.1z"/>
<path id="Path_15986" fill="#147DB2" d="M13.468,9.061h8.682V13.8h5.13v13.22H13.468V9.061z"/>
<g id="file" transform="translate(11.116 6.756)">
	<path id="Path_103" fill="#FFFFFF" d="M13.385,8.58h-8.58c-0.189,0-0.343,0.153-0.343,0.343s0.153,0.343,0.343,0.343h8.58
		c0.189,0,0.343-0.153,0.343-0.343S13.575,8.58,13.385,8.58z"/>
	<path id="Path_104" fill="#FFFFFF" d="M4.805,6.52h3.432c0.189,0,0.343-0.153,0.343-0.343S8.426,5.834,8.237,5.834H4.805
		c-0.189,0-0.343,0.153-0.343,0.343S4.616,6.52,4.805,6.52z"/>
	<path id="Path_105" fill="#FFFFFF" d="M13.385,11.325h-8.58c-0.189,0-0.343,0.153-0.343,0.343s0.153,0.343,0.343,0.343h8.58
		c0.189,0,0.343-0.153,0.343-0.343S13.575,11.325,13.385,11.325z"/>
	<path id="Path_106" fill="#FFFFFF" d="M13.385,14.071h-8.58c-0.189,0-0.343,0.153-0.343,0.343s0.153,0.343,0.343,0.343h8.58
		c0.189,0,0.343-0.153,0.343-0.343S13.575,14.071,13.385,14.071z"/>
	<path id="Path_107" fill="#FFFFFF" d="M13.385,16.817h-8.58c-0.189,0-0.343,0.153-0.343,0.343s0.153,0.343,0.343,0.343h8.58
		c0.189,0,0.343-0.153,0.343-0.343S13.575,16.817,13.385,16.817z"/>
	<path id="Path_108" fill="#073B68" d="M14.757,5.006V0H0v18.876h1.716v1.716h14.757V6.722L14.757,5.006z M11.669,2.888l3.089,3.089
		l0.544,0.544h-3.633V2.888z M0.686,18.189V0.686h13.385v3.634l-2.6-2.601H1.716v16.47H0.686z M2.4,19.905V2.4h8.58v4.8h4.8v12.7
		L2.4,19.905z"/>
</g>
</svg>
