<svg xmlns="http://www.w3.org/2000/svg" xmlns:xlink="http://www.w3.org/1999/xlink" width="63.002" height="63.003" viewBox="0 0 63.002 63.003">
  <defs>
    <linearGradient id="linear-gradient" x1="0.5" x2="0.5" y2="1" gradientUnits="objectBoundingBox">
      <stop offset="0.13" stop-color="#00a9ed"/>
      <stop offset="1" stop-color="#65106b"/>
    </linearGradient>
  </defs>
  <path id="Union_12" data-name="Union 12" d="M21022.352,13756.465v5.237a1.05,1.05,0,0,1-2.1,0v-8.4a.735.735,0,0,1,.02-.1.94.94,0,0,1,.043-.211.783.783,0,0,1,.074-.181,1.048,1.048,0,0,1,.111-.163.713.713,0,0,1,.148-.148c.025-.021.041-.053.074-.074s.057-.021.084-.037a1.3,1.3,0,0,1,.2-.074.974.974,0,0,1,.207-.042.74.74,0,0,1,.09-.021h8.4a1.05,1.05,0,1,1,0,2.1h-6.359a29.117,29.117,0,0,0,23.16,11.553,29.427,29.427,0,0,0,27.9-38.69,1.05,1.05,0,1,1,1.994-.661,31.389,31.389,0,0,1-54.047,29.914Zm17.541-1.677a.732.732,0,1,1,1.465,0,2.2,2.2,0,0,0,4.4,0V13735.3a4.921,4.921,0,0,0-3.666-1.746,4.98,4.98,0,0,0-3.83,1.931c-.016.017-.037.026-.053.043s-.021.037-.043.053a.341.341,0,0,1-.074.042.621.621,0,0,1-.1.059.5.5,0,0,1-.148.042.726.726,0,0,1-.111.021c-.01,0-.021,0-.031,0-.027,0-.053-.016-.08-.016a.548.548,0,0,1-.18-.042,1.222,1.222,0,0,1-.111-.059c-.031-.021-.068-.026-.094-.053a.237.237,0,0,1-.049-.059c-.016-.016-.037-.021-.047-.037a4.764,4.764,0,0,0-7.66,0,.18.18,0,0,1-.027.021,1.287,1.287,0,0,1-.115.095.494.494,0,0,1-.117.074.372.372,0,0,1-.115.037.775.775,0,0,1-.16.032c-.01,0-.02,0-.031,0-.031,0-.059-.016-.09-.016a1.514,1.514,0,0,1-.158-.032,1.094,1.094,0,0,1-.133-.073.918.918,0,0,1-.084-.048.052.052,0,0,1-.021-.026.587.587,0,0,1-.1-.122.394.394,0,0,1-.074-.105.556.556,0,0,1-.037-.127.474.474,0,0,1-.031-.148c0-.011-.006-.021-.006-.031a18.321,18.321,0,0,1,17.574-18.287v-1.481a.73.73,0,1,1,1.459,0v1.481a18.324,18.324,0,0,1,17.574,18.287c0,.01-.006.021-.006.031a1.847,1.847,0,0,1-.068.275c-.021.037-.049.068-.074.105a.752.752,0,0,1-.1.122c-.01.011-.016.021-.021.026a.767.767,0,0,1-.111.063c-.031.016-.057.037-.09.053a.764.764,0,0,1-.264.053.784.784,0,0,1-.3-.063c-.025-.011-.041-.031-.062-.042a.993.993,0,0,1-.18-.138c-.006-.011-.021-.011-.027-.021a4.764,4.764,0,0,0-7.66,0c-.016.021-.037.026-.053.043a.5.5,0,0,1-.041.053.394.394,0,0,1-.074.042.742.742,0,0,1-.1.059.952.952,0,0,1-.148.042.939.939,0,0,1-.109.021c-.012,0-.021,0-.033,0s-.053-.016-.078-.016a.526.526,0,0,1-.18-.042c-.043-.017-.074-.037-.117-.059-.027-.021-.064-.026-.09-.053a.229.229,0,0,1-.047-.059c-.018-.016-.037-.021-.055-.037a4.738,4.738,0,0,0-7.49-.185v19.487a3.66,3.66,0,0,1-7.32,0Zm15.377-20.842a6.264,6.264,0,0,1,4.391-1.856,6.107,6.107,0,0,1,3.57,1.174,16.838,16.838,0,0,0-33.494,0,6.1,6.1,0,0,1,3.57-1.174,6.12,6.12,0,0,0,8.781,0,6.132,6.132,0,0,0,8.791,0A6.271,6.271,0,0,1,21055.27,13733.946Zm-38.727,12.325A31.524,31.524,0,0,1,21046.5,13705a31.187,31.187,0,0,1,24.152,11.532v-5.231a1.048,1.048,0,1,1,2.1,0v8.4a.748.748,0,0,1-.021.1.7.7,0,0,1-.037.207,1.732,1.732,0,0,1-.074.185,1.311,1.311,0,0,1-.111.159,1.028,1.028,0,0,1-.152.153c-.027.021-.043.053-.068.068a.43.43,0,0,1-.092.037.972.972,0,0,1-.2.079.89.89,0,0,1-.205.043c-.027,0-.059.016-.09.016h-8.4a1.05,1.05,0,1,1,0-2.1h6.357a29.122,29.122,0,0,0-23.158-11.547,29.414,29.414,0,0,0-27.957,38.521,1.051,1.051,0,0,1-.672,1.322,1.037,1.037,0,0,1-.328.053A1.052,1.052,0,0,1,21016.543,13746.271Z" transform="translate(-21014.998 -13705)" fill="url(#linear-gradient)"/>
</svg>
