<?xml version="1.0" encoding="utf-8"?>
<!-- Generator: Adobe Illustrator 16.0.0, SVG Export Plug-In . SVG Version: 6.00 Build 0)  -->
<!DOCTYPE svg PUBLIC "-//W3C//DTD SVG 1.1//EN" "http://www.w3.org/Graphics/SVG/1.1/DTD/svg11.dtd">
<svg version="1.1" id="contact" xmlns="http://www.w3.org/2000/svg" xmlns:xlink="http://www.w3.org/1999/xlink" x="0px" y="0px"
	 width="60.004px" height="60.014px" viewBox="0 0 60.004 60.014" enable-background="new 0 0 60.004 60.014" xml:space="preserve">
<g id="request-a-call-back" transform="translate(0)">
	<g id="Group_897" transform="translate(16.9 41.033)">
		<g id="Group_896">
			
				<linearGradient id="Path_15551_1_" gradientUnits="userSpaceOnUse" x1="-177.8497" y1="218.7573" x2="-177.8497" y2="217.7573" gradientTransform="matrix(2.342 0 0 -2.342 417.6987 512.3321)">
				<stop  offset="0" style="stop-color:#00A9E0"/>
				<stop  offset="1" style="stop-color:#801C7D"/>
			</linearGradient>
			<path id="Path_15551" fill="url(#Path_15551_1_)" d="M2.001,0.344c-0.457-0.457-1.199-0.457-1.656,0
				c-0.458,0.457-0.458,1.198,0,1.656c0.457,0.457,1.199,0.457,1.656,0c0.22-0.22,0.343-0.518,0.343-0.827
				C2.344,0.862,2.221,0.564,2.001,0.344z"/>
		</g>
	</g>
	<g id="Group_899" transform="translate(0 0.003)">
		<g id="Group_898">
			
				<linearGradient id="Path_15552_1_" gradientUnits="userSpaceOnUse" x1="-270.5459" y1="419.9982" x2="-270.5459" y2="418.9982" gradientTransform="matrix(60.0032 0 0 -60.0113 16263.6309 25204.627)">
				<stop  offset="0" style="stop-color:#00A9E0"/>
				<stop  offset="1" style="stop-color:#801C7D"/>
			</linearGradient>
			<path id="Path_15552" fill="url(#Path_15552_1_)" d="M58.044,42.671l-8.475-8.474c-2.615-2.613-6.854-2.613-9.47,0l-2.955,2.955
				l0,0l-1.183,1.179l-14.3-14.3l4.136-4.137c2.613-2.615,2.613-6.854,0-9.47l-8.465-8.467c-2.616-2.613-6.854-2.613-9.47,0
				L5.63,4.191c-7.506,7.523-7.506,19.703,0,27.227l8.232,8.233c0.458,0.458,1.2,0.458,1.658,0c0.458-0.457,0.458-1.199,0-1.657l0,0
				l-8.232-8.234C1.295,23.751,0.674,14.235,5.837,7.5l8.9,8.899c0.458,0.458,1.2,0.458,1.658,0c0.458-0.457,0.458-1.2,0-1.657l-9-9
				l2.126-2.127c1.701-1.696,4.454-1.696,6.154,0l8.467,8.467c1.696,1.7,1.696,4.453,0,6.154l-4.965,4.965
				c-0.458,0.457-0.458,1.199,0,1.657c0,0,0,0,0,0l15.958,15.958c0.459,0.458,1.2,0.459,1.658,0.001c0,0,0,0,0-0.001l1.182-1.181
				l14.527,14.529c-6.732,5.173-16.256,4.552-22.259-1.451l-8.353-8.352c-0.458-0.458-1.2-0.458-1.658,0
				c-0.458,0.457-0.458,1.2,0,1.657l8.353,8.352c7.519,7.518,19.708,7.518,27.227,0l2.233-2.233c2.613-2.616,2.613-6.854,0-9.47
				V42.671z M56.386,50.481l-2.124,2.126L39.63,37.979l2.132-2.127c1.698-1.699,4.454-1.699,6.153,0l0,0l8.475,8.475
				c1.699,1.699,1.699,4.454,0,6.153L56.386,50.481z"/>
		</g>
	</g>
	<g id="Group_901" transform="translate(17.241 17.251)">
		<g id="Group_900">
			
				<linearGradient id="Path_15553_1_" gradientUnits="userSpaceOnUse" x1="-178.2884" y1="242.6809" x2="-178.2884" y2="241.6809" gradientTransform="matrix(2.344 0 0 -2.344 419.0791 568.84)">
				<stop  offset="0" style="stop-color:#00A9E0"/>
				<stop  offset="1" style="stop-color:#801C7D"/>
			</linearGradient>
			<path id="Path_15553" fill="url(#Path_15553_1_)" d="M2.001,0.343c-0.458-0.458-1.2-0.458-1.658-0.001
				c-0.458,0.458-0.458,1.2,0,1.658s1.2,0.458,1.658,0c0.22-0.22,0.343-0.518,0.343-0.828S2.221,0.563,2.001,0.343z"/>
		</g>
	</g>
	<g id="Group_903" transform="translate(41.289 4.689)">
		<g id="Group_902">
			
				<linearGradient id="Path_15554_1_" gradientUnits="userSpaceOnUse" x1="-283.4311" y1="386.1902" x2="-283.4311" y2="385.1902" gradientTransform="matrix(8.1295 0 0 -10.9591 2308.2151 4232.2754)">
				<stop  offset="0" style="stop-color:#00A9E0"/>
				<stop  offset="1" style="stop-color:#801C7D"/>
			</linearGradient>
			<path id="Path_15554" fill="url(#Path_15554_1_)" d="M8.118,3.779c-0.157-2.239-2.1-3.927-4.339-3.77C1.65,0.159,0,1.93,0,4.065
				c-0.001,0.647,0.522,1.173,1.17,1.175c0.646,0.001,1.173-0.522,1.174-1.17c0-0.001,0-0.003,0-0.005
				c0.001-0.95,0.771-1.72,1.721-1.72c0.95,0,1.721,0.771,1.72,1.721c0,0.804-0.556,1.499-1.34,1.677
				C3.537,5.94,2.89,6.745,2.893,7.673v2.111c-0.001,0.647,0.522,1.173,1.169,1.175C4.71,10.96,5.236,10.436,5.237,9.79
				c0-0.002,0-0.004,0-0.006V7.957C7.061,7.416,8.26,5.676,8.118,3.779z"/>
		</g>
	</g>
	<g id="Group_905" transform="translate(44.181 17.472)">
		<g id="Group_904">
			
				<linearGradient id="Path_15555_1_" gradientUnits="userSpaceOnUse" x1="-205.327" y1="242.6025" x2="-205.327" y2="241.6015" gradientTransform="matrix(2.346 0 0 -2.346 482.8685 569.1429)">
				<stop  offset="0" style="stop-color:#00A9E0"/>
				<stop  offset="1" style="stop-color:#801C7D"/>
			</linearGradient>
			<path id="Path_15555" fill="url(#Path_15555_1_)" d="M2.001,0.34c-0.458-0.458-1.2-0.459-1.659-0.001
				c-0.458,0.458-0.459,1.2-0.001,1.659C0.799,2.456,1.541,2.457,2,1.999c0.22-0.22,0.344-0.518,0.344-0.829S2.221,0.56,2.001,0.34z
				"/>
		</g>
	</g>
	<g id="Group_907" transform="translate(30.701)">
		<g id="Group_906">
			
				<linearGradient id="Path_15556_1_" gradientUnits="userSpaceOnUse" x1="-296.5818" y1="413.4954" x2="-296.5818" y2="412.4954" gradientTransform="matrix(29.3 0 0 -30.007 8704.5098 12407.7451)">
				<stop  offset="0" style="stop-color:#00A9E0"/>
				<stop  offset="1" style="stop-color:#801C7D"/>
			</linearGradient>
			<path id="Path_15556" fill="url(#Path_15556_1_)" d="M23.439,0H5.861C2.626,0.003,0.004,2.625,0,5.861V19.22
				c0.004,3.235,2.626,5.857,5.861,5.861h4.445l3.431,4.468c0.222,0.289,0.565,0.458,0.931,0.458l0,0
				c0.364-0.001,0.708-0.172,0.93-0.462l3.399-4.465h4.442c3.235-0.004,5.857-2.626,5.861-5.861V5.861
				C29.297,2.625,26.674,0.003,23.439,0z M26.957,19.22L26.957,19.22c-0.003,1.941-1.576,3.514-3.517,3.516H18.42
				c-0.366,0.001-0.711,0.172-0.933,0.463l-2.826,3.708l-2.85-3.712c-0.222-0.288-0.565-0.458-0.931-0.458H5.858
				c-1.941-0.001-3.515-1.574-3.517-3.516V5.861c0.002-1.94,1.575-3.514,3.517-3.516h17.581c1.941,0.002,3.514,1.575,3.516,3.516
				L26.957,19.22z"/>
		</g>
	</g>
</g>
</svg>
