<?xml version="1.0" encoding="utf-8"?>
<!-- Generator: Adobe Illustrator 14.0.0, SVG Export Plug-In . SVG Version: 6.00 Build 43363)  -->
<!DOCTYPE svg PUBLIC "-//W3C//DTD SVG 1.1//EN" "http://www.w3.org/Graphics/SVG/1.1/DTD/svg11.dtd">
<svg version="1.1" id="file_1_" xmlns="http://www.w3.org/2000/svg" xmlns:xlink="http://www.w3.org/1999/xlink" x="0px" y="0px"
	 width="46px" height="60px" viewBox="0 0 46 60" enable-background="new 0 0 46 60" xml:space="preserve">
<path id="Path_15927" fill="#FFFFFF" d="M32.557,22.622c-5.82-0.002-10.542,4.716-10.544,10.537
	c-0.003,5.821,4.716,10.542,10.536,10.545c5.821,0.003,10.543-4.716,10.545-10.537c0-0.002,0-0.005,0-0.008
	C43.086,27.344,38.373,22.631,32.557,22.622z M32.557,41.788c-4.763,0-8.625-3.86-8.625-8.625c0-4.763,3.862-8.625,8.625-8.625
	c4.762,0,8.623,3.859,8.624,8.62C41.178,37.921,37.32,41.782,32.557,41.788z"/>
<path id="Path_15928" fill="#FFFFFF" d="M31.6,47.537h-6.711c-0.527,0.002-0.955,0.431-0.957,0.959v6.708H2.851V13.039H31.6v7.667
	h1.916v-7.667c-0.002-1.058-0.857-1.915-1.916-1.916H2.851c-1.057,0.001-1.915,0.858-1.916,1.916v42.165
	c0,1.06,0.858,1.916,1.916,1.916h24.915c0.254,0.001,0.498-0.103,0.678-0.28l4.791-4.791c0.182-0.179,0.281-0.423,0.28-0.678v-5.749
	H31.6V47.537z M31.6,50.973l-4.23,4.23h-1.516v-5.75h5.75L31.6,50.973z"/>
<path id="Path_15929" fill="#FFFFFF" d="M27.766,22.623V19.75c-0.001-0.529-0.428-0.958-0.957-0.958H7.643
	c-0.529,0-0.958,0.429-0.958,0.958v11.499c0,0.528,0.429,0.958,0.958,0.958h12.458v-1.92h-11.5v-9.581H25.85v1.917H27.766z"/>
<path id="Path_15930" fill="#FFFFFF" d="M6.685,36.038h9.583v1.917H6.685V36.038z"/>
<path id="Path_15931" fill="#FFFFFF" d="M18.184,36.038h1.918v1.917h-1.918V36.038z"/>
<path id="Path_15932" fill="#FFFFFF" d="M6.685,41.788h5.75v1.917h-5.75V41.788z"/>
<path id="Path_15933" fill="#FFFFFF" d="M14.35,41.788h9.582v1.917H14.35V41.788z"/>
<path id="Path_15934" fill="#FFFFFF" d="M6.685,47.537h9.583v1.918H6.685V47.537z"/>
<path id="Path_15935" fill="#FFFFFF" d="M18.184,47.537h3.834v1.918h-3.834V47.537z"/>
<path id="Path_15936" fill="#FFFFFF" d="M33.515,34.682v-6.31H31.6v6.31L29.4,32.484l-1.354,1.354l3.833,3.833
	c0.373,0.374,0.98,0.375,1.355,0.001c0,0,0,0,0-0.001l3.832-3.833l-1.354-1.354L33.515,34.682z"/>
</svg>
