<svg id="_24-hours" data-name="24-hours" xmlns="http://www.w3.org/2000/svg" width="62.986" height="62.986" viewBox="0 0 62.986 62.986">
  <g id="Group_1566" data-name="Group 1566">
    <g id="Group_1565" data-name="Group 1565">
      <path id="Path_16327" data-name="Path 16327" d="M339.949,293H336.8V273.055a1.05,1.05,0,0,0-1.91-.6l-14.7,21a1.05,1.05,0,0,0,.86,1.651H334.7v3.149a1.05,1.05,0,1,0,2.1,0V295.1h3.149a1.05,1.05,0,0,0,0-2.1Zm-5.249,0H323.068L334.7,276.385Z" transform="translate(-278.012 -236.313)" fill="#147db2"/>
      <path id="Path_16328" data-name="Path 16328" d="M223.747,297.183H211.318l11.555-13.606a1.13,1.13,0,0,0,.073-.1,7.3,7.3,0,0,0-1.648-9.914,8.4,8.4,0,0,0-13.3,6.821,1.05,1.05,0,1,0,2.1,0,6.3,6.3,0,0,1,9.973-5.117,5.183,5.183,0,0,1,1.155,7L208.25,297.553a1.05,1.05,0,0,0,.8,1.729h14.7a1.05,1.05,0,0,0,0-2.1Z" transform="translate(-180.706 -236.296)" fill="#147db2"/>
      <path id="Path_16329" data-name="Path 16329" d="M28.367,55.658a1.05,1.05,0,0,0-1.009-1.089h0A26.213,26.213,0,0,1,2.136,29.394H6.3a1.05,1.05,0,1,0,0-2.1H2.136A26.181,26.181,0,0,1,27.294,2.137V5.249a1.05,1.05,0,0,0,2.1,0V2.137a26.2,26.2,0,0,1,25.144,24.67l-4.094-4.094A1.05,1.05,0,0,0,48.959,24.2l5.86,5.86a1.032,1.032,0,0,0,.414.3,1.2,1.2,0,0,0,.125.03,1.039,1.039,0,0,0,.223.054h.06a1.012,1.012,0,0,0,.235-.046A.988.988,0,0,0,56,30.372a1.034,1.034,0,0,0,.379-.237l5.94-5.938a1.05,1.05,0,0,0-1.484-1.484l-4.2,4.193A28.3,28.3,0,0,0,28.418.015C28.392.014,28.37,0,28.344,0s-.048.014-.075.015A28.294,28.294,0,0,0,.015,28.269c0,.026-.015.048-.015.075s.014.048.015.075A28.318,28.318,0,0,0,27.279,56.668h.039A1.05,1.05,0,0,0,28.367,55.658Z"/>
      <path id="Path_16330" data-name="Path 16330" d="M174.094,106.485a1.05,1.05,0,0,0-1.484,0l-11.281,11.28a3.288,3.288,0,0,0-2.678,0l-5.341-5.341a1.05,1.05,0,0,0-1.484,1.484l5.331,5.331a3.143,3.143,0,1,0,5.668,0l11.27-11.27A1.05,1.05,0,0,0,174.094,106.485Zm-13.361,14.846h0a1.074,1.074,0,0,1-1.484,0,1.05,1.05,0,1,1,1.485,0Z" transform="translate(-131.646 -92.245)"/>
    </g>
  </g>
</svg>
