<?xml version="1.0" encoding="utf-8"?>
<!-- Generator: Adobe Illustrator 14.0.0, SVG Export Plug-In . SVG Version: 6.00 Build 43363)  -->
<!DOCTYPE svg PUBLIC "-//W3C//DTD SVG 1.1//EN" "http://www.w3.org/Graphics/SVG/1.1/DTD/svg11.dtd">
<svg version="1.1" id="house" xmlns="http://www.w3.org/2000/svg" xmlns:xlink="http://www.w3.org/1999/xlink" x="0px" y="0px"
	 width="65px" height="65px" viewBox="7.888 2.691 65 65" enable-background="new 7.888 2.691 65 65" xml:space="preserve">
<g id="Group_1079" transform="translate(0 0)">
	<g id="Group_1078" transform="translate(0 0)">
		<path id="Path_15760" fill="#FFFFFF" d="M22.753,44.703v9.671c0,0.668,0.541,1.209,1.208,1.209l0,0h9.671
			c0.667,0,1.209-0.541,1.209-1.209l0,0v-9.671c0-0.668-0.542-1.209-1.209-1.209l0,0h-9.671
			C23.295,43.494,22.753,44.035,22.753,44.703L22.753,44.703z M30.005,45.911h2.418v2.419h-2.418V45.911z M30.005,50.747h2.418
			v2.418h-2.418V50.747z M25.17,45.911h2.421v2.419H25.17V45.911z M25.17,50.747h2.421v2.418H25.17V50.747z"/>
		<path id="Path_15761" fill="#FFFFFF" d="M70.126,31.331H53.194V20.528l0.744,0.429c0.581,0.328,1.318,0.123,1.646-0.459
			c0.324-0.573,0.13-1.3-0.438-1.635L37.005,8.392c-0.374-0.216-0.835-0.216-1.209,0L17.655,18.865
			c-0.581,0.329-0.786,1.066-0.458,1.647c0.328,0.582,1.066,0.787,1.647,0.458c0.007-0.004,0.014-0.008,0.021-0.012l0.745-0.43
			v15.919l-9.558,5.519c-0.575,0.339-0.766,1.081-0.427,1.655c0.335,0.566,1.063,0.763,1.635,0.438l0.745-0.431v17.316
			c0,0.668,0.542,1.208,1.209,1.208l0,0h54.354c0.668,0,1.209-0.54,1.209-1.208l0,0V44.223h1.349c0.667,0,1.209-0.541,1.209-1.21
			l0,0V32.54C71.335,31.872,70.793,31.331,70.126,31.331L70.126,31.331z M56.83,33.749h4.835v8.056H56.83V33.749z M54.413,33.749
			v8.056h-4.836v-8.056H54.413z M22.026,28.232h3.755c0.667-0.017,1.195-0.572,1.178-1.239c-0.017-0.644-0.535-1.162-1.178-1.178
			h-3.755v-6.682l14.375-8.299l14.374,8.299v12.197H28.796c-0.048,0-0.096,0.003-0.144,0.009l-0.036,0.005
			c-0.038,0.005-0.077,0.013-0.111,0.021l-0.035,0.009c-0.043,0.012-0.086,0.026-0.129,0.043h-0.007
			c-0.045,0.019-0.09,0.041-0.133,0.065l-0.01,0.005l-6.167,3.561L22.026,28.232z M39.907,33.749v3.811l-6.6-3.811H39.907z
			 M43.173,59.737h-28.75V42.234l14.374-8.299l14.375,8.3L43.173,59.737z M42.325,38.955v-5.21h4.835v8.002L42.325,38.955z
			 M66.359,59.737H45.59v-2.376H66.36L66.359,59.737z M66.359,54.94H45.59V43.63l0.744,0.431l0.009,0.005
			c0.044,0.024,0.088,0.047,0.134,0.065l0.016,0.007c0.039,0.015,0.078,0.027,0.118,0.039l0.044,0.012
			c0.031,0.007,0.064,0.014,0.098,0.02l0.046,0.006c0.04,0.005,0.081,0.008,0.121,0.009h19.44v2.294H61.4
			c-0.668,0.016-1.195,0.571-1.179,1.239c0.017,0.643,0.534,1.16,1.179,1.178h4.959V54.94z M68.916,41.805h-4.834v-8.056h4.834
			V41.805z"/>
		<path id="Path_15762" fill="#FFFFFF" d="M33.68,28.235h5.44c0.667,0,1.208-0.541,1.208-1.208l0,0v-6.989
			c0-0.667-0.542-1.209-1.208-1.209l0,0h-5.44c-0.667,0-1.208,0.542-1.208,1.209l0,0v6.988
			C32.471,27.693,33.012,28.235,33.68,28.235C33.68,28.235,33.68,28.235,33.68,28.235z M34.889,21.248h3.022v4.571h-3.022V21.248z"
			/>
		<path id="Path_15763" fill="#FFFFFF" d="M57.927,46.517h-0.028c-0.668-0.017-1.223,0.511-1.24,1.178
			c-0.017,0.668,0.511,1.222,1.179,1.239c0.021,0.001,0.041,0.001,0.062,0h0.028c0.667,0.018,1.222-0.512,1.238-1.178
			c0.017-0.668-0.511-1.223-1.179-1.239C57.968,46.517,57.947,46.517,57.927,46.517z"/>
		<path id="Path_15764" fill="#FFFFFF" d="M29.25,28.233h0.027c0.668-0.017,1.196-0.571,1.179-1.239
			c-0.017-0.644-0.534-1.162-1.179-1.178H29.25c-0.668-0.017-1.223,0.51-1.239,1.178c-0.017,0.667,0.511,1.222,1.178,1.239
			C29.209,28.233,29.229,28.233,29.25,28.233z"/>
	</g>
</g>
</svg>
