<?xml version="1.0" encoding="utf-8"?>
<!-- Generator: Adobe Illustrator 16.0.0, SVG Export Plug-In . SVG Version: 6.00 Build 0)  -->
<!DOCTYPE svg PUBLIC "-//W3C//DTD SVG 1.1//EN" "http://www.w3.org/Graphics/SVG/1.1/DTD/svg11.dtd">
<svg version="1.1" id="Layer_1" xmlns="http://www.w3.org/2000/svg" xmlns:xlink="http://www.w3.org/1999/xlink" x="0px" y="0px"
	 width="65.007px" height="64.493px" viewBox="0 0 65.007 64.493" enable-background="new 0 0 65.007 64.493" xml:space="preserve">
<g id="Page-1" transform="translate(-0.017 0)">
	<g id="_033---Insurance" transform="translate(0.017 0.001)">
		
			<linearGradient id="Shape_1_" gradientUnits="userSpaceOnUse" x1="-264.5645" y1="419.4799" x2="-264.5645" y2="418.4799" gradientTransform="matrix(33.608 0 0 -42.0088 8924.9648 17622.8457)">
			<stop  offset="0.13" style="stop-color:#00A9ED"/>
			<stop  offset="1" style="stop-color:#65106B"/>
		</linearGradient>
		<path id="Shape" fill="url(#Shape_1_)" d="M49.664,7.982L33.91,1.087c-0.269-0.117-0.572-0.117-0.841,0L17.315,7.982
			c-0.382,0.167-0.63,0.545-0.63,0.962v16.489c0.005,3.706,1.786,7.185,4.789,9.357l10.888,7.852c0.673,0.488,1.581,0.488,2.255,0
			l10.887-7.852c3.004-2.171,4.783-5.65,4.789-9.356V8.944C50.292,8.527,50.044,8.149,49.664,7.982z M48.193,25.435
			c-0.006,3.031-1.461,5.876-3.918,7.653l-10.79,7.779l-10.782-7.779c-2.457-1.777-3.913-4.622-3.918-7.653V9.632l14.7-6.433
			l14.7,6.436L48.193,25.435z"/>
		
			<linearGradient id="Shape-2_1_" gradientUnits="userSpaceOnUse" x1="-261.9204" y1="416.7505" x2="-261.9204" y2="415.7505" gradientTransform="matrix(25.207 0 0 -32.4492 6635.7095 13528.8418)">
			<stop  offset="0.13" style="stop-color:#00A9ED"/>
			<stop  offset="1" style="stop-color:#65106B"/>
		</linearGradient>
		<path id="Shape-2" fill="url(#Shape-2_1_)" d="M33.069,5.673L21.516,10.73c-0.383,0.167-0.63,0.545-0.63,0.962v13.743
			c0.003,2.356,1.136,4.569,3.046,5.949l8.943,6.451c0.367,0.266,0.863,0.266,1.228,0l8.943-6.451
			c1.91-1.38,3.043-3.593,3.047-5.949V11.692c0-0.417-0.248-0.795-0.631-0.962L33.91,5.673C33.641,5.556,33.337,5.556,33.069,5.673z
			 M43.992,12.379v13.057c-0.004,1.682-0.813,3.26-2.176,4.245l-8.33,6.006l-8.328-6.006c-1.362-0.985-2.169-2.563-2.172-4.245
			V12.379l10.5-4.601L43.992,12.379z"/>
		
			<linearGradient id="Shape-3_1_" gradientUnits="userSpaceOnUse" x1="-263.0898" y1="417.7661" x2="-263.0898" y2="416.7661" gradientTransform="matrix(28.341 0 0 -35.45 7472.3984 14838.3828)">
			<stop  offset="0.13" style="stop-color:#00A9ED"/>
			<stop  offset="1" style="stop-color:#65106B"/>
		</linearGradient>
		<path id="Shape-3" fill="url(#Shape-3_1_)" d="M10.683,35.867l-2.271-5.308c-0.747-1.692-2.725-2.459-4.417-1.712
			s-2.459,2.725-1.712,4.417l4.119,9.055c0.556,1.225,1.329,2.34,2.281,3.291l6.473,6.475c-0.364,0.385-0.567,0.896-0.569,1.428v8.4
			c0,1.158,0.94,2.1,2.1,2.1h11.551c1.16,0,2.1-0.941,2.1-2.1v-8.4c0-1.16-0.94-2.1-2.1-2.1v-1.955
			c0.033-2.488-0.777-4.912-2.3-6.879c-0.893-1.176-2.109-2.063-3.5-2.555c-2.212-0.928-4.247-2.234-6.013-3.857
			C14.785,34.814,12.454,34.693,10.683,35.867z M28.238,61.917H16.683v-8.4h11.555V61.917z M24.297,43.888
			c1.224,1.596,1.873,3.557,1.841,5.568v1.953h-8.685l-7.286-7.285c-0.774-0.773-1.402-1.68-1.854-2.676l-4.116-9.054
			c-0.278-0.631,0.008-1.368,0.639-1.646s1.369,0.008,1.647,0.639l2.349,5.48c0.625,1.461,1.524,2.789,2.651,3.91l4.8,4.801
			c0.41,0.41,1.075,0.41,1.485,0s0.41-1.074,0-1.484l0,0l-4.8-4.801c-0.483-0.48-0.918-1.008-1.299-1.574
			c1.008-0.775,2.418-0.752,3.4,0.057c1.963,1.801,4.232,3.238,6.7,4.242C22.775,42.382,23.654,43.033,24.297,43.888z"/>
		
			<linearGradient id="Shape-4_1_" gradientUnits="userSpaceOnUse" x1="-187.8628" y1="243.4057" x2="-187.8628" y2="242.4057" gradientTransform="matrix(3.15 0 0 -2.1 616.3312 567.8137)">
			<stop  offset="0.13" style="stop-color:#00A9ED"/>
			<stop  offset="1" style="stop-color:#65106B"/>
		</linearGradient>
		<path id="Shape-4" fill="url(#Shape-4_1_)" d="M25.087,56.662h-1.05c-0.58,0-1.05,0.471-1.049,1.051
			c0,0.58,0.47,1.049,1.049,1.049h1.05c0.58,0.002,1.051-0.469,1.051-1.049s-0.469-1.051-1.049-1.051
			C25.088,56.662,25.088,56.662,25.087,56.662z"/>
		
			<linearGradient id="Shape-5_1_" gradientUnits="userSpaceOnUse" x1="-263.1011" y1="417.7924" x2="-263.1011" y2="416.7924" gradientTransform="matrix(28.3747 0 0 -35.5331 7516.2397 14873.9209)">
			<stop  offset="0.13" style="stop-color:#00A9ED"/>
			<stop  offset="1" style="stop-color:#65106B"/>
		</linearGradient>
		<path id="Shape-5" fill="url(#Shape-5_1_)" d="M60.578,42.316l4.115-9.055c0.789-1.671,0.074-3.667-1.598-4.457
			s-3.666-0.075-4.457,1.597c-0.025,0.053-0.049,0.106-0.07,0.16l-2.266,5.288c-1.777-1.166-4.107-1.039-5.746,0.316
			c-1.768,1.623-3.803,2.928-6.016,3.855c-1.391,0.492-2.607,1.379-3.5,2.553c-1.523,1.969-2.334,4.395-2.301,6.883v1.959
			c-1.16,0-2.1,0.941-2.1,2.1l0,0v8.4c0,1.16,0.939,2.1,2.1,2.1h11.553c1.16,0,2.1-0.939,2.1-2.1v-8.4
			c0-0.531-0.203-1.041-0.568-1.428l6.473-6.475C59.25,44.662,60.023,43.544,60.578,42.316z M50.292,61.915H38.74v-8.4h11.553
			V61.915z M49.525,51.415h-8.686v-1.959c-0.031-2.01,0.617-3.971,1.842-5.566c0.641-0.855,1.518-1.508,2.521-1.875
			c2.469-1.004,4.736-2.441,6.699-4.242c0.982-0.814,2.396-0.844,3.408-0.066c-0.379,0.57-0.814,1.102-1.299,1.586l-4.801,4.801
			c-0.41,0.41-0.41,1.074,0,1.484s1.076,0.41,1.484,0l0,0l4.801-4.801c1.123-1.121,2.021-2.449,2.645-3.908l2.348-5.481
			c0.279-0.63,1.016-0.916,1.646-0.637c0.631,0.278,0.916,1.016,0.637,1.646l-4.115,9.054c-0.451,0.996-1.08,1.902-1.854,2.676
			L49.525,51.415z"/>
		
			<linearGradient id="Shape-6_1_" gradientUnits="userSpaceOnUse" x1="-187.8618" y1="243.4067" x2="-187.8618" y2="242.4067" gradientTransform="matrix(3.15 0 0 -2.1 634.1842 567.8137)">
			<stop  offset="0.13" style="stop-color:#00A9ED"/>
			<stop  offset="1" style="stop-color:#65106B"/>
		</linearGradient>
		<path id="Shape-6" fill="url(#Shape-6_1_)" d="M42.941,56.662H41.89c-0.58,0-1.049,0.471-1.049,1.051
			c0.002,0.58,0.471,1.049,1.049,1.049h1.051c0.58,0.002,1.051-0.469,1.051-1.049s-0.469-1.051-1.049-1.051H42.941z"/>
		
			<linearGradient id="Shape-7_1_" gradientUnits="userSpaceOnUse" x1="-254.3662" y1="402.271" x2="-254.3662" y2="401.271" gradientTransform="matrix(14.7038 0 0 -14.7017 3773.6235 5927.6807)">
			<stop  offset="0.13" style="stop-color:#00A9ED"/>
			<stop  offset="1" style="stop-color:#65106B"/>
		</linearGradient>
		<path id="Shape-7" fill="url(#Shape-7_1_)" d="M27.817,23.264c-0.464-0.348-1.122-0.254-1.47,0.21
			c-0.348,0.464-0.254,1.122,0.21,1.47l4.2,3.151c0.182,0.137,0.403,0.21,0.63,0.21c0.059,0,0.118-0.005,0.177-0.015
			c0.286-0.048,0.539-0.212,0.7-0.453l8.399-12.601c0.322-0.482,0.191-1.135-0.291-1.457c-0.482-0.321-1.135-0.191-1.457,0.291
			L31.13,25.751L27.817,23.264z"/>
	</g>
</g>
</svg>
