<svg id="Group_2955" data-name="Group 2955" xmlns="http://www.w3.org/2000/svg" xmlns:xlink="http://www.w3.org/1999/xlink" width="50.258" height="25.813" viewBox="0 0 50.258 25.813">
  <defs>
    <linearGradient id="linear-gradient" x1="0.065" y1="0.968" x2="0.883" y2="0.303" gradientUnits="objectBoundingBox">
      <stop offset="0.13" stop-color="#00a9ed"/>
      <stop offset="1" stop-color="#65106b"/>
    </linearGradient>
    <linearGradient id="linear-gradient-2" x1="-0.276" y1="1.487" x2="1.06" y2="0.048" xlink:href="#linear-gradient"/>
    <linearGradient id="linear-gradient-3" x1="-5.737" y1="6.027" x2="-1.588" y2="2.35" xlink:href="#linear-gradient"/>
    <linearGradient id="linear-gradient-4" x1="-0.978" y1="1.809" x2="3.174" y2="-1.868" xlink:href="#linear-gradient"/>
  </defs>
  <g id="Group_2954" data-name="Group 2954">
    <path id="Path_18464" data-name="Path 18464" d="M583.664,428.539a3.133,3.133,0,0,1-3.124-2.978l-6.182,1.288a7.653,7.653,0,0,1-4.541,1.529,7.562,7.562,0,0,1-4.531-1.526l-6.2-1.29a3.13,3.13,0,1,1-6.053-1.264l-7.153-1.49a1.5,1.5,0,0,1,.3-2.97H561.8c0-.044,0-.085,0-.129a8.955,8.955,0,0,1,1.493-5.02h-4.882a1.5,1.5,0,0,1,0-3h8.366a7.369,7.369,0,0,1,1.544-.5v-6.966a1.5,1.5,0,1,1,3,0v6.966a7.363,7.363,0,0,1,1.544.5h8.363a1.5,1.5,0,1,1,0,3h-4.879a8.96,8.96,0,0,1,1.493,5.025l0,.124h15.614a1.5,1.5,0,0,1,1.488,1.351,1.481,1.481,0,0,1-1.193,1.619l-7.148,1.49a3.129,3.129,0,0,1-2.927,4.241Z" transform="translate(-544.684 -402.726)" fill="url(#linear-gradient)"/>
    <g id="Group_2953" data-name="Group 2953" transform="translate(0.685 0.684)">
      <path id="Path_18465" data-name="Path 18465" d="M573.614,406.688H550.8a.816.816,0,0,0,0,1.631h22.814a.816.816,0,1,0,0-1.631Zm0,0" transform="translate(-537.763 -397.726)" fill="#fff"/>
      <path id="Path_18466" data-name="Path 18466" d="M555.484,403.007a.814.814,0,0,0-.813.816v8.147H556.3v-8.147a.816.816,0,0,0-.816-.816Zm0,0" transform="translate(-531.04 -403.007)" fill="#fff"/>
      <g id="Group_2950" data-name="Group 2950" transform="translate(16.867 8.073)">
        <path id="Path_18467" data-name="Path 18467" d="M564.444,408.7a7.345,7.345,0,0,0-2.121-1.58,6.756,6.756,0,0,0-5.994,0,7.377,7.377,0,0,0-2.12,1.58,8.293,8.293,0,0,0-2.216,5.7c0,.275.017.545.042.813a8.573,8.573,0,0,0,1.215,3.642,7.666,7.666,0,0,0,1.833,2.045h.007a6.8,6.8,0,0,0,4.236,1.483,6.915,6.915,0,0,0,4.253-1.483,8.018,8.018,0,0,0,2.722-4.056,7.45,7.45,0,0,0,.317-1.631c.027-.268.044-.538.044-.813a8.3,8.3,0,0,0-2.218-5.7Zm-1.858,5.7h-6.52a.815.815,0,0,1-.813-.816,4.075,4.075,0,1,1,8.149,0,.817.817,0,0,1-.816.816Zm0,0" transform="translate(-551.749 -406.181)" fill="#fff"/>
        <path id="Path_18468" data-name="Path 18468" d="M559.472,422.777a7.1,7.1,0,0,1-4.327-1.485l-.073-.049a8.024,8.024,0,0,1-1.889-2.111,8.85,8.85,0,0,1-1.249-3.747c-.027-.314-.041-.579-.041-.838a8.5,8.5,0,0,1,2.281-5.873,7.651,7.651,0,0,1,2.189-1.631,7.059,7.059,0,0,1,6.213,0,7.729,7.729,0,0,1,2.191,1.634h0a8.525,8.525,0,0,1,2.281,5.873c0,.258-.015.523-.041.835a8.028,8.028,0,0,1-.329,1.68,8.207,8.207,0,0,1-2.8,4.178A7.2,7.2,0,0,1,559.472,422.777Zm-4.161-1.975h0l.075.056a6.618,6.618,0,0,0,4.086,1.429,6.693,6.693,0,0,0,4.1-1.432,7.737,7.737,0,0,0,2.639-3.932,7.481,7.481,0,0,0,.307-1.583c.027-.3.041-.55.041-.794a8.015,8.015,0,0,0-2.152-5.537,7.11,7.11,0,0,0-2.05-1.529,6.561,6.561,0,0,0-5.778,0,7.153,7.153,0,0,0-2.045,1.529,8,8,0,0,0-2.152,5.534c0,.246.012.494.039.794a8.374,8.374,0,0,0,1.178,3.54A7.46,7.46,0,0,0,555.312,420.8Zm7.419-6.009h-6.52a1.061,1.061,0,0,1-1.057-1.062,4.318,4.318,0,1,1,8.636,0A1.062,1.062,0,0,1,562.73,414.794Zm-3.26-4.891a3.833,3.833,0,0,0-3.827,3.83.57.57,0,0,0,.567.572h6.52a.573.573,0,0,0,.57-.572A3.835,3.835,0,0,0,559.47,409.9Z" transform="translate(-551.893 -406.323)" fill="#edeeef"/>
      </g>
      <path id="Path_18469" data-name="Path 18469" d="M561.481,411.768a.817.817,0,0,1-.816.816h-6.52a.815.815,0,0,1-.813-.816,4.075,4.075,0,1,1,8.149,0Zm0,0" transform="translate(-532.961 -396.285)" fill="url(#linear-gradient-2)"/>
      <path id="Path_18470" data-name="Path 18470" d="M563.285,413a1.63,1.63,0,1,1-1.631-1.629A1.63,1.63,0,0,1,563.285,413Zm0,0" transform="translate(-523.358 -391.003)" fill="url(#linear-gradient-3)"/>
      <g id="Group_2951" data-name="Group 2951" transform="translate(35.607 19.309)">
        <path id="Path_18471" data-name="Path 18471" d="M562.134,415.93a2.446,2.446,0,1,1,2.445-2.447,2.44,2.44,0,0,1-2.445,2.447Zm0-3.26a.814.814,0,1,0,.816.813.814.814,0,0,0-.816-.813Zm0,0" transform="translate(-559.445 -410.792)" fill="#fff"/>
        <path id="Path_18472" data-name="Path 18472" d="M562.278,416.317a2.689,2.689,0,1,1,2.69-2.685A2.68,2.68,0,0,1,562.278,416.317Zm0-4.886a2.2,2.2,0,1,0,.845.168A2.189,2.189,0,0,0,562.276,411.43Zm0,3.26a1.067,1.067,0,1,1,.407-.083A1.041,1.041,0,0,1,562.278,414.69Zm0-1.629a.57.57,0,0,0-.4.971.57.57,0,1,0,.4-.971Z" transform="translate(-559.59 -410.938)" fill="#edeeef"/>
      </g>
      <path id="Path_18473" data-name="Path 18473" d="M551.9,413a1.629,1.629,0,1,1-1.631-1.629A1.63,1.63,0,0,1,551.9,413Zm0,0" transform="translate(-539.683 -391.003)" fill="url(#linear-gradient-4)"/>
      <g id="Group_2952" data-name="Group 2952" transform="translate(7.902 19.309)">
        <path id="Path_18474" data-name="Path 18474" d="M550.755,415.93a2.445,2.445,0,1,1,2.447-2.447,2.442,2.442,0,0,1-2.447,2.447Zm0-3.26a.814.814,0,1,0,.816.813.814.814,0,0,0-.816-.813Zm0,0" transform="translate(-548.066 -410.792)" fill="#fff"/>
        <path id="Path_18475" data-name="Path 18475" d="M550.9,416.317a2.689,2.689,0,1,1,2.69-2.685A2.681,2.681,0,0,1,550.9,416.317Zm0-4.886a2.2,2.2,0,1,0,.842.168A2.166,2.166,0,0,0,550.9,411.43Zm0,3.26a1.067,1.067,0,1,1,.406-.083A1.04,1.04,0,0,1,550.9,414.69Zm0-1.629a.564.564,0,0,0-.524.351.57.57,0,1,0,.524-.351Z" transform="translate(-548.211 -410.938)" fill="#edeeef"/>
      </g>
      <path id="Path_18476" data-name="Path 18476" d="M565.166,415.723l-7.275-1.514-4.183-.872-8.093-1.687a.816.816,0,0,1,.165-1.614h16.337a8.573,8.573,0,0,0,1.215,3.642,7.665,7.665,0,0,0,1.833,2.045Zm0,0" transform="translate(-544.965 -392.924)" fill="#fff"/>
      <path id="Path_18477" data-name="Path 18477" d="M576.936,410.77a.8.8,0,0,1-.645.879l-8.091,1.687-4.18.872-7.268,1.514a8.018,8.018,0,0,0,2.722-4.056,7.45,7.45,0,0,0,.317-1.631H576.13a.815.815,0,0,1,.806.735Zm0,0" transform="translate(-528.054 -392.924)" fill="#fff"/>
    </g>
  </g>
</svg>
