<svg id="Group_2943" data-name="Group 2943" xmlns="http://www.w3.org/2000/svg" xmlns:xlink="http://www.w3.org/1999/xlink" width="48.622" height="29.923" viewBox="0 0 48.622 29.923">
  <defs>
    <linearGradient id="linear-gradient" x1="-0.056" y1="0.77" x2="0.735" y2="0.134" gradientUnits="objectBoundingBox">
      <stop offset="0.13" stop-color="#00a9ed"/>
      <stop offset="1" stop-color="#65106b"/>
    </linearGradient>
    <linearGradient id="linear-gradient-2" x1="0.138" y1="1.012" x2="4.047" y2="-4.52" xlink:href="#linear-gradient"/>
    <linearGradient id="linear-gradient-3" x1="-0.108" y1="0.788" x2="0.963" y2="0.11" xlink:href="#linear-gradient"/>
    <linearGradient id="linear-gradient-4" x1="-0.128" y1="1.488" x2="0.777" y2="0.052" xlink:href="#linear-gradient"/>
    <linearGradient id="linear-gradient-5" x1="0.029" y1="1.629" x2="5.117" y2="-10.568" xlink:href="#linear-gradient"/>
  </defs>
  <g id="Group_2941" data-name="Group 2941">
    <g id="Group_2940" data-name="Group 2940">
      <path id="Path_18447" data-name="Path 18447" d="M459.345,413.11a3.271,3.271,0,0,0-5.688-.2h-2.639a9.2,9.2,0,0,0-1.914-7.57A8.47,8.47,0,0,0,442.392,402a11.561,11.561,0,0,0-6.99,2.693,11.542,11.542,0,0,0-6.99-2.693,8.468,8.468,0,0,0-6.71,3.338,9.023,9.023,0,0,0-2,6.776c.472,6.038,5.571,12.641,15.151,19.631a.952.952,0,0,0,1.108,0c7.333-5.352,12.074-10.533,14.087-15.4h3.613a3.261,3.261,0,0,0,2.34,1.519,3.908,3.908,0,0,0,.446.029h0a3.274,3.274,0,0,0,2.9-4.784Z" transform="translate(-411.092 -402)" fill="url(#linear-gradient)"/>
      <rect id="Rectangle_831" data-name="Rectangle 831" width="8.11" height="3.438" rx="0.386" transform="translate(0 10.906)" fill="url(#linear-gradient-2)"/>
    </g>
    <path id="Path_18448" data-name="Path 18448" d="M440.774,414.681l-1.831-3.2-3.713,9.286a1.242,1.242,0,0,1-1.159.784h-.056a1.251,1.251,0,0,1-1.142-.874l-2.291-7.45-.9,1.49a1.256,1.256,0,0,1-1.071.606h-5.451a.47.47,0,0,1-.47-.467v-1.561a.47.47,0,0,1,.47-.467h4.745l1.975-3.292a1.258,1.258,0,0,1,1.069-.606c.051,0,.1,0,.153.01a1.258,1.258,0,0,1,1.042.874l2.074,6.747,3.36-8.4a1.25,1.25,0,0,1,1.071-.784c.032,0,.061,0,.09,0a1.251,1.251,0,0,1,1.086.631l2.756,4.828h6.844c.974-4.853-1.6-7.433-1.6-7.433a7.486,7.486,0,0,0-5.992-3,11.011,11.011,0,0,0-6.99,3,11.011,11.011,0,0,0-6.99-3,7.481,7.481,0,0,0-5.99,3s-8.987,9.013,12.98,25.039c8.341-6.082,12.22-11.156,13.822-15.11h-6.81A1.249,1.249,0,0,1,440.774,414.681Z" transform="translate(-410.539 -401.446)" fill="url(#linear-gradient-3)"/>
    <path id="Path_18449" data-name="Path 18449" d="M456.12,409.782a2.332,2.332,0,0,0-4.268.3H440.475l-2.89-5.062a.778.778,0,0,0-1.4.1l-3.852,9.639-2.469-8.02a.779.779,0,0,0-1.412-.17l-2.108,3.516h-5.013v1.561h5.451a.787.787,0,0,0,.67-.377l1.436-2.4,2.6,8.458a.778.778,0,0,0,.713.543h.037a.781.781,0,0,0,.723-.489l4.073-10.187,2.318,4.051a.779.779,0,0,0,.674.4h11.828a2.333,2.333,0,1,0,4.268-1.86Zm-2.072,1.86a.78.78,0,1,1,.777-.779A.779.779,0,0,1,454.048,411.642Z" transform="translate(-408.703 -398.236)" fill="url(#linear-gradient-4)"/>
    <rect id="Rectangle_832" data-name="Rectangle 832" width="6.232" height="1.56" transform="translate(0.939 11.845)" fill="url(#linear-gradient-5)"/>
  </g>
  <g id="Group_2942" data-name="Group 2942" transform="translate(0.939 0.94)">
    <path id="Path_18450" data-name="Path 18450" d="M441.861,415.319a1.249,1.249,0,0,1-1.086-.638l-1.831-3.2-3.713,9.286a1.242,1.242,0,0,1-1.159.784h-.056a1.251,1.251,0,0,1-1.142-.874l-2.291-7.45-.9,1.49a1.256,1.256,0,0,1-1.071.606h-5.451a.47.47,0,0,1-.47-.467v-1.561a.47.47,0,0,1,.47-.467h4.745l1.975-3.292a1.258,1.258,0,0,1,1.069-.606c.051,0,.1,0,.153.01a1.258,1.258,0,0,1,1.042.874l2.074,6.747,3.36-8.4a1.25,1.25,0,0,1,1.071-.784c.032,0,.061,0,.09,0a1.248,1.248,0,0,1,1.086.633l2.756,4.826h6.844c.974-4.853-1.6-7.433-1.6-7.433a7.486,7.486,0,0,0-5.992-3,11.011,11.011,0,0,0-6.99,3,11.011,11.011,0,0,0-6.99-3,7.489,7.489,0,0,0-5.992,3s-8.984,9.013,12.982,25.039c8.341-6.082,12.22-11.156,13.822-15.11Z" transform="translate(-411.479 -402.386)" fill="#fff"/>
    <path id="Path_18451" data-name="Path 18451" d="M454.048,408.525a2.334,2.334,0,0,0-2.2,1.556H440.475l-2.89-5.062a.778.778,0,0,0-1.4.1l-3.852,9.639-2.469-8.02a.779.779,0,0,0-1.412-.17l-2.108,3.516h-5.013v1.561h5.451a.787.787,0,0,0,.67-.377l1.436-2.4,2.6,8.456a.777.777,0,0,0,.713.545h.037a.781.781,0,0,0,.723-.489l4.073-10.187,2.318,4.051a.779.779,0,0,0,.674.4h11.828a2.334,2.334,0,1,0,2.2-3.116Zm0,3.116a.78.78,0,1,1,.777-.779.779.779,0,0,1-.777.779Zm0,0" transform="translate(-409.642 -399.176)" fill="#fff"/>
    <rect id="Rectangle_833" data-name="Rectangle 833" width="6.232" height="1.56" transform="translate(0 10.906)" fill="#fff"/>
  </g>
</svg>
