<svg xmlns="http://www.w3.org/2000/svg" xmlns:xlink="http://www.w3.org/1999/xlink" width="52.004" height="61.997" viewBox="0 0 52.004 61.997">
  <defs>
    <linearGradient id="linear-gradient" x1="0.5" x2="0.5" y2="1" gradientUnits="objectBoundingBox">
      <stop offset="0.13" stop-color="#00a9ed"/>
      <stop offset="1" stop-color="#65106b"/>
    </linearGradient>
  </defs>
  <path id="Union_14" data-name="Union 14" d="M21029.41,13767a4.376,4.376,0,0,1-1.824-.4,4.612,4.612,0,0,1-1.295-.894l-10-10a4.494,4.494,0,0,1-.893-1.285,4.439,4.439,0,0,1-.4-1.829V13705h52v62Zm-12.408-14.407a2.559,2.559,0,0,0,.043.407H21029v11.954a2.194,2.194,0,0,0,.412.047H21065v-58h-48Zm10,10.991V13755h-8.586Zm7.217-10.584H21029v-8h5.219a11.268,11.268,0,0,1,21.566,0H21061v8h-5.219a11.268,11.268,0,0,1-21.566,0Zm10.785,6a8.687,8.687,0,0,0,8.7-6h-2.109a7.427,7.427,0,0,1-13.18,0h-2.105A8.679,8.679,0,0,0,21045,13759Zm0-4a5.209,5.209,0,0,0,4.188-2h-8.379A5.208,5.208,0,0,0,21045,13755Zm-14-4h28v-4h-28Zm20.588-6h2.109a9.3,9.3,0,0,0-17.395,0h2.105a7.431,7.431,0,0,1,13.18,0Zm-10.779,0h8.379a5.391,5.391,0,0,0-8.379,0Zm-19.812-7v-2h10v2Zm0-4v-2h40v2Zm10-5v-2h30v2Zm-10,0v-2h6v2Zm34-6v-1.666l-2-2.665-2,2.665V13723h-2v-2.332l2.748-3.669-2.748-3.664V13711h2v1.671l2,2.664,2-2.664V13711h2v2.337l-2.748,3.664,2.748,3.669V13723Zm-12,0v-2h-4v2h-2l.031-3.241,2.189-8.761h3.563l2.221,9v3Zm-3.717-4h3.438l-1.5-6h-.434Zm-10.283,4v-10h-4v-2h10v2h-4v10Z" transform="translate(-21014.998 -13705.002)" fill="url(#linear-gradient)"/>
</svg>
