<svg id="taxi" xmlns="http://www.w3.org/2000/svg" xmlns:xlink="http://www.w3.org/1999/xlink" width="36.505" height="28.664" viewBox="0 0 36.505 28.664">
  <defs>
    <linearGradient id="linear-gradient" x1="0.5" x2="0.5" y2="1" gradientUnits="objectBoundingBox">
      <stop offset="0.13" stop-color="#00a9ed"/>
      <stop offset="1" stop-color="#65106b"/>
    </linearGradient>
  </defs>
  <g id="Group_1479" data-name="Group 1479" transform="translate(24.173 10.453)">
    <g id="Group_1478" data-name="Group 1478">
      <path id="Path_16067" data-name="Path 16067" d="M340.964,201.593h-1.306a.613.613,0,0,0,0,1.225h1.306a.613.613,0,0,0,0-1.225Z" transform="translate(-339.045 -201.593)" fill="url(#linear-gradient)"/>
    </g>
  </g>
  <g id="Group_1481" data-name="Group 1481" transform="translate(9.983 15.027)">
    <g id="Group_1480" data-name="Group 1480">
      <path id="Path_16068" data-name="Path 16068" d="M156.284,266.223a1.258,1.258,0,0,0-1-.487h-14a1.266,1.266,0,0,0-1.228,1.573l.327,1.307a1.264,1.264,0,0,0,1.228.959H154.96a1.264,1.264,0,0,0,1.228-.959l.327-1.307A1.258,1.258,0,0,0,156.284,266.223Zm-.958.789L155,268.318a.041.041,0,0,1-.04.031H141.607a.041.041,0,0,1-.04-.031l-.327-1.307a.041.041,0,0,1,.04-.051h14.006a.041.041,0,0,1,.04.051Z" transform="translate(-140.014 -265.736)" fill="url(#linear-gradient)"/>
    </g>
  </g>
  <g id="Group_1483" data-name="Group 1483">
    <g id="Group_1482" data-name="Group 1482">
      <path id="Path_16069" data-name="Path 16069" d="M34.586,66.659a1.919,1.919,0,1,0,0-3.838h-.653a1.922,1.922,0,0,0-1.9,1.614L30.4,59.941a2.58,2.58,0,0,0-2.418-1.693H23.328l-.345-1.724A1.924,1.924,0,0,0,21.1,54.981H15.4a1.924,1.924,0,0,0-1.882,1.543l-.345,1.724H8.519A2.58,2.58,0,0,0,6.1,59.941L4.467,64.434a1.922,1.922,0,0,0-1.895-1.613H1.919a1.919,1.919,0,1,0,0,3.838h.653a1.907,1.907,0,0,0,.841-.195l-1.4,1.75a3.237,3.237,0,0,0-.707,2.015V82.38a1.267,1.267,0,0,0,1.266,1.266h1.96A1.267,1.267,0,0,0,5.8,82.38V79.726H30.706V82.38a1.267,1.267,0,0,0,1.266,1.266h1.96A1.267,1.267,0,0,0,35.2,82.38V70.23a3.237,3.237,0,0,0-.707-2.015l-1.4-1.75a1.907,1.907,0,0,0,.841.195ZM2.573,65.434H1.919a.694.694,0,1,1,0-1.388h.653a.694.694,0,0,1,0,1.388Zm12.15-8.67a.7.7,0,0,1,.681-.558h5.7a.7.7,0,0,1,.681.558l.3,1.484H14.426ZM4.573,82.38a.041.041,0,0,1-.041.041H2.572a.041.041,0,0,1-.041-.041V79.343a2.557,2.557,0,0,0,1.347.382h.694V82.38ZM25.48,78.5H11.025V77.153a.041.041,0,0,1,.041-.041H25.439a.041.041,0,0,1,.041.041Zm8.493,3.879a.041.041,0,0,1-.041.041h-1.96a.041.041,0,0,1-.041-.041V79.726h.694a2.557,2.557,0,0,0,1.347-.382V82.38Zm-.438-13.4a2.009,2.009,0,0,1,.438,1.25v6.923A1.349,1.349,0,0,1,32.626,78.5H26.7V77.153a1.267,1.267,0,0,0-1.266-1.266H11.066A1.267,1.267,0,0,0,9.8,77.153V78.5H3.879a1.349,1.349,0,0,1-1.347-1.347V70.23a2.008,2.008,0,0,1,.438-1.25l1.857-2.321H22.172a.613.613,0,0,0,0-1.225H5.407l1.845-5.075a1.351,1.351,0,0,1,1.266-.887H27.986a1.352,1.352,0,0,1,1.266.887L31.1,65.434H28.706a.613.613,0,0,0,0,1.225h2.972Zm-.3-4.24a.7.7,0,0,1,.694-.694h.653a.694.694,0,1,1,0,1.388h-.653a.7.7,0,0,1-.691-.693Z" transform="translate(0 -54.981)" fill="url(#linear-gradient)"/>
    </g>
  </g>
  <g id="Group_1489" data-name="Group 1489" transform="translate(3.92 14.373)">
    <g id="Group_1488" data-name="Group 1488">
      <path id="Path_16072" data-name="Path 16072" d="M57.226,256.573a2.246,2.246,0,1,0,2.246,2.246A2.246,2.246,0,0,0,57.226,256.573Zm0,3.267a1.021,1.021,0,1,1,1.021-1.021A1.021,1.021,0,0,1,57.226,259.84Z" transform="translate(-54.98 -256.573)" fill="url(#linear-gradient)"/>
    </g>
  </g>
  <g id="Group_1491" data-name="Group 1491" transform="translate(28.093 14.373)">
    <g id="Group_1490" data-name="Group 1490">
      <path id="Path_16073" data-name="Path 16073" d="M396.268,256.573a2.246,2.246,0,1,0,2.246,2.246,2.246,2.246,0,0,0-2.246-2.246Zm0,3.267a1.021,1.021,0,1,1,1.021-1.021A1.021,1.021,0,0,1,396.268,259.84Z" transform="translate(-394.022 -256.573)" fill="url(#linear-gradient)"/>
    </g>
  </g>
</svg>
