<?xml version="1.0" encoding="utf-8"?>
<!-- Generator: Adobe Illustrator 14.0.0, SVG Export Plug-In . SVG Version: 6.00 Build 43363)  -->
<!DOCTYPE svg PUBLIC "-//W3C//DTD SVG 1.1//EN" "http://www.w3.org/Graphics/SVG/1.1/DTD/svg11.dtd">
<svg version="1.1" id="taxi" xmlns="http://www.w3.org/2000/svg" xmlns:xlink="http://www.w3.org/1999/xlink" x="0px" y="0px"
	 width="80px" height="90px" viewBox="11.675 -4.424 80 90" enable-background="new 11.675 -4.424 80 90" xml:space="preserve">
<g id="Group_1150" transform="translate(68.437 29.594)">
	<g id="Group_1149">
		<path id="Path_15914" fill="#FFFFFF" d="M0.29,9.545h-2.843c-0.735,0-1.332,0.596-1.332,1.332c0,0.735,0.597,1.332,1.332,1.332
			H0.29c0.736,0,1.332-0.597,1.332-1.332C1.622,10.141,1.027,9.545,0.29,9.545z"/>
	</g>
</g>
<g id="Group_1152" transform="translate(28.262 42.541)">
	<g id="Group_1151" transform="translate(0 0)">
		<path id="Path_15915" fill="#FFFFFF" d="M40.815,7.604c-0.52-0.67-1.322-1.062-2.171-1.059H8.18c-1.521,0-2.753,1.232-2.753,2.753
			c0,0.226,0.027,0.449,0.082,0.668l0.71,2.843c0.305,1.227,1.407,2.087,2.672,2.085h29.042c1.264,0.002,2.366-0.858,2.671-2.085
			l0.712-2.843C41.523,9.144,41.338,8.271,40.815,7.604z M38.731,9.321l-0.71,2.842c-0.01,0.04-0.045,0.068-0.087,0.067H8.893
			c-0.041,0-0.076-0.027-0.086-0.066L8.096,9.321C8.084,9.273,8.114,9.225,8.162,9.213C8.168,9.211,8.175,9.21,8.182,9.21h30.466
			c0.05,0.001,0.09,0.041,0.089,0.091c0,0.006-0.001,0.013-0.003,0.02H38.731z"/>
	</g>
</g>
<g id="Group_1154" transform="translate(0 0)">
	<g id="Group_1153">
		<path id="Path_15916" fill="#FFFFFF" d="M87.201,41.803c2.306,0,4.175-1.869,4.175-4.175c0-2.305-1.869-4.175-4.175-4.175H85.78
			c-2.048,0.003-3.794,1.489-4.122,3.511l-3.553-9.774c-0.808-2.209-2.906-3.679-5.258-3.683H62.714l-0.75-3.749
			c-0.395-1.95-2.104-3.352-4.093-3.356H45.478c-1.988,0.005-3.7,1.407-4.094,3.356l-0.75,3.749H30.502
			c-2.352,0.005-4.45,1.475-5.258,3.683l-3.554,9.773c-0.33-2.021-2.074-3.507-4.122-3.51h-1.421c-2.306,0-4.175,1.87-4.175,4.175
			c0,2.306,1.869,4.175,4.175,4.175h1.421c0.635,0,1.261-0.145,1.83-0.424l-3.046,3.809c-0.993,1.244-1.534,2.787-1.537,4.379v26.43
			c0.001,1.52,1.233,2.752,2.754,2.753h4.263c1.52-0.001,2.752-1.233,2.753-2.753v-5.773h54.179v5.773
			c0.001,1.52,1.233,2.752,2.753,2.753h4.264c1.52-0.001,2.752-1.233,2.753-2.753v-26.43c-0.003-1.592-0.544-3.135-1.536-4.379
			l-3.046-3.809c0.57,0.279,1.195,0.424,1.83,0.424H87.201z M17.568,39.139h-1.421c-0.834,0-1.51-0.677-1.51-1.51
			s0.676-1.51,1.51-1.51h1.421c0.833,0,1.51,0.676,1.51,1.51S18.402,39.139,17.568,39.139z M43.998,20.28
			c0.143-0.705,0.761-1.212,1.48-1.214h12.393c0.72,0.001,1.338,0.509,1.48,1.214l0.646,3.227H43.351L43.998,20.28z M21.92,75.997
			c0,0.05-0.04,0.09-0.089,0.09h-4.263c-0.049,0-0.089-0.04-0.089-0.09V69.39c0.881,0.545,1.896,0.833,2.932,0.832h1.509v5.772
			V75.997z M67.394,67.561H35.953v-2.932c0-0.049,0.041-0.089,0.089-0.089h31.264c0.049,0,0.088,0.04,0.088,0.089V67.561
			L67.394,67.561z M85.869,75.997c0,0.05-0.04,0.09-0.089,0.09h-4.263c-0.049,0-0.089-0.04-0.089-0.09v-5.772h1.51
			c1.035,0.001,2.05-0.287,2.931-0.831v6.607V75.997z M84.916,46.852c0.616,0.772,0.952,1.73,0.953,2.719v15.059
			c-0.002,1.618-1.313,2.93-2.931,2.932H70.056v-2.932c-0.002-1.521-1.233-2.752-2.753-2.754H36.042
			c-1.52,0.002-2.752,1.233-2.753,2.754v2.932H20.41c-1.619-0.002-2.93-1.313-2.932-2.932V49.571
			c0.001-0.988,0.338-1.947,0.954-2.719l4.038-5.049h37.73c0.735,0,1.332-0.597,1.332-1.332c0-0.736-0.597-1.332-1.332-1.332H23.734
			L27.747,28.1c0.424-1.155,1.523-1.924,2.754-1.927h42.346c1.23,0.003,2.33,0.773,2.754,1.929l4.014,11.039h-5.203
			c-0.735,0-1.332,0.596-1.332,1.332c0,0.735,0.597,1.332,1.332,1.332h6.466L84.916,46.852z M84.27,37.632
			c0.001-0.833,0.676-1.509,1.51-1.509h1.421c0.834,0,1.51,0.676,1.51,1.509s-0.676,1.509-1.51,1.509H85.78
			c-0.834-0.001-1.511-0.678-1.51-1.512V37.632z"/>
	</g>
</g>
<g id="Group_1156" transform="translate(14.797 55.489)">
	<g id="Group_1155" transform="translate(0 0)">
		<path id="Path_15917" fill="#FFFFFF" d="M11.297,3.544c-1.521,0-2.753,1.233-2.753,2.754s1.232,2.754,2.753,2.754
			s2.753-1.233,2.753-2.754C14.049,4.779,12.818,3.546,11.297,3.544z"/>
	</g>
</g>
<g id="Group_1158" transform="translate(81.384 55.489)">
	<g id="Group_1157" transform="translate(0 0)">
		<path id="Path_15918" fill="#FFFFFF" d="M-4.13,3.544c-1.521,0-2.754,1.233-2.754,2.754s1.233,2.754,2.754,2.754
			s2.754-1.233,2.754-2.754C-1.378,4.779-2.61,3.546-4.13,3.544z"/>
	</g>
</g>
<g id="Group_1160" transform="translate(11.098 40.692)">
	<g id="Group_1159" transform="translate(0 0)">
		<path id="Path_15919" fill="#FFFFFF" d="M14.286,6.972c-2.698,0-4.884,2.188-4.884,4.886s2.186,4.885,4.884,4.885
			s4.885-2.187,4.885-4.885C19.168,9.162,16.983,6.976,14.286,6.972z M14.286,14.078c-1.226,0-2.22-0.994-2.22-2.22
			c0-1.227,0.994-2.221,2.22-2.221c1.227,0,2.221,0.994,2.221,2.221C16.505,13.084,15.512,14.078,14.286,14.078L14.286,14.078z"/>
	</g>
</g>
<g id="Group_1162" transform="translate(79.534 40.692)">
	<g id="Group_1161" transform="translate(0 0)">
		<path id="Path_15920" fill="#FFFFFF" d="M-1.569,6.972c-2.698,0-4.886,2.188-4.886,4.886s2.188,4.885,4.886,4.885
			c2.697,0,4.884-2.187,4.884-4.885C3.311,9.162,1.127,6.976-1.569,6.972z M-1.569,14.078c-1.228,0-2.222-0.994-2.222-2.22
			c0-1.227,0.994-2.221,2.222-2.221c1.226,0,2.22,0.994,2.22,2.221C0.648,13.084-0.345,14.078-1.569,14.078L-1.569,14.078z"/>
	</g>
</g>
</svg>
