<?xml version="1.0" encoding="utf-8"?>
<!-- Generator: Adobe Illustrator 16.0.0, SVG Export Plug-In . SVG Version: 6.00 Build 0)  -->
<!DOCTYPE svg PUBLIC "-//W3C//DTD SVG 1.1//EN" "http://www.w3.org/Graphics/SVG/1.1/DTD/svg11.dtd">
<svg version="1.1" id="Layer_1" xmlns="http://www.w3.org/2000/svg" xmlns:xlink="http://www.w3.org/1999/xlink" x="0px" y="0px"
	 width="62.639px" height="40.083px" viewBox="0 0 62.639 40.083" enable-background="new 0 0 62.639 40.083" xml:space="preserve">
<g id="group_1_" transform="translate(0 -92.184)">
	<g id="Group_1898" transform="translate(17.653 92.184)">
		<g id="Group_1897">
			
				<linearGradient id="Path_16679_1_" gradientUnits="userSpaceOnUse" x1="-281.6103" y1="406.5591" x2="-281.6103" y2="405.5591" gradientTransform="matrix(27.335 0 0 -40.1142 7711.499 16308.7969)">
				<stop  offset="0" style="stop-color:#00A9E0"/>
				<stop  offset="1" style="stop-color:#801C7D"/>
			</linearGradient>
			<path id="Path_16679" fill="url(#Path_16679_1_)" d="M24.458,22.581l-5.332-2.371c-0.376-0.168-0.619-0.542-0.619-0.954v-1.464
				c1.857-1.474,2.941-3.715,2.941-6.087V9.644c0.605-0.334,0.98-0.971,0.981-1.662v-0.2C22.425,3.486,18.943,0.005,14.648,0h-1.961
				C8.391,0.005,4.909,3.486,4.904,7.782v1.815c-0.01,0.6,0.261,1.17,0.732,1.542c0.078,0.06,0.161,0.114,0.249,0.161v0.4
				c0,2.371,1.083,4.612,2.94,6.086v1.465c0,0.413-0.243,0.786-0.62,0.954l-5.332,2.37c-1.747,0.777-2.873,2.51-2.875,4.424v12.16
				c-0.017,0.506,0.381,0.932,0.888,0.947c0.507,0.018,0.931-0.381,0.947-0.887c0.001-0.02,0.001-0.041,0-0.061v-12.16
				c0.001-0.105,0.008-0.211,0.02-0.316l2.457,2.457c0.381,0.379,0.595,0.895,0.593,1.432v8.59c-0.017,0.506,0.381,0.93,0.888,0.947
				c0.507,0.016,0.931-0.381,0.947-0.889c0.001-0.02,0.001-0.039,0-0.059v-8.584c0.003-1.025-0.404-2.008-1.13-2.73L2.68,24.918
				c0.268-0.279,0.587-0.504,0.94-0.662l5.242-2.33l3.886,3.889v13.352c-0.017,0.506,0.381,0.93,0.888,0.947
				c0.507,0.016,0.931-0.381,0.947-0.887c0.001-0.021,0.001-0.041,0-0.061V25.815l3.888-3.887l5.242,2.33
				c0.353,0.158,0.673,0.383,0.94,0.662l-2.929,2.928c-0.727,0.723-1.133,1.705-1.13,2.73v8.588c0.017,0.506,0.44,0.902,0.947,0.887
				c0.483-0.016,0.871-0.404,0.888-0.887v-8.59c-0.002-0.539,0.212-1.055,0.593-1.434l2.457-2.457
				c0.012,0.105,0.019,0.211,0.019,0.316v12.16c-0.017,0.508,0.381,0.932,0.888,0.947c0.507,0.018,0.931-0.381,0.947-0.887
				c0.001-0.02,0.001-0.041,0-0.061V27.004C27.332,25.09,26.206,23.358,24.458,22.581z M13.666,24.137l-3.41-3.412
				c0.265-0.443,0.405-0.951,0.405-1.468v-0.373c1.923,0.806,4.088,0.806,6.011,0v0.373c0,0.518,0.141,1.025,0.405,1.47
				L13.666,24.137z M13.666,17.652c-3.282-0.004-5.942-2.664-5.946-5.947v-0.413c0.617-0.255,1.182-0.622,1.666-1.082
				c0.378-0.337,0.412-0.917,0.075-1.296C9.124,8.535,8.543,8.501,8.165,8.839C8.156,8.846,8.148,8.854,8.141,8.861
				c-0.382,0.378-0.85,0.658-1.363,0.814H6.754C6.742,9.649,6.736,9.621,6.737,9.592V7.783C6.741,4.5,9.401,1.84,12.685,1.836h1.961
				c3.283,0.004,5.943,2.664,5.947,5.947v0.2c0.001,0.027-0.016,0.052-0.041,0.06c-5.494,1.085-8.25-0.96-9.181-1.89
				c-0.358-0.359-0.94-0.359-1.3,0c-0.358,0.359-0.358,0.941,0,1.3l0,0c2.85,2.849,7.007,2.9,9.538,2.6v1.658
				C19.603,14.991,16.945,17.647,13.666,17.652L13.666,17.652z"/>
		</g>
	</g>
	<g id="Group_1900" transform="translate(0 97.088)">
		<g id="Group_1899">
			
				<linearGradient id="Path_16680_1_" gradientUnits="userSpaceOnUse" x1="-257.6179" y1="400.2664" x2="-257.6179" y2="399.2664" gradientTransform="matrix(16.5465 0 0 -35.2109 4270.957 14093.6855)">
				<stop  offset="0" style="stop-color:#00A9E0"/>
				<stop  offset="1" style="stop-color:#801C7D"/>
			</linearGradient>
			<path id="Path_16680" fill="url(#Path_16680_1_)" d="M16.546,12.686v-1.962c-0.001-2.311-1.176-4.463-3.118-5.714
				c0.636-2.034-0.499-4.199-2.533-4.834C8.86-0.46,6.696,0.675,6.06,2.709c-0.233,0.75-0.233,1.552,0,2.301
				c-1.942,1.251-3.116,3.402-3.118,5.713v1.961c0,2.237,1.101,4.331,2.942,5.6v2.018c0.002,0.396-0.223,0.758-0.577,0.934
				l-3.174,1.588C0.823,23.471-0.004,24.809,0,26.272v7.99c-0.017,0.506,0.38,0.93,0.887,0.947c0.507,0.016,0.932-0.381,0.948-0.887
				c0-0.021,0-0.041,0-0.061v-7.592l1.495,1.494c0.381,0.379,0.594,0.895,0.593,1.432v4.666c-0.017,0.506,0.381,0.93,0.887,0.947
				c0.507,0.016,0.932-0.381,0.948-0.887c0.001-0.021,0.001-0.041,0-0.061v-4.666c0.003-1.023-0.404-2.006-1.13-2.729l-2.08-2.08
				l-0.031-0.027c0.133-0.119,0.279-0.221,0.438-0.301l3.174-1.588c0.16-0.08,0.313-0.174,0.455-0.283l2.242,2.246v9.428
				c-0.018,0.506,0.38,0.93,0.887,0.947c0.507,0.016,0.931-0.381,0.948-0.887c0-0.021,0-0.041,0-0.061v-9.428l2.242-2.242
				c0.143,0.107,0.295,0.203,0.455,0.283l0.875,0.438c0.453,0.227,1.005,0.043,1.231-0.41s0.043-1.004-0.41-1.23l-0.875-0.438
				c-0.354-0.176-0.578-0.539-0.577-0.934v-2.02c1.843-1.268,2.943-3.362,2.943-5.599V12.686z M9.744,1.835
				c1.117,0.001,2.021,0.907,2.023,2.024c0,0.121-0.011,0.242-0.032,0.362c-1.297-0.397-2.684-0.397-3.981,0
				c-0.206-1.092,0.512-2.144,1.604-2.35C9.485,1.847,9.614,1.835,9.744,1.835L9.744,1.835z M9.744,5.758
				c2.741,0.002,4.964,2.225,4.967,4.967v0.333c-2.252,0.706-4.706-0.033-6.194-1.864C8.214,8.788,7.639,8.705,7.233,9.008
				c-0.035,0.026-0.068,0.055-0.1,0.086c-0.655,0.678-1.462,1.192-2.354,1.5C4.853,7.905,7.053,5.761,9.744,5.758z M9.744,23.157
				l-2.12-2.119c0.064-0.24,0.098-0.488,0.1-0.736v-1.119c1.318,0.41,2.73,0.41,4.049,0v1.119c0.002,0.248,0.035,0.496,0.101,0.736
				L9.744,23.157z M9.744,17.657c-2.742-0.002-4.965-2.224-4.968-4.966v-0.19c1.081-0.259,2.089-0.761,2.948-1.466
				c0.512,0.484,1.083,0.9,1.7,1.239c1.075,0.59,2.281,0.899,3.507,0.9c0.596-0.002,1.189-0.073,1.77-0.212
				c-0.15,2.628-2.324,4.685-4.957,4.689V17.657z"/>
		</g>
	</g>
	<g id="Group_1902" transform="translate(44.131 99.049)">
		<g id="Group_1901">
			
				<linearGradient id="Path_16681_1_" gradientUnits="userSpaceOnUse" x1="-303.4516" y1="397.6111" x2="-303.4516" y2="396.6111" gradientTransform="matrix(18.508 0 0 -33.1876 5625.5254 13195.7549)">
				<stop  offset="0" style="stop-color:#00A9E0"/>
				<stop  offset="1" style="stop-color:#801C7D"/>
			</linearGradient>
			<path id="Path_16681" fill="url(#Path_16681_1_)" d="M16.374,18.901l-5.135-2.566c-0.355-0.176-0.579-0.539-0.577-0.936V14.1
				c1.247-1.103,1.961-2.688,1.961-4.352V8.702h0.063c0.507,0,0.918-0.411,0.918-0.918V5.823c-0.004-3.213-2.607-5.817-5.82-5.821
				H5.822C2.608,0.006,0.004,2.61,0.001,5.823v1.961c0,0.507,0.411,0.918,0.918,0.918h0.063v1.045c0,1.666,0.715,3.25,1.962,4.354
				v1.299c0.002,0.396-0.222,0.76-0.576,0.936c-0.461,0.211-0.664,0.756-0.452,1.217c0.211,0.461,0.756,0.662,1.217,0.451
				c0.019-0.008,0.038-0.018,0.056-0.027c0.16-0.08,0.313-0.176,0.455-0.285l2.243,2.244v12.367
				c0.017,0.508,0.441,0.904,0.948,0.887c0.482-0.016,0.871-0.402,0.887-0.887V19.93l2.243-2.242
				c0.143,0.107,0.295,0.203,0.455,0.283l4.969,2.484l-1.507,1.508c-0.726,0.721-1.133,1.705-1.13,2.729v7.609
				c0.017,0.508,0.441,0.904,0.948,0.887c0.482-0.016,0.87-0.402,0.887-0.887v-7.609c-0.002-0.537,0.212-1.053,0.593-1.432
				l1.428-1.428c0.045,0.168,0.067,0.342,0.067,0.516V32.3c0.017,0.506,0.441,0.902,0.948,0.887
				c0.482-0.016,0.871-0.404,0.887-0.887v-9.951C18.511,20.887,17.683,19.55,16.374,18.901z M1.836,6.681V5.826l0,0
				c0.003-2.2,1.786-3.983,3.986-3.986h1.961c2.2,0.003,3.983,1.786,3.985,3.986v1.019c-2.251-0.07-4.453-0.682-6.419-1.783
				C4.985,4.82,4.501,4.867,4.191,5.177c-0.656,0.678-1.464,1.192-2.356,1.5L1.836,6.681z M6.802,18.259l-2.12-2.121
				c0.065-0.24,0.099-0.486,0.101-0.736v-0.199c1.306,0.484,2.742,0.484,4.049,0v0.199c0.002,0.25,0.035,0.496,0.1,0.736
				L6.802,18.259z M6.802,13.735c-2.2-0.002-3.983-1.786-3.985-3.986V8.27l0,0c0.784-0.317,1.512-0.761,2.152-1.313
				c1.819,0.909,3.793,1.47,5.819,1.654v1.139c-0.006,2.198-1.788,3.978-3.987,3.98L6.802,13.735z"/>
		</g>
	</g>
</g>
</svg>
