<svg xmlns="http://www.w3.org/2000/svg" width="48.082" height="50" viewBox="0 0 48.082 50">
  <g id="team" transform="translate(-1 -0.1)">
    <circle id="Ellipse_111" data-name="Ellipse 111" cx="4.939" cy="4.939" r="4.939" transform="translate(4.02 1.1)" fill="#6a8dac"/>
    <path id="Path_15964" data-name="Path 15964" d="M2.449,44.269h.49v9.8a2.456,2.456,0,0,0,2.449,2.449h5.143a2.456,2.456,0,0,0,2.449-2.449v-.571a6.191,6.191,0,0,1-.735-2.857V37.82a6.108,6.108,0,0,1,3.673-5.592v-.98A2.456,2.456,0,0,0,13.469,28.8H2.449A2.456,2.456,0,0,0,0,31.249V41.821A2.43,2.43,0,0,0,2.449,44.269Z" transform="translate(1 -15.986)" fill="#6a8dac"/>
    <circle id="Ellipse_112" data-name="Ellipse 112" cx="4.939" cy="4.939" r="4.939" transform="translate(36.225 0.1)" fill="#6a8dac"/>
    <path id="Path_15965" data-name="Path 15965" d="M83.7,31.149v.98a6.108,6.108,0,0,1,3.673,5.592V50.5a5.733,5.733,0,0,1-.734,2.857v.571a2.456,2.456,0,0,0,2.449,2.449H94.23a2.456,2.456,0,0,0,2.449-2.449v-9.8h.489a2.456,2.456,0,0,0,2.449-2.449V31.149A2.456,2.456,0,0,0,97.168,28.7H86.148A2.456,2.456,0,0,0,83.7,31.149Z" transform="translate(-50.536 -16.926)" fill="#6a8dac"/>
    <path id="Path_15966" data-name="Path 15966" d="M39.1,47.349h0V60.165a2.456,2.456,0,0,0,2.449,2.449h.939V74.165a2.456,2.456,0,0,0,2.449,2.449h6.571a2.456,2.456,0,0,0,2.449-2.449V62.573H54.9a2.456,2.456,0,0,0,2.449-2.449V47.349h0A2.456,2.456,0,0,0,54.9,44.9H41.549A2.43,2.43,0,0,0,39.1,47.349Z" transform="translate(-23.141 -26.514)" fill="#6a8dac"/>
    <circle id="Ellipse_113" data-name="Ellipse 113" cx="5.674" cy="5.674" r="5.674" transform="translate(19.388 4.998)" fill="#6a8dac"/>
  </g>
</svg>
