<svg xmlns="http://www.w3.org/2000/svg" xmlns:xlink="http://www.w3.org/1999/xlink" width="78.625" height="77.434" viewBox="0 0 78.625 77.434">
  <defs>
    <linearGradient id="linear-gradient" x1="0.5" x2="0.5" y2="1" gradientUnits="objectBoundingBox">
      <stop offset="0.13" stop-color="#00a9ed"/>
      <stop offset="1" stop-color="#65106b"/>
    </linearGradient>
  </defs>
  <g id="team_1_" data-name="team (1)" transform="translate(0.045 -0.184)">
    <path id="Path_16132" data-name="Path 16132" d="M400.07,192.79a6.453,6.453,0,1,1,6.453-6.453,6.453,6.453,0,0,1-6.453,6.453Zm0-10.325a3.872,3.872,0,1,0,3.872,3.872,3.872,3.872,0,0,0-3.872-3.872Zm0,0" transform="translate(-342.731 -156.468)" fill="url(#linear-gradient)"/>
    <path id="Path_16133" data-name="Path 16133" d="M120.535,192.79a6.453,6.453,0,1,1,6.453-6.453,6.453,6.453,0,0,1-6.453,6.453Zm0-10.325a3.872,3.872,0,1,0,3.872,3.872A3.872,3.872,0,0,0,120.535,182.465Zm0,0" transform="translate(-99.334 -156.468)" fill="url(#linear-gradient)"/>
    <path id="Path_16134" data-name="Path 16134" d="M65.083,44.636l12.3-11.185a3.606,3.606,0,1,0-4.818-5.366L63.3,36.321H50.275L40.561,48.2V15.671H53.467v5.163H74.733l-3.1-7.744,3.1-7.744H59.92V.184H37.98V48.2L28.267,36.321H15.239L5.972,28.084a3.607,3.607,0,1,0-4.82,5.367L13.458,44.636v30.4H.551v2.582H77.989V75.04H65.083ZM59.92,7.927h11L68.856,13.09l2.064,5.163H56.048V15.671H59.92ZM40.561,2.765H57.339V13.09H40.561ZM26.364,75.04H22.492V56.971H19.911V75.04H16.039V43.495L2.89,31.546a1.033,1.033,0,0,1-.156-1.328,1.021,1.021,0,0,1,1.526-.2l10,8.883H27.043l9.6,11.73a1.049,1.049,0,0,1-1.609,1.347l-8.67-10.107Zm23.232,0H28.945V48.84l4.13,4.814a3.631,3.631,0,0,0,4.775.653c.048-.032.089-.073.136-.109V64.715h2.581V54.2c.048.037.091.08.143.114a3.631,3.631,0,0,0,4.765-.657L49.6,48.84Zm12.906,0H58.63V56.971H56.048V75.04H52.176V41.871L43.51,51.984a1.05,1.05,0,0,1-1.61-1.348L51.5,38.9H64.283l10-8.887a1,1,0,0,1,.808-.249,1.013,1.013,0,0,1,.724.454,1.024,1.024,0,0,1-.162,1.32L62.5,43.495Zm0,0" fill="url(#linear-gradient)"/>
  </g>
</svg>
