<?xml version="1.0" encoding="utf-8"?>
<!-- Generator: Adobe Illustrator 14.0.0, SVG Export Plug-In . SVG Version: 6.00 Build 43363)  -->
<!DOCTYPE svg PUBLIC "-//W3C//DTD SVG 1.1//EN" "http://www.w3.org/Graphics/SVG/1.1/DTD/svg11.dtd">
<svg version="1.1" id="Layer_1" xmlns="http://www.w3.org/2000/svg" xmlns:xlink="http://www.w3.org/1999/xlink" x="0px" y="0px"
	 width="46px" height="60px" viewBox="0 0 46 60" enable-background="new 0 0 46 60" xml:space="preserve">
<g id="Group_1164" transform="translate(0)">
	<g id="Group_1163">
		<path id="Path_15921" fill="#EBEBEB" d="M39.302,20.082h-0.196V6.725c0-0.533-0.434-0.966-0.966-0.966H6.648
			c-0.533,0-0.966,0.433-0.966,0.966v22.919H5.486c-3.147,0-5.698,2.551-5.698,5.698s2.551,5.698,5.698,5.698h0.196v12.235
			c0,0.533,0.433,0.966,0.966,0.966H38.14c0.532,0,0.966-0.433,0.966-0.966V31.479h0.196c3.146,0,5.698-2.551,5.698-5.698
			S42.447,20.081,39.302,20.082L39.302,20.082z M5.683,39.107H5.486c-2.081,0-3.767-1.686-3.767-3.766s1.686-3.768,3.767-3.768
			h0.196V39.107z M37.174,20.082h-2.771v-1.751c0-1.202-0.974-2.177-2.177-2.177c-0.383,0-0.759,0.101-1.09,0.292l-4.702,2.716
			c-1.042,0.602-1.398,1.933-0.798,2.975c0.19,0.331,0.467,0.606,0.798,0.797l4.703,2.716l0,0c1.043,0.602,2.374,0.244,2.976-0.798
			c0.19-0.331,0.291-0.706,0.291-1.087v-1.752h2.771v30.295H7.614V41.043h11.751v1.751c-0.004,1.2,0.967,2.177,2.166,2.181
			c0.387,0.002,0.766-0.101,1.1-0.295l4.705-2.717c1.041-0.602,1.397-1.933,0.797-2.974c-0.191-0.332-0.467-0.606-0.797-0.798
			l-4.705-2.717l0,0c-1.041-0.602-2.373-0.244-2.975,0.799c-0.191,0.33-0.291,0.705-0.292,1.086v1.751H7.614V7.69h29.56V20.082z
			 M32.473,18.331v5.434c0,0.136-0.11,0.246-0.246,0.246c-0.044,0-0.086-0.011-0.123-0.033l-4.706-2.716
			c-0.117-0.067-0.158-0.218-0.091-0.336c0.021-0.038,0.053-0.069,0.091-0.09l4.704-2.717c0.117-0.068,0.27-0.027,0.336,0.09
			C32.461,18.246,32.472,18.288,32.473,18.331L32.473,18.331z M21.299,42.791v-5.436c-0.002-0.088,0.045-0.17,0.123-0.213
			c0.037-0.021,0.08-0.033,0.123-0.035c0.043,0.002,0.086,0.014,0.123,0.035l4.705,2.718c0.119,0.067,0.158,0.218,0.092,0.337
			c-0.021,0.037-0.053,0.068-0.092,0.09l-4.703,2.717c-0.118,0.067-0.269,0.027-0.336-0.09
			C21.312,42.877,21.299,42.834,21.299,42.791L21.299,42.791z M39.302,29.547h-0.196v-7.533h0.196
			c2.081,0.001,3.767,1.688,3.765,3.769C43.064,27.861,41.381,29.546,39.302,29.547z"/>
	</g>
</g>
<g id="Group_1652" transform="translate(-14.27 -7.373)">
	<g id="Group_1166" transform="translate(39.048 7.373)">
		<g id="Group_1165" transform="translate(0)">
			<path id="Path_15922" fill="#EBEBEB" d="M9.298,10.497H8.523c-0.609,0.018-1.09,0.526-1.072,1.137
				c0.018,0.585,0.488,1.056,1.072,1.073h0.775c0.609,0.017,1.117-0.463,1.135-1.073c0.018-0.61-0.463-1.119-1.072-1.137
				C9.339,10.497,9.318,10.497,9.298,10.497z"/>
		</g>
	</g>
	<g id="Group_1168" transform="translate(14.27 7.373)">
		<g id="Group_1167" transform="translate(0)">
			<path id="Path_15923" fill="#EBEBEB" d="M28.992,10.497H10.65c-0.61,0.018-1.091,0.526-1.073,1.137
				c0.017,0.585,0.487,1.056,1.073,1.073h18.344c0.609,0.017,1.119-0.463,1.135-1.073c0.018-0.61-0.463-1.119-1.07-1.137
				c-0.021,0-0.043,0-0.064,0H28.992z"/>
		</g>
	</g>
	<g id="Group_1170" transform="translate(14.27 28.404)">
		<g id="Group_1169" transform="translate(0)">
			<path id="Path_15924" fill="#EBEBEB" d="M25.564,8.694H10.65C10.04,8.712,9.559,9.22,9.577,9.829
				c0.017,0.586,0.487,1.058,1.073,1.074h14.917c0.611-0.018,1.092-0.526,1.074-1.137c-0.016-0.585-0.488-1.057-1.074-1.073H25.564z
				"/>
		</g>
	</g>
	<g id="Group_1172" transform="translate(14.27 14.625)">
		<g id="Group_1171" transform="translate(0)">
			<path id="Path_15925" fill="#EBEBEB" d="M20.594,9.875H10.65c-0.61,0.018-1.091,0.527-1.073,1.137
				c0.017,0.586,0.487,1.056,1.073,1.073h9.945c0.61,0.018,1.119-0.463,1.136-1.073c0.018-0.61-0.462-1.119-1.072-1.137
				c-0.021,0-0.042,0-0.063,0H20.594z"/>
		</g>
	</g>
	<g id="Group_1174" transform="translate(14.27 21.152)">
		<g id="Group_1173" transform="translate(0)">
			<path id="Path_15926" fill="#EBEBEB" d="M20.594,9.316H10.65c-0.61,0.018-1.091,0.526-1.073,1.136
				c0.017,0.586,0.487,1.057,1.073,1.074h9.945c0.61,0.017,1.119-0.463,1.136-1.074c0.018-0.61-0.462-1.118-1.073-1.136
				c-0.021-0.001-0.041-0.001-0.063,0H20.594z"/>
		</g>
	</g>
</g>
</svg>
