<svg xmlns="http://www.w3.org/2000/svg" xmlns:xlink="http://www.w3.org/1999/xlink" width="124.279" height="145.627" viewBox="0 0 124.279 145.627">
  <defs>
    <linearGradient id="linear-gradient" x1="1" y1="-0.083" x2="0.125" y2="1.089" gradientUnits="objectBoundingBox">
      <stop offset="0" stop-color="#fff"/>
      <stop offset="0.502" stop-color="#98dbf9"/>
      <stop offset="1" stop-color="#fff"/>
    </linearGradient>
  </defs>
  <g id="geography" transform="translate(-37.528)" opacity="0.25">
    <g id="Group_3705" data-name="Group 3705" transform="translate(37.528)">
      <path id="Path_19378" data-name="Path 19378" d="M159.73,103.313A7.09,7.09,0,1,0,149.7,93.286a56.91,56.91,0,0,1-33.5,16.357v-5.75c.629-.088,1.257-.184,1.886-.295a51.793,51.793,0,0,0,11.011-3.233,2.179,2.179,0,0,0,.276-.114A51.712,51.712,0,0,0,160.7,49.4a2.133,2.133,0,0,0-4.258.277A47.162,47.162,0,0,1,156,59.849a62.394,62.394,0,0,0-9.248,1.5c-3.309.7-7.426,1.577-8.788,1a1.172,1.172,0,0,1-.405-.24h0c0-.017-.138-.555.766-2.184a46.171,46.171,0,0,1,3.18-4.625,50.238,50.238,0,0,0,3.383-4.924,4.852,4.852,0,0,0,.173-5.125c-1.109-1.828-3.5-2.859-6.4-2.758-2.769.1-6.323,1.352-7.994,4.591-1.253,2.429-2.42,3-3.189,3.225-2.018.581-5.152-.412-9.585-3.033-1.472-.871-3.716-2.85-2.2-6.321,1.3-2.971,4.884-5.5,8.157-4.526,3.9,1.161,6.1-.107,7.265-1.374,1.517-1.658,2.131-4.261,1.823-7.738a35.037,35.037,0,0,0-2.451-9.519c-1.135-2.863-2.961-4.473-5.427-4.783-1.988-.25-4.044.352-6.425,1.049-3.976,1.165-8.483,2.485-13.912.186-6.228-2.637-15.457-1.815-26.142,2.176a47.4,47.4,0,0,1,76.639,25.161,2.133,2.133,0,0,0,4.149-1A51.662,51.662,0,0,0,68.158,21.2a2.122,2.122,0,0,0-.387.512A51.766,51.766,0,0,0,57.713,47.2a2.122,2.122,0,0,0-.041.4,51.76,51.76,0,0,0,44.351,56.324v5.722A57.383,57.383,0,0,1,68.521,12.1,7.09,7.09,0,1,0,58.494,2.077,71.692,71.692,0,0,0,45.921,86.4a2.133,2.133,0,0,0,3.762-2.013A67.425,67.425,0,0,1,61.511,5.094,2.823,2.823,0,1,1,65.5,9.087a61.644,61.644,0,0,0,43.608,105.252h.006a61.248,61.248,0,0,0,43.6-18.035,2.823,2.823,0,1,1,3.993,3.993,67.318,67.318,0,0,1-95.2,0,68.414,68.414,0,0,1-7.239-8.529A2.133,2.133,0,1,0,50.8,94.25a72.744,72.744,0,0,0,7.691,9.063,71.044,71.044,0,0,0,43.528,20.622v4.5H79.232a6.207,6.207,0,0,0-6.2,6.2v4.787a6.207,6.207,0,0,0,6.2,6.2h59.761a6.207,6.207,0,0,0,6.2-6.2v-4.788a6.207,6.207,0,0,0-6.2-6.2h-5.128a2.133,2.133,0,1,0,0,4.266h5.128a1.936,1.936,0,0,1,1.934,1.934v4.787a1.936,1.936,0,0,1-1.934,1.934H79.232a1.936,1.936,0,0,1-1.934-1.934v-4.787a1.936,1.936,0,0,1,1.934-1.934H124.52a2.133,2.133,0,1,0,0-4.266H116.2v-4.5A71.042,71.042,0,0,0,159.73,103.313ZM71.1,24.387c13.3-6.737,25.226-9.061,31.962-6.209,6.831,2.892,12.579,1.209,16.775-.021,5.148-1.508,5.73-1.2,6.686,1.212,2.613,6.588,2.706,11.427,1.447,12.8-.492.536-1.467.592-2.9.166-5.614-1.669-11.266,2.286-13.284,6.908-2.005,4.594-.5,9.077,3.939,11.7,5.652,3.343,9.641,4.409,12.937,3.461,2.395-.689,4.292-2.445,5.8-5.369.827-1.6,2.86-2.232,4.351-2.283a3.363,3.363,0,0,1,2.607.708c.056.093-.008.4-.24.812a47.442,47.442,0,0,1-3.091,4.475c-2.821,3.789-5.486,7.368-4.641,10.474a4.61,4.61,0,0,0,2.862,3.053,7.8,7.8,0,0,0,3.031.512,43.786,43.786,0,0,0,8.3-1.271,72,72,0,0,1,7.488-1.323,47.486,47.486,0,0,1-25.161,31.094c-.592-4.686.548-9.469,1.839-11.02,2.671-3.209,1.446-9.965-1.434-13.862-2.471-3.343-5.985-4.487-9.4-3.058-2.4,1-7.875-.594-14.3-4.164-6.045-3.359-11.128-7.423-12.37-9.261-2.23-3.3-6.654-5.784-9.683-4.221-3.375,1.74-2.247,6.364-1.274,8.965a33.8,33.8,0,0,0,5.714,9.458c.848,1.069,2.131,2.685,2.084,3.163,0,0-.116.375-1.215,1.069a3.1,3.1,0,0,1-3.178.274c-4.855-2.148-9.959-14.23-11.222-21.317a7.831,7.831,0,0,0-3.931-5.88,12.631,12.631,0,0,0-9.2-.9A47.551,47.551,0,0,1,71.1,24.387Zm38.022,85.684h-.005q-1.417,0-2.824-.068v-5.68q1.353.071,2.713.073c.976,0,1.954-.031,2.933-.086V110h0Q110.533,110.071,109.118,110.072Zm4.693-10.185a47.393,47.393,0,0,1-9.256.032,2.151,2.151,0,0,0-.331-.035,47.463,47.463,0,0,1-42.4-50.752c3.027-1.036,5.822-1.05,7.643,0A3.564,3.564,0,0,1,71.3,51.9c0,.035.009.071.016.106.943,5.347,5.943,21.092,13.707,24.526a7.356,7.356,0,0,0,7.183-.569,6.193,6.193,0,0,0,3.142-3.96c.394-2.319-1.155-4.27-2.948-6.53a29.73,29.73,0,0,1-5.06-8.3c-.9-2.4-.762-3.411-.687-3.69.686-.068,2.769.841,4.113,2.829,1.827,2.7,7.645,7.163,13.833,10.6,5.577,3.1,13.23,6.373,18.018,4.37.586-.245,2.369-.99,4.326,1.657a11.631,11.631,0,0,1,2,5.091,5.119,5.119,0,0,1-.411,3.507A15.622,15.622,0,0,0,125.805,89a25.764,25.764,0,0,0,.125,8.033,47.555,47.555,0,0,1-8.582,2.359q-1.73.305-3.462.482Zm-1.875,28.553H106.29v-4.22c.938.036,1.879.06,2.823.06s1.885-.023,2.824-.06Z" transform="translate(-37.528)" fill="url(#linear-gradient)"/>
    </g>
  </g>
</svg>
