<?xml version="1.0" encoding="utf-8"?>
<!-- Generator: Adobe Illustrator 14.0.0, SVG Export Plug-In . SVG Version: 6.00 Build 43363)  -->
<!DOCTYPE svg PUBLIC "-//W3C//DTD SVG 1.1//EN" "http://www.w3.org/Graphics/SVG/1.1/DTD/svg11.dtd">
<svg version="1.1" id="Layer_1" xmlns="http://www.w3.org/2000/svg" xmlns:xlink="http://www.w3.org/1999/xlink" x="0px" y="0px"
	 width="80px" height="90px" viewBox="3.856 0.635 80 90" enable-background="new 3.856 0.635 80 90" xml:space="preserve">
<g id="notepad" transform="translate(-1.135)">
	<path id="Path_16331" fill="#F2F2F2" d="M82.76,55.546l-3.995-4.1c-1.658-1.621-4.265-1.621-5.922,0L51.255,73.584L48.28,84.771
		l-0.729,0.747c-0.543,0.557-0.547,1.458-0.008,2.02l-0.007,0.028l0.026-0.007c0.547,0.553,1.427,0.55,1.971-0.008l0.729-0.748
		l10.909-3.05L82.76,61.618C84.392,59.94,84.392,57.223,82.76,55.546z M54.493,74.33L68.86,59.596l5.951,6.104L60.444,80.432
		L54.493,74.33z M53.228,77.1l4.518,4.632l-6.212,1.736L53.228,77.1z M80.776,59.583l-3.981,4.083l-5.951-6.103l3.982-4.084
		c0.546-0.536,1.407-0.536,1.953,0l3.999,4.099C81.315,58.133,81.315,59.028,80.776,59.583z"/>
	<path id="Path_16332" fill="#F2F2F2" d="M15.258,55.942h36.468c0.775,0,1.403-0.645,1.403-1.438s-0.628-1.438-1.403-1.438H15.258
		c-0.775,0-1.403,0.645-1.403,1.438S14.483,55.942,15.258,55.942L15.258,55.942z"/>
	<path id="Path_16333" fill="#F2F2F2" d="M46.115,61.695H15.258c-0.775,0-1.403,0.644-1.403,1.438s0.627,1.438,1.403,1.438l0,0
		h30.857c0.774,0,1.402-0.644,1.402-1.438S46.889,61.695,46.115,61.695z"/>
	<path id="Path_16334" fill="#F2F2F2" d="M15.258,30.052h18.234c0.775,0,1.403-0.644,1.403-1.438c0-0.795-0.628-1.438-1.403-1.438
		H15.258c-0.775,0-1.403,0.644-1.403,1.438C13.855,29.409,14.483,30.052,15.258,30.052L15.258,30.052z"/>
	<path id="Path_16335" fill="#F2F2F2" d="M33.492,73.202c0.775,0,1.403-0.645,1.403-1.438s-0.628-1.438-1.403-1.438H15.258
		c-0.775,0-1.403,0.645-1.403,1.438s0.627,1.438,1.403,1.438l0,0H33.492z"/>
	<path id="Path_16336" fill="#F2F2F2" d="M55.934,35.805H15.258c-0.775,0-1.403,0.644-1.403,1.438c0,0.794,0.627,1.438,1.403,1.438
		l0,0h40.676c0.773,0,1.403-0.644,1.403-1.438C57.338,36.449,56.708,35.805,55.934,35.805z"/>
	<path id="Path_16337" fill="#F2F2F2" d="M15.258,47.312h19.638c0.775,0,1.402-0.644,1.402-1.438c0-0.794-0.627-1.438-1.402-1.438
		H15.258c-0.775,0-1.403,0.644-1.403,1.438C13.855,46.669,14.483,47.312,15.258,47.312L15.258,47.312z"/>
	<path id="Path_16338" fill="#F2F2F2" d="M57.337,45.873c0-0.793-0.629-1.438-1.402-1.438h-9.819c-0.775,0-1.403,0.644-1.403,1.438
		c0,0.795,0.628,1.438,1.403,1.438h9.819c0.773,0.001,1.402-0.642,1.402-1.437C57.337,45.875,57.337,45.874,57.337,45.873z"/>
	<path id="Path_16339" fill="#F2F2F2" d="M41.501,46.893c0.554-0.561,0.559-1.476,0.013-2.043c-0.547-0.568-1.438-0.574-1.992-0.014
		c-0.27,0.274-0.421,0.647-0.419,1.035c0.002,0.381,0.147,0.748,0.406,1.022C40.063,47.448,40.948,47.448,41.501,46.893z"/>
	<path id="Path_16340" fill="#F2F2F2" d="M40.506,84.708H8.246V15.67h9.818v2.877c0,0.794,0.627,1.438,1.402,1.438c0,0,0,0,0.001,0
		h32.258c0.774,0,1.402-0.644,1.402-1.438V15.67h9.818v31.643c0,0.794,0.628,1.438,1.402,1.438c0.775,0,1.402-0.645,1.402-1.438
		V14.231c-0.001-0.794-0.629-1.437-1.402-1.436H53.129V9.916c0-0.794-0.628-1.438-1.402-1.438h-8.417V5.601
		c0-0.794-0.627-1.438-1.401-1.438H29.282c-0.772,0.003-1.396,0.646-1.396,1.438v2.877h-8.417c-0.774,0-1.401,0.644-1.401,1.438
		v2.877H6.843c-0.775,0-1.402,0.644-1.402,1.438l0,0v71.913c0,0.795,0.627,1.438,1.401,1.439c0,0,0,0,0.001,0h33.663
		c0.774,0,1.402-0.645,1.402-1.439C41.908,85.352,41.28,84.708,40.506,84.708z M30.687,7.04h9.818v5.755h-9.818V7.04z
		 M20.869,11.356h7.016v2.876c0,0.795,0.628,1.438,1.402,1.438l0,0h12.626c0.774,0,1.403-0.644,1.403-1.438v-2.877h7.014v5.756
		H20.869V11.356L20.869,11.356z"/>
</g>
</svg>
