<svg xmlns="http://www.w3.org/2000/svg" xmlns:xlink="http://www.w3.org/1999/xlink" width="431.623" height="361.994" viewBox="0 0 431.623 361.994">
  <defs>
    <linearGradient id="linear-gradient" x1="0.32" x2="0.886" y2="0.52" gradientUnits="objectBoundingBox">
      <stop offset="0" stop-color="#b5e2f6"/>
      <stop offset="1" stop-color="#cae4ef"/>
    </linearGradient>
  </defs>
  <g id="Group_3705" data-name="Group 3705" transform="translate(-173 -366.006)">
    <path id="Path_19158" data-name="Path 19158" d="M411.911,85.587a89.924,89.924,0,0,0-2.7,34.051c1.651,14.336,6.729,28.185,11.165,42.078,6.1,19.1,6.408,52.63,0,71.913-2.243,6.747-53.458,120.514-53.475,121.01,0,0,72.062.027,0,.035s-287.777,0-288.252,0c-3.379-.025-6.8-14.226-7.177-15.925C69,327.7,56.684,315.891,61.808,305.519c7.274-14.725,14.855-26.43,7.518-42.627C64.5,252.237,55.163,243.983,49.819,233.63a122.792,122.792,0,0,1-8.843-90.176C50.191,111.36,71.358,88.893,98.328,66.53c24.221-20.083,44.207-43.935,65.5-66.247H467.816s0,10.64,0,10.652c-.117,4.439-12.063,13.74-15.352,17.128-12.728,13.108-26.294,24.639-34.12,40.57a95.969,95.969,0,0,0-6.433,16.954" transform="translate(136.807 365.723)" opacity="0.46" fill="url(#linear-gradient)"/>
    <path id="Path_19161" data-name="Path 19161" d="M110.73,324.053a251.193,251.193,0,0,1-25.47-36.592l.005,0-.1-.167c2.1-1.693,10.062-9.022,4.877-19.245l-.325-.642-.608.386c-6.581,4.182-7.248,10.312-6.706,14.6-1.831-3.338-3.655-6.823-5.429-10.448q-1.286-2.631-2.565-5.421l.086-.023-.081-.178c2.276-1.454,10.99-7.864,6.959-18.594l-.254-.674-.647.318c-7.226,3.545-8.415,9.845-8.255,14.193-2.065-4.823-4.051-9.939-5.865-15.3,2.552-1.169,11.917-6.281,9.472-17.386l-.154-.7-.685.222c-7.746,2.507-9.779,8.689-10.206,13.023-1.552-5.016-2.925-10.221-4.064-15.568,2.637-.99,12.328-5.422,10.682-16.665l-.1-.712-.7.173C63.1,210.5,60.494,216,59.616,220.228a148.728,148.728,0,0,1-1.936-15.912c2.8-.51,13.078-3.152,13.47-14.482l.024-.719-.718.044c-7.966.494-11.49,5.77-13.031,9.831a125.076,125.076,0,0,1,1.144-20.937c2.687-.059,13.458-1,15.588-12.274l.133-.707-.718-.065c-7.523-.68-11.762,3.489-14.01,7.146a112.684,112.684,0,0,1,3.294-12.924c1.554-1.059,11.072-8.113,6.189-19.163l-.289-.659-.629.353c-10.564,5.945-7.111,17.356-6.519,19.071a114.214,114.214,0,0,0-3.354,13.193c-.869-4.213-3.452-9.631-10.836-11.526l-.7-.179-.112.711c-1.766,11.326,8.069,15.832,10.593,16.793l-.043.191.089.005a125.887,125.887,0,0,0-1.166,19.652,14.046,14.046,0,0,0-12.162-9.006l-.716-.071,0,.72c-.03,11.464,10.376,14.426,13.015,14.993l-.014.195.176-.017a150.232,150.232,0,0,0,1.88,15.555A14.152,14.152,0,0,0,44.4,212.91l-.718.058.127.708c2.022,11.29,12.8,12.339,15.487,12.423l.021.2.149-.043c1,4.685,2.183,9.256,3.5,13.688a14,14,0,0,0-13.807-5.422l-.712.109.179.7c2.62,10.324,12.146,11.3,15.645,11.3.273,0,.493-.007.688-.014L65,246.8l.142-.052c1.648,4.866,3.435,9.537,5.3,13.968A14.035,14.035,0,0,0,55.783,257.1l-.689.209.273.665c3.205,7.767,9.834,9.166,14.193,9.166a20,20,0,0,0,3.553-.312q1.343,2.945,2.7,5.72c1.672,3.416,3.386,6.7,5.114,9.868a14.1,14.1,0,0,0-15.295-2.248l-.661.284.345.631a14.043,14.043,0,0,0,12.977,7.672,20.237,20.237,0,0,0,5.659-.827l.082.178.063-.043a253,253,0,0,0,25.653,36.855.653.653,0,1,0,.979-.865M74.692,229.885c1.671,9.519-6.115,13.932-8.655,15.1-.273-2.782-.4-11.732,8.655-15.1M70.2,210.11c.986,9.614-7.1,13.46-9.712,14.447-.075-2.8.437-11.732,9.712-14.447m-.4-19.585c-.746,9.626-9.368,11.968-12.128,12.474.455-2.744,2.64-11.462,12.128-12.474m2.161-24.284c.25,0,.5.005.757.017-2.2,9.413-11.094,10.414-13.888,10.494.818-2.6,4.056-10.511,13.132-10.511m8.432,82.644c3.005,9.175-4.056,14.648-6.409,16.173-.635-2.708-1.962-11.6,6.409-16.173M68.133,141.276c3.521,9-3.238,14.866-5.494,16.516-.82-2.673-2.718-11.419,5.494-16.516M47.8,161.964c9.249,2.8,9.675,11.743,9.574,14.537-2.606-1.01-10.651-4.933-9.574-14.537m-3.28,28.092c9.555,1.367,11.337,10.121,11.664,12.909-2.707-.631-11.268-3.376-11.664-12.909m.719,24.113c9.627-.361,12.964,7.932,13.785,10.615-2.779-.137-11.691-1.307-13.785-10.615m4.85,21.546c9.609-1.052,13.507,7,14.511,9.613-2.8.088-11.733-.359-14.511-9.613m6.781,22.44c9.023-2.325,13.992,4.481,15.56,7.158.042.1.086.193.129.289-2.783.46-11.682,1.169-15.69-7.447M89.2,269.3c3.992,8.791-2.426,15-4.6,16.78-.927-2.623-3.222-11.313,4.6-16.78M66.833,281.095c9.036-3.418,14.831,3.4,16.452,5.68-2.681.791-11.448,2.588-16.452-5.68" transform="translate(150.109 343.488)" fill="#fff"/>
    <g id="Group_3687" data-name="Group 3687" transform="translate(-37 246)">
      <g id="Group_3305" data-name="Group 3305" transform="translate(27 -4)">
        <path id="Path_12" data-name="Path 12" d="M68.6,427.8s-13.843-46.929-27.986-66.252-14.5-49.192,8.485-50.874,32.691,32.4,38.974,57.434S93.649,427.8,93.649,427.8Z" transform="translate(187.409 33.671)" fill="#fff"/>
        <path id="Path_13" data-name="Path 13" d="M88.88,401.568a.457.457,0,0,0-.631.137l-7.219,11.234q-2.263-9.7-4.611-18.2l7.945-14.489a.457.457,0,0,0-.8-.439l-7.492,13.663c-1.863-6.718-3.739-12.877-5.583-18.493l6.868-19.021a.456.456,0,0,0-.274-.585.461.461,0,0,0-.585.273l-6.474,17.93c-2.911-8.758-5.728-16.159-8.269-22.259l4.558-16.252a.457.457,0,1,0-.88-.246l-4.246,15.143c-6.017-14.227-10.349-20.96-10.44-21.1a.457.457,0,0,0-.764.5c.091.139,4.444,6.911,10.479,21.226L45.89,346.529a.457.457,0,1,0-.245.88l15.266,4.26c2.548,6.119,5.378,13.554,8.3,22.364L54.1,366.609a.457.457,0,0,0-.4.82l15.918,7.821c1.858,5.663,3.75,11.878,5.63,18.667l-12.989-4.946a.456.456,0,1,0-.324.853l13.612,5.183q2.348,8.564,4.638,18.327l-12.846-5.267a.457.457,0,0,0-.346.846l13.443,5.511q1.573,6.823,3.082,14.231a.458.458,0,0,0,.448.366.439.439,0,0,0,.09-.009.457.457,0,0,0,.357-.539q-1.508-7.449-3.1-14.292l7.7-11.982a.457.457,0,0,0-.137-.631" transform="translate(186.15 32.107)" fill="#98dbf9"/>
      </g>
      <g id="Group_3306" data-name="Group 3306" transform="translate(-93.638 88.536) rotate(-16)">
        <path id="Path_14" data-name="Path 14" d="M74.332,431.733h-20.7S13.935,389.1,23.225,370.2s24.75-18.447,32.881-1.269,18.225,62.8,18.225,62.8" transform="translate(188.186 29.735)" fill="#fff"/>
        <path id="Path_15" data-name="Path 15" d="M66.762,418.81a.458.458,0,0,0-.593.255l-3.022,7.576c-1.269-3.6-2.62-7.213-4.01-10.775l4.419-10.527a.457.457,0,1,0-.842-.353l-4.054,9.66c-1.617-4.1-3.274-8.122-4.906-11.955l4.781-12.634a.456.456,0,0,0-.854-.322l-4.444,11.742c-2.229-5.2-4.388-10.007-6.305-14.169l4.646-11.658a.457.457,0,1,0-.849-.339L46.4,386.165c-3.841-8.289-6.577-13.708-6.643-13.839a.457.457,0,1,0-.815.414c.067.132,2.835,5.614,6.709,13.982L33.2,384.693a.456.456,0,1,0-.147.9l13.068,2.128c1.938,4.206,4.123,9.076,6.374,14.335L37.342,398.84a.457.457,0,1,0-.19.894l15.777,3.349c1.655,3.886,3.334,7.964,4.971,12.127l-12.653-2.934a.457.457,0,0,0-.206.891L58.3,416.24c1.41,3.615,2.78,7.284,4.065,10.934l-9.052-3.331A.457.457,0,0,0,53,424.7l9.758,3.591q.818,2.356,1.586,4.694a.456.456,0,0,0,.434.315.482.482,0,0,0,.142-.022.458.458,0,0,0,.292-.576q-.77-2.361-1.6-4.749l3.41-8.55a.456.456,0,0,0-.255-.594" transform="translate(187.246 28.346)" fill="#98dbf9"/>
      </g>
    </g>
    <g id="Group_3685" data-name="Group 3685" transform="translate(457.563 587.281)">
      <g id="Group_3307" data-name="Group 3307" transform="translate(0 0)">
        <path id="Path_12-2" data-name="Path 12" d="M55.841,427.8s13.843-46.929,27.986-66.252,14.5-49.191-8.485-50.874-32.692,32.4-38.974,57.434S30.8,427.8,30.8,427.8Z" transform="translate(-30.772 -310.611)" fill="#fff"/>
        <path id="Path_13-2" data-name="Path 13" d="M45.52,401.568a.457.457,0,0,1,.631.137l7.219,11.234q2.263-9.7,4.611-18.2l-7.945-14.489a.457.457,0,0,1,.8-.439l7.492,13.663c1.863-6.718,3.739-12.877,5.583-18.493l-6.868-19.021a.456.456,0,0,1,.274-.585.461.461,0,0,1,.585.273l6.474,17.93c2.911-8.758,5.728-16.158,8.269-22.259l-4.558-16.252a.457.457,0,1,1,.88-.246l4.246,15.143c6.017-14.227,10.349-20.96,10.44-21.1a.457.457,0,0,1,.765.5c-.091.139-4.444,6.911-10.479,21.226l14.571-4.065a.457.457,0,1,1,.245.88l-15.266,4.26c-2.548,6.119-5.378,13.554-8.3,22.364L80.3,366.609a.457.457,0,0,1,.4.82L64.784,375.25c-1.858,5.663-3.75,11.878-5.63,18.667l12.989-4.946a.456.456,0,1,1,.324.853l-13.612,5.183q-2.348,8.564-4.638,18.327l12.846-5.267a.457.457,0,0,1,.346.846l-13.443,5.511q-1.573,6.823-3.082,14.231a.458.458,0,0,1-.448.366.439.439,0,0,1-.09-.009.457.457,0,0,1-.357-.539q1.508-7.449,3.1-14.292l-7.7-11.982a.457.457,0,0,1,.137-.631" transform="translate(-39.467 -312.175)" fill="#98dbf9"/>
      </g>
      <g id="Group_3308" data-name="Group 3308" transform="translate(72.607 134.132) rotate(-164)">
        <path id="Path_14-2" data-name="Path 14" d="M52.516,0h-20.7S-7.881,42.635,1.409,61.531,26.159,79.979,34.29,62.8,52.516,0,52.516,0" transform="translate(0 0.178)" fill="#fff"/>
        <path id="Path_15-2" data-name="Path 15" d="M34.1,14.491a.458.458,0,0,1-.593-.255L30.482,6.659c-1.269,3.6-2.62,7.213-4.01,10.775l4.419,10.527a.457.457,0,1,1-.842.353l-4.054-9.66c-1.617,4.1-3.274,8.122-4.906,11.955l4.781,12.634a.456.456,0,0,1-.854.322L20.572,31.823c-2.229,5.2-4.388,10.007-6.305,14.169L18.913,57.65a.457.457,0,1,1-.849.339L13.739,47.136C9.9,55.424,7.162,60.843,7.1,60.974a.457.457,0,1,1-.815-.414c.067-.132,2.835-5.615,6.709-13.982L.53,48.607a.456.456,0,1,1-.147-.9l13.068-2.128c1.938-4.206,4.123-9.076,6.374-14.335L4.677,34.461a.457.457,0,1,1-.19-.894l15.777-3.349c1.655-3.886,3.334-7.964,4.971-12.127L12.582,21.024a.457.457,0,0,1-.206-.891L25.638,17.06c1.41-3.615,2.78-7.284,4.065-10.934L20.65,9.457a.457.457,0,0,1-.316-.857l9.759-3.591q.818-2.356,1.586-4.694A.456.456,0,0,1,32.112,0a.482.482,0,0,1,.142.022A.458.458,0,0,1,32.546.6q-.77,2.361-1.6,4.749l3.41,8.55a.456.456,0,0,1-.255.594" transform="translate(9.909 0)" fill="#98dbf9"/>
      </g>
    </g>
    <path id="Path_19159" data-name="Path 19159" d="M43.367,324.052a251.193,251.193,0,0,0,25.47-36.592l-.005,0,.1-.167c-2.1-1.693-10.062-9.022-4.877-19.245l.325-.642.608.386c6.581,4.182,7.248,10.312,6.706,14.6,1.831-3.338,3.655-6.823,5.429-10.448q1.286-2.631,2.565-5.421L79.6,266.5l.081-.178c-2.276-1.454-10.991-7.864-6.959-18.594l.254-.674.647.318c7.226,3.545,8.415,9.845,8.255,14.193,2.065-4.823,4.051-9.939,5.865-15.3-2.552-1.169-11.917-6.281-9.472-17.386l.154-.7.685.222c7.746,2.507,9.779,8.689,10.206,13.023,1.552-5.016,2.925-10.221,4.064-15.568-2.637-.99-12.328-5.422-10.682-16.665l.1-.712.7.173C91,210.5,93.6,216,94.481,220.227a148.726,148.726,0,0,0,1.936-15.912c-2.8-.51-13.078-3.152-13.47-14.482l-.024-.719.718.044c7.966.494,11.49,5.77,13.031,9.831a125.074,125.074,0,0,0-1.144-20.936c-2.687-.059-13.458-1-15.588-12.274l-.133-.707.718-.065c7.523-.68,11.762,3.489,14.01,7.146a112.683,112.683,0,0,0-3.294-12.924c-1.554-1.059-11.072-8.113-6.189-19.163l.289-.659.629.353c10.564,5.945,7.111,17.356,6.519,19.071a114.212,114.212,0,0,1,3.354,13.193c.869-4.213,3.452-9.631,10.836-11.526l.7-.179.112.711c1.766,11.326-8.069,15.832-10.593,16.793l.043.191-.089.005a125.887,125.887,0,0,1,1.166,19.652,14.046,14.046,0,0,1,12.162-9.006l.716-.071,0,.72c.03,11.464-10.376,14.426-13.015,14.993l.014.195-.176-.017a150.228,150.228,0,0,1-1.88,15.555,14.152,14.152,0,0,1,13.858-7.13l.718.058-.127.708c-2.022,11.29-12.8,12.339-15.487,12.423l-.021.2-.149-.043c-1,4.685-2.183,9.256-3.5,13.688a14,14,0,0,1,13.807-5.422l.712.109-.179.7c-2.62,10.324-12.146,11.3-15.645,11.3-.273,0-.493-.007-.688-.014l-.035.195-.142-.052c-1.648,4.866-3.435,9.537-5.3,13.968A14.035,14.035,0,0,1,98.314,257.1l.689.209-.273.665c-3.205,7.767-9.834,9.166-14.193,9.166a20,20,0,0,1-3.553-.312q-1.343,2.945-2.7,5.72c-1.672,3.416-3.386,6.7-5.114,9.868a14.1,14.1,0,0,1,15.295-2.248l.661.284-.345.631A14.043,14.043,0,0,1,75.8,288.755a20.237,20.237,0,0,1-5.659-.827l-.082.178L70,288.063a252.993,252.993,0,0,1-25.653,36.855.653.653,0,1,1-.979-.865M79.4,229.884c-1.671,9.519,6.115,13.932,8.655,15.1.273-2.782.4-11.732-8.655-15.1M83.9,210.11c-.986,9.614,7.1,13.46,9.712,14.447.075-2.8-.437-11.732-9.712-14.447m.4-19.585c.746,9.626,9.368,11.968,12.128,12.474-.455-2.744-2.64-11.462-12.128-12.474m-2.161-24.284c-.25,0-.5.005-.757.017,2.2,9.413,11.094,10.414,13.888,10.494-.818-2.6-4.056-10.511-13.132-10.511M73.7,248.885c-3.005,9.175,4.056,14.648,6.409,16.173.635-2.708,1.962-11.6-6.409-16.173M85.964,141.276c-3.521,9,3.238,14.866,5.494,16.516.82-2.673,2.718-11.419-5.494-16.516m20.33,20.688c-9.249,2.8-9.675,11.743-9.574,14.537,2.606-1.01,10.651-4.933,9.574-14.537m3.28,28.092c-9.555,1.367-11.337,10.121-11.664,12.909,2.707-.631,11.268-3.376,11.664-12.909m-.719,24.113c-9.627-.361-12.964,7.932-13.785,10.615,2.779-.137,11.691-1.307,13.785-10.615m-4.85,21.546c-9.609-1.052-13.507,7-14.511,9.613,2.8.088,11.733-.359,14.511-9.613m-6.781,22.44c-9.023-2.325-13.992,4.481-15.56,7.158-.042.1-.086.193-.129.289,2.783.46,11.682,1.169,15.69-7.447M64.9,269.3c-3.992,8.791,2.426,15,4.6,16.78.927-2.623,3.222-11.313-4.6-16.78m22.364,11.793c-9.036-3.418-14.831,3.4-16.452,5.68,2.681.791,11.448,2.588,16.452-5.68" transform="translate(420.109 343.488)" fill="#fff"/>
    <path id="Path_19160" data-name="Path 19160" d="M378.463,454.351c0,8.728-74.738,15.8-166.933,15.8S44.6,463.079,44.6,454.351,119.335,438.54,211.53,438.54s166.933,7.08,166.933,15.811" transform="translate(152.537 257.844)" fill="#c7dbe4"/>
    <g id="Group_3704" data-name="Group 3704" transform="translate(211 484.896)">
      <g id="Group_3701" data-name="Group 3701" transform="translate(8 6.353)">
        <path id="Path_19240" data-name="Path 19240" d="M205.639,127.779a1.18,1.18,0,0,1-1.348.768l-3.03-.806a.376.376,0,0,0-.379.59l6.4,5.542a.95.95,0,0,1-1.249,1.433l-4.582-4.179a.28.28,0,0,0-.4.018.21.21,0,0,0-.009.274l4.43,5.54a.95.95,0,0,1-.167,1.35v0a.95.95,0,0,1-1.318-.162l-4.469-5.731a.2.2,0,0,0-.33.243l3.462,5.031a.951.951,0,0,1-.274,1.323l0,0a.952.952,0,0,1-1.312-.271l-3.281-4.943a.376.376,0,0,0-.665.342l1.318,3.468a.951.951,0,0,1-.523,1.215h0a.951.951,0,0,1-1.254-.54l-1.575-4.143a.334.334,0,0,0-.034-.067,51.8,51.8,0,0,1-3.165-5.632,3.183,3.183,0,0,1,.624-2.639.341.341,0,0,1,.113-.168c.589-.482,2.677-2.09,3.628-2.094a9.454,9.454,0,0,1,4.557,1.675.311.311,0,0,0,.124.05l3.829.969a1.178,1.178,0,0,1,.878,1.54" transform="translate(-68.008 -18.991)" fill="#ffa895"/>
        <path id="Path_19241" data-name="Path 19241" d="M209.689,61.809s6.455,10.553,8.2,29.656a10.271,10.271,0,0,0,1.675,4.745c3.209,4.834,10.671,16.317,12.3,20.982l-7.181,5.685-7.444-8.445a64.966,64.966,0,0,1-12.31-20.743l-2.986-8.213Z" transform="translate(-101.405 -12.834)" fill="#66a4bf"/>
        <path id="Path_19242" data-name="Path 19242" d="M253.13,36.867s-1.661,6.92,6.642,6.92l.831-7.75Z" transform="translate(-176.097 -10.265)" fill="#b57947"/>
        <path id="Path_19243" data-name="Path 19243" d="M233.021,64.477c0,5.285,6.385,9.568,14.261,9.568s14.261-4.284,14.261-9.568-6.385-9.568-14.261-9.568-14.261,4.284-14.261,9.568" transform="translate(-159.055 -12.148)" fill="#ffa895"/>
        <rect id="Rectangle_1000" data-name="Rectangle 1000" width="4.804" height="6.886" transform="translate(35.125 204.671)" fill="#535859"/>
        <path id="Path_19244" data-name="Path 19244" d="M300.995,242.958a3.763,3.763,0,1,0,3.763-3.763,3.763,3.763,0,0,0-3.763,3.763" transform="translate(-267.231 -30.522)" fill="#535859"/>
        <rect id="Rectangle_1001" data-name="Rectangle 1001" width="4.804" height="6.886" transform="translate(16.39 204.671)" fill="#535859"/>
        <path id="Path_19245" data-name="Path 19245" d="M321.8,242.958a3.763,3.763,0,1,0,3.763-3.763,3.764,3.764,0,0,0-3.763,3.763" transform="translate(-306.775 -30.522)" fill="#535859"/>
        <path id="Path_19246" data-name="Path 19246" d="M287.869,233.149h28.489a5.643,5.643,0,0,0,5.49-4.338l9.829-41.372a5.644,5.644,0,0,0-5.491-6.948H297.7a5.644,5.644,0,0,0-5.49,4.34L282.379,226.2a5.643,5.643,0,0,0,5.49,6.947" transform="translate(-273.642 -24.668)" fill="#4c7393"/>
        <path id="Path_19247" data-name="Path 19247" d="M284.028,216.668l9.828-41.371a5.644,5.644,0,0,1,5.491-4.339h28.488a5.612,5.612,0,0,1,4.525,2.275l8.22,8.329-8.7,2.428L323.5,219.278a5.643,5.643,0,0,1-5.49,4.338H296.044c-.654,2.577-1.8,6.856-1.8,6.856l-8-7.9a5.636,5.636,0,0,1-2.217-5.9" transform="translate(-283.872 -23.718)" fill="#6faed8"/>
        <path id="Path_19248" data-name="Path 19248" d="M287.869,233.149h28.489a5.643,5.643,0,0,0,5.49-4.338l9.829-41.372a5.644,5.644,0,0,0-5.491-6.948H297.7a5.644,5.644,0,0,0-5.49,4.34L282.379,226.2a5.643,5.643,0,0,0,5.49,6.947" transform="translate(-273.642 -24.668)" fill="#4c7393"/>
        <path id="Path_19249" data-name="Path 19249" d="M277.95,184.42h2.267l15.893-51.255h-2.267Z" transform="translate(-234.073 -19.95)" fill="#666c6d"/>
        <path id="Path_19250" data-name="Path 19250" d="M295,184.42h2.267l15.893-51.255h-2.267Z" transform="translate(-266.472 -19.95)" fill="#666c6d"/>
        <path id="Path_19251" data-name="Path 19251" d="M277.4,134.477H295.89a1.421,1.421,0,0,0,1.421-1.421v-.292a1.421,1.421,0,0,0-1.421-1.422H277.4a1.422,1.422,0,0,0-1.422,1.422v.292a1.421,1.421,0,0,0,1.422,1.421" transform="translate(-233.496 -19.769)" fill="#57384d"/>
        <path id="Path_19252" data-name="Path 19252" d="M294.293,190.829h18.49a1.422,1.422,0,0,0,1.422-1.422v-.293a1.422,1.422,0,0,0-1.422-1.422h-18.49a1.422,1.422,0,0,0-1.422,1.422v.293a1.422,1.422,0,0,0,1.422,1.422" transform="translate(-265.6 -25.388)" fill="#57384d"/>
        <path id="Path_19253" data-name="Path 19253" d="M278.825,133.041c.161-1.29.345-2.381.5-3.217a3.779,3.779,0,0,1,2.023-2.672l.953-.476,2.175-1.914.411-.916c.524-.657,1.052-1.371,1.58-2.132a4.2,4.2,0,0,0,.725.456,44.1,44.1,0,0,1,4.184,2.091,4.74,4.74,0,0,0,.532.286L289.27,126.4a4.768,4.768,0,0,1-.943,6.5c-.051.867-.348,1.614-.4,2.482a1.8,1.8,0,0,1-1.286,1.043c-.911.131-7.034,0-7.034,0s-1.173-.26-.781-3.387" transform="translate(-230.59 -18.809)" fill="#ffa895"/>
        <path id="Path_19254" data-name="Path 19254" d="M240.8,235.1l2.235,7.885h-9.5l-2.1-9.463Z" transform="translate(-139.121 -29.957)" fill="#ffa895"/>
        <path id="Path_19255" data-name="Path 19255" d="M234.067,246.465l-3.665-4.629-4.02,1.206,1,5.124s5.622-.688,6.68-1.7" transform="translate(-125.603 -30.786)" fill="#697f84"/>
        <path id="Path_19256" data-name="Path 19256" d="M223.774,240.541s2.654,5.588,6.255,5.8,9.857,1.853,9.857,6.01v.612H215.434V241.782Z" transform="translate(-121.566 -30.655)" fill="#39484c"/>
        <path id="Path_19257" data-name="Path 19257" d="M275.265,228.536l-2.134,7.914-8.15-4.881,3.065-9.195Z" transform="translate(-201.551 -28.844)" fill="#ffa895"/>
        <path id="Path_19258" data-name="Path 19258" d="M271.132,242.37l-.767-5.855-4.066-1.031-1.771,4.912s5.177,2.3,6.6,1.973" transform="translate(-197.01 -30.153)" fill="#697f84"/>
        <path id="Path_19259" data-name="Path 19259" d="M271.487,233.683s-.594,6.157,2.388,8.186,7.5,6.654,5.368,10.221l-.314.525L257.951,240.05l5.742-9.587Z" transform="translate(-199.754 -29.652)" fill="#39484c"/>
        <rect id="Rectangle_1002" data-name="Rectangle 1002" width="24.816" height="1.105" transform="matrix(-0.858, -0.514, 0.514, -0.858, 78.78, 223.899)" fill="#4d5c60"/>
        <path id="Path_19260" data-name="Path 19260" d="M245.408,176.809l4.821-41.5,19.511-4.878,1.668,34.1c.588,8.646-.133,9.757-5.417,16.611l-26.95,42.47-10.2-4.974Z" transform="translate(-165.327 -19.678)" fill="#2b464c"/>
        <path id="Path_19261" data-name="Path 19261" d="M233.839,120.93l24.233.232s4.908,8.8,1.549,15S247,142.648,247,142.648l12.98,84.334H248.852L235,176.223s-8.481-35.742-1.163-55.293" transform="translate(-156.366 -18.73)" fill="#355459"/>
        <path id="Path_19262" data-name="Path 19262" d="M241.944,142.648s-.412-16.028-12.981-21.718h26.3l2.187,45.437Z" transform="translate(-151.313 -18.73)" fill="#2b464c"/>
        <path id="Path_19263" data-name="Path 19263" d="M229.852,24c0,5.9,5.183,10.69,11.576,10.69S253,29.905,253,24s-5.182-10.69-11.575-10.69S229.852,18.1,229.852,24" transform="translate(-147.663 -8)" fill="#b57947"/>
        <path id="Path_19264" data-name="Path 19264" d="M237.258,28.526c0,5.905,5.183,10.69,11.577,10.69s11.575-4.785,11.575-10.69-5.183-10.69-11.575-10.69-11.577,4.786-11.577,10.69" transform="translate(-161.738 -8.45)" fill="#b57947"/>
        <path id="Path_19265" data-name="Path 19265" d="M230.88,33.7c0,7.056,5,11.442,12.224,12.777,6.645,1.228,12.41-3.814,12.41-10.87s-3.89-14.493-12.41-14.684c-6.749-.151-12.224,5.72-12.224,12.777" transform="translate(-151.099 -8.757)" fill="#ffa895"/>
        <rect id="Rectangle_1003" data-name="Rectangle 1003" width="8.111" height="18.706" transform="translate(83.619 26.056)" fill="#ffa895"/>
        <g id="Group_3700" data-name="Group 3700" transform="translate(94.913 104.761)" opacity="0.44">
          <g id="Group_3699" data-name="Group 3699" transform="translate(0)">
            <rect id="Rectangle_1004" data-name="Rectangle 1004" width="2.071" height="12.06" transform="translate(0 0)" fill="none"/>
            <path id="Path_19266" data-name="Path 19266" d="M239.134,124.082c.2-.024.444-.11.629-.14a5.847,5.847,0,0,0,.685-.168,28.439,28.439,0,0,1,.288,11.528.663.663,0,0,1-.649.532.686.686,0,0,1-.134-.014.665.665,0,0,1-.518-.784,27.106,27.106,0,0,0-.3-10.955" transform="translate(-239.133 -123.774)" fill="#314f54"/>
          </g>
        </g>
        <path id="Path_19268" data-name="Path 19268" d="M259.819,22.2s.276,7.751-5.259,8.3l-2.491-2.491s5.536-4.981,7.75-5.812" transform="translate(-174.484 -8.886)" fill="#b57947"/>
        <path id="Path_19269" data-name="Path 19269" d="M264.085,119.758l-7.579-4.262L260.474,93l11.651-28.371a29.842,29.842,0,0,1,11.749-8.4l-3.52,24.429-9.455,17.7Z" transform="translate(-202.53 -12.278)" fill="#8cbae0"/>
        <path id="Path_19270" data-name="Path 19270" d="M228.592,62.1c1.02-2.524,3.541-4.633,6.88-5.87.006,2.547,3.085,4.609,6.883,4.609s6.875-2.063,6.883-4.609c0,0,4.876-.186,13.213,5.054l-3.168,58.977H228.118l2.675-17.993a126.8,126.8,0,0,0-2.426-24.557l-1.8-8.345s-.41-5.551,2.026-7.266" transform="translate(-154.128 -12.279)" fill="#8cbae0"/>
        <path id="Path_19271" data-name="Path 19271" d="M265.507,101.207l-1.945,20.28h-4.778l2.675-17.994a126.8,126.8,0,0,0-2.426-24.557l-1.8-8.345a16.438,16.438,0,0,1,.011-2.059c2.867,6.282,8.263,19.815,8.263,32.675" transform="translate(-184.794 -13.506)" fill="#72adce"/>
        <path id="Path_19272" data-name="Path 19272" d="M254.872,11.281l2.244-1-.472-1.053a1.115,1.115,0,0,0-1.473-.562l-.209.094a1.114,1.114,0,0,0-.562,1.473Z" transform="translate(-173.787 -7.525)" fill="#7e9b9e"/>
        <path id="Path_19273" data-name="Path 19273" d="M235.656,30.011l26.912-12.05-1.18-2.64a13.372,13.372,0,0,0-17.666-6.739l-2.508,1.124a13.37,13.37,0,0,0-6.74,17.665Z" transform="translate(-160.335 -7.412)" fill="#7e9b9e"/>
        <path id="Path_19274" data-name="Path 19274" d="M236.816,9.508c.215-.111.435-.214.657-.315a14.745,14.745,0,0,1,19.482,7.431l.62,1.386-22.163,9.924-.369-.824c-2.932-6.551-2.04-13.609,1.773-17.6" transform="translate(-155.341 -7.459)" fill="#60787c"/>
        <path id="Path_19275" data-name="Path 19275" d="M251.091,17.005l-20.5,9.181.16-5.055a10.121,10.121,0,0,1,5.979-8.916l7.987-3.577a4.619,4.619,0,0,1,6.5,4.362Z" transform="translate(-146.542 -7.492)" fill="#7e9b9e"/>
        <path id="Path_19276" data-name="Path 19276" d="M250.3,16.65l-20.5,9.181.16-5.055a10.122,10.122,0,0,1,5.978-8.916l7.988-3.577a4.619,4.619,0,0,1,6.5,4.362Z" transform="translate(-145.035 -7.457)" fill="#618284"/>
        <path id="Path_19277" data-name="Path 19277" d="M227.478,21.939a5.469,5.469,0,0,0-1.307-3.527,7.443,7.443,0,0,1,4.569-.935c1.4.165,2.75.642,4.149.828a5.051,5.051,0,0,0,4.006-.9c1.767-1.546,1.4-4.412.411-6.542a13.078,13.078,0,0,1,6.206,5.979,4.57,4.57,0,0,0,1.883-4.429,6.847,6.847,0,0,1,.471,9.725c.935-.265,1.854.039,2.788-.226a6.131,6.131,0,0,1-3.739,4.9,15.7,15.7,0,0,1-6.329,1.106,78.963,78.963,0,0,1-10.778-.509,14.229,14.229,0,0,1-4.465-.929,6.249,6.249,0,0,0,2.134-4.543" transform="translate(-141.256 -7.756)" fill="#b57947"/>
        <path id="Path_19278" data-name="Path 19278" d="M255.053,34.842a3.427,3.427,0,1,0,3.426-3.427,3.426,3.426,0,0,0-3.426,3.427" transform="translate(-179.254 -9.805)" fill="#ffa895"/>
      </g>
      <g id="Group_3702" data-name="Group 3702" transform="translate(110.342 25.198)">
        <path id="Path_19285" data-name="Path 19285" d="M144.466,72.244a9.732,9.732,0,0,0-10.478-.173l.7.38s6.78-1.926,9.194.338Z" transform="translate(-67.444 -28.969)" fill="#181819"/>
        <rect id="Rectangle_1010" data-name="Rectangle 1010" width="4.804" height="6.885" transform="translate(81.895 194.156)" fill="#535859"/>
        <path id="Path_19286" data-name="Path 19286" d="M121.726,248.229a3.763,3.763,0,1,0,3.763-3.763,3.763,3.763,0,0,0-3.763,3.763" transform="translate(-41.192 -46.306)" fill="#535859"/>
        <rect id="Rectangle_1011" data-name="Rectangle 1011" width="4.804" height="6.885" transform="translate(63.16 194.156)" fill="#535859"/>
        <path id="Path_19287" data-name="Path 19287" d="M142.536,248.229a3.763,3.763,0,1,0,3.763-3.763,3.763,3.763,0,0,0-3.763,3.763" transform="translate(-80.737 -46.306)" fill="#535859"/>
        <path id="Path_19288" data-name="Path 19288" d="M108.6,238.42H137.09a5.642,5.642,0,0,0,5.49-4.338l9.828-41.373a5.642,5.642,0,0,0-5.49-6.947H118.429a5.644,5.644,0,0,0-5.49,4.338l-9.828,41.371a5.643,5.643,0,0,0,5.49,6.948" transform="translate(-47.604 -40.452)" fill="#4c7393"/>
        <path id="Path_19289" data-name="Path 19289" d="M104.758,221.94l9.828-41.372a5.645,5.645,0,0,1,5.491-4.339h28.488a5.617,5.617,0,0,1,4.526,2.276l8.219,8.329-8.7,2.428-8.383,35.287a5.643,5.643,0,0,1-5.49,4.339H116.775c-.654,2.577-1.8,6.857-1.8,6.857l-8-7.9a5.638,5.638,0,0,1-2.218-5.9" transform="translate(-57.834 -39.502)" fill="#998484"/>
        <path id="Path_19290" data-name="Path 19290" d="M108.6,238.42H137.09a5.642,5.642,0,0,0,5.49-4.338l9.828-41.373a5.642,5.642,0,0,0-5.49-6.947H118.429a5.644,5.644,0,0,0-5.49,4.338l-9.828,41.371a5.643,5.643,0,0,0,5.49,6.948" transform="translate(-47.604 -40.452)" fill="#725e5e"/>
        <path id="Path_19291" data-name="Path 19291" d="M101.914,190.9h2.268l12.982-40.312H114.9Z" transform="translate(-11.268 -36.946)" fill="#666c6d"/>
        <path id="Path_19292" data-name="Path 19292" d="M118.964,190.9h2.268l12.982-40.312h-2.268Z" transform="translate(-43.667 -36.946)" fill="#666c6d"/>
        <path id="Path_19293" data-name="Path 19293" d="M101.361,151.9h18.492a1.422,1.422,0,0,0,1.422-1.422v-.292a1.422,1.422,0,0,0-1.422-1.422H101.361a1.421,1.421,0,0,0-1.421,1.422v.292a1.421,1.421,0,0,0,1.421,1.422" transform="translate(-13.6 -36.765)" fill="#c98b8b"/>
        <path id="Path_19294" data-name="Path 19294" d="M115.023,196.1h18.491a1.422,1.422,0,0,0,1.422-1.422v-.292a1.422,1.422,0,0,0-1.422-1.421H115.023a1.421,1.421,0,0,0-1.422,1.421v.292a1.422,1.422,0,0,0,1.422,1.422" transform="translate(-39.561 -41.171)" fill="#c98b8b"/>
        <path id="Path_19295" data-name="Path 19295" d="M105.654,108.6l12.727-2.313,3.318,28.524-.038.076q.6.83,1.188,1.575l.411.915,2.175,1.916.952.475a3.773,3.773,0,0,1,2.023,2.671c.16.836.345,1.928.505,3.217.391,3.128-.781,3.387-.781,3.387s-6.123.131-7.035,0a1.789,1.789,0,0,1-1.285-1.042c-.053-.868-.35-1.614-.4-2.482A4.746,4.746,0,0,1,117.948,140Z" transform="translate(-26.467 -32.529)" fill="#ffa895"/>
        <path id="Path_19296" data-name="Path 19296" d="M158.767,42.948s-7.617,17.06-27.377,19.594-25.039-1.522-26.072-4.055,18.219-17.732,18.219-17.732l14.947-5.067s17.767,2.613,20.284,7.26" transform="translate(-55.897 -25.49)" fill="#35322d"/>
        <path id="Path_19297" data-name="Path 19297" d="M119.29,46.5a18.546,18.546,0,0,0-1.564,16.2l1.029-1.838A8.092,8.092,0,0,0,123.9,68.9a4.258,4.258,0,0,0,2.515-.433l16.745-.009a8.2,8.2,0,0,0,4.489-6.335c.1.944.246,1.891.348,2.833a18.651,18.651,0,0,0-4.964-27.67,116.739,116.739,0,0,0-15.142,1.884,18.281,18.281,0,0,0-5.9,2c-1.782,1.087-1.6,3.556-2.705,5.325" transform="translate(-59.368 -25.649)" fill="#664229"/>
        <path id="Path_19298" data-name="Path 19298" d="M114.044,245.978c3.148-2.824,18.794,2.772,18.794,2.772,2.638.5,6.281,1.8,6.666,4.257.283,1.811-1.4,3.438-4.545,3.561l-22.066-.059s-2.773-7.009,1.151-10.531" transform="translate(-42.666 -46.377)" fill="#af471e"/>
        <path id="Path_19299" data-name="Path 19299" d="M121.25,238.963c-.437-2.632-4.989-30.86-1.864-43.781,3.28-13.558,4.226-16.653,4.226-16.653l9.837,21.118-2.958,39.314,10.607,3.4s-2.2,4.2-6.19,4.319c-2.366.072-6.6.031-9.664-.015a5.4,5.4,0,0,1-.637-.05,4.7,4.7,0,0,1-3.878-5.607Z" transform="translate(-49.951 -39.733)" fill="#ffa895"/>
        <path id="Path_19300" data-name="Path 19300" d="M182.079,228.152c4.555.567,10.878,16.45,10.878,16.45.863,1.681,1.972,5.873.248,7.664-1.269,1.32-3.587.96-5.582-1.468l-13.287-17.62s2.512-5.677,7.743-5.026" transform="translate(-153.417 -44.675)" fill="#af471e"/>
        <path id="Path_19301" data-name="Path 19301" d="M184.232,195.035,160.29,228.741,164.248,239s-4.749,1.022-7.2-2.132c-1.451-1.869-3.917-5.316-5.684-7.815a4,4,0,0,1,.667-5.355l1.34-1.148s11.316-28.708,21.141-38.611,12.237-12.061,12.237-12.061Z" transform="translate(-124.706 -39.069)" fill="#ffa895"/>
        <path id="Path_19302" data-name="Path 19302" d="M127.356,185.483s-11.826-40.139,8.231-56.842l10.315,2.045-.923,23.474.436,44.789-20.046-3.775a38.184,38.184,0,0,1,1.987-9.692" transform="translate(-59.792 -34.758)" fill="#563e29"/>
        <path id="Path_19303" data-name="Path 19303" d="M119.819,41.752c0,6.09,5.346,11.028,11.941,11.028S143.7,47.842,143.7,41.752s-5.347-11.028-11.941-11.028-11.941,4.937-11.941,11.028" transform="translate(-53.924 -24.995)" fill="#b57947"/>
        <path id="Path_19304" data-name="Path 19304" d="M127.459,46.421c0,6.09,5.346,11.028,11.941,11.028s11.941-4.937,11.941-11.028S146,35.393,139.4,35.393s-11.941,4.937-11.941,11.028" transform="translate(-68.443 -25.46)" fill="#b57947"/>
        <path id="Path_19305" data-name="Path 19305" d="M145.817,52.935a3.535,3.535,0,1,0,3.535-3.535,3.535,3.535,0,0,0-3.535,3.535" transform="translate(-86.515 -26.856)" fill="#ffa895"/>
        <path id="Path_19306" data-name="Path 19306" d="M120.88,51.757c0,7.28,5.159,11.8,12.61,13.18,6.855,1.267,12.8-3.933,12.8-11.213s-4.013-14.951-12.8-15.147c-6.963-.156-12.61,5.9-12.61,13.18" transform="translate(-57.469 -25.778)" fill="#ffa895"/>
        <rect id="Rectangle_1012" data-name="Rectangle 1012" width="8.367" height="19.298" transform="translate(67.37 27.13)" fill="#ffa895"/>
        <path id="Path_19307" data-name="Path 19307" d="M123.037,83.029c0,5.68,6.862,10.284,15.327,10.284s15.327-4.6,15.327-10.284-6.862-10.284-15.327-10.284-15.327,4.6-15.327,10.284" transform="translate(-66.811 -29.184)" fill="#ffa895"/>
        <path id="Path_19308" data-name="Path 19308" d="M120.435,77.058A36.868,36.868,0,0,0,115.619,89.9c-1.368,7.681,1.061,18.678,1.061,18.678l11.553-1.645s-.118-28.508-7.8-29.875" transform="translate(-34.298 -29.614)" fill="#d8d5ce"/>
        <path id="Path_19310" data-name="Path 19310" d="M117.139,44.356a7.783,7.783,0,0,1,4.54-4.582c.025-.01.05-.015.074-.024a1.424,1.424,0,0,1,.076-.849,2.693,2.693,0,0,1,1.269-1.146q1.448-.812,2.961-1.5a8.26,8.26,0,0,1,3.218-.923,3.258,3.258,0,0,1,2.859,1.377,8.06,8.06,0,0,1,4.809-1.187,10.142,10.142,0,0,1,8.226,6.083,10.6,10.6,0,0,1-1.762,10.321,3.347,3.347,0,0,0-1.353-4.021,7.891,7.891,0,0,0-4.435-1.068,18.676,18.676,0,0,1-4.6-.3,7.12,7.12,0,0,1-4.878-4.809l-.046,0a9.8,9.8,0,0,1-9.394,9.205,6.757,6.757,0,0,1-1.56-6.578" transform="translate(-53.383 -25.452)" fill="#664229"/>
        <path id="Path_19311" data-name="Path 19311" d="M132,162c-2.263-26.173,8.26-34.177,8.26-34.177l.068.41.2-.779,5.277-.17.646-2.382,14.194,1.9,1.487-.048-.06.239,3.589.481s7.156,18.246-9.405,22.5l-6.444,25.458-12.88,20.827c-5-3.1-9.744-6.6-14.6-9.918Z" transform="translate(-79.692 -34.386)" fill="#6b4f36"/>
        <path id="Path_19312" data-name="Path 19312" d="M166.578,170.73l2.091.175a24.33,24.33,0,0,1,5.046-12.528c2.9-3.663,6.415-5.61,9.645-5.341s6.373,2.774,8.624,6.867a24.33,24.33,0,0,1,2.894,13.194l2.091.175a26.5,26.5,0,0,0-3.147-14.379c-2.633-4.79-6.287-7.614-10.289-7.949s-8.073,1.843-11.465,6.13a26.5,26.5,0,0,0-5.492,13.657" transform="translate(-149.364 -36.978)" fill="#724118"/>
        <path id="Path_19313" data-name="Path 19313" d="M155.434,203.47l53.753,4.5c2.076.175,3.83-1.957,3.649-4.434l-1.742-23.9c-.343-4.707-3.447-8.353-7.392-8.682l-36.71-3.071c-3.943-.329-7.611,2.751-8.731,7.334l-5.688,23.281c-.59,2.411.785,4.8,2.862,4.977" transform="translate(-152.435 -38.667)" fill="#af471e"/>
        <rect id="Rectangle_1013" data-name="Rectangle 1013" width="4.589" height="36.431" transform="translate(47.027 168.485) rotate(-175.219)" fill="#724118"/>
        <path id="Path_19314" data-name="Path 19314" d="M201.8,167.88l4.348.363-3.037,36.3-4.573-.382,3.036-36.3c.076,0,.151.007.227.014" transform="translate(-187.246 -38.668)" fill="#724118"/>
        <rect id="Rectangle_1014" data-name="Rectangle 1014" width="22.471" height="4.495" transform="translate(86.103 166.449) rotate(-169.335)" fill="#6b4f36"/>
        <path id="Path_19315" data-name="Path 19315" d="M131.3,131.539c.213-.026.477-.118.676-.15a6.508,6.508,0,0,0,.736-.18,30.561,30.561,0,0,1,.311,12.392.713.713,0,0,1-.7.57.656.656,0,0,1-.144-.014.715.715,0,0,1-.556-.843,29.127,29.127,0,0,0-.324-11.774" transform="translate(-54.084 -35.014)" fill="#77573d"/>
        <path id="Path_19316" data-name="Path 19316" d="M156.178,148.206c.174-1.387.371-2.56.542-3.459a4.059,4.059,0,0,1,2.175-2.87l1.024-.512,2.337-2.058.443-.984c3.889-4.888,8-12.554,11.179-21.014l4.058-12.851,9.074,4.314-3.428,10.286s-4.772,12.266-12.105,19.153l-4.07,2.86a5.131,5.131,0,0,1-1.014,6.986c-.056.933-.375,1.734-.431,2.668a1.933,1.933,0,0,1-1.382,1.121c-.98.14-7.561,0-7.561,0s-1.26-.281-.84-3.64" transform="translate(-129.887 -32.347)" fill="#ffa895"/>
        <path id="Path_19317" data-name="Path 19317" d="M129.4,108.228l-11.085-3.646s.5-24.144,10.677-27.844a19.039,19.039,0,0,1,7.972-2.759,3.909,3.909,0,0,0-1.482,3.334c.411,4.035,3.44,6.128,8.848,6.128s9.067-1.882,8.836-6.135c-.074-1.371-1.449-2.829-1.475-3.044,0,0,6.055,1.314,8.234,3.131,0,0,.163,8.217,1.182,10.054s4.08,8.161,1.223,13.465-6.025,13.054-3.513,22.091c0,0-11.549,7.781-25.857-.251,0,0,1.422-11.725-1.886-19.152-.9,2.753-1.675,4.629-1.675,4.629" transform="translate(-72.393 -29.307)" fill="#f4f2ed"/>
        <path id="Path_19318" data-name="Path 19318" d="M125.322,104.514s3.14-12.733-1.168-21.349c0,0,8.4,10.986,7.97,20.895-.4,9.218,17.654,5.76,20.173,5.233a.176.176,0,0,1,.207.222,23.754,23.754,0,0,0-.7,3.229,1.153,1.153,0,0,1-1.143,1.009H134.885a5.452,5.452,0,0,0-5.4,4.731,27.863,27.863,0,0,0-.2,6.243q-1.025-.477-2.068-1.062s1.422-11.724-1.886-19.151" transform="translate(-66.637 -30.223)" fill="#d8d5ce"/>
        <path id="Path_19322" data-name="Path 19322" d="M105.277,57.358c.559-5.278,5.136-10.288,7.773-13.942l-.031.01,1-9.29a11.41,11.41,0,0,1,7.971-7.769l6-1.615a11.406,11.406,0,0,1,10.172,2.172l5.882,6.588c11.638,2.749,14.686,8.306,14.686,8.306a22.179,22.179,0,0,0-21.69,1.815C134,45.744,131.449,48.661,128,50c0,0-8.416,3.72-12.9,2.549s-9.826,4.806-9.826,4.806" transform="translate(-55.857 -24.359)" fill="#4c4842"/>
        <path id="Path_19323" data-name="Path 19323" d="M132.932,103.867l.8-.036c0-.061-.285-6.175-1.35-13.047-1.437-9.277-3.543-15.454-6.258-18.358l-.582.545c6.24,6.673,7.384,30.654,7.395,30.9" transform="translate(-49.098 -29.153)" fill="#2b2b2d"/>
        <path id="Path_19324" data-name="Path 19324" d="M146.626,104.35l.781-.158c-.012-.059-1.2-6-1.836-12.844-.838-9.007-.352-15.484,1.4-18.734l-.7-.378c-1.858,3.436-2.361,9.9-1.5,19.193.641,6.888,1.836,12.862,1.847,12.921" transform="translate(-79.732 -29.133)" fill="#2b2b2d"/>
        <rect id="Rectangle_1015" data-name="Rectangle 1015" width="15.738" height="8.56" transform="translate(67.446 71.88)" fill="#706b6b"/>
        <rect id="Rectangle_1016" data-name="Rectangle 1016" width="15.738" height="4.375" transform="translate(67.446 73.823)" fill="#2b2b2d"/>
        <path id="Path_19325" data-name="Path 19325" d="M125.027,107.227a.912.912,0,1,0,.911-.911.911.911,0,0,0-.911.911" transform="translate(-41.761 -32.531)" fill="#939393"/>
        <path id="Path_19326" data-name="Path 19326" d="M125.389,107.263a.586.586,0,1,0,.586-.585.586.586,0,0,0-.586.585" transform="translate(-41.797 -32.568)" fill="#414143"/>
        <path id="Path_19327" data-name="Path 19327" d="M143.456,107.227a.912.912,0,1,0,.911-.911.911.911,0,0,0-.911.911" transform="translate(-76.782 -32.531)" fill="#939393"/>
        <path id="Path_19328" data-name="Path 19328" d="M143.817,107.263a.587.587,0,1,0,.586-.585.586.586,0,0,0-.586.585" transform="translate(-76.817 -32.568)" fill="#414143"/>
        <rect id="Rectangle_1017" data-name="Rectangle 1017" width="2.605" height="1.301" transform="translate(80.16 71.268)" fill="#b3bcb8"/>
        <rect id="Rectangle_1018" data-name="Rectangle 1018" width="4.909" height="2.179" transform="translate(71.046 70.402)" fill="#939393"/>
        <rect id="Rectangle_1019" data-name="Rectangle 1019" width="15.738" height="8.56" transform="translate(68.574 71.88)" fill="#939393"/>
        <rect id="Rectangle_1020" data-name="Rectangle 1020" width="15.738" height="4.375" transform="translate(68.574 73.823)" fill="#414143"/>
        <path id="Path_19329" data-name="Path 19329" d="M130.4,108.524a3.886,3.886,0,1,0,3.886-3.886,3.886,3.886,0,0,0-3.886,3.886" transform="translate(-57.926 -32.363)" fill="#b3bcb8"/>
        <path id="Path_19330" data-name="Path 19330" d="M131.2,108.6a3.17,3.17,0,1,0,3.17-3.17,3.169,3.169,0,0,0-3.17,3.17" transform="translate(-58.005 -32.443)" fill="#414143"/>
        <path id="Path_19331" data-name="Path 19331" d="M134.946,107.171a.716.716,0,1,0,.717-.716.717.717,0,0,0-.717.716" transform="translate(-60.22 -32.544)" fill="#939393"/>
        <rect id="Rectangle_1021" data-name="Rectangle 1021" width="2.527" height="1.264" transform="translate(71.492 70.716)" fill="#414143"/>
        <rect id="Rectangle_1022" data-name="Rectangle 1022" width="1.238" height="0.518" transform="translate(74.408 70.716)" fill="#414143"/>
        <path id="Path_19332" data-name="Path 19332" d="M135.871,104a.284.284,0,1,0,.284-.283.284.284,0,0,0-.284.283" transform="translate(-61.112 -32.271)" fill="#bc3131"/>
      </g>
      <g id="Group_3703" data-name="Group 3703" transform="translate(210.616 -2)">
        <path id="Path_19333" data-name="Path 19333" d="M5.031,59.365l1.028-3.327A6.9,6.9,0,0,0,8.6,51.016a17.981,17.981,0,0,0-.242-3.932L4.244,45.026.856,49.08.069,54.465l1.089,3.206Z" transform="translate(68.867 -4.49)" fill="#ef9181"/>
        <path id="Path_19334" data-name="Path 19334" d="M49.9,115.921H72.029a9.526,9.526,0,0,0,9.526-9.526V59.256a9.526,9.526,0,0,0-9.526-9.527H66.672a26.3,26.3,0,0,0-26.295,26.3V106.4a9.526,9.526,0,0,0,9.526,9.526" transform="translate(-40.377 -4.959)" fill="#ffcd50"/>
        <path id="Path_19335" data-name="Path 19335" d="M48.971,115.415h5.217A17.447,17.447,0,0,0,71.635,97.967V65.718A17.447,17.447,0,0,0,54.188,48.271H48.971A17.447,17.447,0,0,0,31.524,65.718V97.967a17.447,17.447,0,0,0,17.447,17.448" transform="translate(-22.486 -4.813)" fill="#f9b700"/>
        <rect id="Rectangle_1023" data-name="Rectangle 1023" width="7.877" height="9.318" transform="translate(9.314 84.931)" fill="#917b6d"/>
        <path id="Path_19336" data-name="Path 19336" d="M38.3,42.178H69.485a5.485,5.485,0,1,1,0,10.971H38.3a5.485,5.485,0,1,1,0-10.971" transform="translate(-26.986 -4.205)" fill="#917b6d"/>
        <path id="Path_19337" data-name="Path 19337" d="M44.6,234.236l2.33,8.22h-9.9l-2.185-9.864Z" transform="translate(-0.763 -23.191)" fill="#ffa895"/>
        <path id="Path_19338" data-name="Path 19338" d="M37.58,246.084l-3.821-4.825-4.189,1.257,1.048,5.341s5.86-.718,6.962-1.773" transform="translate(13.328 -24.056)" fill="#8e6a4c"/>
        <path id="Path_19339" data-name="Path 19339" d="M26.851,239.908s2.767,5.826,6.521,6.04,10.275,1.933,10.275,6.267v.637H18.157V241.2Z" transform="translate(17.536 -23.921)" fill="#5b4029"/>
        <path id="Path_19340" data-name="Path 19340" d="M62.144,234.236l2.33,8.22h-9.9l-2.185-9.864Z" transform="translate(-34.108 -23.191)" fill="#ffa895"/>
        <path id="Path_19341" data-name="Path 19341" d="M55.127,246.084l-3.821-4.825-4.189,1.257,1.048,5.341s5.86-.718,6.962-1.773" transform="translate(-20.017 -24.056)" fill="#8e6a4c"/>
        <path id="Path_19342" data-name="Path 19342" d="M44.4,239.908s2.767,5.826,6.521,6.04,10.275,1.933,10.275,6.267v.637H35.7V241.2Z" transform="translate(-15.809 -23.921)" fill="#6b4f36"/>
        <path id="Path_19343" data-name="Path 19343" d="M54.721,225.675H41.6L37.144,180.56a46.593,46.593,0,0,0-1.045-6.228L31.39,154.589l-.365-32.809,24,.126,2.9,51.678a46.543,46.543,0,0,1-.035,5.78Z" transform="translate(-8.395 -12.142)" fill="#425b5b"/>
        <path id="Path_19344" data-name="Path 19344" d="M70.325,121.292s-.954,21-3.817,26.723-5.25,75.875-5.25,75.875H50.283l-5.957-56.765a170.193,170.193,0,0,1,.666-41l.995-7.218Z" transform="translate(-31.865 -11.856)" fill="#4b6263"/>
        <path id="Path_19345" data-name="Path 19345" d="M7.071,52.463a31.065,31.065,0,0,1,10.018,18.6l2.587,3.765,9.417-20.458,5.266,6.546S32.138,78.173,24.331,87.052a17.49,17.49,0,0,1-5.514,4.173,3.085,3.085,0,0,1-3.95-1.112C11.511,84.832,5.414,71.482,3.833,66.472,1.89,60.317,2.969,53.737,7.071,52.463" transform="translate(40.564 -5.23)" fill="#a4ba8e"/>
        <path id="Path_19346" data-name="Path 19346" d="M59.01,28.144s-1.879,7.828,7.516,7.828l.939-8.767Z" transform="translate(-42.924 -2.713)" fill="#6d5848"/>
        <path id="Path_19347" data-name="Path 19347" d="M37.414,56.38c0,5.509,6.655,9.974,14.866,9.974s14.864-4.465,14.864-9.974-6.655-9.974-14.864-9.974S37.414,50.871,37.414,56.38" transform="translate(-23.298 -4.627)" fill="#ffa895"/>
        <path id="Path_19348" data-name="Path 19348" d="M30.294,14.072c0,7.772,6.822,14.072,15.239,14.072s15.239-6.3,15.239-14.072S53.949,0,45.533,0,30.294,6.3,30.294,14.072" transform="translate(-10.517)" fill="#6d5848"/>
        <path id="Path_19349" data-name="Path 19349" d="M40.12,16.59c0,7.215,6.334,13.064,14.147,13.064S68.413,23.805,68.413,16.59,62.08,3.526,54.267,3.526,40.12,9.375,40.12,16.59" transform="translate(-27.004 -0.351)" fill="#6d5848"/>
        <path id="Path_19350" data-name="Path 19350" d="M33.838,24.561c0,7.984,5.657,12.945,13.83,14.456,7.517,1.389,14.039-4.315,14.039-12.3s-4.4-16.4-14.039-16.614c-7.636-.169-13.83,6.472-13.83,14.457" transform="translate(-14.642 -1.006)" fill="#ffa895"/>
        <rect id="Rectangle_1024" data-name="Rectangle 1024" width="8.455" height="19.499" transform="translate(24.178 24.365)" fill="#ffa895"/>
        <path id="Path_19352" data-name="Path 19352" d="M66.579,11.553s.313,8.768-5.95,9.395l-2.818-2.819s6.262-5.637,8.768-6.576" transform="translate(-41.099 -1.153)" fill="#6d5848"/>
        <path id="Path_19353" data-name="Path 19353" d="M32.8,53.9c1.064-2.631,3.69-4.829,7.172-6.118.007,2.654,3.216,4.8,7.174,4.8s7.167-2.151,7.174-4.8c0,0,5.083-.194,13.774,5.268l-3.3,61.477H30.853L35.09,95.772a132.123,132.123,0,0,0-2.53-25.6l-1.876-8.7S30.257,55.688,32.8,53.9" transform="translate(-18.16 -4.764)" fill="#e2f2d3"/>
        <path id="Path_19354" data-name="Path 19354" d="M71.277,94.668l-2.027,21.14H62.82l4.237-18.757a132.046,132.046,0,0,0-2.53-25.6l-1.876-8.7a17.318,17.318,0,0,1,.012-2.146c2.989,6.549,8.614,20.657,8.614,34.061" transform="translate(-50.128 -6.042)" fill="#c9e2b3"/>
        <path id="Path_19355" data-name="Path 19355" d="M61.186,25.852a3.877,3.877,0,1,0,3.877-3.876,3.877,3.877,0,0,0-3.877,3.876" transform="translate(-46.496 -2.191)" fill="#ffa895"/>
        <path id="Path_19357" data-name="Path 19357" d="M56.484,19.915A12.946,12.946,0,0,0,48.1,6.942,12.945,12.945,0,0,0,33.47,11.9a14.361,14.361,0,0,0,17.293,4.334,7.931,7.931,0,0,0,5.72,3.681" transform="translate(-9.131 -0.629)" fill="#6d5848"/>
        <path id="Path_19362" data-name="Path 19362" d="M65.73,48.74s9.649,22.055-2.3,47.786" transform="translate(-48.989 -4.859)" fill="none" stroke="#917b6d" stroke-miterlimit="10" stroke-width="17"/>
        <path id="Path_19363" data-name="Path 19363" d="M29.259,63.489a40.943,40.943,0,0,0-3.782-13.84l.376-.164,0,0,3.4,1a41.146,41.146,0,0,1,4.206,13.319,57.932,57.932,0,0,1-5,31.432,3.443,3.443,0,0,1-1.711,1.734L27.377,85.9a61.447,61.447,0,0,0,1.882-22.41" transform="translate(20.718 -4.934)" fill="#917b6d"/>
        <rect id="Rectangle_1025" data-name="Rectangle 1025" width="20.575" height="11.192" transform="translate(49.735 41.065)" fill="#8e756e"/>
        <rect id="Rectangle_1026" data-name="Rectangle 1026" width="20.575" height="5.72" transform="translate(49.735 43.605)" fill="#2d221a"/>
        <path id="Path_19364" data-name="Path 19364" d="M5.252,49.572A1.192,1.192,0,1,0,6.444,48.38a1.192,1.192,0,0,0-1.192,1.192" transform="translate(65.166 -4.824)" fill="#bca79f"/>
        <path id="Path_19365" data-name="Path 19365" d="M5.724,49.619a.766.766,0,1,0,.766-.766.766.766,0,0,0-.766.766" transform="translate(65.12 -4.872)" fill="#42352a"/>
        <path id="Path_19366" data-name="Path 19366" d="M29.345,49.572a1.192,1.192,0,1,0,1.192-1.192,1.192,1.192,0,0,0-1.192,1.192" transform="translate(19.382 -4.824)" fill="#bca79f"/>
        <path id="Path_19367" data-name="Path 19367" d="M29.817,49.619a.766.766,0,1,0,.766-.766.766.766,0,0,0-.766.766" transform="translate(19.336 -4.872)" fill="#42352a"/>
        <rect id="Rectangle_1027" data-name="Rectangle 1027" width="3.405" height="1.703" transform="translate(66.359 40.266)" fill="#dddcdb"/>
        <rect id="Rectangle_1028" data-name="Rectangle 1028" width="6.416" height="2.848" transform="translate(54.443 39.135)" fill="#bca79f"/>
        <rect id="Rectangle_1029" data-name="Rectangle 1029" width="20.575" height="11.192" transform="translate(51.21 41.065)" fill="#bca79f"/>
        <rect id="Rectangle_1030" data-name="Rectangle 1030" width="20.606" height="5.72" transform="translate(51.18 43.605)" fill="#42352a"/>
        <path id="Path_19368" data-name="Path 19368" d="M12.28,51.266a5.08,5.08,0,1,0,5.079-5.079,5.079,5.079,0,0,0-5.079,5.079" transform="translate(44.034 -4.604)" fill="#dddcdb"/>
        <path id="Path_19369" data-name="Path 19369" d="M13.319,51.37a4.144,4.144,0,1,0,4.144-4.143,4.144,4.144,0,0,0-4.144,4.143" transform="translate(43.931 -4.709)" fill="#414143"/>
        <path id="Path_19370" data-name="Path 19370" d="M18.219,49.5a.936.936,0,1,0,.935-.935.935.935,0,0,0-.935.935" transform="translate(41.037 -4.842)" fill="#bca79f"/>
        <rect id="Rectangle_1031" data-name="Rectangle 1031" width="3.304" height="1.653" transform="translate(55.025 39.545)" fill="#42352a"/>
        <rect id="Rectangle_1032" data-name="Rectangle 1032" width="1.619" height="0.677" transform="translate(58.837 39.545)" fill="#42352a"/>
        <path id="Path_19371" data-name="Path 19371" d="M19.428,45.351a.371.371,0,1,0,.371-.372.371.371,0,0,0-.371.372" transform="translate(39.869 -4.485)" fill="#bc3131"/>
        <path id="Path_19372" data-name="Path 19372" d="M33.926,51.111c-1.095.446-2.009.863-2.705,1.2a3.44,3.44,0,0,0-1.871,2.406l-.194.949-1.169,2.361-.707.578q-.683.922-1.5,1.89a3.82,3.82,0,0,1,.571.529,39.818,39.818,0,0,0,2.824,3.182,4.624,4.624,0,0,1,.376.4l1.008-2.758a4.338,4.338,0,0,0,5.484-2.36c.75-.249,1.335-.687,2.086-.936a1.634,1.634,0,0,0,.612-1.376c-.1-.832-1.657-6.178-1.657-6.178s-.5-.968-3.158.112" transform="translate(15.568 -5.046)" fill="#ffa895"/>
        <path id="Path_19373" data-name="Path 19373" d="M38.919,52.463a31.065,31.065,0,0,1,10.018,18.6L52.5,75.479l11.595-16.4,5.264,6.546s-5.37,12.551-13.178,21.43a17.49,17.49,0,0,1-5.514,4.173,3.086,3.086,0,0,1-3.95-1.112c-3.355-5.281-9.452-18.631-11.033-23.642-1.944-6.154-.863-12.735,3.237-14.009" transform="translate(-23.106 -5.23)" fill="#a4ba8e"/>
        <path id="Path_19374" data-name="Path 19374" d="M.855,46.349H8.276a.855.855,0,0,0,.855-.855v-.256a.856.856,0,0,0-.855-.856H.855A.856.856,0,0,0,0,45.238v.256a.855.855,0,0,0,.855.855" transform="translate(68.398 -4.426)" fill="#ef9181"/>
        <path id="Path_19375" data-name="Path 19375" d="M.855,48.432H8.276a.854.854,0,0,0,.855-.854v-.256a.856.856,0,0,0-.855-.857H.855A.856.856,0,0,0,0,47.322v.256a.854.854,0,0,0,.855.854" transform="translate(68.398 -4.633)" fill="#ef9181"/>
        <path id="Path_19376" data-name="Path 19376" d="M1.056,50.516H8.3a.856.856,0,0,0,.856-.855v-.256a.856.856,0,0,0-.856-.856H1.056a.856.856,0,0,0-.855.856v.256a.855.855,0,0,0,.855.855" transform="translate(68.197 -4.841)" fill="#ef9181"/>
        <path id="Path_19377" data-name="Path 19377" d="M1.056,52.6H8.3a.856.856,0,0,0,.856-.855v-.256a.856.856,0,0,0-.856-.856H1.056a.856.856,0,0,0-.855.856v.256a.855.855,0,0,0,.855.855" transform="translate(68.197 -5.048)" fill="#ef9181"/>
      </g>
    </g>
  </g>
</svg>
