<?xml version="1.0" encoding="utf-8"?>
<!-- Generator: Adobe Illustrator 16.0.0, SVG Export Plug-In . SVG Version: 6.00 Build 0)  -->
<!DOCTYPE svg PUBLIC "-//W3C//DTD SVG 1.1//EN" "http://www.w3.org/Graphics/SVG/1.1/DTD/svg11.dtd">
<svg version="1.1" id="Layer_1" xmlns="http://www.w3.org/2000/svg" xmlns:xlink="http://www.w3.org/1999/xlink" x="0px" y="0px"
	 width="43.461px" height="44.867px" viewBox="0 0 43.461 44.867" enable-background="new 0 0 43.461 44.867" xml:space="preserve">
<g id="umbrella_1_" transform="translate(-8 0.025)">
	
		<linearGradient id="Path_16677_1_" gradientUnits="userSpaceOnUse" x1="-268.9341" y1="402.6942" x2="-268.9341" y2="401.6942" gradientTransform="matrix(43.463 0 0 -24.5484 11718.417 9885.4521)">
		<stop  offset="0" style="stop-color:#00A9E0"/>
		<stop  offset="1" style="stop-color:#801C7D"/>
	</linearGradient>
	<path id="Path_16677" fill="url(#Path_16677_1_)" d="M45.101,8.472c-3.906-3.928-9.174-6.203-14.711-6.354V0.659
		c0.014-0.363-0.27-0.67-0.633-0.684c-0.364-0.015-0.67,0.269-0.685,0.633c0,0.017,0,0.034,0,0.051v1.46
		C17.333,2.474,8,12.093,8,23.838c-0.014,0.363,0.269,0.67,0.633,0.684c0.364,0.016,0.67-0.27,0.684-0.633
		c0.001-0.016,0.001-0.033,0-0.051c0-1.964,1.592-3.556,3.556-3.556s3.556,1.592,3.556,3.556c0.014,0.363,0.32,0.646,0.684,0.633
		c0.344-0.014,0.619-0.289,0.633-0.633c0-1.964,1.593-3.555,3.557-3.554c1.963,0,3.554,1.592,3.555,3.554
		c-0.014,0.363,0.269,0.67,0.633,0.684c0.364,0.016,0.67-0.268,0.684-0.633c0.001-0.016,0.001-0.033,0-0.051
		c0.001-1.964,1.594-3.555,3.558-3.554c1.963,0,3.554,1.592,3.555,3.554c-0.015,0.363,0.269,0.67,0.633,0.684
		c0.364,0.016,0.67-0.27,0.685-0.633c0-0.016,0-0.033,0-0.051c0-1.964,1.593-3.555,3.557-3.554c1.963,0,3.555,1.592,3.555,3.554
		c-0.014,0.363,0.27,0.67,0.633,0.684c0.363,0.016,0.67-0.27,0.685-0.633c0.001-0.016,0.001-0.033,0-0.051
		c-0.001-1.964,1.591-3.556,3.555-3.557s3.556,1.591,3.558,3.555v0.002c-0.015,0.363,0.269,0.67,0.633,0.684
		c0.363,0.016,0.67-0.27,0.684-0.633c0.001-0.016,0.001-0.033,0-0.051C51.479,18.072,49.188,12.538,45.101,8.472z M12.873,18.965
		c-1.193,0-2.345,0.439-3.234,1.234c1.38-7.576,6.897-13.735,14.276-15.938c-1.481,1.212-2.731,2.682-3.689,4.339
		c-2.104,3.699-3.354,7.821-3.658,12.065c-0.925-1.08-2.277-1.701-3.7-1.699L12.873,18.965z M21.302,18.965
		c-1.261-0.001-2.473,0.489-3.379,1.365c0.33-3.89,1.501-7.661,3.432-11.054c1.771-2.951,3.975-4.865,6.352-5.56
		c-0.775,1.611-1.314,3.326-1.6,5.092c-0.714,3.88-1.115,7.812-1.2,11.756c-0.922-1.02-2.233-1.601-3.607-1.6H21.302z
		 M29.731,18.965c-1.32,0-2.584,0.537-3.5,1.488c0.087-3.82,0.478-7.628,1.169-11.387c0.261-1.5,0.693-2.965,1.286-4.367
		c0.446-0.943,0.842-1.278,1.045-1.278s0.6,0.335,1.045,1.278c0.594,1.401,1.025,2.865,1.289,4.364
		c0.689,3.759,1.08,7.566,1.166,11.387C32.315,19.5,31.052,18.964,29.731,18.965L29.731,18.965z M38.16,18.965
		c-1.374-0.001-2.685,0.58-3.606,1.6c-0.086-3.944-0.486-7.876-1.201-11.757c-0.285-1.766-0.824-3.48-1.6-5.092
		c2.377,0.699,4.582,2.608,6.352,5.56c1.932,3.393,3.104,7.165,3.434,11.055C40.632,19.454,39.421,18.964,38.16,18.965z
		 M46.589,18.965c-1.422-0.002-2.774,0.619-3.699,1.699c-0.304-4.243-1.553-8.365-3.654-12.064
		c-0.959-1.656-2.209-3.126-3.689-4.337C42.925,6.466,48.44,12.624,49.821,20.2C48.933,19.405,47.781,18.965,46.589,18.965
		L46.589,18.965z"/>
	
		<linearGradient id="Path_16678_1_" gradientUnits="userSpaceOnUse" x1="-235.5708" y1="401.6728" x2="-235.5708" y2="400.6728" gradientTransform="matrix(6.9365 0 0 -23.092 1660.9624 9297.168)">
		<stop  offset="0" style="stop-color:#00A9E0"/>
		<stop  offset="1" style="stop-color:#801C7D"/>
	</linearGradient>
	<path id="Path_16678" fill="url(#Path_16678_1_)" d="M29.731,21.775c-0.363-0.001-0.658,0.294-0.659,0.657c0,0,0,0.001,0,0.002
		v18.964c0.037,1.188-0.897,2.18-2.084,2.217c-1.187,0.035-2.179-0.898-2.215-2.086c-0.001-0.043-0.001-0.086,0-0.131
		c0.014-0.363-0.269-0.67-0.633-0.684s-0.67,0.27-0.684,0.633c-0.001,0.018-0.001,0.035,0,0.051c0,1.916,1.553,3.469,3.468,3.469
		c1.916,0,3.469-1.553,3.469-3.469V22.434c0-0.363-0.294-0.658-0.658-0.659C29.733,21.775,29.732,21.775,29.731,21.775z"/>
</g>
</svg>
