<svg xmlns="http://www.w3.org/2000/svg" width="60.106" height="60.106" viewBox="0 0 60.106 60.106">
  <g id="umbrella" transform="translate(24.211 0) rotate(34)">
    <path id="Path_16104" data-name="Path 16104" d="M163.148,386.687v3.6a5.074,5.074,0,0,1-10.148,0v-3.57a1.438,1.438,0,1,1,2.875,0v3.57a2.2,2.2,0,1,0,4.4,0v-3.6Z" transform="translate(-140.062 -352.699)" fill="#4380a0"/>
    <path id="Path_16105" data-name="Path 16105" d="M239,201.5h2.875v16.949H239Z" transform="translate(-218.789 -184.46)" fill="#e6e6e6"/>
    <path id="Path_16106" data-name="Path 16106" d="M49.528,23.905H7.5A16.405,16.405,0,0,1,23.905,7.5h9.218A16.405,16.405,0,0,1,49.528,23.905Z" transform="translate(-6.866 -6.866)" fill="#ffca28"/>
    <path id="Path_16107" data-name="Path 16107" d="M283.037,7.5H280.5a16.405,16.405,0,0,1,16.405,16.405h2.537A16.405,16.405,0,0,0,283.037,7.5Z" transform="translate(-256.78 -6.866)" fill="#ffb300"/>
    <path id="Path_16108" data-name="Path 16108" d="M168.78,23.905H151.026V20.531C151.026,14.361,155,7.5,159.9,7.5s8.877,6.87,8.877,13.031Z" transform="translate(-138.255 -6.866)" fill="#f44336"/>
    <path id="Path_16109" data-name="Path 16109" d="M242.264,7.5a5.352,5.352,0,0,0-1.269.155c4.3,1.047,7.609,7.256,7.609,12.876v3.375h2.537V20.531C251.141,14.37,247.166,7.5,242.264,7.5Z" transform="translate(-220.615 -6.866)" fill="#e53935"/>
    <path id="Path_16110" data-name="Path 16110" d="M38.655,5.35a.634.634,0,0,0-.923.87,15.7,15.7,0,0,1,4.283,10.185H31.16v-2.74a17.592,17.592,0,0,0-2.7-9.17,11.4,11.4,0,0,0-3-3.227h.8A15.628,15.628,0,0,1,35.8,4.481a.634.634,0,1,0,.768-1.009A16.886,16.886,0,0,0,26.257,0H17.04A17.059,17.059,0,0,0,0,17.04a.634.634,0,0,0,.634.634H2.711a.634.634,0,0,0,0-1.268H1.281A15.79,15.79,0,0,1,17.04,1.268h.8a11.39,11.39,0,0,0-3,3.223,17.342,17.342,0,0,0-2.7,9.173v2.74H5.4a.634.634,0,0,0,0,1.268H19.577V37.589a1.564,1.564,0,0,1-3.129,0v-3.57a2.072,2.072,0,0,0-4.144,0v3.57a5.708,5.708,0,0,0,11.416,0V32.446a.634.634,0,0,0-1.268,0v.908H20.845V17.674h1.607V29.756a.634.634,0,0,0,1.268,0V17.674H42.663a.634.634,0,0,0,.634-.634A16.972,16.972,0,0,0,38.655,5.35Zm-16.2,29.272v2.966a4.44,4.44,0,0,1-8.879,0v-3.57a.8.8,0,0,1,1.607,0v3.57a2.833,2.833,0,0,0,5.666,0V34.623ZM13.406,16.405v-2.74A16.271,16.271,0,0,1,15.9,5.18c1.63-2.523,3.67-3.912,5.744-3.912s4.114,1.39,5.744,3.915a16.271,16.271,0,0,1,2.5,8.482v2.74Z"/>
  </g>
</svg>
