<?xml version="1.0" encoding="utf-8"?>
<!-- Generator: Adobe Illustrator 14.0.0, SVG Export Plug-In . SVG Version: 6.00 Build 43363)  -->
<!DOCTYPE svg PUBLIC "-//W3C//DTD SVG 1.1//EN" "http://www.w3.org/Graphics/SVG/1.1/DTD/svg11.dtd">
<svg version="1.1" id="Layer_1" xmlns="http://www.w3.org/2000/svg" xmlns:xlink="http://www.w3.org/1999/xlink" x="0px" y="0px"
	 width="207.866px" height="201.828px" viewBox="12.133 13.63 207.866 201.828"
	 enable-background="new 12.133 13.63 207.866 201.828" xml:space="preserve">
<g id="Group_1643" transform="translate(42.502 -2681.58)">
	<g id="Polygon_5" transform="matrix(-0.629, 0.777, -0.777, -0.629, 119.466, 2852.547)" opacity="0.1">
		<path fill="none" d="M49.858,21.15c3.849-6.706,12.407-9.021,19.113-5.172c2.151,1.235,3.935,3.02,5.171,5.171l37.82,65.88
			c3.85,6.706,1.534,15.262-5.172,19.112c-2.12,1.217-4.524,1.858-6.969,1.858l-75.64,0c-7.732,0-14-6.268-14-14
			c0-2.446,0.641-4.849,1.858-6.97L49.858,21.15z"/>
		<path fill="#98A0A2" d="M62,18.12c-1.724,0-3.415,0.434-4.891,1.254c-1.578,0.877-2.849,2.144-3.782,3.768l-37.82,65.88
			c-0.928,1.617-1.381,3.348-1.346,5.146c0.032,1.683,0.504,3.358,1.365,4.844c0.86,1.486,2.078,2.729,3.521,3.595
			c1.542,0.925,3.269,1.394,5.133,1.394l75.641,0c1.863,0.001,3.59-0.468,5.132-1.394c1.443-0.866,2.661-2.109,3.521-3.595
			c0.861-1.486,1.333-3.162,1.365-4.844c0.035-1.798-0.418-3.529-1.345-5.146l-37.82-65.88c-0.932-1.623-2.204-2.891-3.782-3.768
			C65.414,18.554,63.723,18.12,62,18.12 M62,14.119c4.725,0.001,9.451,2.344,12.141,7.03l37.82,65.88
			C117.32,96.363,110.582,108,99.82,108l-75.64,0c-10.762,0-17.5-11.637-12.141-20.97l37.82-65.88
			C52.549,16.463,57.275,14.12,62,14.119z"/>
	</g>
	<g id="Polygon_5-2" transform="matrix(-0.629, 0.777, -0.777, -0.629, 227.466, 2749.547)" opacity="0.1">
		<path fill="none" d="M53.092,25.144c3.849-6.706,12.406-9.021,19.112-5.171c2.152,1.235,3.936,3.02,5.172,5.172l37.819,65.88
			c3.85,6.706,1.534,15.262-5.172,19.112c-2.121,1.218-4.523,1.858-6.969,1.859l-75.64,0c-7.732,0-14-6.268-14-14
			c0-2.446,0.64-4.849,1.858-6.971L53.092,25.144z"/>
		<path fill="#98A0A2" d="M65.234,22.115c-1.724-0.001-3.415,0.433-4.891,1.254c-1.577,0.877-2.85,2.144-3.782,3.768l-37.82,65.88
			c-0.929,1.616-1.381,3.348-1.347,5.145c0.033,1.683,0.505,3.358,1.365,4.845c0.86,1.486,2.078,2.729,3.521,3.595
			c1.542,0.925,3.269,1.394,5.133,1.395l75.64,0c1.864,0,3.591-0.469,5.132-1.394c1.443-0.866,2.661-2.109,3.521-3.595
			c0.861-1.486,1.333-3.161,1.365-4.844c0.035-1.797-0.418-3.529-1.346-5.145l-37.82-65.88c-0.932-1.623-2.204-2.891-3.782-3.768
			C68.649,22.549,66.957,22.114,65.234,22.115 M65.234,18.114c4.725,0,9.451,2.343,12.142,7.03l37.82,65.88
			c5.358,9.333-1.38,20.97-12.141,20.97l-75.64,0c-10.762,0-17.499-11.637-12.141-20.97l37.82-65.88
			C55.783,20.457,60.508,18.114,65.234,18.114z"/>
	</g>
</g>
</svg>
