<svg xmlns="http://www.w3.org/2000/svg" width="71.802" height="61.762" viewBox="0 0 71.802 61.762">
  <g id="deviantart-site" transform="translate(0 -8.949)">
    <path id="Path_16327" data-name="Path 16327" d="M63.9,46.51a.829.829,0,0,0-.287-.346,19.448,19.448,0,0,0-29.787.061.974.974,0,0,0-.152.168c-.008.011-.012.024-.019.035a19.437,19.437,0,0,0,0,24.612c.007.011.012.024.019.035a.976.976,0,0,0,.153.168,19.448,19.448,0,0,0,29.787.056.817.817,0,0,0,.28-.341,19.429,19.429,0,0,0,0-24.458Zm-1.115,22.7A21.24,21.24,0,0,0,58.68,67.3a32.525,32.525,0,0,0,1.069-7.581h6.491A17.423,17.423,0,0,1,62.788,69.208ZM31.262,59.719h6.49a32.526,32.526,0,0,0,1.07,7.581,21.241,21.241,0,0,0-4.108,1.907,17.423,17.423,0,0,1-3.453-9.488Zm3.452-11.452a21.24,21.24,0,0,0,4.108,1.907,32.522,32.522,0,0,0-1.069,7.581H31.261a17.423,17.423,0,0,1,3.453-9.488Zm15.019,3.478a31.3,31.3,0,0,0,7.034-.992,30.26,30.26,0,0,1,1.015,7h-8.05Zm0-1.963V41.329c2.636.581,4.976,3.464,6.446,7.555a29.363,29.363,0,0,1-6.448.9ZM47.77,41.327v8.458a29.363,29.363,0,0,1-6.446-.9c1.47-4.09,3.807-6.974,6.445-7.554Zm0,10.419v6.008H39.719a30.26,30.26,0,0,1,1.017-7,31.3,31.3,0,0,0,7.033.995Zm-8.051,7.974h8.05v6.008a31.3,31.3,0,0,0-7.034.992,30.261,30.261,0,0,1-1.016-7Zm8.05,7.971v8.455c-2.636-.581-4.976-3.464-6.446-7.555a29.36,29.36,0,0,1,6.447-.9Zm1.963,8.456V67.69a29.359,29.359,0,0,1,6.446.9c-1.471,4.09-3.808,6.974-6.446,7.554Zm0-10.419V59.719h8.05a30.261,30.261,0,0,1-1.017,7,31.3,31.3,0,0,0-7.033-.992Zm10.017-7.971a32.522,32.522,0,0,0-1.07-7.581,21.233,21.233,0,0,0,4.108-1.907,17.423,17.423,0,0,1,3.453,9.489ZM61.5,46.745A19.426,19.426,0,0,1,58.1,48.3a18.05,18.05,0,0,0-3.4-6.043,17.565,17.565,0,0,1,6.8,4.484ZM42.8,42.261A18.05,18.05,0,0,0,39.4,48.3,19.432,19.432,0,0,1,36,46.745,17.565,17.565,0,0,1,42.8,42.261ZM36,70.73A19.433,19.433,0,0,1,39.4,69.171a18.05,18.05,0,0,0,3.4,6.043A17.566,17.566,0,0,1,36,70.73Zm18.7,4.484a18.05,18.05,0,0,0,3.4-6.044A19.429,19.429,0,0,1,61.5,70.73a17.566,17.566,0,0,1-6.8,4.485Z" transform="translate(-12.849 -13.305)" fill="#147db2"/>
    <path id="Path_16328" data-name="Path 16328" d="M68.577,8.949H3.225A3.229,3.229,0,0,0,0,12.175v55.31a3.229,3.229,0,0,0,3.225,3.225H68.577A3.229,3.229,0,0,0,71.8,67.485V12.175a3.229,3.229,0,0,0-3.225-3.226ZM1.963,12.175a1.263,1.263,0,0,1,1.262-1.262H68.577a1.263,1.263,0,0,1,1.262,1.262V20.15H1.963ZM68.577,68.748H3.225a1.263,1.263,0,0,1-1.262-1.263V22.113H69.839V67.485a1.263,1.263,0,0,1-1.262,1.263Z"/>
    <path id="Path_16329" data-name="Path 16329" d="M13.764,18.933H10.4a.982.982,0,0,0,0,1.963h3.366a.982.982,0,0,0,0-1.963Z" transform="translate(-4.134 -4.383)"/>
    <path id="Path_16330" data-name="Path 16330" d="M30.617,18.933H27.252a.982.982,0,0,0,0,1.963h3.366a.982.982,0,1,0,0-1.963Z" transform="translate(-11.534 -4.383)"/>
    <path id="Path_16331" data-name="Path 16331" d="M47.469,18.933H44.1a.982.982,0,0,0,0,1.963h3.366a.982.982,0,0,0,0-1.963Z" transform="translate(-18.933 -4.383)"/>
  </g>
</svg>
