<svg xmlns="http://www.w3.org/2000/svg" xmlns:xlink="http://www.w3.org/1999/xlink" width="63.006" height="63.005" viewBox="0 0 63.006 63.005">
  <defs>
    <linearGradient id="linear-gradient" x1="0.5" x2="0.5" y2="1" gradientUnits="objectBoundingBox">
      <stop offset="0.13" stop-color="#00a9ed"/>
      <stop offset="1" stop-color="#65106b"/>
    </linearGradient>
  </defs>
  <path id="Union_13" data-name="Union 13" d="M21039.232,13767a6.113,6.113,0,0,1-4.01-1.5l-1.439-1.254a3.636,3.636,0,0,1-3.527,2.756h-11.621a3.635,3.635,0,0,1-3.635-3.628v-19.741a3.637,3.637,0,0,1,3.635-3.634h11.621a3.634,3.634,0,0,1,3,1.587l5.143-5.147-5.945-22.205a1.209,1.209,0,0,1,.855-1.481l11.479-3.079v-3.459A1.208,1.208,0,0,1,21046,13705l29.793-.006a1.212,1.212,0,0,1,1.211,1.212v59.582a1.211,1.211,0,0,1-1.211,1.211Zm27.072-4.115a4.109,4.109,0,0,1-.365,1.693h8.643v-57.16l-27.367,0v33.907h2.363v-24.11a1.214,1.214,0,0,1,1.211-1.211,3.261,3.261,0,0,0,3.26-3.259,1.211,1.211,0,0,1,1.211-1.211h11.271a1.209,1.209,0,0,1,1.213,1.211,3.259,3.259,0,0,0,3.258,3.259,1.21,1.21,0,0,1,1.211,1.211v4.846a1.211,1.211,0,0,1-2.422,0v-3.762a5.7,5.7,0,0,1-4.338-4.343h-9.109a5.708,5.708,0,0,1-4.342,4.343v23.026h6.617a.476.476,0,0,0-.09-.043h.5a5.961,5.961,0,1,1,2.188,0h2.049a.541.541,0,0,0-.09.043h1.945a4.124,4.124,0,0,1,4.121,4.115,4.064,4.064,0,0,1-.371,1.7h.043a4.007,4.007,0,0,1,.879.095v-13.779a1.211,1.211,0,1,1,2.422,0v15.345a7.925,7.925,0,0,0-1.777,8.268,4.12,4.12,0,0,1-4.115,4.116h-.381A4.144,4.144,0,0,1,21066.3,13762.888Zm-32.416-18.508v16.747l2.926,2.549a3.664,3.664,0,0,0,2.418.905h22.957a1.7,1.7,0,1,0,0-3.391h-9.268a1.209,1.209,0,1,1,0-2.418h13.4a1.7,1.7,0,0,0,0-3.391h-13.4a1.211,1.211,0,0,1,0-2.423h15.99a1.7,1.7,0,0,0,0-3.391h-15.99a1.211,1.211,0,0,1,0-2.422h12.2a1.7,1.7,0,1,0,0-3.391l-23.809-.006a1.21,1.21,0,0,1-1.174-.91l-.957-3.75Zm-16.465-.746v19.741a1.207,1.207,0,0,0,1.211,1.206h11.621a1.207,1.207,0,0,0,1.211-1.206v-19.741a1.21,1.21,0,0,0-1.211-1.211h-4.6v13.948a1.209,1.209,0,1,1-2.418,0v-13.948h-4.6A1.21,1.21,0,0,0,21017.424,13743.634Zm17.682-28.855,5.688,21.228a1.22,1.22,0,0,1,.205.424l1.254,4.9h2.428l-4.717-17.477a1.213,1.213,0,0,1,.115-.921,1.23,1.23,0,0,1,.74-.565,3.268,3.268,0,0,0,2.307-3.994,1.223,1.223,0,0,1,.117-.92,1.237,1.237,0,0,1,.734-.561l.814-.217v-4.491Zm21.4,20.646a3.618,3.618,0,1,0,3.619-3.618A3.617,3.617,0,0,0,21056.5,13735.424Zm-13.922-11.161,2.211,8.178v-10.214A5.688,5.688,0,0,1,21042.58,13724.263Zm-18.99,37.546a1.215,1.215,0,0,1,0-1.714,1.2,1.2,0,0,1,.857-.354,1.2,1.2,0,0,1,1.207,1.212,1.209,1.209,0,0,1-2.064.856Zm46.555-32.943a1.209,1.209,0,0,1,.857-2.063,1.209,1.209,0,1,1,0,2.418A1.219,1.219,0,0,1,21070.145,13728.865Z" transform="translate(-21014.5 -13704.498)" stroke="rgba(0,0,0,0)" stroke-miterlimit="10" stroke-width="1" fill="url(#linear-gradient)"/>
</svg>
