<svg id="AdvanceLossProfitPolicy" xmlns="http://www.w3.org/2000/svg" width="83.674" height="83.674" viewBox="0 0 83.674 83.674">
  <path id="Path_17221" data-name="Path 17221" d="M38.354,39.222a7.317,7.317,0,0,0,5.09-2.068L50.7,40.783a7.2,7.2,0,0,0-.09.891,7.354,7.354,0,1,0,14.708,0,7.265,7.265,0,0,0-.737-3.15l9.844-9.844a7.265,7.265,0,0,0,3.15.737,7.363,7.363,0,0,0,7.354-7.354,7.244,7.244,0,0,0-.367-2.178l8.553-6.413a7.349,7.349,0,1,0-3.283-6.117A7.244,7.244,0,0,0,90.2,9.532l-8.553,6.413A7.322,7.322,0,0,0,70.96,25.213l-9.844,9.844a7.227,7.227,0,0,0-8.241,1.33l-7.257-3.628a7.2,7.2,0,0,0,.09-.891,7.354,7.354,0,1,0-7.354,7.354Zm0,0" transform="translate(-25.934)" fill="#fff"/>
  <path id="Path_17222" data-name="Path 17222" d="M81.223,204.258H78.608V152.451A2.45,2.45,0,0,0,76.157,150H66.351a2.45,2.45,0,0,0-2.451,2.451v51.806H59v-37.1a2.45,2.45,0,0,0-2.451-2.451H46.74a2.45,2.45,0,0,0-2.451,2.451v37.1h-4.9V186.771a2.45,2.45,0,0,0-2.451-2.451H27.129a2.45,2.45,0,0,0-2.451,2.451v17.487h-4.9V176.965a2.45,2.45,0,0,0-2.451-2.451H7.518a2.45,2.45,0,0,0-2.451,2.451v27.292H2.451a2.451,2.451,0,1,0,0,4.9H81.223a2.451,2.451,0,1,0,0-4.9Zm0,0" transform="translate(0 -125.486)" fill="#fff"/>
</svg>
