<svg xmlns="http://www.w3.org/2000/svg" width="87.333" height="83.074" viewBox="0 0 87.333 83.074">
  <g id="agronomy_1_" data-name="agronomy (1)" transform="translate(0 -0.379)">
    <path id="Path_17127" data-name="Path 17127" d="M218.666,170.554c.134-.094.278-.164.414-.251a8.954,8.954,0,0,1-5.243-2.084V155.174a19.768,19.768,0,0,1,4.828-4.746c.134-.093.278-.164.414-.251a8.948,8.948,0,0,1-5.243-2.094V134.453h-2.877v13.631a8.955,8.955,0,0,1-5.243,2.089c.137.086.288.157.414.251a19.76,19.76,0,0,1,4.828,4.75V168.22a8.954,8.954,0,0,1-5.243,2.089c.137.086.288.157.414.251a19.76,19.76,0,0,1,4.828,4.75v18.113h2.877V175.31a19.771,19.771,0,0,1,4.828-4.756Zm0,0" transform="translate(-168.733 -109.97)" fill="#fff"/>
    <path id="Path_17128" data-name="Path 17128" d="M210.07,23.045c3.9,0,7.191-5.269,7.191-11.506,0-5.1-5.162-9.59-7.191-11.16-2.025,1.574-7.191,6.08-7.191,11.16C202.879,17.777,206.173,23.045,210.07,23.045Zm0,0" transform="translate(-166.404)" fill="#fff"/>
    <path id="Path_17129" data-name="Path 17129" d="M130.072,128.584a15.206,15.206,0,0,0,8.156,2.919,6.173,6.173,0,0,0,5.394-2.211c2.235-3.194-.191-8.917-5.3-12.492-4.161-2.915-10.813-1.267-13.267-.508C125.182,118.857,125.911,125.67,130.072,128.584Zm0,0" transform="translate(-102.572 -94.127)" fill="#fff"/>
    <path id="Path_17130" data-name="Path 17130" d="M253.631,129.292a6.183,6.183,0,0,0,5.394,2.211,15.21,15.21,0,0,0,8.156-2.919c4.171-2.924,4.9-9.73,5.018-12.291-2.445-.759-9.106-2.407-13.268.508C253.822,120.378,251.4,126.1,253.631,129.292Zm0,0" transform="translate(-207.348 -94.127)" fill="#fff"/>
    <path id="Path_17131" data-name="Path 17131" d="M130.072,240.587a15.206,15.206,0,0,0,8.156,2.919,6.172,6.172,0,0,0,5.394-2.211c2.235-3.194-.191-8.917-5.3-12.492-4.161-2.914-10.813-1.267-13.267-.508C125.182,230.859,125.911,237.672,130.072,240.587Zm0,0" transform="translate(-102.572 -185.994)" fill="#fff"/>
    <path id="Path_17132" data-name="Path 17132" d="M258.9,228.8c-5.108,3.577-7.535,9.3-5.3,12.492a6.183,6.183,0,0,0,5.394,2.211,15.21,15.21,0,0,0,8.157-2.919c4.171-2.924,4.9-9.73,5.018-12.291-2.445-.759-9.1-2.406-13.268.508Zm0,0" transform="translate(-207.321 -185.994)" fill="#fff"/>
    <path id="Path_17133" data-name="Path 17133" d="M138.356,340.8c-4.161-2.914-10.813-1.267-13.266-.508.126,2.563.862,9.376,5.016,12.291a15.208,15.208,0,0,0,8.156,2.919,6.174,6.174,0,0,0,5.394-2.211c2.23-3.194-.2-8.914-5.3-12.492Zm0,0" transform="translate(-102.601 -277.858)" fill="#fff"/>
    <path id="Path_17134" data-name="Path 17134" d="M258.9,340.8c-5.108,3.577-7.535,9.3-5.3,12.492a6.183,6.183,0,0,0,5.394,2.211,15.209,15.209,0,0,0,8.157-2.919c4.171-2.924,4.9-9.73,5.018-12.291-2.445-.759-9.1-2.406-13.268.508Zm0,0" transform="translate(-207.321 -277.858)" fill="#fff"/>
    <path id="Path_17135" data-name="Path 17135" d="M13.247,336.065a22.3,22.3,0,0,1,6.63,2.115l-.287-3.294a24.3,24.3,0,0,0-5.912-1.669A27.076,27.076,0,0,0,0,334.742l1.036,2.675a24.3,24.3,0,0,1,12.211-1.352Zm0,0" transform="translate(0 -272.763)" fill="#fff"/>
    <path id="Path_17136" data-name="Path 17136" d="M17.437,378.505A23.063,23.063,0,0,0,3.6,390.8l2.617,1.179a20.471,20.471,0,0,1,12.067-10.715,17.619,17.619,0,0,1,6.04-.806,19.332,19.332,0,0,1-.935-2.891,20.992,20.992,0,0,0-5.955.935Zm0,0" transform="translate(-2.954 -309.378)" fill="#fff"/>
    <path id="Path_17137" data-name="Path 17137" d="M381.335,333.215a24.3,24.3,0,0,0-5.911,1.669l-.015.446a25.976,25.976,0,0,1-.287,2.848,22.808,22.808,0,0,1,6.644-2.115,24.3,24.3,0,0,1,12.211,1.352l1.036-2.675A27.054,27.054,0,0,0,381.335,333.215Zm0,0" transform="translate(-307.68 -272.76)" fill="#fff"/>
    <path id="Path_17138" data-name="Path 17138" d="M368.6,378.492a21.19,21.19,0,0,0-5.969-.935,19.982,19.982,0,0,0-2.071.072l.259,2.877c.3-.029.6-.044.892-.058a17.657,17.657,0,0,1,6.04.806A20.478,20.478,0,0,1,379.8,391.968l2.617-1.179a23.069,23.069,0,0,0-13.822-12.3Zm0,0" transform="translate(-295.735 -309.364)" fill="#fff"/>
    <path id="Path_17139" data-name="Path 17139" d="M13.247,208.065a22.1,22.1,0,0,1,6.343,1.971l-.086-2.042,1.5-.475a25.515,25.515,0,0,0-7.321-2.3A27.076,27.076,0,0,0,0,206.742l1.036,2.675a24.3,24.3,0,0,1,12.211-1.352Zm0,0" transform="translate(0 -167.776)" fill="#fff"/>
    <path id="Path_17140" data-name="Path 17140" d="M3.6,262.87l2.617,1.179a20.471,20.471,0,0,1,12.067-10.715,17.689,17.689,0,0,1,5.106-.806,24.138,24.138,0,0,1-.561-2.877,20.967,20.967,0,0,0-5.394.921A23.063,23.063,0,0,0,3.6,262.87Zm0,0" transform="translate(-2.954 -204.458)" fill="#fff"/>
    <path id="Path_17141" data-name="Path 17141" d="M370.3,210.034a22.1,22.1,0,0,1,6.342-1.971,24.305,24.305,0,0,1,12.211,1.352l1.036-2.675a27.055,27.055,0,0,0-13.678-1.525,25.453,25.453,0,0,0-7.335,2.3l1.511.475Zm0,0" transform="translate(-302.56 -167.773)" fill="#fff"/>
    <path id="Path_17142" data-name="Path 17142" d="M378.047,250.573a21.175,21.175,0,0,0-5.408-.921,23.863,23.863,0,0,1-.561,2.877,17.857,17.857,0,0,1,5.12.806,20.478,20.478,0,0,1,12.053,10.715l2.617-1.179A23.069,23.069,0,0,0,378.047,250.573Zm0,0" transform="translate(-305.184 -204.457)" fill="#fff"/>
  </g>
</svg>
