<svg xmlns="http://www.w3.org/2000/svg" width="83" height="80.233" viewBox="0 0 83 80.233">
  <g id="Solid" transform="translate(-2 -3)">
    <path id="Path_18216" data-name="Path 18216" d="M50.532,24.441,46.42,17.248l-7.235,18.09A1.383,1.383,0,0,1,37.9,36.2h-.057a1.383,1.383,0,0,1-1.266-.968L31.951,20.206,29.4,24.462a1.383,1.383,0,0,1-1.18.671H18.533V22.366h8.9l3.747-6.246a1.383,1.383,0,0,1,2.508.306l4.381,14.24,6.845-17.113a1.383,1.383,0,0,1,2.49-.173l5.131,8.986h12.45c2.2-9.153-2.656-14.031-2.656-14.031A13.292,13.292,0,0,0,51.7,3C44.6,3,39.283,8.335,39.283,8.335S33.963,3,26.871,3A13.292,13.292,0,0,0,16.231,8.335S.273,24.343,39.283,52.8c15.4-11.237,22.234-20.531,24.862-27.666H51.733A1.383,1.383,0,0,1,50.532,24.441Z" transform="translate(4.217)" fill="#f2f2f2"/>
    <path id="Path_18217" data-name="Path 18217" d="M62.46,15a4.15,4.15,0,0,0-3.9,2.767H50.818a24.929,24.929,0,0,1-.845,2.767h8.592A4.143,4.143,0,1,0,62.46,15Zm0,5.533a1.383,1.383,0,1,1,1.383-1.383A1.383,1.383,0,0,1,62.46,20.533Z" transform="translate(18.389 4.6)" fill="#f2f2f2"/>
    <rect id="Rectangle_809" data-name="Rectangle 809" width="11" height="3" transform="translate(2 22)" fill="#f2f2f2"/>
    <path id="Path_18218" data-name="Path 18218" d="M78.756,39.821a5.161,5.161,0,0,0-6.666-1.778l-7.564,3.873a5.546,5.546,0,0,1-2.256,6.9l-15.395,9.13a16.344,16.344,0,0,1-12.007,1.892l-13.911-3.33.643-2.691,13.883,3.32a13.619,13.619,0,0,0,9.979-1.573l15.394-9.13a2.783,2.783,0,0,0,.979-3.788,6.268,6.268,0,0,0-8.289-2.442l-11.165,5.73a5.447,5.447,0,0,1-5.044-.033L29.73,41.863a16.309,16.309,0,0,0-16.25.574l4.338,20.679,2.31-.5a10.79,10.79,0,0,1,3.692-.147l17.279,1.9A13.432,13.432,0,0,0,50.368,62.2L78,43.664a2.793,2.793,0,0,0,.764-3.841Z" transform="translate(4.401 13.217)" fill="#f2f2f2"/>
    <path id="Path_18219" data-name="Path 18219" d="M3,40.127,9.244,69.887l10.733-2.31L13.732,37.817ZM8.432,46.02l-.569-2.706,2.707-.569.569,2.7Z" transform="translate(0.383 13.346)" fill="#f2f2f2"/>
  </g>
</svg>
