<svg xmlns="http://www.w3.org/2000/svg" width="84.047" height="83.555" viewBox="0 0 84.047 83.555">
  <g id="shield" transform="translate(0 -0.34)">
    <path id="Path_17151" data-name="Path 17151" d="M110.316,41.872V16.03L76.078.34,41.84,16.03V41.872A40.363,40.363,0,0,0,65.33,78.477L76.078,83.4l10.748-4.927a40.363,40.363,0,0,0,23.49-36.605ZM86.2,77.122l-9.507,4.357a1.487,1.487,0,0,1-1.241,0l-9.5-4.357A38.879,38.879,0,0,1,43.328,41.873V17.944a1.488,1.488,0,0,1,.868-1.353L75.457,2.263a1.487,1.487,0,0,1,1.241,0l31.261,14.328a1.488,1.488,0,0,1,.868,1.353V41.872A38.88,38.88,0,0,1,86.2,77.122Zm0,0" transform="translate(-34.055)" fill="#fff"/>
    <path id="Path_17152" data-name="Path 17152" d="M140.475,133.142l12.576,9.527a1.489,1.489,0,0,1,.168,2.224l-8.608,8.874a1.489,1.489,0,0,1-1.6.369l-5.526-2.084,4.445,3.355a1.339,1.339,0,0,1,.223.207l1.285,1.283a1.361,1.361,0,0,1,.137.159l3.251,4.336-1.995-5.447a1.488,1.488,0,0,1,.4-1.619l8.839-8.578a1.461,1.461,0,0,1,1.151-.416,1.491,1.491,0,0,1,1.072.587l9.414,12.424,1.023-1.023-6.6-15.914a1.488,1.488,0,0,1,.4-1.692l6.824-5.943a1.68,1.68,0,0,0,.554-1.22,1.614,1.614,0,0,0-.473-1.149,1.546,1.546,0,0,0-1.2-.472,1.6,1.6,0,0,0-1.172.555l-5.947,6.82a1.488,1.488,0,0,1-1.692.4l-15.915-6.591Zm0,0" transform="translate(-111.898 -106.289)" fill="#fff"/>
    <path id="Path_17153" data-name="Path 17153" d="M65.84,40.384V63.36A35.892,35.892,0,0,0,86.723,95.9l8.889,4.075L104.5,95.9a35.891,35.891,0,0,0,20.883-32.546V40.384L95.612,26.738ZM104.5,44.732A4.6,4.6,0,1,1,111.224,51q-.125.129-.263.244l-5.983,5.21L111.54,72.3a1.489,1.489,0,0,1-.323,1.622l-2.934,2.933a1.544,1.544,0,0,1-1.156.433,1.492,1.492,0,0,1-1.084-.587L96.615,64.26l-6.976,6.769,2.7,7.365a1.488,1.488,0,0,1-.345,1.565L90.53,81.423a1.489,1.489,0,0,1-1.053.436h-.105a1.492,1.492,0,0,1-1.085-.6L82.939,74.13l-1.223-1.218L74.45,67.426a1.487,1.487,0,0,1-.156-2.24l1.462-1.46a1.477,1.477,0,0,1,1.577-.339L84.825,66.2,91.6,59.226,79,49.682a1.488,1.488,0,0,1-.148-2.233L81.8,44.506a1.5,1.5,0,0,1,1.622-.323l15.843,6.569Zm0,0" transform="translate(-53.589 -21.486)" fill="#fff"/>
    <path id="Path_17154" data-name="Path 17154" d="M9.632,329.7,0,339.345l9.1,2.471a1.52,1.52,0,0,1,1.042,1.057l2.486,9.1,8.351-8.351A43.235,43.235,0,0,1,9.632,329.7Zm0,0" transform="translate(0 -268.073)" fill="#fff"/>
    <path id="Path_17155" data-name="Path 17155" d="M350.3,329.7a43.247,43.247,0,0,1-11.343,13.919l8.351,8.351,2.486-9.1a1.52,1.52,0,0,1,1.042-1.057l9.1-2.471Zm0,0" transform="translate(-275.889 -268.073)" fill="#fff"/>
  </g>
</svg>
