<svg xmlns="http://www.w3.org/2000/svg" width="84.347" height="70.289" viewBox="0 0 84.347 70.289">
  <g id="briefcase_1_" data-name="briefcase (1)" transform="translate(0 -42.666)">
    <g id="Group_2099" data-name="Group 2099" transform="translate(0 42.666)">
      <g id="Group_2098" data-name="Group 2098" transform="translate(0 0)">
        <path id="Path_17088" data-name="Path 17088" d="M77.318,53.209H59.746V49.695a7.036,7.036,0,0,0-7.029-7.029H31.63A7.036,7.036,0,0,0,24.6,49.695v3.514H7.029A7.036,7.036,0,0,0,0,60.238V70.782A7.036,7.036,0,0,0,7.029,77.81H35.144V76.053A1.756,1.756,0,0,1,36.9,74.3H47.445A1.756,1.756,0,0,1,49.2,76.053V77.81H77.318a7.036,7.036,0,0,0,7.029-7.029V60.238A7.036,7.036,0,0,0,77.318,53.209Zm-24.6,0H31.63V49.695H52.717Z" transform="translate(0 -42.666)" fill="#fff"/>
        <path id="Path_17089" data-name="Path 17089" d="M83.372,266.569a1.759,1.759,0,0,0-1.843.173,6.939,6.939,0,0,1-4.211,1.445H49.2v5.272a1.756,1.756,0,0,1-1.757,1.757H36.9a1.756,1.756,0,0,1-1.757-1.757v-5.272H7.029a6.939,6.939,0,0,1-4.211-1.445A1.756,1.756,0,0,0,0,268.143v24.646a7.036,7.036,0,0,0,7.029,7.029H77.318a7.036,7.036,0,0,0,7.029-7.029V268.143A1.757,1.757,0,0,0,83.372,266.569Z" transform="translate(0 -229.528)" fill="#fff"/>
      </g>
    </g>
  </g>
</svg>
