<svg xmlns="http://www.w3.org/2000/svg" width="83.923" height="81.066" viewBox="0 0 83.923 81.066">
  <g id="thief" transform="translate(0 0)">
    <path id="Path_17070" data-name="Path 17070" d="M102.482,204.184a17.471,17.471,0,0,0,4.919-10.56H95.812a1.246,1.246,0,0,1-.588-.147l-4.769-2.543-4.767,2.543a1.249,1.249,0,0,1-.589.147H73.512a17.472,17.472,0,0,0,4.918,10.56,16.609,16.609,0,0,0,24.052,0Zm0,0" transform="translate(-60.386 -156.841)" fill="#fff"/>
    <path id="Path_17071" data-name="Path 17071" d="M120,296.6v3.47l2.157,1.384a11.712,11.712,0,0,0,12.52.136l2.464-1.537v-3.428A19.168,19.168,0,0,1,120,296.6Zm0,0" transform="translate(-98.573 -243.641)" fill="#fff"/>
    <path id="Path_17072" data-name="Path 17072" d="M56,103H94.569v3.75H56Zm0,0" transform="translate(-46.001 -84.608)" fill="#fff"/>
    <path id="Path_17073" data-name="Path 17073" d="M112.43,158.063c-1.254,0-2.192.661-2.192,1.25s.937,1.25,2.192,1.25,2.192-.66,2.192-1.25S113.685,158.063,112.43,158.063Zm0,0" transform="translate(-90.554 -129.839)" fill="#fff"/>
    <path id="Path_17074" data-name="Path 17074" d="M329.9,202.62l2.644-12.247-7.592,3.644a6,6,0,0,1-5.224,0l-7.617-3.656,2.525,12.208Zm0,0" transform="translate(-256.379 -156.369)" fill="#fff"/>
    <path id="Path_17075" data-name="Path 17075" d="M69.562,15.892h35.293c-.022-.3-.05-.632-.086-.931A17.179,17.179,0,0,0,87.666,0h-.893A17.318,17.318,0,0,0,74.747,4.862a16.873,16.873,0,0,0-5.185,11.03Zm0,0" transform="translate(-57.141)" fill="#fff"/>
    <path id="Path_17076" data-name="Path 17076" d="M37.951,328.708a14.154,14.154,0,0,1-15.169-.174L20.41,327H11.823A11.191,11.191,0,0,0,.633,337.357h45.42v-2.012a17.628,17.628,0,0,1,2.1-8.345h-7.45Zm0,0" transform="translate(-0.52 -268.611)" fill="#fff"/>
    <path id="Path_17077" data-name="Path 17077" d="M107.1,138H73v9.642H84.366l5.081-2.71a1.251,1.251,0,0,1,1.177,0l5.081,2.71h11.4Zm-25.264,8.581c-2.63,0-4.691-1.647-4.691-3.75s2.061-3.75,4.691-3.75,4.691,1.647,4.691,3.75S84.472,146.581,81.841,146.581Zm16.388,0c-2.63,0-4.691-1.647-4.691-3.75s2.061-3.75,4.691-3.75,4.691,1.647,4.691,3.75S100.86,146.581,98.229,146.581Zm0,0" transform="translate(-59.965 -113.359)" fill="#fff"/>
    <path id="Path_17078" data-name="Path 17078" d="M47.21,404.809A12.92,12.92,0,0,1,45.573,399H0v6.428H47.557a2.073,2.073,0,0,0-.345-.594s0-.024,0-.026Zm0,0" transform="translate(0 -327.754)" fill="#fff"/>
    <path id="Path_17079" data-name="Path 17079" d="M294.932,272.774l-16.117-.055-7.35,9.676A15.489,15.489,0,0,0,269,290.756v4.011a10.357,10.357,0,0,0,1.336,5.049.245.245,0,0,0,.02.017,10.3,10.3,0,0,0,8.943,5.254h15.256a10.331,10.331,0,0,0,8.961-5.254s.019-.03.02-.031a10.319,10.319,0,0,0,1.355-5.035v-3.948a15.5,15.5,0,0,0-2.544-8.452Zm0,0" transform="translate(-220.968 -224.022)" fill="#fff"/>
    <path id="Path_17080" data-name="Path 17080" d="M204.211,158.063c-1.254,0-2.192.661-2.192,1.25s.937,1.25,2.192,1.25,2.192-.66,2.192-1.25S205.466,158.063,204.211,158.063Zm0,0" transform="translate(-165.947 -129.839)" fill="#fff"/>
  </g>
</svg>
