<svg xmlns="http://www.w3.org/2000/svg" width="84.347" height="57.361" viewBox="0 0 84.347 57.361">
  <g id="cow-silhouette" transform="translate(0 -76.096)">
    <path id="Path_17171" data-name="Path 17171" d="M83.87,90.175l-9.088-9.481,3.955-2.523.231-1.966L77.134,76.1l-4.758,3.422-5.937.005L62.8,77.3l-1.3.266.019,1.443,2.343,2.595-.309,1.363L35.983,85.936l-28.56-.8-3.078,1.29L2.079,89.309.913,96.047.707,100.89,0,105.413l.194,4.5.8.163,1.156-1.272.94-4.227-.762-5.863.265-.04,1.79,8.926-1.219,7.747,1.113,15.461.106,1.712,1.085.926,4.8.007,1.546-.468L7.514,126l2.129-8.876,1.115,0,3.891,11.8,2.006,3.03.989.609,5.3,0,.679-.85L19.035,128.9l-3.108-9.572.779-1.554,1.826.17,1.146,2.807,1.661-2.736,1.609,2.748,1.363-2.983,4.011-3.083,14.234-1.363,2.389,2.921,2.014,14.279,1.059,2.052,4.85,0,.523-.769-2.948-4.1-.354-7.813,1.592.884,1.677,5.19,2.133,6.739.956.741,4.34,0,.36-.98L59.878,131.3l-4.092-8,.943-8.381,4.585-3.392,6.679-12.406,7.688-3.549,7.07-.8.606-.657.989-2.788Z" fill="#fff"/>
  </g>
</svg>
