<svg xmlns="http://www.w3.org/2000/svg" width="74" height="74" viewBox="0 0 74 74">
  <g id="Group_2148" data-name="Group 2148" transform="translate(-68 -1653)">
    <path id="Subtraction_47" data-name="Subtraction 47" d="M11073-3311a36.771,36.771,0,0,1-14.4-2.907,36.865,36.865,0,0,1-11.762-7.929,36.888,36.888,0,0,1-7.93-11.761A36.787,36.787,0,0,1,11036-3348a36.787,36.787,0,0,1,2.907-14.4,36.888,36.888,0,0,1,7.93-11.761,36.865,36.865,0,0,1,11.762-7.929A36.771,36.771,0,0,1,11073-3385a36.772,36.772,0,0,1,14.4,2.907,36.886,36.886,0,0,1,11.762,7.929,36.891,36.891,0,0,1,7.929,11.761A36.787,36.787,0,0,1,11110-3348a36.787,36.787,0,0,1-2.907,14.4,36.891,36.891,0,0,1-7.929,11.761,36.886,36.886,0,0,1-11.762,7.929A36.772,36.772,0,0,1,11073-3311Zm.248-71.217a34.233,34.233,0,0,0-24.369,10.1,34.221,34.221,0,0,0-10.1,24.369,34.224,34.224,0,0,0,10.1,24.372,34.228,34.228,0,0,0,24.369,10.1,34.327,34.327,0,0,0,23.608-9.357,34.325,34.325,0,0,0,10.782-22.839,1.094,1.094,0,0,0-.271-.8,1.091,1.091,0,0,0-.755-.372l-.071,0a1.1,1.1,0,0,0-1.1,1.029,32.325,32.325,0,0,1-32.2,30.138,32.3,32.3,0,0,1-32.268-32.269,32.3,32.3,0,0,1,32.268-32.265,32.325,32.325,0,0,1,32.2,30.138,1.1,1.1,0,0,0,1.1,1.028l.072,0a1.093,1.093,0,0,0,.756-.372,1.093,1.093,0,0,0,.271-.8,34.312,34.312,0,0,0-10.782-22.838A34.326,34.326,0,0,0,11073.248-3382.217Zm-19.938,26.173a2.892,2.892,0,0,0-2.889,2.889v10.81a2.892,2.892,0,0,0,2.889,2.889h10.771a.876.876,0,0,1,.875.875v10.771a2.892,2.892,0,0,0,2.889,2.889h10.811a2.892,2.892,0,0,0,2.889-2.889v-10.771a.876.876,0,0,1,.875-.875h10.771a2.892,2.892,0,0,0,2.889-2.889v-10.81a2.892,2.892,0,0,0-2.889-2.889h-10.771a.876.876,0,0,1-.875-.875v-10.771a2.892,2.892,0,0,0-2.889-2.888h-10.811a2.892,2.892,0,0,0-2.889,2.888v10.774a.875.875,0,0,1-.875.873Zm25.346,29.109h-10.811a.876.876,0,0,1-.875-.875v-10.771a2.892,2.892,0,0,0-2.889-2.889h-10.771a.876.876,0,0,1-.875-.875v-10.81a.876.876,0,0,1,.875-.875h10.771a2.892,2.892,0,0,0,2.889-2.889v-10.771a.876.876,0,0,1,.875-.875h10.811a.876.876,0,0,1,.875.875v10.774a2.89,2.89,0,0,0,2.889,2.886h10.771a.875.875,0,0,1,.872.875v10.81a.875.875,0,0,1-.872.875h-10.771a2.892,2.892,0,0,0-2.889,2.889v10.771A.876.876,0,0,1,11078.655-3326.935Z" transform="translate(-10968 5038)" fill="#fff"/>
  </g>
</svg>
