<svg xmlns="http://www.w3.org/2000/svg" width="70.832" height="82.28" viewBox="0 0 70.832 82.28">
  <g id="worker_1_" data-name="worker (1)" transform="translate(-7.035 -3)">
    <path id="Path_17108" data-name="Path 17108" d="M23,58.522H33.851L23,46.587Z" transform="translate(6.683 18.247)" fill="#fff"/>
    <path id="Path_17109" data-name="Path 17109" d="M44.2,46.587,33.351,58.522H44.2Z" transform="translate(11.017 18.247)" fill="#fff"/>
    <path id="Path_17110" data-name="Path 17110" d="M39.813,44.808A7.042,7.042,0,0,1,38.087,40.8,26.358,26.358,0,0,1,34.23,42.43l-.45.15-.448-.149A26.514,26.514,0,0,1,29.474,40.8a7.052,7.052,0,0,1-1.726,4.012,7.085,7.085,0,0,0,12.065,0Z" transform="translate(8.671 15.822)" fill="#fff"/>
    <path id="Path_17111" data-name="Path 17111" d="M45.476,45.707l-1.742-.714c-.122-.05-.233-.119-.35-.174a9.914,9.914,0,0,1-16.626,0c-.118.055-.227.125-.349.174l-1.743.714L35.071,57.154Z" transform="translate(7.38 17.506)" fill="#fff"/>
    <path id="Path_17112" data-name="Path 17112" d="M7.035,65.846h11.3V49.425A19.618,19.618,0,0,0,7.035,65.846Z" transform="translate(0 19.435)" fill="#fff"/>
    <path id="Path_17113" data-name="Path 17113" d="M15,15H63.235v2.837H15Z" transform="translate(3.334 5.024)" fill="#fff"/>
    <path id="Path_17114" data-name="Path 17114" d="M33.127,11.512a2.231,2.231,0,0,0,2.165-1.681l1.656-6.477a20.877,20.877,0,0,0-7.641,0l1.656,6.477A2.231,2.231,0,0,0,33.127,11.512Z" transform="translate(9.324)" fill="#fff"/>
    <path id="Path_17115" data-name="Path 17115" d="M52.21,19H21v7.591A23.444,23.444,0,0,0,36.6,48.709a23.445,23.445,0,0,0,15.6-22.118ZM28.093,26.093a1.419,1.419,0,1,1,1.419-1.419A1.419,1.419,0,0,1,28.093,26.093ZM36.6,43.117a5.68,5.68,0,0,1-5.674-5.674h2.837a2.837,2.837,0,0,0,5.674,0h2.837A5.68,5.68,0,0,1,36.6,43.117Zm8.512-17.024a1.419,1.419,0,1,1,1.419-1.419A1.419,1.419,0,0,1,45.117,26.093Z" transform="translate(5.846 6.698)" fill="#fff"/>
    <path id="Path_17116" data-name="Path 17116" d="M23.736,14.039h2.837v2.837H29.41V14.039h2.837v2.837H43.6V14.039h2.837v2.837h2.837V14.039h2.837v2.837H57.99A21.254,21.254,0,0,0,44.493,3.74l-1.657,6.483a5.072,5.072,0,0,1-9.828,0L31.351,3.74a21.248,21.248,0,0,0-13.5,13.136h5.882Z" transform="translate(4.529 0.31)" fill="#fff"/>
    <path id="Path_17117" data-name="Path 17117" d="M45.245,23.184V24.84a26.348,26.348,0,0,1-.831,6.536,4.233,4.233,0,0,0,.831-8.191Z" transform="translate(15.648 8.45)" fill="#fff"/>
    <path id="Path_17118" data-name="Path 17118" d="M43,58.372h5.675V49.266L43,46.944Z" transform="translate(15.056 18.396)" fill="#fff"/>
    <path id="Path_17119" data-name="Path 17119" d="M49,49.425V65.846H60.3A19.618,19.618,0,0,0,49,49.425Z" transform="translate(17.568 19.435)" fill="#fff"/>
    <path id="Path_17120" data-name="Path 17120" d="M17,57H59.559v5.674H17Z" transform="translate(4.172 22.606)" fill="#fff"/>
    <path id="Path_17121" data-name="Path 17121" d="M45,21.981a7.044,7.044,0,0,1,2.837,1.311V19H45Z" transform="translate(15.893 6.698)" fill="#fff"/>
    <path id="Path_17122" data-name="Path 17122" d="M19.837,19H17v4.293a7.025,7.025,0,0,1,2.837-1.311Z" transform="translate(4.172 6.698)" fill="#fff"/>
    <path id="Path_17123" data-name="Path 17123" d="M20.669,31.375a26.348,26.348,0,0,1-.831-6.536V23.184a4.233,4.233,0,0,0,.831,8.191Z" transform="translate(4.172 8.45)" fill="#fff"/>
    <path id="Path_17124" data-name="Path 17124" d="M17,58.372h5.675V46.944L17,49.266Z" transform="translate(4.172 18.396)" fill="#fff"/>
  </g>
</svg>
