<svg xmlns="http://www.w3.org/2000/svg" width="83" height="83" viewBox="0 0 83 83">
  <g id="cough" transform="translate(-1 -3)">
    <path id="Path_18201" data-name="Path 18201" d="M23.081,27.9h.606a9.809,9.809,0,0,0,6.11-2.147L32.245,23.8a6.548,6.548,0,0,1,10.27,2.976l1.04,3.122a13.443,13.443,0,0,0,5.929,7.365l.6-.6a6.258,6.258,0,0,1,4.457-1.84A6.186,6.186,0,0,1,60.8,41a12.916,12.916,0,0,1-3.583,9.029l10.4,10.4,3.573-4.29a38.762,38.762,0,0,0,8.971-24.773A28.369,28.369,0,0,0,42.824,4.457l-1.094.364a18.507,18.507,0,0,1-11.659,0L25.709,3.368A7.078,7.078,0,0,0,23.45,3,12.464,12.464,0,0,0,11,15.45v.415A12.071,12.071,0,0,0,23.081,27.9Z" transform="translate(3.833 0)" fill="#fff"/>
    <path id="Path_18202" data-name="Path 18202" d="M61.126,68.8a11.972,11.972,0,0,1,2.075.194V56.923L50.179,43.9l1.744-1.744a10.119,10.119,0,0,0,2.982-7.193,3.449,3.449,0,0,0-1-2.511,3.4,3.4,0,0,0-2.417-1,3.558,3.558,0,0,0-2.576,1.028l-2.038,2.039-.892-.445A16.206,16.206,0,0,1,37.8,24.636l-1.04-3.122A3.67,3.67,0,0,0,33.273,19a3.8,3.8,0,0,0-2.432.823l-2.45,1.959A12.6,12.6,0,0,1,21.365,24.5a25.6,25.6,0,0,0-1.047,7.175v5.01a26.317,26.317,0,0,1-.784,6.373l-.364,1.454a10.366,10.366,0,0,0,3.915.772h1.08l1.383,5.533h7.22V52.2a8.118,8.118,0,0,1-2.361,5.7l-.151.151a9.119,9.119,0,0,0,8.271,5.215,9.212,9.212,0,0,0,1.988-.217l11.32-2.516.6,2.7-3.067.681v.653a6.933,6.933,0,0,1-2.9,5.627l-3.807,2.72A12,12,0,0,0,39.007,77.1H49.755l.046-.137A11.922,11.922,0,0,1,61.126,68.8ZM30.766,39.6l-7.25-3.624,5.507-5.507,1.956,1.956-2.793,2.793L32,37.131Z" transform="translate(6.965 6.133)" fill="#fff"/>
    <path id="Path_18203" data-name="Path 18203" d="M51.833,57a9.16,9.16,0,0,0-8.42,5.533H60.254A9.16,9.16,0,0,0,51.833,57Z" transform="translate(16.258 20.7)" fill="#fff"/>
    <path id="Path_18204" data-name="Path 18204" d="M26.042,71.281a2.243,2.243,0,0,1-1.358.452,1.551,1.551,0,0,1-1.1-2.648l1.049-1.049a4.318,4.318,0,0,0-3.053-7.37H21.4a4.337,4.337,0,0,0-2.7.946L14.053,65.33a2.074,2.074,0,1,1-2.592-3.237l4.569-3.656a4.186,4.186,0,0,0-2.616-7.453H5.15a1.383,1.383,0,1,1,0-2.767h8.5a3.948,3.948,0,0,0,1.765-7.48l-2.17-1.085a2.126,2.126,0,0,1-1.18-1.912,1.975,1.975,0,0,1,2.857-1.767l4.824,2.413,1.238-2.475L16.159,33.5A4.743,4.743,0,0,0,9.3,37.741a4.876,4.876,0,0,0,2.71,4.387l2.169,1.085a1.181,1.181,0,0,1-.527,2.238H5.15a4.15,4.15,0,0,0,0,8.3h8.264a1.419,1.419,0,0,1,.887,2.527L9.732,59.934a4.84,4.84,0,0,0,6.051,7.556l4.645-3.717a1.559,1.559,0,0,1,.968-.339h.187a1.551,1.551,0,0,1,1.1,2.648L21.631,67.13a4.318,4.318,0,0,0,3.053,7.37A5.058,5.058,0,0,0,27.7,73.493l4.561-3.42L30.6,67.86Z" transform="translate(0 11.5)" fill="#fff"/>
    <path id="Path_18205" data-name="Path 18205" d="M15,46h2.767v2.767H15Z" transform="translate(5.367 16.483)" fill="#fff"/>
    <path id="Path_18206" data-name="Path 18206" d="M17,42h2.767v2.767H17Z" transform="translate(6.133 14.95)" fill="#fff"/>
    <path id="Path_18207" data-name="Path 18207" d="M19,48h2.767v2.767H19Z" transform="translate(6.9 17.25)" fill="#fff"/>
    <path id="Path_18208" data-name="Path 18208" d="M21,52h2.767v2.767H21Z" transform="translate(7.667 18.783)" fill="#fff"/>
  </g>
</svg>
