<svg xmlns="http://www.w3.org/2000/svg" width="72" height="72.107" viewBox="0 0 72 72.107">
  <g id="Group_2134" data-name="Group 2134" transform="translate(-76 -3299.982)">
    <g id="Group_2029" data-name="Group 2029" transform="translate(-175 -44)">
      <g id="Processor_security" data-name="Processor security" transform="translate(249 3341.982)">
        <path id="Path_16917" data-name="Path 16917" d="M27,11h2.4v2.4H27Z" transform="translate(5 1.8)" fill="#fffbfb"/>
        <path id="Path_16918" data-name="Path 16918" d="M53,35h2.4v2.4H53Z" transform="translate(10.2 6.6)" fill="#fffbfb"/>
        <path id="Path_16919" data-name="Path 16919" d="M35,51h2.4v2.4H35Z" transform="translate(6.6 9.8)" fill="#fffbfb"/>
        <path id="Path_16920" data-name="Path 16920" d="M27,54h2.4v2.4H27Z" transform="translate(5 10.4)" fill="#fffbfb"/>
        <path id="Path_16921" data-name="Path 16921" d="M11,31h2.4v2.4H11Z" transform="translate(1.8 5.8)" fill="#fffbfb"/>
        <path id="Path_16922" data-name="Path 16922" d="M35,11h2.4v2.4H35Z" transform="translate(6.6 1.8)" fill="#fffbfb"/>
        <path id="Path_16923" data-name="Path 16923" d="M51,27h2.4v2.4H51Z" transform="translate(9.8 5)" fill="#fffbfb"/>
        <path id="Path_16924" data-name="Path 16924" d="M46,17h2.4v2.4H46Z" transform="translate(8.8 3)" fill="#fffbfb"/>
        <path id="Path_16925" data-name="Path 16925" d="M16,17h2.4v2.4H16Z" transform="translate(2.8 3)" fill="#fffbfb"/>
        <path id="Path_16926" data-name="Path 16926" d="M46,45h2.4v2.4H46Z" transform="translate(8.8 8.6)" fill="#fffbfb"/>
        <path id="Path_16927" data-name="Path 16927" d="M16,45h2.4v2.4H16Z" transform="translate(2.8 8.6)" fill="#fffbfb"/>
        <path id="Path_16930" data-name="Path 16930" d="M70.4,48.8a3.541,3.541,0,0,0-1.542.36L66.1,46.4H54.8V44h6V41.6h-6V39.2h6.283l6.824-3.413A3.593,3.593,0,1,0,66.8,33.2a3.48,3.48,0,0,0,.044.436L60.517,36.8H54.8V34.4h3.6V32H54.8V29.6h5.3l3.96-3.96A3.541,3.541,0,0,0,65.6,26,3.6,3.6,0,1,0,62,22.4a3.541,3.541,0,0,0,.36,1.542L59.1,27.2H54.8a6.007,6.007,0,0,0-6-6V18.1l6.858-6.857a3.541,3.541,0,0,0,1.542.36A3.6,3.6,0,1,0,53.6,8a3.541,3.541,0,0,0,.36,1.542L46.4,17.1v4.1H44V17.6H41.6v3.6H39.2V12.579a3.6,3.6,0,1,0-2.4,0V21.2H34.4V17.6H32v3.6H29.6V12.3l-5.16-5.16A3.541,3.541,0,0,0,24.8,5.6a3.6,3.6,0,1,0-3.6,3.6,3.541,3.541,0,0,0,1.542-.36L27.2,13.3v7.9a6.007,6.007,0,0,0-6,6H16.9L13.64,23.942A3.541,3.541,0,0,0,14,22.4,3.6,3.6,0,1,0,10.4,26a3.541,3.541,0,0,0,1.542-.36L15.9,29.6h5.3V32H13.566L7.28,37.237A3.544,3.544,0,0,0,5.6,36.8,3.6,3.6,0,1,0,8.916,39l5.519-4.6H21.2v2.4H17.6v2.4h3.6v2.4H10.4V44H21.2v2.4H14.558L9.722,53.653A3.563,3.563,0,0,0,9.2,53.6a3.634,3.634,0,1,0,2.652,1.186l3.99-5.986H21.2a6.007,6.007,0,0,0,6,6v7.9L22.742,67.16A3.541,3.541,0,0,0,21.2,66.8a3.6,3.6,0,1,0,3.6,3.6,3.541,3.541,0,0,0-.36-1.542L29.6,63.7V54.8H32V62h2.4V54.8h2.4V65.065l7.289,4.56A3.653,3.653,0,1,0,45.372,67.6L39.2,63.735V54.8h2.4v3.6H44V54.8h2.4v9.6h8.621a3.6,3.6,0,1,0,0-2.4H48.8V54.8a6.007,6.007,0,0,0,6-6H65.1l2.057,2.058A3.541,3.541,0,0,0,66.8,52.4a3.6,3.6,0,1,0,3.6-3.6Zm0-16.8a1.2,1.2,0,1,1-1.2,1.2A1.2,1.2,0,0,1,70.4,32ZM65.6,21.2a1.2,1.2,0,1,1-1.2,1.2A1.2,1.2,0,0,1,65.6,21.2ZM57.2,6.8A1.2,1.2,0,1,1,56,8,1.2,1.2,0,0,1,57.2,6.8ZM38,8a1.2,1.2,0,1,1-1.2,1.2A1.2,1.2,0,0,1,38,8ZM20,5.6a1.2,1.2,0,1,1,1.2,1.2A1.2,1.2,0,0,1,20,5.6ZM9.2,22.4a1.2,1.2,0,1,1,1.2,1.2A1.2,1.2,0,0,1,9.2,22.4ZM5.6,41.6a1.2,1.2,0,1,1,1.2-1.2A1.2,1.2,0,0,1,5.6,41.6ZM9.2,58.4a1.2,1.2,0,1,1,1.2-1.2A1.2,1.2,0,0,1,9.2,58.4Zm12,13.2a1.2,1.2,0,1,1,1.2-1.2A1.2,1.2,0,0,1,21.2,71.6Zm26.4-2.4a1.2,1.2,0,1,1-1.2,1.2A1.2,1.2,0,0,1,47.6,69.2ZM58.4,62a1.2,1.2,0,1,1-1.2,1.2A1.2,1.2,0,0,1,58.4,62Zm-6-13.2a3.6,3.6,0,0,1-3.6,3.6H27.2a3.6,3.6,0,0,1-3.6-3.6V27.2a3.6,3.6,0,0,1,3.6-3.6H48.8a3.6,3.6,0,0,1,3.6,3.6Zm18,4.8a1.2,1.2,0,1,1,1.2-1.2A1.2,1.2,0,0,1,70.4,53.6Z" fill="#fffbfb"/>
      </g>
      <path id="Path_16931" data-name="Path 16931" d="M294.988,243.781l-8.369,4.972a1.009,1.009,0,0,0-.494.868v2.929a15.037,15.037,0,0,0,8.971,13.764,1.008,1.008,0,0,0,.813,0,15.036,15.036,0,0,0,8.971-13.764v-2.929a1.009,1.009,0,0,0-.493-.868l-8.369-4.972a1.009,1.009,0,0,0-1.031,0Zm7.875,6.414v2.355a13.019,13.019,0,0,1-7.36,11.729,13.02,13.02,0,0,1-7.36-11.729V250.2l7.36-4.373Zm0,0" transform="translate(-9.068 3125.249)" fill="#fffbfb"/>
      <path id="Path_16932" data-name="Path 16932" d="M351.39,325.728a1.009,1.009,0,1,0-1.427,1.427l1.643,1.643a1.009,1.009,0,0,0,1.427,0l4-4a1.009,1.009,0,0,0-1.427-1.427l-3.285,3.285Zm0,0" transform="translate(-66.199 3053.827)" fill="#fffbfb"/>
    </g>
  </g>
</svg>
