<svg xmlns="http://www.w3.org/2000/svg" width="78" height="96.232" viewBox="0 0 78 96.232">
  <g id="Group_2146" data-name="Group 2146" transform="translate(-1057 -1515.474)">
    <path id="Subtraction_45" data-name="Subtraction 45" d="M11073.375-3290.621h0l-1.75-2.124-10.374-3.748-11-5.625-7.373-7-6.126-13.873-.75-8h4.5l10.876,4.749-6,4,4.874,10,9.25,7.624,9.626,2.5v-46.5h-3.75l-5.876,2-4.124-2-1.626-6.375,5.125-3.625,5.5,2.752,5.374-.627-1.392-2.671v-6.857s-.034-.531-2.983-3.845c-1.551-1.743-1.74-4.233-1.626-6.015a15.887,15.887,0,0,1,.627-3.486l0,0-.006,0-.015,0-.036.008a.366.366,0,0,1-.069.01c-.029,0-.053-.011-.059-.028-.039-.129.632-.836,5.563-4.124a8.1,8.1,0,0,1,4.473-1.506,7.93,7.93,0,0,1,5.338,2.379,12.086,12.086,0,0,1,1.94,2.379l2,3.873-.875,5.251-5.126,4.375v9.624l4,.625,4.124-2.125,4.25.5,3.625,4.624-1.375,4.875-5,2-4.5-2H11078l-.5,45.25,9-1.874,10-8.374,5.248-8.625-7.125-4.752,6.5-2.624,9.375-2.5.876,6.5-6.626,15.75-12,10.376-12.5,4.5-6.873,4.372Zm13.126-65.247a3,3,0,0,0-3,3,3,3,0,0,0,3,3,3,3,0,0,0,3-3A3,3,0,0,0,11086.5-3355.868Zm-27,0a3,3,0,0,0-3,3,3,3,0,0,0,3,3,3,3,0,0,0,3-3A3,3,0,0,0,11059.5-3355.868Zm14-24.386a5.035,5.035,0,0,0-5.033,5.025,5.037,5.037,0,0,0,5.033,5.031,5.038,5.038,0,0,0,5.034-5.031A5.036,5.036,0,0,0,11073.5-3380.254Zm0,7.236a2.214,2.214,0,0,1-2.211-2.211,2.211,2.211,0,0,1,2.211-2.206,2.211,2.211,0,0,1,2.212,2.206A2.214,2.214,0,0,1,11073.5-3373.018Z" transform="translate(-9977 4901.368)" fill="#fff"/>
    <g id="Group_2075" data-name="Group 2075" transform="translate(1057 1515.474)">
      <path id="Path_16965" data-name="Path 16965" d="M125.425,53.448a2.834,2.834,0,0,0-2.559-.484l-12.681,3.8a2.818,2.818,0,0,0-.082,5.375l4.357,1.45A28.769,28.769,0,0,1,92.676,81.95v-43.7h3.645a7.048,7.048,0,1,0,0-10.337H92.676V20a10.6,10.6,0,0,0,5.492-9.852A10.733,10.733,0,0,0,87.933.009a10.664,10.664,0,0,0-4.77,20.4,1.41,1.41,0,1,0,1.148-2.576,7.857,7.857,0,0,1-4.667-7.171,7.853,7.853,0,0,1,8.177-7.841,7.893,7.893,0,0,1,7.527,7.454,7.81,7.81,0,0,1-4.658,7.558,1.41,1.41,0,0,0-.838,1.288v10.2a1.41,1.41,0,0,0,1.411,1.41H96.91a1.413,1.413,0,0,0,1.052-.469,4.229,4.229,0,1,1,0,5.637,1.412,1.412,0,0,0-1.052-.469H91.264a1.41,1.41,0,0,0-1.411,1.41V83.593a1.41,1.41,0,0,0,1.587,1.4A31.58,31.58,0,0,0,117.6,63.12a1.41,1.41,0,0,0-.9-1.758l-5.7-1.9,12.682-3.81a36.231,36.231,0,0,1-28.6,33.484A16.874,16.874,0,0,0,87.5,92.884a16.876,16.876,0,0,0-7.576-3.746,36.226,36.226,0,0,1-28.6-33.474l12.681,3.8-5.7,1.9a1.409,1.409,0,0,0-.9,1.758A31.579,31.579,0,0,0,83.562,84.991a1.41,1.41,0,0,0,1.587-1.4V36.839a1.41,1.41,0,0,0-1.411-1.41H78.091a1.413,1.413,0,0,0-1.052.469,4.229,4.229,0,1,1,0-5.637,1.412,1.412,0,0,0,1.052.469h5.646a1.41,1.41,0,0,0,1.411-1.41V24.764a1.411,1.411,0,0,0-2.823,0v3.147H78.681a7.048,7.048,0,1,0,0,10.337h3.645v43.7A28.768,28.768,0,0,1,60.542,63.589l4.356-1.45a2.818,2.818,0,0,0-.081-5.375l-12.681-3.8a2.836,2.836,0,0,0-2.559.484A2.807,2.807,0,0,0,48.5,55.8,39.056,39.056,0,0,0,79.336,91.9a13.971,13.971,0,0,1,6.992,3.749l.175.175a1.413,1.413,0,0,0,2,0l.175-.175A13.97,13.97,0,0,1,95.666,91.9,39.056,39.056,0,0,0,126.5,55.8,2.807,2.807,0,0,0,125.425,53.448Z" transform="translate(-48.501 0)" fill="#fff"/>
    </g>
  </g>
</svg>
