<svg xmlns="http://www.w3.org/2000/svg" width="70.563" height="63.398" viewBox="0 0 70.563 63.398">
  <g id="Group_2139" data-name="Group 2139" transform="translate(-1117 -1464.618)">
    <path id="Subtraction_35" data-name="Subtraction 35" d="M11100.168-3324.334h-60l-4.167-6.834,30.836-53L11073-3385l22.167,37,9.833,16.833-2,5-2.831,1.833Zm-6-6.917a1.379,1.379,0,0,0-1.377,1.377,1.38,1.38,0,0,0,1.377,1.38h4.277a1.38,1.38,0,0,0,1.377-1.38,1.379,1.379,0,0,0-1.377-1.377Zm-3.991,0a1.38,1.38,0,0,0-1.38,1.377,1.381,1.381,0,0,0,1.38,1.38h.03a1.381,1.381,0,0,0,1.38-1.38,1.38,1.38,0,0,0-1.38-1.377Zm-39.492,0a1.379,1.379,0,0,0-1.376,1.38,1.378,1.378,0,0,0,1.376,1.377h.034a1.379,1.379,0,0,0,1.379-1.377,1.381,1.381,0,0,0-1.379-1.38Zm-8.235,0a1.381,1.381,0,0,0-1.379,1.38,1.379,1.379,0,0,0,1.379,1.377h4.275a1.38,1.38,0,0,0,1.38-1.377,1.381,1.381,0,0,0-1.38-1.38Zm28-12.4a4.141,4.141,0,0,0-4.136,4.136,4.139,4.139,0,0,0,4.136,4.133,4.139,4.139,0,0,0,4.136-4.133A4.141,4.141,0,0,0,11070.45-3343.656Zm0-22.051a4.139,4.139,0,0,0-4.136,4.133v11.028a4.139,4.139,0,0,0,4.136,4.133,4.139,4.139,0,0,0,4.136-4.133v-11.028A4.139,4.139,0,0,0,11070.45-3365.707Zm0,27.563a1.379,1.379,0,0,1-1.379-1.377,1.381,1.381,0,0,1,1.379-1.38,1.38,1.38,0,0,1,1.377,1.38A1.379,1.379,0,0,1,11070.45-3338.143Zm0-11.025a1.379,1.379,0,0,1-1.379-1.377v-11.028a1.379,1.379,0,0,1,1.379-1.377,1.379,1.379,0,0,1,1.377,1.377v11.028A1.379,1.379,0,0,1,11070.45-3349.169Z" transform="translate(-9918.167 4850.998)" fill="#fcf6f6"/>
    <g id="warning" transform="translate(1117 1438.626)">
      <g id="Group_2006" data-name="Group 2006" transform="translate(0 25.992)">
        <g id="Group_2005" data-name="Group 2005" transform="translate(0 0)">
          <path id="Path_16838" data-name="Path 16838" d="M69.6,78.443,55.788,54.39c-.06-.119-.125-.24-.194-.361L41.633,29.717A7.254,7.254,0,0,0,29,29.639L15,54.029a1.329,1.329,0,0,0-.077.157L1.306,77.893a7.323,7.323,0,0,0,5.979,11.5H63.306a1.367,1.367,0,0,0,.292-.031,7.24,7.24,0,0,0,3.327-.966A7.317,7.317,0,0,0,69.6,78.443Zm-4.053,7.564a4.477,4.477,0,0,1-2.239.6h0a1.379,1.379,0,0,0-.263.025H7.284a4.567,4.567,0,0,1-3.69-7.2c.025-.036.049-.073.071-.111L17.381,55.435l0-.007a1.347,1.347,0,0,0,.089-.179L31.391,31.013a4.5,4.5,0,0,1,7.839.053l.009.016L53.2,55.4c.048.084.092.167.132.248.013.026.027.053.041.078L67.208,79.813A4.555,4.555,0,0,1,65.547,86.007Z" transform="translate(0 -25.992)" fill="#fcf6f6"/>
        </g>
      </g>
    </g>
  </g>
</svg>
