<svg xmlns="http://www.w3.org/2000/svg" width="77.562" height="82.733" viewBox="0 0 77.562 82.733">
  <g id="calendar-events-symbol" transform="translate(-20.4)">
    <g id="_x35__39_" transform="translate(20.4)">
      <g id="Group_2100" data-name="Group 2100">
        <path id="Path_17143" data-name="Path 17143" d="M35.912,46.537h5.171V41.366H35.912Zm0,20.683h5.171V62.05H35.912ZM87.621,5.171H77.279V2.585a2.585,2.585,0,1,0-5.171,0V5.171H46.254V2.585a2.585,2.585,0,0,0-5.171,0V5.171H30.742A10.342,10.342,0,0,0,20.4,15.512V72.391A10.342,10.342,0,0,0,30.742,82.733H87.62A10.342,10.342,0,0,0,97.962,72.391V15.512A10.342,10.342,0,0,0,87.621,5.171ZM46.254,67.22a5.169,5.169,0,0,1-5.171,5.171H35.912a5.169,5.169,0,0,1-5.171-5.171V62.05a5.169,5.169,0,0,1,5.171-5.171h5.171a5.169,5.169,0,0,1,5.171,5.171Zm0-20.683a5.171,5.171,0,0,1-5.171,5.171H35.912a5.171,5.171,0,0,1-5.171-5.171V41.366A5.169,5.169,0,0,1,35.912,36.2h5.171a5.169,5.169,0,0,1,5.171,5.171ZM66.937,67.22a5.169,5.169,0,0,1-5.171,5.171H56.6a5.171,5.171,0,0,1-5.171-5.171V62.05A5.171,5.171,0,0,1,56.6,56.879h5.171a5.169,5.169,0,0,1,5.171,5.171V67.22Zm0-20.683a5.171,5.171,0,0,1-5.171,5.171H56.6a5.173,5.173,0,0,1-5.171-5.171V41.366A5.171,5.171,0,0,1,56.6,36.2h5.171a5.169,5.169,0,0,1,5.171,5.171v5.171ZM87.621,67.22a5.169,5.169,0,0,1-5.171,5.171H77.279a5.171,5.171,0,0,1-5.171-5.171V62.05a5.171,5.171,0,0,1,5.171-5.171H82.45a5.169,5.169,0,0,1,5.171,5.171Zm0-20.683a5.171,5.171,0,0,1-5.171,5.171H77.279a5.173,5.173,0,0,1-5.171-5.171V41.366A5.171,5.171,0,0,1,77.279,36.2H82.45a5.169,5.169,0,0,1,5.171,5.171Zm5.171-25.854H25.571V15.512a5.169,5.169,0,0,1,5.171-5.171H41.083v2.585a2.585,2.585,0,1,0,5.171,0V10.342H72.108v2.585a2.585,2.585,0,1,0,5.171,0V10.342H87.621a5.169,5.169,0,0,1,5.171,5.171ZM77.279,46.537H82.45V41.366H77.279Zm0,20.683H82.45V62.05H77.279Zm-20.683,0h5.171V62.05H56.6Zm0-20.683h5.171V41.366H56.6Z" transform="translate(-20.4)" fill="#fff"/>
      </g>
    </g>
  </g>
</svg>
