<svg xmlns="http://www.w3.org/2000/svg" width="61.5" height="82" viewBox="0 0 61.5 82">
  <g id="fire_1_" data-name="fire (1)" transform="translate(-64 0)">
    <g id="Group_2097" data-name="Group 2097" transform="translate(64 0)">
      <path id="Path_17085" data-name="Path 17085" d="M125.325,48.01c-.939-12.229-6.633-19.893-11.656-26.656C109.017,15.093,105,9.687,105,1.711a1.711,1.711,0,0,0-.928-1.52,1.692,1.692,0,0,0-1.775.13A43.448,43.448,0,0,0,86.26,23.5,75.657,75.657,0,0,0,84.5,40.825c-6.967-1.488-8.545-11.909-8.562-12.023a1.708,1.708,0,0,0-2.437-1.3c-.365.177-8.967,4.547-9.468,22C64,50.085,64,50.668,64,51.25A30.785,30.785,0,0,0,94.75,82a.239.239,0,0,0,.068,0h.022A30.785,30.785,0,0,0,125.5,51.25C125.5,50.4,125.325,48.01,125.325,48.01ZM94.75,78.581c-5.652,0-10.25-4.9-10.25-10.918,0-.205,0-.412.013-.666a13.849,13.849,0,0,1,1.079-5.425c.991,2.129,2.763,4.085,5.641,4.085a1.707,1.707,0,0,0,1.708-1.708,34.173,34.173,0,0,1,.656-7.77,16.519,16.519,0,0,1,3.458-6.549,22.012,22.012,0,0,0,3.522,6.461c1.977,2.809,4.021,5.714,4.379,10.666.022.294.043.589.043.906C105,73.683,100.4,78.581,94.75,78.581Z" transform="translate(-64 0)" fill="#fff"/>
    </g>
  </g>
</svg>
