<svg xmlns="http://www.w3.org/2000/svg" width="87.153" height="90.623" viewBox="0 0 87.153 90.623">
  <g id="solid" transform="translate(-40 -32)">
    <path id="Path_17308" data-name="Path 17308" d="M99.237,134.473V128a3.237,3.237,0,0,0,0,6.473Z" transform="translate(-44.672 -76.581)" fill="#fff"/>
    <path id="Path_17309" data-name="Path 17309" d="M57.538,400H40v1.748l9.837.82Z" transform="translate(0 -293.56)" fill="#fff"/>
    <path id="Path_17310" data-name="Path 17310" d="M86.667,352H40v6.473H67.248Z" transform="translate(0 -255.269)" fill="#fff"/>
    <path id="Path_17311" data-name="Path 17311" d="M105.618,44.946a1.618,1.618,0,0,1,1.618-1.618h22.656a1.618,1.618,0,0,1,1.618,1.618v3.237a6.461,6.461,0,0,1,1.618.2V46.564a14.564,14.564,0,1,0-29.129,0v1.823a6.461,6.461,0,0,1,1.618-.2Z" transform="translate(-51.054 0)" fill="#fff"/>
    <path id="Path_17312" data-name="Path 17312" d="M128,176a9.71,9.71,0,0,0,19.419,0Z" transform="translate(-70.199 -114.871)" fill="#fff"/>
    <path id="Path_17313" data-name="Path 17313" d="M240,134.473A3.237,3.237,0,1,0,240,128Z" transform="translate(-159.543 -76.581)" fill="#fff"/>
    <path id="Path_17314" data-name="Path 17314" d="M40,467.791h6.473v-2.557L40,464.695Z" transform="translate(0 -345.168)" fill="#fff"/>
    <path id="Path_17315" data-name="Path 17315" d="M148.091,236.261a12.873,12.873,0,0,1-4.855-.948V239.5a1.618,1.618,0,0,1-.474,1.144l-1.748,1.748a15.871,15.871,0,0,0,14.156,0l-1.75-1.75a1.618,1.618,0,0,1-.474-1.144v-4.185A12.873,12.873,0,0,1,148.091,236.261Z" transform="translate(-80.581 -162.186)" fill="#fff"/>
    <path id="Path_17316" data-name="Path 17316" d="M147.419,107.237V104H128v11.328h19.419ZM132.855,112.7a2.225,2.225,0,1,1,2.225-2.225A2.225,2.225,0,0,1,132.855,112.7Zm10.316,0a2.225,2.225,0,1,1,2.225-2.225A2.225,2.225,0,0,1,143.171,112.7Z" transform="translate(-70.199 -57.436)" fill="#fff"/>
    <path id="Path_17317" data-name="Path 17317" d="M88,374.883l45.312-15.1V355.1L88,370.2Z" transform="translate(-38.29 -257.742)" fill="#fff"/>
    <path id="Path_17318" data-name="Path 17318" d="M90.872,285.269l-4.454-1.485-8.981-2.994a19.106,19.106,0,0,1-19.853,0L48.6,283.784l-4.454,1.485A6.06,6.06,0,0,0,40,291.026v.932H95.021v-.932A6.06,6.06,0,0,0,90.872,285.269Z" transform="translate(0 -198.464)" fill="#fff"/>
    <path id="Path_17319" data-name="Path 17319" d="M225.107,404.868l17.577,1.465V400H239.71Z" transform="translate(-147.663 -293.56)" fill="#fff"/>
    <path id="Path_17320" data-name="Path 17320" d="M88,469.082v2.07h27.443L88.52,468.909Z" transform="translate(-38.29 -348.529)" fill="#fff"/>
    <path id="Path_17321" data-name="Path 17321" d="M129.107,440.784l37,3.083v-4.844l-25.372-2.114Z" transform="translate(-71.082 -323.003)" fill="#fff"/>
    <path id="Path_17322" data-name="Path 17322" d="M40,429.538l6.473.539v-4.843L40,424.695Z" transform="translate(0 -313.259)" fill="#fff"/>
    <path id="Path_17323" data-name="Path 17323" d="M418.14,145.107l.369-1.107h-6.692l5.086,12.714,4.9-.979-3.634-9.54a1.618,1.618,0,0,1-.023-1.088Z" transform="translate(-296.604 -89.344)" fill="#fff"/>
    <path id="Path_17324" data-name="Path 17324" d="M331.369,106.8l-.933-2.8h-3.688v1.618H323.51V104h-3.237v1.618h-3.237V104H313.8v1.618h-3.237V104H296v2.371l3.726,2.484h29.587Z" transform="translate(-204.215 -57.436)" fill="#fff"/>
    <path id="Path_17325" data-name="Path 17325" d="M371.1,144l.539,1.618H376.5L375.85,144Z" transform="translate(-264.123 -89.344)" fill="#fff"/>
  </g>
</svg>
