<svg xmlns="http://www.w3.org/2000/svg" width="83" height="83" viewBox="0 0 83 83">
  <g id="Solid" transform="translate(-3 -3)">
    <path id="Path_18220" data-name="Path 18220" d="M45.931,57.94V38.908l2.557-.275a50.115,50.115,0,0,0,11.753-2.719V3H3V86H60.241V84A31.34,31.34,0,0,1,45.931,57.94ZM55.948,34.483h-18.6V31.621h18.6Zm0-7.155h-18.6V24.466h18.6ZM15.879,7.293H47.362v8.586H15.879Zm3.874,26.77a1.431,1.431,0,0,1-2.023,0L13.437,29.77l2.023-2.023,3.281,3.281L29.178,20.592,31.2,22.615ZM31.2,49.8,19.753,61.253a1.431,1.431,0,0,1-2.023,0L13.437,56.96l2.023-2.023,3.281,3.281L29.178,47.781ZM7.293,21.6a1.431,1.431,0,0,1,1.431-1.431H25.55l-2.862,2.862H10.155v14.31h14.31V33.4l2.862-2.862v8.24A1.431,1.431,0,0,1,25.9,40.207H8.724a1.431,1.431,0,0,1-1.431-1.431ZM25.9,67.4H8.724a1.431,1.431,0,0,1-1.431-1.431V48.793a1.431,1.431,0,0,1,1.431-1.431H25.55l-2.862,2.862H10.155v14.31h14.31V60.588l2.862-2.862v8.24A1.431,1.431,0,0,1,25.9,67.4ZM43.069,80.276H33.052V77.414H43.069Zm0-5.724H27.328V71.69H43.069Zm0-12.879H34.483V58.81h8.586Zm0-7.155H34.483V51.655h8.586Z" transform="translate(0 0)" fill="#f2f2f2"/>
    <path id="Path_18221" data-name="Path 18221" d="M53.6,26A52.765,52.765,0,0,1,35,31.561V48.026A29.041,29.041,0,0,0,53.6,74.655a29.041,29.041,0,0,0,18.6-26.629V31.561A52.756,52.756,0,0,1,53.6,26ZM50.322,58.494a1.431,1.431,0,0,1-2.023,0l-7.155-7.155,2.023-2.023,6.143,6.143L64.04,40.73l2.023,2.023Z" transform="translate(13.793 9.914)" fill="#f2f2f2"/>
    <rect id="Rectangle_810" data-name="Rectangle 810" width="25" height="3" transform="translate(19 10)" fill="#f2f2f2"/>
  </g>
</svg>
