<svg xmlns="http://www.w3.org/2000/svg" width="74.674" height="82.185" viewBox="0 0 74.674 82.185">
  <path id="anchor_1_" data-name="anchor (1)" d="M87.784,51.278a2.054,2.054,0,0,0-1.85-.557L66.365,54.636a2.053,2.053,0,0,0-1.434,2.932l2.854,5.708-7.051,2.343L57.407,31.4H70.687a2.054,2.054,0,0,0,1.758-3.115L68.6,20.747a2.053,2.053,0,0,0-1.829-1.12H61.589a12.645,12.645,0,1,0-21.073,0H35.338a2.054,2.054,0,0,0-1.829,1.12L29.6,28.412A2.053,2.053,0,0,0,31.424,31.4H44.7L41.371,65.617l-7.051-2.346,2.854-5.706a2.054,2.054,0,0,0-1.434-2.932L16.171,50.72a2.053,2.053,0,0,0-2.419,2.4l3.8,19.688a2.053,2.053,0,0,0,2.945,1.442l7.024-3.564L50.075,81.968a2.053,2.053,0,0,0,1.833,0L74.586,70.688l7.026,3.565a2.053,2.053,0,0,0,2.945-1.442l3.8-19.688A2.05,2.05,0,0,0,87.784,51.278ZM51.053,8.213a4.432,4.432,0,1,1-4.432,4.432A4.437,4.437,0,0,1,51.053,8.213Z" transform="translate(-13.715)" fill="#fff"/>
</svg>
