<svg xmlns="http://www.w3.org/2000/svg" width="56.016" height="83.489" viewBox="0 0 56.016 83.489">
  <g id="Group_2094" data-name="Group 2094" transform="translate(-567 -610.189)">
    <g id="money_4_" data-name="money (4)" transform="translate(567 650.334)">
      <path id="Path_17062" data-name="Path 17062" d="M53.03.258H2.633A2.635,2.635,0,0,0,0,2.891V29.467A2.636,2.636,0,0,0,2.633,32.1h24.2V28.463c0-.02,0-.04,0-.06,0-.036,0-.072,0-.109,0-.016,0-.031,0-.046l-14.7.034h0A1.244,1.244,0,0,1,10.892,27.1c-.12-2.626-2.343-4.292-5.8-4.348A1.244,1.244,0,0,1,3.866,21.5V10.854A1.244,1.244,0,0,1,5.09,9.61c3.4-.055,5.681-1.762,5.8-4.35a1.244,1.244,0,0,1,1.242-1.186H43.6a1.244,1.244,0,0,1,1.243,1.186c.121,2.588,2.371,4.3,5.731,4.35A1.244,1.244,0,0,1,51.8,10.854V21.5a1.244,1.244,0,0,1-1.224,1.244A7.245,7.245,0,0,0,46.7,23.8c3.138.878,5.382,2.388,5.382,4.495a2.876,2.876,0,0,1-.056.562V32.1h1a2.636,2.636,0,0,0,2.633-2.633V2.891A2.636,2.636,0,0,0,53.03.258Zm0,0" transform="translate(0 -0.258)" fill="#fff"/>
      <path id="Path_17063" data-name="Path 17063" d="M88.439,67.577a8.251,8.251,0,0,1,5.6-2.845V56.409c-4-.463-6.191-2.852-6.79-5.455H57.942a6.567,6.567,0,0,1-2.218,3.582,8.742,8.742,0,0,1-4.643,1.873v8.323c3.623.427,6.209,2.487,6.867,5.452l14.924-.035c2.18-1.887,6.768-2.862,11.317-2.862a30.7,30.7,0,0,1,4.249.291Zm-15.879.472a7.481,7.481,0,1,1,7.481-7.48A7.481,7.481,0,0,1,72.559,68.049Zm0,0" transform="translate(-44.728 -44.648)" fill="#fff"/>
      <path id="Path_17064" data-name="Path 17064" d="M193.6,93.11a4.993,4.993,0,1,1-4.993-4.993A4.993,4.993,0,0,1,193.6,93.11Zm0,0" transform="translate(-160.775 -77.189)" fill="#fff"/>
      <path id="Path_17065" data-name="Path 17065" d="M245.891,202.258c-6.688,0-10.137,2.04-10.137,2.91s3.449,2.911,10.137,2.911c6.2,0,9.619-1.755,10.081-2.7v-.413c-.462-.948-3.876-2.7-10.081-2.7Zm0,0" transform="translate(-206.43 -177.132)" fill="#fff"/>
      <path id="Path_17066" data-name="Path 17066" d="M237.373,301.855a11.406,11.406,0,0,1-1.62-.729v2.968c0,.317.673,1.069,2.479,1.734a22.749,22.749,0,0,0,7.568,1.144c6.433,0,10.066-1.916,10.172-2.922v-3.01c-2.419,1.379-6.327,2.088-10.206,2.088A25.321,25.321,0,0,1,237.373,301.855Zm0,0" transform="translate(-206.43 -263.627)" fill="#fff"/>
      <path id="Path_17067" data-name="Path 17067" d="M235.754,252.59v2.716c0,.988,3.534,2.91,10.013,2.91a22.941,22.941,0,0,0,7.632-1.154c1.838-.676,2.505-1.421,2.505-1.756h.069v-2.684c-2.427,1.333-6.268,2.018-10.081,2.018C242.049,254.639,238.178,253.944,235.754,252.59Zm0,0" transform="translate(-206.43 -221.204)" fill="#fff"/>
    </g>
    <g id="umbrella_1_" data-name="umbrella (1)" transform="translate(574.374 610.189) rotate(3)">
      <g id="Group_2093" data-name="Group 2093">
        <g id="Group_2092" data-name="Group 2092">
          <path id="Path_17068" data-name="Path 17068" d="M25.781,2.926v-1.5a1.427,1.427,0,1,0-2.854,0v1.5A24.439,24.439,0,0,0,0,27.207H0a1.427,1.427,0,1,0,2.854,0c0-.355,1.614-1.427,4.376-1.427s4.281,1.072,4.281,1.427a1.427,1.427,0,1,0,2.854,0c0-.355,1.519-1.427,4.281-1.427s4.281,1.072,4.281,1.427a1.427,1.427,0,1,0,2.854,0c0-.355,1.519-1.427,4.281-1.427s4.376,1.072,4.376,1.427a1.427,1.427,0,0,0,2.854,0c0-.355,1.519-1.427,4.281-1.427s4.281,1.072,4.281,1.427a1.427,1.427,0,1,0,2.854,0A24.439,24.439,0,0,0,25.781,2.926Z" fill="#fff"/>
        </g>
      </g>
    </g>
    <path id="Path_17069" data-name="Path 17069" d="M2.93,0,48.365.732a2.93,2.93,0,0,1,2.93,2.93v.586L.026,5.859,0,2.93A2.93,2.93,0,0,1,2.93,0Z" transform="translate(571.5 642.116) rotate(2)" fill="#fff"/>
  </g>
</svg>
