<svg xmlns="http://www.w3.org/2000/svg" width="84.347" height="75.922" viewBox="0 0 84.347 75.922">
  <path id="Path_16370" data-name="Path 16370" d="M78.742,141.184l-5.535-29.165a3.053,3.053,0,0,0-3-2.484H14.138a3.053,3.053,0,0,0-3,2.484L5.6,141.184A13.4,13.4,0,0,0,0,152.093v14.544a5.025,5.025,0,0,0,5.025,5.025h2.4v6.423a7.372,7.372,0,0,0,14.743,0v-6.423H62.182v6.423a7.372,7.372,0,0,0,14.743,0v-6.423h2.4a5.025,5.025,0,0,0,5.025-5.025V152.093A13.409,13.409,0,0,0,78.742,141.184Zm-64.16,21.948a6.959,6.959,0,1,1,6.958-7.01c0,.017,0,.034,0,.051A6.959,6.959,0,0,1,14.583,163.132Zm46.762-36.824H45.385a7.05,7.05,0,0,0-7.035,7l-.025,5.358h-24.9c-.384,0-.763.02-1.139.051l4.379-23.077H47.778a6.161,6.161,0,1,0,11.224,0h8.677l4.379,23.077c-.787-.066-.941-.051-3.653-.051l-.025-5.358A7.049,7.049,0,0,0,61.345,126.308Zm8.418,36.824a6.959,6.959,0,0,1-6.959-6.959c0-.017,0-.034,0-.051a6.959,6.959,0,1,1,6.958,7.01Z" transform="translate(0 -109.535)" fill="#fff"/>
</svg>
