<svg xmlns="http://www.w3.org/2000/svg" width="82.584" height="82.582" viewBox="0 0 82.584 82.582">
  <path id="Subtraction_52" data-name="Subtraction 52" d="M11096.462-3302.419h-58.986a1.478,1.478,0,0,1-1.476-1.476v-79.63a1.478,1.478,0,0,1,1.476-1.476h41.29v16.223a2.952,2.952,0,0,0,2.949,2.947h16.224v28.255l-7.964,3.435a1.477,1.477,0,0,0-.885,1.356v17.446a9.141,9.141,0,0,0,3.848,7.4l5,3.558v.488A1.478,1.478,0,0,1,11096.462-3302.419Zm-54.561-11.307a1.475,1.475,0,0,0-1.474,1.473,1.477,1.477,0,0,0,1.474,1.476h35.391a1.477,1.477,0,0,0,1.474-1.476,1.475,1.475,0,0,0-1.474-1.473Zm22.119-5.9a1.476,1.476,0,0,0-1.473,1.476,1.475,1.475,0,0,0,1.473,1.473h20.646a1.475,1.475,0,0,0,1.474-1.473,1.477,1.477,0,0,0-1.474-1.476Zm-22.119,0a1.477,1.477,0,0,0-1.474,1.476,1.475,1.475,0,0,0,1.474,1.473h16.221a1.476,1.476,0,0,0,1.476-1.473,1.478,1.478,0,0,0-1.476-1.476Zm17.939-12.289h11.8v1.476a4.429,4.429,0,0,0,4.426,4.423h2.949a4.428,4.428,0,0,0,4.423-4.423v-1.476a4.428,4.428,0,0,0,4.423-4.423v-5.9a7.325,7.325,0,0,0-6.242-7.258l-3.511-11.708a4.424,4.424,0,0,0-4.222-3.153h-16.293a4.425,4.425,0,0,0-4.219,3.153l-3.511,11.708a7.329,7.329,0,0,0-6.242,7.258v5.9a4.433,4.433,0,0,0,1.3,3.128,4.393,4.393,0,0,0,3.128,1.295v1.476a4.428,4.428,0,0,0,4.423,4.423h2.949a4.428,4.428,0,0,0,4.423-4.423v-1.475Zm-17.939-41.29a1.475,1.475,0,0,0-1.474,1.473,1.475,1.475,0,0,0,1.474,1.473h7.372a1.476,1.476,0,0,0,1.477-1.473,1.476,1.476,0,0,0-1.477-1.473Zm0-5.9a1.475,1.475,0,0,0-1.474,1.473,1.477,1.477,0,0,0,1.474,1.476h30.968a1.477,1.477,0,0,0,1.474-1.476,1.475,1.475,0,0,0-1.474-1.473Zm63.409,76.345h0l-10.659-7.59a6.148,6.148,0,0,1-2.609-4.992v-16.477l7.914-3.421.063-.028,5.294-2.285,13.273,5.734v16.477a6.174,6.174,0,0,1-2.608,4.992l-10.665,7.59Zm-8.849-16.281a1.462,1.462,0,0,0-1.181.591,1.464,1.464,0,0,0-.28,1.093,1.465,1.465,0,0,0,.576.972l5.9,4.423a1.452,1.452,0,0,0,.887.3,1.466,1.466,0,0,0,1.15-.552l11.8-14.747a1.476,1.476,0,0,0,.223-1.459,1.486,1.486,0,0,0-1.152-.921,1.486,1.486,0,0,0-.221-.016,1.466,1.466,0,0,0-1.152.552l-10.9,13.634-4.755-3.569A1.464,1.464,0,0,0,11096.462-3319.037Zm-17.448-9.926h-2.949a1.476,1.476,0,0,1-1.477-1.473v-1.476h5.9v1.476A1.475,1.475,0,0,1,11079.014-3328.964Zm-23.6,0h-2.949a1.475,1.475,0,0,1-1.474-1.473v-1.476h5.9v1.476A1.475,1.475,0,0,1,11055.418-3328.964Zm2.949-5.9h-10.321a1.476,1.476,0,0,1-1.477-1.473v-2.949h8.849a1.475,1.475,0,0,0,1.474-1.473v-1.476a1.475,1.475,0,0,0-1.474-1.473,1.475,1.475,0,0,0-1.474,1.473h-7.375a4.429,4.429,0,0,1,4.426-4.423h29.492a4.429,4.429,0,0,1,4.425,4.423h-7.375a1.475,1.475,0,0,0-.433-1.041,1.459,1.459,0,0,0-1.04-.433,1.476,1.476,0,0,0-1.477,1.473v1.476a1.46,1.46,0,0,0,.433,1.041,1.456,1.456,0,0,0,1.044.432h8.848v2.949a1.476,1.476,0,0,1-1.476,1.473h-10.322v-2.949a2.952,2.952,0,0,0-2.949-2.947h-8.849a2.952,2.952,0,0,0-2.949,2.947v2.949Zm11.8,0h-8.849v-2.949h8.849v2.948Zm8.341-14.744h-25.529l3.223-10.746a1.473,1.473,0,0,1,1.406-1.052h6.661v1.473a1.477,1.477,0,0,0,1.473,1.476,1.478,1.478,0,0,0,1.477-1.476v-1.473h6.658a1.473,1.473,0,0,1,1.406,1.052l3.226,10.745Zm17.345-19.17h-14.136v-14.139l14.136,14.136v0Z" transform="translate(-11036 3385)" fill="#fff"/>
</svg>
