<svg xmlns="http://www.w3.org/2000/svg" width="68.925" height="82.678" viewBox="0 0 68.925 82.678">
  <g id="file" transform="translate(-42.585)">
    <g id="Group_2104" data-name="Group 2104" transform="translate(87.16 53.069)">
      <g id="Group_2103" data-name="Group 2103">
        <path id="Path_17163" data-name="Path 17163" d="M318.622,328.639v17.615a7.263,7.263,0,0,0,3.265,6.073l8.956,5.921,8.887-5.924a7.266,7.266,0,0,0,3.242-6.058V328.639Z" transform="translate(-318.622 -328.639)" fill="#fff"/>
      </g>
    </g>
    <g id="Group_2106" data-name="Group 2106" transform="translate(42.585)">
      <g id="Group_2105" data-name="Group 2105">
        <path id="Path_17164" data-name="Path 17164" d="M101.8,48.376V19.219L82.583,0h-40V77.985H84.627a12.108,12.108,0,0,1-2.321-7.141V48.376ZM84,8.286,93.516,17.8H84ZM58.765,25.564H87.241v4.854H58.765ZM73,49.833H58.765V44.979H73v4.854ZM58.765,40.125V35.271H87.241v4.854Z" transform="translate(-42.585)" fill="#fff"/>
      </g>
    </g>
  </g>
</svg>
