<svg xmlns="http://www.w3.org/2000/svg" width="65.492" height="88.147" viewBox="0 0 65.492 88.147">
  <path id="Subtraction_48" data-name="Subtraction 48" d="M11104.786-3293.558h-65.492v-88.146h48.811v15.126a1.57,1.57,0,0,0,1.65,1.556h15.031v71.464Zm-50.559-14.623a1.651,1.651,0,0,0-1.65,1.647,1.651,1.651,0,0,0,1.65,1.648h35.628a1.65,1.65,0,0,0,1.647-1.648,1.649,1.649,0,0,0-1.647-1.647Zm5.888-6.59a1.649,1.649,0,0,0-1.647,1.647,1.65,1.65,0,0,0,1.647,1.648h23.85a1.65,1.65,0,0,0,1.647-1.648,1.649,1.649,0,0,0-1.647-1.647Zm-.189-14.622a1.751,1.751,0,0,0-1.684,1.731v5.272a1.682,1.682,0,0,0,1.673,1.645h24.248a1.689,1.689,0,0,0,1.678-1.645v-5.272a1.757,1.757,0,0,0-1.687-1.731h-10.465v-23.685h9.62l-5.676,11.622a1.669,1.669,0,0,0-.914,1.491,8.886,8.886,0,0,0,9.13,8.6,8.878,8.878,0,0,0,9.13-8.581,1.7,1.7,0,0,0-.915-1.511l-5.673-11.619h1.438a1.65,1.65,0,0,0,1.647-1.648,1.649,1.649,0,0,0-1.647-1.647h-16.141v-1.436a5.492,5.492,0,0,0,3.68-5.224,5.42,5.42,0,0,0-5.328-5.495,5.42,5.42,0,0,0-5.33,5.495,5.493,5.493,0,0,0,3.683,5.224v1.436h-16.144a1.649,1.649,0,0,0-1.647,1.647,1.65,1.65,0,0,0,1.647,1.648h1.441l-5.676,11.622a1.67,1.67,0,0,0-.915,1.491,8.886,8.886,0,0,0,9.13,8.6,8.88,8.88,0,0,0,9.133-8.581,1.7,1.7,0,0,0-.917-1.511l-5.673-11.619h9.62v23.685Zm22.617,5.353h-21.006v-2.057h21.006v2.056Zm3.307-10.566a5.917,5.917,0,0,1-5.545-3.644h11.09A5.918,5.918,0,0,1,11085.85-3334.606Zm-27.619,0a5.923,5.923,0,0,1-5.545-3.644h11.093A5.924,5.924,0,0,1,11058.23-3334.606Zm32.079-6.939h-8.921l4.461-9.1,4.459,9.1Zm-27.615,0h-8.924l4.46-9.1,4.463,9.1Zm9.347-19.289a2.124,2.124,0,0,1-2.034-2.2,2.124,2.124,0,0,1,2.034-2.2,2.123,2.123,0,0,1,2.032,2.2A2.123,2.123,0,0,1,11072.041-3360.833Zm30.409-7.485H11091.4v-10.953l11.05,10.951Z" transform="translate(-11039.294 3381.705)" fill="#fff"/>
</svg>
