<svg xmlns="http://www.w3.org/2000/svg" width="72.949" height="83" viewBox="0 0 72.949 83">
  <g id="health-insurance" transform="translate(-31)">
    <path id="Path_18214" data-name="Path 18214" d="M50.453,284.929v0a25.833,25.833,0,0,0,19.453-25.077v-9.128A9.736,9.736,0,0,1,60.18,241H40.727A9.736,9.736,0,0,1,31,250.727v9.128A25.831,25.831,0,0,0,50.453,284.929Zm-7.295-26.908h4.863v-4.863h4.863v4.863h4.863v4.863H52.885v4.863H48.021v-4.863H43.158Z" transform="translate(0 -201.932)" fill="#fff"/>
    <path id="Path_18215" data-name="Path 18215" d="M165.59,39.068a4.87,4.87,0,0,0,4.863,4.863h4.863V57.923a30.436,30.436,0,0,1-4.084,15.188H204.5V0H151V34.205h14.59Zm0-29.18h24.316v4.863H165.59Zm0,9.727h24.316v4.863H165.59Z" transform="translate(-100.547)" fill="#fff"/>
  </g>
</svg>
