<svg xmlns="http://www.w3.org/2000/svg" width="73.364" height="82.678" viewBox="0 0 73.364 82.678">
  <g id="pound" transform="translate(-0.032 0.005)">
    <path id="Path_17156" data-name="Path 17156" d="M140.3,209.7a14.162,14.162,0,0,0-3.25,27.947,1.253,1.253,0,0,1,.363.084A14.164,14.164,0,1,0,140.3,209.7Zm3.431,9.432h1.951a1.25,1.25,0,1,1,0,2.5h-1.951a5.937,5.937,0,0,1-5.674,4.54l5.417,5.062a1.235,1.235,0,0,1-.859,2.137,1.254,1.254,0,0,1-.858-.349l-7.7-7.29a1.214,1.214,0,0,1-.3-1.348,1.248,1.248,0,0,1,1.162-.788h3.08a3.226,3.226,0,0,0,3.127-1.964h-6.207a1.25,1.25,0,1,1,0-2.5h6.207a3.378,3.378,0,0,0-3.127-2.143h-3.08a1.25,1.25,0,1,1,0-2.5h10.766a1.25,1.25,0,0,1,0,2.5H142.8a4.687,4.687,0,0,1,.932,2.143Zm0,0" transform="translate(-103.581 -172.265)" fill="#fff"/>
    <path id="Path_17157" data-name="Path 17157" d="M54.107,30.534a11.855,11.855,0,0,1,1.873,2.61,11.855,11.855,0,0,1,1.873-2.61l.054-.054a11.071,11.071,0,0,1,15.44.026l.027.027.024.026a37.292,37.292,0,0,0-73.364,0l.024-.026L.11,30.48a11.071,11.071,0,0,1,15.44.026l.027.027a11.832,11.832,0,0,1,1.873,2.61,11.855,11.855,0,0,1,1.873-2.61c.017-.018.035-.036.054-.054a11.07,11.07,0,0,1,15.439.026l.027.027a11.858,11.858,0,0,1,1.873,2.61,11.829,11.829,0,0,1,1.872-2.61l.054-.054a11.071,11.071,0,0,1,15.44.026l.027.027Zm0,0" transform="translate(0 0)" fill="#fff"/>
    <path id="Path_17158" data-name="Path 17158" d="M129.48,386.422v1.931a7.856,7.856,0,0,0,15.712,0v-6.737a17.479,17.479,0,0,1-4.285,0v6.737a3.571,3.571,0,0,1-7.142,0v-1.931Zm0,0" transform="translate(-106.335 -313.485)" fill="#fff"/>
  </g>
</svg>
