<svg xmlns="http://www.w3.org/2000/svg" width="84.347" height="46.135" viewBox="0 0 84.347 46.135">
  <g id="air-transport" transform="translate(0 -138.628)">
    <path id="Path_16382" data-name="Path 16382" d="M84.347,146.5c0,14.591-70.34,30.7-75.667,30.7-2.986,0-6.374-.688-6.374-3.441,0-.92,1.062-2.249,2.925-3.852h0L.291,161.128a2.255,2.255,0,0,1,1.127-3.2l.849-.34A5.638,5.638,0,0,1,7,157.84l8.964,4.745c3.49-2.07,7.449-4.237,11.622-6.371L10.116,144.882a2.255,2.255,0,0,1,.028-3.8l1.429-.9a10.146,10.146,0,0,1,7.985-1.219l29.06,7.665c9.061-3.6,17.253-6.051,22.1-6.051,1.295,0,2.592.034,3.843.124l-8.776,3.962-.21,2.952,13.546-6.227C82.371,142.162,84.347,143.608,84.347,146.5ZM48.994,171.684,59.834,184a2.255,2.255,0,0,0,2.643.555l1.452-.675a6.765,6.765,0,0,0,3.867-6.92l-1.357-11.6a1.128,1.128,0,0,0-1.494-.932l-15.478,5.453A1.128,1.128,0,0,0,48.994,171.684Z" transform="translate(0 0)" fill="#fff"/>
  </g>
</svg>
