<?xml version="1.0" encoding="utf-8"?>
<!-- Generator: Adobe Illustrator 16.0.3, SVG Export Plug-In . SVG Version: 6.00 Build 0)  -->
<!DOCTYPE svg PUBLIC "-//W3C//DTD SVG 1.1//EN" "http://www.w3.org/Graphics/SVG/1.1/DTD/svg11.dtd">
<svg version="1.1" id="Layer_1" xmlns="http://www.w3.org/2000/svg" xmlns:xlink="http://www.w3.org/1999/xlink" x="0px" y="0px"
	 width="21.533px" height="53.68px" viewBox="0 0 21.533 53.68" enable-background="new 0 0 21.533 53.68" xml:space="preserve">
<g id="accident" transform="translate(-138.962)">
	<g id="XMLID_29_" transform="translate(138.962 0)">
		<path id="XMLID_87_" fill="#12BEDA" d="M5.155,40.23v1.524L9.307,40.9L5.155,40.23z"/>
		<path id="XMLID_861_" fill="#12BEDA" d="M10.239,38.707V37.85l-3.375,0.313L10.239,38.707z"/>
		<path id="XMLID_862_" fill="#12BEDA" d="M5.155,44.08v0.47c0.001,1.404,1.14,2.542,2.543,2.541
			c1.403-0.001,2.54-1.138,2.541-2.541v-1.48C4.957,44.157,5.357,44.088,5.155,44.08z"/>
		<circle id="XMLID_875_" fill="#12BEDA" cx="10.788" cy="4.39" r="4.39"/>
		<path id="XMLID_876_" fill="#12BEDA" d="M9.6,25.709c0.38,1.104,1.582,1.694,2.689,1.319L10.92,23.02l0,0
			C9.813,23.399,9.223,24.602,9.6,25.709z"/>
		<path id="XMLID_877_" fill="#12BEDA" d="M21.538,22.299l-0.02-3.845l-0.017-3.287c-0.02-2.757-2.257-4.982-5.013-4.988H5.091
			c-2.756,0.006-4.993,2.231-5.013,4.988L0,30.729c-0.005,1.124,0.87,2.057,1.992,2.122v19.672c-0.019,0.639,0.484,1.172,1.123,1.19
			c0.639,0.02,1.171-0.483,1.19-1.122c0-0.022,0-0.046,0-0.068c0-1.476,0.009-37.334,0.009-37.334l0,0
			c0.016-0.244,0.228-0.429,0.472-0.412c0.231,0.016,0.411,0.206,0.414,0.438L5.155,35.998c5.355-0.5,4.968-0.464,5.084-0.461
			v-4.493c0-0.313,0.253-0.565,0.565-0.565l0,0c0.305,0,0.552,0.247,0.552,0.553c0,0,0,0.001,0,0.002
			c-0.012,3.29-0.02,20.1-0.02,20.1c0,1.404,1.137,2.542,2.541,2.543s2.543-1.137,2.543-2.541c0-0.001,0-0.001,0-0.002v-23.07
			l-3.383,1.156c-2.325,0.766-4.831-0.499-5.596-2.824c-0.754-2.288,0.46-4.76,2.731-5.563l7.104-2.427l0.011,1.93l1.541,4.462l0,0
			l1.271-0.435l0,0C20.979,24.062,21.56,23.227,21.538,22.299z"/>
	</g>
</g>
</svg>
