<svg xmlns="http://www.w3.org/2000/svg" width="51.35" height="62.598" viewBox="0 0 51.35 62.598">
  <g id="Group_2299" data-name="Group 2299" transform="translate(-113.933 -1191.164)">
    <g id="Group_2292" data-name="Group 2292" transform="translate(73.333 -10.667)">
      <g id="suitcase" transform="translate(54 1217)">
        <g id="Group_2241" data-name="Group 2241" transform="translate(0 5.344)">
          <g id="Group_2240" data-name="Group 2240">
            <path id="Path_17609" data-name="Path 17609" d="M11.1,110.933H2.056A2.058,2.058,0,0,0,0,112.989v13.156A2.058,2.058,0,0,0,2.056,128.2H7.4v-.822H2.056a1.235,1.235,0,0,1-1.233-1.233V112.989a1.235,1.235,0,0,1,1.233-1.233H11.1a1.235,1.235,0,0,1,1.233,1.233v.411h.822v-.411A2.058,2.058,0,0,0,11.1,110.933Z" transform="translate(0 -110.933)"/>
          </g>
        </g>
        <g id="Group_2243" data-name="Group 2243" transform="translate(2.878)">
          <g id="Group_2242" data-name="Group 2242">
            <path id="Path_17610" data-name="Path 17610" d="M65.9,0H60.966a1.233,1.233,0,0,0,0,2.467H65.9A1.233,1.233,0,0,0,65.9,0Zm0,1.644H60.966a.411.411,0,0,1,0-.822H65.9a.411.411,0,1,1,0,.822Z" transform="translate(-59.733)"/>
          </g>
        </g>
        <g id="Group_2245" data-name="Group 2245" transform="translate(4.522 2.056)">
          <g id="Group_2244" data-name="Group 2244">
            <rect id="Rectangle_715" data-name="Rectangle 715" width="0.822" height="3.7"/>
          </g>
        </g>
        <g id="Group_2247" data-name="Group 2247" transform="translate(7.811 2.056)">
          <g id="Group_2246" data-name="Group 2246">
            <rect id="Rectangle_716" data-name="Rectangle 716" width="0.822" height="3.7"/>
          </g>
        </g>
        <g id="Group_2249" data-name="Group 2249" transform="translate(2.467 12.333)">
          <g id="Group_2248" data-name="Group 2248">
            <rect id="Rectangle_717" data-name="Rectangle 717" width="0.822" height="7.4"/>
          </g>
        </g>
        <g id="Group_2251" data-name="Group 2251" transform="translate(7.4 7.811)">
          <g id="Group_2250" data-name="Group 2250">
            <rect id="Rectangle_718" data-name="Rectangle 718" width="0.822" height="3.289"/>
          </g>
        </g>
        <g id="Group_2253" data-name="Group 2253" transform="translate(0.411 21.789)">
          <g id="Group_2252" data-name="Group 2252">
            <path id="Path_17611" data-name="Path 17611" d="M9.972,452.267a1.439,1.439,0,1,0,1.439,1.439A1.44,1.44,0,0,0,9.972,452.267Zm0,2.056a.617.617,0,1,1,.617-.617A.617.617,0,0,1,9.972,454.323Z" transform="translate(-8.533 -452.267)"/>
          </g>
        </g>
        <g id="Group_2255" data-name="Group 2255" transform="translate(4.933 7.811)">
          <g id="Group_2254" data-name="Group 2254">
            <rect id="Rectangle_719" data-name="Rectangle 719" width="0.822" height="11.922"/>
          </g>
        </g>
        <g id="Group_2257" data-name="Group 2257" transform="translate(0 9.044)">
          <g id="Group_2256" data-name="Group 2256">
            <path id="Path_17612" data-name="Path 17612" d="M4.493,190.039l-.822-2.056a.411.411,0,0,0-.224-.227.406.406,0,0,0-.319,0L.249,188.992A.41.41,0,0,0,0,189.37v2.467a.411.411,0,0,0,.411.411.406.406,0,0,0,.167-.036l3.7-1.644A.411.411,0,0,0,4.493,190.039ZM.822,191.2V189.64l2.241-.96.519,1.3Z" transform="translate(0 -187.725)"/>
          </g>
        </g>
        <g id="Group_2259" data-name="Group 2259" transform="translate(2.467 7.811)">
          <g id="Group_2258" data-name="Group 2258">
            <rect id="Rectangle_720" data-name="Rectangle 720" width="0.822" height="2.056"/>
          </g>
        </g>
        <g id="Group_2261" data-name="Group 2261" transform="translate(9.867 7.811)">
          <g id="Group_2260" data-name="Group 2260">
            <rect id="Rectangle_721" data-name="Rectangle 721" width="0.822" height="3.289"/>
          </g>
        </g>
        <g id="Group_2263" data-name="Group 2263" transform="translate(9.867 21.789)">
          <g id="Group_2262" data-name="Group 2262">
            <path id="Path_17613" data-name="Path 17613" d="M206.239,452.267a1.439,1.439,0,1,0,1.439,1.439A1.44,1.44,0,0,0,206.239,452.267Zm0,2.056a.617.617,0,1,1,.617-.617A.617.617,0,0,1,206.239,454.323Z" transform="translate(-204.8 -452.267)"/>
          </g>
        </g>
        <g id="Group_2265" data-name="Group 2265" transform="translate(6.167 10.278)">
          <g id="Group_2264" data-name="Group 2264">
            <path id="Path_17614" data-name="Path 17614" d="M144.445,213.333H130.056A2.058,2.058,0,0,0,128,215.389v8.222a2.058,2.058,0,0,0,2.056,2.056h14.389a2.058,2.058,0,0,0,2.056-2.056v-8.222A2.058,2.058,0,0,0,144.445,213.333Zm1.233,10.278a1.235,1.235,0,0,1-1.233,1.233H130.056a1.235,1.235,0,0,1-1.233-1.233v-8.222a1.235,1.235,0,0,1,1.233-1.233h14.389a1.235,1.235,0,0,1,1.233,1.233v8.222Z" transform="translate(-128 -213.333)"/>
          </g>
        </g>
        <g id="Group_2267" data-name="Group 2267" transform="translate(13.156 8.633)">
          <g id="Group_2266" data-name="Group 2266">
            <path id="Path_17615" data-name="Path 17615" d="M277.178,179.2h-3.7a.411.411,0,0,0-.411.411v1.644h.822v-1.233h2.878v1.233h.822v-1.644A.411.411,0,0,0,277.178,179.2Z" transform="translate(-273.067 -179.2)"/>
          </g>
        </g>
        <g id="Group_2269" data-name="Group 2269" transform="translate(11.511 6.989)">
          <g id="Group_2268" data-name="Group 2268">
            <path id="Path_17616" data-name="Path 17616" d="M244.689,145.067h-3.7a2.058,2.058,0,0,0-2.056,2.056v1.644h.822v-1.644a1.235,1.235,0,0,1,1.233-1.233h3.7a1.235,1.235,0,0,1,1.233,1.233v1.644h.822v-1.644A2.058,2.058,0,0,0,244.689,145.067Z" transform="translate(-238.933 -145.067)"/>
          </g>
        </g>
        <g id="Group_2271" data-name="Group 2271" transform="translate(12.333 11.932)">
          <g id="Group_2270" data-name="Group 2270">
            <path id="Path_17617" data-name="Path 17617" d="M260.851,250.715l-2.056-2.878a.426.426,0,0,0-.669,0l-2.056,2.878a.411.411,0,0,0,.335.65h4.111a.411.411,0,0,0,.334-.65Zm-3.647-.172,1.257-1.759,1.256,1.759Z" transform="translate(-255.994 -247.675)"/>
          </g>
        </g>
        <g id="Group_2273" data-name="Group 2273" transform="translate(18.13 16.024)">
          <g id="Group_2272" data-name="Group 2272">
            <path id="Path_17618" data-name="Path 17618" d="M379.392,332.74a2.291,2.291,0,0,0-2.981,1.189,1.89,1.89,0,0,0,.258,1.644,2.739,2.739,0,0,0,1.448,1.074,2.894,2.894,0,0,0,.9.144,2.106,2.106,0,0,0,2.086-1.333A2.291,2.291,0,0,0,379.392,332.74Zm.924,2.463a1.485,1.485,0,0,1-1.944.662,1.916,1.916,0,0,1-1.015-.743,1.086,1.086,0,0,1-.164-.938h0a1.281,1.281,0,0,1,1.291-.768,2.1,2.1,0,0,1,.652.106A1.486,1.486,0,0,1,380.316,335.2Z" transform="translate(-376.324 -332.596)"/>
          </g>
        </g>
        <g id="Group_2275" data-name="Group 2275" transform="translate(6.578 21.789)">
          <g id="Group_2274" data-name="Group 2274">
            <path id="Path_17619" data-name="Path 17619" d="M137.972,452.267a1.439,1.439,0,1,0,1.439,1.439A1.44,1.44,0,0,0,137.972,452.267Zm0,2.056a.617.617,0,1,1,.617-.617A.617.617,0,0,1,137.972,454.323Z" transform="translate(-136.533 -452.267)"/>
          </g>
        </g>
        <g id="Group_2277" data-name="Group 2277" transform="translate(21.378 21.789)">
          <g id="Group_2276" data-name="Group 2276">
            <path id="Path_17620" data-name="Path 17620" d="M445.172,452.267a1.439,1.439,0,1,0,1.439,1.439A1.44,1.44,0,0,0,445.172,452.267Zm0,2.056a.617.617,0,1,1,.617-.617A.617.617,0,0,1,445.172,454.323Z" transform="translate(-443.733 -452.267)"/>
          </g>
        </g>
        <g id="Group_2279" data-name="Group 2279" transform="translate(9.867 18.911)">
          <g id="Group_2278" data-name="Group 2278">
            <rect id="Rectangle_722" data-name="Rectangle 722" width="0.822" height="3.289"/>
          </g>
        </g>
        <g id="Group_2281" data-name="Group 2281" transform="translate(8.222 10.278)">
          <g id="Group_2280" data-name="Group 2280">
            <path id="Path_17621" data-name="Path 17621" d="M172.723,213.333h-1.644a.411.411,0,0,0-.411.411v4.933h.822v-4.522h.822V219.5h.822v-5.756A.411.411,0,0,0,172.723,213.333Z" transform="translate(-170.667 -213.333)"/>
          </g>
        </g>
        <g id="Group_2283" data-name="Group 2283" transform="translate(8.222 17.678)">
          <g id="Group_2282" data-name="Group 2282">
            <rect id="Rectangle_723" data-name="Rectangle 723" width="0.822" height="4.522"/>
          </g>
        </g>
        <g id="Group_2285" data-name="Group 2285" transform="translate(21.789 19.322)">
          <g id="Group_2284" data-name="Group 2284">
            <rect id="Rectangle_724" data-name="Rectangle 724" width="0.822" height="2.878"/>
          </g>
        </g>
        <g id="Group_2287" data-name="Group 2287" transform="translate(20.145 10.278)">
          <g id="Group_2286" data-name="Group 2286">
            <path id="Path_17622" data-name="Path 17622" d="M420.19,213.333h-1.644a.411.411,0,0,0-.411.411V219.5h.822v-5.344h.822v6.167h.822v-6.578A.411.411,0,0,0,420.19,213.333Z" transform="translate(-418.134 -213.333)"/>
          </g>
        </g>
        <g id="Group_2289" data-name="Group 2289" transform="translate(20.145 19.734)">
          <g id="Group_2288" data-name="Group 2288">
            <rect id="Rectangle_725" data-name="Rectangle 725" width="0.822" height="2.467"/>
          </g>
        </g>
        <g id="Group_2291" data-name="Group 2291" transform="translate(6.366 14.033)">
          <g id="Group_2290" data-name="Group 2290">
            <path id="Path_17623" data-name="Path 17623" d="M137.49,294.164l-4.933-2.878-.414.711,4.6,2.683-.451.9-3.73-2.238-.423.705,4.111,2.467a.413.413,0,0,0,.212.059.408.408,0,0,0,.115-.016.413.413,0,0,0,.253-.211l.822-1.644A.412.412,0,0,0,137.49,294.164Z" transform="translate(-132.138 -291.286)"/>
          </g>
        </g>
      </g>
    </g>
    <g id="Group_2298" data-name="Group 2298" transform="translate(54 68)">
      <g id="protection" transform="translate(59.933 1123.164)">
        <g id="Group_1216" data-name="Group 1216" transform="translate(24.454 4.892)">
          <g id="Group_1215" data-name="Group 1215">
            <path id="Path_16015" data-name="Path 16015" d="M247.231,40.01a1.221,1.221,0,1,0,1.221,1.221A1.219,1.219,0,0,0,247.231,40.01Z" transform="translate(-246.01 -40.01)"/>
          </g>
        </g>
        <g id="Group_1218" data-name="Group 1218" transform="translate(0)">
          <g id="Group_1217" data-name="Group 1217">
            <path id="Path_16016" data-name="Path 16016" d="M96.127,7.336a6.12,6.12,0,0,1-6.113-6.113A1.223,1.223,0,0,0,88.792,0H54.558a1.223,1.223,0,0,0-1.223,1.223,6.12,6.12,0,0,1-6.113,6.113A1.223,1.223,0,0,0,46,8.558V28.51A35.513,35.513,0,0,0,71.324,62.546a1.222,1.222,0,0,0,.7,0A35.517,35.517,0,0,0,97.35,28.51V8.558A1.223,1.223,0,0,0,96.127,7.336ZM94.9,28.51A32.88,32.88,0,0,1,71.675,60.1,33.059,33.059,0,0,1,48.445,28.51V9.694a8.578,8.578,0,0,0,7.249-7.249H87.656A8.578,8.578,0,0,0,94.9,9.694Z" transform="translate(-46)"/>
          </g>
        </g>
        <g id="Group_1220" data-name="Group 1220" transform="translate(4.89 4.89)">
          <g id="Group_1219" data-name="Group 1219">
            <path id="Path_16017" data-name="Path 16017" d="M126.837,46.418a11.013,11.013,0,0,1-5.685-5.685,1.223,1.223,0,0,0-1.12-.732h-8.359a1.223,1.223,0,0,0,0,2.445h7.586a13.441,13.441,0,0,0,5.865,5.865V63.62a27.851,27.851,0,0,1-18.339,26.421A27.851,27.851,0,0,1,88.445,63.62V48.31a13.441,13.441,0,0,0,5.865-5.865H101.9a1.223,1.223,0,0,0,0-2.445H93.537a1.223,1.223,0,0,0-1.12.732,11.013,11.013,0,0,1-5.685,5.685A1.223,1.223,0,0,0,86,47.537V63.62a30.436,30.436,0,0,0,20.377,28.874,1.222,1.222,0,0,0,.816,0A30.436,30.436,0,0,0,127.569,63.62V47.537A1.223,1.223,0,0,0,126.837,46.418Z" transform="translate(-86 -40)" fill="#147db2"/>
          </g>
        </g>
      </g>
    </g>
  </g>
</svg>
