<svg xmlns="http://www.w3.org/2000/svg" width="51.35" height="62.598" viewBox="0 0 51.35 62.598">
  <g id="Group_2297" data-name="Group 2297" transform="translate(-59.933 -1123.164)">
    <g id="protection" transform="translate(59.933 1123.164)">
      <g id="Group_1216" data-name="Group 1216" transform="translate(24.454 4.892)">
        <g id="Group_1215" data-name="Group 1215">
          <path id="Path_16015" data-name="Path 16015" d="M247.231,40.01a1.221,1.221,0,1,0,1.221,1.221A1.219,1.219,0,0,0,247.231,40.01Z" transform="translate(-246.01 -40.01)"/>
        </g>
      </g>
      <g id="Group_1218" data-name="Group 1218" transform="translate(0)">
        <g id="Group_1217" data-name="Group 1217">
          <path id="Path_16016" data-name="Path 16016" d="M96.127,7.336a6.12,6.12,0,0,1-6.113-6.113A1.223,1.223,0,0,0,88.792,0H54.558a1.223,1.223,0,0,0-1.223,1.223,6.12,6.12,0,0,1-6.113,6.113A1.223,1.223,0,0,0,46,8.558V28.51A35.513,35.513,0,0,0,71.324,62.546a1.222,1.222,0,0,0,.7,0A35.517,35.517,0,0,0,97.35,28.51V8.558A1.223,1.223,0,0,0,96.127,7.336ZM94.9,28.51A32.88,32.88,0,0,1,71.675,60.1,33.059,33.059,0,0,1,48.445,28.51V9.694a8.578,8.578,0,0,0,7.249-7.249H87.656A8.578,8.578,0,0,0,94.9,9.694Z" transform="translate(-46)"/>
        </g>
      </g>
      <g id="Group_1220" data-name="Group 1220" transform="translate(4.89 4.89)">
        <g id="Group_1219" data-name="Group 1219">
          <path id="Path_16017" data-name="Path 16017" d="M126.837,46.418a11.013,11.013,0,0,1-5.685-5.685,1.223,1.223,0,0,0-1.12-.732h-8.359a1.223,1.223,0,0,0,0,2.445h7.586a13.441,13.441,0,0,0,5.865,5.865V63.62a27.851,27.851,0,0,1-18.339,26.421A27.851,27.851,0,0,1,88.445,63.62V48.31a13.441,13.441,0,0,0,5.865-5.865H101.9a1.223,1.223,0,0,0,0-2.445H93.537a1.223,1.223,0,0,0-1.12.732,11.013,11.013,0,0,1-5.685,5.685A1.223,1.223,0,0,0,86,47.537V63.62a30.436,30.436,0,0,0,20.377,28.874,1.222,1.222,0,0,0,.816,0A30.436,30.436,0,0,0,127.569,63.62V47.537A1.223,1.223,0,0,0,126.837,46.418Z" transform="translate(-86 -40)" fill="#147db2"/>
        </g>
      </g>
    </g>
    <g id="home" transform="translate(72.743 1110.586)">
      <g id="Group_2294" data-name="Group 2294" transform="translate(-0.001 27.798)">
        <g id="Group_2293" data-name="Group 2293">
          <path id="Path_17627" data-name="Path 17627" d="M26.235,37.134l-12.57-9.2a.689.689,0,0,0-.814,0l-12.57,9.2A.689.689,0,1,0,1.1,38.246L13.258,29.34l12.163,8.905a.689.689,0,0,0,.814-1.112Z" transform="translate(0.001 -27.798)"/>
        </g>
      </g>
      <g id="Group_2296" data-name="Group 2296" transform="translate(2.923 38.402)">
        <g id="Group_2295" data-name="Group 2295">
          <path id="Path_17628" data-name="Path 17628" d="M76.433,232.543a.689.689,0,0,0-.689.689V244.2H70.232v-5.986a3.445,3.445,0,0,0-6.89,0V244.2H57.83V233.232a.689.689,0,0,0-1.378,0v11.656a.689.689,0,0,0,.689.689h6.89a.689.689,0,0,0,.686-.635.518.518,0,0,0,0-.054v-6.676a2.067,2.067,0,1,1,4.134,0v6.676a.505.505,0,0,0,0,.053.689.689,0,0,0,.686.636h6.89a.689.689,0,0,0,.689-.689V233.232A.689.689,0,0,0,76.433,232.543Z" transform="translate(-56.452 -232.543)"/>
        </g>
      </g>
    </g>
  </g>
</svg>
