<?xml version="1.0" encoding="utf-8"?>
<!-- Generator: Adobe Illustrator 14.0.0, SVG Export Plug-In . SVG Version: 6.00 Build 43363)  -->
<!DOCTYPE svg PUBLIC "-//W3C//DTD SVG 1.1//EN" "http://www.w3.org/Graphics/SVG/1.1/DTD/svg11.dtd">
<svg version="1.1" id="Layer_1" xmlns="http://www.w3.org/2000/svg" xmlns:xlink="http://www.w3.org/1999/xlink" x="0px" y="0px"
	 width="65px" height="65px" viewBox="6.165 2.541 65 65" enable-background="new 6.165 2.541 65 65" xml:space="preserve">
<g id="aircraft" transform="translate(0 -21.655)">
	<g id="Group_1625" transform="translate(0 21.655)">
		<g id="Group_1624">
			<path id="Path_16507" d="M69.269,29.149c-0.088-0.515-0.539-0.889-1.062-0.881H48.032c-0.685-2.463-2.181-4.622-4.247-6.126
				l-0.635-3.664h4.979c1.444,0.094,2.692-1.001,2.786-2.446c0.094-1.445-1.001-2.693-2.446-2.787c-0.113-0.007-0.228-0.007-0.34,0
				h-5.843l-0.424-2.379c-0.107-1.296-0.903-3.61-3.186-3.61h-0.117c-2.293,0-3.093,2.326-3.185,3.61l-0.414,2.379h-5.84
				c-1.445-0.094-2.693,1.001-2.788,2.446c-0.094,1.445,1.001,2.693,2.446,2.787c0.114,0.007,0.228,0.007,0.341,0h4.885
				l-0.634,3.664c-2.067,1.504-3.564,3.663-4.248,6.126H9.127c-0.523-0.008-0.973,0.366-1.062,0.881
				c-0.423,2.897,1.41,5.646,4.247,6.371c0.872,0.276,2.251,0.658,4.123,1.136v0.201c-0.003,2.311,1.867,4.188,4.177,4.191
				c1.646,0.002,3.14-0.961,3.818-2.46c3.501,0.816,6.57,1.509,7.504,1.721c3.351,3.674,9.046,3.936,12.72,0.585c0,0,0,0,0-0.001
				c0.204-0.185,0.398-0.379,0.585-0.584c0.69-0.158,3.93-0.881,7.656-1.751c0.952,2.104,3.431,3.04,5.536,2.087
				c1.499-0.678,2.462-2.173,2.459-3.818v-0.202c1.88-0.476,3.26-0.859,4.124-1.136C67.842,34.768,69.674,32.038,69.269,29.149z
				 M48.117,15.346c0.272-0.04,0.525,0.149,0.565,0.422c0.039,0.272-0.149,0.526-0.422,0.565c-0.048,0.006-0.096,0.006-0.144,0
				h-5.246l-0.169-0.987H48.117z M36.332,17.599l0.541-3.111l0.584-3.398c0,0,0.158-1.731,1.115-1.698h0.106
				c0.955,0,1.063,1.688,1.063,1.698c-0.003,0.036-0.003,0.071,0,0.106l1.698,9.733c-1.847-0.641-3.855-0.641-5.702,0L36.332,17.599
				z M29.122,16.33c-0.254-0.016-0.456-0.221-0.467-0.476l-0.01-0.011c0-0.275,0.224-0.499,0.499-0.499h5.426l-0.17,0.985H29.122z
				 M20.68,38.919h-0.054c-1.144-0.015-2.059-0.955-2.044-2.098c0.015-1.145,0.954-2.06,2.098-2.044
				c1.144,0.015,2.059,0.954,2.044,2.097C22.71,37.998,21.803,38.905,20.68,38.919z M24.778,36.487
				c-0.192-2.291-2.206-3.991-4.497-3.798c-1.306,0.11-2.485,0.829-3.18,1.941c-1.891-0.476-3.271-0.86-4.124-1.125
				c-1.502-0.333-2.632-1.574-2.825-3.101h18.585c-0.06,0.479-0.092,0.961-0.096,1.444c-0.005,2.042,0.487,4.053,1.434,5.861
				L24.778,36.487z M38.625,41.127h-0.043c-4.332,0-7.85-4.162-7.85-9.277c0-5.116,3.514-9.278,7.85-9.278
				c4.336,0,7.85,4.162,7.85,9.278C46.432,36.965,42.925,41.127,38.625,41.127L38.625,41.127z M56.729,38.919h-0.096
				c-1.111-0.027-1.991-0.948-1.965-2.061c0.027-1.11,0.95-1.99,2.061-1.964c1.111,0.026,1.99,0.949,1.964,2.06
				C58.667,38.03,57.803,38.894,56.729,38.919z M64.363,33.504h-0.085c-0.839,0.266-2.23,0.648-4.123,1.125
				c-1.219-1.949-3.787-2.542-5.736-1.322c-1.112,0.695-1.831,1.874-1.94,3.18l-5.313,1.243c0.943-1.816,1.429-3.836,1.413-5.882
				c-0.001-0.483-0.029-0.965-0.085-1.444h18.694C66.992,31.928,65.863,33.167,64.363,33.504L64.363,33.504z"/>
		</g>
	</g>
	<g id="Group_1627" transform="translate(31.905 48.409)">
		<g id="Group_1626" transform="translate(0 0)">
			<path id="Path_16508" fill="#147DB2" d="M10.754,1.715H2.461c-0.586-0.001-1.063,0.473-1.064,1.06
				C1.396,3.361,1.87,3.838,2.457,3.839c0.001,0,0.003,0,0.004,0h8.293c0.586-0.001,1.061-0.478,1.06-1.064
				C11.812,2.19,11.339,1.717,10.754,1.715z"/>
		</g>
	</g>
	<g id="Group_1629" transform="translate(11.98 66.731)">
		<g id="Group_1628">
			<path id="Path_16509" d="M15.023-1.982h-0.006c-0.534-0.239-1.161-0.002-1.402,0.531L5.621,16.236
				C5.377,16.77,5.612,17.4,6.146,17.643c0.534,0.244,1.164,0.009,1.407-0.525l0,0L15.57-0.583
				C15.805-1.12,15.561-1.746,15.023-1.982L15.023-1.982z"/>
		</g>
	</g>
	<g id="Group_1631" transform="translate(52.446 66.734)">
		<g id="Group_1630">
			<path id="Path_16510" d="M7.193,16.244l-8.018-17.7c-0.243-0.534-0.873-0.77-1.407-0.525C-2.764-1.739-3-1.109-2.757-0.576l0,0
				l8.016,17.701c0.243,0.532,0.874,0.768,1.407,0.524C7.2,17.407,7.436,16.778,7.193,16.244z"/>
		</g>
	</g>
	<g id="Group_1633" transform="translate(37.141 68.736)">
		<g id="Group_1632">
			<path id="Path_16511" fill="#147DB2" d="M1.377-2.493c-0.586,0-1.062,0.476-1.062,1.062v4.428
				c0.001,0.587,0.478,1.061,1.064,1.06c0.584-0.001,1.059-0.475,1.06-1.06v-4.432C2.438-2.019,1.962-2.493,1.377-2.493z"/>
		</g>
	</g>
	<g id="Group_1635" transform="translate(37.141 82.368)">
		<g id="Group_1634">
			<path id="Path_16512" fill="#147DB2" d="M1.377-5.316c-0.586,0-1.062,0.476-1.062,1.063v4.43c0.001,0.586,0.478,1.062,1.064,1.06
				c0.584-0.002,1.059-0.476,1.06-1.06v-4.431C2.438-4.84,1.963-5.316,1.377-5.316z"/>
		</g>
	</g>
</g>
</svg>
