<svg xmlns="http://www.w3.org/2000/svg" xmlns:xlink="http://www.w3.org/1999/xlink" width="432" height="362" viewBox="0 0 432 362">
  <defs>
    <linearGradient id="linear-gradient" x1="0.32" x2="0.886" y2="0.52" gradientUnits="objectBoundingBox">
      <stop offset="0" stop-color="#b5e2f6"/>
      <stop offset="1" stop-color="#cae4ef"/>
    </linearGradient>
  </defs>
  <g id="Group_5991" data-name="Group 5991" transform="translate(10334 8361.996)">
    <g id="Group_5990" data-name="Group 5990" transform="translate(-10334 -8361.996)">
      <path id="Path_20741" data-name="Path 20741" d="M412.239,85.131a88.907,88.907,0,0,0-2.7,33.869c1.652,14.259,6.735,28.035,11.174,41.853,6.1,18.995,6.414,52.348,0,71.529-2.245,6.711-53.5,119.87-53.522,120.363,0,0,72.125.026,0,.035s-288.028,0-288.5,0c-3.382-.025-6.8-14.149-7.184-15.84-2.467-10.987-14.8-22.737-9.669-33.054,7.281-14.646,14.868-26.288,7.524-42.4-4.83-10.6-14.176-18.807-19.525-29.105a121.451,121.451,0,0,1-8.851-89.694c9.223-31.923,30.409-54.27,57.4-76.513C122.624,46.2,142.628,22.475,163.936.283H468.193s0,10.583,0,10.6c-.117,4.415-12.073,13.666-15.365,17.036-12.74,13.038-26.317,24.507-34.15,40.353a95.089,95.089,0,0,0-6.439,16.864" transform="translate(-36.193 -0.283)" opacity="0.46" fill="url(#linear-gradient)"/>
      <g id="Group_4861" data-name="Group 4861" transform="translate(4.562 114.996)">
        <g id="Group_4859" data-name="Group 4859" transform="translate(280.377)">
          <path id="Path_20742" data-name="Path 20742" d="M43.367,324.052a251.193,251.193,0,0,0,25.47-36.592l-.005,0,.1-.167c-2.1-1.693-10.062-9.022-4.877-19.245l.325-.642.608.386c6.581,4.182,7.248,10.312,6.706,14.6,1.831-3.338,3.655-6.823,5.429-10.448q1.286-2.631,2.565-5.421L79.6,266.5l.081-.178c-2.276-1.454-10.991-7.864-6.959-18.594l.254-.674.647.318c7.226,3.545,8.415,9.845,8.255,14.193,2.065-4.823,4.051-9.939,5.865-15.3-2.552-1.169-11.917-6.281-9.472-17.386l.154-.7.685.222c7.746,2.507,9.779,8.689,10.206,13.023,1.552-5.016,2.925-10.221,4.064-15.568-2.637-.99-12.328-5.422-10.682-16.665l.1-.712.7.173C91,210.5,93.6,216,94.481,220.227a148.726,148.726,0,0,0,1.936-15.912c-2.8-.51-13.078-3.152-13.47-14.482l-.024-.719.718.044c7.966.494,11.49,5.77,13.031,9.831a125.074,125.074,0,0,0-1.144-20.936c-2.687-.059-13.458-1-15.588-12.274l-.133-.707.718-.065c7.523-.68,11.762,3.489,14.01,7.146a112.683,112.683,0,0,0-3.294-12.924c-1.554-1.059-11.072-8.113-6.189-19.163l.289-.659.629.353c10.564,5.945,7.111,17.356,6.519,19.071a114.212,114.212,0,0,1,3.354,13.193c.869-4.213,3.452-9.631,10.836-11.526l.7-.179.112.711c1.766,11.326-8.069,15.832-10.593,16.793l.043.191-.089.005a125.887,125.887,0,0,1,1.166,19.652,14.046,14.046,0,0,1,12.162-9.006l.716-.071,0,.72c.03,11.464-10.376,14.426-13.015,14.993l.014.195-.176-.017a150.228,150.228,0,0,1-1.88,15.555,14.152,14.152,0,0,1,13.858-7.13l.718.058-.127.708c-2.022,11.29-12.8,12.339-15.487,12.423l-.021.2-.149-.043c-1,4.685-2.183,9.256-3.5,13.688a14,14,0,0,1,13.807-5.422l.712.109-.179.7c-2.62,10.324-12.146,11.3-15.645,11.3-.273,0-.493-.007-.688-.014l-.035.195-.142-.052c-1.648,4.866-3.435,9.537-5.3,13.968A14.035,14.035,0,0,1,98.314,257.1l.689.209-.273.665c-3.205,7.767-9.834,9.166-14.193,9.166a20,20,0,0,1-3.553-.312q-1.343,2.945-2.7,5.72c-1.672,3.416-3.386,6.7-5.114,9.868a14.1,14.1,0,0,1,15.295-2.248l.661.284-.345.631A14.043,14.043,0,0,1,75.8,288.755a20.237,20.237,0,0,1-5.659-.827l-.082.178L70,288.063a252.993,252.993,0,0,1-25.653,36.855.653.653,0,1,1-.979-.865M79.4,229.884c-1.671,9.519,6.115,13.932,8.655,15.1.273-2.782.4-11.732-8.655-15.1M83.9,210.11c-.986,9.614,7.1,13.46,9.712,14.447.075-2.8-.437-11.732-9.712-14.447m.4-19.585c.746,9.626,9.368,11.968,12.128,12.474-.455-2.744-2.64-11.462-12.128-12.474m-2.161-24.284c-.25,0-.5.005-.757.017,2.2,9.413,11.094,10.414,13.888,10.494-.818-2.6-4.056-10.511-13.132-10.511M73.7,248.885c-3.005,9.175,4.056,14.648,6.409,16.173.635-2.708,1.962-11.6-6.409-16.173M85.964,141.276c-3.521,9,3.238,14.866,5.494,16.516.82-2.673,2.718-11.419-5.494-16.516m20.33,20.688c-9.249,2.8-9.675,11.743-9.574,14.537,2.606-1.01,10.651-4.933,9.574-14.537m3.28,28.092c-9.555,1.367-11.337,10.121-11.664,12.909,2.707-.631,11.268-3.376,11.664-12.909m-.719,24.113c-9.627-.361-12.964,7.932-13.785,10.615,2.779-.137,11.691-1.307,13.785-10.615m-4.85,21.546c-9.609-1.052-13.507,7-14.511,9.613,2.8.088,11.733-.359,14.511-9.613m-6.781,22.44c-9.023-2.325-13.992,4.481-15.56,7.158-.042.1-.086.193-.129.289,2.783.46,11.682,1.169,15.69-7.447M64.9,269.3c-3.992,8.791,2.426,15,4.6,16.78.927-2.623,3.222-11.313-4.6-16.78m22.364,11.793c-9.036-3.418-14.831,3.4-16.452,5.68,2.681.791,11.448,2.588,16.452-5.68" transform="translate(-37.453 -139.408)" fill="#fff"/>
          <g id="Group_4652" data-name="Group 4652" transform="translate(0 104.385)">
            <g id="Group_3307" data-name="Group 3307">
              <path id="Path_12" data-name="Path 12" d="M55.841,427.8s13.843-46.929,27.986-66.252,14.5-49.191-8.485-50.874-32.692,32.4-38.974,57.434S30.8,427.8,30.8,427.8Z" transform="translate(-30.772 -310.611)" fill="#fff"/>
              <path id="Path_13" data-name="Path 13" d="M45.52,401.568a.457.457,0,0,1,.631.137l7.219,11.234q2.263-9.7,4.611-18.2l-7.945-14.489a.457.457,0,0,1,.8-.439l7.492,13.663c1.863-6.718,3.739-12.877,5.583-18.493l-6.868-19.021a.456.456,0,0,1,.274-.585.461.461,0,0,1,.585.273l6.474,17.93c2.911-8.758,5.728-16.158,8.269-22.259l-4.558-16.252a.457.457,0,1,1,.88-.246l4.246,15.143c6.017-14.227,10.349-20.96,10.44-21.1a.457.457,0,0,1,.765.5c-.091.139-4.444,6.911-10.479,21.226l14.571-4.065a.457.457,0,1,1,.245.88l-15.266,4.26c-2.548,6.119-5.378,13.554-8.3,22.364L80.3,366.609a.457.457,0,0,1,.4.82L64.784,375.25c-1.858,5.663-3.75,11.878-5.63,18.667l12.989-4.946a.456.456,0,1,1,.324.853l-13.612,5.183q-2.348,8.564-4.638,18.327l12.846-5.267a.457.457,0,0,1,.346.846l-13.443,5.511q-1.573,6.823-3.082,14.231a.458.458,0,0,1-.448.366.439.439,0,0,1-.09-.009.457.457,0,0,1-.357-.539q1.508-7.449,3.1-14.292l-7.7-11.982a.457.457,0,0,1,.137-.631" transform="translate(-39.467 -312.175)" fill="#98dbf9"/>
            </g>
            <g id="Group_3308" data-name="Group 3308" transform="translate(72.607 134.132) rotate(-164)">
              <path id="Path_14" data-name="Path 14" d="M52.516,0h-20.7S-7.881,42.635,1.409,61.531,26.158,79.979,34.29,62.8,52.516,0,52.516,0" transform="translate(0 0.178)" fill="#fff"/>
              <path id="Path_15" data-name="Path 15" d="M34.1,14.491a.458.458,0,0,1-.593-.255L30.482,6.659c-1.269,3.6-2.62,7.213-4.01,10.775l4.419,10.527a.457.457,0,1,1-.842.353l-4.054-9.66c-1.617,4.1-3.274,8.122-4.906,11.955l4.781,12.634a.456.456,0,0,1-.854.322L20.572,31.823c-2.229,5.2-4.388,10.007-6.305,14.169L18.913,57.65a.457.457,0,1,1-.849.339L13.739,47.136C9.9,55.424,7.162,60.843,7.1,60.974a.457.457,0,1,1-.815-.414c.067-.132,2.835-5.615,6.709-13.982L.53,48.607a.456.456,0,1,1-.147-.9l13.068-2.128c1.938-4.206,4.123-9.076,6.374-14.335L4.677,34.461a.457.457,0,1,1-.19-.894l15.777-3.349c1.655-3.886,3.334-7.964,4.971-12.127L12.582,21.024a.457.457,0,0,1-.206-.891L25.638,17.06c1.41-3.615,2.78-7.284,4.065-10.934L20.65,9.457a.457.457,0,0,1-.316-.857l9.759-3.591q.818-2.356,1.586-4.694A.456.456,0,0,1,32.112,0a.482.482,0,0,1,.142.022A.458.458,0,0,1,32.546.6q-.77,2.361-1.6,4.749l3.41,8.55a.456.456,0,0,1-.255.594" transform="translate(9.909 0)" fill="#98dbf9"/>
            </g>
          </g>
        </g>
        <g id="Group_4860" data-name="Group 4860" transform="translate(0 0)">
          <path id="Path_20742-2" data-name="Path 20742" d="M110.73,324.052A251.193,251.193,0,0,1,85.26,287.46l.005,0-.1-.167c2.1-1.693,10.062-9.022,4.877-19.245l-.325-.642-.608.386c-6.581,4.182-7.248,10.312-6.706,14.6-1.831-3.338-3.655-6.823-5.429-10.448q-1.286-2.631-2.565-5.421l.086-.023-.081-.178c2.276-1.454,10.99-7.864,6.959-18.594l-.254-.674-.647.318c-7.226,3.545-8.415,9.845-8.255,14.193-2.065-4.823-4.051-9.939-5.865-15.3,2.552-1.169,11.917-6.281,9.471-17.386l-.154-.7-.685.222c-7.746,2.507-9.779,8.689-10.206,13.023-1.552-5.015-2.925-10.221-4.064-15.568,2.636-.99,12.328-5.422,10.682-16.665l-.1-.712-.7.173C63.1,210.5,60.494,216,59.616,220.227a148.726,148.726,0,0,1-1.936-15.912c2.8-.51,13.078-3.152,13.47-14.482l.024-.719-.718.044c-7.966.494-11.49,5.77-13.031,9.831a125.076,125.076,0,0,1,1.144-20.936c2.687-.059,13.458-1,15.588-12.274l.133-.707-.718-.065c-7.523-.68-11.762,3.489-14.01,7.146a112.684,112.684,0,0,1,3.294-12.924c1.554-1.059,11.071-8.113,6.189-19.163l-.289-.659-.629.353c-10.564,5.945-7.111,17.356-6.519,19.071a114.21,114.21,0,0,0-3.354,13.193c-.869-4.213-3.452-9.631-10.836-11.526l-.7-.179-.112.711c-1.766,11.326,8.069,15.832,10.593,16.793l-.043.191.089.005a125.888,125.888,0,0,0-1.166,19.652,14.046,14.046,0,0,0-12.162-9.006l-.716-.071,0,.72c-.03,11.464,10.376,14.426,13.015,14.993l-.014.195.176-.017a150.229,150.229,0,0,0,1.88,15.555A14.152,14.152,0,0,0,44.4,212.91l-.718.058.127.708c2.022,11.29,12.8,12.339,15.487,12.423l.021.2.149-.043c1,4.685,2.183,9.256,3.5,13.688a14,14,0,0,0-13.807-5.422l-.712.109.179.7c2.619,10.324,12.146,11.3,15.645,11.3.273,0,.493-.007.688-.014L65,246.8l.142-.052c1.648,4.866,3.435,9.537,5.3,13.968A14.034,14.034,0,0,0,55.783,257.1l-.689.209.273.665c3.205,7.767,9.834,9.166,14.193,9.166a20,20,0,0,0,3.553-.312q1.343,2.945,2.7,5.72c1.672,3.416,3.385,6.7,5.114,9.868a14.1,14.1,0,0,0-15.295-2.248l-.661.284.345.631a14.043,14.043,0,0,0,12.977,7.672,20.237,20.237,0,0,0,5.659-.827l.082.178.063-.043a252.991,252.991,0,0,0,25.652,36.855.653.653,0,1,0,.979-.865M74.692,229.884c1.671,9.519-6.115,13.932-8.655,15.1-.273-2.782-.4-11.732,8.655-15.1M70.2,210.11c.986,9.614-7.1,13.46-9.712,14.447-.075-2.8.437-11.732,9.712-14.447m-.4-19.585c-.746,9.626-9.368,11.968-12.128,12.474.455-2.744,2.64-11.462,12.128-12.474m2.161-24.284c.25,0,.5.005.757.017-2.2,9.413-11.094,10.414-13.888,10.494.818-2.6,4.056-10.511,13.131-10.511m8.432,82.644c3.005,9.175-4.056,14.648-6.409,16.173-.635-2.708-1.962-11.6,6.409-16.173M68.133,141.276c3.521,9-3.238,14.866-5.494,16.516-.82-2.673-2.718-11.419,5.494-16.516M47.8,161.964c9.249,2.8,9.675,11.743,9.573,14.537-2.606-1.01-10.651-4.933-9.573-14.537m-3.28,28.092c9.555,1.367,11.337,10.121,11.664,12.909-2.707-.631-11.267-3.376-11.664-12.909m.719,24.113c9.627-.361,12.964,7.932,13.785,10.615-2.779-.137-11.691-1.307-13.785-10.615m4.849,21.546c9.609-1.052,13.507,7,14.511,9.613-2.8.088-11.733-.359-14.511-9.613m6.781,22.44c9.023-2.325,13.992,4.481,15.56,7.158.042.1.086.193.129.289-2.783.46-11.682,1.169-15.69-7.447M89.2,269.3c3.992,8.791-2.426,15-4.6,16.78-.927-2.623-3.222-11.313,4.6-16.78M66.832,281.094c9.036-3.418,14.831,3.4,16.452,5.68-2.681.791-11.448,2.588-16.452-5.68" transform="translate(-23.124 -139.408)" fill="#fff"/>
          <g id="Group_4652-2" data-name="Group 4652" transform="translate(0 104.385)">
            <g id="Group_3307-2" data-name="Group 3307" transform="translate(30.618 0)">
              <path id="Path_12-2" data-name="Path 12" d="M68.6,427.8s-13.843-46.929-27.986-66.252-14.5-49.191,8.485-50.874,32.691,32.4,38.973,57.434S93.649,427.8,93.649,427.8Z" transform="translate(-30.772 -310.611)" fill="#fff"/>
              <path id="Path_13-2" data-name="Path 13" d="M88.88,401.568a.457.457,0,0,0-.631.137l-7.219,11.234q-2.263-9.7-4.611-18.2l7.945-14.489a.457.457,0,0,0-.8-.439L76.07,393.478c-1.863-6.718-3.739-12.877-5.583-18.493l6.868-19.021a.456.456,0,0,0-.274-.585.461.461,0,0,0-.585.273l-6.474,17.93c-2.911-8.758-5.728-16.158-8.269-22.259l4.558-16.252a.457.457,0,1,0-.88-.246l-4.246,15.143c-6.017-14.227-10.348-20.96-10.44-21.1a.457.457,0,0,0-.764.5c.091.139,4.444,6.911,10.479,21.226L45.89,346.529a.457.457,0,1,0-.245.88l15.266,4.26c2.548,6.119,5.378,13.554,8.3,22.364L54.1,366.609a.457.457,0,0,0-.4.82l15.918,7.821c1.858,5.663,3.75,11.878,5.63,18.667l-12.989-4.946a.456.456,0,1,0-.324.853l13.612,5.183q2.348,8.564,4.638,18.327l-12.846-5.267a.457.457,0,0,0-.346.846l13.443,5.511q1.573,6.823,3.082,14.231a.458.458,0,0,0,.448.366.439.439,0,0,0,.09-.009.457.457,0,0,0,.357-.539q-1.508-7.449-3.1-14.292l7.7-11.982a.457.457,0,0,0-.137-.631" transform="translate(-32.03 -312.175)" fill="#98dbf9"/>
            </g>
            <g id="Group_3308-2" data-name="Group 3308" transform="translate(0 61.198) rotate(-16)">
              <path id="Path_14-2" data-name="Path 14" d="M52.515,75.695h-20.7S-7.881,33.06,1.409,14.164,26.158-4.284,34.29,12.895s18.225,62.8,18.225,62.8" transform="translate(0 0)" fill="#fff"/>
              <path id="Path_15-2" data-name="Path 15" d="M34.1,46.733a.458.458,0,0,0-.593.255l-3.022,7.576c-1.269-3.6-2.62-7.213-4.01-10.775l4.419-10.527a.457.457,0,1,0-.842-.353l-4.054,9.66c-1.617-4.1-3.274-8.122-4.906-11.955L25.869,17.98a.456.456,0,0,0-.854-.322L20.572,29.4c-2.229-5.2-4.388-10.007-6.3-14.169L18.913,3.573a.457.457,0,1,0-.849-.339L13.739,14.088C9.9,5.8,7.161.38,7.1.25a.457.457,0,1,0-.815.414c.067.132,2.835,5.614,6.709,13.982L.53,12.617a.456.456,0,1,0-.147.9l13.068,2.128c1.938,4.206,4.123,9.076,6.374,14.334L4.677,26.763a.457.457,0,1,0-.19.894l15.777,3.349c1.655,3.886,3.334,7.964,4.971,12.127L12.581,40.2a.457.457,0,0,0-.206.891l13.263,3.073c1.41,3.615,2.78,7.284,4.064,10.934L20.65,51.766a.457.457,0,0,0-.316.857l9.758,3.591q.818,2.356,1.586,4.694a.456.456,0,0,0,.434.315.482.482,0,0,0,.142-.022.458.458,0,0,0,.292-.576q-.77-2.361-1.6-4.749l3.41-8.55a.456.456,0,0,0-.255-.594" transform="translate(9.909 14.649)" fill="#98dbf9"/>
            </g>
          </g>
        </g>
      </g>
    </g>
    <path id="Path_23748" data-name="Path 23748" d="M419.006,456.253c0,9.778-83.814,17.706-187.2,17.706S44.6,466.031,44.6,456.253,128.411,438.54,231.8,438.54s187.2,7.932,187.2,17.713" transform="translate(-10374.596 -8473.955)" fill="#c7dbe4"/>
    <g id="Group_5989" data-name="Group 5989" transform="translate(-10271.655 -8276.084)">
      <path id="Path_21723" data-name="Path 21723" d="M550.055,433l6.132,1.614L582.006,457.2l-3.873,12.264H565.546Z" transform="translate(-477.417 -369.229)" fill="#8cabef"/>
      <g id="Group_5075" data-name="Group 5075" transform="translate(181.704 71.003)">
        <path id="Path_21724" data-name="Path 21724" d="M926.728,457.858,905.75,473.672,888,476.9v6.455l26.037-2.073,23.986-12.45-4.518-13.423Z" transform="translate(-888 -455.407)" fill="#abc3ef"/>
      </g>
      <g id="Group_5078" data-name="Group 5078" transform="translate(225.437 151.546)">
        <g id="Group_5076" data-name="Group 5076" transform="translate(14.566 92.67)">
          <path id="Path_21725" data-name="Path 21725" d="M1077.23,995.214l.313,3.1-5.62,3.864-3.28-2.716,2.653-3.481,5.62-3.864Z" transform="translate(-1068.643 -992.115)" fill="#211e1c"/>
        </g>
        <g id="Group_5077" data-name="Group 5077" transform="translate(0)">
          <path id="Path_21726" data-name="Path 21726" d="M1046.523,706.008l.952,9.41-8.428,32.332,7.826,51.954-5.761,1.988-15.191-50.723-2.411-14.756.088-31.239Z" transform="translate(-1023.511 -704.975)" fill="#cab5a1"/>
        </g>
      </g>
      <g id="Group_5081" data-name="Group 5081" transform="translate(204.142 155.153)">
        <g id="Group_5079" data-name="Group 5079" transform="translate(0 0)">
          <path id="Path_21727" data-name="Path 21727" d="M957.526,724.065l12.117,87.057h5.508l.991-55.8,10.025-39.168Z" transform="translate(-957.526 -716.151)" fill="#cab5a1"/>
        </g>
        <g id="Group_5080" data-name="Group 5080" transform="translate(8.659 94.283)">
          <path id="Path_21728" data-name="Path 21728" d="M993.292,1008.292v3.127l-5.956,3.127-2.978-3.127,2.978-3.127Z" transform="translate(-984.357 -1008.292)" fill="#211e1c"/>
        </g>
      </g>
      <g id="Group_5083" data-name="Group 5083" transform="translate(185.703 70.351)">
        <g id="Group_5082" data-name="Group 5082" transform="translate(0)">
          <path id="Path_21729" data-name="Path 21729" d="M962.836,525.154c-4.7-30.914-3.024-53.427-3.268-59.608a12.828,12.828,0,0,0-4.585-9.391c-1.9-.424-3.561-1.65-5.483-2.134-13.007-3.272-20.1,6.659-24.969,17.37a307.035,307.035,0,0,0-15.114,40.748c-3.576,12.21-7.16,24.53-8.659,37.2-.619,5.228-1.135,10.187,4.589,12.493,9.122,3.676,19.372,3.6,29.007,4.774,11.067,1.354,22.149,2.343,33.29,2.806C973.46,569.655,967.54,556.067,962.836,525.154Z" transform="translate(-900.394 -453.387)" fill="#8cabef"/>
        </g>
      </g>
      <g id="Group_5084" data-name="Group 5084" transform="translate(94.688)">
        <path id="Path_21730" data-name="Path 21730" d="M747.308,259.3c-39.456.779-55.226-20.57-57.307-23.673,0,0,0-.27-.123-.186-.08-.123-.184.126-.184.126-3.1,2.088-25.757,15.91-62,.3,0,0-19.15,66.959-2.527,99.061,17.754,34.288,35.887,47.155,36,47.1.085.1,21.869-4.774,51.11-30.034C739.631,328.357,747.308,259.3,747.308,259.3Z" transform="translate(-618.378 -235.402)" fill="#474ebb"/>
      </g>
      <g id="Group_5085" data-name="Group 5085" transform="translate(99.922 8.34)">
        <path id="Path_21731" data-name="Path 21731" d="M751.381,282.716c-35.776.566-50.145-18.5-52.042-21.276,0,0,0-.24-.112-.166-.073-.11-.166.112-.166.112-2.8,1.851-23.3,14.091-56.224.069,0,0-17.148,59.592-1.971,88.247,16.21,30.6,32.358,43.745,32.462,43.694.077.086,20.152-5.8,46.585-28.211C744.643,344.219,751.381,282.716,751.381,282.716Z" transform="translate(-634.596 -261.243)" fill="#525fce"/>
      </g>
      <g id="Group_5087" data-name="Group 5087" transform="translate(106.289 5.19)">
        <g id="Group_5086" data-name="Group 5086" transform="translate(0 0)">
          <path id="Path_21732" data-name="Path 21732" d="M711.238,260.748s.1-.232.174-.116c.114-.078.117.174.117.174,1.949,2.847,16.459,22.1,52.349,22.293,1.043-6.212,1.474-10.143,1.474-10.143-35.777.566-50.145-18.5-52.043-21.276,0,0,0-.24-.112-.166-.073-.11-.166.112-.166.112-2.8,1.851-23.3,14.091-56.224.069,0,0-1.093,3.8-2.483,9.941C687.646,275.014,708.359,262.649,711.238,260.748Z" transform="translate(-654.324 -251.482)" fill="#5e6add"/>
        </g>
      </g>
      <g id="Group_5088" data-name="Group 5088" transform="translate(111.088 27.057)" opacity="0.34">
        <path id="Path_21733" data-name="Path 21733" d="M761.331,336.847c-27.051.534-40.831-15.329-42.258-17.457,0,0,0-.185-.084-.127-.055-.085-.126.086-.126.086-2.125,1.432-20.7,10.923-45.549.223,0,0-10.089,45.892,1.307,67.9,12.172,23.507,24.6,32.329,24.682,32.29.058.066,14.993-3.273,35.041-20.591C753.1,382.969,761.331,336.847,761.331,336.847Z" transform="translate(-669.193 -319.24)" fill="#fff"/>
      </g>
      <g id="Group_5089" data-name="Group 5089" transform="translate(192.215 141.55)">
        <path id="Path_21734" data-name="Path 21734" d="M920.57,693.3l16.921-7.677L948.464,674l3.55,3.873-9.036,13.878-13.815,10.671Z" transform="translate(-920.57 -674)" fill="#d67086"/>
      </g>
      <g id="Group_5090" data-name="Group 5090" transform="translate(168.693 135.555)">
        <path id="Path_21735" data-name="Path 21735" d="M857.578,689.821l-9.026-15.457-.868-18.7,5.158-.239,3.08,17.626,8.4,7.041Z" transform="translate(-847.685 -655.426)" fill="#d67086"/>
      </g>
      <g id="Group_5091" data-name="Group 5091" transform="translate(176.608 213.253)">
        <path id="Path_21736" data-name="Path 21736" d="M872.21,898.551v35.965h5.428l3.393-21.715,3.054-16.625Z" transform="translate(-872.21 -896.176)" fill="#8cabef"/>
      </g>
      <g id="Group_5092" data-name="Group 5092" transform="translate(188.483 211.896)">
        <path id="Path_21737" data-name="Path 21737" d="M909.006,891.971l2.036,15.608,2.714,25.107,5.429-.34V913.007l2.714-19.679Z" transform="translate(-909.006 -891.971)" fill="#8cabef"/>
      </g>
      <g id="Group_5093" data-name="Group 5093" transform="translate(168.625 159.44)">
        <path id="Path_21738" data-name="Path 21738" d="M864.788,729.468s-5.768-1.018-8.143,7.8-8.822,34.608-9.161,48.179,8.482,4.75,19,6.446,19.17,1.866,19.17-4.241S889.387,729.638,864.788,729.468Z" transform="translate(-847.475 -729.432)" fill="#d67086"/>
      </g>
      <g id="Group_5097" data-name="Group 5097" transform="translate(178.763 132.373)">
        <g id="Group_5095" data-name="Group 5095" transform="translate(1.126 5.312)">
          <g id="Group_5094" data-name="Group 5094">
            <path id="Path_21739" data-name="Path 21739" d="M885.115,666.281c4.8-8.472,15.568-3.051,16.305,5.389.419,4.8-2.793,12.8-8.446,12.4-.353.775-.97,2.242-1.765,2.57-.861.354-2.76-.912-3.514-1.381a1.335,1.335,0,0,1-.532-.5,2.5,2.5,0,0,1,.224-1.457,7.943,7.943,0,0,1-1.718-.993,9.257,9.257,0,0,1-3.285-7.771A18.581,18.581,0,0,1,885.115,666.281Z" transform="translate(-882.377 -662.025)" fill="#fcd8b9"/>
          </g>
        </g>
        <g id="Group_5096" data-name="Group 5096" transform="translate(0)">
          <path id="Path_21740" data-name="Path 21740" d="M889.457,652.933s7.687,1.922,7.687,5.124c0,4.815.32,8.046,0,10.91l5.445-3.222,3.2-8.968s-.64-7.367-4.484-8.648a104.477,104.477,0,0,0-11.851-2.562l-6.086,1.922-4.484-.32,1.55,13.452S882.41,651.011,889.457,652.933Z" transform="translate(-878.887 -645.566)" fill="#292949"/>
        </g>
      </g>
      <g id="Group_5098" data-name="Group 5098" transform="translate(173.554 251.593)">
        <path id="Path_21741" data-name="Path 21741" d="M865.8,1014.974l-3.054,3.054,1.357,2.036,6.107-2.036v-3.054Z" transform="translate(-862.748 -1014.974)" fill="#2a2c2d"/>
      </g>
      <g id="Group_5099" data-name="Group 5099" transform="translate(194.138 252.321)">
        <path id="Path_21742" data-name="Path 21742" d="M926.527,1017.462l1.131,4.467,3.732,1.357,2.036-1.018-3.16-5.04Z" transform="translate(-926.527 -1017.229)" fill="#2a2c2d"/>
      </g>
      <g id="Group_5100" data-name="Group 5100" transform="translate(220.109 135.095)">
        <path id="Path_21743" data-name="Path 21743" d="M1007,660.455l.645-3.873h1.291l2.582-2.582.968,1.936-.646,4.841-2.29,2.2Z" transform="translate(-1007 -654)" fill="#fcd8b9"/>
      </g>
      <g id="Group_5101" data-name="Group 5101" transform="translate(167.503 126.704)">
        <path id="Path_21744" data-name="Path 21744" d="M849.27,636.9l2.8-4.383-1.291-1.614-1.614,1.614L847.55,628,844,629.614l1.825,7.447Z" transform="translate(-844 -628)" fill="#fcd8b9"/>
      </g>
      <g id="Group_5102" data-name="Group 5102" transform="translate(181.122 76.892)">
        <path id="Path_21745" data-name="Path 21745" d="M950.035,486.622l-30.014,22.322L886.2,507.071l.194-6.83,28.931-3.235,22.844-19.591,12.23-3.761Z" transform="translate(-886.198 -473.654)" fill="#abc3ef"/>
      </g>
      <g id="Group_5103" data-name="Group 5103" transform="translate(170.063 103.437)">
        <path id="Path_21746" data-name="Path 21746" d="M863.23,556.113l-7.615-.206-3.683,3.755,1.036,2.044,4.308.8,5.77-1.631Z" transform="translate(-851.932 -555.907)" fill="#fcd8b9"/>
      </g>
      <g id="Group_5108" data-name="Group 5108" transform="translate(218.385 35.95)">
        <g id="Group_5104" data-name="Group 5104" transform="translate(0 5.243)">
          <path id="Path_21747" data-name="Path 21747" d="M1010.431,363.042s-4.169,1.973-5.131,12.814a66.3,66.3,0,0,1-3.642,17.445s3.182,2.522,6.2,1.539,4.073-1.065,4.149-5.548,3.141-25.187,3.141-25.187Z" transform="translate(-1001.659 -363.042)" fill="#292949"/>
        </g>
        <g id="Group_5105" data-name="Group 5105" transform="translate(5.249 3.338)">
          <path id="Path_21748" data-name="Path 21748" d="M1029.164,364.7a10.883,10.883,0,0,0-9.712,6.98,9.591,9.591,0,0,1,5.784-14.547,11.089,11.089,0,0,1,3.615,7.563Z" transform="translate(-1017.922 -357.138)" fill="#292949"/>
        </g>
        <g id="Group_5106" data-name="Group 5106" transform="translate(4.75 8.585)">
          <path id="Path_21749" data-name="Path 21749" d="M1018.739,379.03c4.736-10.315,17.772-5.09,19.468,4.637.964,5.531-1.97,15.144-8.574,15.235-.333.935-.9,2.7-1.794,3.159-.964.5-3.3-.784-4.217-1.254a1.553,1.553,0,0,1-.667-.525,2.909,2.909,0,0,1,.116-1.714,9.244,9.244,0,0,1-2.093-.982,10.788,10.788,0,0,1-4.587-8.7A21.658,21.658,0,0,1,1018.739,379.03Z" transform="translate(-1016.378 -373.396)" fill="#fcd8b9"/>
        </g>
        <g id="Group_5107" data-name="Group 5107" transform="translate(12.3 0)">
          <path id="Path_21750" data-name="Path 21750" d="M1040.3,350.17s-2.763,5.546,4.333,9.04,10.508,10.574,7.674,16.448-9.511,9.063-6.982,11.422,13.7,3.4,13.7,3.4,11.95-20.229,5.495-31.873S1045.424,343.479,1040.3,350.17Z" transform="translate(-1039.77 -346.795)" fill="#292949"/>
        </g>
      </g>
      <g id="Group_5109" data-name="Group 5109" transform="translate(36.654 25.358)">
        <path id="Path_21751" data-name="Path 21751" d="M449.8,314.9a7.169,7.169,0,0,0-4.452,2.331c-1.644,2.057-6.847,11.38-6.789,18.617s-1.06,16.229,13.253,22.5c7.129,2.326,7.29-4.061,12.992-4.448s10.628,1.6,9.847-7.261-6.375-10.861-9.478-20.756S457.184,311.994,449.8,314.9Z" transform="translate(-438.556 -313.974)" fill="#d67086"/>
      </g>
      <g id="Group_5110" data-name="Group 5110" transform="translate(23.583 26.857)">
        <path id="Path_21752" data-name="Path 21752" d="M420.312,318.619l-12.681,4.29-9.574,1.39.143,4.154,9.341,1.309,10.043-1.977Z" transform="translate(-398.057 -318.619)" fill="#d67086"/>
      </g>
      <g id="Group_5111" data-name="Group 5111" transform="translate(57.679 25.736)">
        <path id="Path_21753" data-name="Path 21753" d="M503.7,315.146l9.248,3.351,7.76-2.745,1.2,2.6-7.319,5.308-7.322.5Z" transform="translate(-503.705 -315.146)" fill="#d67086"/>
      </g>
      <g id="Group_5115" data-name="Group 5115" transform="translate(37.049 0.937)">
        <g id="Group_5112" data-name="Group 5112" transform="translate(16.996 4.022)">
          <path id="Path_21754" data-name="Path 21754" d="M493.726,253.72s5.791,3.817,5.264,9.582c0,0,3.8-3.045,2.17-7.285s-2.713-5.911-6.727-5.015S493.726,253.72,493.726,253.72Z" transform="translate(-492.444 -250.767)" fill="#292949"/>
        </g>
        <g id="Group_5113" data-name="Group 5113" transform="translate(6.874 6.804)">
          <path id="Path_21755" data-name="Path 21755" d="M477.69,265.927c-.7-8.588-11.359-8.242-15.092-1.742-2.123,3.7-2.523,11.316,2.165,13.094-.005.753-.056,2.16.46,2.719.559.6,2.554.3,3.334.2a1.18,1.18,0,0,0,.612-.2,2.209,2.209,0,0,0,.362-1.253,7.015,7.015,0,0,0,1.748-.158,8.191,8.191,0,0,0,5.528-5.015A16.44,16.44,0,0,0,477.69,265.927Z" transform="translate(-461.082 -259.386)" fill="#fcd8b9"/>
        </g>
        <g id="Group_5114" data-name="Group 5114" transform="translate(0 0)">
          <path id="Path_21756" data-name="Path 21756" d="M459.412,247.541c-2.984,3.132-7.719,3.333-10.561,6.374,0,0-1.859,1.989-1.382,6.729a7.792,7.792,0,0,1-7.139-4.737c-2.176-4.946,2.834-14.695,2.834-14.695a17.79,17.79,0,0,1,13.578-2.46c2.614.614,4.968,2.583,4.4,5.561A6.385,6.385,0,0,1,459.412,247.541Z" transform="translate(-439.782 -238.304)" fill="#292949"/>
        </g>
      </g>
      <g id="Group_5116" data-name="Group 5116" transform="translate(43.022 25.736)">
        <path id="Path_21757" data-name="Path 21757" d="M461,316.373s-.584,4.342,1.716,4.834,7.6-.476,8.518-1.272c1.267-1.1,0-4.3,0-4.3l1.708-.491s7.894,16.119,1.535,18.539-14.408,3.106-15.725-1.986.565-14.632.565-14.632Z" transform="translate(-458.288 -315.146)" fill="#d67086"/>
      </g>
      <g id="Group_5117" data-name="Group 5117" transform="translate(18.702 31.882)">
        <path id="Path_21758" data-name="Path 21758" d="M387.829,335.293l-4.686-1.1-.211.986,3.193,2.744-.8.517.587.469,2.021-.518Z" transform="translate(-382.933 -334.19)" fill="#fcd8b9"/>
      </g>
      <g id="Group_5118" data-name="Group 5118" transform="translate(74.801 25.186)">
        <path id="Path_21759" data-name="Path 21759" d="M556.757,314.935l1.207-1.492,2.37.163.635,1.853-1.078,1.831-2.051-.221Z" transform="translate(-556.757 -313.443)" fill="#fcd8b9"/>
      </g>
      <g id="Group_5119" data-name="Group 5119" transform="translate(62.993 129.944)">
        <path id="Path_21760" data-name="Path 21760" d="M550.767,642.174l1.17,49.936-8.648,64.505-7.237.086-5.275-59.363-10.608-59.3Z" transform="translate(-520.17 -638.039)" fill="#353a85"/>
      </g>
      <g id="Group_5120" data-name="Group 5120" transform="translate(78.908 247.651)">
        <path id="Path_21761" data-name="Path 21761" d="M569.482,1002.852l.046,3.913,7.872,3.82,3.866-3.959-3.959-3.866Z" transform="translate(-569.482 -1002.76)" fill="#292949"/>
      </g>
      <g id="Group_5121" data-name="Group 5121" transform="translate(47.437 249.629)">
        <path id="Path_21762" data-name="Path 21762" d="M478.814,1008.889l6.223,5.289-1.556,3.111L471.97,1014.8v-5.911Z" transform="translate(-471.97 -1008.889)" fill="#292949"/>
      </g>
      <g id="Group_5122" data-name="Group 5122" transform="translate(41.261 147.027)">
        <path id="Path_21763" data-name="Path 21763" d="M480.067,697.667l-5.172,48.4-6.825,48.246-9.734-.463.355-50.05-5.859-46.421,13.76-6.41Z" transform="translate(-452.832 -690.971)" fill="#353a85"/>
      </g>
      <g id="Group_5123" data-name="Group 5123" transform="translate(33.532 64.577)">
        <path id="Path_21764" data-name="Path 21764" d="M469.585,435.659s12.02,7.949,19.659,33.726c7.779,26.249,6.63,60.975,6.63,60.975s-68.369,11.571-66.953.182c0,0-2.259-91.979,28.078-94.238C458.377,436.2,468.84,435.087,469.585,435.659Z" transform="translate(-428.882 -435.497)" fill="#8cabef"/>
      </g>
      <g id="Group_5124" data-name="Group 5124" transform="translate(62.6 66.676)">
        <path id="Path_21765" data-name="Path 21765" d="M527.681,442.645c5.158,12.576,9.025,24.436,14.324,36.954,3.14,7.417,3.173,15.164,3.621,23.064q.668,11.782,1.336,23.563.282,4.978.565,9.955l-28.575,3c1.646-9.514,3.527-18.989,5-28.532,1.356-8.8,3.435-18.685,1.816-27.558-.788-4.319-1.64-8.636-2.449-12.954-1.485-7.923-2.149-16.031-3.7-23.942-.109-.553,1.115-3.642,1.291-4.2Z" transform="translate(-518.952 -442)" fill="#fff"/>
      </g>
      <g id="Group_5127" data-name="Group 5127" transform="translate(51.846 64.245)">
        <g id="Group_5125" data-name="Group 5125" transform="translate(0.246 0)">
          <path id="Path_21766" data-name="Path 21766" d="M497.613,437.013l.017,1.486-7.791,18.293-3.444-1.14,2.016-17.805,5.359-3.042A2.573,2.573,0,0,1,497.613,437.013Z" transform="translate(-486.395 -434.466)" fill="#fcd8b9"/>
        </g>
        <g id="Group_5126" data-name="Group 5126" transform="translate(0 20.845)">
          <path id="Path_21767" data-name="Path 21767" d="M489.776,500.327l1.861,3.349-1.454.841-4.551-3.034.3-2.427Z" transform="translate(-485.631 -499.057)" fill="#292949"/>
        </g>
      </g>
      <g id="Group_5130" data-name="Group 5130" transform="translate(71.239 59.985)">
        <g id="Group_5128" data-name="Group 5128" transform="translate(0 0)">
          <path id="Path_21768" data-name="Path 21768" d="M552.63,422.289l.9,1.186,4.586,19.347-3.448,1.127-8.944-15.528,2.508-5.628A2.572,2.572,0,0,1,552.63,422.289Z" transform="translate(-545.72 -421.267)" fill="#e0c5a9"/>
        </g>
        <g id="Group_5129" data-name="Group 5129" transform="translate(8.787 21.439)">
          <path id="Path_21769" data-name="Path 21769" d="M576.794,487.7l3.485,1.591-.671,1.54-5.464.259-1.2-2.134Z" transform="translate(-572.948 -487.697)" fill="#292949"/>
        </g>
      </g>
      <g id="Group_5133" data-name="Group 5133" transform="translate(53.563 31.422)">
        <g id="Group_5131" data-name="Group 5131" transform="translate(7.509 12.202)">
          <path id="Path_21770" data-name="Path 21770" d="M524.356,394.749l-6.681-1.075a33.806,33.806,0,0,1,.691-5.346c-1.827-.77-3.925-1.886-4.132-3.858a5.585,5.585,0,0,1,.223-1.851l1.78-7.54a6.824,6.824,0,0,1,.945-2.487,5.728,5.728,0,0,1,4.138-1.922,13.942,13.942,0,0,1,11.1,3.43,6.107,6.107,0,0,1,1.751,2.626,8.282,8.282,0,0,1-.571,4.811l-1.419,4.317c-.544,1.655-1.3,3.529-2.957,4.061-.881.283-1.891.123-2.7.572C525.1,391.275,525.159,393.329,524.356,394.749Z" transform="translate(-514.217 -370.574)" fill="#fcd8b9"/>
        </g>
        <g id="Group_5132" data-name="Group 5132" transform="translate(0 0)">
          <path id="Path_21771" data-name="Path 21771" d="M532.066,345.113a21.668,21.668,0,0,0-.233-5.126c-.428-2.766-3.571-4.192-6.346-4.559-5.993-.792-11.632-3.882-17.641-2.141-3.434,1-7.965,1-11.111,2.512a8.995,8.995,0,0,0-3.259,2.846,13.552,13.552,0,0,0-.907,14.3,19.387,19.387,0,0,0,1.944,2.781c1.481,1.816,3.249,4.056,5.392,4.826.171-1.949-1.233-8.211.363-9.719,2.533-2.394,7.858-1.181,10.77-.377,3.177.878,5.908,3.331,9.069,4.012,2.275.49,5.274-.458,7.3-1.526C530.58,351.271,531.792,348.255,532.066,345.113Z" transform="translate(-490.95 -332.764)" fill="#292949"/>
        </g>
      </g>
      <g id="Group_5134" data-name="Group 5134" transform="translate(18.724 67.644)">
        <path id="Path_21772" data-name="Path 21772" d="M418.5,445,383,466.946l7.423,11.941,21.946-10.327Z" transform="translate(-383 -445)" fill="#8cabef"/>
      </g>
      <g id="Group_5135" data-name="Group 5135" transform="translate(18.672 58.44)">
        <path id="Path_21773" data-name="Path 21773" d="M407,416.48l-24.156,31.156,7.474,12.013L398.7,455.7l13.677-35.313Z" transform="translate(-382.839 -416.48)" fill="#abc3ef"/>
      </g>
      <g id="Group_5136" data-name="Group 5136" transform="translate(43.894 53.767)">
        <path id="Path_21774" data-name="Path 21774" d="M460.991,407.446l3.23-4.155L471.967,402l1.291,3.227-3.873,3.227-4.9,1.523Z" transform="translate(-460.991 -402)" fill="#fcd8b9"/>
      </g>
      <g id="Group_5147" data-name="Group 5147" transform="translate(0 184.934)">
        <g id="Group_5137" data-name="Group 5137" transform="translate(35.065 17.362)">
          <path id="Path_21775" data-name="Path 21775" d="M437.91,866.926s2.291,1.929,3.883-1.82,3.254-3.212,4.175-1.888-1.053,1.233-2.108,4.177c-1.681,4.693-3.924,8.286-4.732,8.78s-3.266,1.685-3.315,3.537-2.388-5.6-2.164-5.959Z" transform="translate(-433.633 -862.224)" fill="#d67086"/>
        </g>
        <g id="Group_5138" data-name="Group 5138" transform="translate(33.844 25.148)">
          <path id="Path_21776" data-name="Path 21776" d="M436.44,888.726s1.532,2.574,4.265-.447,4.126-1.969,4.563-.416-1.4.82-3.361,3.255c-3.126,3.882-6.423,6.542-7.348,6.744s-3.638.522-4.291,2.256-.421-6.073-.091-6.339Z" transform="translate(-429.851 -886.348)" fill="#ebebeb"/>
        </g>
        <g id="Group_5139" data-name="Group 5139" transform="translate(15.196 44.327)">
          <path id="Path_21777" data-name="Path 21777" d="M378.536,945.777s3.087,8.569,1.577,10.906-5.682,10.081-5.05,11.393.307,1.905-.814,1.484-2.671-1.465-2.03-4.4,1.932-6.333.965-8.794,1.192-9.707,1.192-9.707Z" transform="translate(-372.069 -945.777)" fill="#d67086"/>
        </g>
        <g id="Group_5140" data-name="Group 5140" transform="translate(5.635 13.901)">
          <path id="Path_21778" data-name="Path 21778" d="M361.6,851.521s-3.188-.492-2.962,3.145-3.227,9.969-8.9,14.664c-5.549,4.589-10.742,11.7-4.308,19.746s18.641-.313,21.266-4.917,9.941-7.525,11.441-14.329-2.3-9.922-2.476-12.032S361.6,851.521,361.6,851.521Z" transform="translate(-342.445 -851.499)" fill="#ebebeb"/>
        </g>
        <g id="Group_5141" data-name="Group 5141" transform="translate(8.869 44.021)">
          <path id="Path_21779" data-name="Path 21779" d="M365.368,951.776s1.643,4.384-1.658,7.5-6.339,4.533-7.528,6.8,1.414,3.039-.568,3.036-3.311-.308-3.135-2.766,4.2-4.594,3.654-8.036-3.2-4.148-3.506-6.686,7.528-6.8,7.528-6.8l5.689,7.122Z" transform="translate(-352.463 -944.828)" fill="#ebebeb"/>
        </g>
        <g id="Group_5142" data-name="Group 5142" transform="translate(0 38.018)">
          <path id="Path_21780" data-name="Path 21780" d="M331.886,935.769a4.31,4.31,0,0,1-5.237-.909c-2.19-2.355-2.307-5.713.163-7.779s4.336.175,4.114.937-2.885,3.7-.134,6C332.119,934.859,331.886,935.769,331.886,935.769Z" transform="translate(-324.984 -926.227)" fill="#d67086"/>
        </g>
        <g id="Group_5143" data-name="Group 5143" transform="translate(23.338 13.774)">
          <path id="Path_21781" data-name="Path 21781" d="M413.533,856.184l-.868,1.111s-4.917,3.038-12.659-2.315c-3.277-3.043-2.663-3.84-2.663-3.84l1.432-.031S403.224,858.4,413.533,856.184Z" transform="translate(-397.297 -851.108)" fill="#474ebb"/>
        </g>
        <g id="Group_5144" data-name="Group 5144" transform="translate(29.894)">
          <path id="Path_21782" data-name="Path 21782" d="M417.61,809.834a2.541,2.541,0,0,1,1.841-1.35c1.507-.406,4.419,1.51,5.025,1.574s2.034.066.806.908S418.647,811.208,417.61,809.834Z" transform="translate(-417.61 -808.427)" fill="#d67086"/>
        </g>
        <g id="Group_5145" data-name="Group 5145" transform="translate(23.53 0.98)">
          <path id="Path_21783" data-name="Path 21783" d="M399.843,816.483s1.6-3.89,5.138-4.787a8.712,8.712,0,0,1,6.094.841c.969.485,1.8,1.154,2.734,1.694.617.358,1.294.424,1.908.829a6.094,6.094,0,0,1,2.509,4.8c-.044,1.742,2.987,6.079-2.192,8.595s-13.231,1-15.471-1.462S396.233,822,399.843,816.483Z" transform="translate(-397.891 -811.464)" fill="#ebebeb"/>
        </g>
        <g id="Group_5146" data-name="Group 5146" transform="translate(21.404 6.014)">
          <path id="Path_21784" data-name="Path 21784" d="M396.371,827.231a3.61,3.61,0,0,0-3.059.421c-1.193,1.006-2.328,1.026-1.923,2.533s1.081,5.356,3.176,6.075.9-2.287,1.563-3.587S397.473,827.451,396.371,827.231Z" transform="translate(-391.305 -827.062)" fill="#d67086"/>
        </g>
      </g>
    </g>
  </g>
</svg>
