<svg xmlns="http://www.w3.org/2000/svg" width="161.967" height="164.333" viewBox="0 0 161.967 164.333">
  <g id="Polygon_4" data-name="Polygon 4" transform="matrix(-0.629, 0.777, -0.777, -0.629, 161.967, 67.967)" fill="none" opacity="0.1">
    <path d="M49.858,21.15a14,14,0,0,1,24.283,0l37.82,65.88A14,14,0,0,1,99.82,108H24.18A14,14,0,0,1,12.038,87.03Z" stroke="none"/>
    <path d="M 61.99998092651367 18.11994171142578 C 60.27640151977539 18.11994171142578 58.58512878417969 18.55352020263672 57.10901641845703 19.37380981445313 C 55.53169250488281 20.25033569335938 54.25938415527344 21.51788330078125 53.32745361328125 23.14126586914063 L 15.50743865966797 89.02131652832031 C 14.579345703125 90.63799285888672 14.12632751464844 92.36919403076172 14.16100311279297 94.16680908203125 C 14.19343566894531 95.84954071044922 14.66539764404297 97.52452087402344 15.52587127685547 99.01065063476563 C 16.38632965087891 100.4967956542969 17.60398101806641 101.7400131225586 19.04716491699219 102.6059188842773 C 20.58890533447266 103.5309600830078 22.31583404541016 103.9999923706055 24.17996215820313 103.9999923706055 L 99.82003784179688 103.9999923706055 C 101.6841659545898 103.9999923706055 103.4110870361328 103.5309600830078 104.9528198242188 102.6059188842773 C 106.3960189819336 101.7400131225586 107.6136703491211 100.4967956542969 108.4741287231445 99.01065063476563 C 109.334602355957 97.52450561523438 109.8065643310547 95.84954071044922 109.838996887207 94.16680908203125 C 109.8736572265625 92.36919403076172 109.420654296875 90.63799285888672 108.492546081543 89.02131652832031 L 70.67250823974609 23.14126586914063 C 69.74058532714844 21.51788330078125 68.46827697753906 20.25033569335938 66.89096069335938 19.37380981445313 C 65.41484069824219 18.55352020263672 63.72356414794922 18.11994171142578 61.99998092651367 18.11994171142578 M 61.9999885559082 14.11993408203125 C 66.72554016113281 14.11993408203125 71.45109558105469 16.46321868896484 74.14152526855469 21.14979553222656 L 111.9615631103516 87.02984619140625 C 117.319580078125 96.3631591796875 110.5819244384766 107.9999923706055 99.82003784179688 107.9999923706055 L 24.17996215820313 107.9999923706055 C 13.41805267333984 107.9999923706055 6.680419921875 96.3631591796875 12.03842163085938 87.02984619140625 L 49.85843658447266 21.14979553222656 C 52.54888153076172 16.46321868896484 57.27443695068359 14.11993408203125 61.9999885559082 14.11993408203125 Z" stroke="none" fill="#98a0a2"/>
  </g>
</svg>
