<svg id="backlink" xmlns="http://www.w3.org/2000/svg" xmlns:xlink="http://www.w3.org/1999/xlink" width="30" height="30" viewBox="0 0 30 30">
  <defs>
    <linearGradient id="linear-gradient" x1="0.5" x2="0.5" y2="1" gradientUnits="objectBoundingBox">
      <stop offset="0.13" stop-color="#00a9ed"/>
      <stop offset="1" stop-color="#65106b"/>
    </linearGradient>
  </defs>
  <path id="Path_16069" data-name="Path 16069" d="M144,240h2.344v.938H144Zm0,0" transform="translate(-135.562 -225.937)" fill="url(#linear-gradient)"/>
  <path id="Path_16070" data-name="Path 16070" d="M32,240h.938v.938H32Zm0,0" transform="translate(-30.125 -225.937)" fill="url(#linear-gradient)"/>
  <path id="Path_16071" data-name="Path 16071" d="M64,240h.938v.938H64Zm0,0" transform="translate(-60.25 -225.937)" fill="url(#linear-gradient)"/>
  <path id="Path_16072" data-name="Path 16072" d="M96,240h.938v.938H96Zm0,0" transform="translate(-90.375 -225.937)" fill="url(#linear-gradient)"/>
  <path id="Path_16073" data-name="Path 16073" d="M304,32h10.313v.938H304Zm0,0" transform="translate(-286.187 -30.125)" fill="url(#linear-gradient)"/>
  <path id="Path_16074" data-name="Path 16074" d="M192,32h.938v.938H192Zm0,0" transform="translate(-180.75 -30.125)" fill="url(#linear-gradient)"/>
  <path id="Path_16075" data-name="Path 16075" d="M224,32h.938v.938H224Zm0,0" transform="translate(-210.875 -30.125)" fill="url(#linear-gradient)"/>
  <path id="Path_16076" data-name="Path 16076" d="M256,32h.938v.938H256Zm0,0" transform="translate(-241 -30.125)" fill="url(#linear-gradient)"/>
  <path id="Path_16077" data-name="Path 16077" d="M48,344h5.625v.938H48Zm0,0" transform="translate(-45.187 -323.843)" fill="url(#linear-gradient)"/>
  <path id="Path_16078" data-name="Path 16078" d="M208,112h8.2v.938H208Zm0,0" transform="translate(-195.812 -105.437)" fill="url(#linear-gradient)"/>
  <path id="Path_16079" data-name="Path 16079" d="M208,160h5.391v.938H208Zm0,0" transform="translate(-195.812 -150.625)" fill="url(#linear-gradient)"/>
  <path id="Path_16080" data-name="Path 16080" d="M48,392h7.266v.938H48Zm0,0" transform="translate(-45.187 -369.031)" fill="url(#linear-gradient)"/>
  <path id="Path_16081" data-name="Path 16081" d="M48,440H63v.938H48Zm0,0" transform="translate(-45.187 -414.218)" fill="url(#linear-gradient)"/>
  <path id="Path_16082" data-name="Path 16082" d="M9.375,0V12.188H0V30H20.626V17.813H30V0ZM.938,13.125H16.966a4.221,4.221,0,0,0,.207.526l-1,1a4.219,4.219,0,0,0-4.8.824l-.461.459H.938ZM21.644,11.17a1.446,1.446,0,0,0-1.786-.164,1.382,1.382,0,0,1,.129-.168l1.988-1.989a1.407,1.407,0,1,1,1.99,1.99l-1.989,1.988a1.363,1.363,0,0,1-.159.122,1.406,1.406,0,0,0-.173-1.778Zm-1.325.663a.469.469,0,1,1,.662.663l-5.966,5.966a.478.478,0,0,1-.662,0,.468.468,0,0,1,0-.662Zm-5.636,7.7a1.4,1.4,0,0,0,.787-.24,1.323,1.323,0,0,1-.121.159L13.36,21.441a1.406,1.406,0,0,1-1.989-1.989l1.989-1.989a1.434,1.434,0,0,1,.159-.122,1.4,1.4,0,0,0,1.165,2.192ZM12.694,16.8,10.7,18.789A2.344,2.344,0,0,0,14.02,22.1l1.989-1.989a2.351,2.351,0,0,0,.661-1.987l.768-.77a3.277,3.277,0,0,1-.767,3.419l-1.989,1.989a3.282,3.282,0,1,1-4.641-4.641l1.989-1.989a3.278,3.278,0,0,1,3.421-.766l-.77.77A2.353,2.353,0,0,0,12.694,16.8Zm6.994,12.259H.938V16.876H9.972l-.592.593a4.219,4.219,0,1,0,5.966,5.966l1.989-1.989a4.219,4.219,0,0,0,.824-4.8l1.009-1.009a4.249,4.249,0,0,0,.52.209Zm.194-14.143.769-.769a2.416,2.416,0,0,0,.328.024,2.35,2.35,0,0,0,1.661-.686L24.629,11.5a2.344,2.344,0,0,0-3.315-3.315l-1.989,1.989a2.353,2.353,0,0,0-.661,1.987l-.772.77a3.276,3.276,0,0,1,.768-3.422l1.988-1.987a3.282,3.282,0,1,1,4.641,4.641L23.3,14.153a3.278,3.278,0,0,1-3.419.768Zm9.182,1.955H20.626v-.844c.118.01.234.023.352.023a4.215,4.215,0,0,0,2.986-1.238l1.989-1.988a4.219,4.219,0,0,0-5.966-5.968L18,8.85a4.215,4.215,0,0,0-1.219,3.338H10.313v-7.5h18.75Zm0-13.125H10.313V.938h18.75Zm0,0" fill="url(#linear-gradient)"/>
</svg>
