<svg xmlns="http://www.w3.org/2000/svg" width="944.682" height="368.892" viewBox="0 0 944.682 368.892">
  <g id="Group_1900" data-name="Group 1900" transform="translate(-109.518 -103.913)">
    <g id="Group_1894" data-name="Group 1894" transform="matrix(1, 0.017, -0.017, 1, 9717.069, -4892.541)" opacity="0.1">
      <g id="Group_1421" data-name="Group 1421" transform="translate(-9515.577 5319.938)">
        <g id="Polygon_2" data-name="Polygon 2" transform="translate(37.958 211.657) rotate(-102)" fill="none">
          <path d="M79.141,21.164a14,14,0,0,1,24.286,0l67.111,116.965A14,14,0,0,1,158.4,159.1H24.174A14,14,0,0,1,12.03,138.129Z" stroke="none"/>
          <path d="M 91.28450012207031 18.131103515625 C 89.560546875 18.131103515625 87.86894989013672 18.56484985351563 86.39260101318359 19.38546752929688 C 84.81502532958984 20.26234436035156 83.54264831542969 21.53042602539063 82.61084747314453 23.1544189453125 L 15.49992370605469 140.1192016601563 C 14.57232666015625 141.7358703613281 14.11970520019531 143.4669494628906 14.15467834472656 145.2643737792969 C 14.1873779296875 146.9468994140625 14.65953063964844 148.6216430664063 15.52008056640625 150.1075286865234 C 16.38059997558594 151.5933685302734 17.59825134277344 152.8363800048828 19.04135131835938 153.7021026611328 C 20.58297729492188 154.626953125 22.3096923828125 155.0958709716797 24.17359924316406 155.0958709716797 L 158.3954467773438 155.0958709716797 C 160.2593536376953 155.0958709716797 161.9860687255859 154.626953125 163.5276947021484 153.7021026611328 C 164.9707946777344 152.8363800048828 166.1884460449219 151.5933685302734 167.0489807128906 150.1075286865234 C 167.9095153808594 148.6216430664063 168.3816680908203 146.9468994140625 168.4143676757813 145.2643737792969 C 168.4493408203125 143.4669494628906 167.9967193603516 141.7358703613281 167.0691223144531 140.1192016601563 L 99.95817565917969 23.1544189453125 C 99.02637481689453 21.53042602539063 97.75399780273438 20.26234436035156 96.17642211914063 19.38546752929688 C 94.7000732421875 18.56484985351563 93.00847625732422 18.131103515625 91.28450012207031 18.131103515625 M 91.28450775146484 14.131103515625 C 96.01103973388672 14.131103515625 100.7375717163086 16.47532653808594 103.4276504516602 21.16374206542969 L 170.5386047363281 138.1285247802734 C 175.8937530517578 147.4617919921875 169.1559295654297 159.0958709716797 158.3954467773438 159.0958709716797 L 24.17359924316406 159.0958709716797 C 13.41311645507813 159.0958709716797 6.67529296875 147.4617919921875 12.03044128417969 138.1285247802734 L 79.14137268066406 21.16374206542969 C 81.83145141601563 16.47532653808594 86.55797576904297 14.131103515625 91.28450775146484 14.131103515625 Z" stroke="none" fill="#fff"/>
        </g>
        <g id="Polygon_6" data-name="Polygon 6" transform="translate(75.853 169.246) rotate(-102)" fill="none">
          <path d="M37.377,21.471a14,14,0,0,1,24.355,0L87.251,66.466A14,14,0,0,1,75.074,87.372H24.035A14,14,0,0,1,11.858,66.466Z" stroke="none"/>
          <path d="M 49.5544548034668 18.37799072265625 C 47.82195663452148 18.37799072265625 46.12328338623047 18.81547546386719 44.64208221435547 19.64315032958984 C 43.0587272644043 20.52789306640625 41.78493881225586 21.80687713623047 40.85608291625977 23.44458770751953 L 15.3369140625 68.43891906738281 C 14.41993713378906 70.05567932128906 13.97596740722656 71.78449249267578 14.01731109619141 73.57734680175781 C 14.05602264404297 75.25590515136719 14.53216552734375 76.92546081542969 15.39425659179688 78.40550231933594 C 16.25635528564453 79.88555908203125 17.47369384765625 81.12337493896484 18.9146728515625 81.98516082763672 C 20.45376586914063 82.90560913085938 22.17658233642578 83.372314453125 24.03527069091797 83.372314453125 L 75.07362365722656 83.372314453125 C 76.93231201171875 83.372314453125 78.65512847900391 82.90560913085938 80.19422912597656 81.98516082763672 C 81.63520050048828 81.12337493896484 82.8525390625 79.88555908203125 83.71463775634766 78.40550231933594 C 84.57672882080078 76.92546081542969 85.05287170410156 75.25590515136719 85.09158325195313 73.57734680175781 C 85.13294219970703 71.78449249267578 84.68895721435547 70.05567932128906 83.77199554443359 68.43891906738281 L 58.25282669067383 23.44457244873047 C 57.32397079467773 21.80686187744141 56.0501708984375 20.52787780761719 54.46682739257813 19.64313507080078 C 52.98562622070313 18.81547546386719 51.28695297241211 18.37799072265625 49.5544548034668 18.37799072265625 M 49.55445861816406 14.37799072265625 C 54.30230712890625 14.37799072265625 59.05014801025391 16.74240112304688 61.73217010498047 21.47122192382813 L 87.2513427734375 66.46556091308594 C 92.54463958740234 75.79849243164063 85.80313873291016 87.37232208251953 75.07362365722656 87.37232208251953 L 24.03527069091797 87.37232208251953 C 13.30575561523438 87.37232208251953 6.564254760742188 75.79849243164063 11.85756683349609 66.46556091308594 L 37.37673950195313 21.47122955322266 C 40.05876159667969 16.74240112304688 44.80661392211914 14.37799072265625 49.55445861816406 14.37799072265625 Z" stroke="none" fill="#fff"/>
        </g>
      </g>
    </g>
    <g id="Group_1893" data-name="Group 1893" transform="matrix(1, 0.017, -0.017, 1, 9430.355, -5026.032)" opacity="0.2">
      <g id="Group_7" data-name="Group 7" transform="matrix(0.839, 0.545, -0.545, 0.839, -8399.967, 5277.349)">
        <g id="Ellipse_1" data-name="Ellipse 1" transform="translate(0 0)" fill="none" stroke="#fff" stroke-width="4" opacity="0.74">
          <circle cx="69.137" cy="69.137" r="69.137" stroke="none"/>
          <circle cx="69.137" cy="69.137" r="67.137" fill="none"/>
        </g>
        <g id="Ellipse_3" data-name="Ellipse 3" transform="translate(47.372 19.845)" fill="none" stroke="#fff" stroke-width="4">
          <circle cx="34.569" cy="34.569" r="34.569" stroke="none"/>
          <circle cx="34.569" cy="34.569" r="32.569" fill="none"/>
        </g>
      </g>
    </g>
    <g id="Polygon_8" data-name="Polygon 8" transform="matrix(-0.777, 0.629, -0.629, -0.777, 808.54, 404.39)" fill="none" opacity="0.06">
      <path d="M31.888,21.367a14,14,0,0,1,24.332,0L76.193,56.445A14,14,0,0,1,64.027,77.372H24.082A14,14,0,0,1,11.916,56.445Z" stroke="none"/>
      <path d="M 44.0544548034668 18.29437255859375 C 42.3248291015625 18.29437255859375 40.62853622436523 18.73059844970703 39.14896011352539 19.55589294433594 C 37.56754684448242 20.43798828125 36.29422760009766 21.71329498291016 35.36436080932617 23.34638214111328 L 15.39158630371094 58.42434692382813 C 14.47105407714844 60.04107666015625 14.02417755126953 61.77066421508789 14.06337738037109 63.5650520324707 C 14.10008239746094 65.24495697021484 14.57488250732422 66.91625213623047 15.43643951416016 68.39826202392578 C 16.29801177978516 69.88026428222656 17.51545715332031 71.11982727050781 18.95716094970703 71.98293304443359 C 20.49710845947266 72.90486145019531 22.22124481201172 73.372314453125 24.08168029785156 73.372314453125 L 64.02722930908203 73.372314453125 C 65.88766479492188 73.372314453125 67.61180114746094 72.90486145019531 69.15174865722656 71.98293304443359 C 70.59345245361328 71.11982727050781 71.81089782714844 69.88026428222656 72.67247009277344 68.39826202392578 C 73.53402709960938 66.91625213623047 74.00882720947266 65.24495697021484 74.0455322265625 63.5650520324707 C 74.08473205566406 61.77066421508789 73.63785552978516 60.04107666015625 72.71732330322266 58.42434692382813 L 52.74453353881836 23.34638214111328 C 51.81466674804688 21.71329498291016 50.54134750366211 20.43798828125 48.95993423461914 19.55589294433594 C 47.48036193847656 18.73059844970703 45.78408050537109 18.29437255859375 44.0544548034668 18.29437255859375 M 44.0544548034668 14.29438018798828 C 48.79512786865234 14.29438018798828 53.53580093383789 16.65198516845703 56.22056198120117 21.36719512939453 L 76.19334411621094 56.44515991210938 C 81.50743865966797 65.77823638916016 74.76715850830078 77.372314453125 64.02722930908203 77.372314453125 L 24.08168029785156 77.372314453125 C 13.34175109863281 77.372314453125 6.601470947265625 65.77823638916016 11.91555786132813 56.44515991210938 L 31.88833618164063 21.36719512939453 C 34.57310104370117 16.65198516845703 39.31377792358398 14.29438018798828 44.0544548034668 14.29438018798828 Z" stroke="none" fill="#fff"/>
    </g>
  </g>
</svg>
