<svg xmlns="http://www.w3.org/2000/svg" width="1263.403" height="356.471" viewBox="0 0 1263.403 356.471">
  <g id="bg-texture" transform="translate(-54.423 -218.349)">
    <g id="Group_7" data-name="Group 7" transform="matrix(0.839, 0.545, -0.545, 0.839, 769.562, -285.688)" opacity="0.77">
      <g id="Ellipse_1" data-name="Ellipse 1" transform="translate(599 212)" fill="none" stroke="#fff" stroke-width="4" opacity="0.08">
        <circle cx="56.679" cy="56.679" r="56.679" stroke="none"/>
        <circle cx="56.679" cy="56.679" r="54.679" fill="none"/>
      </g>
      <g id="Ellipse_3" data-name="Ellipse 3" transform="translate(637.836 228.269)" fill="none" stroke="#fff" stroke-width="4" opacity="0.08">
        <circle cx="28.34" cy="28.34" r="28.34" stroke="none"/>
        <circle cx="28.34" cy="28.34" r="26.34" fill="none"/>
      </g>
    </g>
    <g id="bg-texture-2" data-name="bg-texture">
      <g id="outline" transform="translate(154.928 462.4) rotate(-11)" opacity="0.3">
        <path id="Path_15991" data-name="Path 15991" d="M75.987,26a6.639,6.639,0,0,0-6.639,6.639V50.848a6.58,6.58,0,0,0-9.988.009l-8.279,9.664A22.361,22.361,0,0,0,39,80.452V92.386h3.794V80.452A18.588,18.588,0,0,1,53.125,63.745a1.9,1.9,0,0,0,.592-.465l8.524-9.943a2.791,2.791,0,1,1,4.192,3.685L56.539,68.391A1.9,1.9,0,1,0,59.4,70.883L72.673,55.709a1.9,1.9,0,0,0,.468-1.258V32.639a2.845,2.845,0,0,1,5.69,0V57.687a13.256,13.256,0,0,1-2.018,7.035L60.153,91.381l3.224,2.011L80.038,66.735a17.061,17.061,0,0,0,2.587-9.048V32.639A6.639,6.639,0,0,0,75.987,26Z" transform="translate(33.18 21.521)" fill="#9cd9f9"/>
        <path id="Path_15992" data-name="Path 15992" d="M21.256,93.392l3.224-2.011L7.812,64.722a13.256,13.256,0,0,1-2.018-7.035V32.639a2.845,2.845,0,0,1,5.69,0V54.451a1.9,1.9,0,0,0,.47,1.248L25.231,70.873a1.9,1.9,0,1,0,2.857-2.492L18.181,57a2.791,2.791,0,1,1,4.205-3.67l8.524,9.943a1.9,1.9,0,0,0,.592.465,18.588,18.588,0,0,1,10.33,16.714V92.386h3.794V80.452a22.361,22.361,0,0,0-12.08-19.931l-8.279-9.658a6.58,6.58,0,0,0-9.988-.015V32.639A6.639,6.639,0,0,0,2,32.639V57.687a17.064,17.064,0,0,0,2.6,9.05Z" transform="translate(0 21.521)" fill="#9cd9f9"/>
        <path id="Path_15993" data-name="Path 15993" d="M87.87,37.757V15.277a1.9,1.9,0,0,0-1.9-1.9A59.739,59.739,0,0,1,55.254,4.872l-4.344-2.6a1.9,1.9,0,0,0-1.95,0l-4.336,2.6A59.748,59.748,0,0,1,13.9,13.38a1.9,1.9,0,0,0-1.9,1.9v22.48A55.207,55.207,0,0,0,34.382,82.042L48.816,92.679a1.9,1.9,0,0,0,2.25,0L65.489,82.042A55.207,55.207,0,0,0,87.87,37.757ZM49.935,88.791,36.627,78.985A51.4,51.4,0,0,1,15.794,37.757V17.145A63.526,63.526,0,0,0,46.58,8.12l3.355-2.012L53.289,8.12a63.541,63.541,0,0,0,30.788,9.025V37.757A51.4,51.4,0,0,1,63.243,78.985Z" transform="translate(8.968)" fill="#9cd9f9"/>
        <path id="Path_15994" data-name="Path 15994" d="M76.7,18.264a1.9,1.9,0,0,0-1.688-1.885A67.783,67.783,0,0,1,47.757,7.193l-.427-.256a1.9,1.9,0,0,0-1.957,0l-.425.254a67.011,67.011,0,0,1-25.417,8.962c-.613.083-1.229.159-1.846.228A1.9,1.9,0,0,0,16,18.266V33.577A47.609,47.609,0,0,0,35.292,71.749l9.933,7.318a1.9,1.9,0,0,0,2.25,0l9.933-7.32A47.593,47.593,0,0,0,76.7,33.575ZM65.317,58.1A43.436,43.436,0,0,1,55.158,68.684l-8.809,6.5L37.543,68.7a43.456,43.456,0,0,1-10.161-10.59V56.616a9.5,9.5,0,0,1,9.484-9.484H55.834a9.5,9.5,0,0,1,9.484,9.484ZM72.9,33.565a43.626,43.626,0,0,1-4.412,19.049,13.3,13.3,0,0,0-12.659-9.275H36.866a13.3,13.3,0,0,0-12.657,9.275A43.593,43.593,0,0,1,19.8,33.575V19.943l.26-.036A70.724,70.724,0,0,0,46.35,10.77,71.734,71.734,0,0,0,72.9,19.943Z" transform="translate(12.553 4.182)" fill="#9cd9f9"/>
        <rect id="Rectangle_523" data-name="Rectangle 523" width="4" height="3" transform="translate(57 70.913)" fill="#9cd9f9"/>
        <rect id="Rectangle_524" data-name="Rectangle 524" width="4" height="3" transform="translate(36 26.913)" fill="#9cd9f9"/>
        <rect id="Rectangle_525" data-name="Rectangle 525" width="4" height="3" transform="translate(78 26.913)" fill="#9cd9f9"/>
        <rect id="Rectangle_526" data-name="Rectangle 526" width="4" height="5" transform="translate(36 41.913)" fill="#9cd9f9"/>
        <rect id="Rectangle_527" data-name="Rectangle 527" width="4" height="5" transform="translate(78 41.913)" fill="#9cd9f9"/>
        <rect id="Rectangle_528" data-name="Rectangle 528" width="4" height="4" transform="translate(44 56.913)" fill="#9cd9f9"/>
        <rect id="Rectangle_529" data-name="Rectangle 529" width="4" height="4" transform="translate(70 56.913)" fill="#9cd9f9"/>
        <path id="Path_15995" data-name="Path 15995" d="M26,23.381A11.381,11.381,0,1,0,37.381,12,11.381,11.381,0,0,0,26,23.381Zm11.381-7.587a7.587,7.587,0,1,1-7.587,7.587A7.587,7.587,0,0,1,37.381,15.794Z" transform="translate(21.522 8.967)" fill="#9cd9f9"/>
      </g>
      <g id="Group_1421" data-name="Group 1421" transform="translate(-6 -9)">
        <g id="Polygon_2" data-name="Polygon 2" transform="translate(89.53 432.244) rotate(-102)" fill="none" opacity="0.22">
          <path d="M57.857,21.164a14,14,0,0,1,24.286,0l45.826,79.869A14,14,0,0,1,115.826,122H24.174A14,14,0,0,1,12.03,101.033Z" stroke="none"/>
          <path d="M 69.99999237060547 18.13111877441406 C 68.27603149414063 18.13111877441406 66.58443450927734 18.56487274169922 65.10809326171875 19.38547515869141 C 63.53050994873047 20.26237487792969 62.25813293457031 21.53043365478516 61.32633209228516 23.15443420410156 L 15.49991607666016 103.0233001708984 C 14.57231140136719 104.6399765014648 14.11971282958984 106.3710556030273 14.15465545654297 108.1684722900391 C 14.18737030029297 109.8510131835938 14.65953063964844 111.5257568359375 15.52007293701172 113.0116348266602 C 16.380615234375 114.4975128173828 17.59823608398438 115.7404937744141 19.04133605957031 116.6062316894531 C 20.58295440673828 117.5310516357422 22.3096923828125 117.9999923706055 24.17359161376953 117.9999923706055 L 115.826416015625 117.9999923706055 C 117.6902923583984 117.9999923706055 119.4170303344727 117.5310516357422 120.9586486816406 116.6062316894531 C 122.4017486572266 115.7404937744141 123.6193695068359 114.4975128173828 124.4799118041992 113.0116348266602 C 125.3404541015625 111.5257568359375 125.812614440918 109.8510131835938 125.845329284668 108.1684722900391 C 125.8802719116211 106.3710556030273 125.4276733398438 104.6399765014648 124.5000762939453 103.0233001708984 L 78.67367553710938 23.15443420410156 C 77.74185180664063 21.53043365478516 76.46949768066406 20.26237487792969 74.89189147949219 19.38547515869141 C 73.41555023193359 18.56487274169922 71.72395324707031 18.13111877441406 69.99999237060547 18.13111877441406 M 70 14.13112640380859 C 74.72653198242188 14.13112640380859 79.45306396484375 16.47533416748047 82.14312744140625 21.16375732421875 L 127.9695281982422 101.0326156616211 C 133.3246917724609 110.3658981323242 126.5868682861328 121.9999923706055 115.826416015625 121.9999923706055 L 24.17359161376953 121.9999923706055 C 13.41310882568359 121.9999923706055 6.67529296875 110.3658981323242 12.03044891357422 101.0326156616211 L 57.85687255859375 21.16375732421875 C 60.54694366455078 16.47533416748047 65.27347564697266 14.13112640380859 70 14.13112640380859 Z" stroke="none" fill="#9cd9f9"/>
        </g>
        <g id="Polygon_6" data-name="Polygon 6" transform="translate(118.59 399.722) rotate(-102)" fill="none" opacity="0.22">
          <path d="M25.822,21.471a14,14,0,0,1,24.355,0L64.142,46.093A14,14,0,0,1,51.965,67H24.035A14,14,0,0,1,11.858,46.093Z" stroke="none"/>
          <path d="M 37.99999237060547 18.37798690795898 C 36.26749801635742 18.37798690795898 34.56882858276367 18.81546783447266 33.08761596679688 19.64313888549805 C 31.50427627563477 20.52788162231445 30.23048782348633 21.80686950683594 29.30162811279297 23.44459915161133 L 15.33692169189453 48.06658554077148 C 14.41994476318359 49.683349609375 13.97597885131836 51.41216278076172 14.0173225402832 53.20502090454102 C 14.05603790283203 54.88359832763672 14.53218078613281 56.55315017700195 15.3942756652832 58.03319549560547 C 16.25636672973633 59.51324462890625 17.47370910644531 60.75106811523438 18.9146842956543 61.61284637451172 C 20.45376968383789 62.53329467773438 22.17659378051758 63 24.03527450561523 63 L 51.9647216796875 63 C 53.82341766357422 63 55.54622650146484 62.53329467773438 57.08531188964844 61.61283111572266 C 58.52629852294922 60.75105667114258 59.74363708496094 59.51323318481445 60.60573196411133 58.03318786621094 C 61.46782684326172 56.55313873291016 61.9439697265625 54.88358688354492 61.98267364501953 53.20502090454102 C 62.02402496337891 51.41216278076172 61.58005142211914 49.683349609375 60.6630859375 48.06659698486328 L 46.69836807250977 23.44459915161133 C 45.76950836181641 21.80686950683594 44.49571228027344 20.52788162231445 42.91236877441406 19.64313888549805 C 41.43115615844727 18.81546783447266 39.73248672485352 18.37798690795898 37.99999237060547 18.37798690795898 M 37.99999237060547 14.37799072265625 C 42.74784088134766 14.37799072265625 47.49568557739258 16.74240493774414 50.17771148681641 21.47123336791992 L 64.14242553710938 46.09323501586914 C 69.43572998046875 55.42616271972656 62.69423675537109 67 51.9647216796875 67 L 24.03527450561523 67 C 13.30575561523438 67 6.564277648925781 55.42616271972656 11.85756683349609 46.09323501586914 L 25.82228469848633 21.47123336791992 C 28.50430297851563 16.74240493774414 33.25214767456055 14.37799072265625 37.99999237060547 14.37799072265625 Z" stroke="none" fill="#9cd9f9"/>
        </g>
      </g>
      <g id="loss" transform="matrix(0.914, 0.407, -0.407, 0.914, 1090.947, 400.747)" opacity="0.3">
        <path id="Path_15996" data-name="Path 15996" d="M0,0H14.478V3.413H0Z" transform="translate(47.556 90.225) rotate(-45)" fill="#9cd9f9"/>
        <circle id="Ellipse_114" data-name="Ellipse 114" cx="1.824" cy="1.824" r="1.824" transform="translate(47.208 81.256)" fill="#9cd9f9"/>
        <ellipse id="Ellipse_115" data-name="Ellipse 115" cx="1.824" cy="1.216" rx="1.824" ry="1.216" transform="translate(56.936 88.552)" fill="#9cd9f9"/>
        <path id="Path_15997" data-name="Path 15997" d="M24,56.651A13.651,13.651,0,1,0,37.651,43,13.667,13.667,0,0,0,24,56.651Zm23.889,0A10.238,10.238,0,1,1,37.651,46.413,10.248,10.248,0,0,1,47.889,56.651Z" transform="translate(16.246 29.666)" fill="#9cd9f9"/>
        <path id="Path_15998" data-name="Path 15998" d="M58.691,8.03,57.669,3.945a3.89,3.89,0,0,0-7.547,0L49.1,8.03C19.585,10.375,1,33.97,1,50.483v2.761l2.469-1.235c6.465-3.232,9.651-3.232,11.182-3.232,3.01,0,6.15,1.57,9.475,3.233l1.1.549.87-.87c3.583-3.585,6.776-6.325,12.443-6.325a18.421,18.421,0,0,1,10.238,3.145V66.514a20.476,20.476,0,1,0,10.238,0V48.509a18.421,18.421,0,0,1,10.238-3.145c5.667,0,8.859,2.74,12.444,6.325l.87.87,1.1-.549c3.324-1.664,6.464-3.233,9.474-3.233,1.531,0,4.716,0,11.182,3.233l2.469,1.234V50.483c0-16.514-18.585-40.109-48.1-42.453ZM53.432,4.776a.5.5,0,0,1,.93,0l.771,3.082c-.415-.009-.821-.031-1.237-.031s-.822.022-1.235.031ZM4.594,47.723C6.414,33.5,21.846,15.285,45.747,11.827c-14.159,8.439-21.7,20.5-22.476,35.964a20.479,20.479,0,0,0-8.62-2.426c-1.558,0-4.578,0-10.057,2.358Zm22.186-1.348c1.249-15.224,9.6-26.44,25.411-34.144v34.5a22.372,22.372,0,0,0-13.651-4.778A17.367,17.367,0,0,0,26.779,46.375Zm44.18,39.942A17.063,17.063,0,1,1,53.9,69.253,17.083,17.083,0,0,1,70.959,86.316ZM55.6,65.927c-.565-.048-1.13-.087-1.706-.087s-1.142.039-1.706.087v-14.7c.166.157.336.3.5.461L53.9,52.9,55.1,51.69c.164-.164.334-.3.5-.461Zm0-19.2v-34.5c15.807,7.706,24.162,18.92,25.411,34.144a17.367,17.367,0,0,0-11.76-4.423A22.372,22.372,0,0,0,55.6,46.73Zm37.539-1.365a20.5,20.5,0,0,0-8.62,2.425c-.78-15.461-8.318-27.523-22.476-35.964,23.9,3.459,39.333,21.674,41.153,35.9-5.479-2.356-8.5-2.356-10.057-2.356Z" fill="#9cd9f9"/>
      </g>
      <g id="contract_1_" data-name="contract (1)" transform="matrix(0.899, -0.438, 0.438, 0.899, 1225.427, 397.329)" opacity="0.41">
        <path id="Path_15999" data-name="Path 15999" d="M235.287,98.7a3.614,3.614,0,0,0-6.622-.867l-.6,1.048a1.2,1.2,0,0,0-1.637.434l-3.058,5.213-1.048-.6a1.2,1.2,0,1,0-1.2,2.083l1.048.6L211.93,124.339l-2.528,6.755-1.2,2.251a3.612,3.612,0,0,0,.193,3.9l-2.709,3.323-.758-1.9a2.408,2.408,0,0,0-4.3-.337l-.433.734-.409-4.816a2.408,2.408,0,0,0-4.684-.566l-2.962,8.885a1.2,1.2,0,0,0,.758,1.517,1.042,1.042,0,0,0,.373.1,1.2,1.2,0,0,0,1.144-.818l2.949-8.885.422,4.888a2.408,2.408,0,0,0,4.467,1.036l.446-.735.747,1.891a2.408,2.408,0,0,0,4.117.614l2.805-3.551a3.709,3.709,0,0,0,.951.121,3.612,3.612,0,0,0,3.142-1.782l1.2-2.01,4.587-5.574,10.342-17.951,1.048.6a1.207,1.207,0,0,1,.446,1.65l-4.816,8.344a1.2,1.2,0,1,0,2.035,1.252l4.816-8.344a3.611,3.611,0,0,0-1.324-4.936l-1.048-.6,3.01-5.213a1.2,1.2,0,0,0-.433-1.637l.6-1.048a3.611,3.611,0,0,0,.361-2.793Zm-4.539.337a1.2,1.2,0,0,1,.735-.566,1.264,1.264,0,0,1,.915.121,1.205,1.205,0,0,1,.566.734,1.264,1.264,0,0,1-.121.915l-.6,1.048-2.1-1.2Zm-16.41,33.615-.6-.349-1.782-1.036,1.71-4.575,3.792,2.191Zm-3.612,3.479a1.2,1.2,0,0,1-.361-1.577l.6-1.047,2.095,1.2-.6,1.035a1.2,1.2,0,0,1-1.734.385Zm8.1-9.222-4.166-2.408,9.632-16.687,4.166,2.408Zm10.836-18.77-4.166-2.408,2.408-4.166,4.166,2.408Zm0,0" transform="translate(-163.17 -81.536)" fill="#9cd9f9"/>
        <path id="Path_16000" data-name="Path 16000" d="M76.18,356.886l-4.261,4.25-2.553-2.553a1.2,1.2,0,1,0-1.7,1.71l2.553,2.553a2.427,2.427,0,0,0,3.407,0l4.25-4.262a1.2,1.2,0,0,0-1.7-1.7Zm0,0" transform="translate(-57.182 -302.898)" fill="#9cd9f9"/>
        <path id="Path_16001" data-name="Path 16001" d="M32,322.274a10.234,10.234,0,1,0,20.467,0,1.2,1.2,0,0,0-2.408,0,7.827,7.827,0,1,1-3.13-6.26,1.2,1.2,0,0,0,1.445-1.926A10.234,10.234,0,0,0,32,322.274Zm0,0" transform="translate(-27.184 -265.048)" fill="#9cd9f9"/>
        <path id="Path_16002" data-name="Path 16002" d="M104.507,50.447a1.2,1.2,0,0,0,0-2.408H73.2a1.2,1.2,0,0,0-1.2,1.2v4.816a1.2,1.2,0,0,0,1.2,1.2h31.3a1.2,1.2,0,0,0,0-2.408h-30.1V50.447Zm0,0" transform="translate(-61.164 -40.776)" fill="#9cd9f9"/>
        <path id="Path_16003" data-name="Path 16003" d="M97.2,112.039a1.2,1.2,0,0,0,0,2.408h24.079a1.2,1.2,0,0,0,0-2.408Zm0,0" transform="translate(-81.553 -95.145)" fill="#9cd9f9"/>
        <path id="Path_16004" data-name="Path 16004" d="M155.691,168.039H129.2a1.2,1.2,0,1,0,0,2.408h26.487a1.2,1.2,0,1,0,0-2.408Zm0,0" transform="translate(-108.737 -142.717)" fill="#9cd9f9"/>
        <path id="Path_16005" data-name="Path 16005" d="M82.487,217.243a1.2,1.2,0,0,0-1.2-1.2H57.2a1.2,1.2,0,0,0,0,2.408H81.283A1.2,1.2,0,0,0,82.487,217.243Zm0,0" transform="translate(-47.572 -183.493)" fill="#9cd9f9"/>
        <path id="Path_16006" data-name="Path 16006" d="M257.632,216.039H249.2a1.2,1.2,0,0,0,0,2.408h8.428a1.2,1.2,0,0,0,0-2.408Zm0,0" transform="translate(-210.677 -183.493)" fill="#9cd9f9"/>
        <path id="Path_16007" data-name="Path 16007" d="M69.243,258.447a1.2,1.2,0,1,0,0-2.408H57.2a1.2,1.2,0,1,0,0,2.408Zm0,0" transform="translate(-47.572 -217.473)" fill="#9cd9f9"/>
        <path id="Path_16008" data-name="Path 16008" d="M169.2,258.447h8.428a1.2,1.2,0,1,0,0-2.408H169.2a1.2,1.2,0,1,0,0,2.408Zm0,0" transform="translate(-142.717 -217.473)" fill="#9cd9f9"/>
        <path id="Path_16009" data-name="Path 16009" d="M54.178,55.421a1.2,1.2,0,0,0-1.2,1.2v12.04a1.2,1.2,0,0,1-1.2,1.2H3.612a1.2,1.2,0,0,1-1.2-1.2V3.651a1.2,1.2,0,0,1,1.2-1.2H51.77a1.2,1.2,0,0,1,1.2,1.2V26.261a1.2,1.2,0,1,0,2.408,0V3.651A3.612,3.612,0,0,0,51.77.039H3.612A3.612,3.612,0,0,0,0,3.651V68.664a3.612,3.612,0,0,0,3.612,3.612H51.77a3.612,3.612,0,0,0,3.612-3.612V56.625A1.2,1.2,0,0,0,54.178,55.421Zm0,0" transform="translate(0 0)" fill="#9cd9f9"/>
      </g>
    </g>
  </g>
</svg>
