<?xml version="1.0" encoding="utf-8"?>
<!-- Generator: Adobe Illustrator 14.0.0, SVG Export Plug-In . SVG Version: 6.00 Build 43363)  -->
<!DOCTYPE svg PUBLIC "-//W3C//DTD SVG 1.1//EN" "http://www.w3.org/Graphics/SVG/1.1/DTD/svg11.dtd">
<svg version="1.1" id="Layer_1" xmlns="http://www.w3.org/2000/svg" xmlns:xlink="http://www.w3.org/1999/xlink" x="0px" y="0px"
	 width="1270.668px" height="203.119px" viewBox="0 0 1270.668 203.119" enable-background="new 0 0 1270.668 203.119"
	 xml:space="preserve">
<g id="Group_1652" transform="translate(-71.001 -160.604)">
	<g id="Group_1651">
		<g id="Group_1502" transform="translate(71.001 171.998)" opacity="0.47">
			<path id="Path_16255" fill="#365673" d="M348.937,16.476l1.616,0.934v1.869l-1.618,0.931l-1.616-0.935v-1.867L348.937,16.476
				 M348.937,16.25l-1.815,1.041v2.096l1.813,1.047l1.814-1.045v-2.093l-1.813-1.048L348.937,16.25z"/>
			<path id="Path_16256" fill="#365673" d="M303.557,8.455l-2.347-1.359l-2.351,1.353v2.714l2.347,1.36l2.351-1.354V8.455z"/>
			<path id="Path_16257" fill="#365673" d="M362.137,63.218l-1.246-0.722l-1.25,0.72v1.439l1.247,0.722l1.249-0.719V63.218z"/>
			<path id="Path_16258" fill="#365673" d="M223.732,20.465l5.896,3.409l-0.008,6.81l-5.902,3.4l-5.896-3.409l0.014-6.81
				l5.903-3.399 M223.738,19.636l-6.619,3.813l-0.009,7.638l6.611,3.825l6.619-3.813l0.008-7.637l-6.616-3.824L223.738,19.636z"/>
			<path id="Path_16259" fill="#365673" d="M249.215,13.518l3.152,1.828v3.645l-3.156,1.818l-3.16-1.825v-3.645l3.159-1.818
				 M249.21,13.078l-3.538,2.037v4.087l3.537,2.047l3.542-2.04v-4.087l-3.537-2.048L249.21,13.078z"/>
			<path id="Path_16260" fill="#365673" d="M341.278,32.88l13.692,7.923l-0.018,15.82l-13.709,7.899l-13.692-7.929l0.016-15.82
				L341.278,32.88 M341.277,30.958l-15.375,8.854l-0.021,17.74l15.355,8.89l15.378-8.856l0.019-17.741L341.28,30.96L341.277,30.958z
				"/>
			<path id="Path_16261" fill="#365673" d="M446.019,14.87l1.121,0.645v1.29l-1.123,0.645l-1.12-0.645v-1.29l1.12-0.645
				 M446.017,14.711l-1.256,0.726v1.451l1.254,0.726l1.258-0.723v-1.45L446.017,14.711L446.017,14.711z"/>
			<path id="Path_16262" fill="#365673" d="M314.236,14.037l20.774,12.021l-0.027,24l-20.799,11.977l-20.771-12.022l0.024-23.999
				L314.236,14.037 M314.236,11.12l-23.319,13.433l-0.03,26.914l23.295,13.481l23.324-13.432l0.026-26.911l-23.293-13.483
				L314.236,11.12z"/>
			<path id="Path_16263" fill="#365673" d="M274.289,27.041l2.828,1.636v3.267l-2.833,1.634l-2.827-1.639V28.67L274.289,27.041
				 M274.289,26.949l-2.909,1.676v3.361l2.905,1.681l2.913-1.675v-3.36L274.289,26.949z"/>
			<path id="Path_16264" fill="#365673" d="M392.394,56.624l2.948,1.708v3.409l-2.955,1.702l-2.949-1.707v-3.409l2.953-1.701
				 M392.391,56.533l-3.032,1.75v3.501l3.031,1.75l3.034-1.75v-3.501l-3.03-1.751L392.391,56.533z"/>
			<path id="Path_16265" fill="#365673" d="M272.144,64.167l1.974,1.144v2.28l-1.979,1.136l-1.974-1.144v-2.276l1.977-1.14
				 M272.142,64.105l-2.032,1.169v2.344l2.027,1.174l2.027-1.168v-2.346l-2.027-1.173H272.142z"/>
			<path id="Path_16266" fill="#365673" d="M383.693,8.218l16.183,9.366l-0.02,18.703l-16.204,9.329l-16.187-9.366l0.021-18.703
				L383.693,8.218 M383.693,7.696l-16.656,9.592l-0.021,19.22l16.637,9.629l16.652-9.592l0.021-19.221L383.693,7.696L383.693,7.696z
				"/>
			<path id="Path_16267" fill="#365673" d="M440.906,11.16l23.304,13.488l-0.03,26.923l-23.331,13.436l-23.303-13.486l0.029-26.923
				L440.906,11.16 M440.906,10.411l-23.98,13.81l-0.029,27.672l23.954,13.862l23.98-13.81l0.031-27.671L440.906,10.411
				L440.906,10.411z"/>
			<path id="Path_16268" fill="#365673" d="M215.143,59.49l1.407,0.815v1.626l-1.409,0.811l-1.407-0.815v-1.626L215.143,59.49
				 M215.143,59.444l-1.448,0.834v1.672l1.445,0.836l1.45-0.833v-1.672L215.143,59.444z"/>
			<path id="Path_16269" fill="#365673" d="M241.499,39.157l17.858,10.333l-0.022,20.633l-17.88,10.294l-17.858-10.333l0.024-20.63
				l17.873-10.297 M241.495,38.584l-18.37,10.582l-0.024,21.206l18.352,10.623l18.378-10.583l0.023-21.207l-18.355-10.62H241.495z"
				/>
			<path id="Path_16270" fill="#365673" d="M304.225,45.137l15.498,8.974l-0.018,17.911l-15.516,8.939l-15.503-8.971l0.021-17.91
				l15.521-8.937 M304.227,44.645l-15.955,9.189l-0.019,18.41l15.935,9.216l15.948-9.187l0.02-18.407l-15.931-9.226L304.227,44.645z
				"/>
			<path id="Path_16271" fill="#365673" d="M412.572,9.305l11.977,6.936l-0.015,13.845l-11.996,6.91l-11.977-6.937l0.017-13.844
				l11.996-6.91 M412.574,8.92l-12.332,7.102l-0.016,14.229l12.313,7.127l12.328-7.101l0.018-14.229L412.572,8.92H412.574z"/>
			<path id="Path_16272" fill="#365673" d="M340.931,62.852l7.421,4.292l-0.009,8.569l-7.431,4.282l-7.418-4.294l0.009-8.568
				l7.428-4.278 M340.931,61.812l-8.33,4.798l-0.009,9.607l8.318,4.815l8.332-4.795l0.012-9.613l-8.321-4.817L340.931,61.812z"/>
			<path id="Path_16273" fill="#365673" d="M140.697,64.728l2.418,1.397v2.789l-2.417,1.392l-2.42-1.4v-2.791l2.417-1.392
				 M140.695,64.384l-2.711,1.566v3.132l2.71,1.566l2.711-1.566v-3.128l-2.707-1.562L140.695,64.384z"/>
			<path id="Path_16274" fill="#365673" d="M100.642,73.106l-3.51-2.026l-3.514,2.026l-0.004,4.054l3.509,2.027l3.515-2.027
				L100.642,73.106z"/>
			<path id="Path_16275" fill="#365673" d="M160.428,134.587l-1.864-1.077l-1.867,1.073v2.155l1.867,1.078l1.865-1.075
				L160.428,134.587z"/>
			<path id="Path_16276" fill="#365673" d="M129.253,89.243l20.469,11.843l-0.025,23.646L129.2,136.539l-20.466-11.851l0.026-23.643
				L129.253,89.243 M129.253,86.374l-22.977,13.233l-0.03,26.515l22.951,13.287l22.979-13.238l0.028-26.515l-22.949-13.278
				L129.253,86.374z"/>
			<path id="Path_16277" fill="#365673" d="M397.96,60.688l4.666,2.699l-0.006,5.388l-4.669,2.693l-4.667-2.702l0.006-5.389
				L397.96,60.688 M397.96,60.032l-5.236,3.015l-0.006,6.043l5.231,3.03l5.238-3.019V63.06l-5.229-3.028L397.96,60.032z"/>
			<path id="Path_16278" fill="#365673" d="M285.799,62.326l1.675,0.968v1.935l-1.676,0.964l-1.674-0.969v-1.934L285.799,62.326
				 M285.8,62.09l-1.878,1.084v2.169l1.877,1.086l1.879-1.082v-2.17L285.8,62.09L285.8,62.09z"/>
			<path id="Path_16279" fill="#365673" d="M205.649,124.738l4.408,2.552l-0.005,5.091l-4.412,2.545l-4.411-2.553l0.006-5.094
				L205.649,124.738 M205.649,124.598l-4.538,2.612l-0.006,5.235l4.533,2.624l4.535-2.613l0.005-5.235L205.649,124.598
				L205.649,124.598z"/>
			<path id="Path_16280" fill="#365673" d="M192.646,52.385l24.188,14.004l-0.029,27.951l-24.219,13.94l-24.191-13.998l0.031-27.951
				L192.646,52.385 M192.646,51.607l-24.895,14.336l-0.03,28.727l24.864,14.387l24.89-14.337l0.032-28.728l-24.861-14.389V51.607z"
				/>
			<path id="Path_16281" fill="#365673" d="M278.158,56.785l34.825,20.158l-0.042,40.238l-34.873,20.084l-34.825-20.155
				l0.044-40.239l34.873-20.084 M278.159,55.667L242.32,76.305l-0.044,41.358l35.796,20.717l35.838-20.637l0.044-41.358
				l-35.797-20.719L278.159,55.667z"/>
			<path id="Path_16282" fill="#365673" d="M73.875,107.564l23.162,13.414l-0.029,26.768l-23.191,13.359l-23.171-13.408
				l0.027-26.768L73.875,107.564 M73.875,106.818l-23.845,13.737L50,148.069l23.817,13.783l23.836-13.733l0.029-27.517
				L73.875,106.818L73.875,106.818z"/>
			<path id="Path_16283" fill="#365673" d="M235.807,54.01l17.906,10.366l-0.023,20.692l-17.928,10.327L217.855,85.03l0.023-20.689
				L235.807,54.01 M235.807,53.434L217.381,64.05l-0.021,21.268l18.406,10.652l18.426-10.612l0.023-21.268L235.807,53.434
				L235.807,53.434z"/>
			<path id="Path_16284" fill="#365673" d="M446.811,74.541L449,75.808v2.532l-2.193,1.262l-2.192-1.267v-2.533L446.811,74.541
				 M446.811,74.469l-2.259,1.299v2.603l2.252,1.302l2.252-1.298v-2.601l-2.25-1.303L446.811,74.469z"/>
			<path id="Path_16285" fill="#365673" d="M392.944,159.35l-23.526-13.617l0.029-27.179l23.556-13.566l23.527,13.61l-0.027,27.179
				l-23.558,13.565 M392.944,160.416l24.487-14.102l0.03-28.256l-24.458-14.15l-24.486,14.104l-0.029,28.258l24.457,14.156V160.416z
				"/>
			<path id="Path_16286" fill="#365673" d="M405.702,76.954l7.421,4.293l-0.009,8.568l-7.43,4.278l-7.42-4.294l0.01-8.568
				L405.702,76.954 M405.702,75.913l-8.326,4.798l-0.011,9.613l8.321,4.815l8.333-4.796l0.008-9.614l-8.321-4.815L405.702,75.913z"
				/>
			<path id="Path_16287" fill="#365673" d="M205.469,78.83l2.415,1.399v2.789l-2.421,1.389l-2.416-1.395v-2.791l2.42-1.394
				 M205.468,78.488l-2.711,1.566v3.132l2.708,1.566l2.711-1.566V80.06l-2.707-1.566V78.488z"/>
			<path id="Path_16288" fill="#365673" d="M155.996,83.509l-3.511-2.026l-3.514,2.026v4.054l3.509,2.027l3.515-2.027
				L155.996,83.509z"/>
			<path id="Path_16289" fill="#365673" d="M225.199,148.692l-1.864-1.079l-1.867,1.075v2.154l1.863,1.079l1.866-1.075
				L225.199,148.692z"/>
			<path id="Path_16290" fill="#365673" d="M56.427,74.412l4.709,2.728l-0.005,5.446l-4.72,2.72l-4.715-2.73l0.006-5.443
				L56.427,74.412 M56.427,73.752l-5.297,3.047l-0.007,6.106l5.288,3.062l5.292-3.049l0.006-6.106L56.427,73.752z"/>
			<path id="Path_16291" fill="#365673" d="M194.022,103.345l20.462,11.845l-0.025,23.646l-20.491,11.804l-20.463-11.849
				l0.026-23.647L194.022,103.345 M194.022,100.476l-22.975,13.231l-0.029,26.516l22.95,13.288l22.977-13.239l0.028-26.514
				l-22.947-13.282H194.022z"/>
			<path id="Path_16292" fill="#365673" d="M462.732,74.79l4.663,2.699l-0.006,5.389l-4.67,2.691l-4.665-2.702l0.006-5.387
				L462.732,74.79 M462.732,74.136l-5.239,3.017l-0.005,6.042l5.229,3.03l5.238-3.019l0.006-6.042L462.732,74.136L462.732,74.136z"
				/>
			<path id="Path_16293" fill="#365673" d="M350.571,76.429l1.673,0.97v1.935l-1.675,0.965l-1.674-0.969v-1.935L350.571,76.429
				 M350.57,76.193l-1.878,1.084v2.167l1.875,1.087l1.881-1.082v-2.169L350.57,76.193z"/>
			<path id="Path_16294" fill="#365673" d="M93.894,94.619l4.229,2.446l-0.005,4.884l-4.234,2.44l-4.229-2.449l0.005-4.883
				L93.894,94.619 M93.894,94.483l-4.348,2.504l-0.006,5.02l4.345,2.517l4.351-2.506l0.005-5.019L93.894,94.483z"/>
			<path id="Path_16295" fill="#365673" d="M270.42,138.842l4.407,2.55l-0.005,5.092l-4.414,2.543L266,146.476v-5.094l4.416-2.54
				 M270.416,138.701l-4.539,2.613l-0.005,5.233l4.532,2.621l4.535-2.613l0.005-5.232L270.416,138.701L270.416,138.701z"/>
			<path id="Path_16296" fill="#365673" d="M90.693,150.111l2.949,1.708v3.408l-2.954,1.7l-2.948-1.706v-3.409l2.956-1.701
				 M90.695,150.017l-3.04,1.752v3.502l3.033,1.75l3.041-1.75v-3.502l-3.031-1.752H90.695z"/>
			<path id="Path_16297" fill="#365673" d="M257.415,66.487l24.186,14.004l-0.03,27.948l-24.216,13.942l-24.189-13.996l0.029-27.949
				L257.415,66.487 M257.416,65.711l-24.892,14.335l-0.033,28.728l24.863,14.387l24.891-14.335l0.03-28.726L257.416,65.711
				L257.416,65.711z"/>
			<path id="Path_16298" fill="#365673" d="M342.928,70.888l34.825,20.158l-0.041,40.235l-34.87,20.083l-34.83-20.155l0.041-40.238
				l34.873-20.085 M342.926,69.766l-35.839,20.637l-0.044,41.358l35.799,20.719l35.838-20.638l0.044-41.359l-35.796-20.715
				L342.926,69.766z"/>
			<path id="Path_16299" fill="#365673" d="M138.645,121.666l23.163,13.415l-0.028,26.769l-23.192,13.358l-23.17-13.409
				l0.027-26.768L138.645,121.666 M138.645,120.923l-23.845,13.733l-0.029,27.514l23.816,13.783l23.837-13.727l0.028-27.514
				L138.645,120.923L138.645,120.923z"/>
			<path id="Path_16300" fill="#365673" d="M300.58,68.113l17.903,10.366l-0.021,20.693l-17.927,10.321l-17.909-10.361l0.023-20.691
				L300.58,68.113 M300.58,67.537l-18.426,10.617l-0.031,21.265l18.407,10.652l18.426-10.614l0.021-21.265L300.58,67.537
				L300.58,67.537z"/>
		</g>
		<g id="Group_1501" transform="translate(838.901 160.604)" opacity="0.32">
			<path id="Path_16209" fill="#365673" d="M320.858,18.387l1.791,1.036v2.071l-1.793,1.031l-1.789-1.037v-2.069L320.858,18.387
				 M320.858,18.137l-2.012,1.157v2.322l2.012,1.161l2.009-1.159V19.3l-2.009-1.162V18.137z"/>
			<path id="Path_16210" fill="#365673" d="M270.566,9.498l-2.602-1.505l-2.605,1.5V12.5l2.603,1.507l2.603-1.5L270.566,9.498z"/>
			<path id="Path_16211" fill="#365673" d="M335.49,70.19l-1.382-0.8l-1.383,0.797v1.597l1.383,0.8l1.382-0.798V70.19z"/>
			<path id="Path_16212" fill="#365673" d="M182.108,22.808l6.534,3.778l-0.011,7.546l-6.54,3.767l-6.532-3.777l0.009-7.546
				L182.108,22.808 M182.108,21.887l-7.335,4.231l-0.01,8.465l7.326,4.238l7.336-4.225l0.009-8.465l-7.326-4.238V21.887z"/>
			<path id="Path_16213" fill="#365673" d="M210.345,15.111l3.492,2.027v4.039l-3.5,2.016l-3.501-2.027v-4.039l3.501-2.016
				 M210.337,14.621l-3.926,2.261v4.529l3.92,2.27l3.925-2.26v-4.529L210.337,14.621z"/>
			<path id="Path_16214" fill="#365673" d="M312.373,36.567l15.174,8.782l-0.02,17.532l-15.194,8.752l-15.173-8.787l0.019-17.534
				l15.194-8.752 M312.373,34.431l-17.037,9.819l-0.021,19.662l17.017,9.853l17.039-9.818l0.021-19.66l-17.017-9.848L312.373,34.431
				z"/>
			<path id="Path_16215" fill="#365673" d="M428.451,16.608l1.241,0.718v1.434l-1.243,0.714l-1.243-0.717v-1.434l1.243-0.715
				 M428.449,16.432l-1.393,0.805v1.606l1.391,0.805l1.396-0.801v-1.607L428.449,16.432L428.449,16.432z"/>
			<path id="Path_16216" fill="#365673" d="M282.404,15.685l23.021,13.321l-0.028,26.597l-23.055,13.273l-23.016-13.325
				l0.026-26.595L282.404,15.685 M282.404,12.454L256.56,27.339l-0.034,29.828l25.815,14.938l25.85-14.885l0.03-29.824
				L282.404,12.454L282.404,12.454z"/>
			<path id="Path_16217" fill="#365673" d="M238.128,30.095l3.132,1.813v3.621l-3.14,1.811l-3.131-1.817V31.9l3.138-1.806
				 M238.127,29.991l-3.225,1.858v3.724l3.218,1.864l3.225-1.856v-3.724l-3.225-1.865H238.127z"/>
			<path id="Path_16218" fill="#365673" d="M369.02,62.886l3.27,1.892v3.777l-3.273,1.884l-3.27-1.891V64.77L369.02,62.886
				 M369.02,62.78l-3.363,1.935v3.883l3.359,1.943l3.363-1.935v-3.883L369.02,62.78L369.02,62.78z"/>
			<path id="Path_16219" fill="#365673" d="M235.756,71.24l2.188,1.267v2.526l-2.189,1.262l-2.188-1.267v-2.526l2.192-1.263
				 M235.758,71.171l-2.251,1.296v2.597l2.249,1.301l2.249-1.295v-2.599L235.758,71.171L235.758,71.171z"/>
			<path id="Path_16220" fill="#365673" d="M359.377,9.237l17.935,10.379l-0.021,20.724l-17.959,10.342l-17.937-10.377l0.021-20.725
				L359.377,9.237 M359.377,8.659l-18.458,10.628l-0.023,21.301l18.437,10.67l18.457-10.629l0.021-21.301L359.377,8.659
				L359.377,8.659z"/>
			<path id="Path_16221" fill="#365673" d="M422.783,12.499l25.825,14.946l-0.032,29.838l-25.858,14.889l-25.823-14.945
				l0.032-29.837L422.783,12.499 M422.783,11.67l-26.576,15.303l-0.032,30.667l26.543,15.362l26.574-15.304l0.034-30.666
				l-26.541-15.364L422.783,11.67z"/>
			<path id="Path_16222" fill="#365673" d="M172.583,66.057l1.561,0.904v1.801l-1.565,0.899l-1.56-0.904v-1.801L172.583,66.057
				 M172.583,66.007l-1.604,0.921v1.853l1.603,0.928l1.607-0.922v-1.854L172.583,66.007z"/>
			<path id="Path_16223" fill="#365673" d="M201.793,43.523l19.792,11.452l-0.025,22.866l-19.815,11.41l-19.79-11.452l0.027-22.864
				l19.809-11.411 M201.79,42.89l-20.361,11.727l-0.026,23.5l20.338,11.772l20.368-11.728l0.025-23.501l-20.341-11.771L201.79,42.89
				z"/>
			<path id="Path_16224" fill="#365673" d="M271.31,50.151l17.173,9.95l-0.02,19.849l-17.197,9.902l-17.182-9.943l0.022-19.849
				L271.31,50.151 M271.31,49.6l-17.683,10.183l-0.022,20.402l17.66,10.219l17.673-10.183l0.022-20.399l-17.652-10.226L271.31,49.6z
				"/>
			<path id="Path_16225" fill="#365673" d="M391.384,10.441l13.275,7.686l-0.018,15.343l-13.292,7.655l-13.278-7.682l0.019-15.342
				l13.294-7.658 M391.384,10.018l-13.666,7.867l-0.016,15.77l13.647,7.896l13.662-7.87l0.021-15.768l-13.646-7.9L391.384,10.018z"
				/>
			<path id="Path_16226" fill="#365673" d="M311.987,69.783l8.224,4.757l-0.009,9.5l-8.234,4.742l-8.221-4.759l0.01-9.499
				L311.987,69.783 M311.987,68.627l-9.23,5.317l-0.011,10.658l9.22,5.335l9.234-5.315l0.011-10.653l-9.222-5.338L311.987,68.627z"
				/>
			<path id="Path_16227" fill="#365673" d="M90.081,71.857l2.678,1.553v3.091l-2.68,1.543l-2.677-1.548v-3.091L90.081,71.857
				 M90.081,71.481l-3.005,1.731v3.469l3.003,1.735l3.006-1.731v-3.466l-2.998-1.729L90.081,71.481z"/>
			<path id="Path_16228" fill="#365673" d="M45.689,81.147l-3.89-2.25l-3.894,2.242L37.9,85.634l3.891,2.251l3.896-2.244
				L45.689,81.147z"/>
			<path id="Path_16229" fill="#365673" d="M111.948,149.284l-2.063-1.197l-2.069,1.191v2.386l2.065,1.199l2.069-1.191
				L111.948,149.284z"/>
			<path id="Path_16230" fill="#365673" d="M77.397,99.031l22.678,13.127l-0.026,26.204l-22.71,13.083l-22.685-13.131l0.029-26.203
				l22.708-13.083 M77.391,95.849l-25.458,14.668l-0.032,29.384l25.438,14.726l25.465-14.672l0.03-29.384L77.401,95.855
				L77.391,95.849z"/>
			<path id="Path_16231" fill="#365673" d="M375.188,67.385l5.172,2.991l-0.008,5.972l-5.175,2.984l-5.171-2.995l0.007-5.972
				l5.177-2.98 M375.19,66.657l-5.805,3.344l-0.008,6.697l5.798,3.358l5.806-3.347v-6.695l-5.796-3.356L375.19,66.657z"/>
			<path id="Path_16232" fill="#365673" d="M250.889,69.201l1.855,1.073v2.145l-1.857,1.068l-1.854-1.073V70.27l1.857-1.069
				 M250.891,68.939l-2.082,1.198v2.404l2.08,1.204l2.082-1.198v-2.403l-2.08-1.206V68.939z"/>
			<path id="Path_16233" fill="#365673" d="M162.063,138.368l4.882,2.827l-0.005,5.644l-4.889,2.819l-4.888-2.829l0.006-5.645
				L162.063,138.368 M162.062,138.211l-5.03,2.896l-0.005,5.798l5.024,2.908l5.025-2.896l0.006-5.805l-5.021-2.905V138.211z"/>
			<path id="Path_16234" fill="#365673" d="M147.652,58.184l26.81,15.514l-0.038,30.975l-26.839,15.455l-26.809-15.513l0.034-30.977
				L147.652,58.184 M147.652,57.321l-27.588,15.888l-0.033,31.837l27.554,15.943l27.584-15.885l0.036-31.836l-27.553-15.951V57.321z
				"/>
			<path id="Path_16235" fill="#365673" d="M242.419,63.063l38.597,22.339l-0.047,44.591l-38.647,22.252l-38.604-22.339l0.051-44.59
				L242.419,63.063 M242.419,61.823l-39.721,22.872l-0.049,45.834l39.67,22.96l39.723-22.874l0.049-45.834l-39.67-22.962
				L242.419,61.823z"/>
			<path id="Path_16236" fill="#365673" d="M16.025,119.337l25.67,14.864l-0.032,29.667l-25.705,14.805l-25.676-14.862l0.03-29.665
				L16.025,119.337 M16.025,118.506l-26.427,15.226l-0.03,30.492l26.394,15.275l26.415-15.219l0.032-30.496L16.027,118.51
				L16.025,118.506z"/>
			<path id="Path_16237" fill="#365673" d="M195.484,59.985l19.845,11.488l-0.028,22.932l-19.864,11.443l-19.844-11.487l0.026-22.93
				L195.484,59.985 M195.484,59.348L175.06,71.112l-0.02,23.569l20.398,11.806l20.414-11.761l0.025-23.569L195.484,59.348
				L195.484,59.348z"/>
			<path id="Path_16238" fill="#365673" d="M429.327,82.737l2.428,1.404v2.806l-2.431,1.398l-2.43-1.405v-2.805L429.327,82.737
				 M429.327,82.659l-2.499,1.438v2.883l2.496,1.443l2.498-1.438v-2.883L429.327,82.659L429.327,82.659z"/>
			<path id="Path_16239" fill="#365673" d="M369.631,176.726l-26.074-15.09l0.032-30.129l26.106-15.033l26.071,15.091l-0.03,30.126
				l-26.109,15.035 M369.627,177.914l27.139-15.628l0.034-31.315l-27.104-15.688l-27.136,15.631l-0.034,31.314l27.105,15.686
				H369.627z"/>
			<path id="Path_16240" fill="#365673" d="M383.768,85.414l8.225,4.758l-0.009,9.499l-8.232,4.739l-8.222-4.757l0.01-9.5
				l8.232-4.74 M383.772,84.259l-9.233,5.316l-0.011,10.653l9.22,5.335l9.235-5.317l0.009-10.655l-9.222-5.337L383.772,84.259z"/>
			<path id="Path_16241" fill="#365673" d="M161.86,87.49l2.673,1.55v3.091l-2.673,1.543l-2.682-1.548v-3.092l2.684-1.544
				 M161.862,87.115l-3.005,1.731v3.469l3,1.735l3.005-1.731v-3.466l-3.002-1.738H161.862z"/>
			<path id="Path_16242" fill="#365673" d="M107.041,92.678l-3.891-2.251l-3.893,2.243v4.495l3.887,2.251l3.895-2.243
				L107.041,92.678z"/>
			<path id="Path_16243" fill="#365673" d="M183.73,164.914l-2.065-1.199l-2.07,1.193v2.387l2.066,1.198l2.067-1.191L183.73,164.914
				z"/>
			<path id="Path_16244" fill="#365673" d="M-3.314,82.595l5.222,3.023l-0.006,6.036l-5.233,3.013l-5.222-3.025l0.005-6.033
				L-3.314,82.595 M-3.314,81.858l-5.868,3.383l-0.007,6.767l5.857,3.392l5.866-3.378l0.007-6.768l-5.859-3.39L-3.314,81.858z"/>
			<path id="Path_16245" fill="#365673" d="M149.179,114.661l22.679,13.127l-0.026,26.205l-22.709,13.082l-22.682-13.133
				l0.029-26.205l22.709-13.078 M149.179,111.479l-25.462,14.669l-0.032,29.389l25.434,14.726l25.466-14.67l0.03-29.391
				l-25.43-14.722L149.179,111.479z"/>
			<path id="Path_16246" fill="#365673" d="M446.971,83.014l5.169,2.991l-0.006,5.973l-5.178,2.981l-5.171-2.996l0.005-5.97
				l5.179-2.981 M446.969,82.288l-5.804,3.343l-0.006,6.695l5.795,3.358l5.806-3.345l0.007-6.697L446.969,82.288L446.969,82.288z"/>
			<path id="Path_16247" fill="#365673" d="M322.669,84.829l1.854,1.075v2.143l-1.856,1.068l-1.86-1.072V85.9l1.856-1.071
				 M322.663,84.57l-2.081,1.197v2.403l2.08,1.205l2.083-1.198v-2.404l-2.08-1.205L322.663,84.57z"/>
			<path id="Path_16248" fill="#365673" d="M38.213,104.987l4.688,2.712l-0.004,5.413l-4.693,2.706l-4.684-2.715l0.005-5.411
				l4.688-2.702 M38.212,104.84l-4.819,2.775l-0.007,5.563l4.817,2.787l4.82-2.778l0.005-5.562l-4.816-2.789V104.84z"/>
			<path id="Path_16249" fill="#365673" d="M233.847,153.996l4.882,2.827l-0.006,5.645l-4.891,2.816l-4.883-2.826v-5.646
				l4.894-2.816 M233.843,153.84l-5.029,2.896l-0.006,5.799l5.022,2.905l5.025-2.896l0.006-5.805l-5.017-2.905L233.843,153.84z"/>
			<path id="Path_16250" fill="#365673" d="M34.667,166.486l3.268,1.894v3.776l-3.274,1.884l-3.27-1.891v-3.777l3.274-1.886
				 M34.665,166.381l-3.365,1.936v3.883l3.36,1.945l3.366-1.935v-3.885l-3.359-1.944H34.665z"/>
			<path id="Path_16251" fill="#365673" d="M219.432,73.811l26.805,15.517l-0.033,30.975l-26.838,15.457l-26.81-15.516l0.032-30.975
				l26.842-15.459 M219.431,72.95l-27.585,15.889l-0.035,31.836l27.554,15.949l27.582-15.891l0.033-31.834l-27.547-15.947
				L219.431,72.95z"/>
			<path id="Path_16252" fill="#365673" d="M314.199,78.688l38.603,22.34l-0.049,44.591l-38.644,22.255l-38.603-22.338l0.048-44.591
				L314.199,78.688 M314.199,77.449l-39.72,22.874l-0.049,45.834l39.674,22.962l39.718-22.875l0.049-45.835l-39.67-22.96H314.199z"
				/>
			<path id="Path_16253" fill="#365673" d="M87.806,134.964l25.669,14.866l-0.031,29.666l-25.704,14.806L62.061,179.44l0.03-29.665
				L87.806,134.964 M87.806,134.14L61.38,149.361l-0.031,30.494l26.395,15.276l26.417-15.226l0.03-30.495L87.807,134.14H87.806z"/>
			<path id="Path_16254" fill="#365673" d="M267.266,75.615l19.842,11.489l-0.024,22.932l-19.864,11.443l-19.848-11.487
				l0.025-22.931L267.266,75.615 M267.266,74.975l-20.421,11.767l-0.031,23.567l20.398,11.806l20.419-11.764l0.026-23.568
				L267.266,74.975z"/>
		</g>
	</g>
</g>
</svg>
