<?xml version="1.0" encoding="utf-8"?>
<!-- Generator: Adobe Illustrator 14.0.0, SVG Export Plug-In . SVG Version: 6.00 Build 43363)  -->
<!DOCTYPE svg PUBLIC "-//W3C//DTD SVG 1.1//EN" "http://www.w3.org/Graphics/SVG/1.1/DTD/svg11.dtd">
<svg version="1.1" id="Layer_1" xmlns="http://www.w3.org/2000/svg" xmlns:xlink="http://www.w3.org/1999/xlink" x="0px" y="0px"
	 width="67.949px" height="64.004px" viewBox="0 0 67.949 64.004" enable-background="new 0 0 67.949 64.004" xml:space="preserve">
<g id="Group_1228" transform="translate(0)">
	<g id="Group_1227">
		<path id="Path_16034" d="M65.146,54.188H64.2c0.009-0.133,0.009-0.268,0-0.4V3.345c0-1.546-1.254-2.8-2.8-2.8H34.016
			c-1.546,0-2.8,1.254-2.8,2.8v20.818c-2.607,0.632-4.889,2.207-6.406,4.42c-1.86,2.68-2.435,6.046-1.569,9.192
			c1.153,4.42,1.3,10.281-1.089,12.716c-1.374,1.217-3.306,1.58-5.028,0.944c-1.852-0.292-3.434-1.494-4.212-3.2
			c-2.546-5.877,3.811-16.991,3.827-17.039c0.384-0.576,9.24-14.332,0.192-22.419c-0.368-0.384-9.1-9.608-15.838-8.711
			C0.408,0.154-0.076,0.782,0.012,1.467c0.088,0.686,0.715,1.169,1.401,1.081l0,0c1.62-0.097,3.235,0.264,4.66,1.041L4.278,5.75
			C3.307,6.954,3.496,8.716,4.699,9.688c0,0,0,0,0.001,0l0.059,0.047l6.021,4.8c0.494,0.399,1.11,0.616,1.745,0.615h0.24
			c0.738-0.083,1.413-0.458,1.874-1.041l1.745-2.194c5.413,6.918-1.6,17.935-1.778,18.112c-0.288,0.5-7.014,12.267-4,19.218
			c1.113,2.412,3.351,4.117,5.973,4.547c0.808,0.195,1.635,0.295,2.466,0.301c1.794,0.053,3.531-0.637,4.8-1.906
			c3.2-3.348,2.947-10.169,1.7-15c-1.329-4.452,1.191-9.141,5.637-10.489v27.101c-0.01,0.133-0.01,0.267,0,0.399h-0.8
			c-1.546-0.036-2.829,1.187-2.866,2.733c0,0.001,0,0.003,0,0.005c0,0.022,0,0.043,0,0.065v4.211c0,1.547,1.253,2.801,2.8,2.801l0,0
			h34.831c1.546,0,2.799-1.254,2.799-2.801l0,0v-4.221c0.002-1.546-1.25-2.801-2.797-2.803H65.146z M14.546,10.422l-1.778,2.194
			c-0.068,0.082-0.166,0.134-0.272,0.144c-0.103,0.014-0.207-0.015-0.288-0.08l-6.021-4.8c-0.152-0.155-0.152-0.404,0-0.56
			l1.778-2.21c0.068-0.082,0.166-0.134,0.272-0.144c0.103-0.013,0.207,0.016,0.288,0.08l6.021,4.8
			c0.084,0.066,0.136,0.165,0.144,0.272c-0.001,0.118-0.055,0.23-0.147,0.305L14.546,10.422z M33.586,3.344
			c0-0.221,0.179-0.4,0.4-0.4l0,0h27.446c0.221,0,0.399,0.179,0.399,0.4l0,0v50.444c0,0.221-0.179,0.4-0.399,0.4l0,0H34.016
			c-0.22,0.018-0.413-0.146-0.431-0.366c0-0.001,0-0.001,0-0.001c0-0.011,0-0.021,0-0.033V3.345L33.586,3.344z M65.611,61.202
			c0,0.221-0.18,0.4-0.4,0.4l0,0H30.38c-0.221,0-0.4-0.18-0.4-0.4l0,0v-4.211c0-0.221,0.179-0.4,0.4-0.4l0,0h34.767
			c0.218-0.035,0.423,0.113,0.459,0.332c0.003,0.022,0.005,0.045,0.004,0.068L65.611,61.202z"/>
	</g>
</g>
<g id="Group_1651" transform="translate(-36.61 -6.755)">
	<g id="Group_1230" transform="translate(36.61 6.755)">
		<g id="Group_1229">
			<path id="Path_16035" fill="#147DB2" d="M56.176,6.965h-16.59c-1.547,0-2.801,1.254-2.801,2.8l0,0v16.606
				c0,1.546,1.254,2.8,2.801,2.8l0,0h16.59c1.546,0,2.8-1.254,2.8-2.8l0,0V9.765C58.976,8.219,57.722,6.965,56.176,6.965
				L56.176,6.965z M56.575,26.39c-0.009,0.215-0.185,0.384-0.399,0.384h-16.59c-0.222,0-0.4-0.179-0.4-0.399V9.765
				c0-0.221,0.179-0.4,0.4-0.4h16.59c0.221,0,0.399,0.18,0.399,0.4V26.39z"/>
		</g>
	</g>
	<g id="Group_1232" transform="translate(40.117 33.498)">
		<g id="Group_1231">
			<path id="Path_16036" fill="#147DB2" d="M50.795,6.965H37.983c-0.662-0.002-1.201,0.534-1.202,1.197
				c-0.002,0.662,0.534,1.201,1.197,1.202c0.002,0,0.003,0,0.005,0h12.812c0.662,0.002,1.201-0.534,1.202-1.197
				c0.002-0.662-0.534-1.201-1.197-1.202C50.798,6.965,50.797,6.965,50.795,6.965z"/>
		</g>
	</g>
</g>
</svg>
