<svg xmlns="http://www.w3.org/2000/svg" width="50.489" height="68.849" viewBox="0 0 50.489 68.849">
  <g id="Group_1834" data-name="Group 1834" transform="translate(-54 -1456)">
    <g id="Money_bag" data-name="Money bag" transform="translate(54 1456)">
      <path id="Path_16321" data-name="Path 16321" d="M43.277,19.658V16.1L51.13,3.764a1.147,1.147,0,0,0-1.481-1.643l-6.143,3.07a3.565,3.565,0,0,1-4.117-.666,5.871,5.871,0,0,0-8.292,0,3.564,3.564,0,0,1-4.117.668L20.844,2.121a1.147,1.147,0,0,0-1.481,1.643L27.216,16.1v.812H23.769A10.34,10.34,0,0,1,13.439,6.587a1.148,1.148,0,0,0-2.3,0,12.63,12.63,0,0,0,7.4,11.478A12.63,12.63,0,0,0,11.15,29.539a1.148,1.148,0,1,0,2.3,0A10.34,10.34,0,0,1,23.776,19.209h3.443v.445C17.037,24.615,10,39.522,10,50.194c0,12.739,9.673,20.654,25.244,20.654s25.244-7.917,25.244-20.654C60.489,39.522,53.451,24.615,43.277,19.658Zm-13.769-2.74H40.981v2.3H29.507ZM25.95,7.244a5.852,5.852,0,0,0,6.77-1.1,3.573,3.573,0,0,1,5.049,0,5.857,5.857,0,0,0,6.77,1.1l2.434-1.218-5.474,8.6H28.991l-5.472-8.6Zm9.295,61.309c-14.37,0-22.949-6.863-22.949-18.359,0-10.139,6.7-24.338,16.334-28.687h13.23c9.632,4.35,16.334,18.548,16.334,28.687C58.193,61.691,49.614,68.553,35.244,68.553Z" transform="translate(-10 -1.999)"/>
    </g>
    <g id="favorites" transform="translate(67.421 1494.803)">
      <g id="Group_1823" data-name="Group 1823" transform="translate(1.368 0)">
        <g id="Group_1822" data-name="Group 1822" transform="translate(0)">
          <path id="Path_16322" data-name="Path 16322" d="M50.024,12.952a1.56,1.56,0,0,0-.865-2.66L43.984,9.54a.311.311,0,0,1-.233-.171L41.433,4.679a1.56,1.56,0,0,0-2.8,0L36.322,9.369a.311.311,0,0,1-.233.171l-5.175.752a1.56,1.56,0,0,0-.865,2.66l3.74,3.65a.311.311,0,0,1,.089.276L33,22.031a1.56,1.56,0,0,0,2.263,1.644l4.629-2.434a.311.311,0,0,1,.291,0l4.629,2.434a1.56,1.56,0,0,0,2.267-1.644l-.885-5.154a.311.311,0,0,1,.089-.276Zm-5.067,4.133.884,5.154a.311.311,0,0,1-.453.329l-4.628-2.43a1.56,1.56,0,0,0-1.452,0L34.68,22.571a.311.311,0,0,1-.453-.329l.883-5.158a1.559,1.559,0,0,0-.448-1.38l-3.745-3.651a.311.311,0,0,1,.173-.532l5.175-.752a1.56,1.56,0,0,0,1.174-.854l2.315-4.684a.311.311,0,0,1,.559,0h0l2.314,4.689a1.559,1.559,0,0,0,1.174.854l5.175.752a.311.311,0,0,1,.173.532L45.405,15.71A1.559,1.559,0,0,0,44.957,17.085Z" transform="translate(-29.579 -3.811)" fill="#147db2"/>
        </g>
      </g>
      <g id="Group_1825" data-name="Group 1825" transform="translate(17.458 0.749)">
        <g id="Group_1824" data-name="Group 1824" transform="translate(0 0)">
          <path id="Path_16323" data-name="Path 16323" d="M379.654,20.165a.621.621,0,0,0-.872.138l-.663.911a.624.624,0,1,0,1.01.733l.663-.911a.621.621,0,0,0-.138-.872Z" transform="translate(-378.001 -20.045)" fill="#147db2"/>
        </g>
      </g>
      <g id="Group_1827" data-name="Group 1827" transform="translate(4.275 0.748)">
        <g id="Group_1826" data-name="Group 1826" transform="translate(0 0)">
          <path id="Path_16324" data-name="Path 16324" d="M94.384,21.136l-.666-.91a.624.624,0,1,0-1.01.733l.663.911a.624.624,0,0,0,1.01-.733Z" transform="translate(-92.59 -19.969)" fill="#147db2"/>
        </g>
      </g>
      <g id="Group_1829" data-name="Group 1829" transform="translate(0 13.564)">
        <g id="Group_1828" data-name="Group 1828" transform="translate(0 0)">
          <path id="Path_16325" data-name="Path 16325" d="M2.29,297.925a.621.621,0,0,0-.786-.4l-1.071.348a.624.624,0,0,0,.388,1.187l1.071-.348a.621.621,0,0,0,.4-.786Z" transform="translate(-0.002 -297.493)" fill="#147db2"/>
        </g>
      </g>
      <g id="Group_1831" data-name="Group 1831" transform="translate(11.201 20.922)">
        <g id="Group_1830" data-name="Group 1830" transform="translate(0)">
          <path id="Path_16326" data-name="Path 16326" d="M243.121,456.786a.621.621,0,0,0-.621.621v1.126a.624.624,0,0,0,1.247,0v-1.126a.621.621,0,0,0-.626-.621Z" transform="translate(-242.5 -456.786)" fill="#147db2"/>
        </g>
      </g>
      <g id="Group_1833" data-name="Group 1833" transform="translate(21.327 13.565)">
        <g id="Group_1832" data-name="Group 1832" transform="translate(0 0)">
          <path id="Path_16327" data-name="Path 16327" d="M463.671,297.891l-1.071-.348a.624.624,0,1,0-.388,1.187l1.071.348a.624.624,0,1,0,.388-1.187Z" transform="translate(-461.781 -297.512)" fill="#147db2"/>
        </g>
      </g>
    </g>
  </g>
</svg>
