<svg xmlns="http://www.w3.org/2000/svg" width="62" height="62" viewBox="0 0 62 62">
  <g id="Group_1647" data-name="Group 1647" transform="translate(-1015 -2673)">
    <path id="Path_16528" data-name="Path 16528" d="M31,0A31,31,0,0,1,62,31a31.862,31.862,0,0,1-.693,6.55A31,31,0,1,1,31,0Z" transform="translate(1015 2673)" fill="#ff8000"/>
    <g id="menu" transform="translate(1033.5 2691.999)">
      <path id="Path_16197" data-name="Path 16197" d="M.213,26.489a.439.439,0,0,0,.222.06A.428.428,0,0,0,.629,26.5l8.742-4.521L17.823,26.5a.415.415,0,0,0,.385,0l9.02-4.621a.427.427,0,0,0,.239-.369V.415a.432.432,0,0,0-.624-.369L18.025,4.569,9.57.12a.416.416,0,0,0-.382,0L.241,4.666A.428.428,0,0,0,0,5.036v21.1a.427.427,0,0,0,.212.354Zm17.368-1.067L9.767,21.262V1.17l7.813,4.094Zm9.057-4.161-8.228,4.216V5.309l8.228-4.216ZM.829,5.29,8.939,1.166v20.1L.829,25.454Zm0,0" transform="translate(0 0)" fill="#fff"/>
      <path id="Path_16198" data-name="Path 16198" d="M332.362,106.942a.413.413,0,0,0,.189-.046l5.027-2.58a.414.414,0,1,0-.378-.737l-5.027,2.58a.414.414,0,0,0,.189.783Zm0,0" transform="translate(-312.298 -97.403)" fill="#fff"/>
      <path id="Path_16199" data-name="Path 16199" d="M332.358,156.286a.414.414,0,0,0,.189-.046l5.027-2.58a.414.414,0,1,0-.378-.737l-5.027,2.58a.414.414,0,0,0,.189.783Zm0,0" transform="translate(-312.294 -143.825)" fill="#fff"/>
      <path id="Path_16200" data-name="Path 16200" d="M337.179,202.271l-5.027,2.579a.414.414,0,1,0,.378.737l5.027-2.58a.414.414,0,1,0-.378-.737Zm0,0" transform="translate(-312.277 -190.252)" fill="#fff"/>
      <path id="Path_16201" data-name="Path 16201" d="M37.742,223.013l-5.028,2.58a.414.414,0,1,0,.379.737l5.027-2.58a.414.414,0,1,0-.378-.737Zm0,0" transform="translate(-30.564 -209.767)" fill="#fff"/>
      <path id="Path_16202" data-name="Path 16202" d="M37.742,272.362l-5.028,2.579a.414.414,0,1,0,.379.737l5.027-2.58a.414.414,0,1,0-.378-.737Zm0,0" transform="translate(-30.564 -256.195)" fill="#fff"/>
      <path id="Path_16203" data-name="Path 16203" d="M191.029,159.614l-4.65-2.447a.414.414,0,0,0-.386.733l4.65,2.447a.414.414,0,1,0,.386-.733Zm0,0" transform="translate(-174.778 -147.819)" fill="#fff"/>
      <path id="Path_16204" data-name="Path 16204" d="M185.941,98.654l4.65,2.447a.414.414,0,1,0,.386-.733l-4.65-2.447a.414.414,0,0,0-.386.733Zm0,0" transform="translate(-174.726 -92.078)" fill="#fff"/>
      <path id="Path_16205" data-name="Path 16205" d="M38.609,84.866a.4.4,0,0,0-.4-.015l-5.01,2.58a.4.4,0,0,0-.207.369V91.3a.4.4,0,0,0,.184.354.389.389,0,0,0,.209.061.4.4,0,0,0,.185-.046l5.012-2.58a.4.4,0,0,0,.21-.369V85.22A.4.4,0,0,0,38.609,84.866Zm-.644,3.606-4.143,2.154V88.052L37.965,85.9Zm0,0" transform="translate(-31.039 -79.784)" fill="#fff"/>
      <path id="Path_16206" data-name="Path 16206" d="M191.23,228.675l-4.646-2.447a.4.4,0,0,0-.4.012.405.405,0,0,0-.19.355v4.09a.407.407,0,0,0,.213.366l4.646,2.447a.407.407,0,0,0,.191.048.383.383,0,0,0,.2-.06.406.406,0,0,0,.191-.355v-4.09A.407.407,0,0,0,191.23,228.675Zm-.616,3.77-3.788-2.011v-3.153l3.788,2.011Zm0,0" transform="translate(-174.987 -212.791)" fill="#fff"/>
    </g>
  </g>
</svg>
