<?xml version="1.0" encoding="utf-8"?>
<!-- Generator: Adobe Illustrator 14.0.0, SVG Export Plug-In . SVG Version: 6.00 Build 43363)  -->
<!DOCTYPE svg PUBLIC "-//W3C//DTD SVG 1.1//EN" "http://www.w3.org/Graphics/SVG/1.1/DTD/svg11.dtd">
<svg version="1.1" id="bus" xmlns="http://www.w3.org/2000/svg" xmlns:xlink="http://www.w3.org/1999/xlink" x="0px" y="0px"
	 width="69.766px" height="49.055px" viewBox="0 0 69.766 49.055" enable-background="new 0 0 69.766 49.055" xml:space="preserve">
<path id="Path_15927" fill="#10BEDA" d="M18.396,44.966c0,2.258-1.83,4.089-4.088,4.089s-4.088-1.831-4.088-4.089
	s1.83-4.088,4.088-4.088S18.396,42.708,18.396,44.966L18.396,44.966z"/>
<path id="Path_15928" fill="#10BEDA" d="M59.683,44.966c0,2.258-1.83,4.089-4.088,4.089s-4.088-1.831-4.088-4.089
	s1.83-4.088,4.088-4.088l0,0C57.853,40.878,59.683,42.708,59.683,44.966z"/>
<path id="Path_15929" fill="#10BEDA" d="M45.375,12.263h8.176v8.176h-8.176V12.263z"/>
<path id="Path_15930" fill="#10BEDA" d="M0,12.263h12.263v8.176H0V12.263z"/>
<path id="Path_15931" fill="#10BEDA" d="M28.615,24.527h12.672v20.438H28.615V24.527z"/>
<path id="Path_15932" fill="#10BEDA" d="M28.615,12.263h12.672v8.176H28.615V12.263z"/>
<path id="Path_15933" fill="#10BEDA" d="M16.351,12.263h8.176v8.176h-8.176V12.263z"/>
<path id="Path_15934" fill="#10BEDA" d="M69.765,17.481l-2.688-5.217h-9.439v8.176h12.127V17.481z"/>
<path id="Path_15935" fill="#10BEDA" d="M6.132,44.966c0.05-4.515,3.751-8.135,8.266-8.085c4.445,0.05,8.036,3.641,8.085,8.085
	h2.044V24.527H0v14.307C0.004,42.219,2.747,44.962,6.132,44.966z"/>
<path id="Path_15936" fill="#10BEDA" d="M67.858,32.703h1.908v-8.176H45.375v20.438h2.044c-0.05-4.515,3.57-8.216,8.086-8.265
	c4.515-0.05,8.215,3.57,8.265,8.085c0.001,0.061,0.001,0.12,0,0.18c3.327-0.013,6.014-2.72,6.001-6.047c0-0.028,0-0.057-0.001-0.085
	V36.79h-1.908c-1.128,0.001-2.045-0.913-2.046-2.042S66.729,32.703,67.858,32.703c0.001-0.001,0.003-0.001,0.004-0.001
	L67.858,32.703z"/>
<path id="Path_15937" fill="#10BEDA" d="M62.641,3.389C61.608,1.306,59.48-0.008,57.155,0H6.132C2.747,0.004,0.004,2.747,0,6.132
	v2.044h65.034L62.641,3.389z"/>
</svg>
