<svg id="business-and-finance" xmlns="http://www.w3.org/2000/svg" width="38" height="38" viewBox="0 0 38 38">
  <path id="Path_16372" data-name="Path 16372" d="M70.129,4.29V3.065a3.065,3.065,0,1,0-6.129,0V4.29a3.065,3.065,0,1,0,6.129,0Zm-1.226,0a1.839,1.839,0,0,1-3.677,0V3.065a1.839,1.839,0,0,1,3.677,0Zm0,0" transform="translate(-59.097)" fill="#fff"/>
  <path id="Path_16373" data-name="Path 16373" d="M74.419,107.645h-4.29v-5.516H78.1a1.839,1.839,0,0,0,0-3.677h-8.03A3.064,3.064,0,0,0,64,99.065v10.419a3.068,3.068,0,0,0,3.065,3.065H72.58v8.581a2.452,2.452,0,0,0,4.9,0V110.71a3.068,3.068,0,0,0-3.065-3.065Zm4.29-7.355a.614.614,0,0,1-.613.613H68.29a.613.613,0,0,1,0-1.226H78.1A.614.614,0,0,1,78.709,100.29Zm-2.452,20.839a1.226,1.226,0,1,1-2.452,0v-9.194a.613.613,0,0,0-.613-.613H67.064a1.841,1.841,0,0,1-1.839-1.839V99.065a1.834,1.834,0,0,1,3.565-.613h-.5a1.839,1.839,0,1,0,0,3.677H68.9v6.129a.613.613,0,0,0,.613.613h4.9a1.841,1.841,0,0,1,1.839,1.839Zm0,0" transform="translate(-59.096 -88.645)" fill="#fff"/>
  <path id="Path_16374" data-name="Path 16374" d="M11.645,121.161H3.677V105.839a1.839,1.839,0,0,0-3.677,0v18.387a.613.613,0,0,0,.613.613H4.29v5.516H3.065A3.068,3.068,0,0,0,0,133.419a.613.613,0,0,0,.613.613H11.645a.613.613,0,0,0,.613-.613,3.068,3.068,0,0,0-3.065-3.065H7.968v-5.516h3.677a.613.613,0,0,0,.613-.613v-2.452A.613.613,0,0,0,11.645,121.161Zm-.718,11.645h-9.6a1.842,1.842,0,0,1,1.734-1.226H9.194a1.842,1.842,0,0,1,1.734,1.226Zm-4.186-2.452H5.516v-5.516H6.742Zm4.29-6.742H1.226V105.839a.613.613,0,0,1,1.226,0v15.935a.613.613,0,0,0,.613.613h7.968Zm0,0" transform="translate(0 -96.032)" fill="#fff"/>
  <path id="Path_16375" data-name="Path 16375" d="M244.226,192H224.613a.613.613,0,0,0-.613.613v2.452a.613.613,0,0,0,.613.613h1.839v19a.613.613,0,0,0,.613.613h2.452a.613.613,0,0,0,.613-.613v-4.29h8.581v4.29a.613.613,0,0,0,.613.613h2.452a.613.613,0,0,0,.613-.613v-19h1.839a.613.613,0,0,0,.613-.613v-2.452A.613.613,0,0,0,244.226,192ZM228.9,214.065h-1.226V195.677H228.9Zm9.806-18.387V206.71h-8.581V195.677Zm-8.581,13.484v-1.226h8.581v1.226Zm11.032,4.9h-1.226V195.677h1.226Zm2.452-19.613H225.226v-1.226h18.387Zm0,0" transform="translate(-206.839 -177.29)" fill="#fff"/>
  <path id="Path_16376" data-name="Path 16376" d="M295.29,91.091l3.064-6.129-1.1-.549-2.9,5.791H288v1.226h6.742A.613.613,0,0,0,295.29,91.091Zm0,0" transform="translate(-265.935 -77.947)" fill="#fff"/>
</svg>
