<?xml version="1.0" encoding="utf-8"?>
<!-- Generator: Adobe Illustrator 14.0.0, SVG Export Plug-In . SVG Version: 6.00 Build 43363)  -->
<!DOCTYPE svg PUBLIC "-//W3C//DTD SVG 1.1//EN" "http://www.w3.org/Graphics/SVG/1.1/DTD/svg11.dtd">
<svg version="1.1" id="shopping" xmlns="http://www.w3.org/2000/svg" xmlns:xlink="http://www.w3.org/1999/xlink" x="0px" y="0px"
	 width="45px" height="40px" viewBox="-0.981 0 45 40" enable-background="new -0.981 0 45 40" xml:space="preserve">
<path id="Path_15977" fill="#073B68" d="M19.364,26.594c0.328-0.329,0.329-0.861,0-1.189c-0.328-0.329-0.861-0.329-1.189-0.001
	c-0.328,0.328-0.329,0.86,0,1.189c0,0,0,0,0,0.001C18.503,26.921,19.035,26.921,19.364,26.594z"/>
<path id="Path_15987" fill="#1379AD" d="M14.2,20c-0.5,0,0-18.667,0-18.667h20.838V18.5l-3,3.667l-1-0.833H19.2
	C19.2,21.334,14.7,20,14.2,20z"/>
<path id="Path_15978" fill="#FFFFFF" d="M19.671,6.809V8.49c0.039,2.785,2.329,5.012,5.114,4.973
	c2.73-0.039,4.936-2.243,4.973-4.973V6.809c0.465,0.016,0.854-0.347,0.87-0.812s-0.347-0.854-0.812-0.87c-0.02,0-0.039,0-0.059,0
	h-1.68c-0.465,0.016-0.828,0.405-0.813,0.87c0.016,0.442,0.37,0.796,0.813,0.812V8.49c0,1.857-1.506,3.362-3.363,3.362
	s-3.362-1.505-3.362-3.362V6.809c0.464-0.016,0.827-0.405,0.812-0.87c-0.016-0.442-0.37-0.796-0.812-0.812h-1.681
	c-0.464,0.016-0.827,0.405-0.812,0.87C18.875,6.439,19.229,6.794,19.671,6.809z"/>
<path id="Path_15979" fill="#FEFEFF" d="M9.769,39.754c0.328,0.328,0.86,0.328,1.188,0l2.581-2.581
	c0.833-0.827,1.248-1.985,1.129-3.153l0.926-0.895c0.729-0.707,1.704-1.102,2.719-1.1h11.066c1.973,0.004,3.867-0.766,5.276-2.145
	c0.021-0.02,0.04-0.041,0.06-0.064l7.529-9.043c1.185-1.43,0.985-3.55-0.445-4.734c-1.402-1.161-3.473-0.996-4.672,0.372
	l-0.813,0.841V0.84C36.312,0.377,35.937,0.001,35.474,0H13.87c-0.465,0-0.841,0.376-0.841,0.841v18.832
	c-3.176,0.621-5.864,2.724-7.229,5.658c-1.104-0.059-2.181,0.356-2.96,1.142l-2.593,2.582c-0.329,0.327-0.33,0.859-0.002,1.188
	c0.001,0.001,0.001,0.001,0.002,0.002L9.769,39.754z M34.632,1.681v17.311l-2.432,2.515c-0.64-0.787-1.598-1.246-2.611-1.249h-9.747
	c-0.059-0.001-0.117-0.013-0.171-0.036c-1.309-0.532-2.708-0.804-4.121-0.8c-0.281,0-0.562,0.01-0.841,0.029V1.681H34.632z
	 M13.99,21.209c1.704-0.27,3.449-0.072,5.05,0.57c0.254,0.105,0.525,0.159,0.8,0.16h9.746c0.93,0.001,1.682,0.754,1.681,1.683
	c-0.001,0.928-0.753,1.68-1.681,1.68h-7.31c-0.464-0.016-0.854,0.348-0.87,0.812c-0.016,0.465,0.348,0.854,0.812,0.869
	c0.02,0.002,0.039,0.002,0.058,0h7.313c1.855-0.002,3.359-1.506,3.361-3.361c0-0.147-0.01-0.295-0.029-0.441
	c0.175-0.18,5.256-5.435,5.432-5.617c0.014-0.013,0.025-0.027,0.037-0.041c0.6-0.708,1.661-0.796,2.369-0.196
	c0.709,0.6,0.797,1.661,0.197,2.37l-7.506,9.013c-1.094,1.055-2.554,1.642-4.072,1.639H18.312c-1.45-0.004-2.844,0.56-3.886,1.568
	l-0.371,0.357c-0.149-0.229-0.322-0.441-0.516-0.635l-5.163-5.166C8.103,26.2,7.79,25.969,7.449,25.787
	C8.721,23.258,11.179,21.537,13.99,21.209L13.99,21.209z M4.029,27.662c0.869-0.872,2.281-0.874,3.152-0.005
	c0.001,0.001,0.003,0.003,0.005,0.005l5.164,5.163c0.872,0.87,0.873,2.282,0.003,3.153c-0.001,0.002-0.002,0.002-0.003,0.004
	l-1.988,1.988l-8.331-8.32L4.029,27.662z"/>
</svg>
