<svg xmlns="http://www.w3.org/2000/svg" width="31.346" height="33.377" viewBox="0 0 31.346 33.377">
  <g id="call" transform="translate(-0.359 -0.002)">
    <g id="Group_1241" data-name="Group 1241" transform="translate(0.344)">
      <path id="Path_16053" data-name="Path 16053" d="M24.8,45.989a2.966,2.966,0,0,0-2.21-1.082,3.063,3.063,0,0,0-2.236,1.075l-2.066,2.2c-.17-.1-.34-.189-.5-.279-.235-.126-.458-.244-.647-.37a23.06,23.06,0,0,1-5.38-5.237A14.323,14.323,0,0,1,10,39.32c.536-.524,1.033-1.068,1.517-1.592.183-.2.366-.4.549-.594a3.35,3.35,0,0,0,0-4.832L10.276,30.4c-.2-.216-.412-.44-.608-.663-.392-.433-.8-.88-1.229-1.3a3,3,0,0,0-2.19-1.027,3.107,3.107,0,0,0-2.223,1.027l-.013.014-2.223,2.4A5.263,5.263,0,0,0,.371,34.089a12.983,12.983,0,0,0,.837,5.182,30.556,30.556,0,0,0,5,8.911A31.154,31.154,0,0,0,16.454,56.75a15.22,15.22,0,0,0,5.753,1.816c.137.007.281.014.412.014a4.785,4.785,0,0,0,3.772-1.732c.007-.014.02-.021.026-.035a15.464,15.464,0,0,1,1.144-1.264c.281-.286.569-.587.85-.9a3.6,3.6,0,0,0,.987-2.416,3.464,3.464,0,0,0-1.007-2.4Zm2.34,7.353c-.007,0-.007.007,0,0-.255.293-.516.559-.8.852a17.885,17.885,0,0,0-1.262,1.4A3.06,3.06,0,0,1,22.62,56.7c-.1,0-.2,0-.3-.007a13.526,13.526,0,0,1-5.1-1.634A29.408,29.408,0,0,1,7.57,46.99a28.809,28.809,0,0,1-4.707-8.373,10.579,10.579,0,0,1-.732-4.372,3.3,3.3,0,0,1,.9-2.074L5.26,29.79a1.446,1.446,0,0,1,.994-.5,1.367,1.367,0,0,1,.954.489l.02.021c.4.4.778.81,1.177,1.25.2.223.412.447.621.677l1.785,1.906a1.387,1.387,0,0,1,0,2.165c-.19.2-.373.4-.562.6-.549.6-1.072,1.159-1.641,1.7-.013.014-.026.021-.033.035a1.5,1.5,0,0,0-.34,1.585l.02.063a15.533,15.533,0,0,0,2.112,3.68l.007.007a24.641,24.641,0,0,0,5.805,5.643,8.762,8.762,0,0,0,.8.468c.235.126.458.244.647.37.026.014.052.035.078.049a1.345,1.345,0,0,0,.647.175,1.367,1.367,0,0,0,.994-.482L21.581,47.3a1.448,1.448,0,0,1,.987-.524,1.306,1.306,0,0,1,.941.51l.013.014,3.6,3.848a1.439,1.439,0,0,1,.021,2.191Z" transform="translate(-0.344 -25.202)" fill="#fff"/>
      <path id="Path_16054" data-name="Path 16054" d="M245.837,88.079a10.349,10.349,0,0,1,8.427,8.427,1.079,1.079,0,0,0,1.07.9,1.438,1.438,0,0,0,.185-.016,1.087,1.087,0,0,0,.893-1.254,12.514,12.514,0,0,0-10.2-10.2,1.091,1.091,0,0,0-1.254.885,1.074,1.074,0,0,0,.879,1.258Z" transform="translate(-230.223 -80.242)" fill="#fff"/>
      <path id="Path_16055" data-name="Path 16055" d="M266.826,16.807A20.6,20.6,0,0,0,250.036.017a1.084,1.084,0,1,0-.354,2.139,18.4,18.4,0,0,1,15,15,1.079,1.079,0,0,0,1.069.9,1.436,1.436,0,0,0,.185-.016,1.065,1.065,0,0,0,.89-1.233Z" transform="translate(-235.481)" fill="#fff"/>
    </g>
  </g>
</svg>
