<svg xmlns="http://www.w3.org/2000/svg" width="51.719" height="45.155" viewBox="0 0 51.719 45.155">
  <g id="chat" transform="translate(0 -31.05)">
    <g id="Group_1361" data-name="Group 1361" transform="translate(0 31.05)">
      <path id="XMLID_61_" d="M196.463,61.628h12.948l6.955,6.659V61.628h2.949a3.771,3.771,0,0,0,3.763-3.763V43.913a3.771,3.771,0,0,0-3.763-3.763H196.463a3.771,3.771,0,0,0-3.763,3.763V57.865A3.771,3.771,0,0,0,196.463,61.628Z" transform="translate(-172.331 -39.188)" fill="#a7a9ac"/>
      <path id="Path_16127" data-name="Path 16127" d="M7.241,205.715a.939.939,0,0,0,.381.074.981.981,0,0,0,.666-.264l6.627-6.342H27.377a4.7,4.7,0,0,0,4.693-4.693v-7.071a.962.962,0,1,0-1.924,0v7.071a2.772,2.772,0,0,1-2.769,2.769H14.523a.981.981,0,0,0-.666.264l-5.285,5.053v-4.344a.965.965,0,0,0-.962-.962H4.693A2.772,2.772,0,0,1,1.924,194.5V180.654a2.781,2.781,0,0,1,2.769-2.78H16.035a.962.962,0,1,0,0-1.924H4.693A4.7,4.7,0,0,0,0,180.643V194.49a4.7,4.7,0,0,0,4.693,4.693H6.659v5.655A.959.959,0,0,0,7.241,205.715Z" transform="translate(0 -160.634)"/>
      <path id="Path_16128" data-name="Path 16128" d="M200.893,54.452l6.68,6.395a.986.986,0,0,0,1.046.19.959.959,0,0,0,.581-.877V54.452h1.987a4.73,4.73,0,0,0,4.725-4.725V35.775a4.73,4.73,0,0,0-4.725-4.725H188.325a4.73,4.73,0,0,0-4.725,4.725V49.727a4.73,4.73,0,0,0,4.725,4.725Zm-15.369-4.725V35.775a2.806,2.806,0,0,1,2.8-2.8h22.853a2.806,2.806,0,0,1,2.8,2.8V49.727a2.806,2.806,0,0,1-2.8,2.8h-2.949a.965.965,0,0,0-.962.962v4.418L201.929,52.8a.962.962,0,0,0-.666-.264H188.325A2.808,2.808,0,0,1,185.524,49.727Z" transform="translate(-164.193 -31.05)"/>
      <path id="Path_16129" data-name="Path 16129" d="M328.262,136.374a.975.975,0,1,0-.677-.285A.919.919,0,0,0,328.262,136.374Z" transform="translate(-292.704 -123.521)"/>
      <path id="Path_16130" data-name="Path 16130" d="M362.062,136.374a.975.975,0,1,0-.676-.285A.9.9,0,0,0,362.062,136.374Z" transform="translate(-322.931 -123.521)"/>
      <path id="Path_16131" data-name="Path 16131" d="M294.562,136.374a.975.975,0,1,0-.676-.285A.919.919,0,0,0,294.562,136.374Z" transform="translate(-262.566 -123.521)"/>
    </g>
  </g>
</svg>
