<svg xmlns="http://www.w3.org/2000/svg" width="85.521" height="88.47" viewBox="0 0 85.521 88.47">
  <g id="cityscape" transform="translate(-8.535)">
    <g id="Group_1586" data-name="Group 1586" transform="translate(8.535)">
      <g id="Group_1585" data-name="Group 1585" transform="translate(0)">
        <path id="Path_16329" data-name="Path 16329" d="M44.141,375.468a1.475,1.475,0,0,0-1.474,1.474v2.949a1.474,1.474,0,0,0,2.949,0v-2.949A1.475,1.475,0,0,0,44.141,375.468Z" transform="translate(-36.769 -310.59)" fill="#26cbba"/>
        <path id="Path_16330" data-name="Path 16330" d="M44.141,426.668a1.475,1.475,0,0,0-1.474,1.474v2.949a1.474,1.474,0,1,0,2.949,0v-2.949A1.475,1.475,0,0,0,44.141,426.668Z" transform="translate(-36.769 -352.942)" fill="#26cbba"/>
        <path id="Path_16331" data-name="Path 16331" d="M44.141,324.268a1.475,1.475,0,0,0-1.474,1.474v2.949a1.474,1.474,0,0,0,2.949,0v-2.949A1.475,1.475,0,0,0,44.141,324.268Z" transform="translate(-36.769 -268.237)" fill="#26cbba"/>
        <path id="Path_16332" data-name="Path 16332" d="M78.274,375.468a1.475,1.475,0,0,0-1.474,1.474v2.949a1.474,1.474,0,0,0,2.949,0v-2.949A1.475,1.475,0,0,0,78.274,375.468Z" transform="translate(-65.004 -310.59)" fill="#26cbba"/>
        <path id="Path_16333" data-name="Path 16333" d="M78.274,324.268a1.475,1.475,0,0,0-1.474,1.474v2.949a1.474,1.474,0,0,0,2.949,0v-2.949A1.475,1.475,0,0,0,78.274,324.268Z" transform="translate(-65.004 -268.237)" fill="#26cbba"/>
        <path id="Path_16334" data-name="Path 16334" d="M78.274,426.668a1.475,1.475,0,0,0-1.474,1.474v2.949a1.474,1.474,0,1,0,2.949,0v-2.949A1.475,1.475,0,0,0,78.274,426.668Z" transform="translate(-65.004 -352.942)" fill="#26cbba"/>
        <path id="Path_16335" data-name="Path 16335" d="M92.581,16.22H89.632V11.8a1.475,1.475,0,0,0-1.474-1.474H79.311A1.475,1.475,0,0,0,77.836,11.8V16.22H74.887a1.475,1.475,0,0,0-1.474,1.474V41.286H71.939V36.863a1.475,1.475,0,0,0-1.474-1.474H68.989V33.914a1.474,1.474,0,1,0-2.949,0v1.474H64.566a1.475,1.475,0,0,0-1.474,1.474v4.424H58.668V11.8a1.475,1.475,0,0,0-1.474-1.474H52.77V1.475A1.475,1.475,0,0,0,51.3,0H33.6a1.475,1.475,0,0,0-1.474,1.474v8.847H27.7A1.475,1.475,0,0,0,26.229,11.8V50.133H23.28V45.71a1.475,1.475,0,0,0-1.474-1.474H12.958a1.475,1.475,0,0,0-1.474,1.474v4.424H10.009a1.475,1.475,0,0,0-1.474,1.474V87a1.475,1.475,0,0,0,1.474,1.474H92.582A1.475,1.475,0,0,0,94.056,87v-69.3A1.475,1.475,0,0,0,92.581,16.22ZM49.821,17.694a1.474,1.474,0,1,1,2.949,0V41.286H49.821V17.694Zm-5.9-10.321a1.474,1.474,0,0,1,2.949,0V11.8a1.474,1.474,0,0,1-2.949,0Zm0,10.321a1.474,1.474,0,0,1,2.949,0V41.286H43.923V17.694Zm-5.9-10.321a1.474,1.474,0,1,1,2.949,0V11.8a1.474,1.474,0,1,1-2.949,0Zm-5.9,10.321a1.474,1.474,0,0,1,2.949,0V50.133H32.127V17.694Zm5.9,64.878H33.6a1.474,1.474,0,0,1,0-2.949h4.424Zm0-5.9H33.6a1.474,1.474,0,0,1,0-2.949h4.424Zm0-5.9H33.6a1.474,1.474,0,1,1,0-2.949h4.424Zm0-5.9H33.6a1.474,1.474,0,0,1,0-2.949h4.424Zm0-8.847H27.7a1.475,1.475,0,0,0-1.474,1.474V85.521H11.484V53.082H38.025v2.949Zm0-13.271V17.694a1.474,1.474,0,1,1,2.949,0V41.286H39.5A1.475,1.475,0,0,0,38.025,42.761ZM73.413,85.521H70.464V48.659a1.474,1.474,0,0,0-2.949,0V85.521H64.566V48.659a1.474,1.474,0,0,0-2.949,0V85.521H58.668V48.659a1.474,1.474,0,0,0-2.949,0V85.521H52.77V48.659a1.474,1.474,0,0,0-2.949,0V85.521H46.872V48.659a1.474,1.474,0,0,0-2.949,0V85.521H40.974V44.235H73.413Zm8.847-5.61a1.474,1.474,0,0,1-2.949,0V76.962a1.474,1.474,0,0,1,2.949,0Zm0-8.847a1.474,1.474,0,0,1-2.949,0V68.115a1.474,1.474,0,0,1,2.949,0Zm0-8.847a1.474,1.474,0,0,1-2.949,0V59.268a1.474,1.474,0,0,1,2.949,0Zm0-8.847a1.474,1.474,0,0,1-2.949,0V50.421a1.474,1.474,0,0,1,2.949,0Zm0-8.847a1.474,1.474,0,1,1-2.949,0V41.574a1.474,1.474,0,0,1,2.949,0Zm0-8.847a1.474,1.474,0,1,1-2.949,0V32.727a1.474,1.474,0,0,1,2.949,0Zm0-8.847a1.474,1.474,0,0,1-2.949,0V23.88a1.474,1.474,0,0,1,2.949,0Zm5.9,53.082a1.474,1.474,0,0,1-2.949,0V76.962a1.474,1.474,0,0,1,2.949,0Zm0-8.847a1.474,1.474,0,0,1-2.949,0V68.115a1.474,1.474,0,0,1,2.949,0Zm0-8.847a1.474,1.474,0,0,1-2.949,0V59.268a1.474,1.474,0,0,1,2.949,0Zm0-8.847a1.474,1.474,0,0,1-2.949,0V50.421a1.474,1.474,0,0,1,2.949,0Zm0-8.847a1.474,1.474,0,1,1-2.949,0V41.574a1.474,1.474,0,0,1,2.949,0Zm0-8.847a1.474,1.474,0,1,1-2.949,0V32.727a1.474,1.474,0,0,1,2.949,0Zm0-8.847a1.474,1.474,0,0,1-2.949,0V23.88a1.474,1.474,0,0,1,2.949,0Z" transform="translate(-8.535)" fill="#26cbba"/>
      </g>
    </g>
  </g>
</svg>
