<svg xmlns="http://www.w3.org/2000/svg" xmlns:xlink="http://www.w3.org/1999/xlink" width="56.79" height="56.504" viewBox="0 0 56.79 56.504">
  <defs>
    <linearGradient id="linear-gradient" x1="0.5" x2="0.5" y2="1" gradientUnits="objectBoundingBox">
      <stop offset="0.13" stop-color="#00a9ed"/>
      <stop offset="1" stop-color="#65106b"/>
    </linearGradient>
  </defs>
  <g id="edit" transform="translate(0 -0.261)">
    <path id="Path_16363" data-name="Path 16363" d="M52.415,69.128A1.414,1.414,0,0,0,51,70.543V83.1a4.247,4.247,0,0,1-4.243,4.243H7.072A4.247,4.247,0,0,1,2.829,83.1V46.244A4.248,4.248,0,0,1,7.072,42H19.63a1.414,1.414,0,1,0,0-2.829H7.072A7.08,7.08,0,0,0,0,46.244V83.1a7.08,7.08,0,0,0,7.072,7.072H46.757A7.08,7.08,0,0,0,53.829,83.1V70.543a1.414,1.414,0,0,0-1.414-1.414Zm0,0" transform="translate(0 -33.408)" fill="url(#linear-gradient)"/>
    <path id="Path_16364" data-name="Path 16364" d="M146.157,2.125a6.365,6.365,0,0,0-9,0L111.923,27.358a1.414,1.414,0,0,0-.363.623l-3.318,11.98a1.414,1.414,0,0,0,1.74,1.741l11.98-3.319a1.414,1.414,0,0,0,.623-.363l25.232-25.234a6.372,6.372,0,0,0,0-9ZM115,28.277,135.656,7.625l6.66,6.66L121.664,34.938Zm-1.33,2.67L119,36.268l-7.36,2.039Zm32.142-20.161-1.5,1.5-6.661-6.661,1.5-1.5a3.536,3.536,0,0,1,5,0l1.66,1.66A3.541,3.541,0,0,1,145.817,10.786Zm0,0" transform="translate(-92.888)" fill="url(#linear-gradient)"/>
  </g>
</svg>
