<?xml version="1.0" encoding="utf-8"?>
<!-- Generator: Adobe Illustrator 14.0.0, SVG Export Plug-In . SVG Version: 6.00 Build 43363)  -->
<!DOCTYPE svg PUBLIC "-//W3C//DTD SVG 1.1//EN" "http://www.w3.org/Graphics/SVG/1.1/DTD/svg11.dtd">
<svg version="1.1" id="Layer_1" xmlns="http://www.w3.org/2000/svg" xmlns:xlink="http://www.w3.org/1999/xlink" x="0px" y="0px"
	 width="45px" height="40px" viewBox="-1.784 0.542 45 40" enable-background="new -1.784 0.542 45 40" xml:space="preserve">
<g id="Group_1411" transform="translate(-737 -462.667)">
	<path id="Path_16136" fill="#147DB2" d="M756.819,470.379l-4.756,2.436v5.336l4.756,3.596l4.409-3.596v-5.336L756.819,470.379z"/>
	<g id="claim" transform="translate(737.001 462.667)">
		<path id="Path_16131" fill="#FFFFFF" d="M35.885,1.487H11.022c-2.25,0.101-3.999,1.999-3.913,4.25L6.948,29.782H2.096
			c-0.361,0.033-0.631,0.35-0.605,0.711v3.311c-0.112,2.934,2.063,5.453,4.982,5.77v0.041h20.936v-0.045
			c0.154,0.008,0.248,0.045,0.355,0.045h0.016c3.045-0.17,5.383-2.766,5.232-5.811V12.771h6.32c0.363-0.037,0.633-0.355,0.607-0.72
			V5.98C40.047,3.625,38.239,1.621,35.885,1.487L35.885,1.487z M6.744,38.247L6.744,38.247c-2.328-0.135-4.114-2.115-4.005-4.445
			v-2.652h19.767v2.643c-0.016,1.512,0.531,2.975,1.535,4.105c0.121,0.105,0.23,0.223,0.326,0.35H6.744z M31.768,33.802
			c0.115,2.326-1.666,4.311-3.99,4.445h-0.014c-2.334-0.135-4.125-2.121-4.016-4.455v-3.299c0.016-0.365-0.258-0.68-0.623-0.711
			H8.193l0.164-24.04C8.3,4.209,9.493,2.918,11.025,2.855h21.92c-0.75,0.877-1.166,1.99-1.178,3.143V33.802z M38.694,5.992v5.411
			h-5.682V5.998c-0.061-1.649,1.207-3.044,2.855-3.142h0.018c1.637,0.098,2.889,1.495,2.809,3.132V5.992z"/>
		<path id="Path_16132" fill="#FFFFFF" d="M15.803,18.321l3.526,2.412c0.23,0.159,0.535,0.159,0.765,0l3.515-2.412
			c1.283-0.961,2.063-2.45,2.123-4.052V9.392c0.008-0.258-0.135-0.497-0.365-0.614l-5.368-2.641c-0.188-0.093-0.409-0.093-0.597,0
			l-5.359,2.634c-0.229,0.117-0.372,0.356-0.363,0.614v4.885C13.74,15.871,14.521,17.36,15.803,18.321z M15.046,9.812l4.659-2.299
			l4.659,2.305v4.454c-0.059,1.15-0.615,2.218-1.527,2.921l-3.14,2.148l-3.127-2.148c-0.911-0.704-1.467-1.772-1.524-2.921
			L15.046,9.812z"/>
		<path id="Path_16133" fill="#FFFFFF" d="M18.523,15.303c0.128,0.13,0.303,0.204,0.485,0.205l0,0c0.181,0,0.355-0.073,0.483-0.202
			l2.721-2.722c0.268-0.267,0.268-0.7,0-0.967c-0.267-0.267-0.7-0.267-0.967,0l0,0L19.01,13.85l-0.894-0.902
			c-0.267-0.268-0.7-0.27-0.968-0.004c-0.269,0.266-0.27,0.699-0.004,0.967l0,0L18.523,15.303z"/>
		<path id="Path_16134" fill="#FFFFFF" d="M28.198,22.688H11.786c-0.378,0-0.685,0.305-0.685,0.682c0,0.379,0.306,0.686,0.683,0.686
			c0.001,0,0.001,0,0.002,0h16.412c0.379,0,0.686-0.307,0.686-0.684c0.002-0.377-0.305-0.684-0.684-0.684
			C28.199,22.688,28.199,22.688,28.198,22.688z"/>
		<path id="Path_16135" fill="#FFFFFF" d="M28.198,25.851H11.786c-0.378,0-0.684,0.307-0.684,0.686
			c0.001,0.377,0.307,0.682,0.684,0.684h16.412c0.379-0.002,0.686-0.309,0.684-0.686C28.881,26.157,28.576,25.851,28.198,25.851z"/>
	</g>
</g>
</svg>
