<?xml version="1.0" encoding="utf-8"?>
<!-- Generator: Adobe Illustrator 14.0.0, SVG Export Plug-In . SVG Version: 6.00 Build 43363)  -->
<!DOCTYPE svg PUBLIC "-//W3C//DTD SVG 1.1//EN" "http://www.w3.org/Graphics/SVG/1.1/DTD/svg11.dtd">
<svg version="1.1" id="Layer_1" xmlns="http://www.w3.org/2000/svg" xmlns:xlink="http://www.w3.org/1999/xlink" x="0px" y="0px"
	 width="65px" height="65px" viewBox="2.994 3.002 65 65" enable-background="new 2.994 3.002 65 65" xml:space="preserve">
<g id="Page-1" transform="translate(-0.017 0)">
	<g id="_033---Insurance" transform="translate(0.017 0.001)">
		<path id="Shape" d="M51.131,11.785L35.895,5.116c-0.259-0.113-0.554-0.113-0.813,0l-15.236,6.669
			c-0.37,0.161-0.609,0.526-0.609,0.93v15.947c0.006,3.584,1.729,6.948,4.634,9.049l10.531,7.594c0.651,0.471,1.53,0.471,2.181,0
			l10.529-7.594c2.906-2.1,4.63-5.464,4.636-9.048V12.715C51.745,12.31,51.503,11.944,51.131,11.785z M49.706,28.664
			c-0.005,2.931-1.413,5.682-3.789,7.399l-10.429,7.523l-10.431-7.523c-2.375-1.717-3.784-4.468-3.789-7.399V13.38l14.22-6.225
			l14.218,6.225V28.664z"/>
		<path id="Shape-2" d="M35.082,9.55l-11.173,4.892c-0.37,0.162-0.609,0.527-0.609,0.931v13.291c0.003,2.277,1.099,4.416,2.945,5.75
			l8.649,6.239c0.354,0.257,0.834,0.257,1.188,0l8.648-6.237c1.847-1.334,2.941-3.472,2.945-5.75V15.373
			c0-0.404-0.239-0.769-0.609-0.931L35.895,9.55C35.635,9.437,35.342,9.437,35.082,9.55z M45.646,16.035v12.628
			c-0.003,1.626-0.784,3.152-2.102,4.105l-8.057,5.809l-8.055-5.809c-1.317-0.953-2.1-2.479-2.103-4.105V16.035l10.158-4.445
			L45.646,16.035z"/>
		<path id="Shape-3" d="M13.431,38.752l-2.198-5.133c-0.769-1.614-2.702-2.3-4.316-1.53c-1.549,0.738-2.253,2.556-1.605,4.145
			l3.98,8.755c0.536,1.186,1.284,2.264,2.204,3.184l6.261,6.261c-0.353,0.373-0.55,0.868-0.551,1.381v8.125
			c0,1.123,0.909,2.032,2.032,2.032l0,0h11.171c1.123,0,2.032-0.909,2.032-2.032l0,0v-8.123c0-1.122-0.909-2.031-2.032-2.031l0,0
			v-1.889c0.031-2.405-0.753-4.75-2.226-6.652c-0.863-1.136-2.04-1.994-3.385-2.469c-2.139-0.899-4.106-2.162-5.814-3.732
			C17.398,37.736,15.145,37.618,13.431,38.752z M30.409,63.943H19.238v-8.127h11.172V63.943z M26.598,46.51
			c1.184,1.542,1.812,3.439,1.781,5.385v1.888H19.98l-7.047-7.045c-0.749-0.747-1.356-1.624-1.794-2.586l-3.98-8.755
			c-0.269-0.61,0.007-1.322,0.617-1.592c0.609-0.269,1.323,0.007,1.592,0.617l2.272,5.295c0.604,1.413,1.475,2.699,2.564,3.784
			l4.635,4.641c0.395,0.398,1.038,0.4,1.436,0.006c0.398-0.395,0.401-1.037,0.006-1.436c-0.001-0.003-0.004-0.004-0.006-0.006
			l-4.64-4.642c-0.466-0.465-0.886-0.976-1.252-1.522c0.976-0.751,2.34-0.728,3.29,0.055c1.899,1.742,4.093,3.132,6.48,4.104
			C25.126,45.053,25.976,45.682,26.598,46.51z"/>
		<path id="Shape-4" fill="#147DB2" d="M27.363,58.864h-1.016c-0.562,0-1.016,0.455-1.016,1.016c0,0.562,0.454,1.016,1.016,1.016
			h1.015c0.561,0,1.016-0.454,1.016-1.016C28.378,59.319,27.923,58.864,27.363,58.864L27.363,58.864z"/>
		<path id="Shape-5" d="M61.686,44.992l3.98-8.755c0.77-1.614,0.085-3.547-1.529-4.317c-1.614-0.769-3.547-0.084-4.316,1.53
			c-0.027,0.057-0.052,0.114-0.075,0.172l-2.193,5.114c-1.718-1.129-3.972-1.006-5.557,0.305c-1.708,1.57-3.676,2.833-5.815,3.732
			c-1.345,0.476-2.521,1.333-3.385,2.469c-1.475,1.903-2.26,4.249-2.229,6.656v1.889c-1.121,0-2.031,0.909-2.031,2.03v8.126
			c0,1.121,0.91,2.031,2.031,2.031H51.74c1.121,0,2.031-0.91,2.031-2.031l0,0v-8.126c-0.001-0.514-0.197-1.007-0.551-1.381
			l6.257-6.261C60.4,47.256,61.148,46.176,61.686,44.992z M51.74,63.943H40.567v-8.126H51.74V63.943z M50.997,53.787h-8.399v-1.889
			c-0.029-1.943,0.598-3.841,1.781-5.383c0.62-0.827,1.467-1.457,2.438-1.812c2.389-0.972,4.583-2.362,6.481-4.106
			c0.948-0.789,2.317-0.815,3.296-0.064c-0.368,0.551-0.789,1.065-1.259,1.533l-4.64,4.642c-0.396,0.397-0.392,1.041,0.006,1.436
			c0.396,0.393,1.034,0.393,1.431,0l4.639-4.641c1.089-1.086,1.959-2.37,2.563-3.783l2.272-5.3c0.253-0.617,0.959-0.912,1.576-0.658
			c0.616,0.253,0.911,0.959,0.657,1.576c-0.008,0.02-0.017,0.039-0.025,0.059l-3.98,8.755c-0.437,0.962-1.045,1.839-1.793,2.587
			L50.997,53.787z"/>
		<path id="Shape-6" fill="#147DB2" d="M44.63,58.864h-1.016c-0.562,0-1.017,0.455-1.017,1.016c0,0.562,0.455,1.016,1.017,1.016
			h1.015c0.561,0,1.016-0.454,1.016-1.016C45.645,59.319,45.19,58.864,44.63,58.864L44.63,58.864z"/>
		<path id="Shape-7" fill="#147DB2" d="M30.003,26.564c-0.449-0.337-1.085-0.246-1.421,0.203c-0.337,0.448-0.246,1.085,0.203,1.421
			l4.063,3.047c0.176,0.131,0.39,0.203,0.61,0.203c0.057,0,0.115-0.005,0.171-0.015c0.276-0.047,0.519-0.205,0.674-0.438
			l8.125-12.188c0.3-0.475,0.157-1.102-0.317-1.401c-0.458-0.288-1.061-0.167-1.372,0.274l-7.53,11.296L30.003,26.564z"/>
	</g>
</g>
</svg>
