<svg id="contract" xmlns="http://www.w3.org/2000/svg" width="58" height="58" viewBox="0 0 58 58">
  <g id="Group_1392" data-name="Group 1392" transform="translate(33.896)">
    <g id="Group_1391" data-name="Group 1391">
      <path id="Path_15977" data-name="Path 15977" d="M309.45,9.9a5.066,5.066,0,0,0-1.493-3.6l-4.806-4.806A5.211,5.211,0,0,0,299.514,0h-.292V10.2H309.45V9.9Z" transform="translate(-299.222)" fill="#6a8dac"/>
    </g>
  </g>
  <g id="Group_1394" data-name="Group 1394">
    <g id="Group_1393" data-name="Group 1393">
      <path id="Path_15978" data-name="Path 15978" d="M31.032,35.065a6.82,6.82,0,0,1,1.633-2.652L44.17,20.954V13.594H32.23a1.652,1.652,0,0,1-1.644-1.7V0H5.1A5.1,5.1,0,0,0,0,5.1V52.9A5.1,5.1,0,0,0,5.1,58H39.027a5.142,5.142,0,0,0,5.143-5.1V40.22L42.3,42.042a6.757,6.757,0,0,1-2.642,1.63l-5.4,1.8-.823.045a4.248,4.248,0,0,1-4.026-5.6ZM8.5,30.586H25.433a1.7,1.7,0,1,1,0,3.4H8.5a1.7,1.7,0,1,1,0-3.4Zm-1.7-5.1a1.7,1.7,0,0,1,1.7-1.7H25.433a1.7,1.7,0,1,1,0,3.4H8.5A1.7,1.7,0,0,1,6.8,25.488Zm0,13.594a1.7,1.7,0,0,1,1.7-1.7H25.433a1.7,1.7,0,0,1,0,3.4H8.5A1.7,1.7,0,0,1,6.8,39.082Zm25.433,8.5a1.7,1.7,0,0,1,0,3.4h-10.2a1.7,1.7,0,1,1,0-3.4ZM8.5,20.391a1.7,1.7,0,0,1,0-3.4H32.23a1.7,1.7,0,0,1,0,3.4Z" fill="#6a8dac"/>
    </g>
  </g>
  <g id="Group_1396" data-name="Group 1396" transform="translate(32.587 36.568)">
    <g id="Group_1395" data-name="Group 1395">
      <path id="Path_15979" data-name="Path 15979" d="M289.186,322.808l-1.478,4.435a.849.849,0,0,0,1.075,1.074l4.432-1.48Z" transform="translate(-287.663 -322.808)" fill="#6a8dac"/>
    </g>
  </g>
  <g id="Group_1398" data-name="Group 1398" transform="translate(36.116 22.578)">
    <g id="Group_1397" data-name="Group 1397">
      <path id="Path_15980" data-name="Path 15980" d="M330.011,199.307,318.82,210.5l4.826,4.826,11.19-11.192Z" transform="translate(-318.82 -199.307)" fill="#6a8dac"/>
    </g>
  </g>
  <g id="Group_1400" data-name="Group 1400" transform="translate(49.71 16.76)">
    <g id="Group_1399" data-name="Group 1399">
      <path id="Path_15981" data-name="Path 15981" d="M446.11,148.893a3.548,3.548,0,0,0-4.822,0l-2.469,2.469,4.826,4.826,2.469-2.469A3.42,3.42,0,0,0,446.11,148.893Z" transform="translate(-438.819 -147.949)" fill="#6a8dac"/>
    </g>
  </g>
  <g id="Group_1403" data-name="Group 1403" transform="translate(57.005 22.498)">
    <g id="Group_1402" data-name="Group 1402">
      <g id="Group_1401" data-name="Group 1401">
        <path id="Path_15982" data-name="Path 15982" d="M503.215,198.818h0l.01-.01Z" transform="translate(-503.215 -198.785)" fill="#6a8dac"/>
        <path id="Path_15983" data-name="Path 15983" d="M503.3,198.69l.015-.015Z" transform="translate(-503.293 -198.667)" fill="#6a8dac"/>
        <path id="Path_15984" data-name="Path 15984" d="M503.436,198.61Z" transform="translate(-503.411 -198.602)" fill="#6a8dac"/>
      </g>
    </g>
  </g>
</svg>
