<svg xmlns="http://www.w3.org/2000/svg" xmlns:xlink="http://www.w3.org/1999/xlink" width="143.996" height="144" viewBox="0 0 143.996 144">
  <defs>
    <linearGradient id="linear-gradient" x1="1.253" x2="0" y2="1.116" gradientUnits="objectBoundingBox">
      <stop offset="0" stop-color="#fff"/>
      <stop offset="0.502" stop-color="#98dbf9"/>
      <stop offset="1" stop-color="#fff"/>
    </linearGradient>
  </defs>
  <g id="Page-1" transform="translate(0.001 0)" opacity="0.25">
    <g id="_066---Contact" data-name="066---Contact" transform="translate(-0.001 0.001)">
      <path id="Shape" d="M135.4,24H50.2L44.679,5.737a8.119,8.119,0,0,0-10.06-5.4L22.4,3.935a8.16,8.16,0,0,0-3.545,2.146L5.081,20.343a8.085,8.085,0,0,0-2.064,3.9c-1.4,6.48-5.28,29.97,3.912,60.358s25.439,47.941,30.215,52.594a8.133,8.133,0,0,0,3.871,2.122l19.422,4.481a8.133,8.133,0,0,0,1.831.209,8.234,8.234,0,0,0,2.314-.334l6.763-1.994,5.45-1.608a8.018,8.018,0,0,0,4.843-3.909,7.934,7.934,0,0,0,.622-6.108l-3.041-10.053H135.4a9.6,9.6,0,0,0,9.6-9.6V33.6a9.6,9.6,0,0,0-9.6-9.6ZM97.6,71.276,139.9,32a4.711,4.711,0,0,1,.3,1.6v76.8a4.773,4.773,0,0,1-.266,1.51ZM135.4,28.8a4.766,4.766,0,0,1,.811.082L85.958,75.52a4.8,4.8,0,0,1-6.528,0L44.871,43.526l2.546-.751a8.042,8.042,0,0,0,4.836-3.909,7.92,7.92,0,0,0,.617-6.1L51.663,28.8ZM38.761,98.95A58.4,58.4,0,0,1,27.928,78.366a54.111,54.111,0,0,1-1.222-29.317.43.43,0,0,1,.3-.264L39.5,45.1,67.682,71.183ZM77.4,133.871a3.257,3.257,0,0,1-1.968,1.584l-3.182.938-5.844-19.338a2.4,2.4,0,1,0-4.593,1.39l5.846,19.31-4.43,1.306a3.36,3.36,0,0,1-1.714.053l-19.422-4.478a3.36,3.36,0,0,1-1.594-.878C35.939,129.3,20.371,112.5,11.522,83.209S6.365,31.438,7.706,25.251a3.3,3.3,0,0,1,.84-1.579L22.3,9.416a3.336,3.336,0,0,1,1.44-.878l4.466-1.315,5.844,19.336a2.4,2.4,0,0,0,2.3,1.706,2.3,2.3,0,0,0,.694-.1,2.4,2.4,0,0,0,1.6-2.99l-5.825-19.3,3.153-.929A3.319,3.319,0,0,1,40.1,7.124l8.16,27.023a3.153,3.153,0,0,1-.24,2.434,3.276,3.276,0,0,1-1.968,1.586l-3.185.938-.943-3.12a2.4,2.4,0,0,0-4.593,1.387l.934,3.091-12.619,3.72a5.234,5.234,0,0,0-3.569,3.6,58.985,58.985,0,0,0,1.26,31.96A59.559,59.559,0,0,0,40.011,107.15a5.213,5.213,0,0,0,4.956,1.08l12.65-3.729.943,3.12a2.4,2.4,0,1,0,4.593-1.39l-.934-3.091,3.151-.929A3.329,3.329,0,0,1,69.5,104.4l8.16,27.025a3.153,3.153,0,0,1-.247,2.448Zm.367-18.676-3.677-12.17a8.124,8.124,0,0,0-10.08-5.4l-20.4,6.014a.48.48,0,0,1-.427-.077c-.336-.3-.72-.662-1.164-1.08L71.213,74.449l4.953,4.586a9.633,9.633,0,0,0,13.06,0l4.848-4.5,42.255,40.558a4.768,4.768,0,0,1-.934.1Z" transform="translate(-0.999 -0.001)" fill="url(#linear-gradient)"/>
      <path id="Shape-2" data-name="Shape" d="M28.4,18.8H66.8a2.4,2.4,0,1,0,0-4.8H28.4a2.4,2.4,0,0,0,0,4.8Z" transform="translate(33.999 19.597)" fill="url(#linear-gradient)"/>
      <path id="Shape-3" data-name="Shape" d="M57.4,22A2.4,2.4,0,0,0,55,24.4V58a2.4,2.4,0,1,0,4.8,0V24.4A2.4,2.4,0,0,0,57.4,22Z" transform="translate(74.597 30.797)" fill="url(#linear-gradient)"/>
    </g>
  </g>
</svg>
