<svg xmlns="http://www.w3.org/2000/svg" xmlns:xlink="http://www.w3.org/1999/xlink" width="67.938" height="78.008" viewBox="0 0 67.938 78.008">
  <defs>
    <linearGradient id="linear-gradient" x1="0.5" x2="0.5" y2="1" gradientUnits="objectBoundingBox">
      <stop offset="0.13" stop-color="#00a9ed"/>
      <stop offset="1" stop-color="#65106b"/>
    </linearGradient>
  </defs>
  <g id="creativity_1_" data-name="creativity (1)" transform="translate(-0.004 0.006)">
    <path id="Path_16135" data-name="Path 16135" d="M102.6,49.234A6.286,6.286,0,0,0,98.52,55.1a6.215,6.215,0,0,0,.721,2.863,5.01,5.01,0,0,0,0,9.372A6.215,6.215,0,0,0,98.52,70.2a6.284,6.284,0,0,0,4.084,5.87,4.993,4.993,0,0,0,6.5,6.372,5.02,5.02,0,0,0,9.548-2.178V45.04a5.02,5.02,0,0,0-9.548-2.178,4.986,4.986,0,0,0-6.5,6.372Zm4.723-4.194a2.519,2.519,0,0,1,2.516,2.516h2.516a4.984,4.984,0,0,0-1.16-3.174,2.51,2.51,0,0,1,4.934.658V80.265a2.51,2.51,0,0,1-4.934.658,4.982,4.982,0,0,0,1.16-3.174h-2.516a2.516,2.516,0,1,1-2.516-2.516V72.717a4.984,4.984,0,0,0-3.208,1.188,3.771,3.771,0,1,1,4.466-3.7H111.1a6.3,6.3,0,0,0-6.29-6.29,6.224,6.224,0,0,0-3.774,1.291v-.033a2.516,2.516,0,1,1,0-5.032V60.1a6.223,6.223,0,0,0,3.774,1.291,6.3,6.3,0,0,0,6.29-6.29h-2.516a3.774,3.774,0,1,1-4.466-3.7,4.984,4.984,0,0,0,3.208,1.187V50.072a2.516,2.516,0,0,1,0-5.032Zm0,0" transform="translate(-80.904 -33.715)" fill="url(#linear-gradient)"/>
    <path id="Path_16136" data-name="Path 16136" d="M267.326,42.524a5,5,0,0,0-1.773.338A5.02,5.02,0,0,0,256,45.04V80.265a5.02,5.02,0,0,0,9.549,2.178,5,5,0,0,0,6.806-4.694,4.948,4.948,0,0,0-.31-1.678,6.284,6.284,0,0,0,4.084-5.87,6.214,6.214,0,0,0-.721-2.862,5.011,5.011,0,0,0,0-9.372,6.215,6.215,0,0,0,.721-2.863,6.285,6.285,0,0,0-4.084-5.87,4.946,4.946,0,0,0,.31-1.678,5.038,5.038,0,0,0-5.032-5.032Zm6.29,12.58a3.774,3.774,0,1,1-7.548,0h-2.516a6.3,6.3,0,0,0,6.29,6.29,6.223,6.223,0,0,0,3.774-1.291v.033a2.516,2.516,0,0,1,0,5.032V65.2a6.224,6.224,0,0,0-3.774-1.291,6.3,6.3,0,0,0-6.29,6.29h2.516a3.774,3.774,0,1,1,4.466,3.7,4.987,4.987,0,0,0-3.208-1.188v2.516a2.516,2.516,0,1,1-2.516,2.516h-2.516a4.982,4.982,0,0,0,1.16,3.174,2.51,2.51,0,0,1-4.934-.658V45.04a2.51,2.51,0,0,1,4.934-.658,4.984,4.984,0,0,0-1.16,3.174h2.516a2.516,2.516,0,1,1,2.516,2.516v2.516a4.987,4.987,0,0,0,3.208-1.187,3.774,3.774,0,0,1,3.083,3.7Zm0,0" transform="translate(-215.743 -33.715)" fill="url(#linear-gradient)"/>
    <path id="Path_16137" data-name="Path 16137" d="M112.754,7.848A28.7,28.7,0,0,0,91.1.06l.156,2.511a26.416,26.416,0,0,1,16.271,48.392,15.552,15.552,0,0,0-5.685,6.909H84a15.808,15.808,0,0,0-5.713-6.962A26.3,26.3,0,0,1,66.538,28.094l-2.515-.078A28.8,28.8,0,0,0,76.886,53a13.256,13.256,0,0,1,4.352,4.871H77.846v2.516h4.395a14.518,14.518,0,0,1,.538,2.516H80.362v2.516h2.516v3.774a1.258,1.258,0,0,0,1.258,1.258h1.258a7.55,7.55,0,1,0,15.1,0h1.258a1.257,1.257,0,0,0,1.258-1.258V65.421h2.516V62.9H103.1a14.024,14.024,0,0,1,.506-2.516h4.438V57.872H104.6a12.972,12.972,0,0,1,4.319-4.81,28.93,28.93,0,0,0,3.84-45.214ZM92.943,75.485a5.037,5.037,0,0,1-5.032-5.032H97.975A5.037,5.037,0,0,1,92.943,75.485Zm7.548-7.548h-15.1V65.421h15.1Zm.09-5.032H85.294a17.132,17.132,0,0,0-.426-2.516h16.1a16.714,16.714,0,0,0-.391,2.516Zm0,0" transform="translate(-53.94)" fill="url(#linear-gradient)"/>
    <path id="Path_16138" data-name="Path 16138" d="M49.262,8.814a5.038,5.038,0,0,1,5.032,5.032,1.258,1.258,0,1,0,2.516,0,5.038,5.038,0,0,1,5.032-5.032,1.258,1.258,0,0,0,0-2.516A5.037,5.037,0,0,1,56.81,1.266a1.258,1.258,0,1,0-2.516,0A5.037,5.037,0,0,1,49.262,6.3a1.258,1.258,0,0,0,0,2.516Zm6.29-3.38a7.614,7.614,0,0,0,2.122,2.122,7.622,7.622,0,0,0-2.122,2.122A7.614,7.614,0,0,0,53.43,7.556a7.606,7.606,0,0,0,2.122-2.122Zm0,0" transform="translate(-40.452 -0.006)" fill="url(#linear-gradient)"/>
    <path id="Path_16139" data-name="Path 16139" d="M13.842,88.814a1.258,1.258,0,0,0,0-2.516A5.037,5.037,0,0,1,8.81,81.266a1.258,1.258,0,1,0-2.516,0A5.037,5.037,0,0,1,1.262,86.3a1.258,1.258,0,0,0,0,2.516,5.038,5.038,0,0,1,5.032,5.032,1.258,1.258,0,1,0,2.516,0,5.038,5.038,0,0,1,5.032-5.034Zm-6.29.864A7.614,7.614,0,0,0,5.43,87.556a7.622,7.622,0,0,0,2.122-2.122,7.63,7.63,0,0,0,2.122,2.122,7.622,7.622,0,0,0-2.122,2.123Zm0,0" transform="translate(0 -67.425)" fill="url(#linear-gradient)"/>
  </g>
</svg>
