<svg xmlns="http://www.w3.org/2000/svg" xmlns:xlink="http://www.w3.org/1999/xlink" width="50.663" height="50.663" viewBox="0 0 50.663 50.663">
  <defs>
    <linearGradient id="linear-gradient" x1="0.5" x2="0.5" y2="1" gradientUnits="objectBoundingBox">
      <stop offset="0.13" stop-color="#00a9ed"/>
      <stop offset="1" stop-color="#65106b"/>
    </linearGradient>
  </defs>
  <g id="rating" transform="translate(0)">
    <g id="Group_1862" data-name="Group 1862" transform="translate(12.071 27.667)">
      <g id="Group_1861" data-name="Group 1861">
        <path id="Path_16323" data-name="Path 16323" d="M124.807,282.81a1.512,1.512,0,0,1,2.021.635l2.794,5.174a.99.99,0,0,0,1.86-.47v-7.555a.99.99,0,0,0-1.979,0v3.64l-.934-1.73a3.5,3.5,0,0,0-6.479,2.483L123.9,292.5a13.553,13.553,0,0,0,2.244,4.842l3.549,4.856a.99.99,0,1,0,1.6-1.168l-3.549-4.856a11.581,11.581,0,0,1-1.918-4.139l-1.812-7.509A1.514,1.514,0,0,1,124.807,282.81Z" transform="translate(-121.991 -279.604)" fill="url(#linear-gradient)"/>
      </g>
    </g>
    <g id="Group_1864" data-name="Group 1864" transform="translate(19.583 15.597)">
      <g id="Group_1863" data-name="Group 1863">
        <path id="Path_16324" data-name="Path 16324" d="M215.554,168.678a3.348,3.348,0,0,0-1.613.412,3.365,3.365,0,0,0-4.842-1.705,3.364,3.364,0,0,0-4.452-1.666v-4.731a3.369,3.369,0,1,0-6.738,0V162.7a.99.99,0,0,0,1.979,0v-1.715a1.39,1.39,0,0,1,2.78,0v13.963a.99.99,0,1,0,1.979,0v-6.164a1.39,1.39,0,0,1,2.78,0v6.164a.99.99,0,1,0,1.979,0v-4.657a1.39,1.39,0,1,1,2.78,0v4.657a.99.99,0,1,0,1.979,0v-2.9a1.39,1.39,0,1,1,2.78,0V180.4a21.874,21.874,0,0,1-1,6.552l-1.4,4.451a.99.99,0,1,0,1.888.592l1.4-4.451a23.851,23.851,0,0,0,1.094-7.145v-8.349A3.372,3.372,0,0,0,215.554,168.678Z" transform="translate(-197.909 -157.619)" fill="url(#linear-gradient)"/>
      </g>
    </g>
    <g id="Group_1866" data-name="Group 1866" transform="translate(36.048 0)">
      <g id="Group_1865" data-name="Group 1865" transform="translate(0 0)">
        <path id="Path_16325" data-name="Path 16325" d="M378.833,5.247a1.656,1.656,0,0,0-1.345-1.133l-3.031-.439L373.1.928A1.655,1.655,0,0,0,371.607,0h0a1.655,1.655,0,0,0-1.494.929l-1.355,2.747-3.031.441a1.666,1.666,0,0,0-.922,2.842L367,9.1l-.517,3.019A1.664,1.664,0,0,0,368.9,13.87l2.71-1.426,2.711,1.425a1.666,1.666,0,0,0,2.417-1.757l-.518-3.018,2.192-2.138A1.656,1.656,0,0,0,378.833,5.247ZM374.72,7.792a1.665,1.665,0,0,0-.479,1.475l.439,2.555-2.3-1.206a1.665,1.665,0,0,0-1.551,0l-2.294,1.207.438-2.556a1.666,1.666,0,0,0-.48-1.474l-1.857-1.809,2.566-.373a1.666,1.666,0,0,0,1.254-.912l1.147-2.325L372.756,4.7a1.666,1.666,0,0,0,1.255.911l2.566.372Z" transform="translate(-364.301 0)" fill="url(#linear-gradient)"/>
      </g>
    </g>
    <g id="Group_1868" data-name="Group 1868" transform="translate(18.024 0)">
      <g id="Group_1867" data-name="Group 1867" transform="translate(0 0)">
        <path id="Path_16326" data-name="Path 16326" d="M196.682,5.247a1.655,1.655,0,0,0-1.345-1.133l-3.031-.439L190.95.928A1.656,1.656,0,0,0,189.457,0h0a1.655,1.655,0,0,0-1.494.929l-1.355,2.747-3.031.441a1.666,1.666,0,0,0-.922,2.842L184.848,9.1l-.517,3.019a1.664,1.664,0,0,0,2.417,1.756l2.71-1.426,2.711,1.424a1.666,1.666,0,0,0,2.417-1.757l-.519-3.018,2.192-2.138A1.656,1.656,0,0,0,196.682,5.247Zm-4.113,2.544a1.665,1.665,0,0,0-.479,1.475l.439,2.555-2.3-1.206a1.665,1.665,0,0,0-1.551,0l-2.295,1.207.438-2.556a1.666,1.666,0,0,0-.48-1.474L184.49,5.984l2.566-.373A1.666,1.666,0,0,0,188.31,4.7l1.147-2.325L190.6,4.7a1.666,1.666,0,0,0,1.255.911l2.566.372Z" transform="translate(-182.15 0)" fill="url(#linear-gradient)"/>
      </g>
    </g>
    <g id="Group_1870" data-name="Group 1870" transform="translate(0 0)">
      <g id="Group_1869" data-name="Group 1869" transform="translate(0 0)">
        <path id="Path_16327" data-name="Path 16327" d="M14.532,5.247a1.656,1.656,0,0,0-1.345-1.133l-3.031-.439L8.8.928A1.656,1.656,0,0,0,7.306,0h0A1.655,1.655,0,0,0,5.812.929L4.457,3.676l-3.031.441A1.666,1.666,0,0,0,.5,6.959L2.7,9.1l-.517,3.019A1.664,1.664,0,0,0,4.6,13.87l2.71-1.426,2.711,1.424a1.666,1.666,0,0,0,2.417-1.757l-.519-3.018,2.192-2.138A1.656,1.656,0,0,0,14.532,5.247ZM10.419,7.791A1.665,1.665,0,0,0,9.94,9.266l.439,2.555L8.084,10.616a1.665,1.665,0,0,0-1.551,0L4.239,11.823l.438-2.555A1.665,1.665,0,0,0,4.2,7.793L2.34,5.984,4.906,5.61A1.666,1.666,0,0,0,6.159,4.7L7.306,2.373,8.454,4.7a1.666,1.666,0,0,0,1.255.911l2.566.372Z" transform="translate(0 0)" fill="url(#linear-gradient)"/>
      </g>
    </g>
    <g id="Group_1872" data-name="Group 1872" transform="translate(19.583 23.768)">
      <g id="Group_1871" data-name="Group 1871">
        <path id="Path_16328" data-name="Path 16328" d="M199.6,240.49a.989.989,0,1,0,.29.7A1,1,0,0,0,199.6,240.49Z" transform="translate(-197.911 -240.2)" fill="url(#linear-gradient)"/>
      </g>
    </g>
  </g>
</svg>
