<svg xmlns="http://www.w3.org/2000/svg" width="25.572" height="23.7" viewBox="0 0 25.572 23.7">
  <g id="download" transform="translate(0 -17.25)">
    <g id="Group_1595" data-name="Group 1595" transform="translate(0 17.25)">
      <path id="Path_16377" data-name="Path 16377" d="M24.84,228.259a.73.73,0,0,0-.733.733v6.664a3.288,3.288,0,0,1-3.283,3.283H4.749a3.288,3.288,0,0,1-3.283-3.283v-6.773a.733.733,0,0,0-1.465,0v6.773A4.754,4.754,0,0,0,4.749,240.4H20.824a4.754,4.754,0,0,0,4.749-4.749v-6.664A.733.733,0,0,0,24.84,228.259Z" transform="translate(0 -216.704)" fill="#fff"/>
      <path id="Path_16378" data-name="Path 16378" d="M141.1,35.132a.737.737,0,0,0,.516.217.715.715,0,0,0,.516-.217l4.656-4.656a.733.733,0,1,0-1.037-1.037l-3.4,3.408V17.983a.733.733,0,0,0-1.465,0V32.847l-3.408-3.408a.733.733,0,1,0-1.037,1.037Z" transform="translate(-128.832 -17.25)" fill="#fff"/>
    </g>
  </g>
</svg>
