<?xml version="1.0" encoding="utf-8"?>
<!-- Generator: Adobe Illustrator 14.0.0, SVG Export Plug-In . SVG Version: 6.00 Build 43363)  -->
<!DOCTYPE svg PUBLIC "-//W3C//DTD SVG 1.1//EN" "http://www.w3.org/Graphics/SVG/1.1/DTD/svg11.dtd">
<svg version="1.1" id="Layer_1" xmlns="http://www.w3.org/2000/svg" xmlns:xlink="http://www.w3.org/1999/xlink" x="0px" y="0px"
	 width="65px" height="65px" viewBox="-8.817 -1.59 65 65" enable-background="new -8.817 -1.59 65 65" xml:space="preserve">
<g id="Group_1495" transform="translate(-671.283 -971.081)">
	<g id="tax_3_" transform="translate(611.425 971.081)">
		<g id="Group_1445" transform="translate(59.858)">
			<g id="Group_1444" transform="translate(0)">
				<path id="Path_16146" d="M44.334,0h-41.3C1.358,0.001,0.001,1.359,0,3.032v55.756c0.001,1.674,1.358,3.031,3.033,3.032h32.009
					c0.256,0,0.502-0.102,0.684-0.283L47.082,50.18c0.182-0.182,0.284-0.428,0.285-0.684V3.032C47.365,1.359,46.007,0.001,44.334,0z
					 M36.007,58.516V51.56c0-0.607,0.493-1.1,1.101-1.1h6.956L36.007,58.516z M45.43,48.527h-8.325
					c-1.674,0.002-3.031,1.359-3.033,3.033v8.325H3.033c-0.608,0-1.1-0.492-1.1-1.1V3.032c0-0.607,0.492-1.1,1.1-1.1h41.3
					c0.607,0,1.1,0.492,1.1,1.1L45.43,48.527z"/>
			</g>
		</g>
		<g id="Group_1447" transform="translate(68.118 8.26)">
			<g id="Group_1446">
				<path id="Path_16147" d="M9.228,0h-8.26C0.433,0.001,0.001,0.435,0.002,0.97c0.001,0.533,0.433,0.965,0.966,0.966h3.165v9.355
					c0,0.534,0.433,0.968,0.968,0.968s0.968-0.434,0.968-0.968V1.936h3.164c0.534,0.001,0.969-0.432,0.97-0.966
					c0-0.535-0.432-0.969-0.967-0.97C9.235,0,9.234,0,9.233,0H9.228z"/>
			</g>
		</g>
		<g id="Group_1449" transform="translate(77.41 8.26)">
			<g id="Group_1448" transform="translate(0)">
				<path id="Path_16148" d="M10.155,11.015L7.276,1.426C7.026,0.577,6.245-0.004,5.36,0H4.831C3.946-0.004,3.165,0.577,2.915,1.426
					l-2.877,9.589c-0.143,0.516,0.159,1.049,0.674,1.191c0.5,0.139,1.021-0.142,1.18-0.635l0.412-1.375h5.581l0.413,1.375
					c0.164,0.509,0.71,0.788,1.218,0.624c0.494-0.16,0.775-0.681,0.637-1.181H10.155z M2.888,8.26l1.888-6.277
					c0.008-0.027,0.033-0.047,0.062-0.047h0.529c0.028,0,0.054,0.02,0.062,0.047L7.312,8.26H2.888z"/>
			</g>
		</g>
		<g id="Group_1451" transform="translate(88.767 8.26)">
			<g id="Group_1450" transform="translate(0)">
				<path id="Path_16149" d="M8.989,10.738L5.764,6.131l3.225-4.606C9.29,1.082,9.176,0.48,8.734,0.179
					C8.3-0.116,7.71-0.013,7.403,0.414l-2.821,4.03L1.76,0.414C1.449-0.02,0.844-0.119,0.41,0.193C-0.017,0.5-0.12,1.09,0.175,1.524
					L3.4,6.131l-3.226,4.607c-0.312,0.434-0.213,1.039,0.221,1.351c0.435,0.313,1.039,0.213,1.352-0.221
					c0.005-0.007,0.01-0.014,0.014-0.021l2.821-4.029l2.821,4.029c0.301,0.442,0.902,0.557,1.345,0.256
					c0.442-0.302,0.556-0.903,0.255-1.346C8.999,10.751,8.994,10.744,8.989,10.738z"/>
			</g>
		</g>
		<g id="Group_1453" transform="translate(66.053 25.812)">
			<g id="Group_1452" transform="translate(0)">
				<path id="Path_16150" d="M3.035,0H0.97C0.435,0,0.002,0.433,0.002,0.968c0,0.535,0.434,0.969,0.968,0.969l0,0h2.065
					c0.535,0,0.968-0.434,0.968-0.969C4.003,0.433,3.57,0,3.035,0z"/>
			</g>
		</g>
		<g id="Group_1455" transform="translate(66.053 29.942)">
			<g id="Group_1454" transform="translate(0)">
				<path id="Path_16151" d="M3.035,0H0.97C0.435,0,0.002,0.433,0.002,0.968c0,0.534,0.434,0.968,0.968,0.968l0,0h2.065
					c0.535,0,0.968-0.434,0.968-0.968C4.003,0.433,3.57,0,3.035,0z"/>
			</g>
		</g>
		<g id="Group_1457" transform="translate(66.053 34.072)">
			<g id="Group_1456" transform="translate(0)">
				<path id="Path_16152" d="M3.035,0H0.97C0.435,0,0.002,0.433,0.002,0.968c0,0.534,0.434,0.968,0.968,0.968l0,0h2.065
					c0.535,0,0.968-0.434,0.968-0.968C4.003,0.433,3.57,0,3.035,0z"/>
			</g>
		</g>
		<g id="Group_1459" transform="translate(97.028 25.812)">
			<g id="Group_1458" transform="translate(0)">
				<path id="Path_16153" d="M3.033,0H0.968C0.433,0-0.001,0.433-0.001,0.968c0,0.535,0.434,0.969,0.969,0.969l0,0h2.064
					c0.535,0,0.969-0.434,0.969-0.969C4.001,0.433,3.568,0,3.033,0z"/>
			</g>
		</g>
		<g id="Group_1461" transform="translate(97.028 29.942)">
			<g id="Group_1460" transform="translate(0)">
				<path id="Path_16154" d="M3.033,0H0.968C0.433,0-0.001,0.433-0.001,0.968c0,0.534,0.434,0.968,0.969,0.968l0,0h2.064
					c0.535,0,0.969-0.434,0.969-0.968C4.001,0.433,3.568,0,3.033,0z"/>
			</g>
		</g>
		<g id="Group_1463" transform="translate(97.028 34.072)">
			<g id="Group_1462" transform="translate(0)">
				<path id="Path_16155" d="M3.033,0H0.968C0.433,0-0.001,0.433-0.001,0.968c0,0.534,0.434,0.968,0.969,0.968l0,0h2.064
					c0.535,0,0.969-0.434,0.969-0.968C4.001,0.433,3.568,0,3.033,0z"/>
			</g>
		</g>
		<g id="Group_1465" transform="translate(72.248 25.812)">
			<g id="Group_1464" transform="translate(0)">
				<path id="Path_16156" d="M13.358,0H0.968C0.433,0,0,0.433,0,0.968c0,0.535,0.433,0.969,0.968,0.969h12.39
					c0.535,0,0.969-0.434,0.969-0.969C14.326,0.433,13.893,0,13.358,0L13.358,0z"/>
			</g>
		</g>
		<g id="Group_1467" transform="translate(72.248 29.942)">
			<g id="Group_1466" transform="translate(0)">
				<path id="Path_16157" d="M9.228,0h-8.26C0.433,0,0,0.433,0,0.968c0,0.534,0.433,0.968,0.968,0.968h8.26
					c0.534,0,0.968-0.434,0.968-0.968C10.196,0.433,9.762,0,9.228,0z"/>
			</g>
		</g>
		<g id="Group_1469" transform="translate(72.248 34.072)">
			<g id="Group_1468" transform="translate(0)">
				<path id="Path_16158" d="M13.358,0H0.968C0.433,0,0,0.433,0,0.968c0,0.534,0.433,0.968,0.968,0.968h12.39
					c0.535,0,0.969-0.434,0.969-0.968C14.326,0.433,13.893,0,13.358,0L13.358,0z"/>
			</g>
		</g>
		<g id="Group_1473" transform="translate(76.378 42.332)">
			<g id="Group_1472" transform="translate(0)">
				<path id="Path_16160" d="M8.194,0.003H0.968C0.433,0.003,0,0.437,0,0.971s0.433,0.968,0.968,0.968h7.227
					c0.535,0,0.969-0.434,0.969-0.968S8.73,0.003,8.194,0.003z"/>
			</g>
		</g>
		<g id="Group_1475" transform="translate(76.378 50.592)">
			<g id="Group_1474" transform="translate(0)">
				<path id="Path_16161" d="M5.098,0h-4.13C0.433,0,0,0.434,0,0.968c0,0.535,0.433,0.968,0.968,0.968h4.13
					c0.534,0,0.968-0.433,0.968-0.968C6.066,0.434,5.632,0,5.098,0z"/>
			</g>
		</g>
		<g id="Group_1477" transform="translate(84.638 50.592)">
			<g id="Group_1476" transform="translate(0)">
				<path id="Path_16162" d="M3.033,0H0.968C0.433,0,0,0.434,0,0.968c0,0.535,0.434,0.968,0.968,0.968h2.065
					c0.534,0,0.968-0.433,0.968-0.968C4.001,0.434,3.567,0,3.033,0z"/>
			</g>
		</g>
		<g id="Group_1479" transform="translate(76.378 46.462)">
			<g id="Group_1478" transform="translate(0)">
				<path id="Path_16163" d="M14.39-0.002H0.968C0.433-0.002,0,0.431,0,0.966C0,1.5,0.433,1.934,0.968,1.934H14.39
					c0.535,0,0.969-0.434,0.969-0.968C15.358,0.431,14.925-0.002,14.39-0.002z"/>
			</g>
		</g>
		<g id="Group_1481" transform="translate(84.638 29.942)">
			<g id="Group_1480" transform="translate(0)">
				<circle id="Ellipse_128" cx="0.968" cy="0.968" r="0.968"/>
			</g>
		</g>
		<g id="Group_1483" transform="translate(88.768 29.942)">
			<g id="Group_1482" transform="translate(0)">
				<circle id="Ellipse_129" cx="0.968" cy="0.968" r="0.968"/>
			</g>
		</g>
		<g id="Group_1485" transform="translate(92.898 29.942)">
			<g id="Group_1484" transform="translate(0)">
				<circle id="Ellipse_130" cx="0.967" cy="0.968" r="0.968"/>
			</g>
		</g>
		<g id="Group_1487" transform="translate(88.768 25.812)">
			<g id="Group_1486" transform="translate(0)">
				<circle id="Ellipse_131" cx="0.968" cy="0.968" r="0.968"/>
			</g>
		</g>
		<g id="Group_1489" transform="translate(92.898 25.812)">
			<g id="Group_1488" transform="translate(0)">
				<circle id="Ellipse_132" cx="0.967" cy="0.968" r="0.968"/>
			</g>
		</g>
		<g id="Group_1491" transform="translate(88.768 34.072)">
			<g id="Group_1490" transform="translate(0)">
				<circle id="Ellipse_133" cx="0.968" cy="0.968" r="0.968"/>
			</g>
		</g>
		<g id="Group_1493" transform="translate(92.898 34.072)">
			<g id="Group_1492" transform="translate(0)">
				<circle id="Ellipse_134" cx="0.967" cy="0.968" r="0.968"/>
			</g>
		</g>
		<text transform="matrix(1 0 0 1 67.1471 51.9192)" fill="#147DB2" font-family="'Roboto-Bold'" font-size="13">₹</text>
	</g>
</g>
</svg>
