<svg xmlns="http://www.w3.org/2000/svg" xmlns:xlink="http://www.w3.org/1999/xlink" width="45.055" height="43.997" viewBox="0 0 45.055 43.997">
  <defs>
    <linearGradient id="linear-gradient" x1="0.5" x2="0.5" y2="1" gradientUnits="objectBoundingBox">
      <stop offset="0.13" stop-color="#00a9ed"/>
      <stop offset="1" stop-color="#65106b"/>
    </linearGradient>
  </defs>
  <path id="Union_20" data-name="Union 20" d="M23597.9,11488.957l-7.492-2.417a13.993,13.993,0,0,1-8.113,1.321,13.835,13.835,0,0,1-11.791-15.328,13.887,13.887,0,0,1-7.859-1.351l-7.5,2.423a1.02,1.02,0,0,1-.268.041.886.886,0,0,1-.621-.26.868.868,0,0,1-.219-.889l2.416-7.5a13.924,13.924,0,0,1-1.314-8.114,13.819,13.819,0,0,1,20.006-10.353.879.879,0,0,1-.8,1.563,12.021,12.021,0,0,0-14.049,2.2,12.148,12.148,0,0,0-2.109,14.208.873.873,0,0,1,.061.688l-2,6.213,6.213-2a.863.863,0,0,1,.686.06,12.15,12.15,0,0,0,14.209-2.108,12.022,12.022,0,0,0,2.2-14.043.882.882,0,0,1,1.57-.806,10.045,10.045,0,0,0,12.881,11.9,13.681,13.681,0,0,1,3.908,7.836,13.905,13.905,0,0,1-1.314,8.108l2.416,7.5a.882.882,0,0,1-1.107,1.107Zm-7.3-4.205,6.207,2-2-6.207a.87.87,0,0,1,.061-.687,12.062,12.062,0,0,0-12.662-17.572,13.829,13.829,0,0,1-9.867,9.9,12.065,12.065,0,0,0,17.578,12.627.887.887,0,0,1,.42-.105A.876.876,0,0,1,23590.6,11484.752Zm-1.8-4.442-1.678-3.6h-5.8l-1.676,3.6a.883.883,0,0,1-.8.51.9.9,0,0,1-.367-.083.879.879,0,0,1-.426-1.173l5.371-11.525a.879.879,0,0,1,1.594-.006.006.006,0,0,0,.006.006l5.371,11.525a.884.884,0,0,1-.426,1.173.917.917,0,0,1-.373.083A.885.885,0,0,1,23588.8,11480.31Zm-6.652-5.359h4.158l-2.078-4.46Zm-7.5-9.067-2.238-2.233a6.855,6.855,0,1,1,1.244-1.243l2.238,2.232a.88.88,0,1,1-1.244,1.244Zm-11.5-7.658a5.081,5.081,0,0,0,8,4.163l-2.066-2.066a.88.88,0,0,1,1.244-1.244l2.066,2.067a5.085,5.085,0,1,0-9.246-2.92Zm14.209-8.072a.882.882,0,1,1,1.256-1.238.874.874,0,0,1-.012,1.244.859.859,0,0,1-.617.254A.9.9,0,0,1,23577.357,11450.152Z" transform="translate(-23553.998 -11445.001)" fill="url(#linear-gradient)"/>
</svg>
