<?xml version="1.0" encoding="utf-8"?>
<!-- Generator: Adobe Illustrator 16.0.0, SVG Export Plug-In . SVG Version: 6.00 Build 0)  -->
<!DOCTYPE svg PUBLIC "-//W3C//DTD SVG 1.1//EN" "http://www.w3.org/Graphics/SVG/1.1/DTD/svg11.dtd">
<svg version="1.1" id="Layer_1" xmlns="http://www.w3.org/2000/svg" xmlns:xlink="http://www.w3.org/1999/xlink" x="0px" y="0px"
	 width="52.089px" height="67.838px" viewBox="0 0 52.089 67.838" enable-background="new 0 0 52.089 67.838" xml:space="preserve">
<g id="Group_2284" transform="translate(-343 -620.785)">
	<g id="Group_917" transform="translate(354.57 638.593)">
		<g id="Group_916">
			
				<linearGradient id="Path_15567_1_" gradientUnits="userSpaceOnUse" x1="-262.5807" y1="372.7603" x2="-262.5807" y2="371.7593" gradientTransform="matrix(9.6996 0 0 -9.6996 2551.7517 3615.5967)">
				<stop  offset="0" style="stop-color:#00A9E0"/>
				<stop  offset="1" style="stop-color:#801C7D"/>
			</linearGradient>
			<path id="Path_15567" fill="url(#Path_15567_1_)" d="M7.409,4.822l1.7-1.7c0.729-0.699,0.754-1.856,0.056-2.586
				C8.466-0.193,7.308-0.218,6.578,0.48C6.56,0.499,6.541,0.517,6.523,0.536l-1.7,1.7l-1.7-1.7C2.424-0.193,1.266-0.218,0.537,0.48
				s-0.754,1.856-0.056,2.586c0.018,0.019,0.037,0.038,0.056,0.056l1.7,1.7l-1.7,1.7c-0.729,0.699-0.754,1.856-0.056,2.586
				s1.856,0.754,2.586,0.056c0.019-0.018,0.038-0.037,0.056-0.056l1.7-1.7l1.7,1.7C7.221,9.837,8.38,9.862,9.109,9.164
				s0.754-1.856,0.056-2.586C9.146,6.559,9.128,6.54,9.109,6.522L7.409,4.822z"/>
		</g>
	</g>
	<g id="Group_919" transform="translate(369.709 638.593)">
		<g id="Group_918">
			
				<linearGradient id="Path_15568_1_" gradientUnits="userSpaceOnUse" x1="-284.2754" y1="372.562" x2="-284.2754" y2="371.563" gradientTransform="matrix(12.6722 0 0 -9.6518 3608.6946 3595.8965)">
				<stop  offset="0" style="stop-color:#00A9E0"/>
				<stop  offset="1" style="stop-color:#801C7D"/>
			</linearGradient>
			<path id="Path_15568" fill="url(#Path_15568_1_)" d="M12.105,0.536c-0.714-0.714-1.871-0.714-2.585-0.001
				c-0.001,0-0.001,0-0.001,0.001l-4.7,4.7l-1.7-1.7C2.42,2.807,1.262,2.782,0.533,3.48c-0.729,0.699-0.754,1.856-0.055,2.586
				c0.018,0.019,0.036,0.038,0.055,0.056l2.994,2.994C3.87,9.459,4.335,9.652,4.82,9.652l0,0c0.485,0,0.951-0.192,1.293-0.536
				L12.1,3.129c0.718-0.711,0.723-1.869,0.011-2.586C12.109,0.541,12.107,0.538,12.105,0.536L12.105,0.536z"/>
		</g>
	</g>
	<g id="Group_921" transform="translate(353.688 654.227)">
		<g id="Group_920">
			
				<linearGradient id="Path_15569_1_" gradientUnits="userSpaceOnUse" x1="-265.8872" y1="291.3069" x2="-265.8872" y2="290.306" gradientTransform="matrix(11.41 0 0 -3.658 3039.4736 1065.5972)">
				<stop  offset="0" style="stop-color:#00A9E0"/>
				<stop  offset="1" style="stop-color:#801C7D"/>
			</linearGradient>
			<path id="Path_15569" fill="url(#Path_15569_1_)" d="M9.581,0H1.829c-1.01-0.002-1.831,0.814-1.833,1.825
				c-0.002,1.01,0.814,1.83,1.825,1.834c0.003,0,0.006,0,0.009,0h7.752c1.01-0.004,1.827-0.824,1.825-1.834
				C11.403,0.818,10.588,0.002,9.581,0z"/>
		</g>
	</g>
	<g id="Group_923" transform="translate(353.688 660.098)">
		<g id="Group_922">
			
				<linearGradient id="Path_15570_1_" gradientUnits="userSpaceOnUse" x1="-265.8872" y1="285.4359" x2="-265.8872" y2="284.4359" gradientTransform="matrix(11.41 0 0 -3.658 3039.4736 1044.121)">
				<stop  offset="0" style="stop-color:#00A9E0"/>
				<stop  offset="1" style="stop-color:#801C7D"/>
			</linearGradient>
			<path id="Path_15570" fill="url(#Path_15570_1_)" d="M9.581,0H1.829c-1.01-0.004-1.831,0.814-1.833,1.824S0.81,3.655,1.82,3.659
				c0.003,0,0.006,0,0.009,0h7.752c1.01-0.004,1.827-0.824,1.825-1.834C11.403,0.817,10.588,0.002,9.581,0z"/>
		</g>
	</g>
	<g id="Group_925" transform="translate(353.688 666.124)">
		<g id="Group_924">
			
				<linearGradient id="Path_15571_1_" gradientUnits="userSpaceOnUse" x1="-265.8872" y1="279.4089" x2="-265.8872" y2="278.4089" gradientTransform="matrix(11.41 0 0 -3.658 3039.4736 1022.0754)">
				<stop  offset="0" style="stop-color:#00A9E0"/>
				<stop  offset="1" style="stop-color:#801C7D"/>
			</linearGradient>
			<path id="Path_15571" fill="url(#Path_15571_1_)" d="M9.581,0H1.829c-1.01-0.002-1.831,0.814-1.833,1.824S0.81,3.656,1.82,3.658
				c0.003,0,0.006,0,0.009,0h7.752c1.01-0.002,1.827-0.824,1.825-1.834C11.403,0.818,10.588,0.002,9.581,0z"/>
		</g>
	</g>
	<g id="Group_927" transform="translate(369.974 654.227)">
		<g id="Group_926">
			
				<linearGradient id="Path_15572_1_" gradientUnits="userSpaceOnUse" x1="-282.1918" y1="291.3069" x2="-282.1918" y2="290.3069" gradientTransform="matrix(11.4188 0 0 -3.658 3227.9912 1065.5972)">
				<stop  offset="0" style="stop-color:#00A9E0"/>
				<stop  offset="1" style="stop-color:#801C7D"/>
			</linearGradient>
			<path id="Path_15572" fill="url(#Path_15572_1_)" d="M9.582,0H1.83C0.82-0.003-0.001,0.814-0.004,1.825
				c-0.002,1.01,0.814,1.83,1.825,1.834c0.003,0,0.006,0,0.009,0h7.752c1.01,0.002,1.831-0.814,1.833-1.826
				C11.418,0.823,10.601,0.002,9.591,0C9.588,0,9.585,0,9.582,0z"/>
		</g>
	</g>
	<g id="Group_929" transform="translate(369.974 660.098)">
		<g id="Group_928">
			
				<linearGradient id="Path_15573_1_" gradientUnits="userSpaceOnUse" x1="-282.1737" y1="285.4359" x2="-282.1737" y2="284.4359" gradientTransform="matrix(11.41 0 0 -3.658 3225.2998 1044.121)">
				<stop  offset="0" style="stop-color:#00A9E0"/>
				<stop  offset="1" style="stop-color:#801C7D"/>
			</linearGradient>
			<path id="Path_15573" fill="url(#Path_15573_1_)" d="M9.582,0H1.83C0.82-0.004-0.001,0.815-0.004,1.825
				c-0.002,1.01,0.814,1.83,1.825,1.834c0.003,0,0.006,0,0.009,0h7.752c1.01-0.004,1.826-0.824,1.824-1.834
				C11.404,0.817,10.588,0.002,9.582,0z"/>
		</g>
	</g>
	<g id="file_1_" transform="translate(311.532 627.787)">
		<g id="Group_2281" transform="translate(31.468 -7)">
			<g id="Group_2280">
				
					<linearGradient id="Path_16861_1_" gradientUnits="userSpaceOnUse" x1="-273.7515" y1="424.7196" x2="-273.7515" y2="423.7196" gradientTransform="matrix(52.089 0 0 -67.839 14285.4961 28812.5352)">
					<stop  offset="0" style="stop-color:#00A9E0"/>
					<stop  offset="1" style="stop-color:#801C7D"/>
				</linearGradient>
				<path id="Path_16861" fill="url(#Path_16861_1_)" d="M51.688,11.214L39.576,0.311c-0.223-0.201-0.512-0.312-0.812-0.313H1.211
					C0.542-0.002,0,0.54,0,1.209v65.417c0,0.668,0.542,1.211,1.211,1.211h49.667c0.668,0,1.211-0.543,1.211-1.211V12.114
					C52.089,11.771,51.944,11.444,51.688,11.214L51.688,11.214z M49.666,65.413H2.423V2.423h35.875l11.369,10.231L49.666,65.413z"/>
			</g>
		</g>
		<g id="Group_2283" transform="translate(69.228 -7)">
			<g id="Group_2282">
				
					<linearGradient id="Path_16862_1_" gradientUnits="userSpaceOnUse" x1="-297.1375" y1="399.9452" x2="-297.1375" y2="398.9452" gradientTransform="matrix(13.8448 0 0 -12.6853 4120.7256 5073.418)">
					<stop  offset="0" style="stop-color:#00A9E0"/>
					<stop  offset="1" style="stop-color:#801C7D"/>
				</linearGradient>
				<path id="Path_16862" fill="url(#Path_16862_1_)" d="M13.461,10.679L1.925,0.3c-0.474-0.426-1.203-0.388-1.63,0.085
					C0.105,0.597-0.001,0.87-0.001,1.154v10.382c0,0.637,0.516,1.153,1.152,1.153c0,0,0.001,0,0.002,0h11.535
					c0.637,0.001,1.154-0.514,1.155-1.151C13.845,11.21,13.705,10.897,13.461,10.679L13.461,10.679z M2.307,10.379V3.743
					l7.376,6.639H2.307V10.379z"/>
			</g>
		</g>
	</g>
</g>
</svg>
