<svg xmlns="http://www.w3.org/2000/svg" xmlns:xlink="http://www.w3.org/1999/xlink" width="46.442" height="59.759" viewBox="0 0 46.442 59.759">
  <defs>
    <linearGradient id="linear-gradient" x1="0.5" x2="0.5" y2="1" gradientUnits="objectBoundingBox">
      <stop offset="0.13" stop-color="#00a9ed"/>
      <stop offset="1" stop-color="#65106b"/>
    </linearGradient>
  </defs>
  <path id="Union_8" data-name="Union 8" d="M13658.718,10403.758a.719.719,0,0,1-.719-.719v-49.885a.718.718,0,0,1,.719-.719h4.021a.715.715,0,0,1,.715.719v6.628h35.528v-6.628a.718.718,0,0,1,.72-.719h4.021a.718.718,0,0,1,.719.719v49.885a.719.719,0,0,1-.719.719Zm.72-1.437H13703v-48.444h-2.583v6.625a.721.721,0,0,1-.719.722h-36.963a.72.72,0,0,1-.72-.722v-6.625h-2.582Zm3.3-5.909a.72.72,0,0,1-.72-.723v-3.433a.72.72,0,0,1,.72-.722h36.963a.721.721,0,0,1,.719.722v3.433a.721.721,0,0,1-.719.723Zm.715-1.441h35.528v-2h-35.528Zm-.715-5.7a.719.719,0,0,1-.72-.719v-3.436a.72.72,0,0,1,.72-.723h36.963a.724.724,0,0,1,.719.723v3.436a.721.721,0,0,1-.719.719Zm.715-1.44h35.528v-1.991h-35.528Zm-.715-5.7a.72.72,0,0,1-.72-.723v-3.429a.72.72,0,0,1,.72-.723h36.963a.721.721,0,0,1,.719.723v3.429a.721.721,0,0,1-.719.723Zm.715-1.441h35.528v-1.991h-35.528Zm12.172-12.055a5.594,5.594,0,1,1,5.6,5.62A5.611,5.611,0,0,1,13675.626,10368.635Zm1.256,0a4.338,4.338,0,1,0,4.34-4.351A4.352,4.352,0,0,0,13676.882,10368.635Zm8.179-12.712a.721.721,0,0,1-.719-.723v-4.577h-6.246v4.577a.72.72,0,0,1-.719.723H13666.1a.721.721,0,0,1-.719-.723v-5.3a.721.721,0,0,1,.719-.723h6.842v-4.461a.721.721,0,0,1,.719-.722h15.122a.722.722,0,0,1,.72.722v4.461h6.841a.721.721,0,0,1,.719.723v5.3a.721.721,0,0,1-.719.723Zm0-6.741a.718.718,0,0,1,.715.723v4.577h9.848v-3.858h-6.842a.721.721,0,0,1-.719-.719v-4.461h-13.685v4.461a.721.721,0,0,1-.719.719h-6.841v3.858h9.843v-4.577a.719.719,0,0,1,.716-.723Z" transform="translate(-13657.999 -10343.999)" fill="url(#linear-gradient)"/>
</svg>
