<?xml version="1.0" encoding="utf-8"?>
<!-- Generator: Adobe Illustrator 14.0.0, SVG Export Plug-In . SVG Version: 6.00 Build 43363)  -->
<!DOCTYPE svg PUBLIC "-//W3C//DTD SVG 1.1//EN" "http://www.w3.org/Graphics/SVG/1.1/DTD/svg11.dtd">
<svg version="1.1" id="Layer_1" xmlns="http://www.w3.org/2000/svg" xmlns:xlink="http://www.w3.org/1999/xlink" x="0px" y="0px"
	 width="177.21px" height="227.57px" viewBox="11.731 52.433 177.21 227.57" enable-background="new 11.731 52.433 177.21 227.57"
	 xml:space="preserve">
<g id="Group_1282" transform="translate(-1025.137 -2165.378)">
	<g id="Polygon_6" transform="translate(1185.202 2295.088) rotate(53)" opacity="0.1">
		<path fill="none" d="M49.858,21.15c3.849-6.706,12.405-9.021,19.111-5.172c2.151,1.236,3.936,3.02,5.171,5.172l37.82,65.88
			c3.849,6.705,1.534,15.262-5.172,19.111c-2.121,1.218-4.524,1.859-6.969,1.859l-75.64,0c-7.732,0-14-6.268-14-14
			c0.001-2.446,0.641-4.849,1.858-6.971L49.858,21.15z"/>
		<path fill="#98A0A2" d="M62,18.12c-1.723,0-3.414,0.434-4.891,1.254c-1.578,0.876-2.85,2.145-3.782,3.768l-37.819,65.88
			c-0.928,1.616-1.381,3.348-1.346,5.146c0.032,1.682,0.504,3.357,1.365,4.844c0.861,1.486,2.078,2.73,3.521,3.596
			c1.542,0.925,3.27,1.394,5.133,1.394l75.64,0c1.864,0,3.591-0.47,5.133-1.395c1.443-0.865,2.661-2.108,3.521-3.595
			c0.86-1.486,1.333-3.161,1.365-4.844c0.035-1.798-0.418-3.528-1.347-5.145l-37.82-65.88c-0.932-1.624-2.204-2.891-3.781-3.768
			C65.415,18.554,63.724,18.12,62,18.12 M62,14.12c4.726,0,9.451,2.343,12.142,7.03l37.82,65.88
			C117.32,96.363,110.582,108,99.82,108l-75.64,0c-10.762,0-17.499-11.637-12.141-20.97l37.82-65.88
			C52.549,16.463,57.274,14.12,62,14.12z"/>
	</g>
	<g id="Polygon_7" transform="translate(1111.389 2165.378) rotate(53)" opacity="0.1">
		<path fill="none" d="M49.858,21.15c3.849-6.706,12.406-9.021,19.111-5.172c2.152,1.235,3.936,3.02,5.171,5.171l37.82,65.88
			c3.849,6.706,1.534,15.262-5.172,19.112c-2.12,1.217-4.523,1.858-6.969,1.858l-75.64,0c-7.732,0-14-6.268-14-14
			c0-2.446,0.641-4.849,1.858-6.971L49.858,21.15z"/>
		<path fill="#98A0A2" d="M62,18.12c-1.723,0-3.414,0.434-4.891,1.254c-1.578,0.876-2.849,2.144-3.781,3.767l-37.82,65.88
			c-0.928,1.616-1.381,3.348-1.346,5.146c0.032,1.682,0.504,3.357,1.365,4.844c0.861,1.486,2.079,2.729,3.521,3.595
			c1.542,0.925,3.269,1.395,5.133,1.394l75.64,0c1.864,0,3.59-0.469,5.132-1.394c1.444-0.866,2.662-2.109,3.521-3.595
			c0.861-1.486,1.333-3.161,1.366-4.844c0.034-1.798-0.419-3.529-1.347-5.146l-37.82-65.88c-0.932-1.623-2.204-2.891-3.781-3.768
			C65.415,18.553,63.724,18.12,62,18.12 M62,14.12c4.726,0,9.451,2.343,12.142,7.03l37.82,65.88
			C117.32,96.363,110.582,108,99.82,108l-75.64,0c-10.762,0-17.499-11.636-12.141-20.97l37.82-65.88
			C52.549,16.464,57.274,14.12,62,14.12z"/>
	</g>
</g>
</svg>
