<svg id="health" xmlns="http://www.w3.org/2000/svg" xmlns:xlink="http://www.w3.org/1999/xlink" width="32.544" height="28.709" viewBox="0 0 32.544 28.709">
  <defs>
    <linearGradient id="linear-gradient" x1="0.5" x2="0.5" y2="1" gradientUnits="objectBoundingBox">
      <stop offset="0.13" stop-color="#00a9ed"/>
      <stop offset="1" stop-color="#65106b"/>
    </linearGradient>
  </defs>
  <g id="Group_1493" data-name="Group 1493" transform="translate(26.345 3.284)">
    <g id="Group_1492" data-name="Group 1492">
      <path id="Path_16074" data-name="Path 16074" d="M415.136,81.836a.636.636,0,1,0,.636.636A.636.636,0,0,0,415.136,81.836Z" transform="translate(-414.5 -81.836)" fill="url(#linear-gradient)"/>
    </g>
  </g>
  <g id="Group_1495" data-name="Group 1495">
    <g id="Group_1494" data-name="Group 1494">
      <path id="Path_16075" data-name="Path 16075" d="M30.283,32.809a7.824,7.824,0,0,0-5.924-2.644,9.194,9.194,0,0,0-6.647,2.824,11.263,11.263,0,0,0-1.441,1.793,11.272,11.272,0,0,0-1.441-1.793,9.194,9.194,0,0,0-6.647-2.824C3.362,30.165,0,34.2,0,38.994c0,6.478,6.865,11.932,15.855,19.724a.636.636,0,0,0,.833,0c9.012-7.81,15.855-13.255,15.855-19.724a9.258,9.258,0,0,0-2.26-6.185ZM16.271,57.4c-8.49-7.346-15-12.623-15-18.4,0-4.309,2.972-7.558,6.912-7.558a7.842,7.842,0,0,1,5.717,2.41,9.476,9.476,0,0,1,1.8,2.48.636.636,0,0,0,.579.375h0a.637.637,0,0,0,.58-.375,9.477,9.477,0,0,1,1.8-2.48,7.841,7.841,0,0,1,5.712-2.415c3.941,0,6.912,3.249,6.912,7.558C31.271,44.9,24.331,50.422,16.271,57.4Z" transform="translate(0 -30.165)" fill="url(#linear-gradient)"/>
    </g>
  </g>
  <g id="Group_1497" data-name="Group 1497" transform="translate(25.839 5.208)">
    <g id="Group_1496" data-name="Group 1496">
      <path id="Path_16076" data-name="Path 16076" d="M409.895,112.444a.636.636,0,0,0-1.126.59,5.892,5.892,0,0,1,.651,2.69c0,1.837-.874,3.786-2.751,6.135a.636.636,0,0,0,.993.794c2.067-2.586,3.029-4.788,3.029-6.928a7.086,7.086,0,0,0-.8-3.281Z" transform="translate(-406.53 -112.103)" fill="url(#linear-gradient)"/>
    </g>
  </g>
  <g id="Group_1499" data-name="Group 1499" transform="translate(9.534 7.988)">
    <g id="Group_1498" data-name="Group 1498">
      <path id="Path_16077" data-name="Path 16077" d="M162.839,160.031H159.28v-3.559a.636.636,0,0,0-.636-.636H154.83a.636.636,0,0,0-.636.636v3.559h-3.559a.636.636,0,0,0-.636.636v3.814a.636.636,0,0,0,.636.636h3.559v3.559a.636.636,0,0,0,.636.636h3.814a.636.636,0,0,0,.636-.636v-3.559h3.559a.636.636,0,0,0,.636-.636v-3.814a.636.636,0,0,0-.636-.636Zm-.636,3.813h-3.559a.636.636,0,0,0-.636.636v3.559h-2.542V164.48a.636.636,0,0,0-.636-.636h-3.559V161.3h3.559a.636.636,0,0,0,.636-.636V157.1h2.542v3.559a.636.636,0,0,0,.636.636H162.2Z" transform="translate(-150 -155.836)" fill="url(#linear-gradient)"/>
    </g>
  </g>
</svg>
