<svg xmlns="http://www.w3.org/2000/svg" width="98.749" height="118.604" viewBox="0 0 98.749 118.604">
  <g id="house" transform="translate(-24.786)">
    <path id="Path_16321" data-name="Path 16321" d="M75.754,99.665a49.409,49.409,0,0,1,8.666.788v-8.4h20.429v14.991a22.784,22.784,0,0,1,5.806,3.031c3.123,2.269,4.84,5.247,4.943,8.514a31.925,31.925,0,0,0,10.777-4.7c1.14-.783,2.508-1.469,3.309-2.058V88.5L94.539,49.23,58.784,88.736v14.119c2.4-.609,4.594-1.264,7.132-1.956A37.613,37.613,0,0,1,75.754,99.665Z" transform="translate(-20.38 -29.51)" fill="#fff"/>
    <path id="Path_16322" data-name="Path 16322" d="M74.568,10.139,114.3,54.532h9.061L74.488,0,54.275,22.26V13.274H39.454V38.636L25.2,54.532h9.19Z" transform="translate(-0.249)" fill="#fff"/>
    <path id="Path_16323" data-name="Path 16323" d="M118.636,200.67c-2.2,0-5.163.977-8.928,3.565A41.13,41.13,0,0,1,86.7,211.05c-6.258,0-12.035-1.376-16.115-3.824-2.021-1.213-2.015-1.618-.843-1.618,2.354,0,9.415,1.634,14.2,1.634,2.354,0,4.157-.4,4.579-1.576,1.95-5.459-5.608-7.216-13.511-10.415a54.1,54.1,0,0,0-19.572-4.111,31.125,31.125,0,0,0-8.144,1.008c-11.673,3.182-20.108,5.58-22.511,6.358v30.635c4.807-1.768,10.375-3.462,13.543-3.462,5.815,0,29.342,7.5,42.664,7.5a21.462,21.462,0,0,0,4.926-.482c11.307-2.729,30.936-18.716,36.264-24.174A4.58,4.58,0,0,0,118.636,200.67Z" transform="translate(0 -114.577)" fill="#fff"/>
  </g>
</svg>
