<svg xmlns="http://www.w3.org/2000/svg" width="33.317" height="40" viewBox="0 0 33.317 40">
  <g id="house" transform="translate(-24.779)">
    <path id="Path_15924" data-name="Path 15924" d="M64.506,66.239a16.665,16.665,0,0,1,2.925.265V63.674h6.887V68.73a7.685,7.685,0,0,1,1.963,1.022,3.689,3.689,0,0,1,1.666,2.871,10.762,10.762,0,0,0,3.634-1.586c.385-.264.846-.5,1.116-.693V62.47L70.844,49.23,58.784,62.552v4.761c.811-.205,1.55-.426,2.4-.66A12.685,12.685,0,0,1,64.506,66.239Z" transform="translate(-29.405 -42.578)" fill="#12beda"/>
    <path id="Path_15925" data-name="Path 15925" d="M41.852,3.42l13.4,14.973h3.055L41.824,0,35.006,7.508V4.48h-5v8.554L25.2,18.394h3.1Z" transform="translate(-0.359)" fill="#12beda"/>
    <path id="Path_15926" data-name="Path 15926" d="M56.437,194.356a5.615,5.615,0,0,0-3.011,1.2,13.873,13.873,0,0,1-7.759,2.3,10.824,10.824,0,0,1-5.435-1.287c-.681-.408-.681-.546-.284-.546.794,0,3.175.551,4.789.551.794,0,1.4-.134,1.544-.53.657-1.841-1.892-2.433-4.562-3.509a18.25,18.25,0,0,0-6.6-1.386,10.5,10.5,0,0,0-2.747.34c-3.937,1.074-6.785,1.882-7.592,2.144v10.326a16.692,16.692,0,0,1,4.562-1.17c1.962,0,9.9,2.529,14.389,2.529a7.239,7.239,0,0,0,1.661-.162c3.813-.92,10.433-6.317,12.23-8.153a1.545,1.545,0,0,0-1.2-2.654Z" transform="translate(0 -165.319)" fill="#12beda"/>
  </g>
</svg>
