<svg xmlns="http://www.w3.org/2000/svg" width="28.486" height="34.2" viewBox="0 0 28.486 34.2">
  <g id="house" transform="translate(-24.782)">
    <path id="Path_15924" data-name="Path 15924" d="M63.676,63.77a14.246,14.246,0,0,1,2.5.227v-2.42h5.888V65.9a6.569,6.569,0,0,1,1.678.874,3.154,3.154,0,0,1,1.424,2.454,9.2,9.2,0,0,0,3.106-1.356c.329-.226.723-.424.954-.593V60.548L69.093,49.23,58.784,60.618v4.071c.693-.175,1.325-.364,2.056-.564A10.844,10.844,0,0,1,63.676,63.77Z" transform="translate(-30.073 -43.544)" fill="#fff"/>
    <path id="Path_15925" data-name="Path 15925" d="M39.435,2.923l11.453,12.8H53.5L39.411,0,33.583,6.418V3.83H29.313v7.312L25.2,15.724h2.653Z" transform="translate(-0.368)" fill="#fff"/>
    <path id="Path_15926" data-name="Path 15926" d="M51.841,193.89a4.8,4.8,0,0,0-2.574,1.028,11.859,11.859,0,0,1-6.633,1.964,9.253,9.253,0,0,1-4.646-1.1c-.582-.349-.582-.467-.243-.467.679,0,2.714.471,4.094.471.679,0,1.2-.114,1.32-.453.562-1.574-1.618-2.08-3.9-3a15.6,15.6,0,0,0-5.643-1.185,8.974,8.974,0,0,0-2.348.291c-3.365.918-5.8,1.609-6.49,1.833V202.1a14.271,14.271,0,0,1,3.9-1c1.677,0,8.46,2.162,12.3,2.162a6.186,6.186,0,0,0,1.42-.139c3.26-.787,8.919-5.4,10.455-6.97a1.321,1.321,0,0,0-1.022-2.269Z" transform="translate(0 -169.068)" fill="#fff"/>
  </g>
</svg>
