<svg xmlns="http://www.w3.org/2000/svg" width="50.617" height="50.533" viewBox="0 0 50.617 50.533">
  <g id="Group_1603" data-name="Group 1603" transform="translate(4454 -6613.468)">
    <g id="taxi" transform="translate(-4454 6613.047)">
      <path id="Path_16359" data-name="Path 16359" d="M55.959,93.886H8.177a.675.675,0,0,1-.675-.675V89.286H56.634v3.925a.675.675,0,0,1-.675.675Z" transform="translate(-6.76 -80.08)" fill="#ebebeb"/>
      <path id="Path_16386" data-name="Path 16386" d="M192.677,394.383a.741.741,0,0,1-.741-.741v-1.406a.742.742,0,0,1,1.483,0v1.406a.741.741,0,0,1-.742.741Z" transform="translate(-172.962 -352.412)" fill="#147db2"/>
      <path id="Path_16387" data-name="Path 16387" d="M220.959,394.383a.741.741,0,0,1-.741-.741v-1.406a.742.742,0,0,1,1.483,0v1.406a.741.741,0,0,1-.742.741Z" transform="translate(-198.448 -352.412)" fill="#147db2"/>
      <path id="Path_16388" data-name="Path 16388" d="M249.241,394.383a.741.741,0,0,1-.741-.741v-1.406a.742.742,0,0,1,1.483,0v1.406a.741.741,0,0,1-.742.741Z" transform="translate(-223.934 -352.412)" fill="#147db2"/>
      <path id="Path_16389" data-name="Path 16389" d="M277.523,394.383a.741.741,0,0,1-.741-.741v-1.406a.742.742,0,0,1,1.483,0v1.406a.741.741,0,0,1-.742.741Z" transform="translate(-249.42 -352.412)" fill="#147db2"/>
      <path id="Path_16390" data-name="Path 16390" d="M305.8,394.383a.741.741,0,0,1-.741-.741v-1.406a.742.742,0,0,1,1.483,0v1.406a.741.741,0,0,1-.742.741Z" transform="translate(-274.906 -352.412)" fill="#147db2"/>
      <path id="Path_16394" data-name="Path 16394" d="M115.072,252.9a1.541,1.541,0,0,0,1.033-1.452v-1.11a1.542,1.542,0,0,0-1.54-1.54H111.6l-1.524-2.986a3.5,3.5,0,0,0-3.13-1.917h-2.184l-1.19-2.493a1.723,1.723,0,0,0-1.547-.976H95.6a1.723,1.723,0,0,0-1.547.976l-1.19,2.493H90.805a3.5,3.5,0,0,0-3.13,1.917L86.152,248.8H83.183a1.542,1.542,0,0,0-1.54,1.54v1.11a1.541,1.541,0,0,0,1.033,1.452,3.82,3.82,0,0,0-1.039,2.615v9.72a2,2,0,0,0,2,2H86.35a2,2,0,0,0,1.99-1.88c.065,0,.13.008.2.008h20.678a1.715,1.715,0,0,0,.2-.008,2,2,0,0,0,1.99,1.88h2.717a2,2,0,0,0,2-2v-9.72A3.82,3.82,0,0,0,115.072,252.9Zm-.507-2.619a.056.056,0,0,1,.056.056v1.11a.056.056,0,0,1-.056.056h-1.587l-.624-1.223Zm-19.179-8.24a.233.233,0,0,1,.209-.132h6.426a.232.232,0,0,1,.209.132l.885,1.854H94.5ZM89,246.491a2.022,2.022,0,0,1,1.809-1.108h16.138a2.022,2.022,0,0,1,1.809,1.108l2.561,5.018H86.436Zm-5.869,3.852a.056.056,0,0,1,.056-.056H85.4l-.624,1.223H83.183a.056.056,0,0,1-.056-.056v-1.11Zm3.735,14.9a.513.513,0,0,1-.512.512H83.633a.513.513,0,0,1-.512-.512v-4.435l3.41,3.683a2.714,2.714,0,0,0,.332.3v.449Zm27.765,0a.513.513,0,0,1-.512.512H111.4a.513.513,0,0,1-.512-.512v-.449a2.718,2.718,0,0,0,.332-.3l3.41-3.683v4.435Zm0-7.329a1.807,1.807,0,0,1-.483,1.231l-4.016,4.338a1.252,1.252,0,0,1-.916.4H88.535a1.252,1.252,0,0,1-.916-.4l-4.019-4.34a1.807,1.807,0,0,1-.483-1.231V255.52a2.338,2.338,0,0,1,1.388-2.135l.883-.392h26.966l.883.392a2.338,2.338,0,0,1,1.388,2.135Z" transform="translate(-73.566 -216.283)" fill="#147db2"/>
      <path id="Path_16395" data-name="Path 16395" d="M201.066,426.487h-1.877a.742.742,0,0,0,0,1.483h1.476l-.5,1.454h-9.051l-.5-1.454h5.1a.742.742,0,1,0,0-1.483h-5.5a1.2,1.2,0,0,0-1.132,1.585l.695,2.026a1.2,1.2,0,0,0,1.132.809h9.46a1.2,1.2,0,0,0,1.132-.809l.7-2.026a1.2,1.2,0,0,0-1.132-1.585Z" transform="translate(-170.334 -383.946)" fill="#147db2"/>
      <path id="Path_16396" data-name="Path 16396" d="M122.2,379.862a2.841,2.841,0,1,0,2.841,2.841,2.841,2.841,0,0,0-2.841-2.841Zm0,4.2a1.358,1.358,0,1,1,1.358-1.358,1.358,1.358,0,0,1-1.358,1.358Z" transform="translate(-107.562 -341.93)" fill="#147db2"/>
      <path id="Path_16397" data-name="Path 16397" d="M338,379.862a2.841,2.841,0,1,0,2.841,2.841A2.841,2.841,0,0,0,338,379.862Zm0,4.2a1.358,1.358,0,1,1,1.358-1.358A1.358,1.358,0,0,1,338,384.062Z" transform="translate(-302.021 -341.93)" fill="#147db2"/>
      <path id="Path_16398" data-name="Path 16398" d="M45.554.421H5.061A5.067,5.067,0,0,0,0,5.482V13.13a1.418,1.418,0,0,0,1.417,1.417H1.7V49.915a1.04,1.04,0,0,0,1.04,1.038H5.311a1.04,1.04,0,0,0,1.038-1.038V17.678h4.322a.742.742,0,0,0,0-1.483H6.349V14.547H44.266v1.647H14.07a.742.742,0,0,0,0,1.483h30.2V49.915a1.04,1.04,0,0,0,1.03,1.038h2.571a1.04,1.04,0,0,0,1.038-1.038V14.547H49.2a1.418,1.418,0,0,0,1.417-1.417V5.482A5.067,5.067,0,0,0,45.554.421ZM1.483,5.482A3.582,3.582,0,0,1,5.061,1.9H45.554a3.582,3.582,0,0,1,3.578,3.578V8.464H1.483Zm36.733,7.581L40,9.948h2.363l-1.786,3.116Zm-7.491,0L32.51,9.948h2.363l-1.786,3.116Zm-7.492,0,1.786-3.116h2.363L25.6,13.064Zm-7.491,0,1.786-3.116h2.363L18.1,13.064Zm-7.491,0,1.786-3.116H12.4l-1.786,3.116ZM1.483,9.948H4.908L3.122,13.064H1.483Zm3.382,6.988V49.47H3.185V14.547H4.866Zm.742-3.872H4.832L6.618,9.948H8.326L6.54,13.064Zm6.716,0,1.786-3.116h1.709l-1.786,3.116Zm7.491,0L21.6,9.948h1.709l-1.786,3.116Zm7.491,0,1.786-3.116H30.8l-1.786,3.116Zm7.491,0,1.786-3.116h1.709l-1.786,3.116Zm7.491,0,1.786-3.116h1.709L44,13.064ZM47.431,49.47H45.749V14.547H47.43Zm1.7-36.406H45.707l1.786-3.116h1.639v3.116Z"/>
    </g>
  </g>
</svg>
