<svg xmlns="http://www.w3.org/2000/svg" width="47.682" height="50.667" viewBox="0 0 47.682 50.667">
  <g id="Group_1585" data-name="Group 1585" transform="translate(-48 -370.333)">
    <path id="Path_16331" data-name="Path 16331" d="M-4621.833,4339.333l-4.5-7.667s1.167-21.5-22.5-21.833-16.167,26-16.167,26l5.333,7.167-1.5,14.333h19.667l1.833-4.5,10.5,3.167,2.833-10.667L-4625,4343Z" transform="translate(4716 -3938)" fill="#f0c087"/>
    <circle id="Ellipse_111" data-name="Ellipse 111" cx="9" cy="9" r="9" transform="translate(60 381)" fill="#ffca28"/>
    <g id="philosophy" transform="translate(32.976 370.334)">
      <path id="Path_16329" data-name="Path 16329" d="M125.1,79.78a11.622,11.622,0,0,0-6.758,21.078l.537,8.038a1.49,1.49,0,0,0,1.487,1.39h9.467a1.49,1.49,0,0,0,1.487-1.39l.537-8.037A11.622,11.622,0,0,0,125.1,79.78Zm3.34,27.527h-6.68l-.387-5.79h7.454Zm1.537-8.77h-3.387v-4.71l.915.528a1.49,1.49,0,0,0,1.49-2.581l-.915-.528.915-.528a1.49,1.49,0,0,0-1.49-2.581l-.915.528V87.608a1.49,1.49,0,0,0-2.98,0v1.057l-.915-.528a1.49,1.49,0,0,0-1.49,2.581l.915.528-.915.528a1.49,1.49,0,0,0,1.49,2.581l.915-.528v4.711H120.22a8.643,8.643,0,1,1,9.754,0Z" transform="translate(-88.671 -71.856)"/>
      <path id="Path_16330" data-name="Path 16330" d="M62.2,29.747l-3.9-6.823a.985.985,0,0,1-.095-.452c.287-9.826-5.4-18.112-14.49-21.109-11.634-3.837-25.4.376-28.054,13.292C13.737,24,16.5,28.016,19.7,31.746c1.471,1.716,2.534,2.955,2.566,4.882a35.378,35.378,0,0,1-2.393,12.036,1.491,1.491,0,0,0,1.4,2H41.8a1.49,1.49,0,0,0,1.467-1.232,20.965,20.965,0,0,1,.787-3.174A23.992,23.992,0,0,0,49.409,48.3c2.711.661,4.575.554,5.54-.317,1.546-1.4,2.179-3.248,3.332-12.729l1.348-.192A3.534,3.534,0,0,0,62.2,29.747ZM59.21,32.113l-1.565.223a2.7,2.7,0,0,0-2.3,2.345c-.146,1.2-.282,2.268-.411,3.215a8.209,8.209,0,0,1-4.3-.9,1.49,1.49,0,1,0-1.374,2.644,11.2,11.2,0,0,0,5.153,1.254h.081c-.582,3.524-1,4.353-1.464,4.808a7.908,7.908,0,0,1-3.322-.4,20.893,20.893,0,0,1-5.547-2.421,1.49,1.49,0,0,0-2.047.443,13.934,13.934,0,0,0-1.535,4.363H23.359a35.8,35.8,0,0,0,1.888-11.108c-.051-3-1.694-4.918-3.284-6.772-2.529-2.95-5.145-6-3.386-14.551,2.337-11.364,14.66-14.209,24.2-11.062A18.1,18.1,0,0,1,55.223,22.385a3.97,3.97,0,0,0,.433,1.922q.015.03.032.06L59.62,31.24l.019.031A.554.554,0,0,1,59.21,32.113Z" transform="translate(0 0)"/>
    </g>
    <rect id="Rectangle_654" data-name="Rectangle 654" width="9" height="7" transform="translate(65 399)" fill="#f44336"/>
  </g>
</svg>
