<svg xmlns="http://www.w3.org/2000/svg" xmlns:xlink="http://www.w3.org/1999/xlink" width="54.673" height="54.688" viewBox="0 0 54.673 54.688">
  <defs>
    <linearGradient id="linear-gradient" x1="0.5" x2="0.5" y2="1" gradientUnits="objectBoundingBox">
      <stop offset="0.13" stop-color="#00a9ed"/>
      <stop offset="1" stop-color="#65106b"/>
    </linearGradient>
  </defs>
  <g id="Group_1636" data-name="Group 1636" transform="translate(4268.97 -6619.334)">
    <g id="field" transform="translate(-4268.997 6619.333)">
      <path id="Path_16416" data-name="Path 16416" d="M298.52,400.957a34.118,34.118,0,0,0-24.012,10.035,1.068,1.068,0,0,0,1.514,1.506,31.968,31.968,0,0,1,22.5-9.406,1.068,1.068,0,1,0,0-2.135Zm0,0" transform="translate(-244.922 -358.146)" fill="url(#linear-gradient)"/>
      <path id="Path_16417" data-name="Path 16417" d="M183.668,387.761a1.067,1.067,0,0,0-1.482-.287,42.144,42.144,0,0,0-11.461,11.469,1.068,1.068,0,1,0,1.773,1.191,40.007,40.007,0,0,1,10.884-10.89,1.068,1.068,0,0,0,.287-1.482Zm0,0" transform="translate(-152.335 -345.939)" fill="url(#linear-gradient)"/>
      <path id="Path_16418" data-name="Path 16418" d="M378.568,320.457a41.991,41.991,0,0,0-14.042,2.424,1.068,1.068,0,1,0,.712,2.013,39.864,39.864,0,0,1,13.33-2.3,1.068,1.068,0,1,0,0-2.135Zm0,0" transform="translate(-324.971 -286.241)" fill="url(#linear-gradient)"/>
      <path id="Path_16419" data-name="Path 16419" d="M15.3,47.341a48.665,48.665,0,0,1,28.413-17.9h.006A47.587,47.587,0,0,1,53.6,28.4a1.068,1.068,0,1,0,0-2.135,50.244,50.244,0,0,0-9.033.821v-2.3A15.813,15.813,0,0,0,50.545,12.68,15.928,15.928,0,0,0,44.166.236a1.068,1.068,0,0,0-1.338,0,15.929,15.929,0,0,0-6.376,12.436A15.815,15.815,0,0,0,42.43,24.778V27.52a50.556,50.556,0,0,0-5.986,1.759V23.027a1.064,1.064,0,0,0-.31-.752h0L30.153,16.26a1.069,1.069,0,0,0-.757-.315H17.189a1.068,1.068,0,0,0-.757.315l-5.979,6.015h0a1.064,1.064,0,0,0-.311.753V27.1q-1.116-.2-2.242-.359v-3.8a12.186,12.186,0,0,0,4.519-9.272A12.3,12.3,0,0,0,7.5,4.062a1.068,1.068,0,0,0-1.338,0,12.3,12.3,0,0,0-4.918,9.6,12.186,12.186,0,0,0,4.519,9.272V26.5q-2.335-.218-4.7-.221a1.068,1.068,0,0,0,0,2.135,48.157,48.157,0,0,1,24.25,6.544,50.4,50.4,0,0,0-5.043,3.917,42.478,42.478,0,0,0-19.2-4.641,1.068,1.068,0,0,0,0,2.135A40.308,40.308,0,0,1,18.6,40.427a50.457,50.457,0,0,0-4.541,5.026A33.4,33.4,0,0,0,1.066,42.829a1.068,1.068,0,0,0,0,2.135,31.26,31.26,0,0,1,11.667,2.257q-1.119,1.533-2.1,3.156L9,53.043a1.068,1.068,0,1,0,1.823,1.112l1.627-2.666a47.4,47.4,0,0,1,2.742-4.012,1.01,1.01,0,0,0,.106-.138ZM38.587,12.672A13.625,13.625,0,0,1,43.5,2.466a13.625,13.625,0,0,1,4.91,10.207,13.292,13.292,0,0,1-3.842,9.171V13.667a1.068,1.068,0,0,0-2.135,0v8.176a13.29,13.29,0,0,1-3.846-9.171Zm-35.207,1A9.991,9.991,0,0,1,6.832,6.3a9.991,9.991,0,0,1,3.452,7.366A9.653,9.653,0,0,1,7.9,19.918v-7.1a1.068,1.068,0,1,0-2.135,0v7.1A9.653,9.653,0,0,1,3.38,13.667ZM32.808,21.96h-9.2l-3.852-3.88h9.2Zm-15.62-3.433L20.6,21.96H13.777ZM12.277,24.1H22.1v6.79q-.743-.342-1.5-.659V26.64a1.068,1.068,0,0,0-1.068-1.068h-4.7a1.068,1.068,0,0,0-1.068,1.068v1.27q-.744-.194-1.495-.366Zm6.193,5.288q-1.27-.468-2.562-.867v-.809H18.47Zm5.766,2.547V24.1H34.308v6.013a50.112,50.112,0,0,0-5.349,2.6q-.831.466-1.642.965-1.514-.925-3.082-1.738Zm0,0" fill="url(#linear-gradient)"/>
      <path id="Path_16420" data-name="Path 16420" d="M398.466,82.135a1.069,1.069,0,1,0-.754-.313,1.069,1.069,0,0,0,.754.313Zm0,0" transform="translate(-354.969 -71.458)" fill="url(#linear-gradient)"/>
      <path id="Path_16421" data-name="Path 16421" d="M317.981,362.65a1.066,1.066,0,1,0,.755-.313,1.077,1.077,0,0,0-.755.313Zm0,0" transform="translate(-283.752 -323.649)" fill="url(#linear-gradient)"/>
    </g>
  </g>
</svg>
