<svg xmlns="http://www.w3.org/2000/svg" xmlns:xlink="http://www.w3.org/1999/xlink" width="67.918" height="50.361" viewBox="0 0 67.918 50.361">
  <defs>
    <linearGradient id="linear-gradient" x1="0.5" x2="0.5" y2="1" gradientUnits="objectBoundingBox">
      <stop offset="0.13" stop-color="#00a9ed"/>
      <stop offset="1" stop-color="#65106b"/>
    </linearGradient>
  </defs>
  <g id="Group_1601" data-name="Group 1601" transform="translate(4660 -6609.648)">
    <g id="handshake" transform="translate(-4660 6543.422)">
      <g id="Group_1596" data-name="Group 1596" transform="translate(0 66.227)">
        <g id="Group_1595" data-name="Group 1595">
          <path id="Path_16348" data-name="Path 16348" d="M67.6,80.136,54.431,66.962a1.085,1.085,0,0,0-1.534,0L46.31,73.549a1.085,1.085,0,0,0,0,1.534l.657.657-1.51,1.51a3.391,3.391,0,0,1-3.785.665,9.369,9.369,0,0,0-8.354.311,7.311,7.311,0,0,0-4.246.226A3.378,3.378,0,0,1,25.49,77.7l-2.711-2.711.323-.323a1.085,1.085,0,0,0,0-1.534l-6.587-6.587a1.085,1.085,0,0,0-1.534,0L.318,81.208a1.085,1.085,0,0,0,0,1.534L6.9,89.328a1.085,1.085,0,0,0,1.534,0l.393-.393,1.912,1.912a3.317,3.317,0,0,1,.925,1.742,17.035,17.035,0,0,0,4.719,8.958l.36.36a3.9,3.9,0,0,0,2.832,6.588h.2a3.9,3.9,0,0,0,3.9,4.1h.087a3.9,3.9,0,0,0,6.661,2.846c.062-.062.121-.126.178-.191a3.649,3.649,0,0,0,4.6-2.129l.111.111a3.649,3.649,0,0,0,6-1.31A3.654,3.654,0,0,0,47,108.1a3.648,3.648,0,0,0,2.24-5.684l.87-.87a17.029,17.029,0,0,0,4.739-9.07,2.93,2.93,0,0,1,.828-1.553l3.237-3.237.569.569a1.085,1.085,0,0,0,1.534,0L67.6,81.67a1.084,1.084,0,0,0,0-1.534ZM7.672,87.027,2.619,81.975,15.748,68.846,20.8,73.9ZM20.806,105.82a1.734,1.734,0,1,1,0-2.453A1.734,1.734,0,0,1,20.806,105.82Zm4.092,4.092a1.718,1.718,0,1,1,.515-1.226,1.718,1.718,0,0,1-.515,1.226Zm3.987,3.987a1.721,1.721,0,1,1,.514-1.226,1.721,1.721,0,0,1-.514,1.226Zm18.425-8.327a1.475,1.475,0,0,1-2.088,0L34.7,95.051a1.085,1.085,0,0,0-1.534,1.534L44.5,107.92a1.478,1.478,0,1,1-2.09,2.09L40.5,108.1l-.032-.033-.01-.009-8.791-8.791a1.085,1.085,0,0,0-1.534,1.534l8.819,8.819a1.477,1.477,0,0,1-2.1,2.074l-9.563-9.563a1.085,1.085,0,1,0-1.534,1.534l7.089,7.089.006.006a1.478,1.478,0,0,1-1.046,2.521,1.5,1.5,0,0,1-.28-.027,3.9,3.9,0,0,0-3.859-4.482h-.087a3.9,3.9,0,0,0-3.9-3.989h-.195a3.9,3.9,0,0,0-4.778-4L17.927,100a14.873,14.873,0,0,1-4.12-7.822A5.479,5.479,0,0,0,12.284,89.3l-1.918-1.9L21.245,76.521l2.711,2.711a5.531,5.531,0,0,0,3.914,1.6,5.688,5.688,0,0,0,1.944-.342,5.105,5.105,0,0,1,.947-.243l-6.717,6.717A4.352,4.352,0,1,0,30.2,93.117l3.374-3.374.913.914h0l.038.038.036.036h0l.031.03,12.72,12.72a1.478,1.478,0,0,1,0,2.09ZM54.143,89.39a5.088,5.088,0,0,0-1.429,2.7,14.87,14.87,0,0,1-4.138,7.92l-.834.834-6.862-6.86c.149.011.3.018.45.018a5.536,5.536,0,0,0,2.114-.411,1.085,1.085,0,1,0-.821-2.008c-2.792,1.142-6.139-2.006-6.512-2.369l-.019-.018-.038-.038h0l-.034-.033h0l-.92-.915,1.036-1.036A1.085,1.085,0,0,0,34.6,85.64l-1.8,1.8h0l-4.139,4.139A2.181,2.181,0,1,1,25.579,88.5l7.144-7.144a7.194,7.194,0,0,1,8.054-1.465,5.571,5.571,0,0,0,6.215-1.106l1.51-1.51,8.879,8.879Zm6.107-3.435L48.611,74.316l5.053-5.052L65.3,80.9Z" transform="translate(0 -66.227)" fill="url(#linear-gradient)"/>
        </g>
      </g>
      <g id="Group_1598" data-name="Group 1598" transform="translate(60.259 80.647)">
        <g id="Group_1597" data-name="Group 1597">
          <circle id="Ellipse_113" data-name="Ellipse 113" cx="1.085" cy="1.085" r="1.085" transform="translate(0 0)" fill="url(#linear-gradient)"/>
        </g>
      </g>
      <g id="Group_1600" data-name="Group 1600" transform="translate(6.022 81.719)">
        <g id="Group_1599" data-name="Group 1599">
          <circle id="Ellipse_114" data-name="Ellipse 114" cx="1.085" cy="1.085" r="1.085" transform="translate(0 0)" fill="url(#linear-gradient)"/>
        </g>
      </g>
    </g>
  </g>
</svg>
