<svg xmlns="http://www.w3.org/2000/svg" width="119.64" height="119.454" viewBox="0 0 119.64 119.454">
  <g id="Page-1" transform="translate(-0.002 -0.092)">
    <g id="_033---Insurance" data-name="033---Insurance" transform="translate(0.002 0.092)">
      <path id="Shape" d="M56.309,49.008a10.684,10.684,0,0,0,4.423-8.636V13.81L39.366,4.458,18,13.81V40.372a10.684,10.684,0,0,0,4.423,8.636L39.366,61.23ZM35.454,46.182a2.3,2.3,0,0,1-.361.03,2.137,2.137,0,0,1-1.282-.427l-8.546-6.41a2.137,2.137,0,0,1,2.564-3.419l6.739,5.055L50.408,17.25a2.137,2.137,0,0,1,3.555,2.372L36.871,45.261A2.137,2.137,0,0,1,35.454,46.182Z" transform="translate(20.454 4.87)" fill="#fff"/>
      <path id="Shape-2" data-name="Shape" d="M65.856,60.9a19.249,19.249,0,0,0,7.97-15.567V13.185L43.913.092,14,13.185v32.15A19.249,19.249,0,0,0,21.97,60.9L43.913,76.728ZM24.469,57.437a14.956,14.956,0,0,1-6.2-12.1V17.377a2.136,2.136,0,0,1,1.282-1.957l23.5-10.29a2.137,2.137,0,0,1,1.709,0l23.5,10.29a2.136,2.136,0,0,1,1.282,1.957V45.335a14.956,14.956,0,0,1-6.2,12.1L45.162,70.56a2.136,2.136,0,0,1-2.5,0Z" transform="translate(15.907 -0.092)" fill="#fff"/>
      <path id="Shape-3" data-name="Shape" d="M35.5,48H12V65.093H35.5Zm-6.41,10.683H26.956a2.137,2.137,0,0,1,0-4.273h2.137a2.137,2.137,0,0,1,0,4.273Z" transform="translate(13.634 54.361)" fill="#fff"/>
      <path id="Shape-4" data-name="Shape" d="M4.875,27.754A2.539,2.539,0,1,0,.23,29.8L8.6,48.224a18.48,18.48,0,0,0,3.771,5.442L27.2,68.49H44.866V64.514A18.129,18.129,0,0,0,41.121,53.19a11.225,11.225,0,0,0-5.139-3.81A45.551,45.551,0,0,1,22.35,40.748a5.555,5.555,0,0,0-6.92-.115,21.075,21.075,0,0,0,2.634,3.2l9.76,9.762A2.137,2.137,0,1,1,24.8,56.621l-9.76-9.762A25.213,25.213,0,0,1,9.655,38.9Z" transform="translate(-0.002 29.597)" fill="#fff"/>
      <path id="Shape-5" data-name="Shape" d="M71.264,48.224,79.637,29.8a2.539,2.539,0,1,0-4.645-2.053L70.212,38.9a25.211,25.211,0,0,1-5.389,7.959l-9.76,9.762A2.137,2.137,0,0,1,52.043,53.6l9.76-9.762a20.951,20.951,0,0,0,2.647-3.226,5.555,5.555,0,0,0-6.933.135,45.532,45.532,0,0,1-13.634,8.632,11.231,11.231,0,0,0-5.128,3.81A18.129,18.129,0,0,0,35,64.514V68.49H52.669L67.493,53.666A18.478,18.478,0,0,0,71.264,48.224Z" transform="translate(39.775 29.597)" fill="#fff"/>
      <path id="Shape-6" data-name="Shape" d="M56.5,48H33V65.093H56.5ZM41.546,58.683H39.41a2.137,2.137,0,1,1,0-4.273h2.137a2.137,2.137,0,0,1,0,4.273Z" transform="translate(37.503 54.361)" fill="#fff"/>
    </g>
  </g>
</svg>
