<svg xmlns="http://www.w3.org/2000/svg" xmlns:xlink="http://www.w3.org/1999/xlink" width="73.622" height="71.009" viewBox="0 0 73.622 71.009">
  <defs>
    <clipPath id="clip-path">
      <rect id="Rectangle_828" data-name="Rectangle 828" width="73.622" height="71.009" fill="none"/>
    </clipPath>
    <linearGradient id="linear-gradient" y1="0.5" x2="1" y2="0.5" gradientUnits="objectBoundingBox">
      <stop offset="0" stop-color="#cfced0"/>
      <stop offset="0.011" stop-color="#d0cfd1"/>
      <stop offset="0.197" stop-color="#eae9ea"/>
      <stop offset="0.365" stop-color="#f9f9f9"/>
      <stop offset="0.497" stop-color="#fff"/>
      <stop offset="0.685" stop-color="#fbfafa"/>
      <stop offset="0.883" stop-color="#efeeee"/>
      <stop offset="1" stop-color="#e5e3e3"/>
    </linearGradient>
  </defs>
  <g id="Group_2923" data-name="Group 2923" clip-path="url(#clip-path)">
    <g id="Group_2922" data-name="Group 2922" transform="translate(1.408 -21.815)">
      <path id="Path_18335" data-name="Path 18335" d="M778.97,443.422l-8.289,5.435-6.707,4.4-29.6-45.13,0,0,3.474-6.415.547-1.015.877-1.626.547-1.015,4.249-7.837,11.748,17.914,14.868,22.664Z" transform="translate(-734.372 -390.21)" fill="url(#linear-gradient)"/>
      <path id="Path_18336" data-name="Path 18336" d="M769.876,442.242l-3.086,2.038L735.8,397.085l.547-1.015.877-1.626.547-1.015Z" transform="translate(-732.325 -385.592)" fill="#6bc4f0"/>
      <path id="Path_18337" data-name="Path 18337" d="M745.882,443.422l8.289,5.435,6.707,4.4,29.6-45.13,0,0-3.474-6.415-.547-1.015-.877-1.626-.547-1.015-4.249-7.837-11.748,17.914-14.868,22.664Z" transform="translate(-717.859 -390.21)" fill="url(#linear-gradient)"/>
      <path id="Path_18338" data-name="Path 18338" d="M748.776,442.242l3.086,2.038,30.991-47.194-.547-1.015-.877-1.626-.547-1.015Z" transform="translate(-713.706 -385.592)" fill="#6bc4f0"/>
      <path id="Path_18339" data-name="Path 18339" d="M784.676,430.935a22.268,22.268,0,1,1-22.271-22.271A22.269,22.269,0,0,1,784.676,430.935Z" transform="translate(-726.097 -363.733)" fill="url(#linear-gradient)"/>
      <g id="Group_2903" data-name="Group 2903" transform="translate(17.865 49.732)">
        <g id="Group_2902" data-name="Group 2902">
          <g id="Group_2901" data-name="Group 2901">
            <g id="Group_2886" data-name="Group 2886" transform="translate(11.29)">
              <path id="Path_18340" data-name="Path 18340" d="M747.513,413.167a2.057,2.057,0,0,1-1.1-1.281,2.02,2.02,0,0,1,1.678.027,2.058,2.058,0,0,1,1.093,1.278A2.032,2.032,0,0,1,747.513,413.167Z" transform="translate(-746.246 -409.084)" fill="#6bc4f0"/>
              <path id="Path_18341" data-name="Path 18341" d="M747.784,412.326a2.044,2.044,0,0,1-1.268,1.105,2.066,2.066,0,0,1,.024-1.69,2.039,2.039,0,0,1,1.266-1.105A2.075,2.075,0,0,1,747.784,412.326Z" transform="translate(-746.347 -410.636)" fill="#6bc4f0"/>
            </g>
            <g id="Group_2887" data-name="Group 2887" transform="translate(8.736 1.144)">
              <path id="Path_18342" data-name="Path 18342" d="M746.737,413.6a.921.921,0,1,1,1.653-.27A2.021,2.021,0,0,1,746.737,413.6Z" transform="translate(-745.097 -409.545)" fill="#6bc4f0"/>
              <path id="Path_18343" data-name="Path 18343" d="M746.691,412.779a2.048,2.048,0,0,1-1.057,1.31,2.079,2.079,0,1,1,1.057-1.31Z" transform="translate(-745.298 -411.106)" fill="#6bc4f0"/>
            </g>
            <g id="Group_2888" data-name="Group 2888" transform="translate(6.391 2.783)">
              <path id="Path_18344" data-name="Path 18344" d="M746.028,414.2a.921.921,0,1,1,1.582-.555A2.045,2.045,0,0,1,746.028,414.2Z" transform="translate(-744.003 -410.296)" fill="#6bc4f0"/>
              <path id="Path_18345" data-name="Path 18345" d="M745.709,413.379a2.07,2.07,0,0,1-.815,1.475,2.044,2.044,0,0,1-.55-1.595,2.07,2.07,0,0,1,.816-1.48A2.094,2.094,0,0,1,745.709,413.379Z" transform="translate(-744.334 -411.779)" fill="#6bc4f0"/>
            </g>
            <g id="Group_2889" data-name="Group 2889" transform="translate(4.327 4.865)">
              <path id="Path_18346" data-name="Path 18346" d="M745.413,414.944a.922.922,0,1,1-.119-1.378.92.92,0,1,1,.119,1.378Z" transform="translate(-742.998 -411.309)" fill="#6bc4f0"/>
              <path id="Path_18347" data-name="Path 18347" d="M744.863,414.112a.924.924,0,1,1-.816-1.478A2.088,2.088,0,0,1,744.863,414.112Z" transform="translate(-743.487 -412.634)" fill="#6bc4f0"/>
            </g>
            <g id="Group_2890" data-name="Group 2890" transform="translate(2.613 7.326)">
              <path id="Path_18348" data-name="Path 18348" d="M744.9,415.809a2.024,2.024,0,0,1-1.656-.268,2.05,2.05,0,0,1,1.3-1.066,2.024,2.024,0,0,1,1.656.268A2.049,2.049,0,0,1,744.9,415.809Z" transform="translate(-742.116 -412.558)" fill="#6bc4f0"/>
              <path id="Path_18349" data-name="Path 18349" d="M744.178,414.955a2.086,2.086,0,0,1-.268,1.67,2.072,2.072,0,1,1,.268-1.67Z" transform="translate(-742.783 -413.645)" fill="#6bc4f0"/>
            </g>
            <g id="Group_2891" data-name="Group 2891" transform="translate(1.295 10.087)">
              <path id="Path_18350" data-name="Path 18350" d="M744.519,416.773a.922.922,0,1,1,1.1-1.278A2.061,2.061,0,0,1,744.519,416.773Z" transform="translate(-741.377 -413.997)" fill="#6bc4f0"/>
              <path id="Path_18351" data-name="Path 18351" d="M743.677,415.884a.924.924,0,1,1-1.266-1.105A2.072,2.072,0,0,1,743.677,415.884Z" transform="translate(-742.242 -414.779)" fill="#6bc4f0"/>
            </g>
            <g id="Group_2892" data-name="Group 2892" transform="translate(0.415 13.072)">
              <path id="Path_18352" data-name="Path 18352" d="M744.272,417.8a2.019,2.019,0,0,1-1.646.319,2.066,2.066,0,0,1,.86-1.451.921.921,0,1,1,.786,1.132Z" transform="translate(-740.81 -415.591)" fill="#6bc4f0"/>
              <path id="Path_18353" data-name="Path 18353" d="M743.375,416.869a2.084,2.084,0,0,1,.314,1.663,2.049,2.049,0,0,1-1.439-.867,2.094,2.094,0,0,1-.317-1.66A2.036,2.036,0,0,1,743.375,416.869Z" transform="translate(-741.88 -416.005)" fill="#6bc4f0"/>
            </g>
            <g id="Group_2893" data-name="Group 2893" transform="translate(0 16.18)">
              <path id="Path_18354" data-name="Path 18354" d="M744.169,418.865a2.037,2.037,0,0,1-1.565.6,2.07,2.07,0,0,1,.6-1.58,2.029,2.029,0,0,1,1.566-.6A2.07,2.07,0,0,1,744.169,418.865Z" transform="translate(-740.431 -417.282)" fill="#6bc4f0"/>
              <path id="Path_18355" data-name="Path 18355" d="M743.281,417.886a2.088,2.088,0,0,1,.6,1.58,2.039,2.039,0,0,1-1.568-.6,2.07,2.07,0,0,1-.6-1.58A2.034,2.034,0,0,1,743.281,417.886Z" transform="translate(-741.71 -417.282)" fill="#6bc4f0"/>
            </g>
            <g id="Group_2894" data-name="Group 2894" transform="translate(0.079 18.553)">
              <path id="Path_18356" data-name="Path 18356" d="M744.244,419.916a2.031,2.031,0,0,1-1.436.867,2.078,2.078,0,0,1,.312-1.66,2.04,2.04,0,0,1,1.439-.867A2.071,2.071,0,0,1,744.244,419.916Z" transform="translate(-740.294 -418.256)" fill="#6bc4f0"/>
              <path id="Path_18357" data-name="Path 18357" d="M743.388,418.917a2.083,2.083,0,0,1,.859,1.454,2.019,2.019,0,0,1-1.646-.319.923.923,0,1,1,.787-1.135Z" transform="translate(-741.742 -417.841)" fill="#6bc4f0"/>
            </g>
            <g id="Group_2895" data-name="Group 2895" transform="translate(0.692 20.885)">
              <path id="Path_18358" data-name="Path 18358" d="M744.5,420.9a2.027,2.027,0,0,1-1.266,1.105,2.076,2.076,0,0,1,.027-1.69,2.04,2.04,0,0,1,1.266-1.105A2.076,2.076,0,0,1,744.5,420.9Z" transform="translate(-740.455 -419.214)" fill="#6bc4f0"/>
              <path id="Path_18359" data-name="Path 18359" d="M743.672,419.953a2.075,2.075,0,0,1,1.1,1.278,2.029,2.029,0,0,1-1.678-.022,2.065,2.065,0,0,1-1.1-1.281A2.019,2.019,0,0,1,743.672,419.953Z" transform="translate(-741.994 -418.434)" fill="#6bc4f0"/>
            </g>
            <g id="Group_2896" data-name="Group 2896" transform="translate(1.829 23.111)">
              <path id="Path_18360" data-name="Path 18360" d="M744.934,421.8a2.051,2.051,0,0,1-1.057,1.31,2.075,2.075,0,1,1,1.057-1.31Z" transform="translate(-740.916 -420.128)" fill="#6bc4f0"/>
              <path id="Path_18361" data-name="Path 18361" d="M744.117,420.957a.921.921,0,1,1-1.656.268A2.042,2.042,0,0,1,744.117,420.957Z" transform="translate(-742.461 -419.041)" fill="#6bc4f0"/>
            </g>
            <g id="Group_2897" data-name="Group 2897" transform="translate(3.453 25.158)">
              <path id="Path_18362" data-name="Path 18362" d="M745.525,422.566a.923.923,0,1,1-.55-1.6A2.066,2.066,0,0,1,745.525,422.566Z" transform="translate(-741.659 -420.969)" fill="#6bc4f0"/>
              <path id="Path_18363" data-name="Path 18363" d="M744.708,421.9a2.046,2.046,0,0,1,1.466.823,2.036,2.036,0,1,1-1.466-.823Z" transform="translate(-743.128 -419.645)" fill="#6bc4f0"/>
            </g>
            <g id="Group_2898" data-name="Group 2898" transform="translate(5.515 26.97)">
              <path id="Path_18364" data-name="Path 18364" d="M746.262,423.188a2.082,2.082,0,0,1-.548,1.6,2.082,2.082,0,1,1,.548-1.6Z" transform="translate(-742.663 -421.713)" fill="#6bc4f0"/>
              <path id="Path_18365" data-name="Path 18365" d="M745.436,422.755a.92.92,0,1,1-1.461.823A2.028,2.028,0,0,1,745.436,422.755Z" transform="translate(-743.975 -420.23)" fill="#6bc4f0"/>
            </g>
            <g id="Group_2899" data-name="Group 2899" transform="translate(7.953 28.486)">
              <path id="Path_18366" data-name="Path 18366" d="M747.121,423.648a.923.923,0,1,1-1.059-1.312A2.058,2.058,0,0,1,747.121,423.648Z" transform="translate(-743.9 -422.336)" fill="#6bc4f0"/>
              <path id="Path_18367" data-name="Path 18367" d="M746.274,423.493a.92.92,0,1,1-1.3,1.069A2.036,2.036,0,0,1,746.274,423.493Z" transform="translate(-744.976 -420.776)" fill="#6bc4f0"/>
            </g>
            <g id="Group_2900" data-name="Group 2900" transform="translate(10.689 29.665)">
              <path id="Path_18368" data-name="Path 18368" d="M748.075,423.925a2.092,2.092,0,0,1,.024,1.692,2.053,2.053,0,0,1-1.266-1.105,2.081,2.081,0,0,1-.027-1.692A2.058,2.058,0,0,1,748.075,423.925Z" transform="translate(-745.326 -422.82)" fill="#6bc4f0"/>
              <path id="Path_18369" data-name="Path 18369" d="M747.2,424.094a2.023,2.023,0,0,1,1.675-.022,2.054,2.054,0,0,1-1.1,1.278,2.014,2.014,0,0,1-1.675.024A2.051,2.051,0,0,1,747.2,424.094Z" transform="translate(-746.1 -421.268)" fill="#6bc4f0"/>
            </g>
          </g>
          <path id="Path_18370" data-name="Path 18370" d="M749.037,412.317a2.038,2.038,0,0,1-1.673-.122,2.058,2.058,0,0,1,1.2-1.178,2.027,2.027,0,0,1,1.673.122A2.058,2.058,0,0,1,749.037,412.317Z" transform="translate(-733.597 -410.27)" fill="#6bc4f0"/>
        </g>
        <path id="Path_18371" data-name="Path 18371" d="M761.291,446.052l-.183.18a15.349,15.349,0,0,0-2.12-1.578c-.083-.049-.158-.1-.234-.144a23.59,23.59,0,0,0-4.8-2.111c-.187-.066-.358-.124-.509-.18-.122-.049-.246-.085-.368-.144a14.243,14.243,0,0,1-1.678-.74c-.256-.124-.5-.258-.735-.4-.263-.153-.519-.3-.762-.477a10.131,10.131,0,0,1-.85-.589c-.2-.141-.394-.295-.592-.455h-.01A16.76,16.76,0,0,1,747,438.051c-.168-.17-.338-.351-.5-.533a15.422,15.422,0,0,1-1.234-1.617c-.151-.219-.292-.428-.424-.655a15.249,15.249,0,0,1-.932-1.751c-.115-.265-.227-.533-.331-.8a15,15,0,0,1-.575-1.816c-.076-.3-.141-.609-.207-.913a16.748,16.748,0,0,1-.236-1.826c-.019-.324-.036-.638-.036-.962v-.141a14,14,0,0,1,.095-1.695c.027-.324.073-.635.129-.952a16.273,16.273,0,0,1,.416-1.78c.083-.3.188-.6.292-.894a15.757,15.757,0,0,1,.726-1.692c.131-.268.266-.523.414-.782a15.115,15.115,0,0,1,1.028-1.578c.161-.219.321-.429.489-.638a16.393,16.393,0,0,1,1.329-1.454c.18-.173.368-.353.565-.523a14.865,14.865,0,0,1,1.565-1.217c.226-.153.455-.3.689-.448l.01-.01a16.623,16.623,0,0,1,1.695-.9c.275-.134.558-.256.84-.37.509-.2,1.028-.38,1.566-.533.441-.134.9-.239,1.346-.336l.058.239c-.436.088-.859.19-1.276.314a15.987,15.987,0,0,0-1.78.621c-.226.095-.453.19-.667.3a12.76,12.76,0,0,0-1.651.884,8.086,8.086,0,0,0-.7.465,14.224,14.224,0,0,0-1.463,1.132c-.226.183-.433.382-.64.582a15.529,15.529,0,0,0-1.271,1.388c-.18.219-.351.438-.511.665a14.3,14.3,0,0,0-1.054,1.636c-.131.229-.246.458-.358.684a15.232,15.232,0,0,0-.8,1.9,6.543,6.543,0,0,0-.2.645,14.779,14.779,0,0,0-.455,2.038c-.037.219-.063.438-.083.657a13.686,13.686,0,0,0-.095,1.646c0,.151,0,.3.01.455,0,.219.019.438.029.648a13.383,13.383,0,0,0,.283,1.987c.046.239.095.475.158.713a14.216,14.216,0,0,0,.584,1.816c.1.258.2.5.312.752a15.654,15.654,0,0,0,.867,1.653c.141.248.292.477.453.713a16.631,16.631,0,0,0,1.12,1.466c.192.219.39.438.587.648a15.636,15.636,0,0,0,1.346,1.256c.217.18.446.363.682.541s.46.326.7.487c.292.2.594.38.913.57.229.124.463.258.7.382a17.225,17.225,0,0,0,1.894.818c.037.007.073.027.112.037l.509.182h.01a23.656,23.656,0,0,1,4.947,2.2c.076.046.153.095.236.151A15.706,15.706,0,0,1,761.291,446.052Z" transform="translate(-740.541 -409.777)" fill="#6bc4f0"/>
      </g>
      <g id="Group_2921" data-name="Group 2921" transform="translate(34.003 49.732)">
        <g id="Group_2920" data-name="Group 2920" transform="translate(4.11)">
          <g id="Group_2919" data-name="Group 2919" transform="translate(2.413)">
            <g id="Group_2904" data-name="Group 2904">
              <path id="Path_18372" data-name="Path 18372" d="M752.69,413.167a2.05,2.05,0,0,0,1.1-1.281,2.009,2.009,0,0,0-1.673.027.921.921,0,1,0,.577,1.254Z" transform="translate(-751.017 -409.084)" fill="#6bc4f0"/>
              <path id="Path_18373" data-name="Path 18373" d="M751.749,412.326a2.039,2.039,0,0,0,1.266,1.105,2.076,2.076,0,0,0-.022-1.69,2.044,2.044,0,0,0-1.268-1.105A2.066,2.066,0,0,0,751.749,412.326Z" transform="translate(-750.244 -410.636)" fill="#6bc4f0"/>
            </g>
            <g id="Group_2905" data-name="Group 2905" transform="translate(2.203 1.144)">
              <path id="Path_18374" data-name="Path 18374" d="M753.575,413.6a.921.921,0,1,0-1.653-.27A2.017,2.017,0,0,0,753.575,413.6Z" transform="translate(-751.922 -409.545)" fill="#6bc4f0"/>
              <path id="Path_18375" data-name="Path 18375" d="M752.742,412.779a.924.924,0,1,0,.268-1.673A2.092,2.092,0,0,0,752.742,412.779Z" transform="translate(-750.845 -411.106)" fill="#6bc4f0"/>
            </g>
            <g id="Group_2906" data-name="Group 2906" transform="translate(4.232 2.783)">
              <path id="Path_18376" data-name="Path 18376" d="M754.338,414.2a.922.922,0,1,0-1.583-.555A2.045,2.045,0,0,0,754.338,414.2Z" transform="translate(-752.755 -410.296)" fill="#6bc4f0"/>
              <path id="Path_18377" data-name="Path 18377" d="M753.678,413.379a.923.923,0,1,0,1.366-.119.925.925,0,1,0-1.366.119Z" transform="translate(-751.443 -411.779)" fill="#6bc4f0"/>
            </g>
            <g id="Group_2907" data-name="Group 2907" transform="translate(6.026 4.865)">
              <path id="Path_18378" data-name="Path 18378" d="M754.955,414.944a.921.921,0,1,0-1.463-.825A2.035,2.035,0,0,0,754.955,414.944Z" transform="translate(-753.492 -411.309)" fill="#6bc4f0"/>
              <path id="Path_18379" data-name="Path 18379" d="M754.525,414.112a.923.923,0,1,0,.815-1.478A2.078,2.078,0,0,0,754.525,414.112Z" transform="translate(-752.022 -412.634)" fill="#6bc4f0"/>
            </g>
            <g id="Group_2908" data-name="Group 2908" transform="translate(7.528 7.326)">
              <path id="Path_18380" data-name="Path 18380" d="M755.412,415.809a2.02,2.02,0,0,0,1.653-.268,2.044,2.044,0,1,0-1.653.268Z" transform="translate(-754.109 -412.558)" fill="#6bc4f0"/>
              <path id="Path_18381" data-name="Path 18381" d="M755.258,414.955a.923.923,0,1,0,1.057-1.31A2.037,2.037,0,0,0,755.258,414.955Z" transform="translate(-752.562 -413.645)" fill="#6bc4f0"/>
            </g>
            <g id="Group_2909" data-name="Group 2909" transform="translate(8.699 10.087)">
              <path id="Path_18382" data-name="Path 18382" d="M755.683,416.773a2.038,2.038,0,0,0,1.678.024,2.061,2.061,0,0,0-1.1-1.281,2.017,2.017,0,0,0-1.673-.022A2.057,2.057,0,0,0,755.683,416.773Z" transform="translate(-754.59 -413.997)" fill="#6bc4f0"/>
              <path id="Path_18383" data-name="Path 18383" d="M755.852,415.884a2.081,2.081,0,0,0-.022,1.692,2.067,2.067,0,1,0,.022-1.692Z" transform="translate(-753.053 -414.779)" fill="#6bc4f0"/>
            </g>
            <g id="Group_2910" data-name="Group 2910" transform="translate(9.495 13.072)">
              <path id="Path_18384" data-name="Path 18384" d="M755.776,417.8a2.015,2.015,0,0,0,1.643.319,2.071,2.071,0,0,0-.857-1.451.922.922,0,1,0-.786,1.132Z" transform="translate(-754.917 -415.591)" fill="#6bc4f0"/>
              <path id="Path_18385" data-name="Path 18385" d="M756.3,416.869a2.086,2.086,0,0,0-.317,1.663,2.039,2.039,0,0,0,1.439-.867,2.075,2.075,0,0,0,.317-1.66A2.036,2.036,0,0,0,756.3,416.869Z" transform="translate(-753.47 -416.005)" fill="#6bc4f0"/>
            </g>
            <g id="Group_2911" data-name="Group 2911" transform="translate(9.891 16.18)">
              <path id="Path_18386" data-name="Path 18386" d="M755.679,418.865a2.039,2.039,0,0,0,1.568.6,2.088,2.088,0,0,0-.6-1.58,2.031,2.031,0,0,0-1.568-.6A2.07,2.07,0,0,0,755.679,418.865Z" transform="translate(-755.08 -417.282)" fill="#6bc4f0"/>
              <path id="Path_18387" data-name="Path 18387" d="M756.569,417.886a2.059,2.059,0,0,0-.594,1.58,2.032,2.032,0,0,0,1.563-.6,2.07,2.07,0,0,0,.6-1.58A2.029,2.029,0,0,0,756.569,417.886Z" transform="translate(-753.8 -417.282)" fill="#6bc4f0"/>
            </g>
            <g id="Group_2912" data-name="Group 2912" transform="translate(9.832 18.553)">
              <path id="Path_18388" data-name="Path 18388" d="M755.425,419.916a2.036,2.036,0,0,0,1.439.867,2.07,2.07,0,0,0-.314-1.66,2.036,2.036,0,0,0-1.439-.867A2.081,2.081,0,0,0,755.425,419.916Z" transform="translate(-755.055 -418.256)" fill="#6bc4f0"/>
              <path id="Path_18389" data-name="Path 18389" d="M756.66,418.917a2.066,2.066,0,0,0-.859,1.454,2.021,2.021,0,0,0,1.646-.319.923.923,0,1,0-.786-1.135Z" transform="translate(-753.985 -417.841)" fill="#6bc4f0"/>
            </g>
            <g id="Group_2913" data-name="Group 2913" transform="translate(9.301 20.885)">
              <path id="Path_18390" data-name="Path 18390" d="M755.029,420.9a2.037,2.037,0,0,0,1.268,1.105,2.1,2.1,0,0,0-.027-1.69A2.051,2.051,0,0,0,755,419.214,2.1,2.1,0,0,0,755.029,420.9Z" transform="translate(-754.837 -419.214)" fill="#6bc4f0"/>
              <path id="Path_18391" data-name="Path 18391" d="M756.533,419.953a2.049,2.049,0,0,0-1.093,1.278,2.018,2.018,0,0,0,1.673-.022,2.051,2.051,0,0,0,1.1-1.281A2.014,2.014,0,0,0,756.533,419.953Z" transform="translate(-753.973 -418.434)" fill="#6bc4f0"/>
            </g>
            <g id="Group_2914" data-name="Group 2914" transform="translate(8.313 23.111)">
              <path id="Path_18392" data-name="Path 18392" d="M754.5,421.8a.923.923,0,1,0,.268-1.668A2.078,2.078,0,0,0,754.5,421.8Z" transform="translate(-754.432 -420.128)" fill="#6bc4f0"/>
              <path id="Path_18393" data-name="Path 18393" d="M756.2,420.957a.921.921,0,1,0,1.653.268A2.042,2.042,0,0,0,756.2,420.957Z" transform="translate(-753.762 -419.041)" fill="#6bc4f0"/>
            </g>
            <g id="Group_2915" data-name="Group 2915" transform="translate(6.903 25.158)">
              <path id="Path_18394" data-name="Path 18394" d="M753.861,422.566a.923.923,0,1,0,.548-1.6A2.055,2.055,0,0,0,753.861,422.566Z" transform="translate(-753.852 -420.969)" fill="#6bc4f0"/>
              <path id="Path_18395" data-name="Path 18395" d="M755.655,421.9a.921.921,0,1,0,.122,1.378.92.92,0,1,0-.122-1.378Z" transform="translate(-753.365 -419.645)" fill="#6bc4f0"/>
            </g>
            <g id="Group_2916" data-name="Group 2916" transform="translate(5.108 26.97)">
              <path id="Path_18396" data-name="Path 18396" d="M753.122,423.188a.924.924,0,1,0,.816-1.475A2.066,2.066,0,0,0,753.122,423.188Z" transform="translate(-753.115 -421.713)" fill="#6bc4f0"/>
              <path id="Path_18397" data-name="Path 18397" d="M754.928,422.755a.92.92,0,1,0,1.463.823A2.022,2.022,0,0,0,754.928,422.755Z" transform="translate(-752.783 -420.23)" fill="#6bc4f0"/>
            </g>
            <g id="Group_2917" data-name="Group 2917" transform="translate(2.986 28.486)">
              <path id="Path_18398" data-name="Path 18398" d="M752.315,423.648a.923.923,0,1,0,1.057-1.312A2.068,2.068,0,0,0,752.315,423.648Z" transform="translate(-752.243 -422.336)" fill="#6bc4f0"/>
              <path id="Path_18399" data-name="Path 18399" d="M754.039,423.493a.921.921,0,1,0,1.3,1.069A2.057,2.057,0,0,0,754.039,423.493Z" transform="translate(-752.043 -420.776)" fill="#6bc4f0"/>
            </g>
            <g id="Group_2918" data-name="Group 2918" transform="translate(0.6 29.665)">
              <path id="Path_18400" data-name="Path 18400" d="M751.457,423.925a2.083,2.083,0,0,0-.027,1.692,2.075,2.075,0,1,0,.027-1.692Z" transform="translate(-751.264 -422.82)" fill="#6bc4f0"/>
              <path id="Path_18401" data-name="Path 18401" d="M753.01,424.094a2.028,2.028,0,0,0-1.677-.022,2.06,2.06,0,0,0,1.1,1.278,2.02,2.02,0,0,0,1.677.024A2.065,2.065,0,0,0,753.01,424.094Z" transform="translate(-751.164 -421.268)" fill="#6bc4f0"/>
            </g>
          </g>
          <path id="Path_18402" data-name="Path 18402" d="M751.231,412.317a2.032,2.032,0,0,0,1.67-.122,2.058,2.058,0,0,0-1.2-1.178.922.922,0,1,0-.468,1.3Z" transform="translate(-750.026 -410.27)" fill="#6bc4f0"/>
        </g>
        <path id="Path_18403" data-name="Path 18403" d="M767.105,427.039v.161c0,.314-.02.628-.039.942a14.334,14.334,0,0,1-.243,1.836v.01c-.058.3-.124.6-.2.893a15.409,15.409,0,0,1-.577,1.816c-.1.265-.214.533-.329.8a16.3,16.3,0,0,1-.923,1.741l-.01.01a7.677,7.677,0,0,1-.416.665,16.013,16.013,0,0,1-1.225,1.587c-.161.192-.331.372-.509.553a16.489,16.489,0,0,1-1.444,1.351c-.2.163-.4.326-.611.468h-.01a10.473,10.473,0,0,1-.857.609c-.236.163-.489.314-.745.458-.236.141-.48.275-.738.4a15.436,15.436,0,0,1-1.665.75h-.01c-.124.049-.246.085-.368.134-.161.056-.319.114-.509.18h-.01a23.91,23.91,0,0,0-4.789,2.111c-.073.039-.151.088-.236.144a14.787,14.787,0,0,0-2.128,1.578l-.18-.18a15.01,15.01,0,0,1,2.074-1.541,2.112,2.112,0,0,1,.234-.151,23.779,23.779,0,0,1,4.95-2.2c.19-.068.358-.124.509-.182.046-.02.085-.029.131-.046a17.514,17.514,0,0,0,1.877-.808c.243-.134.48-.258.716-.4l.008-.01c.3-.173.6-.353.879-.543.234-.151.47-.314.7-.487s.46-.351.689-.541a15.276,15.276,0,0,0,1.346-1.256c.209-.219.4-.429.594-.657l.01-.01a17.328,17.328,0,0,0,1.1-1.446c.17-.236.321-.484.47-.74a15.017,15.017,0,0,0,.86-1.626c.1-.239.207-.467.3-.713v-.01a15.517,15.517,0,0,0,.594-1.845c.066-.239.112-.475.161-.713v-.019a14.152,14.152,0,0,0,.282-1.967c.01-.2.019-.4.027-.609v-.01c.01-.163.01-.314.01-.484a13.178,13.178,0,0,0-.1-1.646c-.017-.209-.046-.419-.075-.628a13.846,13.846,0,0,0-.46-2.067c-.058-.217-.122-.436-.2-.645a15.2,15.2,0,0,0-.8-1.9c-.1-.226-.224-.446-.348-.665a15.551,15.551,0,0,0-1.067-1.656c-.158-.226-.326-.446-.509-.665a15.558,15.558,0,0,0-1.271-1.388c-.207-.2-.414-.4-.64-.582l-.012-.01a13.7,13.7,0,0,0-1.449-1.122c-.226-.17-.463-.321-.7-.465a12.927,12.927,0,0,0-1.651-.884,5.689,5.689,0,0,0-.66-.295l-.01-.01a15.858,15.858,0,0,0-1.782-.621c-.414-.124-.838-.226-1.271-.314l.046-.239c.46.1.916.212,1.359.346a12.846,12.846,0,0,1,1.563.533h.01c.282.114.558.236.83.36a16.812,16.812,0,0,1,1.724.933c.226.134.443.285.66.429a16.457,16.457,0,0,1,1.585,1.237l.01.007c.178.163.356.334.536.5a13.872,13.872,0,0,1,1.337,1.466c.173.2.331.409.485.618a15.094,15.094,0,0,1,1.025,1.578v.01a6.9,6.9,0,0,1,.414.772,12.015,12.015,0,0,1,.726,1.712v.01c.115.295.209.579.292.874a13.89,13.89,0,0,1,.416,1.78q.088.471.132.942A14.535,14.535,0,0,1,767.105,427.039Z" transform="translate(-748.338 -409.777)" fill="#6bc4f0"/>
      </g>
      <path id="Path_18404" data-name="Path 18404" d="M746.856,417.409a10.752,10.752,0,0,0,4.487-3.362h4.568v14.526H758.3v3.414H748.034v-3.414H750.6V419.05l-2.566,1.208Z" transform="translate(-716.461 -356.01)" fill="#6bc4f0"/>
    </g>
  </g>
</svg>
