<svg xmlns="http://www.w3.org/2000/svg" xmlns:xlink="http://www.w3.org/1999/xlink" width="303.983" height="377.58" viewBox="0 0 303.983 377.58">
  <defs>
    <linearGradient id="linear-gradient" x1="0.086" y1="0.168" x2="0.914" y2="0.76" gradientUnits="objectBoundingBox">
      <stop offset="0" stop-color="#fff"/>
      <stop offset="0.502" stop-color="#98dbf9"/>
      <stop offset="1" stop-color="#fff"/>
    </linearGradient>
  </defs>
  <path id="Path_18857" data-name="Path 18857" d="M88.286,142.663c-.877-10.732-5.5-46.056-28.736-57.708a2,2,0,0,0-2.627.772,1.805,1.805,0,0,0,.813,2.5,30.884,30.884,0,0,1,4.328,2.648L25.036,157.627a31.371,31.371,0,0,1-4.745-1.9,2,2,0,0,0-2.627.773,1.806,1.806,0,0,0,.813,2.5c23.235,11.65,56.505-4.667,66.319-10.039.877,10.732,5.5,46.056,28.737,57.708l.022.01.005,0c23.216,11.643,56.451-4.641,66.293-10.026.884,10.763,5.521,46.04,28.735,57.681l.006,0,.022.011c23.232,11.651,56.5-4.667,66.316-10.039.879,10.734,5.5,46.056,28.737,57.708a2,2,0,0,0,2.628-.772,1.807,1.807,0,0,0-.813-2.5,31.85,31.85,0,0,1-7.112-4.937l36.253-65.354a32.926,32.926,0,0,1,8.3,2.791,2,2,0,0,0,2.627-.775,1.8,1.8,0,0,0-.811-2.5c-23.235-11.651-56.505,4.667-66.317,10.039-.88-10.732-5.505-46.058-28.739-57.708l-.022-.01-.005,0c-23.214-11.644-56.452,4.641-66.293,10.027-.884-10.764-5.521-46.043-28.735-57.684h-.005l-.02-.011C131.371,120.973,98.1,137.292,88.286,142.663ZM258.65,192.342l-34.528,62.245a40.014,40.014,0,0,1-7.464-1.2l36.734-66.225A37.238,37.238,0,0,1,258.65,192.342Zm6.252,9.588-28.93,52.153a60.97,60.97,0,0,1-8.475.62l33.158-59.778A54.508,54.508,0,0,1,264.9,201.93Zm-159.016-5.8,35.253-63.551a37.264,37.264,0,0,1,7.3,1.556l-37.079,66.844A35.091,35.091,0,0,1,105.886,196.126Zm-6.541-9.144,30.163-54.376a56.4,56.4,0,0,1,8.327-.3l-34.047,61.379A50.765,50.765,0,0,1,99.345,186.982Zm51.939-51.764c.5.22,1.013.429,1.506.676a31.413,31.413,0,0,1,5.942,3.921L122.1,205.845a32.4,32.4,0,0,1-6.757-2.448c-.492-.249-.962-.529-1.437-.8ZM176.7,194.05c-2.618,1.377-6.432,3.258-11,5.167l11.9-21.446c.923,4.66,1.444,8.713,1.728,11.545Zm-15.409,6.918c-3.107,1.168-6.449,2.282-9.926,3.234l22.464-40.494c1.137,3.266,2.057,6.518,2.8,9.615ZM147.367,205.2a75.707,75.707,0,0,1-8.965,1.505l30.281-54.589a67.371,67.371,0,0,1,3.756,7.887Zm-12.546,1.762a47.62,47.62,0,0,1-9.631-.481l35.839-64.611a43.4,43.4,0,0,1,5.855,7.289Zm62.829,32.767a54.566,54.566,0,0,1-4.247-7l28.93-52.156a61.2,61.2,0,0,1,8.477-.62Zm36.534-59.662a40.011,40.011,0,0,1,7.465,1.2L204.913,247.5a37.16,37.16,0,0,1-5.257-5.18ZM191.811,229.4a82.954,82.954,0,0,1-3.286-8.751l20.566-37.074a93.8,93.8,0,0,1,9.45-2.365Zm-7.5-28.208c-.172-1.322-.308-2.509-.411-3.537l2.623-4.728c.951-.5,2.058-1.065,3.3-1.675Zm10.158-12.113c3.075-1.371,6.608-2.81,10.427-4.134l-17.549,31.638c-1.006-3.746-1.753-7.331-2.3-10.517Zm19.262,63.392a31.061,31.061,0,0,1-3.3-1.391,30.71,30.71,0,0,1-3.066-1.8l37.217-67.092a31.243,31.243,0,0,1,3.291,1.389,30.579,30.579,0,0,1,3.071,1.8ZM90.4,160.788a1.446,1.446,0,0,0,.535-.524l10.637-19.175a1.351,1.351,0,0,0,.152-.714c3.191-1.353,6.78-2.726,10.6-3.953L92.949,171.34C91.859,167.651,91.024,164.058,90.4,160.788Zm-.762-4.408c-.69-4.469-.981-7.92-1.09-9.564,1.49-.843,4.648-2.565,8.917-4.547Zm-22.847-3.294L81.7,126.2c1,4.28,1.657,8.217,2.091,11.441a2.682,2.682,0,0,0-.275.358l-5.46,9.842a2.505,2.505,0,0,0-.157.422C74.858,149.746,71.069,151.455,66.788,153.086Zm17.591-10.261c.075.818.123,1.477.156,1.981q-.68.385-1.805,1Zm-8.687-33.618L48.646,157.964a1.412,1.412,0,0,0-.1.329,66.718,66.718,0,0,1-9,1.009L71.71,101.313a59.33,59.33,0,0,1,4.208,7.632A1.439,1.439,0,0,0,75.692,109.207ZM64.505,92.848A39.527,39.527,0,0,1,69.732,98.5L35.987,159.336a42.839,42.839,0,0,1-7.859-.908ZM52.443,157.5l24.987-45.045a90.569,90.569,0,0,1,3.155,9.385L62.371,154.674A102.384,102.384,0,0,1,52.443,157.5Zm41.733,17.7a1.4,1.4,0,0,0,.242-.281l21.833-39.36a1.379,1.379,0,0,0,.109-.352,87.332,87.332,0,0,1,9.411-2.085L97.681,183.759A77.079,77.079,0,0,1,94.176,175.2Zm179.081,53.391-9.427,16.995c-3.074,1.372-6.608,2.812-10.427,4.136l17.556-31.648C271.965,221.818,272.711,225.4,273.257,228.589Zm.737,4.872c.4,3.072.595,5.423.68,6.7-1.153.652-3.3,1.83-6.2,3.251Zm18.618,1.953-11.924,21.5c-.922-4.648-1.446-8.7-1.732-11.535l2.665-4.805C284.245,239.192,288.057,237.316,292.612,235.415Zm27.292-7.48-30.295,54.614a67.236,67.236,0,0,1-3.76-7.882l25.09-45.231A76.184,76.184,0,0,1,319.9,227.935Zm-23.752,63.679a44.535,44.535,0,0,1-4.743-6.109l32.077-57.827a49.064,49.064,0,0,1,7.983.271Zm10.793-61.178-22.483,40.532a99.889,99.889,0,0,1-2.8-9.611l15.359-27.691C300.127,232.5,303.468,231.387,306.944,230.436ZM269.776,214,249.2,251.089a94.064,94.064,0,0,1-9.442,2.362l26.731-48.191A83.255,83.255,0,0,1,269.776,214Z" transform="translate(390.12 71.686) rotate(107)" opacity="0.27" fill="url(#linear-gradient)"/>
</svg>
