<svg xmlns="http://www.w3.org/2000/svg" xmlns:xlink="http://www.w3.org/1999/xlink" width="143.866" height="153.998" viewBox="0 0 143.866 153.998">
  <defs>
    <linearGradient id="linear-gradient" x1="0.5" x2="0.5" y2="1" gradientUnits="objectBoundingBox">
      <stop offset="0" stop-color="#cef0ff"/>
      <stop offset="0.469" stop-color="#98dbf9"/>
      <stop offset="1" stop-color="#e6f7ff"/>
    </linearGradient>
  </defs>
  <path id="Union_6" data-name="Union 6" d="M12144.614,20215a11.891,11.891,0,0,1-11.713-9.967h-.646a9.479,9.479,0,0,1-9.463-9.473v-20.787a7.24,7.24,0,0,1,0-13.754v-4.963a7.75,7.75,0,0,0-3.068-6.16,50,50,0,0,1-14.186-17.277,49.569,49.569,0,0,1,68.157-65.551,2.256,2.256,0,0,1-2.166,3.959,45.072,45.072,0,0,0-49.056,75.295,12.232,12.232,0,0,1,4.824,9.734v4.6h10.425v-5.3a4.665,4.665,0,0,1,4.658-4.662h.319v-5.455h-2.724a7.239,7.239,0,1,1,7.23-7.238v2.727h5.447V20138a7.23,7.23,0,1,1,7.23,7.238h-2.724v5.455h.319a4.663,4.663,0,0,1,4.656,4.662v5.3h10.426v-4.6a12.218,12.218,0,0,1,4.819-9.727,45.116,45.116,0,0,0,1.5-70.27,2.254,2.254,0,1,1,2.9-3.453,49.631,49.631,0,0,1-1.646,77.3,7.729,7.729,0,0,0-3.06,6.152v4.963a7.24,7.24,0,0,1,0,13.754v20.787a9.48,9.48,0,0,1-9.464,9.473h-.647a11.889,11.889,0,0,1-11.71,9.967Zm0-4.514h10.635a7.377,7.377,0,0,0,7.108-5.453H12137.5A7.376,7.376,0,0,0,12144.614,20210.486Zm-17.316-14.928a4.965,4.965,0,0,0,4.957,4.963h35.352a4.964,4.964,0,0,0,4.956-4.963v-.49H12127.3Zm0-5h45.265v-5.455h-30.8a2.255,2.255,0,1,1,0-4.51h30.8v-5.455H12127.3v5.455h5.447a2.255,2.255,0,1,1,0,4.51h-5.447Zm-4.977-22.66a2.73,2.73,0,0,0,2.725,2.729h49.771a2.727,2.727,0,0,0,0-5.453h-49.771A2.727,2.727,0,0,0,12122.321,20167.9Zm19.908-12.541v5.3h15.4v-5.3a.149.149,0,0,0-.148-.15h-15.1A.15.15,0,0,0,12142.229,20155.355Zm4.978-4.662h5.447v-5.455h-5.447Zm9.954-12.693v2.727h2.724a2.728,2.728,0,1,0-2.724-2.727Zm-19.908,0a2.727,2.727,0,0,0,2.724,2.727h2.724V20138a2.724,2.724,0,1,0-5.447,0Zm71.9,9.43-8.62-4.984a2.255,2.255,0,0,1,2.252-3.908l8.621,4.984a2.256,2.256,0,1,1-2.253,3.908Zm-121.514-.826a2.257,2.257,0,0,1,.825-3.082l8.62-4.984a2.256,2.256,0,0,1,2.253,3.908l-8.621,4.984a2.249,2.249,0,0,1-3.077-.826Zm59.263-21.3a4.737,4.737,0,0,1-4.6-3.594l-.758-3.041-.177-.07-2.683,1.609a4.73,4.73,0,0,1-5.794-.715l-4.29-4.293a4.75,4.75,0,0,1-.713-5.8l1.609-2.686c-.025-.059-.048-.117-.073-.176l-3.035-.762a4.74,4.74,0,0,1-3.591-4.605v-6.074a4.744,4.744,0,0,1,3.591-4.607l3.035-.758c.025-.059.048-.119.073-.178l-1.609-2.686a4.743,4.743,0,0,1,.713-5.8l4.29-4.3a4.733,4.733,0,0,1,5.794-.717l2.683,1.613c.059-.023.118-.049.177-.074l.758-3.035a4.736,4.736,0,0,1,4.6-3.6h6.067a4.737,4.737,0,0,1,4.6,3.6l.758,3.035c.059.025.119.051.178.074l2.682-1.613a4.732,4.732,0,0,1,5.793.717l4.291,4.3a4.74,4.74,0,0,1,.712,5.8l-1.609,2.686.073.178,3.035.758a4.742,4.742,0,0,1,3.591,4.607v6.074a4.74,4.74,0,0,1-3.591,4.605l-3.035.762-.073.176,1.609,2.686a4.747,4.747,0,0,1-.712,5.8l-4.291,4.293a4.729,4.729,0,0,1-5.793.715l-2.683-1.609-.177.07-.759,3.041a4.735,4.735,0,0,1-4.6,3.594Zm-4.7-11.277a17.51,17.51,0,0,0,1.972.816,2.255,2.255,0,0,1,1.451,1.584l1.046,4.188a.234.234,0,0,0,.229.178h6.067a.234.234,0,0,0,.228-.178l1.046-4.187a2.261,2.261,0,0,1,1.452-1.584,17.154,17.154,0,0,0,1.972-.816,2.253,2.253,0,0,1,2.146.094l3.693,2.221a.239.239,0,0,0,.287-.037l4.291-4.295a.233.233,0,0,0,.035-.287l-2.216-3.7a2.258,2.258,0,0,1-.092-2.152,17.763,17.763,0,0,0,.813-1.973,2.26,2.26,0,0,1,1.583-1.453l4.181-1.045a.236.236,0,0,0,.179-.23v-6.074a.236.236,0,0,0-.179-.23l-4.181-1.045a2.255,2.255,0,0,1-1.583-1.453,17.583,17.583,0,0,0-.814-1.973,2.262,2.262,0,0,1,.093-2.15l2.217-3.7a.233.233,0,0,0-.035-.287l-4.291-4.3a.237.237,0,0,0-.288-.033l-3.692,2.217a2.244,2.244,0,0,1-2.147.094,17.8,17.8,0,0,0-1.972-.814,2.254,2.254,0,0,1-1.451-1.584l-1.046-4.187a.235.235,0,0,0-.228-.178h-6.067a.234.234,0,0,0-.229.178l-1.046,4.188a2.248,2.248,0,0,1-1.451,1.584,17.875,17.875,0,0,0-1.972.814,2.242,2.242,0,0,1-2.146-.094l-3.693-2.217a.237.237,0,0,0-.288.033l-4.29,4.3a.232.232,0,0,0-.035.287l2.214,3.7a2.252,2.252,0,0,1,.094,2.15,17.919,17.919,0,0,0-.812,1.973,2.262,2.262,0,0,1-1.584,1.453l-4.182,1.045a.239.239,0,0,0-.179.23v6.074a.241.241,0,0,0,.18.23l4.181,1.045a2.262,2.262,0,0,1,1.584,1.453,17.578,17.578,0,0,0,.813,1.973,2.256,2.256,0,0,1-.094,2.152l-2.214,3.7a.235.235,0,0,0,.035.289l4.29,4.295a.241.241,0,0,0,.288.037l3.693-2.221a2.246,2.246,0,0,1,2.146-.094Zm67.455-1.18a2.256,2.256,0,0,1,0-4.512h9.955a2.256,2.256,0,0,1,0,4.512Zm-129.4,0a2.256,2.256,0,0,1,0-4.512h9.954a2.256,2.256,0,0,1,0,4.512Zm62.449-14.713a7.23,7.23,0,1,1,7.231,7.238A7.244,7.244,0,0,1,12142.7,20098.137Zm4.507,0a2.724,2.724,0,1,0,2.725-2.727A2.729,2.729,0,0,0,12147.207,20098.137Zm52.5-16.312a2.256,2.256,0,0,1,.825-3.08l8.62-4.984a2.256,2.256,0,0,1,2.253,3.908l-8.621,4.984a2.253,2.253,0,0,1-3.077-.828Zm-102.624.826-8.619-4.982a2.255,2.255,0,0,1,2.252-3.908l8.621,4.982a2.256,2.256,0,1,1-2.254,3.908Z" transform="translate(-12077.997 -20061.002)" opacity="0.25" fill="url(#linear-gradient)"/>
</svg>
