<svg xmlns="http://www.w3.org/2000/svg" xmlns:xlink="http://www.w3.org/1999/xlink" width="431.623" height="363.895" viewBox="0 0 431.623 363.895">
  <defs>
    <linearGradient id="linear-gradient" x1="0.32" x2="0.886" y2="0.52" gradientUnits="objectBoundingBox">
      <stop offset="0" stop-color="#b5e2f6"/>
      <stop offset="1" stop-color="#cae4ef"/>
    </linearGradient>
  </defs>
  <g id="Group_4864" data-name="Group 4864" transform="translate(-200 -136.006)">
    <g id="Group_4863" data-name="Group 4863">
      <path id="Path_20741" data-name="Path 20741" d="M411.911,85.587a89.924,89.924,0,0,0-2.7,34.051c1.651,14.336,6.729,28.185,11.165,42.078,6.1,19.1,6.408,52.63,0,71.913-2.243,6.747-53.458,120.514-53.475,121.01,0,0,72.062.027,0,.035s-287.777,0-288.252,0c-3.379-.025-6.8-14.226-7.177-15.925C69,327.7,56.684,315.891,61.808,305.519c7.274-14.725,14.855-26.43,7.518-42.627C64.5,252.237,55.163,243.983,49.819,233.63a122.792,122.792,0,0,1-8.843-90.176C50.191,111.36,71.358,88.893,98.328,66.53c24.221-20.083,44.207-43.935,65.5-66.247H467.816s0,10.64,0,10.652c-.117,4.439-12.063,13.74-15.352,17.128-12.728,13.108-26.294,24.639-34.12,40.57a95.969,95.969,0,0,0-6.433,16.954" transform="translate(163.807 135.723)" opacity="0.46" fill="url(#linear-gradient)"/>
      <path id="Path_20743" data-name="Path 20743" d="M418.629,456.253c0,9.778-83.73,17.706-187.016,17.706S44.6,466.031,44.6,456.253s83.731-17.713,187.017-17.713,187.016,7.932,187.016,17.713" transform="translate(159.404 25.941)" fill="#c7dbe4"/>
    </g>
    <g id="Group_4862" data-name="Group 4862">
      <g id="Group_4861" data-name="Group 4861">
        <g id="Group_4859" data-name="Group 4859">
          <g id="Group_4652" data-name="Group 4652" transform="translate(484.563 357.281)">
            <g id="Group_3307" data-name="Group 3307" transform="translate(0 0)">
              <path id="Path_12" data-name="Path 12" d="M55.841,427.8s13.843-46.929,27.986-66.252,14.5-49.191-8.485-50.874-32.692,32.4-38.974,57.434S30.8,427.8,30.8,427.8Z" transform="translate(-30.772 -310.611)" fill="#fff"/>
              <path id="Path_13" data-name="Path 13" d="M45.52,401.568a.457.457,0,0,1,.631.137l7.219,11.234q2.263-9.7,4.611-18.2l-7.945-14.489a.457.457,0,0,1,.8-.439l7.492,13.663c1.863-6.718,3.739-12.877,5.583-18.493l-6.868-19.021a.456.456,0,0,1,.274-.585.461.461,0,0,1,.585.273l6.474,17.93c2.911-8.758,5.728-16.158,8.269-22.259l-4.558-16.252a.457.457,0,1,1,.88-.246l4.246,15.143c6.017-14.227,10.349-20.96,10.44-21.1a.457.457,0,0,1,.765.5c-.091.139-4.444,6.911-10.479,21.226l14.571-4.065a.457.457,0,1,1,.245.88l-15.266,4.26c-2.548,6.119-5.378,13.554-8.3,22.364L80.3,366.609a.457.457,0,0,1,.4.82L64.784,375.25c-1.858,5.663-3.75,11.878-5.63,18.667l12.989-4.946a.456.456,0,1,1,.324.853l-13.612,5.183q-2.348,8.564-4.638,18.327l12.846-5.267a.457.457,0,0,1,.346.846l-13.443,5.511q-1.573,6.823-3.082,14.231a.458.458,0,0,1-.448.366.439.439,0,0,1-.09-.009.457.457,0,0,1-.357-.539q1.508-7.449,3.1-14.292l-7.7-11.982a.457.457,0,0,1,.137-.631" transform="translate(-39.467 -312.175)" fill="#98dbf9"/>
            </g>
            <g id="Group_3308" data-name="Group 3308" transform="translate(72.607 134.132) rotate(-164)">
              <path id="Path_14" data-name="Path 14" d="M52.516,0h-20.7S-7.881,42.635,1.409,61.531,26.159,79.979,34.29,62.8,52.516,0,52.516,0" transform="translate(0 0.178)" fill="#fff"/>
              <path id="Path_15" data-name="Path 15" d="M34.1,14.491a.458.458,0,0,1-.593-.255L30.482,6.659c-1.269,3.6-2.62,7.213-4.01,10.775l4.419,10.527a.457.457,0,1,1-.842.353l-4.054-9.66c-1.617,4.1-3.274,8.122-4.906,11.955l4.781,12.634a.456.456,0,0,1-.854.322L20.572,31.823c-2.229,5.2-4.388,10.007-6.305,14.169L18.913,57.65a.457.457,0,1,1-.849.339L13.739,47.136C9.9,55.424,7.162,60.843,7.1,60.974a.457.457,0,1,1-.815-.414c.067-.132,2.835-5.615,6.709-13.982L.53,48.607a.456.456,0,1,1-.147-.9l13.068-2.128c1.938-4.206,4.123-9.076,6.374-14.335L4.677,34.461a.457.457,0,1,1-.19-.894l15.777-3.349c1.655-3.886,3.334-7.964,4.971-12.127L12.582,21.024a.457.457,0,0,1-.206-.891L25.638,17.06c1.41-3.615,2.78-7.284,4.065-10.934L20.65,9.457a.457.457,0,0,1-.316-.857l9.759-3.591q.818-2.356,1.586-4.694A.456.456,0,0,1,32.112,0a.482.482,0,0,1,.142.022A.458.458,0,0,1,32.546.6q-.77,2.361-1.6,4.749l3.41,8.55a.456.456,0,0,1-.255.594" transform="translate(9.909 0)" fill="#98dbf9"/>
            </g>
          </g>
          <path id="Path_20742" data-name="Path 20742" d="M43.367,324.052a251.193,251.193,0,0,0,25.47-36.592l-.005,0,.1-.167c-2.1-1.693-10.062-9.022-4.877-19.245l.325-.642.608.386c6.581,4.182,7.248,10.312,6.706,14.6,1.831-3.338,3.655-6.823,5.429-10.448q1.286-2.631,2.565-5.421L79.6,266.5l.081-.178c-2.276-1.454-10.991-7.864-6.959-18.594l.254-.674.647.318c7.226,3.545,8.415,9.845,8.255,14.193,2.065-4.823,4.051-9.939,5.865-15.3-2.552-1.169-11.917-6.281-9.472-17.386l.154-.7.685.222c7.746,2.507,9.779,8.689,10.206,13.023,1.552-5.016,2.925-10.221,4.064-15.568-2.637-.99-12.328-5.422-10.682-16.665l.1-.712.7.173C91,210.5,93.6,216,94.481,220.227a148.726,148.726,0,0,0,1.936-15.912c-2.8-.51-13.078-3.152-13.47-14.482l-.024-.719.718.044c7.966.494,11.49,5.77,13.031,9.831a125.074,125.074,0,0,0-1.144-20.936c-2.687-.059-13.458-1-15.588-12.274l-.133-.707.718-.065c7.523-.68,11.762,3.489,14.01,7.146a112.683,112.683,0,0,0-3.294-12.924c-1.554-1.059-11.072-8.113-6.189-19.163l.289-.659.629.353c10.564,5.945,7.111,17.356,6.519,19.071a114.212,114.212,0,0,1,3.354,13.193c.869-4.213,3.452-9.631,10.836-11.526l.7-.179.112.711c1.766,11.326-8.069,15.832-10.593,16.793l.043.191-.089.005a125.887,125.887,0,0,1,1.166,19.652,14.046,14.046,0,0,1,12.162-9.006l.716-.071,0,.72c.03,11.464-10.376,14.426-13.015,14.993l.014.195-.176-.017a150.228,150.228,0,0,1-1.88,15.555,14.152,14.152,0,0,1,13.858-7.13l.718.058-.127.708c-2.022,11.29-12.8,12.339-15.487,12.423l-.021.2-.149-.043c-1,4.685-2.183,9.256-3.5,13.688a14,14,0,0,1,13.807-5.422l.712.109-.179.7c-2.62,10.324-12.146,11.3-15.645,11.3-.273,0-.493-.007-.688-.014l-.035.195-.142-.052c-1.648,4.866-3.435,9.537-5.3,13.968A14.035,14.035,0,0,1,98.314,257.1l.689.209-.273.665c-3.205,7.767-9.834,9.166-14.193,9.166a20,20,0,0,1-3.553-.312q-1.343,2.945-2.7,5.72c-1.672,3.416-3.386,6.7-5.114,9.868a14.1,14.1,0,0,1,15.295-2.248l.661.284-.345.631A14.043,14.043,0,0,1,75.8,288.755a20.237,20.237,0,0,1-5.659-.827l-.082.178L70,288.063a252.993,252.993,0,0,1-25.653,36.855.653.653,0,1,1-.979-.865M79.4,229.884c-1.671,9.519,6.115,13.932,8.655,15.1.273-2.782.4-11.732-8.655-15.1M83.9,210.11c-.986,9.614,7.1,13.46,9.712,14.447.075-2.8-.437-11.732-9.712-14.447m.4-19.585c.746,9.626,9.368,11.968,12.128,12.474-.455-2.744-2.64-11.462-12.128-12.474m-2.161-24.284c-.25,0-.5.005-.757.017,2.2,9.413,11.094,10.414,13.888,10.494-.818-2.6-4.056-10.511-13.132-10.511M73.7,248.885c-3.005,9.175,4.056,14.648,6.409,16.173.635-2.708,1.962-11.6-6.409-16.173M85.964,141.276c-3.521,9,3.238,14.866,5.494,16.516.82-2.673,2.718-11.419-5.494-16.516m20.33,20.688c-9.249,2.8-9.675,11.743-9.574,14.537,2.606-1.01,10.651-4.933,9.574-14.537m3.28,28.092c-9.555,1.367-11.337,10.121-11.664,12.909,2.707-.631,11.268-3.376,11.664-12.909m-.719,24.113c-9.627-.361-12.964,7.932-13.785,10.615,2.779-.137,11.691-1.307,13.785-10.615m-4.85,21.546c-9.609-1.052-13.507,7-14.511,9.613,2.8.088,11.733-.359,14.511-9.613m-6.781,22.44c-9.023-2.325-13.992,4.481-15.56,7.158-.042.1-.086.193-.129.289,2.783.46,11.682,1.169,15.69-7.447M64.9,269.3c-3.992,8.791,2.426,15,4.6,16.78.927-2.623,3.222-11.313-4.6-16.78m22.364,11.793c-9.036-3.418-14.831,3.4-16.452,5.68,2.681.791,11.448,2.588,16.452-5.68" transform="translate(447.109 113.488)" fill="#fff"/>
        </g>
        <g id="Group_4860" data-name="Group 4860" transform="translate(204.563 252.896)">
          <g id="Group_4652-2" data-name="Group 4652" transform="translate(0 104.385)">
            <g id="Group_3307-2" data-name="Group 3307" transform="translate(30.618 0)">
              <path id="Path_12-2" data-name="Path 12" d="M68.6,427.8s-13.843-46.929-27.986-66.252-14.5-49.191,8.485-50.874,32.691,32.4,38.973,57.434S93.649,427.8,93.649,427.8Z" transform="translate(-30.772 -310.611)" fill="#fff"/>
              <path id="Path_13-2" data-name="Path 13" d="M88.88,401.568a.457.457,0,0,0-.631.137l-7.219,11.234q-2.263-9.7-4.611-18.2l7.945-14.489a.457.457,0,0,0-.8-.439L76.07,393.478c-1.863-6.718-3.739-12.877-5.583-18.493l6.868-19.021a.456.456,0,0,0-.274-.585.461.461,0,0,0-.585.273l-6.474,17.93c-2.911-8.758-5.728-16.158-8.269-22.259l4.558-16.252a.457.457,0,1,0-.88-.246l-4.246,15.143c-6.017-14.227-10.348-20.96-10.44-21.1a.457.457,0,0,0-.764.5c.091.139,4.444,6.911,10.479,21.226L45.89,346.529a.457.457,0,1,0-.245.88l15.266,4.26c2.548,6.119,5.378,13.554,8.3,22.364L54.1,366.609a.457.457,0,0,0-.4.82l15.918,7.821c1.858,5.663,3.75,11.878,5.63,18.667l-12.989-4.946a.456.456,0,1,0-.324.853l13.612,5.183q2.348,8.564,4.638,18.327l-12.846-5.267a.457.457,0,0,0-.346.846l13.443,5.511q1.573,6.823,3.082,14.231a.458.458,0,0,0,.448.366.439.439,0,0,0,.09-.009.457.457,0,0,0,.357-.539q-1.508-7.449-3.1-14.292l7.7-11.982a.457.457,0,0,0-.137-.631" transform="translate(-32.03 -312.175)" fill="#98dbf9"/>
            </g>
            <g id="Group_3308-2" data-name="Group 3308" transform="translate(0 61.198) rotate(-16)">
              <path id="Path_14-2" data-name="Path 14" d="M52.515,75.695h-20.7S-7.881,33.06,1.409,14.164,26.158-4.284,34.29,12.9s18.225,62.8,18.225,62.8" transform="translate(0 0)" fill="#fff"/>
              <path id="Path_15-2" data-name="Path 15" d="M34.1,46.733a.458.458,0,0,0-.593.255l-3.022,7.576c-1.269-3.6-2.62-7.213-4.01-10.775l4.419-10.527a.457.457,0,1,0-.842-.353l-4.054,9.66c-1.617-4.1-3.274-8.122-4.906-11.955L25.869,17.98a.456.456,0,0,0-.854-.322L20.572,29.4c-2.229-5.2-4.388-10.007-6.3-14.169L18.913,3.573a.457.457,0,1,0-.849-.339L13.739,14.088C9.9,5.8,7.162.38,7.1.25a.457.457,0,1,0-.815.414c.067.132,2.835,5.614,6.709,13.982L.531,12.617a.456.456,0,1,0-.147.9l13.068,2.128c1.938,4.206,4.123,9.076,6.374,14.334L4.677,26.763a.457.457,0,1,0-.19.894l15.777,3.349c1.655,3.886,3.334,7.964,4.971,12.127L12.582,40.2a.457.457,0,0,0-.206.891l13.263,3.073c1.41,3.615,2.78,7.284,4.064,10.934L20.65,51.766a.457.457,0,0,0-.316.857l9.758,3.591q.818,2.356,1.586,4.694a.456.456,0,0,0,.434.315.482.482,0,0,0,.142-.022.458.458,0,0,0,.292-.576q-.77-2.361-1.6-4.749l3.41-8.55a.456.456,0,0,0-.255-.594" transform="translate(9.909 14.649)" fill="#98dbf9"/>
            </g>
          </g>
          <path id="Path_20742-2" data-name="Path 20742" d="M110.73,324.052A251.193,251.193,0,0,1,85.26,287.46l.005,0-.1-.167c2.1-1.693,10.062-9.022,4.877-19.245l-.325-.642-.608.386c-6.581,4.182-7.248,10.312-6.706,14.6-1.831-3.338-3.655-6.823-5.429-10.448q-1.286-2.631-2.565-5.421l.086-.023-.081-.178c2.276-1.454,10.99-7.864,6.959-18.594l-.254-.674-.647.318c-7.226,3.545-8.415,9.845-8.255,14.193-2.065-4.823-4.051-9.939-5.865-15.3,2.552-1.169,11.917-6.281,9.471-17.386l-.154-.7-.685.222c-7.746,2.507-9.779,8.689-10.206,13.023-1.552-5.015-2.925-10.221-4.064-15.568,2.636-.99,12.328-5.422,10.682-16.665l-.1-.712-.7.173C63.1,210.5,60.494,216,59.616,220.227a148.726,148.726,0,0,1-1.936-15.912c2.8-.51,13.078-3.152,13.47-14.482l.024-.719-.718.044c-7.966.494-11.49,5.77-13.031,9.831a125.076,125.076,0,0,1,1.144-20.936c2.687-.059,13.458-1,15.588-12.274l.133-.707-.718-.065c-7.523-.68-11.762,3.489-14.01,7.146a112.684,112.684,0,0,1,3.294-12.924c1.554-1.059,11.071-8.113,6.189-19.163l-.289-.659-.629.353c-10.564,5.945-7.111,17.356-6.519,19.071a114.21,114.21,0,0,0-3.354,13.193c-.869-4.213-3.452-9.631-10.836-11.526l-.7-.179-.112.711c-1.766,11.326,8.069,15.832,10.593,16.793l-.043.191.089.005a125.888,125.888,0,0,0-1.166,19.652,14.046,14.046,0,0,0-12.162-9.006l-.716-.071,0,.72c-.03,11.464,10.376,14.426,13.015,14.993l-.014.195.176-.017a150.229,150.229,0,0,0,1.88,15.555A14.152,14.152,0,0,0,44.4,212.91l-.718.058.127.708c2.022,11.29,12.8,12.339,15.487,12.423l.021.2.149-.043c1,4.685,2.183,9.256,3.5,13.688a14,14,0,0,0-13.807-5.422l-.712.109.179.7c2.619,10.324,12.146,11.3,15.645,11.3.273,0,.493-.007.688-.014L65,246.8l.142-.052c1.648,4.866,3.435,9.537,5.3,13.968A14.034,14.034,0,0,0,55.783,257.1l-.689.209.273.665c3.205,7.767,9.834,9.166,14.193,9.166a20,20,0,0,0,3.553-.312q1.343,2.945,2.7,5.72c1.672,3.416,3.385,6.7,5.114,9.868a14.1,14.1,0,0,0-15.295-2.248l-.661.284.345.631a14.043,14.043,0,0,0,12.977,7.672,20.237,20.237,0,0,0,5.659-.827l.082.178.063-.043a252.991,252.991,0,0,0,25.652,36.855.653.653,0,1,0,.979-.865M74.692,229.884c1.671,9.519-6.115,13.932-8.655,15.1-.273-2.782-.4-11.732,8.655-15.1M70.2,210.11c.986,9.614-7.1,13.46-9.712,14.447-.075-2.8.437-11.732,9.712-14.447m-.4-19.585c-.746,9.626-9.368,11.968-12.128,12.474.455-2.744,2.64-11.462,12.128-12.474m2.161-24.284c.25,0,.5.005.757.017-2.2,9.413-11.094,10.414-13.888,10.494.818-2.6,4.056-10.511,13.131-10.511m8.432,82.644c3.005,9.175-4.056,14.648-6.409,16.173-.635-2.708-1.962-11.6,6.409-16.173M68.133,141.276c3.521,9-3.238,14.866-5.494,16.516-.82-2.673-2.718-11.419,5.494-16.516M47.8,161.964c9.249,2.8,9.675,11.743,9.573,14.537-2.606-1.01-10.651-4.933-9.573-14.537m-3.28,28.092c9.555,1.367,11.337,10.121,11.664,12.909-2.707-.631-11.267-3.376-11.664-12.909m.719,24.113c9.627-.361,12.964,7.932,13.785,10.615-2.779-.137-11.691-1.307-13.785-10.615m4.849,21.546c9.609-1.052,13.507,7,14.511,9.613-2.8.088-11.733-.359-14.511-9.613m6.781,22.44c9.023-2.325,13.992,4.481,15.56,7.158.042.1.086.193.129.289-2.783.46-11.682,1.169-15.69-7.447M89.2,269.3c3.992,8.791-2.426,15-4.6,16.78-.927-2.623-3.222-11.313,4.6-16.78M66.832,281.094c9.036-3.418,14.831,3.4,16.452,5.68-2.681.791-11.448,2.588-16.452-5.68" transform="translate(-23.124 -139.408)" fill="#fff"/>
        </g>
      </g>
      <g id="Group_4839" data-name="Group 4839" transform="translate(-27.125 -10104.336)">
        <g id="Group_4825" data-name="Group 4825" transform="translate(328.418 10463.784)">
          <g id="Group_4816" data-name="Group 4816" transform="translate(27.656 47.725)">
            <g id="Group_4815" data-name="Group 4815">
              <path id="Rectangle_2096" data-name="Rectangle 2096" d="M0,0H105.971a20.685,20.685,0,0,1,20.685,20.685v0A21.154,21.154,0,0,1,105.5,41.839H0a0,0,0,0,1,0,0V0A0,0,0,0,1,0,0Z" transform="translate(5.876 0)" fill="#fcecdb"/>
              <path id="Path_21074" data-name="Path 21074" d="M1909.263,1461.3v6.294a19.2,19.2,0,0,1-2.322,9.22,16.946,16.946,0,0,1-14.8,9.109H1684.752a2.575,2.575,0,0,1-2.484-2.657v-.943a2.575,2.575,0,0,1,2.484-2.657h126.42a17.324,17.324,0,0,0,1.774-2.854,17.972,17.972,0,0,0,1.853-8v-8a17.8,17.8,0,0,0-.512-4.258,17.174,17.174,0,0,0-2.931-6.213h-126.6a2.575,2.575,0,0,1-2.484-2.659v-.94a2.575,2.575,0,0,1,2.484-2.659h208.429c7.345,0,13.54,5.27,15.463,12.471A18.318,18.318,0,0,1,1909.263,1461.3Z" transform="translate(-1682.268 -1444.086)" fill="#699dee"/>
              <path id="Path_21075" data-name="Path 21075" d="M1908.644,1456.557h-94.356a17.174,17.174,0,0,0-2.931-6.213h-126.6a2.575,2.575,0,0,1-2.484-2.659v-.94a2.575,2.575,0,0,1,2.484-2.659h208.429C1900.526,1444.086,1906.721,1449.356,1908.644,1456.557Z" transform="translate(-1682.268 -1444.086)" fill="#548ee2"/>
            </g>
            <path id="Path_21076" data-name="Path 21076" d="M1713.136,1553.984l15.355.7-15.355.424Z" transform="translate(-1707.26 -1533.064)" fill="#f4d2b8"/>
            <path id="Path_21077" data-name="Path 21077" d="M1713.136,1588.469l36.532.7-36.532.423Z" transform="translate(-1707.26 -1560.984)" fill="#f4d2b8"/>
          </g>
          <g id="Group_4820" data-name="Group 4820" transform="translate(1.824 89.476)">
            <g id="Group_4818" data-name="Group 4818" transform="translate(0 0)">
              <g id="Group_4817" data-name="Group 4817">
                <path id="Rectangle_2097" data-name="Rectangle 2097" d="M0,0H106.933a16.783,16.783,0,0,1,16.783,16.783v0a15.76,15.76,0,0,1-15.76,15.76H0a0,0,0,0,1,0,0V0A0,0,0,0,1,0,0Z" transform="translate(123.716 32.543) rotate(180)" fill="#f99746"/>
                <path id="Rectangle_2098" data-name="Rectangle 2098" d="M0,0H122a16.454,16.454,0,0,1,16.454,16.454v0a16.089,16.089,0,0,1-16.089,16.089H0a0,0,0,0,1,0,0V0A0,0,0,0,1,0,0Z" transform="translate(241.711 32.543) rotate(180)" fill="#fcecdb"/>
                <rect id="Rectangle_2099" data-name="Rectangle 2099" width="155.277" height="4.867" rx="2.434" transform="translate(248.133 32.543) rotate(180)" fill="#f99746"/>
                <rect id="Rectangle_2100" data-name="Rectangle 2100" width="155.277" height="4.867" rx="2.434" transform="translate(248.133 4.867) rotate(180)" fill="#f99746"/>
              </g>
              <path id="Path_21078" data-name="Path 21078" d="M2744.939,1748.9l-16.785.547,16.785.329Z" transform="translate(-2503.229 -1732.624)" fill="#f4d2b8"/>
              <path id="Path_21079" data-name="Path 21079" d="M2646.484,1709.552l-39.934.547,39.934.329Z" transform="translate(-2404.774 -1700.769)" fill="#f4d2b8"/>
            </g>
            <g id="Group_4819" data-name="Group 4819" transform="translate(202.188 9.22)">
              <path id="Path_21080" data-name="Path 21080" d="M2608.711,1711.853a7.557,7.557,0,0,1,2.278,3.7,6.079,6.079,0,0,1,.177,1.286c.095,3.054,0,9.965,0,9.965l5.052-3.455,5.04,3.455v-9.367a8.243,8.243,0,0,0-1.236-4.622,1.88,1.88,0,0,0-1.4-.958Z" transform="translate(-2608.711 -1711.853)" fill="#699dee"/>
              <path id="Path_21081" data-name="Path 21081" d="M2608.711,1711.853a7.557,7.557,0,0,1,2.278,3.7l10.125.137s-.4-3.291-2.487-3.833Z" transform="translate(-2608.711 -1711.853)" fill="#568cdb"/>
            </g>
          </g>
          <g id="Group_4824" data-name="Group 4824" transform="translate(0 0)">
            <g id="Group_4822" data-name="Group 4822">
              <g id="Group_4821" data-name="Group 4821">
                <path id="Rectangle_2101" data-name="Rectangle 2101" d="M0,0H100.239a23.639,23.639,0,0,1,23.639,23.639v0A24.175,24.175,0,0,1,99.7,47.813H0a0,0,0,0,1,0,0V0A0,0,0,0,1,0,0Z" transform="translate(5.746)" fill="#fcecdb"/>
                <path id="Path_21082" data-name="Path 21082" d="M1666.668,1211.932v10.29a12.416,12.416,0,0,1-5.057,10.246,8.834,8.834,0,0,1-4.986,1.573H1539.469a2.76,2.76,0,0,0-2.486,2.969v1.214a2.761,2.761,0,0,0,2.486,2.969h202.389c5.808,0,10.939-3.448,14.039-8.725a23.186,23.186,0,0,0,3.1-11.747V1212.6a22.259,22.259,0,0,0-1.6-8.359c-2.6-6.429-8.115-10.862-14.5-10.862H1539.469a2.758,2.758,0,0,0-2.486,2.967v1.214a2.76,2.76,0,0,0,2.486,2.969h117.514a9.066,9.066,0,0,1,7.126,3.712A12.647,12.647,0,0,1,1666.668,1211.932Z" transform="translate(-1536.983 -1193.38)" fill="#afcdfb"/>
                <path id="Path_21083" data-name="Path 21083" d="M1536.983,1403.261v1.214a2.76,2.76,0,0,0,2.486,2.969h202.389c5.808,0,10.939-3.448,14.039-8.725h-94.285a8.834,8.834,0,0,1-4.986,1.572H1539.469A2.76,2.76,0,0,0,1536.983,1403.261Z" transform="translate(-1536.983 -1359.63)" fill="#a4c4f4"/>
              </g>
              <path id="Path_21084" data-name="Path 21084" d="M1567.17,1318.963l15.018.8-15.018.484Z" transform="translate(-1561.424 -1295.056)" fill="#f4d2b8"/>
              <path id="Path_21085" data-name="Path 21085" d="M1567.17,1261.158l35.73.8-35.73.484Z" transform="translate(-1561.424 -1248.255)" fill="#f4d2b8"/>
            </g>
            <g id="Group_4823" data-name="Group 4823" transform="translate(23.82 13.547)">
              <path id="Path_21086" data-name="Path 21086" d="M1679.4,1264.541a8.383,8.383,0,0,0-3.139,4.009,5.27,5.27,0,0,0-.245,1.394c-.13,3.311,0,10.8,0,10.8l-6.962-3.747-6.944,3.747v-10.156a7.571,7.571,0,0,1,1.7-5.012,2.7,2.7,0,0,1,1.923-1.039Z" transform="translate(-1662.113 -1264.541)" fill="#f99746"/>
              <path id="Path_21087" data-name="Path 21087" d="M1680.249,1264.541a8.383,8.383,0,0,0-3.139,4.009l-13.952.148s.547-3.568,3.427-4.157Z" transform="translate(-1662.959 -1264.541)" fill="#ed7d2b"/>
            </g>
          </g>
        </g>
        <g id="girl_2" data-name="girl 2" transform="translate(352.804 10378.67)">
          <path id="Path_21088" data-name="Path 21088" d="M798.42,1422.333s16.239,7.075,19.187,6.946,21.111-5.532,21.111-5.532l-.462,3.125s-14.018,8.062-18.918,8.519c-4.825.45-21.322-4.33-22.915-5.34S793.791,1423.355,798.42,1422.333Z" transform="translate(-770.044 -1396.009)" fill="#ed985f"/>
          <path id="Path_21089" data-name="Path 21089" d="M644.421,1236.912s-5.991-1.138-8.974,1.041c-5.4,3.947-5.7,17.554-7.721,19.581s-6.909,1.162-7.343,11.651,1.944,11.365-.889,16.047,1.2,9.368,1.2,9.368-1.651-2.585-.944-4.45c0,0,.687,4.117,3.3,5.082s3,1.672,3.42,3.088c0,0,22.314-11.434,22.338-19.544s4.391-16.143,2.247-19.658a7.775,7.775,0,0,1,1.072,3.176,4.182,4.182,0,0,0-.944-4.76c-2.23-2.295,2.616-7.044,1.9-12.545C652.591,1241.213,649.942,1237.076,644.421,1236.912Z" transform="translate(-618.485 -1236.615)" fill="#233862"/>
          <path id="Path_21090" data-name="Path 21090" d="M721.73,1373.707a15.614,15.614,0,0,1-5.459,2.323c-8.415,1.944-11.64-5.168-12.851-10.05a7.235,7.235,0,0,1,2.851-.876c.608-.072,1.248-.119,1.778-.146.945-.724,2.353-3.686,2.664-8.285l.4.106,6.632,1.815s-.3,2.108-.453,4.1c-.115,1.559-.133,3.05.162,3.414.518.113.828.186.828.186a.022.022,0,0,0,0,.006A42.667,42.667,0,0,1,721.73,1373.707Z" transform="translate(-691.38 -1339.656)" fill="#ffb27d"/>
          <path id="Path_21091" data-name="Path 21091" d="M764.3,1359.249s-.3,2.107-.453,4.1c-3.757-.376-5.5-3.954-6.18-5.916Z" transform="translate(-737.937 -1340.309)" fill="#ed985f"/>
          <path id="Path_21092" data-name="Path 21092" d="M760.668,1291.477s-8.919-.492-8.527-6.041-.5-9.35,5.216-9.271,6.666,2.275,6.986,4.159S763,1291.462,760.668,1291.477Z" transform="translate(-733.186 -1270.558)" fill="#ffb27d"/>
          <path id="Path_21093" data-name="Path 21093" d="M747.426,1270.3c-1.258-1.768-2.324-1.476-2.943-1.016a6.243,6.243,0,0,0-8.1.706,10.626,10.626,0,0,1-3.916,6.013s1.552,1.12,5.364.425a6.374,6.374,0,0,0,3.182-1.875,20.841,20.841,0,0,1-3.89,4.112c4.619-1.746,6.861-7.836,7.087-8.48a7,7,0,0,1,1.757,2.728c.343,1.445,1.821,3.7,2.676,3.666C748.643,1276.576,749.311,1272.948,747.426,1270.3Z" transform="translate(-716.312 -1263.635)" fill="#233862"/>
          <path id="Path_21094" data-name="Path 21094" d="M655.637,1436.352c-.805-4.117-3.431-20.567-.805-25.86.943-1.9,4.644-2.073,8.7-1.906,1.263.816,6.078,3.9,8.055,3.513l.111-.026c.931-.233,1.283-.887.506-1.451a17.739,17.739,0,0,1,4.508.276,33.346,33.346,0,0,1,5.215,2.234s-1.916,3.461-4.741,4.656c.48,4.3-.234,6.193-4.692,16.119a18.869,18.869,0,0,0,.508,15.944s-22.176,17.83-22.3,8.751C650.614,1451.768,656.666,1441.614,655.637,1436.352Z" transform="translate(-646.139 -1384.168)" fill="#f9ddbf"/>
          <path id="Path_21095" data-name="Path 21095" d="M733.434,1541.443a4.124,4.124,0,0,0,2.966-1.806l.343-.516c2.524-3.821,3.506-15.524,9.184-27.991,1.383-3.035,6.347-3.581,7.7-7.012,0,0,3.332-11.121-6.377-11.449s-26,30.944-26.259,34.224C720.743,1530.069,714.573,1543.571,733.434,1541.443Z" transform="translate(-705.467 -1456.373)" fill="#dd6d22"/>
          <path id="Path_21096" data-name="Path 21096" d="M1003.482,1791.581H989.663a5.743,5.743,0,0,1,.391-3.7c.8-1.327.5-2.083-.1-3.181a5.366,5.366,0,0,0,2.327.438,4.869,4.869,0,0,0,2.055-.723,49.668,49.668,0,0,0,3.937,4.136C999.177,1789.2,1003.2,1788.966,1003.482,1791.581Z" transform="translate(-936.926 -1706.767)" fill="#233862"/>
          <path id="Path_21097" data-name="Path 21097" d="M888,1493.224c.832,6.238,4.081,25.928,9.814,35.534,1.848,3.1-4.656,4.833-4.691,4.824a11.064,11.064,0,0,1-3-2.223c-4.654-4.194-14.1-16.07-14.1-25.591,0-4.643-.082-13.509,3.294-15.762C881.4,1488.619,887.667,1490.746,888,1493.224Z" transform="translate(-839.52 -1453.714)" fill="#ed7d2b"/>
          <path id="Path_21098" data-name="Path 21098" d="M661.385,1536.893s.512-.713,1.405-2.066c1.063-1.609,2.239-4.777,3.666-8.838,1.5-4.263,3.277-9.507,5.5-14.964.686-1.684,1.414-3.389,2.188-5.091,1.383-3.035,5.188-2.616,6.541-6.047,0,0,5.281-11.9-4.427-12.223s-28.158,31.82-29.218,34.933C645.878,1526.005,640.216,1540.158,661.385,1536.893Z" transform="translate(-641.658 -1452.078)" fill="#f99746"/>
          <path id="Path_21099" data-name="Path 21099" d="M931.915,1791.581H918.1a5.744,5.744,0,0,1,.391-3.7c.8-1.327.5-2.083-.1-3.181a5.365,5.365,0,0,0,2.327.438,4.868,4.868,0,0,0,2.055-.723,49.719,49.719,0,0,0,3.937,4.136C927.61,1789.2,931.637,1788.966,931.915,1791.581Z" transform="translate(-875.503 -1706.767)" fill="#2b478b"/>
          <path id="Path_21100" data-name="Path 21100" d="M785.853,1611.7c1.5-4.263,3.277-9.507,5.5-14.964-.58-4.134-1.832-7.751-3.937-9.208C787.415,1587.529,782.308,1603.349,785.853,1611.7Z" transform="translate(-761.055 -1537.79)" fill="#ed7d2b"/>
          <path id="Path_21101" data-name="Path 21101" d="M818.509,1494.279c.832,6.238,2,26.37,7.736,35.976,1.848,3.1-4.656,4.833-4.691,4.824a11.061,11.061,0,0,1-3-2.223c-4.654-4.194-14.1-16.07-14.1-25.591,0-4.642,5.448-13.136,8.824-15.39A3.4,3.4,0,0,1,818.509,1494.279Z" transform="translate(-778.098 -1455.211)" fill="#f99746"/>
          <path id="Path_21102" data-name="Path 21102" d="M804.682,1360.469a8.232,8.232,0,0,0-3.216-.141s.126.926,1.876,1.017A1.4,1.4,0,0,0,804.682,1360.469Z" transform="translate(-775.53 -1342.741)" fill="#fff"/>
          <g id="Group_4827" data-name="Group 4827" transform="translate(49.687 16.032)">
            <g id="Group_4826" data-name="Group 4826">
              <path id="Path_21103" data-name="Path 21103" d="M1060.339,1354.894l-2.865-5.169-6.2,17.294,3.656,3.925Z" transform="translate(-1039.619 -1349.725)" fill="#163560"/>
              <path id="Path_21104" data-name="Path 21104" d="M974.792,1389.22l-5.761,16.458,15.314-3.435,5.406-16.05Z" transform="translate(-969.031 -1381.023)" fill="#1c468a"/>
              <path id="Path_21105" data-name="Path 21105" d="M969.56,1420.659l-.268-.469,5.451-15.575.273.416Z" transform="translate(-969.255 -1396.834)" fill="#efdece"/>
              <path id="Path_21106" data-name="Path 21106" d="M1007.752,1387.506l14.519-2.826.713.214-14.959,3.027Z" transform="translate(-1002.264 -1379.726)" fill="#fcecdb"/>
            </g>
            <path id="Path_21107" data-name="Path 21107" d="M1084.5,1356.415l-3.1-4.918-1.975,5.552,4.36-.848Z" transform="translate(-1063.777 -1351.246)" fill="#efdece"/>
          </g>
          <path id="Path_21108" data-name="Path 21108" d="M730.99,1410.1c-.5-.1-1.566-.5-2.648-.8a2.218,2.218,0,0,0,.782-.875c.193-.61.322-.806-.322-.613s-2.894,1.225-2.894,1.225l.006,0a5.964,5.964,0,0,0-2.457,2.181s-15.833,5.566-17.738,5.661c-2.947.148-22.561-7.075-22.561-7.075-4.629,1.022-3.59,6.709-2,7.718s15.706,6.144,24.07,6.24c4.237.049,19.647-9.856,19.647-9.856a6.56,6.56,0,0,1,3.217-.566c1.415.258,4.7,0,5.4-1.158S731.826,1410.266,730.99,1410.1Z" transform="translate(-671.12 -1383.493)" fill="#ffb27d"/>
          <path id="Path_21109" data-name="Path 21109" d="M688.991,1423.138a10.776,10.776,0,0,1-7.779,6.817s-9.949-3.065-5-9.843C676.218,1420.112,681.115,1416.473,688.991,1423.138Z" transform="translate(-666.848 -1393.252)" fill="#f9ddbf"/>
          <path id="Path_21110" data-name="Path 21110" d="M1093.943,1410.27h0a1.508,1.508,0,0,0-.053-.452s-1.419-2.245-1.884-2.337c-1.416-.279-1.416,1.584-1.115,2.787a4.885,4.885,0,0,0,1.172,2.076h0L1092,1414.1A3.757,3.757,0,0,0,1093.943,1410.27Z" transform="translate(-1023.793 -1383.24)" fill="#ffb27d"/>
        </g>
        <g id="Group_4835" data-name="Group 4835" transform="translate(398.277 10415.264)">
          <path id="Path_21125" data-name="Path 21125" d="M2197.39,1396.229a23.365,23.365,0,0,0,8.065,8.739l18.833.133S2194.677,1391.431,2197.39,1396.229Z" transform="translate(-2141.735 -1308.073)" fill="#233862"/>
          <g id="Group_4832" data-name="Group 4832" transform="translate(0 0)">
            <path id="Path_21126" data-name="Path 21126" d="M2206.084,1585.99a1.742,1.742,0,0,1,.3,1.864.016.016,0,0,1-.005.01c-.458,1.238-1.952,2.614-3.685,3.986-.221.176-.419.336-.59.485-.045.039-.09.078-.132.117l-.1.091c-1.618,1.47-1.015,1.814-3.924,4.8-3.317,3.4-5.584,3.448-6.228,3.132-.543-.27.578-2.079,1.821-4.113.06-.1.119-.2.18-.3.166-.27.331-.544.495-.816,1.457-2.448,1.1-3.6.78-7.264-.256-2.975-4.507-16.64-4.507-16.64l6.318-1.042s1.824,10.87,3.906,12.557c1.113.9,2.367.919,3.438,1.588.076.046.15.094.223.143A8.282,8.282,0,0,1,2206.084,1585.99Z" transform="translate(-2136.307 -1449.265)" fill="#ffb27d"/>
            <path id="Path_21127" data-name="Path 21127" d="M2210.627,1644.9a1.742,1.742,0,0,1,.3,1.864.018.018,0,0,1-.005.009,13.4,13.4,0,0,1-3.691,3.973c-.219.179-.412.344-.584.5-.045.039-.09.078-.132.117l-.1.091c-1.618,1.47-1.016,1.814-3.925,4.8-3.317,3.4-5.584,3.449-6.227,3.132-.544-.27.577-2.079,1.821-4.113a14.042,14.042,0,0,0,5.9-4.284c2-2.516,3.346-5.758,4.709-7.631q.114.07.223.143A8.3,8.3,0,0,1,2210.627,1644.9Z" transform="translate(-2140.85 -1508.17)" fill="#233862"/>
            <path id="Path_21128" data-name="Path 21128" d="M1929.609,1572.444c-.4,1.945-3.177,1.6-6.274.82s-2.365.126-6.777-.394-5.737-2.175-5.867-2.833c-.116-.583,2.066-.773,4.408-1.026.294-.031.59-.065.886-.1,2.644-.313,4.591-2,7-3.387,2.282-1.31,5.712-6.689,5.712-6.689l6.051.522s-3.211,4.8-4.455,6.893a7.313,7.313,0,0,0-.624,4.122A7.78,7.78,0,0,1,1929.609,1572.444Z" transform="translate(-1910.686 -1440.018)" fill="#ffb27d"/>
            <path id="Path_21129" data-name="Path 21129" d="M1923.335,1615.641c-3.1-.78-2.365.126-6.777-.394s-5.737-2.175-5.867-2.832c-.116-.583,2.066-.774,4.408-1.026l.021.045a12.446,12.446,0,0,0,6.309,2.01c2.995.094,6.173-.742,8.241-.694a7.777,7.777,0,0,1-.061,2.071C1929.205,1616.765,1926.431,1616.421,1923.335,1615.641Z" transform="translate(-1910.686 -1482.394)" fill="#233862"/>
            <path id="Path_21130" data-name="Path 21130" d="M2129.656,1389.841l5.552,15.27,7.249,19.938a11.972,11.972,0,0,0,3.928-.331,17.022,17.022,0,0,0,3.81-1.822s-1.9-21.366-5.642-33.65a21.81,21.81,0,0,0-3.243-7.147C2135.426,1375.046,2129.656,1389.841,2129.656,1389.841Z" transform="translate(-2087.258 -1295.966)" fill="#233862"/>
            <path id="Path_21131" data-name="Path 21131" d="M2019.326,1294.115c3.716-1.17,14.281.44,24.89,2.6l2.25-3.653,22.959-1.63s7.453,16.845,3.233,27.515c-.62,1.568-2.133,2.221-4.2,2.24l0,0s-13.7.238-18.13.207c-11.411-.081-24.095-8.015-25.741-8.356-2.694-.558-3.811,4.829-6.548,10.474s-25.533,24.907-25.533,24.907a19.937,19.937,0,0,1-4.917-.54,4.846,4.846,0,0,1-2.1-1.349S2010.945,1296.754,2019.326,1294.115Z" transform="translate(-1971.003 -1224.386)" fill="#2b478b"/>
            <path id="Path_21132" data-name="Path 21132" d="M2277.745,982.261c8.14,4.557,24.65,14,24.737,13.941,0,0,6.077,2.339,9.55.068,5.788-3.785,8.95-14.061-1.523-23-5.223-4.456-8.948-5.559-9.466-12.619-.28-3.831-5.425-16.5-14.128-15.4a13.257,13.257,0,0,1-2.193.129,8.136,8.136,0,0,0-4.42,1.108C2275.359,949.39,2265.508,980.433,2277.745,982.261Z" transform="translate(-2201.924 -945.19)" fill="#233862"/>
            <path id="Path_21133" data-name="Path 21133" d="M2333.73,1063.837c-.036.023,4.011,1.437,6.731.255,2.56-1.11,4.522-5.294,4.484-5.3-1.16-.062-2.428-1.086-3.362-7.751l-.5.174-8.332,2.932s.583,2.671.955,5.212C2334.025,1061.5,2334.187,1063.539,2333.73,1063.837Z" transform="translate(-2251.033 -1030.548)" fill="#ffb27d"/>
            <path id="Path_21134" data-name="Path 21134" d="M2332.757,1054.874s.355,1.872.848,4.547c4.779-.825,6.793-4.9,7.483-7.478Z" transform="translate(-2251.033 -1031.272)" fill="#ed975d"/>
            <path id="Path_21135" data-name="Path 21135" d="M2302.358,997.529s11.381-1.446,10.372-8.52-.221-12.024-7.53-11.4-8.333,3.524-8.57,5.967S2299.371,997.723,2302.358,997.529Z" transform="translate(-2221.89 -971.289)" fill="#ffb27d"/>
            <path id="Path_21136" data-name="Path 21136" d="M2298.966,977.068s7.234,6.324,12.182,6.865,6.833-1.036,6.833-1.036a19.33,19.33,0,0,1-4.629-6.366,3.481,3.481,0,0,0-2.856-2.073C2306.963,974.129,2300.262,973.942,2298.966,977.068Z" transform="translate(-2223.785 -968.651)" fill="#233862"/>
            <path id="Path_21137" data-name="Path 21137" d="M2297.9,980.181a17.921,17.921,0,0,0-3.23,4.078,13.76,13.76,0,0,0-.425,7.314s-3.742-7.4-1.568-10.973C2294.985,976.816,2297.9,980.181,2297.9,980.181Z" transform="translate(-2218.17 -972.294)" fill="#233862"/>
            <path id="Path_21138" data-name="Path 21138" d="M2287.724,1111.661c.181,23.019-.034,18.208,2.468,20.409.6.53,2.306.855,4.55,1.019,7.054.518,19.469-.557,19.95-1.858,1.659-4.5.52-5.912,1.927-12.811.147-.734.328-1.528.54-2.393,1.166-4.738,2.279-6.344-1.684-14-3.595-6.932-7.34-12.563-7.682-12.363-9.653,5.638-10.395.837-10.395.837S2287.634,1100.433,2287.724,1111.661Z" transform="translate(-2214.719 -1061.689)" fill="#f9ddbf"/>
            <path id="Path_21139" data-name="Path 21139" d="M2158.332,1442.812l7.25,19.938a11.966,11.966,0,0,0,3.928-.331,17.026,17.026,0,0,0,3.809-1.821s-1.9-21.366-5.642-33.65Z" transform="translate(-2110.381 -1333.666)" fill="#2b478b"/>
            <path id="Path_21140" data-name="Path 21140" d="M2257.324,1094s-9.9,1.607-11.094,5.857-8.2,29.237-8.2,29.237,5.021.939,7.361-1.368,8.234-21.494,8.234-21.494Z" transform="translate(-2174.646 -1065.189)" fill="#f9ddbf"/>
            <path id="Path_21141" data-name="Path 21141" d="M2323.971,1212.833c7.055.518,19.469-.557,19.95-1.858,1.66-4.5.52-5.912,1.927-12.811l-3.336-9.609s.487,10.678-2.68,13.463-12.926,5.328-14.473,7.663A8.584,8.584,0,0,0,2323.971,1212.833Z" transform="translate(-2243.948 -1141.433)" fill="#f2ccaa"/>
            <path id="Path_21142" data-name="Path 21142" d="M2314.473,1286.354s-6.952-1.6-8.079-.99-3.89,2.841-4.239,3.622,2.506-.577,3.433-.819a8.239,8.239,0,0,1,2.953.669,9.831,9.831,0,0,0,5.3.569Z" transform="translate(-2226.332 -1219.386)" fill="#ffb27d"/>
            <path id="Path_21143" data-name="Path 21143" d="M2366.1,1089.663s9.345.642,12.55,5.179c4.511,6.387,13.357,33.531,8.153,37.106-5.862,4.026-26.555.877-26.555.877s-.667-3.227.3-4.779,16.574-3.96,17.3-4.674-8.893-14.091-8.878-16.249S2366.1,1089.663,2366.1,1089.663Z" transform="translate(-2273.017 -1061.689)" fill="#f9ddbf"/>
            <path id="Path_21144" data-name="Path 21144" d="M2310.945,1295.939a13.464,13.464,0,0,1-1.952,2.093,1.422,1.422,0,0,1-.788.163l1-1.762Z" transform="translate(-2231.234 -1228.024)" fill="#ffb27d"/>
            <path id="Path_21145" data-name="Path 21145" d="M2306.445,1285.942l-4.256,2.03a.755.755,0,0,0,.7.276,10.088,10.088,0,0,0,1.843-.492Z" transform="translate(-2226.383 -1219.963)" fill="#ffb27d"/>
          </g>
          <g id="Group_4834" data-name="Group 4834" transform="translate(35.198 47.638)">
            <g id="Group_4833" data-name="Group 4833">
              <path id="Path_21146" data-name="Path 21146" d="M2135.936,1216.626l-33.553-.237-9.916-25.17,33.5.237Z" transform="translate(-2092.467 -1191.219)" fill="#f99746"/>
              <path id="Path_21147" data-name="Path 21147" d="M2141.684,1316.147l44.306.313-.007.978-43.913-.31Z" transform="translate(-2132.154 -1291.957)" fill="#ed7d2b"/>
            </g>
            <path id="Path_21148" data-name="Path 21148" d="M2187.622,1250.088a1.162,1.162,0,0,1,1.151-1.589,2.289,2.289,0,0,1,2.045,1.612,1.163,1.163,0,0,1-1.151,1.589A2.289,2.289,0,0,1,2187.622,1250.088Z" transform="translate(-2169.147 -1237.408)" fill="#fff"/>
          </g>
        </g>
        <g id="Group_4836" data-name="Group 4836" transform="translate(253.125 10566.219)">
          <rect id="Rectangle_2102" data-name="Rectangle 2102" width="19.924" height="100.223" transform="translate(23.298 19.924) rotate(-89.989)" fill="#c65447"/>
          <path id="Path_21149" data-name="Path 21149" d="M1164.753,1751.4l-14.73-6.3-8.567-3.665,8.769-3.748,14.533-6.211a30.121,30.121,0,0,1,1.968,9.413C1166.771,1748.052,1164.753,1751.4,1164.753,1751.4Z" transform="translate(-1141.455 -1731.478)" fill="#fcecdb"/>
          <path id="Path_21150" data-name="Path 21150" d="M1802,1738.193v6.3a7.015,7.015,0,0,1-7.017,7.014h-4.636l0-19.924h5.042A6.61,6.61,0,0,1,1802,1738.193Z" transform="translate(-1666.822 -1731.562)" fill="#fcecdb"/>
          <path id="Path_21151" data-name="Path 21151" d="M1150.224,1764.1c.365,2.013.682,5.1-.2,7.413l-8.567-3.665Z" transform="translate(-1141.455 -1757.894)" fill="#2b478b"/>
        </g>
        <g id="Group_4838" data-name="Group 4838" transform="translate(286.043 10397.832)">
          <path id="Path_21152" data-name="Path 21152" d="M1377.042,1176.525s1.8,7.79,7.028,7.79c4.485,0,10.639-10.139,10.639-10.139Z" transform="translate(-1368.946 -1111.876)" fill="#f99746"/>
          <path id="Path_21153" data-name="Path 21153" d="M1519.988,1370.43l-3.363,2.312s-16.169-17.235-20.073-33.755a25.688,25.688,0,0,1-.68-8.619s-.236-.748-.649-2.071l-.055-.177c-.181-.581-.4-1.263-.638-2.036-.784-2.5-1.861-5.912-3.088-9.8-2.826-8.95-9.289-29.136-12.051-37.532l19.85-7.182s2.255,5.142,5.495,19.116c.5,1.824,1,3.841,1.466,6.039.53,2.489,1.023,5.211,1.435,8.151a125.151,125.151,0,0,1,1.19,16.733c.011,2.5-.05,5.093-.2,7.769a34.276,34.276,0,0,0,.73,7.55C1511.859,1350.522,1519.988,1370.43,1519.988,1370.43Z" transform="translate(-1451.812 -1190.729)" fill="#2b478b"/>
          <path id="Path_21154" data-name="Path 21154" d="M1679.227,1799.131h-16.049a6.672,6.672,0,0,1,.454-4.3c.933-1.541.576-2.419-.115-3.694a6.238,6.238,0,0,0,2.7.509,5.655,5.655,0,0,0,2.387-.839,57.742,57.742,0,0,0,4.572,4.8C1674.227,1796.362,1678.9,1796.094,1679.227,1799.131Z" transform="translate(-1600.476 -1611.126)" fill="#233862"/>
          <path id="Path_21155" data-name="Path 21155" d="M1507.637,1304.875l-12.469,23.245c-.181-.581-.4-1.263-.638-2.036-.784-2.5-1.861-5.912-3.088-9.8-2.826-8.95-9.289-29.136-12.051-37.532l19.85-7.182s2.255,5.142,5.495,19.116c.5,1.824,1,3.841,1.466,6.039C1506.732,1299.212,1507.225,1301.934,1507.637,1304.875Z" transform="translate(-1451.812 -1190.729)" fill="#233862"/>
          <path id="Path_21156" data-name="Path 21156" d="M1475.51,1806.315a7.165,7.165,0,0,0-.065,5.023h8.729s.181-2.073-2.987-4.476C1478.788,1805.043,1475.51,1806.315,1475.51,1806.315Z" transform="translate(-1448.254 -1623.333)" fill="#233862"/>
          <path id="Path_21157" data-name="Path 21157" d="M1479.445,852.439c.005-.434.229-5.12,7.348-5.536,0,0-3.494.5-4.062,2.057,0,0,2.34-1.961,4.3-1.4s3.181,3.942,3.219,5.061-.954,4.754-2.179,5.091a3.771,3.771,0,0,1-1.493.038,16.752,16.752,0,0,1,1,1.685c2.984,5.767.41,12.561-2.012,11.989-1.553-.367-2.5,2.325-2.5,2.325l-14.939-12.847S1473.357,849.376,1479.445,852.439Z" transform="translate(-1442.689 -846.903)" fill="#2c3a64"/>
          <path id="Path_21158" data-name="Path 21158" d="M1478.267,996.916a18.136,18.136,0,0,0,6.34,2.7c9.773,2.258,13.519-6,14.925-11.672a8.4,8.4,0,0,0-3.311-1.017c-.706-.083-1.449-.138-2.064-.169-1.1-.841-2.733-4.281-3.094-9.622l-.46.123-7.7,2.108s.353,2.448.526,4.763c.134,1.811.155,3.542-.189,3.965-.6.13-.962.215-.962.215a.018.018,0,0,1,0,.007A49.59,49.59,0,0,0,1478.267,996.916Z" transform="translate(-1450.902 -952.343)" fill="#ffb27d"/>
          <path id="Path_21159" data-name="Path 21159" d="M1502.6,979.9s.354,2.446.526,4.763c4.364-.437,6.389-4.592,7.177-6.871Z" transform="translate(-1470.607 -952.875)" fill="#ed985f"/>
          <path id="Path_21160" data-name="Path 21160" d="M1473.563,929.73s10.047-2.582,8.343-8.814-1.555-10.763-8.042-9.378-7.078,4.1-7.015,6.321S1470.9,930.241,1473.563,929.73Z" transform="translate(-1441.654 -899.032)" fill="#ffb27d"/>
          <path id="Path_21161" data-name="Path 21161" d="M1461.726,909.6c1.032-2.3,2.313-2.208,3.122-1.825a7.249,7.249,0,0,1,9.384-1.031,12.342,12.342,0,0,0,5.824,5.962s-1.514,1.627-6.013,1.7a7.408,7.408,0,0,1-4.049-1.414,24.206,24.206,0,0,0,5.363,3.8c-5.657-.942-9.591-7.37-9.995-8.054a8.132,8.132,0,0,0-1.382,3.506c-.063,1.724.61,5.051-.373,5.2C1463.607,917.444,1460.179,913.043,1461.726,909.6Z" transform="translate(-1437.185 -894.314)" fill="#2c3a64"/>
          <path id="Path_21162" data-name="Path 21162" d="M1433.976,1027.35s16.874-4.1,24.211,1.955l-3.667,51.137-33-7.973s.929-3.236,7.256-11.84S1432.352,1039.4,1433.976,1027.35Z" transform="translate(-1404.957 -991.903)" fill="#ffb27d"/>
          <path id="Path_21163" data-name="Path 21163" d="M1436.115,1264.3s-.02.173-.054.5c-.015.142-.035.314-.055.514-.142,1.326-.411,3.869-.758,7.175-.905,8.673-2.327,22.6-3.295,33.6-.758,8.6-1.239,15.4-.979,16.492.781,3.288,0,42.586,0,42.586-2.8,1.345-7.057,0-7.057,0s-7.471-35.413-6.425-40.335a16.955,16.955,0,0,0-.7-9.124c-5.8-27.014-5.166-41.987-4.014-49.155a30.244,30.244,0,0,1,.992-4.376,9.061,9.061,0,0,1,.4-1.076A27.3,27.3,0,0,1,1436.115,1264.3Z" transform="translate(-1397.26 -1181.449)" fill="#2b478b"/>
          <path id="Path_21164" data-name="Path 21164" d="M1446.843,1045.548c-.814,6.152-4.073,13.68-5.237,17.732,0,0,1.946,14.068.088,17.931a1.711,1.711,0,0,1-.792.888c-6.881,3-33.679.087-34.81-8.557-.411-3.141,10.207-14.189,10.826-15.53.257-.554.53-2.352-.714-6.077-1.765,5.44-11.5,3.876-11.5,3.876,1.143-1.956,3.991-15.488,7.171-21.6,2.391-4.592,8.774-5.257,8.774-5.257s2.657,4.214,9.082,3.616,7.6-4.531,7.6-4.531,5.7.758,7.454,2.174C1445.086,1030.463,1447.912,1037.488,1446.843,1045.548Z" transform="translate(-1391.339 -993.562)" fill="#f99746"/>
          <path id="Path_21165" data-name="Path 21165" d="M1564.146,1165.865s1.946,14.068.088,17.931c-5.013-2.516-8.964-9.324-8.052-16.907.674-5.606,1.676-6.884,4.675-10.092,2.2-2.357,7.3-2.49,6.9-1.369C1566.568,1158.769,1564.761,1163.725,1564.146,1165.865Z" transform="translate(-1513.879 -1096.147)" fill="#ed7d2b"/>
          <g id="Group_4837" data-name="Group 4837" transform="translate(0 47.889)">
            <path id="Path_21166" data-name="Path 21166" d="M1407.8,1125.757l11.49,18.434h-19.55l-10.947-18.035Z" transform="translate(-1378.458 -1120.563)" fill="#1c468a"/>
            <path id="Path_21167" data-name="Path 21167" d="M1499.534,1140.8l.2-.644-10.873-17.444-.218.58Z" transform="translate(-1459.302 -1118.095)" fill="#efdece"/>
            <path id="Path_21168" data-name="Path 21168" d="M1408.016,1122.708l-18.417.525-.808.455,19.008-.4Z" transform="translate(-1378.458 -1118.095)" fill="#fcecdb"/>
            <path id="Path_21169" data-name="Path 21169" d="M1344.845,1104.066l-10.332-5.593,12.044,18.913,9.236,4.714Z" transform="translate(-1334.513 -1098.474)" fill="#163560"/>
          </g>
          <path id="Path_21170" data-name="Path 21170" d="M1553,1171.971c-1.107.506-3.947,3.851-4.961,4.191-4.559,1.525-23.96-2.534-23.96-2.534l.6-3.4s19.043.506,21.136-.054c.394-.106,2.452-3.325,3.243-3.787Z" transform="translate(-1487.997 -1105.572)" fill="#ffb27d"/>
          <path id="Path_21171" data-name="Path 21171" d="M1481.149,1180.148s-2.3-1.869-3.848-1.446-3.835,2.385-4.682,2.85-3.151,2.126-1.984,3.132,4.8.142,6.241-.628a7.444,7.444,0,0,1,3.672-.507Z" transform="translate(-1444.46 -1115.491)" fill="#ffb27d"/>
          <path id="Path_21172" data-name="Path 21172" d="M1492.052,1177.294s-2.791-.333-3.553-.318-.555.182-.135.774,1.874.818,1.941,1.025S1492.052,1177.294,1492.052,1177.294Z" transform="translate(-1458.772 -1114.143)" fill="#ffb27d"/>
          <path id="Path_21173" data-name="Path 21173" d="M1565.714,1028.043s8.276.982,10.555,4.531c2.881,4.488,9.681,22.359,9.462,26.863,0,0-4.972,8.461-22.02,7.107,0,0-1.774-6.265,1.812-8.333,0,0,8.756-1.557,9.765-2.445l-7.139-12.974Z" transform="translate(-1519.726 -993.562)" fill="#f99746"/>
          <path id="Path_21174" data-name="Path 21174" d="M1381.151,1160.908c-.256-1.042-2.53-.391-3.3.209a3.114,3.114,0,0,0-.583.685c-.024-.175-.045-.341-.056-.472-.043-.49-.614-1.367-.755-.71s-.375,3.417-.375,3.417c-.028,2.223,1.4,3.14,2.319,2.417S1381.407,1161.951,1381.151,1160.908Z" transform="translate(-1368.172 -1100.689)" fill="#ffb27d"/>
        </g>
      </g>
    </g>
  </g>
</svg>
