<svg xmlns="http://www.w3.org/2000/svg" xmlns:xlink="http://www.w3.org/1999/xlink" width="144.845" height="144.398" viewBox="0 0 144.845 144.398">
  <defs>
    <linearGradient id="linear-gradient" x1="0.07" y1="0.022" x2="1.106" y2="1.105" gradientUnits="objectBoundingBox">
      <stop offset="0" stop-color="#fff"/>
      <stop offset="0.502" stop-color="#98dbf9"/>
      <stop offset="1" stop-color="#fff"/>
    </linearGradient>
  </defs>
  <path id="Union_10" data-name="Union 10" d="M12204.373,20205.4h-124.222a2.15,2.15,0,0,1-2.149-2.15v-50.725a2.15,2.15,0,0,1,2.149-2.148h15.807v-52.891a2.152,2.152,0,0,1,2.149-2.15h27.829v-32.184a2.148,2.148,0,0,1,2.15-2.15h44.74a2.151,2.151,0,0,1,2.15,2.15v69.734h29.4a2.151,2.151,0,0,1,2.15,2.15v7.338a2.153,2.153,0,1,1-4.306,0v-5.184H12165.3v63.9h36.916v-48.682a2.153,2.153,0,0,1,4.306,0v17.576h14.173a2.152,2.152,0,0,1,2.15,2.156v31.1a2.151,2.151,0,0,1-2.15,2.15Zm-64.456-114.369v4.3h2.931a2.153,2.153,0,0,1,2.155,2.15V20201.1H12161v-66.062a2.152,2.152,0,0,1,2.155-2.15h7.524v-67.58h-40.44v30.029h5.381v-4.3a2.15,2.15,0,1,1,4.3,0Zm66.606,110.064h12.022v-26.8h-12.022Zm-106.266,0h40.44V20189.2h-40.44Zm-17.956,0h13.656v-46.414H12082.3Zm17.956-16.2h40.44v-10.182h-19.386a2.15,2.15,0,0,1,0-4.3h19.386v-10.182h-40.44v10.182h11.014a2.15,2.15,0,0,1,0,4.3h-11.014Zm0-32.373v3.408h40.44v-10.182h-40.44Zm0-11.078h40.44v-10.184h-40.44Zm0-14.482h40.44v-10.184h-40.44Zm0-14.482h40.44v-12.846h-40.44Zm-13.281,83.045v-5.588a2.153,2.153,0,1,1,4.306,0v5.588a2.153,2.153,0,1,1-4.306,0Zm84.887,1.191a2.152,2.152,0,1,1,0-4.3h23.8a2.152,2.152,0,0,1,0,4.3Zm-23.559-5.213v-6.455a2.152,2.152,0,0,1,4.3,0v6.455a2.152,2.152,0,0,1-4.3,0Zm62.077-3.809v-6.09a2.15,2.15,0,0,1,4.3,0v6.09a2.15,2.15,0,0,1-4.3,0Zm-38.519-1.15a2.15,2.15,0,1,1,0-4.3h23.8a2.15,2.15,0,0,1,0,4.3Zm-84.887-5.861v-5.594a2.153,2.153,0,0,1,4.306,0v5.594a2.153,2.153,0,0,1-4.306,0Zm84.887-4.307a2.152,2.152,0,1,1,0-4.3h23.8a2.152,2.152,0,0,1,0,4.3Zm-23.559-3.7v-6.451a2.152,2.152,0,1,1,4.3,0v6.451a2.152,2.152,0,1,1-4.3,0Zm-61.328-6.842v-5.592a2.153,2.153,0,0,1,4.306,0v5.592a2.153,2.153,0,0,1-4.306,0Zm84.887.371a2.15,2.15,0,1,1,0-4.3h23.8a2.15,2.15,0,0,1,0,4.3Zm0-10.172a2.15,2.15,0,1,1,0-4.3h23.8a2.15,2.15,0,0,1,0,4.3Zm-23.559-2.182v-6.449a2.152,2.152,0,1,1,4.3,0v6.449a2.152,2.152,0,0,1-4.3,0Zm23.559-7.986a2.152,2.152,0,1,1,0-4.3h23.8a2.152,2.152,0,0,1,0,4.3Zm-23.559-10.836v-6.451a2.152,2.152,0,1,1,4.3,0v6.451a2.152,2.152,0,1,1-4.3,0Zm12.859-5.629a2.149,2.149,0,1,1,2.038,1.328h-.048A2.174,2.174,0,0,1,12161.164,20129.4Zm-.167-13.189v-6.455a2.152,2.152,0,0,1,4.3,0v6.455a2.152,2.152,0,0,1-4.3,0Zm-12.692,0v-6.455a2.152,2.152,0,0,1,4.3,0v6.455a2.152,2.152,0,0,1-4.3,0Zm47.169-.432a2.152,2.152,0,1,1,0-4.3h18.93a2.152,2.152,0,0,1,0,4.3Zm-15.491-9.035a2.15,2.15,0,0,1,0-4.3h26.247a2.15,2.15,0,0,1,0,4.3Zm-18.985-9.266v-6.449a2.152,2.152,0,1,1,4.3,0v6.449a2.152,2.152,0,0,1-4.3,0Zm-12.692,0v-6.449a2.152,2.152,0,1,1,4.3,0v6.449a2.152,2.152,0,0,1-4.3,0Zm-61.246-8.949a2.15,2.15,0,1,1,0-4.3h18.929a2.15,2.15,0,0,1,0,4.3Zm10.755-7.166a2.152,2.152,0,1,1,0-4.3h18.93a2.152,2.152,0,0,1,0,4.3Zm63.184-2.611v-6.455a2.152,2.152,0,0,1,4.3,0v6.455a2.152,2.152,0,0,1-4.3,0Zm-12.692,0v-6.455a2.152,2.152,0,0,1,4.3,0v6.455a2.152,2.152,0,0,1-4.3,0Zm-12.687,0v-6.455a2.15,2.15,0,1,1,4.3,0v6.455a2.15,2.15,0,1,1-4.3,0Z" transform="translate(-12078.002 -20060.998)" opacity="0.25" fill="url(#linear-gradient)"/>
</svg>
