<svg id="Group_2962" data-name="Group 2962" xmlns="http://www.w3.org/2000/svg" width="17.031" height="18.048" viewBox="0 0 17.031 18.048">
  <path id="Path_18479" data-name="Path 18479" d="M771.239,223.818h-7.168a2.791,2.791,0,0,1-2.789-2.789v-12.47a2.792,2.792,0,0,1,2.789-2.789h7.168a2.794,2.794,0,0,1,2.789,2.789v2.283h-1.2v-2.283a1.587,1.587,0,0,0-1.587-1.587h-7.168a1.587,1.587,0,0,0-1.587,1.587v12.47a1.589,1.589,0,0,0,1.587,1.587h7.168a1.589,1.589,0,0,0,1.587-1.587v-2.387h1.2v2.387A2.792,2.792,0,0,1,771.239,223.818Z" transform="translate(-761.282 -205.77)" fill="#65106b"/>
  <g id="Group_2960" data-name="Group 2960" transform="translate(4.712 4.819)">
    <path id="Path_18480" data-name="Path 18480" d="M775.769,212.584h-12.32l3.416-4.6.964.715-1.991,2.68h9.931Z" transform="translate(-763.449 -207.987)" fill="#65106b"/>
  </g>
  <g id="Group_2961" data-name="Group 2961" transform="translate(5.459 8.414)">
    <line id="Line_187" data-name="Line 187" x1="2.809" y1="3.12" transform="translate(0.446 0.402)" fill="#fff"/>
    <rect id="Rectangle_836" data-name="Rectangle 836" width="1.201" height="4.197" transform="matrix(0.744, -0.669, 0.669, 0.744, 0, 0.803)" fill="#65106b"/>
  </g>
</svg>
