<svg xmlns="http://www.w3.org/2000/svg" width="42" height="42" viewBox="0 0 42 42">
  <g id="Maintenance" transform="translate(-2 -2)">
    <path id="Path_15716" data-name="Path 15716" d="M46.427,20.2A11.628,11.628,0,0,1,45.2,23.153L47.5,25.439,43.439,29.5,41.153,27.2A11.628,11.628,0,0,1,38.2,28.427v3.239H32.467V28.427A11.628,11.628,0,0,1,29.514,27.2L27.228,29.5,25.1,27.367l-1.928-1.928,2.293-2.286A11.628,11.628,0,0,1,24.239,20.2H21V14.467h3.239a11.628,11.628,0,0,1,1.226-2.953L23.171,9.228l4.056-4.056,2.286,2.293a11.628,11.628,0,0,1,2.953-1.226V3H38.2V6.239a11.628,11.628,0,0,1,2.953,1.226l2.286-2.293L47.5,9.228,45.2,11.514a11.628,11.628,0,0,1,1.225,2.953h3.239V20.2Z" transform="translate(-6.383 -0.283)" fill="#57a4ff"/>
    <path id="Path_15717" data-name="Path 15717" d="M46.2,19.6a8.593,8.593,0,0,1-7.167,8.478V22.215a4.293,4.293,0,0,0,0-8.1v4.049H36.166V14.117a4.293,4.293,0,0,0,0,8.1v5.862A8.6,8.6,0,1,1,46.2,19.6Z" transform="translate(-8.4 -2.549)" fill="#46f8ff"/>
    <path id="Path_15718" data-name="Path 15718" d="M40.733,15.35a4.293,4.293,0,0,1,0,8.1v5.862a8.493,8.493,0,0,1-2.867,0V23.448a4.293,4.293,0,0,1,0-8.1V19.4h2.867Z" transform="translate(-10.037 -4.113)" fill="#ffde55"/>
    <path id="Path_15719" data-name="Path 15719" d="M33.1,41.235V48.4a1.438,1.438,0,0,1-1.433,1.433H4.433A1.438,1.438,0,0,1,3,48.4V38.368a1.438,1.438,0,0,1,1.433-1.433H20l2.128,2.129,2.286-2.293A11.628,11.628,0,0,0,27.367,38v2.91a2.872,2.872,0,1,0,.459.33Z" transform="translate(-0.283 -10.852)" fill="#ff7956"/>
    <path id="Path_15720" data-name="Path 15720" d="M39.3,55v2.15a2.15,2.15,0,1,1-4.3,0V55Z" transform="translate(-9.961 -16.017)" fill="#b2fa09"/>
    <path id="Path_15721" data-name="Path 15721" d="M36.728,44.867a2.874,2.874,0,1,1-1.433-2.48v.33h.459A2.855,2.855,0,0,1,36.728,44.867Z" transform="translate(-8.769 -12.103)" fill="#ffde55"/>
    <path id="Path_15722" data-name="Path 15722" d="M21.5,28.253,19.2,30.539l1.928,1.928H14.883a2.867,2.867,0,1,0-5.733,0H7L7.358,29.6l.358-2.867.559-4.479A1.438,1.438,0,0,1,9.7,21h7.332v4.3h3.239A11.628,11.628,0,0,0,21.5,28.253Z" transform="translate(-1.417 -5.815)" fill="#46f8ff"/>
    <path id="Path_15723" data-name="Path 15723" d="M15.733,35.867H10a2.867,2.867,0,1,1,5.733,0Z" transform="translate(-2.267 -9.337)" fill="#46f8ff"/>
    <ellipse id="Ellipse_100" data-name="Ellipse 100" cx="3" cy="3.5" rx="3" ry="3.5" transform="translate(7 29.222)" fill="#ffde55"/>
    <path id="Path_15724" data-name="Path 15724" d="M11.3,55v2.15a2.15,2.15,0,1,1-4.3,0V55Z" transform="translate(-1.417 -16.017)" fill="#b2fa09"/>
    <path id="Path_15725" data-name="Path 15725" d="M6.583,29l-.358,2.867H4.433a1.433,1.433,0,1,1,0-2.867Z" transform="translate(-0.283 -8.132)" fill="#b2fa09"/>
    <rect id="Rectangle_541" data-name="Rectangle 541" width="2" height="2" transform="translate(14.683 30.293)"/>
    <rect id="Rectangle_542" data-name="Rectangle 542" width="1" height="2" transform="translate(19.571 30.293)"/>
    <rect id="Rectangle_543" data-name="Rectangle 543" width="2" height="2" transform="translate(14.683 33.22)"/>
    <rect id="Rectangle_544" data-name="Rectangle 544" width="1" height="2" transform="translate(19.571 33.22)"/>
    <path id="Path_15726" data-name="Path 15726" d="M43.3,13.2H40.662a11.826,11.826,0,0,0-.853-2.06l1.865-1.864a.7.7,0,0,0,0-.99l-3.96-3.96a.722.722,0,0,0-.99,0L34.86,6.19a11.826,11.826,0,0,0-2.06-.853V2.7a.7.7,0,0,0-.7-.7H26.5a.7.7,0,0,0-.7.7V5.338a11.826,11.826,0,0,0-2.06.853L21.876,4.325a.7.7,0,0,0-.99,0l-3.96,3.96a.7.7,0,0,0,0,.991L18.79,11.14a11.826,11.826,0,0,0-.853,2.06H15.3a.7.7,0,0,0-.7.7v.7H8.136a2.1,2.1,0,0,0-2.084,1.84l-.47,3.76H4.1a2.1,2.1,0,1,0,0,4.2h.957l-.175,1.4H4.1A2.1,2.1,0,0,0,2,27.9v9.8a2.1,2.1,0,0,0,2.1,2.1h.7v1.4a2.8,2.8,0,0,0,5.6,0V39.8h14v1.4a2.8,2.8,0,0,0,5.6,0V39.8h.7a2.1,2.1,0,0,0,2.1-2.1V28.062a11.826,11.826,0,0,0,2.06-.853l1.864,1.865a.7.7,0,0,0,.99,0l3.96-3.96a.7.7,0,0,0,0-.99L39.81,22.26a11.826,11.826,0,0,0,.853-2.06H43.3a.7.7,0,0,0,.7-.7V13.9A.7.7,0,0,0,43.3,13.2ZM4.1,23a.7.7,0,0,1-.7-.7.682.682,0,0,1,.214-.5.67.67,0,0,1,.486-.2H5.407L5.232,23Zm3.341-6.387a.7.7,0,0,1,.7-.613H14.6v3.5a.7.7,0,0,0,.7.7h2.638a11.826,11.826,0,0,0,.853,2.06l-1.865,1.864a.7.7,0,0,0,0,.991l.685.685H13.83a3.5,3.5,0,0,0-6.86,0H6.293Zm4.93,9.187H8.429a2.087,2.087,0,0,1,3.942,0ZM9,41.2a1.4,1.4,0,1,1-2.8,0V39.8H9Zm19.6,0a1.4,1.4,0,1,1-2.8,0V39.8h2.8Zm2.1-2.8H4.1a.7.7,0,0,1-.7-.7V27.9a.7.7,0,0,1,.7-.7H19.01l1.874,1.875a.722.722,0,0,0,.991,0l1.864-1.865a11.826,11.826,0,0,0,2.062.853V29.38a3.412,3.412,0,0,0-.7-.08,3.509,3.509,0,1,0,3.2,2.1h3.1v6.3A.7.7,0,0,1,30.7,38.4Zm-3.5-5.6a2.1,2.1,0,1,1-2.1-2.1,2.065,2.065,0,0,1,.731.15.69.69,0,0,0,.669.55h.146a2.09,2.09,0,0,1,.554,1.4Zm15.4-14H40.133a.7.7,0,0,0-.678.525,10.4,10.4,0,0,1-1.12,2.7.7.7,0,0,0,.108.851l1.744,1.744L37.216,27.59l-1.744-1.744a.7.7,0,0,0-.851-.108,10.4,10.4,0,0,1-2.7,1.12.7.7,0,0,0-.525.678V30H27.2V27.533a.7.7,0,0,0-.525-.678,10.4,10.4,0,0,1-2.7-1.12.7.7,0,0,0-.851.108l-1.744,1.744L18.41,24.616l1.744-1.744a.7.7,0,0,0,.108-.851,10.4,10.4,0,0,1-1.12-2.7.7.7,0,0,0-.678-.525H16V14.6h2.467a.7.7,0,0,0,.678-.525,10.4,10.4,0,0,1,1.12-2.7.7.7,0,0,0-.108-.851L18.413,8.781,21.384,5.81l1.744,1.744a.7.7,0,0,0,.851.108,10.4,10.4,0,0,1,2.7-1.12.7.7,0,0,0,.522-.675V3.4h4.2V5.867a.7.7,0,0,0,.525.678,10.4,10.4,0,0,1,2.7,1.12.7.7,0,0,0,.851-.108l1.744-1.744L40.19,8.784l-1.744,1.744a.7.7,0,0,0-.108.851,10.4,10.4,0,0,1,1.12,2.7.7.7,0,0,0,.678.525H42.6Z"/>
    <path id="Path_15727" data-name="Path 15727" d="M37.317,10a9.317,9.317,0,1,0,9.317,9.317A9.317,9.317,0,0,0,37.317,10ZM36.6,27.163V21.932a.717.717,0,0,0-.481-.677,3.58,3.58,0,0,1-.952-6.239v2.867a.717.717,0,0,0,.717.717H38.75a.717.717,0,0,0,.717-.717V15.017a3.58,3.58,0,0,1-.952,6.239.717.717,0,0,0-.481.677v5.232c-.237.022-.474.037-.717.037S36.837,27.185,36.6,27.163Zm2.867-.269V22.413a5.011,5.011,0,0,0-.481-9.256.717.717,0,0,0-.952.677v3.332H36.6V13.834a.717.717,0,0,0-.952-.677,5.011,5.011,0,0,0-.481,9.256v4.481a7.883,7.883,0,1,1,4.3,0Z" transform="translate(-8.367 -2.267)"/>
    <path id="Path_15728" data-name="Path 15728" d="M11.583,41a3.583,3.583,0,1,0,3.583,3.583A3.583,3.583,0,0,0,11.583,41Zm0,5.733a2.15,2.15,0,1,1,2.15-2.15A2.15,2.15,0,0,1,11.583,46.733Z" transform="translate(-1.7 -11.83)"/>
  </g>
</svg>
