<?xml version="1.0" encoding="utf-8"?>
<!-- Generator: Adobe Illustrator 14.0.0, SVG Export Plug-In . SVG Version: 6.00 Build 43363)  -->
<!DOCTYPE svg PUBLIC "-//W3C//DTD SVG 1.1//EN" "http://www.w3.org/Graphics/SVG/1.1/DTD/svg11.dtd">
<svg version="1.1" id="map-location" xmlns="http://www.w3.org/2000/svg" xmlns:xlink="http://www.w3.org/1999/xlink" x="0px"
	 y="0px" width="65px" height="65px" viewBox="1.049 -0.174 65 65" enable-background="new 1.049 -0.174 65 65"
	 xml:space="preserve">
<path id="Path_15747" fill="#FFFFFF" d="M60.852,27.25H48.545c-0.624,0.018-1.114,0.538-1.097,1.162
	c0.018,0.599,0.498,1.08,1.097,1.097h10.276l3.274,30.487H5.049l3.843-30.487h10.295c0.623-0.018,1.114-0.538,1.097-1.162
	c-0.017-0.598-0.498-1.08-1.097-1.097H6.899L2.488,62.254h62.125L60.852,27.25z"/>
<path id="Path_15748" fill="#FFFFFF" d="M32.584,45.261c-0.165,0.099-0.343,0.186-0.502,0.288c-0.249,0.16-0.492,0.328-0.729,0.503
	c-0.503,0.369-0.611,1.076-0.243,1.579c0.37,0.503,1.076,0.611,1.58,0.242c0.201-0.148,0.405-0.289,0.619-0.428
	c0.37-0.239,0.752-0.459,1.145-0.656c0.522-0.268,0.75-0.893,0.521-1.434c0.009-0.009,0.021-0.016,0.028-0.025
	c2.042-2.163,8.926-10.27,11.775-23.777c0.569-2.563,0.7-5.206,0.387-7.813C46.194,6.322,41.58,2.395,33.826,2.395
	c-7.755,0-12.364,3.927-13.339,11.351c-0.313,2.608-0.182,5.25,0.387,7.813C23.697,34.935,30.471,43.01,32.584,45.261z
	 M22.726,14.04c0.828-6.314,4.459-9.384,11.101-9.384c6.643,0,10.277,3.07,11.101,9.384c0.28,2.354,0.159,4.74-0.356,7.054
	c-1.66,8.179-5.354,15.809-10.74,22.184c-5.386-6.375-9.08-14.005-10.74-22.184C22.573,18.781,22.45,16.396,22.726,14.04z"/>
<path id="Path_15749" fill="#FFFFFF" d="M33.827,23.763c4.582,0,8.295-3.713,8.295-8.294c0-4.582-3.713-8.295-8.295-8.295
	c-4.581,0-8.294,3.713-8.294,8.295C25.538,20.048,29.249,23.758,33.827,23.763z M33.827,9.434c3.334,0,6.037,2.702,6.037,6.036
	c0,3.334-2.703,6.037-6.037,6.037c-3.333,0-6.036-2.703-6.036-6.037C27.795,12.138,30.496,9.437,33.827,9.434z"/>
<path id="Path_15750" fill="#FFFFFF" d="M37.974,43.236c-0.609,0.136-0.992,0.739-0.856,1.349c0.134,0.601,0.726,0.983,1.328,0.86
	c0.662-0.14,1.379-0.259,2.13-0.354c0.618-0.077,1.058-0.641,0.981-1.26c-0.076-0.618-0.641-1.058-1.259-0.98
	C39.483,42.952,38.7,43.082,37.974,43.236z"/>
<path id="Path_15751" fill="#FFFFFF" d="M43.815,43.695c0.026,0.603,0.522,1.079,1.127,1.08h0.051l2.258-0.093
	c0.623-0.028,1.104-0.557,1.076-1.179c-0.041-0.616-0.561-1.092-1.179-1.079l-2.253,0.092c-0.622,0.026-1.106,0.552-1.08,1.174
	C43.815,43.692,43.815,43.693,43.815,43.695z"/>
<path id="Path_15752" fill="#FFFFFF" d="M27.818,48.889c-0.581,0.439-1.179,0.86-1.784,1.251c-0.518,0.347-0.657,1.049-0.309,1.566
	c0.34,0.509,1.022,0.653,1.54,0.328c0.648-0.421,1.296-0.873,1.914-1.342c0.497-0.377,0.597-1.084,0.221-1.583
	C29.024,48.612,28.315,48.513,27.818,48.889L27.818,48.889L27.818,48.889z"/>
<path id="Path_15753" fill="#FFFFFF" d="M52.984,41.444c-0.461,0.3-0.979,0.503-1.521,0.595c-0.613,0.114-1.018,0.705-0.903,1.317
	c0.115,0.613,0.704,1.019,1.318,0.903c0.015-0.003,0.028-0.005,0.042-0.009c0.848-0.153,1.653-0.481,2.367-0.963l0.15-0.111
	c0.507-0.363,0.623-1.069,0.26-1.576c-0.364-0.507-1.07-0.623-1.577-0.259c-0.016,0.012-0.029,0.023-0.045,0.035L52.984,41.444z"/>
<path id="Path_15754" fill="#FFFFFF" d="M12.492,50.272c0.163-0.602-0.193-1.222-0.795-1.384c-0.602-0.163-1.221,0.192-1.384,0.794
	l0,0c-0.141,0.519-0.226,1.051-0.254,1.587c-0.005,0.13-0.009,0.262-0.009,0.399c0,0.221,0.011,0.442,0.033,0.663
	c0.058,0.576,0.543,1.016,1.123,1.016c0.037,0,0.076,0,0.117-0.006c0.62-0.064,1.071-0.618,1.009-1.238
	c-0.015-0.148-0.021-0.299-0.022-0.441c0-0.092,0-0.186,0.009-0.277C12.336,51.009,12.395,50.635,12.492,50.272z"/>
<path id="Path_15755" fill="#FFFFFF" d="M52.958,32.668c-0.902-0.118-1.818-0.048-2.694,0.204c-0.6,0.172-0.946,0.797-0.775,1.397
	c0.139,0.482,0.579,0.817,1.082,0.818c0.104,0,0.208-0.014,0.308-0.042c0.578-0.167,1.183-0.215,1.778-0.139
	c0.618,0.083,1.188-0.35,1.271-0.968C54.011,33.321,53.578,32.752,52.958,32.668L52.958,32.668z"/>
<path id="Path_15756" fill="#FFFFFF" d="M55.205,38.261c-0.184,0.594,0.147,1.226,0.741,1.41c0.107,0.035,0.22,0.052,0.333,0.052
	c0.495,0.001,0.933-0.322,1.079-0.796c0.109-0.354,0.18-0.719,0.206-1.087c0.006-0.093,0.01-0.186,0.01-0.278
	c-0.002-0.537-0.1-1.07-0.289-1.573c-0.217-0.586-0.866-0.884-1.451-0.667s-0.882,0.867-0.666,1.451l0,0
	c0.096,0.252,0.146,0.519,0.147,0.787v0.132C55.301,37.885,55.264,38.076,55.205,38.261z"/>
<path id="Path_15757" fill="#FFFFFF" d="M22.226,52.263c-0.662,0.31-1.335,0.598-2.002,0.857c-0.583,0.226-0.87,0.88-0.644,1.462
	c0.169,0.434,0.586,0.72,1.051,0.721c0.139,0,0.277-0.026,0.407-0.076c0.716-0.278,1.439-0.587,2.148-0.919
	c0.565-0.265,0.808-0.938,0.543-1.504C23.464,52.24,22.791,51.998,22.226,52.263L22.226,52.263z"/>
<path id="Path_15758" fill="#FFFFFF" d="M14.006,47.561c0.188-0.001,0.372-0.048,0.536-0.138c0.318-0.175,0.668-0.286,1.029-0.326
	c0.154-0.02,0.309-0.02,0.463,0c0.618,0.082,1.186-0.353,1.267-0.971c0.083-0.617-0.353-1.186-0.97-1.267l0,0
	c-0.334-0.043-0.672-0.047-1.007-0.009c-0.651,0.072-1.283,0.271-1.858,0.588c-0.547,0.299-0.748,0.986-0.447,1.533
	c0.198,0.361,0.577,0.587,0.989,0.587L14.006,47.561z"/>
<path id="Path_15759" fill="#FFFFFF" d="M13.771,56.416c0.244,0.063,0.491,0.109,0.741,0.14c0.288,0.035,0.579,0.053,0.869,0.053
	c0.354-0.001,0.709-0.024,1.061-0.07c0.62-0.076,1.059-0.641,0.982-1.259c-0.077-0.619-0.64-1.059-1.259-0.981l0,0
	c-0.455,0.063-0.916,0.067-1.373,0.017c-0.15-0.02-0.299-0.047-0.446-0.084c-0.603-0.157-1.22,0.205-1.376,0.808
	c-0.157,0.604,0.205,1.22,0.808,1.377l0,0L13.771,56.416z"/>
</svg>
