<svg xmlns="http://www.w3.org/2000/svg" xmlns:xlink="http://www.w3.org/1999/xlink" width="44" height="43.998" viewBox="0 0 44 43.998">
  <defs>
    <linearGradient id="linear-gradient" x1="0.5" x2="0.5" y2="1" gradientUnits="objectBoundingBox">
      <stop offset="0.13" stop-color="#00a9ed"/>
      <stop offset="1" stop-color="#65106b"/>
    </linearGradient>
  </defs>
  <path id="target" d="M39.006,9.152a.76.76,0,0,0,.146.014.729.729,0,0,0,.515-.214l4.121-4.12a.729.729,0,0,0-.376-1.23l-2.1-.42-.42-2.1A.728.728,0,0,0,39.665.713l-4.12,4.119a.728.728,0,0,0-.2.655l.437,2.192L34.708,8.755A18.864,18.864,0,0,0,22.58,3.726V.794H21.123V3.726A18.958,18.958,0,0,0,2.932,21.917H0v1.457H2.932A18.958,18.958,0,0,0,21.123,41.565V44.5H22.58V41.565A18.958,18.958,0,0,0,40.771,23.374H43.7V21.917H40.771A18.866,18.866,0,0,0,35.739,9.788l1.075-1.075ZM39.735,2.7l.248,1.238a.729.729,0,0,0,.571.571l1.238.248L38.91,7.648l-.859-.172L40.18,5.347l-1.03-1.03L37.022,6.445l-.172-.859Zm-.42,19.212H37.876v1.457h1.438A17.5,17.5,0,0,1,22.58,40.109V38.67H21.123v1.439A17.5,17.5,0,0,1,4.389,23.374H5.827V21.917H4.389A17.5,17.5,0,0,1,21.123,5.183V6.621H22.58V5.183a17.417,17.417,0,0,1,11.1,4.6l-3.1,3.1a13.161,13.161,0,1,0,1.034,1.03l3.1-3.1a17.415,17.415,0,0,1,4.6,11.1ZM22.367,23.16,25.931,19.6A5.119,5.119,0,1,1,24.9,18.566l-3.562,3.563Zm3.569-5.632a6.572,6.572,0,1,0,1.03,1.03l3.61-3.611a11.7,11.7,0,1,1-1.03-1.03Zm0,0" transform="translate(0 -0.499)" fill="url(#linear-gradient)"/>
</svg>
