<?xml version="1.0" encoding="utf-8"?>
<!-- Generator: Adobe Illustrator 14.0.0, SVG Export Plug-In . SVG Version: 6.00 Build 43363)  -->
<!DOCTYPE svg PUBLIC "-//W3C//DTD SVG 1.1//EN" "http://www.w3.org/Graphics/SVG/1.1/DTD/svg11.dtd">
<svg version="1.1" id="Layer_1" xmlns="http://www.w3.org/2000/svg" xmlns:xlink="http://www.w3.org/1999/xlink" x="0px" y="0px"
	 width="80px" height="90px" viewBox="2.473 0.502 80 90" enable-background="new 2.473 0.502 80 90" xml:space="preserve">
<g id="medical-history" transform="translate(-0.004)">
	<path id="Path_16179" fill="#FFFFFF" d="M29.483,24.716h1.299v1.299c0,2.152,1.745,3.896,3.897,3.896
		c2.152,0,3.896-1.744,3.896-3.896l0,0v-1.299h1.298c2.152,0,3.897-1.745,3.897-3.896c0-2.152-1.745-3.897-3.897-3.897h-1.298
		v-1.295c0-2.152-1.745-3.897-3.896-3.897c-2.153,0-3.897,1.745-3.897,3.897v1.295h-1.299c-2.151,0-3.896,1.745-3.896,3.897
		C25.587,22.971,27.332,24.716,29.483,24.716L29.483,24.716z M29.483,19.521h2.598c0.715-0.002,1.294-0.581,1.295-1.296v-2.597
		c0.019-0.718,0.615-1.284,1.333-1.266c0.691,0.018,1.248,0.574,1.265,1.266v2.597c0,0.717,0.582,1.299,1.298,1.299h2.598
		c0.718-0.019,1.314,0.548,1.332,1.265c0.02,0.717-0.548,1.314-1.265,1.333c-0.023,0-0.044,0-0.067,0h-2.598
		c-0.716,0-1.298,0.581-1.298,1.298v2.599c-0.018,0.717-0.615,1.284-1.333,1.265c-0.691-0.018-1.247-0.573-1.265-1.265V23.42
		c0-0.718-0.582-1.298-1.299-1.298H29.48c-0.718-0.018-1.284-0.614-1.265-1.332c0.018-0.691,0.574-1.248,1.265-1.266L29.483,19.521z
		"/>
	<path id="Path_16180" fill="#FFFFFF" d="M56.76,16.925h-8.345C46.271,9.339,38.384,4.928,30.798,7.072
		c-4.774,1.349-8.505,5.08-9.854,9.854h-8.347c-3.587,0.002-6.494,2.909-6.498,6.495v54.554c0.005,3.585,2.912,6.49,6.498,6.493
		H56.76c3.586-0.005,6.491-2.91,6.495-6.495V23.418C63.251,19.833,60.346,16.928,56.76,16.925L56.76,16.925z M34.68,35.111
		c6.383-0.01,11.989-4.25,13.736-10.392h7.047v51.954h-41.57V24.719h7.049C22.687,30.862,28.293,35.102,34.68,35.111z M34.68,9.132
		c6.456,0,11.689,5.235,11.689,11.691c0,6.456-5.235,11.689-11.691,11.688c-6.457,0-11.689-5.234-11.689-11.689
		C22.988,14.366,28.222,9.132,34.68,9.132C34.679,9.132,34.679,9.132,34.68,9.132z M60.659,77.976c0,2.152-1.745,3.896-3.897,3.896
		l0,0H12.597c-2.152,0-3.897-1.744-3.897-3.896l0,0V23.423c0-2.152,1.745-3.896,3.897-3.896l0,0h7.86
		c-0.04,0.428-0.067,0.856-0.067,1.298s0.027,0.87,0.067,1.299h-6.564c-1.435,0-2.598,1.163-2.598,2.597v51.952
		c-0.002,1.435,1.16,2.599,2.594,2.602c0.001,0,0.002,0,0.003,0h41.57c1.435,0,2.598-1.164,2.598-2.598c0-0.001,0-0.003,0-0.004
		V24.719c0.001-1.434-1.161-2.598-2.597-2.599c0,0,0,0-0.001,0h-6.562c0.039-0.428,0.066-0.856,0.066-1.299
		c0-0.442-0.027-0.87-0.066-1.298h7.859c2.153,0,3.897,1.745,3.897,3.896L60.659,77.976z"/>
	<path id="Path_16181" fill="#FFFFFF" d="M19.09,48.1c0.716-0.019,1.283-0.614,1.265-1.331c-0.018-0.692-0.575-1.249-1.265-1.266
		v-5.197h6.495c0.716-0.019,1.284-0.614,1.265-1.332c-0.017-0.691-0.575-1.248-1.265-1.265H19.09c-1.436,0-2.598,1.163-2.598,2.597
		l0,0v5.195c-0.001,1.435,1.16,2.599,2.595,2.599C19.087,48.1,19.089,48.1,19.09,48.1z"/>
	<path id="Path_16182" fill="#FFFFFF" d="M23.908,43.285c-0.522-0.493-1.344-0.47-1.837,0.052c-0.473,0.501-0.473,1.284,0,1.785
		l2.598,2.597c0.508,0.507,1.33,0.507,1.837,0L33,41.224c0.498-0.516,0.483-1.339-0.034-1.837c-0.503-0.485-1.3-0.485-1.804,0
		l-5.576,5.576L23.908,43.285z"/>
	<path id="Path_16183" fill="#FFFFFF" d="M50.266,41.605h1.299c0.717,0.018,1.314-0.548,1.331-1.265
		c0.019-0.718-0.547-1.314-1.265-1.333c-0.021,0-0.045,0-0.066,0h-1.299c-0.717-0.019-1.313,0.548-1.331,1.265
		c-0.019,0.718,0.548,1.314,1.265,1.333C50.222,41.606,50.244,41.606,50.266,41.605z"/>
	<path id="Path_16184" fill="#FFFFFF" d="M38.576,41.605h6.494c0.716-0.019,1.283-0.615,1.266-1.333
		c-0.019-0.691-0.575-1.248-1.266-1.265h-6.495c-0.718-0.019-1.314,0.548-1.333,1.265c-0.019,0.718,0.549,1.314,1.265,1.333
		c0.023,0,0.044,0,0.067,0H38.576z"/>
	<path id="Path_16185" fill="#FFFFFF" d="M38.576,46.799h10.391c0.718,0.019,1.314-0.547,1.332-1.266
		c0.019-0.717-0.548-1.313-1.265-1.332c-0.022,0-0.045,0-0.067,0H38.576c-0.718-0.019-1.314,0.548-1.333,1.265
		c-0.019,0.718,0.549,1.313,1.266,1.332C38.532,46.8,38.554,46.8,38.576,46.799z"/>
	<path id="Path_16186" fill="#FFFFFF" d="M19.09,61.089c0.716-0.019,1.283-0.615,1.265-1.332c-0.019-0.691-0.575-1.247-1.265-1.266
		v-5.195h6.495c0.716-0.02,1.284-0.615,1.265-1.332c-0.018-0.69-0.575-1.248-1.265-1.266H19.09c-1.436,0-2.598,1.163-2.598,2.598
		v5.195C16.492,59.926,17.654,61.089,19.09,61.089z"/>
	<path id="Path_16187" fill="#FFFFFF" d="M31.162,52.379l-5.576,5.575l-1.679-1.679c-0.517-0.499-1.339-0.483-1.837,0.033
		c-0.484,0.504-0.484,1.3,0,1.804l2.598,2.598c0.508,0.507,1.33,0.507,1.837,0L33,54.215c0.498-0.517,0.483-1.34-0.034-1.836
		C32.463,51.894,31.666,51.894,31.162,52.379L31.162,52.379z"/>
	<path id="Path_16188" fill="#FFFFFF" d="M51.565,51.998h-1.299c-0.717-0.019-1.313,0.546-1.332,1.265
		c-0.019,0.717,0.549,1.313,1.265,1.333c0.023,0,0.046,0,0.067,0h1.299c0.717,0.019,1.314-0.549,1.333-1.266
		c0.018-0.718-0.549-1.313-1.266-1.332C51.61,51.997,51.587,51.997,51.565,51.998z"/>
	<path id="Path_16189" fill="#FFFFFF" d="M38.576,54.593h6.494c0.716-0.019,1.283-0.614,1.266-1.331
		c-0.019-0.691-0.575-1.248-1.266-1.267h-6.495c-0.718-0.019-1.314,0.548-1.333,1.267c-0.019,0.717,0.547,1.313,1.265,1.331
		c0.022,0.001,0.044,0.001,0.067,0H38.576z"/>
	<path id="Path_16190" fill="#FFFFFF" d="M38.576,59.79h10.391c0.718,0.02,1.314-0.547,1.332-1.265
		c0.019-0.717-0.548-1.313-1.265-1.333c-0.022,0-0.045,0-0.067,0H38.576c-0.718-0.019-1.314,0.55-1.333,1.267
		c-0.019,0.716,0.548,1.313,1.266,1.331C38.531,59.79,38.554,59.79,38.576,59.79z"/>
	<path id="Path_16191" fill="#FFFFFF" d="M19.09,74.077c0.716-0.019,1.283-0.615,1.265-1.332c-0.019-0.691-0.575-1.248-1.265-1.267
		v-5.195h6.495c0.716-0.018,1.284-0.615,1.265-1.331c-0.018-0.691-0.575-1.247-1.265-1.266H19.09
		c-1.434,0.001-2.595,1.164-2.595,2.597v5.195C16.494,72.913,17.656,74.075,19.09,74.077z"/>
	<path id="Path_16192" fill="#FFFFFF" d="M31.162,65.367l-5.576,5.577l-1.679-1.68c-0.517-0.498-1.339-0.483-1.837,0.033
		c-0.484,0.504-0.484,1.301,0,1.804l2.598,2.598c0.508,0.507,1.33,0.507,1.837,0L33,67.204c0.498-0.516,0.483-1.339-0.034-1.837
		C32.463,64.881,31.666,64.881,31.162,65.367L31.162,65.367z"/>
	<path id="Path_16193" fill="#FFFFFF" d="M51.565,64.984h-1.299c-0.717-0.018-1.313,0.547-1.332,1.265
		c-0.019,0.717,0.549,1.314,1.265,1.333c0.023,0,0.046,0,0.067,0h1.299c0.717,0.019,1.314-0.549,1.333-1.266
		c0.018-0.718-0.549-1.313-1.266-1.332C51.61,64.983,51.587,64.983,51.565,64.984z"/>
	<path id="Path_16194" fill="#FFFFFF" d="M38.576,67.585h6.494c0.716-0.019,1.283-0.616,1.266-1.334
		c-0.019-0.69-0.575-1.247-1.266-1.265h-6.495c-0.718-0.018-1.314,0.548-1.333,1.265c-0.019,0.718,0.547,1.315,1.265,1.334
		c0.022,0,0.044,0,0.067,0H38.576z"/>
	<path id="Path_16195" fill="#FFFFFF" d="M38.576,72.781h10.391c0.718,0.018,1.314-0.549,1.332-1.266
		c0.019-0.717-0.548-1.314-1.265-1.332c-0.022,0-0.045,0-0.067,0H38.576c-0.718-0.019-1.314,0.548-1.333,1.265
		s0.548,1.314,1.266,1.333C38.531,72.781,38.554,72.781,38.576,72.781z"/>
	<path id="Path_16196" fill="#FFFFFF" d="M75.466,23.42h-6.235c-2.003,0.156-3.509,1.893-3.378,3.896v42.866
		c0,0.146,0.023,0.29,0.072,0.428l4.231,12.174c0.318,1.21,1.558,1.933,2.767,1.614c0.784-0.206,1.398-0.816,1.61-1.599
		l4.236-12.191c0.048-0.138,0.073-0.283,0.072-0.429V27.318C78.972,25.314,77.468,23.578,75.466,23.42L75.466,23.42z M74.707,74.381
		c-1.548-0.402-3.174-0.402-4.722,0l-1.008-2.9h6.739L74.707,74.381z M68.451,39.012v-3.896h7.793v3.896H68.451z M73.647,68.888
		V51.996c-0.02-0.718-0.616-1.284-1.333-1.267c-0.691,0.019-1.247,0.575-1.265,1.267v16.889h-2.599V41.606h2.599v5.196
		c-0.019,0.717,0.548,1.313,1.265,1.332s1.313-0.548,1.333-1.266c0-0.021,0-0.045,0-0.066v-5.196h2.597v27.278L73.647,68.888z
		 M69.23,26.023h6.235c0.368,0,0.778,0.556,0.778,1.299v5.195h-7.793v-5.195c0-0.747,0.411-1.303,0.78-1.303L69.23,26.023z
		 M72.347,81.175l-1.506-4.336c0.993-0.212,2.021-0.212,3.014,0L72.347,81.175z"/>
</g>
</svg>
