<svg xmlns="http://www.w3.org/2000/svg" width="47.192" height="40.45" viewBox="0 0 47.192 40.45">
  <g id="medical-kit" transform="translate(0 -36.546)">
    <g id="Group_1404" data-name="Group 1404" transform="translate(0 36.546)">
      <path id="Path_15986" data-name="Path 15986" d="M1.738,111.37A5.677,5.677,0,0,0,0,115.531v21.91A5.677,5.677,0,0,0,1.738,141.6,5.677,5.677,0,0,0,5.9,143.34h.843V109.632H5.9A5.677,5.677,0,0,0,1.738,111.37Z" transform="translate(0 -102.891)" fill="#6a8dac"/>
      <path id="Path_15987" data-name="Path 15987" d="M124.938,39.074a2.517,2.517,0,0,0-2.528-2.528H107.242a2.517,2.517,0,0,0-2.528,2.528v4.213H100.5V77h28.652V43.287h-4.213V39.074Zm-16.854.843h13.483v3.371H108.084ZM124.938,62.67a.81.81,0,0,1-.842.843h-5.9v5.9a.811.811,0,0,1-.843.842H112.3a.811.811,0,0,1-.843-.842v-5.9h-5.9a.811.811,0,0,1-.843-.843V57.614a.811.811,0,0,1,.842-.843h5.9v-5.9a.811.811,0,0,1,.843-.843h5.056a.812.812,0,0,1,.843.843v5.9h5.9a.81.81,0,0,1,.842.843V62.67h0Z" transform="translate(-91.23 -36.546)" fill="#6a8dac"/>
      <path id="Path_15988" data-name="Path 15988" d="M443.541,111.37a5.678,5.678,0,0,0-4.161-1.738h-.843V143.34h.843a5.934,5.934,0,0,0,5.9-5.9v-21.91A5.679,5.679,0,0,0,443.541,111.37Z" transform="translate(-398.087 -102.891)" fill="#6a8dac"/>
    </g>
  </g>
</svg>
