<?xml version="1.0" encoding="utf-8"?>
<!-- Generator: Adobe Illustrator 14.0.0, SVG Export Plug-In . SVG Version: 6.00 Build 43363)  -->
<!DOCTYPE svg PUBLIC "-//W3C//DTD SVG 1.1//EN" "http://www.w3.org/Graphics/SVG/1.1/DTD/svg11.dtd">
<svg version="1.1" id="Layer_1" xmlns="http://www.w3.org/2000/svg" xmlns:xlink="http://www.w3.org/1999/xlink" x="0px" y="0px"
	 width="65px" height="65px" viewBox="1.451 -2.21 65 65" enable-background="new 1.451 -2.21 65 65" xml:space="preserve">
<g id="outline" transform="translate(-2 -5)">
	<path id="Path_16320" d="M63.081,26.305c-1.964,0-3.556,1.592-3.556,3.555v9.75c-1.263-1.478-3.486-1.649-4.963-0.387
		c-0.139,0.118-0.267,0.248-0.386,0.387l-4.433,5.184c-3.986,2.063-6.482,6.181-6.469,10.669v6.391h2.03v-6.391
		c-0.01-3.793,2.135-7.262,5.532-8.946c0.121-0.061,0.229-0.145,0.317-0.247l4.564-5.325c0.545-0.619,1.489-0.68,2.108-0.134
		c0.619,0.545,0.681,1.489,0.136,2.108l-5.297,6.087c-0.394,0.399-0.389,1.042,0.01,1.436c0.398,0.396,1.042,0.392,1.436-0.007
		c0.03-0.03,0.058-0.061,0.082-0.094l7.109-8.124c0.163-0.188,0.252-0.427,0.251-0.675V29.859c0-0.843,0.683-1.526,1.526-1.526
		c0.842,0,1.525,0.684,1.525,1.526v13.994c0,0.953-0.268,1.886-0.772,2.692l-9.232,14.768l1.728,1.077l9.229-14.77
		c0.706-1.13,1.079-2.436,1.077-3.77V29.859C66.635,27.896,65.044,26.305,63.081,26.305z"/>
	<path id="Path_16321" d="M16.007,62.391l1.727-1.077L8.499,46.545c-0.504-0.807-0.772-1.74-0.771-2.692V29.859
		c0-0.843,0.683-1.526,1.524-1.526c0.843,0,1.526,0.684,1.526,1.526v11.68c0,0.246,0.09,0.484,0.252,0.669l7.109,8.126
		c0.343,0.443,0.981,0.524,1.425,0.181c0.444-0.344,0.525-0.981,0.182-1.425c-0.025-0.032-0.052-0.063-0.081-0.093l-5.305-6.089
		c-0.551-0.614-0.5-1.56,0.115-2.11c0.614-0.552,1.559-0.501,2.109,0.114c0.01,0.011,0.019,0.021,0.027,0.031l4.564,5.324
		c0.088,0.103,0.196,0.187,0.317,0.248c3.398,1.685,5.543,5.155,5.531,8.949v6.392h2.031v-6.395
		c0.014-4.488-2.482-8.606-6.469-10.669l-4.434-5.174c-1.211-1.406-3.304-1.635-4.792-0.525c-0.204,0.151-0.39,0.325-0.557,0.519
		v-9.753c0-1.963-1.591-3.555-3.555-3.555c-1.963,0-3.555,1.592-3.555,3.555v13.994c-0.001,1.334,0.372,2.64,1.077,3.77
		L16.007,62.391z"/>
	<path id="Path_16322" fill="#147DB2" d="M20.489,32.329L35.53,44.363c0.381,0.303,0.923,0.295,1.293-0.02l15.365-13.063
		c1.857-1.582,3.305-3.589,4.218-5.852l-1.885-0.75c-0.789,1.957-2.04,3.694-3.647,5.062L36.145,42.249L21.756,30.742
		c-1.618-1.297-2.904-2.96-3.753-4.852l-1.854,0.828C17.13,28.906,18.617,30.829,20.489,32.329L20.489,32.329z"/>
	<path id="Path_16323" fill="#147DB2" d="M57.495,19.809C57.496,13.3,52.218,8.022,45.708,8.021c-3.127,0-6.126,1.243-8.337,3.455
		l-1.205,1.204l-1.206-1.204c-4.603-4.604-12.066-4.604-16.669-0.002c-2.211,2.21-3.453,5.209-3.453,8.336v0.761
		c0.003,0.558,0.037,1.116,0.101,1.671H5.696v2.031h20.313c0.357,0,0.688-0.187,0.872-0.492l2.165-3.607l6.245,10.701
		c0.18,0.314,0.515,0.507,0.877,0.508h0.02c0.368-0.007,0.704-0.213,0.876-0.538l7.261-13.61l3.147,5.513
		c0.183,0.316,0.521,0.51,0.884,0.509h18.279v-2.031h-9.21C57.468,20.755,57.495,20.283,57.495,19.809z M55.377,21.226h-6.435
		l-3.769-6.602c-0.184-0.321-0.527-0.517-0.897-0.508c-0.37,0.006-0.707,0.212-0.881,0.539l-7.27,13.628l-6.192-10.611
		c-0.18-0.312-0.511-0.505-0.871-0.508h-0.006c-0.356,0-0.687,0.188-0.87,0.493l-2.751,4.586h-8.446
		c-0.075-0.554-0.117-1.112-0.121-1.671v-0.761c0-5.389,4.368-9.757,9.756-9.758c2.588,0,5.07,1.028,6.9,2.858l1.924,1.923
		c0.396,0.396,1.039,0.396,1.436,0l1.922-1.923c3.81-3.81,9.987-3.811,13.799,0c1.83,1.83,2.858,4.312,2.858,6.9
		C55.459,20.284,55.43,20.756,55.377,21.226z"/>
</g>
</svg>
