<svg xmlns="http://www.w3.org/2000/svg" xmlns:xlink="http://www.w3.org/1999/xlink" width="53.703" height="41.539" viewBox="0 0 53.703 41.539">
  <defs>
    <linearGradient id="linear-gradient" x1="0.5" x2="0.5" y2="1" gradientUnits="objectBoundingBox">
      <stop offset="0.13" stop-color="#00a9ed"/>
      <stop offset="1" stop-color="#65106b"/>
    </linearGradient>
  </defs>
  <g id="car_2_" data-name="car (2)" transform="translate(0 -53)">
    <g id="Group_1942" data-name="Group 1942" transform="translate(0 53)">
      <g id="Group_1941" data-name="Group 1941" transform="translate(0 0)">
        <path id="Path_16365" data-name="Path 16365" d="M51.649,68.434l-1.17-1.239L46.37,56.121A4.818,4.818,0,0,0,41.883,53H12.542a4.8,4.8,0,0,0-4.487,3.121L4,67.057,2.318,68.617A6.593,6.593,0,0,0,0,73.632V89.766a4.8,4.8,0,0,0,4.8,4.774H7.826a4.8,4.8,0,0,0,4.8-4.774V87.425H41.08v2.341a4.8,4.8,0,0,0,4.8,4.774h3.029a4.8,4.8,0,0,0,4.8-4.774V73.207A6.654,6.654,0,0,0,51.649,68.434ZM10.213,56.9a2.482,2.482,0,0,1,2.329-1.606H41.895A2.5,2.5,0,0,1,44.224,56.9L47.8,66.54H45.131a7.871,7.871,0,0,0-15.571,0H6.632ZM42.79,66.54H31.877a5.574,5.574,0,0,1,10.913,0ZM10.327,89.766a2.5,2.5,0,0,1-2.5,2.479H4.8a2.5,2.5,0,0,1-2.5-2.479V86.759a4.66,4.66,0,0,0,2.5.666h5.531Zm41.08,0a2.5,2.5,0,0,1-2.5,2.479H45.877a2.5,2.5,0,0,1-2.5-2.479V87.425h5.531a4.66,4.66,0,0,0,2.5-.666v3.006Zm-2.5-4.636H4.8a2.476,2.476,0,0,1-2.5-2.456V73.632A4.308,4.308,0,0,1,3.821,70.35l.046-.046,1.561-1.469H48.883l1.1,1.182c.011.023.046.034.057.057A4.325,4.325,0,0,1,51.4,73.207v9.467h.011A2.483,2.483,0,0,1,48.906,85.13Z" transform="translate(0 -53)" fill="url(#linear-gradient)"/>
      </g>
    </g>
    <g id="Group_1944" data-name="Group 1944" transform="translate(5.393 73.425)">
      <g id="Group_1943" data-name="Group 1943">
        <path id="Path_16366" data-name="Path 16366" d="M56.754,231H48.147A1.151,1.151,0,0,0,47,232.147v5.967a1.151,1.151,0,0,0,1.147,1.148h8.606a1.151,1.151,0,0,0,1.147-1.148v-5.967A1.151,1.151,0,0,0,56.754,231Zm-1.147,5.967H49.295v-3.672h6.311Z" transform="translate(-47 -231)" fill="url(#linear-gradient)"/>
      </g>
    </g>
    <g id="Group_1946" data-name="Group 1946" transform="translate(37.408 73.425)">
      <g id="Group_1945" data-name="Group 1945">
        <path id="Path_16367" data-name="Path 16367" d="M335.754,231h-8.606A1.151,1.151,0,0,0,326,232.147v5.967a1.151,1.151,0,0,0,1.147,1.148h8.606a1.151,1.151,0,0,0,1.148-1.148v-5.967A1.151,1.151,0,0,0,335.754,231Zm-1.147,5.967h-6.311v-3.672h6.311Z" transform="translate(-326 -231)" fill="url(#linear-gradient)"/>
      </g>
    </g>
    <g id="Group_1948" data-name="Group 1948" transform="translate(20.161 78.245)">
      <g id="Group_1947" data-name="Group 1947">
        <path id="Path_16368" data-name="Path 16368" d="M187.932,273H176.847a1.147,1.147,0,0,0,0,2.295h11.085a1.147,1.147,0,0,0,0-2.295Z" transform="translate(-175.7 -273)" fill="url(#linear-gradient)"/>
      </g>
    </g>
    <g id="Group_1950" data-name="Group 1950" transform="translate(20.161 74.688)">
      <g id="Group_1949" data-name="Group 1949" transform="translate(0 0)">
        <path id="Path_16369" data-name="Path 16369" d="M187.932,242H176.847a1.147,1.147,0,1,0,0,2.295h11.085a1.147,1.147,0,1,0,0-2.295Z" transform="translate(-175.7 -242)" fill="url(#linear-gradient)"/>
      </g>
    </g>
  </g>
</svg>
