<?xml version="1.0" encoding="utf-8"?>
<!-- Generator: Adobe Illustrator 14.0.0, SVG Export Plug-In . SVG Version: 6.00 Build 43363)  -->
<!DOCTYPE svg PUBLIC "-//W3C//DTD SVG 1.1//EN" "http://www.w3.org/Graphics/SVG/1.1/DTD/svg11.dtd">
<svg version="1.1" id="protection" xmlns="http://www.w3.org/2000/svg" xmlns:xlink="http://www.w3.org/1999/xlink" x="0px" y="0px"
	 width="65px" height="65px" viewBox="-6.825 -1.201 65 65" enable-background="new -6.825 -1.201 65 65" xml:space="preserve">
<g id="Group_1216" transform="translate(24.454 4.892)">
	<g id="Group_1215">
		<path id="Path_16015" d="M1.221,0C0.546,0,0,0.547,0,1.221c0,0.675,0.546,1.222,1.221,1.222s1.221-0.547,1.221-1.222l0,0
			C2.443,0.548,1.898,0.001,1.225,0C1.224,0,1.222,0,1.221,0z"/>
	</g>
</g>
<g id="Group_1218" transform="translate(0)">
	<g id="Group_1217">
		<path id="Path_16016" d="M50.127,7.336c-3.375-0.004-6.109-2.738-6.113-6.113C44.014,0.548,43.467,0,42.792,0H8.558
			C7.883,0,7.335,0.547,7.335,1.223C7.331,4.598,4.597,7.332,1.222,7.336C0.547,7.336,0,7.883,0,8.558V28.51
			c-0.007,15.694,10.289,29.533,25.324,34.036c0.228,0.068,0.472,0.068,0.699,0C41.059,58.042,51.356,44.205,51.35,28.51V8.558
			C51.35,7.883,50.802,7.336,50.127,7.336z M48.9,28.51c0.07,14.499-9.364,27.333-23.225,31.59
			C11.849,55.794,2.434,42.991,2.445,28.51V9.694c3.754-0.548,6.701-3.495,7.249-7.249h31.963c0.547,3.752,3.492,6.699,7.243,7.249
			V28.51z"/>
	</g>
</g>
<g id="Group_1220" transform="translate(4.89 4.89)">
	<g id="Group_1219">
		<path id="Path_16017" fill="#147DB2" d="M40.837,6.418c-2.544-1.11-4.574-3.142-5.685-5.685c-0.195-0.445-0.635-0.732-1.12-0.732
			h-8.359c-0.675,0.02-1.207,0.582-1.188,1.258c0.019,0.647,0.54,1.169,1.188,1.188h7.586c1.288,2.524,3.341,4.577,5.865,5.865
			V23.62c0.104,11.804-7.245,22.39-18.339,26.421C9.69,46.011,2.342,35.424,2.445,23.62V8.31C4.97,7.022,7.022,4.97,8.31,2.445h7.59
			c0.675-0.02,1.207-0.582,1.188-1.258C17.069,0.54,16.548,0.018,15.9,0H7.537c-0.485,0-0.925,0.287-1.12,0.732
			c-1.11,2.543-3.142,4.574-5.685,5.685C0.287,6.612,0,7.052,0,7.537V23.62c-0.063,12.986,8.12,24.582,20.377,28.874
			c0.264,0.094,0.552,0.094,0.816,0c12.256-4.292,20.439-15.888,20.376-28.874V7.537C41.568,7.052,41.281,6.613,40.837,6.418z"/>
	</g>
</g>
<g id="Group_1222" transform="translate(14.671 17.85)">
	<g id="Group_1221">
		<path id="Path_16018" fill="#147DB2" d="M11,0C4.925,0,0,4.925,0,11s4.925,11,11,11s11-4.925,11-11
			C21.991,4.929,17.071,0.009,11,0z M11,19.562C6.274,19.559,2.444,15.726,2.446,11c0.002-4.727,3.835-8.556,8.562-8.554
			c4.724,0.002,8.552,3.83,8.554,8.554C19.559,15.727,15.728,19.558,11,19.562z"/>
	</g>
</g>
<g id="Group_1224" transform="translate(20.784 25.186)">
	<g id="Group_1223">
		<path id="Path_16019" d="M10.646,0.358c-0.478-0.478-1.251-0.478-1.729,0L3.669,5.607L2.088,4.026
			c-0.49-0.465-1.265-0.445-1.729,0.045c-0.448,0.472-0.448,1.212,0,1.684L2.801,8.2c0.478,0.478,1.251,0.478,1.729,0l6.113-6.113
			C11.122,1.61,11.122,0.837,10.646,0.358z"/>
	</g>
</g>
</svg>
