<?xml version="1.0" encoding="utf-8"?>
<!-- Generator: Adobe Illustrator 14.0.0, SVG Export Plug-In . SVG Version: 6.00 Build 43363)  -->
<!DOCTYPE svg PUBLIC "-//W3C//DTD SVG 1.1//EN" "http://www.w3.org/Graphics/SVG/1.1/DTD/svg11.dtd">
<svg version="1.1" id="Layer_1" xmlns="http://www.w3.org/2000/svg" xmlns:xlink="http://www.w3.org/1999/xlink" x="0px" y="0px"
	 width="65px" height="65px" viewBox="3.707 1.867 65 65" enable-background="new 3.707 1.867 65 65" xml:space="preserve">
<g id="Group_1436" transform="translate(-672.989 -731.271)">
	<path id="Subtraction_5" d="M705.635,794.601c-7.009,0-12.712-6.121-12.712-13.646v-1.735c-1.475,0-3.051-1.07-3.051-4.067v-2.563
		c-1.593-0.403-3.114-1.058-4.502-1.938c-1.336-0.847-2.531-1.898-3.54-3.118c-0.988-1.195-1.771-2.546-2.315-3.999
		c-0.55-1.464-0.832-3.015-0.831-4.579v-2.116h2.033v-13.22c0.003-2.339,1.604-4.373,3.876-4.927v2.139
		c-1.113,0.481-1.835,1.575-1.84,2.788v13.221h3.051v2.149c0.067,3.538,2.438,6.618,5.842,7.585
		c0.904,0.288,1.847,0.434,2.796,0.433c0.95,0.002,1.894-0.145,2.798-0.433c3.407-0.966,5.782-4.044,5.853-7.585v-2.149h2.036
		l-0.046-13.231c-0.018-1.248-0.788-2.361-1.948-2.82v-2.123c1.123,0.251,2.128,0.875,2.853,1.77
		c0.725,0.898,1.124,2.016,1.133,3.169l0.044,13.237h2.034v2.121c0.001,1.563-0.28,3.113-0.83,4.575
		c-0.544,1.452-1.326,2.803-2.314,3.996c-1.008,1.219-2.203,2.271-3.54,3.118c-1.39,0.879-2.91,1.533-4.504,1.938v2.563
		c0,2.998-1.576,4.066-3.051,4.066v1.736c0,6.404,4.791,11.612,10.68,11.612c5.889,0,10.682-5.21,10.682-11.612v-20.044l0.057-0.01
		h-0.057c0.139-4.952,4.017-8.979,8.644-8.979c4.769,0,8.646,4.152,8.646,9.256v1.848c1.523,0.217,2.934,0.924,4.019,2.015
		c1.088,1.085,1.794,2.496,2.011,4.017c0.275,1.87-0.21,3.771-1.348,5.281c-1.128,1.516-2.813,2.518-4.685,2.781
		c-0.339,0.048-0.683,0.072-1.027,0.073c-1.7-0.003-3.345-0.612-4.635-1.722c-1.304-1.121-2.158-2.679-2.401-4.382
		c-0.276-1.868,0.207-3.77,1.342-5.28c1.129-1.515,2.815-2.517,4.686-2.781v-1.847c0-3.981-2.966-7.221-6.611-7.221
		c-3.544,0-6.51,3.141-6.61,7.002v19.995C718.349,788.479,712.646,794.601,705.635,794.601z M691.904,772.994v2.158
		c0,0.612,0.1,2.034,1.019,2.034h2.032c0.917,0,1.016-1.422,1.016-2.034v-2.158c-0.039,0-0.076,0.006-0.121,0.009h-0.023
		c-0.033,0-0.063,0.006-0.098,0.008c-0.084,0.011-0.174,0.019-0.253,0.026h-0.04h-0.019c-0.542,0.047-1.004,0.069-1.452,0.069
		h-0.049c-0.444,0-0.907-0.022-1.456-0.069h-0.008c-0.084-0.007-0.195-0.018-0.294-0.029c-0.084-0.005-0.169-0.011-0.253-0.019
		L691.904,772.994z M732.59,764.979c-2.808,0.003-5.084,2.278-5.086,5.086c0.002,2.808,2.278,5.085,5.086,5.088
		c2.805-0.009,5.076-2.282,5.083-5.088C737.671,767.258,735.397,764.983,732.59,764.979L732.59,764.979z M680.716,758.877v0.084
		c0,5.656,4.364,10.636,10.375,11.838c0.464,0.097,0.933,0.169,1.405,0.213c0.478,0.049,0.958,0.073,1.438,0.073
		c0.958,0,1.914-0.095,2.853-0.282c6.011-1.206,10.375-6.187,10.375-11.842v-0.084h-2.035v0.114
		c-0.033,2.156-0.759,4.244-2.07,5.955c-1.303,1.717-3.125,2.968-5.195,3.567c-1.105,0.351-2.257,0.529-3.417,0.529
		s-2.312-0.179-3.417-0.529c-2.07-0.603-3.89-1.854-5.194-3.57c-1.31-1.711-2.034-3.798-2.067-5.953v-0.115L680.716,758.877z"/>
	<g id="Group_1433" transform="translate(679.332 731.271)">
		<g id="Group_1431" transform="translate(0 0)">
			<path id="Path_16142" fill="#147DB2" d="M8.068,5.405c-1.861,0-3.371,1.509-3.371,3.371c0,1.861,1.51,3.371,3.371,3.371
				c1.862,0,3.371-1.509,3.371-3.371C11.439,6.914,9.93,5.405,8.068,5.405z M8.068,9.899c-0.62,0-1.124-0.503-1.124-1.123
				c0-0.621,0.503-1.124,1.124-1.124c0.621,0,1.124,0.503,1.124,1.124C9.191,9.396,8.688,9.899,8.068,9.899L8.068,9.899z"/>
		</g>
	</g>
	<g id="Group_1434" transform="translate(695.332 731.271)">
		<g id="Group_1431-2" transform="translate(0 0)">
			<path id="Path_16142-2" fill="#147DB2" d="M5.552,5.405c-1.862,0-3.371,1.509-3.371,3.371c0,1.861,1.509,3.371,3.371,3.371
				s3.371-1.509,3.371-3.371C8.923,6.914,7.413,5.405,5.552,5.405z M5.552,9.899c-0.62,0-1.124-0.503-1.124-1.123
				c0-0.621,0.503-1.124,1.124-1.124c0.621,0,1.124,0.503,1.124,1.124C6.675,9.396,6.172,9.899,5.552,9.899L5.552,9.899z"/>
		</g>
	</g>
	<g id="Group_1435" transform="translate(733.332 767.271)">
		<g id="Group_1431-3" transform="translate(0 0)">
			<path id="Path_16142-3" fill="#147DB2" d="M-0.424-0.257c-1.861,0-3.37,1.51-3.37,3.371s1.509,3.371,3.37,3.371
				c1.862,0,3.371-1.51,3.371-3.371S1.438-0.257-0.424-0.257z M-0.424,4.237c-0.62,0-1.124-0.503-1.124-1.123
				c0-0.621,0.504-1.123,1.124-1.123c0.621,0,1.123,0.502,1.123,1.123C0.699,3.734,0.197,4.237-0.424,4.237L-0.424,4.237z"/>
		</g>
	</g>
</g>
</svg>
