<?xml version="1.0" encoding="utf-8"?>
<!-- Generator: Adobe Illustrator 16.0.0, SVG Export Plug-In . SVG Version: 6.00 Build 0)  -->
<!DOCTYPE svg PUBLIC "-//W3C//DTD SVG 1.1//EN" "http://www.w3.org/Graphics/SVG/1.1/DTD/svg11.dtd">
<svg version="1.1" id="Group_1359" xmlns="http://www.w3.org/2000/svg" xmlns:xlink="http://www.w3.org/1999/xlink" x="0px" y="0px"
	 width="44.893px" height="44.867px" viewBox="0 0 44.893 44.867" enable-background="new 0 0 44.893 44.867" xml:space="preserve">
<g id="padlockIcon" transform="translate(0.006 0.007)">
	
		<linearGradient id="Path_16100_1_" gradientUnits="userSpaceOnUse" x1="-275.6864" y1="405.9134" x2="-275.6864" y2="404.9134" gradientTransform="matrix(39.9566 0 0 -30.5855 11035.46 12415.0547)">
		<stop  offset="0" style="stop-color:#00A9E0"/>
		<stop  offset="1" style="stop-color:#801C7D"/>
	</linearGradient>
	<path id="Path_16100" fill="url(#Path_16100_1_)" d="M2.109,30.579c0.097-0.002,0.192-0.018,0.284-0.047
		c0.43-0.156,0.653-0.631,0.5-1.063C-1,18.673,4.595,6.764,15.392,2.87c7.498-2.704,15.881-0.881,21.58,4.69L37.1,7.689
		l-2.511,0.027c-0.462,0.019-0.821,0.408-0.803,0.87c0.018,0.44,0.373,0.791,0.813,0.803h0.009l4.518-0.055
		c0.458-0.001,0.827-0.374,0.825-0.831c0-0.001,0-0.002,0-0.003L39.9,3.982c-0.003-0.459-0.378-0.829-0.837-0.825
		c-0.002,0-0.004,0-0.006,0C38.598,3.167,38.232,3.541,38.232,4l0.027,2.511l-0.128-0.128C29.261-2.28,15.048-2.113,6.385,6.757
		c-6.007,6.15-7.975,15.191-5.065,23.282C1.448,30.363,1.76,30.577,2.109,30.579z"/>
	
		<linearGradient id="Path_16101_1_" gradientUnits="userSpaceOnUse" x1="-275.6855" y1="405.9203" x2="-275.6855" y2="404.9203" gradientTransform="matrix(39.9503 0 0 -30.6025 11038.6348 12436.3965)">
		<stop  offset="0" style="stop-color:#00A9E0"/>
		<stop  offset="1" style="stop-color:#801C7D"/>
	</linearGradient>
	<path id="Path_16101" fill="url(#Path_16101_1_)" d="M37.303,36.956c-8.028,8.193-21.174,8.342-29.384,0.33L7.792,37.16
		l2.512-0.027c0.46-0.002,0.832-0.378,0.829-0.838c-0.002-0.461-0.378-0.832-0.839-0.83l0,0h-0.009l-4.518,0.064
		c-0.459,0.01-0.825,0.384-0.825,0.842l0.055,4.519c0.006,0.457,0.377,0.825,0.834,0.825h0.01c0.458-0.01,0.824-0.385,0.824-0.844
		l-0.026-2.51l0.128,0.127c8.874,8.658,23.087,8.482,31.745-0.391c5.998-6.148,7.962-15.18,5.06-23.264
		c-0.146-0.436-0.618-0.67-1.054-0.523c-0.436,0.146-0.67,0.618-0.523,1.054c0.003,0.009,0.007,0.019,0.01,0.028
		C44.729,22.885,42.899,31.278,37.303,36.956z"/>
	
		<linearGradient id="Path_16102_1_" gradientUnits="userSpaceOnUse" x1="-267.5829" y1="402.0863" x2="-267.5829" y2="401.0863" gradientTransform="matrix(18.339 0 0 -23.636 4929.6494 9513.2295)">
		<stop  offset="0" style="stop-color:#00A9E0"/>
		<stop  offset="1" style="stop-color:#801C7D"/>
	</linearGradient>
	<path id="Path_16102" fill="url(#Path_16102_1_)" d="M22.446,9.517c-3.708,0.005-6.712,3.01-6.718,6.718v3.354h-0.293
		c-1.193,0.002-2.161,0.969-2.163,2.163v9.238c0.002,1.194,0.97,2.161,2.163,2.164h14.013c1.193-0.003,2.161-0.97,2.163-2.164
		v-9.238c-0.002-1.193-0.97-2.161-2.163-2.163h-0.293v-3.363c0.002-3.704-2.999-6.707-6.703-6.709
		C22.45,9.517,22.448,9.517,22.446,9.517z M17.396,16.226c0-2.789,2.261-5.05,5.05-5.05s5.05,2.261,5.05,5.05v3.364h-10.1V16.226z
		 M29.952,21.752v9.238c0.004,0.273-0.214,0.496-0.485,0.5c-0.003,0-0.007,0-0.01,0H15.444c-0.272,0.002-0.494-0.219-0.495-0.49
		c0-0.004,0-0.006,0-0.01v-9.238c-0.004-0.272,0.214-0.496,0.486-0.5c0.003,0,0.006,0,0.009,0h14.018
		C29.734,21.258,29.952,21.48,29.952,21.752L29.952,21.752z"/>
	
		<linearGradient id="Path_16103_1_" gradientUnits="userSpaceOnUse" x1="-185.5409" y1="344.2806" x2="-185.5409" y2="343.2806" gradientTransform="matrix(2.8309 0 0 -5.3322 547.7053 1859.6991)">
		<stop  offset="0" style="stop-color:#00A9E0"/>
		<stop  offset="1" style="stop-color:#801C7D"/>
	</linearGradient>
	<path id="Path_16103" fill="url(#Path_16103_1_)" d="M22.694,23.97c-0.637-0.111-1.268,0.225-1.531,0.816
		c-0.279,0.602-0.087,1.318,0.458,1.699c0.095,0.063,0.146,0.172,0.138,0.284v1.815l0,0c0.002,0.387,0.316,0.697,0.703,0.695
		c0.123,0,0.244-0.033,0.351-0.096c0.222-0.121,0.354-0.361,0.339-0.613l0,0v-1.815c-0.011-0.12,0.046-0.235,0.147-0.3
		c0.365-0.258,0.578-0.68,0.567-1.127C23.845,24.656,23.357,24.089,22.694,23.97L22.694,23.97z"/>
</g>
</svg>
