<svg xmlns="http://www.w3.org/2000/svg" xmlns:xlink="http://www.w3.org/1999/xlink" width="431.623" height="361.994" viewBox="0 0 431.623 361.994">
  <defs>
    <linearGradient id="linear-gradient" x1="0.32" x2="0.886" y2="0.52" gradientUnits="objectBoundingBox">
      <stop offset="0" stop-color="#b5e2f6"/>
      <stop offset="1" stop-color="#cae4ef"/>
    </linearGradient>
  </defs>
  <g id="Group_4030" data-name="Group 4030" transform="translate(-169 -331.006)">
    <path id="Path_1" data-name="Path 1" d="M411.911,85.587a89.924,89.924,0,0,0-2.7,34.051c1.651,14.336,6.729,28.185,11.165,42.078,6.1,19.1,6.408,52.63,0,71.913-2.243,6.747-53.458,120.514-53.475,121.01,0,0,72.062.027,0,.035s-287.777,0-288.252,0c-3.379-.025-6.8-14.226-7.177-15.925C69,327.7,56.684,315.891,61.808,305.519c7.274-14.725,14.855-26.43,7.518-42.627C64.5,252.237,55.163,243.983,49.819,233.63a122.792,122.792,0,0,1-8.843-90.176C50.191,111.36,71.358,88.893,98.328,66.53c24.221-20.083,44.207-43.935,65.5-66.247H467.816s0,10.64,0,10.652c-.117,4.439-12.063,13.74-15.352,17.128-12.728,13.108-26.294,24.639-34.12,40.57a95.969,95.969,0,0,0-6.433,16.954" transform="translate(132.807 330.723)" opacity="0.46" fill="url(#linear-gradient)"/>
    <path id="Path_2" data-name="Path 2" d="M110.73,324.053a251.193,251.193,0,0,1-25.47-36.592l.005,0-.1-.167c2.1-1.693,10.062-9.022,4.877-19.245l-.325-.642-.608.386c-6.581,4.182-7.248,10.312-6.706,14.6-1.831-3.338-3.655-6.823-5.429-10.448q-1.286-2.631-2.565-5.421l.086-.023-.081-.178c2.276-1.454,10.99-7.864,6.959-18.594l-.254-.674-.647.318c-7.226,3.545-8.415,9.845-8.255,14.193-2.065-4.823-4.051-9.939-5.865-15.3,2.552-1.169,11.917-6.281,9.472-17.386l-.154-.7-.685.222c-7.746,2.507-9.779,8.689-10.206,13.023-1.552-5.016-2.925-10.221-4.064-15.568,2.637-.99,12.328-5.422,10.682-16.665l-.1-.712-.7.173C63.1,210.5,60.494,216,59.616,220.228a148.728,148.728,0,0,1-1.936-15.912c2.8-.51,13.078-3.152,13.47-14.482l.024-.719-.718.044c-7.966.494-11.49,5.77-13.031,9.831a125.076,125.076,0,0,1,1.144-20.937c2.687-.059,13.458-1,15.588-12.274l.133-.707-.718-.065c-7.523-.68-11.762,3.489-14.01,7.146a112.684,112.684,0,0,1,3.294-12.924c1.554-1.059,11.072-8.113,6.189-19.163l-.289-.659-.629.353c-10.564,5.945-7.111,17.356-6.519,19.071a114.214,114.214,0,0,0-3.354,13.193c-.869-4.213-3.452-9.631-10.836-11.526l-.7-.179-.112.711c-1.766,11.326,8.069,15.832,10.593,16.793l-.043.191.089.005a125.887,125.887,0,0,0-1.166,19.652,14.046,14.046,0,0,0-12.162-9.006l-.716-.071,0,.72c-.03,11.464,10.376,14.426,13.015,14.993l-.014.195.176-.017a150.232,150.232,0,0,0,1.88,15.555A14.152,14.152,0,0,0,44.4,212.91l-.718.058.127.708c2.022,11.29,12.8,12.339,15.487,12.423l.021.2.149-.043c1,4.685,2.183,9.256,3.5,13.688a14,14,0,0,0-13.807-5.422l-.712.109.179.7c2.62,10.324,12.146,11.3,15.645,11.3.273,0,.493-.007.688-.014L65,246.8l.142-.052c1.648,4.866,3.435,9.537,5.3,13.968A14.035,14.035,0,0,0,55.783,257.1l-.689.209.273.665c3.205,7.767,9.834,9.166,14.193,9.166a20,20,0,0,0,3.553-.312q1.343,2.945,2.7,5.72c1.672,3.416,3.386,6.7,5.114,9.868a14.1,14.1,0,0,0-15.295-2.248l-.661.284.345.631a14.043,14.043,0,0,0,12.977,7.672,20.237,20.237,0,0,0,5.659-.827l.082.178.063-.043a253,253,0,0,0,25.653,36.855.653.653,0,1,0,.979-.865M74.692,229.885c1.671,9.519-6.115,13.932-8.655,15.1-.273-2.782-.4-11.732,8.655-15.1M70.2,210.11c.986,9.614-7.1,13.46-9.712,14.447-.075-2.8.437-11.732,9.712-14.447m-.4-19.585c-.746,9.626-9.368,11.968-12.128,12.474.455-2.744,2.64-11.462,12.128-12.474m2.161-24.284c.25,0,.5.005.757.017-2.2,9.413-11.094,10.414-13.888,10.494.818-2.6,4.056-10.511,13.132-10.511m8.432,82.644c3.005,9.175-4.056,14.648-6.409,16.173-.635-2.708-1.962-11.6,6.409-16.173M68.133,141.276c3.521,9-3.238,14.866-5.494,16.516-.82-2.673-2.718-11.419,5.494-16.516M47.8,161.964c9.249,2.8,9.675,11.743,9.574,14.537-2.606-1.01-10.651-4.933-9.574-14.537m-3.28,28.092c9.555,1.367,11.337,10.121,11.664,12.909-2.707-.631-11.268-3.376-11.664-12.909m.719,24.113c9.627-.361,12.964,7.932,13.785,10.615-2.779-.137-11.691-1.307-13.785-10.615m4.85,21.546c9.609-1.052,13.507,7,14.511,9.613-2.8.088-11.733-.359-14.511-9.613m6.781,22.44c9.023-2.325,13.992,4.481,15.56,7.158.042.1.086.193.129.289-2.783.46-11.682,1.169-15.69-7.447M89.2,269.3c3.992,8.791-2.426,15-4.6,16.78-.927-2.623-3.222-11.313,4.6-16.78M66.833,281.095c9.036-3.418,14.831,3.4,16.452,5.68-2.681.791-11.448,2.588-16.452-5.68" transform="translate(146.109 308.488)" fill="#fff"/>
    <g id="Group_1" data-name="Group 1" transform="translate(-41 211)">
      <g id="Group_3305" data-name="Group 3305" transform="translate(27 -4)">
        <path id="Path_12" data-name="Path 12" d="M68.6,427.8s-13.843-46.929-27.986-66.252-14.5-49.192,8.485-50.874,32.691,32.4,38.974,57.434S93.649,427.8,93.649,427.8Z" transform="translate(187.409 33.671)" fill="#fff"/>
        <path id="Path_13" data-name="Path 13" d="M88.88,401.568a.457.457,0,0,0-.631.137l-7.219,11.234q-2.263-9.7-4.611-18.2l7.945-14.489a.457.457,0,0,0-.8-.439l-7.492,13.663c-1.863-6.718-3.739-12.877-5.583-18.493l6.868-19.021a.456.456,0,0,0-.274-.585.461.461,0,0,0-.585.273l-6.474,17.93c-2.911-8.758-5.728-16.159-8.269-22.259l4.558-16.252a.457.457,0,1,0-.88-.246l-4.246,15.143c-6.017-14.227-10.349-20.96-10.44-21.1a.457.457,0,0,0-.764.5c.091.139,4.444,6.911,10.479,21.226L45.89,346.529a.457.457,0,1,0-.245.88l15.266,4.26c2.548,6.119,5.378,13.554,8.3,22.364L54.1,366.609a.457.457,0,0,0-.4.82l15.918,7.821c1.858,5.663,3.75,11.878,5.63,18.667l-12.989-4.946a.456.456,0,1,0-.324.853l13.612,5.183q2.348,8.564,4.638,18.327l-12.846-5.267a.457.457,0,0,0-.346.846l13.443,5.511q1.573,6.823,3.082,14.231a.458.458,0,0,0,.448.366.439.439,0,0,0,.09-.009.457.457,0,0,0,.357-.539q-1.508-7.449-3.1-14.292l7.7-11.982a.457.457,0,0,0-.137-.631" transform="translate(186.15 32.107)" fill="#98dbf9"/>
      </g>
      <g id="Group_3306" data-name="Group 3306" transform="translate(-93.638 88.536) rotate(-16)">
        <path id="Path_14" data-name="Path 14" d="M74.332,431.733h-20.7S13.935,389.1,23.225,370.2s24.75-18.447,32.881-1.269,18.225,62.8,18.225,62.8" transform="translate(188.186 29.735)" fill="#fff"/>
        <path id="Path_15" data-name="Path 15" d="M66.762,418.81a.458.458,0,0,0-.593.255l-3.022,7.576c-1.269-3.6-2.62-7.213-4.01-10.775l4.419-10.527a.457.457,0,1,0-.842-.353l-4.054,9.66c-1.617-4.1-3.274-8.122-4.906-11.955l4.781-12.634a.456.456,0,0,0-.854-.322l-4.444,11.742c-2.229-5.2-4.388-10.007-6.305-14.169l4.646-11.658a.457.457,0,1,0-.849-.339L46.4,386.165c-3.841-8.289-6.577-13.708-6.643-13.839a.457.457,0,1,0-.815.414c.067.132,2.835,5.614,6.709,13.982L33.2,384.693a.456.456,0,1,0-.147.9l13.068,2.128c1.938,4.206,4.123,9.076,6.374,14.335L37.342,398.84a.457.457,0,1,0-.19.894l15.777,3.349c1.655,3.886,3.334,7.964,4.971,12.127l-12.653-2.934a.457.457,0,0,0-.206.891L58.3,416.24c1.41,3.615,2.78,7.284,4.065,10.934l-9.052-3.331A.457.457,0,0,0,53,424.7l9.758,3.591q.818,2.356,1.586,4.694a.456.456,0,0,0,.434.315.482.482,0,0,0,.142-.022.458.458,0,0,0,.292-.576q-.77-2.361-1.6-4.749l3.41-8.55a.456.456,0,0,0-.255-.594" transform="translate(187.246 28.346)" fill="#98dbf9"/>
      </g>
    </g>
    <path id="Path_3" data-name="Path 3" d="M378.463,454.351c0,8.728-74.738,15.8-166.933,15.8S44.6,463.079,44.6,454.351,119.335,438.54,211.53,438.54s166.933,7.08,166.933,15.811" transform="translate(148.537 222.844)" fill="#c7dbe4"/>
    <g id="Group_2" data-name="Group 2" transform="translate(216 420.906)">
      <g id="Group_3910" data-name="Group 3910" transform="translate(184.627 52.894)">
        <path id="Path_19758" data-name="Path 19758" d="M501.456,135.833l-23.326,24-15.97-29.279-6.469,3.2L466.6,169.295l7.1,6.211,11.534-2.958Z" transform="translate(-455.69 -130.552)" fill="#8cabef"/>
      </g>
      <g id="Group_3922" data-name="Group 3922" transform="translate(200.601 22.113)">
        <g id="Group_3916" data-name="Group 3916" transform="translate(4.177 101.656)">
          <g id="Group_3913" data-name="Group 3913" transform="translate(0 0)">
            <g id="Group_3911" data-name="Group 3911">
              <path id="Path_19759" data-name="Path 19759" d="M506.638,309.768l-1.212,51.747,8.961,66.845,7.5.089,5.467-61.516,10.993-61.451Z" transform="translate(-505.426 -305.483)" fill="#353a85"/>
            </g>
            <g id="Group_3912" data-name="Group 3912" transform="translate(4.215 121.977)">
              <path id="Path_19760" data-name="Path 19760" d="M528.042,606.638l-.048,4.055-8.157,3.959-4.007-4.1,4.1-4.007Z" transform="translate(-515.83 -606.542)" fill="#232a35"/>
            </g>
          </g>
          <g id="Group_3914" data-name="Group 3914" transform="translate(35.498 124.027)">
            <path id="Path_19761" data-name="Path 19761" d="M599.49,611.6l-6.448,5.481,1.612,3.224,11.929-2.579V611.6Z" transform="translate(-593.041 -611.602)" fill="#232a35"/>
          </g>
          <g id="Group_3915" data-name="Group 3915" transform="translate(27.218 17.702)">
            <path id="Path_19762" data-name="Path 19762" d="M572.6,356.115l5.36,50.158,7.072,50,10.087-.48-.368-51.865,6.071-48.1-14.26-6.642Z" transform="translate(-572.603 -349.176)" fill="#353a85"/>
          </g>
        </g>
        <g id="Group_3917" data-name="Group 3917" transform="translate(0 34.035)">
          <path id="Path_19763" data-name="Path 19763" d="M547.193,142.4l-19.721-3.817s-13.334,8.578-23.445,34.541c-10.3,26.436-8.84,66.929-8.84,66.929s53.912.862,62.742,1.07l-5.141-56.006Z" transform="translate(-495.115 -138.582)" fill="#8cabef"/>
        </g>
        <g id="Group_3920" data-name="Group 3920" transform="translate(17.56)">
          <g id="Group_3918" data-name="Group 3918" transform="translate(12.884 13.125)">
            <path id="Path_19764" data-name="Path 19764" d="M579.409,111.775c1.732.018,3.681.205,5.432.239a1.19,1.19,0,0,0,1.211-1.266c-.1-1.586-.507-3.342-.631-4.8,1.978-.558,4.279-1.437,4.744-3.439a5.781,5.781,0,0,0,.008-1.932q-.432-3.991-.865-7.981a7.068,7.068,0,0,0-.654-2.679,5.936,5.936,0,0,0-4.009-2.507,14.445,14.445,0,0,0-11.855,2.106,6.321,6.321,0,0,0-2.137,2.476c-.673,1.562-.357,3.351-.03,5.02l.906,4.621c.348,1.772.883,3.795,2.521,4.554.87.4,1.929.369,2.7.933,1.08.786,1.1,2.266,1.383,3.623A1.3,1.3,0,0,0,579.409,111.775Z" transform="translate(-570.256 -86.974)" fill="#eacdb0"/>
          </g>
          <g id="Group_3919" data-name="Group 3919">
            <path id="Path_19765" data-name="Path 19765" d="M538.466,64.8a22.45,22.45,0,0,1,.9-5.241c.794-2.79,4.21-3.854,7.11-3.875,6.264-.047,12.458-2.5,18.414.058,3.4,1.463,8.062,2.052,11.1,4.006a9.332,9.332,0,0,1,2.987,3.344,14.043,14.043,0,0,1-.9,14.823,20.061,20.061,0,0,1-2.355,2.611c-1.756,1.678-3.861,3.755-6.163,4.272.074-2.025,2.32-8.286.872-10.041-2.3-2.786-7.929-2.221-11.027-1.767-3.38.5-6.5,2.669-9.84,2.965-2.4.212-5.364-1.146-7.31-2.5C539.206,71.323,538.346,68.067,538.466,64.8Z" transform="translate(-538.455 -54.579)" fill="#292949"/>
          </g>
        </g>
        <g id="Group_3921" data-name="Group 3921" transform="translate(11.252 37.728)">
          <path id="Path_19766" data-name="Path 19766" d="M549.4,147.7l-19.114,43.636-7.4,54.17,27.376.574s-3.146-40.129-2.016-45.367,3.375-16.119,5.806-28.358c.559-2.818,4.648-24.429,4.676-24.3Z" transform="translate(-522.886 -147.698)" fill="#dddae8"/>
        </g>
      </g>
      <g id="Group_4014" data-name="Group 4014" transform="translate(0 83.367)">
        <g id="Group_4005" data-name="Group 4005">
          <g id="Group_3940" data-name="Group 3940" transform="translate(54.758 100.821)">
            <g id="Group_3923" data-name="Group 3923">
              <path id="Path_19767" data-name="Path 19767" d="M163.248,458.048c13.7,0,24.942,15.916,24.942,35.549s-11.1,35.55-24.8,35.55-24.8-15.916-24.8-35.55,11.1-35.549,24.8-35.549Zm.143-3.441a21.821,21.821,0,0,0-11.436,3.292,29.848,29.848,0,0,0-8.92,8.593c-5.083,7.286-7.882,16.913-7.882,27.106s2.8,19.82,7.882,27.106a29.846,29.846,0,0,0,8.92,8.592,21.51,21.51,0,0,0,22.873,0,29.851,29.851,0,0,0,8.92-8.592c5.083-7.286,7.882-16.913,7.882-27.106s-2.8-19.819-7.882-27.106a29.853,29.853,0,0,0-8.92-8.593,21.822,21.822,0,0,0-11.437-3.292Z" transform="translate(-135.152 -454.607)" fill="#59595b"/>
            </g>
            <g id="Group_3924" data-name="Group 3924" transform="translate(3.441 3.441)">
              <path id="Path_19768" data-name="Path 19768" d="M168.3,465.966c5.66,0,11.195,3.263,15.327,9.186,4.351,6.238,6.748,14.582,6.748,23.5s-2.4,17.259-6.748,23.5c-4.132,5.923-9.524,9.186-15.184,9.186s-11.052-3.262-15.184-9.186c-4.351-6.238-6.748-14.583-6.748-23.5s2.4-17.259,6.748-23.5c4.132-5.923,9.525-9.186,15.184-9.186Zm.143-2.867c-13.7,0-24.8,15.916-24.8,35.549s11.1,35.55,24.8,35.55,24.8-15.916,24.8-35.55-11.1-35.549-24.8-35.549Z" transform="translate(-143.644 -463.099)" fill="#aeb8bd"/>
            </g>
            <g id="Group_3925" data-name="Group 3925" transform="translate(27.809 5.447)">
              <rect id="Rectangle_1164" data-name="Rectangle 1164" width="0.86" height="33.4" fill="#aeb8bd"/>
            </g>
            <g id="Group_3926" data-name="Group 3926" transform="translate(13.725 11.9)">
              <rect id="Rectangle_1165" data-name="Rectangle 1165" width="0.86" height="30.251" transform="translate(0 0.402) rotate(-27.855)" fill="#aeb8bd"/>
            </g>
            <g id="Group_3927" data-name="Group 3927" transform="translate(5.505 24.288)">
              <rect id="Rectangle_1166" data-name="Rectangle 1166" width="0.86" height="26.608" transform="matrix(0.533, -0.846, 0.846, 0.533, 0, 0.727)" fill="#aeb8bd"/>
            </g>
            <g id="Group_3928" data-name="Group 3928" transform="translate(3.44 38.417)">
              <rect id="Rectangle_1167" data-name="Rectangle 1167" width="24.799" height="0.86" fill="#aeb8bd"/>
            </g>
            <g id="Group_3929" data-name="Group 3929" transform="translate(6.23 38.485)">
              <rect id="Rectangle_1168" data-name="Rectangle 1168" width="25.749" height="0.86" transform="matrix(0.846, -0.533, 0.533, 0.846, 0, 13.733)" fill="#aeb8bd"/>
            </g>
            <g id="Group_3930" data-name="Group 3930" transform="translate(13.496 38.647)">
              <rect id="Rectangle_1169" data-name="Rectangle 1169" width="30.737" height="0.86" transform="translate(0 27.174) rotate(-62.139)" fill="#aeb8bd"/>
            </g>
            <g id="Group_3931" data-name="Group 3931" transform="translate(27.809 38.847)">
              <rect id="Rectangle_1170" data-name="Rectangle 1170" width="0.86" height="33.4" fill="#aeb8bd"/>
            </g>
            <g id="Group_3932" data-name="Group 3932" transform="translate(27.859 38.646)">
              <rect id="Rectangle_1171" data-name="Rectangle 1171" width="0.86" height="30.775" transform="translate(0 0.402) rotate(-27.855)" fill="#aeb8bd"/>
            </g>
            <g id="Group_3933" data-name="Group 3933" transform="translate(28.01 38.483)">
              <rect id="Rectangle_1172" data-name="Rectangle 1172" width="0.86" height="26.054" transform="matrix(0.533, -0.846, 0.846, 0.533, 0, 0.727)" fill="#aeb8bd"/>
            </g>
            <g id="Group_3934" data-name="Group 3934" transform="translate(28.239 38.416)">
              <rect id="Rectangle_1173" data-name="Rectangle 1173" width="23.487" height="0.86" fill="#aeb8bd"/>
            </g>
            <g id="Group_3935" data-name="Group 3935" transform="translate(28.009 24.839)">
              <rect id="Rectangle_1174" data-name="Rectangle 1174" width="25.579" height="0.86" transform="translate(0 13.643) rotate(-32.233)" fill="#aeb8bd"/>
            </g>
            <g id="Group_3936" data-name="Group 3936" transform="translate(27.858 11.222)">
              <rect id="Rectangle_1175" data-name="Rectangle 1175" width="31.018" height="0.86" transform="translate(0 27.423) rotate(-62.139)" fill="#aeb8bd"/>
            </g>
            <g id="Group_3939" data-name="Group 3939" transform="translate(23.206 32.396)">
              <g id="Group_3937" data-name="Group 3937" transform="translate(1.433 1.433)">
                <path id="Path_19769" data-name="Path 19769" d="M203.166,543.265c0,2.85-1.612,5.161-3.6,5.161s-3.6-2.311-3.6-5.161,1.612-5.161,3.6-5.161S203.166,540.415,203.166,543.265Z" transform="translate(-195.966 -538.104)" fill="#aeb8bd"/>
              </g>
              <g id="Group_3938" data-name="Group 3938">
                <path id="Path_19770" data-name="Path 19770" d="M197.318,536c1.989,0,3.743,2.311,3.743,5.161s-1.612,5.161-3.6,5.161-3.6-2.311-3.6-5.161,1.612-5.161,3.6-5.161Zm.143-1.433c-2.822,0-5.033,2.9-5.033,6.594s2.211,6.594,5.033,6.594,5.033-2.9,5.033-6.594-2.211-6.594-5.033-6.594Z" transform="translate(-192.428 -534.566)" fill="#59595b"/>
              </g>
            </g>
          </g>
          <g id="Group_3941" data-name="Group 3941" transform="translate(29.529 46.35)">
            <rect id="Rectangle_1176" data-name="Rectangle 1176" width="53.325" height="15.482" fill="#292949"/>
          </g>
          <g id="Group_3955" data-name="Group 3955" transform="translate(54.471 36.889)">
            <g id="Group_3942" data-name="Group 3942" transform="translate(22.362 60.062)">
              <path id="Path_19771" data-name="Path 19771" d="M189.963,445.055h50.419V471.43H189.638Z" transform="translate(-189.638 -445.055)" fill="#292949"/>
            </g>
            <g id="Group_3943" data-name="Group 3943" transform="translate(11.468 0.989)">
              <path id="Path_19772" data-name="Path 19772" d="M181.814,401.472h-4.3V307.723a3.723,3.723,0,0,0-1.043-2.876,6.659,6.659,0,0,0-4.4-1.286l-.149,0h-9.174v-4.3h9.106c.776-.047,4.778-.137,7.531,2.419a7.981,7.981,0,0,1,2.429,6.038Z" transform="translate(-162.749 -299.251)" fill="#aeb8bd"/>
            </g>
            <g id="Group_3944" data-name="Group 3944">
              <rect id="Rectangle_1177" data-name="Rectangle 1177" width="17.488" height="6.307" rx="3.154" fill="#446072"/>
            </g>
            <g id="Group_3945" data-name="Group 3945" transform="translate(28.526 41.427)">
              <path id="Path_19773" data-name="Path 19773" d="M251.582,489.668h-4.3v-74.41c0-4.484-1.569-7.844-4.664-9.987a12.183,12.183,0,0,0-4.534-1.911H204.851v-4.3h33.537l.137.017a16.271,16.271,0,0,1,6.541,2.659c2.973,2.058,6.517,6.075,6.517,13.522Z" transform="translate(-204.851 -399.06)" fill="#aeb8bd"/>
            </g>
            <g id="Group_3946" data-name="Group 3946" transform="translate(20.929 85.21)">
              <rect id="Rectangle_1178" data-name="Rectangle 1178" width="52.178" height="4.3" fill="#aeb8bd"/>
            </g>
            <g id="Group_3947" data-name="Group 3947" transform="translate(70.813 116.11)">
              <rect id="Rectangle_1179" data-name="Rectangle 1179" width="4.587" height="14.335" fill="#464647"/>
            </g>
            <g id="Group_3952" data-name="Group 3952" transform="translate(57.625 123.564)">
              <g id="Group_3950" data-name="Group 3950">
                <g id="Group_3948" data-name="Group 3948">
                  <path id="Path_19774" data-name="Path 19774" d="M294.735,610.819a9.031,9.031,0,1,1-9.031-9.031A9.031,9.031,0,0,1,294.735,610.819Z" transform="translate(-276.673 -601.788)" fill="#aeb8bd"/>
                </g>
                <g id="Group_3949" data-name="Group 3949">
                  <path id="Path_19775" data-name="Path 19775" d="M285.582,606.088a4.842,4.842,0,0,1,4.853,4.731,4.73,4.73,0,1,1-4.731-4.731Zm.122-4.3a9.031,9.031,0,1,0,9.031,9.031,9.031,9.031,0,0,0-9.031-9.031Z" transform="translate(-276.673 -601.788)" fill="#59595b"/>
                </g>
              </g>
              <g id="Group_3951" data-name="Group 3951" transform="translate(6.88 1.197)">
                <path id="Path_19776" data-name="Path 19776" d="M300.741,604.743l-6.075,6.075a2.293,2.293,0,1,0,3.232,3.106l6.013-6.012-3.169-3.169Z" transform="translate(-293.655 -604.743)" fill="#464647"/>
              </g>
            </g>
            <g id="Group_3953" data-name="Group 3953" transform="translate(21.789 100.692)">
              <path id="Path_19777" data-name="Path 19777" d="M264.339,579.389h-21.3l-5.161-29.753H188.223v-4.3h53.271l5.161,29.753h17.686Z" transform="translate(-188.223 -545.335)" fill="#aeb8bd"/>
            </g>
            <g id="Group_3954" data-name="Group 3954" transform="translate(79.701 129.012)">
              <rect id="Rectangle_1180" data-name="Rectangle 1180" width="18.922" height="6.307" rx="3.153" transform="translate(0 0)" fill="#292949"/>
            </g>
          </g>
          <g id="Group_3956" data-name="Group 3956" transform="translate(76.834 116.302)">
            <path id="Path_19778" data-name="Path 19778" d="M238.089,498.457l-3.8-3.883a5.859,5.859,0,0,0-4.189-1.757H189.638v5.734Z" transform="translate(-189.638 -492.817)" fill="#292949"/>
          </g>
          <g id="Group_3967" data-name="Group 3967" transform="translate(30.389 31.042)">
            <g id="Group_3957" data-name="Group 3957" transform="translate(38.627 2.407)">
              <path id="Path_19779" data-name="Path 19779" d="M170.344,288.32l3.487,1.734,24.547,30.462-1.183,6.21h-11.83l-8.872-10.055Z" transform="translate(-170.344 -288.32)" fill="#5d66d3"/>
            </g>
            <g id="Group_3961" data-name="Group 3961" transform="translate(8.872 2.12)">
              <g id="Group_3958" data-name="Group 3958" transform="translate(29.258 67.659)">
                <path id="Path_19780" data-name="Path 19780" d="M190.046,454.607l15.482,19.782-5.734,41h-5.447l-2.58-37.27-22.649-7.741Z" transform="translate(-169.117 -454.607)" fill="#eacdb0"/>
              </g>
              <g id="Group_3959" data-name="Group 3959" transform="translate(48.18 67.659)">
                <path id="Path_19781" data-name="Path 19781" d="M234.454,454.607l20.069,11.468L268,514.239l-6.02,2.581-19.5-42.431-16.628-4.874-10.034-9.461Z" transform="translate(-215.819 -454.607)" fill="#eacdb0"/>
              </g>
              <g id="Group_3960" data-name="Group 3960">
                <path id="Path_19782" data-name="Path 19782" d="M174.612,354.985a69.365,69.365,0,0,1-22.364-14.994c-6.9-7.128-11.52-16.19-15.052-25.378l-.234-.614c-2.171-5.747-3.65-11.725-5.775-17.488-.94-2.547-1.9-5.65-3.693-7.754-.409-.478-.917-1.145-1.619-1.145l-16.956.241s-17.029,25.373-10.543,58.9c2.078,10.745,4.005,19.641,5.664,26.774,4.717,11.947,13.667,8.924,21.338,3.887,9.251-3.656,13.684-3.512,24.865-3.8s13.474-3.154,18.062-6.308S181.206,357.853,174.612,354.985Z" transform="translate(-96.903 -287.613)" fill="#5d66d3"/>
              </g>
            </g>
            <g id="Group_3962" data-name="Group 3962" transform="translate(103.275 129.411)">
              <path id="Path_19783" data-name="Path 19783" d="M335.773,601.788l8.976,2.294v3.154H330.414l-.507-2.724Z" transform="translate(-329.906 -601.788)" fill="#232a35"/>
            </g>
            <g id="Group_3963" data-name="Group 3963" transform="translate(63.359 130.558)">
              <path id="Path_19784" data-name="Path 19784" d="M239.127,604.669,244,606.626v2.294H231.453l-.066-4.3Z" transform="translate(-231.386 -604.619)" fill="#232a35"/>
            </g>
            <g id="Group_3964" data-name="Group 3964" transform="translate(37.27 41.788)">
              <path id="Path_19785" data-name="Path 19785" d="M167.52,385.521l5.13,2.137,3.232,7.272-3.5.808-5.386-4.848Z" transform="translate(-166.994 -385.521)" fill="#eacdb0"/>
            </g>
            <g id="Group_3965" data-name="Group 3965" transform="translate(0 2.407)">
              <path id="Path_19786" data-name="Path 19786" d="M94.079,290.327,75.006,326.164l6.307,7.167h31.25l.86-5.734L91.061,321.29l10.321-16.628L95.361,288.32Z" transform="translate(-75.006 -288.32)" fill="#6a79e5"/>
            </g>
            <g id="Group_3966" data-name="Group 3966" transform="translate(57.197)">
              <path id="Path_19787" data-name="Path 19787" d="M224.459,323.193l21.885-36.672-7.1-4.14-23.068,27.5v11.534Z" transform="translate(-216.178 -282.38)" fill="#5d66d3"/>
            </g>
          </g>
          <g id="Group_4000" data-name="Group 4000" transform="translate(0 36.889)">
            <g id="Group_3981" data-name="Group 3981" transform="translate(2.007)">
              <g id="Group_3968" data-name="Group 3968" transform="translate(28.669 60.062)">
                <rect id="Rectangle_1181" data-name="Rectangle 1181" width="44.437" height="26.376" fill="#292949"/>
              </g>
              <g id="Group_3969" data-name="Group 3969" transform="translate(11.468 0.989)">
                <path id="Path_19788" data-name="Path 19788" d="M52.322,401.185h-4.3V307.723a3.723,3.723,0,0,0-1.044-2.876,6.659,6.659,0,0,0-4.4-1.286l-.149,0H33.257v-4.3h9.106c.778-.047,4.778-.137,7.531,2.419a7.98,7.98,0,0,1,2.429,6.038Z" transform="translate(-33.257 -299.251)" fill="#aeb8bd"/>
              </g>
              <g id="Group_3970" data-name="Group 3970">
                <rect id="Rectangle_1182" data-name="Rectangle 1182" width="17.488" height="6.307" rx="3.154" fill="#292949"/>
              </g>
              <g id="Group_3971" data-name="Group 3971" transform="translate(28.526 41.427)">
                <path id="Path_19789" data-name="Path 19789" d="M122.091,489.668h-4.3v-74.41c0-4.484-1.569-7.844-4.664-9.987a12.186,12.186,0,0,0-4.534-1.911H75.36v-4.3H108.9l.137.017a16.273,16.273,0,0,1,6.541,2.659c2.973,2.058,6.517,6.075,6.517,13.522Z" transform="translate(-75.36 -399.06)" fill="#aeb8bd"/>
              </g>
              <g id="Group_3972" data-name="Group 3972" transform="translate(28.669 85.21)">
                <rect id="Rectangle_1183" data-name="Rectangle 1183" width="44.437" height="4.3" fill="#aeb8bd"/>
              </g>
              <g id="Group_3973" data-name="Group 3973" transform="translate(29.529 100.692)">
                <path id="Path_19790" data-name="Path 19790" d="M153.953,579.389h-21.3l-5.16-29.753H77.836v-4.3h53.271l5.16,29.753h17.686Z" transform="translate(-77.836 -545.335)" fill="#aeb8bd"/>
              </g>
              <g id="Group_3974" data-name="Group 3974" transform="translate(70.813 116.11)">
                <rect id="Rectangle_1184" data-name="Rectangle 1184" width="4.587" height="14.335" fill="#464647"/>
              </g>
              <g id="Group_3979" data-name="Group 3979" transform="translate(57.625 123.564)">
                <g id="Group_3977" data-name="Group 3977">
                  <g id="Group_3975" data-name="Group 3975">
                    <path id="Path_19791" data-name="Path 19791" d="M165.244,610.819a9.031,9.031,0,1,1-9.031-9.031A9.031,9.031,0,0,1,165.244,610.819Z" transform="translate(-147.182 -601.788)" fill="#aeb8bd"/>
                  </g>
                  <g id="Group_3976" data-name="Group 3976">
                    <path id="Path_19792" data-name="Path 19792" d="M156.209,606.088a4.731,4.731,0,1,1-4.727,4.731,4.739,4.739,0,0,1,4.727-4.731Zm0-4.3a9.031,9.031,0,1,0,9.031,9.031,9.031,9.031,0,0,0-9.031-9.031Z" transform="translate(-147.182 -601.788)" fill="#59595b"/>
                  </g>
                </g>
                <g id="Group_3978" data-name="Group 3978" transform="translate(6.88 1.197)">
                  <path id="Path_19793" data-name="Path 19793" d="M171.25,604.743l-6.075,6.075a2.293,2.293,0,1,0,3.232,3.106l6.013-6.012-3.169-3.169Z" transform="translate(-164.164 -604.743)" fill="#464647"/>
                </g>
              </g>
              <g id="Group_3980" data-name="Group 3980" transform="translate(87.441 129.012)">
                <rect id="Rectangle_1185" data-name="Rectangle 1185" width="18.922" height="6.307" rx="3.153" transform="translate(0 0)" fill="#292949"/>
              </g>
            </g>
            <g id="Group_3999" data-name="Group 3999" transform="translate(0 63.932)">
              <g id="Group_3982" data-name="Group 3982">
                <path id="Path_19794" data-name="Path 19794" d="M30.508,458.048c14.963,0,27.117,15.916,27.117,35.549s-12.13,35.55-27.092,35.55S3.44,513.231,3.44,493.6s12.13-35.549,27.093-35.549Zm.025-3.441a24.932,24.932,0,0,0-12.215,3.225,31.346,31.346,0,0,0-9.678,8.542C3.068,473.684,0,483.353,0,493.6S3.068,513.51,8.639,520.82a31.345,31.345,0,0,0,9.678,8.542,24.739,24.739,0,0,0,24.43,0,31.349,31.349,0,0,0,9.678-8.542c5.571-7.31,8.64-16.978,8.64-27.223S58,473.684,52.426,466.374a31.35,31.35,0,0,0-9.678-8.542,24.933,24.933,0,0,0-12.215-3.225Z" transform="translate(0 -454.607)" fill="#59595b"/>
              </g>
              <g id="Group_3983" data-name="Group 3983" transform="translate(3.44 3.441)">
                <path id="Path_19795" data-name="Path 19795" d="M35.559,465.966c6.321,0,12.34,3.3,16.9,9.283,4.739,6.218,7.348,14.528,7.348,23.4s-2.61,17.182-7.348,23.4c-4.562,5.986-10.556,9.283-16.877,9.283s-12.315-3.3-16.877-9.283c-4.739-6.218-7.349-14.529-7.349-23.4s2.61-17.182,7.349-23.4c4.562-5.986,10.556-9.283,16.877-9.283Zm.025-2.867c-14.963,0-27.093,15.916-27.093,35.549s12.13,35.55,27.093,35.55,27.092-15.916,27.092-35.55S50.546,463.1,35.584,463.1Z" transform="translate(-8.491 -463.099)" fill="#aeb8bd"/>
              </g>
              <g id="Group_3984" data-name="Group 3984" transform="translate(30.103 5.447)">
                <rect id="Rectangle_1186" data-name="Rectangle 1186" width="0.86" height="33.4" fill="#aeb8bd"/>
              </g>
              <g id="Group_3985" data-name="Group 3985" transform="translate(14.719 11.886)">
                <rect id="Rectangle_1187" data-name="Rectangle 1187" width="0.86" height="30.883" transform="translate(0 0.43) rotate(-30)" fill="#aeb8bd"/>
              </g>
              <g id="Group_3986" data-name="Group 3986" transform="translate(5.731 24.279)">
                <rect id="Rectangle_1188" data-name="Rectangle 1188" width="0.86" height="28.39" transform="matrix(0.5, -0.866, 0.866, 0.5, 0, 0.745)" fill="#aeb8bd"/>
              </g>
              <g id="Group_3987" data-name="Group 3987" transform="translate(3.44 38.417)">
                <rect id="Rectangle_1189" data-name="Rectangle 1189" width="27.092" height="0.86" fill="#aeb8bd"/>
              </g>
              <g id="Group_3988" data-name="Group 3988" transform="translate(6.524 38.475)">
                <rect id="Rectangle_1190" data-name="Rectangle 1190" width="27.474" height="0.86" transform="matrix(0.866, -0.5, 0.5, 0.866, 0, 13.736)" fill="#aeb8bd"/>
              </g>
              <g id="Group_3989" data-name="Group 3989" transform="translate(14.468 38.633)">
                <rect id="Rectangle_1191" data-name="Rectangle 1191" width="31.38" height="0.86" transform="translate(0 27.173) rotate(-59.991)" fill="#aeb8bd"/>
              </g>
              <g id="Group_3990" data-name="Group 3990" transform="translate(30.103 38.847)">
                <rect id="Rectangle_1192" data-name="Rectangle 1192" width="0.86" height="33.4" fill="#aeb8bd"/>
              </g>
              <g id="Group_3991" data-name="Group 3991" transform="translate(30.16 38.632)">
                <rect id="Rectangle_1193" data-name="Rectangle 1193" width="0.86" height="31.418" transform="translate(0 0.43) rotate(-30)" fill="#aeb8bd"/>
              </g>
              <g id="Group_3992" data-name="Group 3992" transform="translate(30.318 38.475)">
                <rect id="Rectangle_1194" data-name="Rectangle 1194" width="0.86" height="27.799" transform="translate(0 0.745) rotate(-60)" fill="#aeb8bd"/>
              </g>
              <g id="Group_3993" data-name="Group 3993" transform="translate(30.532 38.416)">
                <rect id="Rectangle_1195" data-name="Rectangle 1195" width="25.659" height="0.86" fill="#aeb8bd"/>
              </g>
              <g id="Group_3994" data-name="Group 3994" transform="translate(30.319 24.827)">
                <rect id="Rectangle_1196" data-name="Rectangle 1196" width="27.292" height="0.86" transform="translate(0 13.65) rotate(-30.009)" fill="#aeb8bd"/>
              </g>
              <g id="Group_3995" data-name="Group 3995" transform="translate(30.163 11.206)">
                <rect id="Rectangle_1197" data-name="Rectangle 1197" width="31.667" height="0.86" transform="matrix(0.5, -0.866, 0.866, 0.5, 0, 27.428)" fill="#aeb8bd"/>
              </g>
              <g id="Group_3998" data-name="Group 3998" transform="translate(25.166 32.396)">
                <g id="Group_3996" data-name="Group 3996" transform="translate(1.433 1.433)">
                  <path id="Path_19796" data-name="Path 19796" d="M73.518,543.265c0,2.85-1.76,5.161-3.932,5.161s-3.933-2.311-3.933-5.161,1.761-5.161,3.933-5.161S73.518,540.415,73.518,543.265Z" transform="translate(-65.653 -538.104)" fill="#aeb8bd"/>
                </g>
                <g id="Group_3997" data-name="Group 3997">
                  <path id="Path_19797" data-name="Path 19797" d="M67.457,536c2.172,0,3.957,2.311,3.957,5.161s-1.76,5.161-3.932,5.161-3.933-2.311-3.933-5.161S65.309,536,67.481,536Zm.025-1.433c-2.959,0-5.366,2.958-5.366,6.594s2.407,6.594,5.366,6.594,5.366-2.958,5.366-6.594-2.407-6.594-5.366-6.594Z" transform="translate(-62.115 -534.566)" fill="#59595b"/>
                </g>
              </g>
            </g>
          </g>
          <g id="Group_4004" data-name="Group 4004" transform="translate(40.445)">
            <g id="Group_4001" data-name="Group 4001" transform="translate(25.173 3.777)">
              <path id="Path_19798" data-name="Path 19798" d="M161.957,221.593a11.075,11.075,0,0,1,7.889,9.274,9.748,9.748,0,0,0-2.146-15.781,11.285,11.285,0,0,0-5.433,6.58Z" transform="translate(-161.957 -215.086)" fill="#292949"/>
            </g>
            <g id="Group_4002" data-name="Group 4002" transform="translate(12.721 6.501)">
              <path id="Path_19799" data-name="Path 19799" d="M152.5,229.622c-2.149-11.345-16.323-9.385-20.389-.2-2.312,5.224.11,12.62,4.736,16.255.1,1,.23,3.775,1,4.447.831.727,3.451.034,4.478-.2a1.579,1.579,0,0,0,.788-.355,2.949,2.949,0,0,0,.307-1.72,9.459,9.459,0,0,0,2.311-.456,10.982,10.982,0,0,0,6.672-7.461A21.99,21.99,0,0,0,152.5,229.622Z" transform="translate(-131.223 -221.809)" fill="#eacdb0"/>
            </g>
            <g id="Group_4003" data-name="Group 4003">
              <path id="Path_19800" data-name="Path 19800" d="M113.13,259.306a47.584,47.584,0,0,0,8.039-.867c-1.821.356-2.425-19.136-2.489-20.484a19.576,19.576,0,0,1,3.219-10.977,61.574,61.574,0,0,1,7.274-9.029,9.164,9.164,0,0,0,2.536-4.039,5.973,5.973,0,0,0-1.48-4.942,8.373,8.373,0,0,0-6.538-3.2,19.587,19.587,0,0,0-14.771,6.088c-4.391,4.9-5.646,12.086-5.852,18.478a41.12,41.12,0,0,1-.279,5.137,35.157,35.157,0,0,1-1.5,5.294,24.071,24.071,0,0,0-1.462,7.963,10.6,10.6,0,0,0,2.914,7.376C105.463,258.736,109.508,259.388,113.13,259.306Z" transform="translate(-99.826 -205.764)" fill="#292949"/>
            </g>
          </g>
        </g>
        <g id="Group_4013" data-name="Group 4013" transform="translate(110.09 110.139)">
          <g id="Group_4006" data-name="Group 4006">
            <path id="Path_19801" data-name="Path 19801" d="M272.867,487.228l11.145-9.624,6.056,1.29,14.048,43.291-2.867,5.734-6.02,2.581-6.021-1.434-17.488-37.98Z" transform="translate(-271.72 -477.604)" fill="#e4e4e4"/>
          </g>
          <g id="Group_4007" data-name="Group 4007" transform="translate(0 5.707)">
            <path id="Path_19802" data-name="Path 19802" d="M271.72,499.6l19.782-7.91,2.311,7.122-17.864,10.249Z" transform="translate(-271.72 -491.691)" fill="#d1d1d1"/>
          </g>
          <g id="Group_4008" data-name="Group 4008" transform="translate(4.3 17.397)">
            <path id="Path_19803" data-name="Path 19803" d="M286.678,523.69l14.93-3.148,1.634,5.035-18.017,6.667-2.891-6.02Z" transform="translate(-282.333 -520.542)" fill="#d1d1d1"/>
          </g>
          <g id="Group_4009" data-name="Group 4009" transform="translate(11.525 22.505)">
            <path id="Path_19804" data-name="Path 19804" d="M313.869,533.151l-13.7,16.005,3.229,7.014,12.823-15.794Z" transform="translate(-300.165 -533.151)" fill="#d1d1d1"/>
          </g>
          <g id="Group_4010" data-name="Group 4010" transform="translate(14.621 40.265)">
            <path id="Path_19805" data-name="Path 19805" d="M310.79,578.735l13.392-1.75,1.4,4.315-14.908,6.881-2.867-6.021Z" transform="translate(-307.808 -576.985)" fill="#d1d1d1"/>
          </g>
          <g id="Group_4011" data-name="Group 4011" transform="translate(3.44 2.582)">
            <path id="Path_19806" data-name="Path 19806" d="M280.211,493.638l15.327-9.66,1.014,3.008Z" transform="translate(-280.211 -483.978)" fill="#ebebeb"/>
          </g>
          <g id="Group_4012" data-name="Group 4012" transform="translate(10.24 22.505)">
            <path id="Path_19807" data-name="Path 19807" d="M311.982,533.151l-14.989,13.214,1.228,2.841Z" transform="translate(-296.993 -533.151)" fill="#ebebeb"/>
          </g>
        </g>
      </g>
      <g id="Group_4018" data-name="Group 4018" transform="translate(63.308 0)">
        <g id="Group_4015" data-name="Group 4015">
          <path id="Path_19808" data-name="Path 19808" d="M227.54,1.794c-10.35,3.4-20.491,14.427-19.619,24.761-6.865-7.773-24.558-6.8-34.17-1.674-25.365,13.534-20.948,48.548-.814,64.762,10.836,8.727,23.693,14.911,36.905,19.752,11.064,4.054,38.147,11.106,38.186,11.026.085.027,13.71-24.419,18.428-35.216,5.635-12.893,10.053-26.459,11.237-40.322C279.894,19.126,254.853-7.181,227.54,1.794Z" transform="translate(-156.254 0)" fill="#d67086"/>
        </g>
        <g id="Group_4016" data-name="Group 4016" transform="translate(68.085 31.549)" opacity="0.12" style="mix-blend-mode: multiply;isolation: isolate">
          <path id="Path_19809" data-name="Path 19809" d="M372.9,95.82a160.545,160.545,0,0,1-12.537,32.7c-5.174,9.977-12.081,19.693-21.555,26a37,37,0,0,1-14.505,5.81c11.344,3.3,23.484,6.44,23.51,6.387.085.027,13.71-24.419,18.428-35.216,5.635-12.894,10.053-26.459,11.237-40.322a39.284,39.284,0,0,0-1.2-13.316A120.207,120.207,0,0,1,372.9,95.82Z" transform="translate(-324.299 -77.869)"/>
        </g>
        <g id="Group_4017" data-name="Group 4017" transform="translate(19.134 24.207)">
          <path id="Path_19810" data-name="Path 19810" d="M297.568,76.58l-20.453,9.4L257.3,60.32a1.545,1.545,0,0,0-2.716,1.16l5.444,57.078q.157,1.654.315,3.306L235.318,93.451,231.3,88.894c-.807-.916-2.642-.631-2.718.763q-.527,9.724-1.053,19.449L204.378,119a1.532,1.532,0,0,0,1.2,2.817l24.028-10.266a1.516,1.516,0,0,0,.918-1.217q.451-8.333.9-16.667L257.1,122.817l4.013,4.557a1.545,1.545,0,0,0,2.716-1.16l-5.444-57.078q-.13-1.365-.261-2.73l17.323,22.429a1.553,1.553,0,0,0,1.8.453l21.522-9.89C300.559,78.575,299.363,75.755,297.568,76.58Z" transform="translate(-203.479 -59.746)" fill="#fff"/>
        </g>
      </g>
      <g id="Group_4019" data-name="Group 4019" transform="translate(111.32 104.058)">
        <path id="Path_19811" data-name="Path 19811" d="M274.755,267.571l.543-5.421L280,256.832l1.183,1.774-1,2.719,6.622,2.9-6.364,6.663Z" transform="translate(-274.755 -256.832)" fill="#eacdb0"/>
      </g>
      <g id="Group_4020" data-name="Group 4020" transform="translate(181.337 43.868)">
        <path id="Path_19812" data-name="Path 19812" d="M456.795,117.564l-2.423-6.475-5.732-2.816-1.07,1.633,2.958,2.662-.887,6.8,2.1.7Z" transform="translate(-447.569 -108.274)" fill="#eacdb0"/>
      </g>
      <g id="Group_4027" data-name="Group 4027" transform="translate(222.918 85.329)">
        <g id="Group_4025" data-name="Group 4025">
          <g id="Group_4021" data-name="Group 4021">
            <path id="Path_19813" data-name="Path 19813" d="M638.442,250.43c-23.279-8.154-27.856-24.1-28.4-26.37,0,0,.058-.159-.032-.136-.02-.09-.135.033-.135.033-2.27.547-18.558,3.7-36.381-13.352,0,0-25.827,35.039-23.1,57.468,2.916,23.956,10.729,35.449,10.808,35.441.028.075,13.851,1.976,36.489-6.438C618.876,289.2,638.442,250.43,638.442,250.43Z" transform="translate(-550.197 -210.605)" fill="#292949"/>
          </g>
          <g id="Group_4022" data-name="Group 4022" transform="translate(3.351 5.646)">
            <path id="Path_19814" data-name="Path 19814" d="M638.022,260.678c-21.077-7.475-25.331-21.781-25.838-23.818,0,0,.051-.141-.03-.122-.018-.08-.122.029-.122.029-2.046.472-16.725,3.168-32.945-12.228,0,0-23.047,31.16-20.411,51.255,2.815,21.462,9.406,32.682,9.478,32.675.026.068,13.068,1,33.44-6.357C620.656,295.23,638.022,260.678,638.022,260.678Z" transform="translate(-558.467 -224.54)" fill="#38385e"/>
          </g>
          <g id="Group_4024" data-name="Group 4024" transform="translate(21.393 3.934)">
            <g id="Group_4023" data-name="Group 4023">
              <path id="Path_19815" data-name="Path 19815" d="M636.525,237.494s.108-.115.127-.03c.084-.021.031.127.031.127.52,2.092,4.816,16.537,25.8,24.48,1.966-3.411,3.076-5.619,3.076-5.619-21.077-7.475-25.331-21.781-25.838-23.818,0,0,.051-.142-.03-.122-.019-.081-.121.029-.121.029-2.046.472-16.725,3.168-32.945-12.228,0,0-1.469,1.987-3.623,5.28C619.595,240.7,634.424,237.98,636.525,237.494Z" transform="translate(-602.998 -220.314)" fill="#2e2e4c"/>
            </g>
          </g>
        </g>
        <g id="Group_4026" data-name="Group 4026" transform="translate(9.784 18.216)" opacity="0.34">
          <path id="Path_19816" data-name="Path 19816" d="M636.33,284.89c-15.96-5.59-20.57-17.888-20.941-19.445,0,0,.039-.109-.021-.093-.014-.062-.093.023-.093.023-1.557.375-14.507,1.881-26.726-9.809,0,0-15.923,24.677-14.051,40.055,2,16.424,7.355,24.3,7.41,24.3.02.051,9.5,1.354,25.016-4.414C621.444,310.107,636.33,284.89,636.33,284.89Z" transform="translate(-574.344 -255.565)" fill="#fff"/>
        </g>
      </g>
      <g id="Group_4028" data-name="Group 4028" transform="translate(233.639 59.992)">
        <path id="Path_19817" data-name="Path 19817" d="M595.632,148.071l9.506,6.325,11,39.952L578.478,208.7l-1.819-7.4,24.591-13.9-8.669-26.666Z" transform="translate(-576.659 -148.071)" fill="#8cabef"/>
      </g>
      <g id="Group_4029" data-name="Group 4029" transform="translate(223.628 114.282)">
        <path id="Path_19818" data-name="Path 19818" d="M562.223,282.066l-7.018,1.015-3.253,6.506,1.61,3.651,1.03-2.369,8.773-4.159Z" transform="translate(-551.951 -282.066)" fill="#eacdb0"/>
      </g>
    </g>
  </g>
</svg>
