<?xml version="1.0" encoding="utf-8"?>
<!-- Generator: Adobe Illustrator 14.0.0, SVG Export Plug-In . SVG Version: 6.00 Build 43363)  -->
<!DOCTYPE svg PUBLIC "-//W3C//DTD SVG 1.1//EN" "http://www.w3.org/Graphics/SVG/1.1/DTD/svg11.dtd">
<svg version="1.1" id="Layer_1" xmlns="http://www.w3.org/2000/svg" xmlns:xlink="http://www.w3.org/1999/xlink" x="0px" y="0px"
	 width="46px" height="60px" viewBox="-0.125 0.5 46 60" enable-background="new -0.125 0.5 46 60" xml:space="preserve">
<g id="pdf_5_" transform="translate(-64)">
	<g id="Group_1499" transform="translate(64)">
		<g id="Group_1498">
			<path id="Path_16207" fill="#FFFFFF" d="M43.779,14.318L31.974,2.512c-0.223-0.222-0.523-0.346-0.836-0.346H6.347
				C3.74,2.169,1.628,4.282,1.625,6.889v47.223c0.003,2.606,2.115,4.719,4.722,4.722h33.056c2.607-0.003,4.719-2.115,4.722-4.722
				V15.153C44.124,14.84,44,14.54,43.779,14.318z M32.319,6.197l7.775,7.775h-5.414c-1.304-0.001-2.36-1.058-2.362-2.361
				L32.319,6.197z M41.765,54.111c-0.002,1.304-1.058,2.359-2.361,2.361H6.347c-1.303-0.002-2.36-1.058-2.361-2.361V6.889
				c0.001-1.304,1.058-2.36,2.361-2.361h23.611v7.083c0.003,2.607,2.116,4.719,4.723,4.722h7.083L41.765,54.111z"/>
			<path id="Path_16208" fill="#FFFFFF" d="M28.894,36.823c-0.984-0.761-1.927-1.573-2.823-2.435c-0.898-0.9-1.7-1.771-2.397-2.603
				c1.087-3.356,1.563-5.085,1.563-6.008c0-3.918-1.416-4.722-3.541-4.722c-1.615,0-3.542,0.836-3.542,4.835
				c0,1.765,0.965,3.901,2.88,6.386c-0.464,1.429-1.022,3.076-1.636,4.933c-0.297,0.891-0.621,1.716-0.961,2.479
				c-0.279,0.124-0.548,0.249-0.808,0.379c-0.938,0.469-1.831,0.891-2.656,1.283c-3.77,1.784-6.261,2.965-6.261,5.295
				c0,1.692,1.839,2.74,3.542,2.74c2.195,0,5.51-2.932,7.931-7.872c2.63-0.969,5.343-1.699,8.104-2.185
				c1.976,1.52,4.157,2.973,5.216,2.973c2.927,0,3.542-1.693,3.542-3.112c0-2.786-3.188-2.786-4.722-2.786
				C31.173,36.473,30.027,36.612,28.894,36.823z M12.25,47.028c-0.425,0.012-0.842-0.122-1.181-0.38
				c0-0.835,2.496-2.019,4.911-3.163l0.464-0.22C14.673,45.835,12.92,47.027,12.25,47.028L12.25,47.028z M20.517,25.892
				c0-2.474,0.769-2.474,1.181-2.474c0.836,0,1.181,0,1.181,2.361c-0.188,1.257-0.503,2.493-0.939,3.688
				c-0.789-1.042-1.281-2.277-1.425-3.576L20.517,25.892z M21.422,38.58c0.074-0.205,0.146-0.412,0.215-0.623
				c0.438-1.313,0.836-2.495,1.184-3.557c0.49,0.539,1.018,1.091,1.583,1.657c0.222,0.221,0.771,0.719,1.503,1.345
				c-1.459,0.313-3.008,0.707-4.488,1.177L21.422,38.58z M34.684,39.194c0,0.53,0,0.75-1.095,0.757
				c-0.708-0.289-1.375-0.67-1.983-1.132c0.333-0.038,0.579-0.057,0.717-0.057c1.741,0.002,2.236,0.172,2.358,0.43L34.684,39.194z"
				/>
		</g>
	</g>
</g>
</svg>
