<?xml version="1.0" encoding="utf-8"?>
<!-- Generator: Adobe Illustrator 14.0.0, SVG Export Plug-In . SVG Version: 6.00 Build 43363)  -->
<!DOCTYPE svg PUBLIC "-//W3C//DTD SVG 1.1//EN" "http://www.w3.org/Graphics/SVG/1.1/DTD/svg11.dtd">
<svg version="1.1" id="Layer_1" xmlns="http://www.w3.org/2000/svg" xmlns:xlink="http://www.w3.org/1999/xlink" x="0px" y="0px"
	 width="106.379px" height="65px" viewBox="0 -3.427 106.379 65" enable-background="new 0 -3.427 106.379 65" xml:space="preserve"
	>
<g id="car_accident_collision_crash_damage_traffic_vehicle_broken_injury_repair" transform="translate(0)">
	<path id="Path_16000" d="M83.985,41.635l-3.431,1.985c-0.589,0.341-0.791,1.095-0.449,1.683c0.341,0.589,1.094,0.791,1.683,0.45
		l3.431-1.985c0.589-0.341,0.79-1.095,0.449-1.684C85.328,41.496,84.574,41.294,83.985,41.635z"/>
	<path id="Path_16001" fill="#147DB2" d="M72.869,42.807c-3.693-0.001-6.688,2.992-6.689,6.686c0,3.693,2.992,6.688,6.686,6.688
		c3.692,0,6.688-2.992,6.688-6.686c0-0.001,0-0.002,0-0.003C79.552,45.801,76.56,42.808,72.869,42.807z M72.869,53.717
		c-2.331,0-4.222-1.891-4.222-4.222s1.891-4.221,4.222-4.221s4.221,1.89,4.221,4.221S75.2,53.717,72.869,53.717L72.869,53.717z"/>
	<path id="Path_16002" d="M25.826,43.62l-3.431-1.985c-0.589-0.341-1.342-0.139-1.683,0.449c-0.34,0.589-0.139,1.343,0.449,1.684
		l3.431,1.985c0.588,0.341,1.342,0.139,1.683-0.45C26.616,44.715,26.415,43.961,25.826,43.62z"/>
	<path id="Path_16003" fill="#147DB2" d="M33.513,42.807c-3.693,0-6.687,2.994-6.687,6.687c0,3.694,2.994,6.688,6.687,6.688
		c3.693,0,6.687-2.993,6.687-6.688v-0.001C40.199,45.8,37.206,42.807,33.513,42.807z M33.513,53.717
		c-2.331-0.001-4.22-1.892-4.219-4.224c0.001-2.331,1.892-4.221,4.223-4.219c2.33,0.001,4.219,1.89,4.22,4.22
		c0,2.331-1.889,4.222-4.221,4.223C33.515,53.717,33.514,53.717,33.513,53.717z"/>
	<path id="Path_16004" d="M59.227,20.929c0.151,0.663,0.813,1.078,1.476,0.924c0.188-0.042,0.364-0.129,0.512-0.253l10.145-8.419
		l-0.56,4.111c-0.095,0.674,0.375,1.296,1.049,1.391s1.297-0.375,1.391-1.049l0.994-7.248c0.097-0.672-0.368-1.296-1.04-1.394
		c-0.347-0.05-0.698,0.05-0.967,0.275l-11.041,9.165l-1.925-8.385c-0.161-0.661-0.828-1.067-1.488-0.906
		c-0.352,0.085-0.648,0.32-0.811,0.644l-4.009,8.247L40.026,2.407c-0.434-0.525-1.21-0.599-1.734-0.164
		c-0.324,0.268-0.49,0.683-0.438,1.101l2.089,16.814l-1.11,0.122c-0.676,0.075-1.164,0.684-1.089,1.359
		c0.069,0.624,0.595,1.096,1.222,1.096c0.045,0.003,0.09,0.003,0.135,0l2.353-0.258c0.676-0.075,1.164-0.683,1.089-1.36
		c0-0.006-0.001-0.013-0.002-0.02L40.819,7.247l11.446,13.831c0.434,0.524,1.211,0.597,1.735,0.163
		c0.136-0.113,0.245-0.253,0.322-0.412l3.313-6.827L59.227,20.929z"/>
	<path id="Path_16005" d="M82.193,17.655c-1.493,0.139-2.939,0.602-4.236,1.358l-7.282,4.274c-2.08,1.219-3.512,3.302-3.905,5.682
		l-0.56,3.371c-0.238,1.457-1.039,2.764-2.229,3.637l-4.893,3.607c-2.225,1.631-3.489,4.267-3.367,7.022
		c0.063,2.424,0.729,4.794,1.939,6.894c0.996,1.651,2.784,2.657,4.712,2.652c0.954,0.002,1.893-0.25,2.718-0.728
		c0.592-0.343,0.793-1.099,0.451-1.689c-0.343-0.591-1.099-0.793-1.69-0.451l0,0c-1.422,0.814-3.234,0.345-4.083-1.058
		c-1-1.748-1.546-3.718-1.59-5.73c-0.084-1.936,0.805-3.785,2.367-4.93l4.893-3.607c1.706-1.252,2.854-3.123,3.198-5.212l0.56-3.366
		c0.276-1.659,1.274-3.111,2.726-3.962l7.281-4.273c0.984-0.575,2.083-0.929,3.218-1.035c8.422-0.786,14.059,4.219,17.306,8.552
		c0.727,0.97,0.795,2.283,0.173,3.322c-0.329,0.597-0.112,1.345,0.482,1.674c0.57,0.314,1.286,0.132,1.636-0.418
		c1.133-1.896,1.006-4.29-0.32-6.055C98.725,23.224,92.257,16.715,82.193,17.655z"/>
	<path id="Path_16006" fill="#147DB2" d="M92.75,31.38c-3.691,0.001-6.684,2.995-6.682,6.687c0,3.691,2.994,6.684,6.686,6.683
		s6.683-2.993,6.684-6.684c0-3.691-2.992-6.686-6.684-6.686C92.752,31.38,92.752,31.38,92.75,31.38z M92.75,42.29
		c-2.331-0.001-4.22-1.893-4.22-4.224c0.002-2.331,1.893-4.221,4.224-4.22c2.331,0.002,4.22,1.891,4.22,4.221
		c-0.002,2.331-1.893,4.22-4.224,4.219V42.29z"/>
	<path id="Path_16007" d="M47.296,39.587l-4.893-3.609c-1.19-0.873-1.99-2.18-2.229-3.637l-0.56-3.366
		c-0.394-2.38-1.825-4.462-3.906-5.682l-7.285-4.279c-1.296-0.76-2.742-1.226-4.237-1.368c-10.061-0.932-16.545,5.571-19.505,9.531
		c-1.326,1.766-1.452,4.159-0.319,6.055c0.347,0.585,1.103,0.778,1.688,0.431c0.585-0.347,0.778-1.103,0.431-1.688
		c-0.617-1.037-0.549-2.345,0.173-3.312c3.247-4.336,8.888-9.338,17.305-8.557c1.136,0.108,2.233,0.463,3.217,1.038l7.282,4.277
		c1.452,0.851,2.451,2.302,2.726,3.961l0.56,3.366c0.344,2.089,1.492,3.96,3.198,5.212l4.89,3.607
		c1.565,1.145,2.454,2.996,2.369,4.933c-0.044,2.014-0.59,3.983-1.59,5.731c-0.848,1.402-2.661,1.872-4.083,1.058
		c-0.588-0.341-1.342-0.14-1.683,0.449c-0.341,0.589-0.14,1.343,0.449,1.684c0.826,0.478,1.764,0.729,2.718,0.728
		c1.927,0.004,3.716-1.005,4.71-2.655c1.212-2.101,1.877-4.471,1.937-6.894c0.12-2.754-1.143-5.386-3.366-7.014L47.296,39.587z"/>
	<path id="Path_16008" fill="#147DB2" d="M13.636,31.38c-3.692,0-6.685,2.993-6.685,6.685s2.993,6.685,6.685,6.685
		c3.692,0,6.685-2.993,6.685-6.685S17.329,31.38,13.636,31.38L13.636,31.38z M13.636,42.29c-2.331,0-4.221-1.891-4.221-4.222
		s1.89-4.222,4.221-4.222c2.332,0,4.221,1.891,4.221,4.222S15.968,42.29,13.636,42.29L13.636,42.29z"/>
	<path id="Path_16009" d="M28.396,9.649c-0.607,0.303-0.854,1.041-0.551,1.648c0.001,0.001,0.001,0.003,0.002,0.003l0.689,1.38
		c0.304,0.608,1.045,0.854,1.653,0.55c0.608-0.305,0.855-1.045,0.55-1.653l0,0l-0.689-1.379c-0.305-0.608-1.044-0.855-1.653-0.55
		C28.396,9.648,28.396,9.648,28.396,9.649z"/>
	<path id="Path_16010" d="M84.402,11.54l1.149-1.379c0.442-0.517,0.383-1.295-0.135-1.737C84.9,7.983,84.123,8.043,83.68,8.559
		c-0.007,0.008-0.014,0.016-0.02,0.024l-1.148,1.379c-0.431,0.527-0.351,1.303,0.177,1.733
		C83.208,12.116,83.968,12.049,84.402,11.54z"/>
</g>
</svg>
