<svg xmlns="http://www.w3.org/2000/svg" xmlns:xlink="http://www.w3.org/1999/xlink" width="32.585" height="32.578" viewBox="0 0 32.585 32.578">
  <defs>
    <linearGradient id="linear-gradient" x1="0.5" x2="0.5" y2="1" gradientUnits="objectBoundingBox">
      <stop offset="0.13" stop-color="#00a9ed"/>
      <stop offset="1" stop-color="#65106b"/>
    </linearGradient>
  </defs>
  <g id="personal-accident" transform="translate(0 0.002)">
    <path id="Path_16092" data-name="Path 16092" d="M16.43,12.858A5.43,5.43,0,1,0,11,7.428a5.43,5.43,0,0,0,5.43,5.43Zm0-9.772A4.344,4.344,0,1,1,12.086,7.43,4.344,4.344,0,0,1,16.43,3.086Z" transform="translate(-6.114 -2)" fill="url(#linear-gradient)"/>
    <rect id="Rectangle_536" data-name="Rectangle 536" width="0.984" height="0.984" transform="translate(9.836 14.804)" fill="url(#linear-gradient)"/>
    <path id="Path_16093" data-name="Path 16093" d="M48.719,27.175a18.957,18.957,0,0,1-6.862-2.112.542.542,0,0,0-.511,0,18.957,18.957,0,0,1-6.862,2.112.542.542,0,0,0-.483.54v6.431a11.844,11.844,0,0,0,7.392,10.9.542.542,0,0,0,.418,0,11.844,11.844,0,0,0,7.4-10.9V27.714a.542.542,0,0,0-.483-.54Zm-.6,6.971a10.753,10.753,0,0,1-6.513,9.8,10.753,10.753,0,0,1-6.516-9.809V28.2a20.025,20.025,0,0,0,6.51-2.047A20.02,20.02,0,0,0,48.118,28.2Z" transform="translate(-16.626 -12.512)" fill="url(#linear-gradient)"/>
    <path id="Path_16094" data-name="Path 16094" d="M38.969,38.458l-.769.769,3.258,3.258a.542.542,0,0,0,.768,0l6.516-6.516-.768-.769-6.128,6.136Z" transform="translate(-18.546 -17.174)" fill="url(#linear-gradient)"/>
    <path id="Path_16095" data-name="Path 16095" d="M15.574,31.23H13.1L9.04,23.423a7.716,7.716,0,0,0,7.184-.34h.98a4.321,4.321,0,0,1,3.253,1.488c.406-.062.809-.14,1.208-.227A5.421,5.421,0,0,0,17.206,22H16.071a.547.547,0,0,0-.289.084,6.6,6.6,0,0,1-6.934,0A.547.547,0,0,0,8.559,22H7.424A5.435,5.435,0,0,0,2,27.43v6.516A2.723,2.723,0,0,0,4.714,36.66h1.63v4.886H7.43V36.66h8.144a2.715,2.715,0,1,0,0-5.43ZM4.714,35.574a1.628,1.628,0,0,1-1.628-1.628V27.43a4.321,4.321,0,0,1,1.021-2.791L7.535,31.23H6.344v1.086H8.1l1.694,3.258Zm6.3,0-6.078-11.7a4.312,4.312,0,0,1,2.5-.794h.213l6.493,12.482Zm4.557,0H15.36l-1.694-3.258h1.908a1.629,1.629,0,1,1,0,3.258Z" transform="translate(-2 -11.142)" fill="url(#linear-gradient)"/>
  </g>
</svg>
