<svg id="pharmacy" xmlns="http://www.w3.org/2000/svg" width="33" height="33" viewBox="0 0 33 33">
  <path id="Path_15729" data-name="Path 15729" d="M24,56H53.6v6.8H24Zm0,0" transform="translate(-22.3 -52.033)" fill="#7fcac9"/>
  <path id="Path_15730" data-name="Path 15730" d="M168,8h10.2V18.2H168Zm0,0" transform="translate(-156.6 -7.433)" fill="#f4f4e6"/>
  <path id="Path_15731" data-name="Path 15731" d="M24,184H53.6v20.4H24Zm0,0" transform="translate(-22.3 -171.967)" fill="#7fcac9"/>
  <path id="Path_15732" data-name="Path 15732" d="M205.667,41.7h-1.7V40H201.7v1.7H200v2.267h1.7v1.7h2.267v-1.7h1.7Zm0,0" transform="translate(-186.333 -37.167)" fill="#dd3e46"/>
  <path id="Path_15733" data-name="Path 15733" d="M8,152H39.867v2.267H8Zm0,0" transform="translate(-7.433 -141.573)" fill="#195c85"/>
  <path id="Path_15734" data-name="Path 15734" d="M280,240h8.5v16.433H280Zm0,0" transform="translate(-260.944 -224)" fill="#f4f4e6"/>
  <path id="Path_15735" data-name="Path 15735" d="M80,360H90.2v2.833H80Zm0,0" transform="translate(-74.571 -335.318)" fill="#195c85"/>
  <path id="Path_15736" data-name="Path 15736" d="M96,240h7.933v8.5H96Zm0,0" transform="translate(-89.461 -223.667)" fill="#cfdfe8"/>
  <path id="Path_15737" data-name="Path 15737" d="M280,296h8.5v6.8H280Zm0,0" transform="translate(-260.944 -275.804)" fill="#cfdfe8"/>
  <path id="Path_15738" data-name="Path 15738" d="M360.567,329.7a.567.567,0,0,1-.567-.567v-.567a.567.567,0,0,1,1.133,0v.567A.567.567,0,0,1,360.567,329.7Zm0,0" transform="translate(-335.276 -305.486)" fill="#195c85"/>
  <path id="Path_15739" data-name="Path 15739" d="M120.567,266.925a.567.567,0,0,1-.4-.967l1.7-1.7a.567.567,0,0,1,.8.8l-1.7,1.7A.567.567,0,0,1,120.567,266.925Zm0,0" transform="translate(-111.773 -245.991)" fill="#fff"/>
  <path id="Path_15740" data-name="Path 15740" d="M128.567,284.058a.567.567,0,0,1-.4-.967L131,280.257a.567.567,0,0,1,.8.8l-2.833,2.833A.567.567,0,0,1,128.567,284.058Zm0,0" transform="translate(-119.236 -260.918)" fill="#fff"/>
  <path id="Path_15741" data-name="Path 15741" d="M32.45,9.9H31.9V3.85a.55.55,0,0,0-.55-.55H22V.55A.55.55,0,0,0,21.45,0h-9.9A.55.55,0,0,0,11,.55V3.3H1.65a.55.55,0,0,0-.55.55V9.9H.55a.55.55,0,0,0-.55.55v2.2a.55.55,0,0,0,.55.55H1.1V32.45a.55.55,0,0,0,.55.55h29.7a.55.55,0,0,0,.55-.55V13.2h.55a.55.55,0,0,0,.55-.55v-2.2A.55.55,0,0,0,32.45,9.9ZM22,4.4h8.8V9.9H22ZM12.1,1.1h8.8V9.9H12.1ZM2.2,4.4H11V9.9H2.2ZM26.95,31.9H19.8V27.5h7.15Zm0-5.5H19.8V20.9h7.15Zm0-6.6H19.8V17.05h7.15ZM30.8,31.9H28.05V16.5a.55.55,0,0,0-.55-.55H19.25a.55.55,0,0,0-.55.55V31.9H2.2V13.2H30.8Zm1.1-19.8H1.1V11H31.9Zm0,0"/>
  <path id="Path_15742" data-name="Path 15742" d="M72.567,244.467h10.2a.567.567,0,0,0,.567-.567v-2.833a.567.567,0,0,0-.567-.567H82.2v-7.933a.567.567,0,0,0-.567-.567H73.7a.567.567,0,0,0-.567.567V240.5h-.567a.567.567,0,0,0-.567.567V243.9A.567.567,0,0,0,72.567,244.467Zm1.7-11.333h6.8V240.5h-6.8Zm-1.133,8.5H82.2v1.7H73.133Zm0,0" transform="translate(-66.9 -216.33)"/>
  <path id="Path_15743" data-name="Path 15743" d="M360.567,329.7a.567.567,0,0,0,.567-.567v-.567a.567.567,0,0,0-1.133,0v.567A.567.567,0,0,0,360.567,329.7Zm0,0" transform="translate(-335.276 -305.486)"/>
  <path id="Path_15744" data-name="Path 15744" d="M198.233,33.7H197.1V32.567a.567.567,0,0,0-.567-.567h-2.267a.567.567,0,0,0-.567.567V33.7h-1.133a.567.567,0,0,0-.567.567v2.267a.567.567,0,0,0,.567.567H193.7v1.133a.567.567,0,0,0,.567.567h2.267a.567.567,0,0,0,.567-.567V37.1h1.133a.567.567,0,0,0,.567-.567V34.267A.567.567,0,0,0,198.233,33.7Zm-.567,2.267h-1.133a.567.567,0,0,0-.567.567v1.133h-1.133V36.533a.567.567,0,0,0-.567-.567h-1.133V34.833h1.133a.567.567,0,0,0,.567-.567V33.133h1.133v1.133a.567.567,0,0,0,.567.567h1.133Zm0,0" transform="translate(-178.9 -29.733)"/>
  <path id="Path_15745" data-name="Path 15745" d="M120.876,266.758l1.7-1.7a.567.567,0,0,0-.8-.8l-1.7,1.7a.567.567,0,1,0,.8.8Zm0,0" transform="translate(-111.681 -245.991)"/>
  <path id="Path_15746" data-name="Path 15746" d="M130.909,280.258l-2.833,2.833a.567.567,0,1,0,.8.8l2.833-2.833a.567.567,0,0,0-.8-.8Zm0,0" transform="translate(-119.144 -260.919)"/>
</svg>
