<svg xmlns="http://www.w3.org/2000/svg" width="22" height="22.022" viewBox="0 0 22 22.022">
  <g id="play" transform="translate(-0.2)">
    <g id="Group_4903" data-name="Group 4903" transform="translate(0.2 0)">
      <path id="Path_21214" data-name="Path 21214" d="M141.38,111.528l-2.923-1.693-2.9-1.673a1.159,1.159,0,0,0-.887-.121,1.177,1.177,0,0,0-.706.544,1.192,1.192,0,0,0-.121.282c-.02.06-.02.141-.04.222v6.935a1.19,1.19,0,0,0,.343.827,1.142,1.142,0,0,0,.827.343,1.986,1.986,0,0,0,.665-.222l2.863-1.653h.02l.02-.02,2.964-1.714a1.162,1.162,0,0,0,.544-.726.755.755,0,0,0,.02-.222A1.528,1.528,0,0,0,141.38,111.528Zm-.4,1.189-2.923,1.693a.07.07,0,0,0-.04.02l-2.863,1.653a.385.385,0,0,1-.161.06.287.287,0,0,1-.121-.04.216.216,0,0,1-.04-.121v-6.875a.02.02,0,0,1,.02-.02.07.07,0,0,0,.02-.04c.02-.02.06-.04.081-.06h.1c.02.02.04.02.06.04l2.863,1.653a.062.062,0,0,0,.04.02h.02l2.923,1.693c.04.02.121.081.121.141A.232.232,0,0,1,140.977,112.718Z" transform="translate(-125.918 -101.55)" fill="#707070"/>
      <path id="Path_21215" data-name="Path 21215" d="M18.984,3.238A10.976,10.976,0,0,0,3.438,3.216,11.074,11.074,0,0,0,.2,11.022,11,11,0,1,0,18.984,3.238Zm-.776,14.77a9.852,9.852,0,0,1-13.972,0,9.852,9.852,0,0,1,0-13.972,9.891,9.891,0,0,1,16.877,6.986A9.768,9.768,0,0,1,18.208,18.008Z" transform="translate(-0.2 0)" fill="#707070"/>
    </g>
  </g>
</svg>
