<?xml version="1.0" encoding="utf-8"?>
<!-- Generator: Adobe Illustrator 14.0.0, SVG Export Plug-In . SVG Version: 6.00 Build 43363)  -->
<!DOCTYPE svg PUBLIC "-//W3C//DTD SVG 1.1//EN" "http://www.w3.org/Graphics/SVG/1.1/DTD/svg11.dtd">
<svg version="1.1" id="file_1_" xmlns="http://www.w3.org/2000/svg" xmlns:xlink="http://www.w3.org/1999/xlink" x="0px" y="0px"
	 width="46px" height="60px" viewBox="4.81 0.338 46 60" enable-background="new 4.81 0.338 46 60" xml:space="preserve">
<path id="Path_15927" fill="#FFFFFF" d="M39.447,16.934c-6.005-0.003-10.875,5.497-10.877,12.282
	c-0.003,6.786,4.863,12.289,10.868,12.292s10.876-5.497,10.878-12.283c0-0.003,0-0.006,0-0.009
	C50.306,22.438,45.444,16.945,39.447,16.934z M39.447,39.275c-4.914,0-8.896-4.501-8.896-10.054s3.982-10.054,8.896-10.053
	c4.912,0,8.894,4.498,8.896,10.048C48.338,34.768,44.36,39.268,39.447,39.275z"/>
<path id="Path_15928" fill="#FFFFFF" d="M38.458,45.977h-6.921c-0.546,0.001-0.987,0.501-0.987,1.116v7.82H8.805V5.764h29.654V14.7
	h1.977V5.764c-0.001-1.233-0.886-2.233-1.977-2.234H8.805c-1.091,0.001-1.976,1-1.977,2.234v49.15
	c0.001,1.233,0.885,2.232,1.977,2.232h25.7c0.262,0.001,0.514-0.117,0.699-0.326l4.942-5.585c0.185-0.208,0.289-0.493,0.288-0.79
	v-6.701h-1.976V45.977z M38.458,49.982l-4.364,4.932h-1.563V48.21h5.932L38.458,49.982z"/>
<path id="Path_15929" fill="#FFFFFF" d="M34.504,16.935v-3.348c-0.001-0.617-0.442-1.116-0.988-1.117H13.748
	c-0.545,0-0.988,0.5-0.989,1.117v13.404c0,0.617,0.443,1.117,0.989,1.117H26.6V25.87H14.735V14.701h17.792v2.233H34.504z"/>
<path id="Path_15930" fill="#FFFFFF" d="M12.759,32.572h9.885v2.235h-9.885V32.572z"/>
<path id="Path_15931" fill="#FFFFFF" d="M24.62,32.572h1.977v2.235H24.62V32.572z"/>
<path id="Path_15932" fill="#FFFFFF" d="M12.759,39.275h5.931v2.234h-5.931V39.275z"/>
<path id="Path_15933" fill="#FFFFFF" d="M20.666,39.275h9.885v2.234h-9.885V39.275z"/>
<path id="Path_15934" fill="#FFFFFF" d="M12.759,45.977h9.885v2.234h-9.885V45.977z"/>
<path id="Path_15935" fill="#FFFFFF" d="M24.62,45.977h3.955v2.234H24.62V45.977z"/>
<path id="Path_15936" fill="#FFFFFF" d="M40.434,30.993v-7.356h-1.976v7.356l-2.27-2.563l-1.396,1.579l3.953,4.469
	c0.386,0.436,1.012,0.437,1.398,0.001c0,0,0,0,0-0.001l3.953-4.469l-1.396-1.579L40.434,30.993z"/>
</svg>
