<svg xmlns="http://www.w3.org/2000/svg" xmlns:xlink="http://www.w3.org/1999/xlink" width="60.464" height="57.547" viewBox="0 0 60.464 57.547">
  <defs>
    <linearGradient id="linear-gradient" x1="0.5" x2="0.5" y2="1" gradientUnits="objectBoundingBox">
      <stop offset="0.13" stop-color="#00a9ed"/>
      <stop offset="1" stop-color="#65106b"/>
    </linearGradient>
  </defs>
  <path id="Union_7" data-name="Union 7" d="M13697.237,10401.442l-18.609-9.8-19.245,9.8a.95.95,0,0,1-.428.1.981.981,0,0,1-.488-.131h0a.91.91,0,0,1-.468-.764v-45.735a.924.924,0,0,1,.526-.8l19.7-9.86a.934.934,0,0,1,.844.007l18.611,9.641,19.411-9.8a.957.957,0,0,1,.905.034.938.938,0,0,1,.469.765v45.734a.929.929,0,0,1-.526.8l-19.855,10.02a.937.937,0,0,1-.847-.007Zm1.291-45.936v43.715l18.112-9.138v-43.718Zm-38.7-.045v43.711l17.852-9.079v-43.569Zm19.677,34.625,17.2,9.018v-43.694l-17.2-8.875Zm13.431-1.205-10.229-5.3a.872.872,0,0,1-.468-.792v-8.865a.88.88,0,0,1,1.291-.8l10.229,5.306a.879.879,0,0,1,.469.795v8.866a.874.874,0,0,1-.871.895A.885.885,0,0,1,13692.934,10388.882Zm-8.872-6.641,8.338,4.358v-6.834l-8.338-4.358Zm-21.412,3.948a.891.891,0,0,1,.083-1.556l11.068-5.591a.909.909,0,0,1,.913.041.893.893,0,0,1-.079,1.556l-11.069,5.592a.931.931,0,0,1-.916-.042Zm0-6.334a.889.889,0,0,1,.083-1.553l11.068-5.595a.922.922,0,0,1,.913.044.891.891,0,0,1-.079,1.553l-11.069,5.595a.919.919,0,0,1-.419.1A.931.931,0,0,1,13662.649,10379.855Zm39.022-2.658a.889.889,0,0,1,.079-1.557l11.068-5.591a.924.924,0,0,1,.916.038.894.894,0,0,1-.083,1.56l-11.068,5.591a.92.92,0,0,1-.912-.041Zm-8.745-6.042-10.239-5.306a.891.891,0,0,1-.375-1.209.918.918,0,0,1,1.226-.378l10.235,5.3a.89.89,0,0,1,.068,1.56.929.929,0,0,1-.915.031Zm8.353-.834a.892.892,0,0,1,.472-1.012l11.068-5.592a.927.927,0,0,1,.916.038.894.894,0,0,1-.083,1.56l-11.068,5.592a.929.929,0,0,1-.417.1h-.008A.908.908,0,0,1,13701.279,10370.321Zm-38.578-.585a.868.868,0,0,1-.4-.768v-7.6a.856.856,0,0,1,.458-.8l11.027-5.591a.9.9,0,0,1,.878.034.874.874,0,0,1,.406.765v7.6a.861.861,0,0,1-.462.8l-11.034,5.592a.9.9,0,0,1-.409.1A.877.877,0,0,1,13662.7,10369.736Zm1.422-7.815v5.577l9.12-4.668v-5.581Zm37.159,2.065a.889.889,0,0,1,.469-1.009l11.068-5.591a.927.927,0,0,1,.916.038.891.891,0,0,1-.083,1.56l-11.068,5.591a.917.917,0,0,1-.413.1A.906.906,0,0,1,13701.282,10363.986Zm-8.355-.43-10.239-5.306a.892.892,0,0,1-.382-1.212.914.914,0,0,1,1.232-.375l10.235,5.3a.89.89,0,0,1,.068,1.56.922.922,0,0,1-.915.031Z" transform="translate(-13658.002 -10344)" fill="url(#linear-gradient)"/>
</svg>
