<svg xmlns="http://www.w3.org/2000/svg" xmlns:xlink="http://www.w3.org/1999/xlink" width="46.134" height="59.627" viewBox="0 0 46.134 59.627">
  <defs>
    <linearGradient id="linear-gradient" x1="0.5" x2="0.5" y2="1" gradientUnits="objectBoundingBox">
      <stop offset="0.13" stop-color="#00a9ed"/>
      <stop offset="1" stop-color="#65106b"/>
    </linearGradient>
  </defs>
  <path id="Union_10" data-name="Union 10" d="M13662.569,10403.629a4.593,4.593,0,0,1-4.567-4.608v-46.675a4.6,4.6,0,0,1,4.567-4.611h9.248c.01,0,.021,0,.031,0a4.54,4.54,0,0,1,3.669-1.867h2.391a3.605,3.605,0,0,1,6.318,0h2.39a4.554,4.554,0,0,1,3.674,1.867c.007,0,.017,0,.027,0h9.251a4.6,4.6,0,0,1,4.567,4.611v46.675a4.593,4.593,0,0,1-4.567,4.608Zm-2.834-51.283v46.675a2.851,2.851,0,0,0,2.834,2.861h37a2.848,2.848,0,0,0,2.831-2.861v-46.675a2.849,2.849,0,0,0-2.831-2.861h-8.491a4.763,4.763,0,0,1,.11.994v3.735a.874.874,0,0,1-.87.873h-18.5a.871.871,0,0,1-.867-.873v-3.735a4.762,4.762,0,0,1,.106-.994h-8.487A2.851,2.851,0,0,0,13659.735,10352.346Zm12.948-1.867v2.858h16.767v-2.858a2.848,2.848,0,0,0-2.834-2.861h-2.943a.859.859,0,0,1-.815-.581,1.886,1.886,0,0,0-3.577,0,.866.866,0,0,1-.818.581h-2.944A2.851,2.851,0,0,0,13672.684,10350.479Zm14.858,49.419h-24.973a.872.872,0,0,1-.867-.877v-46.678a.872.872,0,0,1,.867-.874h5.547a.876.876,0,0,1,0,1.751h-4.681v44.927h23.748l10.291-10.386h-8.083a.986.986,0,0,0-.979.99v5.6a.869.869,0,1,1-1.737,0v-5.6a2.735,2.735,0,0,1,2.717-2.741h9.311v-32.79h-4.685a.876.876,0,0,1,0-1.751h5.551a.872.872,0,0,1,.867.874v34.54a.083.083,0,0,1,0,.031v.031a.992.992,0,0,1-.014.106v0a.722.722,0,0,1-.03.113.057.057,0,0,1-.007.021c-.014.034-.028.065-.042.1,0,0,0,.007-.007.014-.017.03-.037.062-.059.093a.087.087,0,0,0-.017.023.846.846,0,0,1-.072.083s0,0,0,0l-12.023,12.134a.358.358,0,0,1-.065.063c-.007.007-.014.01-.021.017s-.031.024-.048.035a.121.121,0,0,1-.031.017c-.014.011-.027.018-.041.027a.32.32,0,0,1-.035.015l-.041.021a.147.147,0,0,1-.034.014c-.018.007-.031.01-.048.017a.094.094,0,0,1-.035.007.19.19,0,0,1-.044.014.181.181,0,0,0-.045.008l-.041,0c-.028,0-.056,0-.083.007Zm-7.4-8.4a.875.875,0,0,1,0-1.75h3.7a.875.875,0,0,1,0,1.75Zm-3.7-3.734a.876.876,0,0,1,0-1.751h7.4a.876.876,0,0,1,0,1.751Zm-8.327-3.735a.874.874,0,0,1,0-1.747h25.9a.874.874,0,0,1,0,1.747Zm0-3.731a.876.876,0,0,1,0-1.751h25.9a.876.876,0,0,1,0,1.751Zm0-3.735a.876.876,0,0,1,0-1.751h25.9a.876.876,0,0,1,0,1.751Zm0-3.735a.875.875,0,0,1,0-1.75h25.9a.875.875,0,0,1,0,1.75Zm16.653-3.731a.876.876,0,0,1,0-1.751h9.248a.876.876,0,0,1,0,1.751Zm-12.894-.877v-3.794h-3.76a.875.875,0,0,1,0-1.75h3.76v-3.794a.867.867,0,1,1,1.733,0v3.794h3.759a.875.875,0,0,1,0,1.75h-3.759v3.794a.867.867,0,1,1-1.733,0Zm10.118-2.861a.874.874,0,0,1,0-1.747h12.027a.874.874,0,0,1,0,1.747Zm2.775-3.731a.876.876,0,0,1,0-1.751h9.248a.876.876,0,0,1,0,1.751Zm-4.312-12.392a.879.879,0,0,1,0-1.238.867.867,0,0,1,1.479.619.889.889,0,0,1-.255.619.864.864,0,0,1-1.224,0Z" transform="translate(-13658.002 -10344.002)" fill="url(#linear-gradient)"/>
</svg>
