<svg xmlns="http://www.w3.org/2000/svg" width="62" height="62" viewBox="0 0 62 62">
  <g id="Group_1644" data-name="Group 1644" transform="translate(-309 -2673)">
    <circle id="Ellipse_121" data-name="Ellipse 121" cx="31" cy="31" r="31" transform="translate(309 2673)" fill="#26cbba"/>
    <g id="form" transform="translate(272 2690)">
      <path id="Path_15937" data-name="Path 15937" d="M76.846,1.856H72.192a2.289,2.289,0,0,0-1.84-.929h-1.2a1.816,1.816,0,0,0-3.168,0h-1.2a2.288,2.288,0,0,0-1.84.929H58.29A2.293,2.293,0,0,0,56,4.146V27.34a2.293,2.293,0,0,0,2.29,2.29H76.846a2.293,2.293,0,0,0,2.29-2.29V4.146A2.293,2.293,0,0,0,76.846,1.856ZM63.364,3.218A1.422,1.422,0,0,1,64.785,1.8h1.477a.435.435,0,0,0,.41-.289.949.949,0,0,1,1.793,0,.435.435,0,0,0,.41.289h1.477a1.422,1.422,0,0,1,1.421,1.421V4.639H63.364Zm14.9,24.122a1.422,1.422,0,0,1-1.421,1.421H58.29A1.422,1.422,0,0,1,56.87,27.34V4.146A1.422,1.422,0,0,1,58.29,2.725h4.258a2.286,2.286,0,0,0-.054.493V5.074a.435.435,0,0,0,.435.435h9.278a.435.435,0,0,0,.435-.435V3.218a2.291,2.291,0,0,0-.054-.493h4.258a1.422,1.422,0,0,1,1.421,1.421Z" fill="#fff"/>
      <path id="Path_15938" data-name="Path 15938" d="M106.99,64h-2.783a.435.435,0,1,0,0,.87h2.348V81.164h-4.668a1.364,1.364,0,0,0-1.363,1.363V85.31a.435.435,0,1,0,.87,0V82.527a.493.493,0,0,1,.493-.493h4.053l-5.161,5.161H88.87V64.87h2.348a.435.435,0,1,0,0-.87H88.435a.435.435,0,0,0-.435.435V87.629a.435.435,0,0,0,.435.435h12.526l.041,0,.021,0,.021,0,.023-.006.018,0,.023-.008.017-.006.021-.01.017-.008.021-.012.015-.009.024-.018.01-.007a.433.433,0,0,0,.033-.03l6.03-6.03,0,0a.431.431,0,0,0,.035-.041l.009-.012a.426.426,0,0,0,.03-.047l0-.005a.44.44,0,0,0,.021-.048l0-.011a.428.428,0,0,0,.015-.055v0a.438.438,0,0,0,.007-.053c0-.005,0-.01,0-.015s0-.01,0-.014V64.435A.435.435,0,0,0,106.99,64Z" transform="translate(-30.144 -60.289)" fill="#fff"/>
      <path id="Path_15939" data-name="Path 15939" d="M248.435,32a.436.436,0,1,0,.307.128A.437.437,0,0,0,248.435,32Z" transform="translate(-180.867 -30.144)" fill="#fff"/>
      <path id="Path_15940" data-name="Path 15940" d="M280.435,136.87h4.639a.435.435,0,0,0,0-.87h-4.639a.435.435,0,0,0,0,.87Z" transform="translate(-211.011 -128.114)" fill="#fff"/>
      <path id="Path_15941" data-name="Path 15941" d="M256.435,168.87h6.031a.435.435,0,1,0,0-.87h-6.031a.435.435,0,1,0,0,.87Z" transform="translate(-188.403 -158.258)" fill="#fff"/>
      <path id="Path_15942" data-name="Path 15942" d="M285.074,200h-4.639a.435.435,0,0,0,0,.87h4.639a.435.435,0,0,0,0-.87Z" transform="translate(-211.011 -188.403)" fill="#fff"/>
      <path id="Path_15943" data-name="Path 15943" d="M149.424,232H136.435a.435.435,0,0,0,0,.87h12.989a.435.435,0,0,0,0-.87Z" transform="translate(-75.361 -218.547)" fill="#fff"/>
      <path id="Path_15944" data-name="Path 15944" d="M149.424,264H136.435a.435.435,0,1,0,0,.87h12.989a.435.435,0,0,0,0-.87Z" transform="translate(-75.361 -248.692)" fill="#fff"/>
      <path id="Path_15945" data-name="Path 15945" d="M149.424,296H136.435a.435.435,0,1,0,0,.87h12.989a.435.435,0,1,0,0-.87Z" transform="translate(-75.361 -278.836)" fill="#fff"/>
      <path id="Path_15946" data-name="Path 15946" d="M149.859,328.435a.435.435,0,0,0-.435-.435H136.435a.435.435,0,1,0,0,.87h12.989A.435.435,0,0,0,149.859,328.435Z" transform="translate(-75.361 -308.981)" fill="#fff"/>
      <path id="Path_15947" data-name="Path 15947" d="M212.146,360h-3.711a.435.435,0,0,0,0,.87h3.711a.435.435,0,1,0,0-.87Z" transform="translate(-143.186 -339.125)" fill="#fff"/>
      <path id="Path_15948" data-name="Path 15948" d="M242.29,392h-1.856a.435.435,0,0,0,0,.87h1.856a.435.435,0,1,0,0-.87Z" transform="translate(-173.331 -369.269)" fill="#fff"/>
      <path id="Path_15949" data-name="Path 15949" d="M136,122.754a.435.435,0,0,0,.435.435h1.885v1.885a.435.435,0,0,0,.87,0v-1.885h1.885a.435.435,0,1,0,0-.87h-1.885v-1.885a.435.435,0,0,0-.87,0v1.885h-1.885A.435.435,0,0,0,136,122.754Z" transform="translate(-75.361 -113.042)" fill="#fff"/>
    </g>
  </g>
</svg>
