<svg xmlns="http://www.w3.org/2000/svg" xmlns:xlink="http://www.w3.org/1999/xlink" width="32.584" height="37.455" viewBox="0 0 32.584 37.455">
  <defs>
    <linearGradient id="linear-gradient" x1="0.5" x2="0.5" y2="1" gradientUnits="objectBoundingBox">
      <stop offset="0.13" stop-color="#00a9ed"/>
      <stop offset="1" stop-color="#65106b"/>
    </linearGradient>
  </defs>
  <g id="support" transform="translate(0.004 0.001)">
    <g id="Group_1522" data-name="Group 1522">
      <g id="Group_1521" data-name="Group 1521">
        <path id="Path_16100" data-name="Path 16100" d="M34.793,49.6V47.667a8.41,8.41,0,0,0-6.2-8.1l-5.746-1.555V36.1a.8.8,0,0,0-.057-.295l.036-.021a8.494,8.494,0,0,0,3.756-4.392h1.507a2.722,2.722,0,0,0,2.718-2.718V25.215a2.712,2.712,0,0,0-.89-2.009,11.428,11.428,0,0,0-22.843-.04,2.712,2.712,0,0,0-.927,2.042v3.457a2.722,2.722,0,0,0,2.718,2.72H10.42a8.5,8.5,0,0,0,3.761,4.394H14.2a.8.8,0,0,0-.059.3V38L8.409,39.551a8.41,8.41,0,0,0-6.2,8.1V49.6ZM29.208,25.215v3.457A1.107,1.107,0,0,1,28.1,29.777H27.03a8.45,8.45,0,0,0,.113-1.379v-4.29H28.1a1.107,1.107,0,0,1,1.108,1.107ZM8.868,29.777a1.107,1.107,0,0,1-1.105-1.1V25.215a1.107,1.107,0,0,1,1.105-1.1h1.01V28.4a8.455,8.455,0,0,0,.113,1.381ZM9.908,22.5H8.721a9.815,9.815,0,0,1,19.566,0H27.113a.8.8,0,0,0-.027-.1,8.618,8.618,0,0,0-17.178.1Zm1.584.714a7.01,7.01,0,0,1,13.634-2.3l-1.95,1.341a5.968,5.968,0,0,1-3.4,1.059H11.485a.808.808,0,0,0,.008-.1Zm0,5.188V24.93h8.285a7.575,7.575,0,0,0,4.317-1.341l1.4-.958c.015.192.025.383.025.588a.806.806,0,0,0,.017.167v5.022a6.86,6.86,0,0,1-.682,2.978H21.679a1.752,1.752,0,0,0-1.735-1.532h-1.86A1.751,1.751,0,0,0,16.336,31.6v.837a1.751,1.751,0,0,0,1.749,1.749h1.867a1.752,1.752,0,0,0,1.66-1.2h2.164a6.852,6.852,0,0,1-1.724,1.39,7.2,7.2,0,0,1-7.065,0h0a6.883,6.883,0,0,1-3.5-5.979Zm8.592,3.2v.837a.136.136,0,0,1-.136.136H18.084a.136.136,0,0,1-.136-.136V31.6a.136.136,0,0,1,.136-.136h1.867a.136.136,0,0,1,.13.132ZM3.829,49.6V47.665a6.793,6.793,0,0,1,5-6.544L14.4,39.61l3.041,9.99ZM15.757,38.507V36.479a8.843,8.843,0,0,0,5.489,0v2.028L18.5,47.552ZM33.186,49.6H19.567L22.6,39.61l5.577,1.513a6.793,6.793,0,0,1,5.006,6.544Z" transform="translate(-2.213 -12.146)" fill="url(#linear-gradient)"/>
      </g>
    </g>
    <g id="Group_1524" data-name="Group 1524" transform="translate(26.995 33.585)">
      <g id="Group_1523" data-name="Group 1523">
        <path id="Path_16101" data-name="Path 16101" d="M390.117,432.236a.806.806,0,1,0,.235.575A.806.806,0,0,0,390.117,432.236Z" transform="translate(-388.74 -431.999)" fill="url(#linear-gradient)"/>
      </g>
    </g>
    <g id="Group_1526" data-name="Group 1526" transform="translate(12.324 14.401)">
      <g id="Group_1525" data-name="Group 1525">
        <path id="Path_16102" data-name="Path 16102" d="M208.158,194.306a.806.806,0,1,0,.236.575.806.806,0,0,0-.236-.575Z" transform="translate(-206.781 -194.069)" fill="url(#linear-gradient)"/>
      </g>
    </g>
    <g id="Group_1528" data-name="Group 1528" transform="translate(18.658 14.401)">
      <g id="Group_1527" data-name="Group 1527">
        <path id="Path_16103" data-name="Path 16103" d="M286.717,194.3a.806.806,0,1,0,.236.575.806.806,0,0,0-.236-.575Z" transform="translate(-285.34 -194.068)" fill="url(#linear-gradient)"/>
      </g>
    </g>
    <g id="Group_1530" data-name="Group 1530" transform="translate(21.131 33.587)">
      <g id="Group_1529" data-name="Group 1529">
        <path id="Path_16104" data-name="Path 16104" d="M319.951,432h-3.145a.806.806,0,1,0,0,1.613h3.145a.807.807,0,0,0,0-1.613Z" transform="translate(-316 -432)" fill="url(#linear-gradient)"/>
      </g>
    </g>
  </g>
</svg>
