<svg xmlns="http://www.w3.org/2000/svg" xmlns:xlink="http://www.w3.org/1999/xlink" width="431.623" height="361.994" viewBox="0 0 431.623 361.994">
  <defs>
    <linearGradient id="linear-gradient" x1="0.32" x2="0.886" y2="0.52" gradientUnits="objectBoundingBox">
      <stop offset="0" stop-color="#b5e2f6"/>
      <stop offset="1" stop-color="#cae4ef"/>
    </linearGradient>
  </defs>
  <g id="Group_4530" data-name="Group 4530" transform="translate(-200 -6205.006)">
    <g id="Group_4529" data-name="Group 4529">
      <path id="Path_20385" data-name="Path 20385" d="M411.911,85.587a89.924,89.924,0,0,0-2.7,34.051c1.651,14.336,6.729,28.185,11.165,42.078,6.1,19.1,6.408,52.63,0,71.913-2.243,6.747-53.458,120.514-53.475,121.01,0,0,72.062.027,0,.035s-287.777,0-288.252,0c-3.379-.025-6.8-14.226-7.177-15.925C69,327.7,56.684,315.891,61.808,305.519c7.274-14.725,14.855-26.43,7.518-42.627C64.5,252.237,55.163,243.983,49.819,233.63a122.792,122.792,0,0,1-8.843-90.176C50.191,111.36,71.358,88.893,98.328,66.53c24.221-20.083,44.207-43.935,65.5-66.247H467.816s0,10.64,0,10.652c-.117,4.439-12.063,13.74-15.352,17.128-12.728,13.108-26.294,24.639-34.12,40.57a95.969,95.969,0,0,0-6.433,16.954" transform="translate(163.807 6204.723)" opacity="0.46" fill="url(#linear-gradient)"/>
      <path id="Path_20388" data-name="Path 20388" d="M110.73,324.053a251.193,251.193,0,0,1-25.47-36.592l.005,0-.1-.167c2.1-1.693,10.062-9.022,4.877-19.245l-.325-.642-.608.386c-6.581,4.182-7.248,10.312-6.706,14.6-1.831-3.338-3.655-6.823-5.429-10.448q-1.286-2.631-2.565-5.421l.086-.023-.081-.178c2.276-1.454,10.99-7.864,6.959-18.594l-.254-.674-.647.318c-7.226,3.545-8.415,9.845-8.255,14.193-2.065-4.823-4.051-9.939-5.865-15.3,2.552-1.169,11.917-6.281,9.472-17.386l-.154-.7-.685.222c-7.746,2.507-9.779,8.689-10.206,13.023-1.552-5.016-2.925-10.221-4.064-15.568,2.637-.99,12.328-5.422,10.682-16.665l-.1-.712-.7.173C63.1,210.5,60.494,216,59.616,220.228a148.728,148.728,0,0,1-1.936-15.912c2.8-.51,13.078-3.152,13.47-14.482l.024-.719-.718.044c-7.966.494-11.49,5.77-13.031,9.831a125.076,125.076,0,0,1,1.144-20.937c2.687-.059,13.458-1,15.588-12.274l.133-.707-.718-.065c-7.523-.68-11.762,3.489-14.01,7.146a112.684,112.684,0,0,1,3.294-12.924c1.554-1.059,11.072-8.113,6.189-19.163l-.289-.659-.629.353c-10.564,5.945-7.111,17.356-6.519,19.071a114.214,114.214,0,0,0-3.354,13.193c-.869-4.213-3.452-9.631-10.836-11.526l-.7-.179-.112.711c-1.766,11.326,8.069,15.832,10.593,16.793l-.043.191.089.005a125.887,125.887,0,0,0-1.166,19.652,14.046,14.046,0,0,0-12.162-9.006l-.716-.071,0,.72c-.03,11.464,10.376,14.426,13.015,14.993l-.014.195.176-.017a150.232,150.232,0,0,0,1.88,15.555A14.152,14.152,0,0,0,44.4,212.91l-.718.058.127.708c2.022,11.29,12.8,12.339,15.487,12.423l.021.2.149-.043c1,4.685,2.183,9.256,3.5,13.688a14,14,0,0,0-13.807-5.422l-.712.109.179.7c2.62,10.324,12.146,11.3,15.645,11.3.273,0,.493-.007.688-.014L65,246.8l.142-.052c1.648,4.866,3.435,9.537,5.3,13.968A14.035,14.035,0,0,0,55.783,257.1l-.689.209.273.665c3.205,7.767,9.834,9.166,14.193,9.166a20,20,0,0,0,3.553-.312q1.343,2.945,2.7,5.72c1.672,3.416,3.386,6.7,5.114,9.868a14.1,14.1,0,0,0-15.295-2.248l-.661.284.345.631a14.043,14.043,0,0,0,12.977,7.672,20.237,20.237,0,0,0,5.659-.827l.082.178.063-.043a253,253,0,0,0,25.653,36.855.653.653,0,1,0,.979-.865M74.692,229.885c1.671,9.519-6.115,13.932-8.655,15.1-.273-2.782-.4-11.732,8.655-15.1M70.2,210.11c.986,9.614-7.1,13.46-9.712,14.447-.075-2.8.437-11.732,9.712-14.447m-.4-19.585c-.746,9.626-9.368,11.968-12.128,12.474.455-2.744,2.64-11.462,12.128-12.474m2.161-24.284c.25,0,.5.005.757.017-2.2,9.413-11.094,10.414-13.888,10.494.818-2.6,4.056-10.511,13.132-10.511m8.432,82.644c3.005,9.175-4.056,14.648-6.409,16.173-.635-2.708-1.962-11.6,6.409-16.173M68.133,141.276c3.521,9-3.238,14.866-5.494,16.516-.82-2.673-2.718-11.419,5.494-16.516M47.8,161.964c9.249,2.8,9.675,11.743,9.574,14.537-2.606-1.01-10.651-4.933-9.574-14.537m-3.28,28.092c9.555,1.367,11.337,10.121,11.664,12.909-2.707-.631-11.268-3.376-11.664-12.909m.719,24.113c9.627-.361,12.964,7.932,13.785,10.615-2.779-.137-11.691-1.307-13.785-10.615m4.85,21.546c9.609-1.052,13.507,7,14.511,9.613-2.8.088-11.733-.359-14.511-9.613m6.781,22.44c9.023-2.325,13.992,4.481,15.56,7.158.042.1.086.193.129.289-2.783.46-11.682,1.169-15.69-7.447M89.2,269.3c3.992,8.791-2.426,15-4.6,16.78-.927-2.623-3.222-11.313,4.6-16.78M66.833,281.095c9.036-3.418,14.831,3.4,16.452,5.68-2.681.791-11.448,2.588-16.452-5.68" transform="translate(177.109 6182.488)" fill="#fff"/>
      <g id="Group_4481" data-name="Group 4481" transform="translate(-10 6085)">
        <g id="Group_3305" data-name="Group 3305" transform="translate(27 -4)">
          <path id="Path_12" data-name="Path 12" d="M68.6,427.8s-13.843-46.929-27.986-66.252-14.5-49.192,8.485-50.874,32.691,32.4,38.974,57.434S93.649,427.8,93.649,427.8Z" transform="translate(187.409 33.671)" fill="#fff"/>
          <path id="Path_13" data-name="Path 13" d="M88.88,401.568a.457.457,0,0,0-.631.137l-7.219,11.234q-2.263-9.7-4.611-18.2l7.945-14.489a.457.457,0,0,0-.8-.439l-7.492,13.663c-1.863-6.718-3.739-12.877-5.583-18.493l6.868-19.021a.456.456,0,0,0-.274-.585.461.461,0,0,0-.585.273l-6.474,17.93c-2.911-8.758-5.728-16.159-8.269-22.259l4.558-16.252a.457.457,0,1,0-.88-.246l-4.246,15.143c-6.017-14.227-10.349-20.96-10.44-21.1a.457.457,0,0,0-.764.5c.091.139,4.444,6.911,10.479,21.226L45.89,346.529a.457.457,0,1,0-.245.88l15.266,4.26c2.548,6.119,5.378,13.554,8.3,22.364L54.1,366.609a.457.457,0,0,0-.4.82l15.918,7.821c1.858,5.663,3.75,11.878,5.63,18.667l-12.989-4.946a.456.456,0,1,0-.324.853l13.612,5.183q2.348,8.564,4.638,18.327l-12.846-5.267a.457.457,0,0,0-.346.846l13.443,5.511q1.573,6.823,3.082,14.231a.458.458,0,0,0,.448.366.439.439,0,0,0,.09-.009.457.457,0,0,0,.357-.539q-1.508-7.449-3.1-14.292l7.7-11.982a.457.457,0,0,0-.137-.631" transform="translate(186.15 32.107)" fill="#98dbf9"/>
        </g>
        <g id="Group_3306" data-name="Group 3306" transform="translate(-93.638 88.536) rotate(-16)">
          <path id="Path_14" data-name="Path 14" d="M74.332,431.733h-20.7S13.935,389.1,23.225,370.2s24.75-18.447,32.881-1.269,18.225,62.8,18.225,62.8" transform="translate(188.186 29.735)" fill="#fff"/>
          <path id="Path_15" data-name="Path 15" d="M66.762,418.81a.458.458,0,0,0-.593.255l-3.022,7.576c-1.269-3.6-2.62-7.213-4.01-10.775l4.419-10.527a.457.457,0,1,0-.842-.353l-4.054,9.66c-1.617-4.1-3.274-8.122-4.906-11.955l4.781-12.634a.456.456,0,0,0-.854-.322l-4.444,11.742c-2.229-5.2-4.388-10.007-6.305-14.169l4.646-11.658a.457.457,0,1,0-.849-.339L46.4,386.165c-3.841-8.289-6.577-13.708-6.643-13.839a.457.457,0,1,0-.815.414c.067.132,2.835,5.614,6.709,13.982L33.2,384.693a.456.456,0,1,0-.147.9l13.068,2.128c1.938,4.206,4.123,9.076,6.374,14.335L37.342,398.84a.457.457,0,1,0-.19.894l15.777,3.349c1.655,3.886,3.334,7.964,4.971,12.127l-12.653-2.934a.457.457,0,0,0-.206.891L58.3,416.24c1.41,3.615,2.78,7.284,4.065,10.934l-9.052-3.331A.457.457,0,0,0,53,424.7l9.758,3.591q.818,2.356,1.586,4.694a.456.456,0,0,0,.434.315.482.482,0,0,0,.142-.022.458.458,0,0,0,.292-.576q-.77-2.361-1.6-4.749l3.41-8.55a.456.456,0,0,0-.255-.594" transform="translate(187.246 28.346)" fill="#98dbf9"/>
        </g>
      </g>
      <g id="Group_4479" data-name="Group 4479" transform="translate(484.563 6426.281)">
        <g id="Group_3307" data-name="Group 3307" transform="translate(0 0)">
          <path id="Path_12-2" data-name="Path 12" d="M55.841,427.8s13.843-46.929,27.986-66.252,14.5-49.191-8.485-50.874-32.692,32.4-38.974,57.434S30.8,427.8,30.8,427.8Z" transform="translate(-30.772 -310.611)" fill="#fff"/>
          <path id="Path_13-2" data-name="Path 13" d="M45.52,401.568a.457.457,0,0,1,.631.137l7.219,11.234q2.263-9.7,4.611-18.2l-7.945-14.489a.457.457,0,0,1,.8-.439l7.492,13.663c1.863-6.718,3.739-12.877,5.583-18.493l-6.868-19.021a.456.456,0,0,1,.274-.585.461.461,0,0,1,.585.273l6.474,17.93c2.911-8.758,5.728-16.158,8.269-22.259l-4.558-16.252a.457.457,0,1,1,.88-.246l4.246,15.143c6.017-14.227,10.349-20.96,10.44-21.1a.457.457,0,0,1,.765.5c-.091.139-4.444,6.911-10.479,21.226l14.571-4.065a.457.457,0,1,1,.245.88l-15.266,4.26c-2.548,6.119-5.378,13.554-8.3,22.364L80.3,366.609a.457.457,0,0,1,.4.82L64.784,375.25c-1.858,5.663-3.75,11.878-5.63,18.667l12.989-4.946a.456.456,0,1,1,.324.853l-13.612,5.183q-2.348,8.564-4.638,18.327l12.846-5.267a.457.457,0,0,1,.346.846l-13.443,5.511q-1.573,6.823-3.082,14.231a.458.458,0,0,1-.448.366.439.439,0,0,1-.09-.009.457.457,0,0,1-.357-.539q1.508-7.449,3.1-14.292l-7.7-11.982a.457.457,0,0,1,.137-.631" transform="translate(-39.467 -312.175)" fill="#98dbf9"/>
        </g>
        <g id="Group_3308" data-name="Group 3308" transform="translate(72.607 134.132) rotate(-164)">
          <path id="Path_14-2" data-name="Path 14" d="M52.516,0h-20.7S-7.881,42.635,1.409,61.531,26.159,79.979,34.29,62.8,52.516,0,52.516,0" transform="translate(0 0.178)" fill="#fff"/>
          <path id="Path_15-2" data-name="Path 15" d="M34.1,14.491a.458.458,0,0,1-.593-.255L30.482,6.659c-1.269,3.6-2.62,7.213-4.01,10.775l4.419,10.527a.457.457,0,1,1-.842.353l-4.054-9.66c-1.617,4.1-3.274,8.122-4.906,11.955l4.781,12.634a.456.456,0,0,1-.854.322L20.572,31.823c-2.229,5.2-4.388,10.007-6.305,14.169L18.913,57.65a.457.457,0,1,1-.849.339L13.739,47.136C9.9,55.424,7.162,60.843,7.1,60.974a.457.457,0,1,1-.815-.414c.067-.132,2.835-5.615,6.709-13.982L.53,48.607a.456.456,0,1,1-.147-.9l13.068-2.128c1.938-4.206,4.123-9.076,6.374-14.335L4.677,34.461a.457.457,0,1,1-.19-.894l15.777-3.349c1.655-3.886,3.334-7.964,4.971-12.127L12.582,21.024a.457.457,0,0,1-.206-.891L25.638,17.06c1.41-3.615,2.78-7.284,4.065-10.934L20.65,9.457a.457.457,0,0,1-.316-.857l9.759-3.591q.818-2.356,1.586-4.694A.456.456,0,0,1,32.112,0a.482.482,0,0,1,.142.022A.458.458,0,0,1,32.546.6q-.77,2.361-1.6,4.749l3.41,8.55a.456.456,0,0,1-.255.594" transform="translate(9.909 0)" fill="#98dbf9"/>
        </g>
      </g>
      <path id="Path_20386" data-name="Path 20386" d="M43.367,324.052a251.193,251.193,0,0,0,25.47-36.592l-.005,0,.1-.167c-2.1-1.693-10.062-9.022-4.877-19.245l.325-.642.608.386c6.581,4.182,7.248,10.312,6.706,14.6,1.831-3.338,3.655-6.823,5.429-10.448q1.286-2.631,2.565-5.421L79.6,266.5l.081-.178c-2.276-1.454-10.991-7.864-6.959-18.594l.254-.674.647.318c7.226,3.545,8.415,9.845,8.255,14.193,2.065-4.823,4.051-9.939,5.865-15.3-2.552-1.169-11.917-6.281-9.472-17.386l.154-.7.685.222c7.746,2.507,9.779,8.689,10.206,13.023,1.552-5.016,2.925-10.221,4.064-15.568-2.637-.99-12.328-5.422-10.682-16.665l.1-.712.7.173C91,210.5,93.6,216,94.481,220.227a148.726,148.726,0,0,0,1.936-15.912c-2.8-.51-13.078-3.152-13.47-14.482l-.024-.719.718.044c7.966.494,11.49,5.77,13.031,9.831a125.074,125.074,0,0,0-1.144-20.936c-2.687-.059-13.458-1-15.588-12.274l-.133-.707.718-.065c7.523-.68,11.762,3.489,14.01,7.146a112.683,112.683,0,0,0-3.294-12.924c-1.554-1.059-11.072-8.113-6.189-19.163l.289-.659.629.353c10.564,5.945,7.111,17.356,6.519,19.071a114.212,114.212,0,0,1,3.354,13.193c.869-4.213,3.452-9.631,10.836-11.526l.7-.179.112.711c1.766,11.326-8.069,15.832-10.593,16.793l.043.191-.089.005a125.887,125.887,0,0,1,1.166,19.652,14.046,14.046,0,0,1,12.162-9.006l.716-.071,0,.72c.03,11.464-10.376,14.426-13.015,14.993l.014.195-.176-.017a150.228,150.228,0,0,1-1.88,15.555,14.152,14.152,0,0,1,13.858-7.13l.718.058-.127.708c-2.022,11.29-12.8,12.339-15.487,12.423l-.021.2-.149-.043c-1,4.685-2.183,9.256-3.5,13.688a14,14,0,0,1,13.807-5.422l.712.109-.179.7c-2.62,10.324-12.146,11.3-15.645,11.3-.273,0-.493-.007-.688-.014l-.035.195-.142-.052c-1.648,4.866-3.435,9.537-5.3,13.968A14.035,14.035,0,0,1,98.314,257.1l.689.209-.273.665c-3.205,7.767-9.834,9.166-14.193,9.166a20,20,0,0,1-3.553-.312q-1.343,2.945-2.7,5.72c-1.672,3.416-3.386,6.7-5.114,9.868a14.1,14.1,0,0,1,15.295-2.248l.661.284-.345.631A14.043,14.043,0,0,1,75.8,288.755a20.237,20.237,0,0,1-5.659-.827l-.082.178L70,288.063a252.993,252.993,0,0,1-25.653,36.855.653.653,0,1,1-.979-.865M79.4,229.884c-1.671,9.519,6.115,13.932,8.655,15.1.273-2.782.4-11.732-8.655-15.1M83.9,210.11c-.986,9.614,7.1,13.46,9.712,14.447.075-2.8-.437-11.732-9.712-14.447m.4-19.585c.746,9.626,9.368,11.968,12.128,12.474-.455-2.744-2.64-11.462-12.128-12.474m-2.161-24.284c-.25,0-.5.005-.757.017,2.2,9.413,11.094,10.414,13.888,10.494-.818-2.6-4.056-10.511-13.132-10.511M73.7,248.885c-3.005,9.175,4.056,14.648,6.409,16.173.635-2.708,1.962-11.6-6.409-16.173M85.964,141.276c-3.521,9,3.238,14.866,5.494,16.516.82-2.673,2.718-11.419-5.494-16.516m20.33,20.688c-9.249,2.8-9.675,11.743-9.574,14.537,2.606-1.01,10.651-4.933,9.574-14.537m3.28,28.092c-9.555,1.367-11.337,10.121-11.664,12.909,2.707-.631,11.268-3.376,11.664-12.909m-.719,24.113c-9.627-.361-12.964,7.932-13.785,10.615,2.779-.137,11.691-1.307,13.785-10.615m-4.85,21.546c-9.609-1.052-13.507,7-14.511,9.613,2.8.088,11.733-.359,14.511-9.613m-6.781,22.44c-9.023-2.325-13.992,4.481-15.56,7.158-.042.1-.086.193-.129.289,2.783.46,11.682,1.169,15.69-7.447M64.9,269.3c-3.992,8.791,2.426,15,4.6,16.78.927-2.623,3.222-11.313-4.6-16.78m22.364,11.793c-9.036-3.418-14.831,3.4-16.452,5.68,2.681.791,11.448,2.588,16.452-5.68" transform="translate(447.109 6182.488)" fill="#fff"/>
      <path id="Path_20387" data-name="Path 20387" d="M378.463,454.351c0,8.728-74.738,15.8-166.933,15.8S44.6,463.079,44.6,454.351,119.335,438.54,211.53,438.54s166.933,7.08,166.933,15.811" transform="translate(179.537 6096.844)" fill="#c7dbe4"/>
      <g id="Group_4496" data-name="Group 4496" transform="translate(319 6238.422)">
        <path id="Path_20430" data-name="Path 20430" d="M119.281,359.665l-.469-8.294h7.508l-.285,8.294-7.223.4" transform="translate(-16.085 -47.568)" fill="#efefef"/>
        <path id="Path_20431" data-name="Path 20431" d="M117.253,366.686l2.536.859a1.623,1.623,0,0,1,1.4-.321,10.321,10.321,0,0,1,3.082,1.606l6.334,1.8h6.966v-1.2c0-.667-4.028-2.946-4.028-2.946l-6.807-6.365A3.573,3.573,0,0,0,124.419,359a7.1,7.1,0,0,0-3.675,1.122H117.9Z" transform="translate(-15.873 -48.6)" fill="#402f31"/>
        <path id="Path_20432" data-name="Path 20432" d="M74.568,357.279s3.237-2.52,2.522-4.52,6.14-.666,6.14-.666,2.187,6.15.237,9.761-8.9-4.575-8.9-4.575" transform="translate(-10.095 -47.607)" fill="#efefef"/>
        <path id="Path_20433" data-name="Path 20433" d="M51.454,366.684c.03-.52,1.061-1.115,2.3-1.376,2.73-.572,7.259-1.675,9.552-3.065,3.414-2.072,8.874-5.52,8.874-5.52s2.874,3.24,5.56,3.646,3.762-1.547,4.28-.656-.751,7.994-.751,7.994l-6.28.038a2.556,2.556,0,0,0-1.554-1.78c-1.258-.41-5.129,1.819-5.129,1.819l-16.9-.163s.025-.42.055-.937" transform="translate(-6.958 -48.292)" fill="#402f31"/>
        <path id="Path_20434" data-name="Path 20434" d="M77.213,172.751s-1.236,51-1.2,77.628-.584,81.414-.584,81.414H84.98s2.376-25.2,4.477-47.924c1.1-11.889.482-24.465,1.056-28.028,7.645-47.356,9.246-66.353,9.246-66.353l-3.6-16.922-18.942.186" transform="translate(-10.211 -23.361)" fill="#454545"/>
        <path id="Path_20435" data-name="Path 20435" d="M120.082,161.658l-27.6,10.128L88.1,195.28l9.773-1.114,9.393,65.344,7.041,70.118h8.51s-.556-39.828-.653-61.9c-.1-23.5-1.211-54.221.263-77.438.548-8.628-2.343-28.628-2.343-28.628" transform="translate(-11.926 -21.885)" fill="#454545"/>
        <path id="Path_20436" data-name="Path 20436" d="M74.679,73.979c1.421-5.2,31.342-17.462,31.342-17.462s29.881,17.928,31.986,21.95c1.047,2-18.343,76.437-18.343,76.437s-17.411,7.235-42.631,2.136c0,0-4.511-75.181-2.354-83.062" transform="translate(-10.031 -7.651)" fill="#b0ddfc"/>
        <path id="Path_20437" data-name="Path 20437" d="M126.012,41.091c-.114,0-5.878,18.856-5.878,18.856s-11.071,11.651-18.24,7.907c-4.36-2.277-3.559-10.75-3.559-10.75l3.149-17.184Z" transform="translate(-13.304 -5.404)" fill="#e6b09e"/>
        <path id="Path_20438" data-name="Path 20438" d="M107.564,4.579a18.42,18.42,0,0,0-3.881,5.315,44.944,44.944,0,0,0-3,10.165c-1.856,8.805-4.011,11.638-3.848,16.31.14,4.04,4.48,10.983,11.321,11.608,9.02.825,12.293-4.721,15.933-10.43,0,0,3.024,1.893,6.093-2.032,2.731-3.49,1.483-6.458-.864-6.41l-2.347.048s6.088-12.451,2.58-17.428S111.935.067,107.564,4.579" transform="translate(-13.107 -0.418)" fill="#ffbcab"/>
        <path id="Path_20439" data-name="Path 20439" d="M137.416,23.024c-1.823,5.117-2.921,6.93-3.757,7.578,0,0-2.268-.409-3.942,2.966,0,0-2.9-.118-2.219-1.6.665-1.458,1.316-14.143,4.081-15.932a39.406,39.406,0,0,1,5.585-2.2l.109-.249c.431.269,3.522-.036.143,9.438" transform="translate(-17.246 -1.839)" fill="#454545"/>
        <path id="Path_20440" data-name="Path 20440" d="M68.008,81.619l1.581-9.768S51.249,83.214,31.413,95.621c-3.2,2-10.488-29.124-10.488-29.124l-9.07,5.581s9.3,38.471,16.7,39.084c13.354,1.106,46.876-16.994,46.876-16.994Z" transform="translate(-1.605 -9.002)" fill="#b0ddfc"/>
        <path id="Path_20441" data-name="Path 20441" d="M144.526,81.483s10.407,2.041,1.454,59.783c-.687,4.423-21.329,4.441-20.883,2.008.892-4.869,6.332-40.885,6.332-40.885Z" transform="translate(-16.934 -11.031)" fill="#b0ddfc"/>
        <path id="Path_20442" data-name="Path 20442" d="M1.25,118.372,0,47.76A1.039,1.039,0,0,1,1.02,46.7l46.318-.819A1.037,1.037,0,0,1,48.394,46.9l1.251,70.612a1.04,1.04,0,0,1-1.02,1.055l-46.318.821a1.04,1.04,0,0,1-1.057-1.019" transform="translate(0 -6.212)" fill="#454545"/>
        <rect id="Rectangle_1939" data-name="Rectangle 1939" width="42.178" height="66.474" transform="matrix(1, -0.018, 0.018, 1, 3.149, 43.568)" fill="#fff"/>
        <path id="Path_20443" data-name="Path 20443" d="M19.616,46.037s.413-1.453,1.285-1.466,1.837-1.342,3.673-1.372l1.836-.029A6.738,6.738,0,0,1,29.246,42.1a4.389,4.389,0,0,1,2.532,1.214s1.96-.257,2.188.288-.074,8.737-1.275,8.7l-1.423-.25s-.427,3.828-2.234,3.531a2.365,2.365,0,0,1-2.071-2.071c-.1-.349.1.351.1.351s-1.805.848-2.807-.305a4.135,4.135,0,0,1-1.074-2.19,1.334,1.334,0,0,1-2.028-.512,25,25,0,0,1-1.535-4.823" transform="translate(-2.656 -5.7)" fill="#ffbcab"/>
        <path id="Path_20444" data-name="Path 20444" d="M102.3,16.276s1.441-7.7,3.752-7.763c2.137-.056,3.52,1.181,6.961,2.016,5.971,1.447,15.257-.546,14.191,4.876s7.011-2.388,7.011-2.388,2.166-9.168-8.461-11.372C115.5-.483,106.694-.351,105.666.93c-1,1.242-1.835,7.372-3.363,15.346" transform="translate(-13.85 0)" fill="#454545"/>
        <path id="Path_20445" data-name="Path 20445" d="M73.723,149.671c-.25-.17-9.8-1.814-9.8-1.814l-15.944-.974s-11.416-6.226-9.807-7.116,7.28,1.791,7.28,1.791-4.958-2.8-2.979-3.146c1.625-.288,7.614,2.035,7.614,2.035s.08-.868,1.345-1.019,3.084,2,7.939.629c3.793-1.069,6.545,1.307,7.651,2.216.625.513,9.388,1.3,9.388,1.3l-2.345,5.679" transform="translate(-5.147 -18.735)" fill="#ffbcab"/>
        <g id="Group_4489" data-name="Group 4489" transform="translate(65.659 91.356)" opacity="0.4" style="mix-blend-mode: multiply;isolation: isolate">
          <g id="Group_4488" data-name="Group 4488">
            <rect id="Rectangle_1940" data-name="Rectangle 1940" width="49.67" height="68.014" transform="translate(0 0.001)" fill="none"/>
            <path id="Path_20446" data-name="Path 20446" d="M77.282,163.693s28.828,23.82,42.631-2.136c8.676-16.315,4.863-55.9,4.863-55.9s-9.642,20.466-12.432,21.546c-1.672.647-14.691,7.842-36.4,7.437Z" transform="translate(-75.94 -105.66)" fill="#b0ddfc"/>
          </g>
        </g>
        <path id="Path_20447" data-name="Path 20447" d="M131.5,39.636a1.2,1.2,0,0,0,.9-1.161c.1-.969-.669-1.053-.669-1.053s1.606-2.174,2.526-1.405.033,2.592-.836,3.395-3.126.683-1.922.225" transform="translate(-17.755 -4.854)" fill="#e6b09e"/>
        <g id="Group_4491" data-name="Group 4491" transform="translate(7.57 76.278)">
          <rect id="Rectangle_1941" data-name="Rectangle 1941" width="22.955" height="2.135" transform="matrix(1, -0.018, 0.018, 1, 9.3, 2.373)" fill="#ededed"/>
          <rect id="Rectangle_1942" data-name="Rectangle 1942" width="22.955" height="2.136" transform="translate(9.3 6.723) rotate(-1.014)" fill="#ededed"/>
          <g id="Group_4490" data-name="Group 4490">
            <rect id="Rectangle_1943" data-name="Rectangle 1943" width="6.439" height="6.439" transform="translate(0 2.539) rotate(-1.014)" fill="#ededed"/>
            <path id="Path_20448" data-name="Path 20448" d="M9.785,92.887l2.16,2.656,4.713-7.321" transform="translate(-8.895 -88.221)" fill="none" stroke="#6bced1" stroke-miterlimit="10" stroke-width="2"/>
          </g>
        </g>
        <g id="Group_4492" data-name="Group 4492" transform="translate(7.924 91.688)">
          <rect id="Rectangle_1944" data-name="Rectangle 1944" width="6.439" height="6.439" transform="matrix(1, -0.018, 0.018, 1, 0, 2.006)" fill="#ededed"/>
          <rect id="Rectangle_1945" data-name="Rectangle 1945" width="22.955" height="2.136" transform="translate(8.946 1.959) rotate(-1.014)" fill="#ededed"/>
          <rect id="Rectangle_1946" data-name="Rectangle 1946" width="22.955" height="2.135" transform="matrix(1, -0.018, 0.018, 1, 8.946, 6.309)" fill="#ededed"/>
          <path id="Path_20449" data-name="Path 20449" d="M9.785,110.709l2.16,2.656,4.713-7.322" transform="translate(-9.249 -106.044)" fill="none" stroke="#6bced1" stroke-miterlimit="10" stroke-width="2"/>
        </g>
        <g id="Group_4494" data-name="Group 4494" transform="translate(80.778 55.682)" opacity="0.4" style="mix-blend-mode: multiply;isolation: isolate">
          <g id="Group_4493" data-name="Group 4493">
            <rect id="Rectangle_1947" data-name="Rectangle 1947" width="29.113" height="67.191" fill="none"/>
            <path id="Path_20450" data-name="Path 20450" d="M122.539,66.217s-4.928,10.971-13.468,17.795l-3.034-4.32L104.238,82l-3.516,46.371-2.705,3.017-3.732.2,6.035-54.709-1.717.41-3.965,4.575-.112-1.637-1.1-15.813V64.4l4.615.291a10.129,10.129,0,0,0,4.736,6.878c4.6-.826,8.909-3.4,12.08-5.812l7.248.459Z" transform="translate(-93.426 -64.401)" fill="#b0ddfc"/>
          </g>
        </g>
        <path id="Path_20451" data-name="Path 20451" d="M102.156,72.689l-5.378,2.292,2.488,7.1S91.818,111.76,88.848,129.71l2.526,8.176s6.729-6.024,7.419-8.4c.683-2.354,2.208-30.225,4.052-46.826l3.025-6.212Z" transform="translate(-12.028 -9.84)" fill="#d90000"/>
        <path id="Path_20452" data-name="Path 20452" d="M123.811,65.077a4.17,4.17,0,0,1-.241.618c-2.159,4.936-13.685,16.711-13.685,16.711l-5.643-11.357c4.6-.827,8.91-3.4,12.081-5.812a42.664,42.664,0,0,0,5.29-4.688Z" transform="translate(-14.112 -8.197)" fill="#d4eeff"/>
        <path id="Path_20453" data-name="Path 20453" d="M102.751,70.786s-6.573,7.28-8.251,8.662c-.232.191-.377.264-.386.191A73.65,73.65,0,0,1,93.4,63.633v-.016c.113-1.138.225-1.685.225-1.685l4.126-3.322a16.289,16.289,0,0,0,.265,5.3,10.13,10.13,0,0,0,4.735,6.878" transform="translate(-12.622 -7.935)" fill="#d4eeff"/>
        <path id="Path_20454" data-name="Path 20454" d="M128.589,130.9s-13.156,12.115-54.347,9.419v9.532s52.594,9.9,64.033.19c2.855-2.424-9.686-19.141-9.686-19.141" transform="translate(-10.051 -17.721)" fill="#b0ddfc"/>
        <path id="Path_20455" data-name="Path 20455" d="M72.219,140.983s-.667,9.548-.166,10.25,11.8,3.275,12.106,2.743,1-12.341.2-12.44-12.14-.552-12.14-.552" transform="translate(-9.729 -19.086)" fill="#d4eeff"/>
        <path id="Path_20456" data-name="Path 20456" d="M77.321,178.82s14.686,7.278,43.037-1.381l-.259-7.131s-13.939,5.732-42.632,2.136Z" transform="translate(-10.468 -23.056)" fill="#140f10"/>
        <path id="Path_20457" data-name="Path 20457" d="M91.5,174.6s-.623,6.546.1,7.016,10.764,1.29,11.7.243-.035-6.683-.455-7.246-1.582-.308-1.582.179.854,5.636.351,5.837c-.844.337-8.749.4-8.813-.435-.1-1.321.4-5.5.151-5.517-.6-.047-1.359-.993-1.455-.077" transform="translate(-12.353 -23.583)" fill="#b5c1c9"/>
        <path id="Path_20458" data-name="Path 20458" d="M92.656,175.244s3.759.025,6.789.168a28.757,28.757,0,0,0,3.81.22c-.1-.4.309-1.992-1.3-1.992s-9.99-.263-10.224.305.055,2.035.924,1.3" transform="translate(-12.408 -23.499)" fill="#b5c1c9"/>
        <path id="Path_20459" data-name="Path 20459" d="M94.891,178.452a.537.537,0,0,1-.572.5l-2.2-.145a.539.539,0,1,1,.072-1.076l2.2.146a.535.535,0,0,1,.5.572" transform="translate(-12.402 -24.061)" fill="#d1d1d1"/>
        <g id="Group_4495" data-name="Group 4495" transform="translate(6.636 52.614)">
          <path id="Path_20460" data-name="Path 20460" d="M9.466,66.245l.054,2.709-1.7.034-.145-7.323,2.382-.047a4.867,4.867,0,0,1,1.357.137,2.556,2.556,0,0,1,.925.436,1.734,1.734,0,0,1,.528.679,2.418,2.418,0,0,1,.1,1.536,2,2,0,0,1-.271.591,2.221,2.221,0,0,1-.453.489,2.415,2.415,0,0,1-.624.359,1.587,1.587,0,0,1,.323.206,1.263,1.263,0,0,1,.265.3l1.609,2.517-1.538.031a.654.654,0,0,1-.62-.31l-1.258-2.1a.515.515,0,0,0-.193-.2.631.631,0,0,0-.305-.054Zm-.023-1.172.683-.014a1.737,1.737,0,0,0,.59-.1,1.064,1.064,0,0,0,.4-.252.931.931,0,0,0,.218-.369,1.362,1.362,0,0,0,.061-.45.95.95,0,0,0-.329-.748,1.468,1.468,0,0,0-.979-.252L9.4,62.9Z" transform="translate(-7.675 -60.955)"/>
          <path id="Path_20461" data-name="Path 20461" d="M20.12,61.411l.027,1.306-3.005.06.034,1.708,2.3-.045L19.5,65.7l-2.3.046.035,1.744,3.005-.06.026,1.306-4.714.093L15.406,61.5Z" transform="translate(-8.722 -60.928)"/>
          <path id="Path_20462" data-name="Path 20462" d="M23.058,61.358a.474.474,0,0,1,.136.035.454.454,0,0,1,.117.075,1.665,1.665,0,0,1,.129.134L27,65.93c-.016-.14-.029-.277-.039-.409s-.016-.257-.016-.374l-.078-3.875,1.5-.029.146,7.322-.885.017a.808.808,0,0,1-.334-.054.7.7,0,0,1-.266-.216l-3.54-4.294c.013.127.024.252.034.374s.015.237.016.344l.079,3.925-1.5.029-.146-7.322.895-.018A1.516,1.516,0,0,1,23.058,61.358Z" transform="translate(-9.611 -60.905)"/>
          <path id="Path_20463" data-name="Path 20463" d="M35.479,61.106l.026,1.306-3.005.061.035,1.708,2.3-.047.025,1.257-2.3.046.035,1.744,3-.06.027,1.306-4.715.094L30.764,61.2Z" transform="translate(-10.801 -60.886)"/>
          <path id="Path_20464" data-name="Path 20464" d="M36.694,61.064l1.427-.029a.648.648,0,0,1,.372.093.465.465,0,0,1,.2.263l1.082,3.8c.036.124.071.255.107.4a3.778,3.778,0,0,1,.085.44q.045-.237.1-.446l.108-.4,1.11-3.843a.522.522,0,0,1,.189-.258.569.569,0,0,1,.356-.12l.5-.01a.64.64,0,0,1,.367.091.51.51,0,0,1,.2.265l1.252,3.8c.039.116.08.24.124.372s.08.272.114.423c.022-.149.048-.29.074-.424s.052-.261.08-.38l.93-3.84A.475.475,0,0,1,45.663,61a.6.6,0,0,1,.36-.118l1.337-.026-2.116,7.367-1.537.03-1.468-4.511c-.025-.07-.051-.147-.077-.23s-.054-.171-.079-.265q-.032.141-.067.267l-.067.233L40.64,68.311l-1.538.03Z" transform="translate(-11.604 -60.852)"/>
          <path id="Path_20465" data-name="Path 20465" d="M9.934,78.434l.048,2.448-1.7.034-.145-7.323,2.583-.051a4.283,4.283,0,0,1,1.333.156,2.58,2.58,0,0,1,.926.488,1.983,1.983,0,0,1,.546.748,2.571,2.571,0,0,1,.189.942,2.76,2.76,0,0,1-.156,1.009,2.022,2.022,0,0,1-.523.795,2.514,2.514,0,0,1-.908.528,4.206,4.206,0,0,1-1.31.21Zm-.026-1.282.884-.017a1.246,1.246,0,0,0,.949-.335,1.256,1.256,0,0,0,.275-.891,1.315,1.315,0,0,0-.086-.456.91.91,0,0,0-.236-.349,1,1,0,0,0-.391-.221,1.693,1.693,0,0,0-.557-.07l-.885.017Z" transform="translate(-7.738 -62.57)"/>
          <path id="Path_20466" data-name="Path 20466" d="M22.807,76.945a3.933,3.933,0,0,1-.245,1.483,3.483,3.483,0,0,1-1.932,2.02,4.365,4.365,0,0,1-3.114.062A3.507,3.507,0,0,1,15.5,78.569a4.127,4.127,0,0,1-.06-2.955,3.543,3.543,0,0,1,.751-1.2,3.6,3.6,0,0,1,1.189-.813,4.1,4.1,0,0,1,1.553-.317,4.05,4.05,0,0,1,1.561.259,3.594,3.594,0,0,1,1.214.768,3.515,3.515,0,0,1,.795,1.171A3.9,3.9,0,0,1,22.807,76.945Zm-1.74.035a3.2,3.2,0,0,0-.16-.975,2.086,2.086,0,0,0-.419-.728,1.77,1.77,0,0,0-.655-.45,2.221,2.221,0,0,0-.872-.144,2.262,2.262,0,0,0-.874.178,1.724,1.724,0,0,0-.639.476,2.063,2.063,0,0,0-.39.744,3.115,3.115,0,0,0-.122.98,3.155,3.155,0,0,0,.161.98,2.077,2.077,0,0,0,.418.728,1.72,1.72,0,0,0,.658.447,2.3,2.3,0,0,0,.88.141,2.26,2.26,0,0,0,.865-.176,1.719,1.719,0,0,0,.636-.472,2.062,2.062,0,0,0,.391-.745A3.187,3.187,0,0,0,21.068,76.98Z" transform="translate(-8.693 -62.534)"/>
          <path id="Path_20467" data-name="Path 20467" d="M26.673,79.2l2.714-.054.027,1.357L25,80.586l-.145-7.322,1.7-.034Z" transform="translate(-10.001 -62.528)"/>
          <path id="Path_20468" data-name="Path 20468" d="M32.919,80.429l-1.709.034-.145-7.323,1.709-.034Z" transform="translate(-10.841 -62.511)"/>
          <path id="Path_20469" data-name="Path 20469" d="M39.584,78.382a.341.341,0,0,1,.12.02.337.337,0,0,1,.118.076l.688.7a2.8,2.8,0,0,1-1.092.894,3.857,3.857,0,0,1-1.569.325,3.765,3.765,0,0,1-1.5-.253,3.244,3.244,0,0,1-1.136-.763,3.437,3.437,0,0,1-.73-1.172,4.4,4.4,0,0,1-.276-1.485,3.9,3.9,0,0,1,.252-1.51,3.488,3.488,0,0,1,.763-1.2,3.549,3.549,0,0,1,1.193-.8,4.229,4.229,0,0,1,1.548-.308,3.956,3.956,0,0,1,.778.058,3.839,3.839,0,0,1,.685.188,3.229,3.229,0,0,1,.589.295,2.773,2.773,0,0,1,.48.386l-.558.78a.7.7,0,0,1-.128.131.338.338,0,0,1-.211.062.363.363,0,0,1-.17-.037,1.851,1.851,0,0,1-.173-.094l-.2-.122a1.475,1.475,0,0,0-.259-.12,2.028,2.028,0,0,0-.348-.091,2.3,2.3,0,0,0-.466-.032,2.135,2.135,0,0,0-.84.18,1.852,1.852,0,0,0-.647.482,2.159,2.159,0,0,0-.413.744,2.908,2.908,0,0,0-.134.973,3.023,3.023,0,0,0,.174,1,2.186,2.186,0,0,0,.431.728,1.783,1.783,0,0,0,.624.443,1.842,1.842,0,0,0,.757.14,3.621,3.621,0,0,0,.423-.03,1.806,1.806,0,0,0,.352-.085,1.687,1.687,0,0,0,.308-.15,2.134,2.134,0,0,0,.295-.225.613.613,0,0,1,.13-.086A.346.346,0,0,1,39.584,78.382Z" transform="translate(-11.267 -62.483)"/>
          <path id="Path_20470" data-name="Path 20470" d="M45.878,77.369l.055,2.785-1.7.034L44.179,77.4l-2.743-4.485,1.5-.03a.549.549,0,0,1,.354.1.769.769,0,0,1,.217.259l1.076,2.111c.088.169.168.326.241.468s.138.284.195.424a3.923,3.923,0,0,1,.172-.436c.067-.145.14-.3.217-.472l.983-2.151a.643.643,0,0,1,.081-.132.707.707,0,0,1,.118-.12.565.565,0,0,1,.153-.089.57.57,0,0,1,.193-.036l1.507-.03Z" transform="translate(-12.245 -62.467)"/>
        </g>
      </g>
    </g>
    <g id="Group_4497" data-name="Group 4497" transform="translate(307.969 6469.217)">
      <rect id="Rectangle_1045" data-name="Rectangle 1045" width="4.895" height="0.193" transform="translate(34.469 62.418)" fill="#ebebeb"/>
      <path id="Path_19476" data-name="Path 19476" d="M80.063,316.562s-4.474-8.756.638-17.388,6.593-10.666,3.335-12.434-4.754,6.9-4.754,6.9a17.623,17.623,0,0,1-.479-12.211c2.27-6.245,3.691-16.417.594-17.508s-.592,12.689-3.28,17.386a37.058,37.058,0,0,1-2.628-10.245c-.372-5.016.208-13.025-2.238-15.079s-4.013-.634-1.609,10.435a104.2,104.2,0,0,1,2.386,20.068s-5.309-14.521-8.872-14.944-3.559,4.279-.509,8.357,8.932,11.386,9.9,15.145c0,0-5.828-10.927-11.07-7.578s4.563,9.949,8.933,12.334,7.405,17.335,7.405,17.335Z" transform="translate(-59.969 -255.194)" fill="#407bff"/>
      <g id="Group_3759" data-name="Group 3759" transform="translate(0 0)" opacity="0.2" style="isolation: isolate">
        <g id="Group_3758" data-name="Group 3758" transform="translate(0 0)">
          <rect id="Rectangle_1080" data-name="Rectangle 1080" width="25.795" height="61.946" transform="translate(0 0)" fill="#9ad1fb"/>
          <path id="Path_19477" data-name="Path 19477" d="M80.063,316.562s-4.474-8.756.638-17.388,6.593-10.666,3.335-12.434-4.754,6.9-4.754,6.9a17.623,17.623,0,0,1-.479-12.211c2.27-6.245,3.691-16.417.594-17.508s-.592,12.689-3.28,17.386a37.058,37.058,0,0,1-2.628-10.245c-.372-5.016.208-13.025-2.238-15.079s-4.013-.634-1.609,10.435a104.2,104.2,0,0,1,2.386,20.068s-5.309-14.521-8.872-14.944-3.559,4.279-.509,8.357,8.932,11.386,9.9,15.145c0,0-5.828-10.927-11.07-7.578s4.563,9.949,8.933,12.334,7.405,17.335,7.405,17.335Z" transform="translate(-59.969 -255.194)" fill="#9ad1fb"/>
        </g>
      </g>
      <path id="Path_19478" data-name="Path 19478" d="M79.611,321.168s4.357-8.816-.87-17.377-6.736-10.578-3.5-12.389,4.846,6.841,4.846,6.841a17.618,17.618,0,0,0,.315-12.217c-2.352-6.215-3.91-16.366-.826-17.5s.761,12.68,3.511,17.34a37.033,37.033,0,0,0,2.491-10.279c.305-5.021-.382-13.021,2.037-15.109s4-.686,1.749,10.413a104.24,104.24,0,0,0-2.117,20.1s5.115-14.59,8.671-15.061,3.617,4.231.622,8.35-8.78,11.5-9.695,15.276c0,0,5.683-11,10.968-7.727s-4.429,10.01-8.766,12.453-7.174,17.432-7.174,17.432Z" transform="translate(-63.049 -256.209)" fill="#78c5fb"/>
      <path id="Path_19479" data-name="Path 19479" d="M96.82,331.163H60.828l2.913,23.1H93.908Z" transform="translate(-60.164 -272.435)" fill="#454545"/>
    </g>
  </g>
</svg>
