<svg xmlns="http://www.w3.org/2000/svg" xmlns:xlink="http://www.w3.org/1999/xlink" width="431.623" height="361.996" viewBox="0 0 431.623 361.996">
  <defs>
    <linearGradient id="linear-gradient" x1="0.32" x2="0.886" y2="0.52" gradientUnits="objectBoundingBox">
      <stop offset="0" stop-color="#b5e2f6"/>
      <stop offset="1" stop-color="#cae4ef"/>
    </linearGradient>
  </defs>
  <g id="Group_3311" data-name="Group 3311" transform="translate(-210 -120.005)">
    <path id="Path_1" data-name="Path 1" d="M411.911,85.587a89.924,89.924,0,0,0-2.7,34.051c1.651,14.336,6.729,28.185,11.165,42.078,6.1,19.1,6.408,52.63,0,71.913-2.243,6.747-53.458,120.514-53.475,121.01,0,0,72.062.027,0,.035s-287.777,0-288.252,0c-3.379-.025-6.8-14.226-7.177-15.925C69,327.7,56.684,315.891,61.808,305.519c7.274-14.725,14.855-26.43,7.518-42.627C64.5,252.237,55.163,243.983,49.819,233.63a122.792,122.792,0,0,1-8.843-90.176C50.191,111.36,71.358,88.893,98.328,66.53c24.221-20.083,44.207-43.935,65.5-66.247H467.816s0,10.64,0,10.652c-.117,4.439-12.063,13.74-15.352,17.128-12.728,13.108-26.294,24.639-34.12,40.57a95.969,95.969,0,0,0-6.433,16.954" transform="translate(173.807 119.722)" opacity="0.46" fill="url(#linear-gradient)"/>
    <path id="Path_4" data-name="Path 4" d="M110.73,324.053a251.193,251.193,0,0,1-25.47-36.592l.005,0-.1-.167c2.1-1.693,10.062-9.022,4.877-19.245l-.325-.642-.608.386c-6.581,4.182-7.248,10.312-6.706,14.6-1.831-3.338-3.655-6.823-5.429-10.448q-1.286-2.631-2.565-5.421l.086-.023-.081-.178c2.276-1.454,10.99-7.864,6.959-18.594l-.254-.674-.647.318c-7.226,3.545-8.415,9.845-8.255,14.193-2.065-4.823-4.051-9.939-5.865-15.3,2.552-1.169,11.917-6.281,9.472-17.386l-.154-.7-.685.222c-7.746,2.507-9.779,8.689-10.206,13.023-1.552-5.016-2.925-10.221-4.064-15.568,2.637-.99,12.328-5.422,10.682-16.665l-.1-.712-.7.173C63.1,210.5,60.494,216,59.616,220.228a148.728,148.728,0,0,1-1.936-15.912c2.8-.51,13.078-3.152,13.47-14.482l.024-.719-.718.044c-7.966.494-11.49,5.77-13.031,9.831a125.076,125.076,0,0,1,1.144-20.937c2.687-.059,13.458-1,15.588-12.274l.133-.707-.718-.065c-7.523-.68-11.762,3.489-14.01,7.146a112.684,112.684,0,0,1,3.294-12.924c1.554-1.059,11.072-8.113,6.189-19.163l-.289-.659-.629.353c-10.564,5.945-7.111,17.356-6.519,19.071a114.214,114.214,0,0,0-3.354,13.193c-.869-4.213-3.452-9.631-10.836-11.526l-.7-.179-.112.711c-1.766,11.326,8.069,15.832,10.593,16.793l-.043.191.089.005a125.887,125.887,0,0,0-1.166,19.652,14.046,14.046,0,0,0-12.162-9.006l-.716-.071,0,.72c-.03,11.464,10.376,14.426,13.015,14.993l-.014.195.176-.017a150.232,150.232,0,0,0,1.88,15.555A14.152,14.152,0,0,0,44.4,212.91l-.718.058.127.708c2.022,11.29,12.8,12.339,15.487,12.423l.021.2.149-.043c1,4.685,2.183,9.256,3.5,13.688a14,14,0,0,0-13.807-5.422l-.712.109.179.7c2.62,10.324,12.146,11.3,15.645,11.3.273,0,.493-.007.688-.014L65,246.8l.142-.052c1.648,4.866,3.435,9.537,5.3,13.968A14.035,14.035,0,0,0,55.783,257.1l-.689.209.273.665c3.205,7.767,9.834,9.166,14.193,9.166a20,20,0,0,0,3.553-.312q1.343,2.945,2.7,5.72c1.672,3.416,3.386,6.7,5.114,9.868a14.1,14.1,0,0,0-15.295-2.248l-.661.284.345.631a14.043,14.043,0,0,0,12.977,7.672,20.237,20.237,0,0,0,5.659-.827l.082.178.063-.043a253,253,0,0,0,25.653,36.855.653.653,0,1,0,.979-.865M74.692,229.885c1.671,9.519-6.115,13.932-8.655,15.1-.273-2.782-.4-11.732,8.655-15.1M70.2,210.11c.986,9.614-7.1,13.46-9.712,14.447-.075-2.8.437-11.732,9.712-14.447m-.4-19.585c-.746,9.626-9.368,11.968-12.128,12.474.455-2.744,2.64-11.462,12.128-12.474m2.161-24.284c.25,0,.5.005.757.017-2.2,9.413-11.094,10.414-13.888,10.494.818-2.6,4.056-10.511,13.132-10.511m8.432,82.644c3.005,9.175-4.056,14.648-6.409,16.173-.635-2.708-1.962-11.6,6.409-16.173M68.133,141.276c3.521,9-3.238,14.866-5.494,16.516-.82-2.673-2.718-11.419,5.494-16.516M47.8,161.964c9.249,2.8,9.675,11.743,9.574,14.537-2.606-1.01-10.651-4.933-9.574-14.537m-3.28,28.092c9.555,1.367,11.337,10.121,11.664,12.909-2.707-.631-11.268-3.376-11.664-12.909m.719,24.113c9.627-.361,12.964,7.932,13.785,10.615-2.779-.137-11.691-1.307-13.785-10.615m4.85,21.546c9.609-1.052,13.507,7,14.511,9.613-2.8.088-11.733-.359-14.511-9.613m6.781,22.44c9.023-2.325,13.992,4.481,15.56,7.158.042.1.086.193.129.289-2.783.46-11.682,1.169-15.69-7.447M89.2,269.3c3.992,8.791-2.426,15-4.6,16.78-.927-2.623-3.222-11.313,4.6-16.78M66.833,281.095c9.036-3.418,14.831,3.4,16.452,5.68-2.681.791-11.448,2.588-16.452-5.68" transform="translate(187.109 97.487)" fill="#fff"/>
    <g id="Group_3310" data-name="Group 3310">
      <g id="Group_3305" data-name="Group 3305" transform="translate(27 -4)">
        <path id="Path_12" data-name="Path 12" d="M68.6,427.8s-13.843-46.929-27.986-66.252-14.5-49.192,8.485-50.874,32.691,32.4,38.974,57.434S93.649,427.8,93.649,427.8Z" transform="translate(187.409 33.671)" fill="#fff"/>
        <path id="Path_13" data-name="Path 13" d="M88.88,401.568a.457.457,0,0,0-.631.137l-7.219,11.234q-2.263-9.7-4.611-18.2l7.945-14.489a.457.457,0,0,0-.8-.439l-7.492,13.663c-1.863-6.718-3.739-12.877-5.583-18.493l6.868-19.021a.456.456,0,0,0-.274-.585.461.461,0,0,0-.585.273l-6.474,17.93c-2.911-8.758-5.728-16.159-8.269-22.259l4.558-16.252a.457.457,0,1,0-.88-.246l-4.246,15.143c-6.017-14.227-10.349-20.96-10.44-21.1a.457.457,0,0,0-.764.5c.091.139,4.444,6.911,10.479,21.226L45.89,346.529a.457.457,0,1,0-.245.88l15.266,4.26c2.548,6.119,5.378,13.554,8.3,22.364L54.1,366.609a.457.457,0,0,0-.4.82l15.918,7.821c1.858,5.663,3.75,11.878,5.63,18.667l-12.989-4.946a.456.456,0,1,0-.324.853l13.612,5.183q2.348,8.564,4.638,18.327l-12.846-5.267a.457.457,0,0,0-.346.846l13.443,5.511q1.573,6.823,3.082,14.231a.458.458,0,0,0,.448.366.439.439,0,0,0,.09-.009.457.457,0,0,0,.357-.539q-1.508-7.449-3.1-14.292l7.7-11.982a.457.457,0,0,0-.137-.631" transform="translate(186.15 32.107)" fill="#98dbf9"/>
      </g>
      <g id="Group_3306" data-name="Group 3306" transform="translate(-93.638 88.536) rotate(-16)">
        <path id="Path_14" data-name="Path 14" d="M74.332,431.733h-20.7S13.935,389.1,23.225,370.2s24.75-18.447,32.881-1.269,18.225,62.8,18.225,62.8" transform="translate(188.186 29.735)" fill="#fff"/>
        <path id="Path_15" data-name="Path 15" d="M66.762,418.81a.458.458,0,0,0-.593.255l-3.022,7.576c-1.269-3.6-2.62-7.213-4.01-10.775l4.419-10.527a.457.457,0,1,0-.842-.353l-4.054,9.66c-1.617-4.1-3.274-8.122-4.906-11.955l4.781-12.634a.456.456,0,0,0-.854-.322l-4.444,11.742c-2.229-5.2-4.388-10.007-6.305-14.169l4.646-11.658a.457.457,0,1,0-.849-.339L46.4,386.165c-3.841-8.289-6.577-13.708-6.643-13.839a.457.457,0,1,0-.815.414c.067.132,2.835,5.614,6.709,13.982L33.2,384.693a.456.456,0,1,0-.147.9l13.068,2.128c1.938,4.206,4.123,9.076,6.374,14.335L37.342,398.84a.457.457,0,1,0-.19.894l15.777,3.349c1.655,3.886,3.334,7.964,4.971,12.127l-12.653-2.934a.457.457,0,0,0-.206.891L58.3,416.24c1.41,3.615,2.78,7.284,4.065,10.934l-9.052-3.331A.457.457,0,0,0,53,424.7l9.758,3.591q.818,2.356,1.586,4.694a.456.456,0,0,0,.434.315.482.482,0,0,0,.142-.022.458.458,0,0,0,.292-.576q-.77-2.361-1.6-4.749l3.41-8.55a.456.456,0,0,0-.255-.594" transform="translate(187.246 28.346)" fill="#98dbf9"/>
      </g>
    </g>
    <g id="Group_3309" data-name="Group 3309" transform="translate(494.563 341.282)">
      <g id="Group_3307" data-name="Group 3307" transform="translate(0 0)">
        <path id="Path_12-2" data-name="Path 12" d="M55.841,427.8s13.843-46.929,27.986-66.252,14.5-49.191-8.485-50.874-32.692,32.4-38.974,57.434S30.8,427.8,30.8,427.8Z" transform="translate(-30.772 -310.611)" fill="#fff"/>
        <path id="Path_13-2" data-name="Path 13" d="M45.52,401.568a.457.457,0,0,1,.631.137l7.219,11.234q2.263-9.7,4.611-18.2l-7.945-14.489a.457.457,0,0,1,.8-.439l7.492,13.663c1.863-6.718,3.739-12.877,5.583-18.493l-6.868-19.021a.456.456,0,0,1,.274-.585.461.461,0,0,1,.585.273l6.474,17.93c2.911-8.758,5.728-16.158,8.269-22.259l-4.558-16.252a.457.457,0,1,1,.88-.246l4.246,15.143c6.017-14.227,10.349-20.96,10.44-21.1a.457.457,0,0,1,.765.5c-.091.139-4.444,6.911-10.479,21.226l14.571-4.065a.457.457,0,1,1,.245.88l-15.266,4.26c-2.548,6.119-5.378,13.554-8.3,22.364L80.3,366.609a.457.457,0,0,1,.4.82L64.784,375.25c-1.858,5.663-3.75,11.878-5.63,18.667l12.989-4.946a.456.456,0,1,1,.324.853l-13.612,5.183q-2.348,8.564-4.638,18.327l12.846-5.267a.457.457,0,0,1,.346.846l-13.443,5.511q-1.573,6.823-3.082,14.231a.458.458,0,0,1-.448.366.439.439,0,0,1-.09-.009.457.457,0,0,1-.357-.539q1.508-7.449,3.1-14.292l-7.7-11.982a.457.457,0,0,1,.137-.631" transform="translate(-39.467 -312.175)" fill="#98dbf9"/>
      </g>
      <g id="Group_3308" data-name="Group 3308" transform="translate(72.607 134.132) rotate(-164)">
        <path id="Path_14-2" data-name="Path 14" d="M52.516,0h-20.7S-7.881,42.635,1.409,61.531,26.159,79.979,34.29,62.8,52.516,0,52.516,0" transform="translate(0 0.178)" fill="#fff"/>
        <path id="Path_15-2" data-name="Path 15" d="M34.1,14.491a.458.458,0,0,1-.593-.255L30.482,6.659c-1.269,3.6-2.62,7.213-4.01,10.775l4.419,10.527a.457.457,0,1,1-.842.353l-4.054-9.66c-1.617,4.1-3.274,8.122-4.906,11.955l4.781,12.634a.456.456,0,0,1-.854.322L20.572,31.823c-2.229,5.2-4.388,10.007-6.305,14.169L18.913,57.65a.457.457,0,1,1-.849.339L13.739,47.136C9.9,55.424,7.162,60.843,7.1,60.974a.457.457,0,1,1-.815-.414c.067-.132,2.835-5.615,6.709-13.982L.53,48.607a.456.456,0,1,1-.147-.9l13.068-2.128c1.938-4.206,4.123-9.076,6.374-14.335L4.677,34.461a.457.457,0,1,1-.19-.894l15.777-3.349c1.655-3.886,3.334-7.964,4.971-12.127L12.582,21.024a.457.457,0,0,1-.206-.891L25.638,17.06c1.41-3.615,2.78-7.284,4.065-10.934L20.65,9.457a.457.457,0,0,1-.316-.857l9.759-3.591q.818-2.356,1.586-4.694A.456.456,0,0,1,32.112,0a.482.482,0,0,1,.142.022A.458.458,0,0,1,32.546.6q-.77,2.361-1.6,4.749l3.41,8.55a.456.456,0,0,1-.255.594" transform="translate(9.909 0)" fill="#98dbf9"/>
      </g>
    </g>
    <path id="Path_18856" data-name="Path 18856" d="M43.367,324.052a251.193,251.193,0,0,0,25.47-36.592l-.005,0,.1-.167c-2.1-1.693-10.062-9.022-4.877-19.245l.325-.642.608.386c6.581,4.182,7.248,10.312,6.706,14.6,1.831-3.338,3.655-6.823,5.429-10.448q1.286-2.631,2.565-5.421L79.6,266.5l.081-.178c-2.276-1.454-10.991-7.864-6.959-18.594l.254-.674.647.318c7.226,3.545,8.415,9.845,8.255,14.193,2.065-4.823,4.051-9.939,5.865-15.3-2.552-1.169-11.917-6.281-9.472-17.386l.154-.7.685.222c7.746,2.507,9.779,8.689,10.206,13.023,1.552-5.016,2.925-10.221,4.064-15.568-2.637-.99-12.328-5.422-10.682-16.665l.1-.712.7.173C91,210.5,93.6,216,94.481,220.227a148.726,148.726,0,0,0,1.936-15.912c-2.8-.51-13.078-3.152-13.47-14.482l-.024-.719.718.044c7.966.494,11.49,5.77,13.031,9.831a125.074,125.074,0,0,0-1.144-20.936c-2.687-.059-13.458-1-15.588-12.274l-.133-.707.718-.065c7.523-.68,11.762,3.489,14.01,7.146a112.683,112.683,0,0,0-3.294-12.924c-1.554-1.059-11.072-8.113-6.189-19.163l.289-.659.629.353c10.564,5.945,7.111,17.356,6.519,19.071a114.212,114.212,0,0,1,3.354,13.193c.869-4.213,3.452-9.631,10.836-11.526l.7-.179.112.711c1.766,11.326-8.069,15.832-10.593,16.793l.043.191-.089.005a125.887,125.887,0,0,1,1.166,19.652,14.046,14.046,0,0,1,12.162-9.006l.716-.071,0,.72c.03,11.464-10.376,14.426-13.015,14.993l.014.195-.176-.017a150.228,150.228,0,0,1-1.88,15.555,14.152,14.152,0,0,1,13.858-7.13l.718.058-.127.708c-2.022,11.29-12.8,12.339-15.487,12.423l-.021.2-.149-.043c-1,4.685-2.183,9.256-3.5,13.688a14,14,0,0,1,13.807-5.422l.712.109-.179.7c-2.62,10.324-12.146,11.3-15.645,11.3-.273,0-.493-.007-.688-.014l-.035.195-.142-.052c-1.648,4.866-3.435,9.537-5.3,13.968A14.035,14.035,0,0,1,98.314,257.1l.689.209-.273.665c-3.205,7.767-9.834,9.166-14.193,9.166a20,20,0,0,1-3.553-.312q-1.343,2.945-2.7,5.72c-1.672,3.416-3.386,6.7-5.114,9.868a14.1,14.1,0,0,1,15.295-2.248l.661.284-.345.631A14.043,14.043,0,0,1,75.8,288.755a20.237,20.237,0,0,1-5.659-.827l-.082.178L70,288.063a252.993,252.993,0,0,1-25.653,36.855.653.653,0,1,1-.979-.865M79.4,229.884c-1.671,9.519,6.115,13.932,8.655,15.1.273-2.782.4-11.732-8.655-15.1M83.9,210.11c-.986,9.614,7.1,13.46,9.712,14.447.075-2.8-.437-11.732-9.712-14.447m.4-19.585c.746,9.626,9.368,11.968,12.128,12.474-.455-2.744-2.64-11.462-12.128-12.474m-2.161-24.284c-.25,0-.5.005-.757.017,2.2,9.413,11.094,10.414,13.888,10.494-.818-2.6-4.056-10.511-13.132-10.511M73.7,248.885c-3.005,9.175,4.056,14.648,6.409,16.173.635-2.708,1.962-11.6-6.409-16.173M85.964,141.276c-3.521,9,3.238,14.866,5.494,16.516.82-2.673,2.718-11.419-5.494-16.516m20.33,20.688c-9.249,2.8-9.675,11.743-9.574,14.537,2.606-1.01,10.651-4.933,9.574-14.537m3.28,28.092c-9.555,1.367-11.337,10.121-11.664,12.909,2.707-.631,11.268-3.376,11.664-12.909m-.719,24.113c-9.627-.361-12.964,7.932-13.785,10.615,2.779-.137,11.691-1.307,13.785-10.615m-4.85,21.546c-9.609-1.052-13.507,7-14.511,9.613,2.8.088,11.733-.359,14.511-9.613m-6.781,22.44c-9.023-2.325-13.992,4.481-15.56,7.158-.042.1-.086.193-.129.289,2.783.46,11.682,1.169,15.69-7.447M64.9,269.3c-3.992,8.791,2.426,15,4.6,16.78.927-2.623,3.222-11.313-4.6-16.78m22.364,11.793c-9.036-3.418-14.831,3.4-16.452,5.68,2.681.791,11.448,2.588,16.452-5.68" transform="translate(457.109 97.487)" fill="#fff"/>
    <path id="Path_20" data-name="Path 20" d="M378.463,454.351c0,8.728-74.738,15.8-166.933,15.8S44.6,463.079,44.6,454.351,119.335,438.54,211.53,438.54s166.933,7.08,166.933,15.811" transform="translate(189.537 11.845)" fill="#c7dbe4"/>
    <g id="object" transform="translate(259.805 151.813)">
      <g id="Group_3304" data-name="Group 3304" transform="translate(0 0)">
        <g id="Group_3214" data-name="Group 3214" transform="translate(204.139 192.208)">
          <path id="Path_18783" data-name="Path 18783" d="M989.5,649.977l4.212,3.869-.99,4.62-5.61-.99-1.657-4.168Z" transform="translate(-985.451 -649.977)" fill="#dec2a7"/>
        </g>
        <g id="Group_3215" data-name="Group 3215" transform="translate(125.313 130.078)">
          <path id="Path_18784" data-name="Path 18784" d="M742.03,454.281l.66,4.95-2.1,3.227-3.4-.5-.44-5.7,4.62-2.31Z" transform="translate(-736.75 -453.951)" fill="#eacdb0"/>
        </g>
        <g id="Group_3216" data-name="Group 3216" transform="translate(95.907 131.398)">
          <path id="Path_18785" data-name="Path 18785" d="M643.973,458.116l22.146,26.729,4.62-20.789,8.58,1.65-4.95,31.35-8.322,5.781-22.038-14.691Z" transform="translate(-643.973 -458.116)" fill="#a1bdcc"/>
        </g>
        <g id="Group_3228" data-name="Group 3228" transform="translate(59.753 92.084)">
          <g id="Group_3222" data-name="Group 3222" transform="translate(3.029 96.341)">
            <g id="Group_3219" data-name="Group 3219" transform="translate(21.343)">
              <g id="Group_3217" data-name="Group 3217">
                <path id="Path_18786" data-name="Path 18786" d="M636.847,642.1,638,691.141,629.5,754.49l-7.107.084-5.181-58.3L606.8,638.039Z" transform="translate(-606.798 -638.039)" fill="#8c9498"/>
              </g>
              <g id="Group_3218" data-name="Group 3218" transform="translate(15.629 115.598)">
                <path id="Path_18787" data-name="Path 18787" d="M656.109,1002.851l.046,3.843,7.731,3.751,3.8-3.888-3.888-3.8Z" transform="translate(-656.109 -1002.76)" fill="#3a3029"/>
              </g>
            </g>
            <g id="Group_3220" data-name="Group 3220" transform="translate(6.066 117.54)">
              <path id="Path_18788" data-name="Path 18788" d="M565.32,1008.889l6.111,5.194-1.528,3.056-11.305-2.445v-5.805Z" transform="translate(-558.598 -1008.889)" fill="#3a3029"/>
            </g>
            <g id="Group_3221" data-name="Group 3221" transform="translate(0 16.777)">
              <path id="Path_18789" data-name="Path 18789" d="M566.207,697.547l-5.08,47.534-6.7,47.381-9.559-.455.349-49.153-5.754-45.589,13.514-6.3Z" transform="translate(-539.46 -690.971)" fill="#8c9498"/>
            </g>
          </g>
          <g id="Group_3223" data-name="Group 3223" transform="translate(0 32.255)">
            <path id="Path_18790" data-name="Path 18790" d="M540.2,439.329l18.568-3.485s12.636,8.13,22.219,32.735c9.758,25.054,8.379,63.428,8.379,63.428s-51.093.817-59.462,1.015l4.872-53.078Z" transform="translate(-529.904 -435.844)" fill="#a1bdcc"/>
          </g>
          <g id="Group_3226" data-name="Group 3226" transform="translate(2.876)">
            <g id="Group_3224" data-name="Group 3224" transform="translate(8.851 12.439)">
              <path id="Path_18791" data-name="Path 18791" d="M578.1,396.837l-6.642-.237a33.2,33.2,0,0,1,.025-5.294c-1.874-.529-4.055-1.362-4.5-3.259a5.486,5.486,0,0,1-.007-1.831q.409-3.782.82-7.564a6.69,6.69,0,0,1,.619-2.539,5.627,5.627,0,0,1,3.8-2.376,13.692,13.692,0,0,1,11.236,2,6,6,0,0,1,2.025,2.346,8.138,8.138,0,0,1,.028,4.758q-.43,2.189-.859,4.379c-.329,1.679-.837,3.6-2.389,4.316-.824.382-1.828.349-2.562.884C578.4,393.361,578.709,395.355,578.1,396.837Z" transform="translate(-566.903 -373.323)" fill="#eacdb0"/>
            </g>
            <g id="Group_3225" data-name="Group 3225">
              <path id="Path_18792" data-name="Path 18792" d="M578.979,343.765a21.281,21.281,0,0,0-.849-4.967c-.753-2.643-3.989-3.653-6.738-3.673-5.936-.044-11.807-2.371-17.451.055-3.226,1.387-7.64,1.944-10.523,3.8a8.836,8.836,0,0,0-2.831,3.169,13.308,13.308,0,0,0,.852,14.048,19,19,0,0,0,2.232,2.474c1.664,1.59,3.659,3.559,5.841,4.049-.07-1.919-2.2-7.852-.826-9.516,2.178-2.64,7.514-2.1,10.451-1.674,3.2.47,6.161,2.53,9.325,2.81,2.276.2,5.084-1.086,6.928-2.373C578.277,349.946,579.093,346.859,578.979,343.765Z" transform="translate(-538.978 -334.077)" fill="#3a3029"/>
            </g>
          </g>
          <g id="Group_3227" data-name="Group 3227" transform="translate(14.897 35.755)">
            <path id="Path_18793" data-name="Path 18793" d="M585.747,446.887l18.114,41.354,7.012,51.337-25.944.544s2.982-38.03,1.91-43-3.2-15.276-5.5-26.875c-.531-2.671-4.406-23.151-4.433-23.029Z" transform="translate(-576.904 -446.887)" fill="#fff"/>
          </g>
        </g>
        <g id="Group_3242" data-name="Group 3242" transform="translate(132.207 95.061)">
          <g id="Group_3229" data-name="Group 3229" transform="translate(8.91 37.115)">
            <path id="Path_18794" data-name="Path 18794" d="M810.921,461.321l-2.91-.75-5.56,3.182-15.839,38.28,4.95,5.94,13.53-17.49Z" transform="translate(-786.611 -460.57)" fill="#8aad9f"/>
          </g>
          <g id="Group_3232" data-name="Group 3232" transform="translate(34.788 114.896)">
            <g id="Group_3230" data-name="Group 3230" transform="translate(14.304 91.009)">
              <path id="Path_18795" data-name="Path 18795" d="M921.823,996.159l.308,3.043-5.52,3.795-3.221-2.667L916,996.91l5.52-3.794Z" transform="translate(-913.39 -993.115)" fill="#514943"/>
            </g>
            <g id="Group_3231" data-name="Group 3231">
              <path id="Path_18796" data-name="Path 18796" d="M890.858,706.989l.935,9.242-8.277,31.753,7.686,51.023-5.657,1.952-14.919-49.814-2.367-14.491.086-30.679Z" transform="translate(-868.258 -705.975)" fill="#cab5a1"/>
            </g>
          </g>
          <g id="Group_3235" data-name="Group 3235" transform="translate(13.874 118.439)">
            <g id="Group_3233" data-name="Group 3233">
              <path id="Path_18797" data-name="Path 18797" d="M802.273,724.924l11.9,85.5h5.409l.973-54.8,9.845-38.466Z" transform="translate(-802.273 -717.151)" fill="#cab5a1"/>
            </g>
            <g id="Group_3234" data-name="Group 3234" transform="translate(8.504 92.594)">
              <path id="Path_18798" data-name="Path 18798" d="M837.879,1009.292v3.071l-5.85,3.071-2.925-3.071,2.925-3.071Z" transform="translate(-829.104 -1009.292)" fill="#514943"/>
            </g>
          </g>
          <g id="Group_3236" data-name="Group 3236" transform="translate(0 35.084)">
            <path id="Path_18799" data-name="Path 18799" d="M817.127,508.752c-3.077-17.843-7.842-35.163-9.565-53.336-4.552,0-10.836-2.113-15.575-.855v0s-.081.018-.227.068a7.56,7.56,0,0,0-4.359,3.177c-.013.019-.024.04-.036.059a30.619,30.619,0,0,0-5.436,9.1c-4.62,11.22-23.1,77.219-23.43,94.378l.171.041a86.227,86.227,0,0,0,12.549,2.79l.01,0h0c12.924,1.968,27.384,1.949,39.146,1.75,1.553-.027,18.013.51,17.781-.553Q822.031,537.187,817.127,508.752Z" transform="translate(-758.5 -454.161)" fill="#8aad9f"/>
          </g>
          <g id="Group_3237" data-name="Group 3237" transform="translate(45.044 37.162)">
            <path id="Path_18800" data-name="Path 18800" d="M903.917,460.719l4.675,2.879,11.33,30.946,12.54,25.41-5.61,4.62-16.5-23.1-9.735-31.185Z" transform="translate(-900.617 -460.719)" fill="#8aad9f"/>
          </g>
          <g id="Group_3238" data-name="Group 3238" transform="translate(23.354 7.958)">
            <path id="Path_18801" data-name="Path 18801" d="M834.483,368.678s-3.506,2.868-1.856,13.428a65.122,65.122,0,0,1,.66,17.49s3.63,1.65,6.27,0,3.63-1.98,2.64-6.27-2.97-24.75-2.97-24.75Z" transform="translate(-832.185 -368.576)" fill="#9e6652"/>
          </g>
          <g id="Group_3239" data-name="Group 3239" transform="translate(23.758 5.346)">
            <path id="Path_18802" data-name="Path 18802" d="M844.049,366.618a10.687,10.687,0,0,0-7.6,8.953,9.419,9.419,0,0,1,2.068-15.234,10.892,10.892,0,0,1,5.237,6.353Z" transform="translate(-833.458 -360.336)" fill="#9e6652"/>
          </g>
          <g id="Group_3240" data-name="Group 3240" transform="translate(25.652 9.465)">
            <path id="Path_18803" data-name="Path 18803" d="M839.976,380.875c2.072-10.953,15.734-9.06,19.653-.191,2.229,5.044,1.708,14.9-4.565,16.551-.1.97-.221,2.787-.961,3.436-.8.7-3.326.033-4.316-.2a1.52,1.52,0,0,1-.76-.342,2.857,2.857,0,0,1-.3-1.661,9.079,9.079,0,0,1-2.227-.44,10.6,10.6,0,0,1-6.431-7.2A21.266,21.266,0,0,1,839.976,380.875Z" transform="translate(-839.433 -373.332)" fill="#eacdb0"/>
          </g>
          <g id="Group_3241" data-name="Group 3241" transform="translate(28.988)">
            <path id="Path_18804" data-name="Path 18804" d="M850.047,348.786s-1.32,5.94,6.27,7.59,12.519,7.59,11.21,13.86-6.919,10.89-3.95,12.54,13.86,0,13.86,0,6.6-22.11-2.31-31.679S853.347,341.2,850.047,348.786Z" transform="translate(-849.959 -343.469)" fill="#9e6652"/>
          </g>
        </g>
        <g id="Group_3249" data-name="Group 3249" transform="translate(88.769 139.544)">
          <g id="Group_3247" data-name="Group 3247">
            <g id="Group_3243" data-name="Group 3243">
              <path id="Path_18805" data-name="Path 18805" d="M704.271,492.151c-26.056,5.668-39.3-6.426-41.083-8.212,0,0-.037-.179-.106-.107-.069-.071-.105.107-.105.107-1.782,1.789-15,13.911-41.066,8.3,0,0-3.953,46.891,11.259,66,16.246,20.413,29.948,26.577,30.016,26.523.069.053,13.875-6.02,29.962-26.584C708.2,538.938,704.271,492.151,704.271,492.151Z" transform="translate(-621.449 -483.816)" fill="#066598"/>
            </g>
            <g id="Group_3244" data-name="Group 3244" transform="translate(3.858 5.742)">
              <path id="Path_18806" data-name="Path 18806" d="M708.778,509.352c-23.644,5.047-35.66-5.721-37.28-7.31,0,0-.033-.159-.1-.1-.063-.063-.1.1-.1.1-1.616,1.593-13.61,12.385-37.265,7.387,0,0-3.588,41.746,10.215,58.761,14.742,18.173,27.163,24.776,27.226,24.729.062.047,12.6-6.477,27.2-24.784C712.341,551.005,708.778,509.352,708.778,509.352Z" transform="translate(-633.622 -501.931)" fill="#4498c5"/>
            </g>
            <g id="Group_3246" data-name="Group 3246" transform="translate(3.922 3.574)" opacity="0.06">
              <g id="Group_3245" data-name="Group 3245">
                <path id="Path_18807" data-name="Path 18807" d="M671.44,501.485s.035-.167.1-.1c.066-.067.1.1.1.1,1.664,1.632,13.8,12.5,37.615,7.944-.12-4.254-.347-6.917-.347-6.917-23.644,5.046-35.66-5.721-37.28-7.31,0,0-.033-.159-.1-.1-.063-.063-.1.1-.1.1-1.616,1.593-13.61,12.385-37.264,7.387,0,0-.229,2.662-.349,6.914C657.662,514.023,669.779,503.121,671.44,501.485Z" transform="translate(-633.824 -495.092)"/>
              </g>
            </g>
          </g>
          <g id="Group_3248" data-name="Group 3248" transform="translate(11.398 18.628)" opacity="0.34">
            <path id="Path_18808" data-name="Path 18808" d="M718.029,548.73c-17.864,3.886-29.071-4.831-30.294-6.056,0,0-.025-.122-.073-.073-.048-.049-.072.073-.072.073-1.222,1.227-12.3,9.944-30.168,6.1,0,0-.7,31.741,9.732,44.844,11.139,14,20.532,18.22,20.579,18.184.048.036,9.513-4.127,20.542-18.226C718.593,580.381,718.029,548.73,718.029,548.73Z" transform="translate(-657.411 -542.589)" fill="#fff"/>
          </g>
        </g>
        <g id="Group_3259" data-name="Group 3259" transform="translate(59.838)">
          <g id="Group_3252" data-name="Group 3252" transform="translate(51.616)">
            <g id="Group_3250" data-name="Group 3250">
              <path id="Path_18809" data-name="Path 18809" d="M717.128,50.13V46.9l-1.489-3.047a1.028,1.028,0,0,0-1.492.032L712.9,46.9V50.13c-1.174,0-3.085.92-3.085,2.055a2.091,2.091,0,0,0,2.125,2.055h.96V163.83c0,6.183-3.269,11.326-7.964,11.216-3.639-.086-6.812-3.179-7.347-8.228a2.229,2.229,0,0,0-2.236-1.978h-.084a2.2,2.2,0,0,0-2.231,2.426c.929,7.181,6.627,12.319,12.037,12.319a10.75,10.75,0,0,0,9.713-5.491c2.5-4.372,2.34-9.179,2.339-13.976V54.24h.658a2.091,2.091,0,0,0,2.126-2.055C719.912,51.051,718.3,50.13,717.128,50.13Z" transform="translate(-693.021 -43.544)" fill="#59595b"/>
            </g>
            <g id="Group_3251" data-name="Group 3251" transform="translate(19.835 56.244)" opacity="0.26">
              <path id="Path_18810" data-name="Path 18810" d="M759.874,232.773l-4.272-4.44V221h4.272Z" transform="translate(-755.602 -220.998)"/>
            </g>
          </g>
          <g id="Group_3258" data-name="Group 3258" transform="translate(0 10.559)">
            <g id="Group_3253" data-name="Group 3253" transform="translate(105.856 67.71)">
              <path id="Path_18811" data-name="Path 18811" d="M864.155,290.49c.167.08.333.161.5.243q.356-.124.717-.243h-1.215Z" transform="translate(-864.155 -290.49)" fill="none"/>
            </g>
            <g id="Group_3254" data-name="Group 3254" transform="translate(0 0.076)">
              <path id="Path_18812" data-name="Path 18812" d="M572.376,144.094l.762-4.691a110.26,110.26,0,0,1,18.275-45.219L603.281,77.1a77,77,0,0,0-73.111,67.119,74.757,74.757,0,0,1,21.241-2.942A76.475,76.475,0,0,1,572.376,144.094Z" transform="translate(-530.17 -77.098)" fill="#6596c1"/>
            </g>
            <g id="Group_3255" data-name="Group 3255" transform="translate(73.96)">
              <path id="Path_18813" data-name="Path 18813" d="M793.836,134.5l2.034,10.07h.761a73.582,73.582,0,0,1,22.878-3.458,75.178,75.178,0,0,1,22.975,3.435,77.052,77.052,0,0,0-76.5-67.687c-.826,0-1.648.017-2.468.043L773,90.765C784.622,105.06,789.959,119.541,793.836,134.5Z" transform="translate(-763.519 -76.859)" fill="#6596c1"/>
            </g>
            <g id="Group_3256" data-name="Group 3256" transform="translate(42.206 0.043)">
              <path id="Path_18814" data-name="Path 18814" d="M664.1,139.334l-.762,4.691.2.06c8-3.557,18.965-5.6,31.074-5.6,12.752,0,24.259,2.262,32.372,6.175h.454l-2.034-10.07c-3.877-14.957-9.213-29.439-20.836-43.734L695.088,77c-.283.009-.566.02-.849.032L682.371,94.114A110.261,110.261,0,0,0,664.1,139.334Z" transform="translate(-663.334 -76.996)" fill="#5a8fb7"/>
            </g>
            <g id="Group_3257" data-name="Group 3257" transform="translate(42.18 67.072)">
              <path id="Path_18815" data-name="Path 18815" d="M663.278,288.477l-.026.162.23-.1Z" transform="translate(-663.252 -288.477)" fill="#fff"/>
            </g>
          </g>
        </g>
        <g id="Group_3260" data-name="Group 3260" transform="translate(121.234 127.769)">
          <path id="Path_18816" data-name="Path 18816" d="M725.981,456.234l-2.1-3.72.119-5.849,1.98.66.66,2.97,3.63,3.3L729.2,456.98Z" transform="translate(-723.882 -446.664)" fill="#eacdb0"/>
        </g>
        <g id="Group_3261" data-name="Group 3261" transform="translate(123.397 125.806)">
          <path id="Path_18817" data-name="Path 18817" d="M730.705,447.207l.476-3.833,3.906-2.9,2.675,2.073-.623,3.19Z" transform="translate(-730.705 -440.471)" fill="#eacdb0"/>
        </g>
        <g id="Group_3262" data-name="Group 3262" transform="translate(43.768 127.769)">
          <path id="Path_18818" data-name="Path 18818" d="M505.868,446.664l-7.538,6.144-18.862,34.115,9.9,12.54,6.27-1.98,14.85-33Z" transform="translate(-479.469 -446.664)" fill="#a1bdcc"/>
        </g>
        <g id="Group_3263" data-name="Group 3263" transform="translate(65.878 173.308)">
          <path id="Path_18819" data-name="Path 18819" d="M555.5,590.344l2.31,5.257v19.526l-3.55.3-5.03-16.864Z" transform="translate(-549.227 -590.344)" fill="#eacdb0"/>
        </g>
        <g id="Group_3264" data-name="Group 3264" transform="translate(72.148 170.338)">
          <path id="Path_18820" data-name="Path 18820" d="M576.6,580.973l3.63,3.3,4.62,19.14-2.97,1.65-7.59-15.18-5.28-4.29.99-4.62Z" transform="translate(-569.009 -580.973)" fill="#eacdb0"/>
        </g>
        <g id="Group_3265" data-name="Group 3265" transform="translate(43.736 139.544)">
          <path id="Path_18821" data-name="Path 18821" d="M486.287,485.8a7.041,7.041,0,0,0-3.8,3.152c-1.157,2.313-4.24,12.335-2.7,19.273s2.313,15.8,17.346,18.888c7.324.771,6.168-5.4,11.564-6.939s10.536-.642,7.966-8.994-8.352-9.123-13.363-17.989S492.783,481.488,486.287,485.8Z" transform="translate(-479.368 -483.816)" fill="#c2969c"/>
        </g>
        <g id="Group_3266" data-name="Group 3266" transform="translate(28.588 142.495)">
          <path id="Path_18822" data-name="Path 18822" d="M451.784,493.127l-11.3,6.723-8.91,3.3.99,3.96,9.24-.66,9.24-3.96Z" transform="translate(-431.576 -493.127)" fill="#c2969c"/>
        </g>
        <g id="Group_3267" data-name="Group 3267" transform="translate(59.938 136.079)">
          <path id="Path_18823" data-name="Path 18823" d="M530.486,475.794l9.57,1.32,6.889-4.229,1.691,2.249-5.94,6.6-6.93,1.98Z" transform="translate(-530.486 -472.885)" fill="#c2969c"/>
        </g>
        <g id="Group_3271" data-name="Group 3271" transform="translate(37.713 116.35)">
          <g id="Group_3268" data-name="Group 3268" transform="translate(14.763 2.537)">
            <path id="Path_18824" data-name="Path 18824" d="M508.488,422.109s6.346,2.477,7.023,8.121c0,0,3.021-3.7.588-7.442s-3.818-5.12-7.49-3.435S508.488,422.109,508.488,422.109Z" transform="translate(-506.946 -418.644)" fill="#754c3d"/>
          </g>
          <g id="Group_3269" data-name="Group 3269" transform="translate(7.281 6.002)">
            <path id="Path_18825" data-name="Path 18825" d="M498.669,434.626c-2.438-8.1-12.6-5.584-14.852,1.425-1.28,3.986-.1,11.385,4.767,12.13.149.725.39,2.086,1,2.517.661.466,2.514-.241,3.243-.493a1.155,1.155,0,0,0,.546-.319,2.168,2.168,0,0,0,.091-1.277,6.905,6.905,0,0,0,1.646-.51,8.042,8.042,0,0,0,4.28-5.951A16.141,16.141,0,0,0,498.669,434.626Z" transform="translate(-483.337 -429.577)" fill="#eacdb0"/>
          </g>
          <g id="Group_3270" data-name="Group 3270">
            <path id="Path_18826" data-name="Path 18826" d="M478.436,418.536c-2.224,3.62-6.729,4.785-8.835,8.289,0,0-1.377,2.292.054,6.746a7.652,7.652,0,0,1-7.828-3.084c-3.105-4.3-.295-14.694-.295-14.694a17.472,17.472,0,0,1,12.535-5.15c2.636.053,5.3,1.462,5.365,4.438A6.272,6.272,0,0,1,478.436,418.536Z" transform="translate(-460.366 -410.638)" fill="#754c3d"/>
          </g>
        </g>
        <g id="Group_3280" data-name="Group 3280" transform="translate(0 274.213)">
          <g id="Group_3272" data-name="Group 3272" transform="translate(40.147 25.868)">
            <path id="Path_18827" data-name="Path 18827" d="M471.345,990.9s.377,3.105,4.18,3.158,5.353,2.609,1.867,2.561-7.637.617-9.017-1.982S470.317,989.052,471.345,990.9Z" transform="translate(-468.044 -990.326)" fill="#bcac98"/>
          </g>
          <g id="Group_3273" data-name="Group 3273" transform="translate(0.938 12.563)">
            <path id="Path_18828" data-name="Path 18828" d="M375.157,948.346s-1.357.291-2.026,2.817-16.458-1.811-21.9,1.919-6.147,6.886-6.829,12.585c-1.443,12.045,20.139,10.736,27.468,7.984s19.706-3.851,16.4-16.892C387.64,956.434,375.157,948.346,375.157,948.346Z" transform="translate(-344.335 -948.346)" fill="#d3c2a4"/>
          </g>
          <g id="Group_3274" data-name="Group 3274" transform="translate(31.549 11.155)">
            <path id="Path_18829" data-name="Path 18829" d="M455.292,952.511l-1.088.855s-5.4,1.745-11.53-5.175c-2.412-3.67-1.64-4.287-1.64-4.287l1.373.306S444.942,952.2,455.292,952.511Z" transform="translate(-440.917 -943.905)" fill="#37454d"/>
          </g>
          <g id="Group_3275" data-name="Group 3275" transform="translate(40.782)">
            <path id="Path_18830" data-name="Path 18830" d="M470.049,909.566a2.494,2.494,0,0,1,2.072-.856c1.532-.034,3.86,2.476,4.424,2.68s1.925.539.556,1.054S470.716,911.119,470.049,909.566Z" transform="translate(-470.049 -908.709)" fill="#4f3c22"/>
          </g>
          <g id="Group_3276" data-name="Group 3276" transform="translate(32.246 0.841)">
            <path id="Path_18831" data-name="Path 18831" d="M446.369,914.724s2.434-3.336,6.022-3.361a8.559,8.559,0,0,1,5.614,2.231c.81.69,1.45,1.524,2.21,2.256.5.487,1.134.708,1.626,1.238a5.985,5.985,0,0,1,1.268,5.166c-.451,1.651,1.424,6.5-4.105,7.683s-12.852-2.152-14.412-5.021S441.633,919.138,446.369,914.724Z" transform="translate(-443.117 -911.362)" fill="#dacaaf"/>
          </g>
          <g id="Group_3277" data-name="Group 3277" transform="translate(30.953 4.056)">
            <path id="Path_18832" data-name="Path 18832" d="M444.481,922.06a3.546,3.546,0,0,0-3.016-.316c-1.374.68-2.461.433-2.427,1.965s-.225,5.361,1.6,6.538,1.4-1.97,2.331-3.055S445.48,922.528,444.481,922.06Z" transform="translate(-439.037 -921.507)" fill="#4f3c22"/>
          </g>
          <g id="Group_3278" data-name="Group 3278" transform="translate(33.16 27.329)">
            <path id="Path_18833" data-name="Path 18833" d="M456.335,994.934s.3,4.436,2.513,4.783,7.572,2.64,6.6,3.895-2.536-.035-4.12-.056-6.2.637-10.058-.886c-3.626-.456-5.273,1.16-5.273,1.16Z" transform="translate(-446 -994.934)" fill="#d3c2a4"/>
          </g>
          <g id="Group_3279" data-name="Group 3279" transform="translate(0 13.479)">
            <path id="Path_18834" data-name="Path 18834" d="M344.942,961.718a4.569,4.569,0,0,1-3.56-4.366c-.117-3.407,2.123-6.176,5.535-6.114s3.35,3.153,2.642,3.608-4.879.957-4.272,4.706C345.76,961.151,344.942,961.718,344.942,961.718Z" transform="translate(-341.377 -951.237)" fill="#bcac98"/>
          </g>
        </g>
        <g id="Group_3281" data-name="Group 3281" transform="translate(47.247 138.988)">
          <path id="Path_18835" data-name="Path 18835" d="M491.917,485.693s.33,4.29,2.64,4.29,7.206-2.018,7.92-2.97c.99-1.32-.879-4.128-.879-4.128l1.539-.822s10.89,13.86,5.28,17.49-13.2,5.94-15.51,1.32-2.461-14.168-2.461-14.168Z" transform="translate(-490.446 -482.063)" fill="#f2d263"/>
        </g>
        <g id="Group_3282" data-name="Group 3282" transform="translate(70.827 197.727)">
          <path id="Path_18836" data-name="Path 18836" d="M568.8,667.389l2.97,2.31-.99,1.32-5.28-.99-.66-2.31Z" transform="translate(-564.844 -667.389)" fill="#3a3029"/>
        </g>
        <g id="Group_3283" data-name="Group 3283" transform="translate(84.687 191.457)">
          <path id="Path_18837" data-name="Path 18837" d="M608.572,649.917l2.97-2.145,2.64-.165.66,1.98-5.61,1.98Z" transform="translate(-608.572 -647.607)" fill="#3a3029"/>
        </g>
        <g id="Group_3284" data-name="Group 3284" transform="translate(43.792 166.485)">
          <path id="Path_18838" data-name="Path 18838" d="M479.543,570.205l11.276-1.387,26.777,5.25-.074,6.207-27.968,2.77-8.669-2.843Z" transform="translate(-479.543 -568.818)" fill="#aeccdc"/>
        </g>
        <g id="Group_3285" data-name="Group 3285" transform="translate(81.778 172.232)">
          <path id="Path_18839" data-name="Path 18839" d="M599.454,586.949l4.044,1.179,2.065,5.441-2.6,3.035-.99-4.29-2.579-.294Z" transform="translate(-599.393 -586.949)" fill="#dec2a7"/>
        </g>
        <g id="Group_3286" data-name="Group 3286" transform="translate(23.969 152.848)">
          <path id="Path_18840" data-name="Path 18840" d="M421.727,525.888l-4.727-.1v.99l3.63,1.98-.66.66.66.33,1.834-.912Z" transform="translate(-417 -525.791)" fill="#eacdb0"/>
        </g>
        <g id="Group_3287" data-name="Group 3287" transform="translate(76.575 134.368)">
          <path id="Path_18841" data-name="Path 18841" d="M582.977,469.5l.853-1.681,2.31-.33.99,1.65-.66,1.98-2.014.209Z" transform="translate(-582.977 -467.486)" fill="#eacdb0"/>
        </g>
        <g id="Group_3288" data-name="Group 3288" transform="translate(139.796 145.258)">
          <path id="Path_18842" data-name="Path 18842" d="M793.462,505.361l-2.043-2.918-5.383-.6-2.991,4.486-.6,4.187,4.486.9,4.686-6.181Z" transform="translate(-782.446 -501.845)" fill="#eacdb0"/>
        </g>
        <g id="Group_3301" data-name="Group 3301" transform="translate(210.745 187.042)">
          <g id="Group_3289" data-name="Group 3289" transform="translate(0 12.665)">
            <path id="Path_18843" data-name="Path 18843" d="M1029.394,687.826l-12.87-2.64-6.93-11.55-3.3,2.64,4.95,15.51,10.89,6.6Z" transform="translate(-1006.295 -673.636)" fill="#b26650"/>
          </g>
          <g id="Group_3290" data-name="Group 3290" transform="translate(11.88 78.664)">
            <path id="Path_18844" data-name="Path 18844" d="M1043.777,884.177v34.979h5.28l3.3-21.119,2.97-16.17Z" transform="translate(-1043.777 -881.867)" fill="#2e4661"/>
          </g>
          <g id="Group_3291" data-name="Group 3291" transform="translate(23.43 77.344)">
            <path id="Path_18845" data-name="Path 18845" d="M1080.218,877.7l1.98,15.18,2.64,24.42,5.28-.33v-18.81l2.64-19.14Z" transform="translate(-1080.218 -877.703)" fill="#2e4661"/>
          </g>
          <g id="Group_3292" data-name="Group 3292" transform="translate(4.116 26.325)">
            <path id="Path_18846" data-name="Path 18846" d="M1036.12,716.769s-5.61-.99-7.92,7.59-8.579,33.659-8.91,46.859,8.25,4.62,18.48,6.27,18.644,1.815,18.644-4.125S1060.044,716.934,1036.12,716.769Z" transform="translate(-1019.281 -716.734)" fill="#b26650"/>
          </g>
          <g id="Group_3296" data-name="Group 3296" transform="translate(13.976)">
            <g id="Group_3294" data-name="Group 3294" transform="translate(1.096 5.166)">
              <g id="Group_3293" data-name="Group 3293">
                <path id="Path_18847" data-name="Path 18847" d="M1056.51,654.117c4.672-8.24,15.14-2.968,15.858,5.241.408,4.668-2.716,12.453-8.214,12.058-.343.753-.943,2.181-1.717,2.5-.837.345-2.684-.887-3.417-1.343a1.294,1.294,0,0,1-.517-.484,2.429,2.429,0,0,1,.218-1.417,7.728,7.728,0,0,1-1.671-.965,9,9,0,0,1-3.194-7.559A18.068,18.068,0,0,1,1056.51,654.117Z" transform="translate(-1053.847 -649.977)" fill="#eacdb0"/>
              </g>
            </g>
            <g id="Group_3295" data-name="Group 3295">
              <path id="Path_18848" data-name="Path 18848" d="M1060.67,640.842s7.477,1.869,7.477,4.984c0,4.683.311,7.826,0,10.611l5.3-3.134,3.115-8.723s-.623-7.165-4.361-8.411a101.718,101.718,0,0,0-11.526-2.492l-5.919,1.869-4.361-.311,1.508,13.083S1053.817,638.973,1060.67,640.842Z" transform="translate(-1050.39 -633.677)" fill="#754c3d"/>
            </g>
          </g>
          <g id="Group_3297" data-name="Group 3297" transform="translate(26.73 27.515)">
            <path id="Path_18849" data-name="Path 18849" d="M1090.629,720.488l9.24,3.3,8.25,20.46,6.6,14.85-3.63,2.31-10.56-14.85Z" transform="translate(-1090.629 -720.488)" fill="#b26650"/>
          </g>
          <g id="Group_3298" data-name="Group 3298" transform="translate(47.19 66.124)">
            <path id="Path_18850" data-name="Path 18850" d="M1155.182,844.613l2.31,3.3,1.32-1.32h3.96l-3.96-4.29Z" transform="translate(-1155.182 -842.303)" fill="#eacdb0"/>
          </g>
          <g id="Group_3299" data-name="Group 3299" transform="translate(8.91 115.953)">
            <path id="Path_18851" data-name="Path 18851" d="M1037.376,999.518l-2.97,2.97,1.32,1.98,5.94-1.98v-2.97Z" transform="translate(-1034.406 -999.518)" fill="#8c9498"/>
          </g>
          <g id="Group_3300" data-name="Group 3300" transform="translate(28.93 116.661)">
            <path id="Path_18852" data-name="Path 18852" d="M1097.57,1001.979l1.1,4.345,3.63,1.32,1.98-.99-3.074-4.9Z" transform="translate(-1097.57 -1001.751)" fill="#8c9498"/>
          </g>
        </g>
        <g id="Group_3302" data-name="Group 3302" transform="translate(206.785 197.397)">
          <path id="Path_18853" data-name="Path 18853" d="M1001.061,668.658l-3.3-2.31-3.96.99.66,2.31,3.682,1.344Z" transform="translate(-993.801 -666.348)" fill="#eacdb0"/>
        </g>
        <g id="Group_3303" data-name="Group 3303" transform="translate(205.368 197.81)">
          <path id="Path_18854" data-name="Path 18854" d="M994.377,671.621l1.32-2.651-2.64-1.32-3.727.822.757,1.735Z" transform="translate(-989.33 -667.649)" fill="#dec2a7"/>
        </g>
      </g>
    </g>
  </g>
</svg>
