<svg xmlns="http://www.w3.org/2000/svg" xmlns:xlink="http://www.w3.org/1999/xlink" width="47.999" height="47.998" viewBox="0 0 47.999 47.998">
  <defs>
    <linearGradient id="linear-gradient" x1="0.5" x2="0.5" y2="1" gradientUnits="objectBoundingBox">
      <stop offset="0.13" stop-color="#00a9ed"/>
      <stop offset="1" stop-color="#65106b"/>
    </linearGradient>
  </defs>
  <g id="Sattelite" transform="translate(-4.081 -4.081)">
    <path id="Path_17247" data-name="Path 17247" d="M47.358,52.467a.851.851,0,1,1,0-1.7,3.425,3.425,0,0,0,3.409-3.415.885.885,0,0,1,.855-.851.851.851,0,0,1,.847.856,5.125,5.125,0,0,1-5.105,5.1Z" transform="translate(-7.194 -7.193)" fill="url(#linear-gradient)"/>
    <path id="Path_17248" data-name="Path 17248" d="M47.4,59.28a.851.851,0,0,1,0-1.7A10.229,10.229,0,0,0,57.578,47.4a.851.851,0,0,1,.851-.847h.005a.851.851,0,0,1,.846.856A11.932,11.932,0,0,1,47.4,59.28Z" transform="translate(-7.2 -7.2)" fill="url(#linear-gradient)"/>
    <path id="Path_17249" data-name="Path 17249" d="M47.379,55.873a.851.851,0,1,1,0-1.7,6.824,6.824,0,0,0,6.8-6.8.851.851,0,0,1,.851-.851h0a.851.851,0,0,1,.847.855,8.526,8.526,0,0,1-8.491,8.491Z" transform="translate(-7.197 -7.196)" fill="url(#linear-gradient)"/>
    <path id="Path_17250" data-name="Path 17250" d="M11.549,53.7l9.627-9.628a.851.851,0,0,0,0-1.2l-6.017-6.016a.851.851,0,0,0-1.2,0l-9.63,9.626a.851.851,0,0,0,0,1.2L10.345,53.7a.851.851,0,0,0,1.2,0ZM9.743,49.492l-.6.6a.851.851,0,1,1-1.2-1.2l.6-.6-1.808-1.81a.851.851,0,1,1,1.2-1.2l1.8,1.8,1.8-1.8-1.8-1.8a.851.851,0,1,1,1.2-1.2l1.8,1.8,1.8-1.806-1.8-1.8a.851.851,0,1,1,1.2-1.2l1.8,1.8.6-.6a.851.851,0,1,1,1.2,1.2l-.6.6,1.8,1.806a.851.851,0,1,1-1.2,1.2l-1.78-1.808-1.8,1.806,1.806,1.8a.851.851,0,1,1-1.2,1.2l-1.805-1.8-1.8,1.8,1.8,1.806a.851.851,0,1,1-1.2,1.2Z" transform="translate(0 -5.717)" fill="url(#linear-gradient)"/>
    <path id="Path_17251" data-name="Path 17251" d="M15.165,9.269a4.254,4.254,0,0,0-5.9,5.9Z" transform="translate(-0.668 -0.668)" fill="url(#linear-gradient)"/>
    <path id="Path_17252" data-name="Path 17252" d="M39.361,30.938a.851.851,0,0,0,0-1.2L18.9,9.278a.851.851,0,0,0-1.2,0L9.278,17.7a.851.851,0,0,0,0,1.2L29.735,39.361a.851.851,0,0,0,1.2,0Zm-10.83,2.406L15.3,20.108a2.553,2.553,0,0,1,0-3.609l1.2-1.2a2.553,2.553,0,0,1,3.609,0L33.344,28.532a2.553,2.553,0,0,1,0,3.609l-1.2,1.2a2.553,2.553,0,0,1-3.612,0Z" transform="translate(-0.738 -0.738)" fill="url(#linear-gradient)"/>
    <path id="Path_17253" data-name="Path 17253" d="M33.407,31,20.171,17.764a.851.851,0,0,0-1.2,0l-1.2,1.2a.851.851,0,0,0,0,1.2L31,33.407a.851.851,0,0,0,1.2,0l1.2-1.2a.851.851,0,0,0,0-1.2Z" transform="translate(-2.306 -2.306)" fill="url(#linear-gradient)"/>
    <path id="Path_17254" data-name="Path 17254" d="M0,0H1.7V1.7H0Z" transform="translate(18.49 32.687) rotate(-45)" fill="url(#linear-gradient)"/>
    <path id="Path_17255" data-name="Path 17255" d="M0,0H1.7V1.7H0Z" transform="translate(31.479 19.699) rotate(-45)" fill="url(#linear-gradient)"/>
    <path id="Path_17256" data-name="Path 17256" d="M49.106,43.21a4.254,4.254,0,0,0-5.9,5.9Z" transform="translate(-6.4 -6.4)" fill="url(#linear-gradient)"/>
    <path id="Path_17257" data-name="Path 17257" d="M36.856,15.158l6.017,6.016a.851.851,0,0,0,1.2,0L53.7,11.549a.851.851,0,0,0,0-1.2l-6.013-6.02a.851.851,0,0,0-1.2,0l-9.628,9.626a.851.851,0,0,0,0,1.2Zm2.407-2.407a.851.851,0,0,1,1.2,0l1.8,1.8,1.806-1.8-1.8-1.8a.851.851,0,1,1,1.2-1.2l1.8,1.806,1.8-1.8-1.8-1.806a.851.851,0,1,1,1.2-1.2l1.8,1.8.6-.6a.851.851,0,1,1,1.2,1.2l-.6.6,1.831,1.8a.851.851,0,1,1-1.2,1.2l-1.805-1.8-1.8,1.8,1.8,1.806a.851.851,0,1,1-1.2,1.2l-1.8-1.8-1.806,1.8,1.806,1.806a.851.851,0,1,1-1.2,1.2l-1.805-1.8-.6.6a.851.851,0,1,1-1.2-1.2l.6-.6-1.8-1.8a.851.851,0,0,1,0-1.2Z" transform="translate(-5.718)" fill="url(#linear-gradient)"/>
    <path id="Path_17258" data-name="Path 17258" d="M42.241,42.241a5.964,5.964,0,0,1,.649-.555l-1.252-1.251-1.2,1.2,1.251,1.252a5.964,5.964,0,0,1,.555-.649Z" transform="translate(-5.999 -5.999)" fill="url(#linear-gradient)"/>
  </g>
</svg>
