<?xml version="1.0" encoding="utf-8"?>
<!-- Generator: Adobe Illustrator 16.0.0, SVG Export Plug-In . SVG Version: 6.00 Build 0)  -->
<!DOCTYPE svg PUBLIC "-//W3C//DTD SVG 1.1//EN" "http://www.w3.org/Graphics/SVG/1.1/DTD/svg11.dtd">
<svg version="1.1" id="gift" xmlns="http://www.w3.org/2000/svg" xmlns:xlink="http://www.w3.org/1999/xlink" x="0px" y="0px"
	 width="42px" height="42px" viewBox="0 0 42 42" enable-background="new 0 0 42 42" xml:space="preserve">
<linearGradient id="gift_2_" gradientUnits="userSpaceOnUse" x1="-275.1592" y1="403.0498" x2="-274.2161" y2="404.2029" gradientTransform="matrix(30.396 0 0 -30.4764 8371.5645 12324.3838)">
	<stop  offset="0" style="stop-color:#00A9ED"/>
	<stop  offset="0.13" style="stop-color:#00A9ED"/>
	<stop  offset="1" style="stop-color:#65106B"/>
</linearGradient>
<path id="gift_1_" fill="url(#gift_2_)" d="M38.045,10.624h-8.492c2.265-1.896,2.564-5.27,0.668-7.536
	c-1.895-2.265-5.27-2.565-7.535-0.669c-0.291,0.229-0.341,0.651-0.113,0.942c0.23,0.292,0.651,0.343,0.942,0.113
	c1.74-1.371,4.265-1.071,5.637,0.669c1.37,1.741,1.071,4.263-0.67,5.635c-0.633,0.499-1.402,0.796-2.208,0.851h-4.279V6.621
	c0.002-2.956-2.391-5.354-5.346-5.357c-2.957-0.002-5.355,2.391-5.357,5.346c-0.002,1.535,0.656,2.998,1.806,4.014H4.604
	c-1.847,0.002-3.343,1.498-3.344,3.344v3.447c0.005,1.65,1.21,3.051,2.842,3.301v17.351c0.002,1.847,1.498,3.343,3.345,3.345h27.757
	c1.848-0.002,3.342-1.498,3.345-3.345V23.676c-0.016-0.369-0.329-0.655-0.699-0.64c-0.346,0.016-0.624,0.295-0.639,0.64v14.392
	c-0.001,1.106-0.898,2.004-2.007,2.007h-16.22V20.76h4.682v16.905c-0.017,0.372,0.27,0.684,0.639,0.699
	c0.368,0.018,0.682-0.268,0.697-0.637c0.002-0.021,0.002-0.042,0-0.063V20.76h7.442c0.368,0.016,0.682-0.27,0.697-0.639
	c0.017-0.369-0.27-0.682-0.64-0.698c-0.02-0.001-0.039-0.001-0.058,0h-4.431V11.96h10.033c1.108,0,2.006,0.898,2.007,2.007v3.447
	c-0.001,1.108-0.898,2.006-2.007,2.007h-1.295c-0.369-0.016-0.682,0.27-0.698,0.639c-0.017,0.369,0.27,0.682,0.641,0.7
	c0.019,0,0.039,0,0.058,0h1.295c1.847-0.004,3.344-1.5,3.345-3.346v-3.446C41.39,12.121,39.893,10.625,38.045,10.624z M12.629,6.621
	c0-2.216,1.797-4.013,4.014-4.013c2.216,0,4.012,1.797,4.012,4.013v4.003h-4.286C14.265,10.479,12.631,8.73,12.629,6.621z
	 M17.647,40.074H7.446c-1.108-0.003-2.006-0.9-2.007-2.007V20.76h12.207L17.647,40.074z M26.678,19.423H4.604
	c-1.109-0.001-2.006-0.899-2.007-2.007v-3.447c0-1.109,0.898-2.007,2.007-2.008h10.034v5.36c0.017,0.37,0.329,0.655,0.699,0.639
	c0.345-0.015,0.623-0.293,0.638-0.639v-5.36h10.703V19.423z"/>
</svg>
