<?xml version="1.0" encoding="utf-8"?>
<!-- Generator: Adobe Illustrator 14.0.0, SVG Export Plug-In . SVG Version: 6.00 Build 43363)  -->
<!DOCTYPE svg PUBLIC "-//W3C//DTD SVG 1.1//EN" "http://www.w3.org/Graphics/SVG/1.1/DTD/svg11.dtd">
<svg version="1.1" id="gift" xmlns="http://www.w3.org/2000/svg" xmlns:xlink="http://www.w3.org/1999/xlink" x="0px" y="0px"
	 width="42px" height="42px" viewBox="19.768 19.768 42 42" enable-background="new 19.768 19.768 42 42" xml:space="preserve">
<path id="Path_19091" fill="#12BEDA" d="M22.152,40.142h13.816v20.661H22.152V40.142z"/>
<path id="Path_19092" fill="#12BEDA" d="M38.473,40.142h4.591v20.661h-4.591V40.142z"/>
<path id="Path_19093" fill="#12BEDA" d="M45.567,40.142h13.816v20.661H45.567V40.142z"/>
<path id="Path_19094" fill="#12BEDA" d="M46.986,31.376h13.816v6.261H46.986V31.376z"/>
<path id="Path_19095" fill="#12BEDA" d="M37.053,31.376h7.431v6.261h-7.431V31.376z"/>
<path id="Path_19096" fill="#12BEDA" d="M20.733,31.376h13.815v6.261H20.733V31.376z"/>
<path id="Path_19097" fill="#12BEDA" d="M40.768,31.376c-4.62,0-11.896-1.04-11.896-5.635c0-3.183,1.825-5.009,5.008-5.009
	c2.298,0,4.374,1.58,6.171,4.696c0.782,1.374,1.422,2.823,1.913,4.325c0.204,0.661-0.166,1.362-0.827,1.567
	C41.019,31.357,40.894,31.376,40.768,31.376z M33.881,23.24c-1.802,0-2.506,0.702-2.506,2.506c0,1.762,3.632,2.821,7.563,3.072
	C37.941,26.483,36.067,23.24,33.881,23.24z"/>
<path id="Path_19098" fill="#12BEDA" d="M40.768,31.376c-0.692,0-1.252-0.561-1.252-1.253c0-0.125,0.019-0.249,0.056-0.369
	c0.49-1.502,1.132-2.952,1.915-4.326c1.795-3.116,3.872-4.696,6.168-4.696c3.184,0,5.01,1.826,5.01,5.009
	C52.664,30.34,45.378,31.376,40.768,31.376z M47.654,23.24c-2.193,0-4.064,3.246-5.061,5.577c3.931-0.251,7.567-1.311,7.567-3.073
	C50.159,23.939,49.457,23.24,47.654,23.24z"/>
</svg>
