<svg xmlns="http://www.w3.org/2000/svg" xmlns:xlink="http://www.w3.org/1999/xlink" width="145.576" height="145.626" viewBox="0 0 145.576 145.626">
  <defs>
    <linearGradient id="linear-gradient" x1="1.382" y1="-0.087" x2="-0.219" y2="1.26" gradientUnits="objectBoundingBox">
      <stop offset="0" stop-color="#fff"/>
      <stop offset="0.036" stop-color="#fff"/>
      <stop offset="0.502" stop-color="#98dbf9"/>
      <stop offset="1" stop-color="#fff"/>
    </linearGradient>
  </defs>
  <path id="gift_1_" data-name="gift (1)" d="M133.527,33.944H102.716a19.364,19.364,0,0,0,6.549-14.52c0-16.216-18.788-25.225-31.431-15.24A2.426,2.426,0,0,0,80.84,7.991a14.557,14.557,0,1,1,10,25.952H75.3V19.423a19.41,19.41,0,1,0-32.272,14.52H12.213A12.145,12.145,0,0,0,.082,46.075V58.581A12.15,12.15,0,0,0,10.394,70.576V133.5a12.145,12.145,0,0,0,12.131,12.131h100.69A12.145,12.145,0,0,0,135.347,133.5v-52.2a2.426,2.426,0,0,0-4.853,0v52.2a7.287,7.287,0,0,1-7.279,7.279H64.378V70.713H81.362v61.33a2.426,2.426,0,0,0,4.853,0V70.713h26.992a2.426,2.426,0,1,0,0-4.853H97.133V38.8h36.394a7.287,7.287,0,0,1,7.279,7.279V58.582a7.287,7.287,0,0,1-7.279,7.279h-4.7a2.426,2.426,0,1,0,0,4.853h4.7a12.145,12.145,0,0,0,12.131-12.131V46.075A12.145,12.145,0,0,0,133.527,33.944Zm-92.2-14.52a14.558,14.558,0,0,1,29.115,0v14.52H54.9A14.574,14.574,0,0,1,41.329,19.423Zm18.2,121.351h-37a7.287,7.287,0,0,1-7.279-7.279V70.713h44.28ZM92.28,65.86H12.213a7.287,7.287,0,0,1-7.279-7.279V46.075A7.287,7.287,0,0,1,12.213,38.8H48.607V58.244a2.426,2.426,0,0,0,4.853,0V38.8H92.28Z" transform="translate(-0.082 -0.001)" opacity="0.25" fill="url(#linear-gradient)"/>
</svg>
