<svg xmlns="http://www.w3.org/2000/svg" xmlns:xlink="http://www.w3.org/1999/xlink" width="431.623" height="361.994" viewBox="0 0 431.623 361.994">
  <defs>
    <linearGradient id="linear-gradient" x1="0.32" x2="0.886" y2="0.52" gradientUnits="objectBoundingBox">
      <stop offset="0" stop-color="#b5e2f6"/>
      <stop offset="1" stop-color="#cae4ef"/>
    </linearGradient>
  </defs>
  <g id="Group_4216" data-name="Group 4216" transform="translate(-200 -2526.006)">
    <path id="Path_19750" data-name="Path 19750" d="M411.911,85.587a89.924,89.924,0,0,0-2.7,34.051c1.651,14.336,6.729,28.185,11.165,42.078,6.1,19.1,6.408,52.63,0,71.913-2.243,6.747-53.458,120.514-53.475,121.01,0,0,72.062.027,0,.035s-287.777,0-288.252,0c-3.379-.025-6.8-14.226-7.177-15.925C69,327.7,56.684,315.891,61.808,305.519c7.274-14.725,14.855-26.43,7.518-42.627C64.5,252.237,55.163,243.983,49.819,233.63a122.792,122.792,0,0,1-8.843-90.176C50.191,111.36,71.358,88.893,98.328,66.53c24.221-20.083,44.207-43.935,65.5-66.247H467.816s0,10.64,0,10.652c-.117,4.439-12.063,13.74-15.352,17.128-12.728,13.108-26.294,24.639-34.12,40.57a95.969,95.969,0,0,0-6.433,16.954" transform="translate(163.807 2525.723)" opacity="0.46" fill="url(#linear-gradient)"/>
    <path id="Path_19753" data-name="Path 19753" d="M110.73,324.053a251.193,251.193,0,0,1-25.47-36.592l.005,0-.1-.167c2.1-1.693,10.062-9.022,4.877-19.245l-.325-.642-.608.386c-6.581,4.182-7.248,10.312-6.706,14.6-1.831-3.338-3.655-6.823-5.429-10.448q-1.286-2.631-2.565-5.421l.086-.023-.081-.178c2.276-1.454,10.99-7.864,6.959-18.594l-.254-.674-.647.318c-7.226,3.545-8.415,9.845-8.255,14.193-2.065-4.823-4.051-9.939-5.865-15.3,2.552-1.169,11.917-6.281,9.472-17.386l-.154-.7-.685.222c-7.746,2.507-9.779,8.689-10.206,13.023-1.552-5.016-2.925-10.221-4.064-15.568,2.637-.99,12.328-5.422,10.682-16.665l-.1-.712-.7.173C63.1,210.5,60.494,216,59.616,220.228a148.728,148.728,0,0,1-1.936-15.912c2.8-.51,13.078-3.152,13.47-14.482l.024-.719-.718.044c-7.966.494-11.49,5.77-13.031,9.831a125.076,125.076,0,0,1,1.144-20.937c2.687-.059,13.458-1,15.588-12.274l.133-.707-.718-.065c-7.523-.68-11.762,3.489-14.01,7.146a112.684,112.684,0,0,1,3.294-12.924c1.554-1.059,11.072-8.113,6.189-19.163l-.289-.659-.629.353c-10.564,5.945-7.111,17.356-6.519,19.071a114.214,114.214,0,0,0-3.354,13.193c-.869-4.213-3.452-9.631-10.836-11.526l-.7-.179-.112.711c-1.766,11.326,8.069,15.832,10.593,16.793l-.043.191.089.005a125.887,125.887,0,0,0-1.166,19.652,14.046,14.046,0,0,0-12.162-9.006l-.716-.071,0,.72c-.03,11.464,10.376,14.426,13.015,14.993l-.014.195.176-.017a150.232,150.232,0,0,0,1.88,15.555A14.152,14.152,0,0,0,44.4,212.91l-.718.058.127.708c2.022,11.29,12.8,12.339,15.487,12.423l.021.2.149-.043c1,4.685,2.183,9.256,3.5,13.688a14,14,0,0,0-13.807-5.422l-.712.109.179.7c2.62,10.324,12.146,11.3,15.645,11.3.273,0,.493-.007.688-.014L65,246.8l.142-.052c1.648,4.866,3.435,9.537,5.3,13.968A14.035,14.035,0,0,0,55.783,257.1l-.689.209.273.665c3.205,7.767,9.834,9.166,14.193,9.166a20,20,0,0,0,3.553-.312q1.343,2.945,2.7,5.72c1.672,3.416,3.386,6.7,5.114,9.868a14.1,14.1,0,0,0-15.295-2.248l-.661.284.345.631a14.043,14.043,0,0,0,12.977,7.672,20.237,20.237,0,0,0,5.659-.827l.082.178.063-.043a253,253,0,0,0,25.653,36.855.653.653,0,1,0,.979-.865M74.692,229.885c1.671,9.519-6.115,13.932-8.655,15.1-.273-2.782-.4-11.732,8.655-15.1M70.2,210.11c.986,9.614-7.1,13.46-9.712,14.447-.075-2.8.437-11.732,9.712-14.447m-.4-19.585c-.746,9.626-9.368,11.968-12.128,12.474.455-2.744,2.64-11.462,12.128-12.474m2.161-24.284c.25,0,.5.005.757.017-2.2,9.413-11.094,10.414-13.888,10.494.818-2.6,4.056-10.511,13.132-10.511m8.432,82.644c3.005,9.175-4.056,14.648-6.409,16.173-.635-2.708-1.962-11.6,6.409-16.173M68.133,141.276c3.521,9-3.238,14.866-5.494,16.516-.82-2.673-2.718-11.419,5.494-16.516M47.8,161.964c9.249,2.8,9.675,11.743,9.574,14.537-2.606-1.01-10.651-4.933-9.574-14.537m-3.28,28.092c9.555,1.367,11.337,10.121,11.664,12.909-2.707-.631-11.268-3.376-11.664-12.909m.719,24.113c9.627-.361,12.964,7.932,13.785,10.615-2.779-.137-11.691-1.307-13.785-10.615m4.85,21.546c9.609-1.052,13.507,7,14.511,9.613-2.8.088-11.733-.359-14.511-9.613m6.781,22.44c9.023-2.325,13.992,4.481,15.56,7.158.042.1.086.193.129.289-2.783.46-11.682,1.169-15.69-7.447M89.2,269.3c3.992,8.791-2.426,15-4.6,16.78-.927-2.623-3.222-11.313,4.6-16.78M66.833,281.095c9.036-3.418,14.831,3.4,16.452,5.68-2.681.791-11.448,2.588-16.452-5.68" transform="translate(177.109 2503.488)" fill="#fff"/>
    <g id="Group_3898" data-name="Group 3898" transform="translate(-10 2406)">
      <g id="Group_3305" data-name="Group 3305" transform="translate(27 -4)">
        <path id="Path_12" data-name="Path 12" d="M68.6,427.8s-13.843-46.929-27.986-66.252-14.5-49.192,8.485-50.874,32.691,32.4,38.974,57.434S93.649,427.8,93.649,427.8Z" transform="translate(187.409 33.671)" fill="#fff"/>
        <path id="Path_13" data-name="Path 13" d="M88.88,401.568a.457.457,0,0,0-.631.137l-7.219,11.234q-2.263-9.7-4.611-18.2l7.945-14.489a.457.457,0,0,0-.8-.439l-7.492,13.663c-1.863-6.718-3.739-12.877-5.583-18.493l6.868-19.021a.456.456,0,0,0-.274-.585.461.461,0,0,0-.585.273l-6.474,17.93c-2.911-8.758-5.728-16.159-8.269-22.259l4.558-16.252a.457.457,0,1,0-.88-.246l-4.246,15.143c-6.017-14.227-10.349-20.96-10.44-21.1a.457.457,0,0,0-.764.5c.091.139,4.444,6.911,10.479,21.226L45.89,346.529a.457.457,0,1,0-.245.88l15.266,4.26c2.548,6.119,5.378,13.554,8.3,22.364L54.1,366.609a.457.457,0,0,0-.4.82l15.918,7.821c1.858,5.663,3.75,11.878,5.63,18.667l-12.989-4.946a.456.456,0,1,0-.324.853l13.612,5.183q2.348,8.564,4.638,18.327l-12.846-5.267a.457.457,0,0,0-.346.846l13.443,5.511q1.573,6.823,3.082,14.231a.458.458,0,0,0,.448.366.439.439,0,0,0,.09-.009.457.457,0,0,0,.357-.539q-1.508-7.449-3.1-14.292l7.7-11.982a.457.457,0,0,0-.137-.631" transform="translate(186.15 32.107)" fill="#98dbf9"/>
      </g>
      <g id="Group_3306" data-name="Group 3306" transform="translate(-93.638 88.536) rotate(-16)">
        <path id="Path_14" data-name="Path 14" d="M74.332,431.733h-20.7S13.935,389.1,23.225,370.2s24.75-18.447,32.881-1.269,18.225,62.8,18.225,62.8" transform="translate(188.186 29.735)" fill="#fff"/>
        <path id="Path_15" data-name="Path 15" d="M66.762,418.81a.458.458,0,0,0-.593.255l-3.022,7.576c-1.269-3.6-2.62-7.213-4.01-10.775l4.419-10.527a.457.457,0,1,0-.842-.353l-4.054,9.66c-1.617-4.1-3.274-8.122-4.906-11.955l4.781-12.634a.456.456,0,0,0-.854-.322l-4.444,11.742c-2.229-5.2-4.388-10.007-6.305-14.169l4.646-11.658a.457.457,0,1,0-.849-.339L46.4,386.165c-3.841-8.289-6.577-13.708-6.643-13.839a.457.457,0,1,0-.815.414c.067.132,2.835,5.614,6.709,13.982L33.2,384.693a.456.456,0,1,0-.147.9l13.068,2.128c1.938,4.206,4.123,9.076,6.374,14.335L37.342,398.84a.457.457,0,1,0-.19.894l15.777,3.349c1.655,3.886,3.334,7.964,4.971,12.127l-12.653-2.934a.457.457,0,0,0-.206.891L58.3,416.24c1.41,3.615,2.78,7.284,4.065,10.934l-9.052-3.331A.457.457,0,0,0,53,424.7l9.758,3.591q.818,2.356,1.586,4.694a.456.456,0,0,0,.434.315.482.482,0,0,0,.142-.022.458.458,0,0,0,.292-.576q-.77-2.361-1.6-4.749l3.41-8.55a.456.456,0,0,0-.255-.594" transform="translate(187.246 28.346)" fill="#98dbf9"/>
      </g>
    </g>
    <g id="Group_3896" data-name="Group 3896" transform="translate(484.563 2747.281)">
      <g id="Group_3307" data-name="Group 3307" transform="translate(0 0)">
        <path id="Path_12-2" data-name="Path 12" d="M55.841,427.8s13.843-46.929,27.986-66.252,14.5-49.191-8.485-50.874-32.692,32.4-38.974,57.434S30.8,427.8,30.8,427.8Z" transform="translate(-30.772 -310.611)" fill="#fff"/>
        <path id="Path_13-2" data-name="Path 13" d="M45.52,401.568a.457.457,0,0,1,.631.137l7.219,11.234q2.263-9.7,4.611-18.2l-7.945-14.489a.457.457,0,0,1,.8-.439l7.492,13.663c1.863-6.718,3.739-12.877,5.583-18.493l-6.868-19.021a.456.456,0,0,1,.274-.585.461.461,0,0,1,.585.273l6.474,17.93c2.911-8.758,5.728-16.158,8.269-22.259l-4.558-16.252a.457.457,0,1,1,.88-.246l4.246,15.143c6.017-14.227,10.349-20.96,10.44-21.1a.457.457,0,0,1,.765.5c-.091.139-4.444,6.911-10.479,21.226l14.571-4.065a.457.457,0,1,1,.245.88l-15.266,4.26c-2.548,6.119-5.378,13.554-8.3,22.364L80.3,366.609a.457.457,0,0,1,.4.82L64.784,375.25c-1.858,5.663-3.75,11.878-5.63,18.667l12.989-4.946a.456.456,0,1,1,.324.853l-13.612,5.183q-2.348,8.564-4.638,18.327l12.846-5.267a.457.457,0,0,1,.346.846l-13.443,5.511q-1.573,6.823-3.082,14.231a.458.458,0,0,1-.448.366.439.439,0,0,1-.09-.009.457.457,0,0,1-.357-.539q1.508-7.449,3.1-14.292l-7.7-11.982a.457.457,0,0,1,.137-.631" transform="translate(-39.467 -312.175)" fill="#98dbf9"/>
      </g>
      <g id="Group_3308" data-name="Group 3308" transform="translate(72.607 134.132) rotate(-164)">
        <path id="Path_14-2" data-name="Path 14" d="M52.516,0h-20.7S-7.881,42.635,1.409,61.531,26.159,79.979,34.29,62.8,52.516,0,52.516,0" transform="translate(0 0.178)" fill="#fff"/>
        <path id="Path_15-2" data-name="Path 15" d="M34.1,14.491a.458.458,0,0,1-.593-.255L30.482,6.659c-1.269,3.6-2.62,7.213-4.01,10.775l4.419,10.527a.457.457,0,1,1-.842.353l-4.054-9.66c-1.617,4.1-3.274,8.122-4.906,11.955l4.781,12.634a.456.456,0,0,1-.854.322L20.572,31.823c-2.229,5.2-4.388,10.007-6.305,14.169L18.913,57.65a.457.457,0,1,1-.849.339L13.739,47.136C9.9,55.424,7.162,60.843,7.1,60.974a.457.457,0,1,1-.815-.414c.067-.132,2.835-5.615,6.709-13.982L.53,48.607a.456.456,0,1,1-.147-.9l13.068-2.128c1.938-4.206,4.123-9.076,6.374-14.335L4.677,34.461a.457.457,0,1,1-.19-.894l15.777-3.349c1.655-3.886,3.334-7.964,4.971-12.127L12.582,21.024a.457.457,0,0,1-.206-.891L25.638,17.06c1.41-3.615,2.78-7.284,4.065-10.934L20.65,9.457a.457.457,0,0,1-.316-.857l9.759-3.591q.818-2.356,1.586-4.694A.456.456,0,0,1,32.112,0a.482.482,0,0,1,.142.022A.458.458,0,0,1,32.546.6q-.77,2.361-1.6,4.749l3.41,8.55a.456.456,0,0,1-.255.594" transform="translate(9.909 0)" fill="#98dbf9"/>
      </g>
    </g>
    <path id="Path_19751" data-name="Path 19751" d="M43.367,324.052a251.193,251.193,0,0,0,25.47-36.592l-.005,0,.1-.167c-2.1-1.693-10.062-9.022-4.877-19.245l.325-.642.608.386c6.581,4.182,7.248,10.312,6.706,14.6,1.831-3.338,3.655-6.823,5.429-10.448q1.286-2.631,2.565-5.421L79.6,266.5l.081-.178c-2.276-1.454-10.991-7.864-6.959-18.594l.254-.674.647.318c7.226,3.545,8.415,9.845,8.255,14.193,2.065-4.823,4.051-9.939,5.865-15.3-2.552-1.169-11.917-6.281-9.472-17.386l.154-.7.685.222c7.746,2.507,9.779,8.689,10.206,13.023,1.552-5.016,2.925-10.221,4.064-15.568-2.637-.99-12.328-5.422-10.682-16.665l.1-.712.7.173C91,210.5,93.6,216,94.481,220.227a148.726,148.726,0,0,0,1.936-15.912c-2.8-.51-13.078-3.152-13.47-14.482l-.024-.719.718.044c7.966.494,11.49,5.77,13.031,9.831a125.074,125.074,0,0,0-1.144-20.936c-2.687-.059-13.458-1-15.588-12.274l-.133-.707.718-.065c7.523-.68,11.762,3.489,14.01,7.146a112.683,112.683,0,0,0-3.294-12.924c-1.554-1.059-11.072-8.113-6.189-19.163l.289-.659.629.353c10.564,5.945,7.111,17.356,6.519,19.071a114.212,114.212,0,0,1,3.354,13.193c.869-4.213,3.452-9.631,10.836-11.526l.7-.179.112.711c1.766,11.326-8.069,15.832-10.593,16.793l.043.191-.089.005a125.887,125.887,0,0,1,1.166,19.652,14.046,14.046,0,0,1,12.162-9.006l.716-.071,0,.72c.03,11.464-10.376,14.426-13.015,14.993l.014.195-.176-.017a150.228,150.228,0,0,1-1.88,15.555,14.152,14.152,0,0,1,13.858-7.13l.718.058-.127.708c-2.022,11.29-12.8,12.339-15.487,12.423l-.021.2-.149-.043c-1,4.685-2.183,9.256-3.5,13.688a14,14,0,0,1,13.807-5.422l.712.109-.179.7c-2.62,10.324-12.146,11.3-15.645,11.3-.273,0-.493-.007-.688-.014l-.035.195-.142-.052c-1.648,4.866-3.435,9.537-5.3,13.968A14.035,14.035,0,0,1,98.314,257.1l.689.209-.273.665c-3.205,7.767-9.834,9.166-14.193,9.166a20,20,0,0,1-3.553-.312q-1.343,2.945-2.7,5.72c-1.672,3.416-3.386,6.7-5.114,9.868a14.1,14.1,0,0,1,15.295-2.248l.661.284-.345.631A14.043,14.043,0,0,1,75.8,288.755a20.237,20.237,0,0,1-5.659-.827l-.082.178L70,288.063a252.993,252.993,0,0,1-25.653,36.855.653.653,0,1,1-.979-.865M79.4,229.884c-1.671,9.519,6.115,13.932,8.655,15.1.273-2.782.4-11.732-8.655-15.1M83.9,210.11c-.986,9.614,7.1,13.46,9.712,14.447.075-2.8-.437-11.732-9.712-14.447m.4-19.585c.746,9.626,9.368,11.968,12.128,12.474-.455-2.744-2.64-11.462-12.128-12.474m-2.161-24.284c-.25,0-.5.005-.757.017,2.2,9.413,11.094,10.414,13.888,10.494-.818-2.6-4.056-10.511-13.132-10.511M73.7,248.885c-3.005,9.175,4.056,14.648,6.409,16.173.635-2.708,1.962-11.6-6.409-16.173M85.964,141.276c-3.521,9,3.238,14.866,5.494,16.516.82-2.673,2.718-11.419-5.494-16.516m20.33,20.688c-9.249,2.8-9.675,11.743-9.574,14.537,2.606-1.01,10.651-4.933,9.574-14.537m3.28,28.092c-9.555,1.367-11.337,10.121-11.664,12.909,2.707-.631,11.268-3.376,11.664-12.909m-.719,24.113c-9.627-.361-12.964,7.932-13.785,10.615,2.779-.137,11.691-1.307,13.785-10.615m-4.85,21.546c-9.609-1.052-13.507,7-14.511,9.613,2.8.088,11.733-.359,14.511-9.613m-6.781,22.44c-9.023-2.325-13.992,4.481-15.56,7.158-.042.1-.086.193-.129.289,2.783.46,11.682,1.169,15.69-7.447M64.9,269.3c-3.992,8.791,2.426,15,4.6,16.78.927-2.623,3.222-11.313-4.6-16.78m22.364,11.793c-9.036-3.418-14.831,3.4-16.452,5.68,2.681.791,11.448,2.588,16.452-5.68" transform="translate(447.109 2503.488)" fill="#fff"/>
    <path id="Path_19752" data-name="Path 19752" d="M378.463,454.351c0,8.728-74.738,15.8-166.933,15.8S44.6,463.079,44.6,454.351,119.335,438.54,211.53,438.54s166.933,7.08,166.933,15.811" transform="translate(179.537 2417.844)" fill="#c7dbe4"/>
    <g id="Group_3905" data-name="Group 3905" transform="translate(-127 -424.854)">
      <g id="Group_3902" data-name="Group 3902" transform="translate(375.969 3220.071)">
        <rect id="Rectangle_1045" data-name="Rectangle 1045" width="4.895" height="0.193" transform="translate(34.469 62.418)" fill="#ebebeb"/>
        <path id="Path_19476" data-name="Path 19476" d="M80.063,316.562s-4.474-8.756.638-17.388,6.593-10.666,3.335-12.434-4.754,6.9-4.754,6.9a17.623,17.623,0,0,1-.479-12.211c2.27-6.245,3.691-16.417.594-17.508s-.592,12.689-3.28,17.386a37.058,37.058,0,0,1-2.628-10.245c-.372-5.016.208-13.025-2.238-15.079s-4.013-.634-1.609,10.435a104.2,104.2,0,0,1,2.386,20.068s-5.309-14.521-8.872-14.944-3.559,4.279-.509,8.357,8.932,11.386,9.9,15.145c0,0-5.828-10.927-11.07-7.578s4.563,9.949,8.933,12.334,7.405,17.335,7.405,17.335Z" transform="translate(-59.969 -255.194)" fill="#407bff"/>
        <g id="Group_3759" data-name="Group 3759" transform="translate(0 0)" opacity="0.2" style="isolation: isolate">
          <g id="Group_3758" data-name="Group 3758" transform="translate(0 0)">
            <rect id="Rectangle_1080" data-name="Rectangle 1080" width="25.795" height="61.946" transform="translate(0 0)" fill="none"/>
            <path id="Path_19477" data-name="Path 19477" d="M80.063,316.562s-4.474-8.756.638-17.388,6.593-10.666,3.335-12.434-4.754,6.9-4.754,6.9a17.623,17.623,0,0,1-.479-12.211c2.27-6.245,3.691-16.417.594-17.508s-.592,12.689-3.28,17.386a37.058,37.058,0,0,1-2.628-10.245c-.372-5.016.208-13.025-2.238-15.079s-4.013-.634-1.609,10.435a104.2,104.2,0,0,1,2.386,20.068s-5.309-14.521-8.872-14.944-3.559,4.279-.509,8.357,8.932,11.386,9.9,15.145c0,0-5.828-10.927-11.07-7.578s4.563,9.949,8.933,12.334,7.405,17.335,7.405,17.335Z" transform="translate(-59.969 -255.194)"/>
          </g>
        </g>
        <path id="Path_19478" data-name="Path 19478" d="M79.611,321.168s4.357-8.816-.87-17.377-6.736-10.578-3.5-12.389,4.846,6.841,4.846,6.841a17.618,17.618,0,0,0,.315-12.217c-2.352-6.215-3.91-16.366-.826-17.5s.761,12.68,3.511,17.34a37.033,37.033,0,0,0,2.491-10.279c.305-5.021-.382-13.021,2.037-15.109s4-.686,1.749,10.413a104.24,104.24,0,0,0-2.117,20.1s5.115-14.59,8.671-15.061,3.617,4.231.622,8.35-8.78,11.5-9.695,15.276c0,0,5.683-11,10.968-7.727s-4.429,10.01-8.766,12.453-7.174,17.432-7.174,17.432Z" transform="translate(-63.049 -256.209)" fill="#407bff"/>
        <path id="Path_19479" data-name="Path 19479" d="M96.82,331.163H60.828l2.913,23.1H93.908Z" transform="translate(-60.164 -272.435)" fill="#407bff"/>
        <g id="Group_3761" data-name="Group 3761" transform="translate(0.664 58.728)" opacity="0.6" style="isolation: isolate">
          <g id="Group_3760" data-name="Group 3760">
            <rect id="Rectangle_1081" data-name="Rectangle 1081" width="35.992" height="23.102" fill="none"/>
            <path id="Path_19480" data-name="Path 19480" d="M96.82,331.163H60.828l2.913,23.1H93.908Z" transform="translate(-60.828 -331.163)" fill="#fff"/>
          </g>
        </g>
      </g>
      <g id="Group_3903" data-name="Group 3903" transform="translate(395.489 3075.608)">
        <rect id="Rectangle_1050" data-name="Rectangle 1050" width="7.193" height="30.928" transform="matrix(0.985, -0.17, 0.17, 0.985, 53.752, 30.06)" fill="#ebebeb"/>
        <rect id="Rectangle_1052" data-name="Rectangle 1052" width="7.195" height="26.852" transform="translate(46.558 33.686)" fill="#ebebeb"/>
        <rect id="Rectangle_1058" data-name="Rectangle 1058" width="7.194" height="30.929" transform="translate(64.033 72.355)" fill="#ebebeb"/>
        <rect id="Rectangle_1063" data-name="Rectangle 1063" width="26.853" height="7.194" transform="translate(48.759 101.723) rotate(-77.473)" fill="#ebebeb"/>
        <rect id="Rectangle_1069" data-name="Rectangle 1069" width="7.194" height="30.929" transform="translate(52.06 115.1)" fill="#ebebeb"/>
        <rect id="Rectangle_1073" data-name="Rectangle 1073" width="7.195" height="26.852" transform="translate(84.462 119.176)" fill="#ebebeb"/>
        <rect id="Rectangle_1076" data-name="Rectangle 1076" width="3.597" height="32.464" transform="translate(78.797 113.565)" fill="#ebebeb"/>
        <path id="Path_19481" data-name="Path 19481" d="M214.743,105.028l.385-5.83s-1.391-1.708-1.286-2.706,2.5-6.521,3.309-6.712,4.792,2.253,4.735,3.531-2.815,5.755-3.241,6.077l-.034,6.233Z" transform="translate(-110.594 -83.189)" fill="#e4897b"/>
        <path id="Path_19482" data-name="Path 19482" d="M145.052,85.52c-3.527.986-5.347,7.407-3.672,19.39s-2.963,27.895-2.963,27.895,19.261,5.991,31.373-1.674-5.154-22.87-5.154-22.87,7.022,4.767,9.406,11.209a6.22,6.22,0,0,0,.387-3.544,23.085,23.085,0,0,0-6.571-8.052c-4.767-3.8-.773-12.755-4.123-17.587s-5.09-8.569-18.682-4.767" transform="translate(-93.478 -81.869)" fill="#263238"/>
        <path id="Path_19483" data-name="Path 19483" d="M172.243,101.479s-.387,6.957,2.062,8.632,7.537,3.027,9.212,6.249" transform="translate(-101.149 -85.846)" fill="none" stroke="#263238" stroke-linecap="round" stroke-linejoin="round" stroke-width="0.488"/>
        <path id="Path_19484" data-name="Path 19484" d="M176.641,119.071c7.077.521,20.991,11.711,24.857,12.484s4.38-26.508,4.38-26.508h5.67s-1.031,29.94-5.154,33.252-30.45-6.717-30.45-6.717Z" transform="translate(-101.994 -86.656)" fill="#407bff"/>
        <g id="Group_3763" data-name="Group 3763" transform="translate(73.946 18.391)" opacity="0.3" style="isolation: isolate">
          <g id="Group_3762" data-name="Group 3762" transform="translate(0 0)">
            <rect id="Rectangle_1082" data-name="Rectangle 1082" width="35.607" height="33.924" transform="translate(0)" fill="none"/>
            <path id="Path_19485" data-name="Path 19485" d="M211.547,105.047s-1.028,29.936-5.156,33.254c-2.69,2.164-14.85-1.374-22.967-4.072-3.007-1-5.458-1.9-6.664-2.342l-.82-.313.7-12.5c7.073.518,20.988,11.707,24.854,12.48s4.383-26.506,4.383-26.506Z" transform="translate(-175.939 -105.047)"/>
          </g>
        </g>
        <path id="Path_19486" data-name="Path 19486" d="M214,104.047h6.184l.676,2.319H214Z" transform="translate(-110.631 -86.429)" fill="#407bff"/>
        <g id="Group_3765" data-name="Group 3765" transform="translate(74.766 39.69)" opacity="0.2" style="isolation: isolate">
          <g id="Group_3764" data-name="Group 3764" transform="translate(0 0)">
            <rect id="Rectangle_1083" data-name="Rectangle 1083" width="6.664" height="7.869" fill="none"/>
            <path id="Path_19487" data-name="Path 19487" d="M183.664,140.468c-3.007-1-5.458-1.893-6.664-2.334V132.6s4.862,3.362,6.664,7.869" transform="translate(-177 -132.599)"/>
          </g>
        </g>
        <path id="Path_19488" data-name="Path 19488" d="M160.388,285.793c-4.932,6.2-9.366,11.828-13.231,15.925v.007c-3.865,4.151-5.855,6.726-5.855,6.726l-3.827-2.2s3.535-5.589,8.327-13.3c4.075-6.539,9.066-14.61,13.595-22.085,5.86-9.663,10.949-18.329,12.294-21.431.958-2.2-1.638-10.667-4.506-18.645-2.914-8.124-6.114-15.756-6.114-15.756L171.5,197.379s4.244,11.758,8.017,24.166c2.482,8.117,4.736,16.52,5.5,22.1,1.068,7.794-12.385,26.741-24.63,42.148" transform="translate(-93.264 -107.61)" fill="#e4897b"/>
        <g id="Group_3767" data-name="Group 3767" transform="translate(52.548 163.263)" opacity="0.2" style="isolation: isolate">
          <g id="Group_3766" data-name="Group 3766" transform="translate(0 0)">
            <rect id="Rectangle_1084" data-name="Rectangle 1084" width="14.611" height="30.844" transform="translate(0 0)" fill="none"/>
            <path id="Path_19489" data-name="Path 19489" d="M162.871,307.369c-4.932,6.2-9.671,11.828-13.2,15.925-.5-2.52-1.013-5.506-1.415-8.759,4.074-6.539,9.06-14.61,13.59-22.085a85.535,85.535,0,0,0,1.02,14.92" transform="translate(-148.26 -292.449)"/>
          </g>
        </g>
        <path id="Path_19491" data-name="Path 19491" d="M158.808,319.253l-4.445.58s-6.378-31.393-6.184-57.3a220.714,220.714,0,0,1-5.535-26.074c-1.562-10.606-2.335-22.419-.263-31.232l15.461,6.957.317,23.192.263,19.326Z" transform="translate(-94.092 -109.392)" fill="#e4897b"/>
        <g id="Group_3771" data-name="Group 3771" transform="translate(47.031 95.836)" opacity="0.2" style="isolation: isolate">
          <g id="Group_3770" data-name="Group 3770" transform="translate(0 0)">
            <rect id="Rectangle_1086" data-name="Rectangle 1086" width="17.036" height="31.232" transform="translate(0 0)" fill="none"/>
            <path id="Path_19492" data-name="Path 19492" d="M158.159,235.377l-15.515,1.083c-1.562-10.606-2.335-22.419-.263-31.232l15.461,6.957Z" transform="translate(-141.123 -205.228)"/>
          </g>
        </g>
        <path id="Path_19493" data-name="Path 19493" d="M135.821,335.06c.455-.33,4.3,5.436,4.3,5.436s-.857,6.01.881,9.888-1.639,3.546-4.443-.127l-6.94-9.086c-1.993-2.609,1.476-2.676,6.2-6.112" transform="translate(-91.351 -138.854)" fill="#263238"/>
        <path id="Path_19494" data-name="Path 19494" d="M144.609,346.651c-.874-.206-1.441-2.7-1.546-3.2a.289.289,0,0,1,0-.073h0a.2.2,0,0,1,.02-.055h0a.139.139,0,0,1,.038-.047h0a.179.179,0,0,1,.063-.036,4,4,0,0,1,2.584-.031,1.061,1.061,0,0,1,.524.727c.073.341.011.581-.186.714-.3.2-.892.032-1.472-.231a2.811,2.811,0,0,1,.806,1.337.73.73,0,0,1-.146.577.723.723,0,0,1-.564.329.623.623,0,0,1-.125-.014m.084-.355c.036.008.144.034.318-.187a.385.385,0,0,0,.072-.3c-.075-.57-.936-1.406-1.543-1.917.275,1.072.743,2.311,1.153,2.408m-1.006-2.807c.932.578,1.958,1.037,2.218.862.08-.054.055-.234.033-.336a.7.7,0,0,0-.35-.487,1.7,1.7,0,0,0-.833-.175,4.977,4.977,0,0,0-1.068.137" transform="translate(-94.531 -140.656)" fill="#407bff"/>
        <path id="Path_19495" data-name="Path 19495" d="M155.988,349.758c.012-.564,6.932-.135,6.932-.135s4.256,4.35,8.391,5.323,1.824,3.473-2.8,3.473H157.083c-3.284,0-1.232-2.824-1.095-8.661" transform="translate(-97.293 -142.126)" fill="#263238"/>
        <path id="Path_19496" data-name="Path 19496" d="M166.147,350.107a.171.171,0,0,1-.058-.043h0a.2.2,0,0,1-.032-.051h0a.134.134,0,0,1-.012-.056h0a.2.2,0,0,1,.011-.073c.03-.083.61-1.685,1.545-2.073a1.069,1.069,0,0,1,.9.024c.315.151.468.346.455.582-.022.364-.515.728-1.077,1.029a2.844,2.844,0,0,1,1.552.17.737.737,0,0,1,.37.468.663.663,0,0,1-.168.737.952.952,0,0,1-.61.166,8.679,8.679,0,0,1-2.867-.877m.632-.116c1.02.432,2.287.813,2.614.545.028-.023.114-.094.046-.366a.384.384,0,0,0-.2-.242,1.714,1.714,0,0,0-.816-.151,8.146,8.146,0,0,0-1.646.213m.959-1.847a3.013,3.013,0,0,0-1.187,1.487c1.025-.39,2.015-.927,2.032-1.238.005-.1-.152-.186-.247-.231a.691.691,0,0,0-.6-.018" transform="translate(-99.747 -141.73)" fill="#407bff"/>
        <path id="Path_19497" data-name="Path 19497" d="M169.62,225.053l16.717-8.761c-5.259-15.981-10-25.045-10-25.045C159.9,194.062,161.4,207.052,161.4,207.052s4.187,8.671,8.217,18" transform="translate(-98.686 -106.219)" fill="#407bff"/>
        <g id="Group_3773" data-name="Group 3773" transform="translate(62.68 85.028)" opacity="0.6" style="isolation: isolate">
          <g id="Group_3772" data-name="Group 3772" transform="translate(0 0)">
            <rect id="Rectangle_1087" data-name="Rectangle 1087" width="24.97" height="33.807" transform="translate(0)" fill="none"/>
            <path id="Path_19498" data-name="Path 19498" d="M168.545,222.589c.356.812.714,1.637,1.072,2.464l16.72-8.761c-5.258-15.98-10-25.045-10-25.045-10.143,1.744-13.456,7.356-14.507,11.4a13.311,13.311,0,0,0-.43,4.408s3.473,7.2,7.143,15.536" transform="translate(-161.366 -191.247)" fill="#fff"/>
          </g>
        </g>
        <g id="Group_3775" data-name="Group 3775" transform="translate(62.68 95.704)" opacity="0.2" style="isolation: isolate">
          <g id="Group_3774" data-name="Group 3774" transform="translate(0 0)">
            <rect id="Rectangle_1088" data-name="Rectangle 1088" width="7.179" height="20.666" transform="translate(0)" fill="none"/>
            <path id="Path_19499" data-name="Path 19499" d="M168.545,225.723c-3.67-8.333-7.143-15.536-7.143-15.536a13.311,13.311,0,0,1,.43-4.408,5.3,5.3,0,0,1,1.715-.721s4.466,7.012,5,20.665" transform="translate(-161.366 -205.057)"/>
          </g>
        </g>
        <path id="Path_19500" data-name="Path 19500" d="M159.619,224.725l-.577-26.738,13.253-3.869s-1.042-12.268-2.589-18.318c0,0-21.526-5.359-24.81,1.938-.015.029-.029.118-.044.155l-.051.068s-6.184,10.879-4.338,46.764Z" transform="translate(-93.864 -102.282)" fill="#407bff"/>
        <g id="Group_3777" data-name="Group 3777" transform="translate(46.255 71.621)" opacity="0.6" style="isolation: isolate">
          <g id="Group_3776" data-name="Group 3776" transform="translate(0 0)">
            <rect id="Rectangle_1089" data-name="Rectangle 1089" width="32.177" height="50.821" transform="translate(0)" fill="none"/>
            <path id="Path_19501" data-name="Path 19501" d="M159.619,224.725l-.577-26.738,13.253-3.869s-1.042-12.268-2.589-18.318c0,0-21.526-5.359-24.81,1.938-.015.029-.029.118-.044.155l-.051.068s-6.184,10.879-4.338,46.764Z" transform="translate(-140.119 -173.903)" fill="#fff"/>
          </g>
        </g>
        <path id="Path_19502" data-name="Path 19502" d="M146,173.32v3.649l24.738-1.911v-4.315Z" transform="translate(-95.199 -101.565)" fill="#263238"/>
        <rect id="Rectangle_1090" data-name="Rectangle 1090" width="1.238" height="6.305" transform="matrix(0.999, -0.051, 0.051, 0.999, 57.946, 70.282)" fill="#407bff"/>
        <rect id="Rectangle_1091" data-name="Rectangle 1091" width="5.471" height="4.149" transform="translate(64.526 70.555) rotate(-5.115)" fill="#fff"/>
        <rect id="Rectangle_1092" data-name="Rectangle 1092" width="1.238" height="6.305" transform="translate(73.169 68.612) rotate(-2.935)" fill="#407bff"/>
        <g id="Group_3779" data-name="Group 3779" transform="translate(57.945 70.22)" opacity="0.6" style="isolation: isolate">
          <g id="Group_3778" data-name="Group 3778" transform="translate(0 0)">
            <rect id="Rectangle_1093" data-name="Rectangle 1093" width="1.557" height="6.36" transform="translate(0 0)" fill="none"/>
            <rect id="Rectangle_1094" data-name="Rectangle 1094" width="1.238" height="6.305" transform="matrix(0.999, -0.051, 0.051, 0.999, 0.001, 0.063)" fill="#fff"/>
          </g>
        </g>
        <g id="Group_3781" data-name="Group 3781" transform="translate(73.169 68.548)" opacity="0.6" style="isolation: isolate">
          <g id="Group_3780" data-name="Group 3780" transform="translate(0 0)">
            <rect id="Rectangle_1095" data-name="Rectangle 1095" width="1.557" height="6.36" transform="translate(0.002)" fill="none"/>
            <rect id="Rectangle_1096" data-name="Rectangle 1096" width="1.238" height="6.305" transform="translate(0 0.063) rotate(-2.935)" fill="#fff"/>
          </g>
        </g>
        <path id="Path_19503" data-name="Path 19503" d="M168.661,160.186l-24.927,2.157c-.591-9.268-1.182-15.245-6.671-31.758q-.71-2.168-1.553-4.6a74.17,74.17,0,0,1,10.34-2.495,80.2,80.2,0,0,1,11.195-1.183c4.852-.036,10.421.512,10.421.512s.795.189,1.291,5.326c.46,4.83.9,14.481-.1,32.038" transform="translate(-92.818 -90.573)" fill="#407bff"/>
        <g id="Group_3783" data-name="Group 3783" transform="translate(42.692 31.733)" opacity="0.3" style="isolation: isolate">
          <g id="Group_3782" data-name="Group 3782" transform="translate(0 0)">
            <rect id="Rectangle_1097" data-name="Rectangle 1097" width="33.754" height="40.039" fill="none"/>
            <path id="Path_19504" data-name="Path 19504" d="M168.659,160.188l-24.924,2.157a89.639,89.639,0,0,0-2.782-18.84c-.642-2.488-1.446-5.287-2.467-8.534-.432-1.375-.905-2.829-1.423-4.383-.471-1.446-.989-2.983-1.553-4.6a74.218,74.218,0,0,1,10.344-2.5,79.757,79.757,0,0,1,11.193-1.183c4.848-.039,10.421.51,10.421.51s.789.193,1.29,5.326c.456,4.832.9,14.488-.1,32.044" transform="translate(-135.51 -122.306)"/>
          </g>
        </g>
        <path id="Path_19505" data-name="Path 19505" d="M138.5,238.172l21.839-.193-.387,3.285-20.486-.193Z" transform="translate(-93.496 -116.824)" fill="#407bff"/>
        <path id="Path_19506" data-name="Path 19506" d="M170.25,231.835l18.167-9.856.966,2.9-17.587,8.7Z" transform="translate(-100.702 -113.193)" fill="#407bff"/>
        <path id="Path_19507" data-name="Path 19507" d="M154.973,122.715s-6.864-.268-6.477,3.242,17.125,13.689,17.125,13.689S164.878,121.147,154.973,122.715Z" transform="translate(-95.761 -90.644)" fill="none" stroke="#407bff" stroke-miterlimit="10" stroke-width="1"/>
        <path id="Path_19508" data-name="Path 19508" d="M158.363,125.485c-6.146-.788-7.993-3.417-7.993-3.417,2.512-2.365,2.056-5.86,1.415-8.039a12.571,12.571,0,0,0-.757-2.011l7.4,1.385a21.3,21.3,0,0,0-.286,3.115,9.37,9.37,0,0,0,.208,2.288c.5,2.211,1.764,2.242,1.764,2.242,1.3,2.427-1.748,4.437-1.748,4.437" transform="translate(-96.19 -88.238)" fill="#e4897b"/>
        <g id="Group_3785" data-name="Group 3785" transform="translate(54.837 23.78)" opacity="0.2" style="isolation: isolate">
          <g id="Group_3784" data-name="Group 3784" transform="translate(0 0)">
            <rect id="Rectangle_1098" data-name="Rectangle 1098" width="7.398" height="6.788" transform="translate(0.001 0)" fill="none"/>
            <path id="Path_19509" data-name="Path 19509" d="M158.332,116.518a9.37,9.37,0,0,0,.208,2.288c-2.937-.387-5.163-2.737-6.563-4.777a12.483,12.483,0,0,0-.757-2.011l7.4,1.385a21.287,21.287,0,0,0-.286,3.115" transform="translate(-151.22 -112.018)"/>
          </g>
        </g>
        <path id="Path_19510" data-name="Path 19510" d="M156.294,87.309c6.433.24,8.377,3.76,8.6,10.408.281,8.306-1.774,14.124-9.752,12.057-10.835-2.809-9.533-22.861,1.15-22.465" transform="translate(-95.567 -82.629)" fill="#e4897b"/>
        <path id="Path_19521" data-name="Path 19521" d="M148.377,97.133s3.2-5.174,2.9-9.272c0,0,12.942-4.735,13.091,8.228,0,0,1.672-11.443-9.378-12.11-11.032-.664-11.6,15.515-6.069,20.547,0,0-2.527-4.157-.543-7.393" transform="translate(-95.082 -81.87)" fill="#263238"/>
        <path id="Path_19522" data-name="Path 19522" d="M149.158,102.016a2.823,2.823,0,0,0-2.942-2.691c-2,.143-3.1,4.2,1.817,5.367.707.168,1.135-.513,1.125-2.676" transform="translate(-94.863 -85.355)" fill="#e4897b"/>
        <path id="Path_19523" data-name="Path 19523" d="M151.606,81.685c3.479-.966,12.755-1.095,14.946,8.5l-1.288.645a20.567,20.567,0,0,0-6.957-2.061,15.918,15.918,0,0,0-1.8-2.577,14.4,14.4,0,0,1,0,2.447s-6.051.887-8.762,3.35c-4.252,3.865-4.508,6.313-4.508,6.313s-2.949-13.474,8.374-16.621" transform="translate(-94.492 -81.256)" fill="#263238"/>
        <path id="Path_19524" data-name="Path 19524" d="M153.5,82.5s12.433-4.317,16.363,7.472" transform="translate(-96.901 -81.364)" fill="none" stroke="#263238" stroke-linecap="round" stroke-linejoin="round" stroke-width="0.488"/>
        <path id="Path_19525" data-name="Path 19525" d="M173.666,145.65a2.045,2.045,0,1,1-2.046-2.046,2.046,2.046,0,0,1,2.046,2.046" transform="translate(-100.549 -95.406)" fill="#fff"/>
        <g id="Group_3787" data-name="Group 3787" transform="translate(45.668 42.203)" opacity="0.2" style="isolation: isolate">
          <g id="Group_3786" data-name="Group 3786" transform="translate(0 0)">
            <rect id="Rectangle_1099" data-name="Rectangle 1099" width="2.825" height="10.731" transform="translate(0)" fill="none"/>
            <path id="Path_19526" data-name="Path 19526" d="M141.826,146.579c-.642-2.489-1.446-5.287-2.467-8.535l1.052-2.195s2.729,6.393,1.415,10.73" transform="translate(-139.359 -135.849)"/>
          </g>
        </g>
        <path id="Path_19527" data-name="Path 19527" d="M90.694,105.894l-2.138-5.438s.806-2.049.4-2.967-4.366-5.452-5.192-5.388-3.882,3.6-3.439,4.8,4.429,4.628,4.935,4.8l1.926,5.929Z" transform="translate(-80.285 -83.717)" fill="#e4897b"/>
        <path id="Path_19528" data-name="Path 19528" d="M124.784,122.561c-3.293.9-16.242,13.46-18.368,13.46s-14.108-28.81-14.108-28.81l-4.059,2.561s8.31,32.24,13.335,34.946,27.3-9.467,27.3-9.467.329-6.248-.635-9.117a5.6,5.6,0,0,0-3.47-3.574" transform="translate(-82.092 -87.147)" fill="#407bff"/>
        <g id="Group_3789" data-name="Group 3789" transform="translate(6.158 20.837)" opacity="0.3" style="isolation: isolate">
          <g id="Group_3788" data-name="Group 3788" transform="translate(0 0)">
            <rect id="Rectangle_1100" data-name="Rectangle 1100" width="40.694" height="37.9" fill="none"/>
            <path id="Path_19529" data-name="Path 19529" d="M124.784,122.561c-3.293.9-16.242,13.46-18.368,13.46s-14.108-28.81-14.108-28.81l-4.059,2.561s8.31,32.24,13.335,34.946,27.3-9.467,27.3-9.467.329-6.248-.635-9.117a5.6,5.6,0,0,0-3.47-3.574" transform="translate(-88.25 -107.211)"/>
          </g>
        </g>
        <path id="Path_19530" data-name="Path 19530" d="M87.018,109.3l5.2-3.325,1.344,1.91-5.6,3.5Z" transform="translate(-81.813 -86.866)" fill="#407bff"/>
      </g>
      <g id="Group_3904" data-name="Group 3904" transform="translate(503.759 3059.557)">
        <rect id="Rectangle_1042" data-name="Rectangle 1042" width="6.72" height="0.193" transform="translate(68.997 230.909)" fill="#ebebeb"/>
        <path id="Path_19531" data-name="Path 19531" d="M302.122,100.5s-20.069,18.96-29.362,22.13-33.127,14.912-33.127,14.912l-3.658-2.883c-.015-.165-2.669,1.9-2.7,3.327-.021,1.037,2.621,9.72,3.173,9.715,2.55-.026,5.377-5.843,5.377-5.843s30.531-7.958,36.009-10.357,28.025-19.99,28.025-19.99Z" transform="translate(-233.275 -59.572)" fill="#b97964"/>
        <path id="Path_19532" data-name="Path 19532" d="M324.159,94.612c-5.871,1.462-13.409,11.741-13.409,11.741l5.411,9.606,8.762-3.265Z" transform="translate(-250.858 -58.236)" fill="#407bff"/>
        <g id="Group_3791" data-name="Group 3791" transform="translate(59.892 36.376)" opacity="0.6">
          <g id="Group_3790" data-name="Group 3790" transform="translate(0 0)">
            <rect id="Rectangle_1101" data-name="Rectangle 1101" width="14.17" height="21.343" transform="translate(0 0)" fill="none"/>
            <path id="Path_19533" data-name="Path 19533" d="M324.92,112.694l-7.731,2.876-1.028.387-5.411-9.6s7.537-10.282,13.4-11.743L324.51,103Z" transform="translate(-310.75 -94.612)" fill="#fff"/>
          </g>
        </g>
        <path id="Path_19534" data-name="Path 19534" d="M310.444,107.5l6.378,11.384-2.19,1.6-5.23-11.322Z" transform="translate(-250.552 -61.161)" fill="#407bff"/>
        <g id="Group_3793" data-name="Group 3793" transform="translate(66.332 44.764)" opacity="0.2" style="isolation: isolate">
          <g id="Group_3792" data-name="Group 3792" transform="translate(0 0)">
            <rect id="Rectangle_1102" data-name="Rectangle 1102" width="7.731" height="12.57" transform="translate(0)" fill="none"/>
            <path id="Path_19535" data-name="Path 19535" d="M326.811,115.156l-7.731,2.876c.711-6.246,5.829-11.232,7.321-12.57Z" transform="translate(-319.08 -105.462)"/>
          </g>
        </g>
        <path id="Path_19536" data-name="Path 19536" d="M327.2,349.268l-6.469.683L319.522,336l6.469-.683Z" transform="translate(-252.848 -112.863)" fill="#b97964"/>
        <path id="Path_19537" data-name="Path 19537" d="M369.219,348.491h-6.267l-.518-14.52h6.275Z" transform="translate(-262.587 -112.558)" fill="#b97964"/>
        <path id="Path_19538" data-name="Path 19538" d="M358.563,351.815h7.614a.554.554,0,0,1,.536.431l1.235,5.581a.923.923,0,0,1-.714,1.1.9.9,0,0,1-.2.019c-2.464-.039-4.258-.191-7.352-.191-1.906,0-7.655.2-10.286.2s-2.973-2.6-1.9-2.839c4.832-1.052,8.468-2.511,10.015-3.9a1.521,1.521,0,0,1,1.053-.4" transform="translate(-259.067 -116.607)" fill="#263238"/>
        <path id="Path_19539" data-name="Path 19539" d="M358.851,352.771a1.872,1.872,0,0,1-1.2-.319.878.878,0,0,1-.311-.8.445.445,0,0,1,.255-.414c.693-.359,2.72.884,2.943,1.028a.136.136,0,0,1,.071.143.149.149,0,0,1-.111.128,7.457,7.457,0,0,1-1.643.232m-.932-1.3a.342.342,0,0,0-.192.039c-.04,0-.088.056-.1.175a.613.613,0,0,0,.2.534,3.048,3.048,0,0,0,2.232.112,6.075,6.075,0,0,0-2.144-.861" transform="translate(-261.428 -116.462)" fill="#407bff"/>
        <path id="Path_19540" data-name="Path 19540" d="M360.828,352.131h-.072c-.646-.351-1.9-1.73-1.77-2.393a.487.487,0,0,1,.479-.39.8.8,0,0,1,.631.192c.724.589.877,2.391.884,2.48a.159.159,0,0,1-.071.134.14.14,0,0,1-.08-.024m-1.259-2.543H359.5c-.192,0-.206.112-.215.151-.08.407.718,1.452,1.364,1.938a3.516,3.516,0,0,0-.741-1.961.512.512,0,0,0-.335-.128" transform="translate(-261.803 -116.046)" fill="#407bff"/>
        <path id="Path_19541" data-name="Path 19541" d="M316.789,351.558h7.616a.548.548,0,0,1,.533.43l1.236,5.582a.926.926,0,0,1-.714,1.1.906.906,0,0,1-.2.019c-2.463-.039-4.258-.191-7.352-.191-1.9,0-7.655.2-10.285.2s-2.975-2.6-1.9-2.839c4.832-1.052,8.468-2.512,10.015-3.9a1.515,1.515,0,0,1,1.051-.4" transform="translate(-249.587 -116.549)" fill="#263238"/>
        <path id="Path_19542" data-name="Path 19542" d="M317.078,352.513a1.871,1.871,0,0,1-1.2-.319.877.877,0,0,1-.312-.8.447.447,0,0,1,.256-.414c.693-.359,2.718.884,2.941,1.028a.134.134,0,0,1,.072.144.15.15,0,0,1-.111.128,7.517,7.517,0,0,1-1.643.231m-.933-1.3a.345.345,0,0,0-.192.039c-.039,0-.087.056-.1.175a.617.617,0,0,0,.2.534,3.048,3.048,0,0,0,2.233.112,6.067,6.067,0,0,0-2.145-.861" transform="translate(-251.948 -116.404)" fill="#407bff"/>
        <path id="Path_19543" data-name="Path 19543" d="M319.056,351.873h-.073c-.645-.351-1.9-1.73-1.77-2.392a.485.485,0,0,1,.478-.39.794.794,0,0,1,.63.192c.726.589.877,2.391.885,2.48a.16.16,0,0,1-.072.135.134.134,0,0,1-.079-.025m-1.26-2.543h-.073c-.191,0-.207.113-.214.151-.08.407.717,1.452,1.363,1.937a3.513,3.513,0,0,0-.741-1.961.51.51,0,0,0-.335-.128" transform="translate(-252.322 -115.988)" fill="#407bff"/>
        <g id="Group_3795" data-name="Group 3795" transform="translate(66.673 222.453)" opacity="0.2" style="isolation: isolate">
          <g id="Group_3794" data-name="Group 3794">
            <rect id="Rectangle_1103" data-name="Rectangle 1103" width="7.099" height="7.88" transform="translate(0.001)" fill="none"/>
            <path id="Path_19544" data-name="Path 19544" d="M325.99,335.317l-6.469.683.631,7.2,6.469-.683Z" transform="translate(-319.522 -335.317)"/>
          </g>
        </g>
        <g id="Group_3797" data-name="Group 3797" transform="translate(99.846 221.421)" opacity="0.2" style="isolation: isolate">
          <g id="Group_3796" data-name="Group 3796" transform="translate(0 0)">
            <rect id="Rectangle_1104" data-name="Rectangle 1104" width="6.546" height="7.487" fill="none"/>
            <path id="Path_19545" data-name="Path 19545" d="M368.709,333.982h-6.275l.271,7.487h6.275Z" transform="translate(-362.434 -333.982)"/>
          </g>
        </g>
        <path id="Path_19546" data-name="Path 19546" d="M354.949,169.225H321.681c-3.163,17.272-13.065,78.4-5.961,132.861l11.263-1.4s-1.042-72.3,8.9-99.03c1.144,14.305,2.5,29.525,3.681,37.624,2.894,19.934,9.09,63.5,9.09,63.5h11.466s-2.345-41.7-3.429-61.289c-1.185-21.269-1.7-67.9-1.742-72.266" transform="translate(-251.416 -75.169)" fill="#407bff"/>
        <g id="Group_3799" data-name="Group 3799" transform="translate(80.6 114.601)" opacity="0.2" style="isolation: isolate">
          <g id="Group_3798" data-name="Group 3798" transform="translate(0 0)">
            <rect id="Rectangle_1105" data-name="Rectangle 1105" width="3.865" height="26.23" transform="translate(0)" fill="none"/>
            <path id="Path_19547" data-name="Path 19547" d="M341.4,207.64a89.263,89.263,0,0,0-3.716,14.392c-.93-12.729,2.791-26.229,2.791-26.229Z" transform="translate(-337.537 -195.802)"/>
          </g>
        </g>
        <path id="Path_19548" data-name="Path 19548" d="M314.5,342.742l13.94-2.074-.427-3.861-14.5,1.9Z" transform="translate(-251.485 -113.202)" fill="#407bff"/>
        <g id="Group_3801" data-name="Group 3801" transform="translate(62.029 223.606)" opacity="0.6" style="isolation: isolate">
          <g id="Group_3800" data-name="Group 3800" transform="translate(0 0)">
            <rect id="Rectangle_1106" data-name="Rectangle 1106" width="14.927" height="5.934" fill="none"/>
            <path id="Path_19549" data-name="Path 19549" d="M314.5,342.742l13.94-2.074-.427-3.861-14.5,1.9Z" transform="translate(-313.514 -336.808)" fill="#fff"/>
          </g>
        </g>
        <path id="Path_19550" data-name="Path 19550" d="M357.127,340.845H370.65V336.8l-14.033-.263Z" transform="translate(-261.267 -113.141)" fill="#407bff"/>
        <g id="Group_3803" data-name="Group 3803" transform="translate(95.349 223.399)" opacity="0.6" style="isolation: isolate">
          <g id="Group_3802" data-name="Group 3802" transform="translate(0 0)">
            <rect id="Rectangle_1107" data-name="Rectangle 1107" width="14.033" height="4.306" fill="none"/>
            <path id="Path_19551" data-name="Path 19551" d="M357.127,340.845H370.65V336.8l-14.033-.263Z" transform="translate(-356.616 -336.54)" fill="#fff"/>
          </g>
        </g>
        <path id="Path_19552" data-name="Path 19552" d="M326.031,94.577s21.162-1.03,36.929,2.951c0,0-5.379,48.18-5.114,68.279L319,164.454s1.534-49.3,7.031-69.877" transform="translate(-252.73 -58.201)" fill="#407bff"/>
        <g id="Group_3805" data-name="Group 3805" transform="translate(66.27 36.257)" opacity="0.6">
          <g id="Group_3804" data-name="Group 3804" transform="translate(0 0)">
            <rect id="Rectangle_1108" data-name="Rectangle 1108" width="43.956" height="71.348" transform="translate(0 0)" fill="none"/>
            <path id="Path_19553" data-name="Path 19553" d="M362.956,97.53s-.626,5.62-1.446,13.821c-.819,8.264-1.832,19.148-2.574,29.547-.7,9.5-1.175,18.591-1.09,24.907L319,164.452s1.538-49.3,7.027-69.875c0,0,21.166-1.028,36.929,2.953" transform="translate(-319 -94.458)" fill="#fff"/>
          </g>
        </g>
        <path id="Path_19554" data-name="Path 19554" d="M235.466,133.526l.169-.008-.014-.029h.025l0-.048Z" transform="translate(-233.772 -67.048)" fill="#263238"/>
        <path id="Path_19555" data-name="Path 19555" d="M301.178,122l-.605.037H257.061l-21,8.5H235.7l3.84,40.2h41.377l23.206-9.3Z" transform="translate(-233.825 -64.451)" fill="#263238"/>
        <g id="Group_3807" data-name="Group 3807" transform="translate(4.699 69.245)" opacity="0.2">
          <g id="Group_3806" data-name="Group 3806" transform="translate(0 0)">
            <rect id="Rectangle_1109" data-name="Rectangle 1109" width="6.35" height="6.567" fill="none"/>
            <path id="Path_19556" data-name="Path 19556" d="M241.568,137.132l1.687,1.558,2.239-.505-.962,2.085,1.173,1.973-2.281-.27L241.91,143.7l-.447-2.251-2.109-.907,2-1.122Z" transform="translate(-239.354 -137.131)" fill="#fff"/>
          </g>
        </g>
        <g id="Group_3809" data-name="Group 3809" transform="translate(25.579 72.553)" opacity="0.2">
          <g id="Group_3808" data-name="Group 3808" transform="translate(0 0)">
            <rect id="Rectangle_1110" data-name="Rectangle 1110" width="6.541" height="6.429" fill="none"/>
            <path id="Path_19557" data-name="Path 19557" d="M271.26,141.409l-.155,2.29,1.8,1.427-2.226.56-.8,2.152-1.221-1.944-2.293-.094,1.47-1.763-.617-2.21,2.13.855Z" transform="translate(-266.364 -141.409)" fill="#fff"/>
          </g>
        </g>
        <g id="Group_3811" data-name="Group 3811" transform="translate(24.806 97.291)" opacity="0.2">
          <g id="Group_3810" data-name="Group 3810" transform="translate(0 0)">
            <rect id="Rectangle_1111" data-name="Rectangle 1111" width="6.541" height="6.429" fill="none"/>
            <path id="Path_19558" data-name="Path 19558" d="M270.26,173.409l-.155,2.29,1.8,1.427-2.226.56-.8,2.152-1.221-1.943-2.293-.1,1.47-1.763-.617-2.21,2.13.855Z" transform="translate(-265.364 -173.409)" fill="#fff"/>
          </g>
        </g>
        <g id="Group_3813" data-name="Group 3813" transform="translate(14.756 91.106)" opacity="0.2">
          <g id="Group_3812" data-name="Group 3812" transform="translate(0 0)">
            <rect id="Rectangle_1112" data-name="Rectangle 1112" width="6.542" height="6.429" fill="none"/>
            <path id="Path_19559" data-name="Path 19559" d="M257.26,165.409l-.155,2.29,1.8,1.427-2.226.56-.8,2.152-1.221-1.944-2.293-.094,1.47-1.763-.617-2.21,2.13.855Z" transform="translate(-252.363 -165.409)" fill="#fff"/>
          </g>
        </g>
        <g id="Group_3815" data-name="Group 3815" transform="translate(28.221 90.344)" opacity="0.2">
          <g id="Group_3814" data-name="Group 3814">
            <rect id="Rectangle_1113" data-name="Rectangle 1113" width="3.831" height="3.766" fill="none"/>
            <path id="Path_19560" data-name="Path 19560" d="M272.648,164.425l-.091,1.341,1.055.835-1.3.329-.468,1.261-.716-1.139L269.781,167l.861-1.033-.362-1.295,1.249.5Z" transform="translate(-269.781 -164.424)" fill="#fff"/>
          </g>
        </g>
        <g id="Group_3817" data-name="Group 3817" transform="translate(8.895 99.621)" opacity="0.2">
          <g id="Group_3816" data-name="Group 3816" transform="translate(0 0)">
            <rect id="Rectangle_1114" data-name="Rectangle 1114" width="3.831" height="3.766" fill="none"/>
            <path id="Path_19561" data-name="Path 19561" d="M247.648,176.424l-.091,1.342,1.055.834-1.3.329-.469,1.26-.716-1.139L244.781,179l.861-1.032-.361-1.3,1.248.5Z" transform="translate(-244.781 -176.424)" fill="#fff"/>
          </g>
        </g>
        <g id="Group_3819" data-name="Group 3819" transform="translate(7.349 86.479)" opacity="0.2">
          <g id="Group_3818" data-name="Group 3818" transform="translate(0 0)">
            <rect id="Rectangle_1115" data-name="Rectangle 1115" width="3.831" height="3.766" fill="none"/>
            <path id="Path_19562" data-name="Path 19562" d="M245.648,159.425l-.091,1.341,1.055.835-1.3.329-.469,1.261-.716-1.139L242.781,162l.861-1.033-.361-1.295,1.248.5Z" transform="translate(-242.781 -159.424)" fill="#fff"/>
          </g>
        </g>
        <g id="Group_3821" data-name="Group 3821" transform="translate(35.952 67.153)" opacity="0.2">
          <g id="Group_3820" data-name="Group 3820" transform="translate(0 0)">
            <rect id="Rectangle_1116" data-name="Rectangle 1116" width="3.831" height="3.766" fill="none"/>
            <path id="Path_19563" data-name="Path 19563" d="M282.648,134.425l-.091,1.341,1.055.835-1.3.329-.468,1.261-.716-1.139L279.781,137l.861-1.033-.362-1.295,1.249.5Z" transform="translate(-279.781 -134.424)" fill="#fff"/>
          </g>
        </g>
        <g id="Group_3823" data-name="Group 3823" transform="translate(10.157 76.296)" opacity="0.2">
          <g id="Group_3822" data-name="Group 3822" transform="translate(0 0)">
            <rect id="Rectangle_1117" data-name="Rectangle 1117" width="8.699" height="8.273" fill="none"/>
            <path id="Path_19564" data-name="Path 19564" d="M250.763,146.251l1.345,2.724,3,.436-2.175,2.12.514,2.993-2.688-1.413-2.688,1.413.513-2.993-2.174-2.12,3-.436Z" transform="translate(-246.414 -146.251)" fill="#fff"/>
          </g>
        </g>
        <g id="Group_3825" data-name="Group 3825" transform="translate(32.913 81.598)" opacity="0.2">
          <g id="Group_3824" data-name="Group 3824" transform="translate(0 0)">
            <rect id="Rectangle_1118" data-name="Rectangle 1118" width="8.691" height="8.384" fill="none"/>
            <path id="Path_19565" data-name="Path 19565" d="M277.286,153.346l2.747,1.294,2.624-1.529-.381,3.013,2.265,2.022-2.983.568-1.224,2.78-1.462-2.661-3.022-.3,2.08-2.215Z" transform="translate(-275.851 -153.11)" fill="#fff"/>
          </g>
        </g>
        <g id="Group_3827" data-name="Group 3827" transform="translate(35.668 94.849)" opacity="0.2">
          <g id="Group_3826" data-name="Group 3826" transform="translate(0 0)">
            <rect id="Rectangle_1119" data-name="Rectangle 1119" width="8.699" height="8.273" fill="none"/>
            <path id="Path_19566" data-name="Path 19566" d="M283.763,170.251l1.345,2.724,3,.436-2.175,2.12.514,2.993-2.688-1.413-2.689,1.413.514-2.993-2.174-2.12,3-.436Z" transform="translate(-279.414 -170.251)" fill="#fff"/>
          </g>
        </g>
        <g id="Group_3829" data-name="Group 3829" transform="translate(46.604 67.865)" opacity="0.2">
          <g id="Group_3828" data-name="Group 3828" transform="translate(0 0)">
            <rect id="Rectangle_1120" data-name="Rectangle 1120" width="3.365" height="6.513" fill="none"/>
            <path id="Path_19567" data-name="Path 19567" d="M294.5,135.347l.958,1.341,1.121-.79-.37,2.2.719,1.822-1.188.02-.676,1.915-.363-2.191-1.138-.638.963-1.375Z" transform="translate(-293.561 -135.346)" fill="#fff"/>
          </g>
        </g>
        <g id="Group_3831" data-name="Group 3831" transform="translate(57.588 68.167)" opacity="0.2">
          <g id="Group_3830" data-name="Group 3830" transform="translate(0 0)">
            <rect id="Rectangle_1121" data-name="Rectangle 1121" width="3.322" height="6.594" fill="none"/>
            <path id="Path_19568" data-name="Path 19568" d="M310.026,135.735l.057,2.306,1.009,1.194-1.11.843-.283,2.251-.744-1.785-1.184.2.651-1.947-.448-2.127,1.146.581Z" transform="translate(-307.77 -135.735)" fill="#fff"/>
          </g>
        </g>
        <g id="Group_3833" data-name="Group 3833" transform="translate(58.659 92.959)" opacity="0.2">
          <g id="Group_3832" data-name="Group 3832" transform="translate(0 0)">
            <rect id="Rectangle_1122" data-name="Rectangle 1122" width="3.322" height="6.594" fill="none"/>
            <path id="Path_19569" data-name="Path 19569" d="M311.41,167.808l.056,2.306,1.01,1.194-1.111.844-.283,2.25-.744-1.785-1.184.2.651-1.946-.448-2.129,1.145.581Z" transform="translate(-309.154 -167.807)" fill="#fff"/>
          </g>
        </g>
        <g id="Group_3835" data-name="Group 3835" transform="translate(53.127 88.066)" opacity="0.2">
          <g id="Group_3834" data-name="Group 3834" transform="translate(0 0)">
            <rect id="Rectangle_1123" data-name="Rectangle 1123" width="3.322" height="6.593" transform="translate(0 0.001)" fill="none"/>
            <path id="Path_19570" data-name="Path 19570" d="M304.255,161.477l.057,2.306,1.009,1.194-1.111.843-.284,2.249-.743-1.783-1.184.2.652-1.947-.448-2.129,1.146.582Z" transform="translate(-301.999 -161.477)" fill="#fff"/>
          </g>
        </g>
        <g id="Group_3837" data-name="Group 3837" transform="translate(59.894 85.849)" opacity="0.2">
          <g id="Group_3836" data-name="Group 3836" transform="translate(0 0)">
            <rect id="Rectangle_1124" data-name="Rectangle 1124" width="1.945" height="3.862" fill="none"/>
            <path id="Path_19571" data-name="Path 19571" d="M312.073,158.609l.032,1.351.591.7-.65.495-.166,1.318-.436-1.046-.693.115.381-1.14-.263-1.246.671.341Z" transform="translate(-310.752 -158.609)" fill="#fff"/>
          </g>
        </g>
        <g id="Group_3839" data-name="Group 3839" transform="translate(50.513 97.571)" opacity="0.2">
          <g id="Group_3838" data-name="Group 3838" transform="translate(0 0)">
            <rect id="Rectangle_1125" data-name="Rectangle 1125" width="1.945" height="3.861" transform="translate(0 0.001)" fill="none"/>
            <path id="Path_19572" data-name="Path 19572" d="M299.938,173.772l.033,1.35.591.7-.651.495-.166,1.317-.436-1.045-.693.115.381-1.14-.263-1.246.671.341Z" transform="translate(-298.617 -173.772)" fill="#fff"/>
          </g>
        </g>
        <g id="Group_3841" data-name="Group 3841" transform="translate(48.939 84.648)" opacity="0.2">
          <g id="Group_3840" data-name="Group 3840" transform="translate(0 0)">
            <rect id="Rectangle_1126" data-name="Rectangle 1126" width="1.945" height="3.862" fill="none"/>
            <path id="Path_19573" data-name="Path 19573" d="M297.9,157.056l.033,1.351.591.7-.651.494-.166,1.318-.436-1.045-.693.115.381-1.141L296.7,157.6l.671.341Z" transform="translate(-296.581 -157.056)" fill="#fff"/>
          </g>
        </g>
        <g id="Group_3843" data-name="Group 3843" transform="translate(62.49 61.714)" opacity="0.2">
          <g id="Group_3842" data-name="Group 3842" transform="translate(0 0)">
            <rect id="Rectangle_1127" data-name="Rectangle 1127" width="1.945" height="3.862" transform="translate(0.001)" fill="none"/>
            <path id="Path_19574" data-name="Path 19574" d="M315.431,127.389l.034,1.351.591.7-.651.495-.167,1.318-.435-1.046-.694.115.382-1.14-.263-1.246.671.341Z" transform="translate(-314.11 -127.389)" fill="#fff"/>
          </g>
        </g>
        <g id="Group_3845" data-name="Group 3845" transform="translate(49.812 73.936)" opacity="0.2">
          <g id="Group_3844" data-name="Group 3844" transform="translate(0 0)">
            <rect id="Rectangle_1128" data-name="Rectangle 1128" width="4.471" height="8.602" fill="none"/>
            <path id="Path_19575" data-name="Path 19575" d="M299.759,143.2l.852,2.547,1.57.054-.992,2.393.442,2.923-1.466-1.069-1.3,1.753.086-3.054-1.243-1.839,1.518-.819Z" transform="translate(-297.711 -143.198)" fill="#fff"/>
          </g>
        </g>
        <g id="Group_3847" data-name="Group 3847" transform="translate(61.955 76.019)" opacity="0.2">
          <g id="Group_3846" data-name="Group 3846" transform="translate(0 0)">
            <rect id="Rectangle_1129" data-name="Rectangle 1129" width="4.444" height="8.664" fill="none"/>
            <path id="Path_19576" data-name="Path 19576" d="M313.848,146.812l1.489.943,1.257-1.862-.017,3.056,1.284,1.73-1.5.947-.464,2.931-.909-2.47-1.571.08.938-2.473Z" transform="translate(-313.418 -145.893)" fill="#fff"/>
          </g>
        </g>
        <g id="Group_3849" data-name="Group 3849" transform="translate(64.022 89.209)" opacity="0.2">
          <g id="Group_3848" data-name="Group 3848" transform="translate(0 0)">
            <rect id="Rectangle_1130" data-name="Rectangle 1130" width="4.47" height="8.601" fill="none"/>
            <path id="Path_19577" data-name="Path 19577" d="M318.14,162.955l.852,2.547,1.57.054-.992,2.393.442,2.923-1.465-1.069-1.3,1.753.086-3.054-1.243-1.839,1.519-.819Z" transform="translate(-316.093 -162.955)" fill="#fff"/>
          </g>
        </g>
        <g id="Group_3851" data-name="Group 3851" transform="translate(43.225 57.723)" opacity="0.2" style="isolation: isolate">
          <g id="Group_3850" data-name="Group 3850" transform="translate(0 0)">
            <rect id="Rectangle_1131" data-name="Rectangle 1131" width="27.071" height="49.025" transform="translate(0.001 0.001)" fill="none"/>
            <path id="Path_19578" data-name="Path 19578" d="M289.189,130.71l24.128-8.484,2.944,39.581-23.207,9.446Z" transform="translate(-289.189 -122.226)"/>
          </g>
        </g>
        <g id="Group_3853" data-name="Group 3853" transform="translate(1.694 57.585)" opacity="0.2">
          <g id="Group_3852" data-name="Group 3852" transform="translate(0 0)">
            <rect id="Rectangle_1132" data-name="Rectangle 1132" width="65.349" height="8.659" fill="none"/>
            <path id="Path_19579" data-name="Path 19579" d="M235.466,130.706l21.544-8.659h43.806L277,130.4Z" transform="translate(-235.466 -122.047)" fill="#fff"/>
          </g>
        </g>
        <path id="Path_19580" data-name="Path 19580" d="M299.3,165.808l-2.771-40.762H253.816l-4.033,2.1,39.013,1.064,4.986,39.614Z" transform="translate(-237.021 -65.143)" fill="#407bff"/>
        <path id="Path_19581" data-name="Path 19581" d="M282.588,122.047l-20.034,8.311,2.383,40.391h-6.184L254.5,130.482l22.418-8.436Z" transform="translate(-238.092 -64.462)" fill="#407bff"/>
        <g id="Group_3855" data-name="Group 3855" transform="translate(12.761 57.585)" opacity="0.2">
          <g id="Group_3854" data-name="Group 3854" transform="translate(0 0)">
            <rect id="Rectangle_1133" data-name="Rectangle 1133" width="49.515" height="48.702" fill="none"/>
            <path id="Path_19582" data-name="Path 19582" d="M299.3,165.808l-2.771-40.762H253.816l-4.033,2.1,39.013,1.064,4.986,39.614Z" transform="translate(-249.782 -122.727)" fill="#fff"/>
            <path id="Path_19583" data-name="Path 19583" d="M282.588,122.047l-20.034,8.311,2.383,40.391h-6.184L254.5,130.482l22.418-8.436Z" transform="translate(-250.853 -122.047)" fill="#fff"/>
          </g>
        </g>
        <g id="Group_3857" data-name="Group 3857" transform="translate(51.775 60.256)" opacity="0.2" style="isolation: isolate">
          <g id="Group_3856" data-name="Group 3856" transform="translate(0 0)">
            <rect id="Rectangle_1134" data-name="Rectangle 1134" width="10.5" height="42.558" fill="none"/>
            <path id="Path_19584" data-name="Path 19584" d="M307.981,125.5l-7.731,2.9,4.986,39.659,5.514-1.973Z" transform="translate(-300.25 -125.502)"/>
          </g>
        </g>
        <g id="Group_3859" data-name="Group 3859" transform="translate(16.408 65.984)" opacity="0.1" style="isolation: isolate">
          <g id="Group_3858" data-name="Group 3858" transform="translate(0 0)">
            <rect id="Rectangle_1135" data-name="Rectangle 1135" width="10.436" height="40.303" fill="none"/>
            <path id="Path_19585" data-name="Path 19585" d="M254.5,133.124l8.053-.212,2.383,40.3h-6.184Z" transform="translate(-254.5 -132.912)"/>
          </g>
        </g>
        <path id="Path_19586" data-name="Path 19586" d="M268.146,123.159s-11.614-8.761-16.64-6.571c-3.982,1.735-3.4,6.923,6.678,8.244-3.78.34-8.263.938-10.934,1.96l7.6.9a87.175,87.175,0,0,1,13.915-2.613,5.977,5.977,0,0,1,0,2.613l5.2-.451s-1.535-1.463-2.781-2.539c5.958-.592,18.726-2.505,20.007-8.116,1.674-7.344-16.713-2.447-23.044,6.571m-16.64-5.089c1.225-1.933,15.912,5.734,15.912,5.734-6.894.962-17.136-3.8-15.912-5.734m17.96,5.411S285.2,112.208,289,114.721s-14.779,9.212-19.533,8.761" transform="translate(-236.446 -62.414)" fill="#407bff"/>
        <g id="Group_3861" data-name="Group 3861" transform="translate(10.804 50.608)" opacity="0.1">
          <g id="Group_3860" data-name="Group 3860" transform="translate(0 0)">
            <rect id="Rectangle_1136" data-name="Rectangle 1136" width="44.047" height="14.672" fill="none"/>
            <path id="Path_19587" data-name="Path 19587" d="M268.146,123.159s-11.614-8.761-16.64-6.571c-3.982,1.735-3.4,6.923,6.678,8.244-3.78.34-8.263.938-10.934,1.96l7.6.9a87.175,87.175,0,0,1,13.915-2.613,5.977,5.977,0,0,1,0,2.613l5.2-.451s-1.535-1.463-2.781-2.539c5.958-.592,18.726-2.505,20.007-8.116,1.674-7.344-16.713-2.447-23.044,6.571m-16.64-5.089c1.225-1.933,15.912,5.734,15.912,5.734-6.894.962-17.136-3.8-15.912-5.734m17.96,5.411S285.2,112.208,289,114.721s-14.779,9.212-19.533,8.761" transform="translate(-247.25 -113.023)" fill="#fff"/>
          </g>
        </g>
        <g id="Group_3863" data-name="Group 3863" transform="translate(97.035 48.165)" opacity="0.2" style="isolation: isolate">
          <g id="Group_3862" data-name="Group 3862" transform="translate(0 0)">
            <rect id="Rectangle_1137" data-name="Rectangle 1137" width="11.745" height="34.532" transform="translate(0 0)" fill="none"/>
            <path id="Path_19588" data-name="Path 19588" d="M370.542,114.847c-.819,8.265-1.832,19.149-2.574,29.547-17.224-19.906-4.9-34.532-4.9-34.532Z" transform="translate(-358.797 -109.862)"/>
          </g>
        </g>
        <path id="Path_19589" data-name="Path 19589" d="M339.375,94.379s-.156,4.415,5.639,4.672,13.568-3.316,13.568-3.316-11.057-2.42-19.207-1.356" transform="translate(-257.354 -58.121)" fill="#407bff"/>
        <path id="Path_19590" data-name="Path 19590" d="M356.082,90.936c-3.054,2.775-10.536,1.749-10.536,1.749s-4.669-1.279-3.689-2.737c2.751-.455,4.083-1.739,4.634-3.381a8.016,8.016,0,0,0,.278-3.142,16.554,16.554,0,0,0-.231-1.754l9.249-6.85c-1.211,4.522-2.694,12.838.3,16.114" transform="translate(-257.887 -53.744)" fill="#b97964"/>
        <g id="Group_3865" data-name="Group 3865" transform="translate(88.603 25.431)" opacity="0.2" style="isolation: isolate">
          <g id="Group_3864" data-name="Group 3864" transform="translate(0 0)">
            <rect id="Rectangle_1138" data-name="Rectangle 1138" width="7.161" height="7.391" transform="translate(0 0)" fill="none"/>
            <path id="Path_19591" data-name="Path 19591" d="M355.05,80.454c-.366,5.55-4.928,7.08-7.159,7.392a8.014,8.014,0,0,0,.278-3.142Z" transform="translate(-347.89 -80.454)"/>
          </g>
        </g>
        <path id="Path_19592" data-name="Path 19592" d="M336.456,57.529s-1.313,8.637,3.271,11.96,4.585-12.758,4.585-12.758Z" transform="translate(-256.652 -49.639)" fill="#263238"/>
        <path id="Path_19593" data-name="Path 19593" d="M353.236,75.911a7.84,7.84,0,0,1-9,3.038,8.871,8.871,0,0,1-5.4-4.887c-2.257-5.279-2.974-14.513,2.607-17.973a8.5,8.5,0,0,1,12.981,6.4c.686,6.172,1.379,9.768-1.188,13.419" transform="translate(-256.851 -49.197)" fill="#b97964"/>
        <path id="Path_19600" data-name="Path 19600" d="M352,55.939V58.7a2.041,2.041,0,0,1,1.329,2.426c-.6,2.392,1.131,5.779,3.056,6.978,0,0-.066-1,.8-.863s1.262,5.315-.066,7.973c0,0,2.193-2.525,2.924-8.106.676-5.162.327-9.353-.938-11.164Z" transform="translate(-260.219 -49.459)" fill="#263238"/>
        <path id="Path_19601" data-name="Path 19601" d="M357.413,63.95a16.046,16.046,0,0,0-5.5-5.041c-3.7-2.134-9.393-3.6-17.417-1.09,0,0,2.9-14.038,15.523-9.276.108.039.209.077.309.124,12.238,4.823,7.081,15.283,7.081,15.283" transform="translate(-256.248 -47.557)" fill="#407bff"/>
        <g id="Group_3867" data-name="Group 3867" transform="translate(78.252 0)" opacity="0.2">
          <g id="Group_3866" data-name="Group 3866" transform="translate(0 0)">
            <rect id="Rectangle_1139" data-name="Rectangle 1139" width="18.275" height="11.352" transform="translate(0)" fill="none"/>
            <path id="Path_19602" data-name="Path 19602" d="M351.916,58.908c-3.7-2.134-9.392-3.6-17.416-1.09,0,0,2.9-14.038,15.523-9.276.108.039.209.077.309.124a5.433,5.433,0,0,1,1.886,1.646c1.121,1.763.3,6.131-.3,8.6" transform="translate(-334.5 -47.557)" fill="#fff"/>
          </g>
        </g>
        <path id="Path_19603" data-name="Path 19603" d="M334.652,59.814c-1.694.343-7.276-3.56-5.053-5.33,1.786-1.422,6.8-1.843,10.726-.935A17.633,17.633,0,0,1,350.793,60.1s-9.313-3-16.141-.29" transform="translate(-255.018 -48.808)" fill="#407bff"/>
        <g id="Group_3869" data-name="Group 3869" transform="translate(74.065 4.261)" opacity="0.2" style="isolation: isolate">
          <g id="Group_3868" data-name="Group 3868" transform="translate(0 0)">
            <rect id="Rectangle_1140" data-name="Rectangle 1140" width="21.71" height="7.035" fill="none"/>
            <path id="Path_19604" data-name="Path 19604" d="M334.652,59.814c-1.694.343-7.276-3.56-5.053-5.33,1.786-1.422,6.8-1.843,10.726-.935A17.633,17.633,0,0,1,350.793,60.1s-9.313-3-16.141-.29" transform="translate(-329.083 -53.069)"/>
          </g>
        </g>
        <path id="Path_19605" data-name="Path 19605" d="M362.327,69.68a5.91,5.91,0,0,1-2.835,3.514c-1.826.98-3.189-.545-3.065-2.505.127-1.742,1.208-4.4,3.23-4.556a2.638,2.638,0,0,1,2.67,3.547" transform="translate(-261.222 -51.771)" fill="#b97964"/>
        <path id="Path_19606" data-name="Path 19606" d="M328.751,118.051l-2.074,14.456,3.864-.082-.5,6.6-3.739-.1-1.158,2.678,6.576.646,4.332-23.516Zm.952,11.3,1.9-7.679,1.355.114-1.322,7.524Z" transform="translate(-254.123 -63.555)" fill="#407bff"/>
        <path id="Path_19607" data-name="Path 19607" d="M341.962,119l-2.077,14.282,3.865-.082-.5,6.778-3.737-.015-1.158,2.722,6.578.666,4.331-23.593Zm.949,11.125,1.9-7.5,1.354.026-1.323,7.438Z" transform="translate(-257.122 -63.769)" fill="#407bff"/>
        <path id="Path_19608" data-name="Path 19608" d="M358.138,119.74s-6.61,18.235-8.57,22.064-40.45,7.6-40.45,7.6-8.537,5.508-10.019,5.25-5.089-7.472-3.543-8.245,6.249-6.1,8.793-6.012,4.768,2.92,4.768,2.92,31.707-9.089,33.4-9.76c1.222-.483,6.228-18.143,6.228-18.143Z" transform="translate(-247.324 -62.956)" fill="#b97964"/>
        <path id="Path_19609" data-name="Path 19609" d="M372.332,98.333c7.9,3.324,0,26.046,0,26.046L360.3,119.262s3.942-24.337,12.034-20.929" transform="translate(-262.103 -59.006)" fill="#407bff"/>
        <g id="Group_3871" data-name="Group 3871" transform="translate(98.195 38.999)" opacity="0.6">
          <g id="Group_3870" data-name="Group 3870" transform="translate(0 0)">
            <rect id="Rectangle_1141" data-name="Rectangle 1141" width="15.545" height="26.374" fill="none"/>
            <path id="Path_19610" data-name="Path 19610" d="M372.332,98.333c7.9,3.324,0,26.046,0,26.046L360.3,119.262s3.942-24.337,12.034-20.929" transform="translate(-360.298 -98.005)" fill="#fff"/>
          </g>
        </g>
        <path id="Path_19611" data-name="Path 19611" d="M359.273,123.14l14.108,6.1-1.457,3.069L358.5,126.227Z" transform="translate(-261.694 -64.71)" fill="#407bff"/>
      </g>
      <g id="Group_3901" data-name="Group 3901" transform="translate(619.762 3239.813)">
        <g id="Group_3899" data-name="Group 3899">
          <rect id="Rectangle_1043" data-name="Rectangle 1043" width="14.837" height="0.193" transform="translate(11.791 40.603)" fill="#ebebeb"/>
          <path id="Path_19612" data-name="Path 19612" d="M413.584,297.839s-1.422-15.061-8.031-15.461-6.056,13.915-6.056,13.915" transform="translate(-385.453 -281.877)" fill="none" stroke="#263238" stroke-linecap="round" stroke-linejoin="round" stroke-width="1"/>
          <path id="Path_19613" data-name="Path 19613" d="M381.334,346.749h35.56l-4.382-39.183,1.546-9.52H384.426l2.006,9.417Z" transform="translate(-381.334 -285.435)" fill="#407bff"/>
          <g id="Group_3873" data-name="Group 3873" transform="translate(20.7 12.612)" opacity="0.2" style="isolation: isolate">
            <g id="Group_3872" data-name="Group 3872" transform="translate(0 0)">
              <rect id="Rectangle_1142" data-name="Rectangle 1142" width="14.859" height="48.702" transform="translate(0.001)" fill="none"/>
              <path id="Path_19614" data-name="Path 19614" d="M409.571,298.047l1.289,10.436-2.749,38.067,6.1-6.235,8.761,6.434-4.38-39.183,1.546-9.52Z" transform="translate(-408.111 -298.047)"/>
            </g>
          </g>
          <g id="Group_3875" data-name="Group 3875" transform="translate(20.7 12.612)" opacity="0.2" style="isolation: isolate">
            <g id="Group_3874" data-name="Group 3874" transform="translate(0 0)">
              <rect id="Rectangle_1143" data-name="Rectangle 1143" width="7.429" height="48.503" transform="translate(0.001)" fill="none"/>
              <path id="Path_19615" data-name="Path 19615" d="M414.468,340.565V306.55l1.073-8.5H409.83l1.03,9.792-2.748,38.711Z" transform="translate(-408.111 -298.047)"/>
            </g>
          </g>
          <path id="Path_19616" data-name="Path 19616" d="M392.166,297.694s3.543-16.074,10.243-15.961-.836,15.961-.836,15.961" transform="translate(-383.792 -281.732)" fill="none" stroke="#263238" stroke-linecap="round" stroke-linejoin="round" stroke-width="1"/>
        </g>
      </g>
      <g id="Group_3900" data-name="Group 3900" transform="translate(481.093 3264.043)">
        <path id="Path_19617" data-name="Path 19617" d="M215.4,321.666l-.777-2.047c-10.412.479-11.58-3.442-11.686-4.692-.2-2.315,1.9-4.423,4.665-4.7,3.817-.391,6.36,2.862,7.658,5.115,1.966-2.366,5.766-4.488,8.632-4.488h0a4.126,4.126,0,0,1,4.274,3.289,3.621,3.621,0,0,1-.748,3.444c-2.421,2.729-9.4,2.242-11.5,2.024Zm1.233-4.316c3.163.278,7.761.155,9.054-1.3a1.326,1.326,0,0,0,.233-1.343,1.826,1.826,0,0,0-2.025-1.532h0c-2.535,0-6.1,2.327-7.259,4.178m-8.439-4.835a3.553,3.553,0,0,0-.36.019c-1.573.158-2.663,1.29-2.585,2.2.087,1.023,2.005,2.762,8.442,2.6-.793-1.6-2.728-4.816-5.5-4.816" transform="translate(-192.579 -310.194)" fill="#263238"/>
        <rect id="Rectangle_1144" data-name="Rectangle 1144" width="45.191" height="31.044" transform="translate(0 8.26)" fill="#407bff"/>
        <g id="Group_3877" data-name="Group 3877" transform="translate(0 18.987)" opacity="0.2" style="isolation: isolate">
          <g id="Group_3876" data-name="Group 3876" transform="translate(0 0)">
            <rect id="Rectangle_1145" data-name="Rectangle 1145" width="45.191" height="20.318" fill="none"/>
            <rect id="Rectangle_1146" data-name="Rectangle 1146" width="45.191" height="20.318"/>
          </g>
        </g>
        <g id="Group_3879" data-name="Group 3879" transform="translate(0 8.26)" opacity="0.2" style="isolation: isolate">
          <g id="Group_3878" data-name="Group 3878" transform="translate(0 0)">
            <rect id="Rectangle_1147" data-name="Rectangle 1147" width="17.956" height="31.044" fill="none"/>
            <rect id="Rectangle_1148" data-name="Rectangle 1148" width="17.956" height="31.044"/>
          </g>
        </g>
        <g id="Group_3881" data-name="Group 3881" transform="translate(17.941 8.244)" opacity="0.3">
          <g id="Group_3880" data-name="Group 3880" transform="translate(0 0)">
            <rect id="Rectangle_1149" data-name="Rectangle 1149" width="27.25" height="31.068" fill="none"/>
            <path id="Path_19618" data-name="Path 19618" d="M212.75,352.3v2.07l1.907,4.693h.842Z" transform="translate(-212.75 -327.994)" fill="#fff"/>
            <path id="Path_19619" data-name="Path 19619" d="M212.75,335.082v2.062l7.318,18.01h.842Z" transform="translate(-212.75 -324.086)" fill="#fff"/>
            <path id="Path_19620" data-name="Path 19620" d="M226.353,351.926l-12.631-31.068h-.835l12.623,31.068Z" transform="translate(-212.781 -320.858)" fill="#fff"/>
            <path id="Path_19621" data-name="Path 19621" d="M233.353,351.926l-12.631-31.068h-.835l12.623,31.068Z" transform="translate(-214.37 -320.858)" fill="#fff"/>
            <path id="Path_19622" data-name="Path 19622" d="M240.353,351.926l-12.631-31.068h-.835l12.623,31.068Z" transform="translate(-215.959 -320.858)" fill="#fff"/>
            <path id="Path_19623" data-name="Path 19623" d="M233.883,320.859,244.8,348.451v-2.077l-10.078-25.514Z" transform="translate(-217.546 -320.859)" fill="#fff"/>
            <path id="Path_19624" data-name="Path 19624" d="M240.881,320.859l5.5,14.235v-2.069l-4.669-12.166Z" transform="translate(-219.134 -320.859)" fill="#fff"/>
          </g>
        </g>
        <g id="Group_3883" data-name="Group 3883" transform="translate(0.032 8.244)" opacity="0.2">
          <g id="Group_3882" data-name="Group 3882" transform="translate(0 0)">
            <rect id="Rectangle_1150" data-name="Rectangle 1150" width="17.909" height="31.068" fill="none"/>
            <path id="Path_19625" data-name="Path 19625" d="M189.584,336.153v2.062L193.49,355.4h.471Z" transform="translate(-189.583 -324.33)" fill="#fff"/>
            <path id="Path_19626" data-name="Path 19626" d="M189.922,320.859h-.338v.568l6.933,30.5h.472Z" transform="translate(-189.583 -320.859)" fill="#fff"/>
            <path id="Path_19627" data-name="Path 19627" d="M200.866,351.926,193.8,320.858h-.467l7.064,31.068Z" transform="translate(-190.434 -320.858)" fill="#fff"/>
            <path id="Path_19628" data-name="Path 19628" d="M204.783,351.926l-7.067-31.068h-.467l7.062,31.068Z" transform="translate(-191.323 -320.858)" fill="#fff"/>
            <path id="Path_19629" data-name="Path 19629" d="M208.7,351.926l-7.068-31.068h-.467l7.062,31.068Z" transform="translate(-192.212 -320.858)" fill="#fff"/>
            <path id="Path_19630" data-name="Path 19630" d="M211.009,345.576l-5.463-24.717h-.466l5.929,26.795Z" transform="translate(-193.1 -320.859)" fill="#fff"/>
            <path id="Path_19631" data-name="Path 19631" d="M211.9,332.2l-2.435-11.345H209l2.9,13.42Z" transform="translate(-193.989 -320.859)" fill="#fff"/>
          </g>
        </g>
        <rect id="Rectangle_1151" data-name="Rectangle 1151" width="3.672" height="31.044" transform="translate(30.117 8.26)" fill="#263238"/>
        <rect id="Rectangle_1152" data-name="Rectangle 1152" width="2.697" height="31.044" transform="translate(6.345 8.26)" fill="#263238"/>
        <path id="Path_19632" data-name="Path 19632" d="M254.206,333.122c-1.421.148-6.145.5-7.783-1.342a1.982,1.982,0,0,1-.506-2.087c.353-1.412,1.407-1.926,2.89-1.926h0a8.44,8.44,0,0,1,5.84,2.737c.878-1.524,2.6-3.93,5.18-3.666,1.873.187,3.289,1.567,3.156,3.133-.072.846-.861,3.475-7.905,3.151l-.526,1.373Zm-5.4-3.809h0c-.768,0-1.191.062-1.369.778-.127.5.017.579.157.736.874.986,3.985,1.258,6.126,1.07a6.941,6.941,0,0,0-4.912-2.584m6.9,2.238c4.355.11,5.653-1.068,5.712-1.759.052-.614-.686-1.38-1.75-1.487a2.338,2.338,0,0,0-.243-.012c-1.872,0-3.182,2.174-3.719,3.258" transform="translate(-202.315 -313.967)" fill="#407bff"/>
        <rect id="Rectangle_1153" data-name="Rectangle 1153" width="30.573" height="21.002" transform="translate(37.106 18.309)" fill="#407bff"/>
        <g id="Group_3885" data-name="Group 3885" transform="translate(37.106 18.309)" opacity="0.6">
          <g id="Group_3884" data-name="Group 3884" transform="translate(0 0)">
            <rect id="Rectangle_1154" data-name="Rectangle 1154" width="30.573" height="21.002" fill="none"/>
            <rect id="Rectangle_1155" data-name="Rectangle 1155" width="30.573" height="21.002" fill="#fff"/>
          </g>
        </g>
        <g id="Group_3887" data-name="Group 3887" transform="translate(37.106 25.566)" opacity="0.1" style="isolation: isolate">
          <g id="Group_3886" data-name="Group 3886" transform="translate(0 0)">
            <rect id="Rectangle_1156" data-name="Rectangle 1156" width="30.573" height="13.746" fill="none"/>
            <rect id="Rectangle_1157" data-name="Rectangle 1157" width="30.573" height="13.746"/>
          </g>
        </g>
        <g id="Group_3891" data-name="Group 3891" transform="translate(37.478 19.253)" opacity="0.4">
          <g id="Group_3890" data-name="Group 3890" transform="translate(0 0)">
            <rect id="Rectangle_1160" data-name="Rectangle 1160" width="17.813" height="19.115" transform="translate(0)" fill="none"/>
            <path id="Path_19633" data-name="Path 19633" d="M238.76,335.659c0,.309-.164.559-.368.559s-.369-.25-.369-.559.165-.559.369-.559.368.25.368.559" transform="translate(-238.023 -335.1)" fill="#fff"/>
            <path id="Path_19634" data-name="Path 19634" d="M242.159,335.659c0,.309-.165.559-.369.559s-.368-.25-.368-.559.165-.559.368-.559.369.25.369.559" transform="translate(-238.794 -335.1)" fill="#fff"/>
            <path id="Path_19635" data-name="Path 19635" d="M245.557,335.659c0,.309-.165.559-.368.559s-.369-.25-.369-.559.165-.559.369-.559.368.25.368.559" transform="translate(-239.566 -335.1)" fill="#fff"/>
            <path id="Path_19636" data-name="Path 19636" d="M248.956,335.659c0,.309-.165.559-.369.559s-.369-.25-.369-.559.165-.559.369-.559.369.25.369.559" transform="translate(-240.337 -335.1)" fill="#fff"/>
            <path id="Path_19637" data-name="Path 19637" d="M252.354,335.659c0,.309-.165.559-.368.559s-.37-.25-.37-.559.165-.559.37-.559.368.25.368.559" transform="translate(-241.108 -335.1)" fill="#fff"/>
            <path id="Path_19638" data-name="Path 19638" d="M255.752,335.659c0,.309-.165.559-.369.559s-.369-.25-.369-.559.165-.559.369-.559.369.25.369.559" transform="translate(-241.879 -335.1)" fill="#fff"/>
            <path id="Path_19639" data-name="Path 19639" d="M259.151,335.659c0,.309-.165.559-.368.559s-.37-.25-.37-.559.165-.559.37-.559.368.25.368.559" transform="translate(-242.65 -335.1)" fill="#fff"/>
            <path id="Path_19640" data-name="Path 19640" d="M240.46,338.312c0,.308-.165.559-.369.559s-.368-.25-.368-.559.165-.559.368-.559.369.25.369.559" transform="translate(-238.409 -335.702)" fill="#fff"/>
            <path id="Path_19641" data-name="Path 19641" d="M243.858,338.312c0,.308-.165.559-.368.559s-.369-.25-.369-.559.165-.559.369-.559.368.25.368.559" transform="translate(-239.18 -335.702)" fill="#fff"/>
            <path id="Path_19642" data-name="Path 19642" d="M247.256,338.312c0,.308-.165.559-.369.559s-.37-.25-.37-.559.165-.559.37-.559.369.25.369.559" transform="translate(-239.951 -335.702)" fill="#fff"/>
            <path id="Path_19643" data-name="Path 19643" d="M250.654,338.312c0,.308-.165.559-.369.559s-.369-.25-.369-.559.165-.559.369-.559.369.25.369.559" transform="translate(-240.722 -335.702)" fill="#fff"/>
            <path id="Path_19644" data-name="Path 19644" d="M254.053,338.312c0,.308-.165.559-.369.559s-.37-.25-.37-.559.165-.559.37-.559.369.25.369.559" transform="translate(-241.493 -335.702)" fill="#fff"/>
            <path id="Path_19645" data-name="Path 19645" d="M257.451,338.312c0,.308-.165.559-.369.559s-.369-.25-.369-.559.165-.559.369-.559.369.25.369.559" transform="translate(-242.265 -335.702)" fill="#fff"/>
            <path id="Path_19646" data-name="Path 19646" d="M260.85,338.312c0,.308-.165.559-.368.559s-.37-.25-.37-.559.165-.559.37-.559.368.25.368.559" transform="translate(-243.036 -335.702)" fill="#fff"/>
            <path id="Path_19647" data-name="Path 19647" d="M238.76,341.479c0,.308-.164.559-.368.559s-.369-.25-.369-.559.165-.559.369-.559.368.25.368.559" transform="translate(-238.023 -336.421)" fill="#fff"/>
            <path id="Path_19648" data-name="Path 19648" d="M242.159,341.479c0,.308-.165.559-.369.559s-.368-.25-.368-.559.165-.559.368-.559.369.25.369.559" transform="translate(-238.794 -336.421)" fill="#fff"/>
            <path id="Path_19649" data-name="Path 19649" d="M245.557,341.479c0,.308-.165.559-.368.559s-.369-.25-.369-.559.165-.559.369-.559.368.25.368.559" transform="translate(-239.566 -336.421)" fill="#fff"/>
            <path id="Path_19650" data-name="Path 19650" d="M248.956,341.479c0,.308-.165.559-.369.559s-.369-.25-.369-.559.165-.559.369-.559.369.25.369.559" transform="translate(-240.337 -336.421)" fill="#fff"/>
            <path id="Path_19651" data-name="Path 19651" d="M252.354,341.479c0,.308-.165.559-.368.559s-.37-.25-.37-.559.165-.559.37-.559.368.25.368.559" transform="translate(-241.108 -336.421)" fill="#fff"/>
            <path id="Path_19652" data-name="Path 19652" d="M255.752,341.479c0,.308-.165.559-.369.559s-.369-.25-.369-.559.165-.559.369-.559.369.25.369.559" transform="translate(-241.879 -336.421)" fill="#fff"/>
            <path id="Path_19653" data-name="Path 19653" d="M259.151,341.479c0,.308-.165.559-.368.559s-.37-.25-.37-.559.165-.559.37-.559.368.25.368.559" transform="translate(-242.65 -336.421)" fill="#fff"/>
            <path id="Path_19654" data-name="Path 19654" d="M240.46,344.132c0,.308-.165.558-.369.558s-.368-.25-.368-.558.165-.56.368-.56.369.25.369.56" transform="translate(-238.409 -337.022)" fill="#fff"/>
            <path id="Path_19655" data-name="Path 19655" d="M243.858,344.132c0,.308-.165.558-.368.558s-.369-.25-.369-.558.165-.56.369-.56.368.25.368.56" transform="translate(-239.18 -337.022)" fill="#fff"/>
            <path id="Path_19656" data-name="Path 19656" d="M247.256,344.132c0,.308-.165.558-.369.558s-.37-.25-.37-.558.165-.56.37-.56.369.25.369.56" transform="translate(-239.951 -337.022)" fill="#fff"/>
            <path id="Path_19657" data-name="Path 19657" d="M250.654,344.132c0,.308-.165.558-.369.558s-.369-.25-.369-.558.165-.56.369-.56.369.25.369.56" transform="translate(-240.722 -337.022)" fill="#fff"/>
            <path id="Path_19658" data-name="Path 19658" d="M254.053,344.132c0,.308-.165.558-.369.558s-.37-.25-.37-.558.165-.56.37-.56.369.25.369.56" transform="translate(-241.493 -337.022)" fill="#fff"/>
            <path id="Path_19659" data-name="Path 19659" d="M257.451,344.132c0,.308-.165.558-.369.558s-.369-.25-.369-.558.165-.56.369-.56.369.25.369.56" transform="translate(-242.265 -337.022)" fill="#fff"/>
            <path id="Path_19660" data-name="Path 19660" d="M260.85,344.132c0,.308-.165.558-.368.558s-.37-.25-.37-.558.165-.56.37-.56.368.25.368.56" transform="translate(-243.036 -337.022)" fill="#fff"/>
            <path id="Path_19661" data-name="Path 19661" d="M238.76,347.3c0,.308-.164.559-.368.559s-.369-.25-.369-.559.165-.56.369-.56.368.25.368.56" transform="translate(-238.023 -337.741)" fill="#fff"/>
            <path id="Path_19662" data-name="Path 19662" d="M242.159,347.3c0,.308-.165.559-.369.559s-.368-.25-.368-.559.165-.56.368-.56.369.25.369.56" transform="translate(-238.794 -337.741)" fill="#fff"/>
            <path id="Path_19663" data-name="Path 19663" d="M245.557,347.3c0,.308-.165.559-.368.559s-.369-.25-.369-.559.165-.56.369-.56.368.25.368.56" transform="translate(-239.566 -337.741)" fill="#fff"/>
            <path id="Path_19664" data-name="Path 19664" d="M248.956,347.3c0,.308-.165.559-.369.559s-.369-.25-.369-.559.165-.56.369-.56.369.25.369.56" transform="translate(-240.337 -337.741)" fill="#fff"/>
            <path id="Path_19665" data-name="Path 19665" d="M252.354,347.3c0,.308-.165.559-.368.559s-.37-.25-.37-.559.165-.56.37-.56.368.25.368.56" transform="translate(-241.108 -337.741)" fill="#fff"/>
            <path id="Path_19666" data-name="Path 19666" d="M255.752,347.3c0,.308-.165.559-.369.559s-.369-.25-.369-.559.165-.56.369-.56.369.25.369.56" transform="translate(-241.879 -337.741)" fill="#fff"/>
            <path id="Path_19667" data-name="Path 19667" d="M259.151,347.3c0,.308-.165.559-.368.559s-.37-.25-.37-.559.165-.56.37-.56.368.25.368.56" transform="translate(-242.65 -337.741)" fill="#fff"/>
            <path id="Path_19668" data-name="Path 19668" d="M240.46,349.951c0,.309-.165.56-.369.56s-.368-.25-.368-.56.165-.558.368-.558.369.25.369.558" transform="translate(-238.409 -338.343)" fill="#fff"/>
            <path id="Path_19669" data-name="Path 19669" d="M243.858,349.951c0,.309-.165.56-.368.56s-.369-.25-.369-.56.165-.558.369-.558.368.25.368.558" transform="translate(-239.18 -338.343)" fill="#fff"/>
            <path id="Path_19670" data-name="Path 19670" d="M247.256,349.951c0,.309-.165.56-.369.56s-.37-.25-.37-.56.165-.558.37-.558.369.25.369.558" transform="translate(-239.951 -338.343)" fill="#fff"/>
            <path id="Path_19671" data-name="Path 19671" d="M250.654,349.951c0,.309-.165.56-.369.56s-.369-.25-.369-.56.165-.558.369-.558.369.25.369.558" transform="translate(-240.722 -338.343)" fill="#fff"/>
            <path id="Path_19672" data-name="Path 19672" d="M254.053,349.951c0,.309-.165.56-.369.56s-.37-.25-.37-.56.165-.558.37-.558.369.25.369.558" transform="translate(-241.493 -338.343)" fill="#fff"/>
            <path id="Path_19673" data-name="Path 19673" d="M257.451,349.951c0,.309-.165.56-.369.56s-.369-.25-.369-.56.165-.558.369-.558.369.25.369.558" transform="translate(-242.265 -338.343)" fill="#fff"/>
            <path id="Path_19674" data-name="Path 19674" d="M260.85,349.951c0,.309-.165.56-.368.56s-.37-.25-.37-.56.165-.558.37-.558.368.25.368.558" transform="translate(-243.036 -338.343)" fill="#fff"/>
            <path id="Path_19675" data-name="Path 19675" d="M238.76,353.119c0,.309-.164.559-.368.559s-.369-.25-.369-.559.165-.56.369-.56.368.251.368.56" transform="translate(-238.023 -339.062)" fill="#fff"/>
            <path id="Path_19676" data-name="Path 19676" d="M242.159,353.119c0,.309-.165.559-.369.559s-.368-.25-.368-.559.165-.56.368-.56.369.251.369.56" transform="translate(-238.794 -339.062)" fill="#fff"/>
            <path id="Path_19677" data-name="Path 19677" d="M245.557,353.119c0,.309-.165.559-.368.559s-.369-.25-.369-.559.165-.56.369-.56.368.251.368.56" transform="translate(-239.566 -339.062)" fill="#fff"/>
            <path id="Path_19678" data-name="Path 19678" d="M248.956,353.119c0,.309-.165.559-.369.559s-.369-.25-.369-.559.165-.56.369-.56.369.251.369.56" transform="translate(-240.337 -339.062)" fill="#fff"/>
            <path id="Path_19679" data-name="Path 19679" d="M252.354,353.119c0,.309-.165.559-.368.559s-.37-.25-.37-.559.165-.56.37-.56.368.251.368.56" transform="translate(-241.108 -339.062)" fill="#fff"/>
            <path id="Path_19680" data-name="Path 19680" d="M255.752,353.119c0,.309-.165.559-.369.559s-.369-.25-.369-.559.165-.56.369-.56.369.251.369.56" transform="translate(-241.879 -339.062)" fill="#fff"/>
            <path id="Path_19681" data-name="Path 19681" d="M259.151,353.119c0,.309-.165.559-.368.559s-.37-.25-.37-.559.165-.56.37-.56.368.251.368.56" transform="translate(-242.65 -339.062)" fill="#fff"/>
            <path id="Path_19682" data-name="Path 19682" d="M240.46,355.771c0,.309-.165.559-.369.559s-.368-.25-.368-.559.165-.559.368-.559.369.25.369.559" transform="translate(-238.409 -339.664)" fill="#fff"/>
            <path id="Path_19683" data-name="Path 19683" d="M243.858,355.771c0,.309-.165.559-.368.559s-.369-.25-.369-.559.165-.559.369-.559.368.25.368.559" transform="translate(-239.18 -339.664)" fill="#fff"/>
            <path id="Path_19684" data-name="Path 19684" d="M247.256,355.771c0,.309-.165.559-.369.559s-.37-.25-.37-.559.165-.559.37-.559.369.25.369.559" transform="translate(-239.951 -339.664)" fill="#fff"/>
            <path id="Path_19685" data-name="Path 19685" d="M250.654,355.771c0,.309-.165.559-.369.559s-.369-.25-.369-.559.165-.559.369-.559.369.25.369.559" transform="translate(-240.722 -339.664)" fill="#fff"/>
            <path id="Path_19686" data-name="Path 19686" d="M254.053,355.771c0,.309-.165.559-.369.559s-.37-.25-.37-.559.165-.559.37-.559.369.25.369.559" transform="translate(-241.493 -339.664)" fill="#fff"/>
            <path id="Path_19687" data-name="Path 19687" d="M257.451,355.771c0,.309-.165.559-.369.559s-.369-.25-.369-.559.165-.559.369-.559.369.25.369.559" transform="translate(-242.265 -339.664)" fill="#fff"/>
            <path id="Path_19688" data-name="Path 19688" d="M260.85,355.771c0,.309-.165.559-.368.559s-.37-.25-.37-.559.165-.559.37-.559.368.25.368.559" transform="translate(-243.036 -339.664)" fill="#fff"/>
            <path id="Path_19689" data-name="Path 19689" d="M238.76,358.938c0,.309-.164.56-.368.56s-.369-.25-.369-.56.165-.558.369-.558.368.25.368.558" transform="translate(-238.023 -340.383)" fill="#fff"/>
            <path id="Path_19690" data-name="Path 19690" d="M242.159,358.938c0,.309-.165.56-.369.56s-.368-.25-.368-.56.165-.558.368-.558.369.25.369.558" transform="translate(-238.794 -340.383)" fill="#fff"/>
            <path id="Path_19691" data-name="Path 19691" d="M245.557,358.938c0,.309-.165.56-.368.56s-.369-.25-.369-.56.165-.558.369-.558.368.25.368.558" transform="translate(-239.566 -340.383)" fill="#fff"/>
            <path id="Path_19692" data-name="Path 19692" d="M248.956,358.938c0,.309-.165.56-.369.56s-.369-.25-.369-.56.165-.558.369-.558.369.25.369.558" transform="translate(-240.337 -340.383)" fill="#fff"/>
            <path id="Path_19693" data-name="Path 19693" d="M252.354,358.938c0,.309-.165.56-.368.56s-.37-.25-.37-.56.165-.558.37-.558.368.25.368.558" transform="translate(-241.108 -340.383)" fill="#fff"/>
            <path id="Path_19694" data-name="Path 19694" d="M255.752,358.938c0,.309-.165.56-.369.56s-.369-.25-.369-.56.165-.558.369-.558.369.25.369.558" transform="translate(-241.879 -340.383)" fill="#fff"/>
            <path id="Path_19695" data-name="Path 19695" d="M259.151,358.938c0,.309-.165.56-.368.56s-.37-.25-.37-.56.165-.558.37-.558.368.25.368.558" transform="translate(-242.65 -340.383)" fill="#fff"/>
          </g>
        </g>
        <rect id="Rectangle_1162" data-name="Rectangle 1162" width="2.484" height="21.002" transform="translate(44.821 18.309)" fill="#407bff"/>
        <rect id="Rectangle_1163" data-name="Rectangle 1163" width="1.825" height="21.002" transform="translate(61.563 18.309)" fill="#407bff"/>
      </g>
    </g>
  </g>
</svg>
