<?xml version="1.0" encoding="utf-8"?>
<!-- Generator: Adobe Illustrator 14.0.0, SVG Export Plug-In . SVG Version: 6.00 Build 43363)  -->
<!DOCTYPE svg PUBLIC "-//W3C//DTD SVG 1.1//EN" "http://www.w3.org/Graphics/SVG/1.1/DTD/svg11.dtd">
<svg version="1.1" id="Layer_1" xmlns="http://www.w3.org/2000/svg" xmlns:xlink="http://www.w3.org/1999/xlink" x="0px" y="0px"
	 width="65px" height="65px" viewBox="-2.887 -3.25 65 65" enable-background="new -2.887 -3.25 65 65" xml:space="preserve">
<g id="lightning" transform="translate(0)">
	<path id="Path_16381" d="M7.251,36.542c-0.44-0.219-0.976-0.04-1.195,0.4c0,0.001,0,0.001,0,0.001l-4.087,8.22
		c-0.206,0.447-0.009,0.977,0.438,1.183c0.429,0.196,0.936,0.026,1.158-0.39l4.088-8.219C7.871,37.297,7.692,36.761,7.251,36.542
		L7.251,36.542z"/>
	<path id="Path_16382" d="M13.152,36.542c-0.44-0.219-0.974-0.04-1.194,0.4c0,0.001,0,0.001,0,0.001l-4.087,8.22
		c-0.233,0.435-0.069,0.975,0.365,1.208c0.435,0.231,0.976,0.068,1.207-0.366c0.009-0.016,0.017-0.032,0.024-0.049l4.087-8.219
		c0.219-0.44,0.04-0.976-0.4-1.195C13.154,36.542,13.154,36.542,13.152,36.542L13.152,36.542z"/>
	<path id="Path_16383" d="M48.649,36.542c-0.44-0.219-0.976-0.04-1.195,0.4c0,0.001,0,0.001,0,0.001l-4.087,8.22
		c-0.233,0.435-0.069,0.975,0.365,1.208c0.434,0.231,0.974,0.068,1.207-0.365c0.009-0.017,0.017-0.032,0.024-0.05l4.087-8.219
		C49.269,37.297,49.09,36.761,48.649,36.542z"/>
	<path id="Path_16384" d="M54.552,36.542c-0.44-0.219-0.976-0.04-1.195,0.4c0,0.001,0,0.001,0,0.001l-4.087,8.22
		c-0.219,0.441-0.039,0.976,0.402,1.194c0.44,0.22,0.975,0.039,1.193-0.401l4.088-8.219C55.172,37.297,54.993,36.762,54.552,36.542
		C54.552,36.542,54.552,36.542,54.552,36.542z"/>
	<path id="Path_16385" fill="#147DB2" d="M37.154,33.853l-6.092-0.128l4.863-15.308c0.197-0.614-0.142-1.27-0.756-1.465
		c-0.459-0.146-0.962,0.004-1.264,0.38L17.582,37.583c-0.519,0.643-0.418,1.584,0.224,2.102c0.266,0.215,0.598,0.333,0.94,0.332
		h5.779l-8.486,17.605c-0.278,0.58-0.033,1.276,0.548,1.555c0.465,0.223,1.023,0.112,1.369-0.271l20.276-22.561
		c0.552-0.614,0.502-1.56-0.112-2.111c-0.267-0.238-0.609-0.375-0.968-0.382H37.154z M19.524,54.496l6.806-14.118
		c0.359-0.742,0.047-1.638-0.697-1.994c-0.203-0.099-0.425-0.149-0.649-0.149h-5.636L33.228,21.01l-3.985,12.542
		c-0.253,0.785,0.18,1.628,0.966,1.881c0.139,0.044,0.283,0.068,0.429,0.07l5.851,0.122L19.524,54.496z"/>
	<path id="Path_16386" d="M52.946,14.832c0.459-7.127-7.089-11.75-12.857-7.967c-3.126-4.769-8.438-7.649-14.141-7.666
		C17.284-0.66,10.031,5.803,8.893,14.393c-5.503,0.268-9.799,4.856-9.705,10.364v0.082c0.051,4.036,3.337,7.281,7.373,7.281h12.724
		c0.492-0.018,0.877-0.43,0.861-0.923c-0.016-0.468-0.392-0.846-0.861-0.86H6.561c-3.056,0.003-5.547-2.452-5.589-5.508v-0.071
		c-0.108-4.626,3.553-8.464,8.179-8.573c0.16-0.004,0.319-0.003,0.479,0.002c0.476,0.027,0.889-0.324,0.938-0.798
		C11.415,7.268,17.99,0.981,25.948,0.981c5.423,0.028,10.424,2.932,13.136,7.628c0.255,0.422,0.804,0.558,1.226,0.303
		c0.038-0.023,0.075-0.049,0.109-0.078c4.696-3.954,11.636,0.239,10.675,6.525c-0.071,0.463,0.229,0.902,0.686,1.004
		c3.843,0.958,6.521,4.433,6.473,8.393v0.068c-0.041,3.058-2.532,5.514-5.591,5.511h-18.13c-0.492,0.017-0.878,0.428-0.86,0.922
		c0.016,0.468,0.393,0.845,0.86,0.86h18.133c4.037-0.002,7.322-3.246,7.374-7.282v-0.079c0.049-4.499-2.817-8.513-7.09-9.925H52.946
		z"/>
</g>
</svg>
