<svg id="Group_2939" data-name="Group 2939" xmlns="http://www.w3.org/2000/svg" xmlns:xlink="http://www.w3.org/1999/xlink" width="50.927" height="25.533" viewBox="0 0 50.927 25.533">
  <defs>
    <linearGradient id="linear-gradient" y1="0.5" x2="1" y2="0.5" gradientUnits="objectBoundingBox">
      <stop offset="0.13" stop-color="#00a9ed"/>
      <stop offset="1" stop-color="#65106b"/>
    </linearGradient>
    <linearGradient id="linear-gradient-2" x1="0" y1="0.5" x2="1" y2="0.5" xlink:href="#linear-gradient"/>
    <linearGradient id="linear-gradient-3" x1="-1.145" y1="0.989" x2="2.081" y2="-0.083" xlink:href="#linear-gradient"/>
    <linearGradient id="linear-gradient-4" x1="-5.041" y1="1.69" x2="8.381" y2="-1.193" xlink:href="#linear-gradient"/>
    <linearGradient id="linear-gradient-5" x1="-10.309" y1="2.822" x2="3.106" y2="-0.06" xlink:href="#linear-gradient"/>
    <linearGradient id="linear-gradient-6" x1="-0.958" y1="1.514" x2="1.916" y2="-0.403" xlink:href="#linear-gradient"/>
    <linearGradient id="linear-gradient-7" x1="-0.362" y1="2.251" x2="1.523" y2="-1.577" xlink:href="#linear-gradient"/>
    <linearGradient id="linear-gradient-8" x1="-2.075" y1="1.291" x2="9.017" y2="-2.116" xlink:href="#linear-gradient"/>
    <linearGradient id="linear-gradient-9" x1="-8.166" y1="3.162" x2="2.925" y2="-0.245" xlink:href="#linear-gradient"/>
    <linearGradient id="linear-gradient-10" x1="-0.57" y1="1.241" x2="1.47" y2="-0.172" xlink:href="#linear-gradient"/>
    <linearGradient id="linear-gradient-11" x1="-1.446" y1="1.024" x2="8.975" y2="-1.783" xlink:href="#linear-gradient"/>
    <linearGradient id="linear-gradient-12" x1="-6.164" y1="2.285" x2="4.323" y2="-0.524" xlink:href="#linear-gradient"/>
    <linearGradient id="linear-gradient-14" x1="-10.02" y1="1.94" x2="22.351" y2="-2.49" xlink:href="#linear-gradient"/>
    <linearGradient id="linear-gradient-15" x1="-15.865" y1="2.733" x2="16.626" y2="-1.701" xlink:href="#linear-gradient"/>
    <linearGradient id="linear-gradient-16" x1="-11.972" y1="2.206" x2="20.459" y2="-2.229" xlink:href="#linear-gradient"/>
    <linearGradient id="linear-gradient-17" x1="-13.854" y1="2.467" x2="18.461" y2="-1.962" xlink:href="#linear-gradient"/>
  </defs>
  <g id="Group_2926" data-name="Group 2926" transform="translate(0.007)">
    <path id="Path_18406" data-name="Path 18406" d="M354.427,407.661h-.015a2.444,2.444,0,1,0,.015,4.889h.019a2.444,2.444,0,1,0-.019-4.889Z" transform="translate(-348.481 -393.973)" fill="#fff"/>
    <path id="Path_18407" data-name="Path 18407" d="M364.5,407.582h-.02a2.445,2.445,0,0,0,.02,4.889h.017a2.445,2.445,0,0,0-.017-4.889Z" transform="translate(-334.008 -394.086)" fill="#fff"/>
    <path id="Path_18408" data-name="Path 18408" d="M383.7,411.016l-2.929-5.308c-.969-1.707-2.388-3.669-4.784-3.669l-5.223.044-9.3.075c-1.953.015-3.662,1.349-4.816,3.752l-2.953,5.317a3.984,3.984,0,0,0-3.146,3.808c-.007.1-.01.2-.01.295a.894.894,0,0,0,.015.161l.984,5.89a2.555,2.555,0,0,0,.236.971,2.588,2.588,0,0,0,1.359,1.31,2.13,2.13,0,0,0,.239.085l.015,2.057a1.788,1.788,0,0,0,1.782,1.768l2.1-.017a1.783,1.783,0,0,0,1.768-1.8l-.012-2.055,19.7-.146.015,2.052a1.789,1.789,0,0,0,1.794,1.768l1.967-.02a1.767,1.767,0,0,0,1.259-.528,1.789,1.789,0,0,0,.514-1.264l-.015-2.072a2.6,2.6,0,0,0,1.753-2.374l.918-5.9a1.118,1.118,0,0,0,.01-.156A4.051,4.051,0,0,0,383.7,411.016Z" transform="translate(-350.54 -402.039)" fill="#fff"/>
    <path id="Path_18409" data-name="Path 18409" d="M356.479,407.746h-.007a.783.783,0,0,0-.777.789l.012,1.531a.784.784,0,0,0,.784.779h0a.785.785,0,0,0,.777-.791l-.012-1.531A.783.783,0,0,0,356.479,407.746Z" transform="translate(-343.144 -393.851)" fill="#fff"/>
    <path id="Path_18410" data-name="Path 18410" d="M360.489,407.7h0a.784.784,0,0,0-.777.789l.01,1.531a.784.784,0,0,0,.784.779h0a.786.786,0,0,0,.779-.791l-.012-1.531A.785.785,0,0,0,360.489,407.7Z" transform="translate(-337.388 -393.913)" fill="#fff"/>
    <path id="Path_18411" data-name="Path 18411" d="M357.816,407.73h-.007a.78.78,0,0,0-.777.789l.012,1.531a.783.783,0,0,0,.782.774h.007a.78.78,0,0,0,.777-.789L358.6,408.5A.781.781,0,0,0,357.816,407.73Z" transform="translate(-341.226 -393.874)" fill="#fff"/>
    <path id="Path_18412" data-name="Path 18412" d="M359.153,407.712h0a.784.784,0,0,0-.779.789l.012,1.531a.784.784,0,0,0,.782.777h.007a.784.784,0,0,0,.779-.789l-.012-1.531A.783.783,0,0,0,359.153,407.712Z" transform="translate(-339.307 -393.9)" fill="#fff"/>
  </g>
  <g id="Group_2931" data-name="Group 2931" transform="translate(33.568 3.384)">
    <path id="Path_18413" data-name="Path 18413" d="M373,425.028a1.614,1.614,0,0,1-1.612-1.612v-1.31a7.275,7.275,0,0,1-3.314-1.076l-.029-.024-.029-.027c-.2-.2-.869-1.166-.869-4.984a8.081,8.081,0,0,1,1.724-5.135.906.906,0,0,1-.475-.319h-2.111a1.26,1.26,0,0,1,0-2.52H368.4c.022-.027.046-.054.071-.08l-.114-.47a.165.165,0,0,0-.078-.095l-1.617-.9a1.582,1.582,0,0,1-.723.173,1.612,1.612,0,1,1,1.607-1.753l1.609.894a1.987,1.987,0,0,1,.952,1.232l.161.643h.382a2.673,2.673,0,0,1,4.714,0h.382l.156-.635a2.007,2.007,0,0,1,.957-1.242l1.612-.893a1.611,1.611,0,1,1,.879,1.583l-1.612.9a.165.165,0,0,0-.08.1l-.114.46a.694.694,0,0,1,.071.08h2.108a1.26,1.26,0,0,1,0,2.52h-2.111a.893.893,0,0,1-.477.319,8.052,8.052,0,0,1,1.726,5.135c0,3.818-.665,4.782-.867,4.984l-.029.027-.032.024a7.273,7.273,0,0,1-3.314,1.076v1.31A1.614,1.614,0,0,1,373,425.028Z" transform="translate(-364.324 -403.429)" fill="url(#linear-gradient)"/>
    <path id="Path_18414" data-name="Path 18414" d="M372.9,424.762a1.447,1.447,0,0,1-1.444-1.444v-1.461a7.157,7.157,0,0,1-3.382-1.062l-.02-.012-.019-.019c-.139-.139-.818-1.015-.818-4.867a7.762,7.762,0,0,1,1.889-5.269h-.092a.742.742,0,0,1-.631-.355h-2.2a1.091,1.091,0,0,1,0-2.181h2.2a.708.708,0,0,1,.17-.19l-.141-.57a.336.336,0,0,0-.156-.2l-1.7-.94a1.446,1.446,0,1,1,.718-1.288l1.692.94a1.818,1.818,0,0,1,.872,1.125l.19.769h.616a2.5,2.5,0,0,1,4.509,0h.613l.19-.762a1.815,1.815,0,0,1,.877-1.135l1.69-.94a1.444,1.444,0,1,1,1.444,1.485,1.478,1.478,0,0,1-.726-.195l-1.695.937a.355.355,0,0,0-.161.209l-.136.562a.7.7,0,0,1,.168.19h2.2a1.091,1.091,0,0,1,0,2.181h-2.2a.741.741,0,0,1-.631.355H376.7a7.749,7.749,0,0,1,1.892,5.269c0,3.852-.684,4.728-.818,4.867l-.02.019-.022.012a7.158,7.158,0,0,1-3.382,1.062v1.461A1.444,1.444,0,0,1,372.9,424.762Z" transform="translate(-364.225 -403.331)" fill="url(#linear-gradient-2)"/>
    <g id="Group_2930" data-name="Group 2930" transform="translate(0.553 0.55)">
      <path id="Path_18415" data-name="Path 18415" d="M365.547,405.542h2.985v1.412h-2.985a.706.706,0,1,1,0-1.412Zm0,0" transform="translate(-364.135 -400.948)" fill="#fff"/>
      <path id="Path_18416" data-name="Path 18416" d="M369.373,405.542h3.1a.706.706,0,1,1,0,1.412h-3.1Zm0,0" transform="translate(-357.633 -400.948)" fill="#fff"/>
      <path id="Path_18417" data-name="Path 18417" d="M368.7,408.419a.354.354,0,0,1-.343-.265l-.414-1.673a.725.725,0,0,0-.341-.443l-2.42-1.341a.354.354,0,1,1,.341-.618l2.418,1.344a1.421,1.421,0,0,1,.687.886l.416,1.675a.353.353,0,0,1-.258.428.333.333,0,0,1-.085.007Zm0,0" transform="translate(-363.933 -403.124)" fill="#fff"/>
      <path id="Path_18418" data-name="Path 18418" d="M369.483,408.362a.358.358,0,0,1-.278-.136.353.353,0,0,1-.063-.3l.394-1.6a1.434,1.434,0,0,1,.689-.891l2.471-1.373a.353.353,0,1,1,.341.618l-2.469,1.371a.73.73,0,0,0-.346.45l-.4,1.592a.35.35,0,0,1-.343.268Zm0,0" transform="translate(-357.979 -403.139)" fill="#fff"/>
      <path id="Path_18419" data-name="Path 18419" d="M372.588,406.122l1.254.355a7.04,7.04,0,0,1,2.471,5.653c0,3.888-.706,4.592-.706,4.592a7.168,7.168,0,0,1-3.535,1.02h-2.121a7.164,7.164,0,0,1-3.533-1.02s-.706-.7-.706-4.592a7.038,7.038,0,0,1,2.474-5.653l1.251-.355Zm0,0" transform="translate(-362.885 -400.116)" fill="#fff"/>
      <g id="Group_2927" data-name="Group 2927" transform="translate(7.066 16.193)">
        <path id="Path_18420" data-name="Path 18420" d="M369.574,410.306v3.243a1.06,1.06,0,0,1-2.121,0v-3.243Zm0,0" transform="translate(-367.453 -410.306)" fill="url(#linear-gradient-3)"/>
      </g>
      <path id="Path_18421" data-name="Path 18421" d="M366.5,410.4a.353.353,0,0,1-.353-.353,7.9,7.9,0,0,1,.37-2.233.347.347,0,0,1,.263-.234.352.352,0,0,1,.409.458,7.312,7.312,0,0,0-.336,2.009.353.353,0,0,1-.353.353Zm0,0" transform="translate(-362.26 -398.033)" fill="url(#linear-gradient-4)"/>
      <path id="Path_18422" data-name="Path 18422" d="M369.9,410.4a.351.351,0,0,1-.351-.353,7.494,7.494,0,0,0-.336-2.009.354.354,0,0,1,.672-.224,8.078,8.078,0,0,1,.37,2.233.355.355,0,0,1-.356.353Zm0,0" transform="translate(-357.887 -398.033)" fill="url(#linear-gradient-5)"/>
      <path id="Path_18423" data-name="Path 18423" d="M368.1,411.025a.353.353,0,0,1-.353-.353v-3.18a.353.353,0,1,1,.706,0v3.18a.353.353,0,0,1-.353.353Zm0,0" transform="translate(-359.97 -398.656)" fill="#1a86ca"/>
      <path id="Path_18424" data-name="Path 18424" d="M369.347,412.834a5.854,5.854,0,0,0,2.474-.426V409.44a4.035,4.035,0,0,0-4.947,0v2.968a5.855,5.855,0,0,0,2.474.426Zm0,0" transform="translate(-361.219 -396.577)" fill="url(#linear-gradient-6)"/>
      <path id="Path_18425" data-name="Path 18425" d="M368.39,405.4H366.5a.353.353,0,0,0-.353.353v1.412a.354.354,0,0,0,.353.355h7.772a.356.356,0,0,0,.356-.355V405.75a.355.355,0,0,0-.356-.353Zm0,0" transform="translate(-362.26 -401.156)" fill="url(#linear-gradient-7)"/>
      <g id="Group_2928" data-name="Group 2928">
        <path id="Path_18426" data-name="Path 18426" d="M366.672,404.717a1.06,1.06,0,1,1-1.062-1.062,1.06,1.06,0,0,1,1.062,1.062Zm0,0" transform="translate(-364.551 -403.655)" fill="url(#linear-gradient-8)"/>
      </g>
      <g id="Group_2929" data-name="Group 2929" transform="translate(14.136)">
        <path id="Path_18427" data-name="Path 18427" d="M372.478,404.717a1.06,1.06,0,1,1-1.062-1.062,1.062,1.062,0,0,1,1.062,1.062Zm0,0" transform="translate(-370.357 -403.655)" fill="url(#linear-gradient-9)"/>
      </g>
      <path id="Path_18428" data-name="Path 18428" d="M371.258,406.939a2.119,2.119,0,1,1-2.121-2.123,2.12,2.12,0,0,1,2.121,2.123Zm0,0" transform="translate(-361.01 -401.989)" fill="#fff"/>
      <path id="Path_18429" data-name="Path 18429" d="M370.136,406.523a1.413,1.413,0,1,1-1.415-1.417,1.414,1.414,0,0,1,1.415,1.417Zm0,0" transform="translate(-360.594 -401.573)" fill="url(#linear-gradient-10)"/>
    </g>
  </g>
  <g id="Group_2938" data-name="Group 2938">
    <path id="Path_18430" data-name="Path 18430" d="M354.4,407.666h-.015a2.476,2.476,0,0,0,.017,4.952h.017a2.476,2.476,0,1,0-.019-4.952Zm.894,2.471" transform="translate(-348.55 -393.966)" fill="url(#linear-gradient-11)"/>
    <path id="Path_18431" data-name="Path 18431" d="M364.607,407.586h-.015a2.476,2.476,0,0,0,.017,4.952h.019a2.476,2.476,0,0,0-.022-4.952Zm.01,3.367" transform="translate(-333.888 -394.08)" fill="url(#linear-gradient-12)"/>
    <g id="Group_2934" data-name="Group 2934">
      <g id="Group_2932" data-name="Group 2932" transform="translate(28.796 14.053)">
        <path id="Path_18432" data-name="Path 18432" d="M363.49,408.046a1.682,1.682,0,1,0,1.838.351A1.676,1.676,0,0,0,363.49,408.046Z" transform="translate(-362.219 -407.666)" fill="#fff"/>
        <path id="Path_18433" data-name="Path 18433" d="M364.29,411.668a1.928,1.928,0,0,1-.75-3.7h0a1.928,1.928,0,1,1,.765,3.7Zm-.558-3.25a1.437,1.437,0,0,0,.558,2.761h.007a1.437,1.437,0,1,0-.565-2.761Z" transform="translate(-362.364 -407.811)" fill="#edeeef"/>
      </g>
      <g id="Group_2933" data-name="Group 2933" transform="translate(3.927 14.249)">
        <path id="Path_18434" data-name="Path 18434" d="M353.279,408.126a1.681,1.681,0,1,0,1.838.348A1.674,1.674,0,0,0,353.279,408.126Z" transform="translate(-352.005 -407.747)" fill="#fff"/>
        <path id="Path_18435" data-name="Path 18435" d="M354.076,411.747a1.928,1.928,0,0,1-.75-3.7h0a1.928,1.928,0,1,1,.767,3.7Zm-.558-3.25a1.436,1.436,0,0,0,.558,2.759h.012a1.436,1.436,0,1,0-.57-2.759Z" transform="translate(-352.15 -407.891)" fill="#edeeef"/>
      </g>
      <path id="Path_18436" data-name="Path 18436" d="M355.058,427.572a1.643,1.643,0,0,1-1.639-1.626l-.015-2.206-.119-.034c-.075-.024-.153-.051-.229-.083a2.453,2.453,0,0,1-1.51-2.162l0-.01-1-5.977a.861.861,0,0,1-.01-.136c0-.107,0-.2.007-.29a3.876,3.876,0,0,1,3.051-3.7l.078-.015,3.029-5.459c1.144-2.384,2.824-3.7,4.738-3.715l9.415-.075,5.293-.044c2.337,0,3.74,1.943,4.7,3.633l3.007,5.444.078.012a3.965,3.965,0,0,1,3.141,3.937.815.815,0,0,1-.01.131l-.93,5.99v.01a2.473,2.473,0,0,1-1.663,2.255l-.114.039.015,2.22a1.642,1.642,0,0,1-1.629,1.648l-2.462.017a1.652,1.652,0,0,1-1.653-1.626l-.015-2.128-19.466.151.012,2.133a1.634,1.634,0,0,1-1.624,1.651Zm-2.854-6.187a1.751,1.751,0,0,0,.163.721,1.793,1.793,0,0,0,.945.908,1.75,1.75,0,0,0,.677.136h.239l25.207-.195,4.09-.034h.17a1.8,1.8,0,0,0,1.78-1.789l.94-6.053v-.01a3.242,3.242,0,0,0-2.91-3.326v0h-.166l-11.18.088-17.718.136.007-.015-.27,0a3.153,3.153,0,0,0-2.978,3.134c0,.085-.007.17-.007.253v.015Z" transform="translate(-350.537 -402.039)" fill="url(#linear-gradient)"/>
    </g>
    <g id="Group_2935" data-name="Group 2935" transform="translate(28.652 20.469)">
      <path id="Path_18437" data-name="Path 18437" d="M366.517,413.506a.815.815,0,0,1-.808.818l-2.464.017a.812.812,0,0,1-.818-.808l-.022-2.951,4.09-.034Zm0,0" transform="translate(-362.161 -410.3)" fill="#fff"/>
      <path id="Path_18438" data-name="Path 18438" d="M363.384,414.734a1.058,1.058,0,0,1-1.057-1.052l-.022-3.2,4.58-.036.019,3.2a1.056,1.056,0,0,1-1.049,1.064l-2.464.019Zm-.587-3.764.02,2.71a.568.568,0,0,0,.567.563h0l2.464-.02a.561.561,0,0,0,.565-.57l-.02-2.712Z" transform="translate(-362.305 -410.446)" fill="#edeeef"/>
    </g>
    <path id="Path_18439" data-name="Path 18439" d="M352.034,406.179" transform="translate(-348.389 -396.099)" fill="#c05d3e"/>
    <g id="Group_2936" data-name="Group 2936" transform="translate(3.443 20.664)">
      <path id="Path_18440" data-name="Path 18440" d="M356.158,413.586a.813.813,0,0,1-.8.82l-2.466.017a.815.815,0,0,1-.818-.808l-.017-2.956,4.088-.032Zm0,0" transform="translate(-351.805 -410.38)" fill="#fff"/>
      <path id="Path_18441" data-name="Path 18441" d="M353.03,414.816a1.061,1.061,0,0,1-1.059-1.052l-.02-3.2,4.577-.036.022,3.2a1.042,1.042,0,0,1-.3.75,1.057,1.057,0,0,1-.747.317l-2.464.019Zm-.587-3.767.017,2.712a.571.571,0,0,0,.57.562h0l2.466-.017a.565.565,0,0,0,.563-.57l-.019-2.715Z" transform="translate(-351.951 -410.526)" fill="#edeeef"/>
    </g>
    <path id="Path_18442" data-name="Path 18442" d="M356.484,407.752h0a.8.8,0,0,0-.789.8l.012,1.551a.794.794,0,0,0,.794.786h.007a.793.793,0,0,0,.786-.8l-.012-1.553a.8.8,0,0,0-.794-.786Zm0,0" transform="translate(-343.144 -393.842)" fill="url(#linear-gradient-14)"/>
    <path id="Path_18443" data-name="Path 18443" d="M360.546,407.709h0a.792.792,0,0,0-.786.8l.01,1.551a.791.791,0,0,0,.794.789h0a.792.792,0,0,0,.786-.8l-.01-1.553a.792.792,0,0,0-.794-.786Zm0,0" transform="translate(-337.312 -393.904)" fill="url(#linear-gradient-15)"/>
    <path id="Path_18444" data-name="Path 18444" d="M357.839,407.735h-.007a.792.792,0,0,0-.786.8l.012,1.551a.789.789,0,0,0,.791.786h.007a.79.79,0,0,0,.786-.8l-.012-1.549a.792.792,0,0,0-.791-.789Zm0,0" transform="translate(-341.2 -393.867)" fill="url(#linear-gradient-16)"/>
    <path id="Path_18445" data-name="Path 18445" d="M359.2,407.718h-.007a.8.8,0,0,0-.789.8l.012,1.551a.8.8,0,0,0,.8.789h0a.8.8,0,0,0,.789-.8l-.015-1.551a.792.792,0,0,0-.791-.786Zm0,0" transform="translate(-339.257 -393.891)" fill="url(#linear-gradient-17)"/>
    <g id="Group_2937" data-name="Group 2937" transform="translate(6.931 5.943)">
      <path id="Path_18446" data-name="Path 18446" d="M353.387,408.4l0-.117a3.761,3.761,0,1,1,7.521-.056l0,.11-.791.01v-.114a2.973,2.973,0,1,0-5.946.041l0,.117Z" transform="translate(-353.384 -404.48)" fill="#fff"/>
    </g>
  </g>
</svg>
