<svg id="Group_2949" data-name="Group 2949" xmlns="http://www.w3.org/2000/svg" xmlns:xlink="http://www.w3.org/1999/xlink" width="35.339" height="32.487" viewBox="0 0 35.339 32.487">
  <defs>
    <linearGradient id="linear-gradient" y1="0.5" x2="1" y2="0.5" gradientUnits="objectBoundingBox">
      <stop offset="0.13" stop-color="#00a9ed"/>
      <stop offset="1" stop-color="#65106b"/>
    </linearGradient>
    <linearGradient id="linear-gradient-2" x1="-1.18" y1="0.96" x2="1.669" y2="0.192" xlink:href="#linear-gradient"/>
  </defs>
  <path id="Path_18452" data-name="Path 18452" d="M497.591,434.487a4.253,4.253,0,0,1-1.164-.166,1.021,1.021,0,0,1-.1-.032l-6.7-2.374-.092.132a2.175,2.175,0,0,1-1.8.954h-1.553A2.181,2.181,0,0,1,484,430.822V419.316a2.18,2.18,0,0,1,2.181-2.179h1.41l-.224-.326a2.128,2.128,0,0,1,.292-2.756l3.825-3.6-.007-4.553a1.176,1.176,0,0,1,1.178-1.178l2.788,0a1.178,1.178,0,0,1,1.054.65l.127.246,3.216-3.031a2.129,2.129,0,0,1,2.914,0l12.215,11.441a2.131,2.131,0,0,1-2.914,3.109l-.825-.774.007,6.773,3.45-2.306a2.958,2.958,0,0,1,1.658-.509,2.991,2.991,0,0,1,1.992,5.227l-6.754,6.072-.044.041a6.018,6.018,0,0,1-2.844,1.276l-.041.007-10.447,1.5A3.926,3.926,0,0,1,497.591,434.487Zm-7.007-17.333a2.127,2.127,0,0,1-.986.526l-.314.073.195.253a2.187,2.187,0,0,1,.309.575l.049.136h.507c.278,0,.562.01.845.034l.224.017,0-2.391Z" transform="translate(-484.003 -402)" fill="url(#linear-gradient)"/>
  <g id="Group_2948" data-name="Group 2948" transform="translate(0.74 0.59)">
    <g id="Group_2944" data-name="Group 2944" transform="translate(7.477 2.712)">
      <path id="Path_18453" data-name="Path 18453" d="M490.875,409.436l-3.365,0-.007-5.668a.288.288,0,0,1,.285-.29l2.79,0a.288.288,0,0,1,.287.287Z" transform="translate(-487.199 -403.177)" fill="#fff"/>
      <path id="Path_18454" data-name="Path 18454" d="M487.388,409.925l-.01-5.972a.59.59,0,0,1,.589-.592l2.79,0a.594.594,0,0,1,.592.592l.01,5.972Zm3.353-5.975-2.773.017.027,5.349,2.756,0Z" transform="translate(-487.378 -403.356)" fill="#edeeef"/>
    </g>
    <g id="Group_2945" data-name="Group 2945" transform="translate(7.402 2.497)">
      <path id="Path_18455" data-name="Path 18455" d="M496.48,403.439l-9.008,8.487.02,12.9a.61.61,0,0,0,.614.611l16.812-.02a.62.62,0,0,0,.616-.618l-.02-12.9Z" transform="translate(-487.168 -403.023)" fill="#fff"/>
      <path id="Path_18456" data-name="Path 18456" d="M488.284,425.991a.9.9,0,0,1-.648-.268.914.914,0,0,1-.27-.648l-.02-13.036,9.313-8.772L506,412.014l.02,13.036a.923.923,0,0,1-.92.92l-16.812.022Zm-.329-13.688.017,12.77a.312.312,0,0,0,.312.312h0l16.812-.022a.312.312,0,0,0,.312-.314l-.017-12.77L496.66,404.1Z" transform="translate(-487.347 -403.268)" fill="#edeeef"/>
    </g>
    <g id="Group_2946" data-name="Group 2946" transform="translate(2.989)">
      <path id="Path_18457" data-name="Path 18457" d="M511.293,416.283a1.234,1.234,0,0,1-.85-.336L499.08,405.305l-11.331,10.676a1.239,1.239,0,1,1-1.7-1.8L498.228,402.7a1.238,1.238,0,0,1,1.7,0l12.21,11.438a1.238,1.238,0,0,1-.845,2.143Z" transform="translate(-485.355 -402.065)" fill="#fff"/>
      <path id="Path_18458" data-name="Path 18458" d="M487.079,416.8a1.543,1.543,0,0,1-1.059-2.666L498.2,402.658a1.557,1.557,0,0,1,2.116,0l12.21,11.438a1.544,1.544,0,0,1-1.052,2.671h0a1.534,1.534,0,0,1-1.057-.416L499.26,405.9,488.138,416.38A1.541,1.541,0,0,1,487.079,416.8Zm12.179-13.951a.927.927,0,0,0-.64.256l-12.181,11.472a.934.934,0,0,0-.292.652.913.913,0,0,0,.253.67.935.935,0,0,0,1.322.039l11.541-10.871,11.57,10.839a.936.936,0,0,0,.64.253h0a.936.936,0,0,0,.636-1.619L499.9,403.1A.924.924,0,0,0,499.258,402.848Z" transform="translate(-485.535 -402.242)" fill="#edeeef"/>
    </g>
    <path id="Path_18459" data-name="Path 18459" d="M495.09,407.808l-4.631.007a.394.394,0,0,0-.394.394l.017,10.959,5.417-.007-.015-10.961A.392.392,0,0,0,495.09,407.808Z" transform="translate(-476.046 -394.257)" fill="url(#linear-gradient-2)"/>
    <path id="Path_18460" data-name="Path 18460" d="M514.1,411.3l-6.825,4.57-2.035-.114-.08-.8a2.592,2.592,0,0,0-2.221-2.315l-5.454-.628a9.761,9.761,0,0,1-3.564-1.242h0a9.768,9.768,0,0,0-4.93-1.334h-3.93v8.97l10.384,3.932a2.9,2.9,0,0,0,1.208.083l.007,0,10.457-1.507a4.636,4.636,0,0,0,2.2-.986l6.759-6.077a1.611,1.611,0,0,0,.26-2.113h0A1.612,1.612,0,0,0,514.1,411.3Z" transform="translate(-483.232 -391.927)" fill="url(#linear-gradient)"/>
    <g id="Group_2947" data-name="Group 2947" transform="translate(0 15.134)">
      <path id="Path_18461" data-name="Path 18461" d="M487.276,422.666H485.72a1.285,1.285,0,0,1-1.288-1.288V409.871a1.285,1.285,0,0,1,1.288-1.288h1.556a1.285,1.285,0,0,1,1.285,1.288v11.507A1.285,1.285,0,0,1,487.276,422.666Z" transform="translate(-484.128 -408.279)" fill="#fff"/>
      <path id="Path_18462" data-name="Path 18462" d="M487.455,423.149H485.9a1.594,1.594,0,0,1-1.592-1.592V410.05a1.594,1.594,0,0,1,1.592-1.592h1.556a1.594,1.594,0,0,1,1.59,1.592v11.507A1.594,1.594,0,0,1,487.455,423.149ZM485.9,409.067a.984.984,0,0,0-.984.984v11.507a.982.982,0,0,0,.984.984h1.556a.984.984,0,0,0,.984-.984V410.05a.986.986,0,0,0-.984-.984Z" transform="translate(-484.307 -408.458)" fill="#edeeef"/>
    </g>
    <path id="Path_18463" data-name="Path 18463" d="M515.191,411.746a2.1,2.1,0,0,0-2.9-.565l-4,2.678-.027.017-.319.212h0l-1.222.82-1.125.752-1.458-.083-.036-.385a3.075,3.075,0,0,0-2.474-2.722l-.971-.122-4.063-.47-.382-.041-.974-.168a9.222,9.222,0,0,1-2.612-1.035c-.1-.061-.2-.117-.309-.173-.041-.024-.08-.041-.122-.063-.063-.034-.129-.066-.19-.1s-.1-.049-.153-.073-.11-.051-.166-.078-.112-.049-.168-.073l-.156-.066c-.056-.024-.114-.046-.173-.071s-.1-.039-.153-.059-.117-.044-.178-.061-.107-.039-.161-.058-.112-.037-.168-.054l-.18-.056-.153-.044c-.068-.02-.136-.036-.2-.053a.658.658,0,0,0-.1-.024v0c-.506-.117-.974-.185-.974-.185a10.265,10.265,0,0,0-1.473-.11h-1.32v.974h1.32a9.162,9.162,0,0,1,2.094.241l.078.017c.083.019.168.041.251.066l.015,0c.09.024.173.049.256.075l.046.012.263.085.027.01c.183.063.365.134.543.207l.02.007c.1.041.187.08.275.119l.007,0,.251.119.032.015c.08.041.161.083.243.129l.044.024.243.134a10.183,10.183,0,0,0,3.742,1.3h.012l5.444.626c.029,0,.061.01.09.017a2.087,2.087,0,0,1,1.709,1.867l.022.217-10.2-.894a.486.486,0,1,0-.085.969l10.786.942h0l.01,0,2.035.114h.02l.029,0,.039,0,.044,0,.029-.007.032-.012.041-.015a.543.543,0,0,0,.063-.039l1.729-1.154h0l5.1-3.413a1.127,1.127,0,0,1,1.373,1.782l-6.749,6.07a4.147,4.147,0,0,1-1.953.872l-10.452,1.507h-.007l-.007,0a2.278,2.278,0,0,1-.979-.063l-7.928-2.817v1.042l7.6,2.693.041.012a3.381,3.381,0,0,0,.923.131,3.025,3.025,0,0,0,.492-.039l10.457-1.507h.007a5.126,5.126,0,0,0,2.425-1.088l.015-.007,6.761-6.082A2.106,2.106,0,0,0,515.191,411.746Z" transform="translate(-481.694 -392.215)" fill="#fff"/>
  </g>
</svg>
