<svg xmlns="http://www.w3.org/2000/svg" xmlns:xlink="http://www.w3.org/1999/xlink" width="78.537" height="72.404" viewBox="0 0 78.537 72.404">
  <defs>
    <linearGradient id="linear-gradient" x1="0.5" x2="0.5" y2="1" gradientUnits="objectBoundingBox">
      <stop offset="0.13" stop-color="#00a9ed"/>
      <stop offset="1" stop-color="#65106b"/>
    </linearGradient>
  </defs>
  <g id="XMLID_996_" transform="translate(0.002 -19.996)">
    <g id="XMLID_41_" transform="translate(0 20)">
      <path id="XMLID_4218_" d="M310.292,128.816a1.534,1.534,0,1,0,2.169-2.169l-.021-.021a1.534,1.534,0,1,0-2.169,2.169Z" transform="translate(-262.298 -109.89)" fill="url(#linear-gradient)"/>
      <path id="XMLID_4221_" d="M72.74,53.439l5.346-5.346A1.534,1.534,0,0,0,77,45.474H65.919A33.429,33.429,0,1,0,15.941,81.946L11.32,90.111a1.534,1.534,0,0,0,1.335,2.29h7.9a1.534,1.534,0,0,0,1.335-.778l3.268-5.773a33.843,33.843,0,0,0,16.565,0l3.268,5.773a1.534,1.534,0,0,0,1.335.778h7.9a1.534,1.534,0,0,0,1.335-2.289L50.94,81.948a33.685,33.685,0,0,0,6.147-4.862A33.326,33.326,0,0,0,65.919,61.4H77a1.534,1.534,0,0,0,1.085-2.619ZM69.94,51.9H59.24L62.6,48.542H73.3ZM19.66,89.333H15.286l3.339-5.9a32.982,32.982,0,0,0,3.526,1.5Zm31.933,0H47.218l-2.49-4.4a32.981,32.981,0,0,0,3.526-1.5Zm3.322-14.418A30.508,30.508,0,0,1,48.189,80c-.03.015-.06.028-.09.045s-.035.023-.053.034a29.976,29.976,0,0,1-5.881,2.463,1.519,1.519,0,0,0-.238.069,30.669,30.669,0,0,1-16.975,0,1.524,1.524,0,0,0-.239-.069,29.972,29.972,0,0,1-5.881-2.463l-.053-.034c-.018-.011-.06-.031-.09-.045A30.375,30.375,0,1,1,62.753,45.474h-.794a1.534,1.534,0,0,0-1.085.449L56.8,49.995a23.633,23.633,0,0,0-2.674-7.966,1.534,1.534,0,0,0-2.686,1.483,20.369,20.369,0,0,1,2.478,8.394h-6.76a13.81,13.81,0,1,0,0,3.068h6.757A20.534,20.534,0,1,1,43.368,35.435,1.534,1.534,0,1,0,44.85,32.75,23.626,23.626,0,1,0,56.808,56.889l4.066,4.066a1.534,1.534,0,0,0,1.085.449h.794a30.273,30.273,0,0,1-7.838,13.511ZM38.449,50.547a1.534,1.534,0,0,0-2.1-.561l-3.681,2.125a1.534,1.534,0,0,0,0,2.657l3.681,2.125a1.533,1.533,0,0,0,2.18-1.92h5.533a10.655,10.655,0,0,1-3.036,6.058h0a10.735,10.735,0,1,1,3.036-9.126H38.534a1.53,1.53,0,0,0-.085-1.358Zm24.145,7.789-3.363-3.363h10.7L73.3,58.336Z" transform="translate(0 -20)" fill="url(#linear-gradient)"/>
    </g>
  </g>
</svg>
