<?xml version="1.0" encoding="utf-8"?>
<!-- Generator: Adobe Illustrator 14.0.0, SVG Export Plug-In . SVG Version: 6.00 Build 43363)  -->
<!DOCTYPE svg PUBLIC "-//W3C//DTD SVG 1.1//EN" "http://www.w3.org/Graphics/SVG/1.1/DTD/svg11.dtd">
<svg version="1.1" id="Layer_1" xmlns="http://www.w3.org/2000/svg" xmlns:xlink="http://www.w3.org/1999/xlink" x="0px" y="0px"
	 width="24.152px" height="24.154px" viewBox="0 0 24.152 24.154" enable-background="new 0 0 24.152 24.154" xml:space="preserve">
<g id="telephone" transform="matrix(0.966, 0.259, -0.259, 0.966, 5.094, -0.003)">
	<g id="Group_1073" transform="translate(0.011 0)">
		<path id="Path_15701" fill="#801C7D" d="M19.214,14.546l-2.452-2.452c-0.678-0.676-1.774-0.676-2.451,0l-1.115,1.114
			c-0.513,0.512-1.344,0.512-1.857,0L6.508,8.376c-0.513-0.514-0.513-1.344,0-1.857l0,0L7.623,5.4
			C8.3,4.724,8.301,3.627,7.624,2.949l0-0.001L5.171,0.507c-0.676-0.675-1.772-0.675-2.45,0L1.828,1.393
			c-2.437,2.443-2.438,6.398,0,8.841l7.653,7.657c2.439,2.442,6.395,2.443,8.836,0.005c0.003-0.002,0.004-0.003,0.006-0.005
			L19.214,17C19.891,16.322,19.891,15.224,19.214,14.546z M3.537,1.324c0.227-0.226,0.593-0.226,0.819,0l2.45,2.444
			c0.225,0.226,0.225,0.592,0,0.817L6.396,4.994L3.13,1.727L3.537,1.324z M10.299,17.072L2.645,9.415
			C0.777,7.558,0.639,4.581,2.326,2.558l3.258,3.257C4.722,6.792,4.768,8.271,5.688,9.192l4.83,4.834l0,0
			c0.92,0.922,2.399,0.969,3.376,0.108l3.257,3.257C15.131,19.081,12.153,18.942,10.299,17.072L10.299,17.072z M18.399,16.18
			l-0.41,0.409l-3.27-3.269l0.409-0.409c0.226-0.225,0.591-0.225,0.817-0.001l2.452,2.452c0.226,0.227,0.226,0.593-0.001,0.818
			L18.399,16.18z"/>
	</g>
</g>
</svg>
