<svg xmlns="http://www.w3.org/2000/svg" xmlns:xlink="http://www.w3.org/1999/xlink" width="450" height="331" viewBox="0 0 450 331">
  <defs>
    <linearGradient id="linear-gradient" x1="0.5" y1="0.836" x2="0.49" y2="0.153" gradientUnits="objectBoundingBox">
      <stop offset="0" stop-color="#fff" stop-opacity="0"/>
      <stop offset="1" stop-color="#fff"/>
    </linearGradient>
  </defs>
  <g id="Group_1651" data-name="Group 1651" transform="translate(36)">
    <path id="Rectangle_606" data-name="Rectangle 606" d="M0,0H450V331H33A33,33,0,0,1,0,298Z" transform="translate(-36)" fill="#1167b1"/>
    <rect id="Rectangle_607" data-name="Rectangle 607" width="414" height="287" fill="url(#linear-gradient)"/>
    <g id="health-care" transform="translate(344 251.448)" opacity="0.24">
      <path id="Path_15920" data-name="Path 15920" d="M260.779,158.5h-8.967v10.31H241.5v8.967h10.312v10.312h8.967V177.777h10.312V168.81H260.779Z" transform="translate(-205.408 -130.982)" fill="#fff"/>
      <path id="Path_15921" data-name="Path 15921" d="M31.609,33.345H41.921V23.032H59.855V33.345h5.2A18.748,18.748,0,0,0,34,12.355,18.746,18.746,0,1,0,4.229,35.112L34,71.156l7.921-9.59V51.279H31.609Z" fill="#fff"/>
    </g>
    <g id="Group_1501" data-name="Group 1501" transform="translate(-6.099 184)" opacity="0.32">
      <path id="Path_16209" data-name="Path 16209" d="M224.549,7.064l1.4.806V9.483l-1.4.8-1.4-.807V7.865l1.4-.8m0-.2-1.566.9V9.574l1.565.9,1.565-.9v-1.8l-1.564-.9Z" transform="translate(33.432 1.03)" fill="#365673"/>
      <path id="Path_16210" data-name="Path 16210" d="M190.816,1.172,188.79,0l-2.029,1.168V3.511l2.026,1.174,2.029-1.169Z" transform="translate(28.001)" fill="#365673"/>
      <path id="Path_16211" data-name="Path 16211" d="M234.532,42.2l-1.076-.623-1.078.621V43.44l1.076.623,1.078-.621Z" transform="translate(34.841 6.234)" fill="#365673"/>
      <path id="Path_16212" data-name="Path 16212" d="M131.13,10.126l5.088,2.945-.007,5.876-5.094,2.933-5.087-2.945.007-5.876,5.093-2.933m0-.714-5.712,3.29-.008,6.591,5.7,3.3,5.713-3.29.007-6.591Z" transform="translate(18.803 1.411)" fill="#365673"/>
      <path id="Path_16213" data-name="Path 16213" d="M149.9,4.87l2.721,1.577V9.592l-2.724,1.57-2.723-1.577V6.44L149.9,4.87m0-.382-3.057,1.761V9.776l3.052,1.767,3.057-1.761V6.255Z" transform="translate(22.017 0.673)" fill="#365673"/>
      <path id="Path_16214" data-name="Path 16214" d="M220.328,19.566,232.145,26.4l-.015,13.652L220.3,46.874l-11.816-6.842.014-13.653,11.832-6.812m0-1.658L207.062,25.55l-.017,15.309L220.3,48.531l13.268-7.644.016-15.31L220.33,17.908Z" transform="translate(31.043 2.685)" fill="#365673"/>
      <path id="Path_16215" data-name="Path 16215" d="M297.344,5.852l.967.559V7.527l-.968.557-.967-.559V6.408l.967-.557m0-.137-1.084.627V7.593l1.083.627,1.086-.624V6.344l-1.084-.629Z" transform="translate(44.419 0.857)" fill="#365673"/>
      <path id="Path_16216" data-name="Path 16216" d="M200.929,5.537l17.927,10.374-.023,20.711L200.884,46.958,182.959,36.583l.021-20.71L200.929,5.537m0-2.516L180.8,14.612l-.026,23.226,20.1,11.634L221,37.881l.024-23.224-20.1-11.636Z" transform="translate(27.105 0.453)" fill="#365673"/>
      <path id="Path_16217" data-name="Path 16217" d="M168.648,14.977l2.441,1.412v2.82l-2.445,1.41L166.2,19.2V16.379l2.444-1.406m0-.079-2.51,1.447v2.9l2.507,1.451,2.514-1.445v-2.9l-2.51-1.452Z" transform="translate(24.909 2.234)" fill="#365673"/>
      <path id="Path_16218" data-name="Path 16218" d="M257.3,37.183l2.546,1.473V41.6L257.3,43.063l-2.546-1.473V38.65l2.548-1.467m0-.082-2.62,1.508v3.023l2.616,1.513,2.618-1.508V38.614L257.3,37.1Z" transform="translate(38.185 5.563)" fill="#365673"/>
      <path id="Path_16219" data-name="Path 16219" d="M166.942,42.837l1.7.987v1.968l-1.705.983-1.7-.987V43.82l1.706-.983m0-.054-1.754,1.01v2.023l1.751,1.013,1.753-1.008V43.8l-1.75-1.013Z" transform="translate(24.767 6.415)" fill="#365673"/>
      <path id="Path_16220" data-name="Path 16220" d="M252.3.9l13.966,8.083-.017,16.138-13.983,8.053L238.3,25.092l.017-16.138L252.3.9m0-.45L237.93,8.728l-.018,16.587,14.357,8.309,14.372-8.277.017-16.588L252.3.451Z" transform="translate(35.671 0.068)" fill="#365673"/>
      <path id="Path_16221" data-name="Path 16221" d="M296.065,3.135l20.111,11.638-.025,23.234L296.016,49.6l-20.11-11.638.025-23.234,20.134-11.6m0-.646L275.365,14.4l-.025,23.881L296.015,50.25l20.7-11.918.026-23.88L296.067,2.489Z" transform="translate(41.284 0.373)" fill="#365673"/>
      <path id="Path_16222" data-name="Path 16222" d="M124.1,39.325l1.214.7v1.4l-1.217.7-1.214-.7v-1.4l1.217-.7m0-.039-1.25.72v1.443l1.248.722,1.251-.72V40.008Z" transform="translate(18.419 5.89)" fill="#365673"/>
      <path id="Path_16223" data-name="Path 16223" d="M145.785,24.125,161.2,33.043l-.018,17.806-15.431,8.884-15.41-8.918.021-17.8,15.428-8.886m0-.494-15.856,9.132-.021,18.3,15.838,9.167,15.86-9.133.02-18.3-15.84-9.165Z" transform="translate(19.478 3.543)" fill="#365673"/>
      <path id="Path_16224" data-name="Path 16224" d="M192.587,28.6l13.374,7.745L205.945,51.8,192.554,59.52l-13.379-7.743.017-15.456,13.4-7.716m0-.43L178.818,36.1,178.8,51.992l13.752,7.958,13.762-7.929.017-15.885-13.746-7.961Z" transform="translate(26.808 4.224)" fill="#365673"/>
      <path id="Path_16225" data-name="Path 16225" d="M273.49,1.7l10.338,5.985-.013,11.948L273.464,25.6l-10.34-5.984.014-11.947L273.49,1.7m0-.332L262.85,7.5l-.014,12.28,10.628,6.15L284.1,19.8l.013-12.279L273.49,1.369Z" transform="translate(39.408 0.205)" fill="#365673"/>
      <path id="Path_16226" data-name="Path 16226" d="M219.274,41.96l6.4,3.705-.008,7.4-6.412,3.692-6.4-3.706.008-7.4,6.41-3.692m0-.9L212.087,45.2l-.009,8.3,7.179,4.155,7.191-4.139.009-8.3-7.181-4.157Z" transform="translate(31.798 6.156)" fill="#365673"/>
      <path id="Path_16227" data-name="Path 16227" d="M68.371,43.289,70.456,44.5v2.407l-2.086,1.2L66.283,46.9V44.492l2.086-1.2m0-.293-2.34,1.348v2.7L68.368,48.4l2.34-1.348v-2.7L68.373,43Z" transform="translate(9.9 6.447)" fill="#365673"/>
      <path id="Path_16228" data-name="Path 16228" d="M38.8,49.768l-3.029-1.753-3.033,1.746v3.5l3.029,1.753L38.8,53.267Z" transform="translate(4.907 7.199)" fill="#365673"/>
      <path id="Path_16229" data-name="Path 16229" d="M83.294,95.8l-1.608-.931-1.612.928v1.859l1.609.931,1.61-.928Z" transform="translate(12.005 14.224)" fill="#365673"/>
      <path id="Path_16230" data-name="Path 16230" d="M62.066,61.972l17.66,10.222L79.7,92.6,62.021,102.788,44.359,92.561l.022-20.4L62.066,61.972m0-2.476L42.237,70.916,42.212,93.8l19.806,11.467L81.849,93.84l.024-22.881L62.068,59.5Z" transform="translate(6.329 8.92)" fill="#365673"/>
      <path id="Path_16231" data-name="Path 16231" d="M261.725,40.293l4.026,2.329-.006,4.65L261.716,49.6l-4.027-2.332.006-4.65,4.031-2.321m0-.566-4.52,2.6-.006,5.215,4.515,2.615,4.52-2.606V42.341l-4.512-2.614Z" transform="translate(38.563 5.956)" fill="#365673"/>
      <path id="Path_16232" data-name="Path 16232" d="M177.173,41.476l1.445.836v1.67l-1.447.833-1.444-.836v-1.67l1.447-.833m0-.2-1.621.935v1.872l1.62.937,1.621-.934V42.214Z" transform="translate(26.321 6.188)" fill="#365673"/>
      <path id="Path_16233" data-name="Path 16233" d="M117.322,88.3l3.8,2.2v4.394l-3.807,2.2-3.806-2.2v-4.4l3.81-2.193m0-.122L113.4,90.434V94.95l3.912,2.264,3.913-2.255V90.441l-3.91-2.262Z" transform="translate(17.003 13.221)" fill="#365673"/>
      <path id="Path_16234" data-name="Path 16234" d="M109.855,34.076l20.874,12.081L130.7,70.278,109.8,82.313,88.928,70.233l.026-24.121,20.9-12.036m0-.672L88.372,45.776l-.025,24.791L109.8,82.983l21.48-12.37.028-24.791L109.857,33.4Z" transform="translate(13.246 5.008)" fill="#365673"/>
      <path id="Path_16235" data-name="Path 16235" d="M175.264,37.416l30.056,17.4-.037,34.726-30.1,17.331-30.057-17.4.038-34.726,30.1-17.332m0-.966L144.333,54.264l-.038,35.692,30.892,17.879,30.932-17.812.038-35.692L175.265,36.45Z" transform="translate(21.635 5.465)" fill="#365673"/>
      <path id="Path_16236" data-name="Path 16236" d="M20.6,75.483,40.593,87.059l-.025,23.1L20.554,121.688l-20-11.572.024-23.1L20.6,75.483m0-.643L.025,86.694,0,110.437l20.554,11.9,20.57-11.851.025-23.744L20.6,74.84Z" transform="translate(0 11.221)" fill="#365673"/>
      <path id="Path_16237" data-name="Path 16237" d="M141.519,35.273l15.453,8.946-.02,17.857-15.471,8.911-15.454-8.945.02-17.855,15.472-8.914m0-.5-15.9,9.162L125.6,62.29l15.884,9.193,15.9-9.158.02-18.354L141.52,34.776Z" transform="translate(18.831 5.214)" fill="#365673"/>
      <path id="Path_16238" data-name="Path 16238" d="M298.05,50.623l1.889,1.094V53.9l-1.893,1.089L296.154,53.9V51.712l1.9-1.089m0-.061-1.946,1.12v2.246l1.943,1.123L300,53.931V51.686l-1.942-1.125Z" transform="translate(44.396 7.581)" fill="#365673"/>
      <path id="Path_16239" data-name="Path 16239" d="M260.122,120.5l-20.3-11.751.025-23.459,20.328-11.707,20.3,11.751-.024,23.459L260.122,120.5m0,.926,21.132-12.17.026-24.384L260.174,72.655,239.042,84.826l-.026,24.385,21.106,12.215Z" transform="translate(35.836 10.893)" fill="#365673"/>
      <path id="Path_16240" data-name="Path 16240" d="M267.882,52.544l6.4,3.705-.008,7.4-6.412,3.691-6.4-3.705.008-7.4,6.41-3.691m0-.9-7.18,4.142-.009,8.3,7.18,4.155,7.192-4.139.007-8.3-7.181-4.156Z" transform="translate(39.086 7.743)" fill="#365673"/>
      <path id="Path_16241" data-name="Path 16241" d="M116.981,53.872l2.084,1.207v2.407l-2.086,1.2-2.085-1.2V55.078l2.088-1.2m0-.292-2.34,1.348v2.7l2.337,1.351,2.34-1.348v-2.7l-2.337-1.353Z" transform="translate(17.188 8.033)" fill="#365673"/>
      <path id="Path_16242" data-name="Path 16242" d="M80.342,57.575l-3.03-1.753L74.28,57.568v3.5l3.02,1.754,3.033-1.746Z" transform="translate(11.136 8.37)" fill="#365673"/>
      <path id="Path_16243" data-name="Path 16243" d="M131.9,106.385l-1.608-.932-1.612.929v1.859l1.608.931,1.61-.928Z" transform="translate(19.294 15.811)" fill="#365673"/>
      <path id="Path_16244" data-name="Path 16244" d="M5.417,50.593l4.067,2.354v4.7L5.407,59.994l-4.07-2.356v-4.7l4.075-2.347m0-.57L.849,52.653l-.006,5.27,4.563,2.641,4.568-2.631.006-5.27-4.562-2.64Z" transform="translate(0.126 7.5)" fill="#365673"/>
      <path id="Path_16245" data-name="Path 16245" d="M110.673,72.556l17.662,10.222-.022,20.406L110.63,113.371,92.968,103.145l.022-20.4,17.684-10.184m0-2.477L90.846,81.5l-.025,22.883,19.806,11.467,19.829-11.425.024-22.883-19.8-11.463Z" transform="translate(13.617 10.507)" fill="#365673"/>
      <path id="Path_16246" data-name="Path 16246" d="M310.334,50.876l4.025,2.33v4.65l-4.031,2.323L306.3,57.847V53.2l4.032-2.322m0-.565-4.52,2.6v5.214l4.514,2.615,4.52-2.6.006-5.215-4.515-2.613Z" transform="translate(45.851 7.543)" fill="#365673"/>
      <path id="Path_16247" data-name="Path 16247" d="M225.782,52.058l1.444.837v1.669l-1.447.833-1.444-.836V52.892l1.445-.834m0-.2-1.621.935v1.871l1.619.938,1.623-.934V52.8l-1.62-.938Z" transform="translate(33.609 7.775)" fill="#365673"/>
      <path id="Path_16248" data-name="Path 16248" d="M33.432,65.7l3.65,2.111v4.216l-3.653,2.106-3.648-2.114V67.8l3.651-2.1m0-.117-3.752,2.16-.006,4.332,3.75,2.172,3.755-2.163V67.752l-3.751-2.171Z" transform="translate(4.449 9.833)" fill="#365673"/>
      <path id="Path_16249" data-name="Path 16249" d="M165.931,98.887l3.8,2.2v4.4l-3.809,2.194-3.8-2.2v-4.4l3.811-2.193m0-.122-3.917,2.255v4.516l3.911,2.263,3.913-2.255v-4.517l-3.907-2.262Z" transform="translate(24.291 14.808)" fill="#365673"/>
      <path id="Path_16250" data-name="Path 16250" d="M30.882,107.339l2.545,1.474v2.942l-2.549,1.467-2.547-1.473v-2.942l2.551-1.468m0-.082-2.621,1.509v3.024l2.617,1.514,2.622-1.5V108.78l-2.616-1.514Z" transform="translate(4.237 16.081)" fill="#365673"/>
      <path id="Path_16251" data-name="Path 16251" d="M158.465,44.658,179.337,56.74l-.025,24.12-20.9,12.04L137.537,80.816l.025-24.12,20.9-12.038m0-.67L136.983,56.36l-.028,24.791,21.457,12.416L179.892,81.2l.026-24.79L158.465,43.988Z" transform="translate(20.534 6.595)" fill="#365673"/>
      <path id="Path_16252" data-name="Path 16252" d="M223.872,48l30.057,17.4-.038,34.726L223.8,117.451l-30.058-17.4.037-34.726L223.872,48m0-.966L192.941,64.846l-.038,35.692,30.894,17.88,30.93-17.812.038-35.693L223.873,47.034Z" transform="translate(28.923 7.052)" fill="#365673"/>
      <path id="Path_16253" data-name="Path 16253" d="M69.211,86.066,89.2,97.642l-.024,23.1-20.014,11.53-20-11.572.024-23.1L69.211,86.066m0-.642L48.633,97.276l-.025,23.744,20.554,11.9,20.571-11.85.024-23.744-20.545-11.9Z" transform="translate(7.288 12.808)" fill="#365673"/>
      <path id="Path_16254" data-name="Path 16254" d="M190.129,45.857,205.58,54.8l-.018,17.857-15.47,8.911-15.455-8.945.02-17.856,15.474-8.913m0-.5-15.9,9.163L174.2,72.875l15.885,9.193,15.9-9.159L206,54.556l-15.881-9.2Z" transform="translate(26.119 6.801)" fill="#365673"/>
    </g>
  </g>
</svg>
