<?xml version="1.0" encoding="utf-8"?>
<!-- Generator: Adobe Illustrator 14.0.0, SVG Export Plug-In . SVG Version: 6.00 Build 43363)  -->
<!DOCTYPE svg PUBLIC "-//W3C//DTD SVG 1.1//EN" "http://www.w3.org/Graphics/SVG/1.1/DTD/svg11.dtd">
<svg version="1.1" id="bus" xmlns="http://www.w3.org/2000/svg" xmlns:xlink="http://www.w3.org/1999/xlink" x="0px" y="0px"
	 width="200px" height="115px" viewBox="-32.812 -10.259 200 115" enable-background="new -32.812 -10.259 200 115"
	 xml:space="preserve">
<path id="Path_15927" fill="#FFFFFF" d="M35.431,86.61c0,4.349-3.525,7.874-7.874,7.874s-7.874-3.525-7.874-7.874
	s3.525-7.874,7.874-7.874c0,0,0,0,0.001,0C31.906,78.736,35.431,82.261,35.431,86.61C35.431,86.61,35.431,86.61,35.431,86.61z"/>
<path id="Path_15928" fill="#FFFFFF" d="M114.954,86.61c0,4.349-3.525,7.874-7.873,7.874c-4.35,0-7.875-3.525-7.875-7.874
	s3.525-7.874,7.875-7.874l0,0C111.429,78.736,114.954,82.261,114.954,86.61C114.954,86.61,114.954,86.61,114.954,86.61z"/>
<path id="Path_15929" fill="#FFFFFF" d="M87.397,23.621h15.747v15.747H87.397V23.621z"/>
<path id="Path_15930" fill="#FFFFFF" d="M0,23.621h23.621v15.747H0V23.621z"/>
<path id="Path_15931" fill="#FFFFFF" d="M55.115,47.242h24.408V86.61H55.115V47.242z"/>
<path id="Path_15932" fill="#FFFFFF" d="M55.115,23.621h24.408v15.747H55.115V23.621z"/>
<path id="Path_15933" fill="#FFFFFF" d="M31.494,23.621h15.747v15.747H31.494V23.621z"/>
<path id="Path_15934" fill="#FFFFFF" d="M134.375,33.67L129.2,23.621h-18.182v15.747h23.357V33.67z"/>
<path id="Path_15935" fill="#FFFFFF" d="M11.81,86.61c0-8.696,7.05-15.747,15.747-15.747s15.747,7.051,15.747,15.747h3.937V47.242H0
	V74.8C0.008,81.32,5.291,86.603,11.81,86.61z"/>
<path id="Path_15936" fill="#FFFFFF" d="M130.697,62.99h3.675V47.242H87.397V86.61h3.938c0.007-8.696,7.063-15.74,15.76-15.733
	c8.687,0.008,15.727,7.048,15.734,15.733c6.406-0.027,11.576-5.243,11.549-11.649c0-0.054,0-0.106-0.002-0.16v-3.938h-3.679
	c-2.175-0.003-3.935-1.768-3.932-3.941C126.768,64.75,128.527,62.992,130.697,62.99z"/>
<path id="Path_15937" fill="#FFFFFF" d="M120.653,6.527c-1.991-4.01-6.088-6.541-10.566-6.526H11.811
	C5.292,0.007,0.008,5.29,0,11.81v3.938h125.262L120.653,6.527z"/>
</svg>
