<svg xmlns="http://www.w3.org/2000/svg" xmlns:xlink="http://www.w3.org/1999/xlink" width="36.512" height="20.979" viewBox="0 0 36.512 20.979">
  <defs>
    <linearGradient id="linear-gradient" x1="0.5" x2="0.5" y2="1" gradientUnits="objectBoundingBox">
      <stop offset="0.13" stop-color="#00a9ed"/>
      <stop offset="1" stop-color="#65106b"/>
    </linearGradient>
  </defs>
  <g id="travel-icon" transform="translate(0.004 0.001)">
    <g id="Group_1501" data-name="Group 1501" transform="translate(8.068 14.704)">
      <g id="Group_1500" data-name="Group 1500">
        <path id="Path_16078" data-name="Path 16078" d="M116.289,315.119a3.137,3.137,0,1,0,3.137,3.137A3.137,3.137,0,0,0,116.289,315.119Zm0,4.848A1.711,1.711,0,1,1,118,318.256a1.711,1.711,0,0,1-1.711,1.711Z" transform="translate(-113.152 -315.119)" fill="url(#linear-gradient)"/>
      </g>
    </g>
    <g id="Group_1503" data-name="Group 1503" transform="translate(5.728)">
      <g id="Group_1502" data-name="Group 1502">
        <path id="Path_16079" data-name="Path 16079" d="M107.207,108.884h-3.654a.713.713,0,0,0,0,1.426h3.654a2.482,2.482,0,0,1,2.39,1.825h-6.044a.713.713,0,0,0-.713.713v6.411a.713.713,0,0,0,.713.713h6.132v6.054h-2.092a3.136,3.136,0,0,0-6.115,0h-.064V112.854a.713.713,0,0,0-.713-.713H95a.713.713,0,0,0-.713.713v5.727H81.046a.713.713,0,0,0,0,1.426H94.284v6.019H90.648a.713.713,0,0,0,0,1.426h10.836a3.136,3.136,0,0,0,6.1,0H110.4a.713.713,0,0,0,.713-.713V112.788a3.908,3.908,0,0,0-3.906-3.9Zm-7.219,10.2h-.451a.713.713,0,0,0,0,1.426h.451v5.513H95.71V113.567h4.278Zm4.547,9.351a1.711,1.711,0,1,1,1.711-1.711,1.711,1.711,0,0,1-1.711,1.711Zm5.15-9.891h-5.419V113.56h5.419Z" transform="translate(-80.333 -108.884)" fill="url(#linear-gradient)"/>
      </g>
    </g>
    <g id="Group_1505" data-name="Group 1505" transform="translate(25.382)">
      <g id="Group_1504" data-name="Group 1504">
        <path id="Path_16080" data-name="Path 16080" d="M357.217,109.09a.713.713,0,1,0,.209.5A.713.713,0,0,0,357.217,109.09Z" transform="translate(-356 -108.881)" fill="url(#linear-gradient)"/>
      </g>
    </g>
    <g id="Group_1507" data-name="Group 1507">
      <g id="Group_1506" data-name="Group 1506">
        <path id="Path_16081" data-name="Path 16081" d="M23.243,108.884H3.9a3.909,3.909,0,0,0-3.86,3.321.709.709,0,0,0-.044.243v14.289a.713.713,0,0,0,.713.713H6.08a.713.713,0,1,0,0-1.426H1.426v-8.871H3.85a.713.713,0,0,0,.713-.713v-3.993a.713.713,0,0,0-.713-.713H1.661A2.48,2.48,0,0,1,3.9,110.31H23.24a.713.713,0,1,0,0-1.426ZM3.137,113.162v2.567H1.426v-2.567Z" transform="translate(0 -108.884)" fill="url(#linear-gradient)"/>
      </g>
    </g>
    <g id="Group_1509" data-name="Group 1509" transform="translate(3.137 9.697)">
      <g id="Group_1508" data-name="Group 1508">
        <path id="Path_16082" data-name="Path 16082" d="M45.217,245.09a.713.713,0,1,0,.209.5A.713.713,0,0,0,45.217,245.09Z" transform="translate(-44 -244.881)" fill="url(#linear-gradient)"/>
      </g>
    </g>
    <g id="Group_1511" data-name="Group 1511" transform="translate(12.834 2.852)">
      <g id="Group_1510" data-name="Group 1510">
        <path id="Path_16083" data-name="Path 16083" d="M184.706,148.884h-3.993a.713.713,0,0,0-.713.713v3.993a.713.713,0,0,0,.713.713h3.993a.713.713,0,0,0,.713-.713V149.6a.713.713,0,0,0-.713-.716Zm-.713,3.993h-2.567V150.31h2.567Z" transform="translate(-180 -148.884)" fill="url(#linear-gradient)"/>
      </g>
    </g>
    <g id="Group_1513" data-name="Group 1513" transform="translate(5.989 2.852)">
      <g id="Group_1512" data-name="Group 1512">
        <path id="Path_16084" data-name="Path 16084" d="M88.706,148.884H84.713A.713.713,0,0,0,84,149.6v3.993a.713.713,0,0,0,.713.713h3.993a.713.713,0,0,0,.713-.713V149.6a.713.713,0,0,0-.713-.716Zm-.713,3.993H85.426V150.31h2.567Z" transform="translate(-84 -148.884)" fill="url(#linear-gradient)"/>
      </g>
    </g>
  </g>
</svg>
