<svg xmlns="http://www.w3.org/2000/svg" xmlns:xlink="http://www.w3.org/1999/xlink" width="33" height="21.751" viewBox="0 0 33 21.751">
  <defs>
    <linearGradient id="linear-gradient" x1="0.5" x2="0.5" y2="1" gradientUnits="objectBoundingBox">
      <stop offset="0.13" stop-color="#00a9ed"/>
      <stop offset="1" stop-color="#65106b"/>
    </linearGradient>
  </defs>
  <g id="handshake" transform="translate(0 -87.27)">
    <g id="Group_3671" data-name="Group 3671" transform="translate(0 87.27)">
      <path id="Path_19172" data-name="Path 19172" d="M33,92.884a2.319,2.319,0,0,0-.474-1.428L29.911,88.11a2.248,2.248,0,0,0-1.77-.84,2.18,2.18,0,0,0-1.156.324l-2.55,1.586a2.326,2.326,0,0,1-1.172.285,2.124,2.124,0,0,1-.9-.176l-2.5-1.209a3.007,3.007,0,0,0-1.3-.274,3.246,3.246,0,0,0-1.833.528l-.291.2-.992-.494a3.74,3.74,0,0,0-1.626-.334,3.891,3.891,0,0,0-1.492.274l-1.7.726a3.109,3.109,0,0,1-1.154.2,3.108,3.108,0,0,1-1.153-.2l-1.7-.726a2.477,2.477,0,0,0-.971-.189,2.958,2.958,0,0,0-1.105.217,2.513,2.513,0,0,0-.932.642l-3.1,3.471A2.012,2.012,0,0,0,.71,95L3.6,97.465,2.229,98.9a2.043,2.043,0,0,0,.07,2.893l.278.264a2.04,2.04,0,0,0,.907.491A2.02,2.02,0,0,0,3.865,105h0l.279.265a2.069,2.069,0,0,0,2.221.4,2.022,2.022,0,0,0,.568.99l.279.265a2.065,2.065,0,0,0,2.559.22,2.029,2.029,0,0,0,.535.879l.279.265a2.068,2.068,0,0,0,2.908-.069L14.7,106.95l1.647,1.524a2.066,2.066,0,0,0,2.905-.1l.263-.282a2.028,2.028,0,0,0,.461-.833l.638.589a2.07,2.07,0,0,0,2.907-.107l.261-.281a2.021,2.021,0,0,0,.524-1.13,2.013,2.013,0,0,0,2.018-.579l.262-.281a2.037,2.037,0,0,0,.548-1.393,2.089,2.089,0,0,0-.056-.459,2.038,2.038,0,0,0,1.233-.624l.263-.282a2.046,2.046,0,0,0-.107-2.893l-.492-.454,4.437-4.906A2.336,2.336,0,0,0,33,92.884ZM4,101.5a.933.933,0,0,1-.645-.255l-.279-.264a.93.93,0,0,1-.032-1.315L5.85,96.736A.943.943,0,0,1,7.172,96.7l.277.265a1.76,1.76,0,0,1,.288.674.926.926,0,0,1-.166.526L4.54,101.328A.946.946,0,0,1,4,101.5Zm2.243,2.923a.943.943,0,0,1-1.321.031l-.279-.265h0a.933.933,0,0,1-.032-1.315s3.744-3.9,3.775-3.935a.938.938,0,0,1,1.292-.006l.279.265a.931.931,0,0,1,.031,1.315Zm3.068,1.657a.941.941,0,0,1-1.321.031l-.28-.265a.924.924,0,0,1-.081-1.253l2.607-2.721a.935.935,0,0,1,1.269.013l.28.265a.931.931,0,0,1,.031,1.315Zm4.954-.287-1.582,1.651a.942.942,0,0,1-1.321.031l-.279-.265a.931.931,0,0,1-.031-1.315l1.581-1.651a.943.943,0,0,1,1.322-.031l.28.265a.932.932,0,0,1,.031,1.315Zm13.744-4.479a.921.921,0,0,1-.249.632l-.262.281a.942.942,0,0,1-1.321.048l-4.417-4.085-.764.818,4.728,4.38a.931.931,0,0,1,.048,1.315l-.261.281a.942.942,0,0,1-1.32.048l-4.418-4.085-.763.818,3.921,3.626a.929.929,0,0,1,.038,1.3l-.262.281a.943.943,0,0,1-1.322.049l-3.913-3.613h0l-.762.819h0l.015.014,1.96,1.809a.921.921,0,0,1,.017,1.274l-.262.282a.94.94,0,0,1-1.319.048l-1.707-1.58a2.015,2.015,0,0,0-.4-2.406l-.28-.265a2.056,2.056,0,0,0-1.418-.563c-.039,0-.079.009-.118.011,0-.009,0-.019,0-.028a3.905,3.905,0,0,0-.636-1.482l-.279-.265a2.049,2.049,0,0,0-1.035-.527,2.017,2.017,0,0,0-.514-2.159l-.279-.265a2.06,2.06,0,0,0-1.419-.564c-.059,0-.118.012-.177.017a2.037,2.037,0,0,0-.629-1.418h0L7.948,95.9a2.067,2.067,0,0,0-2.908.068l-.663.692-2.937-2.5a.9.9,0,0,1-.087-1.287l3.1-3.47a1.414,1.414,0,0,1,.518-.35,1.844,1.844,0,0,1,.681-.134,1.359,1.359,0,0,1,.529.1l1.7.726a4.186,4.186,0,0,0,1.6.287,4.186,4.186,0,0,0,1.6-.287l1.7-.726a2.786,2.786,0,0,1,1.051-.184,2.669,2.669,0,0,1,1.123.216l.454.226L13.668,90.49a2,2,0,0,0-.457,2.843h0l.229.308a2.239,2.239,0,0,0,1.791.877,2.175,2.175,0,0,0,1.12-.305l1.037-.623a1.708,1.708,0,0,1,.861-.21,1.794,1.794,0,0,1,1.014.285l2.869,2.057a28.66,28.66,0,0,1,2.255,1.84l3.321,3.071A.925.925,0,0,1,28.006,101.315Zm3.578-7.608L27.16,98.6l-2.009-1.857a29.556,29.556,0,0,0-2.363-1.928L19.92,92.758a2.9,2.9,0,0,0-1.671-.5,2.824,2.824,0,0,0-1.441.37l-1.036.623a1.052,1.052,0,0,1-.541.145,1.119,1.119,0,0,1-.891-.426l-.228-.307h0a.889.889,0,0,1,.2-1.265l3.067-2.155a2.158,2.158,0,0,1,1.185-.323,1.9,1.9,0,0,1,.812.162l2.5,1.209a3.225,3.225,0,0,0,1.389.289,3.416,3.416,0,0,0,1.766-.456l2.55-1.587a1.06,1.06,0,0,1,.562-.154,1.131,1.131,0,0,1,.885.41l2.615,3.346a1.217,1.217,0,0,1,.238.742A1.24,1.24,0,0,1,31.584,93.707Z" transform="translate(0 -87.27)" fill="url(#linear-gradient)"/>
    </g>
  </g>
</svg>
