<?xml version="1.0" encoding="utf-8"?>
<!-- Generator: Adobe Illustrator 14.0.0, SVG Export Plug-In . SVG Version: 6.00 Build 43363)  -->
<!DOCTYPE svg PUBLIC "-//W3C//DTD SVG 1.1//EN" "http://www.w3.org/Graphics/SVG/1.1/DTD/svg11.dtd">
<svg version="1.1" id="Group_1427" xmlns="http://www.w3.org/2000/svg" xmlns:xlink="http://www.w3.org/1999/xlink" x="0px" y="0px"
	 width="65px" height="65px" viewBox="-1.498 -1.498 65 65" enable-background="new -1.498 -1.498 65 65" xml:space="preserve">
<g id="Group_1424" transform="translate(8.234 54.739)">
	<g id="Group_1423">
		<path id="Path_16137" fill="#147DB2" d="M2.067,0.355C1.594-0.117,0.828-0.116,0.356,0.356s-0.472,1.239,0.001,1.712
			C0.83,2.54,1.596,2.539,2.068,2.066C2.295,1.84,2.422,1.531,2.422,1.211C2.421,0.89,2.293,0.582,2.067,0.355z"/>
	</g>
</g>
<g id="Group_1426" transform="translate(54.793 21.8)">
	<g id="Group_1425">
		<path id="Path_16138" fill="#147DB2" d="M2.066,0.355C1.594-0.115,0.83-0.113,0.359,0.36c-0.469,0.473-0.467,1.237,0.006,1.707
			c0.473,0.47,1.236,0.468,1.707-0.005C2.297,1.836,2.423,1.53,2.423,1.211C2.422,0.89,2.294,0.582,2.066,0.355z"/>
	</g>
</g>
<path id="Path_16139" fill="#147DB2" d="M45.12,24.462c-3.294,0-5.964,2.67-5.964,5.964s2.67,5.964,5.964,5.964
	s5.964-2.671,5.964-5.964S48.414,24.462,45.12,24.462L45.12,24.462z M45.12,34.043c-1.998,0-3.618-1.619-3.618-3.618
	c0-1.998,1.62-3.618,3.618-3.618s3.618,1.62,3.618,3.618C48.738,32.424,47.118,34.043,45.12,34.043L45.12,34.043z"/>
<path id="Path_16140" d="M61.648,0.355C61.422,0.128,61.113,0,60.792,0H31c-0.669,0-1.21,0.543-1.21,1.212c0,0,0,0.001,0,0.001
	v3.463L18.311,7.752c-0.646,0.173-1.029,0.837-0.856,1.483l5.949,22.2l-5.147,5.147c-0.676-0.992-1.799-1.586-3-1.586H3.633
	C1.626,34.999,0,36.625,0,38.631v19.74c0.002,2.006,1.627,3.631,3.633,3.633h11.626c1.669-0.002,3.123-1.139,3.526-2.758l1.44,1.256
	c1.112,0.968,2.537,1.5,4.011,1.5h36.556C61.459,62,61.998,61.46,62,60.793V1.211C62,0.891,61.875,0.583,61.648,0.355z
	 M16.469,58.372L16.469,58.372c-0.001,0.669-0.542,1.211-1.211,1.211H3.633c-0.668,0-1.21-0.542-1.211-1.211v-19.74
	c0.001-0.668,0.543-1.209,1.211-1.211h4.6v13.951c0,0.67,0.542,1.211,1.211,1.211c0.669,0,1.211-0.541,1.211-1.211V37.42h4.6
	c0.669,0.001,1.21,0.543,1.211,1.211L16.469,58.372z M20.108,9.778l9.682-2.595v4.487l-0.811,0.217
	c-0.646,0.172-1.03,0.836-0.857,1.482v0c0.464,1.739-0.568,3.525-2.306,3.993c-0.646,0.173-1.03,0.837-0.857,1.483
	c0,0.001,0.001,0.002,0.001,0.003l4.72,17.479h-2.43L26,31.43c-0.038-0.154-0.106-0.298-0.2-0.425L20.108,9.778z M29.791,17.224
	v10.219l-2.209-8.178C28.488,18.796,29.251,18.091,29.791,17.224L29.791,17.224z M47.191,59.583H24.235
	c-0.889,0-1.749-0.321-2.419-0.906l-2.925-2.551v-16.75l5.287-5.287l0.959,3.752c0.137,0.537,0.62,0.912,1.173,0.912h23.81
	c0.937,0.068,1.64,0.883,1.571,1.818c-0.061,0.842-0.73,1.511-1.571,1.572h-12.2c-0.669,0-1.211,0.542-1.211,1.211
	s0.542,1.211,1.211,1.211h15.99c0.936,0.068,1.641,0.883,1.572,1.819c-0.063,0.841-0.73,1.511-1.572,1.571H37.92
	c-0.669,0-1.211,0.543-1.211,1.211c0,0.67,0.542,1.211,1.211,1.211h13.4c0.936-0.068,1.75,0.637,1.818,1.572
	c0.068,0.937-0.635,1.751-1.571,1.819c-0.083,0.006-0.165,0.006-0.247,0h-13.4c-0.669,0-1.211,0.542-1.211,1.211
	s0.542,1.211,1.211,1.211h9.268c0.937-0.071,1.754,0.628,1.826,1.565c0.072,0.936-0.629,1.752-1.564,1.824
	c-0.088,0.008-0.174,0.008-0.262,0L47.191,59.583z M59.584,59.583h-8.645c0.488-1.076,0.488-2.313,0-3.391h0.379
	c2.273,0.002,4.117-1.84,4.119-4.112c0-0.642-0.15-1.274-0.438-1.848c2.191-0.6,3.481-2.862,2.882-5.054
	c-0.136-0.494-0.361-0.959-0.667-1.369V28.46c0-0.669-0.542-1.211-1.211-1.211s-1.211,0.542-1.211,1.211l0,0v13.781
	c-0.29-0.064-0.586-0.099-0.883-0.1h-0.04c0.938-2.069,0.021-4.508-2.048-5.445c-0.535-0.243-1.115-0.369-1.703-0.367h-1.945
	c0.03-0.014,0.059-0.029,0.09-0.043h-4.732c0.029,0.014,0.059,0.029,0.089,0.043H37V13.3c2.17-0.477,3.865-2.172,4.342-4.342h9.11
	c0.478,2.169,2.171,3.864,4.341,4.342v3.77c0,0.669,0.542,1.211,1.211,1.211s1.211-0.542,1.211-1.211v-4.846
	c0-0.669-0.542-1.211-1.211-1.211c-0.002,0-0.002,0-0.004,0c-1.801-0.002-3.259-1.461-3.262-3.261c0-0.669-0.541-1.211-1.211-1.211
	H40.261c-0.669,0-1.211,0.542-1.211,1.211l0,0c-0.002,1.8-1.461,3.259-3.261,3.261c-0.669,0-1.211,0.542-1.211,1.211v24.108h-2.365
	V2.423h27.368L59.584,59.583z"/>
</svg>
