<svg xmlns="http://www.w3.org/2000/svg" width="58.901" height="61.838" viewBox="0 0 58.901 61.838">
  <g id="Group_1564" data-name="Group 1564" transform="translate(-219 -971)">
    <g id="internet" transform="translate(208.602 971)">
      <g id="Group_1563" data-name="Group 1563" transform="translate(10.398 0)">
        <g id="Group_1562" data-name="Group 1562">
          <path id="Path_16324" data-name="Path 16324" d="M69.046,24.316A1.059,1.059,0,0,0,68,23.394c-.564,0-1.118-.015-1.662-.041A28.189,28.189,0,0,0,38.823,0H38.7c-.1,0-.207,0-.308,0a28.173,28.173,0,0,0-.1,56.344c.075,0,1.162-.019,1.911-.051a26.637,26.637,0,0,0,9.175,5.481,1.058,1.058,0,0,0,.712,0,26.176,26.176,0,0,0,12.631-9.364A33.609,33.609,0,0,0,68.145,39.9,49.242,49.242,0,0,0,69.046,24.316ZM59.33,12.429a25.958,25.958,0,0,1,4.814,10.747,34.982,34.982,0,0,1-9.4-2.429,41.5,41.5,0,0,0-1.249-5.464A29.818,29.818,0,0,0,59.33,12.429Zm-1.361-1.646a27.882,27.882,0,0,1-5.15,2.491,26.094,26.094,0,0,0-5.428-9.124c-.26-.269-.525-.525-.794-.769A26,26,0,0,1,57.969,10.783Zm-18.1-8.562c4.4.7,8.476,5.05,10.943,11.722a42.366,42.366,0,0,1-10.943,1.7V2.221Zm0,15.543a44.518,44.518,0,0,0,11.616-1.812c.36,1.195.666,2.436.916,3.712a20.1,20.1,0,0,1-2.054-1.183,1.061,1.061,0,0,0-1.217,0,30.844,30.844,0,0,1-9.262,3.871V17.765ZM37.747,2.191v13.46A42.441,42.441,0,0,1,26.6,13.944C29.106,7.169,33.266,2.789,37.747,2.191ZM30.424,24.316c-.014.11-.144,1.138-.212,2.8H24.217a42.391,42.391,0,0,1,1.712-11.163A44.59,44.59,0,0,0,37.747,17.77v5.044a34.329,34.329,0,0,1-6.273.581A1.059,1.059,0,0,0,30.424,24.316Zm.746,14.869A41.252,41.252,0,0,0,25.929,40.4a42.4,42.4,0,0,1-1.712-11.162h5.954A50.107,50.107,0,0,0,31.17,39.185ZM20.094,9.8A25.928,25.928,0,0,1,30.965,3.243q-.481.427-.946.906a26.082,26.082,0,0,0-5.428,9.124,27.683,27.683,0,0,1-5.323-2.6Q19.67,10.232,20.094,9.8Zm3.825,5.479A44.533,44.533,0,0,0,22.1,27.116H12.539A25.836,25.836,0,0,1,17.9,12.31,29.617,29.617,0,0,0,23.919,15.283ZM17.912,44.03a25.916,25.916,0,0,1-5.372-14.8H22.1a44.527,44.527,0,0,0,1.821,11.833A29.639,29.639,0,0,0,17.912,44.03Zm1.367,1.638a27.7,27.7,0,0,1,5.313-2.593A26.106,26.106,0,0,0,30.02,52.2c.3.315.615.611.93.891A26.111,26.111,0,0,1,19.279,45.668ZM26.6,42.406a39.208,39.208,0,0,1,5.05-1.155,32.879,32.879,0,0,0,5.095,11.161c.453.624.931,1.22,1.429,1.794C33.536,53.838,29.189,49.4,26.6,42.406Zm39.476-2.967a31.515,31.515,0,0,1-5.069,11.728,24.044,24.044,0,0,1-11.274,8.485A24.044,24.044,0,0,1,38.48,51.193,31.46,31.46,0,0,1,33.4,39.5a48.771,48.771,0,0,1-.968-14,35.639,35.639,0,0,0,17.3-4.89,35.632,35.632,0,0,0,17.3,4.89A48.694,48.694,0,0,1,66.079,39.439Z" transform="translate(-10.398 0)"/>
          <path id="Path_16325" data-name="Path 16325" d="M211.59,170.65a38.844,38.844,0,0,1-13.606-4.059,1.059,1.059,0,0,0-.975,0A38.844,38.844,0,0,1,183.4,170.65a1.059,1.059,0,0,0-.945,1.044,45.666,45.666,0,0,0,1.089,10.424c2.014,8.72,6.564,14.688,13.524,17.739a1.06,1.06,0,0,0,.851,0c6.96-3.051,11.51-9.019,13.524-17.739a45.662,45.662,0,0,0,1.089-10.424A1.059,1.059,0,0,0,211.59,170.65Zm-2.208,10.991c-1.813,7.85-5.811,13.259-11.886,16.084-6.074-2.825-10.072-8.233-11.886-16.084a42.98,42.98,0,0,1-1.033-9,41.037,41.037,0,0,0,12.918-3.923,41.037,41.037,0,0,0,12.919,3.923A42.965,42.965,0,0,1,209.383,181.641Z" transform="translate(-158.16 -142.963)"/>
        </g>
      </g>
    </g>
    <path id="Path_16326" data-name="Path 16326" d="M84.428,152.393l-1.2-1.2a1.717,1.717,0,0,0-2.428,0l-6.316,6.316-1.746-1.746a1.717,1.717,0,0,0-2.428,0l-1.2,1.2a1.719,1.719,0,0,0,0,2.428l4.164,4.164a1.706,1.706,0,0,0,1.214.5h0a1.705,1.705,0,0,0,1.214-.5l8.735-8.735A1.719,1.719,0,0,0,84.428,152.393Zm-9.949,9.585-3.8-3.8.841-.841,2.262,2.262a.987.987,0,0,0,1.4,0l6.833-6.833.841.841Z" transform="translate(181.505 853.637)" fill="#147db2"/>
  </g>
</svg>
