<?xml version="1.0" encoding="utf-8"?>
<!-- Generator: Adobe Illustrator 16.0.0, SVG Export Plug-In . SVG Version: 6.00 Build 0)  -->
<!DOCTYPE svg PUBLIC "-//W3C//DTD SVG 1.1//EN" "http://www.w3.org/Graphics/SVG/1.1/DTD/svg11.dtd">
<svg version="1.1" id="PlateGlassInsurance" xmlns="http://www.w3.org/2000/svg" xmlns:xlink="http://www.w3.org/1999/xlink"
	 x="0px" y="0px" width="72.082px" height="72.082px" viewBox="0 0 72.082 72.082" enable-background="new 0 0 72.082 72.082"
	 xml:space="preserve">
<g id="PlateGlassInsurance.5f637cac" transform="translate(0.123 0.062)">
	<g id="Group_2118">
		<g id="Group_2117">
			
				<linearGradient id="Path_17198_1_" gradientUnits="userSpaceOnUse" x1="-531.433" y1="10.6484" x2="-531.433" y2="11.6206" gradientTransform="matrix(72.2 0 0 72.2 38405.4727 -768.9296)">
				<stop  offset="0.13" style="stop-color:#00A9ED"/>
				<stop  offset="1" style="stop-color:#65106B"/>
			</linearGradient>
			<path id="Path_17198" fill="url(#Path_17198_1_)" d="M60.83,10.248C47.14-3.476,24.916-3.502,11.191,10.189
				c-13.724,13.691-13.75,35.915-0.059,49.64c13.691,13.722,35.914,13.75,49.639,0.06c6.599-6.583,10.311-15.523,10.311-24.846
				C71.083,25.746,67.397,16.83,60.83,10.248L60.83,10.248z M59.663,58.669C46.596,71.701,25.44,71.673,12.406,58.607
				C-0.625,45.541-0.597,24.384,12.469,11.351C18.726,5.11,27.2,1.603,36.038,1.595c8.873-0.032,17.386,3.504,23.626,9.814
				c13.048,13,13.088,34.114,0.09,47.164c-0.03,0.03-0.061,0.061-0.09,0.09L59.663,58.669L59.663,58.669z"/>
		</g>
	</g>
	<g id="Group_2120" transform="translate(22.88 14.506)">
		<g id="Group_2119">
			
				<linearGradient id="Path_17199_1_" gradientUnits="userSpaceOnUse" x1="-564.6441" y1="17.807" x2="-564.6441" y2="18.7791" gradientTransform="matrix(26.395 0 0 43.1497 14916.9678 -768.8425)">
				<stop  offset="0.13" style="stop-color:#00A9ED"/>
				<stop  offset="1" style="stop-color:#65106B"/>
			</linearGradient>
			<path id="Path_17199" fill="url(#Path_17199_1_)" d="M14.176,25.187c3.143,0.006,6.156-1.251,8.363-3.49
				c2.222-2.217,3.477-5.223,3.488-8.361V0.396c-0.004-0.44-0.359-0.796-0.799-0.8H1.164c-0.44,0.004-0.796,0.36-0.8,0.8v13.013
				c0.007,6.501,5.276,11.77,11.778,11.778h0.217v10.542c-2.315,0.03-4.623,0.248-6.903,0.653c-2.327,0.437-3.78,1.236-3.78,2.254
				s1.458,1.817,3.78,2.254c2.544,0.442,5.123,0.661,7.706,0.653c2.584,0.045,5.167-0.175,7.705-0.653
				c2.329-0.437,3.781-1.236,3.781-2.254s-1.458-1.817-3.781-2.254c-2.278-0.405-4.588-0.623-6.902-0.653V25.187H14.176z
				 M15.345,1.195L13.599,4.03c-0.081,0.133-0.131,0.282-0.146,0.437c0.003,0.441,0.359,0.795,0.8,0.8h3.126l-4.579,4.944
				l1.091-2.762c0.065-0.108,0.091-0.238,0.071-0.363c-0.004-0.441-0.358-0.796-0.798-0.8H9.016l3.272-5.089L15.345,1.195z
				 M20.577,37.903c0.866,0.068,1.708,0.315,2.473,0.728c-0.78,0.374-1.614,0.619-2.473,0.728c-4.913,0.776-9.918,0.776-14.831,0
				c-0.865-0.066-1.707-0.313-2.472-0.728c0.78-0.372,1.614-0.618,2.472-0.728c2.179-0.417,4.394-0.612,6.611-0.583v1.309
				c0,0.442,0.359,0.801,0.801,0.801c0.441,0,0.798-0.358,0.798-0.801v-1.308c2.218-0.022,4.434,0.173,6.613,0.583L20.577,37.903
				L20.577,37.903z M12.216,23.655c-2.699,0.002-5.288-1.071-7.195-2.98c-1.898-1.916-2.968-4.499-2.981-7.195V1.195h8.435
				l-3.5,5.453C6.741,7.01,6.837,7.493,7.192,7.739c0.133,0.081,0.282,0.13,0.437,0.146h4.435l-2.327,5.817
				c-0.171,0.377-0.003,0.822,0.374,0.993c0.021,0.008,0.041,0.018,0.062,0.024c0.305,0.152,0.677,0.061,0.875-0.218l8.723-9.451
				c0.284-0.289,0.279-0.752-0.008-1.035c-0.021-0.021-0.041-0.039-0.063-0.055c-0.139-0.132-0.319-0.209-0.51-0.218H15.7
				l1.527-2.472h7.194v12.212c0.002,2.699-1.072,5.288-2.98,7.195c-1.915,1.897-4.499,2.968-7.193,2.98L12.216,23.655z"/>
		</g>
	</g>
</g>
</svg>
