<svg xmlns="http://www.w3.org/2000/svg" width="86.346" height="73" viewBox="0 0 86.346 73">
  <g id="care_1_" data-name="care (1)" transform="translate(0 -39.568)">
    <g id="Group_1902" data-name="Group 1902" transform="translate(0 80.629)">
      <g id="Group_1901" data-name="Group 1901">
        <path id="Path_16683" data-name="Path 16683" d="M51.53,304.577H44.986a1.686,1.686,0,1,0,0,3.373H51.53a1.831,1.831,0,1,1,0,3.663H33.916a8.86,8.86,0,0,1-6.831-3.2l-4.212-5.063a12.218,12.218,0,0,0-9.069-4.409v-9.961h6.209a11.7,11.7,0,0,1,8.164,3.3l9.091,8.775A1.657,1.657,0,0,1,35,303.462L27.86,296.92a1.686,1.686,0,0,0-2.279,2.486l7.137,6.543a5.029,5.029,0,0,0,6.891-7.325l-9.091-8.775A15.054,15.054,0,0,0,20.012,285.6H13.476a4.186,4.186,0,0,0-3.852-2.558H1.686A1.686,1.686,0,0,0,0,284.732v12.331a1.686,1.686,0,1,0,3.373,0V286.418H9.624a.808.808,0,0,1,.807.807v13.516a.808.808,0,0,1-.807.807H7.873a1.686,1.686,0,1,0,0,3.373H9.624A4.186,4.186,0,0,0,13.5,302.3a8.86,8.86,0,0,1,6.78,3.2l4.212,5.063a12.224,12.224,0,0,0,9.423,4.418H51.53a5.2,5.2,0,0,0,0-10.408Z" transform="translate(0 -283.046)"/>
      </g>
    </g>
    <g id="Group_1904" data-name="Group 1904" transform="translate(29.612 39.568)">
      <g id="Group_1903" data-name="Group 1903" transform="translate(0 0)">
        <path id="Path_16684" data-name="Path 16684" d="M230.637,55.145a1.686,1.686,0,0,0-1.686,1.686v11.3H222.7a.808.808,0,0,1-.807-.807V53.812A.808.808,0,0,1,222.7,53h1.628a1.686,1.686,0,0,0,0-3.373H222.7a4.186,4.186,0,0,0-3.876,2.619,8.86,8.86,0,0,1-6.78-3.2l-4.212-5.063a12.224,12.224,0,0,0-9.423-4.419H180.794a5.2,5.2,0,1,0,0,10.407H188a1.686,1.686,0,0,0,0-3.373h-7.2a1.831,1.831,0,1,1,0-3.663h17.614a8.861,8.861,0,0,1,6.831,3.2l4.212,5.063a12.219,12.219,0,0,0,9.069,4.409v9.961h-6.209a11.7,11.7,0,0,1-8.164-3.3L195.056,53.5a1.657,1.657,0,0,1,2.27-2.413l7.138,6.543a1.686,1.686,0,1,0,2.279-2.486L199.6,48.6a5.029,5.029,0,0,0-6.891,7.325l9.091,8.775a15.054,15.054,0,0,0,10.506,4.243h6.536a4.186,4.186,0,0,0,3.852,2.558h7.938a1.686,1.686,0,0,0,1.686-1.686V56.831A1.686,1.686,0,0,0,230.637,55.145Z" transform="translate(-175.59 -39.568)"/>
      </g>
    </g>
    <g id="Group_1906" data-name="Group 1906" transform="translate(51.203 95.926)">
      <g id="Group_1905" data-name="Group 1905" transform="translate(0 0)">
        <path id="Path_16685" data-name="Path 16685" d="M306.858,374.745a1.7,1.7,0,1,0-.882,2.248l.036-.016A1.689,1.689,0,0,0,306.858,374.745Z" transform="translate(-303.617 -373.752)"/>
      </g>
    </g>
    <g id="Group_1908" data-name="Group 1908" transform="translate(55.585 93.397)">
      <g id="Group_1907" data-name="Group 1907">
        <path id="Path_16686" data-name="Path 16686" d="M332.654,359.44a1.692,1.692,0,1,0-.368,2.365l.021-.016A1.679,1.679,0,0,0,332.654,359.44Z" transform="translate(-329.603 -358.757)"/>
      </g>
    </g>
    <g id="Group_1910" data-name="Group 1910" transform="translate(46.38 97.475)">
      <g id="Group_1909" data-name="Group 1909" transform="translate(0 0)">
        <path id="Path_16687" data-name="Path 16687" d="M278.367,384.277a1.7,1.7,0,1,0-1.347,2.008l.05-.01A1.684,1.684,0,0,0,278.367,384.277Z" transform="translate(-275.016 -382.94)"/>
      </g>
    </g>
    <g id="Group_1912" data-name="Group 1912" transform="translate(59.332 89.979)">
      <g id="Group_1911" data-name="Group 1911">
        <path id="Path_16688" data-name="Path 16688" d="M354.646,338.921a1.686,1.686,0,0,0-2.381.123l-.036.04a1.686,1.686,0,1,0,2.417-.163Zm-.942,1.422-.187-.17.2.183Z" transform="translate(-351.819 -338.487)"/>
      </g>
    </g>
    <g id="Group_1914" data-name="Group 1914" transform="translate(64.272 81.202)">
      <g id="Group_1913" data-name="Group 1913" transform="translate(0 0)">
        <path id="Path_16689" data-name="Path 16689" d="M383.288,286.515a1.693,1.693,0,1,0,1.119,2.121l.007-.023A1.682,1.682,0,0,0,383.288,286.515Z" transform="translate(-381.109 -286.443)"/>
      </g>
    </g>
    <g id="Group_1916" data-name="Group 1916" transform="translate(65.262 71.167)">
      <g id="Group_1915" data-name="Group 1915" transform="translate(0 0)">
        <path id="Path_16690" data-name="Path 16690" d="M390.328,228.343c0-.021-.008-.043-.012-.064a1.7,1.7,0,1,0,.012.064Z" transform="translate(-386.979 -226.939)"/>
      </g>
    </g>
    <g id="Group_1918" data-name="Group 1918" transform="translate(65.229 76.223)">
      <g id="Group_1917" data-name="Group 1917">
        <path id="Path_16691" data-name="Path 16691" d="M388.619,256.93a1.688,1.688,0,0,0-1.828,1.531c0,.016,0,.05,0,.066a1.686,1.686,0,0,0,1.584,1.782c.034,0,.067,0,.1,0a1.7,1.7,0,0,0,.148-3.383Z" transform="translate(-386.783 -256.923)"/>
      </g>
    </g>
    <g id="Group_1920" data-name="Group 1920" transform="translate(62.273 85.853)">
      <g id="Group_1919" data-name="Group 1919" transform="translate(0 0)">
        <path id="Path_16692" data-name="Path 16692" d="M371.786,314.244a1.686,1.686,0,0,0-2.3.636l-.023.042a1.689,1.689,0,0,0,1.482,2.5,1.673,1.673,0,0,0,1.474-.877l-1.466-.833,1.467.831A1.686,1.686,0,0,0,371.786,314.244Z" transform="translate(-369.259 -314.024)"/>
      </g>
    </g>
    <g id="Group_1922" data-name="Group 1922" transform="translate(31.013 53.026)">
      <g id="Group_1921" data-name="Group 1921">
        <path id="Path_16693" data-name="Path 16693" d="M187.1,120.3a1.686,1.686,0,0,0-2.262-.754l-.015.007a1.686,1.686,0,1,0,2.277.747Z" transform="translate(-183.898 -119.37)"/>
      </g>
    </g>
    <g id="Group_1924" data-name="Group 1924" transform="translate(35.75 51.263)">
      <g id="Group_1923" data-name="Group 1923" transform="translate(0 0)">
        <path id="Path_16694" data-name="Path 16694" d="M215.332,110.207a1.686,1.686,0,0,0-2.036-1.241l-.039.01a1.686,1.686,0,1,0,2.076,1.231Z" transform="translate(-211.987 -108.918)"/>
      </g>
    </g>
    <g id="Group_1926" data-name="Group 1926" transform="translate(26.747 55.762)">
      <g id="Group_1925" data-name="Group 1925" transform="translate(0 0)">
        <path id="Path_16695" data-name="Path 16695" d="M161.611,136.223a1.688,1.688,0,0,0-2.37-.257l1.045,1.323-1.05-1.319a1.686,1.686,0,0,0,2.1,2.638l.022-.018A1.684,1.684,0,0,0,161.611,136.223Z" transform="translate(-158.599 -135.595)"/>
      </g>
    </g>
    <g id="Group_1928" data-name="Group 1928" transform="translate(18.633 68.328)">
      <g id="Group_1927" data-name="Group 1927">
        <path id="Path_16696" data-name="Path 16696" d="M112.621,210.166a1.686,1.686,0,0,0-2.07,1.183l-.016.063a1.686,1.686,0,1,0,2.087-1.246Z" transform="translate(-110.487 -210.106)"/>
      </g>
    </g>
    <g id="Group_1930" data-name="Group 1930" transform="translate(17.908 73.34)">
      <g id="Group_1929" data-name="Group 1929" transform="translate(0 0)">
        <path id="Path_16697" data-name="Path 16697" d="M107.975,239.827a1.687,1.687,0,0,0-1.781,1.586c0,.022,0,.043,0,.065a1.685,1.685,0,0,0,1.635,1.733h.051a1.694,1.694,0,0,0,.1-3.385Z" transform="translate(-106.191 -239.824)"/>
      </g>
    </g>
    <g id="Group_1932" data-name="Group 1932" transform="translate(20.412 63.586)">
      <g id="Group_1931" data-name="Group 1931" transform="translate(0 0)">
        <path id="Path_16698" data-name="Path 16698" d="M123.514,182.183a1.686,1.686,0,0,0-2.277.71l-.027.054a1.686,1.686,0,1,0,2.3-.764Z" transform="translate(-121.037 -181.989)"/>
      </g>
    </g>
    <g id="Group_1934" data-name="Group 1934" transform="translate(23.161 59.334)">
      <g id="Group_1933" data-name="Group 1933" transform="translate(0 0)">
        <path id="Path_16699" data-name="Path 16699" d="M140.113,157.162a1.686,1.686,0,0,0-2.375.22l-.035.043a1.686,1.686,0,1,0,2.409-.263Z" transform="translate(-137.339 -156.773)"/>
      </g>
    </g>
    <g id="Group_1936" data-name="Group 1936" transform="translate(18.252 78.394)">
      <g id="Group_1935" data-name="Group 1935">
        <path id="Path_16700" data-name="Path 16700" d="M111.576,271.18a1.686,1.686,0,0,0-3.32.595l0,.017a1.677,1.677,0,0,0,1.653,1.381,1.689,1.689,0,0,0,1.663-1.992Z" transform="translate(-108.23 -269.791)"/>
      </g>
    </g>
    <g id="Group_1938" data-name="Group 1938" transform="translate(29.777 66.982)">
      <g id="Group_1937" data-name="Group 1937" transform="translate(0 0)">
        <path id="Path_16701" data-name="Path 16701" d="M195.752,202.125a7.809,7.809,0,0,0-5.678,2.433,7.832,7.832,0,1,0-10.689,11.414l.033.027,9.609,7.608a1.686,1.686,0,0,0,2.1,0l10.017-7.979a1.667,1.667,0,0,0,.14-.125,7.83,7.83,0,0,0-5.529-13.375Zm3.209,10.925-8.89,7.081-8.542-6.762a4.458,4.458,0,1,1,6.987-5.118,1.686,1.686,0,0,0,3.116,0,4.458,4.458,0,1,1,7.329,4.8Z" transform="translate(-176.566 -202.125)" fill="#147db2"/>
      </g>
    </g>
    <g id="Group_1940" data-name="Group 1940" transform="translate(0.006 99.138)">
      <g id="Group_1939" data-name="Group 1939">
        <circle id="Ellipse_192" data-name="Ellipse 192" cx="1.68" cy="1.68" r="1.68" fill="#147db2"/>
      </g>
    </g>
    <g id="Group_1942" data-name="Group 1942" transform="translate(82.979 49.637)">
      <g id="Group_1941" data-name="Group 1941" transform="translate(0 0)">
        <circle id="Ellipse_193" data-name="Ellipse 193" cx="1.68" cy="1.68" r="1.68" fill="#147db2"/>
      </g>
    </g>
  </g>
</svg>
