<svg id="like_4_" data-name="like (4)" xmlns="http://www.w3.org/2000/svg" width="73.5" height="64.925" viewBox="0 0 73.5 64.925">
  <path id="Path_16733" data-name="Path 16733" d="M49.7,58.4A14.7,14.7,0,1,1,64.4,43.7,14.716,14.716,0,0,1,49.7,58.4Zm0-26.95A12.25,12.25,0,1,0,61.95,43.7,12.264,12.264,0,0,0,49.7,31.45Z" transform="translate(7.875 6.525)"/>
  <path id="Path_16734" data-name="Path 16734" d="M47.225,51.15A1.225,1.225,0,0,1,46,49.925v-14.7a1.225,1.225,0,0,1,2.45,0v14.7A1.225,1.225,0,0,1,47.225,51.15Z" transform="translate(10.35 7.65)" fill="#147db2"/>
  <path id="Path_16735" data-name="Path 16735" d="M55.925,42.45h-14.7a1.225,1.225,0,1,1,0-2.45h14.7a1.225,1.225,0,0,1,0,2.45Z" transform="translate(9 9)" fill="#147db2"/>
  <path id="Path_16736" data-name="Path 16736" d="M36.779,64.924A4.124,4.124,0,0,1,33.835,63.7L6.114,35.79A20.984,20.984,0,0,1,20.825,0,20.591,20.591,0,0,1,35.507,6.119a1.777,1.777,0,0,0,2.488,0A20.586,20.586,0,0,1,52.675,0,20.984,20.984,0,0,1,67.582,35.59a1.224,1.224,0,0,1-.148.183l-3.158,3.183a1.221,1.221,0,0,1-1.4.24,12.113,12.113,0,0,0-5.3-1.22,12.264,12.264,0,0,0-12.25,12.25,12.107,12.107,0,0,0,1.262,5.385,1.223,1.223,0,0,1-.23,1.4L39.726,63.7a4.12,4.12,0,0,1-2.946,1.227ZM20.825,2.45A18.534,18.534,0,0,0,7.852,34.062L35.574,61.972a1.743,1.743,0,0,0,2.413,0l6.036-6.082a14.49,14.49,0,0,1-1.148-5.664,14.716,14.716,0,0,1,14.7-14.7,14.513,14.513,0,0,1,5.558,1.1l2.4-2.421a1.291,1.291,0,0,1,.143-.176,18.533,18.533,0,0,0-13-31.58,18.16,18.16,0,0,0-12.946,5.4,4.284,4.284,0,0,1-5.958,0,18.16,18.16,0,0,0-12.946-5.4Z"/>
</svg>
