<svg xmlns="http://www.w3.org/2000/svg" width="66.696" height="57.601" viewBox="0 0 66.696 57.601">
  <g id="briefcase" transform="translate(0 -34.909)">
    <g id="Group_1986" data-name="Group 1986" transform="translate(1.516 66.741)">
      <g id="Group_1985" data-name="Group 1985">
        <path id="Path_16788" data-name="Path 16788" d="M73.786,279.273a1.432,1.432,0,0,0-1.516,1.516v19.706a1.432,1.432,0,0,1-1.516,1.516H16.184a1.432,1.432,0,0,1-1.516-1.516V280.789a1.432,1.432,0,0,0-1.516-1.516,1.432,1.432,0,0,0-1.516,1.516v19.706a4.466,4.466,0,0,0,4.547,4.547h54.57a4.466,4.466,0,0,0,4.547-4.547V280.789A1.432,1.432,0,0,0,73.786,279.273Z" transform="translate(-11.637 -279.273)"/>
      </g>
    </g>
    <g id="Group_1988" data-name="Group 1988" transform="translate(0 45.52)">
      <g id="Group_1987" data-name="Group 1987">
        <path id="Path_16789" data-name="Path 16789" d="M62.149,116.364H4.547A4.466,4.466,0,0,0,0,120.911v9.7a4.55,4.55,0,0,0,3.486,4.4l23.8,5.305v4.851A1.432,1.432,0,0,0,28.8,146.68H37.9a1.432,1.432,0,0,0,1.516-1.516v-4.851l23.8-5.305a4.55,4.55,0,0,0,3.486-4.4v-9.7A4.466,4.466,0,0,0,62.149,116.364ZM36.38,143.649H30.317v-6.063H36.38Zm27.285-13.036a1.476,1.476,0,0,1-1.213,1.516l-23.041,5.154V136.07a1.432,1.432,0,0,0-1.516-1.516H28.8a1.432,1.432,0,0,0-1.516,1.516v1.213L4.244,132.129a1.476,1.476,0,0,1-1.213-1.516v-9.7A1.432,1.432,0,0,1,4.547,119.4h57.6a1.432,1.432,0,0,1,1.516,1.516Z" transform="translate(0 -116.364)"/>
      </g>
    </g>
    <g id="Group_1990" data-name="Group 1990" transform="translate(21.222 34.909)">
      <g id="Group_1989" data-name="Group 1989">
        <path id="Path_16790" data-name="Path 16790" d="M182.615,34.909H167.456a4.466,4.466,0,0,0-4.547,4.547v1.516a1.516,1.516,0,1,0,3.032,0V39.456a1.432,1.432,0,0,1,1.516-1.516h15.158a1.432,1.432,0,0,1,1.516,1.516v1.516a1.516,1.516,0,0,0,3.032,0V39.456A4.466,4.466,0,0,0,182.615,34.909Z" transform="translate(-162.909 -34.909)" fill="#147db2"/>
      </g>
    </g>
  </g>
</svg>
