<svg xmlns="http://www.w3.org/2000/svg" width="94.027" height="55.752" viewBox="0 0 94.027 55.752">
  <g id="delivery-truck" transform="translate(0 -104.209)">
    <g id="Group_1972" data-name="Group 1972" transform="translate(17.666 148.373)">
      <g id="Group_1971" data-name="Group 1971">
        <path id="Path_16751" data-name="Path 16751" d="M99.042,344.693a2.849,2.849,0,1,0,2.849,2.849A2.853,2.853,0,0,0,99.042,344.693Z" transform="translate(-96.193 -344.693)" fill="#147db2"/>
      </g>
    </g>
    <g id="Group_1974" data-name="Group 1974" transform="translate(76.551 148.373)">
      <g id="Group_1973" data-name="Group 1973">
        <path id="Path_16752" data-name="Path 16752" d="M419.688,344.693a2.849,2.849,0,1,0,2.849,2.849A2.853,2.853,0,0,0,419.688,344.693Z" transform="translate(-416.839 -344.693)" fill="#147db2"/>
      </g>
    </g>
    <g id="Group_1976" data-name="Group 1976" transform="translate(0 104.209)">
      <g id="Group_1975" data-name="Group 1975">
        <path id="Path_16753" data-name="Path 16753" d="M91.072,130.107l-10.6-3.535-4.956-13.63A4.335,4.335,0,0,0,71.45,110.1H58.7v-3.039a2.853,2.853,0,0,0-2.849-2.849h-53A2.853,2.853,0,0,0,0,107.059v39.748a2.853,2.853,0,0,0,2.849,2.849H11.92a8.738,8.738,0,1,0,17.189,0h41.7a8.738,8.738,0,1,0,17.1-.412l2.915-1.457a5.763,5.763,0,0,0,3.2-5.182v-8.4A4.316,4.316,0,0,0,91.072,130.107ZM2.755,107.059a.1.1,0,0,1,.095-.095h53a.1.1,0,0,1,.095.095V136.6H2.755Zm17.76,50.147a5.983,5.983,0,1,1,5.983-5.983A5.99,5.99,0,0,1,20.515,157.206ZM55.941,146.9H28.1a8.73,8.73,0,0,0-15.18,0H2.849a.1.1,0,0,1-.095-.095v-7.456H55.941Zm18.748-28.16,2.746,7.55H74.477l-2.746-7.55h2.957ZM58.7,112.852H71.45a1.572,1.572,0,0,1,1.473,1.031l.765,2.1H58.7Zm0,5.889H68.8l2.746,7.55H58.7Zm20.7,38.465a5.983,5.983,0,1,1,5.983-5.983A5.99,5.99,0,0,1,79.4,157.206ZM91.272,136.6H89.705a1.377,1.377,0,1,0,0,2.755h1.567V142.6a3.023,3.023,0,0,1-1.68,2.719l-2.727,1.363a8.732,8.732,0,0,0-15.055.215H58.7v-7.55H83.817a1.377,1.377,0,0,0,0-2.755H58.7v-7.55H79.177L90.2,132.72a1.565,1.565,0,0,1,1.071,1.486V136.6Z" transform="translate(0 -104.209)"/>
      </g>
    </g>
  </g>
</svg>
