<svg xmlns="http://www.w3.org/2000/svg" width="73.94" height="73.933" viewBox="0 0 73.94 73.933">
  <g id="burning-house" transform="translate(0 -0.494)">
    <path id="Path_16775" data-name="Path 16775" d="M72.439,25.944,41.281,1.854a7.51,7.51,0,0,0-8.651.022L1.526,25.924a3.47,3.47,0,0,0-1.352,3.96A3.94,3.94,0,0,0,3.7,32.5v37a4.935,4.935,0,0,0,4.929,4.929H65.314A4.935,4.935,0,0,0,70.243,69.5v-37a3.94,3.94,0,0,0,3.521-2.616,3.458,3.458,0,0,0-1.325-3.94ZM65.314,71.962H8.625A2.467,2.467,0,0,1,6.16,69.5V31.83L37,7.893,67.779,31.83V69.5a2.467,2.467,0,0,1-2.465,2.465Zm6.107-42.843a1.5,1.5,0,0,1-1.523.942H69.52L38.379,5.846c-.015-.011-.034-.013-.049-.024s-.023-.028-.039-.038a2.513,2.513,0,0,0-2.732.061L4.418,30.061H4.04a1.5,1.5,0,0,1-1.523-.942,1.046,1.046,0,0,1,.49-1.225l31.1-24.047A4.966,4.966,0,0,1,39.8,3.825L70.958,27.914a1.027,1.027,0,0,1,.463,1.206Zm0,0" transform="translate(0 0)"/>
    <path id="Path_16776" data-name="Path 16776" d="M143.11,149.129a1.232,1.232,0,0,0-.57,1.523,4.649,4.649,0,0,1-.925,3.929,4.259,4.259,0,0,1-3.595,1.884c-1.964-.107-2.413-.925-2.561-1.194-.761-1.39-.06-4.066,1.028-5.993,2.49-4.444-1.2-8.3-2.391-9.379-.027-.023-.115-.1-.143-.117a82.625,82.625,0,0,0-11.278-7.229l0,0,0,0a1.232,1.232,0,0,0-1.19,2.157,8.065,8.065,0,0,1,.957,2.662c.064.249.118.463.16.6a13.353,13.353,0,0,1,.52,3.932,13.8,13.8,0,0,1-2.4,7.145,44.316,44.316,0,0,1-3.862,5.025,52.589,52.589,0,0,0-3.7,4.731,12.887,12.887,0,0,0-.008,14.863c3.88,5.477,11.387,8.692,18.923,8.692a24.482,24.482,0,0,0,8.4-1.444,19.73,19.73,0,0,0,10.35-8.359h0c3.874-6.788,1.811-14.6-6.133-23.222a1.362,1.362,0,0,0-1.58-.2Zm-15.286,17.107c-.227-.159-.92-.643-.121-1.9q1.041-1.332,2.189-2.555a6.839,6.839,0,0,0,.516,1.472c1.063,2.186,3.7,3.7,6.256,5.16,2.453,1.406,4.991,2.859,5.4,4.535a3.108,3.108,0,0,1-.627,2.408,9.817,9.817,0,0,1-4.779,3.485c-3.446,1.276-8.58,1.457-11.722-.663a4.685,4.685,0,0,1-1.181-1.106,4.9,4.9,0,0,1-.794-3.465c.031-.3.183-1.119.368-1.9q.114.092.236.179a4.843,4.843,0,0,0,4.388.713c1.725-.6,2.207-1.615,2.31-2.36.275-2.007-1.984-3.687-2.437-4Zm20.86,5.094a15.925,15.925,0,0,1-5.142,5.3,5.444,5.444,0,0,0,.915-4.261c-.659-2.7-3.663-4.426-6.569-6.09-2.228-1.277-4.533-2.6-5.263-4.1a4.331,4.331,0,0,1-.414-1.459c-.007-.081-.02-.19-.038-.319a5.824,5.824,0,0,1-.068-.829,1.232,1.232,0,0,0-1.848-1.6l-.01.008a39,39,0,0,0-4.487,4.843c-.024.031-.068.093-.089.126-1.286,2.014-.994,4.1.745,5.314a3.3,3.3,0,0,1,1.408,1.628s-.11.183-.685.384a2.383,2.383,0,0,1-2.03-.315,1.6,1.6,0,0,1-.725-.791,1.233,1.233,0,0,0-1.087-1.23,1.891,1.891,0,0,0-.233-.015c-1.886.049-2.435,4.184-2.557,5.449a7.745,7.745,0,0,0,.546,3.891,16.827,16.827,0,0,1-5.9-5.022,10.469,10.469,0,0,1,.054-12.073,50.336,50.336,0,0,1,3.524-4.5,46.814,46.814,0,0,0,4.072-5.314,16.347,16.347,0,0,0,2.772-8.4,15.813,15.813,0,0,0-.617-4.665c-.038-.13-.084-.311-.138-.524-.017-.069-.035-.137-.053-.206a82.41,82.41,0,0,1,7.673,5.174c.848.767,3.493,3.493,1.9,6.343-1.318,2.337-2.382,5.936-1.04,8.385a5.107,5.107,0,0,0,4.585,2.471,6.628,6.628,0,0,0,5.719-2.888,8.221,8.221,0,0,0,1.307-2.684c5.448,6.778,6.719,12.817,3.775,17.977Zm0,0" transform="translate(-94.791 -112.866)" fill="#147db2"/>
  </g>
</svg>
