<svg xmlns="http://www.w3.org/2000/svg" width="73" height="73" viewBox="0 0 73 73">
  <g id="fever" transform="translate(-1 -1)">
    <path id="Path_16710" data-name="Path 16710" d="M70.468,36.323H51.994A7.039,7.039,0,0,0,53.8,26.289a22.27,22.27,0,0,0,1.358-7.627V15.734A14.734,14.734,0,0,0,32.79,3.133a14.734,14.734,0,0,0-22.371,12.6v.26l-1.177-2.06L4.123,22.892a5.887,5.887,0,0,0,6.383,8.593,7.07,7.07,0,0,0,6.179,5.967A16.525,16.525,0,0,0,26.9,49.346v2.477l-9.876,1.8A19.509,19.509,0,0,0,1,72.823V74H64.581V72.823a19.509,19.509,0,0,0-16.027-19.2l-9.876-1.8V49.35a16.4,16.4,0,0,0,6.358-4.386c.058.026.122.036.179.065a6.774,6.774,0,0,0,3.021.714H70.468A3.537,3.537,0,0,0,74,42.21V39.855a3.537,3.537,0,0,0-3.532-3.532ZM49.214,35c.021-.344.06-.685.06-1.029V25.893a4.689,4.689,0,0,1-.06,9.1ZM12.774,18.661V15.734A12.379,12.379,0,0,1,32.02,5.434l.77.513.77-.513a12.379,12.379,0,0,1,19.246,10.3v2.927a19.946,19.946,0,0,1-.877,5.848,7.025,7.025,0,0,0-2.655-1.033V21.6l-4.71-3.532V15.129a2.357,2.357,0,0,0-2.355-2.355H23.371a2.357,2.357,0,0,0-2.355,2.355v2.944L16.306,21.6v1.866a6.963,6.963,0,0,0-1.5.446,5.75,5.75,0,0,0-.449-1.026l-1.517-2.653c-.04-.523-.069-1.049-.069-1.578Zm29.437,3.532H23.371V15.129H42.21ZM9.184,29.258a3.474,3.474,0,0,1-3.017-5.2l3.074-5.38,3.074,5.38a3.476,3.476,0,0,1-3.132,5.2Zm3.59,1.179a5.8,5.8,0,0,0,2.291-4.028,4.612,4.612,0,0,1,1.241-.52v8.079c0,.346.031.685.052,1.027A4.709,4.709,0,0,1,12.774,30.437Zm5.887,3.531V22.782l2.355-1.766v1.177a2.357,2.357,0,0,0,2.355,2.355H42.21a2.357,2.357,0,0,0,2.355-2.355V21.016l2.355,1.766V33.968a14.245,14.245,0,0,1-.252,2.542,6.775,6.775,0,0,0-1.452.526,4.426,4.426,0,0,1-1.967.464h-8.1a3.532,3.532,0,1,0,0,7.065H42.1a14.107,14.107,0,0,1-23.444-10.6ZM35.145,42.21a1.177,1.177,0,0,1,0-2.355h1.177V42.21Zm-7.672,11.9A5.891,5.891,0,0,0,31.4,57.332a4.711,4.711,0,0,1-4.5,2.539c-2.6,0-4.71-1.585-4.71-3.532A2.655,2.655,0,0,1,22.573,55ZM62.186,71.645H3.395A17.156,17.156,0,0,1,17.449,55.936l2.471-.45a4.729,4.729,0,0,0-.081.852c0,3.246,3.168,5.887,7.065,5.887a7.514,7.514,0,0,0,5.887-2.64,7.514,7.514,0,0,0,5.887,2.64c3.9,0,7.065-2.641,7.065-5.887a4.813,4.813,0,0,0-.08-.851l2.471.45A17.153,17.153,0,0,1,62.186,71.645ZM43.008,55a2.655,2.655,0,0,1,.379,1.334c0,1.947-2.112,3.532-4.71,3.532a4.711,4.711,0,0,1-4.5-2.539,5.886,5.886,0,0,0,3.927-3.218Zm-6.685-4.553v1.177a3.532,3.532,0,0,1-7.065,0V50.061a16.25,16.25,0,0,0,7.065,0Zm9.946-7.53a6.78,6.78,0,0,0-3.02-.712H38.677V39.855h4.571a6.8,6.8,0,0,0,3.02-.712,4.427,4.427,0,0,1,1.967-.465H64.581v4.71H48.236A4.423,4.423,0,0,1,46.268,42.922Zm25.377-.712a1.179,1.179,0,0,1-1.177,1.177H66.935v-4.71h3.532a1.179,1.179,0,0,1,1.177,1.177Z" transform="translate(0 0)"/>
    <path id="Path_16711" data-name="Path 16711" d="M0,0H2.355V8.49H0Z" transform="matrix(0.555, -0.832, 0.832, 0.555, 35.679, 27.892)" fill="#147db2"/>
    <path id="Path_16712" data-name="Path 16712" d="M0,0H8.49V2.355H0Z" transform="matrix(0.832, -0.555, 0.555, 0.832, 21.547, 30.625)" fill="#147db2"/>
  </g>
</svg>
