<svg xmlns="http://www.w3.org/2000/svg" width="68.964" height="52.025" viewBox="0 0 68.964 52.025">
  <g id="television" transform="translate(0 -62.877)">
    <g id="Group_1992" data-name="Group 1992" transform="translate(0 62.877)">
      <g id="Group_1991" data-name="Group 1991">
        <path id="Path_16794" data-name="Path 16794" d="M65.334,75.15V66.515A3.642,3.642,0,0,0,61.7,62.877H3.638A3.642,3.642,0,0,0,0,66.516V101.6a3.633,3.633,0,0,0,3.631,3.627H25.408v6.049H19.358v2.42H44.766v-2.42h-4.84v-6.049h7.259v4.839a4.851,4.851,0,0,0,4.851,4.84H64.113a4.851,4.851,0,0,0,4.851-4.84V79.816A4.837,4.837,0,0,0,65.334,75.15ZM37.507,111.273H27.828v-6.049h9.679Zm9.679-8.469H3.631A1.211,1.211,0,0,1,2.42,101.6V97.964H47.186Zm0-22.987V95.544H2.42V66.516A1.22,1.22,0,0,1,3.638,65.3H61.7a1.22,1.22,0,0,1,1.218,1.218v8.461H52.037A4.851,4.851,0,0,0,47.186,79.816Zm19.358,30.246a2.429,2.429,0,0,1-2.431,2.42H52.037a2.428,2.428,0,0,1-2.431-2.42V79.816a2.428,2.428,0,0,1,2.431-2.42H64.113a2.428,2.428,0,0,1,2.431,2.42Z" transform="translate(0 -62.877)"/>
      </g>
    </g>
    <g id="Group_1994" data-name="Group 1994" transform="translate(55.655 106.433)">
      <g id="Group_1993" data-name="Group 1993" transform="translate(0 0)">
        <circle id="Ellipse_194" data-name="Ellipse 194" cx="2.42" cy="2.42" r="2.42" fill="#147db2"/>
      </g>
    </g>
    <g id="Group_1996" data-name="Group 1996" transform="translate(55.655 79.816)">
      <g id="Group_1995" data-name="Group 1995">
        <rect id="Rectangle_722" data-name="Rectangle 722" width="4.84" height="2.42" fill="#147db2"/>
      </g>
    </g>
  </g>
</svg>
