<svg id="family" xmlns="http://www.w3.org/2000/svg" width="73" height="73" viewBox="0 0 73 73">
  <g id="Group_1980" data-name="Group 1980" transform="translate(0 39.209)">
    <g id="Group_1979" data-name="Group 1979">
      <path id="Path_16772" data-name="Path 16772" d="M68.1,290.216a12.022,12.022,0,0,0,.763-4.237c0-6.054-4.413-10.979-9.838-10.979s-9.838,4.925-9.838,10.979a12.019,12.019,0,0,0,.764,4.239,7.711,7.711,0,0,0-4.877,6.626,7.672,7.672,0,0,0-3.345-1.588,6.889,6.889,0,0,0,.616-2.861,6.158,6.158,0,0,0-5.846-6.416,6.158,6.158,0,0,0-5.846,6.416,6.889,6.889,0,0,0,.616,2.861,7.676,7.676,0,0,0-3.346,1.588,7.689,7.689,0,0,0-4.877-6.628,12.018,12.018,0,0,0,.763-4.237c0-6.054-4.413-10.979-9.838-10.979s-9.838,4.925-9.838,10.979a12.023,12.023,0,0,0,.763,4.237A7.7,7.7,0,0,0,0,297.385v9.98a1.426,1.426,0,0,0,1.426,1.426H71.574A1.426,1.426,0,0,0,73,307.365v-9.98A7.709,7.709,0,0,0,68.1,290.216Zm-54.13-12.364c3.852,0,6.986,3.646,6.986,8.127s-3.134,8.127-6.986,8.127-6.986-3.646-6.986-8.127S10.12,277.852,13.973,277.852ZM2.852,305.939v-8.555a4.883,4.883,0,0,1,3.395-4.622c.039.055,5.581,13.177,5.581,13.177Zm8.067-9.526a8.841,8.841,0,0,0,6.107,0l-3.054,7.27Zm14.175,9.526H16.118s5.542-13.122,5.581-13.177a4.883,4.883,0,0,1,3.4,4.622ZM36.5,288.83a3.619,3.619,0,0,1,0,7.129,3.619,3.619,0,0,1,0-7.129Zm8.555,17.109H27.945V302.8a4.853,4.853,0,0,1,4.848-4.848h.8a5.38,5.38,0,0,0,5.821,0h.8a4.853,4.853,0,0,1,4.848,4.848Zm13.973-28.088c3.852,0,6.986,3.646,6.986,8.127s-3.134,8.127-6.986,8.127-6.986-3.646-6.986-8.127S55.175,277.852,59.027,277.852Zm11.121,28.088H47.906v-8.555a4.854,4.854,0,0,1,3.395-4.623,9.213,9.213,0,0,0,15.453,0,4.854,4.854,0,0,1,3.394,4.623Z" transform="translate(0 -275)"/>
    </g>
  </g>
  <g id="Group_1982" data-name="Group 1982" transform="translate(0)">
    <g id="Group_1981" data-name="Group 1981">
      <path id="Path_16773" data-name="Path 16773" d="M62.175,7.72a35.039,35.039,0,0,0-11.618-5.8A49.626,49.626,0,0,0,36.5,0,49.624,49.624,0,0,0,22.444,1.924a35.034,35.034,0,0,0-11.618,5.8C3.743,13.212,0,21.191,0,30.8v2.852a1.426,1.426,0,1,0,2.852,0V32.223h8.555v1.426a1.426,1.426,0,0,0,2.852,0V32.223h9.125v1.426a1.426,1.426,0,0,0,2.852,0V32.223h8.84V45.91a1.426,1.426,0,1,0,2.852,0V32.223h8.84v1.426a1.426,1.426,0,0,0,2.852,0V32.223h9.125v1.426a1.426,1.426,0,0,0,2.852,0V32.223h8.555v1.426a1.426,1.426,0,1,0,2.852,0V30.8C73,21.191,69.257,13.212,62.175,7.72ZM13.8,17.514a35.594,35.594,0,0,0-2.368,11.857H2.883C3.435,17,11.205,8.024,23.732,4.5a27.726,27.726,0,0,0-3.843,3.367,28.842,28.842,0,0,0-3.4,4.357A30.939,30.939,0,0,0,13.8,17.514Zm9.606,11.857H14.287c.36-9.79,4.321-16.007,7.67-19.543A22.905,22.905,0,0,1,32.775,3.323a39.135,39.135,0,0,0-3.346,4.8A44.063,44.063,0,0,0,23.406,29.371Zm2.853,0h0A41.223,41.223,0,0,1,31.817,9.682,34.36,34.36,0,0,1,36.5,3.414c2.6,2.715,9.794,11.5,10.244,25.957Zm35.307,0a38.035,38.035,0,0,0-.8-6.646A1.433,1.433,0,0,0,59.372,21.6a1.426,1.426,0,0,0-1.4,1.725,35.084,35.084,0,0,1,.736,6.047H49.594A44.064,44.064,0,0,0,43.571,8.119a39.124,39.124,0,0,0-3.343-4.793,20.582,20.582,0,0,1,5.285,2.139,24.989,24.989,0,0,1,8.327,7.88,1.426,1.426,0,0,0,2.375-1.578,28.765,28.765,0,0,0-4.316-5.1A27.4,27.4,0,0,0,49.263,4.5c12.53,3.524,20.3,12.5,20.854,24.873Z" transform="translate(0 0)" fill="#147db2"/>
    </g>
  </g>
  <g id="Group_1984" data-name="Group 1984" transform="translate(56.266 16.16)">
    <g id="Group_1983" data-name="Group 1983">
      <path id="Path_16774" data-name="Path 16774" d="M397.376,114.223a1.424,1.424,0,1,0,0,1.092A1.42,1.42,0,0,0,397.376,114.223Z" transform="translate(-394.631 -113.34)"/>
    </g>
  </g>
</svg>
