<svg xmlns="http://www.w3.org/2000/svg" width="66.499" height="73" viewBox="0 0 66.499 73">
  <g id="cross" transform="translate(-0.001 0.001)">
    <path id="Path_16702" data-name="Path 16702" d="M66.178,13.916A1.794,1.794,0,0,0,64.7,12.339c-1.92-.329-3.83-.716-5.675-1.15a1.072,1.072,0,0,0-.49,2.086c1.8.424,3.665.8,5.539,1.13A78.005,78.005,0,0,1,61.763,41.07a46.356,46.356,0,0,1-9.134,17.792A38.133,38.133,0,0,1,33.251,70.845,38.136,38.136,0,0,1,13.873,58.863,46.356,46.356,0,0,1,4.739,41.07,78,78,0,0,1,2.429,14.4C20.5,11.258,30.347,4.521,33.251,2.243c2.06,1.611,8.7,6.278,20.373,9.731a1.072,1.072,0,0,0,.608-2.055C42.478,6.442,36.058,1.751,34.369.4a1.776,1.776,0,0,0-2.237,0C21.966,8.557,5.083,11.776,1.8,12.339A1.793,1.793,0,0,0,.324,13.916,80.237,80.237,0,0,0,2.676,41.651a48.475,48.475,0,0,0,9.569,18.6A40.262,40.262,0,0,0,32.783,72.938a1.8,1.8,0,0,0,.468.062,1.78,1.78,0,0,0,.468-.062A40.257,40.257,0,0,0,54.256,60.256a48.476,48.476,0,0,0,9.569-18.6,80.267,80.267,0,0,0,2.353-27.735Zm0,0" transform="translate(0 0)"/>
    <path id="Path_16703" data-name="Path 16703" d="M67.05,109.079a33,33,0,0,0,10.087,4.577,1.638,1.638,0,0,0,.851,0A31.275,31.275,0,0,0,93.941,103.8a37.6,37.6,0,0,0,7.426-14.434,62.122,62.122,0,0,0,1.822-21.47,1.628,1.628,0,0,0-1.342-1.432c-14.357-2.461-21.9-8.058-23.267-9.156a1.614,1.614,0,0,0-2.032,0C68.759,63.564,55.8,66.034,53.28,66.467A1.629,1.629,0,0,0,51.938,67.9a62.852,62.852,0,0,0,.493,15.342c1.5,9.573,5.09,17.173,10.656,22.59a1.071,1.071,0,1,0,1.495-1.535c-5.226-5.087-8.6-12.283-10.034-21.387a61.091,61.091,0,0,1-.516-14.4c13.573-2.4,21.113-7.411,23.532-9.273,2.419,1.862,9.959,6.877,23.531,9.273A59.889,59.889,0,0,1,99.3,88.788a35.488,35.488,0,0,1-6.991,13.621,29.139,29.139,0,0,1-14.75,9.141,30.794,30.794,0,0,1-9.3-4.24,1.071,1.071,0,0,0-1.211,1.768Zm0,0" transform="translate(-44.312 -48.832)"/>
    <path id="Path_16704" data-name="Path 16704" d="M154.816,159.254h-9.145a1.9,1.9,0,0,0-1.9,1.9v5.431h-5.431a1.9,1.9,0,0,0-1.9,1.9v9.145a1.9,1.9,0,0,0,1.9,1.9h5.431v5.431a1.9,1.9,0,0,0,1.9,1.9h9.145a1.9,1.9,0,0,0,1.9-1.9v-5.431h5.431a1.9,1.9,0,0,0,1.9-1.9v-9.144a1.9,1.9,0,0,0-1.9-1.9h-5.431V161.15A1.9,1.9,0,0,0,154.816,159.254Zm7.08,9.47v8.651h-5.431a1.9,1.9,0,0,0-1.9,1.9V184.7h-8.652v-5.431a1.9,1.9,0,0,0-1.9-1.9h-5.431v-8.651h5.431a1.9,1.9,0,0,0,1.9-1.9V161.4h8.652v5.431a1.9,1.9,0,0,0,1.9,1.9Zm0,0" transform="translate(-116.993 -136.548)" fill="#147db2"/>
  </g>
</svg>
