<svg id="hospital_3_" data-name="hospital (3)" xmlns="http://www.w3.org/2000/svg" width="73" height="73" viewBox="0 0 73 73">
  <path id="Path_16713" data-name="Path 16713" d="M184.546,50.495H179.09V45.039a1.165,1.165,0,0,0-1.165-1.165h-6.639a1.165,1.165,0,0,0-1.165,1.165v5.456h-5.456A1.165,1.165,0,0,0,163.5,51.66V58.3a1.165,1.165,0,0,0,1.165,1.165h5.456V64.92a1.165,1.165,0,0,0,1.165,1.165h6.639a1.165,1.165,0,0,0,1.165-1.165V59.464h5.456a1.165,1.165,0,0,0,1.165-1.165V51.66A1.165,1.165,0,0,0,184.546,50.495Zm-1.165,6.639h-5.456A1.165,1.165,0,0,0,176.76,58.3v5.456h-4.309V58.3a1.165,1.165,0,0,0-1.165-1.165H165.83V52.825h5.456a1.165,1.165,0,0,0,1.165-1.165V46.2h4.309V51.66a1.165,1.165,0,0,0,1.165,1.165h5.456Z" transform="translate(-138.105 -37.06)" fill="#147db2"/>
  <path id="Path_16714" data-name="Path 16714" d="M396.352,372.446a1.165,1.165,0,0,0,1.165-1.165v-5.273a1.165,1.165,0,0,0-2.33,0v5.273A1.165,1.165,0,0,0,396.352,372.446Z" transform="translate(-333.807 -308.176)"/>
  <path id="Path_16715" data-name="Path 16715" d="M396.352,282.289a1.165,1.165,0,0,0,1.165-1.165v-5.273a1.165,1.165,0,0,0-2.33,0v5.273A1.165,1.165,0,0,0,396.352,282.289Z" transform="translate(-333.807 -232.022)"/>
  <path id="Path_16716" data-name="Path 16716" d="M396.352,192.132a1.165,1.165,0,0,0,1.165-1.165v-5.273a1.165,1.165,0,0,0-2.33,0v5.273A1.165,1.165,0,0,0,396.352,192.132Z" transform="translate(-333.807 -155.868)"/>
  <path id="Path_16717" data-name="Path 16717" d="M60.978,364.843a1.165,1.165,0,0,0-1.165,1.165v5.273a1.165,1.165,0,0,0,2.33,0v-5.273A1.165,1.165,0,0,0,60.978,364.843Z" transform="translate(-50.523 -308.176)"/>
  <path id="Path_16718" data-name="Path 16718" d="M60.978,274.686a1.165,1.165,0,0,0-1.165,1.165v5.273a1.165,1.165,0,0,0,2.33,0v-5.273A1.165,1.165,0,0,0,60.978,274.686Z" transform="translate(-50.523 -232.022)"/>
  <path id="Path_16719" data-name="Path 16719" d="M60.978,184.528a1.165,1.165,0,0,0-1.165,1.165v5.273a1.165,1.165,0,0,0,2.33,0v-5.273A1.165,1.165,0,0,0,60.978,184.528Z" transform="translate(-50.523 -155.867)"/>
  <path id="Path_16720" data-name="Path 16720" d="M71.835,19.931H54.42V2.33h.388a1.165,1.165,0,1,0,0-2.33H18.192a1.165,1.165,0,1,0,0,2.33h.388v17.6H1.165A1.165,1.165,0,0,0,0,21.1v50.74A1.165,1.165,0,0,0,1.165,73h70.67A1.165,1.165,0,0,0,73,71.835V21.1A1.165,1.165,0,0,0,71.835,19.931ZM2.33,22.26H18.58V70.67H2.33ZM45.276,48.588V70.67H37.665V48.588ZM35.335,70.67H27.724V48.588h7.611Zm35.335,0H54.42V30.415a1.165,1.165,0,1,0-2.33,0V70.67H47.605V47.423a1.165,1.165,0,0,0-1.165-1.165H26.56a1.165,1.165,0,0,0-1.165,1.165V70.67H20.91V2.33H52.09V25.755a1.165,1.165,0,0,0,2.33,0V22.26H70.67Z"/>
</svg>
