<svg xmlns="http://www.w3.org/2000/svg" width="73.932" height="73.933" viewBox="0 0 73.932 73.933">
  <g id="surface1" transform="translate(0 0.001)">
    <path id="Path_16783" data-name="Path 16783" d="M72.7,99.738H68.92L66.539,65.152A1.233,1.233,0,0,0,65.306,64H57.913a1.233,1.233,0,0,0-1.232,1.148L54.3,99.738H51.753V92.345a1.232,1.232,0,0,0-2-.962L39.43,99.638V92.345a1.232,1.232,0,0,0-2-.962l-10.32,8.256V92.345a1.232,1.232,0,0,0-2-.962l-10.32,8.256V92.345a1.233,1.233,0,0,0-1.867-1.056L.6,98.682A1.232,1.232,0,0,0,0,99.738v29.573a1.232,1.232,0,0,0,1.232,1.232H72.7a1.232,1.232,0,0,0,1.232-1.232V100.97A1.232,1.232,0,0,0,72.7,99.738ZM59.064,66.468h5.092l2.3,33.27H56.769Zm-17.17,61.61V113.292h7.393v14.787Zm29.573,0H51.753V112.06a1.233,1.233,0,0,0-1.233-1.232H40.662a1.232,1.232,0,0,0-1.232,1.232v16.019H2.464V100.435l9.858-5.914V102.2a1.232,1.232,0,0,0,2,.963l10.32-8.256V102.2a1.232,1.232,0,0,0,2,.963l10.32-8.256V102.2a1.232,1.232,0,0,0,2,.963l10.32-8.256v6.061A1.232,1.232,0,0,0,50.52,102.2H71.467v25.876Zm0,0" transform="translate(0 -56.611)"/>
    <path id="Path_16784" data-name="Path 16784" d="M353.185,2.464a4.575,4.575,0,0,1,1.2.926,4.311,4.311,0,0,0,2.754,1.538,4.5,4.5,0,0,0,2.9-1.6,5.771,5.771,0,0,1,1.04-.862c.254.011.918.633,1.275.967a4.127,4.127,0,0,0,2.667,1.5,4.811,4.811,0,0,0,3.1-1.7c.3-.283.759-.713.847-.766.662,0,.813.219,1.22.806a3.116,3.116,0,0,0,2.723,1.658,1.232,1.232,0,0,0,0-2.464c-.247,0-.295-.017-.695-.6A3.641,3.641,0,0,0,368.966,0a3.957,3.957,0,0,0-2.536,1.435c-.409.386-1.1,1.03-1.355,1.036a5.019,5.019,0,0,1-1.038-.836A4.573,4.573,0,0,0,361.08,0a4.272,4.272,0,0,0-2.725,1.523,5.115,5.115,0,0,1-1.184.942,4.794,4.794,0,0,1-1.109-.875A4.469,4.469,0,0,0,353.193,0a1.232,1.232,0,1,0-.008,2.465Zm0,0" transform="translate(-311.299 0)" fill="#147db2"/>
    <path id="Path_16785" data-name="Path 16785" d="M70.161,490.668H65.232A1.232,1.232,0,0,0,64,491.9v7.393a1.232,1.232,0,0,0,1.232,1.232h4.929a1.232,1.232,0,0,0,1.232-1.232V491.9A1.232,1.232,0,0,0,70.161,490.668Zm-1.233,7.393H66.464v-4.929h2.464Zm0,0" transform="translate(-56.607 -433.988)" fill="#147db2"/>
    <path id="Path_16786" data-name="Path 16786" d="M155.493,490.668h-4.929a1.232,1.232,0,0,0-1.232,1.232v7.393a1.232,1.232,0,0,0,1.232,1.232h4.929a1.232,1.232,0,0,0,1.232-1.232V491.9A1.232,1.232,0,0,0,155.493,490.668Zm-1.233,7.393H151.8v-4.929h2.464Zm0,0" transform="translate(-132.081 -433.988)" fill="#147db2"/>
    <path id="Path_16787" data-name="Path 16787" d="M240.825,490.668H235.9a1.232,1.232,0,0,0-1.232,1.232v7.393a1.232,1.232,0,0,0,1.232,1.232h4.929a1.232,1.232,0,0,0,1.232-1.232V491.9A1.232,1.232,0,0,0,240.825,490.668Zm-1.233,7.393h-2.464v-4.929h2.464Zm0,0" transform="translate(-207.556 -433.988)" fill="#147db2"/>
  </g>
</svg>
