<svg xmlns="http://www.w3.org/2000/svg" width="64.549" height="73.852" viewBox="0 0 64.549 73.852">
  <g id="hurricane" transform="translate(-10.44 -0.54)">
    <path id="Path_16791" data-name="Path 16791" d="M135.645,38.757,117.527,11.4a1.117,1.117,0,0,0-1.862,1.234l17.5,26.422-5.308,3.516L108.394,13.191a1.116,1.116,0,0,0-1.548-.314L77.462,32.341l-3.516-5.308,35.623-23.6L113.2,8.92a1.117,1.117,0,0,0,1.862-1.234l-4.249-6.415a1.117,1.117,0,0,0-1.548-.315L71.782,25.788a1.117,1.117,0,0,0-.314,1.548l4.75,7.17a1.117,1.117,0,0,0,1.548.314l29.384-19.464L126.613,44.74a1.116,1.116,0,0,0,1.548.314l7.17-4.75a1.117,1.117,0,0,0,.314-1.548Zm0,0" transform="translate(-60.841 -0.231)"/>
    <path id="Path_16792" data-name="Path 16792" d="M229.842,298.884a1.117,1.117,0,0,0,1.117-1.117V279.062a1.117,1.117,0,0,0-1.117-1.117H211.136a1.117,1.117,0,0,0-1.117,1.117v18.706a1.117,1.117,0,0,0,1.117,1.117Zm-1.117-2.234h-7.12V280.179h7.12Zm-16.472-16.472h7.119v16.472h-7.119Zm0,0" transform="translate(-179.259 -236.809)" fill="#147db2"/>
    <path id="Path_16793" data-name="Path 16793" d="M143.716,140.857a1.117,1.117,0,0,0-1.579,0l-22.361,22.361a1.116,1.116,0,0,0-.327.79v7.948a1.117,1.117,0,0,0,2.234,0v-7.486l21.244-21.244,21.245,21.244v27.208H121.683V176.422a1.117,1.117,0,0,0-2.234,0V192.8a1.117,1.117,0,0,0,1.117,1.117h44.723a1.117,1.117,0,0,0,1.117-1.117V164.007a1.119,1.119,0,0,0-.327-.79Zm0,0" transform="translate(-101.954 -119.52)"/>
  </g>
</svg>
