<svg xmlns="http://www.w3.org/2000/svg" width="73.11" height="73.109" viewBox="0 0 73.11 73.109">
  <g id="Page-1" transform="translate(0 0)">
    <g id="_019---Home-Insurance" data-name="019---Home-Insurance" transform="translate(0 0)">
      <path id="Shape" d="M72.378,32.473l-4.143-1.814V27.4a2.4,2.4,0,0,0-.946-1.924L34.866.257a1.218,1.218,0,0,0-1.5,0l-11.437,8.9V6.092A2.437,2.437,0,0,0,19.5,3.655H12.185A2.437,2.437,0,0,0,9.748,6.092V18.632L.957,25.466A2.406,2.406,0,0,0,0,27.4v6.665a2.437,2.437,0,0,0,2.437,2.437,2.384,2.384,0,0,0,1.49-.523l3.384-2.632v36.1a3.655,3.655,0,0,0,3.655,3.655H53.614a2.236,2.236,0,0,0,1.307-.423l12.631-9.112A13.415,13.415,0,0,0,73.11,52.72V33.59A1.218,1.218,0,0,0,72.378,32.473ZM12.185,6.092H19.5v4.957l-7.311,5.687ZM2.437,34.069V27.4L9.261,22.1l.018-.009L34.118,2.762,58.958,22.09a.062.062,0,0,1,.028.015L65.8,27.4V29.6L54.1,24.479a1.185,1.185,0,0,0-.7-.057L34.866,10a1.218,1.218,0,0,0-1.5,0ZM9.748,69.454v-38L34.118,12.51,50.811,25.487,34.849,32.473a1.218,1.218,0,0,0-.731,1.116V43.866H25.588a3.655,3.655,0,0,0-3.655,3.655V70.672H10.966A1.218,1.218,0,0,1,9.748,69.454ZM24.37,70.672V47.521A1.218,1.218,0,0,1,25.588,46.3h8.529V52.72a13.415,13.415,0,0,0,5.558,10.854l4.19,3.023v4.075Zm25.144,0H46.3V68.357ZM70.673,52.72A10.977,10.977,0,0,1,66.128,61.6L53.614,70.625,41.1,61.6a10.977,10.977,0,0,1-4.545-8.878V34.386l17.059-7.467,17.059,7.467Z" transform="translate(0 0)"/>
      <path id="Shape-2" data-name="Shape" d="M46.134,24.468l-13.4,5.868A1.218,1.218,0,0,0,32,31.453V47.4a8.529,8.529,0,0,0,3.534,6.9l10.375,7.484a1.218,1.218,0,0,0,1.426,0L57.71,54.3a8.529,8.529,0,0,0,3.534-6.9V31.453a1.218,1.218,0,0,0-.731-1.116l-13.4-5.868A1.219,1.219,0,0,0,46.134,24.468Zm12.672,7.78V47.4a6.083,6.083,0,0,1-2.522,4.924l-9.663,6.971-9.663-6.97A6.093,6.093,0,0,1,34.437,47.4V32.248l12.185-5.333Z" transform="translate(6.992 5.324)"/>
      <path id="Shape-3" data-name="Shape" d="M39.037,42.549a1.218,1.218,0,1,0-1.63,1.811l4.874,4.387a1.219,1.219,0,0,0,.815.313,1.079,1.079,0,0,0,.152-.01,1.219,1.219,0,0,0,.861-.532l9.748-14.622a1.219,1.219,0,0,0-2.028-1.353l-8.966,13.45Z" transform="translate(8.081 6.991)" fill="#147db2"/>
    </g>
  </g>
</svg>
