<svg xmlns="http://www.w3.org/2000/svg" width="111.971" height="74" viewBox="0 0 111.971 74">
  <g id="boat" transform="translate(0 -88)">
    <path id="Path_16777" data-name="Path 16777" d="M111.722,119.822a1.618,1.618,0,0,0-1.369-.755H86.139a22.167,22.167,0,0,0-12.881,4.084L70.23,113.058a8.469,8.469,0,0,0-8.162-6.073h-10.5v-3.668h7.012a3.348,3.348,0,0,0,3.344-3.344V96.522a3.348,3.348,0,0,0-3.344-3.344H51.563v-3.56a1.618,1.618,0,1,0-3.236,0v3.56H41.315a3.348,3.348,0,0,0-3.344,3.344v3.452a3.348,3.348,0,0,0,3.344,3.344h7.012v3.668H30.959a5.076,5.076,0,0,0-5.07,5.07v20.819H1.618A1.618,1.618,0,0,0,.055,134.91l4.854,18.2A11.988,11.988,0,0,0,16.478,162H84.841a12.033,12.033,0,0,0,10.8-6.808l16.17-33.809A1.618,1.618,0,0,0,111.722,119.822ZM41.207,99.974V96.522a.108.108,0,0,1,.108-.108H58.575a.108.108,0,0,1,.108.108v3.452a.108.108,0,0,1-.108.108H41.315A.108.108,0,0,1,41.207,99.974Zm29,24.271H62.026a5.292,5.292,0,0,1-5.286-5.286v-1.726a.108.108,0,0,1,.108-.108H68.072Zm-23.715-7.12a.108.108,0,0,1,.108.108v6.9a.108.108,0,0,1-.108.108H39.481v-7.12Zm-10.248,7.12h-7.12v-7.12h7.12Zm-7.12,3.236H46.493a3.348,3.348,0,0,0,3.344-3.344v-6.9a3.348,3.348,0,0,0-3.344-3.344H29.126v-1.834a1.836,1.836,0,0,1,1.834-1.834H62.068a5.252,5.252,0,0,1,5.032,3.668H56.849a3.348,3.348,0,0,0-3.344,3.344v1.726a8.532,8.532,0,0,0,8.522,8.522h6.449l-5.394,5.394H29.126Zm63.6,26.315a8.781,8.781,0,0,1-7.882,4.968H16.478a8.749,8.749,0,0,1-8.443-6.486L3.724,136.111H63.752a1.617,1.617,0,0,0,1.144-.474l7.741-7.741a18.969,18.969,0,0,1,13.5-5.592h21.647Z" transform="translate(0)"/>
    <path id="Path_16778" data-name="Path 16778" d="M109.07,336a5.07,5.07,0,1,0,5.07,5.07A5.076,5.076,0,0,0,109.07,336Zm0,6.9a1.834,1.834,0,1,1,1.834-1.834A1.836,1.836,0,0,1,109.07,342.9Z" transform="translate(-81.562 -194.496)" fill="#147db2"/>
    <path id="Path_16779" data-name="Path 16779" d="M253.07,336a5.07,5.07,0,1,0,5.07,5.07A5.076,5.076,0,0,0,253.07,336Zm0,6.9a1.834,1.834,0,1,1,1.834-1.834A1.836,1.836,0,0,1,253.07,342.9Z" transform="translate(-194.495 -194.496)" fill="#147db2"/>
    <path id="Path_16780" data-name="Path 16780" d="M181.07,336a5.07,5.07,0,1,0,5.07,5.07A5.076,5.076,0,0,0,181.07,336Zm0,6.9a1.834,1.834,0,1,1,1.834-1.834A1.836,1.836,0,0,1,181.07,342.9Z" transform="translate(-138.029 -194.496)" fill="#147db2"/>
    <path id="Path_16781" data-name="Path 16781" d="M401.1,325.806a1.617,1.617,0,0,0,2.158-.762l6.864-14.353a1.618,1.618,0,1,0-2.919-1.4l-6.864,14.353A1.618,1.618,0,0,0,401.1,325.806Z" transform="translate(-313.845 -172.831)"/>
    <path id="Path_16782" data-name="Path 16782" d="M446.49,270.529a1.617,1.617,0,0,0,2.158-.762l1.651-3.452a1.618,1.618,0,1,0-2.919-1.4l-1.651,3.452A1.618,1.618,0,0,0,446.49,270.529Z" transform="translate(-349.441 -138.029)"/>
  </g>
</svg>
