<svg xmlns="http://www.w3.org/2000/svg" width="116.533" height="53.336" viewBox="0 0 116.533 53.336">
  <g id="car_8_" data-name="car (8)" transform="translate(-0.001 -138.833)">
    <path id="Path_16660" data-name="Path 16660" d="M368.111,287.834a9.711,9.711,0,1,0,9.711,9.711A9.715,9.715,0,0,0,368.111,287.834Zm0,15.538a5.827,5.827,0,1,1,5.827-5.827A5.844,5.844,0,0,1,368.111,303.372Z" transform="translate(-276.826 -115.088)" fill="#147db2"/>
    <path id="Path_16661" data-name="Path 16661" d="M77.977,287.834a9.711,9.711,0,1,0,9.711,9.711A9.715,9.715,0,0,0,77.977,287.834Zm0,15.538a5.827,5.827,0,1,1,5.827-5.827A5.844,5.844,0,0,1,77.977,303.372Z" transform="translate(-52.728 -115.088)" fill="#147db2"/>
    <path id="Path_16662" data-name="Path 16662" d="M114.592,172.746V161.093a1.969,1.969,0,0,0-1.321-1.845L102.3,155.6c-4.118-6.992-9.789-13.634-22.335-15.829a.071.071,0,0,0-.058-.019c-23.151-3.2-40.534,2.02-51.7,15.518-12.9.194-26.259,4.253-26.259,11.653v5.827A1.948,1.948,0,0,0,0,174.688v7.769A1.948,1.948,0,0,0,1.943,184.4H9.712a1.948,1.948,0,0,0,1.942-1.942,13.6,13.6,0,1,1,27.191,0,1.948,1.948,0,0,0,1.942,1.942h34.96a1.948,1.948,0,0,0,1.942-1.942,13.6,13.6,0,0,1,27.191,0,1.948,1.948,0,0,0,1.942,1.942h7.769a1.948,1.948,0,0,0,1.942-1.942v-7.769A1.948,1.948,0,0,0,114.592,172.746ZM89.44,147.225a25.892,25.892,0,0,1,8.06,8.041H89.362Zm-23.4-4.506a86.91,86.91,0,0,1,13.285.874,31.006,31.006,0,0,1,6.254,1.729l-.1,9.944H66.036V142.719Zm-3.884.155v12.391H33.446C40.652,147.846,50.149,143.729,62.152,142.874Zm50.5,37.64h-4a17.471,17.471,0,0,0-34.727,0H42.613a17.471,17.471,0,0,0-34.727,0h-4V176.63a1.948,1.948,0,0,0,1.942-1.942v-5.827H7.77a1.942,1.942,0,0,0,0-3.884H6.76c2.622-2.855,10.663-5.827,22.374-5.827h71.552l10.022,3.341v2.486h-1.942a1.942,1.942,0,0,0,0,3.884h1.942v5.827a1.948,1.948,0,0,0,1.942,1.942Z" transform="translate(0 0)"/>
    <g id="Group_1890" data-name="Group 1890" transform="translate(35.662 142.711)">
      <path id="Path_16667" data-name="Path 16667" d="M392.8,176l-.048,4.99h4.2A29.982,29.982,0,0,0,392.8,176Z" transform="translate(-339.017 -171.422)" fill="#fff"/>
      <path id="Path_16668" data-name="Path 16668" d="M290.133,155.882v9.563h17.072l.076-7.765c.827.247,1.639.5,2.391.8a31.009,31.009,0,0,0-6.254-1.729A86.911,86.911,0,0,0,290.133,155.882Z" transform="translate(-259.759 -155.874)" fill="#fff"/>
      <path id="Path_16669" data-name="Path 16669" d="M157.739,166H180.8v-9.152c.789-.087,1.558-.2,2.37-.256-10.82.771-19.585,4.217-26.49,10.319C157.032,166.6,157.38,166.3,157.739,166Z" transform="translate(-156.681 -156.429)" fill="#fff"/>
    </g>
    <g id="Group_1891" data-name="Group 1891" transform="translate(33.446 142.874)">
      <path id="Path_16670" data-name="Path 16670" d="M392.648,197.927l-.029,2.983Z" transform="translate(-336.702 -188.519)" fill="#f4f4f4"/>
      <path id="Path_16671" data-name="Path 16671" d="M392.96,175.774h0v0Z" transform="translate(-336.965 -171.355)" fill="#f4f4f4"/>
      <path id="Path_16672" data-name="Path 16672" d="M401.02,183.747a22.567,22.567,0,0,0-8.06-8.041A25.892,25.892,0,0,1,401.02,183.747Z" transform="translate(-336.965 -171.355)" fill="#f4f4f4"/>
      <path id="Path_16673" data-name="Path 16673" d="M392.7,175.706v.068a29.874,29.874,0,0,1,4.156,4.99h-4.2l-.029,2.983h8.138A25.891,25.891,0,0,0,392.7,175.706Z" transform="translate(-336.701 -171.355)" fill="#f4f4f4"/>
      <path id="Path_16674" data-name="Path 16674" d="M307.205,171.575H290.133v2.983h19.442l.1-9.944c-.752-.3-1.563-.557-2.391-.8Z" transform="translate(-257.542 -162.167)" fill="#f4f4f4"/>
      <path id="Path_16675" data-name="Path 16675" d="M146.944,204c.711-.732,1.461-1.406,2.216-2.072C148.4,202.589,147.655,203.269,146.944,204Z" transform="translate(-146.944 -191.61)" fill="#f4f4f4"/>
      <path id="Path_16676" data-name="Path 16676" d="M173.28,166H150.218c-.359.3-.707.6-1.059.911-.755.668-1.507,1.342-2.216,2.072h28.706V156.591c-.81.058-1.581.169-2.37.256V166Z" transform="translate(-146.943 -156.591)" fill="#f4f4f4"/>
    </g>
  </g>
</svg>
