<svg xmlns="http://www.w3.org/2000/svg" width="89.569" height="81.625" viewBox="0 0 89.569 81.625">
  <g id="Group_1848" data-name="Group 1848" transform="translate(-49.431 -905.673)">
    <line id="Line_125" data-name="Line 125" y1="5" x2="16" transform="translate(62.5 969.5)" fill="none" stroke="#147db2" stroke-linecap="round" stroke-width="3"/>
    <path id="Subtraction_6" data-name="Subtraction 6" d="M12778.643-3343.856h-23.325a2.948,2.948,0,0,1-1.646-.5l-3.5-2.331-1.97-2.956-3.354-7.552h-2.621a5.877,5.877,0,0,1-1.845-.3l-7.206-2.4a2.993,2.993,0,0,1-2.02-2.816v-.636l-5.65-.948a3.884,3.884,0,0,1-2.426-1.451,3.872,3.872,0,0,1-.8-2.709,3.883,3.883,0,0,1,1.239-2.539,3.888,3.888,0,0,1,2.631-1.032h7.753c.2,0,.4.016.592.039l4.233.649a5.792,5.792,0,0,1-.511-7.04l.954-1.482,10.579-16.137a4.447,4.447,0,0,1,3.108-1.967,4.5,4.5,0,0,1,.6-.041,4.444,4.444,0,0,1,2.922,1.092l11.572,10.078h4.52a4.721,4.721,0,0,1,2.941,1.045l.435-.257a5.906,5.906,0,0,1,3.049-.85,5.933,5.933,0,0,1,4.736,2.373l.646.865a12.919,12.919,0,0,1,6.14-1.694c2.918,0,4.445,4.1,4.445,8.149,0,3.2-.908,6-2.369,7.316.06.106.11.21.159.31l.018.035q.032.067.064.131a26.182,26.182,0,0,1,4.382-.37,26.18,26.18,0,0,1,7.888,1.215,4.531,4.531,0,0,1,2.758,2.462,4.454,4.454,0,0,1-.749,4.758,4.446,4.446,0,0,1-3.315,1.485,4.444,4.444,0,0,1-1.326-.2,16.974,16.974,0,0,0-5.278-.839,17.027,17.027,0,0,0-16.981,15.677A1.489,1.489,0,0,1,12778.643-3343.856Zm18.491-22.967a22.972,22.972,0,0,0-12.336,3.586,22.955,22.955,0,0,0-10.476,16.417h2.992a19.963,19.963,0,0,1,9.271-14.057,19.994,19.994,0,0,1,10.516-2.986,19.973,19.973,0,0,1,6.2.986,1.465,1.465,0,0,0,.421.062,1.46,1.46,0,0,0,1.341-.878,1.466,1.466,0,0,0,0-1.2,1.578,1.578,0,0,0-.958-.849,22.968,22.968,0,0,0-6.972-1.082Zm-49.036,9.63,3.508,7.9,3.706,2.475h16.047a25.942,25.942,0,0,1,18.409-21.894c-.177-.333-.371-.666-.595-1.016a12.971,12.971,0,0,0-2.16-2.559,10.034,10.034,0,0,0-6.849-2.688h-.1a13.1,13.1,0,0,0-1.778.148c-.512.077-1.1.193-1.613.3l2.521,2.52a2.956,2.956,0,0,1,.867,2.1v1.508a3,3,0,0,1-1.446,2.542l-6.1,3.665-1.366,8.213v.019a4.456,4.456,0,0,1-4.439,4.186c-.06,0-.12,0-.18,0a4.43,4.43,0,0,1-3.062-1.4,4.421,4.421,0,0,1-1.2-3.143,4.425,4.425,0,0,1,1.338-3.08,4.427,4.427,0,0,1,3.109-1.266h.018a4.383,4.383,0,0,1,2.118.559l.444-2.713-8.538,3.2a5.334,5.334,0,0,1-1.442,3.242,5.33,5.33,0,0,1-3.161,1.612,4.647,4.647,0,0,1-.521.026h-.032a5.128,5.128,0,0,1-3.377-1.267,5.12,5.12,0,0,1-1.708-3.178Zm18.629,1.482a1.484,1.484,0,0,0-1.482,1.482,1.484,1.484,0,0,0,1.482,1.482,1.484,1.484,0,0,0,1.481-1.482A1.5,1.5,0,0,0,12766.727-3355.711Zm-13.251-39.326a1.488,1.488,0,0,0-.209.013,1.463,1.463,0,0,0-1.038.656l-11.521,17.606-.007.01a2.973,2.973,0,0,0-.282,2.639,2.986,2.986,0,0,0,1.947,1.806l8.876,2.569a2.955,2.955,0,0,1,1.1.643,1.474,1.474,0,0,1,.425.411,2.979,2.979,0,0,1,.614,1.791v8.965a2.219,2.219,0,0,0,.739,1.649,2.189,2.189,0,0,0,1.485.575,2.23,2.23,0,0,0,.237-.013,2.381,2.381,0,0,0,1.99-2.427v-12.08a2.97,2.97,0,0,0-2.138-2.854l-5.263-1.53a1.481,1.481,0,0,1-.971-.91,1.491,1.491,0,0,1,.147-1.324l5.967-9.1-.405-.36a1.484,1.484,0,0,1-.492-1.417,1.482,1.482,0,0,1,1-1.122,1.472,1.472,0,0,1,.457-.073,1.471,1.471,0,0,1,1.006.4l7.313,6.49a4.461,4.461,0,0,0,2.951,1.125h5.246a1.569,1.569,0,0,0,.592-.125,1.2,1.2,0,0,0,.424-.286,1.473,1.473,0,0,0,.467-1.209,1.6,1.6,0,0,0-1.588-1.345h-4.591a2.942,2.942,0,0,1-1.945-.729l-11.568-10.078A1.462,1.462,0,0,0,12753.476-3395.038Zm-27.326,25.989a.927.927,0,0,0-.913.849.935.935,0,0,0,.756.993l5.645.932a2.951,2.951,0,0,1,2.484,2.932v.636l7.2,2.4a2.966,2.966,0,0,0,.938.161h8.162v-6.374l-16.3-2.517h0l-.029,0h-.015c-.038,0-.107-.01-.175-.01Zm47.157-4.662c-2.5.694-5.484,1.664-8.869,2.884-1.331.476-2.646.975-3.643,1.357v8.653l9.728-3.645,6.573-3.947v-1.508l-3.789-3.793Zm17.085-8.675c-.4.177-1.44,2.04-1.44,5.185a11.436,11.436,0,0,0,.4,3.079,16,16,0,0,1,1.482,1.675,9.123,9.123,0,0,0,1.08-4.751c0-3.258-1.079-5.029-1.508-5.185Zm-32.576-1.579h0l-4.629,7.072,3.324.971a5.9,5.9,0,0,1,3.818,3.462l.206-.078.029-.011c.942-.357,1.917-.727,2.876-1.068,3.812-1.366,7.082-2.417,9.721-3.125a.234.234,0,0,1,.035-.009.22.22,0,0,0,.046-.013c1.525-.4,2.885-.708,4.04-.9a28.758,28.758,0,0,1,4.52-4.369l-.53-.714a2.968,2.968,0,0,0-2.365-1.183,2.944,2.944,0,0,0-1.527.428l-.4.235a3.562,3.562,0,0,1,.09.492,4.359,4.359,0,0,1-1.3,3.539,4.2,4.2,0,0,1-1.395.942,4.411,4.411,0,0,1-1.727.35h-5.26a7.368,7.368,0,0,1-4.907-1.871l-4.668-4.15Zm28.789,2.479a18.437,18.437,0,0,0-5.1,3.626,12.582,12.582,0,0,1,4.525,1.318c0-.092-.012-.181-.021-.28-.011-.115-.023-.245-.023-.379A14.535,14.535,0,0,1,12786.6-3381.485Z" transform="translate(-12671.438 4317.822)"/>
    <g id="Group_1846" data-name="Group 1846" transform="translate(112.326 960.633)">
      <path id="Path_16640" data-name="Path 16640" d="M404.615,353.641a5.928,5.928,0,1,0,5.928,5.928A5.927,5.927,0,0,0,404.615,353.641Zm0,8.891a2.964,2.964,0,1,1,2.964-2.963A2.964,2.964,0,0,1,404.615,362.532Zm0,0" transform="translate(-391.279 -346.236)" fill="#147db2"/>
      <path id="Path_16641" data-name="Path 16641" d="M381.914,323.549h-.1a11.8,11.8,0,0,0-.827-3.112l.081-.048a1.482,1.482,0,1,0-1.482-2.565l-.1.054a11.906,11.906,0,0,0-2.273-2.273l.055-.1a1.482,1.482,0,0,0-2.567-1.481l-.048.08a11.8,11.8,0,0,0-3.112-.826v-.1a1.482,1.482,0,0,0-2.963,0v.1a11.815,11.815,0,0,0-3.112.826l-.047-.08a1.482,1.482,0,1,0-2.567,1.481l.055.1a11.929,11.929,0,0,0-2.274,2.273l-.1-.055a1.482,1.482,0,1,0-1.482,2.565l.081.048a11.8,11.8,0,0,0-.827,3.112H358.2a1.482,1.482,0,0,0,0,2.964h.1a11.759,11.759,0,0,0,.827,3.112l-.082.046a1.482,1.482,0,0,0,.741,2.766,1.458,1.458,0,0,0,.741-.2l.1-.055a11.917,11.917,0,0,0,2.273,2.275l-.055.1a1.482,1.482,0,1,0,2.567,1.482l.048-.081a11.724,11.724,0,0,0,3.112.826v.1a1.482,1.482,0,0,0,2.964,0v-.1a11.724,11.724,0,0,0,3.112-.826l.048.081a1.482,1.482,0,1,0,2.566-1.482l-.054-.1a11.936,11.936,0,0,0,2.273-2.275l.1.055a1.454,1.454,0,0,0,.741.2,1.482,1.482,0,0,0,.741-2.766l-.081-.046a11.786,11.786,0,0,0,.827-3.112h.108a1.482,1.482,0,1,0,0-2.964Zm-11.855,10.373a8.891,8.891,0,1,1,8.891-8.891A8.891,8.891,0,0,1,370.059,333.922Zm0,0" transform="translate(-356.723 -311.699)" fill="#147db2"/>
    </g>
    <g id="Group_1847" data-name="Group 1847" transform="translate(49.431 960.633)">
      <path id="Path_16640-2" data-name="Path 16640" d="M404.615,353.641a5.928,5.928,0,1,0,5.928,5.928A5.927,5.927,0,0,0,404.615,353.641Zm0,8.891a2.964,2.964,0,1,1,2.964-2.963A2.964,2.964,0,0,1,404.615,362.532Zm0,0" transform="translate(-391.279 -346.236)" fill="#147db2"/>
      <path id="Path_16641-2" data-name="Path 16641" d="M381.914,323.549h-.1a11.8,11.8,0,0,0-.827-3.112l.081-.048a1.482,1.482,0,1,0-1.482-2.565l-.1.054a11.906,11.906,0,0,0-2.273-2.273l.055-.1a1.482,1.482,0,0,0-2.567-1.481l-.048.08a11.8,11.8,0,0,0-3.112-.826v-.1a1.482,1.482,0,0,0-2.963,0v.1a11.815,11.815,0,0,0-3.112.826l-.047-.08a1.482,1.482,0,1,0-2.567,1.481l.055.1a11.929,11.929,0,0,0-2.274,2.273l-.1-.055a1.482,1.482,0,1,0-1.482,2.565l.081.048a11.8,11.8,0,0,0-.827,3.112H358.2a1.482,1.482,0,0,0,0,2.964h.1a11.759,11.759,0,0,0,.827,3.112l-.082.046a1.482,1.482,0,0,0,.741,2.766,1.458,1.458,0,0,0,.741-.2l.1-.055a11.917,11.917,0,0,0,2.273,2.275l-.055.1a1.482,1.482,0,1,0,2.567,1.482l.048-.081a11.724,11.724,0,0,0,3.112.826v.1a1.482,1.482,0,0,0,2.964,0v-.1a11.724,11.724,0,0,0,3.112-.826l.048.081a1.482,1.482,0,1,0,2.566-1.482l-.054-.1a11.936,11.936,0,0,0,2.273-2.275l.1.055a1.454,1.454,0,0,0,.741.2,1.482,1.482,0,0,0,.741-2.766l-.081-.046a11.786,11.786,0,0,0,.827-3.112h.108a1.482,1.482,0,1,0,0-2.964Zm-11.855,10.373a8.891,8.891,0,1,1,8.891-8.891A8.891,8.891,0,0,1,370.059,333.922Zm0,0" transform="translate(-356.723 -311.699)" fill="#147db2"/>
    </g>
    <path id="Path_16642" data-name="Path 16642" d="M209.869,3.926A9.073,9.073,0,0,0,202.644.4c-3.8.223-6.5,3.446-7.5,4.835a2.968,2.968,0,0,0-.521,1.556l-.148,3.161a2.975,2.975,0,0,0,.766,2.125l2.321,2.537,4.416,4.839a2.974,2.974,0,0,0,2.2.97,2.9,2.9,0,0,0,1.685-.538c2.246-1.561,6.083-4.815,6.561-9.07a.947.947,0,0,1,.009-.159v-.046a8.648,8.648,0,0,0-2.555-6.688ZM207.879,14l-2.414-3.536a.437.437,0,0,1,.552-.639l3.248,1.571a8.085,8.085,0,0,1-1.385,2.608Zm-3.717,3.448-4.413-4.832-.08-.088-2.233-2.441.123-3.14c.577-.8,2.657-3.437,5.258-3.589h.234a6.541,6.541,0,0,1,4.631,2.57,7.531,7.531,0,0,1,1.379,2.074l-1.754-.849a3.4,3.4,0,0,0-4.3,4.976l2.767,4.059a20.357,20.357,0,0,1-1.614,1.263Zm0,0" transform="translate(-110.788 905.271)"/>
  </g>
</svg>
