<svg xmlns="http://www.w3.org/2000/svg" width="73.07" height="73.11" viewBox="0 0 73.07 73.11">
  <g id="Group_1900" data-name="Group 1900" transform="translate(-589 -517.89)">
    <g id="Page-1" transform="translate(588.983 517.89)">
      <g id="_006---Home-Insurance" data-name="006---Home-Insurance" transform="translate(0.016 0)">
        <path id="Shape" d="M5.124,42.2a12.971,12.971,0,0,0,2.645,3.819l7.511,7.51a2.424,2.424,0,0,0-.662,1.658v9.748a2.437,2.437,0,0,0,2.437,2.437h13.4A2.437,2.437,0,0,0,32.9,64.938V55.19a2.437,2.437,0,0,0-2.437-2.437V50.486a12.774,12.774,0,0,0-2.67-7.981,8.774,8.774,0,0,0-4.062-2.962,24.1,24.1,0,0,1-6.975-4.477,5.622,5.622,0,0,0-6.668-.366l-2.63-6.139A3.885,3.885,0,0,0,.347,31.7ZM30.459,64.938h-13.4V55.19h13.4ZM2.666,29.307a1.427,1.427,0,0,1,1.218-.664,1.445,1.445,0,0,1,1.332.879l2.725,6.357a14.41,14.41,0,0,0,3.072,4.539l5.567,5.567A1.218,1.218,0,1,0,18.3,44.262l-5.567-5.567a12.014,12.014,0,0,1-1.5-1.828,3.168,3.168,0,0,1,3.948.066,25.964,25.964,0,0,0,7.773,4.923,6.379,6.379,0,0,1,2.924,2.173,10.333,10.333,0,0,1,2.142,6.458v2.268H17.946L9.492,44.3a10.553,10.553,0,0,1-2.151-3.1l-4.776-10.5A1.431,1.431,0,0,1,2.666,29.307Z" transform="translate(-0.016 5.734)"/>
        <path id="Shape-2" data-name="Shape" d="M22.437,53H21.218a1.218,1.218,0,1,0,0,2.437h1.218a1.218,1.218,0,1,0,0-2.437Z" transform="translate(4.35 11.58)" fill="#147db2"/>
        <path id="Shape-3" data-name="Shape" d="M42.169,39.542A8.774,8.774,0,0,0,38.107,42.5a12.774,12.774,0,0,0-2.67,7.981v2.268A2.437,2.437,0,0,0,33,55.19v9.748a2.437,2.437,0,0,0,2.437,2.437h13.4a2.437,2.437,0,0,0,2.437-2.437V55.19a2.424,2.424,0,0,0-.662-1.658l7.511-7.51A12.981,12.981,0,0,0,60.772,42.2L65.548,31.7a3.885,3.885,0,0,0-7.107-3.138L55.811,34.7a5.618,5.618,0,0,0-6.666.366A24.127,24.127,0,0,1,42.169,39.542Zm6.671,25.4h-13.4V55.19h13.4Zm5.82-28.072a11.981,11.981,0,0,1-1.5,1.828l-5.567,5.567a1.218,1.218,0,0,0,1.723,1.723l5.567-5.567a14.411,14.411,0,0,0,3.072-4.539l2.726-6.358a1.449,1.449,0,1,1,2.65,1.17L58.554,41.2A10.552,10.552,0,0,1,56.4,44.3L47.95,52.753H37.874V50.486a10.333,10.333,0,0,1,2.137-6.458,6.379,6.379,0,0,1,2.924-2.173,25.977,25.977,0,0,0,7.774-4.923A3.168,3.168,0,0,1,54.66,36.867Z" transform="translate(7.19 5.734)"/>
        <path id="Shape-4" data-name="Shape" d="M39.437,53H38.218a1.218,1.218,0,1,0,0,2.437h1.218a1.218,1.218,0,1,0,0-2.437Z" transform="translate(8.064 11.58)" fill="#147db2"/>
        <path id="Shape-5" data-name="Shape" d="M13.674,23.03a1.219,1.219,0,0,0,1.276-.122l1.706-1.279V38.992a2.437,2.437,0,0,0,2.437,2.437H48.336a2.437,2.437,0,0,0,2.437-2.437V21.628l1.706,1.279a1.219,1.219,0,0,0,1.95-.975V15.84a1.219,1.219,0,0,0-.487-.975L34.445.244a1.218,1.218,0,0,0-1.462,0L23.966,7.006V4.874a2.437,2.437,0,0,0-2.437-2.437H19.092a2.437,2.437,0,0,0-2.437,2.437V12.49l-3.168,2.376A1.219,1.219,0,0,0,13,15.84v6.092A1.218,1.218,0,0,0,13.674,23.03ZM48.336,38.992c-6.134.137-7.584.137-29.244,0V19.8L33.714,8.834,48.336,19.8ZM19.092,4.874h2.437v3.96l-2.437,1.828ZM15.437,16.45,33.714,2.742,51.992,16.45V19.5L34.445,6.336a1.218,1.218,0,0,0-1.462,0L15.437,19.5Z" transform="translate(2.82 0)"/>
      </g>
    </g>
    <path id="Subtraction_26" data-name="Subtraction 26" d="M13873-3399h-2v-16h13v16h-2v-14h-9v14Z" transform="translate(-13252 3956)" fill="#147db2"/>
  </g>
</svg>
