<svg xmlns="http://www.w3.org/2000/svg" width="66.697" height="72.371" viewBox="0 0 66.697 72.371">
  <g id="XMLID_993_" transform="translate(-18.035)">
    <path id="XMLID_1032_" d="M167.471,96.441a1.142,1.142,0,0,0-1.012.093l-3.8,2.341c-.5-4.124-2.379-13.86-9.164-18.165a1.142,1.142,0,0,0-1.458.2,62.409,62.409,0,0,0-6.613,9.154c-4.327,7.267-6.264,13.874-5.757,19.636.547,6.223,3.53,10.9,8.4,13.158a14.692,14.692,0,0,0,6.2,1.351,16.174,16.174,0,0,0,9.279-2.983c3.568-2.511,8.91-8.971,4.609-24.03A1.141,1.141,0,0,0,167.471,96.441Zm-11.043,14.65a1.142,1.142,0,0,0,1.282-.166l3.871-3.465c1.683,7.608-.966,10.852-2.792,12.138a8.6,8.6,0,0,1-8.417.917c-2.6-1.208-4.2-3.768-4.5-7.207-.6-6.846,5.068-14.469,7.072-16.927,3.178,3.07,3.173,10.694,2.871,13.572A1.142,1.142,0,0,0,156.429,111.09Zm5.844,8.235c1.831-2.51,3.165-6.881,1.049-14.287a1.142,1.142,0,0,0-1.86-.537l-3.242,2.9c.026-3.922-.569-10.862-4.827-13.564a1.142,1.142,0,0,0-1.458.2c-.374.413-9.153,10.214-8.339,19.471a13.7,13.7,0,0,0,.607,3.047,15.437,15.437,0,0,1-2.258-7.059c-.965-10.977,8.526-23.172,11.136-26.3,6.785,5.184,7.467,17.539,7.473,17.667a1.142,1.142,0,0,0,1.74.918l4.061-2.5C169.53,111.872,165.232,117.223,162.273,119.326Z" transform="translate(-102.431 -67.861)" fill="#147db2"/>
    <path id="XMLID_1434_" d="M83.59,16.826c-6.723,0-14.574-3.139-14.574-11.987a1.142,1.142,0,0,0-.581-.995C65.142,1.986,58.933,0,51.383,0S37.625,1.986,34.331,3.845a1.142,1.142,0,0,0-.581.995c0,8.847-7.851,11.987-14.574,11.987a1.142,1.142,0,0,0-1.142,1.142,63.07,63.07,0,0,0,5.129,25.575A57.383,57.383,0,0,0,34.459,60.319,54.728,54.728,0,0,0,50.943,72.283a1.142,1.142,0,0,0,.893-.005A56.121,56.121,0,0,0,68.311,60.152,58.158,58.158,0,0,0,79.6,43.359a62.449,62.449,0,0,0,5.13-25.391A1.142,1.142,0,0,0,83.59,16.826ZM66.729,58.5A56.359,56.359,0,0,1,51.375,69.973,54.7,54.7,0,0,1,36.1,58.733c-7.066-7.319-15.465-20.1-15.774-39.647a18.548,18.548,0,0,0,10.65-3.533A12.906,12.906,0,0,0,36.021,5.529,35.163,35.163,0,0,1,51.383,2.284,35.163,35.163,0,0,1,66.746,5.529a12.905,12.905,0,0,0,5.043,10.023,18.548,18.548,0,0,0,10.65,3.533C82.126,38.372,73.765,51.141,66.729,58.5Z" transform="translate(0)"/>
  </g>
</svg>
