<svg xmlns="http://www.w3.org/2000/svg" width="82.699" height="72.524" viewBox="0 0 82.699 72.524">
  <g id="Group_1945" data-name="Group 1945" transform="translate(-605 -1130)">
    <g id="Group_1944" data-name="Group 1944" transform="translate(-56 16)">
      <path id="Path_16729" data-name="Path 16729" d="M153.758,159.254h-8.618a1.789,1.789,0,0,0-1.787,1.787v5.118h-5.119a1.789,1.789,0,0,0-1.787,1.787v8.618a1.789,1.789,0,0,0,1.787,1.787h5.119v5.118a1.789,1.789,0,0,0,1.787,1.787h8.618a1.789,1.789,0,0,0,1.787-1.787V178.35h5.118a1.789,1.789,0,0,0,1.787-1.787v-8.617a1.789,1.789,0,0,0-1.787-1.787h-5.118v-5.118A1.789,1.789,0,0,0,153.758,159.254Zm6.672,8.924v8.153h-5.118a1.789,1.789,0,0,0-1.787,1.787v5.118h-8.153v-5.118a1.789,1.789,0,0,0-1.787-1.787h-5.118v-8.153h5.118a1.789,1.789,0,0,0,1.787-1.787v-5.118h8.153v5.118a1.789,1.789,0,0,0,1.787,1.787Zm0,0" transform="translate(552.551 977.746)" fill="#147db2"/>
    </g>
    <g id="heart-shape" transform="translate(605 1127.508)">
      <path id="Path_16730" data-name="Path 16730" d="M6.172,39.914a.928.928,0,0,0,.135.169L38.8,74.614a1.28,1.28,0,0,0,.906.4h.024a1.27,1.27,0,0,0,.888-.359L76.109,40.342c.016-.012.155-.139.239-.22a.655.655,0,0,0,.139-.165A22.111,22.111,0,1,0,41.349,13.68,22.114,22.114,0,1,0,6.172,39.914ZM22.118,5.046A19.52,19.52,0,0,1,40.169,17.073a1.278,1.278,0,0,0,2.356,0,19.562,19.562,0,1,1,32,21.244,1.078,1.078,0,0,0-.092.108l-34.657,33.5-31.44-33.4a1.178,1.178,0,0,0-.167-.212A19.551,19.551,0,0,1,22.118,5.046Z" fill="#010002"/>
    </g>
  </g>
</svg>
