<svg xmlns="http://www.w3.org/2000/svg" width="73.5" height="61.851" viewBox="0 0 73.5 61.851">
  <g id="care_2_" data-name="care (2)" transform="translate(0 -62.87)">
    <g id="Group_1947" data-name="Group 1947" transform="translate(0 62.87)">
      <g id="Group_1946" data-name="Group 1946">
        <path id="Path_16731" data-name="Path 16731" d="M73.4,249.448a4.2,4.2,0,0,0-5.012-3.182c-20.621,4.642-24.017,5.785-26.053,5.863l-10.7-4.2,1.453-3.882,11.808,4.425h0a4.2,4.2,0,0,0,5.4-2.463l1.79-4.786a1.4,1.4,0,0,0-.82-1.8l-19.325-7.233c-2.222-.841-5.266-1.994-7.661-.9l-9.754,4.027-13.085-.081H1.433a1.4,1.4,0,0,0-1.4,1.4L0,254.717a1.408,1.408,0,0,0,.42,1,1.478,1.478,0,0,0,1.006.4c9.075-.153,19.369-.16,20.527.109l19.566,6.99a1.049,1.049,0,0,0,.435.069c1.308,0-3.6.791,28.25-6.182a4.165,4.165,0,0,0,3.3-4.1v-2.642A4.2,4.2,0,0,0,73.4,249.448Zm-2.7,3.562a1.385,1.385,0,0,1-1.094,1.367c-21.088,4.616-25.267,5.922-27.355,6.132L22.919,253.6a67,67,0,0,0-10.1-.392h0c-3.349,0-6.981.041-10.01.092l.025-15.253,11.966.07a1.234,1.234,0,0,0,.543-.106L25.4,233.858c1.381-.63,3.8.284,5.56.95l18.013,6.745-1.3,3.476a1.4,1.4,0,0,1-1.8.819l-11.809-4.419a2.8,2.8,0,0,0-3.6,1.641l-1.453,3.88a2.808,2.808,0,0,0,1.6,3.585l10.915,4.288c.163.061.12-.089-.092.065-.566.214.989.094,27.57-5.892a1.349,1.349,0,0,1,1.174.27,1.4,1.4,0,0,1,.526,1.1Z" transform="translate(0 -201.463)"/>
        <path id="Path_16732" data-name="Path 16732" d="M236.53,99.8a1.4,1.4,0,0,0,1.979,0l16.82-16.82A11.2,11.2,0,1,0,239.5,67.149l-1.977,1.977-1.977-1.977a11.2,11.2,0,0,0-15.832,15.832Zm-8.9-33.133a8.337,8.337,0,0,1,5.937,2.46l2.967,2.965a1.4,1.4,0,0,0,1.979,0l2.962-2.962A8.4,8.4,0,0,1,253.35,81L237.519,96.834,221.688,81a8.4,8.4,0,0,1,5.937-14.334Z" transform="translate(-185.919 -63.87)" fill="#147db2"/>
      </g>
    </g>
  </g>
</svg>
