<svg xmlns="http://www.w3.org/2000/svg" width="65.699" height="73.001" viewBox="0 0 65.699 73.001">
  <g id="terrorist" transform="translate(-25.607)">
    <g id="Group_1964" data-name="Group 1964" transform="translate(48.508 17.525)">
      <g id="Group_1963" data-name="Group 1963">
        <path id="Path_16747" data-name="Path 16747" d="M189.267,122.917h-1.973a1.069,1.069,0,1,0,0,2.138h1.973a1.069,1.069,0,0,0,0-2.138Z" transform="translate(-186.224 -122.917)"/>
      </g>
    </g>
    <g id="Group_1966" data-name="Group 1966" transform="translate(59.802 17.525)">
      <g id="Group_1965" data-name="Group 1965">
        <path id="Path_16748" data-name="Path 16748" d="M268.482,122.917h-1.973a1.069,1.069,0,1,0,0,2.138h1.973a1.069,1.069,0,0,0,0-2.138Z" transform="translate(-265.439 -122.917)"/>
      </g>
    </g>
    <g id="Group_1968" data-name="Group 1968" transform="translate(44.392 13.689)">
      <g id="Group_1967" data-name="Group 1967">
        <path id="Path_16749" data-name="Path 16749" d="M176.508,96.009H161.851a4.49,4.49,0,0,0-.725,8.921l3.087.505a29.285,29.285,0,0,0,9.151.051l3.853-.587h0A4.426,4.426,0,0,0,181,100.5,4.5,4.5,0,0,0,176.508,96.009Zm.387,6.777-3.853.587a27.147,27.147,0,0,1-8.483-.047l-3.087-.505a2.351,2.351,0,0,1,.38-4.672h14.657a2.354,2.354,0,0,1,2.352,2.351A2.3,2.3,0,0,1,176.894,102.786Z" transform="translate(-157.361 -96.009)" fill="#147db2"/>
      </g>
    </g>
    <g id="Group_1970" data-name="Group 1970" transform="translate(25.607)">
      <g id="Group_1969" data-name="Group 1969" transform="translate(0)">
        <path id="Path_16750" data-name="Path 16750" d="M90.629,33.061h0l-2.538-2.2a1.965,1.965,0,0,0-2.711.128,33.1,33.1,0,0,1-4.708,4.08V33.406a6.565,6.565,0,0,0-1.548-4.231,4.28,4.28,0,0,1-.974-2.768V15.923a1.069,1.069,0,1,0-2.138,0v3.166H74.954V5.521h.82a.238.238,0,0,1,.238.238v5.13a1.069,1.069,0,0,0,2.138,0V5.759A2.379,2.379,0,0,0,76.023,3.4h0V1.069a1.069,1.069,0,1,0-2.138,0V3.383a1.069,1.069,0,0,0-1.069,1.069V19.435a1.749,1.749,0,0,0-.712,1.407v15.69c-1.02-.5-2.108-.955-3.11-1.377-.733-.309-1.442-.607-2.053-.891,3.165-4.044,4.79-9.108,4.79-11.587v-7.32A14.5,14.5,0,0,0,66.8,4.311,16.1,16.1,0,0,0,56.223.263H56.2A16.106,16.106,0,0,0,45.625,4.311a14.5,14.5,0,0,0-4.933,11.046v7.32c0,2.479,1.624,7.544,4.79,11.588-.611.283-1.319.582-2.053.89-2.627,1.106-5.6,2.359-6.893,4.044a6.039,6.039,0,0,0-.789,5.566l-.308.057a1.018,1.018,0,0,0-.107.026,13.554,13.554,0,0,0-9.726,13V59.2a1.069,1.069,0,1,0,2.138,0V57.85a11.415,11.415,0,0,1,8.14-10.935l1.156-.215a12.273,12.273,0,0,0,2.473,1.642l.029.016.256.133.17.086.279.139.3.146.142.067c.145.068.293.137.445.205a36.617,36.617,0,0,0,30.142,0c.133-.06.264-.12.392-.181l.093-.044.288-.137.048-.023v3.1A2.418,2.418,0,0,0,73.972,54.2L76.2,70.862H36.483V63.256a1.069,1.069,0,1,0-2.138,0v7.606H28.325a.58.58,0,0,1-.58-.58V64.236a1.069,1.069,0,1,0-2.138,0v6.047A2.722,2.722,0,0,0,28.325,73H84.1l-4.5-1.217L84.1,73a2.722,2.722,0,0,0,2.719-2.718V57.85a13.466,13.466,0,0,0-.551-3.828A1.867,1.867,0,0,0,87.738,52.8l.663-1.881a1.865,1.865,0,0,0-1.14-2.379l-2.926-1.031a3.064,3.064,0,0,0,.123-.855v-3.8a3.048,3.048,0,0,0-.3-1.325A40.133,40.133,0,0,0,90.768,35.9a1.968,1.968,0,0,0-.139-2.838ZM42.83,22.677v-7.32a12.367,12.367,0,0,1,4.19-9.425,13.729,13.729,0,0,1,18.381,0,12.368,12.368,0,0,1,4.19,9.425v7.32c0,1.619-1.075,5.506-3.466,9.079a19.476,19.476,0,0,1-1.646,2.135l0,0A15.049,15.049,0,0,1,62.5,35.749c-.014.011-.026.023-.039.034a9.831,9.831,0,0,1-12.5,0c-.014-.012-.027-.025-.042-.037a15.047,15.047,0,0,1-1.974-1.854l-.008-.008A19.423,19.423,0,0,1,46.3,31.756C43.906,28.183,42.83,24.3,42.83,22.677Zm20.91,21.33a12.425,12.425,0,0,1-7.224,2.522c-.068,0-.136,0-.2,0h-.2c-.068,0-.136,0-.2,0a12.424,12.424,0,0,1-7.224-2.522,5.015,5.015,0,0,0,1.653-3.62v-1.8a11.709,11.709,0,0,0,11.753,0v1.8A5.015,5.015,0,0,0,63.74,44.007ZM70.4,47.186a34.479,34.479,0,0,1-28.381,0l-.261-.119-.07-.033-.191-.09-.063-.03q-.249-.119-.475-.232l-.022-.011-.2-.1-.027-.014q-.334-.173-.616-.333l0,0c-.19-.108-.363-.21-.521-.309l-.011-.007-.136-.086L39.4,45.8l-.135-.089h0l-.119-.081-.055-.038-.051-.036-.07-.05-.017-.012a4.761,4.761,0,0,1-.752-.659l-.019-.019a1.6,1.6,0,0,1-.211-.295,3.9,3.9,0,0,1,.266-4.025c.943-1.233,3.76-2.419,6.023-3.372.972-.409,1.9-.8,2.675-1.186A17.044,17.044,0,0,0,48.2,37.106v3.281a2.484,2.484,0,0,1-1.606,2.365,1.069,1.069,0,0,0-.533,1.817,14.558,14.558,0,0,0,9.8,4.1c.089,0,.177,0,.266,0H56.3c.089,0,.177,0,.266,0a14.557,14.557,0,0,0,9.8-4.1,1.069,1.069,0,0,0-.533-1.817,2.484,2.484,0,0,1-1.606-2.365V37.106A17.046,17.046,0,0,0,65.49,35.94c.771.385,1.7.777,2.675,1.186,1.3.548,2.753,1.159,3.94,1.811v7.408h0C71.6,46.62,71.032,46.9,70.4,47.186Zm10.27-3.562q.828-.441,1.636-.922a.934.934,0,0,1,.013.146v3.8a.957.957,0,0,1-.011.141l-1.637-.577V43.624h0Zm-6.154,8.5a.276.276,0,0,1-.275-.275V21.228h1.769v5.179a6.42,6.42,0,0,0,1.478,4.148,4.425,4.425,0,0,1,1.043,2.851V52.125H74.517Zm4.3,2.139,3.62,11.3L77.812,66.8,76.138,54.264Zm-.475,16.553L78.1,68.939l5-1.34.574,1.791Zm2.324-17.79v-.741l3.09,1.089a11.309,11.309,0,0,1,.915,4.475v7.676Zm5.622-2.562-.481,1.365-5.14-1.811V48.484Zm-5.622-9.282V37.65a34.866,34.866,0,0,0,6.141-5.07l2.279,1.979A37.482,37.482,0,0,1,80.672,41.183Z" transform="translate(-25.607)"/>
      </g>
    </g>
  </g>
</svg>
