<svg xmlns="http://www.w3.org/2000/svg" width="64.452" height="74" viewBox="0 0 64.452 74">
  <g id="worker" transform="translate(-5 -1)">
    <circle id="Ellipse_195" data-name="Ellipse 195" cx="1.5" cy="1.5" r="1.5" transform="translate(43 26)" fill="#147db2"/>
    <ellipse id="Ellipse_196" data-name="Ellipse 196" cx="1" cy="1.5" rx="1" ry="1.5" transform="translate(29 26)" fill="#147db2"/>
    <path id="Path_16795" data-name="Path 16795" d="M37.548,32H35.161a2.387,2.387,0,1,1-4.774,0H28a4.774,4.774,0,0,0,9.548,0Z" transform="translate(4.452 6)" fill="#147db2"/>
    <path id="Path_16796" data-name="Path 16796" d="M57.663,56.247,45.418,51.238a3.568,3.568,0,0,1-2.225-3.314v-.857a22.093,22.093,0,0,0,8.067-10.26h.288a5.975,5.975,0,0,0,5.968-5.968V22.484A2.389,2.389,0,0,0,59.9,20.1V17.71a2.39,2.39,0,0,0-2.387-2.387h-.911a20.272,20.272,0,0,0-38.759,0h-.911a2.389,2.389,0,0,0-2.387,2.387V20.1a2.389,2.389,0,0,0,2.387,2.387v8.355A5.975,5.975,0,0,0,22.9,36.806h.288a22.087,22.087,0,0,0,8.067,10.26v.857a3.566,3.566,0,0,1-2.225,3.313L16.789,56.246A18.908,18.908,0,0,0,5,73.806V75H69.452V73.806A18.9,18.9,0,0,0,57.663,56.247ZM19.323,57.79,24.1,55.838v9.614H19.323Zm7.161-2.38,9.129,10.041H26.484ZM38.838,65.452,47.968,55.41V65.452Zm11.517-9.615,4.774,1.953v7.663H50.355Zm1.688-21.467a22.167,22.167,0,0,0,.7-5.5V27.478a3.561,3.561,0,0,1-.7,6.892ZM55.129,26.1a5.91,5.91,0,0,0-2.387-1.1V22.484h2.387ZM40.44,3.683l-1.393,5.45a1.88,1.88,0,0,1-3.643,0l-1.393-5.45a17.565,17.565,0,0,1,6.428,0ZM31.7,4.27l1.394,5.455a4.267,4.267,0,0,0,8.269,0L42.754,4.27A17.877,17.877,0,0,1,54.11,15.323H49.161V12.935H46.774v2.387H44.387V12.935H42v2.387H32.452V12.935H30.065v2.387H27.677V12.935H25.29v2.387H20.342A17.877,17.877,0,0,1,31.7,4.27ZM16.935,17.71H57.516V20.1H16.935Zm4.774,4.774v2.508a5.926,5.926,0,0,0-2.387,1.1v-3.61Zm-2.387,8.355a3.576,3.576,0,0,1,2.387-3.361v1.393a22.167,22.167,0,0,0,.7,5.5A3.575,3.575,0,0,1,19.323,30.839ZM24.1,28.871V22.484H50.355v6.387A19.724,19.724,0,0,1,37.226,47.479,19.723,19.723,0,0,1,24.1,28.871Zm12.752,21,.377.127.377-.125A22.307,22.307,0,0,0,40.848,48.5,5.933,5.933,0,0,0,42.3,51.875a5.961,5.961,0,0,1-10.151,0A5.925,5.925,0,0,0,33.6,48.5a22.19,22.19,0,0,0,3.246,1.375Zm-6.911,3.573c.1-.042.195-.1.294-.147a8.341,8.341,0,0,0,13.988,0c.1.048.192.105.295.147l1.466.6-8.755,9.631-8.755-9.631ZM7.429,72.613A16.505,16.505,0,0,1,16.935,58.8V72.613Zm11.894,0V67.839H55.129v4.774Zm38.194,0V58.8a16.505,16.505,0,0,1,9.507,13.815Z"/>
  </g>
</svg>
