<svg xmlns="http://www.w3.org/2000/svg" width="61.549" height="73" viewBox="0 0 61.549 73">
  <g id="family-insurance_1_" data-name="family-insurance (1)" transform="translate(0)">
    <path id="Path_16705" data-name="Path 16705" d="M168.89,237h0a7.658,7.658,0,0,0,0,15.316h.01A7.658,7.658,0,1,0,168.89,237Zm3.776,11.433a5.322,5.322,0,0,1-3.767,1.592h-.01a5.368,5.368,0,0,1,0-10.735h0a5.363,5.363,0,0,1,3.77,9.143Zm0,0" transform="translate(-138.152 -203.076)"/>
    <path id="Path_16706" data-name="Path 16706" d="M297.737,202h0a7.658,7.658,0,0,0,0,15.316h.105a7.659,7.659,0,0,0-.1-15.316Zm3.813,11.436a5.221,5.221,0,0,1-3.725,1.589h-.088a5.368,5.368,0,0,1,0-10.735h0a5.393,5.393,0,0,1,3.807,9.146Zm0,0" transform="translate(-248.591 -173.086)"/>
    <path id="Path_16707" data-name="Path 16707" d="M0,330.653v10.353a1.181,1.181,0,0,0,1.151,1.18H18.464v3.865a1.1,1.1,0,0,0,1.094,1.145H41.922a1.16,1.16,0,0,0,1.162-1.145v-3.865H60.4a1.181,1.181,0,0,0,1.151-1.18v-10.32A10.687,10.687,0,0,0,50.885,320h-3.3a10.845,10.845,0,0,0-9.867,6.447,10.6,10.6,0,0,0-5.306-1.437h-3.32a10.619,10.619,0,0,0-5.294,1.429A10.766,10.766,0,0,0,13.968,320H10.679A10.674,10.674,0,0,0,0,330.653Zm47.581-8.363h3.3a8.394,8.394,0,0,1,8.376,8.394V339.9H43.084v-4.166a10.63,10.63,0,0,0-3.123-7.553c-.111-.111-.228-.215-.342-.32a8.553,8.553,0,0,1,7.961-5.568ZM29.09,327.3h3.316a8.424,8.424,0,0,1,8.388,8.429v9.176H20.755V335.7a8.371,8.371,0,0,1,8.335-8.4Zm-18.409-5.01h3.285a8.51,8.51,0,0,1,7.945,5.556,10.6,10.6,0,0,0-3.447,7.852v4.2H2.29v-9.241a8.384,8.384,0,0,1,8.391-8.365Zm0,0" transform="translate(0 -274.196)"/>
    <path id="Path_16708" data-name="Path 16708" d="M40.277,202h0a7.658,7.658,0,1,0,0,15.316h0a7.555,7.555,0,0,0,7.563-7.629v-.028A7.607,7.607,0,0,0,40.277,202Zm0,13.025h0a5.368,5.368,0,0,1,0-10.735h0a5.368,5.368,0,0,1,0,10.735Zm0,0" transform="translate(-27.949 -173.086)"/>
    <path id="Path_16709" data-name="Path 16709" d="M81.017,26.87a26.87,26.87,0,0,0-53.74,0,1.145,1.145,0,0,0,2.253.291,10.3,10.3,0,0,1,1.562-3.413,5.453,5.453,0,0,1,3.762-1.521,5.343,5.343,0,0,1,3.751,1.51,5.458,5.458,0,0,1,1.535,3.776,1.145,1.145,0,1,0,2.29,0,5.2,5.2,0,0,1,5.286-5.286,5.345,5.345,0,0,1,3.751,1.51A5.456,5.456,0,0,1,53,27.513a1.145,1.145,0,0,0,2.29,0,5.2,5.2,0,0,1,5.286-5.286,5.345,5.345,0,0,1,3.752,1.51,5.457,5.457,0,0,1,1.534,3.776,1.145,1.145,0,0,0,2.29,0,5.2,5.2,0,0,1,5.286-5.286,5.343,5.343,0,0,1,3.751,1.51,10.094,10.094,0,0,1,1.573,3.425,1.145,1.145,0,0,0,2.253-.291Zm-7.577-6.933a7.71,7.71,0,0,0-5.358,2.169l-.049.049a8.372,8.372,0,0,0-1.024,1.329,8.368,8.368,0,0,0-1.024-1.329l-.024-.025a7.7,7.7,0,0,0-10.741-.024l-.049.049a8.368,8.368,0,0,0-1.024,1.329,8.368,8.368,0,0,0-1.024-1.329L53.1,22.13a7.7,7.7,0,0,0-10.741-.024c-.017.016-.034.032-.049.049a8.368,8.368,0,0,0-1.024,1.329,8.371,8.371,0,0,0-1.024-1.329l-.024-.025a7.688,7.688,0,0,0-10.1-.573,24.591,24.591,0,0,1,48.013-.02,7.708,7.708,0,0,0-4.711-1.6Zm0,0" transform="translate(-23.373)" fill="#147db2"/>
  </g>
</svg>
