<?xml version="1.0" encoding="utf-8"?>
<!-- Generator: Adobe Illustrator 14.0.0, SVG Export Plug-In . SVG Version: 6.00 Build 43363)  -->
<!DOCTYPE svg PUBLIC "-//W3C//DTD SVG 1.1//EN" "http://www.w3.org/Graphics/SVG/1.1/DTD/svg11.dtd">
<svg version="1.1" id="Layer_1" xmlns="http://www.w3.org/2000/svg" xmlns:xlink="http://www.w3.org/1999/xlink" x="0px" y="0px"
	 width="44px" height="52.848px" viewBox="0 0 44 52.848" enable-background="new 0 0 44 52.848" xml:space="preserve">
<g id="house" transform="translate(-24.786)">
	<path id="Path_15924" fill="#10BEDA" d="M38.415,31.257c1.295,0.004,2.587,0.121,3.861,0.352v-3.74h9.1v6.679
		c0.926,0.323,1.799,0.778,2.594,1.352c1.293,0.845,2.109,2.251,2.2,3.793c1.716-0.396,3.344-1.105,4.8-2.095
		c0.508-0.35,1.118-0.655,1.476-0.917v-10.4L46.786,8.787L30.854,26.387v6.291c1.071-0.271,2.047-0.563,3.178-0.872
		C35.462,31.43,36.936,31.246,38.415,31.257z"/>
	<path id="Path_15925" fill="#10BEDA" d="M46.859,4.518l17.7,19.781h4.037L46.821,0l-9.006,9.919v-4h-6.6v11.3L24.859,24.3h4.1
		L46.859,4.518z"/>
	<path id="Path_15926" fill="#10BEDA" d="M66.6,38.361c-1.453,0.127-2.838,0.68-3.979,1.589c-3.039,2.009-6.608,3.065-10.251,3.036
		c-2.501,0.071-4.977-0.515-7.18-1.7c-0.9-0.54-0.9-0.721-0.376-0.721c1.049,0,4.196,0.728,6.327,0.728
		c1.049,0,1.853-0.176,2.041-0.7c0.869-2.432-2.5-3.215-6.021-4.64c-2.768-1.147-5.726-1.769-8.721-1.832
		c-1.224-0.011-2.444,0.14-3.629,0.449c-5.2,1.418-8.96,2.486-10.03,2.833v13.649c1.928-0.796,3.96-1.315,6.034-1.542
		c2.591,0,13.074,3.343,19.01,3.343c0.737,0.013,1.474-0.06,2.194-0.215c5.039-1.217,13.785-8.34,16.158-10.771
		c0.813-0.781,0.839-2.073,0.059-2.886C67.811,38.539,67.211,38.311,66.6,38.361z"/>
</g>
</svg>
