<svg xmlns="http://www.w3.org/2000/svg" width="72.615" height="73.11" viewBox="0 0 72.615 73.11">
  <g id="hands-holding-heart" transform="translate(-1.447)">
    <path id="Path_16680" data-name="Path 16680" d="M259.776,125.545l-1.3-18.975a4.6,4.6,0,0,0-9.186.36l.154,15.469-6.7,8.582a4.308,4.308,0,0,1-4.454,1.507l7.291-9.468a4.084,4.084,0,0,0-.484-5.481,4.061,4.061,0,0,0-5.858.409l-11.014,13.264a12.044,12.044,0,0,0-2.774,7.8l.171,17.614a1.281,1.281,0,0,0,1.28,1.269l18.339.025h0a1.281,1.281,0,0,0,1.276-1.392l-.749-8.622,12.174-16.18A9.235,9.235,0,0,0,259.776,125.545Zm-3.881,4.643L243.425,146.76a1.281,1.281,0,0,0-.253.881l.67,7.717-15.673-.021-.159-16.347a9.477,9.477,0,0,1,2.183-6.14l11.014-13.264a1.5,1.5,0,0,1,2.162-.151,1.507,1.507,0,0,1,.178,2.022L235.274,132.2a1.281,1.281,0,0,0,.307,1.849,6.878,6.878,0,0,0,9.18-1.493l6.976-8.935a1.281,1.281,0,0,0,.271-.8l-.158-15.917a2.036,2.036,0,0,1,4.067-.16l1.3,18.975A6.673,6.673,0,0,1,255.894,130.188Z" transform="translate(-185.735 -84.813)"/>
    <path id="Path_16681" data-name="Path 16681" d="M22.009,117.95a4.061,4.061,0,0,0-5.858-.409,4.084,4.084,0,0,0-.484,5.481l7.291,9.468a4.31,4.31,0,0,1-4.455-1.507L11.8,122.4l.154-15.469a4.6,4.6,0,0,0-9.186-.36l-1.3,18.975A9.236,9.236,0,0,0,3.3,131.73l12.175,16.18-.749,8.622A1.281,1.281,0,0,0,16,157.924h0l18.339-.025a1.281,1.281,0,0,0,1.28-1.269l.171-17.614a12.044,12.044,0,0,0-2.774-7.8Zm11.067,37.388-15.673.021.67-7.717a1.28,1.28,0,0,0-.253-.881L5.35,130.189a6.673,6.673,0,0,1-1.325-4.467l1.3-18.975a2.036,2.036,0,0,1,2.028-1.9q.075,0,.151.005a2.04,2.04,0,0,1,1.888,2.051l-.158,15.917a1.28,1.28,0,0,0,.271.8l6.976,8.935a6.879,6.879,0,0,0,9.18,1.493,1.281,1.281,0,0,0,.307-1.85L17.7,121.459a1.507,1.507,0,0,1,.179-2.023,1.5,1.5,0,0,1,2.161.151l11.014,13.264a9.478,9.478,0,0,1,2.183,6.14Z" transform="translate(0 -84.814)"/>
    <path id="Path_16682" data-name="Path 16682" d="M117.294,14.417A14.417,14.417,0,0,0,92.683,4.223L92.2,4.71l-.487-.487A14.417,14.417,0,1,0,71.32,24.611l19.97,19.97a1.281,1.281,0,0,0,1.812,0l19.97-19.97A14.322,14.322,0,0,0,117.294,14.417ZM92.2,41.863,73.132,22.8A11.854,11.854,0,1,1,89.9,6.035L91.29,7.428a1.281,1.281,0,0,0,1.812,0l1.393-1.393A11.854,11.854,0,1,1,111.259,22.8Z" transform="translate(-54.441 0)" fill="#147db2"/>
  </g>
</svg>
