<svg xmlns="http://www.w3.org/2000/svg" width="52.158" height="73" viewBox="0 0 52.158 73">
  <g id="Group_1943" data-name="Group 1943" transform="translate(-588 -1072)">
    <g id="money_2_" data-name="money (2)" transform="translate(588 1101.709)">
      <path id="Path_16721" data-name="Path 16721" d="M65.739,65.739h34.772V79.647h1.739V64H64V79.647h1.739Zm0,0" transform="translate(-57.046 -57.046)"/>
      <path id="Path_16722" data-name="Path 16722" d="M208,131.477A3.477,3.477,0,1,0,211.477,128,3.487,3.487,0,0,0,208,131.477Zm5.216,0a1.739,1.739,0,1,1-1.739-1.739A1.744,1.744,0,0,1,213.216,131.477Zm0,0" transform="translate(-185.398 -114.091)" fill="#147db2"/>
      <path id="Path_16723" data-name="Path 16723" d="M80,32h34.772v1.739H80Zm0,0" transform="translate(-71.307 -28.523)"/>
      <path id="Path_16724" data-name="Path 16724" d="M96,0h31.3V1.739H96Zm0,0" transform="translate(-85.568)"/>
      <path id="Path_16725" data-name="Path 16725" d="M43.639,205.559l-7.563-3.043a2.806,2.806,0,0,0-2.608.348L21.82,212.252,3.825,202.69a2.667,2.667,0,0,0-3.564,1.043A3.072,3.072,0,0,0,0,204.95v2.173a2.594,2.594,0,0,0,1.3,2.26l24.6,13.909a2.262,2.262,0,0,0,1.3.348,1.922,1.922,0,0,0,.7-.087l15.648-4.086h8.606V205.559ZM27.383,221.9a.716.716,0,0,1-.609-.087l-24.6-13.909a.914.914,0,0,1-.435-.783V204.95a.913.913,0,0,1,.435-.782.783.783,0,0,1,.435-.087.783.783,0,0,1,.435.087l23.906,12.779,8.606-5.042-.869-1.478-7.824,4.607-3.477-1.826,11.04-8.867a.8.8,0,0,1,.869-.087l7.215,2.869v10.953Zm23.037-4.173H44.335V207.3H50.42Zm0,0" transform="translate(0 -180.349)"/>
      <path id="Path_16726" data-name="Path 16726" d="M424,264h1.739v4.347H424Zm0,0" transform="translate(-377.927 -235.313)" fill="#147db2"/>
      <path id="Path_16727" data-name="Path 16727" d="M127.3,107.3V97.739h-1.3a.411.411,0,0,1-.435-.435V96H97.739v1.3a.411.411,0,0,1-.435.435H96V108.17h1.3a.411.411,0,0,1,.435.435v1.3h16.517V108.17H99.477a2.134,2.134,0,0,0-1.739-1.652V99.477a2.145,2.145,0,0,0,1.652-1.652h24.428a2.134,2.134,0,0,0,1.739,1.652V107.3Zm0,0" transform="translate(-85.568 -85.568)"/>
    </g>
    <path id="Path_16728" data-name="Path 16728" d="M77.274,25a25,25,0,1,0-50,0,1.065,1.065,0,0,0,2.1.271,9.582,9.582,0,0,1,1.453-3.175,5.073,5.073,0,0,1,3.5-1.415,4.971,4.971,0,0,1,3.49,1.405A5.078,5.078,0,0,1,39.244,25.6a1.065,1.065,0,0,0,2.131,0,4.839,4.839,0,0,1,4.918-4.918,4.973,4.973,0,0,1,3.49,1.405A5.076,5.076,0,0,1,51.21,25.6a1.065,1.065,0,0,0,2.131,0,4.84,4.84,0,0,1,4.918-4.918,4.972,4.972,0,0,1,3.49,1.405A5.077,5.077,0,0,1,63.177,25.6a1.065,1.065,0,0,0,2.131,0,4.84,4.84,0,0,1,4.918-4.918,4.971,4.971,0,0,1,3.489,1.4,9.391,9.391,0,0,1,1.463,3.186,1.065,1.065,0,0,0,2.1-.271Zm-7.049-6.45a7.173,7.173,0,0,0-4.985,2.018l-.045.046a7.788,7.788,0,0,0-.953,1.236,7.785,7.785,0,0,0-.952-1.236l-.022-.023a7.167,7.167,0,0,0-9.993-.022l-.046.046a7.785,7.785,0,0,0-.952,1.236,7.785,7.785,0,0,0-.952-1.236l-.023-.023a7.166,7.166,0,0,0-9.993-.022c-.016.015-.031.03-.046.046a7.785,7.785,0,0,0-.952,1.236,7.788,7.788,0,0,0-.953-1.236l-.022-.023a7.152,7.152,0,0,0-9.395-.533,22.878,22.878,0,0,1,44.669-.018,7.171,7.171,0,0,0-4.383-1.489Zm0,0" transform="translate(561.654 1072)" fill="#147db2"/>
  </g>
</svg>
