<svg xmlns="http://www.w3.org/2000/svg" width="55.5" height="76.887" viewBox="0 0 55.5 76.887">
  <g id="Group_1962" data-name="Group 1962" transform="translate(-581 -1285.609)">
    <g id="money_3_" data-name="money (3)" transform="translate(581 1310.821)">
      <g id="Group_1949" data-name="Group 1949" transform="translate(0 16.972)">
        <g id="Group_1948" data-name="Group 1948" transform="translate(0 0)">
          <path id="Path_16739" data-name="Path 16739" d="M45.421,160.017H.765a.764.764,0,0,0-.765.764v21.436a.765.765,0,0,0,.764.765H31.13a.765.765,0,0,0,0-1.531H1.531v-19.9H44.654v1.914a.765.765,0,0,0,.764.765h0a.764.764,0,0,0,.765-.764v-2.681A.765.765,0,0,0,45.421,160.017Z" transform="translate(0 -160.017)"/>
        </g>
      </g>
      <g id="Group_1951" data-name="Group 1951" transform="translate(1.786 5.363)">
        <g id="Group_1950" data-name="Group 1950">
          <path id="Path_16740" data-name="Path 16740" d="M54.438,64.075,18.715,56.038a.765.765,0,0,0-.915.58l-1.786,8.038a.766.766,0,0,0,1.5.332L19.128,57.7,54.1,65.569a.722.722,0,0,0,.169.019.765.765,0,0,0,.167-1.512Z" transform="translate(-15.995 -56.019)"/>
        </g>
      </g>
      <g id="Group_1953" data-name="Group 1953" transform="translate(11.596 0)">
        <g id="Group_1952" data-name="Group 1952">
          <path id="Path_16741" data-name="Path 16741" d="M128.17,16.972,106.736,8.041a.768.768,0,0,0-.982.365l-1.786,3.572a.768.768,0,1,0,1.351.731c.008-.015.015-.03.022-.045v0l1.466-2.933,20.772,8.655a.767.767,0,1,0,.591-1.416Z" transform="translate(-103.875 -7.982)"/>
        </g>
      </g>
      <g id="Group_1955" data-name="Group 1955" transform="translate(28.579 20.545)">
        <g id="Group_1954" data-name="Group 1954" transform="translate(0 0)">
          <path id="Path_16742" data-name="Path 16742" d="M263.854,192.017h-7.088a.765.765,0,1,0,0,1.531h7.088a.765.765,0,1,0,0-1.531Z" transform="translate(-256 -192.017)" fill="#147db2"/>
        </g>
      </g>
      <g id="Group_1957" data-name="Group 1957" transform="translate(14.34 20.596)">
        <g id="Group_1956" data-name="Group 1956">
          <path id="Path_16743" data-name="Path 16743" d="M136.315,192.473a7.859,7.859,0,1,0,7.859,7.859A7.859,7.859,0,0,0,136.315,192.473Zm0,14.289a6.43,6.43,0,1,1,6.43-6.43A6.43,6.43,0,0,1,136.315,206.762Z" transform="translate(-128.456 -192.473)" fill="#147db2"/>
        </g>
      </g>
      <g id="Group_1959" data-name="Group 1959" transform="translate(33.809 23.096)">
        <g id="Group_1958" data-name="Group 1958">
          <path id="Path_16744" data-name="Path 16744" d="M312.68,214.873c-4.733,0-9.824,1.118-9.824,3.572v21.434c0,2.454,5.091,3.572,9.824,3.572s9.824-1.118,9.824-3.572V218.445C322.5,215.991,317.413,214.873,312.68,214.873Zm8.038,24.993c-.135.5-2.813,1.8-8.038,1.8s-7.9-1.3-8.038-1.786v-1.4a23.7,23.7,0,0,0,16.075,0Zm0-3.572c-.135.5-2.813,1.8-8.038,1.8s-7.9-1.3-8.038-1.786v-1.4a23.7,23.7,0,0,0,16.075,0Zm0-3.572c-.135.5-2.813,1.8-8.038,1.8s-7.9-1.3-8.038-1.786v-1.4a23.7,23.7,0,0,0,16.075,0Zm0-3.572c-.135.5-2.813,1.8-8.038,1.8s-7.9-1.3-8.038-1.786v-1.4a23.7,23.7,0,0,0,16.075,0Zm0-3.572c-.135.5-2.813,1.8-8.038,1.8s-7.9-1.3-8.038-1.786v-1.4a23.7,23.7,0,0,0,16.075,0Zm0-3.572c-.135.5-2.813,1.8-8.038,1.8s-7.9-1.3-8.038-1.786v-1.4a23.7,23.7,0,0,0,16.075,0Zm-8.038-1.773c-5.216,0-7.894-1.3-8.038-1.77v-.005c.144-.5,2.821-1.8,8.038-1.8,5.18,0,7.859,1.281,8.038,1.786C320.539,218.951,317.86,220.232,312.68,220.232Z" transform="translate(-302.856 -214.873)"/>
        </g>
      </g>
      <g id="Group_1961" data-name="Group 1961" transform="translate(3.571 20.545)">
        <g id="Group_1960" data-name="Group 1960" transform="translate(0 0)">
          <path id="Path_16745" data-name="Path 16745" d="M43.475,206.305H36.724l-3.2-3.5V197l3.535-3.452h6.417a.765.765,0,0,0,0-1.531H36.748a.766.766,0,0,0-.536.217l-3.989,3.891a.959.959,0,0,0-.23.625V203.1a.766.766,0,0,0,.2.516l3.629,3.969a.765.765,0,0,0,.565.249h7.089a.765.765,0,1,0,0-1.531Z" transform="translate(-31.992 -192.017)" fill="#147db2"/>
        </g>
      </g>
    </g>
    <path id="Path_16746" data-name="Path 16746" d="M39.874,19.937A19.937,19.937,0,0,0,0,19.937a.85.85,0,0,0,1.671.216,7.642,7.642,0,0,1,1.159-2.532,4.046,4.046,0,0,1,2.791-1.129,3.965,3.965,0,0,1,2.783,1.121,4.05,4.05,0,0,1,1.139,2.8.85.85,0,0,0,1.7,0,3.859,3.859,0,0,1,3.922-3.922,3.966,3.966,0,0,1,2.783,1.121,4.048,4.048,0,0,1,1.139,2.8.85.85,0,0,0,1.7,0,3.86,3.86,0,0,1,3.922-3.922,3.966,3.966,0,0,1,2.784,1.121,4.049,4.049,0,0,1,1.138,2.8.85.85,0,0,0,1.7,0,3.86,3.86,0,0,1,3.922-3.922,3.964,3.964,0,0,1,2.783,1.12A7.489,7.489,0,0,1,38.2,20.153a.85.85,0,0,0,1.671-.216Zm-5.622-5.144A5.721,5.721,0,0,0,30.276,16.4l-.036.037a6.211,6.211,0,0,0-.76.986,6.209,6.209,0,0,0-.76-.986L28.7,16.42a5.716,5.716,0,0,0-7.97-.018l-.037.037a6.209,6.209,0,0,0-.76.986,6.208,6.208,0,0,0-.76-.986l-.018-.019A5.715,5.715,0,0,0,11.19,16.4l-.037.037a6.209,6.209,0,0,0-.76.986,6.211,6.211,0,0,0-.76-.986l-.018-.019a5.7,5.7,0,0,0-7.492-.425,18.246,18.246,0,0,1,35.624-.015,5.719,5.719,0,0,0-3.5-1.188Zm0,0" transform="matrix(0.914, 0.407, -0.407, 0.914, 600.074, 1285.609)"/>
  </g>
</svg>
