<svg xmlns="http://www.w3.org/2000/svg" width="108.823" height="69.681" viewBox="0 0 108.823 69.681">
  <g id="Group_1849" data-name="Group 1849" transform="translate(-689.178 -912.14)">
    <path id="Path_16647" data-name="Path 16647" d="M18,15,1.5.167" transform="translate(763.5 944.5)" fill="none" stroke="#147db2" stroke-linecap="round" stroke-width="3"/>
    <path id="Path_16648" data-name="Path 16648" d="M18,15,1.5.167" transform="matrix(-0.259, 0.966, -0.966, -0.259, 729.501, 948.108)" fill="none" stroke="#147db2" stroke-linecap="round" stroke-width="3"/>
    <path id="Subtraction_11" data-name="Subtraction 11" d="M12733-3364a16.889,16.889,0,0,1-12.021-4.98A16.89,16.89,0,0,1,12716-3381a16.891,16.891,0,0,1,4.979-12.021A16.891,16.891,0,0,1,12733-3398a16.894,16.894,0,0,1,12.021,4.98A16.891,16.891,0,0,1,12750-3381a16.891,16.891,0,0,1-4.979,12.021A16.893,16.893,0,0,1,12733-3364Zm0-31a14.015,14.015,0,0,0-14,14,14.015,14.015,0,0,0,14,14,14.015,14.015,0,0,0,14-14A14.015,14.015,0,0,0,12733-3395Z" transform="matrix(-0.259, 0.966, -0.966, -0.259, 739.747, -12213.201)" fill="#147db2"/>
    <g id="Ellipse_170" data-name="Ellipse 170" transform="matrix(-0.259, 0.966, -0.966, -0.259, 719.798, 955.343)" fill="none" stroke="#147db2" stroke-width="2.5">
      <circle cx="8" cy="8" r="8" stroke="none"/>
      <circle cx="8" cy="8" r="6.75" fill="none"/>
    </g>
    <path id="Subtraction_9" data-name="Subtraction 9" d="M12763.346-3335.142H12752.3a1.469,1.469,0,0,1-1.469-1.466,1.469,1.469,0,0,1,1.469-1.466h9.574v-.787h-7.07a7.618,7.618,0,0,1-7.611-7.607v-10.413l.01-.01.106-4.548-5.892-4.2-16.446-11.807a1.478,1.478,0,0,1-.334-2.047,1.49,1.49,0,0,1,1.2-.611,1.494,1.494,0,0,1,.858.273l19.182,13.782,2.426,1.742a9.1,9.1,0,0,1,7.942-4.712h3.22a15.709,15.709,0,0,0,9.334-3.089l.02-.016.013-.01a1.8,1.8,0,0,1,.17-.116l-5.232-2-9.5-3.638h-11.11a6.59,6.59,0,0,1-4.13-1.453l-10.34-8.3h-8.27a1.483,1.483,0,0,0-1.481,1.481,1.51,1.51,0,0,0,.62,1.208l3.16,2.266a1.463,1.463,0,0,1,.591.955,1.457,1.457,0,0,1-.257,1.092,1.466,1.466,0,0,1-1.189.614,1.479,1.479,0,0,1-.858-.28l-3.159-2.266a4.428,4.428,0,0,1-1.838-3.59,4.419,4.419,0,0,1,4.412-4.416h8.784a1.47,1.47,0,0,1,.919.322l10.741,8.63a3.683,3.683,0,0,0,2.295.807h10.562a16.369,16.369,0,0,1,5.781-5.056,16.351,16.351,0,0,1,7.485-1.813,16.2,16.2,0,0,1,10.771,4.079,10.729,10.729,0,0,0-.945-4.77h-4.734a1.469,1.469,0,0,1-1.469-1.466,1.471,1.471,0,0,1,1.469-1.469h3.063l-.646-1.086a3.628,3.628,0,0,1-.1-3.555,3.6,3.6,0,0,1,2.956-1.941c.958-.07,1.935-.106,2.9-.106a34.15,34.15,0,0,1,13.516,2.651,29.335,29.335,0,0,1,10.618,7.7,9.636,9.636,0,0,1,1.877,5.756,15.33,15.33,0,0,1-.816,6.122,5.94,5.94,0,0,1-1.642,2.327l-4.632,4.008a1.451,1.451,0,0,1-.379.238,18.04,18.04,0,0,0-3.979-.444,17.994,17.994,0,0,0-17.689,14.662,18.286,18.286,0,0,0-.45,4.04,18.324,18.324,0,0,0,2.848,9.822,1.478,1.478,0,0,1,.049,1.5,1.477,1.477,0,0,1-1.286.759h-13.47v2.253A1.469,1.469,0,0,1,12763.346-3335.142Zm-6.576-30.944a9.518,9.518,0,0,0-1.523.087,6.088,6.088,0,0,0-5.113,6.03v13.5a4.677,4.677,0,0,0,4.674,4.67h20.987a21.145,21.145,0,0,1-2.054-9.141,21.345,21.345,0,0,1,21.321-21.322,21.8,21.8,0,0,1,2.693.17l2.6-2.25a7.173,7.173,0,0,1-4.144-6.476,7.12,7.12,0,0,1,4.361-6.573c-5.235-5.021-12.27-7.675-20.344-7.675-.884,0-1.784.032-2.675.1a.693.693,0,0,0-.562.373.706.706,0,0,0,.02.7l1.536,2.584h3.146a1.471,1.471,0,0,1,1.469,1.469,1.469,1.469,0,0,1-1.469,1.466h-1.738a13.5,13.5,0,0,1,.446,7.17c-1.131,5.417-4.48,7.734-8.359,10.417l-.142.1-.346.241c-.434.3-.857.6-1.283.9a18.691,18.691,0,0,1-11.629,3.484c-.224,0-.454,0-.671-.007h-.091c-.07,0-.138,0-.2,0h-.183l-.042,0h-.688Zm10.211-18.664a13.264,13.264,0,0,0-10.159,4.705l2.79,1.064,12.248,4.683a6.5,6.5,0,0,1,.526-.391l.019-.013.085-.059.026-.016a11.139,11.139,0,0,0,4.525-5.38A13.3,13.3,0,0,0,12766.98-3384.75Zm35.686-.206a4.187,4.187,0,0,0-3.52,4.14,4.182,4.182,0,0,0,3.5,4.136,12.446,12.446,0,0,0,.022-8.276Z" transform="translate(-12017.813 4310.641)" stroke="rgba(0,0,0,0)" stroke-miterlimit="10" stroke-width="1"/>
    <path id="Subtraction_10" data-name="Subtraction 10" d="M12733-3364a16.889,16.889,0,0,1-12.021-4.98A16.89,16.89,0,0,1,12716-3381a16.891,16.891,0,0,1,4.979-12.021A16.891,16.891,0,0,1,12733-3398a16.894,16.894,0,0,1,12.021,4.98A16.891,16.891,0,0,1,12750-3381a16.891,16.891,0,0,1-4.979,12.021A16.893,16.893,0,0,1,12733-3364Zm0-31a14.015,14.015,0,0,0-14,14,14.015,14.015,0,0,0,14,14,14.015,14.015,0,0,0,14-14A14.015,14.015,0,0,0,12733-3395Z" transform="translate(-11952 4341)" fill="#147db2"/>
    <g id="Ellipse_167" data-name="Ellipse 167" transform="translate(773 952)" fill="none" stroke="#147db2" stroke-width="2.5">
      <circle cx="8" cy="8" r="8" stroke="none"/>
      <circle cx="8" cy="8" r="6.75" fill="none"/>
    </g>
  </g>
</svg>
