<?xml version="1.0" encoding="utf-8"?>
<!-- Generator: Adobe Illustrator 14.0.0, SVG Export Plug-In . SVG Version: 6.00 Build 43363)  -->
<!DOCTYPE svg PUBLIC "-//W3C//DTD SVG 1.1//EN" "http://www.w3.org/Graphics/SVG/1.1/DTD/svg11.dtd">
<svg version="1.1" id="Layer_1" xmlns="http://www.w3.org/2000/svg" xmlns:xlink="http://www.w3.org/1999/xlink" x="0px" y="0px"
	 width="97.191px" height="53.079px" viewBox="0 0 97.191 53.079" enable-background="new 0 0 97.191 53.079" xml:space="preserve">
<path id="accident-icon" fill="#10BEDA" d="M36.636,52.684c-0.513-0.307-0.91-0.773-1.132-1.326l-3.984-9.922l1.967,0.039
	l5.083,2.781l2.029,5.053c0.565,1.406-0.117,3.006-1.523,3.571c-0.325,0.132-0.672,0.2-1.022,0.2
	C37.553,53.08,37.064,52.942,36.636,52.684z M62.27,45.571h-8.712c-1.963-0.002-3.554-1.593-3.557-3.556V28.731
	c0.063-1.977,1.457-3.661,3.388-4.09l10.605-2c1.628-0.411,3.062-1.376,4.055-2.73l8.7-13.477c1.174-1.638,3.032-2.651,5.046-2.748
	h11.843c1.963,0.002,3.554,1.593,3.557,3.556v34.772c-0.003,1.963-1.594,3.555-3.557,3.557H81.365
	c-1.238,4.244-5.127,7.162-9.547,7.167C67.397,52.733,63.509,49.815,62.27,45.571z M66.876,42.795c0,2.729,2.211,4.939,4.938,4.939
	l0,0c2.728,0,4.939-2.211,4.94-4.938c0-0.001,0-0.001,0-0.002c0.001-2.727-2.209-4.939-4.938-4.939c-0.001,0-0.002,0-0.003,0
	C69.087,37.856,66.876,40.067,66.876,42.795L66.876,42.795z M80.251,10.427l-6.3,10.322c-0.679,1.11-0.169,2.019,1.131,2.019h16.087
	c1.305-0.004,2.36-1.061,2.364-2.365v-9.628c-0.004-1.304-1.061-2.359-2.364-2.362h-7.324c-1.444,0.082-2.771,0.825-3.594,2.014
	V10.427z M42.551,43.934l-8.485-4.643L21.1,39.018c-0.478-0.009-0.944-0.143-1.354-0.39c-0.62-0.372-1.069-0.974-1.249-1.675l0,0
	c-0.159-0.748-3.291-15.383-3.463-16.176c-0.37-1.728,0.73-3.429,2.459-3.799c0.001,0,0.002,0,0.003,0
	c1.607-0.344,6.156-1.268,6.156-1.268l3.448-3.635l0.38-9.876c0.048-1.262,1.109-2.247,2.371-2.2c1.263,0.05,2.247,1.111,2.2,2.374
	l-0.411,10.735c-0.021,0.556-0.244,1.084-0.627,1.487L27.72,18.07l-5.939,0.712l8.621,1.179c0.637-0.724,4.615-5.237,5.233-5.937
	c0.837-0.945,2.28-1.035,3.228-0.2c0.947,0.835,1.039,2.28,0.205,3.229l-3.083,3.5l-3.086,3.5c-0.507,0.575-1.268,0.857-2.026,0.754
	l-9.369-1.412l7.1,2.863l1.191,5.573l-8.572,1.701l13.637,0.287c0.44,0.01,0.872,0.125,1.258,0.338l9.073,4.961
	c1.33,0.727,1.819,2.395,1.093,3.726l0,0c-0.482,0.882-1.407,1.429-2.412,1.429c-0.46,0-0.913-0.117-1.316-0.339L42.551,43.934z
	 M14.063,38.465c-0.213-0.127-0.381-0.316-0.482-0.543L6.688,22.698c-0.278-0.611-0.009-1.332,0.603-1.611
	c0.002-0.001,0.005-0.002,0.007-0.003c0.613-0.277,1.335-0.006,1.613,0.606l6.893,15.226c0.277,0.613,0.006,1.336-0.607,1.613
	c-0.001,0.001-0.001,0.002-0.002,0.002c-0.157,0.07-0.328,0.106-0.5,0.106c-0.221-0.001-0.438-0.061-0.627-0.175L14.063,38.465z
	 M8.344,37.94c-0.046-0.023-0.089-0.053-0.129-0.086l-7.756-6.117c-0.526-0.418-0.616-1.182-0.2-1.711
	c0.416-0.527,1.181-0.619,1.709-0.203c0.002,0.002,0.003,0.002,0.005,0.004l7.752,6.113c0.528,0.416,0.619,1.182,0.203,1.709
	c-0.001,0.002-0.002,0.004-0.003,0.004c-0.23,0.293-0.583,0.465-0.956,0.463c-0.22,0-0.434-0.063-0.621-0.177L8.344,37.94z
	 M16.579,14.416c-2.244-1.347-2.971-4.259-1.623-6.502c0.001-0.002,0.002-0.003,0.003-0.005c1.348-2.242,4.257-2.969,6.5-1.623
	c2.245,1.349,2.972,4.262,1.623,6.507c-0.858,1.429-2.403,2.302-4.07,2.3c-0.856-0.002-1.695-0.236-2.429-0.679L16.579,14.416z"/>
</svg>
