<svg xmlns="http://www.w3.org/2000/svg" width="73.001" height="63.267" viewBox="0 0 73.001 63.267">
  <g id="tractor" transform="translate(-1.001 -0.005)">
    <g id="Group_1978" data-name="Group 1978" transform="translate(1.001 0.005)">
      <g id="Group_1977" data-name="Group 1977">
        <path id="Path_16755" data-name="Path 16755" d="M416.676,426.672H403.293a1.217,1.217,0,1,0,0,2.433h13.383a1.217,1.217,0,0,0,0-2.433Z" transform="translate(-344.892 -365.839)"/>
        <path id="Path_16757" data-name="Path 16757" d="M54.542,426.672H2.226a1.217,1.217,0,1,0,0,2.433H54.542a1.217,1.217,0,0,0,0-2.433Z" transform="translate(-1.008 -365.839)"/>
        <path id="Path_16762" data-name="Path 16762" d="M76.576,238.939a7.3,7.3,0,1,0,7.3,7.3A7.3,7.3,0,0,0,76.576,238.939Zm0,12.167a4.867,4.867,0,1,1,4.867-4.867A4.867,4.867,0,0,1,76.576,251.106Z" transform="translate(-59.541 -204.872)" fill="#147db2"/>
        <path id="Path_16763" data-name="Path 16763" d="M72.785,121.822h-1.35a8.494,8.494,0,0,0-1.083-13.062V91.4a2.433,2.433,0,0,0-2.433-2.433h-7.3V78.022A1.217,1.217,0,0,0,59.4,76.805h-3.65a1.217,1.217,0,0,0,0,2.433h2.433v9.733H42.369a1.217,1.217,0,0,0-1.217,1.217v3.65H36.529A19.143,19.143,0,0,0,24.67,85.8l-1.151-5.219a1.217,1.217,0,1,0-2.376.524l.945,4.286c-.539-.045-1.078-.071-1.619-.071H14.385a1.217,1.217,0,1,0,0,2.433h2.433v2.5a17,17,0,0,0-7.512,31.571H2.219a1.217,1.217,0,1,0,0,2.433H72.785a1.217,1.217,0,0,0,0-2.433ZM19.252,87.755h1.217A17.046,17.046,0,0,1,37.5,104.788a1.217,1.217,0,1,0,2.433,0,19.393,19.393,0,0,0-1.973-8.517H64.269a1.217,1.217,0,1,0,0-2.433H43.585V91.405H67.919v16.182a8.433,8.433,0,0,0-6.8.852H35.007c.029-.4.062-.805.062-1.217A17.042,17.042,0,0,0,19.252,90.251ZM3.435,107.222a14.6,14.6,0,1,1,14.6,14.6A14.6,14.6,0,0,1,3.435,107.222Zm23.328,14.6a17.065,17.065,0,0,0,7.9-10.95H58.511a8.481,8.481,0,0,0,1.029,10.95H26.764Zm38.722,0a6.083,6.083,0,1,1,6.083-6.083A6.091,6.091,0,0,1,65.485,121.822Z" transform="translate(-1.001 -65.855)"/>
        <path id="Path_16764" data-name="Path 16764" d="M431.326,324.272a3.65,3.65,0,1,0,3.65,3.65A3.65,3.65,0,0,0,431.326,324.272Zm0,4.867a1.217,1.217,0,1,1,1.217-1.217A1.217,1.217,0,0,1,431.326,329.139Z" transform="translate(-366.841 -278.039)" fill="#147db2"/>
        <path id="Path_16765" data-name="Path 16765" d="M326.493,232.839h10.95a1.217,1.217,0,1,0,0-2.433h-10.95a1.217,1.217,0,0,0,0,2.433Z" transform="translate(-279.041 -197.556)"/>
        <path id="Path_16766" data-name="Path 16766" d="M326.493,266.972h10.95a1.217,1.217,0,1,0,0-2.433h-10.95a1.217,1.217,0,0,0,0,2.433Z" transform="translate(-279.041 -226.822)"/>
        <path id="Path_16767" data-name="Path 16767" d="M259.622,9.373a4.211,4.211,0,0,0-.112.973,4.258,4.258,0,0,0,7.869,2.255,4.259,4.259,0,0,0,2.472.787,1.217,1.217,0,0,0,0-2.433,1.817,1.817,0,0,1-1.8-1.493,1.279,1.279,0,1,0-2.5.517,1.632,1.632,0,0,1,.041.367,1.825,1.825,0,1,1-3.65,0,1.852,1.852,0,0,1,.365-1.1,1.217,1.217,0,0,0-.973-1.939,1.825,1.825,0,0,1,0-3.65,1.763,1.763,0,0,1,.911.243,1.217,1.217,0,0,0,1.582-.3A3,3,0,0,1,266.2,2.439a3.041,3.041,0,0,1,3.042,3.042,1.827,1.827,0,0,1-.032.393,1.217,1.217,0,0,0,.972,1.461,1.818,1.818,0,0,1,1.493,1.8,1.217,1.217,0,1,0,2.433,0,4.258,4.258,0,0,0-2.433-3.853A5.468,5.468,0,0,0,262.564,1.4a4.307,4.307,0,0,0-1.23-.178,4.258,4.258,0,0,0-1.713,8.152Z" transform="translate(-220.575 -0.005)" fill="#147db2"/>
      </g>
    </g>
  </g>
</svg>
