<svg xmlns="http://www.w3.org/2000/svg" width="72.525" height="72.524" viewBox="0 0 72.525 72.524">
  <g id="airplane" transform="translate(0 -0.31)">
    <path id="Path_16737" data-name="Path 16737" d="M61.241,25.936,66.684,21.1l.021-.017a18.167,18.167,0,0,0,5.637-15.9l-.2-1.4A3.664,3.664,0,0,0,69.061.69l-1.392-.2A18.185,18.185,0,0,0,51.738,6.151L46.9,11.594l-2.615-1.5A45.337,45.337,0,0,0,21.663,4.081l-2.25.008A6.077,6.077,0,0,0,14.183,7.12l-.424.736A1.212,1.212,0,0,0,14.2,9.51L37.3,22.845,19.251,43.293,17.869,45.07A25.5,25.5,0,0,0,5.642,41.934l-1.825-.008A3.69,3.69,0,0,0,.679,43.744l-.516.883a1.212,1.212,0,0,0,.444,1.657l11.758,6.789c-.333.645-.649,1.291-.937,1.955A4.846,4.846,0,0,0,17.807,61.4a.842.842,0,0,0,.091-.043c.606-.26,1.231-.567,1.865-.894l6.789,11.758a1.213,1.213,0,0,0,1.659.45l.891-.515h.007a3.7,3.7,0,0,0,1.809-3.152l-.008-1.8a25.5,25.5,0,0,0-3.145-12.236L29.514,53.6,49.978,35.535l13.342,23.1a1.213,1.213,0,0,0,1.655.444l.736-.423a6.077,6.077,0,0,0,3.031-5.232l.007-2.247a44.909,44.909,0,0,0-6.007-22.621ZM19.422,6.514l2.25-.008a42.758,42.758,0,0,1,21.4,5.685l2.211,1.272-6.369,7.525L16.478,8.03a3.654,3.654,0,0,1,2.944-1.516ZM3.823,44.35l1.818.008A23.091,23.091,0,0,1,16.372,47l-.761.981c-.44.556-.858,1.144-1.265,1.748-.121.175-.23.353-.346.531-.149.231-.305.455-.45.692L2.882,44.8a1.227,1.227,0,0,1,.941-.452ZM28.477,67.2l.009,1.791a1.236,1.236,0,0,1-.453.957L21.879,59.284c.235-.143.456-.3.685-.444.181-.121.364-.231.541-.352.588-.395,1.159-.8,1.7-1.224l.036-.027.994-.774A23.1,23.1,0,0,1,28.477,67.2Zm-.51-15.467-2.495,1.94a.02.02,0,0,0-.02.011l-2.114,1.649a27.971,27.971,0,0,1-3.707,2.457,29.241,29.241,0,0,1-2.767,1.38.863.863,0,0,0-.079.036,2.437,2.437,0,0,1-3.121-3.222A29.38,29.38,0,0,1,15.051,53.2a27.88,27.88,0,0,1,2.463-3.724l1.637-2.1a.024.024,0,0,1,.009-.019l1.958-2.522L53.533,7.781A15.766,15.766,0,0,1,65.079,2.732a15.541,15.541,0,0,1,2.243.162l1.392.2a1.224,1.224,0,0,1,1.031,1.027l.2,1.4A15.745,15.745,0,0,1,65.061,19.29Zm38.355,1.678A3.648,3.648,0,0,1,64.8,56.355L51.848,33.912l7.528-6.363,1.274,2.214a42.487,42.487,0,0,1,5.679,21.409Zm0,0" transform="translate(0 0)"/>
    <path id="Path_16738" data-name="Path 16738" d="M376.112,43.23a3.636,3.636,0,0,1,4.98,4.984,1.212,1.212,0,1,0,2.085,1.238,6.061,6.061,0,0,0-8.3-8.31,1.212,1.212,0,1,0,1.233,2.088Zm0,0" transform="translate(-317.56 -33.93)" fill="#147db2"/>
  </g>
</svg>
