<?xml version="1.0" encoding="utf-8"?>
<!-- Generator: Adobe Illustrator 16.0.0, SVG Export Plug-In . SVG Version: 6.00 Build 0)  -->
<!DOCTYPE svg PUBLIC "-//W3C//DTD SVG 1.1//EN" "http://www.w3.org/Graphics/SVG/1.1/DTD/svg11.dtd">
<svg version="1.1" id="Layer_1" xmlns="http://www.w3.org/2000/svg" xmlns:xlink="http://www.w3.org/1999/xlink" x="0px" y="0px"
	 width="71.503px" height="71.503px" viewBox="0 0 71.503 71.503" enable-background="new 0 0 71.503 71.503" xml:space="preserve">
<g id="Group_2116" transform="translate(-509 -3114.494)">
	<g id="graphic" transform="translate(509 3114.494)">
		
			<linearGradient id="Path_16911_1_" gradientUnits="userSpaceOnUse" x1="-265.5918" y1="426.8579" x2="-265.5918" y2="425.8843" gradientTransform="matrix(71.5 0 0 -71.5 19025.6465 30521.2949)">
			<stop  offset="0.13" style="stop-color:#00A9ED"/>
			<stop  offset="1" style="stop-color:#65106B"/>
		</linearGradient>
		<path id="Path_16911" fill="url(#Path_16911_1_)" d="M61.309,68.268v-1.159h-2.318v1.161h-9.278v-1.161h-2.319v1.161H36.954
			v-1.161h-2.319v1.161h-9.279v-1.161h-2.319v1.161H12.598v-1.161h-2.319v1.161h-6.96v-6.959h1.161v-2.32H3.319v-9.278h1.161v-2.319
			H3.319V36.954h1.161v-2.319H3.319V24.196h1.161v-2.319H3.319v-8.119h1.161v-2.32H3.319V1H1v69.585h69.585v-2.317H61.309z"/>
		
			<linearGradient id="Path_16912_1_" gradientUnits="userSpaceOnUse" x1="-264.8887" y1="425.6772" x2="-264.8887" y2="424.7036" gradientTransform="matrix(59.949 0 0 -58.6413 15915.7285 24969.9902)">
			<stop  offset="0.13" style="stop-color:#00A9ED"/>
			<stop  offset="1" style="stop-color:#65106B"/>
		</linearGradient>
		<path id="Path_16912" fill="url(#Path_16912_1_)" d="M11.438,64.79c2.552,0.01,4.629-2.053,4.639-4.605
			c0.004-1.321-0.556-2.579-1.539-3.46l8.614-16.421c1.078,0.268,2.217,0.118,3.19-0.418l5.584,6.12
			c-1.423,2.135-0.847,5.019,1.288,6.442c2.135,1.424,5.019,0.846,6.442-1.289c1.299-1.946,0.945-4.558-0.827-6.088l8.752-17.504
			c2.484,0.554,4.946-1.011,5.499-3.494c0.239-1.072,0.088-2.194-0.428-3.164l4.933-4.454c2.179,1.501,5.163,0.951,6.662-1.228
			c1.502-2.18,0.953-5.163-1.228-6.664c-2.179-1.501-5.163-0.951-6.664,1.229c-1.004,1.458-1.122,3.352-0.307,4.923l-4.933,4.458
			c-2.119-1.426-4.995-0.864-6.421,1.255c-1.308,1.944-0.956,4.559,0.819,6.088l-8.751,17.501c-1.059-0.233-2.165-0.076-3.115,0.445
			l-5.581-6.125c1.416-2.136,0.833-5.015-1.302-6.431c-2.136-1.416-5.015-0.833-6.431,1.303c-1.271,1.916-0.947,4.473,0.761,6.01
			l-8.614,16.422c-2.49-0.603-4.998,0.928-5.6,3.418s0.927,4.997,3.417,5.6C10.672,64.75,11.055,64.793,11.438,64.79z M60.15,10.278
			c1.281,0,2.319,1.039,2.319,2.319s-1.038,2.319-2.319,2.319s-2.319-1.038-2.319-2.319S58.869,10.278,60.15,10.278L60.15,10.278z
			 M48.551,20.716c1.281,0,2.32,1.039,2.32,2.32s-1.039,2.319-2.32,2.319c-1.279,0-2.317-1.037-2.319-2.317
			c0-1.281,1.038-2.32,2.317-2.322C48.551,20.716,48.551,20.716,48.551,20.716z M38.114,48.551c0,1.281-1.038,2.32-2.319,2.32
			c-1.28,0-2.318-1.039-2.318-2.32c0-1.279,1.038-2.319,2.318-2.319C37.076,46.232,38.114,47.272,38.114,48.551L38.114,48.551z
			 M24.197,33.475c1.281,0,2.319,1.038,2.319,2.319c0,1.279-1.039,2.319-2.319,2.319s-2.319-1.04-2.319-2.319
			C21.878,34.513,22.916,33.475,24.197,33.475L24.197,33.475z M11.438,57.831c1.281,0,2.319,1.038,2.319,2.319
			s-1.038,2.319-2.319,2.319c-1.281,0-2.319-1.038-2.319-2.319S10.157,57.831,11.438,57.831L11.438,57.831z"/>
	</g>
</g>
</svg>
