<svg xmlns="http://www.w3.org/2000/svg" width="96.027" height="72.748" viewBox="0 0 96.027 72.748">
  <g id="car_6_" data-name="car (6)" transform="translate(-1.972 -38.325)">
    <g id="Group_1879" data-name="Group 1879" transform="translate(19.418 42.981)">
      <g id="Group_1878" data-name="Group 1878">
        <path id="Path_16654" data-name="Path 16654" d="M158.175,178.355l-5.66-16.036a3.012,3.012,0,0,0-2.836-2.006H105.7a3.011,3.011,0,0,0-2.836,2.006L97.2,178.355a1.469,1.469,0,0,0,1.372,1.939H156.8a1.455,1.455,0,0,0,1.372-1.939Zm-57.544-.971,4.975-14.1a.1.1,0,0,1,.091-.065H149.68a.1.1,0,0,1,.092.065l4.975,14.1Z" transform="translate(-97.122 -160.313)"/>
      </g>
    </g>
    <g id="Group_1881" data-name="Group 1881" transform="translate(68.706 80.228)">
      <g id="Group_1880" data-name="Group 1880">
        <path id="Path_16655" data-name="Path 16655" d="M360.9,352.689c-5.167,0-9.215,2.684-9.215,6.111s4.048,6.111,9.215,6.111,9.215-2.684,9.215-6.111S366.069,352.689,360.9,352.689Zm0,9.312c-3.609,0-6.3-1.69-6.3-3.2s2.7-3.2,6.3-3.2,6.3,1.69,6.3,3.2S364.51,362,360.9,362Z" transform="translate(-351.687 -352.689)" fill="#147db2"/>
      </g>
    </g>
    <g id="Group_1883" data-name="Group 1883" transform="translate(12.835 80.228)">
      <g id="Group_1882" data-name="Group 1882">
        <path id="Path_16656" data-name="Path 16656" d="M72.338,352.689c-5.167,0-9.215,2.684-9.215,6.111s4.048,6.111,9.215,6.111,9.215-2.684,9.215-6.111S77.5,352.689,72.338,352.689Zm0,9.312c-3.608,0-6.3-1.69-6.3-3.2s2.7-3.2,6.3-3.2,6.3,1.69,6.3,3.2S75.946,362,72.338,362Z" transform="translate(-63.123 -352.689)" fill="#147db2"/>
      </g>
    </g>
    <g id="Group_1885" data-name="Group 1885" transform="translate(1.972 38.325)">
      <g id="Group_1884" data-name="Group 1884">
        <path id="Path_16657" data-name="Path 16657" d="M101.586,156.442h-7.76a1.455,1.455,0,0,0-1.411,1.1l-1.022,4.088-7.148-20.253a7.675,7.675,0,0,0-7.226-5.112H33.036a7.675,7.675,0,0,0-7.226,5.113l-7.148,20.253-1.022-4.088a1.455,1.455,0,0,0-1.411-1.1H8.468A1.455,1.455,0,0,0,7.013,157.9V164.1a1.455,1.455,0,0,0,1.455,1.455H16.5l-4.96,6.944a7.621,7.621,0,0,0-1.427,4.454v18.186a7.656,7.656,0,0,0,3.106,6.157c0,.017,0,.034,0,.051v4.656a3.01,3.01,0,0,0,3.007,3.007H25.54a3.01,3.01,0,0,0,3.007-3.007v-3.2H81.507v3.2a3.01,3.01,0,0,0,3.007,3.007h9.312a3.01,3.01,0,0,0,3.007-3.007v-4.656c0-.017,0-.034,0-.051a7.656,7.656,0,0,0,3.106-6.157V176.958a7.62,7.62,0,0,0-1.427-4.454l-4.96-6.944h8.037a1.455,1.455,0,0,0,1.455-1.455V157.9A1.454,1.454,0,0,0,101.586,156.442ZM9.923,162.649v-3.3h5.169l.824,3.3Zm15.714,43.358a.1.1,0,0,1-.1.1H16.228a.1.1,0,0,1-.1-.1v-3.2h9.506v3.2Zm68.286,0a.1.1,0,0,1-.1.1H84.514a.1.1,0,0,1-.1-.1v-3.2h9.506ZM92.274,199.9H17.78a4.761,4.761,0,0,1-4.524-3.3H96.8A4.76,4.76,0,0,1,92.274,199.9ZM67.539,184.183v3.3H42.514v-3.3Zm-24.8-2.91a4.76,4.76,0,0,1,4.524-3.3h15.52a4.761,4.761,0,0,1,4.524,3.3Zm24.8,9.118v3.3H42.514v-3.3Zm28.6-16.2a4.726,4.726,0,0,1,.885,2.762v16.731H70.45V182.728a7.672,7.672,0,0,0-7.663-7.663H47.267a7.672,7.672,0,0,0-7.663,7.663v10.961H13.027V176.958a4.726,4.726,0,0,1,.885-2.762l6.168-8.636H73.65a1.455,1.455,0,1,0,0-2.91H21.388l7.166-20.3a4.761,4.761,0,0,1,4.482-3.171H77.018a4.761,4.761,0,0,1,4.482,3.171l7.165,20.3H79.858a1.455,1.455,0,1,0,0,2.91H89.973Zm3.989-11.546H94.137l.824-3.3h5.169Z" transform="translate(-7.013 -136.266)"/>
      </g>
    </g>
    <g id="Group_1887" data-name="Group 1887" transform="translate(15.939 75.572)">
      <g id="Group_1886" data-name="Group 1886">
        <path id="Path_16658" data-name="Path 16658" d="M89.921,328.642H80.609a1.455,1.455,0,1,0,0,2.91h9.312a1.455,1.455,0,1,0,0-2.91Z" transform="translate(-79.154 -328.642)" fill="#147db2"/>
      </g>
    </g>
    <g id="Group_1889" data-name="Group 1889" transform="translate(71.81 75.572)">
      <g id="Group_1888" data-name="Group 1888">
        <path id="Path_16659" data-name="Path 16659" d="M378.485,328.642h-9.312a1.455,1.455,0,1,0,0,2.91h9.312a1.455,1.455,0,1,0,0-2.91Z" transform="translate(-367.718 -328.642)" fill="#147db2"/>
      </g>
    </g>
  </g>
</svg>
