<?xml version="1.0" encoding="utf-8"?>
<!-- Generator: Adobe Illustrator 16.0.0, SVG Export Plug-In . SVG Version: 6.00 Build 0)  -->
<!DOCTYPE svg PUBLIC "-//W3C//DTD SVG 1.1//EN" "http://www.w3.org/Graphics/SVG/1.1/DTD/svg11.dtd">
<svg version="1.1" id="Layer_1" xmlns="http://www.w3.org/2000/svg" xmlns:xlink="http://www.w3.org/1999/xlink" x="0px" y="0px"
	 width="73px" height="73px" viewBox="0 0 73 73" enable-background="new 0 0 73 73" xml:space="preserve">
<g id="Outline" transform="translate(-2 -2)">
	
		<linearGradient id="Path_16768_1_" gradientUnits="userSpaceOnUse" x1="-255.79" y1="419.2212" x2="-255.79" y2="418.2212" gradientTransform="matrix(24.334 0 0 -24.334 6249.5093 10203.3359)">
		<stop  offset="0.13" style="stop-color:#00A9ED"/>
		<stop  offset="1" style="stop-color:#65106B"/>
	</linearGradient>
	<path id="Path_16768" fill="url(#Path_16768_1_)" d="M25.117,26.334c6.719,0,12.167-5.447,12.167-12.167S31.836,2,25.117,2
		C18.397,2,12.95,7.447,12.95,14.167l0,0C12.95,20.887,18.397,26.334,25.117,26.334z M25.117,4.434c5.375,0,9.733,4.357,9.733,9.733
		S30.492,23.9,25.117,23.9c-5.375,0-9.733-4.357-9.733-9.733S19.742,4.434,25.117,4.434z"/>
	
		<linearGradient id="Rectangle_721_1_" gradientUnits="userSpaceOnUse" x1="-136.1997" y1="243.021" x2="-136.1997" y2="242.021" gradientTransform="matrix(2 0 0 -2 297.3999 521.0425)">
		<stop  offset="0.13" style="stop-color:#00A9ED"/>
		<stop  offset="1" style="stop-color:#65106B"/>
	</linearGradient>
	<rect id="Rectangle_721" x="24" y="35.001" fill="url(#Rectangle_721_1_)" width="2" height="2"/>
	
		<linearGradient id="Path_16769_1_" gradientUnits="userSpaceOnUse" x1="-258.8496" y1="426.4722" x2="-258.8496" y2="425.4722" gradientTransform="matrix(34.067 0 0 -45.0186 8876.2148 19229.123)">
		<stop  offset="0.13" style="stop-color:#00A9ED"/>
		<stop  offset="1" style="stop-color:#65106B"/>
	</linearGradient>
	<path id="Path_16769" fill="url(#Path_16769_1_)" d="M73.917,34.858c-5.38-0.583-10.6-2.189-15.377-4.732
		c-0.357-0.19-0.787-0.19-1.145,0c-4.777,2.542-9.998,4.148-15.378,4.732c-0.616,0.068-1.083,0.589-1.083,1.209v14.417
		c0.07,10.743,6.609,20.386,16.564,24.425c0.301,0.125,0.638,0.125,0.938,0C68.391,70.87,74.931,61.227,75,50.484V36.067
		C75,35.447,74.534,34.926,73.917,34.858z M72.568,50.484c-0.066,9.577-5.798,18.207-14.601,21.981
		c-8.802-3.774-14.533-12.404-14.6-21.981v-13.34c5.092-0.676,10.03-2.222,14.6-4.57c4.568,2.348,9.508,3.894,14.6,4.57
		L72.568,50.484z"/>
	
		<linearGradient id="Path_16770_1_" gradientUnits="userSpaceOnUse" x1="-255.4658" y1="411.9819" x2="-255.4658" y2="410.981" gradientTransform="matrix(23.62 0 0 -16.6799 6091.9653 6914.1968)">
		<stop  offset="0.13" style="stop-color:#00A9ED"/>
		<stop  offset="1" style="stop-color:#65106B"/>
	</linearGradient>
	<path id="Path_16770" fill="url(#Path_16770_1_)" d="M47.769,49.694l-1.726,1.725l7.301,7.299c0.475,0.475,1.244,0.475,1.72,0
		l14.601-14.6l-1.721-1.724L54.209,56.143L47.769,49.694z"/>
	
		<linearGradient id="Path_16771_1_" gradientUnits="userSpaceOnUse" x1="-260.585" y1="426.2358" x2="-260.585" y2="425.2358" gradientTransform="matrix(44.064 0 0 -43.803 11506.4512 18696.7129)">
		<stop  offset="0.13" style="stop-color:#00A9ED"/>
		<stop  offset="1" style="stop-color:#65106B"/>
	</linearGradient>
	<path id="Path_16771" fill="url(#Path_16771_1_)" d="M32.417,47.018h-5.54l-9.1-17.5c5.163,2.417,11.186,2.134,16.1-0.754h2.19
		c2.797,0.005,5.455,1.22,7.29,3.332c0.911-0.139,1.813-0.314,2.707-0.513c-2.267-3.288-6.006-5.252-10-5.252h-2.528
		c-0.23,0-0.455,0.065-0.65,0.187c-4.763,2.939-10.776,2.939-15.539,0c-0.194-0.121-0.418-0.184-0.647-0.184h-2.533
		C7.45,26.341,2.007,31.784,2,38.501v14.6c0.004,3.357,2.725,6.079,6.083,6.083h3.65v10.949h2.433V59.184h18.25
		c3.36,0,6.083-2.724,6.083-6.084C38.5,49.741,35.776,47.017,32.417,47.018L32.417,47.018z M8.083,56.75
		c-2.016,0-3.65-1.634-3.65-3.649l0,0v-14.6c-0.001-2.29,0.809-4.506,2.287-6.255l7.68,14.772h-2.667v2.434h3.934l3.8,7.299H8.083z
		 M22.205,56.75L8.579,30.545c1.633-1.157,3.586-1.778,5.588-1.778h0.478L29.2,56.75H22.205z M32.417,56.75h-0.478l-3.8-7.299h4.274
		c2.016,0,3.649,1.635,3.648,3.651c-0.001,2.015-1.634,3.647-3.648,3.647H32.417z"/>
</g>
</svg>
