<?xml version="1.0" encoding="utf-8"?>
<!-- Generator: Adobe Illustrator 14.0.0, SVG Export Plug-In . SVG Version: 6.00 Build 43363)  -->
<!DOCTYPE svg PUBLIC "-//W3C//DTD SVG 1.1//EN" "http://www.w3.org/Graphics/SVG/1.1/DTD/svg11.dtd">
<svg version="1.1" id="Layer_1" xmlns="http://www.w3.org/2000/svg" xmlns:xlink="http://www.w3.org/1999/xlink" x="0px" y="0px"
	 width="50.046px" height="49.057px" viewBox="0 0 50.046 49.057" enable-background="new 0 0 50.046 49.057" xml:space="preserve">
<g id="health-care" transform="translate(0 -4.501)">
	<path id="Path_15920" fill="#10BEDA" d="M40.751,21.441h-6.6v7.589h-7.589v6.6h7.589v7.589h6.6V35.63h7.59v-6.6h-7.59V21.441z"/>
	<path id="Path_15921" fill="#10BEDA" d="M23.263,25.729h7.589V18.14h13.2v7.589h3.828c4.077-6.439,2.163-14.965-4.275-19.042
		c-6.17-3.907-14.314-2.332-18.582,3.594C20.637,4.049,12.028,2.552,5.795,6.938c-6.233,4.387-7.729,12.995-3.343,19.228
		c0.208,0.297,0.429,0.585,0.66,0.864l21.91,26.527l5.83-7.059v-7.571h-7.59V25.729z"/>
</g>
</svg>
