<?xml version="1.0" encoding="utf-8"?>
<!-- Generator: Adobe Illustrator 16.0.0, SVG Export Plug-In . SVG Version: 6.00 Build 0)  -->
<!DOCTYPE svg PUBLIC "-//W3C//DTD SVG 1.1//EN" "http://www.w3.org/Graphics/SVG/1.1/DTD/svg11.dtd">
<svg version="1.1" id="board" xmlns="http://www.w3.org/2000/svg" xmlns:xlink="http://www.w3.org/1999/xlink" x="0px" y="0px"
	 width="71.713px" height="54.344px" viewBox="0 0 71.713 54.344" enable-background="new 0 0 71.713 54.344" xml:space="preserve">
<linearGradient id="Path_16844_1_" gradientUnits="userSpaceOnUse" x1="-265.5005" y1="416.436" x2="-265.5005" y2="415.436" gradientTransform="matrix(71.713 0 0 -54.346 19075.6875 22631.6172)">
	<stop  offset="0.13" style="stop-color:#00A9ED"/>
	<stop  offset="1" style="stop-color:#65106B"/>
</linearGradient>
<path id="Path_16844" fill="url(#Path_16844_1_)" d="M70.312,0H16.528v17.088H5.883C2.635,17.091,0.003,19.723,0,22.971v25.493
	c0.003,3.248,2.635,5.879,5.883,5.883H65.83c3.247-0.004,5.88-2.635,5.883-5.883V22.971c-0.003-3.248-2.636-5.88-5.883-5.883H55.185
	V0H70.312z M52.384,17.088h-4.063c-0.772,0-1.399,0.627-1.399,1.399c0,0.773,0.627,1.4,1.399,1.4H65.83
	c1.7,0.002,3.079,1.381,3.081,3.081v25.493c-0.002,1.699-1.381,3.078-3.081,3.08H5.883c-1.701,0-3.08-1.379-3.083-3.08V22.971
	c0.002-1.7,1.38-3.079,3.081-3.081H36.37c0.773,0,1.4-0.627,1.4-1.399c0-0.773-0.627-1.4-1.4-1.4H19.329V0h33.055V17.088z"/>
<linearGradient id="Path_16845_1_" gradientUnits="userSpaceOnUse" x1="-259.9214" y1="404.6128" x2="-259.9214" y2="403.6128" gradientTransform="matrix(28.3287 0 0 -20.634 7414.6284 8374.1631)">
	<stop  offset="0.13" style="stop-color:#00A9ED"/>
	<stop  offset="1" style="stop-color:#65106B"/>
</linearGradient>
<path id="Path_16845" fill="url(#Path_16845_1_)" d="M41.319,39.819h10.4c-1.17,1.941-0.545,4.461,1.395,5.629
	c1.609,0.969,3.672,0.721,5.005-0.602l6.228-6.227c1.602-1.602,1.602-4.197,0.001-5.799c-0.001,0-0.001-0.002-0.001-0.002
	l-6.228-6.227c-1.607-1.595-4.203-1.585-5.798,0.021c-1.324,1.334-1.572,3.395-0.602,5.004h-10.4c-2.265,0-4.1,1.836-4.1,4.1
	c0,2.266,1.835,4.1,4.1,4.1V39.819z M41.319,34.42h13.613c0.773,0,1.401-0.625,1.402-1.398c0-0.373-0.147-0.73-0.411-0.992
	l-1.618-1.619c-0.488-0.529-0.455-1.352,0.072-1.838c0.498-0.459,1.266-0.459,1.764,0l6.228,6.227c0.507,0.508,0.507,1.33,0,1.838
	l-6.228,6.227c-0.527,0.486-1.35,0.453-1.836-0.074c-0.461-0.498-0.461-1.266,0-1.764l1.618-1.617
	c0.548-0.547,0.548-1.434,0.003-1.98c-0.264-0.264-0.621-0.412-0.994-0.412H41.319c-0.719,0-1.301-0.582-1.301-1.299
	c0-0.719,0.582-1.301,1.301-1.301V34.42z"/>
<linearGradient id="Path_16846_1_" gradientUnits="userSpaceOnUse" x1="-255.8877" y1="283.2124" x2="-255.8877" y2="282.2124" gradientTransform="matrix(19.7083 0 0 -2.8 5059.1157 819.4613)">
	<stop  offset="0.13" style="stop-color:#00A9ED"/>
	<stop  offset="1" style="stop-color:#65106B"/>
</linearGradient>
<path id="Path_16846" fill="url(#Path_16846_1_)" d="M24.463,26.472h-16.9c-0.773-0.002-1.402,0.623-1.404,1.396
	c-0.002,0.773,0.623,1.402,1.396,1.404c0.003,0,0.005,0,0.008,0h16.9c0.773,0.002,1.402-0.623,1.404-1.396
	c0.002-0.773-0.623-1.401-1.396-1.404C24.468,26.472,24.466,26.472,24.463,26.472z"/>
<linearGradient id="Path_16847_1_" gradientUnits="userSpaceOnUse" x1="-255.8877" y1="283.2124" x2="-255.8877" y2="282.2124" gradientTransform="matrix(19.7083 0 0 -2.8 5059.1157 827.3051)">
	<stop  offset="0.13" style="stop-color:#00A9ED"/>
	<stop  offset="1" style="stop-color:#65106B"/>
</linearGradient>
<path id="Path_16847" fill="url(#Path_16847_1_)" d="M24.463,34.315h-16.9c-0.773-0.002-1.402,0.623-1.404,1.396
	c-0.002,0.773,0.623,1.402,1.396,1.404c0.003,0,0.005,0,0.008,0h16.9c0.773,0.002,1.402-0.623,1.404-1.396s-0.623-1.4-1.396-1.404
	C24.468,34.315,24.466,34.315,24.463,34.315z"/>
<linearGradient id="Path_16848_1_" gradientUnits="userSpaceOnUse" x1="-255.8877" y1="283.2124" x2="-255.8877" y2="282.2114" gradientTransform="matrix(19.7083 0 0 -2.8 5059.1157 835.1488)">
	<stop  offset="0.13" style="stop-color:#00A9ED"/>
	<stop  offset="1" style="stop-color:#65106B"/>
</linearGradient>
<path id="Path_16848" fill="url(#Path_16848_1_)" d="M24.463,42.159h-16.9c-0.773-0.002-1.402,0.623-1.404,1.396
	c-0.002,0.773,0.623,1.4,1.396,1.404c0.003,0,0.005,0,0.008,0h16.9c0.773,0.002,1.402-0.623,1.404-1.396s-0.623-1.402-1.396-1.404
	C24.468,42.159,24.466,42.159,24.463,42.159z"/>
<linearGradient id="Path_16849_1_" gradientUnits="userSpaceOnUse" x1="-175.8428" y1="406.3188" x2="-175.8428" y2="405.3188" gradientTransform="matrix(2.8 0 0 -22.663 523.5466 9233.7793)">
	<stop  offset="0.13" style="stop-color:#00A9ED"/>
	<stop  offset="1" style="stop-color:#65106B"/>
</linearGradient>
<path id="Path_16849" fill="url(#Path_16849_1_)" d="M31.188,25.389c-0.773,0-1.4,0.627-1.4,1.4v19.862c0,0.773,0.627,1.4,1.4,1.4
	c0.773,0,1.4-0.627,1.4-1.4V26.79C32.588,26.017,31.961,25.39,31.188,25.389L31.188,25.389z"/>
<linearGradient id="Path_16850_1_" gradientUnits="userSpaceOnUse" x1="-175.8418" y1="283.2134" x2="-175.8418" y2="282.2134" gradientTransform="matrix(2.8 0 0 -2.8 534.6995 810.0847)">
	<stop  offset="0.13" style="stop-color:#00A9ED"/>
	<stop  offset="1" style="stop-color:#65106B"/>
</linearGradient>
<path id="Path_16850" fill="url(#Path_16850_1_)" d="M42.347,19.888c0.772,0,1.399-0.627,1.399-1.4c0-0.772-0.627-1.399-1.4-1.399
	c-0.772,0-1.399,0.627-1.399,1.4c0,0.371,0.146,0.727,0.41,0.989C41.618,19.74,41.975,19.888,42.347,19.888z"/>
</svg>
