<svg id="graphic" xmlns="http://www.w3.org/2000/svg" width="71.503" height="71.503" viewBox="0 0 71.503 71.503">
  <path id="Path_16911" data-name="Path 16911" d="M61.969,69.119V67.928H59.586v1.192H50.052V67.928H47.669v1.192H36.943V67.928H34.56v1.192H25.026V67.928H22.643v1.192H11.917V67.928H9.534v1.192H2.383v-7.15H3.575V59.586H2.383V50.052H3.575V47.669H2.383V36.943H3.575V34.56H2.383V23.834H3.575V21.451H2.383V13.109H3.575V10.725H2.383V0H0V71.5H71.5V69.119Zm0,0"/>
  <path id="Path_16912" data-name="Path 16912" d="M44.5,105a4.749,4.749,0,0,0,3.185-8.287l8.851-16.872a4.53,4.53,0,0,0,3.278-.431L65.552,85.7a4.773,4.773,0,1,0,7.094-.962l8.993-17.984a4.733,4.733,0,0,0,5.209-6.841l5.069-4.576a4.923,4.923,0,1,0-1.578-1.788L85.27,58.129a4.753,4.753,0,0,0-5.755,7.545L70.522,83.657a4.6,4.6,0,0,0-3.2.456L61.588,77.82a4.767,4.767,0,1,0-7.164.907L45.573,95.6A4.767,4.767,0,1,0,44.5,105ZM94.552,48.989a2.383,2.383,0,1,1-2.383,2.383A2.384,2.384,0,0,1,94.552,48.989ZM82.635,59.715A2.383,2.383,0,1,1,80.252,62.1,2.384,2.384,0,0,1,82.635,59.715ZM71.91,88.316a2.383,2.383,0,1,1-2.383-2.383A2.384,2.384,0,0,1,71.91,88.316Zm-14.3-15.492a2.383,2.383,0,1,1-2.383,2.383A2.384,2.384,0,0,1,57.609,72.824ZM44.5,97.85a2.383,2.383,0,1,1-2.383,2.383A2.384,2.384,0,0,1,44.5,97.85Zm0,0" transform="translate(-33.775 -39.456)" fill="#147db2"/>
</svg>
