<?xml version="1.0" encoding="utf-8"?>
<!-- Generator: Adobe Illustrator 16.0.0, SVG Export Plug-In . SVG Version: 6.00 Build 0)  -->
<!DOCTYPE svg PUBLIC "-//W3C//DTD SVG 1.1//EN" "http://www.w3.org/Graphics/SVG/1.1/DTD/svg11.dtd">
<svg version="1.1" id="Layer_1" xmlns="http://www.w3.org/2000/svg" xmlns:xlink="http://www.w3.org/1999/xlink" x="0px" y="0px"
	 width="59.961px" height="85.15px" viewBox="0 0 59.961 85.15" enable-background="new 0 0 59.961 85.15" xml:space="preserve">
<g id="Group_2077" transform="translate(-574.964 -4210.996)">
	<g id="family" transform="matrix(0.857, -0.515, 0.515, 0.857, 574.973, 4235.496)">
		<g id="Group_1982">
			<g id="Group_1981">
				
					<linearGradient id="Path_16773_1_" gradientUnits="userSpaceOnUse" x1="-441.1159" y1="201.3953" x2="-441.1159" y2="200.3953" gradientTransform="matrix(40.7741 15.8838 24.5026 -26.4319 13074.6846 12324.9102)">
					<stop  offset="0.13" style="stop-color:#00A9ED"/>
					<stop  offset="1" style="stop-color:#65106B"/>
				</linearGradient>
				<path id="Path_16773" fill="url(#Path_16773_1_)" d="M39.997,0.055c-2.267-1.72-4.834-3.001-7.57-3.777
					c-2.976-0.854-6.06-1.276-9.157-1.253c-3.097-0.023-6.181,0.399-9.158,1.253c-2.736,0.776-5.303,2.058-7.57,3.777
					C1.919,3.648-0.703,9.238-0.512,15.09l0,1.858c0,0.513,0.416,0.929,0.93,0.928c0.513,0.001,0.929-0.415,0.929-0.928l0-0.929
					l5.573,0l0,0.929c-0.001,0.513,0.415,0.929,0.929,0.929c0.513,0,0.929-0.416,0.929-0.929l0-0.929l5.945,0l0,0.929
					c0,0.513,0.416,0.929,0.93,0.929c0.512-0.001,0.928-0.416,0.928-0.929l0-0.929l5.759,0l0,8.918
					c-0.001,0.513,0.415,0.929,0.929,0.93c0.513,0,0.929-0.416,0.929-0.929c0,0-0.001-0.001-0.001-0.002l0-8.918l5.759,0l0,0.929
					c0,0.513,0.415,0.928,0.928,0.928s0.929-0.416,0.929-0.929l0-0.929l5.946,0.001l0,0.929c0,0.513,0.415,0.928,0.928,0.928
					s0.929-0.416,0.929-0.929l0-0.929l5.57,0l0,0.929c0.001,0.514,0.417,0.93,0.93,0.93s0.929-0.416,0.929-0.929l0-1.858
					C47.239,9.238,44.618,3.649,39.997,0.055z M8.48,6.436c-0.951,2.468-1.473,5.081-1.543,7.725l-5.57,0
					C1.726,6.098,6.788,0.253,14.95-2.039c-0.898,0.653-1.735,1.388-2.5,2.194c-0.828,0.873-1.57,1.824-2.217,2.839
					C9.54,4.083,8.953,5.235,8.48,6.436z M14.738,14.161l-5.942,0c0.029-4.718,1.811-9.256,5-12.733
					c1.906-2.045,4.348-3.513,7.048-4.238c-0.803,0.986-1.532,2.03-2.18,3.125C16.201,4.522,14.85,9.287,14.738,14.161z
					 M16.598,14.161L16.598,14.161c0.109-4.512,1.354-8.924,3.62-12.828c0.858-1.473,1.882-2.843,3.05-4.084
					c4.21,4.637,6.584,10.65,6.675,16.913L16.598,14.161z M39.597,14.161c-0.046-1.455-0.221-2.905-0.522-4.33
					c-0.107-0.501-0.601-0.82-1.103-0.713c-0.502,0.107-0.822,0.601-0.713,1.103l0,0c0.273,1.297,0.434,2.615,0.481,3.941l-5.939,0
					c-0.111-4.874-1.461-9.639-3.924-13.847c-0.647-1.094-1.375-2.137-2.178-3.123c1.206,0.302,2.365,0.771,3.443,1.393
					c2.182,1.268,4.039,3.025,5.424,5.134c0.285,0.428,0.861,0.544,1.288,0.26c0.428-0.284,0.544-0.86,0.261-1.288l0,0
					c-0.806-1.214-1.749-2.33-2.813-3.325c-0.542-0.506-1.114-0.977-1.714-1.412c8.163,2.3,13.226,8.142,13.588,16.206
					L39.597,14.161z"/>
			</g>
		</g>
		<g id="Group_1984" transform="translate(36.658 10.528)">
			<g id="Group_1983">
				
					<linearGradient id="Path_16774_1_" gradientUnits="userSpaceOnUse" x1="-344.0007" y1="2.1669" x2="-344.0007" y2="1.166" gradientTransform="matrix(1.5944 0.9582 0.9581 -1.5944 546.8064 328.0865)">
					<stop  offset="0.13" style="stop-color:#00A9ED"/>
					<stop  offset="1" style="stop-color:#65106B"/>
				</linearGradient>
				<path id="Path_16774" fill="url(#Path_16774_1_)" d="M1.276-4.4C1.08-4.874,0.535-5.098,0.061-4.9
					c-0.474,0.197-0.699,0.742-0.502,1.215c0.198,0.474,0.742,0.699,1.217,0.501c0.227-0.094,0.406-0.274,0.502-0.501
					C1.371-3.914,1.373-4.171,1.276-4.4z"/>
			</g>
		</g>
	</g>
	<g id="list_1_" transform="translate(591.5 4249)">
		
			<linearGradient id="Path_16976_1_" gradientUnits="userSpaceOnUse" x1="-284.4043" y1="393.1426" x2="-284.4043" y2="392.1426" gradientTransform="matrix(36.935 0 0 -47.151 10526.4229 18533.0313)">
			<stop  offset="0.13" style="stop-color:#00A9ED"/>
			<stop  offset="1" style="stop-color:#65106B"/>
		</linearGradient>
		<path id="Path_16976" fill="url(#Path_16976_1_)" d="M28.972-4H3.5v47.151h36.935V7.462L28.972-4z M29.433-1.317l8.318,8.316
			h-8.318V-1.317z M5.071,41.579V-2.428h22.79V8.571h11v33.008H5.071z"/>
		
			<linearGradient id="Path_16977_1_" gradientUnits="userSpaceOnUse" x1="-272.8838" y1="163.2314" x2="-272.8838" y2="162.2314" gradientTransform="matrix(14.146 0 0 -1.572 3885.7202 269.1019)">
			<stop  offset="0.13" style="stop-color:#00A9ED"/>
			<stop  offset="1" style="stop-color:#65106B"/>
		</linearGradient>
		<path id="Path_16977" fill="url(#Path_16977_1_)" d="M31.791,12.503H19.216c-0.434,0-0.785,0.352-0.785,0.785
			c0,0.436,0.352,0.787,0.785,0.787h12.574c0.434,0,0.785-0.352,0.785-0.787C32.576,12.854,32.224,12.503,31.791,12.503z"/>
		
			<linearGradient id="Path_16978_1_" gradientUnits="userSpaceOnUse" x1="-254.1172" y1="321.7822" x2="-254.1172" y2="320.7822" gradientTransform="matrix(7.0549 0 0 -4.7154 1806.8857 1527.4846)">
			<stop  offset="0.13" style="stop-color:#00A9ED"/>
			<stop  offset="1" style="stop-color:#65106B"/>
		</linearGradient>
		<path id="Path_16978" fill="url(#Path_16978_1_)" d="M16.373,10.317l-3.38,2.701l-1.078-1.072
			c-0.317-0.297-0.814-0.281-1.111,0.035c-0.283,0.303-0.283,0.773,0,1.076l1.57,1.572c0.282,0.283,0.733,0.309,1.046,0.059
			l3.93-3.143c0.34-0.271,0.395-0.766,0.123-1.105c-0.271-0.338-0.766-0.395-1.105-0.123H16.373z"/>
		
			<linearGradient id="Path_16979_1_" gradientUnits="userSpaceOnUse" x1="-272.8852" y1="163.2314" x2="-272.8852" y2="162.2324" gradientTransform="matrix(14.1471 0 0 -1.572 3886.0332 277.7465)">
			<stop  offset="0.13" style="stop-color:#00A9ED"/>
			<stop  offset="1" style="stop-color:#65106B"/>
		</linearGradient>
		<path id="Path_16979" fill="url(#Path_16979_1_)" d="M31.791,21.147H19.216c-0.434-0.002-0.787,0.35-0.787,0.783
			c0,0.436,0.352,0.787,0.785,0.787h0.002h12.574c0.434,0,0.785-0.352,0.785-0.785S32.224,21.147,31.791,21.147z"/>
		
			<linearGradient id="Path_16980_1_" gradientUnits="userSpaceOnUse" x1="-254.3061" y1="321.7813" x2="-254.3061" y2="320.7813" gradientTransform="matrix(7.0905 0 0 -4.7154 1817.2637 1536.1252)">
			<stop  offset="0.13" style="stop-color:#00A9ED"/>
			<stop  offset="1" style="stop-color:#65106B"/>
		</linearGradient>
		<path id="Path_16980" fill="url(#Path_16980_1_)" d="M16.373,18.962l-3.38,2.699l-1.078-1.072
			c-0.298-0.316-0.795-0.332-1.111-0.035s-0.333,0.795-0.036,1.111c0.012,0.012,0.023,0.023,0.036,0.035l1.57,1.574
			c0.282,0.283,0.733,0.309,1.046,0.059l3.93-3.143c0.34-0.271,0.395-0.768,0.123-1.105c-0.271-0.34-0.766-0.395-1.105-0.123l0,0
			H16.373z"/>
		
			<linearGradient id="Path_16981_1_" gradientUnits="userSpaceOnUse" x1="-272.8838" y1="163.2314" x2="-272.8838" y2="162.2314" gradientTransform="matrix(14.146 0 0 -1.572 3885.7202 286.391)">
			<stop  offset="0.13" style="stop-color:#00A9ED"/>
			<stop  offset="1" style="stop-color:#65106B"/>
		</linearGradient>
		<path id="Path_16981" fill="url(#Path_16981_1_)" d="M31.791,29.792H19.216c-0.434,0-0.787,0.35-0.787,0.785
			c0,0.434,0.352,0.785,0.785,0.787h0.002h12.574c0.434-0.002,0.785-0.354,0.785-0.787S32.224,29.792,31.791,29.792z"/>
		
			<linearGradient id="Path_16982_1_" gradientUnits="userSpaceOnUse" x1="-254.1172" y1="321.7813" x2="-254.1172" y2="320.7813" gradientTransform="matrix(7.0549 0 0 -4.7154 1806.8857 1544.7698)">
			<stop  offset="0.13" style="stop-color:#00A9ED"/>
			<stop  offset="1" style="stop-color:#65106B"/>
		</linearGradient>
		<path id="Path_16982" fill="url(#Path_16982_1_)" d="M16.373,27.606l-3.38,2.699l-1.078-1.072
			c-0.317-0.297-0.814-0.281-1.111,0.035c-0.283,0.303-0.283,0.773,0,1.076l1.57,1.574c0.282,0.283,0.733,0.309,1.046,0.059
			l3.93-3.145c0.34-0.27,0.395-0.766,0.123-1.104c-0.271-0.34-0.766-0.395-1.105-0.123H16.373z"/>
	</g>
</g>
</svg>
