<?xml version="1.0" encoding="utf-8"?>
<!-- Generator: Adobe Illustrator 16.0.0, SVG Export Plug-In . SVG Version: 6.00 Build 0)  -->
<!DOCTYPE svg PUBLIC "-//W3C//DTD SVG 1.1//EN" "http://www.w3.org/Graphics/SVG/1.1/DTD/svg11.dtd">
<svg version="1.1" id="Layer_1" xmlns="http://www.w3.org/2000/svg" xmlns:xlink="http://www.w3.org/1999/xlink" x="0px" y="0px"
	 width="82.699px" height="72.523px" viewBox="0 0 82.699 72.523" enable-background="new 0 0 82.699 72.523" xml:space="preserve">
<g id="Group_1945" transform="translate(-604.996 -1129.978)">
	<g id="Group_1944" transform="translate(-56 16)">
		
			<linearGradient id="Path_16729_1_" gradientUnits="userSpaceOnUse" x1="813.9022" y1="29.676" x2="813.9022" y2="30.5833" gradientTransform="matrix(26.003 0 0 26.002 -20460.8457 368.6067)">
			<stop  offset="0.13" style="stop-color:#00A9ED"/>
			<stop  offset="1" style="stop-color:#65106B"/>
		</linearGradient>
		<path id="Path_16729" fill="url(#Path_16729_1_)" d="M706.938,1140.234h-7.815c-0.894,0.001-1.62,0.726-1.62,1.621v4.641h-4.643
			c-0.894,0.001-1.62,0.728-1.621,1.621v7.816c0,0.895,0.727,1.618,1.621,1.62h4.643v4.641c0,0.894,0.726,1.621,1.62,1.621h7.815
			c0.895,0,1.621-0.728,1.621-1.621v-4.643h4.643c0.894,0,1.618-0.726,1.619-1.62v-7.814c-0.001-0.894-0.726-1.62-1.619-1.621
			h-4.643v-4.641C708.559,1140.959,707.835,1140.235,706.938,1140.234z M712.989,1148.326v7.396h-4.641
			c-0.895,0-1.62,0.725-1.62,1.618v4.642h-7.394v-4.642c-0.001-0.894-0.727-1.618-1.621-1.618h-4.642v-7.396h4.642
			c0.894-0.001,1.619-0.725,1.621-1.621v-4.642h7.394v4.642c0,0.895,0.726,1.62,1.62,1.621H712.989z"/>
	</g>
	<g id="heart-shape" transform="translate(605 1127.508)">
		
			<linearGradient id="Path_16730_1_" gradientUnits="userSpaceOnUse" x1="-521.611" y1="10.665" x2="-521.611" y2="11.5736" gradientTransform="matrix(82.6881 0 0 72.5474 43173.3359 -765.9287)">
			<stop  offset="0.13" style="stop-color:#00A9ED"/>
			<stop  offset="1" style="stop-color:#65106B"/>
		</linearGradient>
		<path id="Path_16730" fill="url(#Path_16730_1_)" d="M10.447,41.804c0.034,0.057,0.076,0.108,0.123,0.154l29.468,31.315
			c0.213,0.226,0.51,0.356,0.82,0.361h0.021c0.3,0.001,0.589-0.115,0.806-0.323l32.187-31.12c0.014-0.011,0.14-0.126,0.216-0.198
			c0.051-0.042,0.093-0.095,0.127-0.15c7.688-7.972,7.455-20.667-0.518-28.353c-7.973-7.688-20.666-7.457-28.354,0.516
			c-1.162,1.206-2.168,2.551-2.995,4.006c-5.462-9.635-17.701-13.019-27.337-7.557c-9.636,5.462-13.021,17.7-7.558,27.337
			C8.28,39.249,9.285,40.598,10.447,41.804z M24.908,10.183c7.161-0.01,13.623,4.295,16.37,10.907
			c0.249,0.589,0.927,0.867,1.519,0.619c0.277-0.118,0.501-0.34,0.618-0.619c3.768-9.045,14.154-13.323,23.198-9.555
			c9.044,3.768,13.321,14.153,9.554,23.198c-0.873,2.095-2.14,4.005-3.731,5.624c-0.03,0.029-0.058,0.063-0.084,0.097l-31.43,30.381
			l-28.513-30.29c-0.042-0.068-0.093-0.134-0.151-0.192c-6.87-6.978-6.782-18.204,0.197-25.074
			C15.774,12.009,20.248,10.18,24.908,10.183z"/>
	</g>
</g>
</svg>
