<?xml version="1.0" encoding="utf-8"?>
<!-- Generator: Adobe Illustrator 16.0.0, SVG Export Plug-In . SVG Version: 6.00 Build 0)  -->
<!DOCTYPE svg PUBLIC "-//W3C//DTD SVG 1.1//EN" "http://www.w3.org/Graphics/SVG/1.1/DTD/svg11.dtd">
<svg version="1.1" id="Layer_1" xmlns="http://www.w3.org/2000/svg" xmlns:xlink="http://www.w3.org/1999/xlink" x="0px" y="0px"
	 width="86.346px" height="73px" viewBox="0 0 86.346 73" enable-background="new 0 0 86.346 73" xml:space="preserve">
<g id="care_1_" transform="translate(0 -39.564)">
	<g id="Group_1902" transform="translate(0 80.629)">
		<g id="Group_1901">
			
				<linearGradient id="Path_16683_1_" gradientUnits="userSpaceOnUse" x1="-257.3337" y1="379.9135" x2="-257.3337" y2="378.9135" gradientTransform="matrix(56.7345 0 0 -31.939 14629.0664 12134.0381)">
				<stop  offset="0.13" style="stop-color:#00A9ED"/>
				<stop  offset="1" style="stop-color:#65106B"/>
			</linearGradient>
			<path id="Path_16683" fill="url(#Path_16683_1_)" d="M52.53,21.531h-6.543c-0.932,0-1.687,0.756-1.687,1.687
				c0,0.932,0.755,1.687,1.687,1.687h6.543c1.012,0,1.832,0.82,1.832,1.832s-0.82,1.831-1.832,1.831H34.916
				c-2.64,0.005-5.145-1.169-6.831-3.2l-4.212-5.063c-2.247-2.707-5.552-4.314-9.069-4.409V5.934h6.209
				c3.047-0.005,5.976,1.179,8.164,3.3l9.091,8.775c0.625,0.668,0.588,1.717-0.081,2.342c-0.609,0.568-1.546,0.596-2.188,0.064
				l-7.14-6.541c-0.687-0.63-1.753-0.584-2.382,0.104c-0.629,0.686-0.583,1.752,0.104,2.382l7.137,6.543
				c1.995,1.933,5.179,1.882,7.111-0.112c1.933-1.995,1.882-5.18-0.113-7.111c-0.035-0.035-0.071-0.068-0.107-0.102l-9.091-8.774
				c-2.815-2.731-6.584-4.255-10.506-4.249h-6.536c-0.654-1.549-2.171-2.557-3.852-2.559H2.686C1.755-0.004,1,0.751,1,1.682
				c0,0.001,0,0.003,0,0.004v12.331c-0.022,0.932,0.714,1.705,1.646,1.728c0.931,0.022,1.705-0.714,1.728-1.646
				c0-0.027,0-0.055,0-0.082V3.372h6.251c0.445,0,0.807,0.361,0.807,0.807v13.516c0,0.445-0.362,0.807-0.807,0.807H8.873
				c-0.932,0-1.687,0.756-1.687,1.688c0,0.931,0.755,1.686,1.687,1.686h1.751c1.705-0.002,3.238-1.039,3.876-2.621
				c2.622,0.012,5.105,1.184,6.78,3.201l4.212,5.063c2.326,2.803,5.78,4.423,9.423,4.418H52.53c2.875,0,5.205-2.33,5.205-5.204
				s-2.33-5.204-5.205-5.204V21.531z"/>
		</g>
	</g>
	<g id="Group_1904" transform="translate(29.612 39.568)">
		<g id="Group_1903">
			
				<linearGradient id="Path_16684_1_" gradientUnits="userSpaceOnUse" x1="-286.9453" y1="420.9735" x2="-286.9453" y2="419.9735" gradientTransform="matrix(56.7275 0 0 -31.937 16307.0283 13444.6221)">
				<stop  offset="0.13" style="stop-color:#00A9ED"/>
				<stop  offset="1" style="stop-color:#65106B"/>
			</linearGradient>
			<path id="Path_16684" fill="url(#Path_16684_1_)" d="M56.047,15.577c-0.931,0-1.687,0.755-1.687,1.686l0,0v11.3h-6.25
				c-0.446,0-0.807-0.361-0.808-0.807V14.244c-0.003-0.446,0.358-0.81,0.804-0.812c0.002,0,0.002,0,0.004,0h1.627
				c0.932-0.023,1.668-0.796,1.646-1.728c-0.022-0.899-0.746-1.624-1.646-1.646h-1.627c-1.705,0.002-3.238,1.038-3.877,2.619
				c-2.622-0.011-5.104-1.183-6.779-3.2l-4.213-5.063c-2.325-2.803-5.779-4.423-9.422-4.419H6.204c-2.874,0-5.204,2.33-5.204,5.204
				c0,2.874,2.33,5.204,5.204,5.204h7.206c0.932-0.023,1.667-0.796,1.645-1.728c-0.021-0.9-0.746-1.624-1.645-1.646h-7.2
				c-1.011,0-1.831-0.82-1.831-1.832c0-1.012,0.82-1.832,1.831-1.832h17.614c2.641-0.004,5.145,1.169,6.832,3.2l4.211,5.063
				c2.248,2.707,5.553,4.313,9.069,4.409V26h-6.209c-3.047,0.005-5.976-1.179-8.164-3.3l-9.1-8.768
				c-0.65-0.644-0.655-1.693-0.013-2.343c0.621-0.627,1.625-0.658,2.283-0.07l7.137,6.543c0.688,0.629,1.754,0.583,2.383-0.104
				s0.584-1.753-0.104-2.382l-7.14-6.544C23.015,7.1,19.832,7.15,17.899,9.145c-1.933,1.995-1.882,5.178,0.112,7.111
				c0.035,0.034,0.072,0.068,0.107,0.101l9.092,8.775c2.815,2.729,6.585,4.251,10.506,4.243h6.535
				c0.654,1.549,2.172,2.556,3.853,2.558h7.938c0.931,0,1.686-0.755,1.686-1.686l0,0V17.263
				C57.728,16.334,56.976,15.58,56.047,15.577L56.047,15.577z"/>
		</g>
	</g>
	<g id="Group_1906" transform="translate(51.203 95.926)">
		<g id="Group_1905">
			
				<linearGradient id="Path_16685_1_" gradientUnits="userSpaceOnUse" x1="-238.1476" y1="263.7357" x2="-238.1476" y2="262.7357" gradientTransform="matrix(3.4044 0 0 -3.4008 813.4355 896.9077)">
				<stop  offset="0.13" style="stop-color:#00A9ED"/>
				<stop  offset="1" style="stop-color:#65106B"/>
			</linearGradient>
			<path id="Path_16685" fill="url(#Path_16685_1_)" d="M4.241,0.993C3.862,0.134,2.858-0.255,1.999,0.124
				c-0.858,0.38-1.247,1.384-0.868,2.242C1.508,3.22,2.502,3.611,3.36,3.242l0.035-0.017C4.245,2.841,4.623,1.843,4.241,0.993
				L4.241,0.993z"/>
		</g>
	</g>
	<g id="Group_1908" transform="translate(55.585 93.397)">
		<g id="Group_1907">
			
				<linearGradient id="Path_16686_1_" gradientUnits="userSpaceOnUse" x1="-242.1931" y1="265.7119" x2="-242.1931" y2="264.7119" gradientTransform="matrix(3.3892 0 0 -3.3842 823.521 899.223)">
				<stop  offset="0.13" style="stop-color:#00A9ED"/>
				<stop  offset="1" style="stop-color:#65106B"/>
			</linearGradient>
			<path id="Path_16686" fill="url(#Path_16686_1_)" d="M4.052,0.683C3.499-0.071,2.441-0.235,1.687,0.315
				C0.933,0.867,0.768,1.926,1.32,2.681C1.87,3.435,2.929,3.599,3.683,3.048l0.021-0.016C4.448,2.479,4.605,1.428,4.052,0.683
				C4.051,0.683,4.051,0.683,4.052,0.683L4.052,0.683z"/>
		</g>
	</g>
	<g id="Group_1910" transform="translate(46.38 97.475)">
		<g id="Group_1909">
			
				<linearGradient id="Path_16687_1_" gradientUnits="userSpaceOnUse" x1="-233.3802" y1="262.1808" x2="-233.3802" y2="261.1808" gradientTransform="matrix(3.4069 0 0 -3.4006 797.7969 891.5554)">
				<stop  offset="0.13" style="stop-color:#00A9ED"/>
				<stop  offset="1" style="stop-color:#65106B"/>
			</linearGradient>
			<path id="Path_16687" fill="url(#Path_16687_1_)" d="M4.351,1.337c-0.186-0.92-1.084-1.515-2.004-1.328
				c-0.92,0.188-1.514,1.084-1.328,2.004c0.186,0.913,1.07,1.507,1.986,1.332l0.049-0.01C3.964,3.144,4.547,2.25,4.356,1.34
				C4.355,1.339,4.355,1.337,4.355,1.335L4.351,1.337z"/>
		</g>
	</g>
	<g id="Group_1912" transform="translate(59.332 89.979)">
		<g id="Group_1911">
			
				<linearGradient id="Path_16688_1_" gradientUnits="userSpaceOnUse" x1="-245.5603" y1="268.7012" x2="-245.5603" y2="267.7022" gradientTransform="matrix(3.3721 0 0 -3.3715 830.7417 905.9333)">
				<stop  offset="0.13" style="stop-color:#00A9ED"/>
				<stop  offset="1" style="stop-color:#65106B"/>
			</linearGradient>
			<path id="Path_16688" fill="url(#Path_16688_1_)" d="M3.827,0.435C3.135-0.189,2.07-0.135,1.446,0.557L1.41,0.597
				C0.809,1.308,0.898,2.372,1.61,2.974c0.711,0.601,1.773,0.512,2.375-0.199C4.573,2.079,4.502,1.044,3.827,0.435L3.827,0.435z
				 M2.885,1.856l-0.188-0.17l0.201,0.183L2.885,1.856z"/>
		</g>
	</g>
	<g id="Group_1914" transform="translate(64.272 81.202)">
		<g id="Group_1913">
			
				<linearGradient id="Path_16689_1_" gradientUnits="userSpaceOnUse" x1="-250.9021" y1="277.9948" x2="-250.9021" y2="276.9948" gradientTransform="matrix(3.3901 0 0 -3.3869 853.2762 941.5286)">
				<stop  offset="0.13" style="stop-color:#00A9ED"/>
				<stop  offset="1" style="stop-color:#65106B"/>
			</linearGradient>
			<path id="Path_16689" fill="url(#Path_16689_1_)" d="M3.179,0.072c-0.895-0.274-1.842,0.228-2.116,1.12
				c-0.274,0.895,0.228,1.842,1.12,2.116s1.838-0.225,2.115-1.115l0.007-0.022c0.271-0.889-0.231-1.828-1.12-2.099
				C3.183,0.071,3.181,0.071,3.179,0.07V0.072z"/>
		</g>
	</g>
	<g id="Group_1916" transform="translate(65.262 71.167)">
		<g id="Group_1915">
			
				<linearGradient id="Path_16690_1_" gradientUnits="userSpaceOnUse" x1="-252.1236" y1="288.4908" x2="-252.1236" y2="287.4898" gradientTransform="matrix(3.4006 0 0 -3.4007 860.0461 981.0469)">
				<stop  offset="0.13" style="stop-color:#00A9ED"/>
				<stop  offset="1" style="stop-color:#65106B"/>
			</linearGradient>
			<path id="Path_16690" fill="url(#Path_16690_1_)" d="M4.35,1.404C4.348,1.382,4.344,1.361,4.338,1.34
				C4.146,0.42,3.247-0.17,2.328,0.021c-0.92,0.19-1.511,1.09-1.32,2.01C1.199,2.95,2.099,3.54,3.018,3.35
				C3.912,3.164,4.5,2.305,4.35,1.404z"/>
		</g>
	</g>
	<g id="Group_1918" transform="translate(65.229 76.223)">
		<g id="Group_1917">
			
				<linearGradient id="Path_16691_1_" gradientUnits="userSpaceOnUse" x1="-249.9998" y1="282.9289" x2="-249.9998" y2="281.9289" gradientTransform="matrix(3.3083 0 0 -3.3855 829.7463 957.862)">
				<stop  offset="0.13" style="stop-color:#00A9ED"/>
				<stop  offset="1" style="stop-color:#65106B"/>
			</linearGradient>
			<path id="Path_16691" fill="url(#Path_16691_1_)" d="M2.836,0.007C1.909-0.074,1.092,0.611,1.008,1.538c0,0.016,0,0.05,0,0.065
				c-0.055,0.93,0.655,1.728,1.584,1.782h0.101c0.938-0.043,1.663-0.839,1.62-1.777C4.273,0.788,3.654,0.112,2.84,0.003L2.836,0.007
				z"/>
		</g>
	</g>
	<g id="Group_1920" transform="translate(62.273 85.853)">
		<g id="Group_1919">
			
				<linearGradient id="Path_16692_1_" gradientUnits="userSpaceOnUse" x1="-248.8133" y1="273.6514" x2="-248.8133" y2="272.6514" gradientTransform="matrix(3.3861 0 0 -3.3961 845.1985 929.3337)">
				<stop  offset="0.13" style="stop-color:#00A9ED"/>
				<stop  offset="1" style="stop-color:#65106B"/>
			</linearGradient>
			<path id="Path_16692" fill="url(#Path_16692_1_)" d="M3.527,0.22c-0.81-0.46-1.839-0.176-2.298,0.634
				C1.228,0.855,1.227,0.856,1.227,0.856L1.204,0.898C0.757,1.714,1.054,2.739,1.871,3.188s1.841,0.149,2.29-0.667L2.694,1.688
				l1.467,0.831C4.622,1.709,4.339,0.68,3.529,0.22C3.528,0.219,3.528,0.219,3.527,0.22L3.527,0.22z"/>
		</g>
	</g>
	<g id="Group_1922" transform="translate(31.013 53.026)">
		<g id="Group_1921">
			
				<linearGradient id="Path_16693_1_" gradientUnits="userSpaceOnUse" x1="-217.254" y1="305.6796" x2="-217.254" y2="304.6786" gradientTransform="matrix(3.3727 0 0 -3.3723 735.4308 1030.8245)">
				<stop  offset="0.13" style="stop-color:#00A9ED"/>
				<stop  offset="1" style="stop-color:#65106B"/>
			</linearGradient>
			<path id="Path_16693" fill="url(#Path_16693_1_)" d="M4.202,0.93C3.786,0.097,2.773-0.24,1.94,0.176L1.925,0.183
				c-0.829,0.424-1.156,1.44-0.732,2.269c0.425,0.829,1.441,1.157,2.27,0.732C4.286,2.763,4.616,1.757,4.202,0.93z"/>
		</g>
	</g>
	<g id="Group_1924" transform="translate(35.75 51.263)">
		<g id="Group_1923">
			
				<linearGradient id="Path_16694_1_" gradientUnits="userSpaceOnUse" x1="-221.9934" y1="307.4533" x2="-221.9934" y2="306.4543" gradientTransform="matrix(3.3728 0 0 -3.3726 751.4431 1036.9197)">
				<stop  offset="0.13" style="stop-color:#00A9ED"/>
				<stop  offset="1" style="stop-color:#65106B"/>
			</linearGradient>
			<path id="Path_16694" fill="url(#Path_16694_1_)" d="M4.345,1.289c-0.22-0.905-1.131-1.461-2.036-1.241l0,0L2.27,0.058
				C1.371,0.3,0.838,1.224,1.079,2.124s1.167,1.432,2.066,1.191C4.029,3.077,4.562,2.178,4.345,1.289L4.345,1.289z"/>
		</g>
	</g>
	<g id="Group_1926" transform="translate(26.747 55.762)">
		<g id="Group_1925">
			
				<linearGradient id="Path_16695_1_" gradientUnits="userSpaceOnUse" x1="-213.5568" y1="303.594" x2="-213.5568" y2="302.594" gradientTransform="matrix(3.3983 0 0 -3.3916 728.4075 1029.6793)">
				<stop  offset="0.13" style="stop-color:#00A9ED"/>
				<stop  offset="1" style="stop-color:#65106B"/>
			</linearGradient>
			<path id="Path_16695" fill="url(#Path_16695_1_)" d="M4.012,0.628c-0.584-0.725-1.644-0.839-2.37-0.257l1.045,1.323l-1.05-1.319
				C0.903,0.947,0.771,2.007,1.343,2.741c0.572,0.735,1.632,0.867,2.366,0.294c0.01-0.007,0.019-0.015,0.028-0.022l0.022-0.018
				C4.482,2.411,4.596,1.352,4.012,0.628z"/>
		</g>
	</g>
	<g id="Group_1928" transform="translate(18.633 68.328)">
		<g id="Group_1927">
			
				<linearGradient id="Path_16696_1_" gradientUnits="userSpaceOnUse" x1="-204.8749" y1="290.3864" x2="-204.8749" y2="289.3874" gradientTransform="matrix(3.3727 0 0 -3.3725 693.6717 979.3317)">
				<stop  offset="0.13" style="stop-color:#00A9ED"/>
				<stop  offset="1" style="stop-color:#65106B"/>
			</linearGradient>
			<path id="Path_16696" fill="url(#Path_16696_1_)" d="M3.134,0.06c-0.898-0.245-1.825,0.285-2.07,1.183L1.048,1.306
				c-0.21,0.907,0.355,1.813,1.262,2.023c0.907,0.21,1.813-0.355,2.023-1.262C4.538,1.185,4.009,0.298,3.134,0.06L3.134,0.06z"/>
		</g>
	</g>
	<g id="Group_1930" transform="translate(17.908 73.34)">
		<g id="Group_1929">
			
				<linearGradient id="Path_16697_1_" gradientUnits="userSpaceOnUse" x1="-204.3096" y1="285.8558" x2="-204.3096" y2="284.8558" gradientTransform="matrix(3.3799 0 0 -3.3868 693.2303 968.1505)">
				<stop  offset="0.13" style="stop-color:#00A9ED"/>
				<stop  offset="1" style="stop-color:#65106B"/>
			</linearGradient>
			<path id="Path_16697" fill="url(#Path_16697_1_)" d="M2.784,0.003C1.854-0.05,1.058,0.66,1.003,1.589v0.065
				C0.977,2.584,1.708,3.36,2.638,3.387h0.051c0.936-0.001,1.693-0.759,1.693-1.695c0-0.896-0.699-1.637-1.593-1.69L2.784,0.003z"/>
		</g>
	</g>
	<g id="Group_1932" transform="translate(20.412 63.586)">
		<g id="Group_1931">
			
				<linearGradient id="Path_16698_1_" gradientUnits="userSpaceOnUse" x1="-206.6534" y1="295.1938" x2="-206.6534" y2="294.1938" gradientTransform="matrix(3.3727 0 0 -3.3745 699.6782 996.1146)">
				<stop  offset="0.13" style="stop-color:#00A9ED"/>
				<stop  offset="1" style="stop-color:#65106B"/>
			</linearGradient>
			<path id="Path_16698" fill="url(#Path_16698_1_)" d="M3.477,0.194C2.653-0.239,1.634,0.079,1.201,0.903c0,0,0,0.001,0,0.001
				L1.173,0.958c-0.403,0.839-0.05,1.847,0.789,2.25s1.847,0.05,2.25-0.789c0.394-0.82,0.067-1.804-0.739-2.225H3.477z"/>
		</g>
	</g>
	<g id="Group_1934" transform="translate(23.161 59.334)">
		<g id="Group_1933">
			
				<linearGradient id="Path_16699_1_" gradientUnits="userSpaceOnUse" x1="-209.3903" y1="299.3745" x2="-209.3903" y2="298.3745" gradientTransform="matrix(3.3721 0 0 -3.3724 708.7852 1009.6052)">
				<stop  offset="0.13" style="stop-color:#00A9ED"/>
				<stop  offset="1" style="stop-color:#65106B"/>
			</linearGradient>
			<path id="Path_16699" fill="url(#Path_16699_1_)" d="M3.774,0.389C3.058-0.206,1.995-0.108,1.4,0.608c0,0,0,0.001,0,0.001
				L1.364,0.652C0.793,1.387,0.927,2.447,1.662,3.018C2.397,3.589,3.457,3.456,4.028,2.72C4.585,2.001,4.473,0.97,3.774,0.389
				L3.774,0.389z"/>
		</g>
	</g>
	<g id="Group_1936" transform="translate(18.252 78.394)">
		<g id="Group_1935">
			
				<linearGradient id="Path_16700_1_" gradientUnits="userSpaceOnUse" x1="-204.3958" y1="280.1661" x2="-204.3958" y2="279.1661" gradientTransform="matrix(3.3683 0 0 -3.368 691.1458 943.588)">
				<stop  offset="0.13" style="stop-color:#00A9ED"/>
				<stop  offset="1" style="stop-color:#65106B"/>
			</linearGradient>
			<path id="Path_16700" fill="url(#Path_16700_1_)" d="M4.346,1.389C4.18,0.473,3.303-0.137,2.386,0.029
				c-0.917,0.165-1.526,1.043-1.36,1.959v0.018C1.204,2.92,2.09,3.516,3.004,3.338c0.901-0.176,1.496-1.039,1.339-1.943L4.346,1.389
				z"/>
		</g>
	</g>
	<g id="Group_1938" transform="translate(29.777 66.982)">
		<g id="Group_1937">
			
				<linearGradient id="Path_16701_1_" gradientUnits="userSpaceOnUse" x1="-282.1689" y1="388.0107" x2="-282.1689" y2="387.0117" gradientTransform="matrix(27.0201 0 0 -21.8517 7638.7437 8478.6787)">
				<stop  offset="0.13" style="stop-color:#00A9ED"/>
				<stop  offset="1" style="stop-color:#65106B"/>
			</linearGradient>
			<path id="Path_16701" fill="url(#Path_16701_1_)" d="M20.186,0c-2.146-0.004-4.2,0.876-5.678,2.433
				c-2.98-3.135-7.938-3.26-11.073-0.28c-3.135,2.98-3.26,7.937-0.28,11.073c0.209,0.22,0.431,0.427,0.664,0.622l0.033,0.026
				l9.609,7.608c0.615,0.488,1.486,0.488,2.1,0l10.018-7.979c0.049-0.039,0.096-0.081,0.14-0.125
				c3.063-3.054,3.069-8.011,0.017-11.073c-1.469-1.474-3.465-2.302-5.546-2.302L20.186,0z M23.395,10.925l-8.89,7.081l-8.542-6.762
				C4.078,9.66,3.834,6.848,5.418,4.963c1.584-1.885,4.396-2.129,6.281-0.545c0.548,0.46,0.978,1.046,1.251,1.708
				c0.356,0.86,1.342,1.27,2.203,0.914c0.414-0.171,0.742-0.5,0.913-0.914c0.943-2.274,3.552-3.354,5.825-2.411
				c2.275,0.943,3.354,3.551,2.411,5.826C24.088,10.055,23.782,10.525,23.395,10.925L23.395,10.925z"/>
		</g>
	</g>
	<g id="Group_1940" transform="translate(0.006 99.138)">
		<g id="Group_1939">
			
				<linearGradient id="Ellipse_192_1_" gradientUnits="userSpaceOnUse" x1="-185.9623" y1="259.1516" x2="-185.9623" y2="258.1516" gradientTransform="matrix(3.36 0 0 -3.36 627.512 870.7504)">
				<stop  offset="0.13" style="stop-color:#00A9ED"/>
				<stop  offset="1" style="stop-color:#65106B"/>
			</linearGradient>
			<circle id="Ellipse_192" fill="url(#Ellipse_192_1_)" cx="2.68" cy="1.68" r="1.68"/>
		</g>
	</g>
	<g id="Group_1942" transform="translate(82.979 49.637)">
		<g id="Group_1941">
			
				<linearGradient id="Ellipse_193_1_" gradientUnits="userSpaceOnUse" x1="-268.9353" y1="308.6535" x2="-268.9353" y2="307.6535" gradientTransform="matrix(3.36 0 0 -3.36 906.3008 1037.0748)">
				<stop  offset="0.13" style="stop-color:#00A9ED"/>
				<stop  offset="1" style="stop-color:#65106B"/>
			</linearGradient>
			<circle id="Ellipse_193" fill="url(#Ellipse_193_1_)" cx="2.68" cy="1.68" r="1.68"/>
		</g>
	</g>
</g>
</svg>
