<?xml version="1.0" encoding="utf-8"?>
<!-- Generator: Adobe Illustrator 16.0.0, SVG Export Plug-In . SVG Version: 6.00 Build 0)  -->
<!DOCTYPE svg PUBLIC "-//W3C//DTD SVG 1.1//EN" "http://www.w3.org/Graphics/SVG/1.1/DTD/svg11.dtd">
<svg version="1.1" id="like_4_" xmlns="http://www.w3.org/2000/svg" xmlns:xlink="http://www.w3.org/1999/xlink" x="0px" y="0px"
	 width="73.5px" height="64.925px" viewBox="0 0 73.5 64.925" enable-background="new 0 0 73.5 64.925" xml:space="preserve">
<g id="ArogyaTopupPolicy.d32ae009" transform="translate(0.001 0)">
	
		<linearGradient id="Path_16733_1_" gradientUnits="userSpaceOnUse" x1="-519.3154" y1="26.3779" x2="-519.3154" y2="27.3306" gradientTransform="matrix(29.4 0 0 29.4 15324.7314 -740.4692)">
		<stop  offset="0.13" style="stop-color:#00A9ED"/>
		<stop  offset="1" style="stop-color:#65106B"/>
	</linearGradient>
	<path id="Path_16733" fill="url(#Path_16733_1_)" d="M56.861,63.04c-7.732,0-14.001-6.268-14.001-14.001
		s6.269-14.001,14.001-14.001s14.002,6.268,14.002,14.001S64.594,63.04,56.861,63.04L56.861,63.04z M56.861,37.37
		c-6.443,0-11.668,5.225-11.668,11.669c0,6.445,5.225,11.669,11.668,11.669c6.442,0,11.669-5.224,11.669-11.669l0,0
		C68.53,42.594,63.304,37.37,56.861,37.37z"/>
	
		<linearGradient id="Path_16734_1_" gradientUnits="userSpaceOnUse" x1="-324.7632" y1="45.2007" x2="-324.7632" y2="46.1538" gradientTransform="matrix(2.45 0 0 17.15 852.5308 -734.3521)">
		<stop  offset="0.13" style="stop-color:#00A9ED"/>
		<stop  offset="1" style="stop-color:#65106B"/>
	</linearGradient>
	<path id="Path_16734" fill="url(#Path_16734_1_)" d="M56.861,57.205c-0.646,0-1.17-0.521-1.17-1.166l0,0V42.038
		c0-0.646,0.524-1.167,1.17-1.167c0.644,0,1.166,0.521,1.166,1.167v14.001C58.027,56.684,57.505,57.205,56.861,57.205z"/>
	
		<linearGradient id="Path_16735_1_" gradientUnits="userSpaceOnUse" x1="-506.6831" y1="316.271" x2="-506.6831" y2="317.2232" gradientTransform="matrix(17.15 0 0 2.45 8746.4697 -726.9935)">
		<stop  offset="0.13" style="stop-color:#00A9ED"/>
		<stop  offset="1" style="stop-color:#65106B"/>
	</linearGradient>
	<path id="Path_16735" fill="url(#Path_16735_1_)" d="M63.863,50.207H49.861c-0.646,0-1.167-0.523-1.167-1.168
		s0.521-1.167,1.167-1.167h14.002c0.645,0,1.168,0.522,1.168,1.167C65.029,49.683,64.508,50.207,63.863,50.207L63.863,50.207z"/>
	
		<linearGradient id="Path_16736_1_" gradientUnits="userSpaceOnUse" x1="-529.9136" y1="11.9707" x2="-529.9136" y2="12.9233" gradientTransform="matrix(73.5011 0 0 64.927 38986.2422 -775.9673)">
		<stop  offset="0.13" style="stop-color:#00A9ED"/>
		<stop  offset="1" style="stop-color:#65106B"/>
	</linearGradient>
	<path id="Path_16736" fill="url(#Path_16736_1_)" d="M37.052,63.04c-1.053,0.004-2.063-0.417-2.804-1.168L7.844,35.291
		c-7.79-7.822-7.763-20.479,0.061-28.267c3.708-3.695,8.718-5.785,13.953-5.825c5.253-0.009,10.292,2.091,13.984,5.829
		c0.659,0.644,1.714,0.644,2.369,0c3.693-3.738,8.73-5.838,13.982-5.829c11.043,0.083,19.922,9.099,19.839,20.139
		c-0.039,5.142-2.059,10.07-5.639,13.761c-0.039,0.063-0.086,0.121-0.139,0.175l-3.009,3.032c-0.35,0.354-0.887,0.446-1.334,0.229
		c-1.572-0.766-3.298-1.164-5.048-1.162c-6.44,0.007-11.661,5.227-11.668,11.668c0,1.778,0.413,3.536,1.201,5.129
		c0.219,0.447,0.132,0.982-0.218,1.332l-6.316,6.373c-0.742,0.753-1.754,1.173-2.807,1.17L37.052,63.04z M21.857,3.533
		C12.106,3.616,4.27,11.588,4.355,21.338c0.04,4.617,1.886,9.034,5.145,12.306l26.406,26.584c0.642,0.615,1.654,0.615,2.296,0
		l5.751-5.793c-0.723-1.707-1.094-3.542-1.092-5.396c0.008-7.729,6.271-13.993,14.001-14.001c1.815-0.002,3.616,0.353,5.295,1.047
		l2.286-2.304c0.041-0.062,0.084-0.119,0.137-0.17c6.862-6.924,6.813-18.101-0.107-24.965c-3.271-3.24-7.674-5.076-12.277-5.115
		c-4.632-0.007-9.072,1.846-12.328,5.143c-1.584,1.531-4.094,1.531-5.677,0C30.933,5.378,26.49,3.524,21.857,3.533L21.857,3.533z"/>
</g>
</svg>
