<?xml version="1.0" encoding="utf-8"?>
<!-- Generator: Adobe Illustrator 16.0.0, SVG Export Plug-In . SVG Version: 6.00 Build 0)  -->
<!DOCTYPE svg PUBLIC "-//W3C//DTD SVG 1.1//EN" "http://www.w3.org/Graphics/SVG/1.1/DTD/svg11.dtd">
<svg version="1.1" id="Layer_1" xmlns="http://www.w3.org/2000/svg" xmlns:xlink="http://www.w3.org/1999/xlink" x="0px" y="0px"
	 width="70.563px" height="65.882px" viewBox="0 0 70.563 65.882" enable-background="new 0 0 70.563 65.882" xml:space="preserve">
<g id="outline" transform="translate(-2 -3.98)">
	
		<linearGradient id="Path_16806_1_" gradientUnits="userSpaceOnUse" x1="-264.0081" y1="427.5108" x2="-264.0081" y2="426.5401" gradientTransform="matrix(70.556 0 0 -65.8865 18664.6328 28173.0176)">
		<stop  offset="0.13" style="stop-color:#00A9ED"/>
		<stop  offset="1" style="stop-color:#65106B"/>
	</linearGradient>
	<path id="Path_16806" fill="url(#Path_16806_1_)" d="M70.389,56.155h-3.426v-1.142c-0.002-0.63-0.514-1.141-1.143-1.141h-4.564
		c-0.631-0.003-1.145,0.507-1.148,1.137c0,0.002,0,0.002,0,0.004v1.142h-7.993c-0.631,0-1.142,0.512-1.142,1.142h-6.854v-2.283
		c-0.001-0.63-0.514-1.141-1.143-1.141h-1.143v-2.771c12.361-2.522,20.337-14.589,17.814-26.95
		C57.125,11.791,45.058,3.815,32.697,6.338s-20.336,14.59-17.813,26.951c1.831,8.972,8.842,15.982,17.813,17.813v2.771h-1.143
		c-0.631,0-1.142,0.513-1.142,1.144v2.284H23.56c0-0.632-0.511-1.143-1.142-1.143h-7.996v-1.145
		c-0.001-0.63-0.512-1.141-1.142-1.141H8.711c-0.63-0.002-1.144,0.509-1.146,1.139c0,0.001,0,0.002,0,0.002v1.142H4.142
		C3.511,56.155,3,56.667,3,57.297v9.138c0,0.631,0.51,1.142,1.141,1.144c0.001,0,0.001,0,0.001,0h3.423v1.143
		c0,0.63,0.511,1.142,1.142,1.142c0.001,0,0.002,0,0.003,0h4.565c0.631,0,1.142-0.512,1.142-1.142l0,0v-1.143h7.996
		c0.63,0,1.142-0.512,1.142-1.143l0,0h6.854v2.285c0,0.63,0.511,1.142,1.142,1.142c0.001,0,0.002,0,0.004,0h11.421
		c0.63,0,1.142-0.512,1.142-1.142l0,0v-2.285h6.854c0,0.631,0.511,1.143,1.142,1.143c0.001,0,0.001,0,0.002,0h7.993v1.143
		c0,0.63,0.512,1.142,1.143,1.142l0,0h4.563c0.632,0,1.144-0.512,1.144-1.142l0,0v-1.143h3.426c0.631,0,1.143-0.512,1.143-1.143l0,0
		v-9.139C71.526,56.669,71.017,56.159,70.389,56.155z M7.565,65.294h-2.28v-6.854h2.28V65.294z M12.13,67.578H9.854V56.155h2.284
		L12.13,67.578z M21.267,65.294h-6.846v-6.854h6.854L21.267,65.294z M16.702,28.744C16.687,17.389,25.881,8.172,37.236,8.158
		c11.354-0.015,20.57,9.178,20.586,20.532c0.014,10.111-7.326,18.729-17.309,20.328c-0.554,0.089-0.961,0.567-0.962,1.128v3.728
		h-4.564v-3.726c-0.001-0.562-0.409-1.039-0.962-1.128c-9.992-1.546-17.353-10.166-17.317-20.277L16.702,28.744z M50.973,64.15
		h-7.996c-0.631,0-1.143,0.513-1.143,1.144v2.284h-9.137v-2.284c0-0.631-0.511-1.144-1.142-1.144h0H23.56v-4.563h7.995
		c0.63,0,1.143-0.511,1.143-1.142c0-0.002,0-0.004,0-0.006v-2.284h9.137v2.284c0,0.63,0.512,1.142,1.143,1.142h7.995L50.973,64.15z
		 M60.108,65.294h-6.851v-6.854h6.851V65.294z M64.672,67.578h-2.278V56.155h2.284L64.672,67.578z M69.237,65.294h-2.273v-6.854
		h2.283L69.237,65.294z"/>
	
		<linearGradient id="Path_16807_1_" gradientUnits="userSpaceOnUse" x1="-260.762" y1="423.0782" x2="-260.762" y2="422.1065" gradientTransform="matrix(37.634 0 0 -37.634 9850.7871 15932.5635)">
		<stop  offset="0.13" style="stop-color:#00A9ED"/>
		<stop  offset="1" style="stop-color:#65106B"/>
	</linearGradient>
	<path id="Path_16807" fill="url(#Path_16807_1_)" d="M55.541,28.744c0-10.093-8.181-18.275-18.274-18.276
		c-10.093,0-18.276,8.181-18.277,18.274c0,10.093,8.182,18.276,18.275,18.276c0.001,0,0.001,0,0.002,0
		C47.36,47.018,55.54,38.837,55.541,28.744z M27.322,37.074L25.196,39.2c-0.696-0.803-1.31-1.673-1.834-2.596l3.172-2.379
		l-1.374-1.827l-2.796,2.097c-0.571-1.477-0.918-3.031-1.028-4.61h3.367v-2.284h-3.369c0.095-1.362,0.366-2.705,0.806-3.998
		l3.198,1.599l1.021-2.04l-3.322-1.661c0.59-1.149,1.316-2.223,2.163-3.198l2.125,2.126l1.615-1.615l-2.125-2.131
		c0.854-0.747,1.787-1.402,2.781-1.951l2.156,3.233l1.904-1.263l-1.942-2.914c1.417-0.534,2.903-0.861,4.413-0.971v3.36h2.288
		v-3.368c1.512,0.106,3.001,0.43,4.421,0.96l-1.942,2.914l1.892,1.271l2.156-3.233c0.994,0.55,1.926,1.204,2.781,1.952l-2.12,2.125
		l1.615,1.615l2.125-2.125c0.849,0.977,1.575,2.053,2.164,3.205l-3.323,1.661l1.021,2.04l3.195-1.595
		c0.44,1.292,0.712,2.636,0.807,3.998H49.83v2.284h3.368c-0.126,1.818-0.563,3.6-1.292,5.269l-3.675-2.75l-1.366,1.828l3.956,2.97
		c-0.585,0.935-1.265,1.808-2.028,2.604l-2.719-2.72l-1.615,1.614l2.641,2.643c-6.007,4.725-14.526,4.508-20.284-0.517l2.125-2.126
		L27.322,37.074z"/>
	
		<linearGradient id="Path_16808_1_" gradientUnits="userSpaceOnUse" x1="-156.1633" y1="268.545" x2="-156.1633" y2="267.5742" gradientTransform="matrix(2.352 0 0 -2.352 385.1421 692.3413)">
		<stop  offset="0.13" style="stop-color:#00A9ED"/>
		<stop  offset="1" style="stop-color:#65106B"/>
	</linearGradient>
	<path id="Path_16808" fill="url(#Path_16808_1_)" d="M16.706,60.725h2.284v2.284h-2.284V60.725z"/>
	
		<linearGradient id="Path_16809_1_" gradientUnits="userSpaceOnUse" x1="-156.3787" y1="268.545" x2="-156.3787" y2="267.5742" gradientTransform="matrix(2.352 0 0 -2.352 402.7827 692.3413)">
		<stop  offset="0.13" style="stop-color:#00A9ED"/>
		<stop  offset="1" style="stop-color:#65106B"/>
	</linearGradient>
	<path id="Path_16809" fill="url(#Path_16809_1_)" d="M33.839,60.725h2.285v2.284h-2.285V60.725z"/>
	
		<linearGradient id="Path_16810_1_" gradientUnits="userSpaceOnUse" x1="-156.4363" y1="268.545" x2="-156.4363" y2="267.5742" gradientTransform="matrix(2.352 0 0 -2.352 407.4897 692.3413)">
		<stop  offset="0.13" style="stop-color:#00A9ED"/>
		<stop  offset="1" style="stop-color:#65106B"/>
	</linearGradient>
	<path id="Path_16810" fill="url(#Path_16810_1_)" d="M38.407,60.725h2.285v2.284h-2.285V60.725z"/>
	
		<linearGradient id="Path_16811_1_" gradientUnits="userSpaceOnUse" x1="-156.6516" y1="268.545" x2="-156.6516" y2="267.5742" gradientTransform="matrix(2.352 0 0 -2.352 425.1303 692.3413)">
		<stop  offset="0.13" style="stop-color:#00A9ED"/>
		<stop  offset="1" style="stop-color:#65106B"/>
	</linearGradient>
	<path id="Path_16811" fill="url(#Path_16811_1_)" d="M55.541,60.725h2.284v2.284h-2.284V60.725z"/>
	
		<linearGradient id="Path_16812_1_" gradientUnits="userSpaceOnUse" x1="-156.3787" y1="268.2422" x2="-156.3787" y2="267.2715" gradientTransform="matrix(2.352 0 0 -2.352 402.7827 667.644)">
		<stop  offset="0.13" style="stop-color:#00A9ED"/>
		<stop  offset="1" style="stop-color:#65106B"/>
	</linearGradient>
	<path id="Path_16812" fill="url(#Path_16812_1_)" d="M33.839,36.738h2.285v2.284h-2.285V36.738z"/>
	
		<linearGradient id="Path_16813_1_" gradientUnits="userSpaceOnUse" x1="-156.4363" y1="268.2422" x2="-156.4363" y2="267.2715" gradientTransform="matrix(2.352 0 0 -2.352 407.4897 667.644)">
		<stop  offset="0.13" style="stop-color:#00A9ED"/>
		<stop  offset="1" style="stop-color:#65106B"/>
	</linearGradient>
	<path id="Path_16813" fill="url(#Path_16813_1_)" d="M38.407,36.738h2.285v2.284h-2.285V36.738z"/>
	
		<linearGradient id="Path_16814_1_" gradientUnits="userSpaceOnUse" x1="-251.8235" y1="409.7998" x2="-251.8235" y2="408.8282" gradientTransform="matrix(16.4712 0 0 -16.4663 4185.1074 6768.6216)">
		<stop  offset="0.13" style="stop-color:#00A9ED"/>
		<stop  offset="1" style="stop-color:#65106B"/>
	</linearGradient>
	<path id="Path_16814" fill="url(#Path_16814_1_)" d="M30.413,36.738c0.303,0,0.593-0.119,0.807-0.333l4.564-4.565l0.007-0.01
		c0.458,0.224,0.96,0.342,1.47,0.345c1.893,0,3.427-1.534,3.427-3.427c-0.002-0.509-0.119-1.012-0.344-1.47l0.011-0.007l4.565-4.564
		c0.451-0.441,0.46-1.164,0.019-1.615c-0.44-0.452-1.164-0.46-1.615-0.019c-0.006,0.006-0.013,0.012-0.019,0.019l-4.565,4.565
		l-0.007,0.01c-0.458-0.225-0.961-0.342-1.472-0.345c-1.89,0-3.424,1.531-3.427,3.421c0.002,0.51,0.12,1.013,0.343,1.471
		l-0.011,0.007l-4.564,4.564c-0.447,0.446-0.447,1.169-0.001,1.615c0.214,0.215,0.506,0.335,0.811,0.335V36.738z M37.266,27.602
		c0.63,0.001,1.139,0.513,1.137,1.143c-0.001,0.63-0.513,1.139-1.143,1.137c-0.629-0.001-1.138-0.513-1.137-1.143
		c0.001-0.301,0.122-0.591,0.335-0.804C36.672,27.721,36.963,27.602,37.266,27.602z"/>
</g>
</svg>
