<?xml version="1.0" encoding="utf-8"?>
<!-- Generator: Adobe Illustrator 16.0.0, SVG Export Plug-In . SVG Version: 6.00 Build 0)  -->
<!DOCTYPE svg PUBLIC "-//W3C//DTD SVG 1.1//EN" "http://www.w3.org/Graphics/SVG/1.1/DTD/svg11.dtd">
<svg version="1.1" id="Layer_1" xmlns="http://www.w3.org/2000/svg" xmlns:xlink="http://www.w3.org/1999/xlink" x="0px" y="0px"
	 width="72.17px" height="70.094px" viewBox="0 0 72.17 70.094" enable-background="new 0 0 72.17 70.094" xml:space="preserve">
<g id="cow" transform="translate(-0.002 -0.5)">
	
		<linearGradient id="Path_17038_1_" gradientUnits="userSpaceOnUse" x1="-265.2953" y1="426.5234" x2="-265.2953" y2="425.5488" gradientTransform="matrix(72.1708 0 0 -70.099 19182.7031 29901.1465)">
		<stop  offset="0.13" style="stop-color:#00A9ED"/>
		<stop  offset="1" style="stop-color:#65106B"/>
	</linearGradient>
	<path id="Path_17038" fill="url(#Path_17038_1_)" d="M70.61,16.72c1.134-4.43,0.801-9.108-0.947-13.333
		c-0.344-0.853-1.315-1.264-2.167-0.919c-0.618,0.25-1.029,0.845-1.041,1.512c-0.087,5.004-1.042,8.569-2.618,9.778
		c-1.734,1.33-6.727,3.449-14.09,5.982c-3.168-2.895-7.01-3.326-11.057-1.84c-1.656,0.604-3.475,0.601-5.13-0.008
		c-3.458-1.266-6.589-1.079-9.307,0.551c-0.619,0.373-1.198,0.808-1.73,1.297c-7.361-2.532-12.354-4.652-14.089-5.982
		c-1.577-1.209-2.531-4.771-2.618-9.778C5.806,3.06,5.052,2.323,4.133,2.334C3.457,2.342,2.852,2.758,2.604,3.386
		C0.857,7.612,0.527,12.291,1.662,16.72c0.665,2.597,2.264,4.856,4.492,6.346c-1.064,0.47-1.995,1.2-2.705,2.122
		c-0.231,0.434-0.333,0.924-0.292,1.414c0.55,6.268,6.078,10.901,12.345,10.351c0.597-0.052,1.188-0.151,1.769-0.296
		c0.79,2.533,1.894,4.959,3.288,7.218c0.308,0.503,0.532,1.052,0.665,1.624c2.064,8.848,2.676,11.246,2.778,12.188
		c0.063,0.961-0.327,1.959,0.292,3.604c0.333,0.865,0.875,1.635,1.579,2.238c0.441,4.013,3.826,7.052,7.863,7.06l0,0
		c0.568,0.001,1.03-0.459,1.03-1.028c0.001-0.567-0.459-1.029-1.028-1.029c-0.001,0-0.001,0-0.002,0
		c-2.33-0.006-4.437-1.389-5.369-3.523c4.368,1.741,11.912,1.447,15.539,0c-0.932,2.135-3.037,3.518-5.369,3.523
		c-0.568-0.002-1.028,0.458-1.03,1.027c0,0.568,0.46,1.03,1.029,1.03h0.001l0,0c4.038-0.008,7.425-3.049,7.864-7.062
		c1.47-1.262,2.181-3.194,1.883-5.108c-0.11-0.937,0.024-1.188,1.08-5.716c0.129-0.553-0.215-1.106-0.769-1.235
		c-0.554-0.13-1.106,0.215-1.236,0.768l0,0l-0.745,3.195c-1.092-0.652-2.254-1.182-3.463-1.577
		c-1.987-2.122-2.391-7.143-2.375-8.945c0.005-0.568-0.451-1.033-1.02-1.038c-0.569-0.006-1.035,0.45-1.04,1.02
		c-0.008,2.818,0.517,5.612,1.548,8.236c-2.733-0.485-5.528-0.485-8.26,0c1.031-2.625,1.556-5.418,1.548-8.236
		c-0.006-0.565-0.465-1.02-1.029-1.02h-0.01c-0.568,0.005-1.025,0.47-1.02,1.038v0.001c0.018,1.798-0.384,6.815-2.375,8.946
		c-1.208,0.394-2.367,0.922-3.458,1.573c-0.39-1.74-1.1-4.689-2.434-10.4c-0.183-0.789-0.492-1.543-0.916-2.233
		c-1.483-2.38-2.604-4.969-3.327-7.678c-1.514-6.158,1.071-8.449,1.893-9.684c0.282-0.423,0.561-0.891,0.792-1.304l0,0
		c2.397-4.284,6.272-6.1,11.18-4.304c0.728,0.265,1.484,0.441,2.254,0.525v13.417c-0.014,3.741,2.258,7.112,5.732,8.501l8.09,3.265
		l-0.445,1.911c-0.129,0.554,0.215,1.106,0.769,1.236c0.554,0.129,1.106-0.215,1.236-0.769l0.563-2.411
		c0.203-0.778,0.54-1.516,0.996-2.178c1.242-2.099,2.235-4.336,2.958-6.664c6.103,1.525,12.288-2.186,13.813-8.289
		c0.145-0.58,0.243-1.169,0.297-1.765c0.072-0.841-0.274-1.664-0.927-2.198c-0.629-0.511-1.312-0.953-2.034-1.32
		c2.208-1.511,3.792-3.771,4.461-6.362V16.72z M46.208,57.623c-0.068,1.266,0.637,3.091-1.531,4.655l-0.019,0.016
		c-2.86,2.044-8.375,1.799-8.577,1.81c-2.368,0.119-6.104-0.292-8.214-1.639l0,0c-2.564-1.636-1.691-3.701-1.794-4.846
		c5.345-3.732,14.82-3.715,20.137,0L46.208,57.623z M3.659,16.203C2.806,12.876,2.874,9.38,3.854,6.088
		c0.247,3.615,1.071,7.57,3.333,9.305c2.293,1.758,8.51,4.15,13.826,6.004c-1.059,1.381-1.217,2.053-2.148,3.338
		c-2.776-2.483-6.592-3.448-10.215-2.584c-2.476-1.127-4.312-3.313-4.994-5.946L3.659,16.203z M17.688,26.448
		c-0.379,0.692-0.671,1.429-0.87,2.192c-2.861-2.172-6.304-3.446-9.89-3.658c3.532-1.854,7.85-1.268,10.76,1.46L17.688,26.448z
		 M5.284,26.989c4.108-0.113,8.107,1.337,11.188,4.057c-0.038,1.212,0.064,2.424,0.307,3.612
		c-5.003,1.249-10.072-1.794-11.321-6.798C5.386,27.573,5.328,27.282,5.284,26.989z M65.349,24.982
		c-3.589,0.212-7.03,1.485-9.893,3.658c-0.198-0.763-0.49-1.5-0.869-2.192c2.909-2.729,7.229-3.315,10.76-1.46L65.349,24.982z
		 M37.169,33.765V20.358c2.629-0.284,4.484-1.937,8.001-0.932c1.785,0.554,3.343,1.673,4.437,3.188
		c1.012,1.32,0.675,1.287,2.672,4.037c3.039,4.187,0.825,10.591-1.712,15.118c-0.524,0.938-0.745,1.215-1.01,1.79l-7.945-3.205
		c-2.69-1.076-4.451-3.687-4.442-6.584V33.765z M55.5,34.659c0.241-1.188,0.344-2.4,0.306-3.612
		c3.081-2.719,7.078-4.169,11.186-4.057c-0.768,5.1-5.525,8.611-10.624,7.843c-0.293-0.043-0.584-0.102-0.871-0.173H55.5z
		 M53.414,24.727c-0.358-0.497-0.687-1.012-0.987-1.545c-0.347-0.622-0.734-1.219-1.162-1.788c5.319-1.85,11.532-4.244,13.825-6.002
		c2.26-1.732,3.087-5.687,3.338-9.301c0.979,3.292,1.046,6.788,0.193,10.114c-0.681,2.625-2.502,4.805-4.965,5.939l-0.02,0.008
		c-3.624-0.868-7.444,0.095-10.223,2.579V24.727z"/>
	
		<linearGradient id="Path_17039_1_" gradientUnits="userSpaceOnUse" x1="-222.4067" y1="363.3525" x2="-222.4067" y2="362.3789" gradientTransform="matrix(5.616 0 0 -5.616 1281.0793 2097.322)">
		<stop  offset="0.13" style="stop-color:#00A9ED"/>
		<stop  offset="1" style="stop-color:#65106B"/>
	</linearGradient>
	<path id="Path_17039" fill="url(#Path_17039_1_)" d="M32.041,62.204c1.51,0,2.734-1.225,2.734-2.734s-1.224-2.733-2.734-2.733
		c-1.51,0-2.734,1.224-2.734,2.733S30.53,62.204,32.041,62.204L32.041,62.204z M32.041,58.797c0.373,0,0.674,0.301,0.674,0.674
		s-0.302,0.675-0.674,0.675c-0.373,0-0.675-0.302-0.675-0.675l0,0C31.366,59.098,31.668,58.797,32.041,58.797z"/>
	
		<linearGradient id="Path_17040_1_" gradientUnits="userSpaceOnUse" x1="-222.4467" y1="363.3525" x2="-222.4467" y2="362.3789" gradientTransform="matrix(5.616 0 0 -5.616 1289.4934 2097.322)">
		<stop  offset="0.13" style="stop-color:#00A9ED"/>
		<stop  offset="1" style="stop-color:#65106B"/>
	</linearGradient>
	<path id="Path_17040" fill="url(#Path_17040_1_)" d="M40.233,62.204c1.51,0,2.732-1.225,2.732-2.734s-1.223-2.733-2.732-2.733
		c-1.511,0-2.735,1.224-2.735,2.733S38.723,62.204,40.233,62.204L40.233,62.204z M40.233,58.797c0.372,0,0.673,0.301,0.673,0.674
		s-0.301,0.675-0.673,0.675c-0.373,0-0.676-0.302-0.676-0.675l0,0C39.558,59.098,39.86,58.797,40.233,58.797z"/>
	
		<linearGradient id="Path_17041_1_" gradientUnits="userSpaceOnUse" x1="-230.0292" y1="374.543" x2="-230.0292" y2="373.5693" gradientTransform="matrix(6.72 0 0 -6.72 1573.2302 2550.0945)">
		<stop  offset="0.13" style="stop-color:#00A9ED"/>
		<stop  offset="1" style="stop-color:#65106B"/>
	</linearGradient>
	<path id="Path_17041" fill="url(#Path_17041_1_)" d="M24.165,36.438c0,1.806,1.465,3.271,3.271,3.271
		c1.807,0,3.271-1.465,3.271-3.271c0-1.808-1.464-3.272-3.271-3.272C25.629,33.165,24.165,34.63,24.165,36.438L24.165,36.438z
		 M28.644,36.438c0,0.668-0.543,1.211-1.212,1.211s-1.212-0.543-1.212-1.211c0-0.671,0.543-1.213,1.212-1.213l0,0
		C28.101,35.225,28.644,35.767,28.644,36.438z"/>
	
		<linearGradient id="Path_17042_1_" gradientUnits="userSpaceOnUse" x1="-230.0991" y1="374.543" x2="-230.0991" y2="373.5693" gradientTransform="matrix(6.72 0 0 -6.72 1591.1013 2550.0945)">
		<stop  offset="0.13" style="stop-color:#00A9ED"/>
		<stop  offset="1" style="stop-color:#65106B"/>
	</linearGradient>
	<path id="Path_17042" fill="url(#Path_17042_1_)" d="M44.837,33.165c-1.807,0-3.271,1.465-3.271,3.272
		c0,1.806,1.464,3.271,3.271,3.271s3.271-1.465,3.271-3.271l0,0C48.107,34.63,46.644,33.166,44.837,33.165z M44.837,37.644
		c-0.669,0-1.213-0.542-1.213-1.212s0.544-1.212,1.213-1.212c0.67,0,1.211,0.542,1.211,1.212l0,0
		c0.004,0.67-0.538,1.214-1.207,1.217c0,0-0.002,0-0.004,0V37.644z"/>
</g>
</svg>
