<?xml version="1.0" encoding="utf-8"?>
<!-- Generator: Adobe Illustrator 16.0.0, SVG Export Plug-In . SVG Version: 6.00 Build 0)  -->
<!DOCTYPE svg PUBLIC "-//W3C//DTD SVG 1.1//EN" "http://www.w3.org/Graphics/SVG/1.1/DTD/svg11.dtd">
<svg version="1.1" id="Layer_1" xmlns="http://www.w3.org/2000/svg" xmlns:xlink="http://www.w3.org/1999/xlink" x="0px" y="0px"
	 width="72.984px" height="74.046px" viewBox="0 0 72.984 74.046" enable-background="new 0 0 72.984 74.046" xml:space="preserve">
<g id="Group_2084" transform="translate(-886.12 -4310.712)">
	<g id="Group_2083" transform="translate(886.12 4310.712)">
		
			<linearGradient id="Path_17011_1_" gradientUnits="userSpaceOnUse" x1="-275.1477" y1="424.6675" x2="-275.1477" y2="423.6675" gradientTransform="matrix(3.536327e-015 -57.7526 -29.4321 -1.802196e-015 12498.8711 -15845.3145)">
			<stop  offset="0.13" style="stop-color:#00A9ED"/>
			<stop  offset="1" style="stop-color:#65106B"/>
		</linearGradient>
		<path id="Path_17011" fill="url(#Path_17011_1_)" d="M9.871,16.404c2.792,0.58,4.585,3.313,4.004,6.105
			c-0.007,0.034-0.014,0.067-0.021,0.101l-2.555,11.174c-0.405,1.764-0.367,3.601,0.111,5.347c0.544-0.617,1.22-1.104,1.979-1.422
			l0.091-0.039c2.691-1.14,5.797,0.119,6.937,2.811c0.005,0.013,0.011,0.025,0.017,0.039l4.706,11.382
			c0.07,0.171,0.106,0.354,0.106,0.54v9.203h2.774c0.779,0,1.411,0.633,1.412,1.412v9.576c-0.001,0.779-0.632,1.41-1.411,1.412
			H4.159c-0.779-0.001-1.411-0.633-1.412-1.412v-9.575c0-0.78,0.632-1.413,1.412-1.413h3.449v-2.725L0.956,41.964
			c-1.06-2.689-1.244-5.644-0.527-8.443l3.389-13.334C4.493,17.506,7.165,15.836,9.871,16.404z M5.573,64.471v6.75h21.035v-6.75
			H5.573z M6.556,20.882l-3.39,13.334c-0.57,2.228-0.423,4.578,0.42,6.716l6.749,17.208c0.065,0.164,0.1,0.34,0.101,0.516v2.99
			h11.985v-8.922l-4.6-11.123c-0.521-1.26-1.964-1.857-3.223-1.337c-0.006,0.003-0.013,0.005-0.019,0.008l-0.091,0.039
			c-1.239,0.514-1.877,1.892-1.466,3.169l2.883,7.5l0.04,0.1c0.297,0.723-0.048,1.548-0.77,1.845s-1.547-0.048-1.844-0.769
			c-0.009-0.021-0.017-0.041-0.023-0.063l-0.018-0.047l0,0c-0.179-0.467-1.686-4.387-2.855-7.42
			c-0.026-0.066-0.051-0.133-0.073-0.199l-1.246-3.242c-0.987-2.563-1.187-5.361-0.571-8.037L11.1,21.98
			c0.326-1.25-0.422-2.527-1.672-2.853c-1.249-0.326-2.526,0.422-2.853,1.671c-0.007,0.027-0.014,0.054-0.02,0.082V20.882z"/>
		
			<linearGradient id="Path_17018_1_" gradientUnits="userSpaceOnUse" x1="-275.1467" y1="424.6694" x2="-275.1467" y2="423.6694" gradientTransform="matrix(3.536275e-015 -57.7517 -29.4305 -1.802099e-015 12541.749 -15845.0645)">
			<stop  offset="0.13" style="stop-color:#00A9ED"/>
			<stop  offset="1" style="stop-color:#65106B"/>
		</linearGradient>
		<path id="Path_17018" fill="url(#Path_17018_1_)" d="M63.111,16.404c-2.791,0.58-4.584,3.313-4.004,6.105
			c0.008,0.034,0.014,0.067,0.021,0.101l2.561,11.174c0.404,1.764,0.367,3.601-0.111,5.347c-0.545-0.617-1.221-1.104-1.979-1.422
			l-0.092-0.039c-2.689-1.142-5.797,0.113-6.938,2.804c-0.006,0.015-0.014,0.03-0.02,0.046l-4.705,11.382
			c-0.072,0.171-0.107,0.354-0.107,0.54v9.203h-2.775c-0.779,0-1.412,0.633-1.412,1.413v9.575c0,0.779,0.633,1.411,1.412,1.412
			h23.861c0.779-0.001,1.41-0.633,1.412-1.412v-9.575c0-0.78-0.633-1.413-1.412-1.413h-3.449v-2.725l6.652-16.959
			c1.059-2.688,1.242-5.642,0.523-8.441l-3.389-13.333C68.486,17.508,65.816,15.839,63.111,16.404L63.111,16.404z M67.41,64.471
			v6.75H46.375v-6.75H67.41z M66.427,20.882l3.389,13.334c0.57,2.228,0.424,4.578-0.42,6.716L62.65,58.14
			c-0.064,0.164-0.1,0.34-0.1,0.516v2.99H50.562v-8.922l4.6-11.123c0.52-1.26,1.963-1.857,3.223-1.337
			c0.006,0.003,0.012,0.005,0.018,0.008l0.092,0.039c1.238,0.514,1.877,1.892,1.465,3.169l-2.883,7.5l-0.039,0.1
			c-0.264,0.734,0.119,1.544,0.854,1.807c0.711,0.255,1.496-0.094,1.783-0.793l0.018-0.047l0,0c0.178-0.467,1.686-4.387,2.855-7.42
			c0.025-0.066,0.051-0.133,0.072-0.199l1.246-3.242c0.988-2.563,1.188-5.361,0.572-8.037l-2.559-11.175
			c-0.326-1.25,0.422-2.527,1.672-2.853c1.248-0.326,2.525,0.422,2.852,1.671c0.008,0.027,0.014,0.054,0.02,0.082L66.427,20.882z"/>
		
			<linearGradient id="Path_17016_1_" gradientUnits="userSpaceOnUse" x1="-260.5833" y1="424.8901" x2="-260.5833" y2="423.8901" gradientTransform="matrix(32.8863 0 0 -44.4106 8606.7285 18869.5645)">
			<stop  offset="0.13" style="stop-color:#00A9ED"/>
			<stop  offset="1" style="stop-color:#65106B"/>
		</linearGradient>
		<path id="Path_17016" fill="url(#Path_17016_1_)" d="M52.285,7.027C46.031,6.091,41.545,4,38.17,0.448l-0.01-0.009
			c-0.582-0.58-1.521-0.586-2.111-0.014l-0.023,0.024C32.65,4.001,28.163,6.092,21.91,7.028c-0.723,0.108-1.258,0.729-1.258,1.46
			v19.274c-0.014,2.324,0.807,4.575,2.311,6.346c1.836,2.05,3.897,3.886,6.146,5.472c2.329,1.68,4.759,3.217,7.275,4.601
			l0.068,0.043c0.409,0.261,0.934,0.249,1.331-0.028c0.006,0,4.607-2.645,7.301-4.609c2.248-1.588,4.309-3.423,6.145-5.473
			c1.504-1.771,2.324-4.022,2.311-6.346V8.482c0-0.73-0.535-1.351-1.258-1.459L52.285,7.027z M25.205,32.186
			c-1.045-1.234-1.612-2.803-1.6-4.42V9.738c4.347-0.666,8.469-2.37,12.017-4.969v35.568c-1.452-0.869-3.126-1.937-4.773-3.138
			c-2.065-1.454-3.959-3.135-5.647-5.013H25.205z M50.595,27.766c0.014,1.617-0.555,3.186-1.6,4.42
			c-1.688,1.878-3.582,3.56-5.646,5.013c-1.65,1.2-3.324,2.269-4.775,3.138V4.769c3.547,2.599,7.67,4.303,12.016,4.969
			L50.595,27.766z"/>
	</g>
</g>
</svg>
