<?xml version="1.0" encoding="utf-8"?>
<!-- Generator: Adobe Illustrator 16.0.0, SVG Export Plug-In . SVG Version: 6.00 Build 0)  -->
<!DOCTYPE svg PUBLIC "-//W3C//DTD SVG 1.1//EN" "http://www.w3.org/Graphics/SVG/1.1/DTD/svg11.dtd">
<svg version="1.1" id="Layer_1" xmlns="http://www.w3.org/2000/svg" xmlns:xlink="http://www.w3.org/1999/xlink" x="0px" y="0px"
	 width="64.453px" height="74px" viewBox="0 0 64.453 74" enable-background="new 0 0 64.453 74" xml:space="preserve">
<g id="worker" transform="translate(-5 -1)">
	
		<linearGradient id="Ellipse_195_1_" gradientUnits="userSpaceOnUse" x1="-179.4824" y1="306.3477" x2="-179.4824" y2="305.3477" gradientTransform="matrix(3 0 0 -3 582.9482 946.0391)">
		<stop  offset="0.13" style="stop-color:#00A9ED"/>
		<stop  offset="1" style="stop-color:#65106B"/>
	</linearGradient>
	<circle id="Ellipse_195" fill="url(#Ellipse_195_1_)" cx="44.5" cy="28.5" r="1.5"/>
	
		<linearGradient id="Ellipse_196_1_" gradientUnits="userSpaceOnUse" x1="-135.3369" y1="306.3477" x2="-135.3369" y2="305.3477" gradientTransform="matrix(2 0 0 -3 300.6743 946.0391)">
		<stop  offset="0.13" style="stop-color:#00A9ED"/>
		<stop  offset="1" style="stop-color:#65106B"/>
	</linearGradient>
	<ellipse id="Ellipse_196" fill="url(#Ellipse_196_1_)" cx="30" cy="28.5" rx="1" ry="1.5"/>
	
		<linearGradient id="Path_16795_1_" gradientUnits="userSpaceOnUse" x1="-240.0322" y1="353.9678" x2="-240.0322" y2="352.9678" gradientTransform="matrix(9.548 0 0 -4.774 2329.0566 1728.842)">
		<stop  offset="0.13" style="stop-color:#00A9ED"/>
		<stop  offset="1" style="stop-color:#65106B"/>
	</linearGradient>
	<path id="Path_16795" fill="url(#Path_16795_1_)" d="M42,39h-2.387c0,1.318-1.068,2.387-2.387,2.387S34.839,40.318,34.839,39
		h-2.387c0,2.637,2.137,4.773,4.774,4.773S42,41.637,42,39z"/>
	
		<linearGradient id="Path_16796_1_" gradientUnits="userSpaceOnUse" x1="-263.6641" y1="429.3057" x2="-263.6641" y2="428.3057" gradientTransform="matrix(64.4521 0 0 -74.0055 17030.9512 31772.9629)">
		<stop  offset="0.13" style="stop-color:#00A9ED"/>
		<stop  offset="1" style="stop-color:#65106B"/>
	</linearGradient>
	<path id="Path_16796" fill="url(#Path_16796_1_)" d="M57.664,57.247l-12.246-5.009c-1.348-0.548-2.229-1.859-2.225-3.314v-0.857
		c3.661-2.529,6.473-6.105,8.066-10.259h0.289c3.294-0.004,5.964-2.674,5.968-5.968v-8.355c1.315-0.002,2.382-1.068,2.384-2.384
		v-2.39c-0.002-1.317-1.069-2.385-2.387-2.387H56.6C53.314,5.62,41.974-0.393,31.271,2.893c-6.427,1.973-11.458,7.003-13.431,13.431
		H16.93c-1.318,0.001-2.386,1.069-2.387,2.387v2.39c0.001,1.318,1.069,2.386,2.387,2.387v8.355c0.006,3.294,2.676,5.961,5.97,5.964
		h0.288c1.594,4.155,4.406,7.731,8.067,10.26v0.856c0.004,1.455-0.877,2.767-2.225,3.313l-12.241,5.01
		C9.647,60.148,4.982,67.097,5,74.807V76h64.453v-1.193C69.472,67.096,64.806,60.147,57.664,57.247z M19.323,58.79l4.777-1.952
		v9.614h-4.777V58.79z M26.484,56.41l9.129,10.041h-9.129V56.41z M38.837,66.452l9.131-10.042v10.042H38.837z M50.355,56.837
		l4.773,1.953v7.663h-4.773V56.837z M52.042,35.37c0.463-1.797,0.698-3.645,0.701-5.5v-1.392c1.856,0.647,2.837,2.678,2.189,4.535
		C54.492,34.281,53.374,35.192,52.042,35.37z M55.128,27.1c-0.703-0.542-1.518-0.917-2.387-1.1v-2.516h2.387V27.1z M40.44,4.683
		l-1.394,5.45c-0.256,1.006-1.28,1.613-2.286,1.356c-0.666-0.17-1.186-0.69-1.356-1.356l-1.393-5.45
		C36.135,4.288,38.314,4.288,40.44,4.683L40.44,4.683z M31.7,5.27l1.394,5.455c0.583,2.283,2.906,3.662,5.189,3.08
		c1.513-0.386,2.693-1.567,3.079-3.08l1.391-5.455c5.301,1.714,9.5,5.8,11.356,11.053h-4.948v-2.388h-2.388v2.387h-2.387v-2.387H42
		v2.387h-9.547v-2.387h-2.387v2.387h-2.388v-2.387H25.29v2.387h-4.948C22.199,11.069,26.399,6.983,31.7,5.27z M16.935,18.71h40.581
		v2.39H16.935V18.71z M21.709,23.484v2.508c-0.868,0.183-1.684,0.559-2.387,1.1v-3.61L21.709,23.484z M19.322,31.839
		c0.005-1.512,0.961-2.858,2.387-3.361v1.393c0.002,1.855,0.237,3.703,0.7,5.5c-1.765-0.244-3.082-1.75-3.086-3.532H19.322z
		 M24.1,29.871v-6.387h26.255v6.387c0.008,8.358-5.252,15.813-13.129,18.607C29.35,45.684,24.091,38.228,24.1,29.871z
		 M36.852,50.871l0.377,0.127l0.377-0.125c1.115-0.371,2.199-0.83,3.242-1.373c0.114,1.25,0.623,2.432,1.452,3.375
		c-1.727,2.803-5.399,3.676-8.202,1.949c-0.793-0.488-1.46-1.156-1.949-1.949c0.829-0.943,1.337-2.125,1.451-3.375
		c1.044,0.544,2.129,1.004,3.246,1.375L36.852,50.871z M29.941,54.443c0.1-0.041,0.195-0.1,0.294-0.146
		c2.51,3.863,7.677,4.959,11.539,2.449c0.979-0.636,1.813-1.471,2.449-2.449c0.101,0.048,0.192,0.1,0.3,0.146l1.466,0.601
		l-8.755,9.631l-8.755-9.631L29.941,54.443z M7.429,73.613c0.419-5.991,4.06-11.281,9.506-13.813v13.813H7.429z M19.323,73.613
		v-4.774h35.805v4.774H19.323z M57.517,73.613V59.8c5.447,2.532,9.088,7.823,9.507,13.815L57.517,73.613z"/>
</g>
</svg>
