<?xml version="1.0" encoding="utf-8"?>
<!-- Generator: Adobe Illustrator 16.0.0, SVG Export Plug-In . SVG Version: 6.00 Build 0)  -->
<!DOCTYPE svg PUBLIC "-//W3C//DTD SVG 1.1//EN" "http://www.w3.org/Graphics/SVG/1.1/DTD/svg11.dtd">
<svg version="1.1" id="Layer_1" xmlns="http://www.w3.org/2000/svg" xmlns:xlink="http://www.w3.org/1999/xlink" x="0px" y="0px"
	 width="101.167px" height="60.479px" viewBox="0 0 101.167 60.479" enable-background="new 0 0 101.167 60.479"
	 xml:space="preserve">
<g id="truck-cement" transform="translate(0 -102.96)">
	<g id="Group_2132" transform="translate(0 102.962)">
		<g id="Group_2131">
			
				<linearGradient id="Path_17227_1_" gradientUnits="userSpaceOnUse" x1="-171.4063" y1="349.5476" x2="-171.4063" y2="348.5681" gradientTransform="matrix(2.964 0 0 -5.064 578.946 1798.901)">
				<stop  offset="0.13" style="stop-color:#00A9ED"/>
				<stop  offset="1" style="stop-color:#65106B"/>
			</linearGradient>
			<path id="Path_17227" fill="url(#Path_17227_1_)" d="M69.449,30.25v2.056c0.002,0.802,0.654,1.45,1.455,1.448
				c0.798-0.002,1.445-0.649,1.447-1.448V30.25c0.003-0.802-0.646-1.453-1.447-1.456c-0.801-0.002-1.453,0.646-1.455,1.448
				C69.449,30.244,69.449,30.247,69.449,30.25z"/>
			
				<linearGradient id="Path_17228_1_" gradientUnits="userSpaceOnUse" x1="-243.6299" y1="401.7839" x2="-243.6299" y2="400.8044" gradientTransform="matrix(22.791 0 0 -15.679 5633.4028 6311.7563)">
				<stop  offset="0.13" style="stop-color:#00A9ED"/>
				<stop  offset="1" style="stop-color:#65106B"/>
			</linearGradient>
			<path id="Path_17228" fill="url(#Path_17228_1_)" d="M91.997,25.666c0.002-0.358-0.101-0.708-0.293-1.009l-7.481-11.604
				c-0.347-0.538-0.942-0.862-1.582-0.861H71.558c-1.038,0.002-1.88,0.844-1.882,1.883v11.59c0.002,1.039,0.844,1.88,1.882,1.882
				h18.556C91.153,27.547,91.996,26.705,91.997,25.666z M72.58,24.646v-9.55h9.499l6.157,9.55H72.58z"/>
			
				<linearGradient id="Path_17229_1_" gradientUnits="userSpaceOnUse" x1="-231.5986" y1="390.488" x2="-231.5986" y2="389.5085" gradientTransform="matrix(10.774 0 0 -10.774 2575.9998 4251.6787)">
				<stop  offset="0.13" style="stop-color:#00A9ED"/>
				<stop  offset="1" style="stop-color:#65106B"/>
			</linearGradient>
			<path id="Path_17229" fill="url(#Path_17229_1_)" d="M80.755,44.574c-2.913,0-5.275,2.362-5.275,5.275
				c0,2.914,2.362,5.275,5.275,5.275s5.275-2.361,5.275-5.275l0,0C86.031,46.936,83.668,44.574,80.755,44.574z M80.755,52.222
				c-1.311,0-2.373-1.063-2.373-2.373c0-1.311,1.063-2.373,2.373-2.373c1.31,0,2.372,1.063,2.372,2.373
				C83.127,51.159,82.065,52.222,80.755,52.222L80.755,52.222z"/>
			
				<linearGradient id="Path_17230_1_" gradientUnits="userSpaceOnUse" x1="-231.4829" y1="390.488" x2="-231.4829" y2="389.5085" gradientTransform="matrix(10.774 0 0 -10.774 2515.2097 4251.6787)">
				<stop  offset="0.13" style="stop-color:#00A9ED"/>
				<stop  offset="1" style="stop-color:#65106B"/>
			</linearGradient>
			<path id="Path_17230" fill="url(#Path_17230_1_)" d="M21.215,44.574c-2.914,0-5.276,2.362-5.276,5.275
				c0,2.914,2.362,5.275,5.276,5.275s5.275-2.361,5.275-5.275l0,0C26.491,46.936,24.129,44.574,21.215,44.574z M21.215,52.222
				c-1.311,0-2.373-1.063-2.373-2.373c0-1.311,1.062-2.373,2.373-2.373s2.373,1.063,2.373,2.373
				C23.588,51.159,22.526,52.222,21.215,52.222L21.215,52.222z"/>
			
				<linearGradient id="Path_17231_1_" gradientUnits="userSpaceOnUse" x1="-251.9805" y1="420.2644" x2="-251.9805" y2="419.2859" gradientTransform="matrix(101.165 0 0 -60.4847 25542.0977 25420.8574)">
				<stop  offset="0.13" style="stop-color:#00A9ED"/>
				<stop  offset="1" style="stop-color:#65106B"/>
			</linearGradient>
			<path id="Path_17231" fill="url(#Path_17231_1_)" d="M97.026,42.192v-4.465c-0.001-0.802-0.652-1.45-1.454-1.449
				c-0.8,0.001-1.447,0.649-1.448,1.449v4.398h-6.072c-4.09-3.877-10.497-3.877-14.586,0h-5.914V10.797
				c0-0.403,0.327-0.73,0.73-0.73l0,0h16.143c0.249,0,0.48,0.126,0.614,0.335l8.968,13.906c0.075,0.117,0.116,0.253,0.117,0.392
				v7.114c0.001,0.801,0.651,1.45,1.453,1.449c0.8-0.002,1.448-0.649,1.448-1.449V24.7c0.001-0.698-0.201-1.382-0.579-1.968
				L87.474,8.828c-0.667-1.04-1.816-1.667-3.053-1.665H68.28c-2.005,0.003-3.629,1.628-3.632,3.632v4.945h-2.057
				c-1.292,0.002-2.339,1.049-2.341,2.341v2.557l-2.242-3.281c-4.259-6.344-10.391-11.2-17.542-13.893l-0.03-0.012
				c-0.581-0.214-1.168-0.414-1.763-0.598l-0.133-0.042c-0.58-0.179-1.166-0.341-1.756-0.489l-0.108-0.028
				c-5.381-1.319-10.993-1.394-16.408-0.218c-0.784,0.167-1.284,0.938-1.117,1.722c0.167,0.784,0.938,1.285,1.722,1.118
				c2.329-0.497,4.703-0.752,7.083-0.761l-9.263,31.996c-1.94-1.37-3.731-2.938-5.345-4.681l-0.098-0.11
				c-0.174-0.189-0.346-0.38-0.516-0.573l-0.228-0.262c-0.137-0.16-0.273-0.32-0.409-0.482c-0.068-0.083-0.137-0.164-0.205-0.246
				c-0.188-0.229-0.372-0.461-0.554-0.696c-0.061-0.077-0.12-0.157-0.179-0.235c-0.14-0.182-0.278-0.366-0.414-0.553
				c-0.059-0.08-0.119-0.16-0.177-0.241c-0.186-0.258-0.37-0.518-0.55-0.784l-2.247-3.289l0,0l-1.915-2.802
				c-0.521-0.838-0.627-1.869-0.286-2.794l2.856-8.296C8.729,9.168,9.447,8.42,10.373,8.08l4.988-1.59
				c0.765-0.239,1.192-1.053,0.954-1.818s-1.052-1.191-1.818-0.954c-0.006,0.002-0.011,0.004-0.017,0.006L9.492,5.314
				C7.688,5.927,6.278,7.352,5.684,9.162l-2.856,8.295c-0.645,1.792-0.41,3.783,0.634,5.375l1.659,2.43v16.863H4.721
				C2.666,42.126,1,43.792,1,45.846l0,0v0.996c0,2.055,1.666,3.721,3.721,3.721l0,0h5.893c0.391,5.855,5.454,10.286,11.309,9.896
				c5.312-0.354,9.542-4.584,9.896-9.896h38.335c0.39,5.855,5.453,10.286,11.309,9.896c5.313-0.354,9.542-4.584,9.896-9.896h4.995
				c2.055,0,3.721-1.666,3.721-3.721l0,0v-0.996C100.07,44.053,98.789,42.518,97.026,42.192z M8.023,29.503
				c0.04,0.055,0.08,0.106,0.119,0.162c0.168,0.234,0.339,0.467,0.511,0.695c0.075,0.098,0.148,0.195,0.225,0.293
				c0.786,1.027,1.623,2.015,2.508,2.958l0.007,0.008v8.501H8.023V29.503z M10.814,47.666H4.721
				c-0.452-0.001-0.819-0.367-0.819-0.819v-1c0-0.452,0.367-0.818,0.819-0.819h7.025C11.32,45.861,11.006,46.748,10.814,47.666
				L10.814,47.666z M63.154,26.735v-8.089h1.496v23.48h-1.498L63.154,26.735z M60.25,36.234v5.892h-7.755l3.641-1.159
				c1.804-0.614,3.214-2.039,3.809-3.849L60.25,36.234z M55.613,18.997l4.158,6.089c0.521,0.838,0.627,1.87,0.286,2.795
				l-2.855,8.294c-0.301,0.941-1.019,1.691-1.946,2.031l-7.026,2.239c-3.44,1.106-7.031,1.675-10.646,1.683
				c-0.695,0-1.388-0.022-2.077-0.066L45.104,8.94c4.177,2.569,7.758,5.998,10.506,10.06L55.613,18.997z M30.949,4.282
				c4.015,0.348,7.931,1.44,11.548,3.219l-9.922,34.243c-3.99-0.609-7.833-1.956-11.331-3.971L30.949,4.282z M14.294,36.404
				c1.344,1.153,2.771,2.208,4.268,3.153c-1.576,0.408-3.036,1.174-4.268,2.237V36.404z M21.215,57.578
				c-4.267,0-7.726-3.459-7.726-7.727c0-4.267,3.459-7.726,7.726-7.726c4.267,0,7.726,3.459,7.726,7.726
				C28.941,54.119,25.482,57.578,21.215,57.578L21.215,57.578z M70.352,47.667H31.618c-0.193-0.916-0.507-1.802-0.934-2.635h40.601
				c-0.427,0.832-0.74,1.718-0.934,2.633V47.667z M80.755,57.578c-4.268,0-7.726-3.459-7.726-7.727c0-4.267,3.458-7.726,7.726-7.726
				c4.267,0,7.726,3.459,7.726,7.726C88.481,54.119,85.022,57.578,80.755,57.578L80.755,57.578z M96.353,47.667h-5.195
				c-0.192-0.916-0.507-1.802-0.934-2.635h6.129c0.454,0.001,0.82,0.367,0.821,0.819v0.996l0,0
				c-0.002,0.451-0.369,0.816-0.821,0.817V47.667z"/>
		</g>
	</g>
</g>
</svg>
