<?xml version="1.0" encoding="utf-8"?>
<!-- Generator: Adobe Illustrator 16.0.0, SVG Export Plug-In . SVG Version: 6.00 Build 0)  -->
<!DOCTYPE svg PUBLIC "-//W3C//DTD SVG 1.1//EN" "http://www.w3.org/Graphics/SVG/1.1/DTD/svg11.dtd">
<svg version="1.1" id="Layer_1" xmlns="http://www.w3.org/2000/svg" xmlns:xlink="http://www.w3.org/1999/xlink" x="0px" y="0px"
	 width="73px" height="73px" viewBox="0 0 73 73" enable-background="new 0 0 73 73" xml:space="preserve">
<g id="fever" transform="translate(-1 -0.999)">
	
		<linearGradient id="Path_16710_1_" gradientUnits="userSpaceOnUse" x1="-263.9297" y1="428.7256" x2="-263.9297" y2="427.7256" gradientTransform="matrix(73 0 0 -73.0029 19304.375 31300.2383)">
		<stop  offset="0.13" style="stop-color:#00A9ED"/>
		<stop  offset="1" style="stop-color:#65106B"/>
	</linearGradient>
	<path id="Path_16710" fill="url(#Path_16710_1_)" d="M70.468,37.323H51.994c3.246-2.14,4.143-6.506,2.002-9.751
		c-0.063-0.096-0.129-0.19-0.196-0.283c0.896-2.443,1.354-5.025,1.358-7.627v-2.928C55.157,8.597,48.561,2,40.423,2.001
		c-2.691,0-5.331,0.738-7.633,2.132c-6.959-4.218-16.02-1.996-20.237,4.963c-1.396,2.303-2.134,4.944-2.134,7.637v0.26l-1.177-2.06
		l-5.119,8.959c-1.565,2.85-0.524,6.429,2.325,7.994c1.237,0.68,2.677,0.892,4.058,0.599c0.477,3.156,3.009,5.6,6.179,5.967
		c1.188,5.43,5.026,9.898,10.215,11.895v2.477l-9.876,1.799C7.744,56.308,0.998,64.39,1,73.823v1.176h63.581v-1.176
		c0.001-9.436-6.748-17.518-16.031-19.201l-9.872-1.799v-2.473c2.438-0.936,4.618-2.439,6.358-4.387
		c0.058,0.025,0.122,0.035,0.179,0.064c0.938,0.469,1.973,0.713,3.021,0.715h22.231c1.95-0.004,3.53-1.584,3.532-3.533v-2.355
		C73.997,38.905,72.418,37.326,70.468,37.323z M49.214,36c0.021-0.344,0.06-0.685,0.06-1.029v-8.078
		c2.51,0.642,4.022,3.197,3.381,5.705c-0.431,1.681-1.754,2.987-3.44,3.395V36z M12.774,19.661v-2.927
		c0-6.836,5.542-12.379,12.379-12.379c2.444,0,4.833,0.724,6.867,2.08l0.77,0.513l0.77-0.513c5.688-3.792,13.374-2.256,17.167,3.433
		c1.355,2.034,2.08,4.423,2.08,6.867v2.927c-0.001,1.981-0.297,3.952-0.877,5.847c-0.807-0.521-1.709-0.873-2.656-1.032V22.6
		l-4.709-3.532v-2.939c-0.002-1.3-1.055-2.354-2.355-2.355H23.371c-1.3,0.001-2.354,1.055-2.355,2.355v2.944l-4.71,3.527v1.866
		c-0.515,0.092-1.019,0.242-1.5,0.446c-0.116-0.356-0.267-0.7-0.449-1.026l-1.517-2.653c-0.04-0.523-0.069-1.049-0.069-1.578
		L12.774,19.661z M42.211,23.193h-18.84v-7.064H42.21L42.211,23.193z M9.184,30.258c-1.919,0.001-3.475-1.553-3.476-3.472
		c0-0.606,0.158-1.202,0.459-1.728l3.074-5.38l3.074,5.38c0.953,1.667,0.375,3.79-1.292,4.743
		C10.464,30.121,9.827,30.279,9.184,30.258L9.184,30.258z M12.774,31.437c1.29-0.966,2.12-2.425,2.291-4.028
		c0.386-0.233,0.804-0.408,1.241-0.52v8.079c0,0.346,0.031,0.685,0.052,1.027C14.259,35.478,12.781,33.599,12.774,31.437z
		 M18.661,34.968V23.782l2.355-1.766v1.177c0.001,1.3,1.055,2.354,2.355,2.355H42.21c1.3-0.001,2.354-1.055,2.354-2.355v-1.177
		l2.355,1.766v11.186c-0.008,0.854-0.092,1.704-0.252,2.542c-0.502,0.12-0.99,0.296-1.452,0.526
		c-0.61,0.305-1.284,0.463-1.967,0.464h-8.1c-1.951,0-3.532,1.581-3.532,3.532s1.582,3.533,3.532,3.533H42.1
		c-5.84,5.156-14.755,4.602-19.912-1.238c-2.282-2.584-3.538-5.914-3.532-9.362L18.661,34.968z M35.145,43.21
		c-0.65,0-1.178-0.527-1.178-1.178s0.527-1.178,1.178-1.178h1.177v2.355H35.145z M27.473,55.11c0.755,1.611,2.198,2.795,3.927,3.221
		c-0.861,1.668-2.628,2.664-4.5,2.539c-2.6,0-4.71-1.584-4.71-3.531c0.006-0.473,0.139-0.936,0.383-1.34L27.473,55.11z
		 M62.186,72.645H3.395c0.536-7.836,6.326-14.309,14.054-15.709l2.471-0.451c-0.053,0.281-0.08,0.566-0.081,0.852
		c0,3.246,3.168,5.889,7.065,5.889c2.26,0.049,4.422-0.92,5.887-2.641c1.465,1.721,3.627,2.689,5.887,2.641
		c3.9,0,7.065-2.643,7.065-5.889c-0.001-0.285-0.028-0.57-0.08-0.85l2.471,0.449C55.861,58.339,61.65,64.81,62.186,72.645z
		 M43.008,55.999c0.242,0.404,0.373,0.865,0.379,1.334c0,1.947-2.111,3.533-4.709,3.533c-1.873,0.125-3.64-0.873-4.5-2.539
		c1.727-0.426,3.168-1.607,3.922-3.219L43.008,55.999z M36.323,51.446v1.178c0.033,1.951-1.522,3.559-3.473,3.592
		c-1.951,0.033-3.559-1.521-3.592-3.473c0-0.041,0-0.08,0-0.119v-1.563c2.327,0.518,4.739,0.518,7.065,0V51.446z M46.27,43.917
		c-0.938-0.469-1.973-0.711-3.021-0.713h-4.572v-2.35h4.571c1.048-0.002,2.082-0.244,3.02-0.711
		c0.611-0.305,1.285-0.465,1.967-0.467h16.347v4.711H48.236c-0.684-0.002-1.357-0.16-1.969-0.467L46.27,43.917z M71.646,43.2
		c-0.002,0.648-0.527,1.176-1.178,1.176h-3.533v-4.709h3.531c0.65,0,1.176,0.527,1.178,1.176L71.646,43.2z"/>
	
		<linearGradient id="Path_16711_1_" gradientUnits="userSpaceOnUse" x1="-342.0688" y1="383.3076" x2="-342.0688" y2="382.3076" gradientTransform="matrix(1.307 -1.9594 -7.0637 -4.7119 3190.991 1163.8057)">
		<stop  offset="0.13" style="stop-color:#00A9ED"/>
		<stop  offset="1" style="stop-color:#65106B"/>
	</linearGradient>
	<path id="Path_16711" fill="url(#Path_16711_1_)" d="M35.679,28.892l1.307-1.959l7.064,4.712l-1.308,1.959L35.679,28.892z"/>
	
		<linearGradient id="Path_16712_1_" gradientUnits="userSpaceOnUse" x1="-267.126" y1="236.6299" x2="-267.126" y2="235.6299" gradientTransform="matrix(7.0637 -4.7119 -1.307 -1.9594 2221.2593 -765.7793)">
		<stop  offset="0.13" style="stop-color:#00A9ED"/>
		<stop  offset="1" style="stop-color:#65106B"/>
	</linearGradient>
	<path id="Path_16712" fill="url(#Path_16712_1_)" d="M21.547,31.625l7.064-4.712l1.307,1.959l-7.063,4.712L21.547,31.625z"/>
</g>
</svg>
