<?xml version="1.0" encoding="utf-8"?>
<!-- Generator: Adobe Illustrator 16.0.0, SVG Export Plug-In . SVG Version: 6.00 Build 0)  -->
<!DOCTYPE svg PUBLIC "-//W3C//DTD SVG 1.1//EN" "http://www.w3.org/Graphics/SVG/1.1/DTD/svg11.dtd">
<svg version="1.1" id="Layer_1" xmlns="http://www.w3.org/2000/svg" xmlns:xlink="http://www.w3.org/1999/xlink" x="0px" y="0px"
	 width="75.572px" height="71.793px" viewBox="0 0 75.572 71.793" enable-background="new 0 0 75.572 71.793" xml:space="preserve">
<linearGradient id="Path_16822_1_" gradientUnits="userSpaceOnUse" x1="-163.9724" y1="415.4365" x2="-163.9724" y2="414.4521" gradientTransform="matrix(2.52 0 0 -22.7075 422.887 9470.5869)">
	<stop  offset="0.13" style="stop-color:#00A9ED"/>
	<stop  offset="1" style="stop-color:#65106B"/>
</linearGradient>
<path id="Path_16822" fill="url(#Path_16822_1_)" d="M9.674,37.099c-0.684,0-1.239,0.556-1.239,1.239v19.825
	c-0.02,0.684,0.52,1.255,1.205,1.273c0.684,0.02,1.255-0.519,1.274-1.204c0-0.023,0-0.046,0-0.069V38.338
	C10.913,37.654,10.359,37.099,9.674,37.099z"/>
<linearGradient id="Path_16823_1_" gradientUnits="userSpaceOnUse" x1="-258.8572" y1="425.8779" x2="-258.8572" y2="424.8936" gradientTransform="matrix(31.12 0 0 -59.1625 8071.9404 25197.1113)">
	<stop  offset="0.13" style="stop-color:#00A9ED"/>
	<stop  offset="1" style="stop-color:#65106B"/>
</linearGradient>
<path id="Path_16823" fill="url(#Path_16823_1_)" d="M18.892,27.187c0.685,0,1.24-0.555,1.24-1.24l0,0
	c0-0.134-0.026-0.268-0.075-0.394c-0.148-0.478-0.568-0.82-1.065-0.867c-3.007-0.285-5.371-2.695-5.597-5.706
	c0.007-0.045,0.007-0.091,0-0.136v-0.135c-0.006-0.065-0.006-0.131,0-0.197v-6.198h5.076c0.684-0.019,1.223-0.59,1.204-1.274
	c-0.019-0.657-0.547-1.186-1.204-1.204h-6.319c-0.685,0-1.239,0.555-1.239,1.24l0,0v5.525c-1.574-1.406-2.474-3.416-2.479-5.525
	V3.645h14.87c2.432,0,4.709,1.189,6.1,3.185c0.422,0.537,1.202,0.629,1.739,0.207c0.493-0.389,0.618-1.084,0.29-1.62
	c-1.851-2.66-4.887-4.247-8.128-4.25H8.435c-1.368,0-2.478,1.11-2.478,2.478l0,0v7.435c-0.017,3.589,1.907,6.906,5.03,8.674
	c0.263,1.878,1.133,3.619,2.479,4.956H9.673C4.884,24.708,1,28.591,1,33.381c0,0.001,0,0.002,0,0.003v24.779
	c0.019,0.684,0.59,1.224,1.274,1.205c0.657-0.02,1.186-0.548,1.204-1.205v-24.78c0-3.423,2.775-6.198,6.198-6.198L18.892,27.187z"/>
<linearGradient id="Path_16824_1_" gradientUnits="userSpaceOnUse" x1="-235.7917" y1="381.3916" x2="-235.7917" y2="380.4072" gradientTransform="matrix(8.2751 0 0 -7.5531 1969.9102 2910.3591)">
	<stop  offset="0.13" style="stop-color:#00A9ED"/>
	<stop  offset="1" style="stop-color:#65106B"/>
</linearGradient>
<path id="Path_16824" fill="url(#Path_16824_1_)" d="M18.347,35.563l-0.893-3.419h4.04c0.684,0.02,1.255-0.52,1.274-1.204
	s-0.52-1.254-1.204-1.274c-0.024-0.001-0.047-0.001-0.07,0h-5.625c-0.679-0.006-1.235,0.539-1.241,1.218
	c-0.001,0.107,0.012,0.214,0.039,0.319l1.239,4.956c0.177,0.671,0.864,1.072,1.535,0.895c0.651-0.171,1.052-0.826,0.907-1.485
	L18.347,35.563z"/>
<linearGradient id="Path_16825_1_" gradientUnits="userSpaceOnUse" x1="-164.3464" y1="415.4355" x2="-164.3464" y2="414.4512" gradientTransform="matrix(2.52 0 0 -22.7073 480.8262 9470.502)">
	<stop  offset="0.13" style="stop-color:#00A9ED"/>
	<stop  offset="1" style="stop-color:#65106B"/>
</linearGradient>
<path id="Path_16825" fill="url(#Path_16825_1_)" d="M66.672,37.099c-0.686,0-1.239,0.556-1.239,1.239l0,0v19.825
	c-0.02,0.684,0.52,1.255,1.203,1.273c0.686,0.02,1.255-0.521,1.274-1.204c0.001-0.023,0.001-0.046,0-0.069V38.338
	C67.91,37.654,67.355,37.099,66.672,37.099z"/>
<linearGradient id="Path_16826_1_" gradientUnits="userSpaceOnUse" x1="-258.6052" y1="425.8838" x2="-258.6052" y2="424.9004" gradientTransform="matrix(30.1232 0 0 -59.2333 7850.5381 25227.6855)">
	<stop  offset="0.13" style="stop-color:#00A9ED"/>
	<stop  offset="1" style="stop-color:#65106B"/>
</linearGradient>
<path id="Path_16826" fill="url(#Path_16826_1_)" d="M70.389,25.551V13.562c0-6.845-5.548-12.394-12.393-12.396h-2.478
	c-3.653,0.008-7.117,1.628-9.467,4.427c-0.478,0.491-0.467,1.275,0.024,1.753s1.275,0.466,1.753-0.024
	c0.043-0.044,0.083-0.091,0.118-0.142c1.882-2.236,4.653-3.528,7.575-3.532h2.478c5.473,0.004,9.907,4.441,9.906,9.914v11.233
	c-0.286,0-0.572-0.025-0.855-0.075H62.84c1.663-1.637,2.597-3.874,2.59-6.208v-7.434c0-0.685-0.556-1.24-1.24-1.24l0,0h-9.318
	c-0.684-0.02-1.254,0.52-1.273,1.204c-0.02,0.684,0.52,1.255,1.204,1.274c0.023,0.001,0.047,0.001,0.069,0h8.079v6.197
	c0.016,3.203-2.412,5.889-5.602,6.198c-0.497,0.047-0.917,0.39-1.065,0.868c-0.049,0.125-0.073,0.259-0.073,0.393
	c0,0.685,0.554,1.239,1.238,1.24h3.395l-4.708,8.46c-0.304,0.616-0.051,1.359,0.564,1.663c0.57,0.282,1.26,0.089,1.6-0.449
	l5.378-9.702h3.258c0.613,0.024,1.22,0.141,1.797,0.346h0.099c2.437,0.911,4.046,3.247,4.027,5.849v24.782
	c-0.019,0.684,0.521,1.255,1.204,1.273c0.685,0.02,1.255-0.521,1.273-1.204c0.001-0.023,0.001-0.046,0-0.069V33.382
	c-0.002-3.348-1.931-6.396-4.956-7.831H70.389z"/>
<linearGradient id="Path_16827_1_" gradientUnits="userSpaceOnUse" x1="-260.7712" y1="426.2773" x2="-260.7712" y2="425.293" gradientTransform="matrix(40.311 0 0 -63.0126 10550.1309 26870.6445)">
	<stop  offset="0.13" style="stop-color:#00A9ED"/>
	<stop  offset="1" style="stop-color:#65106B"/>
</linearGradient>
<path id="Path_16827" fill="url(#Path_16827_1_)" d="M49.324,37.099h-4.152c1.933-1.558,3.288-3.716,3.854-6.133
	c3.229-1.719,5.249-5.077,5.255-8.735v-2.479c0-5.475-4.438-9.913-9.912-9.913l0,0H24.545c-1.368,0-2.478,1.109-2.478,2.478v9.917
	c0.005,3.658,2.025,7.015,5.254,8.734c0.566,2.417,1.921,4.576,3.854,6.133h-4.151c-4.79-0.002-8.674,3.879-8.676,8.669v24.783
	c-0.02,0.684,0.52,1.254,1.204,1.273c0.685,0.02,1.254-0.521,1.274-1.205c0.001-0.022,0.001-0.046,0-0.068V45.771
	c0-3.422,2.775-6.198,6.198-6.198l0,0h22.304c3.423,0,6.197,2.774,6.197,6.198l0,0v24.783c-0.019,0.684,0.521,1.254,1.204,1.273
	c0.685,0.02,1.255-0.521,1.273-1.205c0.001-0.022,0.001-0.046,0-0.068V45.771c0-4.79-3.882-8.673-8.672-8.673
	C49.328,37.099,49.326,37.099,49.324,37.099L49.324,37.099z M24.545,22.235v-9.917h19.823c4.105,0,7.433,3.328,7.434,7.434v2.484
	c-0.004,2.11-0.904,4.119-2.478,5.526v-9.248c0-0.684-0.556-1.239-1.24-1.239H28.26c-0.685,0-1.239,0.555-1.239,1.239l0,0v9.248
	C25.448,26.353,24.549,24.344,24.545,22.235z M29.65,30.065c0.007-0.045,0.007-0.091,0-0.136c-0.078-0.434-0.126-0.873-0.149-1.313
	v-8.864h17.347v8.859c-0.018,0.44-0.063,0.878-0.136,1.313c-0.008,0.045-0.008,0.091,0,0.136c-0.884,4.708-5.417,7.807-10.125,6.924
	c-3.514-0.66-6.264-3.41-6.924-6.924L29.65,30.065z"/>
<linearGradient id="Path_16828_1_" gradientUnits="userSpaceOnUse" x1="-241.5662" y1="417.1484" x2="-241.5662" y2="416.1641" gradientTransform="matrix(10.1257 0 0 -25.2507 2484.2244 10575.2627)">
	<stop  offset="0.13" style="stop-color:#00A9ED"/>
	<stop  offset="1" style="stop-color:#65106B"/>
</linearGradient>
<path id="Path_16828" fill="url(#Path_16828_1_)" d="M42.193,42.056c-0.664-0.165-1.336,0.24-1.501,0.903l-1.003,4.053h-3.024
	l-0.966-4.015c-0.131-0.672-0.781-1.11-1.454-0.979c-0.671,0.131-1.11,0.78-0.98,1.452c0.009,0.043,0.019,0.083,0.031,0.121
	l1.239,4.758l-1.313,13.89c-0.035,0.396,0.122,0.782,0.42,1.041l3.718,3.248c0.468,0.411,1.168,0.411,1.636,0l3.717-3.248
	c0.299-0.259,0.455-0.646,0.422-1.041l-1.24-13.89l1.24-4.758c0.179-0.661-0.213-1.341-0.873-1.52
	C42.239,42.065,42.217,42.06,42.193,42.056L42.193,42.056z M38.173,63.948l-2.479-2.067l1.09-12.395h2.677l1.189,12.395
	L38.173,63.948z"/>
<linearGradient id="Path_16829_1_" gradientUnits="userSpaceOnUse" x1="-164.0447" y1="415.3916" x2="-164.0447" y2="414.4082" gradientTransform="matrix(2.519 0 0 -22.6365 440.2482 9452.5049)">
	<stop  offset="0.13" style="stop-color:#00A9ED"/>
	<stop  offset="1" style="stop-color:#65106B"/>
</linearGradient>
<path id="Path_16829" fill="url(#Path_16829_1_)" d="M27.021,49.49c-0.685,0-1.24,0.555-1.24,1.239l0,0v19.825
	c0.02,0.684,0.59,1.222,1.274,1.202c0.657-0.017,1.186-0.546,1.205-1.202V50.729C28.26,50.045,27.705,49.49,27.021,49.49z"/>
<linearGradient id="Path_16830_1_" gradientUnits="userSpaceOnUse" x1="-164.1912" y1="415.3916" x2="-164.1912" y2="414.4082" gradientTransform="matrix(2.519 0 0 -22.6367 462.9214 9452.6074)">
	<stop  offset="0.13" style="stop-color:#00A9ED"/>
	<stop  offset="1" style="stop-color:#65106B"/>
</linearGradient>
<path id="Path_16830" fill="url(#Path_16830_1_)" d="M49.324,49.49c-0.685,0-1.24,0.555-1.24,1.239l0,0v19.825
	c0.02,0.684,0.59,1.224,1.274,1.204c0.657-0.019,1.186-0.548,1.204-1.204V50.729C50.562,50.045,50.009,49.49,49.324,49.49z"/>
</svg>
