<?xml version="1.0" encoding="utf-8"?>
<!-- Generator: Adobe Illustrator 16.0.0, SVG Export Plug-In . SVG Version: 6.00 Build 0)  -->
<!DOCTYPE svg PUBLIC "-//W3C//DTD SVG 1.1//EN" "http://www.w3.org/Graphics/SVG/1.1/DTD/svg11.dtd">
<svg version="1.1" id="Layer_1" xmlns="http://www.w3.org/2000/svg" xmlns:xlink="http://www.w3.org/1999/xlink" x="0px" y="0px"
	 width="64.925px" height="64.925px" viewBox="0 0 64.925 64.925" enable-background="new 0 0 64.925 64.925" xml:space="preserve">
<g id="Group_1997" transform="translate(-1083.029 -2031)">
	
		<linearGradient id="Path_16799_1_" gradientUnits="userSpaceOnUse" x1="819.8816" y1="2442.1831" x2="819.8816" y2="2441.2124" gradientTransform="matrix(28.134 0 0 -21.8106 -21933.123 55338.3125)">
		<stop  offset="0.13" style="stop-color:#00A9ED"/>
		<stop  offset="1" style="stop-color:#65106B"/>
	</linearGradient>
	<path id="Path_16799" fill="url(#Path_16799_1_)" d="M1133.418,2072.847c0,0,0.469-0.739-2.005,1.626
		c-2.474,2.363-7.889,7.886-7.889,7.886h-2.718c-0.58,0-1.051,0.471-1.051,1.051l0,0v9.457c0,0.581,0.471,1.051,1.051,1.051l0,0
		h25.219c0.58,0,1.051-0.47,1.051-1.051l0,0v-9.457c0-0.58-0.471-1.051-1.051-1.051l0,0h-2.718l-7.889-7.886
		C1134.831,2073.839,1134.157,2073.292,1133.418,2072.847z M1144.975,2084.46v7.361h-23.113v-7.361H1144.975z M1140.336,2082.359
		h-13.839l6.921-6.919L1140.336,2082.359z"/>
	
		<linearGradient id="Path_16798_1_" gradientUnits="userSpaceOnUse" x1="814.5691" y1="2453.9712" x2="814.5691" y2="2452.9995" gradientTransform="matrix(64.921 0 0 -64.924 -51767.0664 161353.6875)">
		<stop  offset="0.13" style="stop-color:#00A9ED"/>
		<stop  offset="1" style="stop-color:#65106B"/>
	</linearGradient>
	<path id="Path_16798" fill="url(#Path_16798_1_)" d="M1136.567,2063.525c0.58,0,1.051-0.47,1.051-1.051l0,0v-14.711h8.406
		c0.58,0,1.051-0.47,1.051-1.051l0,0v-4.204c-0.004-0.039-0.012-0.078-0.02-0.116c-0.007-0.076-0.022-0.151-0.046-0.224
		c-0.11-0.304-0.352-0.542-0.657-0.649c-0.027-0.014-0.057-0.026-0.085-0.037l-39.931-9.457c-0.079-0.017-0.159-0.026-0.239-0.025
		h-4.199c-0.125,0.003-0.247,0.028-0.362,0.074c-0.026,0.011-0.054,0.023-0.082,0.033s-0.048,0.016-0.072,0.028l-16.818,9.457
		c-0.052,0.035-0.101,0.075-0.146,0.12c-0.034,0.024-0.066,0.051-0.097,0.08c-0.087,0.089-0.159,0.194-0.209,0.309v0.013
		c-0.046,0.115-0.071,0.238-0.074,0.362c0,0.012-0.008,0.023-0.008,0.036v4.202c0,0.581,0.47,1.051,1.051,1.051l0,0h14.711v19.528
		l-3.895,3.898c-0.197,0.195-0.308,0.462-0.308,0.741v16.814h-2.102v6.303h21.016v-6.303h-2.102v-16.814
		c0-0.279-0.11-0.546-0.308-0.741l-3.895-3.896v-19.531h21.016v14.711c0,0.581,0.471,1.051,1.051,1.051h2.102v3.152
		c0,0.58,0.471,1.051,1.051,1.051l0,0c1.161,0,2.102,0.94,2.102,2.102s-0.94,2.102-2.102,2.102s-2.102-0.94-2.102-2.102v-1.051
		h-2.102v1.051c0.006,1.534,0.849,2.941,2.199,3.672c1.256,0.658,2.754,0.658,4.01,0c2.035-1.098,2.796-3.636,1.699-5.673
		c-0.557-1.03-1.52-1.781-2.654-2.069v-2.234H1136.567z M1137.621,2043.556h7.355v2.102h-7.355V2043.556z M1135.52,2057.22h-4.204
		v-9.458h4.203L1135.52,2057.22z M1135.52,2045.664h-4.204v-2.107h4.203L1135.52,2045.664z M1102.944,2034.102h2.102v7.355h-2.102
		V2034.102z M1101.898,2043.556h4.203v1.667l-0.436,0.435h-3.768V2043.556z M1106.101,2048.194v7.537l-3.768-3.768
		L1106.101,2048.194z M1101.898,2047.762h1.667l-1.667,1.667V2047.762z M1101.898,2054.502l3.768,3.768l-3.768,3.768V2054.502z
		 M1106.101,2060.807v7.537l-3.768-3.769L1106.101,2060.807z M1101.898,2067.728v-0.616l3.768,3.769l-3.768,3.767V2067.728z
		 M1106.101,2073.418v7.535l-3.768-3.767L1106.101,2073.418z M1101.898,2079.723l3.768,3.767l-3.768,3.767V2079.723z
		 M1106.101,2086.026v2.72h-2.719L1106.101,2086.026z M1100.847,2034.848v6.608h-11.756L1100.847,2034.848z M1086.131,2045.661
		v-2.104h13.661v2.102L1086.131,2045.661z M1097.687,2072.368l2.104-2.105v18.483h-2.102L1097.687,2072.368z M1112.401,2090.851
		v2.096h-16.816v-2.096H1112.401z M1110.3,2072.368v16.378h-2.102v-18.483L1110.3,2072.368z M1129.214,2045.661h-21.016v-2.104
		h21.016V2045.661z M1107.148,2041.457v-7.078l29.884,7.078H1107.148z M1131.316,2061.425v-2.104h4.203v2.104H1131.316z"/>
</g>
</svg>
