<?xml version="1.0" encoding="utf-8"?>
<!-- Generator: Adobe Illustrator 16.0.0, SVG Export Plug-In . SVG Version: 6.00 Build 0)  -->
<!DOCTYPE svg PUBLIC "-//W3C//DTD SVG 1.1//EN" "http://www.w3.org/Graphics/SVG/1.1/DTD/svg11.dtd">
<svg version="1.1" id="Layer_1" xmlns="http://www.w3.org/2000/svg" xmlns:xlink="http://www.w3.org/1999/xlink" x="0px" y="0px"
	 width="71.713px" height="75.301px" viewBox="0 0 71.713 75.301" enable-background="new 0 0 71.713 75.301" xml:space="preserve">
<g id="calendar" transform="translate(0.578)">
	
		<linearGradient id="Path_16872_1_" gradientUnits="userSpaceOnUse" x1="-252.5887" y1="409.4292" x2="-252.5887" y2="408.4292" gradientTransform="matrix(15.2488 0 0 -15.4847 3905.2144 6389.7803)">
		<stop  offset="0.13" style="stop-color:#00A9ED"/>
		<stop  offset="1" style="stop-color:#65106B"/>
	</linearGradient>
	<path id="Path_16872" fill="url(#Path_16872_1_)" d="M60.642,50.708c-0.625-0.623-1.637-0.623-2.261,0l-4.71,4.711l-4.982-4.982
		c-0.588-0.66-1.6-0.717-2.26-0.129s-0.718,1.598-0.13,2.258c0.041,0.047,0.085,0.09,0.13,0.131l4.983,4.982l-4.983,4.982
		c-0.622,0.625-0.622,1.635,0,2.26c0.301,0.303,0.711,0.471,1.139,0.465c0.425-0.002,0.832-0.168,1.138-0.465l4.981-4.982
		l4.711,4.709c0.301,0.303,0.711,0.471,1.137,0.465c0.426-0.002,0.834-0.168,1.139-0.465c0.624-0.621,0.626-1.631,0.004-2.256
		c-0.001-0.002-0.002-0.002-0.004-0.004l-4.742-4.711l4.711-4.709C61.265,52.342,61.265,51.333,60.642,50.708L60.642,50.708z"/>
	
		<linearGradient id="Path_16873_1_" gradientUnits="userSpaceOnUse" x1="-260.4017" y1="314.5239" x2="-260.4017" y2="313.5239" gradientTransform="matrix(28.033 0 0 -3.2 7326.3794 1039.9841)">
		<stop  offset="0.13" style="stop-color:#00A9ED"/>
		<stop  offset="1" style="stop-color:#65106B"/>
	</linearGradient>
	<path id="Path_16873" fill="url(#Path_16873_1_)" d="M14.098,36.705h24.833c0.884,0,1.6-0.716,1.6-1.6s-0.716-1.601-1.6-1.601
		H14.098c-0.883,0-1.6,0.717-1.6,1.601S13.214,36.705,14.098,36.705z"/>
	
		<linearGradient id="Path_16874_1_" gradientUnits="userSpaceOnUse" x1="-255.266" y1="314.5239" x2="-255.266" y2="313.5229" gradientTransform="matrix(18.072 0 0 -3.2 4634.7056 1050.3943)">
		<stop  offset="0.13" style="stop-color:#00A9ED"/>
		<stop  offset="1" style="stop-color:#65106B"/>
	</linearGradient>
	<path id="Path_16874" fill="url(#Path_16874_1_)" d="M28.97,43.915H14.098c-0.883,0-1.6,0.717-1.6,1.602c0,0.883,0.716,1.6,1.6,1.6
		H28.97c0.884,0,1.6-0.717,1.6-1.6C30.57,44.631,29.854,43.915,28.97,43.915z"/>
	
		<linearGradient id="Path_16875_1_" gradientUnits="userSpaceOnUse" x1="-266.0785" y1="429.0679" x2="-266.0785" y2="428.0679" gradientTransform="matrix(71.7176 0 0 -75.3074 19117.834 32311.9414)">
		<stop  offset="0.13" style="stop-color:#00A9ED"/>
		<stop  offset="1" style="stop-color:#65106B"/>
	</linearGradient>
	<path id="Path_16875" fill="url(#Path_16875_1_)" d="M56.778,40.358V12.673c0-4.424-3.586-8.01-8.01-8.011H42.2V1.601
		C42.2,0.717,41.484,0,40.601,0C39.716,0,39,0.717,39,1.601v3.06H17.206v-3.06c0-0.884-0.716-1.601-1.6-1.601
		c-0.884-0.001-1.6,0.715-1.601,1.599c0,0.001,0,0.001,0,0.002v3.06H7.433c-4.425,0.002-8.011,3.589-8.011,8.013v43.4
		c0.001,4.424,3.587,8.01,8.011,8.012h29.656c3.539,9.068,13.76,13.551,22.828,10.012s13.551-13.76,10.012-22.828
		c-2.209-5.66-7.179-9.785-13.15-10.912V40.358z M7.449,7.867h6.569v3.06c0,0.884,0.716,1.601,1.6,1.601
		c0.884,0,1.6-0.717,1.6-1.601l0,0v-3.06h21.794v3.06c0,0.884,0.716,1.601,1.601,1.601c0.883,0,1.6-0.717,1.6-1.601l0,0v-3.06h6.568
		c2.651,0.008,4.799,2.155,4.807,4.806v3.877H2.643v-3.877C2.645,10.02,4.796,7.869,7.449,7.867z M7.449,60.881
		c-2.651-0.006-4.798-2.154-4.806-4.805V19.738h50.932v20.317h-0.049c-9.748,0.014-17.639,7.928-17.623,17.676
		c0.001,1.057,0.098,2.111,0.287,3.15H7.449z M53.526,72.1c-7.963,0-14.418-6.455-14.418-14.418c0-7.965,6.455-14.42,14.418-14.42
		s14.419,6.455,14.42,14.418c0,7.963-6.455,14.42-14.418,14.42C53.527,72.1,53.527,72.1,53.526,72.1z"/>
</g>
</svg>
