<?xml version="1.0" encoding="utf-8"?>
<!-- Generator: Adobe Illustrator 16.0.0, SVG Export Plug-In . SVG Version: 6.00 Build 0)  -->
<!DOCTYPE svg PUBLIC "-//W3C//DTD SVG 1.1//EN" "http://www.w3.org/Graphics/SVG/1.1/DTD/svg11.dtd">
<svg version="1.1" id="Layer_1" xmlns="http://www.w3.org/2000/svg" xmlns:xlink="http://www.w3.org/1999/xlink" x="0px" y="0px"
	 width="61.549px" height="73px" viewBox="0 0 61.549 73" enable-background="new 0 0 61.549 73" xml:space="preserve">
<linearGradient id="Path_16705_1_" gradientUnits="userSpaceOnUse" x1="-766.1904" y1="357.8564" x2="-766.1904" y2="356.8848" gradientTransform="matrix(15.3275 0 0 -15.316 11774.6309 5513.875)">
	<stop  offset="0.13" style="stop-color:#00A9ED"/>
	<stop  offset="1" style="stop-color:#65106B"/>
</linearGradient>
<path id="Path_16705" fill="url(#Path_16705_1_)" d="M30.851,32.946L30.851,32.946c-4.107-0.003-7.439,3.323-7.442,7.432
	c-0.004,4.106,3.323,7.438,7.431,7.442c0.004,0,0.007,0,0.011,0h0.011c4.107-0.004,7.434-3.334,7.43-7.441
	C38.29,36.271,34.959,32.943,30.851,32.946L30.851,32.946z M34.52,44.05c-0.964,0.981-2.283,1.538-3.659,1.546h-0.01
	c-2.879,0.004-5.216-2.327-5.22-5.207c-0.004-2.879,2.328-5.216,5.207-5.22c0.004,0,0.009,0,0.013,0l0,0
	c2.876,0.019,5.193,2.365,5.174,5.241c-0.009,1.363-0.551,2.67-1.515,3.638L34.52,44.05z"/>
<linearGradient id="Path_16706_1_" gradientUnits="userSpaceOnUse" x1="-766.5933" y1="357.8564" x2="-766.5933" y2="356.8848" gradientTransform="matrix(15.4372 0 0 -15.318 11882.8545 5509.7251)">
	<stop  offset="0.13" style="stop-color:#00A9ED"/>
	<stop  offset="1" style="stop-color:#65106B"/>
</linearGradient>
<path id="Path_16706" fill="url(#Path_16706_1_)" d="M48.729,28.081L48.729,28.081c-4.107,0.003-7.435,3.336-7.431,7.444
	c0.004,4.102,3.329,7.427,7.431,7.431h0.102c4.107,0.013,7.448-3.309,7.461-7.418c0.012-4.108-3.31-7.448-7.418-7.459
	c-0.048,0-0.095,0-0.143,0.001L48.729,28.081z M52.433,39.187c-0.95,0.98-2.253,1.536-3.618,1.544h-0.086
	c-2.879,0.04-5.243-2.263-5.283-5.141s2.263-5.244,5.142-5.283c0.048-0.001,0.097-0.001,0.142,0l0,0
	c2.893,0.035,5.208,2.409,5.173,5.301c-0.017,1.339-0.545,2.62-1.477,3.582h0.007L52.433,39.187L52.433,39.187z"/>
<linearGradient id="Path_16707_1_" gradientUnits="userSpaceOnUse" x1="-805.062" y1="390.6934" x2="-805.062" y2="389.7227" gradientTransform="matrix(61.551 0 0 -27.196 49583.25 10669.7891)">
	<stop  offset="0.13" style="stop-color:#00A9ED"/>
	<stop  offset="1" style="stop-color:#65106B"/>
</linearGradient>
<path id="Path_16707" fill="url(#Path_16707_1_)" d="M1,54.829v10.056c0,0.623,0.497,1.13,1.118,1.147h16.814v3.752
	c-0.024,0.589,0.434,1.087,1.024,1.112c0.012,0,0.026,0,0.039,0h21.719c0.62,0.001,1.121-0.495,1.129-1.112V66.03h16.816
	c0.622-0.018,1.116-0.524,1.116-1.146V54.861c0-5.726-4.633-10.366-10.355-10.38h-3.207c-4.147,0.02-7.9,2.469-9.582,6.261
	c-1.564-0.911-3.342-1.393-5.153-1.396h-3.225c-1.805,0.004-3.579,0.483-5.141,1.39c-1.664-3.791-5.407-6.245-9.548-6.254h-3.194
	C5.652,44.48,1.012,49.11,1,54.829z M47.209,46.707h3.205c4.495,0.01,8.135,3.657,8.135,8.154v8.95H42.842v-4.046
	c0.008-2.751-1.085-5.394-3.033-7.338c-0.106-0.105-0.223-0.208-0.332-0.308c1.204-3.233,4.28-5.387,7.731-5.407L47.209,46.707z
	 M29.251,51.572h3.22c4.508,0.021,8.15,3.68,8.147,8.188v8.907H21.157v-8.936C21.141,55.243,24.765,51.593,29.251,51.572z
	 M11.373,46.707h3.19c3.446,0.016,6.521,2.165,7.716,5.396c-2.141,1.959-3.356,4.725-3.348,7.627v4.079H3.224v-8.975
	c0.009-4.491,3.657-8.128,8.149-8.122V46.707z"/>
<linearGradient id="Path_16708_1_" gradientUnits="userSpaceOnUse" x1="-765.8159" y1="357.8467" x2="-765.8159" y2="356.876" gradientTransform="matrix(15.2279 0 0 -15.316 11674.6904 5508.8594)">
	<stop  offset="0.13" style="stop-color:#00A9ED"/>
	<stop  offset="1" style="stop-color:#65106B"/>
</linearGradient>
<path id="Path_16708" fill="url(#Path_16708_1_)" d="M12.973,28.081L12.973,28.081c-4.107-0.004-7.44,3.323-7.444,7.43
	c-0.004,4.107,3.323,7.44,7.43,7.444c0.004,0,0.009,0,0.013,0l0,0c4.052,0.004,7.341-3.277,7.345-7.329c0-0.027,0-0.054,0-0.081
	v-0.027c0.028-4.08-3.257-7.41-7.337-7.438C12.978,28.081,12.976,28.081,12.973,28.081z M12.973,40.73L12.973,40.73
	c-2.88,0.002-5.216-2.328-5.22-5.208c-0.003-2.879,2.328-5.216,5.207-5.219c0.004,0,0.008,0,0.013,0l0,0
	c2.878-0.04,5.244,2.263,5.283,5.141c0.04,2.879-2.263,5.244-5.142,5.284c-0.048,0-0.095,0-0.142,0V40.73z"/>
<linearGradient id="Path_16709_1_" gradientUnits="userSpaceOnUse" x1="-803.189" y1="392.7725" x2="-803.189" y2="391.8018" gradientTransform="matrix(53.74 0 0 -28.6598 43194.2461 11257.7871)">
	<stop  offset="0.13" style="stop-color:#00A9ED"/>
	<stop  offset="1" style="stop-color:#65106B"/>
</linearGradient>
<path id="Path_16709" fill="url(#Path_16709_1_)" d="M56.983,27.095c0-14.412-11.682-26.096-26.094-26.097
	S4.792,12.679,4.791,27.092c0,0.001,0,0.002,0,0.003c0,0.614,0.497,1.113,1.11,1.114c0.507,0.001,0.951-0.341,1.078-0.832
	c0.298-1.188,0.812-2.313,1.517-3.314c0.982-0.944,2.291-1.474,3.653-1.477c1.36-0.007,2.668,0.52,3.643,1.466
	c0.952,0.984,1.486,2.299,1.491,3.667c0,0.614,0.498,1.112,1.112,1.112s1.112-0.499,1.112-1.112
	c-0.047-2.789,2.176-5.087,4.964-5.133c0.057-0.001,0.113-0.001,0.168,0c1.36-0.007,2.668,0.52,3.643,1.466
	c0.951,0.985,1.485,2.299,1.489,3.667c0,0.614,0.499,1.112,1.111,1.112c0.615,0,1.114-0.499,1.114-1.112
	c-0.047-2.789,2.177-5.087,4.964-5.133c0.058-0.001,0.111-0.001,0.17,0c1.358-0.007,2.668,0.52,3.644,1.466
	c0.951,0.985,1.484,2.299,1.488,3.667c0,0.614,0.5,1.112,1.112,1.112c0.615,0,1.112-0.499,1.112-1.112
	c-0.047-2.789,2.176-5.087,4.964-5.133c0.058-0.001,0.113-0.001,0.169,0c1.359-0.007,2.667,0.52,3.644,1.466
	c0.713,1.003,1.232,2.132,1.527,3.327c0.154,0.594,0.762,0.951,1.356,0.795c0.491-0.128,0.83-0.571,0.83-1.078L56.983,27.095z
	 M49.622,20.362c-1.942,0.001-3.807,0.755-5.202,2.106l-0.047,0.048c-0.375,0.395-0.709,0.828-0.993,1.29
	c-0.289-0.462-0.622-0.894-0.996-1.29l-0.021-0.025c-2.896-2.832-7.522-2.842-10.43-0.023l-0.05,0.048
	c-0.373,0.395-0.707,0.828-0.994,1.29c-0.287-0.462-0.62-0.894-0.994-1.29l-0.022-0.025c-2.897-2.832-7.522-2.842-10.432-0.023
	c-0.016,0.016-0.033,0.031-0.047,0.048c-0.374,0.395-0.707,0.828-0.995,1.29c-0.287-0.462-0.621-0.894-0.994-1.29l-0.023-0.025
	c-2.671-2.613-6.86-2.851-9.809-0.556C10.423,9.058,23.175,0.932,36.054,3.786c9.056,2.006,16.131,9.075,18.146,18.13
	C52.889,20.907,51.278,20.36,49.622,20.362z"/>
</svg>
