<?xml version="1.0" encoding="utf-8"?>
<!-- Generator: Adobe Illustrator 16.0.0, SVG Export Plug-In . SVG Version: 6.00 Build 0)  -->
<!DOCTYPE svg PUBLIC "-//W3C//DTD SVG 1.1//EN" "http://www.w3.org/Graphics/SVG/1.1/DTD/svg11.dtd">
<svg version="1.1" id="Layer_1" xmlns="http://www.w3.org/2000/svg" xmlns:xlink="http://www.w3.org/1999/xlink" x="0px" y="0px"
	 width="72.615px" height="73.109px" viewBox="0 0 72.615 73.109" enable-background="new 0 0 72.615 73.109" xml:space="preserve">
<g id="hands-holding-heart" transform="translate(-1.446 0.001)">
	
		<linearGradient id="Path_16680_1_" gradientUnits="userSpaceOnUse" x1="-259.6536" y1="426.1301" x2="-259.6536" y2="425.1311" gradientTransform="matrix(34.347 0 0 -55.5917 8975.2021 23707.8203)">
		<stop  offset="0.13" style="stop-color:#00A9ED"/>
		<stop  offset="1" style="stop-color:#65106B"/>
	</linearGradient>
	<path id="Path_16680" fill="url(#Path_16680_1_)" d="M74.041,41.733L72.74,22.757c-0.197-2.532-2.41-4.425-4.943-4.228
		c-2.395,0.188-4.242,2.186-4.242,4.588l0.154,15.469l-6.699,8.582c-1.057,1.34-2.803,1.931-4.455,1.507l7.291-9.468
		c1.369-1.776,1.041-4.326-0.736-5.695c-1.73-1.335-4.209-1.06-5.605,0.623L42.49,47.4c-1.818,2.19-2.801,4.954-2.773,7.8
		l0.17,17.614c0.008,0.702,0.578,1.269,1.281,1.269l18.338,0.025l0,0c0.707,0,1.281-0.574,1.281-1.281
		c0-0.037-0.002-0.074-0.006-0.111l-0.748-8.622l12.174-16.18C73.541,46.14,74.191,43.947,74.041,41.733L74.041,41.733z
		 M70.16,46.375L57.689,62.947c-0.189,0.252-0.279,0.566-0.252,0.881l0.67,7.717l-15.674-0.021l-0.158-16.348
		c-0.021-2.24,0.752-4.415,2.184-6.14l11.014-13.264c0.549-0.62,1.498-0.677,2.117-0.126c0.574,0.51,0.67,1.372,0.223,1.997
		l-8.273,10.743c-0.432,0.561-0.326,1.364,0.234,1.796c0.023,0.019,0.047,0.036,0.072,0.053c2.984,1.96,6.971,1.312,9.18-1.493
		l6.977-8.935c0.178-0.229,0.273-0.511,0.271-0.801l-0.158-15.921c-0.01-1.124,0.893-2.044,2.018-2.055
		c1.076-0.01,1.975,0.821,2.049,1.895l1.301,18.976c0.109,1.601-0.359,3.187-1.324,4.469L70.16,46.375z"/>
	
		<linearGradient id="Path_16681_1_" gradientUnits="userSpaceOnUse" x1="-259.6531" y1="426.1311" x2="-259.6531" y2="425.1311" gradientTransform="matrix(34.3443 0 0 -55.5944 8936.2109 23708.9824)">
		<stop  offset="0.13" style="stop-color:#00A9ED"/>
		<stop  offset="1" style="stop-color:#65106B"/>
	</linearGradient>
	<path id="Path_16681" fill="url(#Path_16681_1_)" d="M22.009,34.136c-1.432-1.726-3.992-1.965-5.718-0.533
		c-1.683,1.396-1.959,3.874-0.624,5.605l7.291,9.468c-1.652,0.424-3.399-0.167-4.455-1.507L11.8,38.586l0.154-15.469
		c0.001-2.54-2.058-4.601-4.599-4.602c-2.402-0.001-4.4,1.847-4.587,4.241l-1.3,18.976c-0.152,2.214,0.498,4.409,1.832,6.184
		l12.175,16.18l-0.749,8.622c-0.061,0.705,0.46,1.326,1.166,1.388c0.036,0.003,0.072,0.005,0.109,0.005l0,0l18.339-0.025
		c0.702,0,1.273-0.566,1.28-1.269l0.171-17.614c0.026-2.846-0.957-5.609-2.774-7.8L22.009,34.136z M33.076,71.525l-15.673,0.021
		l0.67-7.717c0.027-0.314-0.063-0.629-0.253-0.881L5.35,46.375c-0.964-1.281-1.434-2.867-1.325-4.467l1.3-18.975
		c0.072-1.068,0.958-1.898,2.028-1.9c0.05,0,0.1,0,0.151,0c1.072,0.08,1.898,0.979,1.888,2.053l-0.158,15.92
		c-0.003,0.29,0.093,0.572,0.271,0.801l6.976,8.935c2.209,2.805,6.196,3.453,9.18,1.493c0.59-0.391,0.751-1.186,0.36-1.775
		c-0.017-0.025-0.035-0.051-0.053-0.075L17.7,37.646c-0.486-0.671-0.337-1.608,0.333-2.096c0.626-0.454,1.495-0.357,2.007,0.224
		l11.014,13.264c1.431,1.725,2.204,3.899,2.183,6.14L33.076,71.525z"/>
	
		<linearGradient id="Path_16682_1_" gradientUnits="userSpaceOnUse" x1="-262.0501" y1="424.4934" x2="-262.0501" y2="423.4934" gradientTransform="matrix(50.1958 0 0 -44.9576 13191.6133 19085.1934)">
		<stop  offset="0.13" style="stop-color:#00A9ED"/>
		<stop  offset="1" style="stop-color:#65106B"/>
	</linearGradient>
	<path id="Path_16682" fill="url(#Path_16682_1_)" d="M62.853,15.417c0-7.962-6.455-14.416-14.418-14.416
		c-3.824,0-7.49,1.519-10.193,4.223L37.759,5.71l-0.487-0.486c-5.63-5.632-14.759-5.633-20.391-0.003s-5.632,14.759-0.002,20.391
		l19.97,19.97c0.5,0.501,1.312,0.501,1.811,0.001c0-0.001,0-0.001,0-0.001l19.971-19.97C61.343,22.913,62.863,19.243,62.853,15.417z
		 M37.759,42.863L18.691,23.8c-4.597-4.663-4.543-12.169,0.12-16.766c4.617-4.552,12.033-4.551,16.648,0.001l1.39,1.393
		c0.5,0.501,1.312,0.501,1.811,0.001c0,0,0,0,0-0.001l1.395-1.393c4.629-4.629,12.135-4.629,16.764,0.001
		c4.629,4.629,4.629,12.135,0,16.764L37.759,42.863z"/>
</g>
</svg>
