<?xml version="1.0" encoding="utf-8"?>
<!-- Generator: Adobe Illustrator 16.0.0, SVG Export Plug-In . SVG Version: 6.00 Build 0)  -->
<!DOCTYPE svg PUBLIC "-//W3C//DTD SVG 1.1//EN" "http://www.w3.org/Graphics/SVG/1.1/DTD/svg11.dtd">
<svg version="1.1" id="Layer_1" xmlns="http://www.w3.org/2000/svg" xmlns:xlink="http://www.w3.org/1999/xlink" x="0px" y="0px"
	 width="64.549px" height="73.852px" viewBox="0 0 64.549 73.852" enable-background="new 0 0 64.549 73.852" xml:space="preserve">
<g id="hurricane" transform="translate(-10.441 -0.54)">
	
		<linearGradient id="Path_16791_1_" gradientUnits="userSpaceOnUse" x1="-258.1815" y1="425.341" x2="-258.1815" y2="424.342" gradientTransform="matrix(64.5489 0 0 -44.47 16708.0801 18915.4746)">
		<stop  offset="0.13" style="stop-color:#00A9ED"/>
		<stop  offset="1" style="stop-color:#65106B"/>
	</linearGradient>
	<path id="Path_16791" fill="url(#Path_16791_1_)" d="M74.803,38.527L56.686,11.169c-0.334-0.519-1.025-0.669-1.544-0.335
		c-0.519,0.333-0.669,1.024-0.335,1.544c0.006,0.008,0.011,0.017,0.017,0.025l17.5,26.422l-5.308,3.516L47.553,12.96
		c-0.34-0.514-1.033-0.654-1.547-0.314c0,0-0.001,0-0.002,0.001L16.621,32.111l-3.516-5.308L48.728,3.202l3.631,5.487
		c0.333,0.519,1.024,0.669,1.544,0.335C54.421,8.692,54.572,8,54.238,7.482c-0.005-0.009-0.011-0.018-0.017-0.026l-4.25-6.415
		c-0.34-0.515-1.033-0.655-1.547-0.314l0,0L10.941,25.558c-0.514,0.341-0.655,1.033-0.314,1.548l4.75,7.17
		c0.341,0.514,1.034,0.654,1.548,0.313l29.384-19.464l19.463,29.384c0.34,0.515,1.032,0.655,1.547,0.315c0,0,0-0.001,0.001-0.001
		l7.17-4.75C75.004,39.733,75.145,39.039,74.803,38.527L74.803,38.527z"/>
	
		<linearGradient id="Path_16792_1_" gradientUnits="userSpaceOnUse" x1="-249.6376" y1="415.6506" x2="-249.6376" y2="414.6506" gradientTransform="matrix(20.94 0 0 -20.94 5268.6436 8744.8496)">
		<stop  offset="0.13" style="stop-color:#00A9ED"/>
		<stop  offset="1" style="stop-color:#65106B"/>
	</linearGradient>
	<path id="Path_16792" fill="url(#Path_16792_1_)" d="M50.583,62.075c0.617,0,1.117-0.5,1.117-1.117l0,0v-18.7
		c0-0.616-0.5-1.116-1.117-1.116l0,0H31.877c-0.617,0-1.117,0.5-1.117,1.116l0,0v18.706c0,0.617,0.5,1.117,1.117,1.117l0,0
		L50.583,62.075z M49.465,59.841h-7.125V43.37h7.121L49.465,59.841z M32.994,43.369h7.119v16.472h-7.119V43.369z"/>
	
		<linearGradient id="Path_16793_1_" gradientUnits="userSpaceOnUse" x1="-256.6449" y1="426.7834" x2="-256.6449" y2="425.7824" gradientTransform="matrix(46.957 0 0 -53.3868 12092.2617 22805.541)">
		<stop  offset="0.13" style="stop-color:#00A9ED"/>
		<stop  offset="1" style="stop-color:#65106B"/>
	</linearGradient>
	<path id="Path_16793" fill="url(#Path_16793_1_)" d="M41.762,21.337c-0.436-0.436-1.143-0.436-1.579,0L17.822,43.698
		c-0.209,0.209-0.327,0.494-0.327,0.79v7.948c0,0.616,0.5,1.117,1.117,1.117c0.617,0,1.117-0.501,1.117-1.117V44.95l21.244-21.244
		L62.217,44.95v27.208H19.729V56.903c0-0.617-0.5-1.117-1.117-1.117c-0.617,0-1.117,0.5-1.117,1.117V73.28
		c0,0.617,0.5,1.117,1.117,1.117l0,0h44.723c0.617,0,1.117-0.5,1.117-1.117l0,0V44.488c0-0.296-0.117-0.58-0.326-0.79L41.762,21.337
		z"/>
</g>
</svg>
