<?xml version="1.0" encoding="utf-8"?>
<!-- Generator: Adobe Illustrator 16.0.0, SVG Export Plug-In . SVG Version: 6.00 Build 0)  -->
<!DOCTYPE svg PUBLIC "-//W3C//DTD SVG 1.1//EN" "http://www.w3.org/Graphics/SVG/1.1/DTD/svg11.dtd">
<svg version="1.1" id="Layer_1" xmlns="http://www.w3.org/2000/svg" xmlns:xlink="http://www.w3.org/1999/xlink" x="0px" y="0px"
	 width="73.109px" height="73.109px" viewBox="0 0 73.109 73.109" enable-background="new 0 0 73.109 73.109" xml:space="preserve">
<g id="Page-1" transform="translate(0 0.001)">
	<g id="_019---Home-Insurance">
		
			<linearGradient id="Shape_1_" gradientUnits="userSpaceOnUse" x1="-264.8811" y1="427.7888" x2="-264.8811" y2="426.7888" gradientTransform="matrix(73.11 0 0 -73.1013 19402.0293 31272.832)">
			<stop  offset="0.13" style="stop-color:#00A9ED"/>
			<stop  offset="1" style="stop-color:#65106B"/>
		</linearGradient>
		<path id="Shape" fill="url(#Shape_1_)" d="M72.378,33.472l-4.144-1.813v-3.26c0.005-0.754-0.346-1.467-0.945-1.924L34.866,1.257
			c-0.441-0.345-1.06-0.345-1.5,0l-11.438,8.9V7.092c0-1.343-1.086-2.433-2.429-2.437h-7.315c-1.346,0-2.437,1.091-2.437,2.437l0,0
			v12.54l-8.791,6.834C0.351,26.923-0.005,27.64,0,28.399v6.665C0.001,36.41,1.092,37.5,2.437,37.5c0.542,0,1.067-0.185,1.49-0.523
			l3.384-2.632v36.1c0,2.02,1.637,3.655,3.655,3.655h42.647c0.47,0,0.927-0.148,1.308-0.423l12.631-9.112
			c3.482-2.516,5.549-6.548,5.558-10.845V34.59C73.11,34.104,72.823,33.666,72.378,33.472z M12.185,7.092H19.5v4.957l-7.312,5.687
			L12.185,7.092z M2.437,35.068v-6.669l6.824-5.3l0.018-0.009l24.84-19.329l24.84,19.328c0.01,0.002,0.02,0.008,0.027,0.015
			l6.814,5.295v2.2l-11.7-5.121c-0.222-0.089-0.466-0.109-0.7-0.057L34.866,11c-0.441-0.345-1.06-0.345-1.5,0L2.437,35.068z
			 M9.748,70.454v-38l24.37-18.944l16.692,12.977l-15.962,6.986c-0.443,0.193-0.73,0.632-0.73,1.116v10.277h-8.53
			c-2.019,0-3.655,1.636-3.655,3.654v23.151H10.966C10.293,71.672,9.748,71.127,9.748,70.454L9.748,70.454z M24.37,71.672V48.52
			c-0.002-0.673,0.542-1.219,1.215-1.221c0.001,0,0.002,0,0.003,0h8.529v6.42c0.006,4.3,2.072,8.336,5.558,10.854l4.19,3.022v4.075
			H24.37z M49.514,71.672H46.3v-2.315L49.514,71.672z M70.673,53.719c-0.005,3.518-1.695,6.819-4.545,8.88l-12.515,9.025
			L41.1,62.599c-2.85-2.061-4.539-5.361-4.545-8.878V35.385l17.059-7.467l17.06,7.467V53.719z"/>
		
			<linearGradient id="Shape-2_1_" gradientUnits="userSpaceOnUse" x1="-259.5364" y1="422.8298" x2="-259.5364" y2="421.8298" gradientTransform="matrix(29.244 0 0 -37.6486 7643.4834 15949.6572)">
			<stop  offset="0.13" style="stop-color:#00A9ED"/>
			<stop  offset="1" style="stop-color:#65106B"/>
		</linearGradient>
		<path id="Shape-2" fill="url(#Shape-2_1_)" d="M53.126,30.792l-13.4,5.868c-0.445,0.192-0.733,0.631-0.733,1.116v15.947
			c0.004,2.733,1.318,5.299,3.533,6.9l10.375,7.483c0.426,0.308,1.001,0.308,1.427,0l10.375-7.483
			c2.215-1.602,3.529-4.167,3.533-6.9V37.776c0-0.483-0.287-0.922-0.73-1.115l-13.4-5.868
			C53.793,30.655,53.438,30.655,53.126,30.792z M65.798,38.571v15.152c-0.003,1.951-0.94,3.782-2.522,4.924l-9.663,6.977
			l-9.662-6.971c-1.582-1.145-2.52-2.978-2.521-4.93V38.571l12.185-5.333L65.798,38.571z"/>
		
			<linearGradient id="Shape-3_1_" gradientUnits="userSpaceOnUse" x1="-253.177" y1="410.4978" x2="-253.177" y2="409.4978" gradientTransform="matrix(17.0643 0 0 -17.0645 4373.8955 7044.8965)">
			<stop  offset="0.13" style="stop-color:#00A9ED"/>
			<stop  offset="1" style="stop-color:#65106B"/>
		</linearGradient>
		<path id="Shape-3" fill="url(#Shape-3_1_)" d="M47.118,50.54c-0.501-0.45-1.271-0.41-1.721,0.09
			c-0.45,0.501-0.41,1.271,0.09,1.721l0,0l4.874,4.388c0.225,0.201,0.515,0.313,0.815,0.313c0.051,0,0.102-0.003,0.152-0.01
			c0.351-0.044,0.664-0.238,0.86-0.532l9.748-14.618c0.379-0.557,0.234-1.314-0.322-1.693c-0.557-0.378-1.315-0.233-1.693,0.323
			c-0.004,0.006-0.008,0.012-0.012,0.018l-8.967,13.45L47.118,50.54z"/>
	</g>
</g>
</svg>
