<?xml version="1.0" encoding="utf-8"?>
<!-- Generator: Adobe Illustrator 16.0.0, SVG Export Plug-In . SVG Version: 6.00 Build 0)  -->
<!DOCTYPE svg PUBLIC "-//W3C//DTD SVG 1.1//EN" "http://www.w3.org/Graphics/SVG/1.1/DTD/svg11.dtd">
<svg version="1.1" id="Layer_1" xmlns="http://www.w3.org/2000/svg" xmlns:xlink="http://www.w3.org/1999/xlink" x="0px" y="0px"
	 width="96.027px" height="72.748px" viewBox="0 0 96.027 72.748" enable-background="new 0 0 96.027 72.748" xml:space="preserve">
<g id="car_6_" transform="translate(-1.972 -38.324)">
	<g id="Group_1879" transform="translate(19.418 42.981)">
		<g id="Group_1878">
			
				<linearGradient id="Path_16654_1_" gradientUnits="userSpaceOnUse" x1="-270.3588" y1="408.9446" x2="-270.3588" y2="407.9446" gradientTransform="matrix(61.1325 0 0 -19.981 16558.2305 8172.1191)">
				<stop  offset="0.13" style="stop-color:#00A9ED"/>
				<stop  offset="1" style="stop-color:#65106B"/>
			</linearGradient>
			<path id="Path_16654" fill="url(#Path_16654_1_)" d="M61.053,19.042l-5.66-16.036C54.967,1.805,53.831,1.001,52.557,1H8.578
				C7.304,1.001,6.167,1.804,5.742,3.006L0.078,19.042c-0.26,0.769,0.152,1.602,0.922,1.862c0.145,0.049,0.297,0.075,0.45,0.077
				h58.228c0.804,0,1.455-0.652,1.455-1.456c0-0.165-0.028-0.328-0.083-0.483H61.053z M3.509,18.071l4.976-14.1
				c0.014-0.038,0.05-0.064,0.091-0.065h43.982c0.041,0,0.078,0.026,0.093,0.065l4.975,14.1H3.509z"/>
		</g>
	</g>
	<g id="Group_1881" transform="translate(68.706 80.228)">
		<g id="Group_1880">
			
				<linearGradient id="Path_16655_1_" gradientUnits="userSpaceOnUse" x1="-310.2054" y1="359.4622" x2="-310.2054" y2="358.4622" gradientTransform="matrix(18.43 0 0 -12.222 5726.2866 4394.3452)">
				<stop  offset="0.13" style="stop-color:#00A9ED"/>
				<stop  offset="1" style="stop-color:#65106B"/>
			</linearGradient>
			<path id="Path_16655" fill="url(#Path_16655_1_)" d="M9.213,0.999c-5.167,0-9.215,2.684-9.215,6.111s4.048,6.111,9.215,6.111
				s9.215-2.684,9.215-6.111S14.382,0.999,9.213,0.999z M9.213,10.312c-3.609,0-6.3-1.689-6.3-3.199c0-1.512,2.7-3.201,6.3-3.201
				s6.3,1.689,6.3,3.201C15.513,8.622,12.823,10.312,9.213,10.312z"/>
		</g>
	</g>
	<g id="Group_1883" transform="translate(12.835 80.228)">
		<g id="Group_1882">
			
				<linearGradient id="Path_16656_1_" gradientUnits="userSpaceOnUse" x1="-254.3349" y1="359.4622" x2="-254.3349" y2="358.4622" gradientTransform="matrix(18.43 0 0 -12.222 4696.5972 4394.3452)">
				<stop  offset="0.13" style="stop-color:#00A9ED"/>
				<stop  offset="1" style="stop-color:#65106B"/>
			</linearGradient>
			<path id="Path_16656" fill="url(#Path_16656_1_)" d="M9.215,0.999C4.048,0.999,0,3.683,0,7.111s4.048,6.111,9.215,6.111
				s9.215-2.684,9.215-6.111S14.377,0.999,9.215,0.999z M9.215,10.312c-3.607,0-6.3-1.689-6.3-3.199c0-1.512,2.7-3.201,6.3-3.201
				c3.601,0,6.3,1.689,6.3,3.201C15.515,8.622,12.823,10.312,9.215,10.312z"/>
		</g>
	</g>
	<g id="Group_1885" transform="translate(1.972 38.325)">
		<g id="Group_1884">
			
				<linearGradient id="Path_16657_1_" gradientUnits="userSpaceOnUse" x1="-254.3918" y1="427.5791" x2="-254.3918" y2="426.5791" gradientTransform="matrix(96.031 0 0 -72.742 24477.582 31103.9863)">
				<stop  offset="0.13" style="stop-color:#00A9ED"/>
				<stop  offset="1" style="stop-color:#65106B"/>
			</linearGradient>
			<path id="Path_16657" fill="url(#Path_16657_1_)" d="M94.573,21.176h-7.76c-0.667,0-1.249,0.453-1.411,1.1l-1.022,4.088
				L77.232,6.111c-1.085-3.062-3.979-5.109-7.227-5.112H26.023c-3.248,0.004-6.142,2.051-7.227,5.113l-7.147,20.253l-1.022-4.088
				c-0.162-0.647-0.744-1.1-1.411-1.1H1.455C0.651,21.177,0,21.829,0,22.632c0,0.001,0,0.001,0,0.002v6.2
				c0,0.804,0.651,1.455,1.455,1.455l0,0h8.032l-4.96,6.945c-0.931,1.297-1.43,2.855-1.427,4.453v18.186
				c0,2.43,1.152,4.715,3.105,6.158c0,0.016,0,0.033,0,0.051v4.652c0.002,1.66,1.347,3.004,3.007,3.006h9.314
				c1.66-0.002,3.005-1.346,3.007-3.006v-3.201h52.96v3.201c0.002,1.66,1.347,3.004,3.007,3.006h9.313
				c1.66-0.002,3.005-1.346,3.007-3.006v-4.701c1.953-1.443,3.105-3.729,3.105-6.156V41.691c0.004-1.598-0.496-3.154-1.427-4.453
				l-4.96-6.944h8.037c0.804,0,1.455-0.651,1.455-1.455l0,0v-6.205c0.002-0.803-0.647-1.456-1.45-1.458
				C94.578,21.176,94.576,21.176,94.573,21.176z M2.91,27.383v-3.3h5.169l0.824,3.3H2.91z M18.624,70.74c0,0.057-0.045,0.1-0.1,0.1
				l0,0h-9.31c-0.055,0-0.1-0.043-0.1-0.1l0,0v-3.199h9.506v3.199H18.624z M86.91,70.74c0,0.057-0.045,0.1-0.1,0.1l0,0h-9.31
				c-0.055,0-0.1-0.043-0.1-0.1l0,0v-3.199h9.506L86.91,70.74z M85.262,64.633H10.767c-2.064-0.002-3.891-1.334-4.524-3.299h83.544
				C89.154,63.299,87.326,64.631,85.262,64.633z M60.526,48.916v3.301H35.501v-3.301H60.526z M35.726,46.006
				c0.633-1.963,2.46-3.297,4.523-3.299H55.77c2.063,0.002,3.891,1.336,4.523,3.299H35.726z M60.526,55.125v3.299H35.501v-3.299
				H60.526z M89.126,38.924c0.577,0.807,0.887,1.771,0.886,2.764v16.73H63.437V47.461c-0.005-4.229-3.434-7.656-7.663-7.662H40.254
				c-4.229,0.006-7.657,3.434-7.663,7.662v10.961H6.014v-16.73c-0.002-0.99,0.308-1.957,0.885-2.762l6.168-8.636h53.57
				c0.803,0,1.454-0.651,1.454-1.455c0-0.803-0.651-1.455-1.454-1.455l0,0H14.375l7.166-20.3c0.673-1.898,2.468-3.168,4.482-3.171
				h43.981c2.015,0.002,3.81,1.272,4.482,3.171l7.165,20.3h-8.807c-0.804,0-1.455,0.651-1.455,1.455
				c0,0.804,0.651,1.455,1.455,1.455H82.96L89.126,38.924z M93.115,27.379h-5.991l0.824-3.3h5.169L93.115,27.379z"/>
		</g>
	</g>
	<g id="Group_1887" transform="translate(15.939 75.572)">
		<g id="Group_1886">
			
				<linearGradient id="Path_16658_1_" gradientUnits="userSpaceOnUse" x1="-250.5727" y1="263.295" x2="-250.5727" y2="262.295" gradientTransform="matrix(12.222 0 0 -2.91 3068.6211 767.1863)">
				<stop  offset="0.13" style="stop-color:#00A9ED"/>
				<stop  offset="1" style="stop-color:#65106B"/>
			</linearGradient>
			<path id="Path_16658" fill="url(#Path_16658_1_)" d="M10.767,0.999H1.455C0.652,0.999,0,1.651,0,2.454
				c0,0.805,0.652,1.455,1.455,1.455h9.313c0.804,0,1.455-0.65,1.455-1.455C12.222,1.651,11.571,0.999,10.767,0.999z"/>
		</g>
	</g>
	<g id="Group_1889" transform="translate(71.81 75.572)">
		<g id="Group_1888">
			
				<linearGradient id="Path_16659_1_" gradientUnits="userSpaceOnUse" x1="-306.4437" y1="263.294" x2="-306.4437" y2="262.294" gradientTransform="matrix(12.222 0 0 -2.91 3751.4756 767.1863)">
				<stop  offset="0.13" style="stop-color:#00A9ED"/>
				<stop  offset="1" style="stop-color:#65106B"/>
			</linearGradient>
			<path id="Path_16659" fill="url(#Path_16659_1_)" d="M10.767,0.999H1.455C0.651,0.999,0,1.651,0,2.454
				c0,0.805,0.651,1.455,1.455,1.455h9.313c0.804,0,1.455-0.65,1.455-1.455C12.222,1.651,11.571,0.999,10.767,0.999z"/>
		</g>
	</g>
</g>
</svg>
