<svg xmlns="http://www.w3.org/2000/svg" width="85.747" height="67.047" viewBox="0 0 85.747 67.047">
  <g id="trailer" transform="translate(0 0.001)">
    <path id="Path_16831" data-name="Path 16831" d="M78.688,313.219a1.258,1.258,0,0,0-1.223,1.552,2.512,2.512,0,1,1-2.441-1.919,1.256,1.256,0,0,0,0-2.512,5.02,5.02,0,1,0,4.884,3.84A1.252,1.252,0,0,0,78.688,313.219Zm0,0" transform="translate(-58.277 -258.366)" fill="#147db2"/>
    <path id="Path_16832" data-name="Path 16832" d="M305.392,313.253a1.26,1.26,0,0,0-.926,1.518,2.5,2.5,0,0,1,.071.593,2.512,2.512,0,1,1-2.512-2.512,1.256,1.256,0,1,0,0-2.512,5.022,5.022,0,1,0,4.884,3.842A1.254,1.254,0,0,0,305.392,313.253Zm0,0" transform="translate(-247.26 -258.366)" fill="#147db2"/>
    <path id="Path_16833" data-name="Path 16833" d="M410.392,313.253a1.26,1.26,0,0,0-.926,1.518,2.512,2.512,0,1,1-2.441-1.919,1.256,1.256,0,0,0,0-2.512,5.023,5.023,0,1,0,4.884,3.842A1.254,1.254,0,0,0,410.392,313.253Zm0,0" transform="translate(-334.675 -258.366)" fill="#147db2"/>
    <path id="Path_16834" data-name="Path 16834" d="M81.979,46.949H44.129c0-1.382,0-34.742,0-36.581a2.922,2.922,0,0,1,2.25-2.851,2.509,2.509,0,0,0,1.937-2.444V2.513A2.511,2.511,0,0,0,45.417.03a10.482,10.482,0,0,0-8.824,10.338h-3.35a10.063,10.063,0,0,0-9.97,8.792H21.94a6.245,6.245,0,0,0-6.127,4.9L13.4,34.806H6.029a4.611,4.611,0,0,0-4.606,4.606V50.969A2.513,2.513,0,0,0,0,53.23v2.512a2.515,2.515,0,0,0,2.512,2.512H6.78a10.046,10.046,0,0,0,19.935,0H44.8a10.044,10.044,0,0,0,18.76,3.6,10.044,10.044,0,0,0,18.762-3.618,3.774,3.774,0,0,0,3.429-3.752V50.717a3.773,3.773,0,0,0-3.768-3.768ZM45.8,2.514,45.8,5.074a5.426,5.426,0,0,0-4.178,5.294H39.105a8.011,8.011,0,0,1,6.7-7.855ZM6.779,55.742H2.512V53.23H7.434a9.921,9.921,0,0,0-.655,2.512Zm9.969,8.792A7.536,7.536,0,1,1,24.284,57,7.545,7.545,0,0,1,16.747,64.534Zm9.967-8.792a10.04,10.04,0,0,0-17.8-5.024H3.936V39.412a2.1,2.1,0,0,1,2.093-2.093H14.4a1.256,1.256,0,0,0,1.226-.981l2.636-11.723a3.748,3.748,0,0,1,3.677-2.941h2.511a1.261,1.261,0,0,0,1.256-1.258,7.544,7.544,0,0,1,7.536-7.536h8.374v6.28H29.475a1.257,1.257,0,0,0,0,2.514H41.617V48.205a1.256,1.256,0,0,0,1.256,1.256h5.255a10.035,10.035,0,0,0-3.331,6.28Zm28.049,8.792a7.536,7.536,0,0,1,0-15.073h0a7.536,7.536,0,1,1,0,15.073ZM63.557,52.14A10.123,10.123,0,0,0,61.4,49.461h4.313A10.121,10.121,0,0,0,63.557,52.14Zm8.792,12.394a7.536,7.536,0,0,1,0-15.073h0a7.536,7.536,0,1,1,0,15.073ZM83.235,54.486a1.257,1.257,0,0,1-.924,1.21,10.042,10.042,0,0,0-3.326-6.235h2.994a1.257,1.257,0,0,1,1.256,1.256Zm0,0" transform="translate(0 0)"/>
    <path id="Path_16835" data-name="Path 16835" d="M128.986,170.946h-4.6V145.67a1.256,1.256,0,0,0-1.256-1.256H111.1a1.256,1.256,0,0,0-1.225.981l-2.388,10.621a1.256,1.256,0,0,0,1.225,1.531h13.161v13.4h-1.969a15.127,15.127,0,0,0-9.635-8.237v-1.395a1.256,1.256,0,0,0-2.512,0V163.7a1.261,1.261,0,0,0,1,1.231,12.688,12.688,0,0,1,9.148,7.734,1.262,1.262,0,0,0,1.168.8h9.91a1.256,1.256,0,1,0,0-2.512Zm-7.11-15.911H110.284l1.823-8.109h9.768Zm0,0" transform="translate(-89.462 -120.229)"/>
  </g>
</svg>
