<?xml version="1.0" encoding="utf-8"?>
<!-- Generator: Adobe Illustrator 16.0.0, SVG Export Plug-In . SVG Version: 6.00 Build 0)  -->
<!DOCTYPE svg PUBLIC "-//W3C//DTD SVG 1.1//EN" "http://www.w3.org/Graphics/SVG/1.1/DTD/svg11.dtd">
<svg version="1.1" id="Layer_1" xmlns="http://www.w3.org/2000/svg" xmlns:xlink="http://www.w3.org/1999/xlink" x="0px" y="0px"
	 width="116.533px" height="53.336px" viewBox="0 0 116.533 53.336" enable-background="new 0 0 116.533 53.336"
	 xml:space="preserve">
<g id="car_8_" transform="translate(0 -138.839)">
	
		<linearGradient id="Path_16660_1_" gradientUnits="userSpaceOnUse" x1="-234.4355" y1="541.629" x2="-234.4355" y2="540.629" gradientTransform="matrix(19.422 0 0 -19.422 4644.5015 10694.2578)">
		<stop  offset="0.13" style="stop-color:#00A9ED"/>
		<stop  offset="1" style="stop-color:#65106B"/>
	</linearGradient>
	<path id="Path_16660" fill="url(#Path_16660_1_)" d="M91.285,174.745c-5.363,0-9.711,4.348-9.711,9.711s4.348,9.711,9.711,9.711
		s9.711-4.348,9.711-9.711l0,0C100.996,179.093,96.648,174.745,91.285,174.745z M91.285,190.284c-3.218,0-5.827-2.609-5.827-5.828
		c0-3.217,2.609-5.826,5.827-5.826s5.827,2.609,5.827,5.826l0,0C97.112,187.675,94.503,190.284,91.285,190.284z"/>
	
		<linearGradient id="Path_16661_1_" gradientUnits="userSpaceOnUse" x1="-234.436" y1="541.629" x2="-234.436" y2="540.629" gradientTransform="matrix(19.422 0 0 -19.422 4578.4702 10694.2578)">
		<stop  offset="0.13" style="stop-color:#00A9ED"/>
		<stop  offset="1" style="stop-color:#65106B"/>
	</linearGradient>
	<path id="Path_16661" fill="url(#Path_16661_1_)" d="M25.249,174.745c-5.363,0-9.711,4.348-9.711,9.711s4.348,9.711,9.711,9.711
		s9.711-4.348,9.711-9.711l0,0C34.96,179.093,30.612,174.745,25.249,174.745z M25.249,190.284c-3.218,0-5.827-2.609-5.827-5.828
		c0-3.217,2.609-5.826,5.827-5.826s5.827,2.609,5.827,5.826l0,0C31.076,187.675,28.467,190.284,25.249,190.284z"/>
	
		<linearGradient id="Path_16662_1_" gradientUnits="userSpaceOnUse" x1="-244.6836" y1="553.3204" x2="-244.6836" y2="552.3204" gradientTransform="matrix(116.533 0 0 -45.5611 28571.9922 25350.6758)">
		<stop  offset="0.13" style="stop-color:#00A9ED"/>
		<stop  offset="1" style="stop-color:#65106B"/>
	</linearGradient>
	<path id="Path_16662" fill="url(#Path_16662_1_)" d="M114.592,174.745v-11.652c-0.006-0.832-0.534-1.571-1.321-1.845L102.3,157.6
		c-4.117-6.992-9.789-13.634-22.335-15.829c-0.015-0.015-0.036-0.022-0.058-0.019c-23.151-3.2-40.534,2.02-51.7,15.518
		c-12.9,0.194-26.259,4.253-26.259,11.653v5.826c-1.072,0-1.943,0.867-1.948,1.939v7.768c0.003,1.072,0.871,1.941,1.943,1.943h7.769
		c1.071-0.004,1.939-0.871,1.942-1.941c-0.193-7.51,5.737-13.752,13.246-13.945c7.508-0.193,13.752,5.736,13.945,13.246
		c0.006,0.232,0.006,0.465,0,0.699c0.003,1.07,0.871,1.938,1.942,1.941h34.96c1.071-0.004,1.938-0.871,1.941-1.941
		c0.193-7.51,6.438-13.439,13.945-13.246c7.237,0.186,13.061,6.01,13.246,13.246c0.004,1.07,0.871,1.938,1.941,1.941h7.77
		c1.071-0.004,1.939-0.871,1.942-1.941v-7.77C116.53,175.618,115.663,174.749,114.592,174.745z M89.44,149.225
		c3.25,2.049,6.003,4.796,8.06,8.041h-8.138L89.44,149.225z M66.04,144.719c4.444-0.049,8.885,0.244,13.285,0.874
		c2.139,0.356,4.235,0.936,6.254,1.729l-0.1,9.944H66.036v-12.547H66.04z M62.155,144.874v12.391H33.446
		c7.206-7.419,16.7-11.536,28.706-12.391H62.155z M112.655,182.513h-4c-1.068-9.588-9.709-16.496-19.298-15.428
		c-8.116,0.905-14.524,7.313-15.429,15.428H42.613c-1.068-9.588-9.709-16.496-19.298-15.428
		c-8.117,0.905-14.524,7.313-15.428,15.428h-4v-3.883c1.071-0.004,1.938-0.871,1.942-1.941v-5.828H7.77
		c1.073,0,1.942-0.869,1.942-1.941s-0.869-1.941-1.942-1.941H6.76c2.622-2.855,10.663-5.828,22.374-5.828h71.553l10.021,3.341v2.487
		h-1.941c-1.073,0-1.942,0.869-1.942,1.941s0.869,1.941,1.942,1.941h1.941v5.828c0.004,1.07,0.871,1.938,1.941,1.941
		L112.655,182.513z"/>
	<g id="Group_1891" transform="translate(33.446 142.874)">
		
			<linearGradient id="Path_16670_1_" gradientUnits="userSpaceOnUse" x1="7957.8052" y1="286.4503" x2="7957.8052" y2="285.4503" gradientTransform="matrix(0.029 0 0 -2.983 -174.7792 865.8916)">
			<stop  offset="0.13" style="stop-color:#00A9ED"/>
			<stop  offset="1" style="stop-color:#65106B"/>
		</linearGradient>
		<path id="Path_16670" fill="url(#Path_16670_1_)" d="M55.946,11.408l-0.029,2.983L55.946,11.408z"/>
		
			<linearGradient id="Path_16671_1_" gradientUnits="userSpaceOnUse" x1="-41.8464" y1="23.3419" x2="-41.8464" y2="23.3419" gradientTransform="matrix(1 0 0 -1 97.8408 29.7601)">
			<stop  offset="0.13" style="stop-color:#00A9ED"/>
			<stop  offset="1" style="stop-color:#65106B"/>
		</linearGradient>
		<path id="Path_16671" fill="url(#Path_16671_1_)" d="M55.994,6.419"/>
		
			<linearGradient id="Path_16672_1_" gradientUnits="userSpaceOnUse" x1="-250.5471" y1="369.9123" x2="-250.5471" y2="368.9123" gradientTransform="matrix(8.06 0 0 -8.041 2079.4355 2980.811)">
			<stop  offset="0.13" style="stop-color:#00A9ED"/>
			<stop  offset="1" style="stop-color:#65106B"/>
		</linearGradient>
		<path id="Path_16672" fill="url(#Path_16672_1_)" d="M64.055,14.392c-1.955-3.325-4.73-6.094-8.061-8.041
			C59.244,8.4,61.998,11.147,64.055,14.392z"/>
		
			<linearGradient id="Path_16675_1_" gradientUnits="userSpaceOnUse" x1="-172.4025" y1="228.1144" x2="-172.4025" y2="227.1144" gradientTransform="matrix(2.216 0 0 -2.072 383.1528 484.9716)">
			<stop  offset="0.13" style="stop-color:#00A9ED"/>
			<stop  offset="1" style="stop-color:#65106B"/>
		</linearGradient>
		<path id="Path_16675" fill="url(#Path_16675_1_)" d="M0,14.39c0.711-0.732,1.461-1.406,2.216-2.072
			C1.456,12.979,0.711,13.659,0,14.39z"/>
	</g>
</g>
</svg>
