<?xml version="1.0" encoding="utf-8"?>
<!-- Generator: Adobe Illustrator 16.0.0, SVG Export Plug-In . SVG Version: 6.00 Build 0)  -->
<!DOCTYPE svg PUBLIC "-//W3C//DTD SVG 1.1//EN" "http://www.w3.org/Graphics/SVG/1.1/DTD/svg11.dtd">
<svg version="1.1" id="Layer_1" xmlns="http://www.w3.org/2000/svg" xmlns:xlink="http://www.w3.org/1999/xlink" x="0px" y="0px"
	 width="108.822px" height="69.682px" viewBox="0 0 108.822 69.682" enable-background="new 0 0 108.822 69.682"
	 xml:space="preserve">
<g id="Group_1849" transform="translate(-687.121 -912.14)">
	<path id="Path_16647" fill="none" stroke="#147DB2" stroke-width="3" stroke-linecap="round" d="M778.499,961.5l-16.5-14.833"/>
	<path id="Path_16648" fill="none" stroke="#147DB2" stroke-width="3" stroke-linecap="round" d="M707.352,963.609l18.6-12.096"/>
	
		<linearGradient id="Subtraction_11_1_" gradientUnits="userSpaceOnUse" x1="445.7184" y1="1353.2433" x2="445.7184" y2="1352.2433" gradientTransform="matrix(-8.805 32.8401 32.8401 8.805 -39794.6992 -25585.3457)">
		<stop  offset="0.13" style="stop-color:#00A9ED"/>
		<stop  offset="1" style="stop-color:#65106B"/>
	</linearGradient>
	<path id="Subtraction_11" fill="url(#Subtraction_11_1_)" d="M688.509,958.593c1.156-4.361,4.01-8.079,7.923-10.321
		c3.9-2.267,8.545-2.877,12.899-1.697c4.361,1.156,8.078,4.009,10.323,7.922c2.266,3.901,2.876,8.547,1.695,12.901
		c-1.157,4.361-4.01,8.078-7.923,10.323c-3.901,2.265-8.546,2.875-12.9,1.694c-4.36-1.157-8.076-4.009-10.322-7.921
		C687.941,967.592,687.33,962.947,688.509,958.593z M718.452,966.621c1.994-7.467-2.434-15.14-9.896-17.148
		c-7.467-1.994-15.139,2.435-17.148,9.897c-1.994,7.467,2.434,15.139,9.897,17.146C708.771,978.513,716.443,974.085,718.452,966.621
		z"/>
	<g id="Ellipse_170" transform="translate(719.798 955.343) rotate(105.009)">
		<circle fill="none" cx="10.708" cy="10.379" r="8"/>
		<circle fill="none" stroke="#147DB2" stroke-width="2.5" cx="10.708" cy="10.379" r="6.75"/>
	</g>
	
		<linearGradient id="Subtraction_9_1_" gradientUnits="userSpaceOnUse" x1="439.1862" y1="1337.3146" x2="439.1862" y2="1336.3146" gradientTransform="matrix(90.293 0 0 -62.8613 -38915.125 84980.0234)">
		<stop  offset="0.13" style="stop-color:#00A9ED"/>
		<stop  offset="1" style="stop-color:#65106B"/>
	</linearGradient>
	<path id="Subtraction_9" fill="url(#Subtraction_9_1_)" d="M742.487,977.501h-11c-0.811,0-1.468-0.656-1.469-1.466
		c0.001-0.811,0.658-1.467,1.469-1.467h9.574v-0.787h-7.07c-4.2-0.004-7.604-3.406-7.61-7.606v-10.413l0.01-0.01l0.106-4.549
		l-5.892-4.2l-16.446-11.807c-0.651-0.477-0.801-1.388-0.335-2.047c0.279-0.384,0.726-0.61,1.2-0.611
		c0.308,0.001,0.607,0.097,0.858,0.273l19.182,13.782l2.426,1.742c1.595-2.896,4.635-4.7,7.941-4.712h3.221
		c3.361-0.004,6.634-1.087,9.333-3.089l0.02-0.017l0.014-0.01c0.055-0.042,0.111-0.08,0.17-0.116l-5.232-2l-9.5-3.638h-11.11
		c-1.502,0-2.958-0.513-4.129-1.454l-10.341-8.3h-8.27c-0.817,0.001-1.48,0.663-1.481,1.481c0.004,0.478,0.234,0.926,0.62,1.208
		l3.16,2.266c0.317,0.227,0.53,0.57,0.592,0.955c0.063,0.384-0.03,0.778-0.259,1.093c-0.274,0.384-0.718,0.613-1.189,0.614
		c-0.308-0.002-0.607-0.1-0.857-0.28l-3.159-2.266c-1.154-0.832-1.838-2.168-1.838-3.59c0.001-2.437,1.976-4.413,4.412-4.416h8.784
		c0.334,0,0.659,0.113,0.92,0.322l10.74,8.63c0.651,0.521,1.461,0.806,2.295,0.807h10.562c1.499-2.12,3.48-3.853,5.781-5.056
		c2.315-1.191,4.881-1.813,7.485-1.813c3.969-0.006,7.803,1.446,10.771,4.08c0.055-1.642-0.268-3.273-0.945-4.771h-4.734
		c-0.811,0.001-1.467-0.655-1.469-1.466c0.002-0.811,0.658-1.467,1.469-1.469h3.064l-0.646-1.086
		c-0.652-1.087-0.689-2.434-0.1-3.555c0.578-1.12,1.699-1.856,2.955-1.941c0.959-0.07,1.936-0.106,2.9-0.106
		c4.639-0.043,9.238,0.858,13.516,2.651c4.076,1.732,7.705,4.365,10.619,7.7c1.227,1.667,1.885,3.686,1.875,5.756
		c0.146,2.075-0.131,4.158-0.814,6.123c-0.352,0.896-0.916,1.695-1.643,2.326l-4.631,4.008c-0.113,0.099-0.24,0.179-0.379,0.238
		c-1.305-0.295-2.639-0.444-3.979-0.444c-8.654-0.003-16.086,6.156-17.689,14.662c-0.301,1.325-0.451,2.681-0.451,4.04
		c-0.002,3.479,0.986,6.885,2.85,9.822c0.287,0.454,0.305,1.028,0.047,1.5c-0.258,0.467-0.75,0.757-1.283,0.759h-13.471v2.253
		c-0.002,0.397-0.162,0.777-0.449,1.053c-0.285,0.276-0.67,0.425-1.066,0.412L742.487,977.501z M735.911,946.557
		c-0.51-0.012-1.019,0.017-1.523,0.087c-2.955,0.479-5.123,3.036-5.113,6.03v13.5c0.004,2.579,2.096,4.668,4.675,4.67h20.986
		c-1.359-2.855-2.061-5.979-2.053-9.142c0.012-11.771,9.551-21.309,21.32-21.322c0.9,0.001,1.799,0.058,2.693,0.17l2.6-2.25
		c-2.52-1.173-4.135-3.697-4.145-6.476c-0.004-2.87,1.715-5.461,4.361-6.573c-5.234-5.021-12.27-7.675-20.344-7.675
		c-0.883,0-1.783,0.032-2.674,0.1c-0.238,0.02-0.451,0.161-0.563,0.373c-0.117,0.221-0.107,0.487,0.021,0.7l1.537,2.583h3.146
		c0.811,0.001,1.467,0.658,1.469,1.469c-0.002,0.81-0.658,1.466-1.469,1.466h-1.738c0.793,2.306,0.947,4.783,0.445,7.17
		c-1.131,5.417-4.479,7.733-8.359,10.417l-0.141,0.1l-0.346,0.241c-0.434,0.3-0.857,0.6-1.283,0.9
		c-3.381,2.423-7.473,3.649-11.629,3.484c-0.224,0-0.454,0-0.671-0.007h-1.2L735.911,946.557z M746.122,927.893
		c-3.914-0.01-7.633,1.711-10.161,4.7l2.791,1.063l12.249,4.684c0.17-0.14,0.346-0.27,0.527-0.392l0.018-0.013l0.084-0.059
		l0.027-0.016c2.049-1.257,3.639-3.145,4.525-5.38c-2.514-2.903-6.16-4.578-10-4.594L746.122,927.893z M781.808,927.687
		c-2.031,0.328-3.523,2.083-3.52,4.14c-0.006,2.05,1.477,3.802,3.5,4.136c0.949-2.675,0.957-5.595,0.021-8.276H781.808z"/>
	
		<linearGradient id="Subtraction_10_1_" gradientUnits="userSpaceOnUse" x1="443.5822" y1="1332.0802" x2="443.5822" y2="1331.0802" gradientTransform="matrix(34 0 0 -34 -14303.7861 46235.7266)">
		<stop  offset="0.13" style="stop-color:#00A9ED"/>
		<stop  offset="1" style="stop-color:#65106B"/>
	</linearGradient>
	<path id="Subtraction_10" fill="url(#Subtraction_10_1_)" d="M778.001,979c-4.512,0.012-8.842-1.781-12.021-4.98
		c-3.199-3.181-4.992-7.51-4.979-12.02c-0.014-4.512,1.779-8.841,4.977-12.022c3.182-3.199,7.512-4.991,12.023-4.978
		c4.512-0.012,8.84,1.781,12.021,4.979c3.199,3.182,4.99,7.51,4.979,12.021c0.012,4.51-1.781,8.838-4.979,12.021
		C786.841,977.219,782.513,979.011,778.001,979z M778.001,948c-7.729,0.008-13.992,6.271-14,14c0.008,7.729,6.271,13.992,14,14
		c7.729-0.008,13.992-6.271,14-14C791.993,954.271,785.73,948.007,778.001,948z"/>
	<g id="Ellipse_167" transform="translate(773 952)">
		<circle fill="none" cx="4.999" cy="10" r="8"/>
		<circle fill="none" stroke="#147DB2" stroke-width="2.5" cx="4.999" cy="10" r="6.75"/>
	</g>
</g>
</svg>
