<?xml version="1.0" encoding="utf-8"?>
<!-- Generator: Adobe Illustrator 16.0.0, SVG Export Plug-In . SVG Version: 6.00 Build 0)  -->
<!DOCTYPE svg PUBLIC "-//W3C//DTD SVG 1.1//EN" "http://www.w3.org/Graphics/SVG/1.1/DTD/svg11.dtd">
<svg version="1.1" id="Layer_1" xmlns="http://www.w3.org/2000/svg" xmlns:xlink="http://www.w3.org/1999/xlink" x="0px" y="0px"
	 width="80.963px" height="55.459px" viewBox="0 0 80.963 55.459" enable-background="new 0 0 80.963 55.459" xml:space="preserve">
<g id="truck" transform="translate(0 -80.641)">
	
		<linearGradient id="Path_16966_1_" gradientUnits="userSpaceOnUse" x1="-256.6548" y1="484.0463" x2="-256.6548" y2="483.0463" gradientTransform="matrix(32.6338 0 0 -18.858 8391.9307 9208.7617)">
		<stop  offset="0.13" style="stop-color:#00A9ED"/>
		<stop  offset="1" style="stop-color:#65106B"/>
	</linearGradient>
	<path id="Path_16966" fill="url(#Path_16966_1_)" d="M1.183,99.499c0.653,0,1.183-0.53,1.183-1.183V84.19
		c0-0.653,0.53-1.182,1.183-1.183h27.9c0.653,0.001,1.184-0.528,1.185-1.182s-0.528-1.184-1.181-1.185c-0.001,0-0.002,0-0.003,0
		h-27.9C1.59,80.643,0.002,82.231,0,84.19v14.121c0,0.653,0.53,1.183,1.183,1.183V99.499z"/>
	
		<linearGradient id="Path_16967_1_" gradientUnits="userSpaceOnUse" x1="-156.0576" y1="488.8842" x2="-156.0576" y2="487.8842" gradientTransform="matrix(2.366 0 0 -24.566 377.2244 12097.9756)">
		<stop  offset="0.13" style="stop-color:#00A9ED"/>
		<stop  offset="1" style="stop-color:#65106B"/>
	</linearGradient>
	<path id="Path_16967" fill="url(#Path_16967_1_)" d="M6.809,89.237v22.2c0,0.653,0.53,1.184,1.183,1.184s1.183-0.53,1.183-1.184
		v-22.2c0-0.654-0.529-1.183-1.183-1.183S6.809,88.583,6.809,89.237z"/>
	
		<linearGradient id="Path_16968_1_" gradientUnits="userSpaceOnUse" x1="-156.0571" y1="488.8861" x2="-156.0571" y2="487.8861" gradientTransform="matrix(2.366 0 0 -24.5695 385.0038 12099.749)">
		<stop  offset="0.13" style="stop-color:#00A9ED"/>
		<stop  offset="1" style="stop-color:#65106B"/>
	</linearGradient>
	<path id="Path_16968" fill="url(#Path_16968_1_)" d="M14.59,89.237v22.2c-0.001,0.653,0.528,1.184,1.181,1.186
		c0.654,0,1.184-0.528,1.185-1.182c0-0.002,0-0.002,0-0.004v-22.2c0.001-0.654-0.528-1.184-1.181-1.185s-1.184,0.528-1.185,1.181
		C14.59,89.235,14.59,89.236,14.59,89.237z"/>
	
		<linearGradient id="Path_16969_1_" gradientUnits="userSpaceOnUse" x1="-156.0576" y1="488.8842" x2="-156.0576" y2="487.8842" gradientTransform="matrix(2.366 0 0 -24.566 392.787 12097.9766)">
		<stop  offset="0.13" style="stop-color:#00A9ED"/>
		<stop  offset="1" style="stop-color:#65106B"/>
	</linearGradient>
	<path id="Path_16969" fill="url(#Path_16969_1_)" d="M22.372,89.237v22.2c0.001,0.653,0.531,1.182,1.185,1.182
		c0.652-0.002,1.18-0.529,1.181-1.182v-22.2c0.001-0.654-0.528-1.184-1.181-1.185s-1.184,0.528-1.185,1.181
		C22.372,89.235,22.372,89.236,22.372,89.237z"/>
	
		<linearGradient id="Path_16970_1_" gradientUnits="userSpaceOnUse" x1="-156.0571" y1="488.8832" x2="-156.0571" y2="487.8832" gradientTransform="matrix(2.366 0 0 -24.5642 400.5683 12097.082)">
		<stop  offset="0.13" style="stop-color:#00A9ED"/>
		<stop  offset="1" style="stop-color:#65106B"/>
	</linearGradient>
	<path id="Path_16970" fill="url(#Path_16970_1_)" d="M31.337,88.054c-0.653,0-1.183,0.53-1.183,1.183l0,0v22.2
		c0.001,0.653,0.532,1.182,1.185,1.182c0.652-0.001,1.18-0.529,1.181-1.182v-22.2C32.52,88.584,31.99,88.054,31.337,88.054z"/>
	
		<linearGradient id="Path_16971_1_" gradientUnits="userSpaceOnUse" x1="-156.0576" y1="488.8822" x2="-156.0576" y2="487.8822" gradientTransform="matrix(2.366 0 0 -24.5625 408.3495 12096.2021)">
		<stop  offset="0.13" style="stop-color:#00A9ED"/>
		<stop  offset="1" style="stop-color:#65106B"/>
	</linearGradient>
	<path id="Path_16971" fill="url(#Path_16971_1_)" d="M40.301,111.44v-22.2c-0.001-0.653-0.531-1.182-1.185-1.181
		c-0.652,0.001-1.18,0.529-1.181,1.181v22.2c0.001,0.653,0.531,1.183,1.185,1.182C39.772,112.62,40.3,112.092,40.301,111.44z"/>
	
		<linearGradient id="Path_16972_1_" gradientUnits="userSpaceOnUse" x1="-242.2852" y1="458.2552" x2="-242.2852" y2="457.2562" gradientTransform="matrix(11.5423 0 0 -8.425 2858.2595 3961.3545)">
		<stop  offset="0.13" style="stop-color:#00A9ED"/>
		<stop  offset="1" style="stop-color:#65106B"/>
	</linearGradient>
	<path id="Path_16972" fill="url(#Path_16972_1_)" d="M67.048,101.648c-0.043-0.619-0.559-1.1-1.18-1.1h-8.721
		c-0.652,0-1.183,0.529-1.183,1.183l0,0v6.059c0,0.653,0.53,1.183,1.183,1.183l0,0h9.177c0.653,0,1.183-0.529,1.183-1.183
		c0-0.03,0-0.059-0.003-0.088L67.048,101.648z M58.327,106.614v-3.7h6.443l0.275,3.7H58.327z"/>
	
		<linearGradient id="Path_16973_1_" gradientUnits="userSpaceOnUse" x1="-261.3491" y1="497.7894" x2="-261.3491" y2="496.7894" gradientTransform="matrix(80.963 0 0 -55.4604 21200.0625 27688.2129)">
		<stop  offset="0.13" style="stop-color:#00A9ED"/>
		<stop  offset="1" style="stop-color:#65106B"/>
	</linearGradient>
	<path id="Path_16973" fill="url(#Path_16973_1_)" d="M80.963,111.141c-0.005-1.866-1.448-3.412-3.31-3.542l-5.063-0.34
		l-1.238-8.333c-0.195-1.356-1.36-2.361-2.73-2.354H53.995c-1.523,0.002-2.758,1.236-2.76,2.76v13.701H47.11V84.19
		c-0.002-1.959-1.59-3.547-3.549-3.549h-7.376c-0.653-0.001-1.184,0.528-1.185,1.181c0,0.653,0.528,1.184,1.182,1.185
		c0.001,0,0.002,0,0.003,0h7.375c0.653,0,1.184,0.53,1.184,1.183v33.468H2.366v-14.615c0-0.653-0.53-1.183-1.183-1.183
		S0,102.39,0,103.043V124.1c0,0.653,0.528,1.183,1.181,1.183c0,0,0.001,0,0.002,0H4.92c-0.878,5.02,2.479,9.801,7.499,10.68
		c5.02,0.877,9.801-2.48,10.679-7.5c0.092-0.523,0.138-1.055,0.138-1.588c0-0.533-0.046-1.066-0.139-1.592h4.877
		c-0.093,0.525-0.14,1.059-0.139,1.592c0.018,5.104,4.17,9.227,9.273,9.209c2.459-0.008,4.814-0.997,6.543-2.748
		c0.457-0.466,0.451-1.215-0.016-1.673s-1.216-0.45-1.674,0.016c-2.651,2.697-6.988,2.735-9.686,0.083
		c-2.698-2.651-2.735-6.988-0.083-9.686c2.652-2.697,6.988-2.734,9.685-0.083c1.633,1.604,2.355,3.916,1.928,6.163
		c-0.127,0.641,0.29,1.264,0.932,1.391c0.641,0.127,1.263-0.29,1.39-0.931c0.001-0.007,0.003-0.015,0.004-0.021
		c0.206-1.094,0.212-2.215,0.021-3.312h12.5c-0.877,5.02,2.48,9.801,7.5,10.68c5.02,0.877,9.801-2.48,10.679-7.5
		c0.092-0.523,0.138-1.055,0.138-1.588s-0.046-1.066-0.139-1.592h2.951c0.652,0.001,1.182-0.527,1.183-1.181
		c0-0.001,0-0.001,0-0.002v-12.956V111.141z M2.363,122.913V120.1l0,0v-0.079H7.83c-0.901,0.813-1.633,1.796-2.156,2.891
		L2.363,122.913z M14,133.733c-3.789-0.001-6.86-3.073-6.86-6.862s3.073-6.859,6.862-6.859c3.789,0,6.859,3.071,6.86,6.859
		c0.001,3.789-3.071,6.861-6.86,6.862C14.001,133.733,14,133.733,14,133.733z M28.72,122.913h-6.377
		c-0.523-1.095-1.256-2.077-2.158-2.891h10.7c-0.901,0.813-1.634,1.796-2.158,2.891H28.72z M53.601,99.333
		c0.002-0.216,0.178-0.391,0.394-0.394h14.627c0.195-0.001,0.362,0.143,0.39,0.336l1.379,9.275c0.082,0.55,0.537,0.969,1.092,1.006
		l6.013,0.4c0.619,0.045,1.099,0.56,1.101,1.181v6.517h-25V99.333H53.601z M47.108,115.4h4.125v2.262h-4.125V115.4z M45.399,122.913
		c-0.521-1.095-1.255-2.077-2.155-2.891h18.321c-0.9,0.813-1.634,1.796-2.157,2.891H45.399z M67.745,133.733
		c-3.789-0.001-6.861-3.073-6.86-6.862s3.073-6.859,6.862-6.859s6.859,3.071,6.859,6.859c0.001,3.789-3.07,6.861-6.859,6.862H67.745
		z M76.08,122.913c-0.522-1.095-1.255-2.077-2.156-2.891h4.677v2.891H76.08z"/>
	
		<linearGradient id="Path_16974_1_" gradientUnits="userSpaceOnUse" x1="-206.8574" y1="338.8812" x2="-206.8574" y2="337.8812" gradientTransform="matrix(4.4505 0 0 -2.366 979.3904 913.1902)">
		<stop  offset="0.13" style="stop-color:#00A9ED"/>
		<stop  offset="1" style="stop-color:#65106B"/>
	</linearGradient>
	<path id="Path_16974" fill="url(#Path_16974_1_)" d="M59.812,111.399h-2.08c-0.654-0.001-1.184,0.528-1.186,1.182
		c0,0.653,0.528,1.184,1.182,1.185c0.001,0,0.002,0,0.004,0h2.08c0.654,0.001,1.184-0.527,1.186-1.182
		c0-0.652-0.528-1.184-1.182-1.185C59.814,111.399,59.813,111.399,59.812,111.399z"/>
	
		<linearGradient id="Ellipse_197_1_" gradientUnits="userSpaceOnUse" x1="-314.2617" y1="432.017" x2="-314.2617" y2="431.017" gradientTransform="matrix(2.0363 -4.9127 -4.9127 -2.0363 2773.8601 -538.2838)">
		<stop  offset="0.13" style="stop-color:#00A9ED"/>
		<stop  offset="1" style="stop-color:#65106B"/>
	</linearGradient>
	<circle id="Ellipse_197" fill="url(#Ellipse_197_1_)" cx="14.018" cy="126.889" r="2.659"/>
	
		<linearGradient id="Ellipse_198_1_" gradientUnits="userSpaceOnUse" x1="-216.2632" y1="431.0219" x2="-216.2632" y2="430.0219" gradientTransform="matrix(5.318 0 0 -5.318 1187.1554 2416.3828)">
		<stop  offset="0.13" style="stop-color:#00A9ED"/>
		<stop  offset="1" style="stop-color:#65106B"/>
	</linearGradient>
	<circle id="Ellipse_198" fill="url(#Ellipse_198_1_)" cx="37.064" cy="126.872" r="2.659"/>
	
		<linearGradient id="Path_16975_1_" gradientUnits="userSpaceOnUse" x1="-216.2632" y1="431.0219" x2="-216.2632" y2="430.0219" gradientTransform="matrix(5.318 0 0 -5.318 1217.8314 2416.3821)">
		<stop  offset="0.13" style="stop-color:#00A9ED"/>
		<stop  offset="1" style="stop-color:#65106B"/>
	</linearGradient>
	<path id="Path_16975" fill="url(#Path_16975_1_)" d="M67.744,124.213c-1.469,0-2.659,1.19-2.659,2.659s1.19,2.658,2.659,2.658
		c1.468,0,2.659-1.189,2.659-2.658l0,0C70.403,125.404,69.212,124.213,67.744,124.213z"/>
</g>
</svg>
