<?xml version="1.0" encoding="utf-8"?>
<!-- Generator: Adobe Illustrator 16.0.0, SVG Export Plug-In . SVG Version: 6.00 Build 0)  -->
<!DOCTYPE svg PUBLIC "-//W3C//DTD SVG 1.1//EN" "http://www.w3.org/Graphics/SVG/1.1/DTD/svg11.dtd">
<svg version="1.1" id="Page-1" xmlns="http://www.w3.org/2000/svg" xmlns:xlink="http://www.w3.org/1999/xlink" x="0px" y="0px"
	 width="71.984px" height="71.984px" viewBox="0 0 71.984 71.984" enable-background="new 0 0 71.984 71.984" xml:space="preserve">
<linearGradient id="Shape_1_" gradientUnits="userSpaceOnUse" x1="-265.3806" y1="427.1511" x2="-265.3806" y2="426.1511" gradientTransform="matrix(71.985 0 0 -71.985 19139.4316 30748.4902)">
	<stop  offset="0.13" style="stop-color:#00A9ED"/>
	<stop  offset="1" style="stop-color:#65106B"/>
</linearGradient>
<path id="Shape" fill="url(#Shape_1_)" d="M71.264,43.777l-12-5.183c-0.303-0.131-0.646-0.131-0.95,0l-3.129,1.356V16.8
	c0-0.026-0.013-0.048-0.014-0.074c-0.007-0.108-0.029-0.215-0.065-0.316c-0.011-0.039-0.024-0.076-0.04-0.113
	c-0.056-0.126-0.134-0.241-0.229-0.341L39.243,0.354c-0.103-0.098-0.221-0.178-0.351-0.234c-0.034-0.017-0.07-0.03-0.106-0.041
	c-0.106-0.037-0.217-0.06-0.328-0.066C38.434,0.012,38.415,0,38.39,0H3.599C1.611,0,0,1.611,0,3.599l0,0v64.785
	c0,1.988,1.611,3.6,3.6,3.6h47.99c1.535-0.005,2.896-0.984,3.39-2.438l3.112,2.215c0.417,0.297,0.976,0.297,1.392,0l9.372-6.671
	c1.952-1.383,3.117-3.623,3.129-6.015V44.88c0-0.478-0.282-0.909-0.72-1.1V43.777z M39.591,4.099l11.5,11.5h-11.5V4.099z
	 M52.791,68.388c0,0.663-0.537,1.2-1.2,1.2H3.599c-0.662,0-1.2-0.537-1.2-1.2V3.599c0-0.662,0.538-1.2,1.2-1.2h33.592v13.2
	c0,1.325,1.075,2.4,2.4,2.4l0,0h13.2v22.981l-6.479,2.801c-0.438,0.19-0.72,0.622-0.72,1.1v14.2
	c0.011,2.394,1.176,4.634,3.129,6.018l4.07,2.9L52.791,68.388z M69.591,59.079c-0.011,1.616-0.801,3.129-2.122,4.061l-8.675,6.175
	l-8.675-6.175c-1.32-0.933-2.109-2.444-2.119-4.061V45.668l6.439-2.782l0.049-0.021L58.787,41l10.8,4.665L69.591,59.079z"/>
<linearGradient id="Shape-2_1_" gradientUnits="userSpaceOnUse" x1="-253.4646" y1="405.7947" x2="-253.4646" y2="404.7947" gradientTransform="matrix(16.799 0 0 -14.4004 4316.7461 5891.2568)">
	<stop  offset="0.13" style="stop-color:#00A9ED"/>
	<stop  offset="1" style="stop-color:#65106B"/>
</linearGradient>
<path id="Shape-2" fill="url(#Shape-2_1_)" d="M52.308,56.304c-0.53-0.396-1.282-0.288-1.68,0.242
	c-0.396,0.53-0.289,1.28,0.24,1.678l4.8,3.601c0.519,0.389,1.252,0.296,1.657-0.21l9.6-12c0.414-0.518,0.33-1.273-0.188-1.688
	c-0.517-0.414-1.272-0.33-1.687,0.188l-8.871,11.09L52.308,56.304z"/>
<linearGradient id="Shape-3_1_" gradientUnits="userSpaceOnUse" x1="-261.7546" y1="420.1697" x2="-261.7546" y2="419.1697" gradientTransform="matrix(36 0 0 -31.2 9449.7822 13128.4951)">
	<stop  offset="0.13" style="stop-color:#00A9ED"/>
	<stop  offset="1" style="stop-color:#65106B"/>
</linearGradient>
<path id="Shape-3" fill="url(#Shape-3_1_)" d="M44.59,37.195c-0.01-2.948-2.164-5.45-5.078-5.899l-2.857-9.53
	c-0.448-1.529-1.854-2.577-3.447-2.57H19.98c-1.592-0.007-2.998,1.039-3.447,2.566l-2.857,9.525
	c-2.917,0.449-5.072,2.957-5.078,5.908v4.801c0,1.988,1.612,3.6,3.601,3.6v1.2c0,1.988,1.611,3.6,3.6,3.6h2.4
	c1.987,0,3.6-1.611,3.6-3.6v-1.2h9.6v1.2c0,1.988,1.612,3.6,3.601,3.6h2.399c1.988,0,3.601-1.611,3.601-3.6v-1.2
	c1.988,0,3.6-1.611,3.6-3.6l0,0L44.59,37.195z M18.832,22.451c0.15-0.509,0.618-0.857,1.148-0.855h5.417v1.2
	c0,0.663,0.537,1.2,1.199,1.2c0.663,0.001,1.2-0.536,1.201-1.199v-0.001v-1.2h5.413c0.53-0.002,0.998,0.347,1.148,0.855l2.619,8.744
	h-20.77L18.832,22.451z M19.397,46.79c0,0.662-0.537,1.2-1.199,1.2h-0.001h-2.399c-0.663,0-1.2-0.538-1.2-1.2l0,0v-1.2h4.8V46.79z
	 M22.998,43.189v-2.394h7.199v2.399L22.998,43.189z M38.597,46.79c0,0.662-0.537,1.2-1.2,1.2l0,0h-2.399c-0.663,0-1.2-0.538-1.2-1.2
	l0,0v-1.2h4.8V46.79z M40.998,43.189h-8.4v-2.394c0-1.325-1.074-2.4-2.399-2.4c-0.001,0-0.001,0-0.001,0h-7.199
	c-1.326,0-2.4,1.075-2.4,2.4l0,0v2.399h-8.399c-0.663,0-1.2-0.537-1.2-1.199l0,0v-2.4h7.2c0.662,0,1.199-0.537,1.199-1.2l0,0v-1.2
	c0.001-0.662-0.536-1.2-1.199-1.2c-0.662-0.001-1.2,0.536-1.2,1.199v0.001h-6c0-1.987,1.611-3.6,3.6-3.6h23.993
	c1.988,0,3.6,1.612,3.6,3.6h-6c0-0.662-0.537-1.199-1.199-1.199c-0.663,0-1.2,0.537-1.2,1.199v1.2c0,0.663,0.537,1.2,1.2,1.2l0,0
	h7.199v2.4c0,0.662-0.537,1.199-1.199,1.199l0,0L40.998,43.189z"/>
<linearGradient id="Shape-4_1_" gradientUnits="userSpaceOnUse" x1="-259.5447" y1="272.2976" x2="-259.5447" y2="271.2976" gradientTransform="matrix(27.594 0 0 -2.4 7181.6895 660.7094)">
	<stop  offset="0.13" style="stop-color:#00A9ED"/>
	<stop  offset="1" style="stop-color:#65106B"/>
</linearGradient>
<path id="Shape-4" fill="url(#Shape-4_1_)" d="M7.199,9.596h25.193c0.663,0,1.2-0.538,1.199-1.2c0-0.662-0.537-1.199-1.199-1.199
	H7.199C6.536,7.196,5.998,7.733,5.998,8.396c0,0.662,0.536,1.2,1.199,1.2C7.197,9.596,7.198,9.596,7.199,9.596z"/>
<linearGradient id="Shape-5_1_" gradientUnits="userSpaceOnUse" x1="-237.9236" y1="272.2966" x2="-237.9236" y2="271.2966" gradientTransform="matrix(8.4 0 0 -2.4 2008.7566 665.5082)">
	<stop  offset="0.13" style="stop-color:#00A9ED"/>
	<stop  offset="1" style="stop-color:#65106B"/>
</linearGradient>
<path id="Shape-5" fill="url(#Shape-5_1_)" d="M7.199,14.395h6c0.662,0.001,1.2-0.536,1.2-1.199c0.001-0.662-0.536-1.2-1.199-1.2
	h-0.001h-6c-0.663,0-1.2,0.538-1.2,1.2C6,13.858,6.536,14.395,7.199,14.395z"/>
<linearGradient id="Shape-6_1_" gradientUnits="userSpaceOnUse" x1="-255.4089" y1="272.2976" x2="-255.4089" y2="271.2976" gradientTransform="matrix(19.2 0 0 -2.4 4937.4404 709.1)">
	<stop  offset="0.13" style="stop-color:#00A9ED"/>
	<stop  offset="1" style="stop-color:#65106B"/>
</linearGradient>
<path id="Shape-6" fill="url(#Shape-6_1_)" d="M23.995,56.787c0,0.662,0.537,1.199,1.199,1.199l0,0h16.801
	c0.662,0,1.199-0.537,1.199-1.199c0-0.663-0.537-1.2-1.199-1.2H25.194C24.532,55.587,23.995,56.124,23.995,56.787L23.995,56.787z"/>
<linearGradient id="Shape-7_1_" gradientUnits="userSpaceOnUse" x1="-252.2698" y1="272.2976" x2="-252.2698" y2="271.2976" gradientTransform="matrix(15.6 0 0 -2.4 3949.2175 709.1)">
	<stop  offset="0.13" style="stop-color:#00A9ED"/>
	<stop  offset="1" style="stop-color:#65106B"/>
</linearGradient>
<path id="Shape-7" fill="url(#Shape-7_1_)" d="M7.199,57.986h13.199c0.663,0,1.2-0.537,1.2-1.199c0-0.663-0.537-1.2-1.2-1.2H7.199
	c-0.663,0-1.2,0.537-1.2,1.2C5.999,57.449,6.536,57.986,7.199,57.986z"/>
<linearGradient id="Shape-8_1_" gradientUnits="userSpaceOnUse" x1="-260.6375" y1="272.2966" x2="-260.6375" y2="271.2966" gradientTransform="matrix(31.193 0 0 -2.4 8151.6523 713.8988)">
	<stop  offset="0.13" style="stop-color:#00A9ED"/>
	<stop  offset="1" style="stop-color:#65106B"/>
</linearGradient>
<path id="Shape-8" fill="url(#Shape-8_1_)" d="M35.992,60.385H7.199c-0.663,0-1.2,0.537-1.2,1.2c0,0.662,0.537,1.2,1.2,1.2h28.793
	c0.662,0,1.199-0.538,1.199-1.2C37.191,60.923,36.654,60.385,35.992,60.385z"/>
</svg>
