<?xml version="1.0" encoding="utf-8"?>
<!-- Generator: Adobe Illustrator 16.0.0, SVG Export Plug-In . SVG Version: 6.00 Build 0)  -->
<!DOCTYPE svg PUBLIC "-//W3C//DTD SVG 1.1//EN" "http://www.w3.org/Graphics/SVG/1.1/DTD/svg11.dtd">
<svg version="1.1" id="Layer_1" xmlns="http://www.w3.org/2000/svg" xmlns:xlink="http://www.w3.org/1999/xlink" x="0px" y="0px"
	 width="71.527px" height="71.527px" viewBox="0 0 71.527 71.527" enable-background="new 0 0 71.527 71.527" xml:space="preserve">
<g id="responsive" transform="translate(0 0)">
	
		<linearGradient id="Path_16941_1_" gradientUnits="userSpaceOnUse" x1="-259.7048" y1="420.741" x2="-259.7048" y2="419.7644" gradientTransform="matrix(27.377 0 0 -33.408 7126.917 14087.7207)">
		<stop  offset="0.13" style="stop-color:#00A9ED"/>
		<stop  offset="1" style="stop-color:#65106B"/>
	</linearGradient>
	<path id="Path_16941" fill="url(#Path_16941_1_)" d="M30.329,32.765c0-0.634-0.513-1.148-1.146-1.149H4.742
		c-0.634,0-1.149,0.514-1.149,1.149l0,0v30.33c0,0.635,0.515,1.149,1.149,1.149l0,0h24.44c0.634,0,1.149-0.515,1.149-1.149
		L30.329,32.765z M28.03,61.946H5.893V33.914H28.03V61.946z"/>
	
		<linearGradient id="Path_16942_1_" gradientUnits="userSpaceOnUse" x1="-214.2996" y1="269.2087" x2="-214.2996" y2="268.2312" gradientTransform="matrix(4.7496 0 0 -2.356 1034.8298 699.5093)">
		<stop  offset="0.13" style="stop-color:#00A9ED"/>
		<stop  offset="1" style="stop-color:#65106B"/>
	</linearGradient>
	<path id="Path_16942" fill="url(#Path_16942_1_)" d="M18.118,65.252h-2.306c-0.635,0-1.149,0.515-1.149,1.15
		c0,0.635,0.514,1.15,1.149,1.15h2.306c0.635,0.018,1.165-0.481,1.184-1.117c0.018-0.635-0.482-1.165-1.117-1.184
		C18.163,65.251,18.14,65.251,18.118,65.252z"/>
	
		<linearGradient id="Path_16943_1_" gradientUnits="userSpaceOnUse" x1="-265.5945" y1="426.8708" x2="-265.5945" y2="425.8943" gradientTransform="matrix(71.5277 0 0 -71.5247 19032.2988 30532.8066)">
		<stop  offset="0.13" style="stop-color:#00A9ED"/>
		<stop  offset="1" style="stop-color:#65106B"/>
	</linearGradient>
	<path id="Path_16943" fill="url(#Path_16943_1_)" d="M66.434,1H50.847c-1.926-0.032-3.516,1.499-3.557,3.423v6.061h-35.34
		c-3.587,0.012-6.49,2.924-6.489,6.511v11.027H4.758C2.104,28.052-0.025,30.225,0,32.88v33.22c-0.015,2.612,2.092,4.742,4.704,4.758
		c0.019,0,0.038,0,0.057,0h25.362c1.038,0.009,2.033-0.406,2.757-1.149c0.753-0.694,1.14-1.7,1.042-2.72v-5.617h26.812
		c3.598-0.007,6.517-2.914,6.538-6.511v-4.112c-0.017-0.646-0.544-1.161-1.189-1.164h-1.687V38.372h2.038
		c1.926-0.04,3.457-1.629,3.425-3.556V4.423C69.88,2.553,68.381,1.021,66.511,1C66.485,1,66.46,1,66.434,1z M49.591,8.473h17.972
		v20.558H49.591V8.473z M50.847,3.297h15.587c0.599-0.023,1.103,0.444,1.125,1.043c0.001,0.025,0.001,0.052,0,0.078v1.758H49.588
		V4.418c0.04-0.656,0.601-1.159,1.258-1.125L50.847,3.297z M7.761,16.995c-0.002-2.317,1.871-4.2,4.189-4.21h35.341v3.306H11.88
		c-0.637,0.035-1.127,0.576-1.1,1.213v10.718h-3.02V16.995z M31.263,68.107c-0.302,0.302-0.714,0.464-1.141,0.45H4.764
		c-1.342,0.021-2.445-1.051-2.465-2.392c0-0.023,0-0.046,0-0.069V32.883c-0.028-1.387,1.074-2.533,2.46-2.561c0,0,0,0,0.001,0
		h24.405c1.384,0.026,2.484,1.169,2.458,2.552c0,0.002,0,0.004,0,0.006v34.124c0,0.012,0.036,0.008,0.036,0.021
		c0.026,0.399-0.116,0.791-0.391,1.082L31.263,68.107z M29.17,28.022H13.08v-9.63h34.21v16.424c0.032,1.951,1.605,3.525,3.557,3.556
		h5.931v11.212H42.779c-0.322,0.003-0.629,0.14-0.847,0.378l-1.088,1.16c-0.798,0.856-1.916,1.341-3.087,1.337h-3.835V32.877
		C33.949,30.223,31.823,28.052,29.17,28.022z M64.97,54.86c-0.02,2.327-1.909,4.205-4.237,4.21H33.923v-4.313h3.835
		c1.813,0.003,3.545-0.751,4.778-2.081l0.743-0.793H64.97V54.86z M62.097,49.586h-3.021V38.372h3.021V49.586z M66.434,36.074H50.847
		c-0.683-0.027-1.229-0.573-1.258-1.255v-3.491h17.972v3.488c0.032,0.656-0.469,1.216-1.125,1.255L66.434,36.074z"/>
	
		<linearGradient id="Path_16944_1_" gradientUnits="userSpaceOnUse" x1="-221.5071" y1="268.8035" x2="-221.5071" y2="267.8259" gradientTransform="matrix(5.446 0 0 -2.355 1265.043 665.3648)">
		<stop  offset="0.13" style="stop-color:#00A9ED"/>
		<stop  offset="1" style="stop-color:#65106B"/>
	</linearGradient>
	<path id="Path_16944" fill="url(#Path_16944_1_)" d="M60.228,32.334H57.21c-0.635,0-1.15,0.515-1.15,1.15s0.516,1.15,1.15,1.15
		h3.019c0.636,0,1.149-0.515,1.149-1.15S60.864,32.334,60.228,32.334z"/>
</g>
</svg>
