<?xml version="1.0" encoding="utf-8"?>
<!-- Generator: Adobe Illustrator 16.0.0, SVG Export Plug-In . SVG Version: 6.00 Build 0)  -->
<!DOCTYPE svg PUBLIC "-//W3C//DTD SVG 1.1//EN" "http://www.w3.org/Graphics/SVG/1.1/DTD/svg11.dtd">
<svg version="1.1" id="Layer_1" xmlns="http://www.w3.org/2000/svg" xmlns:xlink="http://www.w3.org/1999/xlink" x="0px" y="0px"
	 width="71.525px" height="71.525px" viewBox="0 0 71.525 71.525" enable-background="new 0 0 71.525 71.525" xml:space="preserve">
<g id="port" transform="translate(0.001 -0.002)">
	<g id="Group_2059" transform="translate(7.153 48.878)">
		<g id="Group_2058">
			
				<linearGradient id="Path_16957_1_" gradientUnits="userSpaceOnUse" x1="-203.3105" y1="275.8401" x2="-203.3105" y2="274.8401" gradientTransform="matrix(3.576 0 0 -3.577 728.8239 986.6765)">
				<stop  offset="0.13" style="stop-color:#00A9ED"/>
				<stop  offset="1" style="stop-color:#65106B"/>
			</linearGradient>
			<path id="Path_16957" fill="url(#Path_16957_1_)" d="M2.384-0.001H1.197c-0.658-0.005-1.195,0.525-1.2,1.184
				c0,0.003,0,0.006,0,0.009v1.192c0,0.658,0.534,1.192,1.192,1.192h1.192c0.658,0,1.191-0.534,1.191-1.192V1.192
				C3.574,0.534,3.042,0,2.384-0.001z"/>
		</g>
	</g>
	<g id="Group_2061" transform="translate(63.182 63.183)">
		<g id="Group_2060">
			
				<linearGradient id="Path_16958_1_" gradientUnits="userSpaceOnUse" x1="-259.3385" y1="261.5351" x2="-259.3385" y2="260.5351" gradientTransform="matrix(3.576 0 0 -3.577 929.1691 935.5072)">
				<stop  offset="0.13" style="stop-color:#00A9ED"/>
				<stop  offset="1" style="stop-color:#65106B"/>
			</linearGradient>
			<path id="Path_16958" fill="url(#Path_16958_1_)" d="M2.384-0.001H1.197c-0.658-0.004-1.195,0.525-1.2,1.184
				c0,0.004,0,0.007,0,0.01v1.191c0,0.658,0.534,1.192,1.192,1.192h1.191c0.658,0,1.192-0.534,1.192-1.192V1.192
				C3.573,0.534,3.042,0.001,2.384-0.001z"/>
		</g>
	</g>
	<g id="Group_2063" transform="translate(56.029 63.183)">
		<g id="Group_2062">
			
				<linearGradient id="Path_16959_1_" gradientUnits="userSpaceOnUse" x1="-252.1855" y1="261.5351" x2="-252.1855" y2="260.5351" gradientTransform="matrix(3.576 0 0 -3.577 903.5889 935.5072)">
				<stop  offset="0.13" style="stop-color:#00A9ED"/>
				<stop  offset="1" style="stop-color:#65106B"/>
			</linearGradient>
			<path id="Path_16959" fill="url(#Path_16959_1_)" d="M2.384-0.001H1.197c-0.658-0.004-1.195,0.525-1.2,1.184
				c0,0.004,0,0.007,0,0.01v1.191c0,0.658,0.534,1.192,1.192,1.192h1.192c0.658,0,1.191-0.534,1.191-1.192V1.192
				C3.574,0.534,3.042,0.001,2.384-0.001z"/>
		</g>
	</g>
	<g id="Group_2065" transform="translate(48.876 63.183)">
		<g id="Group_2064">
			
				<linearGradient id="Path_16960_1_" gradientUnits="userSpaceOnUse" x1="-245.032" y1="261.5351" x2="-245.032" y2="260.5351" gradientTransform="matrix(3.576 0 0 -3.577 878.0109 935.5072)">
				<stop  offset="0.13" style="stop-color:#00A9ED"/>
				<stop  offset="1" style="stop-color:#65106B"/>
			</linearGradient>
			<path id="Path_16960" fill="url(#Path_16960_1_)" d="M2.384-0.001H1.197c-0.659-0.004-1.196,0.525-1.2,1.184
				c0,0.004,0,0.007,0,0.01v1.191c0,0.658,0.533,1.192,1.191,1.192h1.192c0.658,0,1.192-0.534,1.192-1.192V1.192
				C3.573,0.534,3.041,0.001,2.384-0.001z"/>
		</g>
	</g>
	<g id="Group_2067" transform="translate(41.724 63.183)">
		<g id="Group_2066">
			
				<linearGradient id="Path_16961_1_" gradientUnits="userSpaceOnUse" x1="-237.88" y1="261.5351" x2="-237.88" y2="260.5351" gradientTransform="matrix(3.576 0 0 -3.577 852.4352 935.5072)">
				<stop  offset="0.13" style="stop-color:#00A9ED"/>
				<stop  offset="1" style="stop-color:#65106B"/>
			</linearGradient>
			<path id="Path_16961" fill="url(#Path_16961_1_)" d="M2.384-0.001H1.197c-0.658-0.004-1.195,0.525-1.2,1.184
				c0,0.004,0,0.007,0,0.01v1.191c0,0.658,0.534,1.192,1.192,1.192h1.191c0.658,0,1.192-0.534,1.192-1.192V1.192
				C3.573,0.534,3.042,0.001,2.384-0.001z"/>
		</g>
	</g>
	<g id="Group_2069" transform="translate(15.498 0.002)">
		<g id="Group_2068">
			
				<linearGradient id="Path_16962_1_" gradientUnits="userSpaceOnUse" x1="-280.0715" y1="426.886" x2="-280.0715" y2="425.886" gradientTransform="matrix(56.032 0 0 -71.526 15721.0039 30533.3828)">
				<stop  offset="0.13" style="stop-color:#00A9ED"/>
				<stop  offset="1" style="stop-color:#65106B"/>
			</linearGradient>
			<path id="Path_16962" fill="url(#Path_16962_1_)" d="M54.838,7.152h-9.541v-5.96c0-0.657-0.532-1.191-1.19-1.191
				c-0.076,0-0.153,0.007-0.229,0.021L6.926,7.175v0.023C6.369,7.297,5.962,7.78,5.957,8.345v4.768
				c-0.001,0.658,0.532,1.192,1.189,1.192c0.001,0,0.001,0,0.001,0l0,0v8.345H4.764c-0.657,0-1.191,0.532-1.192,1.19v0.001l0,0
				v3.577H1.197c-0.657-0.005-1.194,0.524-1.199,1.182c0,0.003,0,0.006,0,0.009l0,0v9.537c-0.001,0.658,0.532,1.191,1.189,1.192
				c0.001,0,0.001,0,0.001,0h14.31c0.657,0,1.191-0.532,1.191-1.19c0,0,0,0,0-0.001l0,0V28.61c0.001-0.657-0.532-1.191-1.189-1.191
				c-0.001,0-0.002,0-0.002,0h-2.387v-3.576c0.001-0.658-0.532-1.191-1.189-1.192c-0.001,0-0.001,0-0.001,0H9.537v-8.345h22.451
				l-6.785,44.108h-2.555c-0.657-0.001-1.191,0.532-1.191,1.189c0,0.001,0,0.001,0,0.001l0,0v10.73
				c-0.001,0.657,0.532,1.191,1.189,1.191c0.001,0,0.001,0,0.001,0h32.189c0.657,0.001,1.191-0.532,1.191-1.189
				c0-0.001,0-0.001,0-0.001l0,0v-10.73c0.001-0.657-0.532-1.191-1.189-1.191h-0.001h-2.555l-6.786-44.108h9.339
				c0.657,0.001,1.191-0.532,1.191-1.189c0-0.001,0-0.001,0-0.001l0,0v-4.77C56.03,7.687,55.496,7.154,54.838,7.152L54.838,7.152z
				 M42.916,2.637v4.515H19.584L42.916,2.637z M14.305,29.798v7.153H2.384v-7.153H14.305z M10.729,25.03v2.389H5.961v-2.384
				L10.729,25.03z M31.929,30.404l12.951,6.476l-14.953,6.542L31.929,30.404z M42.442,21.551l-9.914,4.957l1.314-8.542
				L42.442,21.551z M34.216,15.539l0.19-1.238h8.684l0.812,5.276L34.216,15.539z M53.644,60.798v8.345h-29.8v-8.345H53.644z
				 M49.87,58.414H27.617l1.748-11.369l20.408,10.74L49.87,58.414z M49.322,54.854l-17.964-9.456l15.47-6.768L49.322,54.854z
				 M46.254,34.908L33.66,28.608l10.795-5.399L46.254,34.908z M53.644,11.922h-45.3V9.537h45.3V11.922z"/>
		</g>
	</g>
	<g id="Group_2071" transform="translate(0 44.11)">
		<g id="Group_2070">
			
				<linearGradient id="Path_16963_1_" gradientUnits="userSpaceOnUse" x1="-261.4924" y1="374.1218" x2="-261.4924" y2="373.1218" gradientTransform="matrix(33.7416 0 0 -27.4148 8840.0371 10256.4766)">
				<stop  offset="0.13" style="stop-color:#00A9ED"/>
				<stop  offset="1" style="stop-color:#65106B"/>
			</linearGradient>
			<path id="Path_16963" fill="url(#Path_16963_1_)" d="M33.567,11.289c-0.218-0.348-0.599-0.56-1.01-0.56H15.5V1.192
				C15.501,0.534,14.969,0,14.311-0.001c-0.001,0-0.002,0-0.004,0H3.577c-0.658,0-1.191,0.532-1.192,1.19V1.19l0,0v9.537H1.193
				C0.534,10.726,0,11.258-0.001,11.917c0,0.175,0.037,0.347,0.11,0.504l5.804,12.578c-0.117,0.021-0.235,0.033-0.354,0.037
				c-0.764-0.002-1.491-0.329-2-0.899C2.622,23.181,1.338,22.645,0,22.65v2.384c0.764,0.002,1.491,0.33,2,0.9
				c1.952,1.964,5.126,1.974,7.091,0.021l0,0l0.021-0.021c0.976-1.106,2.663-1.213,3.769-0.237c0.085,0.073,0.164,0.153,0.238,0.237
				c1.952,1.964,5.127,1.974,7.092,0.021l0.001-0.001l0.02-0.02c0.979-1.109,2.673-1.214,3.782-0.234
				c0.082,0.073,0.161,0.151,0.234,0.234c1.957,1.962,5.135,1.969,7.1,0.014l0.014-0.014c0.511-0.574,1.241-0.903,2.009-0.906
				v-2.384c-1.337-0.006-2.62,0.527-3.56,1.479c-0.551,0.684-1.427,1.019-2.294,0.876l6.101-12.563
				C33.798,12.071,33.78,11.637,33.567,11.289z M4.767,2.389h8.345v8.345H4.769L4.767,2.389z M25.445,23.835
				c-0.881-0.78-2.022-1.201-3.199-1.181c-1.337-0.006-2.619,0.526-3.559,1.478c-0.977,1.107-2.665,1.213-3.772,0.236
				c-0.084-0.073-0.162-0.152-0.236-0.236c-0.938-0.951-2.22-1.484-3.556-1.479c-1.151-0.022-2.27,0.382-3.141,1.134L3.055,13.113
				h27.6L25.445,23.835z"/>
		</g>
	</g>
</g>
</svg>
