<?xml version="1.0" encoding="utf-8"?>
<!-- Generator: Adobe Illustrator 16.0.0, SVG Export Plug-In . SVG Version: 6.00 Build 0)  -->
<!DOCTYPE svg PUBLIC "-//W3C//DTD SVG 1.1//EN" "http://www.w3.org/Graphics/SVG/1.1/DTD/svg11.dtd">
<svg version="1.1" id="Layer_1" xmlns="http://www.w3.org/2000/svg" xmlns:xlink="http://www.w3.org/1999/xlink" x="0px" y="0px"
	 width="78.555px" height="71.676px" viewBox="0 0 78.555 71.676" enable-background="new 0 0 78.555 71.676" xml:space="preserve">
<g id="balance" transform="translate(0 -22.413)">
	<g id="Group_2026" transform="translate(0 22.414)">
		<g id="Group_2025">
			
				<linearGradient id="Path_16902_1_" gradientUnits="userSpaceOnUse" x1="-262.4402" y1="426.9716" x2="-262.4402" y2="425.9716" gradientTransform="matrix(78.554 0 0 -71.68 20655.0645 30605.2773)">
				<stop  offset="0.13" style="stop-color:#00A9ED"/>
				<stop  offset="1" style="stop-color:#65106B"/>
			</linearGradient>
			<path id="Path_16902" fill="url(#Path_16902_1_)" d="M77.4,36.886h-1.731L68.5,20.35c1.43-1.265,1.563-3.448,0.299-4.878
				s-3.448-1.563-4.878-0.299c-0.069,0.062-0.137,0.125-0.2,0.192c-5.538-2.524-11.432-4.177-17.474-4.9
				c-0.38-2.275-1.804-4.241-3.847-5.312V2.898c0-1.602-1.299-2.899-2.9-2.899l0,0h-1c-1.602,0-2.899,1.298-2.899,2.899l0,0v2.258
				c-2.052,1.074-3.478,3.052-3.851,5.338c-5.881,0.728-11.62,2.335-17.022,4.77c-1.383-1.316-3.57-1.263-4.887,0.119
				c-1.316,1.383-1.263,3.57,0.12,4.887c0.028,0.027,0.059,0.055,0.088,0.081L2.886,36.886H1.151C0.515,36.886,0,37.401,0,38.037
				c0,0.001,0,0.002,0,0.004v1.5c0.006,4.823,3.914,8.731,8.737,8.736h7.21c4.823-0.005,8.731-3.913,8.737-8.736v-1.5
				c0.002-0.636-0.512-1.153-1.147-1.155c-0.001,0-0.002,0-0.003,0H21.8l-7.163-16.54c0.412-0.366,0.731-0.825,0.932-1.339h18.823
				v35.469h-0.7c-4.835,0.005-8.75,3.929-8.745,8.764c0,0.119,0.003,0.238,0.008,0.357c-1.473,0.211-2.566,1.472-2.569,2.959v2.13
				c0.005,1.65,1.342,2.988,2.992,2.992h10.941c0.635,0.026,1.171-0.467,1.198-1.102c0.026-0.636-0.468-1.172-1.103-1.198
				c-0.032-0.002-0.063-0.002-0.096,0H25.375c-0.379-0.006-0.685-0.312-0.689-0.69v-2.133c0.005-0.379,0.311-0.685,0.689-0.689
				h27.257c0.379,0.005,0.685,0.311,0.69,0.689v2.131c-0.006,0.379-0.312,0.685-0.69,0.69H41.689
				c-0.636-0.026-1.172,0.467-1.198,1.102c-0.026,0.636,0.467,1.172,1.103,1.198c0.031,0.001,0.063,0.001,0.096,0h10.942
				c1.65-0.004,2.987-1.34,2.992-2.99v-2.131c-0.002-1.487-1.097-2.748-2.568-2.959c0.199-4.833-3.557-8.913-8.39-9.113
				c-0.116-0.005-0.231-0.008-0.348-0.008h-0.7V40.726c0.026-0.635-0.467-1.171-1.102-1.198c-0.636-0.026-1.172,0.468-1.198,1.103
				c-0.001,0.032-0.001,0.063,0,0.096v13.75h-4.625V18.644c1.499,0.502,3.121,0.502,4.621,0v16.712
				c-0.026,0.636,0.467,1.172,1.102,1.198c0.636,0.026,1.172-0.467,1.198-1.102c0.001-0.032,0.001-0.064,0-0.097V19.011h19.374
				c0.2,0.514,0.52,0.973,0.932,1.339l-7.164,16.536h-1.734c-0.636,0-1.151,0.516-1.151,1.151l0,0v1.5
				c0.006,4.822,3.914,8.731,8.737,8.736h7.21c4.823-0.005,8.731-3.914,8.737-8.736v-1.5c0-0.636-0.515-1.15-1.149-1.151
				C77.403,36.886,77.402,36.886,77.4,36.886z M12.342,16.606c0.638-0.003,1.157,0.512,1.159,1.149c0.001,0.019,0,0.038-0.001,0.057
				v0.024c-0.04,0.637-0.589,1.121-1.227,1.08c-0.637-0.04-1.121-0.589-1.081-1.227c0.039-0.608,0.545-1.083,1.155-1.083
				L12.342,16.606z M22.383,39.191c0.183,3.562-2.558,6.597-6.119,6.778c-0.105,0.005-0.211,0.008-0.316,0.008h-7.21
				c-3.565-0.005-6.451-2.899-6.445-6.464c0-0.107,0.003-0.215,0.008-0.322H22.383z M19.291,36.892H5.394l6.788-15.672
				c0.106,0.006,0.214,0.006,0.32,0L19.291,36.892z M17.173,16.71c4.663-1.942,9.564-3.254,14.574-3.9
				c0.229,1.464,0.896,2.824,1.914,3.9H17.173z M37.9,2.898c0-0.331,0.269-0.6,0.6-0.6h1.006c0.332,0,0.601,0.269,0.601,0.6v1.5
				c-0.729-0.109-1.471-0.109-2.2,0L37.9,2.898z M44.316,56.776c3.564,0.007,6.449,2.902,6.443,6.467
				c0,0.106-0.003,0.213-0.009,0.319h-23.5c-0.182-3.562,2.559-6.596,6.12-6.777c0.104-0.005,0.21-0.008,0.315-0.009H44.316z
				 M39,16.71c-2.788-0.003-5.046-2.265-5.043-5.053c0-0.035,0-0.069,0.001-0.104v-0.008c0.066-2.785,2.378-4.99,5.164-4.924
				c2.785,0.066,4.989,2.378,4.923,5.164C43.98,14.524,41.74,16.711,39,16.71z M44.341,16.71c1.022-1.084,1.692-2.453,1.921-3.925
				C51.345,13.42,56.32,14.74,61.05,16.71H44.341z M65.055,17.81c0.006-0.603,0.5-1.085,1.103-1.079
				c0.603,0.007,1.086,0.501,1.079,1.104s-0.501,1.085-1.104,1.079c-0.593-0.007-1.072-0.486-1.078-1.079
				c0.002-0.007,0.002-0.015,0-0.021V17.81z M66.047,21.216L66.047,21.216c0.107,0.006,0.214,0.006,0.32,0l6.793,15.67h-13.9
				L66.047,21.216z M69.813,45.975H62.6c-3.565-0.008-6.449-2.904-6.441-6.469c0.001-0.107,0.004-0.214,0.009-0.32h20.085
				c0.184,3.562-2.556,6.597-6.117,6.779c-0.106,0.006-0.212,0.009-0.318,0.009L69.813,45.975z"/>
		</g>
	</g>
	<g id="Group_2028" transform="translate(35.601 30.676)">
		<g id="Group_2027">
			
				<linearGradient id="Path_16903_1_" gradientUnits="userSpaceOnUse" x1="-263.4079" y1="367.5134" x2="-263.4079" y2="366.5143" gradientTransform="matrix(6.8 0 0 -6.8 1794.5833 2499.0859)">
				<stop  offset="0.13" style="stop-color:#00A9ED"/>
				<stop  offset="1" style="stop-color:#65106B"/>
			</linearGradient>
			<path id="Path_16903" fill="url(#Path_16903_1_)" d="M3.403,0C1.526,0,0.003,1.522,0.003,3.4s1.522,3.399,3.399,3.399
				c1.878,0,3.4-1.521,3.4-3.399l0,0C6.803,1.522,5.281,0,3.403,0z M3.403,4.5c-0.604-0.003-1.09-0.495-1.086-1.1
				C2.32,2.797,2.812,2.31,3.415,2.314c0.604,0.003,1.091,0.495,1.087,1.099C4.5,3.701,4.385,3.976,4.182,4.179
				C3.975,4.385,3.695,4.501,3.403,4.5z"/>
		</g>
	</g>
</g>
</svg>
