<?xml version="1.0" encoding="utf-8"?>
<!-- Generator: Adobe Illustrator 16.0.0, SVG Export Plug-In . SVG Version: 6.00 Build 0)  -->
<!DOCTYPE svg PUBLIC "-//W3C//DTD SVG 1.1//EN" "http://www.w3.org/Graphics/SVG/1.1/DTD/svg11.dtd">
<svg version="1.1" id="Layer_1" xmlns="http://www.w3.org/2000/svg" xmlns:xlink="http://www.w3.org/1999/xlink" x="0px" y="0px"
	 width="68.178px" height="71.958px" viewBox="0 0 68.178 71.958" enable-background="new 0 0 68.178 71.958" xml:space="preserve">
<g id="accident_3_" transform="translate(-40.39 -48.749)">
	<g id="Group_2031" transform="translate(40.379 118.338)">
		<g id="Group_2030">
			
				<linearGradient id="Path_16933_1_" gradientUnits="userSpaceOnUse" x1="-267.0405" y1="200.4564" x2="-267.0405" y2="199.4564" gradientTransform="matrix(68.1569 0 0 -2.367 18234.8008 474.4814)">
				<stop  offset="0.13" style="stop-color:#00A9ED"/>
				<stop  offset="1" style="stop-color:#65106B"/>
			</linearGradient>
			<path id="Path_16933" fill="url(#Path_16933_1_)" d="M67.042,0.003H1.136c-0.654,0.033-1.157,0.59-1.124,1.242
				C0.043,1.853,0.529,2.339,1.136,2.37h65.905c0.654-0.033,1.158-0.59,1.125-1.244C68.135,0.519,67.651,0.033,67.042,0.003z"/>
		</g>
	</g>
	<g id="Group_2033" transform="translate(41.725 97.968)">
		<g id="Group_2032">
			
				<linearGradient id="Path_16934_1_" gradientUnits="userSpaceOnUse" x1="-256.2083" y1="358.8313" x2="-256.2083" y2="357.8313" gradientTransform="matrix(16.3993 0 0 -15.7386 4209.8252 5647.5156)">
				<stop  offset="0.13" style="stop-color:#00A9ED"/>
				<stop  offset="1" style="stop-color:#65106B"/>
			</linearGradient>
			<path id="Path_16934" fill="url(#Path_16934_1_)" d="M16.329,5.912c-0.165-0.508-0.604-0.877-1.131-0.953l-3.973-0.578
				l-1.775-3.6C9.108,0.088,8.268-0.195,7.575,0.147C7.299,0.283,7.076,0.506,6.94,0.781l-1.774,3.6L1.19,4.961
				C0.425,5.076-0.101,5.789,0.014,6.555c0.045,0.299,0.186,0.574,0.4,0.787l2.874,2.799l-0.677,3.957
				c-0.129,0.762,0.383,1.484,1.146,1.615c0.302,0.051,0.613,0.002,0.885-0.141l3.553-1.867l3.551,1.875
				c0.685,0.359,1.531,0.096,1.89-0.59c0.143-0.271,0.192-0.582,0.141-0.887l-0.679-3.955l2.875-2.801
				C16.356,6.977,16.494,6.42,16.329,5.912L16.329,5.912z M10.629,8.656c-0.329,0.322-0.479,0.785-0.4,1.238l0.322,1.887
				l-1.694-0.891c-0.407-0.213-0.893-0.213-1.3,0l-1.694,0.891l0.322-1.887c0.079-0.453-0.071-0.916-0.4-1.238l-1.37-1.334
				l1.893-0.281c0.456-0.066,0.85-0.352,1.054-0.766l0.847-1.717l0.847,1.717C9.26,6.688,9.654,6.975,10.11,7.041l1.893,0.281
				L10.629,8.656z"/>
		</g>
	</g>
	<g id="Group_2035" transform="translate(41.706 48.747)">
		<g id="Group_2034">
			
				<linearGradient id="Path_16935_1_" gradientUnits="userSpaceOnUse" x1="-268.0536" y1="426.6871" x2="-268.0536" y2="425.6871" gradientTransform="matrix(63.0114 0 0 -66.3637 16921.9063 28316.5566)">
				<stop  offset="0.13" style="stop-color:#00A9ED"/>
				<stop  offset="1" style="stop-color:#65106B"/>
			</linearGradient>
			<path id="Path_16935" fill="url(#Path_16935_1_)" d="M61.441,31.462L47.199,17.225c-0.547-0.546-1.432-0.546-1.979,0
				L35.004,27.431l-9.354-9.354c6.175-0.922,10.748-6.221,10.754-12.464V5.375c0-2.32-1.881-4.2-4.2-4.2c-2.32,0-4.2,1.88-4.2,4.2
				c-0.003,2.451-1.989,4.436-4.44,4.439c-2.458,0.005-4.898,0.439-7.207,1.284c1.488-4.394-0.869-9.162-5.263-10.649
				C6.7-1.04,1.932,1.316,0.444,5.711c-1.488,4.395,0.869,9.163,5.263,10.65c0.695,0.235,1.418,0.378,2.15,0.426l-0.428,0.44
				c-5.958,5.958-5.958,15.619,0,21.579l0.531,0.531c1.759,1.65,4.522,1.563,6.173-0.195c1.58-1.684,1.577-4.306-0.007-5.986
				l-0.531-0.531c-2.159-2.166-2.525-5.54-0.883-8.119l19.47,19.462H21.005c-0.773,0-1.4,0.627-1.4,1.398c0,0.773,0.627,1.4,1.4,1.4
				h13.971l1.428,1.428v12.572c0.002,0.982,0.264,1.949,0.758,2.799h-9.157c-0.773,0-1.4,0.627-1.4,1.4s0.627,1.4,1.4,1.4h14
				c3.092,0,5.6-2.508,5.6-5.6V43.403c0-0.371-0.146-0.727-0.41-0.988l-6.01-6.011l5.02-5.012l7.656,7.65
				c2.094,2.092,5.486,2.092,7.58,0C63.533,36.948,63.533,33.554,61.441,31.462L61.441,31.462z M2.807,8.414
				c0-3.093,2.507-5.6,5.6-5.6s5.6,2.507,5.6,5.6s-2.507,5.6-5.6,5.6l0,0C5.315,14.013,2.807,11.506,2.807,8.414z M59.441,37.063
				c-0.994,0.992-2.605,0.99-3.598-0.004c0-0.002-0.002-0.004-0.004-0.004l-8.639-8.631c-0.547-0.546-1.434-0.546-1.979,0l-7,7
				c-0.547,0.547-0.547,1.433,0,1.978l6.578,6.588v16.771c0.002,1.547-1.252,2.801-2.799,2.803c-1.545,0-2.801-1.252-2.801-2.799
				c0,0,0-0.002,0-0.004v-13.16c0-0.371-0.148-0.727-0.41-0.99l-25.2-25.199c-0.547-0.546-1.433-0.546-1.979,0
				c-3.634,3.641-3.634,9.537,0,13.178l0.531,0.531c0.624,0.602,0.64,1.597,0.037,2.22c-0.603,0.623-1.596,0.639-2.22,0.037
				c-0.013-0.012-0.025-0.025-0.038-0.037l-0.531-0.531c-4.865-4.866-4.865-12.754,0-17.62l1.23-1.229
				c3.424-3.443,8.083-5.373,12.938-5.36c3.994-0.004,7.232-3.238,7.24-7.232c0-0.773,0.626-1.4,1.4-1.4c0.773,0,1.4,0.627,1.4,1.4
				v0.239c-0.006,5.41-4.39,9.794-9.8,9.8c-0.773,0-1.4,0.627-1.4,1.4l0,0v1.4c0,0.371,0.147,0.728,0.41,0.99l11.2,11.2
				c0.547,0.546,1.432,0.546,1.979,0l10.215-10.206l13.25,13.248C60.449,34.444,60.445,36.065,59.441,37.063L59.441,37.063z"/>
		</g>
	</g>
	<g id="Group_2037" transform="translate(59.911 112.306)">
		<g id="Group_2036">
			
				<linearGradient id="Path_16936_1_" gradientUnits="userSpaceOnUse" x1="-243.4661" y1="231.6066" x2="-243.4661" y2="230.6066" gradientTransform="matrix(5.6 0 0 -2.8 1366.2104 648.4966)">
				<stop  offset="0.13" style="stop-color:#00A9ED"/>
				<stop  offset="1" style="stop-color:#65106B"/>
			</linearGradient>
			<path id="Path_16936" fill="url(#Path_16936_1_)" d="M4.2,0.002H1.4C0.627,0.006,0.002,0.633,0.004,1.406
				C0.007,2.176,0.63,2.801,1.4,2.803h2.8C4.973,2.805,5.602,2.18,5.604,1.406c0.002-0.773-0.623-1.4-1.396-1.404
				C4.206,0.002,4.203,0.002,4.2,0.002z"/>
		</g>
	</g>
	<g id="Group_2039" transform="translate(52.912 92.708)">
		<g id="Group_2038">
			
				<linearGradient id="Path_16937_1_" gradientUnits="userSpaceOnUse" x1="-236.5359" y1="251.2046" x2="-236.5359" y2="250.2046" gradientTransform="matrix(5.6083 0 0 -2.8 1329.356 703.3711)">
				<stop  offset="0.13" style="stop-color:#00A9ED"/>
				<stop  offset="1" style="stop-color:#65106B"/>
			</linearGradient>
			<path id="Path_16937" fill="url(#Path_16937_1_)" d="M4.2,0.002H1.4C0.627,0-0.002,0.625-0.004,1.399
				c-0.002,0.773,0.623,1.402,1.396,1.404c0.003,0,0.006,0,0.008,0h2.8C4.973,2.805,5.602,2.18,5.604,1.407
				c0.002-0.773-0.623-1.402-1.396-1.404C4.206,0.002,4.203,0.002,4.2,0.002z"/>
		</g>
	</g>
</g>
</svg>
