<?xml version="1.0" encoding="utf-8"?>
<!-- Generator: Adobe Illustrator 16.0.0, SVG Export Plug-In . SVG Version: 6.00 Build 0)  -->
<!DOCTYPE svg PUBLIC "-//W3C//DTD SVG 1.1//EN" "http://www.w3.org/Graphics/SVG/1.1/DTD/svg11.dtd">
<svg version="1.1" id="Layer_1" xmlns="http://www.w3.org/2000/svg" xmlns:xlink="http://www.w3.org/1999/xlink" x="0px" y="0px"
	 width="53.645px" height="70.504px" viewBox="0 0 53.645 70.504" enable-background="new 0 0 53.645 70.504" xml:space="preserve">
<linearGradient id="Path_17004_1_" gradientUnits="userSpaceOnUse" x1="-273.1404" y1="426.2734" x2="-273.1404" y2="425.2734" gradientTransform="matrix(53.649 0 0 -70.5 14680.5234 30053.3262)">
	<stop  offset="0.13" style="stop-color:#00A9ED"/>
	<stop  offset="1" style="stop-color:#65106B"/>
</linearGradient>
<path id="Path_17004" fill="url(#Path_17004_1_)" d="M53.286,13.842L40.878,1.4C40.652,1.158,40.341,1.014,40.01,1H1.234
	C0.542,1.035-0.001,1.606,0,2.3v67.9c-0.001,0.691,0.539,1.263,1.229,1.3h51.188c0.69-0.037,1.231-0.608,1.23-1.3V14.71
	C53.648,14.384,53.518,14.072,53.286,13.842L53.286,13.842z M41.233,5.262l8.225,8.153h-8.225V5.262z M51.2,69.051H2.457V3.452
	H38.78V14.71c0.008,0.646,0.537,1.166,1.184,1.158c0.016,0,0.03,0,0.046-0.001H51.2V69.051z"/>
<linearGradient id="Path_17005_1_" gradientUnits="userSpaceOnUse" x1="-268.8479" y1="274.2441" x2="-268.8479" y2="273.2441" gradientTransform="matrix(28.967 0 0 -2.452 7814.5254 730.6148)">
	<stop  offset="0.13" style="stop-color:#00A9ED"/>
	<stop  offset="1" style="stop-color:#65106B"/>
</linearGradient>
<path id="Path_17005" fill="url(#Path_17005_1_)" d="M40.085,58.169H13.568c-0.677,0.001-1.225,0.552-1.224,1.229
	c0.002,0.675,0.549,1.222,1.224,1.224h26.516c0.677,0.001,1.227-0.547,1.228-1.224c0.002-0.677-0.546-1.228-1.224-1.229
	C40.087,58.169,40.085,58.169,40.085,58.169L40.085,58.169z"/>
<linearGradient id="Path_17006_1_" gradientUnits="userSpaceOnUse" x1="-264.7986" y1="274.2432" x2="-264.7986" y2="273.2441" gradientTransform="matrix(20.201 0 0 -2.452 5376.0146 725.7105)">
	<stop  offset="0.13" style="stop-color:#00A9ED"/>
	<stop  offset="1" style="stop-color:#65106B"/>
</linearGradient>
<path id="Path_17006" fill="url(#Path_17006_1_)" d="M35.701,55.717c0.677-0.001,1.225-0.551,1.224-1.229
	c-0.002-0.675-0.549-1.223-1.224-1.223H17.952c-0.678-0.002-1.228,0.546-1.229,1.223c-0.001,0.678,0.547,1.228,1.224,1.229
	c0.002,0,0.003,0,0.005,0H35.701z"/>
<linearGradient id="Path_17007_1_" gradientUnits="userSpaceOnUse" x1="-270.2615" y1="420.8877" x2="-270.2615" y2="419.8877" gradientTransform="matrix(34.143 0 0 -35.5451 9254.373 14973.7471)">
	<stop  offset="0.13" style="stop-color:#00A9ED"/>
	<stop  offset="1" style="stop-color:#65106B"/>
</linearGradient>
<path id="Path_17007" fill="url(#Path_17007_1_)" d="M28.052,21.236c1.65-0.576,2.752-2.139,2.739-3.887
	c0.06-2.19-1.667-4.015-3.856-4.075c-2.19-0.061-4.015,1.667-4.075,3.856c-0.002,0.073-0.002,0.146,0,0.218
	c-0.013,1.749,1.089,3.311,2.74,3.887v1.069H13.588c-0.677,0-1.227,0.549-1.227,1.226c0,0.677,0.55,1.226,1.227,1.226h1.072
	l-4.227,8.649c-0.417,0.213-0.68,0.642-0.68,1.111c0.225,3.752,3.449,6.613,7.201,6.387c3.436-0.205,6.177-2.941,6.388-6.376
	c0-0.472-0.262-0.905-0.68-1.124l-4.225-8.648h7.16v17.626h-7.79c-0.694,0.025-1.247,0.593-1.253,1.288v3.924
	c0.014,0.682,0.571,1.227,1.253,1.225h18.033c0.682,0.002,1.24-0.543,1.254-1.225v-3.922c-0.006-0.695-0.559-1.264-1.254-1.288
	h-7.789V24.757h7.159l-4.225,8.649c-0.417,0.213-0.68,0.642-0.68,1.111c0.225,3.752,3.449,6.613,7.202,6.387
	c3.435-0.205,6.176-2.941,6.387-6.376c0.001-0.472-0.261-0.905-0.68-1.124l-4.223-8.647h1.07c0.678,0,1.227-0.549,1.227-1.226
	c0-0.677-0.549-1.226-1.227-1.226H28.052V21.236z M26.827,15.712c0.903-0.07,1.692,0.605,1.763,1.509
	c0.07,0.903-0.605,1.693-1.509,1.763c-0.904,0.07-1.693-0.605-1.764-1.509c-0.003-0.042-0.005-0.084-0.005-0.127
	C25.281,16.479,25.958,15.748,26.827,15.712z M16.55,26.564l3.32,6.776h-6.637L16.55,26.564z M16.55,38.504
	c-1.802,0.029-3.438-1.047-4.127-2.712h8.254C19.988,37.457,18.351,38.532,16.55,38.504L16.55,38.504z M34.642,46.372H19.01v-1.533
	h15.633V46.372z M37.101,26.572l3.32,6.777h-6.64L37.101,26.572z M37.101,38.512c-1.802,0.029-3.438-1.047-4.126-2.712h8.258
	c-0.688,1.666-2.324,2.741-4.127,2.712H37.101z"/>
</svg>
