<?xml version="1.0" encoding="utf-8"?>
<!-- Generator: Adobe Illustrator 16.0.0, SVG Export Plug-In . SVG Version: 6.00 Build 0)  -->
<!DOCTYPE svg PUBLIC "-//W3C//DTD SVG 1.1//EN" "http://www.w3.org/Graphics/SVG/1.1/DTD/svg11.dtd">
<svg version="1.1" id="gift" xmlns="http://www.w3.org/2000/svg" xmlns:xlink="http://www.w3.org/1999/xlink" x="0px" y="0px"
	 width="81.535px" height="81.535px" viewBox="0 0 81.535 81.535" enable-background="new 0 0 81.535 81.535" xml:space="preserve">
<linearGradient id="gift_2_" gradientUnits="userSpaceOnUse" x1="-255.7451" y1="422.2998" x2="-254.0462" y2="424.377" gradientTransform="matrix(30.396 0 0 -30.4764 7790.4766 12946.5977)">
	<stop  offset="0" style="stop-color:#00A9ED"/>
	<stop  offset="0.13" style="stop-color:#00A9ED"/>
	<stop  offset="1" style="stop-color:#65106B"/>
</linearGradient>
<path id="gift_1_" fill="url(#gift_2_)" d="M71.313,21.952H56.016c4.08-3.415,4.621-9.491,1.205-13.572
	c-3.414-4.08-9.491-4.62-13.571-1.205c-0.525,0.412-0.616,1.173-0.205,1.697c0.414,0.526,1.173,0.618,1.698,0.205
	c3.135-2.47,7.68-1.93,10.15,1.205c2.469,3.135,1.93,7.679-1.205,10.149c-1.141,0.898-2.526,1.434-3.979,1.533h-7.707v-7.221
	c0.004-5.324-4.306-9.644-9.629-9.648c-5.325-0.006-9.645,4.306-9.649,9.628c-0.002,2.765,1.182,5.398,3.254,7.229H11.081
	c-3.326,0.005-6.022,2.699-6.024,6.024v6.208c0.009,2.973,2.181,5.496,5.119,5.945v31.253c0.004,3.325,2.698,6.02,6.024,6.024
	h49.996c3.325-0.005,6.02-2.699,6.024-6.024V45.461c-0.03-0.664-0.595-1.18-1.259-1.152c-0.625,0.028-1.124,0.529-1.152,1.152
	v25.922c-0.002,1.992-1.618,3.608-3.613,3.613H36.979V40.209h8.433v30.449c-0.03,0.669,0.485,1.23,1.151,1.259
	c0.664,0.032,1.229-0.483,1.257-1.147c0.002-0.037,0.002-0.074,0-0.111V40.209h13.401c0.665,0.029,1.229-0.487,1.257-1.151
	c0.03-0.666-0.485-1.229-1.149-1.259c-0.037-0.001-0.072-0.001-0.107,0h-7.979v-13.44h18.073c1.997,0.001,3.613,1.619,3.615,3.615
	v6.208c-0.002,1.996-1.618,3.614-3.615,3.615h-2.332c-0.667-0.029-1.229,0.485-1.259,1.151s0.485,1.229,1.152,1.259
	c0.034,0.001,0.071,0.001,0.106,0h2.332c3.325-0.005,6.021-2.699,6.023-6.024v-6.206C77.337,24.649,74.641,21.954,71.313,21.952z
	 M25.535,14.742c0-3.992,3.237-7.229,7.229-7.229s7.227,3.236,7.227,7.229v7.209h-7.719C28.482,21.689,25.54,18.542,25.535,14.742z
	 M34.573,74.996H16.199c-1.995-0.005-3.611-1.621-3.613-3.613V40.209h21.985L34.573,74.996z M50.837,37.799H11.081
	c-1.998-0.001-3.614-1.619-3.616-3.615v-6.208c0-1.998,1.619-3.616,3.616-3.617h18.072v9.655c0.03,0.665,0.592,1.18,1.259,1.15
	c0.623-0.028,1.122-0.527,1.149-1.15v-9.655h19.276V37.799z"/>
</svg>
