<?xml version="1.0" encoding="utf-8"?>
<!-- Generator: Adobe Illustrator 16.0.0, SVG Export Plug-In . SVG Version: 6.00 Build 0)  -->
<!DOCTYPE svg PUBLIC "-//W3C//DTD SVG 1.1//EN" "http://www.w3.org/Graphics/SVG/1.1/DTD/svg11.dtd">
<svg version="1.1" id="Layer_1" xmlns="http://www.w3.org/2000/svg" xmlns:xlink="http://www.w3.org/1999/xlink" x="0px" y="0px"
	 width="114.396px" height="56.352px" viewBox="0 0 114.396 56.352" enable-background="new 0 0 114.396 56.352"
	 xml:space="preserve">
<g id="Group_3584" transform="translate(-725 -8544)">
	
		<linearGradient id="Path_17051_1_" gradientUnits="userSpaceOnUse" x1="527.5652" y1="8913.5527" x2="527.5652" y2="8912.583" gradientTransform="matrix(4.772 0 0 -7.132 -1774.1926 72144.9766)">
		<stop  offset="0.13" style="stop-color:#00A9ED"/>
		<stop  offset="1" style="stop-color:#65106B"/>
	</linearGradient>
	<path id="Path_17051" fill="url(#Path_17051_1_)" d="M745.656,8576.812c0-1.905-1.037-3.456-2.312-3.456
		c-1.276,0-2.312,1.551-2.312,3.456c0,1.904,1.037,3.454,2.312,3.454C744.618,8580.266,745.656,8578.717,745.656,8576.812z"/>
	
		<linearGradient id="Path_17052_1_" gradientUnits="userSpaceOnUse" x1="527.4485" y1="8913.5527" x2="527.4485" y2="8912.583" gradientTransform="matrix(4.772 0 0 -7.132 -1756.2158 72144.9766)">
		<stop  offset="0.13" style="stop-color:#00A9ED"/>
		<stop  offset="1" style="stop-color:#65106B"/>
	</linearGradient>
	<path id="Path_17052" fill="url(#Path_17052_1_)" d="M763.064,8576.812c0-1.905-1.037-3.456-2.312-3.456
		c-1.274,0-2.312,1.551-2.312,3.456c0,1.904,1.036,3.454,2.312,3.454S763.064,8578.717,763.064,8576.812z"/>
	
		<linearGradient id="Path_17053_1_" gradientUnits="userSpaceOnUse" x1="481.6638" y1="8961.375" x2="481.6638" y2="8960.4063" gradientTransform="matrix(53.7654 0 0 -53.9667 -25144.7734 492161.375)">
		<stop  offset="0.13" style="stop-color:#00A9ED"/>
		<stop  offset="1" style="stop-color:#65106B"/>
	</linearGradient>
	<path id="Path_17053" fill="url(#Path_17053_1_)" d="M777.905,8573.97l-7.138-8.099c0.207-0.653,0.273-1.342,0.194-2.022
		c0.738-0.325,1.384-0.831,1.879-1.468c0.661-0.846,1.018-1.888,1.015-2.961v-0.066c-0.004-1.07-0.367-2.109-1.032-2.949
		c-0.499-0.634-1.146-1.133-1.886-1.454c0.098-0.875-0.045-1.76-0.414-2.561c-0.177-0.384-0.632-0.552-1.016-0.376
		c-0.384,0.178-0.552,0.633-0.375,1.017c0.321,0.698,0.389,1.485,0.193,2.229c-0.107,0.409,0.136,0.827,0.544,0.935
		c0.691,0.188,1.302,0.594,1.744,1.156c0.452,0.572,0.7,1.281,0.703,2.01v0.063c0.003,0.732-0.24,1.444-0.692,2.022
		c-0.44,0.565-1.052,0.973-1.744,1.162c-0.408,0.11-0.649,0.53-0.539,0.939c0.471,1.768-0.579,3.583-2.348,4.055
		c-0.65,0.173-1.337,0.145-1.97-0.083c-0.397-0.143-0.836,0.063-0.98,0.461c-0.005,0.015-0.01,0.029-0.014,0.043
		c-0.512,1.752-2.348,2.758-4.1,2.244c-0.358-0.104-0.696-0.269-0.999-0.486c-0.343-0.246-0.822-0.166-1.068,0.178
		c-0.009,0.014-0.019,0.027-0.027,0.041c-0.265,0.427-0.623,0.789-1.046,1.059c-0.439,0.277-0.937,0.447-1.454,0.495
		c-0.107,0.01-0.209,0.015-0.313,0.015c-0.914-0.002-1.788-0.383-2.412-1.051c-0.288-0.309-0.772-0.325-1.082-0.037
		c-0.013,0.013-0.025,0.025-0.037,0.037c-0.305,0.33-0.673,0.594-1.083,0.775c-0.419,0.186-0.873,0.281-1.332,0.281
		c-0.104,0.002-0.208-0.002-0.312-0.015c-1.033-0.093-1.961-0.667-2.503-1.55c-0.223-0.359-0.695-0.471-1.054-0.248
		c-0.014,0.008-0.028,0.02-0.042,0.028c-1.481,1.065-3.545,0.729-4.61-0.752c-0.218-0.304-0.383-0.642-0.488-1.001
		c-0.12-0.405-0.546-0.637-0.951-0.518c-0.015,0.006-0.029,0.01-0.043,0.015c-1.721,0.618-3.617-0.276-4.234-1.997
		c-0.227-0.631-0.256-1.316-0.085-1.966c0.109-0.407-0.133-0.827-0.541-0.937c-0.692-0.189-1.304-0.598-1.745-1.163
		c-0.451-0.574-0.696-1.284-0.697-2.016v-0.015c0.002-1.486,0.992-2.788,2.422-3.186c0.408-0.112,0.647-0.532,0.538-0.939
		c-0.476-1.768,0.571-3.584,2.338-4.061c0.653-0.175,1.344-0.146,1.979,0.082c0.398,0.144,0.837-0.063,0.98-0.459
		c0.006-0.016,0.01-0.03,0.015-0.046c0.149-0.508,0.418-0.974,0.785-1.356c0.377-0.396,0.85-0.691,1.372-0.858
		c0.997-0.325,2.089-0.154,2.94,0.458c0.345,0.244,0.823,0.162,1.067-0.184c0.008-0.014,0.018-0.026,0.025-0.04
		c0.265-0.427,0.623-0.789,1.045-1.06c0.439-0.277,0.937-0.447,1.454-0.495c0.106-0.009,0.211-0.015,0.314-0.015
		c0.914,0.002,1.788,0.382,2.412,1.051c0.145,0.154,0.347,0.242,0.56,0.242l0,0c0.212,0,0.415-0.088,0.56-0.242
		c0.627-0.67,1.505-1.051,2.422-1.051c0.103-0.002,0.206,0.002,0.308,0.015c0.517,0.048,1.015,0.216,1.454,0.493
		c0.424,0.269,0.782,0.631,1.046,1.057c0.222,0.359,0.694,0.47,1.054,0.248c0.015-0.01,0.029-0.02,0.043-0.03
		c1.481-1.066,3.544-0.731,4.611,0.749c0.218,0.303,0.382,0.639,0.488,0.995c0.12,0.405,0.546,0.636,0.952,0.516
		c0.014-0.005,0.029-0.009,0.043-0.015c0.364-0.133,0.749-0.2,1.135-0.199c0.469-0.002,0.931,0.097,1.357,0.291
		c0.398,0.142,0.836-0.064,0.979-0.463c0.126-0.351-0.019-0.741-0.342-0.925c-0.626-0.286-1.307-0.433-1.995-0.431
		c-0.313-0.001-0.626,0.029-0.934,0.09c-1.143-2.412-4.025-3.44-6.438-2.299c-0.035,0.018-0.069,0.035-0.104,0.052
		c-0.312-0.362-0.677-0.677-1.083-0.933c-0.643-0.406-1.374-0.653-2.131-0.721c-0.149-0.015-0.3-0.022-0.45-0.021
		c-1.079,0.002-2.126,0.363-2.976,1.027c-2.033-1.592-4.959-1.301-6.64,0.66c-2.385-1.198-5.29-0.236-6.488,2.149
		c-0.018,0.036-0.036,0.073-0.053,0.11c-2.624-0.505-5.159,1.215-5.663,3.838c-0.094,0.488-0.112,0.986-0.053,1.479
		c-1.75,0.775-2.879,2.51-2.881,4.425v0.017c0,1.074,0.361,2.117,1.025,2.961c0.497,0.631,1.141,1.131,1.877,1.453
		c-0.074,0.67-0.007,1.349,0.194,1.992l-7.147,8.108c-0.28,0.316-0.25,0.801,0.067,1.08c0.022,0.019,0.043,0.036,0.066,0.053
		c0.993,0.642,2.085,1.109,3.234,1.386c0.818,0.205,1.656,0.31,2.498,0.312c1.398-0.002,2.778-0.299,4.053-0.872
		c0.359,1.336,0.886,2.621,1.569,3.824c1.06,1.847,1.659,3.922,1.744,6.05c0.047,1.596,0.398,3.168,1.034,4.632
		c0.168,0.389,0.62,0.566,1.008,0.396c0.388-0.168,0.566-0.619,0.397-1.008l0,0c-0.559-1.285-0.868-2.667-0.909-4.068
		c-0.092-2.376-0.757-4.693-1.938-6.757c-0.768-1.354-1.317-2.818-1.629-4.342c-0.199-0.975-0.301-1.966-0.305-2.96
		c-0.004-0.835,0.061-1.668,0.194-2.492c0.533,0.075,1.075,0.061,1.603-0.041c1.142,2.412,4.023,3.442,6.436,2.3
		c0.035-0.017,0.07-0.033,0.104-0.051c0.815,0.952,1.97,1.547,3.218,1.656c0.153,0.015,0.306,0.021,0.45,0.021
		c1.079,0,2.125-0.36,2.975-1.025c0.848,0.662,1.893,1.022,2.968,1.024c0.151,0,0.305-0.008,0.458-0.021
		c1.246-0.115,2.397-0.71,3.211-1.659c2.387,1.199,5.294,0.235,6.493-2.151c0.018-0.033,0.034-0.067,0.05-0.103
		c0.521,0.101,1.056,0.115,1.582,0.044c0.297,1.811,0.261,3.66-0.107,5.459c-0.321,1.556-0.888,3.05-1.682,4.425
		c-1.167,2.035-1.816,4.326-1.89,6.672c-0.169,5.699-4.643,10.336-10.332,10.712v-3.213l3.065-3.064
		c0.309-0.289,0.326-0.774,0.037-1.083c-0.289-0.31-0.774-0.326-1.083-0.037c-0.013,0.012-0.025,0.024-0.037,0.037l-2.747,2.748
		l-2.747-2.747c-0.308-0.289-0.793-0.272-1.082,0.036c-0.275,0.295-0.275,0.752,0,1.047l3.063,3.063v3.213
		c-2.673-0.171-5.192-1.312-7.083-3.207c-0.357-0.357-0.69-0.739-0.996-1.142c-0.255-0.337-0.736-0.402-1.073-0.146
		s-0.402,0.736-0.146,1.073l0,0c4.217,5.558,12.142,6.646,17.7,2.428c3.037-2.304,4.87-5.857,4.99-9.667
		c0.067-2.094,0.648-4.139,1.691-5.955c0.708-1.23,1.253-2.548,1.621-3.919c1.274,0.573,2.656,0.87,4.054,0.872
		c0.842-0.002,1.681-0.106,2.497-0.312c1.149-0.275,2.243-0.744,3.235-1.386c0.345-0.243,0.429-0.722,0.186-1.066
		c-0.016-0.024-0.033-0.046-0.052-0.066V8573.97z M735.777,8574.395c-1.793,0.896-3.849,1.116-5.792,0.621
		c-0.699-0.171-1.378-0.418-2.023-0.738l6.126-6.951c0.452,0.6,1.037,1.086,1.709,1.422
		C735.469,8570.616,735.462,8572.525,735.777,8574.395L735.777,8574.395z M774.112,8575.016c-1.943,0.495-3.999,0.274-5.793-0.622
		c0.317-1.87,0.31-3.78-0.021-5.647c0.672-0.334,1.26-0.819,1.714-1.417l6.124,6.948
		C775.49,8574.598,774.812,8574.846,774.112,8575.016L774.112,8575.016z"/>
	
		<linearGradient id="Path_17054_1_" gradientUnits="userSpaceOnUse" x1="565.2322" y1="8823.4746" x2="565.2322" y2="8822.5049" gradientTransform="matrix(2.708 0 0 -2.708 -726.3666 32465.4863)">
		<stop  offset="0.13" style="stop-color:#00A9ED"/>
		<stop  offset="1" style="stop-color:#65106B"/>
	</linearGradient>
	<path id="Path_17054" fill="url(#Path_17054_1_)" d="M805.59,8572.898c-0.001,0.724-0.589,1.312-1.313,1.311
		c-0.725,0-1.312-0.589-1.311-1.313c0-0.725,0.588-1.312,1.312-1.312C805.002,8571.585,805.59,8572.173,805.59,8572.898
		C805.59,8572.897,805.59,8572.897,805.59,8572.898z"/>
	
		<linearGradient id="Path_17055_1_" gradientUnits="userSpaceOnUse" x1="565.0354" y1="8823.582" x2="565.0354" y2="8822.6133" gradientTransform="matrix(2.71 0 0 -2.71 -715.8765 32483.5527)">
		<stop  offset="0.13" style="stop-color:#00A9ED"/>
		<stop  offset="1" style="stop-color:#65106B"/>
	</linearGradient>
	<path id="Path_17055" fill="url(#Path_17055_1_)" d="M816.679,8572.898c0,0.725-0.588,1.313-1.313,1.313s-1.313-0.588-1.313-1.313
		c0-0.726,0.588-1.313,1.313-1.313C816.091,8571.585,816.679,8572.173,816.679,8572.898L816.679,8572.898z"/>
	
		<linearGradient id="Path_17056_1_" gradientUnits="userSpaceOnUse" x1="481.4695" y1="8961.6816" x2="481.4695" y2="8960.7129" gradientTransform="matrix(55.7742 0 0 -56.3321 -26043.7539 513376.5)">
		<stop  offset="0.13" style="stop-color:#00A9ED"/>
		<stop  offset="1" style="stop-color:#65106B"/>
	</linearGradient>
	<path id="Path_17056" fill="url(#Path_17056_1_)" d="M836.467,8554.831c-0.921-3.19-3.106-5.862-6.048-7.401
		c-3.184-1.633-6.843-2.08-10.324-1.262c-1.924,0.521-3.71,1.459-5.232,2.744c-1.333,1.194-2.395,2.66-3.114,4.298
		c-0.488-0.057-0.982-0.092-1.483-0.104c-0.792-0.019-1.584,0.02-2.37,0.114c-0.717-1.642-1.777-3.11-3.11-4.309
		c-1.522-1.286-3.309-2.223-5.232-2.743c-3.481-0.819-7.141-0.373-10.323,1.259c-2.944,1.538-5.132,4.212-6.054,7.404
		c-0.41,1.458-0.485,2.991-0.218,4.483c0.14,0.786,0.408,1.544,0.795,2.243c0.76,1.339,2.05,2.294,3.553,2.628
		c0.548,0.131,1.109,0.197,1.672,0.193c0.911-0.002,1.815-0.161,2.671-0.47c1.231-0.395,2.228-1.309,2.725-2.502
		c0.364-0.917,0.229-1.956-0.357-2.749c-0.639-0.736-1.613-1.088-2.575-0.931c-0.125,0.015-0.247,0.03-0.368,0.048
		c-0.698,0.096-1.049,0.124-1.403-0.176c-0.57-0.594-0.746-1.466-0.451-2.234c0.543-1.531,2.001-2.547,3.624-2.527h0.028
		c0.799,0,2.798,0.315,4.729,3.118c0.375,0.588,0.704,1.202,0.985,1.841l0.098,0.208c-1.179,1.428-2.029,3.096-2.491,4.888
		c-1.479,1.426-2.67,3.123-3.509,4.998c-0.176,0.375-0.015,0.822,0.36,0.998c0.374,0.176,0.82,0.015,0.997-0.359
		c0.465-0.996,1.025-1.944,1.676-2.83c-0.171,2.532,0.042,5.076,0.629,7.545c0.002,0.021,0.008,0.044,0.018,0.064
		c0.017,0.057,1.804,5.703,1.804,8.173c0,0.338,0.005,0.688,0.021,1.044c-0.536,1.994-1.363,3.898-2.458,5.651
		c-0.698,1.101-1.355,1.646-2.001,1.677c-0.082-0.057-0.535-0.443-1.047-2.456c-0.262-1.063-0.461-2.141-0.599-3.227
		c-0.542-4.115-0.294-8.296,0.731-12.318c0.112-0.397-0.121-0.811-0.52-0.921c-0.398-0.111-0.811,0.121-0.923,0.52
		c-1.077,4.208-1.34,8.585-0.774,12.893c0.157,1.253,0.395,2.494,0.711,3.716c0.387,1.415,1.048,3.294,2.39,3.294h0.021
		c1.787-0.023,2.906-1.792,3.276-2.372c0.653-1.038,1.215-2.13,1.679-3.265c0.448,1.636,1.404,3.087,2.729,4.144
		c0.806,0.631,1.715,1.114,2.687,1.429c-0.097,1.514-0.146,3.261-0.158,4.317c-0.018,1.647,0.775,2.097,1.244,2.219
		c0.386,0.088,0.789,0.043,1.146-0.127c0.169-0.074,0.332-0.164,0.484-0.268c0.194,0.387,0.402,0.771,0.626,1.149
		c0.258,0.438,1.039,1.766,2.395,1.77c1.354,0.004,2.131-1.332,2.389-1.77c0.221-0.375,0.43-0.759,0.627-1.149
		c0.152,0.104,0.314,0.193,0.484,0.268c0.356,0.169,0.76,0.214,1.145,0.126c0.473-0.122,1.26-0.574,1.245-2.219
		c-0.012-1.056-0.062-2.799-0.157-4.311c0.839-0.267,1.633-0.659,2.355-1.163c1.478-1.063,2.566-2.581,3.102-4.321
		c0.457,1.1,1.007,2.158,1.642,3.165c0.368,0.582,1.489,2.35,3.277,2.373h0.023c0.648,0,1.591-0.359,2.386-3.293
		c0.317-1.225,0.555-2.468,0.712-3.724c0.513-4.617,0.522-11.309-2.346-16.969c-0.825-1.688-1.946-3.213-3.312-4.502
		c-0.458-1.773-1.29-3.428-2.441-4.854l0.098-0.203c0.281-0.639,0.611-1.254,0.987-1.842c0.551-0.818,1.232-1.537,2.02-2.132
		c0.353-0.215,0.465-0.675,0.25-1.028c-0.215-0.353-0.674-0.465-1.027-0.25c-0.037,0.022-0.072,0.047-0.104,0.075
		c-0.921,0.692-1.722,1.533-2.368,2.487c-0.36,0.549-0.678,1.125-0.95,1.722c-0.622-0.579-1.3-1.097-2.023-1.544
		c-1.402-0.864-2.943-1.482-4.555-1.826c0.617-1.299,1.487-2.463,2.557-3.423c1.359-1.144,2.952-1.976,4.668-2.437
		c3.106-0.723,6.37-0.318,9.205,1.143c2.57,1.357,4.484,3.691,5.313,6.478c0.352,1.24,0.418,2.544,0.193,3.814
		c-0.109,0.625-0.32,1.228-0.626,1.783c-0.872,1.552-3.156,2.737-6.088,1.684c-0.791-0.259-1.444-0.824-1.813-1.571
		c-0.198-0.432-0.161-0.935,0.098-1.332c0.321-0.334,0.791-0.478,1.244-0.382c0.112,0.013,0.226,0.026,0.336,0.042
		c0.891,0.233,1.838,0.043,2.569-0.516c1.046-0.963,1.41-2.461,0.921-3.796c-0.68-2.085-2.589-3.522-4.781-3.597
		c-0.412-0.023-0.766,0.291-0.79,0.704c-0.023,0.413,0.293,0.767,0.705,0.79l0,0c1.556,0.051,2.92,1.051,3.436,2.519
		c0.295,0.77,0.119,1.642-0.452,2.235c-0.353,0.3-0.703,0.268-1.402,0.175c-0.121-0.017-0.244-0.033-0.367-0.046
		c-0.962-0.157-1.937,0.195-2.575,0.93c-0.587,0.792-0.723,1.832-0.358,2.749c0.496,1.193,1.493,2.107,2.724,2.502
		c0.856,0.31,1.761,0.468,2.672,0.47c0.563,0.004,1.124-0.061,1.672-0.193c1.503-0.334,2.794-1.289,3.555-2.627
		c0.386-0.702,0.651-1.462,0.788-2.25c0.268-1.493,0.193-3.028-0.218-4.488V8554.831z M792.876,8551.35h-0.048
		c-2.287-0.024-4.328,1.433-5.046,3.604c-0.492,1.336-0.129,2.837,0.918,3.801c0.731,0.56,1.679,0.749,2.569,0.517
		c0.11-0.016,0.223-0.03,0.336-0.043c0.453-0.095,0.923,0.049,1.244,0.382c0.261,0.396,0.3,0.899,0.105,1.331
		c-0.368,0.746-1.022,1.313-1.813,1.57c-2.933,1.055-5.211-0.134-6.088-1.684c-0.305-0.557-0.517-1.158-0.627-1.783
		c-0.224-1.27-0.157-2.574,0.194-3.814c0.827-2.785,2.739-5.12,5.308-6.479c1.959-0.996,4.126-1.515,6.323-1.511
		c0.975-0.011,1.944,0.114,2.886,0.368c1.715,0.461,3.308,1.293,4.666,2.437c1.074,0.964,1.945,2.132,2.563,3.436
		c-2.454,0.519-4.726,1.683-6.581,3.37c-0.273-0.602-0.592-1.182-0.955-1.736C798.049,8553.979,795.908,8551.35,792.876,8551.35z
		 M814.215,8595.623c0.025,0.259-0.021,0.519-0.132,0.752c-0.058-0.008-0.114-0.025-0.167-0.05
		c-0.271-0.118-0.497-0.318-0.646-0.573c-0.208-0.356-0.666-0.477-1.023-0.269c-0.138,0.08-0.246,0.202-0.31,0.348
		c-0.297,0.685-0.636,1.35-1.013,1.993c-0.402,0.683-0.775,1.029-1.1,1.03c-0.325,0.001-0.701-0.348-1.104-1.031
		c-0.378-0.644-0.716-1.309-1.014-1.993c-0.112-0.258-0.36-0.432-0.643-0.448h-0.042c-0.266,0-0.511,0.142-0.646,0.371
		c-0.149,0.255-0.376,0.455-0.646,0.573c-0.053,0.024-0.109,0.043-0.167,0.051c-0.112-0.234-0.158-0.494-0.132-0.753
		c0.011-0.976,0.054-2.546,0.138-3.956c1.616,0.186,3.241,0.281,4.868,0.284c1.221,0.017,2.44-0.077,3.644-0.282
		c0.083,1.409,0.128,2.979,0.138,3.953H814.215z M823.329,8573.241c0.574-2.485,0.766-5.044,0.566-7.588
		c0.574,0.776,1.08,1.602,1.509,2.467c2.664,5.322,2.645,11.667,2.16,16.045c-0.138,1.089-0.337,2.168-0.599,3.233
		c-0.512,2.013-0.969,2.4-1.047,2.456c-0.648-0.026-1.304-0.575-2.002-1.677c-1.063-1.701-1.874-3.545-2.41-5.478
		c0.142-3.202,0.751-6.365,1.809-9.392c0.007-0.021,0.013-0.042,0.018-0.063L823.329,8573.241z M817.048,8556.564
		c2.628,1.614,4.462,4.252,5.063,7.276c0.57,2.998,0.489,6.083-0.237,9.048c-0.651,1.931-1.17,3.903-1.55,5.904
		c-0.31,1.836-0.107,3.739-0.475,5.554c-0.314,1.823-1.316,3.458-2.799,4.564c-1.694,1.041-3.652,1.571-5.64,1.526
		c-1.987,0.142-3.983,0.034-5.943-0.317c-1.14-0.237-2.212-0.727-3.137-1.433c-1.319-1.047-2.667-2.721-2.667-7.205
		c0-2.625-1.698-8.07-1.864-8.594c-1.419-6.443-0.534-11.346,2.634-14.578c2.615-2.532,6.159-3.873,9.797-3.707
		C812.637,8554.639,814.99,8555.314,817.048,8556.564L817.048,8556.564z"/>
	
		<linearGradient id="Path_17059_1_" gradientUnits="userSpaceOnUse" x1="507.7869" y1="8930.1865" x2="507.7869" y2="8929.2168" gradientTransform="matrix(7.7875 0 0 -10.2098 -3144.3721 99754.3438)">
		<stop  offset="0.13" style="stop-color:#00A9ED"/>
		<stop  offset="1" style="stop-color:#65106B"/>
	</linearGradient>
	<path id="Path_17059" fill="url(#Path_17059_1_)" d="M813.113,8580.02c-1.436-1.698-3.977-1.912-5.675-0.477
		c-0.172,0.146-0.332,0.305-0.477,0.477c-0.701,0.866-0.89,2.039-0.495,3.08c0.534,1.09,1.611,1.811,2.821,1.886v1.763
		c-0.144-0.108-0.261-0.247-0.343-0.407c-0.175-0.376-0.619-0.539-0.994-0.365c-0.374,0.174-0.537,0.618-0.364,0.993
		c0.008,0.018,0.017,0.033,0.025,0.05c0.676,1.322,2.297,1.847,3.62,1.171c0.562-0.287,1.006-0.765,1.252-1.347
		c0.16-0.38-0.019-0.819-0.398-0.98c-0.381-0.159-0.819,0.019-0.98,0.399l0,0c-0.071,0.17-0.181,0.32-0.321,0.44v-1.719
		c1.212-0.075,2.288-0.796,2.822-1.885C814,8582.058,813.813,8580.886,813.113,8580.02L813.113,8580.02z M812.213,8582.555
		c-1.053,1.202-2.881,1.323-4.083,0.271c-0.096-0.084-0.186-0.175-0.271-0.271c-0.2-0.544-0.097-1.154,0.271-1.602
		c0.922-1.053,2.523-1.157,3.575-0.235c0.084,0.073,0.163,0.151,0.235,0.235C812.31,8581.4,812.414,8582.011,812.213,8582.555z"/>
</g>
</svg>
