<svg id="board" xmlns="http://www.w3.org/2000/svg" width="71.713" height="54.345" viewBox="0 0 71.713 54.345">
  <path id="Path_16844" data-name="Path 16844" d="M70.312,84H16.528v17.088H5.883A5.889,5.889,0,0,0,0,106.971v25.492a5.889,5.889,0,0,0,5.883,5.883H65.83a5.889,5.889,0,0,0,5.883-5.883V106.971a5.889,5.889,0,0,0-5.883-5.883H55.185V84ZM52.384,101.088H48.322a1.4,1.4,0,1,0,0,2.8H65.83a3.085,3.085,0,0,1,3.081,3.081v25.492a3.085,3.085,0,0,1-3.081,3.081H5.883A3.085,3.085,0,0,1,2.8,132.462V106.971a3.085,3.085,0,0,1,3.081-3.081H36.37a1.4,1.4,0,1,0,0-2.8H19.329V84H52.384Zm0,0" transform="translate(0 -84)"/>
  <path id="Path_16845" data-name="Path 16845" d="M269.827,279.7h10.4a4.1,4.1,0,0,0,6.4,5.026l6.227-6.227a4.1,4.1,0,0,0,0-5.8l-6.227-6.227a4.1,4.1,0,0,0-6.4,5.026h-10.4a4.1,4.1,0,1,0,0,8.2Zm0-5.4h13.614a1.4,1.4,0,0,0,.991-2.391l-1.619-1.619a1.3,1.3,0,0,1,1.837-1.837l6.227,6.227a1.3,1.3,0,0,1,0,1.837l-6.227,6.227a1.3,1.3,0,0,1-1.837-1.837l1.619-1.619a1.4,1.4,0,0,0-.991-2.391H269.827a1.3,1.3,0,1,1,0-2.6Zm0,0" transform="translate(-228.508 -239.88)" fill="#147db2"/>
  <path id="Path_16846" data-name="Path 16846" d="M62.3,273H45.4a1.4,1.4,0,1,0,0,2.8H62.3a1.4,1.4,0,1,0,0-2.8Zm0,0" transform="translate(-37.837 -246.528)" fill="#147db2"/>
  <path id="Path_16847" data-name="Path 16847" d="M62.3,329H45.4a1.4,1.4,0,1,0,0,2.8H62.3a1.4,1.4,0,1,0,0-2.8Zm0,0" transform="translate(-37.837 -294.684)" fill="#147db2"/>
  <path id="Path_16848" data-name="Path 16848" d="M62.3,385H45.4a1.4,1.4,0,1,0,0,2.8H62.3a1.4,1.4,0,1,0,0-2.8Zm0,0" transform="translate(-37.837 -342.841)" fill="#147db2"/>
  <path id="Path_16849" data-name="Path 16849" d="M214.069,265.27a1.4,1.4,0,0,0-1.4,1.4v19.863a1.4,1.4,0,0,0,2.8,0V266.671A1.4,1.4,0,0,0,214.069,265.27Zm0,0" transform="translate(-182.881 -239.881)"/>
  <path id="Path_16850" data-name="Path 16850" d="M293.729,208.8a1.4,1.4,0,1,0-.99-.41A1.411,1.411,0,0,0,293.729,208.8Zm0,0" transform="translate(-251.383 -188.912)"/>
</svg>
