<?xml version="1.0" encoding="utf-8"?>
<!-- Generator: Adobe Illustrator 16.0.0, SVG Export Plug-In . SVG Version: 6.00 Build 0)  -->
<!DOCTYPE svg PUBLIC "-//W3C//DTD SVG 1.1//EN" "http://www.w3.org/Graphics/SVG/1.1/DTD/svg11.dtd">
<svg version="1.1" id="Layer_1" xmlns="http://www.w3.org/2000/svg" xmlns:xlink="http://www.w3.org/1999/xlink" x="0px" y="0px"
	 width="73.07px" height="73.109px" viewBox="0 0 73.07 73.109" enable-background="new 0 0 73.07 73.109" xml:space="preserve">
<g id="Group_1900" transform="translate(-588.998 -517.891)">
	<g id="Page-1" transform="translate(588.983 517.89)">
		<g id="_006---Home-Insurance" transform="translate(0.016)">
			
				<linearGradient id="Shape_1_" gradientUnits="userSpaceOnUse" x1="-260.5364" y1="423.6848" x2="-260.5364" y2="422.6848" gradientTransform="matrix(32.8603 0 0 -41.0727 8577.7598 17434.8848)">
				<stop  offset="0.13" style="stop-color:#00A9ED"/>
				<stop  offset="1" style="stop-color:#65106B"/>
			</linearGradient>
			<path id="Shape" fill="url(#Shape_1_)" d="M5.107,48.934c0.645,1.422,1.541,2.716,2.646,3.819l7.511,7.51
				c-0.424,0.448-0.66,1.041-0.662,1.658v9.748c0,1.346,1.091,2.437,2.438,2.437h13.399c1.347,0.005,2.44-1.083,2.445-2.429
				c0-0.002,0-0.003,0-0.005v-9.748c0-1.346-1.091-2.438-2.438-2.438l0,0V57.22c0.037-2.886-0.903-5.698-2.67-7.98
				c-1.036-1.363-2.447-2.393-4.062-2.963c-2.566-1.078-4.926-2.593-6.975-4.477c-1.902-1.572-4.606-1.721-6.669-0.366l-2.63-6.139
				c-0.897-1.95-3.207-2.803-5.156-1.904c-1.906,0.878-2.771,3.11-1.954,5.043L5.107,48.934z M30.442,71.672H17.043v-9.748h13.399
				V71.672z M2.649,36.041c0.265-0.417,0.725-0.668,1.219-0.664c0.58-0.001,1.104,0.345,1.332,0.879l2.725,6.357
				c0.725,1.695,1.767,3.236,3.072,4.538l5.566,5.567c0.46,0.491,1.23,0.518,1.722,0.058s0.518-1.23,0.058-1.722
				c-0.019-0.021-0.039-0.04-0.059-0.059l-5.567-5.567c-0.559-0.559-1.062-1.171-1.5-1.828c1.171-0.901,2.809-0.873,3.948,0.066
				c2.277,2.091,4.909,3.758,7.772,4.923c1.165,0.425,2.182,1.18,2.924,2.173c1.423,1.85,2.178,4.125,2.143,6.458v2.269H17.929
				l-8.454-8.455c-0.897-0.896-1.626-1.946-2.15-3.101l-4.776-10.5C2.338,36.984,2.376,36.456,2.649,36.041L2.649,36.041z"/>
			
				<linearGradient id="Shape-2_1_" gradientUnits="userSpaceOnUse" x1="-197.196" y1="275.179" x2="-197.196" y2="274.1799" gradientTransform="matrix(3.656 0 0 -2.438 747.1645 736.469)">
				<stop  offset="0.13" style="stop-color:#00A9ED"/>
				<stop  offset="1" style="stop-color:#65106B"/>
			</linearGradient>
			<path id="Shape-2" fill="url(#Shape-2_1_)" d="M26.787,65.58h-1.22c-0.673,0.019-1.202,0.58-1.184,1.253
				c0.019,0.646,0.538,1.165,1.184,1.184h1.219c0.673,0.02,1.233-0.511,1.253-1.184s-0.511-1.234-1.184-1.253
				C26.832,65.579,26.808,65.579,26.787,65.58L26.787,65.58z"/>
			
				<linearGradient id="Shape-3_1_" gradientUnits="userSpaceOnUse" x1="-260.5471" y1="423.7112" x2="-260.5471" y2="422.7112" gradientTransform="matrix(32.9063 0 0 -41.1886 8630.3057 17484.9609)">
				<stop  offset="0.13" style="stop-color:#00A9ED"/>
				<stop  offset="1" style="stop-color:#65106B"/>
			</linearGradient>
			<path id="Shape-3" fill="url(#Shape-3_1_)" d="M49.358,46.276c-1.613,0.569-3.025,1.598-4.062,2.958
				c-1.766,2.283-2.707,5.096-2.67,7.981v2.268c-1.346,0-2.438,1.092-2.438,2.438c0,0.001,0,0.003,0,0.004v9.748
				c0,1.346,1.092,2.437,2.438,2.437h13.399c1.347,0,2.438-1.091,2.438-2.437v-9.748c-0.002-0.617-0.238-1.21-0.662-1.658
				l7.511-7.51c1.106-1.104,2.004-2.399,2.649-3.822l4.775-10.5c0.899-1.948,0.049-4.256-1.899-5.155
				c-1.948-0.898-4.257-0.048-5.155,1.9c-0.018,0.039-0.035,0.078-0.052,0.117l-2.63,6.138c-2.062-1.354-4.766-1.206-6.666,0.366
				C54.285,43.683,51.925,45.198,49.358,46.276z M56.029,71.676H42.63v-9.752h13.399V71.676z M61.849,43.604
				c-0.438,0.657-0.94,1.27-1.5,1.828l-5.566,5.567c-0.477,0.476-0.477,1.247,0,1.723c0.476,0.476,1.247,0.476,1.723,0l5.567-5.566
				c1.305-1.303,2.348-2.844,3.071-4.539l2.727-6.358c0.302-0.741,1.147-1.097,1.889-0.795s1.097,1.147,0.795,1.889
				c-0.011,0.025-0.021,0.051-0.034,0.076l-4.776,10.506c-0.526,1.154-1.256,2.205-2.154,3.101l-8.45,8.452H45.063V57.22
				c-0.037-2.332,0.717-4.608,2.138-6.458c0.742-0.993,1.759-1.748,2.924-2.173c2.863-1.165,5.496-2.833,7.773-4.923
				c1.141-0.941,2.78-0.968,3.951-0.065V43.604z"/>
			
				<linearGradient id="Shape-4_1_" gradientUnits="userSpaceOnUse" x1="-197.196" y1="275.179" x2="-197.196" y2="274.179" gradientTransform="matrix(3.656 0 0 -2.438 767.809 736.469)">
				<stop  offset="0.13" style="stop-color:#00A9ED"/>
				<stop  offset="1" style="stop-color:#65106B"/>
			</linearGradient>
			<path id="Shape-4" fill="url(#Shape-4_1_)" d="M47.501,65.58h-1.219c-0.674-0.02-1.234,0.511-1.254,1.184
				s0.511,1.233,1.184,1.253c0.023,0.001,0.047,0.001,0.07,0H47.5c0.673-0.02,1.202-0.58,1.184-1.253
				C48.665,66.117,48.145,65.599,47.501,65.58L47.501,65.58z"/>
			
				<linearGradient id="Shape-5_1_" gradientUnits="userSpaceOnUse" x1="-262.1765" y1="423.7649" x2="-262.1765" y2="422.7649" gradientTransform="matrix(41.429 0 0 -41.4288 10898.2539 17557.0488)">
				<stop  offset="0.13" style="stop-color:#00A9ED"/>
				<stop  offset="1" style="stop-color:#65106B"/>
			</linearGradient>
			<path id="Shape-5" fill="url(#Shape-5_1_)" d="M16.494,24.031c0.414,0.204,0.908,0.156,1.275-0.122l1.706-1.279v17.363
				c0,1.346,1.091,2.437,2.438,2.437l0,0h29.242c1.347,0,2.438-1.091,2.438-2.437l0,0V22.628l1.706,1.279
				c0.539,0.403,1.303,0.294,1.706-0.245c0.158-0.211,0.244-0.467,0.244-0.73V16.84c0-0.384-0.181-0.745-0.487-0.975L37.264,1.244
				c-0.433-0.325-1.028-0.325-1.462,0l-9.017,6.762V5.874c0-1.346-1.092-2.438-2.438-2.438l0,0h-2.437
				c-1.347,0-2.438,1.092-2.438,2.438l0,0v7.616l-3.168,2.376C16,16.096,15.82,16.457,15.819,16.84v6.092
				c-0.004,0.466,0.258,0.893,0.675,1.101V24.031z M51.155,39.992c-6.134,0.137-7.584,0.137-29.243,0V20.8L36.534,9.834L51.155,20.8
				V39.992z M21.912,5.874h2.437v3.96l-2.437,1.828V5.874z M18.257,17.45L36.534,3.742L54.811,17.45v3.05L37.264,7.336
				c-0.433-0.325-1.028-0.325-1.462,0L18.257,20.5V17.45z"/>
		</g>
	</g>
	
		<linearGradient id="Subtraction_26_1_" gradientUnits="userSpaceOnUse" x1="340.5764" y1="926.8903" x2="340.5764" y2="925.8903" gradientTransform="matrix(13 0 0 -16 -3801.9885 15372.2373)">
		<stop  offset="0.13" style="stop-color:#00A9ED"/>
		<stop  offset="1" style="stop-color:#65106B"/>
	</linearGradient>
	<path id="Subtraction_26" fill="url(#Subtraction_26_1_)" d="M621,558h-2v-16h13v16h-2v-14h-9V558z"/>
</g>
</svg>
