<?xml version="1.0" encoding="utf-8"?>
<!-- Generator: Adobe Illustrator 16.0.0, SVG Export Plug-In . SVG Version: 6.00 Build 0)  -->
<!DOCTYPE svg PUBLIC "-//W3C//DTD SVG 1.1//EN" "http://www.w3.org/Graphics/SVG/1.1/DTD/svg11.dtd">
<svg version="1.1" id="Layer_1" xmlns="http://www.w3.org/2000/svg" xmlns:xlink="http://www.w3.org/1999/xlink" x="0px" y="0px"
	 width="66.697px" height="72.371px" viewBox="0 0 66.697 72.371" enable-background="new 0 0 66.697 72.371" xml:space="preserve">
<g id="XMLID_993_" transform="translate(-18.031)">
	
		<linearGradient id="XMLID_2_" gradientUnits="userSpaceOnUse" x1="-244.877" y1="423.8877" x2="-244.877" y2="422.8877" gradientTransform="matrix(30.1672 0 0 -43.6759 7439.4971 18526.3027)">
		<stop  offset="0.13" style="stop-color:#00A9ED"/>
		<stop  offset="1" style="stop-color:#65106B"/>
	</linearGradient>
	<path id="XMLID_1032_" fill="url(#XMLID_2_)" d="M65.04,28.58c-0.334-0.129-0.707-0.095-1.012,0.093l-3.801,2.341
		c-0.5-4.124-2.379-13.86-9.163-18.165c-0.47-0.297-1.085-0.213-1.458,0.2c-2.477,2.845-4.69,5.909-6.613,9.154
		c-4.327,7.267-6.264,13.874-5.757,19.635c0.547,6.225,3.53,10.9,8.4,13.158c1.943,0.896,4.06,1.357,6.2,1.352
		c3.327-0.016,6.565-1.059,9.278-2.982c3.568-2.512,8.91-8.971,4.609-24.03C65.627,28.99,65.374,28.71,65.04,28.58z M53.997,43.23
		c0.42,0.215,0.93,0.148,1.281-0.166l3.871-3.465c1.684,7.607-0.965,10.852-2.791,12.137c-2.451,1.762-5.645,2.109-8.417,0.918
		c-2.6-1.209-4.2-3.77-4.5-7.207c-0.6-6.846,5.068-14.469,7.072-16.927c3.177,3.07,3.173,10.693,2.871,13.572
		c-0.051,0.469,0.193,0.922,0.613,1.137V43.23z M59.84,51.465c1.832-2.51,3.166-6.881,1.049-14.287
		c-0.174-0.606-0.805-0.958-1.412-0.784c-0.166,0.047-0.318,0.132-0.447,0.248l-3.242,2.9c0.025-3.922-0.568-10.862-4.827-13.564
		c-0.47-0.297-1.085-0.213-1.458,0.2c-0.374,0.413-9.153,10.214-8.339,19.472c0.086,1.035,0.29,2.057,0.607,3.047
		c-1.314-2.135-2.089-4.559-2.258-7.061c-0.965-10.976,8.526-23.171,11.136-26.299c6.785,5.184,7.467,17.539,7.473,17.667
		c0.029,0.63,0.564,1.117,1.195,1.086c0.193-0.009,0.381-0.067,0.545-0.168l4.061-2.5c3.176,12.589-1.121,17.94-4.08,20.044H59.84z"
		/>
	
		<linearGradient id="XMLID_3_" gradientUnits="userSpaceOnUse" x1="-249.6665" y1="427.377" x2="-249.6665" y2="426.377" gradientTransform="matrix(66.7022 0 0 -72.3739 16704.6563 30930.8867)">
		<stop  offset="0.13" style="stop-color:#00A9ED"/>
		<stop  offset="1" style="stop-color:#65106B"/>
	</linearGradient>
	<path id="XMLID_1434_" fill="url(#XMLID_3_)" d="M83.59,16.826c-6.725,0-14.574-3.139-14.574-11.987
		c0-0.412-0.223-0.792-0.582-0.995C65.141,1.986,58.932,0,51.383,0c-7.55,0-13.758,1.986-17.052,3.845
		C33.972,4.047,33.75,4.428,33.75,4.84c0,8.847-7.851,11.987-14.574,11.987c-0.631,0-1.142,0.511-1.142,1.142l0,0
		c-0.091,8.79,1.656,17.501,5.129,25.574c2.744,6.217,6.57,11.896,11.3,16.775c4.696,4.984,10.287,9.043,16.48,11.965
		c0.285,0.121,0.607,0.121,0.893,0c6.188-3,11.772-7.113,16.475-12.131c4.715-4.896,8.535-10.58,11.289-16.793
		c3.465-8.013,5.213-16.662,5.129-25.392C84.729,17.338,84.219,16.827,83.59,16.826z M66.729,58.5
		c-4.426,4.672-9.619,8.553-15.354,11.473c-5.708-2.828-10.877-6.633-15.275-11.24c-7.066-7.318-15.465-20.1-15.774-39.646
		c3.83-0.05,7.55-1.284,10.65-3.533c3.123-2.397,4.98-6.088,5.045-10.024c4.811-2.226,10.062-3.335,15.362-3.245
		c5.299-0.09,10.551,1.019,15.362,3.245c0.064,3.936,1.922,7.626,5.043,10.023c3.102,2.249,6.822,3.483,10.65,3.533
		C82.125,38.371,73.764,51.141,66.729,58.5z"/>
</g>
</svg>
