<?xml version="1.0" encoding="utf-8"?>
<!-- Generator: Adobe Illustrator 16.0.0, SVG Export Plug-In . SVG Version: 6.00 Build 0)  -->
<!DOCTYPE svg PUBLIC "-//W3C//DTD SVG 1.1//EN" "http://www.w3.org/Graphics/SVG/1.1/DTD/svg11.dtd">
<svg version="1.1" id="Layer_1" xmlns="http://www.w3.org/2000/svg" xmlns:xlink="http://www.w3.org/1999/xlink" x="0px" y="0px"
	 width="73px" height="63.268px" viewBox="0 0 73 63.268" enable-background="new 0 0 73 63.268" xml:space="preserve">
<g id="tractor" transform="translate(-0.967 -0.006)">
	<g id="Group_1978" transform="translate(1.001 0.005)">
		<g id="Group_1977">
			
				<linearGradient id="Path_16755_1_" gradientUnits="userSpaceOnUse" x1="-252.0565" y1="267.9783" x2="-252.0565" y2="266.9783" gradientTransform="matrix(15.817 0 0 -2.434 4051.8464 714.0948)">
				<stop  offset="0.13" style="stop-color:#00A9ED"/>
				<stop  offset="1" style="stop-color:#65106B"/>
			</linearGradient>
			<path id="Path_16755" fill="url(#Path_16755_1_)" d="M71.785,61.833H58.402c-0.672-0.019-1.232,0.51-1.252,1.182
				s0.51,1.232,1.182,1.252c0.023,0,0.047,0,0.07,0h13.383c0.672-0.02,1.201-0.58,1.182-1.252
				C72.947,62.37,72.429,61.851,71.785,61.833z"/>
			
				<linearGradient id="Path_16757_1_" gradientUnits="userSpaceOnUse" x1="-263.7737" y1="267.9773" x2="-263.7737" y2="266.9773" gradientTransform="matrix(54.75 0 0 -2.434 14468.957 714.0948)">
				<stop  offset="0.13" style="stop-color:#00A9ED"/>
				<stop  offset="1" style="stop-color:#65106B"/>
			</linearGradient>
			<path id="Path_16757" fill="url(#Path_16757_1_)" d="M53.535,61.833H1.218c-0.672-0.019-1.232,0.51-1.251,1.182
				s0.51,1.232,1.182,1.252c0.023,0,0.046,0,0.069,0h52.317c0.672-0.02,1.201-0.58,1.182-1.252
				C54.697,62.37,54.179,61.851,53.535,61.833z"/>
			
				<linearGradient id="Path_16762_1_" gradientUnits="userSpaceOnUse" x1="-250.6839" y1="401.4334" x2="-250.6839" y2="400.4334" gradientTransform="matrix(14.6 0 0 -14.6 3677.0215 5896.0024)">
				<stop  offset="0.13" style="stop-color:#00A9ED"/>
				<stop  offset="1" style="stop-color:#65106B"/>
			</linearGradient>
			<path id="Path_16762" fill="url(#Path_16762_1_)" d="M17.035,35.067c-4.032,0-7.3,3.269-7.3,7.3s3.268,7.3,7.3,7.3
				s7.3-3.269,7.3-7.3S21.067,35.067,17.035,35.067L17.035,35.067z M17.035,47.234c-2.688,0-4.867-2.18-4.867-4.867
				s2.179-4.867,4.867-4.867s4.867,2.18,4.867,4.867S19.723,47.234,17.035,47.234L17.035,47.234z"/>
			
				<linearGradient id="Path_16763_1_" gradientUnits="userSpaceOnUse" x1="-264.9647" y1="419.9207" x2="-264.9647" y2="418.9207" gradientTransform="matrix(73.0351 0 0 -47.4525 19388.2402 19938.1875)">
				<stop  offset="0.13" style="stop-color:#00A9ED"/>
				<stop  offset="1" style="stop-color:#65106B"/>
			</linearGradient>
			<path id="Path_16763" fill="url(#Path_16763_1_)" d="M71.785,56.967h-1.352c3.361-3.272,3.432-8.65,0.158-12.011
				c-0.379-0.39-0.795-0.741-1.24-1.051v-17.36c0-1.344-1.09-2.433-2.434-2.433h-7.299V13.167c0-0.672-0.545-1.217-1.217-1.217
				c-0.002,0-0.002,0-0.002,0h-3.65c-0.672,0.02-1.201,0.579-1.182,1.251c0.018,0.646,0.537,1.163,1.182,1.182h2.432v9.733H41.369
				c-0.672,0-1.217,0.545-1.217,1.217l0,0v3.65h-4.624c-2.764-4.113-7.015-6.995-11.859-8.038l-1.151-5.219
				c-0.127-0.66-0.765-1.093-1.425-0.966c-0.66,0.127-1.093,0.765-0.966,1.425c0.004,0.021,0.009,0.043,0.014,0.064l0.945,4.286
				c-0.539-0.045-1.078-0.071-1.619-0.071h-6.084c-0.672-0.019-1.232,0.51-1.251,1.182c-0.019,0.672,0.51,1.232,1.182,1.252
				c0.023,0,0.046,0,0.07,0h2.433v2.5c-9.366,0.649-16.433,8.77-15.782,18.136c0.386,5.563,3.477,10.585,8.27,13.435H1.218
				c-0.672-0.019-1.232,0.51-1.251,1.182c-0.019,0.672,0.51,1.232,1.182,1.252c0.023,0.001,0.046,0.001,0.07,0h70.567
				c0.672-0.02,1.201-0.58,1.182-1.252c-0.02-0.645-0.537-1.163-1.182-1.182V56.967z M18.251,22.9h1.217
				c9.403,0.008,17.024,7.63,17.031,17.033c-0.02,0.672,0.51,1.231,1.182,1.251s1.232-0.51,1.25-1.182
				c0.002-0.023,0.002-0.047,0-0.069c0-2.952-0.674-5.865-1.972-8.518h26.308c0.672,0.02,1.232-0.51,1.252-1.182
				s-0.51-1.231-1.182-1.251c-0.023-0.001-0.047-0.001-0.07,0H42.584v-2.438h24.334v16.183c-2.285-0.691-4.756-0.382-6.799,0.852
				H34.006c0.029-0.399,0.062-0.805,0.062-1.217c-0.017-8.925-6.916-16.324-15.817-16.966V22.9z M2.434,42.367
				c0-8.063,6.537-14.6,14.6-14.6c8.063,0,14.6,6.536,14.6,14.6s-6.537,14.6-14.6,14.6l0,0C8.971,56.967,2.434,50.43,2.434,42.367z
				 M25.762,56.967c4.027-2.408,6.884-6.369,7.9-10.949h23.848c-2.391,3.407-1.955,8.047,1.029,10.949H25.762L25.762,56.967z
				 M64.484,56.967c-3.359,0-6.082-2.723-6.082-6.083c0-3.359,2.723-6.083,6.082-6.083s6.084,2.724,6.084,6.083l0,0
				C70.568,54.244,67.843,56.967,64.484,56.967z"/>
			
				<linearGradient id="Path_16764_1_" gradientUnits="userSpaceOnUse" x1="-232.8353" y1="374.7342" x2="-232.8353" y2="373.7342" gradientTransform="matrix(7.3 0 0 -7.3 1764.178 2782.7866)">
				<stop  offset="0.13" style="stop-color:#00A9ED"/>
				<stop  offset="1" style="stop-color:#65106B"/>
			</linearGradient>
			<path id="Path_16764" fill="url(#Path_16764_1_)" d="M64.486,47.233c-2.018,0-3.65,1.634-3.65,3.649
				c0,2.017,1.633,3.65,3.65,3.65c2.016,0,3.648-1.634,3.648-3.65l0,0C68.134,48.867,66.502,47.233,64.486,47.233z M64.486,52.1
				c-0.674,0-1.219-0.545-1.217-1.218c0-0.672,0.543-1.217,1.217-1.217c0.672,0,1.217,0.545,1.217,1.217
				C65.703,51.555,65.158,52.1,64.486,52.1L64.486,52.1z"/>
			
				<linearGradient id="Path_16765_1_" gradientUnits="userSpaceOnUse" x1="-249.0618" y1="267.9763" x2="-249.0618" y2="266.9763" gradientTransform="matrix(13.384 0 0 -2.434 3386.4246 686.1061)">
				<stop  offset="0.13" style="stop-color:#00A9ED"/>
				<stop  offset="1" style="stop-color:#65106B"/>
			</linearGradient>
			<path id="Path_16765" fill="url(#Path_16765_1_)" d="M47.453,36.283h10.949c0.672,0.02,1.232-0.51,1.252-1.182
				s-0.51-1.232-1.182-1.251c-0.023-0.001-0.047-0.001-0.07,0H47.453c-0.672,0.019-1.201,0.579-1.182,1.251
				C46.289,35.746,46.808,36.264,47.453,36.283z"/>
			
				<linearGradient id="Path_16766_1_" gradientUnits="userSpaceOnUse" x1="-249.0618" y1="267.9773" x2="-249.0618" y2="266.9773" gradientTransform="matrix(13.384 0 0 -2.434 3386.418 690.9777)">
				<stop  offset="0.13" style="stop-color:#00A9ED"/>
				<stop  offset="1" style="stop-color:#65106B"/>
			</linearGradient>
			<path id="Path_16766" fill="url(#Path_16766_1_)" d="M47.453,41.15h10.949c0.672,0.019,1.232-0.51,1.252-1.182
				s-0.51-1.232-1.182-1.252c-0.023,0-0.047,0-0.07,0H47.453c-0.672,0.02-1.201,0.58-1.182,1.252
				C46.289,40.613,46.808,41.132,47.453,41.15z"/>
			
				<linearGradient id="Path_16767_1_" gradientUnits="userSpaceOnUse" x1="-253.2244" y1="401.4275" x2="-253.2244" y2="400.4275" gradientTransform="matrix(17.023 0 0 -14.596 4355.6553 5860.2256)">
				<stop  offset="0.13" style="stop-color:#00A9ED"/>
				<stop  offset="1" style="stop-color:#65106B"/>
			</linearGradient>
			<path id="Path_16767" fill="url(#Path_16767_1_)" d="M39.047,10.368c-0.074,0.319-0.111,0.646-0.111,0.973
				c0,2.352,1.908,4.258,4.26,4.257c1.467,0,2.832-0.757,3.609-2.001c0.723,0.513,1.586,0.788,2.473,0.786
				c0.672-0.019,1.199-0.579,1.182-1.251c-0.02-0.645-0.537-1.163-1.182-1.182c-0.885,0.006-1.643-0.624-1.801-1.493
				c-0.1-0.699-0.746-1.186-1.445-1.087c-0.699,0.1-1.186,0.746-1.088,1.446c0.008,0.053,0.02,0.105,0.033,0.158
				c0.027,0.12,0.041,0.243,0.041,0.366c-0.002,1.009-0.82,1.824-1.828,1.822c-1.006-0.002-1.82-0.816-1.822-1.822
				c0.002-0.396,0.129-0.781,0.365-1.1c0.398-0.541,0.283-1.303-0.258-1.702c-0.207-0.152-0.457-0.235-0.715-0.237
				c-1.008,0-1.826-0.816-1.826-1.824s0.818-1.825,1.826-1.825l0,0c0.32-0.003,0.635,0.081,0.91,0.243
				c0.527,0.313,1.207,0.185,1.582-0.301c0.57-0.732,1.445-1.161,2.373-1.16c1.68-0.001,3.043,1.36,3.043,3.04c0,0,0,0.001,0,0.002
				c0.004,0.132-0.008,0.264-0.033,0.393c-0.145,0.656,0.27,1.306,0.926,1.451c0.016,0.004,0.031,0.007,0.047,0.01
				c0.869,0.158,1.498,0.917,1.492,1.8c-0.018,0.672,0.512,1.232,1.184,1.252c0.672,0.019,1.23-0.511,1.25-1.183
				c0.002-0.022,0.002-0.046,0-0.069c0.002-1.646-0.945-3.146-2.434-3.853c-0.105-3.019-2.639-5.379-5.656-5.272
				c-1.279,0.046-2.5,0.537-3.453,1.391c-0.4-0.119-0.814-0.179-1.23-0.179c-2.352,0.006-4.254,1.916-4.249,4.268
				C36.514,8.167,37.508,9.688,39.047,10.368L39.047,10.368z"/>
		</g>
	</g>
</g>
</svg>
