<?xml version="1.0" encoding="utf-8"?>
<!-- Generator: Adobe Illustrator 16.0.0, SVG Export Plug-In . SVG Version: 6.00 Build 0)  -->
<!DOCTYPE svg PUBLIC "-//W3C//DTD SVG 1.1//EN" "http://www.w3.org/Graphics/SVG/1.1/DTD/svg11.dtd">
<svg version="1.1" id="Layer_1" xmlns="http://www.w3.org/2000/svg" xmlns:xlink="http://www.w3.org/1999/xlink" x="0px" y="0px"
	 width="64.632px" height="78.693px" viewBox="0 0 64.632 78.693" enable-background="new 0 0 64.632 78.693" xml:space="preserve">
<g id="Group_2057" transform="translate(-682.964 -3930.512)">
	<g id="family" transform="matrix(0.857, -0.515, 0.515, 0.857, 682.973, 3955.012)">
		<g id="Group_1982">
			<g id="Group_1981">
				
					<linearGradient id="Path_16773_1_" gradientUnits="userSpaceOnUse" x1="-437.4901" y1="199.7479" x2="-437.4901" y2="198.7479" gradientTransform="matrix(40.7741 15.8838 24.5026 -26.4319 12967.252 12223.7773)">
					<stop  offset="0.13" style="stop-color:#00A9ED"/>
					<stop  offset="1" style="stop-color:#65106B"/>
				</linearGradient>
				<path id="Path_16773" fill="url(#Path_16773_1_)" d="M39.998,0.056c-2.267-1.72-4.834-3.001-7.571-3.778
					c-2.977-0.854-6.061-1.276-9.157-1.253c-3.097-0.023-6.181,0.399-9.158,1.253c-2.736,0.776-5.304,2.058-7.57,3.777
					C1.919,3.649-0.703,9.239-0.511,15.09l0,1.858c0,0.514,0.416,0.93,0.929,0.929c0.513,0.001,0.929-0.416,0.929-0.929l0-0.929
					l5.574,0l0,0.929c0,0.513,0.416,0.929,0.929,0.929c0.513,0,0.929-0.416,0.929-0.929l0-0.929l5.945,0l0,0.929
					c0,0.513,0.416,0.929,0.93,0.928c0.512,0,0.928-0.416,0.928-0.929l0-0.929l5.759,0l0,8.918
					c-0.001,0.513,0.416,0.929,0.928,0.929c0.514,0.001,0.931-0.415,0.929-0.929c0,0,0,0,0.001-0.001l0-8.918l5.76,0.001l0,0.929
					c-0.001,0.513,0.415,0.929,0.928,0.929c0.513,0,0.929-0.416,0.929-0.929l0-0.929l5.944,0l0,0.929
					c0.001,0.514,0.417,0.93,0.93,0.93s0.929-0.416,0.929-0.929l0-0.929l5.57-0.001l0,0.929c0,0.513,0.417,0.93,0.93,0.929
					c0.513,0,0.929-0.416,0.928-0.93l0-1.858C47.239,9.239,44.618,3.65,39.998,0.056z M8.48,6.436
					c-0.951,2.468-1.473,5.081-1.543,7.725l-5.57,0C1.726,6.099,6.789,0.254,14.95-2.038c-0.899,0.653-1.735,1.387-2.5,2.194
					c-0.828,0.873-1.571,1.824-2.217,2.839C9.54,4.083,8.953,5.236,8.48,6.436z M14.739,14.161l-5.942,0
					c0.029-4.718,1.811-9.256,5-12.733c1.906-2.045,4.348-3.514,7.048-4.238c-0.804,0.986-1.532,2.03-2.18,3.125
					C16.202,4.523,14.85,9.288,14.739,14.161z M16.597,14.162L16.597,14.162c0.11-4.513,1.355-8.924,3.62-12.828
					c0.858-1.473,1.882-2.843,3.051-4.084c4.211,4.636,6.584,10.65,6.675,16.912L16.597,14.162z M39.598,14.162
					c-0.046-1.455-0.221-2.905-0.522-4.33c-0.107-0.501-0.601-0.821-1.103-0.713c-0.502,0.108-0.822,0.602-0.713,1.104l0,0
					c0.274,1.297,0.434,2.615,0.479,3.939l-5.939,0c-0.11-4.873-1.46-9.638-3.923-13.846c-0.647-1.094-1.375-2.138-2.178-3.123
					c1.207,0.302,2.366,0.771,3.443,1.393c2.182,1.268,4.039,3.025,5.425,5.134c0.284,0.428,0.861,0.544,1.288,0.26
					c0.428-0.283,0.544-0.86,0.26-1.288l0,0c-0.805-1.214-1.749-2.329-2.812-3.324c-0.541-0.506-1.114-0.978-1.714-1.412
					c8.163,2.3,13.227,8.142,13.588,16.207L39.598,14.162z"/>
			</g>
		</g>
		<g id="Group_1984" transform="translate(36.658 10.528)">
			<g id="Group_1983">
				
					<linearGradient id="Path_16774_1_" gradientUnits="userSpaceOnUse" x1="-341.5912" y1="-1.1332" x2="-341.5912" y2="-2.1342" gradientTransform="matrix(1.5944 0.9582 0.9581 -1.5944 546.1271 320.5156)">
					<stop  offset="0.13" style="stop-color:#00A9ED"/>
					<stop  offset="1" style="stop-color:#65106B"/>
				</linearGradient>
				<path id="Path_16774" fill="url(#Path_16774_1_)" d="M1.277-4.399C1.079-4.874,0.534-5.098,0.06-4.901
					c-0.474,0.198-0.697,0.743-0.501,1.216c0.198,0.475,0.742,0.699,1.217,0.501c0.226-0.095,0.407-0.275,0.502-0.501
					C1.372-3.913,1.372-4.171,1.277-4.399z"/>
			</g>
		</g>
	</g>
	<g id="storm" transform="translate(699.753 3961.793)">
		<g id="SVGCleanerId_0">
			<g id="Group_2040">
				
					<linearGradient id="Path_16945_1_" gradientUnits="userSpaceOnUse" x1="-284.0014" y1="390.9927" x2="-284.0014" y2="389.9927" gradientTransform="matrix(47.8486 0 0 -27.7824 13610.0059 10858.7031)">
					<stop  offset="0.13" style="stop-color:#00A9ED"/>
					<stop  offset="1" style="stop-color:#65106B"/>
				</linearGradient>
				<path id="Path_16945" fill="url(#Path_16945_1_)" d="M41.574,12.162c0.123-0.75,0.188-1.51,0.188-2.27
					C41.767,2.225,35.556-3.995,27.89-4c-5.014-0.003-9.639,2.697-12.102,7.063C10.736,0.788,4.796,3.038,2.521,8.089
					c-0.503,1.12-0.798,2.321-0.869,3.545c-3.303,0.836-5.301,4.191-4.465,7.494c0.694,2.738,3.158,4.654,5.982,4.654h35.5
					c3.408,0.004,6.174-2.758,6.176-6.166c0.002-2.285-1.258-4.383-3.275-5.455H41.574z M38.673,22.24H3.178
					c-2.556,0.008-4.635-2.057-4.643-4.613c-0.008-2.313,1.694-4.277,3.984-4.6l0.659-0.15v-0.668
					c0.003-4.69,3.807-8.49,8.497-8.486c1.425,0,2.827,0.36,4.077,1.045l0.706,0.386l0.359-0.725
					c3.023-6.109,10.428-8.609,16.535-5.585c5.045,2.497,7.762,8.091,6.604,13.6l-0.133,0.631l0.594,0.244
					c1.752,0.699,2.898,2.396,2.893,4.283C43.304,20.16,41.232,22.234,38.673,22.24L38.673,22.24z"/>
			</g>
		</g>
		<g id="Group_2042">
			<g id="Group_2041">
				
					<linearGradient id="Path_16946_1_" gradientUnits="userSpaceOnUse" x1="-284.0014" y1="390.9927" x2="-284.0014" y2="389.9927" gradientTransform="matrix(47.8486 0 0 -27.7824 13610.0059 10858.7031)">
					<stop  offset="0.13" style="stop-color:#00A9ED"/>
					<stop  offset="1" style="stop-color:#65106B"/>
				</linearGradient>
				<path id="Path_16946" fill="url(#Path_16946_1_)" d="M41.574,12.162c0.123-0.75,0.188-1.51,0.188-2.27
					C41.767,2.225,35.556-3.995,27.89-4c-5.014-0.003-9.639,2.697-12.102,7.063C10.736,0.788,4.796,3.038,2.521,8.089
					c-0.503,1.12-0.798,2.321-0.869,3.545c-3.303,0.836-5.301,4.191-4.465,7.494c0.694,2.738,3.158,4.654,5.982,4.654h35.5
					c3.408,0.004,6.174-2.758,6.176-6.166c0.002-2.285-1.258-4.383-3.275-5.455H41.574z M38.673,22.24H3.178
					c-2.556,0.008-4.635-2.057-4.643-4.613c-0.008-2.313,1.694-4.277,3.984-4.6l0.659-0.15v-0.668
					c0.003-4.69,3.807-8.49,8.497-8.486c1.425,0,2.827,0.36,4.077,1.045l0.706,0.386l0.359-0.725
					c3.023-6.109,10.428-8.609,16.535-5.585c5.045,2.497,7.762,8.091,6.604,13.6l-0.133,0.631l0.594,0.244
					c1.752,0.699,2.898,2.396,2.893,4.283C43.304,20.16,41.232,22.234,38.673,22.24L38.673,22.24z"/>
			</g>
		</g>
		<g id="Group_2044" transform="translate(31.644 3.861)">
			<g id="Group_2043">
				
					<linearGradient id="Path_16947_1_" gradientUnits="userSpaceOnUse" x1="-292.8407" y1="360.0106" x2="-292.8407" y2="359.0106" gradientTransform="matrix(9.258 0 0 -9.267 2712.7554 3332.2195)">
					<stop  offset="0.13" style="stop-color:#00A9ED"/>
					<stop  offset="1" style="stop-color:#65106B"/>
				</linearGradient>
				<path id="Path_16947" fill="url(#Path_16947_1_)" d="M-3-4v1.554C1.258-2.44,4.707,1.01,4.713,5.267h1.545
					C6.252,0.155,2.113-3.989-3-4z"/>
			</g>
		</g>
		<g id="Group_2046" transform="translate(15.615 29.327)">
			<g id="Group_2045">
				
					<linearGradient id="Path_16948_1_" gradientUnits="userSpaceOnUse" x1="-290.0832" y1="354.3961" x2="-290.0832" y2="353.3961" gradientTransform="matrix(17.447 0 0 -18.092 5066.8188 6407.708)">
					<stop  offset="0.13" style="stop-color:#00A9ED"/>
					<stop  offset="1" style="stop-color:#65106B"/>
				</linearGradient>
				<path id="Path_16948" fill="url(#Path_16948_1_)" d="M14.451,0.635H6.752L9.84-3.999H2.56l-5.556,9.258h6.14l-5.52,8.834
					L14.451,0.635z M-0.278,3.723l3.711-6.178h3.521L3.867,2.18h6.186L3.734,7.237l2.193-3.514H-0.278z"/>
			</g>
		</g>
		<g id="Group_2048" transform="translate(5.462 30.57)">
			<g id="Group_2047">
				
					<linearGradient id="Path_16949_1_" gradientUnits="userSpaceOnUse" x1="-224.9204" y1="311.2693" x2="-224.9204" y2="310.2693" gradientTransform="matrix(3.739 0 0 -6.012 839.8479 1867.3481)">
					<stop  offset="0.13" style="stop-color:#00A9ED"/>
					<stop  offset="1" style="stop-color:#65106B"/>
				</linearGradient>
				<path id="Path_16949" fill="url(#Path_16949_1_)" d="M-0.683-3.998L-3,1.4l1.422,0.613l2.317-5.406L-0.683-3.998z"/>
			</g>
		</g>
		<g id="Group_2050" transform="translate(39.413 30.57)">
			<g id="Group_2049">
				
					<linearGradient id="Path_16950_1_" gradientUnits="userSpaceOnUse" x1="-258.8714" y1="311.2693" x2="-258.8714" y2="310.2693" gradientTransform="matrix(3.739 0 0 -6.012 966.7845 1867.3481)">
					<stop  offset="0.13" style="stop-color:#00A9ED"/>
					<stop  offset="1" style="stop-color:#65106B"/>
				</linearGradient>
				<path id="Path_16950" fill="url(#Path_16950_1_)" d="M-0.683-3.998L-2.999,1.4l1.422,0.613l2.316-5.406L-0.683-3.998z"/>
			</g>
		</g>
		<g id="Group_2052" transform="translate(8.937 38.283)">
			<g id="Group_2051">
				
					<linearGradient id="Path_16951_1_" gradientUnits="userSpaceOnUse" x1="-228.227" y1="303.4939" x2="-228.227" y2="302.4939" gradientTransform="matrix(3.73 0 0 -6.006 850.1524 1818.7863)">
					<stop  offset="0.13" style="stop-color:#00A9ED"/>
					<stop  offset="1" style="stop-color:#65106B"/>
				</linearGradient>
				<path id="Path_16951" fill="url(#Path_16951_1_)" d="M-0.683-3.998L-3,1.406l1.413,0.602l2.317-5.4L-0.683-3.998z"/>
			</g>
		</g>
		<g id="Group_2054" transform="translate(32.086 38.283)">
			<g id="Group_2053">
				
					<linearGradient id="Path_16952_1_" gradientUnits="userSpaceOnUse" x1="-251.3569" y1="303.4939" x2="-251.3569" y2="302.4939" gradientTransform="matrix(3.729 0 0 -6.006 936.1749 1818.7863)">
					<stop  offset="0.13" style="stop-color:#00A9ED"/>
					<stop  offset="1" style="stop-color:#65106B"/>
				</linearGradient>
				<path id="Path_16952" fill="url(#Path_16952_1_)" d="M-0.682-3.998L-3,1.406l1.422,0.602l2.309-5.4L-0.682-3.998z"/>
			</g>
		</g>
		<g id="Group_2056" transform="translate(42.502 38.283)">
			<g id="Group_2055">
				
					<linearGradient id="Path_16953_1_" gradientUnits="userSpaceOnUse" x1="-261.7725" y1="303.4939" x2="-261.7725" y2="302.4939" gradientTransform="matrix(3.729 0 0 -6.006 975.0162 1818.7863)">
					<stop  offset="0.13" style="stop-color:#00A9ED"/>
					<stop  offset="1" style="stop-color:#65106B"/>
				</linearGradient>
				<path id="Path_16953" fill="url(#Path_16953_1_)" d="M-0.682-3.998L-3,1.406l1.422,0.602l2.309-5.4L-0.682-3.998z"/>
			</g>
		</g>
	</g>
</g>
</svg>
