<?xml version="1.0" encoding="utf-8"?>
<!-- Generator: Adobe Illustrator 16.0.0, SVG Export Plug-In . SVG Version: 6.00 Build 0)  -->
<!DOCTYPE svg PUBLIC "-//W3C//DTD SVG 1.1//EN" "http://www.w3.org/Graphics/SVG/1.1/DTD/svg11.dtd">
<svg version="1.1" id="Layer_1" xmlns="http://www.w3.org/2000/svg" xmlns:xlink="http://www.w3.org/1999/xlink" x="0px" y="0px"
	 width="71.984px" height="71.939px" viewBox="0 0 71.984 71.939" enable-background="new 0 0 71.984 71.939" xml:space="preserve">
<g id="pump" transform="translate(0 -0.159)">
	
		<linearGradient id="Path_17032_1_" gradientUnits="userSpaceOnUse" x1="-265.3806" y1="427.2847" x2="-265.3806" y2="426.2847" gradientTransform="matrix(71.985 0 0 -71.941 19139.4316 30739.4063)">
		<stop  offset="0.13" style="stop-color:#00A9ED"/>
		<stop  offset="1" style="stop-color:#65106B"/>
	</linearGradient>
	<path id="Path_17032" fill="url(#Path_17032_1_)" d="M66.582,35.627H56.293v-6.152c-0.002-1.614-1.311-2.923-2.925-2.925h-6.229
		v-2.509c-0.002-1.745-1.416-3.159-3.161-3.161H41.5l2.069-6.68c2.274,0.097,4.196-1.669,4.293-3.942
		c0.096-2.274-1.669-4.196-3.943-4.292c-2.273-0.097-4.195,1.668-4.292,3.942c-0.063,1.48,0.674,2.88,1.93,3.667L39.3,20.878H35.06
		c-1.493,0.006-2.781,1.052-3.094,2.512c-0.015,0.071-0.022,0.145-0.022,0.218v2.94h-5.363v-2.643
		c-0.001-1.222-0.991-2.211-2.212-2.212h-0.194v-2.751c1.336-0.029,2.404-1.12,2.406-2.456v-2.2
		c-0.002-1.336-1.07-2.427-2.406-2.456v-6.14c-0.003-3.054-2.478-5.528-5.531-5.532h-7.266c-0.582,0-1.054,0.472-1.054,1.054
		s0.472,1.054,1.054,1.054h7.266c1.891,0.003,3.422,1.534,3.424,3.425v6.141H16.73V8.657c0.002-0.582-0.469-1.056-1.051-1.058
		c-0.001,0-0.001,0-0.002,0H2.151V2.266h5.012c0.582,0,1.054-0.472,1.054-1.054S7.745,0.159,7.163,0.159H1.099
		C0.517,0.158,0.045,0.629,0.045,1.211v0.001v7.444c0,0.582,0.472,1.054,1.054,1.054h0.001h13.524v2.124
		c-1.336,0.029-2.404,1.12-2.406,2.456v2.2c0.002,1.336,1.07,2.427,2.406,2.456V21.7h-0.194c-1.221,0.001-2.211,0.99-2.212,2.212
		v2.638H9.047c-1.614,0.002-2.923,1.311-2.925,2.925v0.351l-4.7,1.066C0.941,31,0.599,31.427,0.599,31.919V47
		c0,0.491,0.341,0.918,0.82,1.027l4.7,1.067v0.351c0.002,1.615,1.312,2.924,2.927,2.925h0.899v3.908H7.824
		c-0.583,0-1.055,0.472-1.055,1.054s0.472,1.054,1.055,1.054l0,0H54.76c0.193,0.001,0.351,0.157,0.351,0.352v3.588
		c-2.267-0.404-4.603,0.036-6.566,1.239c-2.344,1.436-5.295,1.436-7.638,0c-3.018-1.849-6.815-1.849-9.832,0
		c-2.344,1.436-5.295,1.436-7.639,0c-3.017-1.849-6.815-1.849-9.832,0C11.26,65,8.31,65,5.967,63.564l-3.859-2.356v-2.824h1.5
		c0.582,0,1.055-0.472,1.055-1.054s-0.473-1.054-1.055-1.054H1.053C0.471,56.276,0,56.748,0,57.33l0,0v13.715
		c-0.001,0.582,0.471,1.055,1.053,1.055h0.001H70.93c0.582,0,1.054-0.472,1.054-1.054l0,0V41.03c-0.004-2.98-2.419-5.396-5.399-5.4
		L66.582,35.627z M43.746,8.066c1.112,0,2.014,0.901,2.014,2.014s-0.901,2.014-2.014,2.014s-2.015-0.901-2.015-2.014l0,0
		C41.731,8.967,42.634,8.066,43.746,8.066z M6.122,46.931l-3.409-0.774v-13.4l3.409-0.774V46.931z M34.052,23.738
		c0.136-0.444,0.545-0.748,1.009-0.75h8.917c0.582,0,1.054,0.472,1.055,1.054v2.508h-10.98V23.738z M14.326,16.488v-2.2
		c0-0.193,0.157-0.351,0.351-0.352h9.446c0.193,0.001,0.351,0.158,0.351,0.352v2.2c0,0.193-0.157,0.351-0.351,0.351h-9.446
		C14.482,16.838,14.326,16.681,14.326,16.488C14.326,16.487,14.326,16.487,14.326,16.488L14.326,16.488z M22.067,18.947V21.7H16.73
		v-2.75L22.067,18.947z M14.326,23.908c0-0.056,0.044-0.101,0.1-0.101l0,0h9.939c0.055,0,0.1,0.045,0.1,0.101l0,0v2.642H14.326
		v-2.644V23.908z M14.326,28.659h33.763v21.6H14.326V28.659z M9.047,50.259c-0.452,0-0.817-0.366-0.818-0.817V29.474
		c0.001-0.451,0.366-0.817,0.818-0.817h3.171v21.6L9.047,50.259z M51.136,56.276H12.057v-3.908h39.079V56.276z M52.19,50.258H50.2
		v-21.6h3.171c0.451,0,0.817,0.366,0.817,0.817v19.967c0,0.451-0.366,0.817-0.817,0.817H52.19V50.258z M69.877,69.991H2.106v-6.315
		l2.766,1.686c3.017,1.848,6.815,1.848,9.832,0c2.343-1.437,5.294-1.437,7.638,0c3.017,1.848,6.815,1.848,9.832,0
		c2.344-1.437,5.294-1.437,7.638,0c3.017,1.848,6.815,1.848,9.832,0c2.344-1.436,5.294-1.436,7.639,0
		c3.017,1.848,6.814,1.848,9.831,0l2.766-1.686C69.877,65.16,69.877,66.823,69.877,69.991z M69.877,61.208
		c-4.188,2.553-4.268,2.648-5.136,2.971v-6.222c0-0.582-0.473-1.054-1.055-1.054s-1.054,0.472-1.054,1.054v6.668
		c-2.738,0.165-4.075-1.081-5.414-1.664v-4.226c-0.002-1.357-1.102-2.458-2.459-2.459h-1.515v-3.908
		c1.617,0.063,2.981-1.196,3.045-2.813c0.002-0.037,0.003-0.074,0.003-0.111v-4.466h6.341v8.764
		c-0.001,0.582,0.471,1.055,1.053,1.056c0.582,0,1.055-0.471,1.056-1.053c0-0.001,0-0.002,0-0.003v-9.817
		c0-0.582-0.473-1.054-1.055-1.054l0,0h-7.395v-5.135h10.289c1.818,0.002,3.292,1.476,3.295,3.295V61.208z"/>
	
		<linearGradient id="Path_17033_1_" gradientUnits="userSpaceOnUse" x1="-249.4011" y1="406.5982" x2="-249.4011" y2="405.5982" gradientTransform="matrix(13.317 0 0 -14.771 3345.3408 6037.9331)">
		<stop  offset="0.13" style="stop-color:#00A9ED"/>
		<stop  offset="1" style="stop-color:#65106B"/>
	</linearGradient>
	<path id="Path_17033" fill="url(#Path_17033_1_)" d="M29.669,32.073H18.46c-0.582,0-1.055,0.472-1.055,1.054l0,0V45.79
		c0,0.582,0.473,1.054,1.055,1.054l0,0h11.209c0.582,0,1.054-0.472,1.054-1.054l0,0V33.127
		C30.722,32.544,30.251,32.073,29.669,32.073L29.669,32.073z M28.614,44.736h-9.1V34.18h9.1V44.736z"/>
	
		<linearGradient id="Path_17034_1_" gradientUnits="userSpaceOnUse" x1="-245.6467" y1="250.233" x2="-245.6467" y2="249.233" gradientTransform="matrix(11.177 0 0 -2.108 2785.012 561.5074)">
		<stop  offset="0.13" style="stop-color:#00A9ED"/>
		<stop  offset="1" style="stop-color:#65106B"/>
	</linearGradient>
	<path id="Path_17034" fill="url(#Path_17034_1_)" d="M43.955,34.015h-9.069c-0.582,0-1.054,0.473-1.054,1.055
		s0.472,1.054,1.054,1.054h9.069c0.582,0,1.054-0.472,1.054-1.054S44.537,34.015,43.955,34.015L43.955,34.015z"/>
	
		<linearGradient id="Path_17035_1_" gradientUnits="userSpaceOnUse" x1="-245.6467" y1="250.233" x2="-245.6467" y2="249.233" gradientTransform="matrix(11.177 0 0 -2.108 2785.012 565.8961)">
		<stop  offset="0.13" style="stop-color:#00A9ED"/>
		<stop  offset="1" style="stop-color:#65106B"/>
	</linearGradient>
	<path id="Path_17035" fill="url(#Path_17035_1_)" d="M43.955,38.405h-9.069c-0.582,0-1.054,0.472-1.054,1.054
		s0.472,1.054,1.054,1.054h9.069c0.582,0,1.054-0.472,1.054-1.054S44.537,38.405,43.955,38.405L43.955,38.405z"/>
	
		<linearGradient id="Path_17036_1_" gradientUnits="userSpaceOnUse" x1="-245.6467" y1="250.233" x2="-245.6467" y2="249.233" gradientTransform="matrix(11.177 0 0 -2.108 2785.012 570.2847)">
		<stop  offset="0.13" style="stop-color:#00A9ED"/>
		<stop  offset="1" style="stop-color:#65106B"/>
	</linearGradient>
	<path id="Path_17036" fill="url(#Path_17036_1_)" d="M43.955,42.794h-9.069c-0.582,0-1.054,0.472-1.054,1.054
		s0.472,1.055,1.054,1.055h9.069c0.582,0,1.054-0.473,1.054-1.055S44.537,42.794,43.955,42.794L43.955,42.794z"/>
	
		<linearGradient id="Path_17037_1_" gradientUnits="userSpaceOnUse" x1="-213.6033" y1="378.5845" x2="-213.6033" y2="377.5836" gradientTransform="matrix(4.7127 0 0 -7.1144 1030.7047 2729.3044)">
		<stop  offset="0.13" style="stop-color:#00A9ED"/>
		<stop  offset="1" style="stop-color:#65106B"/>
	</linearGradient>
	<path id="Path_17037" fill="url(#Path_17037_1_)" d="M22.761,40.512h1.061l-0.407,1.045c-0.224,0.538,0.031,1.155,0.568,1.378
		c0.538,0.224,1.154-0.031,1.378-0.568c0.006-0.014,0.012-0.028,0.017-0.042l0.97-2.482c0.212-0.542-0.057-1.153-0.599-1.364
		c-0.122-0.048-0.252-0.072-0.383-0.072h-1.062l0.408-1.045c0.224-0.538-0.031-1.154-0.569-1.378
		c-0.537-0.224-1.154,0.031-1.378,0.568c-0.005,0.015-0.011,0.028-0.016,0.042l-0.971,2.482c-0.211,0.542,0.057,1.153,0.6,1.365
		C22.5,40.488,22.63,40.512,22.761,40.512L22.761,40.512z"/>
</g>
</svg>
