<?xml version="1.0" encoding="utf-8"?>
<!-- Generator: Adobe Illustrator 16.0.0, SVG Export Plug-In . SVG Version: 6.00 Build 0)  -->
<!DOCTYPE svg PUBLIC "-//W3C//DTD SVG 1.1//EN" "http://www.w3.org/Graphics/SVG/1.1/DTD/svg11.dtd">
<svg version="1.1" id="Layer_1" xmlns="http://www.w3.org/2000/svg" xmlns:xlink="http://www.w3.org/1999/xlink" x="0px" y="0px"
	 width="74px" height="74px" viewBox="0 0 74 74" enable-background="new 0 0 74 74" xml:space="preserve">
<g id="herbal_2_" transform="translate(-0.994 -1)">
	
		<linearGradient id="Path_18195_1_" gradientUnits="userSpaceOnUse" x1="-263.4909" y1="429.3193" x2="-263.4909" y2="428.3184" gradientTransform="matrix(74.0056 0 0 -74.0013 19537.8105 31771.1191)">
		<stop  offset="0.13" style="stop-color:#00A9ED"/>
		<stop  offset="1" style="stop-color:#65106B"/>
	</linearGradient>
	<path id="Path_18195" fill="url(#Path_18195_1_)" d="M75,30.839c-0.004-3.294-2.673-5.964-5.968-5.968h-5.9
		c0.929-2.01,2.148-3.871,3.622-5.523c2.124,1.348,4.899,1.034,6.669-0.754c2.1-2.118,2.1-5.533,0-7.652l-8.313-8.355
		c-2.101-2.11-5.515-2.118-7.624-0.017c-1.778,1.771-2.1,4.534-0.776,6.665c-2.084,1.882-4.502,3.356-7.129,4.348
		c-3.351,1.251-6.393,3.209-8.918,5.742l-5.543,5.545h-3.211c4.527-2.83,7.28-7.79,7.285-13.129c0-0.659-0.534-1.193-1.193-1.193
		l0,0h-5.968V2.194C32.033,1.535,31.499,1,30.84,1c0,0-0.001,0-0.001,0c-5.326,0.006-10.276,2.744-13.11,7.253
		C13.876,3.66,8.189,1.005,2.194,1C1.535,1,1,1.533,1,2.192c0,0.001,0,0.001,0,0.002v4.774c0,7.493,4.131,14.376,10.744,17.9H6.968
		C3.675,24.862,1,27.527,0.994,30.82C0.99,33.199,2.4,35.352,4.581,36.3v0.506c0.018,12.028,6.482,23.122,16.936,29.069
		c0.344,0.195,0.593,0.521,0.689,0.906c0.075,0.281,0.028,0.58-0.13,0.826c-0.578,0.871-0.851,1.908-0.775,2.951
		c0.236,2.549,2.396,4.484,4.956,4.441h23.486c2.561,0.045,4.721-1.893,4.957-4.441c0.075-1.043-0.197-2.08-0.775-2.951
		c-0.157-0.246-0.205-0.545-0.13-0.826c0.097-0.383,0.345-0.711,0.687-0.906c10.455-5.947,16.92-17.041,16.938-29.069V36.3
		C73.591,35.352,74.995,33.208,75,30.839z M64.972,17.767c-0.783,0.874-1.504,1.803-2.156,2.779l-7.334-7.334
		c0.981-0.658,1.914-1.385,2.793-2.176L64.972,17.767z M59.171,4.267c1.164-1.172,3.057-1.18,4.229-0.017
		c0.006,0.005,0.012,0.011,0.017,0.017l8.313,8.355c1.204,1.15,1.248,3.06,0.098,4.264s-3.06,1.249-4.264,0.098
		c-0.027-0.026-0.054-0.052-0.079-0.078l-8.312-8.351c-1.177-1.186-1.177-3.098,0-4.284L59.171,4.267z M42.352,21.015
		c2.284-2.292,5.036-4.063,8.067-5.195c1.009-0.386,1.991-0.837,2.942-1.351l8.199,8.2c-0.375,0.711-0.715,1.448-1.025,2.2H38.494
		L42.352,21.015z M24.839,24.815c4.113-2.618,6.755-7.018,7.134-11.879h4.781C36.166,19.251,31.156,24.247,24.839,24.815z
		 M29.645,3.441v8.3c-0.009,6.222-4.38,11.584-10.472,12.85l2.182-2.806c3.044-3.92,5.066-8.534,5.886-13.428l-2.355-0.393
		c-0.754,4.504-2.615,8.75-5.415,12.356l-1.761,2.267v-6.07C17.718,9.731,22.889,4.066,29.645,3.441z M3.387,6.968V3.426
		c5.207,0.358,9.999,2.97,13.122,7.152c-0.646,1.567-1.03,3.23-1.135,4.922c-2.904-2.125-5.261-4.913-6.874-8.13L8.032,6.434
		L5.9,7.5l0.469,0.937c2.031,4.056,5.126,7.484,8.954,9.918v5.5C8.166,21.326,3.383,14.559,3.387,6.968z M53.3,63.799
		c-0.918,0.523-1.579,1.4-1.828,2.426c-0.232,0.926-0.064,1.904,0.461,2.699c0.287,0.436,0.422,0.951,0.383,1.471
		c-0.16,1.291-1.272,2.25-2.572,2.219H26.257c-1.299,0.031-2.411-0.926-2.574-2.213c-0.038-0.52,0.097-1.037,0.383-1.471
		c0.525-0.795,0.692-1.775,0.462-2.699c-0.248-1.027-0.91-1.908-1.828-2.432C12.989,58.277,6.985,47.971,6.969,36.8h62.063
		C69.016,47.973,63.013,58.277,53.3,63.799z M69.032,34.419H6.968c-1.978,0.033-3.607-1.543-3.641-3.521
		c-0.033-1.978,1.543-3.607,3.521-3.641c0.04,0,0.08,0,0.12,0h62.064c1.978-0.033,3.607,1.543,3.641,3.521
		c0.033,1.977-1.543,3.607-3.521,3.64C69.112,34.42,69.072,34.42,69.032,34.419z"/>
	
		<linearGradient id="Path_18196_1_" gradientUnits="userSpaceOnUse" x1="-251.5231" y1="416.4424" x2="-251.5231" y2="415.4414" gradientTransform="matrix(16.799 0 0 -21.235 4283.1401 8884.5127)">
		<stop  offset="0.13" style="stop-color:#00A9ED"/>
		<stop  offset="1" style="stop-color:#65106B"/>
	</linearGradient>
	<path id="Path_18196" fill="url(#Path_18196_1_)" d="M66.214,41.787l-2.352-0.414c-1.476,8.313-6.849,15.41-14.447,19.086
		l1.04,2.15C58.743,58.598,64.604,50.854,66.214,41.787z"/>
	
		<linearGradient id="Path_18197_1_" gradientUnits="userSpaceOnUse" x1="-257.9264" y1="273.8555" x2="-257.9264" y2="272.8555" gradientTransform="matrix(28.645 0 0 -2.387 7411.9697 692.8864)">
		<stop  offset="0.13" style="stop-color:#00A9ED"/>
		<stop  offset="1" style="stop-color:#65106B"/>
	</linearGradient>
	<path id="Path_18197" fill="url(#Path_18197_1_)" d="M9.355,39.193H38v2.387H9.355V39.193z"/>
	
		<linearGradient id="Path_18198_1_" gradientUnits="userSpaceOnUse" x1="-158.0402" y1="273.8555" x2="-158.0402" y2="272.8555" gradientTransform="matrix(2.387 0 0 -2.387 418.8241 692.8864)">
		<stop  offset="0.13" style="stop-color:#00A9ED"/>
		<stop  offset="1" style="stop-color:#65106B"/>
	</linearGradient>
	<path id="Path_18198" fill="url(#Path_18198_1_)" d="M40.388,39.193h2.387v2.387h-2.387V39.193z"/>
</g>
</svg>
