<svg xmlns="http://www.w3.org/2000/svg" xmlns:xlink="http://www.w3.org/1999/xlink" width="72.655" height="73" viewBox="0 0 72.655 73">
  <defs>
    <linearGradient id="linear-gradient" x1="0.5" x2="0.5" y2="1" gradientUnits="objectBoundingBox">
      <stop offset="0.13" stop-color="#00a9ed"/>
      <stop offset="1" stop-color="#65106b"/>
    </linearGradient>
  </defs>
  <path id="Union_52" data-name="Union 52" d="M-182.229,20191a1.222,1.222,0,0,1-1.221-1.221v-9.766a1.222,1.222,0,0,1,1.221-1.221v-11.5a11,11,0,0,1,5.432-9.475l10.788-6.324a2.477,2.477,0,0,1,.233-.107l5.371-15.455a4.972,4.972,0,0,1,5.736-3.627,4.912,4.912,0,0,1,3.887,4.773,5.594,5.594,0,0,1-.041.648,4.9,4.9,0,0,1,2.478,4.236,4.825,4.825,0,0,1-.167,1.266l-5.3,19.813a5.971,5.971,0,0,1-1.855,2.99l-8.255,7.338a3.7,3.7,0,0,0-1.216,2.736v2.686a1.217,1.217,0,0,1,1.216,1.221v9.766a1.217,1.217,0,0,1-1.216,1.221Zm1.221-2.441h14.649v-7.322h-14.649Zm16.22-34.949-10.778,6.309a8.616,8.616,0,0,0-4.221,7.377v11.5h12.207v-2.686a6.171,6.171,0,0,1,2.037-4.566l8.265-7.336a3.694,3.694,0,0,0,1.1-1.785l5.311-19.822a2.22,2.22,0,0,0,.086-.633,2.445,2.445,0,0,0-1.946-2.383,2.578,2.578,0,0,0-2.9,1.951l-3.77,11.635.071.111a4.911,4.911,0,0,1,.492,3.7,4.828,4.828,0,0,1-2.285,2.965l-6.993,4.043a1.233,1.233,0,0,1-1.627-.471,1.225,1.225,0,0,1,.405-1.643l6.993-4.043a2.453,2.453,0,0,0,1.15-1.475,2.519,2.519,0,0,0-.248-1.855,2.439,2.439,0,0,0-1.485-1.141,2.5,2.5,0,0,0-.634-.082A2.416,2.416,0,0,0-164.788,20153.609Zm6.714-16.955-4.941,14.232a5.13,5.13,0,0,1,1.632.461l3.41-10.508a5,5,0,0,1,4.748-3.734v-.025a2.45,2.45,0,0,0-1.941-2.383,2.679,2.679,0,0,0-.393-.029A2.589,2.589,0,0,0-158.074,20136.654ZM-204.2,20191a1.222,1.222,0,0,1-1.221-1.221v-9.766a1.222,1.222,0,0,1,1.221-1.221v-2.686a3.7,3.7,0,0,0-1.236-2.736l-8.239-7.332a6.049,6.049,0,0,1-1.855-3.006l-5.311-19.8a5.37,5.37,0,0,1-.157-1.271,4.9,4.9,0,0,1,2.478-4.236,5.5,5.5,0,0,1-.035-.645,4.9,4.9,0,0,1,3.882-4.773,5.011,5.011,0,0,1,5.772,3.709l5.336,15.369c.071.035.157.061.233.1l10.788,6.334a11.009,11.009,0,0,1,5.432,9.475v11.5a1.222,1.222,0,0,1,1.221,1.221v9.766a1.222,1.222,0,0,1-1.221,1.221Zm1.221-2.441h14.644v-7.322H-202.98Zm-13.651-48.977a2.445,2.445,0,0,0-1.926,2.383,2.422,2.422,0,0,0,.071.633l5.321,19.813a3.622,3.622,0,0,0,1.1,1.795l8.255,7.336a6.135,6.135,0,0,1,2.047,4.566v2.686h12.207v-11.5a8.6,8.6,0,0,0-4.221-7.373l-10.793-6.324a2.435,2.435,0,0,0-3.329.9,2.5,2.5,0,0,0-.243,1.855,2.414,2.414,0,0,0,1.145,1.479l6.993,4.039a1.225,1.225,0,0,1,.405,1.643,1.224,1.224,0,0,1-1.627.471l-6.993-4.039a4.821,4.821,0,0,1-2.28-2.969,4.89,4.89,0,0,1,.486-3.7l.071-.111-3.745-11.568a2.627,2.627,0,0,0-2.555-2.047A2.627,2.627,0,0,0-216.631,20139.582Zm2.442-4.879a2.439,2.439,0,0,0-1.931,2.381v.021a5.063,5.063,0,0,1,4.773,3.795l3.385,10.453a5.028,5.028,0,0,1,1.632-.467l-4.905-14.146a2.633,2.633,0,0,0-2.566-2.066A2.616,2.616,0,0,0-214.189,20134.7Zm28.655,20.537-16.408-16.4a12.212,12.212,0,0,1,0-17.254,12.191,12.191,0,0,1,8.635-3.584,12.191,12.191,0,0,1,8.635,3.584v-.006a12.21,12.21,0,0,1,8.635-3.578,12.21,12.21,0,0,1,8.635,3.578,12.219,12.219,0,0,1,0,17.26l-16.4,16.4a1.218,1.218,0,0,1-.864.357A1.218,1.218,0,0,1-185.533,20155.24Zm-7.768-34.8a9.774,9.774,0,0,0-9.025,6.025,9.767,9.767,0,0,0,2.113,10.641l15.541,15.541,15.541-15.541a9.762,9.762,0,0,0,0-13.8,9.746,9.746,0,0,0-6.9-2.863,9.749,9.749,0,0,0-6.907,2.863l-.872.865a1.217,1.217,0,0,1-1.723,0l-.867-.865a9.675,9.675,0,0,0-6.864-2.863Zm6.187,22.949a1.222,1.222,0,0,1-1.221-1.221v-3.664h-3.659a1.222,1.222,0,0,1-1.221-1.221v-4.881a1.222,1.222,0,0,1,1.221-1.221h3.659v-3.664a1.222,1.222,0,0,1,1.221-1.221h4.885a1.222,1.222,0,0,1,1.221,1.221v3.664h3.659a1.218,1.218,0,0,1,1.221,1.221v4.881a1.218,1.218,0,0,1-1.221,1.221h-3.659v3.664a1.222,1.222,0,0,1-1.221,1.221Zm-3.659-7.322h3.659a1.218,1.218,0,0,1,1.221,1.217v3.664h2.442v-3.664a1.218,1.218,0,0,1,1.221-1.217h3.664v-2.441h-3.664a1.222,1.222,0,0,1-1.221-1.223v-3.662h-2.442v3.662a1.222,1.222,0,0,1-1.221,1.223h-3.659Z" transform="translate(220.999 -20118)" fill="url(#linear-gradient)"/>
</svg>
