<?xml version="1.0" encoding="utf-8"?>
<!-- Generator: Adobe Illustrator 16.0.0, SVG Export Plug-In . SVG Version: 6.00 Build 0)  -->
<!DOCTYPE svg PUBLIC "-//W3C//DTD SVG 1.1//EN" "http://www.w3.org/Graphics/SVG/1.1/DTD/svg11.dtd">
<svg version="1.1" id="Layer_1" xmlns="http://www.w3.org/2000/svg" xmlns:xlink="http://www.w3.org/1999/xlink" x="0px" y="0px"
	 width="73.5px" height="61.852px" viewBox="0 0 73.5 61.852" enable-background="new 0 0 73.5 61.852" xml:space="preserve">
<g id="care_1_" transform="translate(0 -39.564)">
	<g id="Group_1902" transform="translate(0 80.629)">
		<g id="Group_1901">
			
				<linearGradient id="Path_16683_1_" gradientUnits="userSpaceOnUse" x1="-263.7056" y1="374.3547" x2="-263.7056" y2="373.592" gradientTransform="matrix(56.7345 0 0 -31.939 14987.0547 11950.4219)">
				<stop  offset="0.13" style="stop-color:#00A9ED"/>
				<stop  offset="1" style="stop-color:#65106B"/>
			</linearGradient>
			<path id="Path_16683" fill="url(#Path_16683_1_)" d="M43.551,10.356h-4.994c-0.711,0-1.288,0.576-1.288,1.287
				s0.577,1.287,1.288,1.287h4.994c0.772,0,1.398,0.626,1.398,1.398s-0.626,1.398-1.398,1.398H30.106
				c-2.016,0.003-3.927-0.893-5.215-2.443l-3.215-3.864c-1.715-2.066-4.238-3.294-6.923-3.366v-7.604h4.74
				c2.326-0.004,4.562,0.899,6.232,2.519l6.939,6.699c0.477,0.51,0.449,1.311-0.062,1.787c-0.465,0.435-1.18,0.455-1.67,0.05
				l-5.45-4.993c-0.524-0.481-1.338-0.446-1.819,0.079c-0.48,0.523-0.445,1.337,0.079,1.818l5.448,4.994
				c1.523,1.476,3.954,1.437,5.429-0.086s1.437-3.954-0.086-5.428c-0.027-0.027-0.055-0.053-0.082-0.078l-6.94-6.698
				c-2.148-2.085-5.026-3.248-8.02-3.243h-4.99c-0.499-1.183-1.657-1.952-2.94-1.953h-6.06c-0.71,0-1.287,0.577-1.287,1.287
				c0,0.001,0,0.003,0,0.003v9.413C4.198,5.331,4.76,5.921,5.472,5.939c0.711,0.017,1.301-0.545,1.319-1.257
				c0-0.021,0-0.041,0-0.063v-8.125h4.771c0.34,0,0.616,0.275,0.616,0.615V7.427c0,0.34-0.276,0.616-0.616,0.616h-1.336
				c-0.711,0-1.288,0.577-1.288,1.288c0,0.71,0.576,1.286,1.288,1.286h1.336c1.302-0.001,2.472-0.793,2.959-2.001
				c2.001,0.01,3.897,0.904,5.175,2.444l3.216,3.864c1.775,2.14,4.412,3.376,7.193,3.373h13.446c2.195,0,3.974-1.779,3.974-3.973
				c0-2.194-1.778-3.973-3.974-3.973V10.356z"/>
		</g>
	</g>
	<g id="Group_1904" transform="translate(29.612 39.568)">
		<g id="Group_1903">
			
				<linearGradient id="Path_16684_1_" gradientUnits="userSpaceOnUse" x1="-293.4401" y1="415.111" x2="-293.4401" y2="414.3473" gradientTransform="matrix(56.7275 0 0 -31.937 16664.9707 13261.0166)">
				<stop  offset="0.13" style="stop-color:#00A9ED"/>
				<stop  offset="1" style="stop-color:#65106B"/>
			</linearGradient>
			<path id="Path_16684" fill="url(#Path_16684_1_)" d="M39.23,15.527c-0.711,0-1.288,0.576-1.288,1.287l0,0v8.626h-4.771
				c-0.341,0-0.616-0.276-0.617-0.616V14.509c-0.002-0.341,0.273-0.618,0.614-0.62c0.001,0,0.001,0,0.003,0h1.241
				c0.712-0.017,1.273-0.608,1.257-1.318c-0.017-0.687-0.569-1.239-1.257-1.256h-1.241c-1.302,0.002-2.473,0.792-2.96,2
				c-2.002-0.009-3.896-0.903-5.175-2.443l-3.216-3.865c-1.775-2.14-4.412-3.376-7.192-3.373H1.181
				c-2.194,0-3.973,1.778-3.973,3.972s1.779,3.972,3.973,3.972h5.5c0.711-0.018,1.273-0.608,1.256-1.318
				c-0.017-0.687-0.57-1.24-1.256-1.256H1.185c-0.772,0-1.398-0.626-1.398-1.398c0-0.772,0.626-1.398,1.398-1.398h13.446
				c2.016-0.003,3.927,0.893,5.215,2.443l3.215,3.865c1.716,2.066,4.238,3.292,6.923,3.366v7.604h-4.739
				c-2.326,0.004-4.562-0.9-6.232-2.519l-6.946-6.693c-0.496-0.492-0.5-1.292-0.01-1.789c0.475-0.479,1.24-0.502,1.743-0.053
				l5.448,4.995c0.524,0.48,1.338,0.445,1.818-0.079s0.446-1.338-0.079-1.819l-5.45-4.995c-1.522-1.476-3.953-1.437-5.429,0.086
				c-1.475,1.522-1.437,3.953,0.086,5.428c0.027,0.026,0.056,0.052,0.082,0.077l6.94,6.698c2.149,2.083,5.026,3.245,8.02,3.239
				h4.989c0.499,1.182,1.657,1.951,2.94,1.953h6.061c0.71,0,1.286-0.576,1.286-1.287l0,0v-9.911
				C40.512,16.105,39.938,15.529,39.23,15.527L39.23,15.527z"/>
		</g>
	</g>
	<g id="Group_1906" transform="translate(51.203 95.926)">
		<g id="Group_1905">
			
				<linearGradient id="Path_16685_1_" gradientUnits="userSpaceOnUse" x1="-245.4154" y1="259.3731" x2="-245.4154" y2="258.6094" gradientTransform="matrix(3.4044 0 0 -3.4008 828.8792 872.3752)">
				<stop  offset="0.13" style="stop-color:#00A9ED"/>
				<stop  offset="1" style="stop-color:#65106B"/>
			</linearGradient>
			<path id="Path_16685" fill="url(#Path_16685_1_)" d="M-5.428-8.942c-0.289-0.655-1.056-0.952-1.711-0.663
				c-0.655,0.29-0.951,1.057-0.662,1.712c0.287,0.651,1.046,0.949,1.701,0.668l0.026-0.013C-5.425-7.531-5.136-8.293-5.428-8.942
				L-5.428-8.942z"/>
		</g>
	</g>
	<g id="Group_1908" transform="translate(55.585 93.397)">
		<g id="Group_1907">
			
				<linearGradient id="Path_16686_1_" gradientUnits="userSpaceOnUse" x1="-249.771" y1="261.1785" x2="-249.771" y2="260.4148" gradientTransform="matrix(3.3892 0 0 -3.3842 838.8668 874.7832)">
				<stop  offset="0.13" style="stop-color:#00A9ED"/>
				<stop  offset="1" style="stop-color:#65106B"/>
			</linearGradient>
			<path id="Path_16686" fill="url(#Path_16686_1_)" d="M-6.608-8.58c-0.422-0.576-1.229-0.701-1.806-0.28
				c-0.575,0.421-0.701,1.229-0.28,1.805s1.229,0.701,1.805,0.28l0.016-0.012C-6.306-7.209-6.187-8.012-6.608-8.58
				C-6.609-8.58-6.609-8.58-6.608-8.58L-6.608-8.58z"/>
		</g>
	</g>
	<g id="Group_1910" transform="translate(46.38 97.475)">
		<g id="Group_1909">
			
				<linearGradient id="Path_16687_1_" gradientUnits="userSpaceOnUse" x1="-240.3131" y1="257.9257" x2="-240.3131" y2="257.162" gradientTransform="matrix(3.4069 0 0 -3.4006 813.2568 867.0243)">
				<stop  offset="0.13" style="stop-color:#00A9ED"/>
				<stop  offset="1" style="stop-color:#65106B"/>
			</linearGradient>
			<path id="Path_16687" fill="url(#Path_16687_1_)" d="M-4.202-9.046c-0.142-0.702-0.827-1.156-1.529-1.014
				S-6.887-9.233-6.745-8.53c0.142,0.697,0.816,1.15,1.516,1.017l0.037-0.007c0.695-0.146,1.141-0.828,0.994-1.523
				c-0.001-0.001-0.001-0.002-0.001-0.004L-4.202-9.046z"/>
		</g>
	</g>
	<g id="Group_1912" transform="translate(59.332 89.979)">
		<g id="Group_1911">
			
				<linearGradient id="Path_16688_1_" gradientUnits="userSpaceOnUse" x1="-253.4077" y1="263.9334" x2="-253.4077" y2="263.1697" gradientTransform="matrix(3.3721 0 0 -3.3715 845.9777 881.5645)">
				<stop  offset="0.13" style="stop-color:#00A9ED"/>
				<stop  offset="1" style="stop-color:#65106B"/>
			</linearGradient>
			<path id="Path_16688" fill="url(#Path_16688_1_)" d="M-7.666-7.961c-0.529-0.477-1.342-0.435-1.818,0.093l-0.027,0.031
				c-0.459,0.542-0.392,1.354,0.152,1.814c0.543,0.458,1.354,0.391,1.813-0.152C-7.098-6.706-7.151-7.496-7.666-7.961L-7.666-7.961z
				 M-8.386-6.876l-0.144-0.129l0.154,0.139L-8.386-6.876z"/>
		</g>
	</g>
	<g id="Group_1914" transform="translate(64.272 81.202)">
		<g id="Group_1913">
			
				<linearGradient id="Path_16689_1_" gradientUnits="userSpaceOnUse" x1="-259.086" y1="272.6098" x2="-259.086" y2="271.8461" gradientTransform="matrix(3.3901 0 0 -3.3869 868.6283 917.0742)">
				<stop  offset="0.13" style="stop-color:#00A9ED"/>
				<stop  offset="1" style="stop-color:#65106B"/>
			</linearGradient>
			<path id="Path_16689" fill="url(#Path_16689_1_)" d="M-9.33-6.161c-0.684-0.21-1.406,0.173-1.616,0.854
				c-0.209,0.683,0.174,1.406,0.855,1.615c0.682,0.21,1.403-0.171,1.614-0.851l0.006-0.018c0.206-0.679-0.177-1.396-0.855-1.602
				C-9.327-6.162-9.329-6.162-9.33-6.163V-6.161z"/>
		</g>
	</g>
	<g id="Group_1916" transform="translate(65.262 71.167)">
		<g id="Group_1915">
			
				<linearGradient id="Path_16690_1_" gradientUnits="userSpaceOnUse" x1="-260.3704" y1="282.4046" x2="-260.3704" y2="281.6419" gradientTransform="matrix(3.4006 0 0 -3.4007 875.4655 956.5155)">
				<stop  offset="0.13" style="stop-color:#00A9ED"/>
				<stop  offset="1" style="stop-color:#65106B"/>
			</linearGradient>
			<path id="Path_16690" fill="url(#Path_16690_1_)" d="M-8.671-2.77C-8.672-2.786-8.675-2.802-8.68-2.819
				c-0.146-0.702-0.833-1.153-1.534-1.007c-0.702,0.146-1.153,0.833-1.008,1.534c0.146,0.702,0.833,1.153,1.534,1.007
				C-9.005-1.426-8.556-2.082-8.671-2.77z"/>
		</g>
	</g>
	<g id="Group_1918" transform="translate(65.229 76.223)">
		<g id="Group_1917">
			
				<linearGradient id="Path_16691_1_" gradientUnits="userSpaceOnUse" x1="-258.2935" y1="277.1962" x2="-258.2935" y2="276.4326" gradientTransform="matrix(3.3083 0 0 -3.3855 844.5731 933.4151)">
				<stop  offset="0.13" style="stop-color:#00A9ED"/>
				<stop  offset="1" style="stop-color:#65106B"/>
			</linearGradient>
			<path id="Path_16691" fill="url(#Path_16691_1_)" d="M-9.819-5.032c-0.707-0.063-1.331,0.461-1.396,1.169c0,0.012,0,0.038,0,0.05
				c-0.042,0.71,0.5,1.318,1.209,1.36h0.077c0.716-0.033,1.27-0.641,1.236-1.356c-0.029-0.627-0.502-1.143-1.124-1.226L-9.819-5.032
				z"/>
		</g>
	</g>
	<g id="Group_1920" transform="translate(62.273 85.853)">
		<g id="Group_1919">
			
				<linearGradient id="Path_16692_1_" gradientUnits="userSpaceOnUse" x1="-256.8594" y1="268.5906" x2="-256.8594" y2="267.826" gradientTransform="matrix(3.3861 0 0 -3.3961 860.5247 904.8281)">
				<stop  offset="0.13" style="stop-color:#00A9ED"/>
				<stop  offset="1" style="stop-color:#65106B"/>
			</linearGradient>
			<path id="Path_16692" fill="url(#Path_16692_1_)" d="M-8.591-7.149C-9.21-7.5-9.996-7.283-10.345-6.665
				c-0.001,0.001-0.002,0.002-0.002,0.002l-0.018,0.032c-0.342,0.623-0.114,1.405,0.509,1.748c0.623,0.342,1.405,0.113,1.748-0.51
				l-1.119-0.636l1.119,0.635C-7.756-6.012-7.972-6.798-8.591-7.149C-8.591-7.15-8.591-7.15-8.591-7.149L-8.591-7.149z"/>
		</g>
	</g>
	<g id="Group_1922" transform="translate(31.013 53.026)">
		<g id="Group_1921">
			
				<linearGradient id="Path_16693_1_" gradientUnits="userSpaceOnUse" x1="-223.1141" y1="298.317" x2="-223.1141" y2="297.5544" gradientTransform="matrix(3.3727 0 0 -3.3723 750.671 1006.4515)">
				<stop  offset="0.13" style="stop-color:#00A9ED"/>
				<stop  offset="1" style="stop-color:#65106B"/>
			</linearGradient>
			<path id="Path_16693" fill="url(#Path_16693_1_)" d="M-0.679,1.161C-0.997,0.526-1.77,0.268-2.406,0.586l-0.012,0.005
				C-3.05,0.915-3.3,1.691-2.976,2.323c0.324,0.633,1.1,0.883,1.732,0.559C-0.616,2.56-0.364,1.793-0.679,1.161z"/>
		</g>
	</g>
	<g id="Group_1924" transform="translate(35.75 51.263)">
		<g id="Group_1923">
			
				<linearGradient id="Path_16694_1_" gradientUnits="userSpaceOnUse" x1="-228.187" y1="299.9687" x2="-228.187" y2="299.206" gradientTransform="matrix(3.3728 0 0 -3.3726 766.6837 1012.5448)">
				<stop  offset="0.13" style="stop-color:#00A9ED"/>
				<stop  offset="1" style="stop-color:#65106B"/>
			</linearGradient>
			<path id="Path_16694" fill="url(#Path_16694_1_)" d="M-1.69,1.853c-0.168-0.691-0.864-1.115-1.555-0.947l0,0l-0.03,0.007
				C-3.961,1.097-4.368,1.803-4.184,2.49C-4,3.176-3.293,3.583-2.607,3.399C-1.932,3.218-1.525,2.532-1.69,1.853L-1.69,1.853z"/>
		</g>
	</g>
	<g id="Group_1926" transform="translate(26.747 55.762)">
		<g id="Group_1925">
			
				<linearGradient id="Path_16695_1_" gradientUnits="userSpaceOnUse" x1="-219.1235" y1="296.4336" x2="-219.1235" y2="295.6709" gradientTransform="matrix(3.3983 0 0 -3.3916 743.8118 1005.1984)">
				<stop  offset="0.13" style="stop-color:#00A9ED"/>
				<stop  offset="1" style="stop-color:#65106B"/>
			</linearGradient>
			<path id="Path_16695" fill="url(#Path_16695_1_)" d="M0.185,0.283C-0.261-0.27-1.07-0.357-1.623,0.087l0.797,1.01L-1.628,0.09
				c-0.561,0.437-0.661,1.246-0.225,1.806c0.437,0.561,1.246,0.662,1.806,0.225c0.008-0.006,0.015-0.011,0.022-0.017l0.017-0.014
				C0.544,1.645,0.631,0.836,0.185,0.283z"/>
		</g>
	</g>
	<g id="Group_1928" transform="translate(18.633 68.328)">
		<g id="Group_1927">
			
				<linearGradient id="Path_16696_1_" gradientUnits="userSpaceOnUse" x1="-209.8659" y1="284.099" x2="-209.8659" y2="283.3354" gradientTransform="matrix(3.3727 0 0 -3.3725 708.9117 954.9573)">
				<stop  offset="0.13" style="stop-color:#00A9ED"/>
				<stop  offset="1" style="stop-color:#65106B"/>
			</linearGradient>
			<path id="Path_16696" fill="url(#Path_16696_1_)" d="M1.435-3.124C0.749-3.311,0.042-2.906-0.145-2.221l-0.012,0.048
				C-0.318-1.48,0.114-0.789,0.806-0.629S2.19-0.9,2.351-1.592C2.507-2.265,2.103-2.942,1.435-3.124L1.435-3.124z"/>
		</g>
	</g>
	<g id="Group_1930" transform="translate(17.908 73.34)">
		<g id="Group_1929">
			
				<linearGradient id="Path_16697_1_" gradientUnits="userSpaceOnUse" x1="-209.2532" y1="279.922" x2="-209.2532" y2="279.1573" gradientTransform="matrix(3.3799 0 0 -3.3868 708.5164 943.6962)">
				<stop  offset="0.13" style="stop-color:#00A9ED"/>
				<stop  offset="1" style="stop-color:#65106B"/>
			</linearGradient>
			<path id="Path_16697" fill="url(#Path_16697_1_)" d="M1.34-4.353c-0.709-0.041-1.318,0.5-1.359,1.21v0.049
				C-0.04-2.383,0.518-1.791,1.228-1.77h0.039c0.714,0,1.292-0.579,1.292-1.293c0-0.684-0.534-1.25-1.216-1.291L1.34-4.353z"/>
		</g>
	</g>
	<g id="Group_1932" transform="translate(20.412 63.586)">
		<g id="Group_1931">
			
				<linearGradient id="Path_16698_1_" gradientUnits="userSpaceOnUse" x1="-211.7699" y1="288.5744" x2="-211.7699" y2="287.8108" gradientTransform="matrix(3.3727 0 0 -3.3745 714.9185 971.7295)">
				<stop  offset="0.13" style="stop-color:#00A9ED"/>
				<stop  offset="1" style="stop-color:#65106B"/>
			</linearGradient>
			<path id="Path_16698" fill="url(#Path_16698_1_)" d="M1.276-1.9c-0.63-0.33-1.408-0.088-1.738,0.542c0,0,0,0,0,0l-0.021,0.042
				C-0.79-0.676-0.521,0.093,0.12,0.402C0.76,0.709,1.529,0.44,1.837-0.201C2.138-0.827,1.888-1.578,1.273-1.9H1.276z"/>
		</g>
	</g>
	<g id="Group_1934" transform="translate(23.161 59.334)">
		<g id="Group_1933">
			
				<linearGradient id="Path_16699_1_" gradientUnits="userSpaceOnUse" x1="-214.6996" y1="292.4553" x2="-214.6996" y2="291.6926" gradientTransform="matrix(3.3721 0 0 -3.3724 724.0215 985.2316)">
				<stop  offset="0.13" style="stop-color:#00A9ED"/>
				<stop  offset="1" style="stop-color:#65106B"/>
			</linearGradient>
			<path id="Path_16699" fill="url(#Path_16699_1_)" d="M0.852-0.744C0.306-1.198-0.506-1.124-0.96-0.577c0,0,0,0.001,0,0.001
				l-0.026,0.033c-0.436,0.562-0.334,1.37,0.227,1.806c0.562,0.437,1.37,0.334,1.806-0.227C1.471,0.487,1.386-0.301,0.852-0.744
				L0.852-0.744z"/>
		</g>
	</g>
	<g id="Group_1936" transform="translate(18.252 78.394)">
		<g id="Group_1935">
			
				<linearGradient id="Path_16700_1_" gradientUnits="userSpaceOnUse" x1="-209.358" y1="274.5848" x2="-209.358" y2="273.8221" gradientTransform="matrix(3.3683 0 0 -3.368 706.3577 919.2391)">
				<stop  offset="0.13" style="stop-color:#00A9ED"/>
				<stop  offset="1" style="stop-color:#65106B"/>
			</linearGradient>
			<path id="Path_16700" fill="url(#Path_16700_1_)" d="M2.451-4.491C2.324-5.191,1.654-5.656,0.955-5.529
				c-0.7,0.126-1.165,0.797-1.039,1.496v0.013c0.136,0.698,0.812,1.153,1.51,1.018c0.688-0.135,1.142-0.794,1.022-1.484L2.451-4.491
				z"/>
		</g>
	</g>
	<g id="Group_1938" transform="translate(29.777 66.982)">
		<g id="Group_1937">
			
				<linearGradient id="Path_16701_1_" gradientUnits="userSpaceOnUse" x1="-288.6144" y1="382.3122" x2="-288.6144" y2="381.5485" gradientTransform="matrix(27.0201 0 0 -21.8517 7805.8735 8351.293)">
				<stop  offset="0.13" style="stop-color:#00A9ED"/>
				<stop  offset="1" style="stop-color:#65106B"/>
			</linearGradient>
			<path id="Path_16701" fill="url(#Path_16701_1_)" d="M11.815-2.851c-1.639-0.003-3.206,0.669-4.334,1.857
				c-2.275-2.393-6.06-2.489-8.453-0.214c-2.393,2.275-2.489,6.059-0.214,8.453c0.16,0.168,0.329,0.326,0.507,0.475l0.025,0.021
				l7.335,5.808c0.469,0.373,1.134,0.373,1.603,0l7.647-6.091c0.037-0.03,0.072-0.063,0.106-0.096
				c2.338-2.331,2.343-6.115,0.013-8.453c-1.121-1.125-2.646-1.757-4.234-1.757L11.815-2.851z M14.265,5.488l-6.786,5.406
				L0.957,5.732c-1.438-1.209-1.625-3.355-0.416-4.795c1.209-1.438,3.356-1.625,4.795-0.416C5.755,0.873,6.082,1.32,6.291,1.825
				c0.272,0.657,1.024,0.969,1.682,0.697c0.316-0.13,0.566-0.381,0.697-0.697c0.72-1.736,2.711-2.56,4.446-1.84
				c1.737,0.72,2.56,2.711,1.841,4.447C14.794,4.824,14.56,5.183,14.265,5.488L14.265,5.488z"/>
		</g>
	</g>
	<g id="Group_1940" transform="translate(0.006 99.138)">
		<g id="Group_1939">
			
				<linearGradient id="Ellipse_192_1_" gradientUnits="userSpaceOnUse" x1="-189.6354" y1="255.0312" x2="-189.6354" y2="254.2675" gradientTransform="matrix(3.36 0 0 -3.36 642.6704 846.4457)">
				<stop  offset="0.13" style="stop-color:#00A9ED"/>
				<stop  offset="1" style="stop-color:#65106B"/>
			</linearGradient>
			<circle id="Ellipse_192" fill="url(#Ellipse_192_1_)" cx="5.496" cy="-9.178" r="1.282"/>
		</g>
	</g>
	<g id="Group_1942" transform="translate(82.979 49.637)">
		<g id="Group_1941">
			
				<linearGradient id="Ellipse_193_1_" gradientUnits="userSpaceOnUse" x1="-278.4521" y1="301.0468" x2="-278.4521" y2="300.2832" gradientTransform="matrix(3.36 0 0 -3.36 921.4594 1012.7703)">
				<stop  offset="0.13" style="stop-color:#00A9ED"/>
				<stop  offset="1" style="stop-color:#65106B"/>
			</linearGradient>
			<circle id="Ellipse_193" fill="url(#Ellipse_193_1_)" cx="-14.137" cy="2.536" r="1.282"/>
		</g>
	</g>
</g>
</svg>
