<?xml version="1.0" encoding="utf-8"?>
<!-- Generator: Adobe Illustrator 16.0.0, SVG Export Plug-In . SVG Version: 6.00 Build 0)  -->
<!DOCTYPE svg PUBLIC "-//W3C//DTD SVG 1.1//EN" "http://www.w3.org/Graphics/SVG/1.1/DTD/svg11.dtd">
<svg version="1.1" id="Layer_1" xmlns="http://www.w3.org/2000/svg" xmlns:xlink="http://www.w3.org/1999/xlink" x="0px" y="0px"
	 width="71.503px" height="71.502px" viewBox="0 0 71.503 71.502" enable-background="new 0 0 71.503 71.502" xml:space="preserve">
<g id="safe-flight" transform="translate(0.068 -0.001)">
	
		<linearGradient id="Path_16884_1_" gradientUnits="userSpaceOnUse" x1="-175.9772" y1="294.8555" x2="-175.9772" y2="293.8555" gradientTransform="matrix(2.8 0 0 -2.8 507.1746 850.7753)">
		<stop  offset="0.13" style="stop-color:#00A9ED"/>
		<stop  offset="1" style="stop-color:#65106B"/>
	</linearGradient>
	<path id="Path_16884" fill="url(#Path_16884_1_)" d="M15.428,27.569c0.548-0.546,0.549-1.433,0.002-1.98
		c-0.546-0.547-1.433-0.548-1.979-0.002c-0.548,0.546-0.549,1.433-0.002,1.98c0.263,0.264,0.62,0.412,0.992,0.411
		C14.811,27.978,15.166,27.831,15.428,27.569z"/>
	
		<linearGradient id="Path_16885_1_" gradientUnits="userSpaceOnUse" x1="-243.2926" y1="393.9463" x2="-243.2926" y2="392.9463" gradientTransform="matrix(10.0427 0 0 -10.0432 2448.2583 4018.0181)">
		<stop  offset="0.13" style="stop-color:#00A9ED"/>
		<stop  offset="1" style="stop-color:#65106B"/>
	</linearGradient>
	<path id="Path_16885" fill="url(#Path_16885_1_)" d="M7.514,62.013l-7.1,7.101c-0.586,0.505-0.65,1.389-0.146,1.975
		c0.505,0.585,1.389,0.65,1.975,0.146c0.052-0.045,0.101-0.094,0.146-0.146l7.101-7.1c0.583-0.508,0.646-1.392,0.139-1.975
		c-0.507-0.584-1.391-0.646-1.975-0.14C7.604,61.916,7.557,61.962,7.514,62.013L7.514,62.013z"/>
	
		<linearGradient id="Path_16886_1_" gradientUnits="userSpaceOnUse" x1="-244.5167" y1="395.7539" x2="-244.5167" y2="394.753" gradientTransform="matrix(10.5387 0 0 -10.5403 2582.1626 4202.4292)">
		<stop  offset="0.13" style="stop-color:#00A9ED"/>
		<stop  offset="1" style="stop-color:#65106B"/>
	</linearGradient>
	<path id="Path_16886" fill="url(#Path_16886_1_)" d="M1.4,41.616c0.371,0,0.726-0.146,0.987-0.409l7.809-7.807
		c0.51-0.581,0.453-1.465-0.128-1.976c-0.529-0.466-1.323-0.465-1.852,0.002L0.41,39.228c-0.544,0.549-0.538,1.436,0.012,1.979
		c0.26,0.257,0.609,0.401,0.975,0.403L1.4,41.616z"/>
	
		<linearGradient id="Path_16887_1_" gradientUnits="userSpaceOnUse" x1="-228.193" y1="371.709" x2="-228.193" y2="370.708" gradientTransform="matrix(6.3551 0 0 -6.3542 1484.2595 2427.1235)">
		<stop  offset="0.13" style="stop-color:#00A9ED"/>
		<stop  offset="1" style="stop-color:#65106B"/>
	</linearGradient>
	<path id="Path_16887" fill="url(#Path_16887_1_)" d="M34.783,65.702l-3.416,3.416c-0.584,0.507-0.646,1.391-0.14,1.975
		s1.392,0.646,1.976,0.139c0.049-0.043,0.096-0.089,0.139-0.139l3.417-3.415c0.584-0.507,0.646-1.392,0.139-1.975
		c-0.508-0.584-1.391-0.646-1.975-0.14C34.871,65.606,34.826,65.653,34.783,65.702L34.783,65.702z"/>
	
		<linearGradient id="Path_16888_1_" gradientUnits="userSpaceOnUse" x1="-265.6608" y1="426.8721" x2="-265.6608" y2="425.8711" gradientTransform="matrix(71.4982 0 0 -71.5015 19030.0078 30521.9473)">
		<stop  offset="0.13" style="stop-color:#00A9ED"/>
		<stop  offset="1" style="stop-color:#65106B"/>
	</linearGradient>
	<path id="Path_16888" fill="url(#Path_16888_1_)" d="M70.82,37.925l-15.449-9.18l10.463-10.463
		c4.414-4.425,6.424-10.706,5.4-16.871c-0.098-0.587-0.557-1.047-1.143-1.148c-6.166-1.024-12.447,0.986-16.871,5.4l-9.883,9.883
		l-4.486-0.428c0.719-2.257-0.527-4.67-2.785-5.389c-1.529-0.487-3.201-0.08-4.336,1.055L28.4,14.12l-4.426-0.42
		c0.745-2.25-0.475-4.677-2.724-5.421c-1.54-0.51-3.236-0.107-4.383,1.04L13.481,12.7l-5.725-0.546
		c-0.414-0.04-0.824,0.107-1.12,0.4L0.41,18.788c-0.546,0.548-0.543,1.435,0.006,1.98c0.099,0.098,0.212,0.181,0.335,0.246
		l8.086,4.216c0.657,0.407,1.521,0.204,1.928-0.453c0.406-0.657,0.204-1.52-0.453-1.927c-0.059-0.036-0.12-0.068-0.184-0.096
		l-6.4-3.337L8.146,15l32.629,3.112L27.22,31.668l-7.151-3.731c-0.66-0.403-1.522-0.194-1.925,0.466s-0.194,1.521,0.466,1.924
		c0.054,0.033,0.109,0.062,0.167,0.087l6.373,3.324l-2.193,2.193c-2.163,2.161-4.081,4.552-5.721,7.132L5.089,43.288
		c-0.361,0.007-0.706,0.153-0.962,0.409l-3.246,3.247c-0.545,0.549-0.541,1.436,0.008,1.979c0.15,0.149,0.333,0.263,0.533,0.331
		l11.215,3.782c-0.558,1.809-0.991,3.653-1.3,5.521c-0.12,0.764,0.402,1.479,1.166,1.6c0.144,0.022,0.29,0.022,0.434,0
		c1.867-0.309,3.712-0.742,5.521-1.301l3.791,11.224c0.243,0.729,1.032,1.123,1.761,0.88c0.206-0.069,0.393-0.185,0.545-0.338
		l3.246-3.246c0.256-0.256,0.402-0.602,0.409-0.963l0.212-12.137c2.189-1.391,4.243-2.982,6.136-4.756
		c1.216,10.17,8.212,18.715,17.943,21.912c0.285,0.094,0.592,0.094,0.877,0C64.203,67.871,71.516,57.755,71.5,46.358v-7.233
		c0-0.492-0.26-0.948-0.684-1.2H70.82z M33.706,12.765c0.619-0.55,1.567-0.495,2.117,0.125c0.491,0.552,0.506,1.379,0.038,1.949
		L32,14.47L33.706,12.765z M18.837,11.3c0.547-0.622,1.495-0.683,2.117-0.135s0.683,1.495,0.135,2.117
		c-0.042,0.048-0.087,0.093-0.135,0.135l0,0l-3.865-0.369L18.837,11.3z M4.448,47.327l1.253-1.258l9.892-0.182
		c-0.771,1.462-1.453,2.969-2.043,4.512L4.448,47.327z M25.431,65.8l-1.256,1.256l-3.069-9.1c1.54-0.59,3.043-1.271,4.5-2.041
		L25.431,65.8z M26.385,52.256c-0.042,0.022-0.083,0.048-0.122,0.074c-3.642,2.208-7.625,3.796-11.787,4.7
		c1.57-7.248,5.201-13.889,10.455-19.123l30.27-30.264c3.531-3.523,8.459-5.271,13.42-4.761c0.512,4.963-1.238,9.893-4.762,13.425
		L52.594,27.572c-0.129,0.033-0.254,0.083-0.369,0.152l-17.168,10.2c-0.423,0.252-0.683,0.708-0.684,1.2v6.668l-0.777,0.777
		c-2.17,2.174-4.59,4.082-7.21,5.685V52.256z M68.711,46.356c0.014,10.022-6.314,18.958-15.773,22.273
		c-9.412-3.3-15.729-12.168-15.77-22.143c0.008-0.087,0.008-0.174,0-0.262v-6.307l15.771-9.371l15.771,9.371V46.356z"/>
	
		<linearGradient id="Path_16889_1_" gradientUnits="userSpaceOnUse" x1="-259.2491" y1="420.0391" x2="-259.2491" y2="419.0391" gradientTransform="matrix(25.959 0 0 -31.4984 6782.7725 13264.5703)">
		<stop  offset="0.13" style="stop-color:#00A9ED"/>
		<stop  offset="1" style="stop-color:#65106B"/>
	</linearGradient>
	<path id="Path_16889" fill="url(#Path_16889_1_)" d="M52.224,34.222l-11.582,6.882c-0.424,0.252-0.684,0.707-0.684,1.199v4.055
		c-0.004,8.249,4.867,15.721,12.416,19.049c0.359,0.157,0.768,0.157,1.125,0c7.549-3.328,12.42-10.8,12.418-19.049v-4.055
		c-0.002-0.492-0.262-0.947-0.684-1.199L53.65,34.222C53.211,33.961,52.664,33.961,52.224,34.222L52.224,34.222z M63.125,43.099
		v3.26c0.002,6.92-3.959,13.229-10.191,16.235c-6.229-3.009-10.186-9.317-10.182-16.235v-3.26l10.182-6.053L63.125,43.099z"/>
	
		<linearGradient id="Path_16890_1_" gradientUnits="userSpaceOnUse" x1="-244.3522" y1="385.6748" x2="-244.3522" y2="384.6748" gradientTransform="matrix(10.4689 0 0 -8.2596 2612.2339 3230.6848)">
		<stop  offset="0.13" style="stop-color:#00A9ED"/>
		<stop  offset="1" style="stop-color:#65106B"/>
	</linearGradient>
	<path id="Path_16890" fill="url(#Path_16890_1_)" d="M51.217,48.788c-0.584-0.507-1.467-0.445-1.975,0.139
		c-0.457,0.527-0.457,1.31,0,1.836l2.273,2.279c0.547,0.543,1.43,0.543,1.977,0l5.533-5.534c0.508-0.583,0.445-1.468-0.139-1.975
		c-0.527-0.458-1.311-0.458-1.836,0l-4.547,4.547L51.217,48.788z"/>
	
		<linearGradient id="Path_16891_1_" gradientUnits="userSpaceOnUse" x1="-252.4186" y1="407.3838" x2="-252.4186" y2="406.3838" gradientTransform="matrix(15.4661 0 0 -15.4699 3958.7461 6311.145)">
		<stop  offset="0.13" style="stop-color:#00A9ED"/>
		<stop  offset="1" style="stop-color:#65106B"/>
	</linearGradient>
	<path id="Path_16891" fill="url(#Path_16891_1_)" d="M48.476,24.423c0.371,0,0.727-0.146,0.988-0.409l12.744-12.743
		c0.506-0.584,0.443-1.468-0.141-1.975c-0.525-0.457-1.309-0.457-1.836,0L47.49,22.038c-0.545,0.55-0.539,1.437,0.012,1.979
		C47.762,24.274,48.111,24.42,48.476,24.423L48.476,24.423z"/>
	
		<linearGradient id="Path_16892_1_" gradientUnits="userSpaceOnUse" x1="-175.9772" y1="294.8565" x2="-175.9772" y2="293.8565" gradientTransform="matrix(2.8 0 0 -2.8 537.2628 851.1698)">
		<stop  offset="0.13" style="stop-color:#00A9ED"/>
		<stop  offset="1" style="stop-color:#65106B"/>
	</linearGradient>
	<path id="Path_16892" fill="url(#Path_16892_1_)" d="M44.527,28.372c0.773,0.001,1.4-0.625,1.402-1.398
		c0-0.773-0.625-1.4-1.398-1.401c-0.773-0.001-1.4,0.625-1.402,1.398c0,0.373,0.148,0.729,0.412,0.993
		C43.803,28.225,44.158,28.372,44.527,28.372z"/>
</g>
</svg>
