<?xml version="1.0" encoding="utf-8"?>
<!-- Generator: Adobe Illustrator 16.0.0, SVG Export Plug-In . SVG Version: 6.00 Build 0)  -->
<!DOCTYPE svg PUBLIC "-//W3C//DTD SVG 1.1//EN" "http://www.w3.org/Graphics/SVG/1.1/DTD/svg11.dtd">
<svg version="1.1" id="Layer_1" xmlns="http://www.w3.org/2000/svg" xmlns:xlink="http://www.w3.org/1999/xlink" x="0px" y="0px"
	 width="71.508px" height="61.871px" viewBox="0 0 71.508 61.871" enable-background="new 0 0 71.508 61.871" xml:space="preserve">
<g id="baggage-insurance" transform="translate(0 -0.5)">
	
		<linearGradient id="Path_16938_1_" gradientUnits="userSpaceOnUse" x1="-265.5854" y1="421.6226" x2="-265.5854" y2="420.6401" gradientTransform="matrix(71.507 0 0 -61.871 19027.373 26087.7578)">
		<stop  offset="0.13" style="stop-color:#00A9ED"/>
		<stop  offset="1" style="stop-color:#65106B"/>
	</linearGradient>
	<path id="Path_16938" fill="url(#Path_16938_1_)" d="M8.376,62.371h55.508c4.071-0.036,7.357-3.337,7.377-7.407V18.215
		c-0.028-4.053-3.324-7.323-7.377-7.319H48.962V7.457c0.009-3.216-2.574-5.838-5.789-5.879H29.181
		c-3.232,0.035-5.844,2.648-5.876,5.88v3.439H8.376C4.325,10.894,1.03,14.161,1,18.212v36.749c0.019,4.07,3.306,7.371,7.376,7.407
		V62.371z M25.745,7.458c0.03-1.886,1.553-3.408,3.439-3.439h13.991c1.866,0.042,3.354,1.573,3.341,3.439v3.439H25.745V7.458z
		 M68.667,55.04c0,2.698-2.189,4.888-4.889,4.888H8.332c-2.7,0-4.889-2.189-4.889-4.888V18.228c0-2.7,2.189-4.888,4.889-4.888
		h55.447c2.7,0,4.888,2.188,4.888,4.888V55.04z"/>
	
		<linearGradient id="Path_16939_1_" gradientUnits="userSpaceOnUse" x1="-258.7393" y1="411.6431" x2="-258.7393" y2="410.6597" gradientTransform="matrix(24.91 0 0 -23.948 6481.3135 9883.5586)">
		<stop  offset="0.13" style="stop-color:#00A9ED"/>
		<stop  offset="1" style="stop-color:#65106B"/>
	</linearGradient>
	<path id="Path_16939" fill="url(#Path_16939_1_)" d="M26.297,38.104c0.102-0.401,0.266-0.785,0.484-1.137
		c0.296-0.274,0.684-0.428,1.088-0.432c0.401-0.004,0.789,0.149,1.081,0.425c0.285,0.299,0.446,0.694,0.45,1.106
		c0.02,0.676,0.582,1.207,1.257,1.188c0.648-0.02,1.168-0.539,1.188-1.188c-0.02-0.827,0.635-1.512,1.462-1.531
		c0.023,0,0.046,0,0.069,0c0.401-0.004,0.789,0.149,1.081,0.425c0.285,0.299,0.446,0.694,0.45,1.106v8.268
		c0.01,0.169-0.12,0.315-0.29,0.324c-0.17,0.01-0.316-0.118-0.326-0.289c0-0.012,0-0.023,0-0.035
		c0.019-0.675-0.513-1.237-1.187-1.257c-0.675-0.02-1.237,0.513-1.256,1.188c0,0.023,0,0.047,0,0.069c0,1.521,1.231,2.75,2.751,2.75
		s2.751-1.229,2.751-2.75l0,0v-8.268c-0.019-0.827,0.637-1.512,1.464-1.531c0.023,0,0.046,0,0.068,0
		c0.402-0.004,0.789,0.149,1.08,0.425c0.285,0.299,0.446,0.694,0.45,1.106c0.02,0.676,0.582,1.207,1.257,1.188
		c0.648-0.02,1.169-0.539,1.188-1.188c-0.019-0.827,0.636-1.512,1.464-1.531c0.022,0,0.045,0,0.068,0
		c0.401-0.004,0.788,0.148,1.08,0.423c0.225,0.353,0.39,0.738,0.491,1.146c0.169,0.652,0.837,1.044,1.489,0.875
		c0.54-0.143,0.916-0.63,0.914-1.187c0-6.758-5.479-12.238-12.237-12.238c-6.759,0-12.238,5.479-12.238,12.238
		c0,0.676,0.548,1.223,1.223,1.221c0.555,0,1.04-0.374,1.182-0.909H26.297z M36.131,28.001c4.014,0.004,7.62,2.453,9.104,6.182
		c-1.29-0.274-2.633,0.098-3.596,1c-0.745-0.699-1.729-1.088-2.751-1.088c-1.021,0.005-2.003,0.393-2.751,1.088
		c-0.746-0.699-1.729-1.088-2.751-1.088c-1.021,0.005-2.003,0.393-2.751,1.088c-0.964-0.902-2.309-1.274-3.599-0.998
		C28.52,30.459,32.122,28.01,36.131,28.001L36.131,28.001z"/>
	
		<linearGradient id="Path_16940_1_" gradientUnits="userSpaceOnUse" x1="-262.0552" y1="417.2134" x2="-262.0552" y2="416.231" gradientTransform="matrix(36.4 0 0 -36.4 9574.9375 15205.9961)">
		<stop  offset="0.13" style="stop-color:#00A9ED"/>
		<stop  offset="1" style="stop-color:#65106B"/>
	</linearGradient>
	<path id="Path_16940" fill="url(#Path_16940_1_)" d="M36.131,55.203c9.877,0,17.883-8.006,17.883-17.884
		c0-9.876-8.006-17.883-17.883-17.883c-9.875,0-17.882,8.007-17.882,17.883l0,0C18.249,47.197,26.256,55.203,36.131,55.203z
		 M36.131,21.885c8.526,0,15.438,6.911,15.438,15.438c0,8.524-6.912,15.438-15.438,15.438c-8.525,0-15.437-6.913-15.437-15.438l0,0
		C20.695,28.796,27.606,21.885,36.131,21.885z"/>
</g>
</svg>
