<?xml version="1.0" encoding="utf-8"?>
<!-- Generator: Adobe Illustrator 16.0.0, SVG Export Plug-In . SVG Version: 6.00 Build 0)  -->
<!DOCTYPE svg PUBLIC "-//W3C//DTD SVG 1.1//EN" "http://www.w3.org/Graphics/SVG/1.1/DTD/svg11.dtd">
<svg version="1.1" id="Layer_1" xmlns="http://www.w3.org/2000/svg" xmlns:xlink="http://www.w3.org/1999/xlink" x="0px" y="0px"
	 width="71.508px" height="71.503px" viewBox="0 0 71.508 71.503" enable-background="new 0 0 71.508 71.503" xml:space="preserve">
<g id="Outline" transform="translate(-2.004 -2.002)">
	
		<linearGradient id="Path_16895_1_" gradientUnits="userSpaceOnUse" x1="-254.7773" y1="405.8453" x2="-254.7773" y2="404.8453" gradientTransform="matrix(20.967 0 0 -13.5421 5371.6104 5555.9663)">
		<stop  offset="0.13" style="stop-color:#00A9ED"/>
		<stop  offset="1" style="stop-color:#65106B"/>
	</linearGradient>
	<path id="Path_16895" fill="url(#Path_16895_1_)" d="M40.137,70.214c-0.782,0.31-1.573,0.6-2.385,0.853
		c-6.446-2.034-12.167-5.89-16.473-11.101l-2.061,1.261c4.71,5.802,11.049,10.062,18.2,12.231c0.224,0.067,0.461,0.067,0.685,0
		c0.709-0.211,1.394-0.477,2.083-0.728c-0.023-0.138-0.039-0.275-0.045-0.414L40.137,70.214z"/>
	
		<linearGradient id="Path_16896_1_" gradientUnits="userSpaceOnUse" x1="-260.7914" y1="423.4429" x2="-260.7914" y2="422.442" gradientTransform="matrix(40.524 0 0 -35.5814 10606.0947 15076.96)">
		<stop  offset="0.13" style="stop-color:#00A9ED"/>
		<stop  offset="1" style="stop-color:#65106B"/>
	</linearGradient>
	<path id="Path_16896" fill="url(#Path_16896_1_)" d="M57.926,31.025c0.031,0.055,0.058,0.119,0.091,0.169V17.731
		c0-0.598-0.443-1.104-1.036-1.182c-6.54-0.858-12.865-2.919-18.655-6.079c-0.355-0.194-0.785-0.194-1.141,0
		c-5.79,3.159-12.115,5.22-18.654,6.078c-0.594,0.078-1.039,0.584-1.038,1.183v18.891c0.007,3.149,0.489,6.279,1.43,9.284
		l2.136-1.167c-0.778-2.638-1.176-5.372-1.182-8.121V18.764c6.25-0.94,12.295-2.935,17.877-5.9c5.582,2.965,11.627,4.96,17.877,5.9
		v8.712C56.437,28.616,57.213,29.789,57.926,31.025z"/>
	
		<linearGradient id="Path_16897_1_" gradientUnits="userSpaceOnUse" x1="-257.9574" y1="405.0045" x2="-257.9574" y2="404.0045" gradientTransform="matrix(28.151 0 0 -13.1527 7301.2305 5379.6943)">
		<stop  offset="0.13" style="stop-color:#00A9ED"/>
		<stop  offset="1" style="stop-color:#65106B"/>
	</linearGradient>
	<path id="Path_16897" fill="url(#Path_16897_1_)" d="M50.318,53.386c-3.117,4.516-7.483,8.025-12.563,10.1
		c-3.948-1.609-7.474-4.102-10.31-7.285l-2.064,1.262c3.239,3.734,7.34,6.621,11.948,8.412c0.276,0.104,0.581,0.104,0.857,0
		c6.438-2.512,11.844-7.117,15.346-13.074c-0.814,0.406-1.711,0.62-2.622,0.625C50.712,53.423,50.514,53.41,50.318,53.386
		L50.318,53.386z"/>
	
		<linearGradient id="Path_16898_1_" gradientUnits="userSpaceOnUse" x1="-262.9403" y1="425.6568" x2="-262.9403" y2="424.6568" gradientTransform="matrix(60.7534 0 0 -44.754 16006.8691 19070.4063)">
		<stop  offset="0.13" style="stop-color:#00A9ED"/>
		<stop  offset="1" style="stop-color:#65106B"/>
	</linearGradient>
	<path id="Path_16898" fill="url(#Path_16898_1_)" d="M47.864,45.619c-0.18,0.287-0.318,0.598-0.412,0.924
		c-0.506,1.912,0.635,3.873,2.548,4.378c0.912,0.241,1.882,0.112,2.7-0.357l8.258-4.767c1.709-0.974,2.305-3.148,1.332-4.857
		c-0.652-1.146-1.885-1.837-3.203-1.797c-1.74-4.808-4.313-9.272-7.6-13.188c1.024-1.68,0.493-3.873-1.188-4.897
		c-1.116-0.681-2.517-0.695-3.647-0.037l-8.259,4.762c-1.712,0.984-2.301,3.17-1.317,4.881c0.639,1.111,1.823,1.795,3.105,1.793
		c0.024,0,0.049-0.01,0.073-0.01c0.441,1.228,0.963,2.473,1.549,3.708L4.441,56.505c-2.268,1.237-3.103,4.079-1.865,6.348
		c1.238,2.268,4.08,3.102,6.347,1.864c0.066-0.036,0.131-0.073,0.194-0.112l36.301-22.188C46.2,43.541,47.02,44.617,47.864,45.619z
		 M59.165,41.509c0.658-0.002,1.192,0.531,1.193,1.189c0,0.426-0.227,0.82-0.594,1.033l0,0L51.501,48.5
		c-0.563,0.34-1.297,0.16-1.638-0.402s-0.161-1.297,0.401-1.637c0.015-0.01,0.029-0.018,0.044-0.025l8.257-4.768
		c0.182-0.105,0.389-0.16,0.6-0.16V41.509z M53.801,33.409c1.205,2.072,2.225,4.247,3.043,6.5l-7.199,4.158
		c-1.537-1.838-2.91-3.81-4.1-5.89c-1.207-2.07-2.227-4.244-3.045-6.496l7.199-4.158c1.535,1.84,2.907,3.811,4.1,5.889
		L53.801,33.409z M39.148,29.482c-0.329-0.57-0.134-1.299,0.437-1.628l8.254-4.772c0.568-0.332,1.299-0.14,1.631,0.428
		s0.141,1.298-0.428,1.63c-0.004,0.002-0.006,0.003-0.01,0.005l-8.255,4.767c-0.569,0.329-1.299,0.135-1.628-0.436
		c-0.001,0-0.001,0-0.001,0V29.482z M7.875,62.571c-1.054,0.71-2.483,0.431-3.192-0.623s-0.431-2.483,0.623-3.192
		c0.088-0.06,0.181-0.113,0.276-0.16l37.301-20.313c0.201,0.358,0.388,0.728,0.601,1.082s0.425,0.7,0.642,1.054L7.875,62.571z"/>
	
		<linearGradient id="Path_16899_1_" gradientUnits="userSpaceOnUse" x1="-262.4745" y1="426.1324" x2="-262.4745" y2="425.1314" gradientTransform="matrix(54.821 0 0 -47.3717 14426.8643 20188.6387)">
		<stop  offset="0.13" style="stop-color:#00A9ED"/>
		<stop  offset="1" style="stop-color:#65106B"/>
	</linearGradient>
	<path id="Path_16899" fill="url(#Path_16899_1_)" d="M14.666,48.224c-1.277-3.734-1.932-7.653-1.939-11.6v-24.4
		c8.88-0.22,17.532-2.856,25.027-7.624c7.494,4.767,16.146,7.401,25.026,7.62v24.4c0,0.448-0.019,0.893-0.034,1.338
		c0.637,0.472,1.172,1.069,1.571,1.754c0.251,0.449,0.44,0.93,0.567,1.43c0.182-1.501,0.275-3.011,0.279-4.523V11.046
		c0-0.658-0.533-1.191-1.191-1.192c-8.863-0.003-17.539-2.539-25.01-7.308l-0.566-0.358c-0.391-0.248-0.889-0.248-1.278,0
		l-0.57,0.358c-7.471,4.771-16.15,7.306-25.014,7.308c-0.658,0-1.192,0.534-1.192,1.192v25.576c0.006,4.344,0.75,8.657,2.2,12.752
		L14.666,48.224z"/>
	
		<linearGradient id="Path_16900_1_" gradientUnits="userSpaceOnUse" x1="-238.2968" y1="404.4732" x2="-238.2968" y2="403.4732" gradientTransform="matrix(9.029 0 0 -12.918 2210.9873 5271.2637)">
		<stop  offset="0.13" style="stop-color:#00A9ED"/>
		<stop  offset="1" style="stop-color:#65106B"/>
	</linearGradient>
	<path id="Path_16900" fill="url(#Path_16900_1_)" d="M62.141,47.859l-1.43,0.834c-1.35,3.799-3.314,7.351-5.817,10.512h2.95
		c2.803-3.896,4.863-8.275,6.078-12.918C63.442,46.925,62.836,47.461,62.141,47.859L62.141,47.859z"/>
	
		<linearGradient id="Path_16901_1_" gradientUnits="userSpaceOnUse" x1="-258.8061" y1="401.9752" x2="-258.8061" y2="400.9752" gradientTransform="matrix(30.984 0 0 -11.918 8076.8755 4852.3145)">
		<stop  offset="0.13" style="stop-color:#00A9ED"/>
		<stop  offset="1" style="stop-color:#65106B"/>
	</linearGradient>
	<path id="Path_16901" fill="url(#Path_16901_1_)" d="M69.932,66.355H68.74v-1.191c0-1.975-1.601-3.576-3.575-3.576l0,0h-14.3
		c-1.974,0-3.575,1.602-3.575,3.576l0,0v1.191h-1.193c-1.975,0-3.575,1.601-3.575,3.574v2.385c0,0.658,0.534,1.191,1.192,1.191l0,0
		h28.6c0.658,0,1.191-0.533,1.191-1.191l0,0v-2.385C73.504,67.957,71.906,66.356,69.932,66.355z M49.672,65.164
		c0-0.658,0.533-1.193,1.191-1.193l0,0h14.301c0.658,0,1.191,0.535,1.191,1.193l0,0v1.191H49.672V65.164z M71.122,71.123H44.905
		v-1.193c0-0.658,0.533-1.191,1.191-1.191l0,0h23.836c0.656,0.002,1.189,0.535,1.189,1.191V71.123z"/>
</g>
</svg>
