<?xml version="1.0" encoding="utf-8"?>
<!-- Generator: Adobe Illustrator 16.0.0, SVG Export Plug-In . SVG Version: 6.00 Build 0)  -->
<!DOCTYPE svg PUBLIC "-//W3C//DTD SVG 1.1//EN" "http://www.w3.org/Graphics/SVG/1.1/DTD/svg11.dtd">
<svg version="1.1" id="Layer_1" xmlns="http://www.w3.org/2000/svg" xmlns:xlink="http://www.w3.org/1999/xlink" x="0px" y="0px"
	 width="64.714px" height="71.906px" viewBox="0 0 64.714 71.906" enable-background="new 0 0 64.714 71.906" xml:space="preserve">
<g id="Group_2129" transform="translate(10650.511 -6574.774)">
	<g id="burglary" transform="translate(-10676.119 6574.774)">
		<g id="Group_2122" transform="translate(48.164 17.263)">
			<g id="Group_2121">
				
					<linearGradient id="Path_17200_1_" gradientUnits="userSpaceOnUse" x1="-229.5829" y1="232.614" x2="-229.5829" y2="231.614" gradientTransform="matrix(4.05 0 0 -2.106 932.8345 489.8858)">
					<stop  offset="0.13" style="stop-color:#00A9ED"/>
					<stop  offset="1" style="stop-color:#65106B"/>
				</linearGradient>
				<path id="Path_17200" fill="url(#Path_17200_1_)" d="M3.996,0H2.052C1.47,0,0.999,0.471,0.999,1.053S1.47,2.106,2.052,2.106
					h1.944c0.582,0,1.053-0.472,1.053-1.053S4.578,0,3.996,0z"/>
			</g>
		</g>
		<g id="Group_2124" transform="translate(59.289 17.263)">
			<g id="Group_2123">
				
					<linearGradient id="Path_17201_1_" gradientUnits="userSpaceOnUse" x1="-240.7089" y1="232.6149" x2="-240.7089" y2="231.6149" gradientTransform="matrix(4.05 0 0 -2.106 977.8985 489.8858)">
					<stop  offset="0.13" style="stop-color:#00A9ED"/>
					<stop  offset="1" style="stop-color:#65106B"/>
				</linearGradient>
				<path id="Path_17201" fill="url(#Path_17201_1_)" d="M3.996,0H2.053C1.471,0,1,0.471,1,1.053s0.471,1.053,1.053,1.053h1.943
					c0.582,0,1.053-0.472,1.053-1.053S4.578,0,3.996,0z"/>
			</g>
		</g>
		<g id="Group_2126" transform="translate(44.111 13.484)">
			<g id="Group_2125">
				
					<linearGradient id="Path_17202_1_" gradientUnits="userSpaceOnUse" x1="-279.7321" y1="379.1927" x2="-279.7321" y2="378.1918" gradientTransform="matrix(23.2821 0 0 -9.6666 6525.4009 3665.519)">
					<stop  offset="0.13" style="stop-color:#00A9ED"/>
					<stop  offset="1" style="stop-color:#65106B"/>
				</linearGradient>
				<path id="Path_17202" fill="url(#Path_17202_1_)" d="M19.86,0H5.422c-2.443,0.003-4.42,1.986-4.417,4.429
					c0.003,2.163,1.569,4.006,3.703,4.358l3.041,0.5c2.983,0.489,6.025,0.506,9.013,0.05l3.801-0.578l0,0
					c2.146-0.316,3.734-2.164,3.725-4.335C24.285,1.98,22.303,0,19.86,0L19.86,0z M20.241,6.675L16.44,7.253
					c-2.771,0.422-5.59,0.407-8.356-0.047l-3.041-0.5C3.782,6.494,2.931,5.3,3.142,4.038c0.187-1.112,1.147-1.928,2.274-1.933
					h14.437c1.279,0.002,2.314,1.038,2.316,2.316c0.006,1.127-0.816,2.087-1.932,2.253H20.241z"/>
			</g>
		</g>
		<g id="Group_2128" transform="translate(25.607)">
			<g id="Group_2127">
				
					<linearGradient id="Path_17203_1_" gradientUnits="userSpaceOnUse" x1="-268.5362" y1="427.1055" x2="-268.5362" y2="426.1055" gradientTransform="matrix(64.7128 0 0 -71.906 17411.0352 30711.4648)">
					<stop  offset="0.13" style="stop-color:#00A9ED"/>
					<stop  offset="1" style="stop-color:#65106B"/>
				</linearGradient>
				<path id="Path_17203" fill="url(#Path_17203_1_)" d="M65.045,32.565L65.045,32.565l-2.5-2.171
					c-0.779-0.678-1.955-0.622-2.67,0.126c-1.416,1.482-2.967,2.828-4.637,4.019V32.9c0-1.526-0.541-3.002-1.525-4.168
					c-0.631-0.768-0.971-1.733-0.959-2.727v-10.32c0-0.582-0.471-1.053-1.053-1.053c-0.58,0-1.053,0.472-1.053,1.053l0,0V18.8
					h-1.043V5.438h0.809c0.129,0,0.234,0.105,0.234,0.234l0,0v5.054c0,0.582,0.471,1.053,1.053,1.053s1.053-0.471,1.053-1.053V5.672
					c-0.002-1.198-0.908-2.202-2.1-2.327l0,0V1.053C50.655,0.472,50.182,0,49.602,0c-0.582,0-1.055,0.472-1.055,1.053v2.279
					c-0.58-0.002-1.053,0.468-1.055,1.05c0,0.001,0,0.002,0,0.003v14.758c-0.439,0.325-0.701,0.839-0.701,1.386v15.455
					c-1-0.489-2.074-0.941-3.063-1.356c-0.721-0.3-1.42-0.6-2.021-0.877c3.117-3.983,4.719-8.972,4.719-11.414v-7.21
					c0.043-4.161-1.73-8.134-4.855-10.881C38.696,1.7,34.997,0.284,31.156,0.259h-0.024c-3.84,0.025-7.541,1.441-10.415,3.987
					c-3.127,2.746-4.902,6.719-4.859,10.881v7.21c0,2.442,1.6,7.431,4.718,11.414c-0.6,0.279-1.3,0.573-2.022,0.877
					c-2.588,1.089-5.52,2.324-6.789,3.983c-1.146,1.588-1.437,3.639-0.777,5.482l-0.3,0.057c-0.034,0.006-0.067,0.015-0.1,0.024
					c-5.68,1.673-9.58,6.886-9.58,12.808v1.328c0,0.581,0.471,1.053,1.053,1.053s1.053-0.472,1.053-1.053l0,0v-1.328
					c0-4.968,3.259-9.346,8.018-10.771L12.262,46c0.744,0.636,1.562,1.18,2.436,1.618l0.029,0.015l0.253,0.131l0.167,0.086
					l0.275,0.137l0.3,0.144l0.14,0.065c0.143,0.068,0.289,0.136,0.439,0.201c9.438,4.262,20.252,4.262,29.689,0
					c0.131-0.06,0.26-0.119,0.387-0.179l0.094-0.043l0.283-0.135l0.047-0.022v3.053c0.002,1.105,0.764,2.065,1.842,2.316
					L50.829,69.8H11.712v-7.491c0-0.582-0.47-1.055-1.052-1.055s-1.054,0.471-1.054,1.053c0,0,0,0,0,0.002V69.8H3.677
					c-0.315-0.001-0.571-0.256-0.571-0.571v-5.957c0-0.581-0.47-1.053-1.052-1.054S1,62.688,1,63.27c0,0.001,0,0.002,0,0.002v5.957
					c0.002,1.478,1.2,2.676,2.678,2.678h54.934l-4.43-1.2l4.43,1.2c1.479,0,2.68-1.199,2.68-2.678V56.982
					c0.002-1.277-0.18-2.547-0.543-3.771c0.668-0.104,1.227-0.563,1.453-1.2l0.652-1.853c0.338-0.957-0.166-2.006-1.123-2.344l0,0
					L58.848,46.8c0.078-0.273,0.119-0.557,0.121-0.842v-3.751c-0.002-0.452-0.104-0.898-0.301-1.305
					c2.365-1.605,4.549-3.464,6.512-5.541c0.736-0.776,0.705-2.002-0.07-2.74c-0.021-0.021-0.045-0.041-0.066-0.06L65.045,32.565z
					 M17.964,22.337v-7.21c-0.042-3.548,1.466-6.938,4.128-9.284c5.145-4.636,12.961-4.636,18.105,0
					c2.662,2.346,4.168,5.736,4.127,9.284v7.21c0,1.594-1.059,5.423-3.414,8.942c-0.492,0.737-1.033,1.438-1.621,2.1l0,0
					c-0.592,0.666-1.244,1.277-1.945,1.826c-0.014,0.011-0.025,0.023-0.039,0.034c-3.576,2.944-8.736,2.944-12.311,0
					c-0.014-0.012-0.027-0.025-0.042-0.036c-0.702-0.549-1.353-1.16-1.945-1.826l-0.008-0.008c-0.587-0.662-1.128-1.364-1.618-2.1
					C19.023,27.76,17.964,23.932,17.964,22.337z M38.565,43.348c-2.053,1.555-4.543,2.424-7.117,2.483h-0.6
					c-2.574-0.059-5.064-0.929-7.116-2.483c1.011-0.914,1.601-2.204,1.628-3.566V38c3.579,2.075,7.994,2.075,11.572,0v1.775
					c0.027,1.365,0.617,2.657,1.629,3.572H38.565z M45.125,46.479c-8.887,4.014-19.069,4.014-27.956,0l-0.257-0.117l-0.069-0.032
					l-0.188-0.088l-0.062-0.029c-0.164-0.078-0.319-0.154-0.468-0.229l-0.021-0.01l-0.2-0.101l-0.026-0.013
					c-0.219-0.113-0.421-0.223-0.607-0.328l0,0c-0.187-0.106-0.358-0.207-0.514-0.301l-0.011-0.006l-0.134-0.086l-0.019-0.012
					l-0.133-0.088l0,0l-0.118-0.08l-0.054-0.037l-0.05-0.036l-0.069-0.049l-0.017-0.012c-0.269-0.19-0.517-0.407-0.74-0.649
					l-0.021-0.019c-0.08-0.089-0.15-0.187-0.208-0.29c-0.655-1.268-0.554-2.795,0.262-3.965c0.929-1.215,3.7-2.383,5.933-3.321
					c0.957-0.4,1.876-0.79,2.635-1.169c0.395,0.403,0.81,0.786,1.244,1.148v3.231c0.017,1.032-0.616,1.964-1.582,2.329
					c-0.57,0.113-0.94,0.669-0.826,1.238c0.042,0.211,0.147,0.402,0.301,0.552c2.594,2.513,6.04,3.954,9.65,4.037h0.7
					c3.611-0.083,7.056-1.524,9.65-4.037c0.418-0.404,0.43-1.071,0.027-1.489c-0.15-0.154-0.342-0.259-0.553-0.301
					c-0.965-0.365-1.598-1.297-1.582-2.329v-3.243c0.434-0.362,0.846-0.745,1.24-1.149c0.758,0.379,1.676,0.766,2.633,1.168
					c1.283,0.541,2.713,1.143,3.881,1.785v7.299l0,0c-0.492,0.268-1.055,0.548-1.676,0.826H45.125z M55.239,42.97
					c0.543-0.289,1.08-0.592,1.611-0.907c0.008,0.047,0.012,0.096,0.012,0.144v3.747c0,0.046-0.004,0.092-0.01,0.138l-1.613-0.567
					V42.97z M49.176,51.343c-0.148-0.001-0.27-0.121-0.271-0.271V20.91h1.744v5.1c-0.014,1.493,0.502,2.941,1.455,4.09
					c0.662,0.786,1.025,1.781,1.025,2.809v18.434H49.176z M53.416,53.449l3.564,11.127L52.42,65.8l-1.648-12.35L53.416,53.449z
					 M52.95,69.749L52.702,67.9l4.924-1.32l0.564,1.764L52.95,69.749z M55.239,52.227V51.5l3.043,1.073
					c0.598,1.392,0.904,2.892,0.9,4.407v7.561L55.239,52.227z M60.776,49.702l-0.475,1.345l-5.063-1.783v-1.507L60.776,49.702z
					 M55.239,40.559v-3.479c2.201-1.426,4.232-3.101,6.053-4.989l2.246,1.949c-2.438,2.561-5.23,4.759-8.295,6.525L55.239,40.559z"
					/>
			</g>
		</g>
	</g>
</g>
</svg>
