<?xml version="1.0" encoding="utf-8"?>
<!-- Generator: Adobe Illustrator 16.0.0, SVG Export Plug-In . SVG Version: 6.00 Build 0)  -->
<!DOCTYPE svg PUBLIC "-//W3C//DTD SVG 1.1//EN" "http://www.w3.org/Graphics/SVG/1.1/DTD/svg11.dtd">
<svg version="1.1" id="Layer_1" xmlns="http://www.w3.org/2000/svg" xmlns:xlink="http://www.w3.org/1999/xlink" x="0px" y="0px"
	 width="66.695px" height="57.602px" viewBox="0 0 66.695 57.602" enable-background="new 0 0 66.695 57.602" xml:space="preserve">
<g id="briefcase" transform="translate(0.001 -34.908)">
	<g id="Group_1986" transform="translate(1.516 66.741)">
		<g id="Group_1985">
			
				<linearGradient id="Path_16788_1_" gradientUnits="userSpaceOnUse" x1="-269.0265" y1="378.2703" x2="-269.0265" y2="377.2703" gradientTransform="matrix(63.6693 0 0 -25.7724 17160.5625 9748.9346)">
				<stop  offset="0.13" style="stop-color:#00A9ED"/>
				<stop  offset="1" style="stop-color:#65106B"/>
			</linearGradient>
			<path id="Path_16788" fill="url(#Path_16788_1_)" d="M62.149,0c-0.789-0.048-1.469,0.554-1.516,1.343
				c-0.004,0.058-0.004,0.116,0,0.174v19.706c0.047,0.789-0.554,1.468-1.344,1.516c-0.057,0.004-0.115,0.004-0.173,0H4.547
				c-0.79,0.048-1.468-0.554-1.516-1.343c-0.003-0.058-0.003-0.115,0-0.173V1.516C3.079,0.726,2.478,0.048,1.688,0
				C1.631-0.003,1.573-0.003,1.515,0c-0.79-0.048-1.468,0.554-1.516,1.343c-0.003,0.058-0.003,0.116,0,0.174v19.706
				c-0.045,2.466,1.917,4.501,4.383,4.547c0.055,0.001,0.109,0.001,0.164,0h54.57c2.467,0.045,4.502-1.918,4.547-4.384
				c0.001-0.053,0.002-0.105,0-0.158V1.516C63.711,0.726,63.11,0.048,62.32,0C62.264-0.003,62.206-0.003,62.149,0z"/>
		</g>
	</g>
	<g id="Group_1988" transform="translate(0 45.52)">
		<g id="Group_1987">
			
				<linearGradient id="Path_16789_1_" gradientUnits="userSpaceOnUse" x1="-267.699" y1="401.7715" x2="-267.699" y2="400.7715" gradientTransform="matrix(66.7035 0 0 -30.3194 17889.8301 12181.4707)">
				<stop  offset="0.13" style="stop-color:#00A9ED"/>
				<stop  offset="1" style="stop-color:#65106B"/>
			</linearGradient>
			<path id="Path_16789" fill="url(#Path_16789_1_)" d="M62.15,0H4.547C2.081-0.045,0.046,1.917,0,4.384
				c-0.001,0.054-0.001,0.108,0,0.163v9.7c0.011,2.094,1.45,3.91,3.486,4.399l23.8,5.301v4.851
				c-0.049,0.789,0.551,1.469,1.341,1.518c0.058,0.004,0.115,0.004,0.173,0h9.1c0.79,0.048,1.469-0.553,1.517-1.343
				c0.003-0.058,0.003-0.115,0-0.173v-4.851l23.8-5.301c2.036-0.489,3.475-2.306,3.486-4.399v-9.7
				c0.043-2.466-1.92-4.501-4.387-4.544c-0.055-0.001-0.111-0.001-0.166,0V0z M36.38,27.285h-6.063v-6.063h6.063V27.285z
				 M63.665,14.249c0.031,0.737-0.486,1.385-1.213,1.516l-23.041,5.154v-1.213c0.048-0.79-0.553-1.469-1.343-1.517
				c-0.058-0.003-0.116-0.003-0.173,0H28.8c-0.789-0.048-1.468,0.554-1.516,1.343c-0.003,0.059-0.003,0.116,0,0.174v1.213
				l-23.04-5.154C3.518,15.634,3,14.986,3.031,14.249v-9.7C2.985,3.76,3.588,3.082,4.377,3.036c0.057-0.004,0.113-0.004,0.17,0
				h57.601c0.789-0.048,1.468,0.553,1.516,1.343c0.004,0.058,0.004,0.115,0,0.173L63.665,14.249z"/>
		</g>
	</g>
	<g id="Group_1990" transform="translate(21.222 34.909)">
		<g id="Group_1989">
			
				<linearGradient id="Path_16790_1_" gradientUnits="userSpaceOnUse" x1="-282.0016" y1="373.6404" x2="-282.0016" y2="372.6404" gradientTransform="matrix(24.2555 0 0 -7.5817 6852.2144 2832.8215)">
				<stop  offset="0.13" style="stop-color:#00A9ED"/>
				<stop  offset="1" style="stop-color:#65106B"/>
			</linearGradient>
			<path id="Path_16790" fill="url(#Path_16790_1_)" d="M19.707,0H4.547C2.081-0.045,0.045,1.918,0,4.384
				c-0.001,0.055-0.001,0.109,0,0.163v1.517C-0.001,6.9,0.677,7.58,1.515,7.581c0.837,0.001,1.517-0.677,1.518-1.514
				c0-0.002,0-0.003,0-0.004V4.547C2.984,3.758,3.585,3.079,4.375,3.031c0.058-0.004,0.116-0.004,0.173,0h15.159
				c0.789-0.048,1.467,0.554,1.516,1.343c0.004,0.058,0.004,0.115,0,0.173v1.517c0.001,0.837,0.68,1.515,1.518,1.514
				c0.836-0.001,1.514-0.678,1.514-1.514V4.547C24.299,2.081,22.337,0.045,19.871,0C19.816-0.001,19.762-0.001,19.707,0z"/>
		</g>
	</g>
</g>
</svg>
