<?xml version="1.0" encoding="utf-8"?>
<!-- Generator: Adobe Illustrator 16.0.0, SVG Export Plug-In . SVG Version: 6.00 Build 0)  -->
<!DOCTYPE svg PUBLIC "-//W3C//DTD SVG 1.1//EN" "http://www.w3.org/Graphics/SVG/1.1/DTD/svg11.dtd">
<svg version="1.1" id="Layer_1" xmlns="http://www.w3.org/2000/svg" xmlns:xlink="http://www.w3.org/1999/xlink" x="0px" y="0px"
	 width="72.555px" height="72.555px" viewBox="0 0 72.555 72.555" enable-background="new 0 0 72.555 72.555" xml:space="preserve">
<g id="outline" transform="translate(-2 -2)">
	
		<linearGradient id="Path_16913_1_" gradientUnits="userSpaceOnUse" x1="-254.74" y1="420.3318" x2="-254.74" y2="419.3318" gradientTransform="matrix(21.766 0 0 -26.5954 5597.458 11180.915)">
		<stop  offset="0.13" style="stop-color:#00A9ED"/>
		<stop  offset="1" style="stop-color:#65106B"/>
	</linearGradient>
	<path id="Path_16913" fill="url(#Path_16913_1_)" d="M52.788,28.595c6.006-0.01,10.872-4.875,10.883-10.881v-4.837
		C63.669,6.868,58.794,1.997,52.784,2c-6.008,0.002-10.876,4.871-10.879,10.878v4.837C41.916,23.72,46.783,28.586,52.788,28.595z
		 M44.323,12.875C44.272,8.2,48.02,4.37,52.695,4.319c4.675-0.052,8.506,3.697,8.557,8.372c0.001,0.062,0.001,0.123,0,0.184v4.84
		c0,4.676-3.79,8.466-8.465,8.466s-8.465-3.79-8.465-8.466L44.323,12.875z"/>
	
		<linearGradient id="Path_16914_1_" gradientUnits="userSpaceOnUse" x1="-260.5603" y1="425.9519" x2="-260.5603" y2="424.9519" gradientTransform="matrix(42.323 0 0 -43.532 11081.083 18573.541)">
		<stop  offset="0.13" style="stop-color:#00A9ED"/>
		<stop  offset="1" style="stop-color:#65106B"/>
	</linearGradient>
	<path id="Path_16914" fill="url(#Path_16914_1_)" d="M63.671,31.016h-15.72v2.418h0.391l2.007,5.016l-2.4,26.314
		c-0.033,0.357,0.095,0.712,0.349,0.967l3.635,3.628c0.472,0.472,1.237,0.473,1.709,0h0.001l3.628-3.628
		c0.254-0.255,0.382-0.609,0.349-0.967L55.231,38.45l2-5.016h6.439c4.672,0.008,8.455,3.794,8.46,8.465v30.23h-6.042v-30.23h-2.418
		v30.23H41.905v-4.837h-2.419v4.837h-7.255v2.418h41.114c0.667,0,1.209-0.541,1.209-1.209V41.899
		C74.545,35.892,69.677,31.025,63.671,31.016z M54.631,33.434l-1.45,3.628h-0.781l-1.451-3.628H54.631z M52.788,66.792l-2.373-2.376
		l2.268-24.938h0.21l2.268,24.938L52.788,66.792z"/>
	
		<linearGradient id="Path_16915_1_" gradientUnits="userSpaceOnUse" x1="-260.7317" y1="427.3884" x2="-260.7317" y2="426.3884" gradientTransform="matrix(43.532 0 0 -51.9968 11373.9199 22245.4063)">
		<stop  offset="0.13" style="stop-color:#00A9ED"/>
		<stop  offset="1" style="stop-color:#65106B"/>
	</linearGradient>
	<path id="Path_16915" fill="url(#Path_16915_1_)" d="M16.9,70.706l6.249,3.677c0.378,0.222,0.848,0.222,1.226,0l6.249-3.677
		c9.217-5.447,14.882-15.348,14.908-26.054V31.017c0-0.668-0.541-1.209-1.209-1.209c-6.801-0.015-13.415-2.22-18.864-6.288
		l-0.967-0.727c-0.43-0.322-1.021-0.322-1.451,0l-0.967,0.727c-5.449,4.068-12.064,6.273-18.865,6.287
		C2.542,29.807,2,30.348,2,31.016c0,0,0,0,0,0.001v13.635C2.025,55.356,7.686,65.257,16.9,70.706z M4.418,32.203
		c6.906-0.261,13.569-2.615,19.106-6.751l0.242-0.18l0.241,0.18c5.537,4.135,12.201,6.488,19.106,6.749v12.451
		C43.091,54.503,37.88,63.611,29.4,68.624l-5.637,3.313l-5.638-3.313C9.649,63.61,4.44,54.501,4.418,44.652V32.203z"/>
	
		<linearGradient id="Path_16916_1_" gradientUnits="userSpaceOnUse" x1="-259.0193" y1="425.2751" x2="-259.0193" y2="424.2751" gradientTransform="matrix(33.858 0 0 -40.4355 8793.6436 17224.75)">
		<stop  offset="0.13" style="stop-color:#00A9ED"/>
		<stop  offset="1" style="stop-color:#65106B"/>
	</linearGradient>
	<path id="Path_16916" fill="url(#Path_16916_1_)" d="M19.356,66.537l3.8,2.235c0.379,0.221,0.847,0.221,1.226,0l3.801-2.233
		c7.738-4.58,12.493-12.897,12.513-21.89v-9.114c0.001-0.607-0.45-1.121-1.052-1.2c-5.43-0.72-10.628-2.646-15.217-5.636
		c-0.401-0.263-0.921-0.263-1.322,0c-4.588,2.99-9.787,4.916-15.215,5.637c-0.603,0.079-1.053,0.592-1.053,1.199v9.114
		C6.857,53.642,11.614,61.961,19.356,66.537z M9.255,36.582c5.151-0.826,10.085-2.674,14.512-5.434
		c4.427,2.76,9.36,4.607,14.511,5.434v8.068c-0.019,8.136-4.323,15.66-11.327,19.8l-3.184,1.874l-3.186-1.872
		c-7.004-4.14-11.308-11.664-11.326-19.8V36.582z"/>
	
		<linearGradient id="Rectangle_723_1_" gradientUnits="userSpaceOnUse" x1="-136.3113" y1="242.6882" x2="-136.3113" y2="241.6882" gradientTransform="matrix(2 0 0 -2 296.6233 519.925)">
		<stop  offset="0.13" style="stop-color:#00A9ED"/>
		<stop  offset="1" style="stop-color:#65106B"/>
	</linearGradient>
	<rect id="Rectangle_723" x="23" y="34.55" fill="url(#Rectangle_723_1_)" width="2" height="2"/>
	
		<linearGradient id="Rectangle_724_1_" gradientUnits="userSpaceOnUse" x1="-136.3113" y1="306.7175" x2="-136.3113" y2="305.7175" gradientTransform="matrix(2 0 0 -3 285.6233 957.7021)">
		<stop  offset="0.13" style="stop-color:#00A9ED"/>
		<stop  offset="1" style="stop-color:#65106B"/>
	</linearGradient>
	<rect id="Rectangle_724" x="12" y="37.55" fill="url(#Rectangle_724_1_)" width="2" height="3"/>
	
		<linearGradient id="Rectangle_725_1_" gradientUnits="userSpaceOnUse" x1="-136.3113" y1="306.7175" x2="-136.3113" y2="305.7175" gradientTransform="matrix(2 0 0 -3 285.6233 966.7021)">
		<stop  offset="0.13" style="stop-color:#00A9ED"/>
		<stop  offset="1" style="stop-color:#65106B"/>
	</linearGradient>
	<rect id="Rectangle_725" x="12" y="46.55" fill="url(#Rectangle_725_1_)" width="2" height="3"/>
	
		<linearGradient id="Rectangle_726_1_" gradientUnits="userSpaceOnUse" x1="-179.7815" y1="306.7175" x2="-179.7815" y2="305.7175" gradientTransform="matrix(3 0 0 -3 573.8462 957.7021)">
		<stop  offset="0.13" style="stop-color:#00A9ED"/>
		<stop  offset="1" style="stop-color:#65106B"/>
	</linearGradient>
	<rect id="Rectangle_726" x="33" y="37.55" fill="url(#Rectangle_726_1_)" width="3" height="3"/>
	
		<linearGradient id="Rectangle_727_1_" gradientUnits="userSpaceOnUse" x1="-179.7815" y1="306.7175" x2="-179.7815" y2="305.7175" gradientTransform="matrix(3 0 0 -3 573.8462 966.7021)">
		<stop  offset="0.13" style="stop-color:#00A9ED"/>
		<stop  offset="1" style="stop-color:#65106B"/>
	</linearGradient>
	<rect id="Rectangle_727" x="33" y="46.55" fill="url(#Rectangle_727_1_)" width="3" height="3"/>
	
		<linearGradient id="Rectangle_728_1_" gradientUnits="userSpaceOnUse" x1="-179.7815" y1="306.7185" x2="-179.7815" y2="305.7185" gradientTransform="matrix(3 0 0 -3 555.8462 973.7021)">
		<stop  offset="0.13" style="stop-color:#00A9ED"/>
		<stop  offset="1" style="stop-color:#65106B"/>
	</linearGradient>
	<rect id="Rectangle_728" x="15" y="53.55" fill="url(#Rectangle_728_1_)" width="3" height="3"/>
	
		<linearGradient id="Rectangle_729_1_" gradientUnits="userSpaceOnUse" x1="-136.3113" y1="306.7185" x2="-136.3113" y2="305.7185" gradientTransform="matrix(2 0 0 -3 303.6233 973.7021)">
		<stop  offset="0.13" style="stop-color:#00A9ED"/>
		<stop  offset="1" style="stop-color:#65106B"/>
	</linearGradient>
	<rect id="Rectangle_729" x="30" y="53.55" fill="url(#Rectangle_729_1_)" width="2" height="3"/>
	
		<linearGradient id="Rectangle_730_1_" gradientUnits="userSpaceOnUse" x1="-136.3113" y1="242.6882" x2="-136.3113" y2="241.6882" gradientTransform="matrix(2 0 0 -2 296.6233 545.925)">
		<stop  offset="0.13" style="stop-color:#00A9ED"/>
		<stop  offset="1" style="stop-color:#65106B"/>
	</linearGradient>
	<rect id="Rectangle_730" x="23" y="60.55" fill="url(#Rectangle_730_1_)" width="2" height="2"/>
</g>
</svg>
