<?xml version="1.0" encoding="utf-8"?>
<!-- Generator: Adobe Illustrator 16.0.0, SVG Export Plug-In . SVG Version: 6.00 Build 0)  -->
<!DOCTYPE svg PUBLIC "-//W3C//DTD SVG 1.1//EN" "http://www.w3.org/Graphics/SVG/1.1/DTD/svg11.dtd">
<svg version="1.1" id="Layer_1" xmlns="http://www.w3.org/2000/svg" xmlns:xlink="http://www.w3.org/1999/xlink" x="0px" y="0px"
	 width="70.424px" height="70.5px" viewBox="0 0 70.424 70.5" enable-background="new 0 0 70.424 70.5" xml:space="preserve">
<g id="cross_1_" transform="translate(0.145 0.001)">
	
		<linearGradient id="Path_16983_1_" gradientUnits="userSpaceOnUse" x1="-264.3252" y1="423.5" x2="-264.3252" y2="422.5" gradientTransform="matrix(46.696 0 0 -46.7 12378.4219 19789.3828)">
		<stop  offset="0.13" style="stop-color:#00A9ED"/>
		<stop  offset="1" style="stop-color:#65106B"/>
	</linearGradient>
	<path id="Path_16983" fill="url(#Path_16983_1_)" d="M29.97,58.603h11.058c1.631-0.002,2.952-1.322,2.954-2.953V44.626
		c0.003-0.492,0.401-0.891,0.894-0.893h11.018c1.631-0.002,2.952-1.324,2.954-2.955V29.721c-0.002-1.63-1.323-2.952-2.954-2.954
		H44.875c-0.492-0.003-0.891-0.402-0.894-0.894V14.856c-0.002-1.63-1.323-2.952-2.953-2.954H29.97
		c-1.631,0.002-2.953,1.323-2.954,2.954v11.017c-0.004,0.492-0.402,0.891-0.895,0.894H15.105c-1.631,0.001-2.952,1.323-2.954,2.954
		V40.78c0.002,1.631,1.323,2.951,2.954,2.953h11.017c0.492,0.004,0.891,0.402,0.895,0.895v11.018
		C27.015,57.276,28.337,58.601,29.97,58.603z M26.122,41.673H15.105c-0.492-0.004-0.891-0.402-0.895-0.895V29.721
		c0.004-0.492,0.402-0.891,0.895-0.894h11.017c1.631-0.002,2.952-1.323,2.954-2.954V14.856c0.003-0.492,0.401-0.891,0.895-0.894
		h11.058c0.492,0.003,0.891,0.402,0.894,0.894v11.017c0.002,1.631,1.323,2.952,2.954,2.954h11.018
		c0.492,0.003,0.891,0.401,0.894,0.894V40.78c-0.003,0.492-0.401,0.891-0.894,0.893H44.875c-1.631,0.002-2.952,1.324-2.954,2.955
		v11.018c-0.003,0.492-0.401,0.891-0.894,0.893H29.97c-0.493-0.002-0.892-0.4-0.895-0.893v-11.02
		C29.074,42.995,27.752,41.675,26.122,41.673z"/>
	
		<linearGradient id="Path_16984_1_" gradientUnits="userSpaceOnUse" x1="-266.2353" y1="426.3144" x2="-266.2353" y2="425.3144" gradientTransform="matrix(70.8187 0 0 -70.8807 18889.7012 30217.4766)">
		<stop  offset="0.13" style="stop-color:#00A9ED"/>
		<stop  offset="1" style="stop-color:#65106B"/>
	</linearGradient>
	<path id="Path_16984" fill="url(#Path_16984_1_)" d="M69.621,36.378c-0.62-0.043-1.157,0.426-1.199,1.047l-0.001,0.002
		c-1.202,18.188-16.919,31.955-35.104,30.752S1.362,51.259,2.565,33.074C3.767,14.888,19.484,1.12,37.669,2.322
		C54.18,3.414,67.33,16.563,68.42,33.074c0.031,0.62,0.56,1.098,1.18,1.067c0.621-0.031,1.099-0.559,1.068-1.18
		c-0.001-0.011-0.002-0.022-0.003-0.034C69.383,13.502,52.596-1.206,33.171,0.077c-8.528,0.563-16.563,4.206-22.605,10.25
		C-3.41,23.878-3.753,46.194,9.797,60.169c13.551,13.977,35.866,14.32,49.842,0.77c6.514-6.104,10.459-14.457,11.031-23.365
		c0.043-0.619-0.425-1.156-1.045-1.199c-0.001,0-0.003,0-0.005,0V36.378z"/>
</g>
</svg>
