<?xml version="1.0" encoding="utf-8"?>
<!-- Generator: Adobe Illustrator 16.0.0, SVG Export Plug-In . SVG Version: 6.00 Build 0)  -->
<!DOCTYPE svg PUBLIC "-//W3C//DTD SVG 1.1//EN" "http://www.w3.org/Graphics/SVG/1.1/DTD/svg11.dtd">
<svg version="1.1" id="Layer_1" xmlns="http://www.w3.org/2000/svg" xmlns:xlink="http://www.w3.org/1999/xlink" x="0px" y="0px"
	 width="94.027px" height="55.752px" viewBox="0 0 94.027 55.752" enable-background="new 0 0 94.027 55.752" xml:space="preserve">
<g id="delivery-truck" transform="translate(0 -104.212)">
	<g id="Group_1972" transform="translate(17.666 148.373)">
		<g id="Group_1971">
			
				<linearGradient id="Path_16751_1_" gradientUnits="userSpaceOnUse" x1="-231.5867" y1="311.3165" x2="-231.5867" y2="310.3165" gradientTransform="matrix(5.698 0 0 -5.698 1323.4292 1773.8812)">
				<stop  offset="0.13" style="stop-color:#00A9ED"/>
				<stop  offset="1" style="stop-color:#65106B"/>
			</linearGradient>
			<path id="Path_16751" fill="url(#Path_16751_1_)" d="M3.848,0C2.275,0,1,1.276,1,2.849c0,1.574,1.275,2.85,2.849,2.85
				s2.849-1.275,2.849-2.85l0,0C6.697,1.276,5.422,0,3.848,0z"/>
		</g>
	</g>
	<g id="Group_1974" transform="translate(76.551 148.373)">
		<g id="Group_1973">
			
				<linearGradient id="Path_16752_1_" gradientUnits="userSpaceOnUse" x1="-290.4726" y1="311.3165" x2="-290.4726" y2="310.3165" gradientTransform="matrix(5.698 0 0 -5.698 1658.9575 1773.8812)">
				<stop  offset="0.13" style="stop-color:#00A9ED"/>
				<stop  offset="1" style="stop-color:#65106B"/>
			</linearGradient>
			<path id="Path_16752" fill="url(#Path_16752_1_)" d="M3.848,0C2.275,0,1,1.276,1,2.849c0,1.574,1.275,2.85,2.849,2.85
				c1.574,0,2.85-1.275,2.85-2.85l0,0C6.698,1.276,5.422,0,3.848,0z"/>
		</g>
	</g>
	<g id="Group_1976" transform="translate(0 104.209)">
		<g id="Group_1975">
			
				<linearGradient id="Path_16753_1_" gradientUnits="userSpaceOnUse" x1="-255.3157" y1="417.3399" x2="-255.3157" y2="416.3399" gradientTransform="matrix(94.024 0 0 -55.768 24053.8594 23274.2051)">
				<stop  offset="0.13" style="stop-color:#00A9ED"/>
				<stop  offset="1" style="stop-color:#65106B"/>
			</linearGradient>
			<path id="Path_16753" fill="url(#Path_16753_1_)" d="M92.071,25.898l-10.6-3.535l-4.956-13.63
				c-0.626-1.706-2.249-2.841-4.065-2.842H59.7V2.853c-0.003-1.573-1.277-2.848-2.85-2.85h-53C2.278,0.004,1.003,1.277,1,2.851
				v39.748c0.002,1.572,1.276,2.847,2.849,2.849h9.071c-0.871,4.746,2.271,9.301,7.018,10.172c4.746,0.871,9.3-2.271,10.171-7.018
				c0.191-1.043,0.191-2.111,0-3.154h41.7c-0.875,4.746,2.263,9.303,7.009,10.178s9.303-2.263,10.178-7.009
				c0.219-1.187,0.189-2.406-0.086-3.581l2.915-1.457c1.967-0.977,3.207-2.986,3.199-5.182v-8.4c0.003-1.86-1.188-3.512-2.952-4.1
				V25.898z M3.755,2.851c0-0.056,0.045-0.101,0.1-0.101h53c0.056,0,0.101,0.045,0.101,0.101v29.541h-53.2V2.851z M21.514,52.997
				c-3.305,0-5.982-2.679-5.982-5.983c0-3.304,2.678-5.982,5.982-5.982s5.983,2.679,5.983,5.982
				C27.498,50.318,24.819,52.997,21.514,52.997L21.514,52.997z M56.94,42.691H29.099c-2.382-4.192-7.711-5.659-11.903-3.277
				c-1.367,0.777-2.499,1.909-3.276,3.277H3.848c-0.053-0.003-0.095-0.047-0.095-0.101v-7.456H56.94V42.691z M75.688,14.531
				l2.746,7.55h-2.958l-2.746-7.55H75.688L75.688,14.531z M59.7,8.644h12.75c0.658,0.001,1.246,0.412,1.473,1.03l0.765,2.101H59.7
				V8.644z M59.7,14.532h10.1l2.746,7.55H59.7V14.532z M80.399,52.997c-3.304,0-5.982-2.679-5.982-5.983
				c0-3.304,2.679-5.982,5.982-5.982c3.305,0,5.983,2.679,5.983,5.982C86.383,50.318,83.704,52.997,80.399,52.997L80.399,52.997z
				 M92.271,32.392h-1.566c-0.761,0.02-1.361,0.653-1.341,1.414c0.02,0.732,0.608,1.321,1.341,1.341h1.566v3.245
				c0.004,1.152-0.647,2.207-1.68,2.719l-2.727,1.363c-2.503-4.123-7.874-5.437-11.996-2.934c-1.271,0.771-2.324,1.855-3.06,3.148
				H59.7v-7.551h25.116c0.761,0.021,1.395-0.579,1.415-1.34s-0.58-1.395-1.341-1.415c-0.024,0-0.049,0-0.074,0H59.7v-7.55h20.477
				L91.2,28.511c0.64,0.213,1.071,0.813,1.07,1.486L92.271,32.392L92.271,32.392z"/>
		</g>
	</g>
</g>
</svg>
