<?xml version="1.0" encoding="utf-8"?>
<!-- Generator: Adobe Illustrator 16.0.0, SVG Export Plug-In . SVG Version: 6.00 Build 0)  -->
<!DOCTYPE svg PUBLIC "-//W3C//DTD SVG 1.1//EN" "http://www.w3.org/Graphics/SVG/1.1/DTD/svg11.dtd">
<svg version="1.1" id="Layer_1" xmlns="http://www.w3.org/2000/svg" xmlns:xlink="http://www.w3.org/1999/xlink" x="0px" y="0px"
	 width="71.711px" height="71.711px" viewBox="0 0 71.711 71.711" enable-background="new 0 0 71.711 71.711" xml:space="preserve">
<g id="Group_2000" transform="translate(-1005.001 -2208)">
	<g id="safe" transform="translate(1005.001 2208)">
		
			<linearGradient id="Path_16818_1_" gradientUnits="userSpaceOnUse" x1="-265.501" y1="426.979" x2="-265.501" y2="426.0063" gradientTransform="matrix(71.711 0 0 -71.7116 19075.2324 30620.3125)">
			<stop  offset="0.13" style="stop-color:#00A9ED"/>
			<stop  offset="1" style="stop-color:#65106B"/>
		</linearGradient>
		<path id="Path_16818" fill="url(#Path_16818_1_)" d="M70.047,37.975l-9.684-5.753v-6.61c0-0.751-0.609-1.361-1.361-1.361l0,0
			H54.92c-0.571-2.161-1.432-4.236-2.558-6.167l2.888-2.887c0.532-0.531,0.532-1.393,0-1.925c0,0,0,0,0-0.001l-7.161-7.16
			c-0.532-0.532-1.394-0.532-1.926-0.001c0,0,0,0.001-0.002,0.001l-2.886,2.887c-1.931-1.125-4.006-1.984-6.167-2.555V2.361
			C37.109,1.609,36.5,1,35.748,1l0,0H25.616c-0.751,0-1.361,0.609-1.361,1.361v4.072c-2.165,0.569-4.243,1.428-6.178,2.554
			l-2.876-2.875c-0.531-0.532-1.393-0.532-1.925-0.001c0,0,0,0.001-0.001,0.001l-7.164,7.164C5.58,13.806,5.579,14.668,6.11,15.2
			c0,0,0.001,0,0.001,0.001l2.869,2.869c-1.131,1.937-1.995,4.017-2.568,6.186H2.361C1.609,24.255,1,24.864,1,25.616v10.131
			c0,0.752,0.609,1.361,1.361,1.361l0,0h4.043c0.572,2.172,1.436,4.257,2.568,6.197l-2.858,2.857
			c-0.532,0.532-0.532,1.392-0.001,1.926c0,0,0.001,0,0.001,0l7.164,7.163c0.531,0.532,1.393,0.532,1.925,0.002
			c0-0.002,0.001-0.002,0.001-0.002l2.858-2.857c1.94,1.132,4.024,1.994,6.196,2.565v4.042c0,0.752,0.61,1.361,1.362,1.361l0,0
			h10.129c0.752,0,1.361-0.609,1.361-1.361l0,0v-1.516c3.042,6.243,8.479,10.988,15.075,13.156c0.277,0.091,0.577,0.091,0.854,0
			c10.557-3.471,17.687-13.332,17.673-24.445v-7.052c-0.002-0.48-0.255-0.923-0.666-1.167L70.047,37.975z M34.385,53.883v3.762
			h-7.407v-3.762c0-0.64-0.444-1.194-1.069-1.331c-2.6-0.562-5.077-1.585-7.313-3.024c-0.539-0.347-1.247-0.271-1.699,0.183
			l-2.654,2.652L9,47.126l2.653-2.654c0.454-0.452,0.529-1.16,0.183-1.699c-1.44-2.237-2.465-4.715-3.027-7.314
			c-0.137-0.625-0.691-1.071-1.331-1.07H3.722v-7.408h3.761c0.64,0,1.194-0.444,1.331-1.069c0.565-2.597,1.592-5.071,3.032-7.305
			c0.347-0.539,0.271-1.247-0.182-1.7L9,14.238L14.238,9l2.671,2.671c0.453,0.452,1.159,0.528,1.697,0.183
			C20.84,10.42,23.312,9.4,25.906,8.84c0.623-0.137,1.068-0.688,1.069-1.327V3.722h7.407v3.792c0,0.64,0.444,1.193,1.069,1.33
			c2.592,0.563,5.062,1.587,7.291,3.021c0.539,0.347,1.247,0.271,1.699-0.183l2.683-2.683l5.238,5.239l-2.683,2.682
			c-0.452,0.453-0.53,1.16-0.183,1.699c1.436,2.229,2.461,4.697,3.024,7.288c0.137,0.625,0.691,1.069,1.329,1.069h3.792v3.627
			l-4.333-2.579c-0.429-0.255-0.962-0.255-1.392,0l-4.921,2.924v-0.272c-0.004-9.009-7.312-16.309-16.322-16.304
			c-9.009,0.005-16.309,7.313-16.304,16.322c0.005,9.01,7.313,16.308,16.322,16.305c1.288-0.002,2.57-0.154,3.822-0.456
			c0.027,2.039,0.295,4.068,0.801,6.047c-0.554,0.187-0.927,0.705-0.927,1.289L34.385,53.883z M35.178,37.979
			c-0.412,0.244-0.665,0.687-0.666,1.165v4.582c-7.204,2.117-14.759-2.009-16.875-9.213c-2.116-7.204,2.009-14.759,9.213-16.875
			s14.76,2.009,16.875,9.213c0.366,1.244,0.551,2.533,0.553,3.83c-0.002,0.661-0.05,1.321-0.146,1.974L35.178,37.979z
			 M67.989,46.204c0.01,9.769-6.157,18.476-15.377,21.707c-9.222-3.231-15.389-11.942-15.377-21.713v-6.276l15.377-9.139
			l15.377,9.139V46.204z"/>
		
			<linearGradient id="Path_16819_1_" gradientUnits="userSpaceOnUse" x1="-259.1279" y1="420.1743" x2="-259.1279" y2="419.2026" gradientTransform="matrix(26.034 0 0 -31.5779 6798.7402 13302.3984)">
			<stop  offset="0.13" style="stop-color:#00A9ED"/>
			<stop  offset="1" style="stop-color:#65106B"/>
		</linearGradient>
		<path id="Path_16819" fill="url(#Path_16819_1_)" d="M51.915,34.365l-11.291,6.708c-0.412,0.243-0.665,0.688-0.666,1.165v3.953
			c0,8.041,4.748,15.324,12.107,18.567c0.348,0.153,0.746,0.153,1.094,0c7.358-3.243,12.107-10.526,12.105-18.567v-3.947
			c0-0.479-0.254-0.923-0.666-1.165l-11.292-6.709C52.879,34.114,52.346,34.112,51.915,34.365z M62.543,43.018v3.176
			c0.004,6.748-3.856,12.901-9.932,15.833c-6.074-2.932-9.934-9.081-9.932-15.827v-3.177l9.932-5.9L62.543,43.018z"/>
		
			<linearGradient id="Path_16820_1_" gradientUnits="userSpaceOnUse" x1="-244.6245" y1="386.3423" x2="-244.6245" y2="385.3696" gradientTransform="matrix(10.6335 0 0 -8.3528 2655.0054 3272.0471)">
			<stop  offset="0.13" style="stop-color:#00A9ED"/>
			<stop  offset="1" style="stop-color:#65106B"/>
		</linearGradient>
		<path id="Path_16820" fill="url(#Path_16820_1_)" d="M50.933,48.568c-0.531-0.534-1.394-0.534-1.925,0
			c-0.532,0.531-0.532,1.394,0,1.925l2.217,2.218c0.532,0.531,1.395,0.531,1.926,0l0,0l5.396-5.396c0.532-0.533,0.532-1.396,0-1.927
			c-0.531-0.531-1.394-0.531-1.925,0l-4.434,4.434L50.933,48.568z"/>
	</g>
	
		<linearGradient id="flash_1_" gradientUnits="userSpaceOnUse" x1="764.084" y1="2625.6743" x2="764.084" y2="2624.7017" gradientTransform="matrix(12.1715 3.4957 5.6013 -19.503 -22968.6504 50766.7344)">
		<stop  offset="0.13" style="stop-color:#00A9ED"/>
		<stop  offset="1" style="stop-color:#65106B"/>
	</linearGradient>
	<path id="flash" fill="url(#flash_1_)" d="M1042.275,2238.227c-0.036-0.145-0.146-0.259-0.288-0.3l-5.201-1.494l2.787-6.407
		c0.086-0.212-0.015-0.455-0.227-0.542c-0.146-0.059-0.312-0.031-0.43,0.072l-9.501,9.258c-0.168,0.154-0.18,0.416-0.025,0.584
		c0.051,0.056,0.117,0.097,0.19,0.118l5.12,1.471l-2.605,6.471c-0.081,0.215,0.028,0.454,0.243,0.533
		c0.144,0.054,0.307,0.023,0.422-0.079l9.397-9.287c0.106-0.103,0.149-0.256,0.113-0.4L1042.275,2238.227z"/>
</g>
</svg>
