<?xml version="1.0" encoding="utf-8"?>
<!-- Generator: Adobe Illustrator 16.0.0, SVG Export Plug-In . SVG Version: 6.00 Build 0)  -->
<!DOCTYPE svg PUBLIC "-//W3C//DTD SVG 1.1//EN" "http://www.w3.org/Graphics/SVG/1.1/DTD/svg11.dtd">
<svg version="1.1" id="Layer_1" xmlns="http://www.w3.org/2000/svg" xmlns:xlink="http://www.w3.org/1999/xlink" x="0px" y="0px"
	 width="73.939px" height="73.934px" viewBox="0 0 73.939 73.934" enable-background="new 0 0 73.939 73.934" xml:space="preserve">
<g id="burning-house" transform="translate(0 -0.494)">
	
		<linearGradient id="Path_16775_1_" gradientUnits="userSpaceOnUse" x1="-264.5115" y1="428.775" x2="-264.5115" y2="427.774" gradientTransform="matrix(73.9407 0 0 -73.9348 19595.1641 31701.8164)">
		<stop  offset="0.13" style="stop-color:#00A9ED"/>
		<stop  offset="1" style="stop-color:#65106B"/>
	</linearGradient>
	<path id="Path_16775" fill="url(#Path_16775_1_)" d="M72.44,25.944L41.281,1.854c-2.599-1.821-6.062-1.813-8.651,0.021
		L1.527,25.924c-1.285,0.869-1.838,2.485-1.353,3.96C0.71,31.39,2.103,32.424,3.7,32.5v37c0.003,2.721,2.208,4.926,4.929,4.93
		h56.686c2.721-0.004,4.926-2.209,4.929-4.93v-37c1.596-0.077,2.986-1.11,3.521-2.615C74.249,28.422,73.709,26.816,72.44,25.944z
		 M65.315,71.962H8.625C7.266,71.961,6.163,70.86,6.16,69.5V31.83L37,7.893L67.78,31.83V69.5c-0.001,1.361-1.104,2.464-2.465,2.465
		V71.962z M71.421,29.119c-0.243,0.616-0.862,0.999-1.522,0.942h-0.378L38.379,5.846c-0.015-0.012-0.033-0.014-0.049-0.024
		c-0.015-0.011-0.022-0.028-0.039-0.038c-0.843-0.52-1.913-0.496-2.731,0.062L4.418,30.061H4.04
		c-0.66,0.057-1.279-0.326-1.522-0.942c-0.147-0.473,0.057-0.984,0.489-1.225L34.108,3.847c1.704-1.202,3.979-1.211,5.692-0.022
		l31.158,24.089C71.378,28.157,71.571,28.659,71.421,29.119L71.421,29.119z"/>
	
		<linearGradient id="Path_16776_1_" gradientUnits="userSpaceOnUse" x1="-261.8254" y1="426.2867" x2="-261.8254" y2="425.2877" gradientTransform="matrix(41.9254 0 0 -49.9732 11014.1191 21322.4395)">
		<stop  offset="0.13" style="stop-color:#00A9ED"/>
		<stop  offset="1" style="stop-color:#65106B"/>
	</linearGradient>
	<path id="Path_16776" fill="url(#Path_16776_1_)" d="M48.32,36.263c-0.546,0.292-0.79,0.944-0.57,1.522
		c0.307,1.383-0.034,2.829-0.925,3.93c-0.804,1.196-2.158,1.905-3.6,1.884c-1.965-0.107-2.413-0.925-2.562-1.194
		c-0.761-1.39-0.06-4.065,1.028-5.993c2.49-4.443-1.2-8.3-2.392-9.379c-0.026-0.022-0.114-0.1-0.143-0.117
		c-3.558-2.711-7.329-5.128-11.278-7.229l0,0c-0.589-0.341-1.342-0.14-1.683,0.449c-0.342,0.589-0.141,1.343,0.448,1.684
		c0.015,0.008,0.029,0.017,0.045,0.024c0.473,0.823,0.797,1.725,0.957,2.662c0.063,0.248,0.118,0.463,0.16,0.6
		c0.368,1.277,0.543,2.603,0.52,3.932c-0.121,2.559-0.952,5.032-2.4,7.146c-1.165,1.765-2.456,3.444-3.861,5.024
		c-1.322,1.506-2.558,3.085-3.7,4.731c-3.147,4.453-3.15,10.406-0.008,14.863c3.88,5.477,11.387,8.691,18.923,8.691
		c2.863,0.014,5.706-0.475,8.4-1.443c4.313-1.505,7.972-4.459,10.35-8.359l0,0c3.874-6.788,1.811-14.6-6.133-23.222
		c-0.429-0.4-1.065-0.48-1.58-0.2L48.32,36.263z M33.033,53.37c-0.227-0.159-0.92-0.643-0.121-1.899
		c0.694-0.889,1.424-1.74,2.189-2.556c0.115,0.509,0.288,1.003,0.516,1.473c1.063,2.186,3.7,3.699,6.256,5.16
		c2.453,1.405,4.991,2.858,5.4,4.534c0.136,0.855-0.092,1.728-0.627,2.408c-1.197,1.626-2.866,2.843-4.779,3.485
		c-3.446,1.275-8.58,1.457-11.722-0.663c-0.455-0.298-0.854-0.672-1.182-1.106c-0.688-1.015-0.972-2.251-0.794-3.465
		c0.031-0.3,0.184-1.119,0.368-1.899c0.076,0.061,0.155,0.12,0.236,0.179c1.261,0.935,2.896,1.2,4.388,0.713
		c1.726-0.6,2.207-1.615,2.311-2.36c0.274-2.007-1.984-3.687-2.438-4L33.033,53.37z M53.894,58.463
		c-1.275,2.146-3.037,3.961-5.143,5.301c0.886-1.231,1.217-2.775,0.915-4.262c-0.659-2.699-3.663-4.426-6.568-6.09
		c-2.229-1.276-4.533-2.6-5.264-4.1c-0.223-0.458-0.362-0.952-0.414-1.459c-0.007-0.081-0.02-0.19-0.038-0.319
		c-0.042-0.274-0.064-0.551-0.067-0.829c0.377-0.566,0.224-1.331-0.343-1.708c-0.468-0.312-1.087-0.267-1.506,0.108l-0.01,0.008
		c-1.63,1.484-3.131,3.104-4.486,4.843c-0.024,0.031-0.068,0.094-0.09,0.126c-1.285,2.015-0.993,4.101,0.745,5.314
		c0.639,0.37,1.134,0.943,1.408,1.628c0,0-0.11,0.183-0.685,0.384c-0.689,0.207-1.437,0.092-2.03-0.314
		c-0.325-0.173-0.582-0.452-0.726-0.791c0.003-0.627-0.464-1.156-1.087-1.23c-0.077-0.01-0.154-0.015-0.232-0.015
		c-1.886,0.049-2.436,4.184-2.558,5.449c-0.155,1.322,0.033,2.662,0.547,3.891c-2.331-1.192-4.352-2.912-5.9-5.022
		c-2.538-3.63-2.517-8.465,0.054-12.072c1.089-1.565,2.266-3.068,3.524-4.5c1.482-1.672,2.843-3.448,4.072-5.314
		c1.678-2.492,2.637-5.398,2.771-8.399c0.028-1.577-0.18-3.15-0.617-4.665c-0.038-0.131-0.084-0.312-0.138-0.524
		c-0.017-0.069-0.035-0.137-0.053-0.206c2.652,1.58,5.214,3.307,7.673,5.174c0.848,0.768,3.493,3.493,1.899,6.343
		c-1.317,2.338-2.382,5.937-1.04,8.386c0.962,1.6,2.721,2.547,4.586,2.471c2.275,0.084,4.435-1.007,5.719-2.888
		c0.596-0.808,1.038-1.718,1.307-2.685c5.448,6.778,6.719,12.817,3.775,17.978L53.894,58.463z"/>
</g>
</svg>
