<svg xmlns="http://www.w3.org/2000/svg" xmlns:xlink="http://www.w3.org/1999/xlink" width="74.496" height="73" viewBox="0 0 74.496 73">
  <defs>
    <linearGradient id="linear-gradient" x1="0.5" x2="0.5" y2="1" gradientUnits="objectBoundingBox">
      <stop offset="0.13" stop-color="#00a9ed"/>
      <stop offset="1" stop-color="#65106b"/>
    </linearGradient>
  </defs>
  <path id="Union_18" data-name="Union 18" d="M3755.1-324.231l-4.226-1.54a3.865,3.865,0,0,1-2.323-4.865,3.779,3.779,0,0,1,1.971-2.191,4.008,4.008,0,0,1,1.824-.384l.52-4.693a26.653,26.653,0,0,1-6.685-5.1l-3.8,1.558a3.5,3.5,0,0,1-1.554,3.455,3.582,3.582,0,0,1-4.868-.99l-1.322-1.9a3.556,3.556,0,0,1,.673-4.824,3.5,3.5,0,0,1,2.629-.729,3.553,3.553,0,0,1,1.395.488l2.6-2.938c-.341-.643-.66-1.311-.954-1.989a1.093,1.093,0,0,1,.574-1.435,1.1,1.1,0,0,1,1.437.573,24.066,24.066,0,0,0,1.078,2.2,1.523,1.523,0,0,1-.19,1.748l-3.632,4.1a1.1,1.1,0,0,1-.861.369,1.1,1.1,0,0,1-.831-.433,1.326,1.326,0,0,0-.9-.52,1.325,1.325,0,0,0-1,.278,1.369,1.369,0,0,0-.229,1.861l1.321,1.9a1.379,1.379,0,0,0,1.868.411,1.325,1.325,0,0,0,.447-1.743,1.1,1.1,0,0,1-.065-.884,1.093,1.093,0,0,1,.615-.64l5.157-2.114a1.533,1.533,0,0,1,1.7.379,24.443,24.443,0,0,0,6.8,5.186,1.531,1.531,0,0,1,.817,1.519l-.7,6.318a1.088,1.088,0,0,1-.509.809,1.1,1.1,0,0,1-.951.1l-.1-.035a1.785,1.785,0,0,0-1.367.069,1.613,1.613,0,0,0-.846.93,1.672,1.672,0,0,0,1.006,2.1l4.225,1.54a1.036,1.036,0,0,0,.946-.02,1.034,1.034,0,0,0,.345-.883,1.079,1.079,0,0,1,.066-.374,1.653,1.653,0,0,0-.056-1.272,1.657,1.657,0,0,0-.937-.861l-.122-.044a1.085,1.085,0,0,1-.661-.675,1.089,1.089,0,0,1,.112-.938l3.441-5.392a1.535,1.535,0,0,1,1.59-.672,24.651,24.651,0,0,0,4.912.5,24.588,24.588,0,0,0,6.158-.783,1.535,1.535,0,0,1,1.624.59l3.436,4.811a1.09,1.09,0,0,1,.159.943,1.092,1.092,0,0,1-.644.706l-.115.047a1.216,1.216,0,0,0-.732,1.492,1.166,1.166,0,0,0,.622.686,1.166,1.166,0,0,0,.924.022l4.26-1.7a1.217,1.217,0,0,0,.734-1.492,1.164,1.164,0,0,0-.622-.686,1.166,1.166,0,0,0-.924-.024l-.834.335a1.1,1.1,0,0,1-.945-.064,1.1,1.1,0,0,1-.542-.775l-.963-5.874a1.532,1.532,0,0,1,.736-1.561,24.553,24.553,0,0,0,5.764-4.664,1.523,1.523,0,0,1,1.739-.371l3.767,1.652a1.092,1.092,0,0,1,.6,1.349,1.644,1.644,0,0,0,.624,1.871,1.693,1.693,0,0,0,2.266-.408l.758-.99a1.626,1.626,0,0,0,.323-1.209,1.624,1.624,0,0,0-.628-1.083,1.627,1.627,0,0,0-2.118.115,1.093,1.093,0,0,1-.814.3,1.093,1.093,0,0,1-.776-.387l-2.616-3.1a1.528,1.528,0,0,1-.142-1.757,24.516,24.516,0,0,0,2.16-4.743,1.532,1.532,0,0,1,1.376-1.044l5.909-.268a1.09,1.09,0,0,1,.878.377,1.09,1.09,0,0,1,.245.923l-.024.123a1.219,1.219,0,0,0,.858,1.425,1.163,1.163,0,0,0,.914-.15,1.167,1.167,0,0,0,.52-.761l.9-4.563a1.174,1.174,0,0,0-.926-1.376,1.17,1.17,0,0,0-.88.179,1.16,1.16,0,0,0-.5.746l-.173.883a1.092,1.092,0,0,1-.566.756,1.1,1.1,0,0,1-.946.034l-5.462-2.384a1.534,1.534,0,0,1-.912-1.467c.017-.384.027-.763.027-1.125a24.52,24.52,0,0,0-.882-6.524,1.52,1.52,0,0,1,.612-1.666l2.914-1.974a1.093,1.093,0,0,1,.848-.163,1.1,1.1,0,0,1,.7.5,1.647,1.647,0,0,0,2.057.65,1.7,1.7,0,0,0,.854-2.139l-.809-2.168a1.688,1.688,0,0,0-2.069-1.046,1.626,1.626,0,0,0-.961.835,1.621,1.621,0,0,0-.071,1.273,1.092,1.092,0,0,1-.093.935,1.1,1.1,0,0,1-.785.517l-3.512.49a1.533,1.533,0,0,1-1.563-.805c-.3-.569-.634-1.154-1-1.737a1.09,1.09,0,0,1,.341-1.506,1.094,1.094,0,0,1,1.509.342c.311.494.6.989.869,1.477l1.948-.271a3.827,3.827,0,0,1,.392-1.674,3.794,3.794,0,0,1,2.246-1.954,3.851,3.851,0,0,1,4.8,2.36l.806,2.168a3.856,3.856,0,0,1-2.031,4.905,3.849,3.849,0,0,1-4.056-.637l-1.717,1.164a26.666,26.666,0,0,1,.839,6.647c0,.251-.005.509-.012.77l3.826,1.671a3.343,3.343,0,0,1,1.306-1.7,3.344,3.344,0,0,1,2.521-.509,3.362,3.362,0,0,1,2.651,3.942l-.9,4.562a3.371,3.371,0,0,1-1.49,2.185,3.329,3.329,0,0,1-2.611.43,3.358,3.358,0,0,1-2.5-2.736l-4.288.2a26.627,26.627,0,0,1-1.97,4.331l1.677,1.991a3.807,3.807,0,0,1,4,.4,3.793,3.793,0,0,1,1.466,2.53,3.79,3.79,0,0,1-.752,2.827l-.757.989a3.859,3.859,0,0,1-5.245.879,3.844,3.844,0,0,1-1.647-3.366l-2.544-1.117a26.777,26.777,0,0,1-5.561,4.5l.676,4.117a3.37,3.37,0,0,1,2.208.2,3.332,3.332,0,0,1,1.781,1.957,3.385,3.385,0,0,1-1.988,4.236l-4.261,1.7a3.376,3.376,0,0,1-2.644-.062,3.34,3.34,0,0,1-1.78-1.957,3.354,3.354,0,0,1,.939-3.586l-2.5-3.494a26.909,26.909,0,0,1-11.165.291l-2.567,4.022a3.827,3.827,0,0,1,1.116,1.408,3.818,3.818,0,0,1,.189,2.761,3.133,3.133,0,0,1-1.271,2.479,2.931,2.931,0,0,1-1.69.514A3.681,3.681,0,0,1,3755.1-324.231Zm9.563-19.218a3.844,3.844,0,0,1,3.84-3.837,3.842,3.842,0,0,1,3.84,3.837,3.842,3.842,0,0,1-3.84,3.837A3.843,3.843,0,0,1,3764.66-343.449Zm2.188,0a1.654,1.654,0,0,0,1.653,1.651,1.652,1.652,0,0,0,1.652-1.651,1.652,1.652,0,0,0-1.652-1.651A1.654,1.654,0,0,0,3766.848-343.449Zm-8.229-.047a1.092,1.092,0,0,1-1.094-1.092,1.092,1.092,0,0,1,1.094-1.093h.994a1.094,1.094,0,0,1,1.094,1.093,1.093,1.093,0,0,1-1.094,1.092Zm-11.255-6.517a3.956,3.956,0,0,1,3.954-3.95,3.956,3.956,0,0,1,3.954,3.95,3.956,3.956,0,0,1-3.954,3.952A3.956,3.956,0,0,1,3747.364-350.013Zm2.186,0a1.77,1.77,0,0,0,1.768,1.767,1.77,1.77,0,0,0,1.766-1.767,1.767,1.767,0,0,0-1.766-1.765A1.769,1.769,0,0,0,3749.55-350.013Zm26.559,2.961a1.094,1.094,0,0,1-1.094-1.093,1.092,1.092,0,0,1,1.094-1.091h1.469a1.092,1.092,0,0,1,1.094,1.091,1.094,1.094,0,0,1-1.094,1.093Zm-17.589-8.117a5.041,5.041,0,0,1,5.037-5.033,5.042,5.042,0,0,1,5.04,5.033,5.043,5.043,0,0,1-5.04,5.035A5.042,5.042,0,0,1,3758.519-355.17Zm2.186,0a2.854,2.854,0,0,0,2.851,2.85,2.854,2.854,0,0,0,2.852-2.85,2.854,2.854,0,0,0-2.852-2.848A2.853,2.853,0,0,0,3760.705-355.17Zm14.309-2.053a3.921,3.921,0,0,1,3.918-3.915,3.92,3.92,0,0,1,3.917,3.915,3.919,3.919,0,0,1-3.917,3.915A3.92,3.92,0,0,1,3775.014-357.223Zm2.186,0a1.733,1.733,0,0,0,1.732,1.73,1.732,1.732,0,0,0,1.731-1.73,1.733,1.733,0,0,0-1.731-1.73A1.734,1.734,0,0,0,3777.2-357.223Zm-37.728,1.71c-.13-.578-.241-1.156-.329-1.725l-4.1-.947a3.591,3.591,0,0,1-3.51,2.877,3.507,3.507,0,0,1-2.51-1.046A3.5,3.5,0,0,1,3728-358.87l.037-4.215a3.679,3.679,0,0,1,1.119-2.589,3.5,3.5,0,0,1,2.534-1,3.574,3.574,0,0,1,3.208,2.245l4.231-.99a26.347,26.347,0,0,1,3.02-8.845l-1.656-1.946a3.282,3.282,0,0,1-1.551.608,3.226,3.226,0,0,1-2.456-.734,3.276,3.276,0,0,1-.474-4.509l1.831-2.419a3.229,3.229,0,0,1,2.149-1.258,3.23,3.23,0,0,1,2.411.627,3.272,3.272,0,0,1,1.238,3.157l2.468,1.066a26.722,26.722,0,0,1,5.85-4.661l-.62-4.125a3.381,3.381,0,0,1-2.206-.232,3.33,3.33,0,0,1-1.753-1.983,3.384,3.384,0,0,1,2.043-4.209l4.284-1.646a3.375,3.375,0,0,1,2.643.1,3.328,3.328,0,0,1,1.753,1.981,3.352,3.352,0,0,1-.987,3.573l2.448,3.526a26.779,26.779,0,0,1,5.457-.655l.631-1.77a3.955,3.955,0,0,1-1.717-3.745,3.89,3.89,0,0,1,1.49-2.616,4.094,4.094,0,0,1,3.006-.836l1.532.192a4.016,4.016,0,0,1,3.516,4.363,3.984,3.984,0,0,1-2.033,3.039l.241,2.1a26.485,26.485,0,0,1,6.723,2.613l3.24-2.629a3.379,3.379,0,0,1-.92-2.016,3.335,3.335,0,0,1,.819-2.517,3.388,3.388,0,0,1,4.667-.377l3.594,2.85a3.361,3.361,0,0,1,1.257,2.324,3.327,3.327,0,0,1-.817,2.517,3.356,3.356,0,0,1-3.583.964l-1.8,3.9c.07.074.143.153.221.238a1.092,1.092,0,0,1-.065,1.543,1.091,1.091,0,0,1-1.544-.064c-.183-.2-.336-.362-.492-.52a1.533,1.533,0,0,1-.3-1.7l2.478-5.375a1.1,1.1,0,0,1,.739-.6,1.1,1.1,0,0,1,.934.207l.1.077a1.221,1.221,0,0,0,1.661-.106,1.166,1.166,0,0,0,.287-.879,1.154,1.154,0,0,0-.44-.812l-3.592-2.852a1.22,1.22,0,0,0-1.662.106,1.154,1.154,0,0,0-.287.879,1.16,1.16,0,0,0,.438.812l.7.558a1.092,1.092,0,0,1,.414.851,1.094,1.094,0,0,1-.4.854l-4.626,3.751a1.532,1.532,0,0,1-1.724.135,24.294,24.294,0,0,0-6.955-2.7,1.521,1.521,0,0,1-1.187-1.312l-.389-3.382a1.1,1.1,0,0,1,.81-1.182,1.758,1.758,0,0,0,1.315-1.521,1.819,1.819,0,0,0-1.614-1.959l-1.533-.192a1.884,1.884,0,0,0-1.384.389,1.724,1.724,0,0,0-.666,1.152,1.772,1.772,0,0,0,1.229,1.9,1.086,1.086,0,0,1,.652.556,1.082,1.082,0,0,1,.051.854l-1.116,3.121a1.528,1.528,0,0,1-1.438,1.011h0a24.612,24.612,0,0,0-5.844.7,1.534,1.534,0,0,1-1.614-.61l-3.371-4.856a1.092,1.092,0,0,1-.148-.945,1.093,1.093,0,0,1,.652-.7l.116-.045a1.218,1.218,0,0,0,.754-1.482,1.159,1.159,0,0,0-.613-.694,1.163,1.163,0,0,0-.922-.035l-4.283,1.647a1.217,1.217,0,0,0-.752,1.482,1.16,1.16,0,0,0,.612.694,1.168,1.168,0,0,0,.924.034l.839-.322a1.092,1.092,0,0,1,.942.076,1.1,1.1,0,0,1,.53.782l.886,5.887a1.533,1.533,0,0,1-.758,1.55,24.53,24.53,0,0,0-6.027,4.807,1.525,1.525,0,0,1-1.731.372l-3.844-1.661a1.088,1.088,0,0,1-.611-.681,1.094,1.094,0,0,1,.122-.908,1.071,1.071,0,0,0-.257-1.422,1.069,1.069,0,0,0-1.5.207l-1.831,2.419a1.109,1.109,0,0,0,.129,1.511,1.058,1.058,0,0,0,.806.243,1.058,1.058,0,0,0,.731-.416l.239-.315a1.088,1.088,0,0,1,.841-.433,1.085,1.085,0,0,1,.863.384l2.75,3.224a1.527,1.527,0,0,1,.158,1.748,24.189,24.189,0,0,0-3.042,8.906,1.528,1.528,0,0,1-1.162,1.279l-5.763,1.351a1.089,1.089,0,0,1-.931-.209,1.09,1.09,0,0,1-.412-.861,1.376,1.376,0,0,0-1.332-1.376,1.322,1.322,0,0,0-.958.384,1.471,1.471,0,0,0-.45,1.038l-.038,4.213a1.334,1.334,0,0,0,.391.96,1.336,1.336,0,0,0,.957.4,1.4,1.4,0,0,0,1.393-1.38l0-.679a1.089,1.089,0,0,1,.418-.847,1.093,1.093,0,0,1,.922-.207l5.805,1.339a1.533,1.533,0,0,1,1.165,1.277c.09.654.212,1.326.364,2a1.091,1.091,0,0,1-.827,1.305,1.066,1.066,0,0,1-.241.027A1.094,1.094,0,0,1,3739.473-355.513Zm8.983-3.893a1.093,1.093,0,0,1-1.092-1.093,1.093,1.093,0,0,1,1.092-1.093h.958a1.1,1.1,0,0,1,1.094,1.093,1.1,1.1,0,0,1-1.094,1.093Zm23.066-3.187a1.093,1.093,0,0,1-1.092-1.093,1.093,1.093,0,0,1,1.092-1.093h.966a1.094,1.094,0,0,1,1.094,1.093,1.093,1.093,0,0,1-1.094,1.093Zm-21.276-3a6.842,6.842,0,0,1-1.234-5.756,9.372,9.372,0,0,1,3.436-5.372,9.374,9.374,0,0,1,6.03-2.084,6.856,6.856,0,0,1,5.313,2.542,7.424,7.424,0,0,1,.1,8.545,1.094,1.094,0,0,1-1.5.36,1.092,1.092,0,0,1-.36-1.5,5.282,5.282,0,0,0,.041-6.051,4.709,4.709,0,0,0-3.657-1.71,7.211,7.211,0,0,0-4.614,1.614,7.2,7.2,0,0,0-2.649,4.107,4.7,4.7,0,0,0,.81,3.953c1.49,1.888,4.469,2.254,7.081.871a1.094,1.094,0,0,1,1.478.453,1.092,1.092,0,0,1-.454,1.477,9.117,9.117,0,0,1-4.255,1.085A6.973,6.973,0,0,1,3750.246-365.6Zm21.633-8.35c0-2.266,2.109-4.108,4.7-4.108s4.7,1.843,4.7,4.108-2.109,4.108-4.7,4.108S3771.879-371.681,3771.879-373.946Zm2.188,0a2.282,2.282,0,0,0,2.515,1.922,2.282,2.282,0,0,0,2.515-1.922,2.282,2.282,0,0,0-2.515-1.924A2.282,2.282,0,0,0,3774.067-373.946Zm-6.565-4.575a1.1,1.1,0,0,1-1.093-1.093,1.1,1.1,0,0,1,1.093-1.093h1.332a1.094,1.094,0,0,1,1.094,1.093,1.094,1.094,0,0,1-1.094,1.093Z" transform="translate(-3728 397)" fill="url(#linear-gradient)"/>
</svg>
