<?xml version="1.0" encoding="utf-8"?>
<!-- Generator: Adobe Illustrator 16.0.0, SVG Export Plug-In . SVG Version: 6.00 Build 0)  -->
<!DOCTYPE svg PUBLIC "-//W3C//DTD SVG 1.1//EN" "http://www.w3.org/Graphics/SVG/1.1/DTD/svg11.dtd">
<svg version="1.1" id="Layer_1" xmlns="http://www.w3.org/2000/svg" xmlns:xlink="http://www.w3.org/1999/xlink" x="0px" y="0px"
	 width="72px" height="72.107px" viewBox="0 0 72 72.107" enable-background="new 0 0 72 72.107" xml:space="preserve">
<g id="Group_2029" transform="translate(-250.999 -3343.982)">
	<g id="Processor_security" transform="translate(249 3341.982)">
		
			<linearGradient id="Path_16917_1_" gradientUnits="userSpaceOnUse" x1="-158.2095" y1="274.3865" x2="-158.2095" y2="273.3865" gradientTransform="matrix(2.4 0 0 -2.4 412.9022 671.322)">
			<stop  offset="0.13" style="stop-color:#00A9ED"/>
			<stop  offset="1" style="stop-color:#65106B"/>
		</linearGradient>
		<path id="Path_16917" fill="url(#Path_16917_1_)" d="M31.999,12.794h2.4v2.4h-2.4V12.794z"/>
		
			<linearGradient id="Path_16918_1_" gradientUnits="userSpaceOnUse" x1="-158.2095" y1="274.3875" x2="-158.2095" y2="273.3875" gradientTransform="matrix(2.4 0 0 -2.4 444.1033 700.1228)">
			<stop  offset="0.13" style="stop-color:#00A9ED"/>
			<stop  offset="1" style="stop-color:#65106B"/>
		</linearGradient>
		<path id="Path_16918" fill="url(#Path_16918_1_)" d="M63.2,41.594h2.4v2.4h-2.4V41.594z"/>
		
			<linearGradient id="Path_16919_1_" gradientUnits="userSpaceOnUse" x1="-158.2095" y1="274.3865" x2="-158.2095" y2="273.3865" gradientTransform="matrix(2.4 0 0 -2.4 422.5037 719.322)">
			<stop  offset="0.13" style="stop-color:#00A9ED"/>
			<stop  offset="1" style="stop-color:#65106B"/>
		</linearGradient>
		<path id="Path_16919" fill="url(#Path_16919_1_)" d="M41.601,60.794h2.398v2.4h-2.398V60.794z"/>
		
			<linearGradient id="Path_16920_1_" gradientUnits="userSpaceOnUse" x1="-158.209" y1="274.3875" x2="-158.209" y2="273.3875" gradientTransform="matrix(2.4 0 0 -2.4 412.9022 722.9216)">
			<stop  offset="0.13" style="stop-color:#00A9ED"/>
			<stop  offset="1" style="stop-color:#65106B"/>
		</linearGradient>
		<path id="Path_16920" fill="url(#Path_16920_1_)" d="M31.999,64.393h2.4v2.4h-2.4V64.393z"/>
		
			<linearGradient id="Path_16921_1_" gradientUnits="userSpaceOnUse" x1="-158.209" y1="274.3875" x2="-158.209" y2="273.3875" gradientTransform="matrix(2.4 0 0 -2.4 393.703 695.322)">
			<stop  offset="0.13" style="stop-color:#00A9ED"/>
			<stop  offset="1" style="stop-color:#65106B"/>
		</linearGradient>
		<path id="Path_16921" fill="url(#Path_16921_1_)" d="M12.799,36.794h2.4v2.4h-2.4V36.794z"/>
		
			<linearGradient id="Path_16922_1_" gradientUnits="userSpaceOnUse" x1="-158.2095" y1="274.3875" x2="-158.2095" y2="273.3875" gradientTransform="matrix(2.4 0 0 -2.4 422.5037 671.322)">
			<stop  offset="0.13" style="stop-color:#00A9ED"/>
			<stop  offset="1" style="stop-color:#65106B"/>
		</linearGradient>
		<path id="Path_16922" fill="url(#Path_16922_1_)" d="M41.601,12.794h2.398v2.4h-2.398V12.794z"/>
		
			<linearGradient id="Path_16923_1_" gradientUnits="userSpaceOnUse" x1="-158.209" y1="274.3875" x2="-158.209" y2="273.3875" gradientTransform="matrix(2.4 0 0 -2.4 441.7029 690.5212)">
			<stop  offset="0.13" style="stop-color:#00A9ED"/>
			<stop  offset="1" style="stop-color:#65106B"/>
		</linearGradient>
		<path id="Path_16923" fill="url(#Path_16923_1_)" d="M60.8,31.994h2.4v2.399h-2.4V31.994z"/>
		
			<linearGradient id="Path_16924_1_" gradientUnits="userSpaceOnUse" x1="-158.209" y1="274.3875" x2="-158.209" y2="273.3875" gradientTransform="matrix(2.4 0 0 -2.4 435.7029 678.5212)">
			<stop  offset="0.13" style="stop-color:#00A9ED"/>
			<stop  offset="1" style="stop-color:#65106B"/>
		</linearGradient>
		<path id="Path_16924" fill="url(#Path_16924_1_)" d="M54.8,19.994h2.4v2.399h-2.4V19.994z"/>
		
			<linearGradient id="Path_16925_1_" gradientUnits="userSpaceOnUse" x1="-158.2095" y1="274.3865" x2="-158.2095" y2="273.3865" gradientTransform="matrix(2.4 0 0 -2.4 399.703 678.5212)">
			<stop  offset="0.13" style="stop-color:#00A9ED"/>
			<stop  offset="1" style="stop-color:#65106B"/>
		</linearGradient>
		<path id="Path_16925" fill="url(#Path_16925_1_)" d="M18.799,19.994h2.4v2.399h-2.4V19.994z"/>
		
			<linearGradient id="Path_16926_1_" gradientUnits="userSpaceOnUse" x1="-158.2095" y1="274.3875" x2="-158.2095" y2="273.3875" gradientTransform="matrix(2.4 0 0 -2.4 435.7029 712.1228)">
			<stop  offset="0.13" style="stop-color:#00A9ED"/>
			<stop  offset="1" style="stop-color:#65106B"/>
		</linearGradient>
		<path id="Path_16926" fill="url(#Path_16926_1_)" d="M54.8,53.594h2.4v2.4h-2.4V53.594z"/>
		
			<linearGradient id="Path_16927_1_" gradientUnits="userSpaceOnUse" x1="-158.209" y1="274.3875" x2="-158.209" y2="273.3875" gradientTransform="matrix(2.4 0 0 -2.4 399.703 712.1228)">
			<stop  offset="0.13" style="stop-color:#00A9ED"/>
			<stop  offset="1" style="stop-color:#65106B"/>
		</linearGradient>
		<path id="Path_16927" fill="url(#Path_16927_1_)" d="M18.799,53.594h2.4v2.4h-2.4V53.594z"/>
		
			<linearGradient id="Path_16930_1_" gradientUnits="userSpaceOnUse" x1="-263.3741" y1="429.2234" x2="-263.3741" y2="428.2224" gradientTransform="matrix(72.0006 0 0 -72.1132 19001.1094 30954.6406)">
			<stop  offset="0.13" style="stop-color:#00A9ED"/>
			<stop  offset="1" style="stop-color:#65106B"/>
		</linearGradient>
		<path id="Path_16930" fill="url(#Path_16930_1_)" d="M70.399,48.794c-0.535,0.002-1.061,0.125-1.541,0.36l-2.758-2.761H54.8
			v-2.399h6v-2.4h-6v-2.399h6.283l6.824-3.413c1.432,1.373,3.707,1.324,5.08-0.108s1.324-3.707-0.109-5.08
			c-1.432-1.373-3.707-1.324-5.08,0.108c-0.643,0.67-1,1.563-0.998,2.493c0.006,0.146,0.02,0.291,0.045,0.436l-6.328,3.164H54.8
			v-2.4h3.6v-2.399h-3.6v-2.4h5.301l3.959-3.96c0.48,0.234,1.006,0.357,1.541,0.36c1.988,0,3.6-1.612,3.6-3.601s-1.611-3.6-3.6-3.6
			s-3.602,1.611-3.602,3.6l0,0c0.002,0.535,0.125,1.063,0.361,1.542l-3.26,3.259H54.8c-0.004-3.313-2.688-5.996-6-6v-3.101
			l6.857-6.856c0.48,0.234,1.008,0.357,1.543,0.359c1.988,0,3.6-1.611,3.6-3.6s-1.611-3.601-3.6-3.601s-3.6,1.61-3.6,3.598
			c0.002,0.534,0.125,1.062,0.359,1.542l-7.561,7.558v4.101h-2.4v-3.601h-2.398v3.601h-2.4v-8.621
			c1.875-0.663,2.857-2.72,2.193-4.595c-0.662-1.874-2.719-2.856-4.594-2.193c-1.875,0.662-2.856,2.719-2.194,4.594
			c0.362,1.025,1.169,1.832,2.194,2.194v8.621h-2.4v-3.601h-2.4v3.601h-2.4v-8.9l-5.16-5.16c0.235-0.479,0.358-1.006,0.36-1.54
			c0-1.988-1.611-3.6-3.6-3.6s-3.6,1.611-3.6,3.6s1.612,3.601,3.6,3.601c0.534-0.003,1.062-0.126,1.542-0.36l4.458,4.46v7.9
			c-3.313,0.004-5.996,2.688-6,6h-4.3l-3.26-3.259c0.235-0.479,0.358-1.007,0.36-1.542c0-1.988-1.612-3.6-3.6-3.6
			s-3.6,1.611-3.6,3.6s1.612,3.601,3.6,3.601c0.535-0.002,1.062-0.125,1.542-0.36l3.958,3.96h5.3v2.4h-7.634L7.28,37.23
			c-0.515-0.282-1.093-0.433-1.68-0.437c-1.988,0-3.601,1.611-3.601,3.6c0,1.988,1.611,3.6,3.599,3.601
			c1.988,0,3.601-1.611,3.601-3.6c0-0.481-0.096-0.957-0.283-1.4l5.519-4.601H21.2v2.4h-3.6v2.4h3.6v2.399h-10.8v2.4h10.8v2.399
			h-6.642l-4.836,7.253c-0.172-0.03-0.347-0.048-0.522-0.053c-2.007-0.019-3.649,1.593-3.668,3.601
			c-0.019,2.007,1.593,3.648,3.6,3.667s3.649-1.593,3.667-3.6c0.009-0.917-0.33-1.804-0.948-2.481l3.99-5.986H21.2
			c0.004,3.313,2.688,5.996,6,6v7.9l-4.458,4.46c-0.48-0.235-1.008-0.358-1.542-0.36c-1.988,0-3.6,1.611-3.6,3.6
			s1.612,3.601,3.6,3.601s3.6-1.612,3.6-3.601l0,0c-0.002-0.534-0.125-1.062-0.36-1.542l5.16-5.157v-8.9h2.4v7.2h2.4v-7.2h2.4
			v10.265l7.29,4.561c-0.461,1.964,0.758,3.93,2.723,4.391c1.963,0.461,3.93-0.758,4.391-2.722c0.461-1.965-0.758-3.931-2.723-4.392
			c-1.088-0.255-2.232,0.002-3.107,0.697L39.2,63.728v-8.935h2.4v3.6h2.398v-3.6h2.4v9.6h8.621c0.662,1.875,2.721,2.857,4.594,2.194
			c1.875-0.662,2.857-2.72,2.195-4.594c-0.664-1.875-2.721-2.857-4.594-2.194c-1.025,0.362-1.832,1.169-2.195,2.194H48.8v-7.2
			c3.313-0.004,5.996-2.688,6-6h10.301l2.057,2.058c-0.234,0.48-0.355,1.008-0.357,1.542c0,1.988,1.611,3.601,3.6,3.601
			s3.6-1.612,3.6-3.601S72.388,48.794,70.399,48.794L70.399,48.794z M70.399,31.994c0.664,0,1.201,0.537,1.201,1.2
			c0,0.662-0.537,1.199-1.201,1.199c-0.662,0-1.199-0.537-1.199-1.199l0,0C69.2,32.531,69.737,31.994,70.399,31.994z M65.601,21.194
			c0.662,0,1.199,0.537,1.199,1.199c0,0.663-0.537,1.2-1.199,1.2c-0.664,0-1.201-0.537-1.201-1.2l0,0
			C64.399,21.731,64.936,21.194,65.601,21.194z M57.2,6.794c0.662,0,1.199,0.537,1.199,1.2c0,0.662-0.537,1.2-1.199,1.2
			c-0.664,0-1.201-0.538-1.201-1.2C55.999,7.331,56.536,6.794,57.2,6.794L57.2,6.794z M37.999,7.994c0.664,0,1.201,0.537,1.201,1.2
			c0,0.662-0.537,1.199-1.201,1.199c-0.663,0-1.2-0.537-1.2-1.199C36.799,8.531,37.337,7.994,37.999,7.994L37.999,7.994z
			 M19.999,5.594c0-0.662,0.537-1.2,1.2-1.2c0.663,0,1.2,0.538,1.2,1.2c0,0.663-0.537,1.2-1.2,1.2
			C20.537,6.794,19.999,6.257,19.999,5.594L19.999,5.594z M9.2,22.393c0-0.662,0.537-1.199,1.2-1.199c0.663,0,1.2,0.537,1.2,1.199
			c0,0.663-0.537,1.2-1.2,1.2C9.737,23.594,9.2,23.056,9.2,22.393L9.2,22.393z M5.6,41.594c-0.663,0-1.2-0.537-1.2-1.2
			c0-0.662,0.538-1.199,1.2-1.199s1.2,0.537,1.2,1.199C6.799,41.056,6.262,41.594,5.6,41.594L5.6,41.594z M9.2,58.393
			c-0.663,0-1.2-0.537-1.2-1.199c0-0.663,0.537-1.2,1.2-1.2c0.663,0,1.2,0.537,1.2,1.2C10.399,57.856,9.862,58.393,9.2,58.393
			L9.2,58.393z M21.2,71.594c-0.663,0-1.2-0.537-1.2-1.2c0-0.662,0.537-1.199,1.2-1.199c0.663,0,1.2,0.537,1.2,1.199l0,0
			C22.399,71.056,21.862,71.594,21.2,71.594z M47.601,69.194c0.662,0,1.199,0.537,1.199,1.199c0,0.663-0.537,1.2-1.199,1.2
			c-0.664,0-1.201-0.537-1.201-1.2l0,0C46.399,69.731,46.936,69.194,47.601,69.194z M58.399,61.994c0.664,0,1.201,0.537,1.201,1.2
			c0,0.662-0.537,1.199-1.201,1.199c-0.662,0-1.199-0.537-1.199-1.199C57.2,62.531,57.737,61.994,58.399,61.994L58.399,61.994z
			 M52.399,48.794c0,1.988-1.611,3.6-3.6,3.6H27.2c-1.988,0-3.6-1.611-3.6-3.6v-21.6c0-1.988,1.612-3.601,3.6-3.601l0,0h21.6
			c1.988,0,3.6,1.612,3.6,3.601V48.794z M70.399,53.594c-0.662,0-1.199-0.537-1.199-1.2c0-0.662,0.537-1.199,1.199-1.199
			c0.664,0,1.201,0.537,1.201,1.199l0,0C71.601,53.056,71.063,53.594,70.399,53.594z"/>
	</g>
	
		<linearGradient id="Path_16931_1_" gradientUnits="userSpaceOnUse" x1="-4.0791" y1="3759.6467" x2="-4.0791" y2="3758.6467" gradientTransform="matrix(18.755 0 0 -22.7602 362.9384 88939.2813)">
		<stop  offset="0.13" style="stop-color:#00A9ED"/>
		<stop  offset="1" style="stop-color:#65106B"/>
	</linearGradient>
	<path id="Path_16931" fill="url(#Path_16931_1_)" d="M285.919,3369.024l-8.369,4.972c-0.307,0.183-0.494,0.512-0.494,0.868v2.929
		c-0.002,5.961,3.517,11.36,8.971,13.765c0.259,0.114,0.554,0.114,0.813,0c5.456-2.404,8.973-7.804,8.971-13.765v-2.929
		c0-0.355-0.188-0.686-0.492-0.868l-8.37-4.972C286.631,3368.835,286.236,3368.835,285.919,3369.024L285.919,3369.024z
		 M293.794,3375.438v2.354c0.002,4.999-2.857,9.557-7.359,11.729c-4.501-2.173-7.361-6.73-7.36-11.729v-2.35l7.36-4.373
		L293.794,3375.438z"/>
	
		<linearGradient id="Path_16932_1_" gradientUnits="userSpaceOnUse" x1="16.0805" y1="3712.6614" x2="16.0805" y2="3711.6614" gradientTransform="matrix(7.6611 0 0 -6.0181 164.1048 25720.0508)">
		<stop  offset="0.13" style="stop-color:#00A9ED"/>
		<stop  offset="1" style="stop-color:#65106B"/>
	</linearGradient>
	<path id="Path_16932" fill="url(#Path_16932_1_)" d="M285.19,3379.549c-0.394-0.395-1.033-0.395-1.427,0
		c-0.394,0.394-0.394,1.032,0,1.427l1.643,1.643c0.394,0.395,1.033,0.395,1.427,0l0,0l4-4c0.395-0.394,0.395-1.033,0-1.427
		c-0.393-0.395-1.031-0.395-1.426,0l-3.286,3.285L285.19,3379.549z"/>
</g>
</svg>
