<?xml version="1.0" encoding="utf-8"?>
<!-- Generator: Adobe Illustrator 16.0.0, SVG Export Plug-In . SVG Version: 6.00 Build 0)  -->
<!DOCTYPE svg PUBLIC "-//W3C//DTD SVG 1.1//EN" "http://www.w3.org/Graphics/SVG/1.1/DTD/svg11.dtd">
<svg version="1.1" id="Layer_1" xmlns="http://www.w3.org/2000/svg" xmlns:xlink="http://www.w3.org/1999/xlink" x="0px" y="0px"
	 width="71.503px" height="78.916px" viewBox="0 0 71.503 78.916" enable-background="new 0 0 71.503 78.916" xml:space="preserve">
<g id="employee_1_" transform="translate(-24.039)">
	<g id="Group_2079" transform="translate(24.048)">
		<g id="Group_2078">
			
				<linearGradient id="Path_16985_1_" gradientUnits="userSpaceOnUse" x1="-263.4426" y1="430.7207" x2="-263.4426" y2="429.7207" gradientTransform="matrix(44.9408 0 0 -72.7378 11861.7588 31329.6016)">
				<stop  offset="0.13" style="stop-color:#00A9ED"/>
				<stop  offset="1" style="stop-color:#65106B"/>
			</linearGradient>
			<path id="Path_16985" fill="url(#Path_16985_1_)" d="M44.174,40.101l-5.889-2.272l-3.38-3.38c-0.212-0.213-0.499-0.334-0.8-0.338
				v-2.759c1.645-1.746,2.752-3.93,3.186-6.289l0,0c0.299,0.018,0.598-0.003,0.891-0.063c1.627-0.375,2.771-1.837,2.742-3.507V20.6
				c0-0.965-0.391-1.889-1.082-2.563c1.084-5.837,0.209-10.592-2.541-13.768c-2.65-3.063-6.925-4.525-12.359-4.232
				c-3.389,0.144-6.647,1.349-9.314,3.446c-1.4,0.182-5.41,1.2-5.41,6.8c0.003,2.396,0.291,4.782,0.858,7.11
				c-1.235,0.598-2.013,1.856-1.994,3.228v0.872c-0.03,1.668,1.111,3.131,2.737,3.507c0.291,0.06,0.589,0.081,0.886,0.064l0,0
				c0.435,2.359,1.54,4.543,3.186,6.289v2.762c-0.301,0.004-0.588,0.125-0.8,0.338l-3.38,3.38l-6.623,2.555
				c-3.186,1.227-5.236,4.346-5.101,7.756l0.955,23.484c0.025,0.619,0.534,1.109,1.154,1.109h0.046
				c0.638-0.025,1.134-0.563,1.109-1.199L2.31,48.052c-0.024-0.611,0.051-1.225,0.222-1.813l3.756,3.76
				c1.063,1.061,1.659,2.5,1.654,4v17.582c0,0.639,0.518,1.156,1.156,1.156s1.156-0.518,1.156-1.156V53.993
				c0.006-2.115-0.835-4.145-2.335-5.637l-4.24-4.236c0.606-0.701,1.377-1.244,2.243-1.578l6.179-2.383l4.717,7.076
				c0.568,0.855,1.492,1.41,2.515,1.51c0.113,0.012,0.228,0.018,0.342,0.018c0.626,0,1.239-0.174,1.772-0.5l-1.005,23.27
				c-0.024,0.633,0.467,1.17,1.101,1.199h0.051c0.618,0,1.127-0.488,1.154-1.105l0.938-21.578h2.627l0.939,21.578
				c0.026,0.617,0.535,1.105,1.153,1.105h0.052c0.636-0.029,1.127-0.568,1.1-1.205l-1.007-23.266c0.534,0.326,1.147,0.5,1.772,0.5
				c0.113,0,0.228-0.006,0.342-0.018c1.022-0.1,1.945-0.654,2.514-1.51l4.716-7.076l5.445,2.1c0.594,0.236,1.266-0.055,1.5-0.648
				c0.234-0.592-0.055-1.264-0.648-1.5c-0.006-0.002-0.014-0.006-0.02-0.008H44.174z M14.973,24.629
				c-0.213-1.141-1.241-1.945-2.4-1.879c-0.1,0.007-0.201,0-0.3-0.02c-0.549-0.158-0.918-0.671-0.893-1.242v-0.872
				c-0.02-0.565,0.354-1.068,0.899-1.212c0.417-0.081,0.844,0.082,1.101,0.42c0.531,0.705,1.525,0.861,2.247,0.353
				c0.945-0.669,1.75-1.519,2.367-2.5c0.33-0.546,0.155-1.257-0.392-1.587c-0.529-0.321-1.218-0.167-1.561,0.349
				c-0.352,0.558-0.784,1.059-1.284,1.488c-0.392-0.344-0.855-0.594-1.358-0.73c-0.584-2.26-0.881-4.585-0.884-6.919
				c0-1.883,0.584-3.207,1.735-3.935c0.557-0.344,1.188-0.546,1.842-0.589c0.298,0,0.584-0.115,0.8-0.32
				c2.313-1.891,5.178-2.975,8.162-3.09c4.7-0.254,8.326,0.935,10.492,3.438c2.195,2.535,2.918,6.429,2.109,11.3
				c-0.373-0.015-0.746,0.01-1.115,0.076l-1.158-2.782c-0.221-0.533-0.802-0.821-1.361-0.674c-0.112,0.03-11.348,2.9-16.086-3
				c-0.42-0.481-1.15-0.531-1.631-0.111c-0.454,0.396-0.527,1.075-0.169,1.559c4.806,5.983,14.379,4.641,17.492,4.013l0.899,2.162
				c0.363,0.881,1.312,1.368,2.24,1.148c0.305-0.077,0.619-0.099,0.934-0.067c0.547,0.137,0.924,0.636,0.906,1.2v0.885
				c0.025,0.57-0.344,1.084-0.893,1.242c-0.098,0.021-0.199,0.027-0.299,0.02c-1.16-0.066-2.187,0.738-2.401,1.879
				c-1.018,5.535-6.33,9.197-11.864,8.18c-4.16-0.765-7.415-4.02-8.18-8.18L14.973,24.629z M20.463,46.122
				c-0.436,0.438-1.143,0.438-1.578,0.002c-0.053-0.053-0.1-0.109-0.14-0.172l-4.754-7.128l1.974-1.973l7.343,6.426L20.463,46.122z
				 M23.787,47.743l0.075-1.752l1.137-1.137l1.137,1.137l0.076,1.752H23.787z M25,41.685l-6.801-5.947V33.28
				c4.135,2.678,9.457,2.678,13.592,0v2.458L25,41.685z M31.255,45.952c-0.186,0.279-0.486,0.461-0.819,0.492
				c-0.333,0.035-0.664-0.082-0.899-0.32l-2.847-2.846l7.343-6.426l1.974,1.973L31.255,45.952z"/>
		</g>
	</g>
	<g id="Group_2081" transform="translate(56.172 43.244)">
		<g id="Group_2080">
			
				<linearGradient id="Path_16986_1_" gradientUnits="userSpaceOnUse" x1="-294.7448" y1="382.0343" x2="-294.7448" y2="381.0343" gradientTransform="matrix(39.38 0 0 -35.673 11626.7451 13628.2744)">
				<stop  offset="0.13" style="stop-color:#00A9ED"/>
				<stop  offset="1" style="stop-color:#65106B"/>
			</linearGradient>
			<path id="Path_16986" fill="url(#Path_16986_1_)" d="M39.368,11.04c-0.002-2.686-2.178-4.861-4.863-4.863h-7.492V3.626
				c-0.002-2.002-1.625-3.625-3.627-3.627h-7.412c-2.002,0.002-3.625,1.625-3.627,3.627v2.551H4.853
				C2.169,6.179-0.007,8.355-0.01,11.04v3.432c0.019,1.301,0.451,2.563,1.236,3.6v12.863c0.003,2.615,2.123,4.734,4.738,4.736
				h27.434c2.615-0.002,4.734-2.121,4.736-4.736V18.075c0.785-1.037,1.219-2.299,1.236-3.6v-3.432L39.368,11.04z M14.658,3.626
				L14.658,3.626c0.002-0.725,0.59-1.313,1.314-1.314h7.414c0.725,0.002,1.313,0.59,1.314,1.314v2.551H14.658V3.626z M37.058,14.472
				c0,1.984-1.879,3.953-5.1,5.424v-0.201c0-0.639-0.518-1.156-1.156-1.156l0,0h-4.943c-0.637,0-1.154,0.518-1.154,1.156l0,0v3.707
				c0,2.004,1.625,3.625,3.629,3.625c2-0.002,3.623-1.623,3.625-3.625v-0.988c1.369-0.531,2.666-1.23,3.865-2.078v10.6
				c-0.002,1.338-1.086,2.424-2.426,2.426H5.962c-1.338-0.002-2.424-1.088-2.424-2.426v-10.6c1.197,0.848,2.496,1.545,3.865,2.076
				V23.4c0.002,2.004,1.629,3.625,3.631,3.623c1.684-0.002,3.145-1.164,3.527-2.803c1.697,0.225,3.406,0.338,5.117,0.336
				c0.422,0,0.85-0.008,1.271-0.02c0.639-0.021,1.139-0.555,1.119-1.193c-0.02-0.637-0.555-1.139-1.191-1.119l0,0
				c-0.4,0.014-0.801,0.021-1.201,0.02c-1.68,0.002-3.357-0.113-5.021-0.344v-2.207c0-0.639-0.518-1.156-1.156-1.156l0,0H8.558
				c-0.639,0-1.156,0.518-1.156,1.156l0,0v0.199c-3.225-1.469-5.1-3.438-5.1-5.422v-3.432C2.303,9.63,3.445,8.489,4.853,8.487
				h29.652c1.408,0.002,2.551,1.143,2.551,2.551L37.058,14.472z M29.644,20.845v2.553c0,0.725-0.588,1.314-1.314,1.314
				s-1.314-0.59-1.314-1.314v-2.553H29.644z M9.716,23.398v-2.553h2.631v2.551c0,0.727-0.59,1.314-1.316,1.314
				c-0.725,0-1.314-0.588-1.314-1.314V23.398z"/>
		</g>
	</g>
</g>
</svg>
