<?xml version="1.0" encoding="utf-8"?>
<!-- Generator: Adobe Illustrator 16.0.0, SVG Export Plug-In . SVG Version: 6.00 Build 0)  -->
<!DOCTYPE svg PUBLIC "-//W3C//DTD SVG 1.1//EN" "http://www.w3.org/Graphics/SVG/1.1/DTD/svg11.dtd">
<svg version="1.1" id="Layer_1" xmlns="http://www.w3.org/2000/svg" xmlns:xlink="http://www.w3.org/1999/xlink" x="0px" y="0px"
	 width="70.563px" height="63.398px" viewBox="0 0 70.563 63.398" enable-background="new 0 0 70.563 63.398" xml:space="preserve">
<g id="warning" transform="translate(0.002 -25.99)">
	<g id="Group_2002" transform="translate(31.148 46.666)">
		<g id="Group_2001">
			
				<linearGradient id="Path_16836_1_" gradientUnits="userSpaceOnUse" x1="-269.3104" y1="387.3491" x2="-269.3104" y2="386.3726" gradientTransform="matrix(8.27 0 0 -19.295 2230.501 7474.4053)">
				<stop  offset="0.13" style="stop-color:#00A9ED"/>
				<stop  offset="1" style="stop-color:#65106B"/>
			</linearGradient>
			<path id="Path_16836" fill="url(#Path_16836_1_)" d="M3.301,0.512C1.073,0.515-0.733,2.322-0.735,4.55v10.765
				c0,2.229,1.808,4.038,4.037,4.038c2.23,0,4.037-1.809,4.037-4.038l0,0V4.549C7.338,2.32,5.531,0.514,3.301,0.512z M4.647,15.316
				c-0.001,0.742-0.603,1.344-1.346,1.345l0,0c-0.743-0.001-1.345-0.603-1.345-1.345V4.549c0-0.744,0.604-1.344,1.347-1.343
				c0.742,0.001,1.343,0.602,1.344,1.343V15.316z"/>
		</g>
	</g>
	<g id="Group_2004" transform="translate(31.148 68.717)">
		<g id="Group_2003">
			
				<linearGradient id="Path_16837_1_" gradientUnits="userSpaceOnUse" x1="-269.3104" y1="338.4641" x2="-269.3104" y2="337.4886" gradientTransform="matrix(8.27 0 0 -8.27 2230.501 2799.0847)">
				<stop  offset="0.13" style="stop-color:#00A9ED"/>
				<stop  offset="1" style="stop-color:#65106B"/>
			</linearGradient>
			<path id="Path_16837" fill="url(#Path_16837_1_)" d="M3.302-0.01c-2.229,0-4.037,1.807-4.037,4.037
				c0,2.229,1.808,4.037,4.037,4.037c2.23,0,4.037-1.808,4.037-4.037C7.339,1.796,5.533-0.01,3.302-0.01L3.302-0.01z M3.302,5.372
				c-0.743,0-1.346-0.603-1.346-1.346S2.56,2.681,3.302,2.681s1.346,0.604,1.346,1.346l0,0C4.648,4.77,4.045,5.372,3.302,5.372z"/>
		</g>
	</g>
	<g id="Group_2006" transform="translate(0 25.992)">
		<g id="Group_2005">
			
				<linearGradient id="Path_16838_1_" gradientUnits="userSpaceOnUse" x1="-266.0218" y1="422.0505" x2="-266.0218" y2="421.0729" gradientTransform="matrix(70.5669 0 0 -63.4038 18806.8066 26760.543)">
				<stop  offset="0.13" style="stop-color:#00A9ED"/>
				<stop  offset="1" style="stop-color:#65106B"/>
			</linearGradient>
			<path id="Path_16838" fill="url(#Path_16838_1_)" d="M67.957,52.213L54.471,28.728c-0.058-0.116-0.122-0.235-0.188-0.353
				L40.65,4.637c-1.9-3.418-6.214-4.647-9.632-2.745c-1.127,0.627-2.062,1.549-2.702,2.669L14.646,28.375
				c-0.028,0.05-0.054,0.101-0.076,0.154L1.276,51.675c-2.253,3.244-1.45,7.699,1.793,9.951c1.188,0.824,2.598,1.27,4.044,1.277
				h54.698c0.096,0,0.191-0.011,0.285-0.03c1.144-0.047,2.259-0.37,3.249-0.943C68.737,59.958,69.903,55.62,67.957,52.213z
				 M63.999,59.598c-0.664,0.384-1.418,0.586-2.186,0.586l0,0c-0.086,0-0.172,0.007-0.257,0.024H7.112
				c-2.463-0.023-4.44-2.038-4.419-4.5c0.009-0.906,0.293-1.789,0.816-2.53c0.024-0.035,0.048-0.071,0.069-0.108l13.392-23.322
				v-0.006c0.033-0.057,0.063-0.115,0.087-0.176L30.651,5.903c1.206-2.105,3.891-2.835,5.997-1.628
				c0.694,0.398,1.268,0.979,1.657,1.68l0.008,0.016l13.632,23.744c0.047,0.082,0.09,0.163,0.129,0.242
				c0.013,0.026,0.026,0.051,0.04,0.076L65.621,53.55C66.832,55.67,66.109,58.368,63.999,59.598z"/>
		</g>
	</g>
	<g id="Group_2008" transform="translate(14.143 81.121)">
		<g id="Group_2007">
			
				<linearGradient id="Path_16839_1_" gradientUnits="userSpaceOnUse" x1="-190.0857" y1="232.1178" x2="-190.0857" y2="231.1412" gradientTransform="matrix(2.788 0 0 -2.756 530.9896 639.4178)">
				<stop  offset="0.13" style="stop-color:#00A9ED"/>
				<stop  offset="1" style="stop-color:#65106B"/>
			</linearGradient>
			<path id="Path_16839" fill="url(#Path_16839_1_)" d="M1.045-0.302H1.012c-0.744,0-1.345,0.603-1.345,1.346S0.268,2.39,1.012,2.39
				h0.032c0.743,0,1.345-0.604,1.345-1.347S1.786-0.302,1.045-0.302L1.045-0.302z"/>
		</g>
	</g>
	<g id="Group_2010" transform="translate(5.906 81.121)">
		<g id="Group_2009">
			
				<linearGradient id="Path_16840_1_" gradientUnits="userSpaceOnUse" x1="-238.4312" y1="232.1178" x2="-238.4312" y2="231.1412" gradientTransform="matrix(7.033 0 0 -2.756 1680.1833 639.4178)">
				<stop  offset="0.13" style="stop-color:#00A9ED"/>
				<stop  offset="1" style="stop-color:#65106B"/>
			</linearGradient>
			<path id="Path_16840" fill="url(#Path_16840_1_)" d="M5.383-0.302H1.206c-0.743,0-1.346,0.603-1.346,1.346S0.463,2.39,1.206,2.39
				h4.176c0.743,0,1.345-0.604,1.345-1.347S6.125-0.302,5.383-0.302z"/>
		</g>
	</g>
	<g id="Group_2012" transform="translate(53.634 81.121)">
		<g id="Group_2011">
			
				<linearGradient id="Path_16841_1_" gradientUnits="userSpaceOnUse" x1="-229.9449" y1="232.1178" x2="-229.9449" y2="231.1412" gradientTransform="matrix(2.789 0 0 -2.756 641.4125 639.4178)">
				<stop  offset="0.13" style="stop-color:#00A9ED"/>
				<stop  offset="1" style="stop-color:#65106B"/>
			</linearGradient>
			<path id="Path_16841" fill="url(#Path_16841_1_)" d="M0.111-0.302H0.08c-0.744,0-1.346,0.603-1.346,1.346S-0.664,2.39,0.08,2.39
				h0.031c0.744,0,1.346-0.604,1.346-1.347S0.855-0.302,0.111-0.302z"/>
		</g>
	</g>
	<g id="Group_2014" transform="translate(57.626 81.121)">
		<g id="Group_2013">
			
				<linearGradient id="Path_16842_1_" gradientUnits="userSpaceOnUse" x1="-290.3294" y1="232.1178" x2="-290.3294" y2="231.1412" gradientTransform="matrix(7.034 0 0 -2.756 2044.2516 639.4178)">
				<stop  offset="0.13" style="stop-color:#00A9ED"/>
				<stop  offset="1" style="stop-color:#65106B"/>
			</linearGradient>
			<path id="Path_16842" fill="url(#Path_16842_1_)" d="M4.162-0.302h-4.177c-0.743,0-1.346,0.603-1.346,1.346
				S-0.758,2.39-0.014,2.39h4.177c0.743,0,1.346-0.604,1.346-1.347S4.905-0.302,4.162-0.302L4.162-0.302z"/>
		</g>
	</g>
</g>
</svg>
