<?xml version="1.0" encoding="utf-8"?>
<!-- Generator: Adobe Illustrator 16.0.0, SVG Export Plug-In . SVG Version: 6.00 Build 0)  -->
<!DOCTYPE svg PUBLIC "-//W3C//DTD SVG 1.1//EN" "http://www.w3.org/Graphics/SVG/1.1/DTD/svg11.dtd">
<svg version="1.1" id="Layer_1" xmlns="http://www.w3.org/2000/svg" xmlns:xlink="http://www.w3.org/1999/xlink" x="0px" y="0px"
	 width="79.75px" height="72px" viewBox="0 0 79.75 72" enable-background="new 0 0 79.75 72" xml:space="preserve">
<g id="policy" transform="translate(0.001)">
	
		<linearGradient id="Path_17019_1_" gradientUnits="userSpaceOnUse" x1="-261.9009" y1="427.1611" x2="-261.9009" y2="426.1611" gradientTransform="matrix(79.7491 0 0 -72.0001 20926.25 30755.5645)">
		<stop  offset="0.13" style="stop-color:#00A9ED"/>
		<stop  offset="1" style="stop-color:#65106B"/>
	</linearGradient>
	<path id="Path_17019" fill="url(#Path_17019_1_)" d="M71.338,0H19.77c-4.455-0.017-8.083,3.572-8.116,8.026l-0.332,45.408H1.257
		C0.54,53.463-0.02,54.063,0,54.779v6.248c0.017,5.795,4.546,10.574,10.332,10.9V72h43.424v-0.085
		C54.081,71.928,54.275,72,54.497,72h0.031c6.026-0.035,10.884-4.947,10.852-10.973V21.309h13.111
		c0.719-0.035,1.277-0.639,1.258-1.358V8.485C79.756,3.825,75.999,0.033,71.338,0z M10.9,69.417h-0.009
		c-4.605-0.035-8.317-3.784-8.305-8.39v-5.01h41v4.987c-0.01,2.907,1.139,5.698,3.19,7.756c0.249,0.194,0.477,0.415,0.681,0.655
		L10.9,69.417z M62.799,61.025c0.029,4.6-3.671,8.354-8.271,8.392H54.5c-4.619-0.034-8.342-3.793-8.33-8.411v-6.227
		c0.004-0.724-0.568-1.318-1.291-1.344H13.9l0.332-45.4c0.026-3.034,2.504-5.473,5.538-5.452h45.471
		c-1.531,1.602-2.402,3.721-2.441,5.936V61.025z M77.165,8.508v10.218H65.379V8.517c0.025-3.261,2.66-5.901,5.92-5.934h0.037
		c3.24,0.032,5.846,2.677,5.828,5.917V8.508z"/>
	
		<linearGradient id="Path_17020_1_" gradientUnits="userSpaceOnUse" x1="-253.8242" y1="418.7285" x2="-253.8242" y2="417.7295" gradientTransform="matrix(22.7591 0 0 -27.9169 5814.5083 11698.248)">
		<stop  offset="0.13" style="stop-color:#00A9ED"/>
		<stop  offset="1" style="stop-color:#65106B"/>
	</linearGradient>
	<path id="Path_17020" fill="url(#Path_17020_1_)" d="M30.326,31.789l6.659,4.552c0.435,0.3,1.009,0.3,1.443,0l6.638-4.551
		c2.423-1.815,3.896-4.627,4.009-7.652v-9.21c0.014-0.487-0.254-0.938-0.688-1.16L38.248,8.781c-0.355-0.177-0.773-0.177-1.129,0
		l-10.118,4.974c-0.433,0.222-0.699,0.674-0.684,1.16v9.224c0.115,3.024,1.589,5.836,4.012,7.65H30.326z M28.896,15.72l8.8-4.341
		l8.801,4.353v8.407c-0.109,2.172-1.163,4.188-2.885,5.517l-5.93,4.055l-5.906-4.055c-1.719-1.331-2.77-3.346-2.877-5.517
		L28.896,15.72z"/>
	
		<linearGradient id="Path_17021_1_" gradientUnits="userSpaceOnUse" x1="-240.2368" y1="382.8232" x2="-240.2368" y2="381.8232" gradientTransform="matrix(10.3344 0 0 -7.7391 2520.3889 2981.438)">
		<stop  offset="0.13" style="stop-color:#00A9ED"/>
		<stop  offset="1" style="stop-color:#65106B"/>
	</linearGradient>
	<path id="Path_17021" fill="url(#Path_17021_1_)" d="M35.51,26.088c0.241,0.246,0.57,0.385,0.914,0.387l0,0
		c0.343-0.001,0.671-0.139,0.913-0.382l5.138-5.139c0.512-0.498,0.522-1.315,0.025-1.827c-0.498-0.511-1.316-0.522-1.827-0.025
		c-0.009,0.008-0.017,0.016-0.024,0.024l-4.22,4.219l-1.687-1.7c-0.502-0.507-1.321-0.511-1.828-0.008
		c-0.507,0.502-0.511,1.32-0.008,1.827L35.51,26.088z"/>
	
		<linearGradient id="Path_17022_1_" gradientUnits="userSpaceOnUse" x1="-257.4668" y1="283.6582" x2="-257.4668" y2="282.6582" gradientTransform="matrix(33.583 0 0 -2.583 8684.7607 772.7206)">
		<stop  offset="0.13" style="stop-color:#00A9ED"/>
		<stop  offset="1" style="stop-color:#65106B"/>
	</linearGradient>
	<path id="Path_17022" fill="url(#Path_17022_1_)" d="M53.756,40.036h-31c-0.713,0-1.292,0.578-1.292,1.292
		c0,0.713,0.579,1.291,1.292,1.291h31c0.714,0,1.292-0.578,1.292-1.291C55.048,40.614,54.47,40.036,53.756,40.036z"/>
	
		<linearGradient id="Path_17023_1_" gradientUnits="userSpaceOnUse" x1="-257.4668" y1="283.7168" x2="-257.4668" y2="282.7168" gradientTransform="matrix(33.584 0 0 -2.584 8685 779.1349)">
		<stop  offset="0.13" style="stop-color:#00A9ED"/>
		<stop  offset="1" style="stop-color:#65106B"/>
	</linearGradient>
	<path id="Path_17023" fill="url(#Path_17023_1_)" d="M53.756,46.009h-31c-0.713-0.02-1.307,0.542-1.327,1.256
		c-0.02,0.714,0.542,1.308,1.256,1.327c0.024,0.001,0.048,0.001,0.071,0h31c0.714-0.02,1.276-0.613,1.256-1.327
		C54.994,46.579,54.442,46.028,53.756,46.009z"/>
</g>
</svg>
