<svg xmlns="http://www.w3.org/2000/svg" xmlns:xlink="http://www.w3.org/1999/xlink" width="73.561" height="62.713" viewBox="0 0 73.561 62.713">
  <defs>
    <linearGradient id="linear-gradient" x1="0.5" x2="0.5" y2="1" gradientUnits="objectBoundingBox">
      <stop offset="0.13" stop-color="#00a9ed"/>
      <stop offset="1" stop-color="#65106b"/>
    </linearGradient>
  </defs>
  <path id="Union_23" data-name="Union 23" d="M-202.82,20180.273-221,20156.326v-25.309c.02-1.4,1.641-2.258,2.791-2.258,3.692,0,6.382,2.906,6.4,6.908v16.471l1.15,1.119a5.182,5.182,0,0,1,8.8-2.67l11.522,11.523a13.787,13.787,0,0,1,3.814,11.1v5.709a1.151,1.151,0,0,1-1.15,1.148,1.151,1.151,0,0,1-1.15-1.148v-.057c0,.156,0,.318.005-5.795a11.559,11.559,0,0,0-3.14-9.334l-11.527-11.521a2.947,2.947,0,0,0-4.016-.158l-.111.107a2.879,2.879,0,0,0,.005,4.057l7.187,7.182a1.155,1.155,0,0,1,0,1.625,1.146,1.146,0,0,1-1.626,0l-7.177-7.176-4.888-4.74v-17.434c-.015-4.016-3.561-5.156-4.6-4.432v24.291l17.7,23.322a1.146,1.146,0,0,1-.2,1.611,1.154,1.154,0,0,1-.71.244A1.141,1.141,0,0,1-202.82,20180.273Zm35.844.385a1.146,1.146,0,0,1-1.033-.643,1.152,1.152,0,0,1,.127-1.211l18.147-23.268v-24.291c-1.043-.725-4.579.43-4.6,4.438v17.428l-4.877,4.734c-7.45,7.273-7.131,7.521-8,7.521a1.157,1.157,0,0,1-1.059-.713,1.15,1.15,0,0,1,.248-1.252l7.182-7.182a2.879,2.879,0,0,0,.01-4.057l-.111-.107a2.954,2.954,0,0,0-4.021.158l-11.522,11.521c-3.935,3.936-3.115,9.219-3.135,9.432v5.754a1.151,1.151,0,0,1-1.15,1.148,1.148,1.148,0,0,1-1.15-1.148v-5.709a13.767,13.767,0,0,1,3.809-11.1l11.522-11.523a5.183,5.183,0,0,1,8.8,2.67l1.15-1.119v-16.461c.02-4.012,2.715-6.918,6.407-6.918,1.15,0,2.77.861,2.791,2.264v25.3c-18.929,23.994-18.507,24.332-19.453,24.332Zm-21.839-1.793ZM-187,20161c0-.553.669-1,1.5-1s1.5.451,1.5,1-.674,1-1.5,1S-187,20161.555-187,20161Zm.481-3.92a6.909,6.909,0,0,0-10.352-5.973l-.268.158h-.309a1.152,1.152,0,0,1-.537-2.168,9.2,9.2,0,0,1,4-1.2,12.526,12.526,0,0,1,8.62-4.564v-4.289a8.09,8.09,0,0,1-6.058-.076c-3.854-1.348-7.157-6.441-7.293-6.66a1.138,1.138,0,0,1-.117-1,1.156,1.156,0,0,1,.714-.709c.243-.08,6-2.016,9.851-.668a10.785,10.785,0,0,1,2.9,1.5v-2.072c-2.34-1.014-3.809-5.576.172-10.9a1.134,1.134,0,0,1,.912-.461,1.136,1.136,0,0,1,.917.445c4.092,5.3,2.649,9.912.3,10.926v2.242a10.324,10.324,0,0,1,3.13-1.676c3.854-1.348,9.608.588,9.851.668a1.156,1.156,0,0,1,.714.709,1.142,1.142,0,0,1-.122,1c-.137.219-3.434,5.309-7.293,6.66-2.006.7-4.422,1-6.28-.045v4.41a12.526,12.526,0,0,1,8.615,4.564,9.137,9.137,0,0,1,4.037,1.221,1.148,1.148,0,0,1-1.155,1.984,6.9,6.9,0,0,0-8.281,1.045,1.147,1.147,0,0,1-1.626-.016,1.152,1.152,0,0,1,.02-1.627,9.11,9.11,0,0,1,4.1-2.324,10.353,10.353,0,0,0-13.726,0,9.213,9.213,0,0,1,6.863,8.895,1.151,1.151,0,0,1-1.15,1.148A1.148,1.148,0,0,1-186.516,20157.082Zm7.334-24.975c-5.86,2.051-4.234,6.746,1.641,4.7,1.95-.68,3.971-2.861,5.2-4.447a19.116,19.116,0,0,0-4.375-.6A7.593,7.593,0,0,0-179.183,20132.107Zm-16.678.248c1.124,1.459,3.13,3.727,5.191,4.447,5.835,2.035,7.547-2.629,1.641-4.7a7.6,7.6,0,0,0-2.462-.354A19.143,19.143,0,0,0-195.861,20132.355Zm10.469-7.7c.03,3.551,2.35,3.521,2.325-.02a7.781,7.781,0,0,0-1.19-3.373A7.724,7.724,0,0,0-185.392,20124.656Z" transform="translate(220.998 -20118.002)" fill="url(#linear-gradient)"/>
</svg>
