<svg xmlns="http://www.w3.org/2000/svg" width="62.392" height="74" viewBox="0 0 62.392 74">
  <g id="family-insurance_1_" data-name="family-insurance (1)" transform="translate(0)">
    <path id="Path_16705" data-name="Path 16705" d="M168.995,237h0a7.763,7.763,0,0,0,0,15.525H169a7.763,7.763,0,1,0-.01-15.525Zm3.828,11.59A5.4,5.4,0,0,1,169,250.2h-.01a5.441,5.441,0,0,1,0-10.882h0a5.436,5.436,0,0,1,3.822,9.268Zm0,0" transform="translate(-137.836 -202.612)"/>
    <path id="Path_16706" data-name="Path 16706" d="M297.842,202h0a7.763,7.763,0,0,0,0,15.525h.107A7.763,7.763,0,0,0,297.842,202Zm3.865,11.593a5.293,5.293,0,0,1-3.777,1.611h-.089a5.441,5.441,0,0,1,0-10.882h0a5.467,5.467,0,0,1,3.859,9.272Zm0,0" transform="translate(-248.022 -172.69)"/>
    <path id="Path_16707" data-name="Path 16707" d="M0,330.8v10.495a1.2,1.2,0,0,0,1.166,1.2H18.717v3.918a1.118,1.118,0,0,0,1.109,1.161H42.5a1.176,1.176,0,0,0,1.178-1.161V342.49H61.225a1.2,1.2,0,0,0,1.166-1.2V330.832A10.833,10.833,0,0,0,51.582,320h-3.35a10.994,10.994,0,0,0-10,6.535,10.744,10.744,0,0,0-5.379-1.457H29.486a10.764,10.764,0,0,0-5.366,1.449A10.914,10.914,0,0,0,14.16,320H10.825A10.82,10.82,0,0,0,0,330.8Zm48.233-8.477H51.58a8.509,8.509,0,0,1,8.49,8.509v9.338h-16.4v-4.223a10.776,10.776,0,0,0-3.166-7.656c-.112-.112-.231-.218-.346-.324a8.67,8.67,0,0,1,8.07-5.644ZM29.488,327.4H32.85a8.54,8.54,0,0,1,8.5,8.545v9.3H21.039v-9.332a8.486,8.486,0,0,1,8.449-8.515Zm-18.661-5.078h3.33a8.627,8.627,0,0,1,8.054,5.632,10.747,10.747,0,0,0-3.494,7.959v4.255H2.321V330.8a8.5,8.5,0,0,1,8.506-8.479Zm0,0" transform="translate(0 -273.569)"/>
    <path id="Path_16708" data-name="Path 16708" d="M40.382,202h0a7.763,7.763,0,1,0,0,15.525h0a7.659,7.659,0,0,0,7.667-7.734v-.028A7.712,7.712,0,0,0,40.382,202Zm0,13.2h0a5.441,5.441,0,1,1,0-10.882h0a5.441,5.441,0,0,1,0,10.882Zm0,0" transform="translate(-27.885 -172.69)"/>
    <path id="Path_16709" data-name="Path 16709" d="M81.753,27.238a27.238,27.238,0,1,0-54.476,0,1.161,1.161,0,0,0,2.284.3,10.44,10.44,0,0,1,1.584-3.46,5.528,5.528,0,0,1,3.813-1.542,5.417,5.417,0,0,1,3.8,1.531,5.533,5.533,0,0,1,1.556,3.828,1.161,1.161,0,1,0,2.322,0A5.273,5.273,0,0,1,48,22.532a5.418,5.418,0,0,1,3.8,1.531,5.53,5.53,0,0,1,1.556,3.828,1.161,1.161,0,0,0,2.322,0,5.274,5.274,0,0,1,5.358-5.358,5.418,5.418,0,0,1,3.8,1.531,5.532,5.532,0,0,1,1.555,3.828,1.161,1.161,0,0,0,2.322,0,5.274,5.274,0,0,1,5.358-5.358,5.416,5.416,0,0,1,3.8,1.53,10.233,10.233,0,0,1,1.594,3.472,1.161,1.161,0,0,0,2.284-.3ZM74.073,20.21a7.816,7.816,0,0,0-5.432,2.2l-.049.05a8.486,8.486,0,0,0-1.038,1.347,8.483,8.483,0,0,0-1.038-1.347l-.024-.026A7.809,7.809,0,0,0,55.6,22.409l-.05.05a8.483,8.483,0,0,0-1.038,1.347,8.483,8.483,0,0,0-1.038-1.347l-.025-.026a7.808,7.808,0,0,0-10.888-.024c-.017.016-.034.033-.05.05a8.482,8.482,0,0,0-1.038,1.347,8.486,8.486,0,0,0-1.038-1.347l-.024-.026a7.793,7.793,0,0,0-10.236-.58,24.928,24.928,0,0,1,48.671-.02,7.813,7.813,0,0,0-4.776-1.623Zm0,0" transform="translate(-23.319)" fill="#147db2"/>
  </g>
</svg>
