<svg xmlns="http://www.w3.org/2000/svg" width="73.001" height="73.001" viewBox="0 0 73.001 73.001">
  <g id="Outline" transform="translate(-2 -2)">
    <path id="Path_16768" data-name="Path 16768" d="M23.167,26.334A12.167,12.167,0,1,0,11,14.167,12.167,12.167,0,0,0,23.167,26.334Zm0-21.9a9.733,9.733,0,1,1-9.733,9.733,9.733,9.733,0,0,1,9.733-9.733Z" transform="translate(1.95)"/>
    <rect id="Rectangle_721" data-name="Rectangle 721" width="2" height="2" transform="translate(24 35.001)"/>
    <path id="Path_16769" data-name="Path 16769" d="M66.983,29.874a42.482,42.482,0,0,1-15.378-4.732,1.217,1.217,0,0,0-1.144,0,42.482,42.482,0,0,1-15.378,4.732A1.217,1.217,0,0,0,34,31.083V45.5A26.543,26.543,0,0,0,50.565,69.924a1.217,1.217,0,0,0,.937,0A26.543,26.543,0,0,0,68.067,45.5V31.083a1.217,1.217,0,0,0-1.084-1.209ZM65.634,45.5a24.1,24.1,0,0,1-14.6,21.982A24.1,24.1,0,0,1,36.433,45.5V32.16a44.874,44.874,0,0,0,14.6-4.57,44.864,44.864,0,0,0,14.6,4.57Z" transform="translate(6.934 4.984)"/>
    <path id="Path_16770" data-name="Path 16770" d="M39.925,42.5,38.2,44.224l7.3,7.3a1.217,1.217,0,0,0,1.72,0l14.6-14.6L60.1,35.2,46.365,48.949Z" transform="translate(7.844 7.194)" fill="#147db2"/>
    <path id="Path_16771" data-name="Path 16771" d="M32.417,42.684h-5.54l-9.1-17.5a17.3,17.3,0,0,0,16.1-.754h2.19a9.682,9.682,0,0,1,7.29,3.332c.911-.139,1.813-.314,2.707-.513a12.147,12.147,0,0,0-10-5.252H33.536a1.226,1.226,0,0,0-.65.187,14.794,14.794,0,0,1-15.539,0A1.226,1.226,0,0,0,16.7,22H14.167A12.18,12.18,0,0,0,2,34.167v14.6A6.091,6.091,0,0,0,8.083,54.85h3.65V65.8h2.433V54.85h18.25a6.083,6.083,0,1,0,0-12.167ZM8.083,52.417a3.65,3.65,0,0,1-3.65-3.65v-14.6a9.682,9.682,0,0,1,2.287-6.255L14.4,42.684H11.733v2.433h3.934l3.8,7.3Zm14.122,0L8.579,26.211a9.667,9.667,0,0,1,5.588-1.778h.478L29.2,52.417Zm10.212,0h-.478l-3.8-7.3h4.274a3.65,3.65,0,1,1,0,7.3Z" transform="translate(0 4.334)"/>
  </g>
</svg>
