<?xml version="1.0" encoding="utf-8"?>
<!-- Generator: Adobe Illustrator 16.0.0, SVG Export Plug-In . SVG Version: 6.00 Build 0)  -->
<!DOCTYPE svg PUBLIC "-//W3C//DTD SVG 1.1//EN" "http://www.w3.org/Graphics/SVG/1.1/DTD/svg11.dtd">
<svg version="1.1" id="family" xmlns="http://www.w3.org/2000/svg" xmlns:xlink="http://www.w3.org/1999/xlink" x="0px" y="0px"
	 width="73px" height="73px" viewBox="0 0 73 73" enable-background="new 0 0 73 73" xml:space="preserve">
<linearGradient id="Path_16705_1_" gradientUnits="userSpaceOnUse" x1="-251.1069" y1="407.9316" x2="-251.1069" y2="406.9316" gradientTransform="matrix(15.3275 0 0 -15.316 3885.5698 6281.7944)">
	<stop  offset="0.13" style="stop-color:#00A9ED"/>
	<stop  offset="1" style="stop-color:#65106B"/>
</linearGradient>
<path id="Path_16705" fill="url(#Path_16705_1_)" d="M36.738,33.924L36.738,33.924c-4.229-0.003-7.661,3.422-7.664,7.652
	c-0.004,4.229,3.422,7.66,7.651,7.664c0.004,0,0.009,0,0.013,0h0.01c4.229-0.003,7.656-3.434,7.652-7.663
	C44.398,37.348,40.967,33.921,36.738,33.924L36.738,33.924z M40.514,45.357c-0.993,1.011-2.35,1.584-3.767,1.592h-0.01
	c-2.964,0.004-5.371-2.396-5.374-5.361c-0.004-2.965,2.397-5.371,5.361-5.375c0.004,0,0.009,0,0.013,0l0,0
	c2.962,0.019,5.347,2.436,5.329,5.397c-0.009,1.404-0.568,2.749-1.559,3.745L40.514,45.357z"/>
<linearGradient id="Path_16706_1_" gradientUnits="userSpaceOnUse" x1="-251.2305" y1="407.9346" x2="-251.2305" y2="406.9346" gradientTransform="matrix(15.4372 0 0 -15.318 3933.5122 6277.644)">
	<stop  offset="0.13" style="stop-color:#00A9ED"/>
	<stop  offset="1" style="stop-color:#65106B"/>
</linearGradient>
<path id="Path_16706" fill="url(#Path_16706_1_)" d="M55.146,28.914L55.146,28.914c-4.23,0.003-7.656,3.435-7.652,7.665
	c0.004,4.224,3.428,7.648,7.652,7.652h0.104c4.229,0.012,7.669-3.408,7.681-7.638c0.012-4.23-3.407-7.669-7.637-7.681
	c-0.049,0-0.096,0-0.145,0.001L55.146,28.914z M58.959,40.35c-0.977,1.01-2.32,1.582-3.725,1.59h-0.088
	c-2.965,0.04-5.4-2.33-5.441-5.295c-0.041-2.964,2.33-5.4,5.295-5.44c0.049-0.001,0.098-0.001,0.146,0l0,0
	c2.978,0.036,5.363,2.48,5.326,5.458c-0.016,1.379-0.561,2.698-1.52,3.688H58.959z"/>
<linearGradient id="Path_16707_1_" gradientUnits="userSpaceOnUse" x1="-264.168" y1="418.8818" x2="-264.168" y2="417.8818" gradientTransform="matrix(61.551 0 0 -27.196 16296.625 11437.7051)">
	<stop  offset="0.13" style="stop-color:#00A9ED"/>
	<stop  offset="1" style="stop-color:#65106B"/>
</linearGradient>
<path id="Path_16707" fill="url(#Path_16707_1_)" d="M6,56.457v10.354c0,0.64,0.511,1.163,1.151,1.18h17.313v3.865
	c-0.025,0.606,0.447,1.119,1.054,1.144C25.531,73,25.545,73,25.558,73h22.364c0.636,0.001,1.154-0.51,1.162-1.145V67.99H66.4
	c0.64-0.017,1.15-0.54,1.15-1.18V56.49c0-5.894-4.771-10.674-10.664-10.687h-3.301c-4.271,0.019-8.135,2.542-9.867,6.447
	c-1.611-0.938-3.441-1.433-5.306-1.437h-3.32c-1.859,0.004-3.685,0.497-5.294,1.429c-1.713-3.903-5.568-6.429-9.831-6.439h-3.289
	C10.79,45.801,6.012,50.568,6,56.457z M53.581,48.094h3.3c4.629,0.01,8.376,3.766,8.376,8.395v9.216H49.084v-4.166
	c0.008-2.833-1.117-5.552-3.123-7.554c-0.111-0.11-0.229-0.215-0.342-0.319c1.24-3.329,4.408-5.546,7.961-5.568L53.581,48.094z
	 M35.09,53.104h3.316c4.641,0.021,8.391,3.789,8.388,8.43v9.171H26.755v-9.2C26.739,56.883,30.47,53.124,35.09,53.104z
	 M16.681,48.094h3.285c3.548,0.016,6.714,2.229,7.945,5.557c-2.204,2.015-3.456,4.865-3.447,7.852v4.2H8.29v-9.241
	c0.01-4.625,3.765-8.369,8.391-8.365V48.094z"/>
<linearGradient id="Path_16708_1_" gradientUnits="userSpaceOnUse" x1="-250.9937" y1="407.9307" x2="-250.9937" y2="406.9307" gradientTransform="matrix(15.2279 0 0 -15.316 3840.3579 6276.7788)">
	<stop  offset="0.13" style="stop-color:#00A9ED"/>
	<stop  offset="1" style="stop-color:#65106B"/>
</linearGradient>
<path id="Path_16708" fill="url(#Path_16708_1_)" d="M18.328,28.914L18.328,28.914c-4.229-0.004-7.661,3.422-7.665,7.651
	s3.422,7.661,7.651,7.665c0.004,0,0.009,0,0.013,0l0,0c4.172,0.004,7.559-3.375,7.563-7.547c0-0.028,0-0.055,0-0.083v-0.028
	c0.029-4.201-3.354-7.63-7.555-7.659C18.333,28.914,18.331,28.914,18.328,28.914z M18.328,41.939L18.328,41.939
	c-2.965,0.003-5.371-2.397-5.375-5.362c-0.003-2.964,2.397-5.371,5.362-5.374c0.004,0,0.008,0,0.013,0l0,0
	c2.964-0.041,5.4,2.33,5.44,5.294c0.041,2.965-2.33,5.4-5.294,5.44c-0.049,0.001-0.098,0.001-0.146,0V41.939z"/>
<linearGradient id="Path_16709_1_" gradientUnits="userSpaceOnUse" x1="-263.5396" y1="419.6025" x2="-263.5396" y2="418.6025" gradientTransform="matrix(53.74 0 0 -28.6598 14199.374 12025.7129)">
	<stop  offset="0.13" style="stop-color:#00A9ED"/>
	<stop  offset="1" style="stop-color:#65106B"/>
</linearGradient>
<path id="Path_16709" fill="url(#Path_16709_1_)" d="M63.645,26.87c0-14.84-12.029-26.871-26.869-26.872
	C21.936-0.003,9.905,12.026,9.904,26.866c0,0.001,0,0.002,0,0.004c-0.001,0.632,0.511,1.146,1.143,1.147
	c0.522,0.001,0.979-0.351,1.11-0.856c0.307-1.224,0.836-2.381,1.562-3.413c1.011-0.972,2.359-1.517,3.762-1.521
	c1.4-0.007,2.747,0.535,3.751,1.51c0.98,1.013,1.53,2.367,1.535,3.776c0,0.632,0.513,1.145,1.145,1.145s1.145-0.513,1.145-1.145
	c-0.048-2.872,2.241-5.238,5.112-5.286c0.058-0.001,0.116-0.001,0.173,0c1.4-0.007,2.747,0.535,3.751,1.51
	c0.979,1.014,1.529,2.367,1.533,3.776c0,0.632,0.513,1.145,1.145,1.145s1.145-0.513,1.145-1.145
	c-0.048-2.872,2.241-5.238,5.112-5.286c0.059-0.001,0.115-0.001,0.174,0c1.4-0.007,2.747,0.535,3.752,1.51
	c0.98,1.014,1.529,2.367,1.533,3.776c0,0.632,0.514,1.145,1.146,1.145c0.633,0,1.146-0.513,1.146-1.145
	c-0.049-2.872,2.24-5.238,5.112-5.286c0.058-0.001,0.116-0.001,0.173,0c1.4-0.007,2.747,0.535,3.752,1.51
	c0.734,1.033,1.268,2.195,1.572,3.425c0.16,0.612,0.785,0.979,1.396,0.819c0.506-0.132,0.857-0.588,0.857-1.11L63.645,26.87z
	 M56.066,19.937c-1.999,0.001-3.92,0.778-5.357,2.169l-0.049,0.049c-0.385,0.407-0.729,0.853-1.023,1.329
	c-0.297-0.476-0.64-0.921-1.025-1.329l-0.023-0.025c-2.982-2.916-7.745-2.927-10.74-0.024l-0.05,0.049
	c-0.385,0.407-0.728,0.853-1.024,1.329c-0.296-0.476-0.639-0.921-1.024-1.329l-0.023-0.025c-2.983-2.916-7.745-2.927-10.741-0.024
	c-0.017,0.016-0.034,0.032-0.049,0.049c-0.385,0.407-0.728,0.853-1.024,1.329c-0.296-0.476-0.639-0.921-1.024-1.329l-0.024-0.025
	c-2.75-2.691-7.064-2.936-10.1-0.573C15.703,8.297,28.833-0.07,42.094,2.868c9.325,2.066,16.61,9.345,18.684,18.669
	C59.428,20.498,57.771,19.935,56.066,19.937z"/>
</svg>
