<?xml version="1.0" encoding="utf-8"?>
<!-- Generator: Adobe Illustrator 16.0.0, SVG Export Plug-In . SVG Version: 6.00 Build 0)  -->
<!DOCTYPE svg PUBLIC "-//W3C//DTD SVG 1.1//EN" "http://www.w3.org/Graphics/SVG/1.1/DTD/svg11.dtd">
<svg version="1.1" id="Layer_1" xmlns="http://www.w3.org/2000/svg" xmlns:xlink="http://www.w3.org/1999/xlink" x="0px" y="0px"
	 width="66.5px" height="73px" viewBox="0 0 66.5 73" enable-background="new 0 0 66.5 73" xml:space="preserve">
<g id="cross" transform="translate(-0.001 -0.004)">
	
		<linearGradient id="Path_16702_1_" gradientUnits="userSpaceOnUse" x1="-267.7812" y1="427.7315" x2="-267.7812" y2="426.7315" gradientTransform="matrix(66.499 0 0 -72.9965 17840.4551 31223.8262)">
		<stop  offset="0.13" style="stop-color:#00A9ED"/>
		<stop  offset="1" style="stop-color:#65106B"/>
	</linearGradient>
	<path id="Path_16702" fill="url(#Path_16702_1_)" d="M66.178,14.916c-0.086-0.797-0.688-1.44-1.479-1.577
		c-1.92-0.329-3.83-0.716-5.675-1.15c-0.581-0.116-1.146,0.261-1.261,0.841c-0.11,0.553,0.227,1.097,0.771,1.245
		c1.799,0.424,3.664,0.8,5.538,1.13c0.772,8.955-0.01,17.976-2.311,26.666c-1.714,6.524-4.831,12.596-9.134,17.791
		c-5.088,5.877-11.849,10.057-19.378,11.983c-7.529-1.926-14.291-6.106-19.378-11.981C9.57,54.667,6.453,48.595,4.739,42.07
		c-2.301-8.691-3.083-17.714-2.31-26.67C20.5,12.258,30.347,5.521,33.251,3.243c2.06,1.611,8.701,6.278,20.373,9.731
		c0.572,0.151,1.159-0.19,1.311-0.763c0.145-0.549-0.163-1.115-0.702-1.292C42.478,7.442,36.058,2.751,34.37,1.4
		c-0.653-0.529-1.585-0.529-2.238,0C21.966,9.557,5.083,12.776,1.8,13.339c-0.789,0.137-1.391,0.781-1.476,1.577
		c-0.838,9.312-0.042,18.697,2.352,27.734c1.798,6.823,5.064,13.171,9.569,18.601c5.387,6.229,12.555,10.658,20.538,12.687
		C32.936,73.979,33.093,74,33.251,74s0.315-0.021,0.468-0.063c7.982-2.027,15.15-6.453,20.538-12.682
		c4.505-5.43,7.771-11.777,9.568-18.6c2.395-9.038,3.189-18.424,2.354-27.735V14.916z"/>
	
		<linearGradient id="Path_16703_1_" gradientUnits="userSpaceOnUse" x1="-266.6518" y1="426.2218" x2="-266.6518" y2="425.2218" gradientTransform="matrix(51.7565 0 0 -56.7641 13834.2158 24203.2617)">
		<stop  offset="0.13" style="stop-color:#00A9ED"/>
		<stop  offset="1" style="stop-color:#65106B"/>
	</linearGradient>
	<path id="Path_16703" fill="url(#Path_16703_1_)" d="M22.738,61.247c3.081,2.083,6.491,3.63,10.087,4.577
		c0.278,0.074,0.572,0.074,0.851,0c6.201-1.576,11.769-5.017,15.954-9.856c3.496-4.214,6.031-9.14,7.426-14.435
		c1.854-6.995,2.47-14.261,1.822-21.469c-0.078-0.724-0.625-1.308-1.342-1.432c-14.357-2.464-21.9-8.058-23.268-9.156
		c-0.592-0.479-1.44-0.479-2.032,0c-7.789,6.256-20.748,8.726-23.268,9.159c-0.717,0.124-1.265,0.709-1.342,1.433
		C7.163,25.183,7.329,30.335,8.119,35.41c1.5,9.573,5.09,17.173,10.656,22.59c0.424,0.414,1.104,0.406,1.518-0.018
		s0.406-1.104-0.018-1.518c-5.226-5.087-8.6-12.283-10.034-21.387c-0.74-4.763-0.913-9.596-0.516-14.4
		c13.573-2.4,21.113-7.411,23.532-9.273c2.419,1.862,9.958,6.877,23.531,9.273c0.563,6.813-0.047,13.671-1.8,20.278
		c-1.312,4.995-3.697,9.644-6.991,13.62c-3.874,4.475-9.019,7.663-14.75,9.142c-3.314-0.886-6.458-2.318-9.3-4.239
		c-0.488-0.335-1.155-0.211-1.489,0.277s-0.21,1.156,0.278,1.49L22.738,61.247z"/>
	
		<linearGradient id="Path_16704_1_" gradientUnits="userSpaceOnUse" x1="-262.1924" y1="419.0587" x2="-262.1924" y2="418.0587" gradientTransform="matrix(27.607 0 0 -27.607 7271.5801 11592.6709)">
		<stop  offset="0.13" style="stop-color:#00A9ED"/>
		<stop  offset="1" style="stop-color:#65106B"/>
	</linearGradient>
	<path id="Path_16704" fill="url(#Path_16704_1_)" d="M37.823,23.706h-9.145c-1.049,0-1.9,0.851-1.9,1.9v5.431h-5.431
		c-1.049,0-1.9,0.851-1.9,1.9v9.145c0,1.049,0.851,1.9,1.9,1.9h5.431v5.431c0,1.05,0.851,1.899,1.9,1.899h9.145
		c1.049,0,1.9-0.85,1.9-1.899v-5.431h5.431c1.05,0,1.9-0.852,1.9-1.9v-9.144c0-1.049-0.851-1.9-1.9-1.9h-5.431v-5.436
		C39.721,24.554,38.871,23.706,37.823,23.706z M44.903,33.176v8.651h-5.431c-1.05,0-1.9,0.851-1.9,1.899v5.426H28.92v-5.432
		c0-1.049-0.851-1.9-1.9-1.9h-5.431v-8.65h5.431c1.049,0,1.9-0.851,1.9-1.9v-5.418h8.652v5.431c0,1.049,0.851,1.9,1.9,1.9
		L44.903,33.176z"/>
</g>
</svg>
