<?xml version="1.0" encoding="utf-8"?>
<!-- Generator: Adobe Illustrator 16.0.0, SVG Export Plug-In . SVG Version: 6.00 Build 0)  -->
<!DOCTYPE svg PUBLIC "-//W3C//DTD SVG 1.1//EN" "http://www.w3.org/Graphics/SVG/1.1/DTD/svg11.dtd">
<svg version="1.1" id="hospital_3_" xmlns="http://www.w3.org/2000/svg" xmlns:xlink="http://www.w3.org/1999/xlink" x="0px"
	 y="0px" width="73px" height="73px" viewBox="0 0 73 73" enable-background="new 0 0 73 73" xml:space="preserve">
<g id="HospitalDailyCash.5934334b" transform="translate(0)">
	
		<linearGradient id="Path_16713_1_" gradientUnits="userSpaceOnUse" x1="-256.7676" y1="415.7139" x2="-256.7676" y2="414.7139" gradientTransform="matrix(22.211 0 0 -22.211 5739.5474 9240.2217)">
		<stop  offset="0.13" style="stop-color:#00A9ED"/>
		<stop  offset="1" style="stop-color:#65106B"/>
	</linearGradient>
	<path id="Path_16713" fill="url(#Path_16713_1_)" d="M46.441,13.435h-5.457V7.979c0-0.644-0.521-1.165-1.164-1.165h-6.639
		c-0.644,0-1.165,0.521-1.165,1.165v5.461H26.56c-0.642,0-1.162,0.519-1.165,1.16v6.64c0,0.643,0.521,1.165,1.165,1.165h5.456v5.455
		c0,0.644,0.521,1.165,1.165,1.165h6.639c0.643,0,1.164-0.521,1.164-1.165v-5.456h5.457c0.643,0,1.164-0.521,1.164-1.165V14.6
		C47.605,13.957,47.084,13.435,46.441,13.435L46.441,13.435z M45.275,20.074H39.82c-0.644,0-1.166,0.521-1.166,1.165
		c0,0,0,0.001,0,0.001v5.456h-4.308V21.24c0-0.644-0.522-1.165-1.165-1.165h-5.456v-4.31h5.456c0.643,0,1.165-0.522,1.165-1.165
		V9.14h4.308v5.46c0,0.643,0.522,1.165,1.166,1.165h5.455V20.074z"/>
	
		<linearGradient id="Path_16714_1_" gradientUnits="userSpaceOnUse" x1="-156.6538" y1="382.4727" x2="-156.6538" y2="381.4727" gradientTransform="matrix(2.33 0 0 -7.5991 427.5457 2963.104)">
		<stop  offset="0.13" style="stop-color:#00A9ED"/>
		<stop  offset="1" style="stop-color:#65106B"/>
	</linearGradient>
	<path id="Path_16714" fill="url(#Path_16714_1_)" d="M62.545,64.27c0.644,0,1.165-0.521,1.165-1.164l0,0v-5.273
		c-0.002-0.644-0.525-1.163-1.169-1.161c-0.641,0.002-1.158,0.521-1.161,1.161v5.273C61.38,63.748,61.901,64.27,62.545,64.27
		L62.545,64.27L62.545,64.27z"/>
	
		<linearGradient id="Path_16715_1_" gradientUnits="userSpaceOnUse" x1="-156.6538" y1="382.4736" x2="-156.6538" y2="381.4727" gradientTransform="matrix(2.33 0 0 -7.5991 427.5457 2949.104)">
		<stop  offset="0.13" style="stop-color:#00A9ED"/>
		<stop  offset="1" style="stop-color:#65106B"/>
	</linearGradient>
	<path id="Path_16715" fill="url(#Path_16715_1_)" d="M62.545,50.268c0.644,0,1.165-0.521,1.165-1.166l0,0v-5.272
		c-0.002-0.644-0.525-1.163-1.169-1.161c-0.641,0.002-1.158,0.521-1.161,1.161v5.272C61.38,49.746,61.901,50.268,62.545,50.268
		L62.545,50.268L62.545,50.268z"/>
	
		<linearGradient id="Path_16716_1_" gradientUnits="userSpaceOnUse" x1="-156.6538" y1="382.4727" x2="-156.6538" y2="381.4727" gradientTransform="matrix(2.33 0 0 -7.599 427.5457 2935.0869)">
		<stop  offset="0.13" style="stop-color:#00A9ED"/>
		<stop  offset="1" style="stop-color:#65106B"/>
	</linearGradient>
	<path id="Path_16716" fill="url(#Path_16716_1_)" d="M62.545,36.264c0.644,0,1.165-0.522,1.165-1.165l0,0v-5.273
		c-0.002-0.644-0.525-1.163-1.169-1.161c-0.641,0.002-1.158,0.521-1.161,1.161v5.273C61.38,35.742,61.901,36.264,62.545,36.264z"/>
	
		<linearGradient id="Path_16717_1_" gradientUnits="userSpaceOnUse" x1="-156.6528" y1="382.4902" x2="-156.6528" y2="381.4902" gradientTransform="matrix(2.33 0 0 -7.6015 375.4589 2964.1704)">
		<stop  offset="0.13" style="stop-color:#00A9ED"/>
		<stop  offset="1" style="stop-color:#65106B"/>
	</linearGradient>
	<path id="Path_16717" fill="url(#Path_16717_1_)" d="M10.455,56.667c-0.644,0-1.165,0.521-1.165,1.165l0,0v5.273
		c0.001,0.643,0.523,1.164,1.167,1.163c0.642-0.001,1.163-0.521,1.164-1.163v-5.273C11.62,57.188,11.099,56.667,10.455,56.667
		L10.455,56.667z"/>
	
		<linearGradient id="Path_16718_1_" gradientUnits="userSpaceOnUse" x1="-156.6538" y1="382.5088" x2="-156.6538" y2="381.5088" gradientTransform="matrix(2.33 0 0 -7.6045 375.4589 2951.4614)">
		<stop  offset="0.13" style="stop-color:#00A9ED"/>
		<stop  offset="1" style="stop-color:#65106B"/>
	</linearGradient>
	<path id="Path_16718" fill="url(#Path_16718_1_)" d="M10.455,42.664c-0.644,0-1.165,0.521-1.165,1.165l0,0v5.272
		c-0.001,0.645,0.52,1.166,1.164,1.167c0.643,0.001,1.166-0.521,1.167-1.163c0-0.002,0-0.002,0-0.004v-5.272
		C11.62,43.186,11.099,42.664,10.455,42.664L10.455,42.664z"/>
	
		<linearGradient id="Path_16719_1_" gradientUnits="userSpaceOnUse" x1="-156.6538" y1="382.4883" x2="-156.6538" y2="381.4883" gradientTransform="matrix(2.33 0 0 -7.6015 375.4589 2936.1467)">
		<stop  offset="0.13" style="stop-color:#00A9ED"/>
		<stop  offset="1" style="stop-color:#65106B"/>
	</linearGradient>
	<path id="Path_16719" fill="url(#Path_16719_1_)" d="M10.455,28.661c-0.644,0-1.165,0.521-1.165,1.165v5.273
		c0.001,0.643,0.523,1.164,1.167,1.164c0.642-0.001,1.163-0.521,1.164-1.164v-5.273C11.62,29.183,11.099,28.661,10.455,28.661z"/>
	
		<linearGradient id="Path_16720_1_" gradientUnits="userSpaceOnUse" x1="-264.9297" y1="427.7412" x2="-264.9297" y2="426.7412" gradientTransform="matrix(73 0 0 -73 19376.3789 31225.0625)">
		<stop  offset="0.13" style="stop-color:#00A9ED"/>
		<stop  offset="1" style="stop-color:#65106B"/>
	</linearGradient>
	<path id="Path_16720" fill="url(#Path_16720_1_)" d="M71.835,19.931H54.42V2.33h0.389c0.643,0,1.164-0.521,1.164-1.165
		C55.973,0.522,55.451,0,54.809,0l0,0H18.192c-0.643,0-1.165,0.522-1.165,1.165c0,0.644,0.521,1.165,1.165,1.165h0.388v17.6H1.165
		C0.521,19.93,0,20.452,0,21.095c0,0.002,0,0.003,0,0.005v50.74C0.003,72.481,0.523,73,1.165,73h70.67
		C72.479,73,73,72.479,73,71.835l0,0V21.1c0.002-0.644-0.518-1.167-1.161-1.169C71.838,19.931,71.836,19.931,71.835,19.931z
		 M2.33,22.26h16.25v48.41H2.33V22.26z M45.275,48.588V70.67h-7.61V48.588H45.275z M35.335,70.67h-7.611V48.588h7.611V70.67z
		 M70.67,70.67H54.42V30.415c0-0.644-0.521-1.165-1.165-1.165s-1.165,0.521-1.165,1.165l0,0V70.67H47.6V47.423
		c0-0.644-0.521-1.165-1.164-1.165l0,0H26.56c-0.644,0-1.165,0.521-1.165,1.165V70.67H20.91V2.33h31.18v23.425
		c0.001,0.644,0.523,1.165,1.166,1.164s1.163-0.521,1.164-1.164V22.26h16.25V70.67z"/>
</g>
</svg>
