<?xml version="1.0" encoding="utf-8"?>
<!-- Generator: Adobe Illustrator 16.0.0, SVG Export Plug-In . SVG Version: 6.00 Build 0)  -->
<!DOCTYPE svg PUBLIC "-//W3C//DTD SVG 1.1//EN" "http://www.w3.org/Graphics/SVG/1.1/DTD/svg11.dtd">
<svg version="1.1" id="Layer_1" xmlns="http://www.w3.org/2000/svg" xmlns:xlink="http://www.w3.org/1999/xlink" x="0px" y="0px"
	 width="73.932px" height="73.934px" viewBox="0 0 73.932 73.934" enable-background="new 0 0 73.932 73.934" xml:space="preserve">
<g id="surface1" transform="translate(0 0)">
	
		<linearGradient id="Path_16783_1_" gradientUnits="userSpaceOnUse" x1="-264.5144" y1="427.7039" x2="-264.5144" y2="426.7039" gradientTransform="matrix(73.932 0 0 -66.543 19593.0879 28468.041)">
		<stop  offset="0.13" style="stop-color:#00A9ED"/>
		<stop  offset="1" style="stop-color:#65106B"/>
	</linearGradient>
	<path id="Path_16783" fill="url(#Path_16783_1_)" d="M72.7,43.127h-3.78L66.539,8.541c-0.043-0.649-0.583-1.153-1.233-1.151h-7.393
		c-0.649-0.002-1.188,0.5-1.232,1.147L54.3,43.127h-2.547v-7.393c-0.001-0.681-0.553-1.231-1.233-1.23
		c-0.278,0-0.549,0.095-0.767,0.269L39.43,43.027v-7.293c-0.001-0.681-0.553-1.231-1.233-1.23c-0.278,0-0.549,0.095-0.767,0.269
		l-10.32,8.256v-7.294c0-0.681-0.553-1.231-1.233-1.23c-0.278,0-0.549,0.095-0.767,0.269L14.79,43.028v-7.294
		c-0.001-0.682-0.554-1.232-1.234-1.231c-0.224,0-0.441,0.061-0.633,0.175L0.6,42.071C0.229,42.293,0,42.694,0,43.127V72.7
		c0,0.681,0.552,1.232,1.231,1.232H72.7c0.68,0,1.231-0.552,1.231-1.232V44.359C73.932,43.678,73.38,43.127,72.7,43.127L72.7,43.127
		z M59.064,9.857h5.092l2.301,33.27h-9.688L59.064,9.857z M41.894,71.467V56.681h7.394v14.786L41.894,71.467z M71.467,71.467H51.753
		V55.449c-0.001-0.681-0.553-1.232-1.233-1.232h-9.857c-0.681,0-1.232,0.552-1.232,1.232l0,0v16.019H2.464V43.824l9.857-5.914v7.679
		c0.001,0.681,0.553,1.232,1.232,1.232c0.279-0.001,0.55-0.096,0.768-0.27l10.32-8.256v7.293c0,0.681,0.552,1.232,1.232,1.232
		c0.279-0.001,0.55-0.096,0.768-0.27l10.32-8.256v7.293c0,0.681,0.552,1.232,1.232,1.232c0.278-0.001,0.55-0.096,0.768-0.27
		l10.32-8.256v6.062c0,0.68,0.551,1.231,1.231,1.231c0.002,0,0.004,0,0.006,0h20.947v25.876V71.467z"/>
	
		<linearGradient id="Path_16784_1_" gradientUnits="userSpaceOnUse" x1="-256.3279" y1="355.7371" x2="-256.3279" y2="354.7371" gradientTransform="matrix(22.2219 0 0 -4.9337 5747.8213 1755.0879)">
		<stop  offset="0.13" style="stop-color:#00A9ED"/>
		<stop  offset="1" style="stop-color:#65106B"/>
	</linearGradient>
	<path id="Path_16784" fill="url(#Path_16784_1_)" d="M41.886,2.464c0.448,0.24,0.854,0.553,1.2,0.927
		c0.69,0.842,1.675,1.392,2.754,1.537c1.135-0.145,2.172-0.717,2.899-1.6c0.313-0.327,0.661-0.616,1.04-0.862
		c0.255,0.012,0.918,0.634,1.275,0.968c0.664,0.823,1.619,1.359,2.667,1.5c1.212-0.153,2.32-0.761,3.1-1.7
		c0.301-0.283,0.76-0.713,0.848-0.767c0.662,0,0.813,0.22,1.22,0.807c0.535,1.01,1.58,1.646,2.723,1.658
		c0.681,0,1.232-0.552,1.232-1.232s-0.552-1.232-1.232-1.232c-0.247,0-0.295-0.017-0.694-0.6C60.262,0.692,59.012-0.026,57.667,0
		c-0.997,0.139-1.904,0.651-2.536,1.436c-0.409,0.386-1.101,1.029-1.355,1.036c-0.381-0.231-0.73-0.513-1.038-0.837
		C51.997,0.732,50.94,0.147,49.781,0c-1.067,0.146-2.041,0.69-2.725,1.523c-0.346,0.371-0.745,0.688-1.184,0.941
		c-0.411-0.235-0.785-0.53-1.109-0.875c-0.72-0.874-1.746-1.442-2.869-1.59c-0.681-0.021-1.25,0.513-1.271,1.193
		s0.514,1.25,1.194,1.271C41.839,2.466,41.863,2.466,41.886,2.464L41.886,2.464z"/>
	
		<linearGradient id="Path_16785_1_" gradientUnits="userSpaceOnUse" x1="-232.8479" y1="394.5603" x2="-232.8479" y2="393.5603" gradientTransform="matrix(7.393 0 0 -9.857 1732.53 3945.8601)">
		<stop  offset="0.13" style="stop-color:#00A9ED"/>
		<stop  offset="1" style="stop-color:#65106B"/>
	</linearGradient>
	<path id="Path_16785" fill="url(#Path_16785_1_)" d="M13.554,56.679H8.625c-0.681,0-1.232,0.552-1.232,1.232v7.393
		c0,0.681,0.552,1.232,1.232,1.232h4.929c0.681,0,1.232-0.552,1.232-1.232v-7.393C14.786,57.231,14.235,56.679,13.554,56.679z
		 M12.321,64.073H9.857v-4.929h2.464V64.073z"/>
	
		<linearGradient id="Path_16786_1_" gradientUnits="userSpaceOnUse" x1="-232.8474" y1="394.5603" x2="-232.8474" y2="393.5603" gradientTransform="matrix(7.393 0 0 -9.857 1742.3861 3945.8601)">
		<stop  offset="0.13" style="stop-color:#00A9ED"/>
		<stop  offset="1" style="stop-color:#65106B"/>
	</linearGradient>
	<path id="Path_16786" fill="url(#Path_16786_1_)" d="M23.412,56.679h-4.93c-0.68,0-1.231,0.552-1.231,1.232v7.393
		c0,0.681,0.552,1.232,1.231,1.232h4.93c0.68,0,1.231-0.552,1.231-1.232v-7.393C24.644,57.231,24.092,56.679,23.412,56.679z
		 M22.179,64.073h-2.46v-4.929h2.464L22.179,64.073z"/>
	
		<linearGradient id="Path_16787_1_" gradientUnits="userSpaceOnUse" x1="-232.8474" y1="394.5603" x2="-232.8474" y2="393.5603" gradientTransform="matrix(7.393 0 0 -9.857 1752.2455 3945.8601)">
		<stop  offset="0.13" style="stop-color:#00A9ED"/>
		<stop  offset="1" style="stop-color:#65106B"/>
	</linearGradient>
	<path id="Path_16787" fill="url(#Path_16787_1_)" d="M33.269,56.679h-4.925c-0.681,0-1.232,0.552-1.232,1.232v7.393
		c0,0.681,0.552,1.232,1.232,1.232h4.929c0.681,0,1.232-0.552,1.232-1.232v-7.393c0-0.681-0.552-1.232-1.232-1.232
		C33.272,56.679,33.271,56.679,33.269,56.679z M32.036,64.073h-2.465v-4.929h2.465V64.073z"/>
</g>
</svg>
