<?xml version="1.0" encoding="utf-8"?>
<!-- Generator: Adobe Illustrator 16.0.0, SVG Export Plug-In . SVG Version: 6.00 Build 0)  -->
<!DOCTYPE svg PUBLIC "-//W3C//DTD SVG 1.1//EN" "http://www.w3.org/Graphics/SVG/1.1/DTD/svg11.dtd">
<svg version="1.1" id="Layer_1" xmlns="http://www.w3.org/2000/svg" xmlns:xlink="http://www.w3.org/1999/xlink" x="0px" y="0px"
	 width="72.756px" height="72.758px" viewBox="0 0 72.756 72.758" enable-background="new 0 0 72.756 72.758" xml:space="preserve">
<g id="Page-1" transform="translate(-0.005)">
	<g id="_037---Possessions-Cover" transform="translate(0.005)">
		
			<linearGradient id="Shape_1_" gradientUnits="userSpaceOnUse" x1="-265.0366" y1="427.5762" x2="-265.0366" y2="426.6006" gradientTransform="matrix(72.75 0 0 -72.7577 19317.8828 31111.2305)">
			<stop  offset="0.13" style="stop-color:#00A9ED"/>
			<stop  offset="1" style="stop-color:#65106B"/>
		</linearGradient>
		<path id="Shape" fill="url(#Shape_1_)" d="M71.212,9.08l-16.55-7.148c-0.298-0.13-0.637-0.13-0.936,0L37.176,9.08
			c-0.431,0.188-0.709,0.614-0.709,1.084v5.854H12.815c-0.042,0.003-0.084,0.009-0.125,0.016c-0.03-0.001-0.06,0.002-0.088,0.011
			c-0.134,0.023-0.263,0.071-0.38,0.139c-0.01-0.001-0.02,0.002-0.027,0.01c-0.01,0.012-0.021,0.023-0.034,0.033
			c-0.113,0.073-0.212,0.166-0.293,0.274l-0.018,0.019v0.008L1.21,31.896c-0.025,0.043-0.047,0.088-0.065,0.135
			c-0.023,0.043-0.044,0.087-0.063,0.133c-0.042,0.114-0.066,0.233-0.07,0.354C1.012,32.537,1,32.554,1,32.574v0.012
			c0.003,0.141,0.031,0.281,0.083,0.412c0.02,0.041,0.041,0.081,0.065,0.118c0.023,0.056,0.051,0.11,0.083,0.162l29.553,39.011
			c0.016,0.021,0.042,0.029,0.06,0.05c0.083,0.097,0.182,0.179,0.292,0.245c0.038,0.022,0.078,0.043,0.118,0.062
			c0.297,0.149,0.647,0.149,0.945,0c0.041-0.019,0.08-0.039,0.118-0.062c0.11-0.066,0.209-0.148,0.293-0.245
			c0.017-0.021,0.043-0.028,0.061-0.05l20.47-27.021c0.705,0.433,1.6,0.396,2.268-0.091l11.438-8.142
			c3.168-2.25,5.056-5.89,5.069-9.774V10.165C71.918,9.695,71.642,9.27,71.212,9.08z M12.762,19.364l7.396,12.023H4.431
			L12.762,19.364z M39.374,35.064l-7.645,31.496l-7.955-32.812h14.622c0.295,0.46,0.62,0.899,0.975,1.315H39.374z M14.935,18.384
			h14.68l-7.342,11.929L14.935,18.384z M21.348,33.752l7.904,32.589L4.555,33.752H21.348z M41.36,36.901
			c0.061,0.044,0.112,0.098,0.173,0.139l9.664,6.886l-16.989,22.42L41.36,36.901z M24.39,31.388l7.339-11.929l4.729,7.684v0.118
			c0.002,1.409,0.254,2.807,0.746,4.127H24.39z M36.458,22.64l-2.613-4.255h2.613V22.64z M69.557,27.266
			c-0.011,3.123-1.53,6.047-4.078,7.853l-11.29,8.031l-11.29-8.038c-2.546-1.806-4.064-4.73-4.077-7.852V10.942l15.367-6.639
			l15.368,6.639V27.266z"/>
		
			<linearGradient id="Shape-2_1_" gradientUnits="userSpaceOnUse" x1="-258.8647" y1="421.4824" x2="-258.8647" y2="420.5078" gradientTransform="matrix(26.681 0 0 -33.85 6960.9536 14274.168)">
			<stop  offset="0.13" style="stop-color:#00A9ED"/>
			<stop  offset="1" style="stop-color:#65106B"/>
		</linearGradient>
		<path id="Shape-2" fill="url(#Shape-2_1_)" d="M53.718,7.082l-11.821,5.111c-0.431,0.188-0.709,0.612-0.709,1.081v13.988
			c0.011,2.357,1.159,4.563,3.082,5.926l9.236,6.574c0.41,0.292,0.961,0.292,1.37,0l9.236-6.573c1.923-1.363,3.07-3.57,3.083-5.927
			V13.274c-0.001-0.469-0.281-0.893-0.711-1.081L54.663,7.082C54.362,6.951,54.02,6.951,53.718,7.082z M64.83,14.057v13.205
			c-0.012,1.591-0.79,3.08-2.091,3.997l-8.549,6.089l-8.548-6.085c-1.301-0.917-2.079-2.405-2.091-3.997V14.051L54.19,9.455
			L64.83,14.057z"/>
		
			<linearGradient id="Shape-3_1_" gradientUnits="userSpaceOnUse" x1="-253.2466" y1="406.3467" x2="-253.2466" y2="405.3711" gradientTransform="matrix(16.9326 0 0 -14.531 4342.3276 5920.665)">
			<stop  offset="0.13" style="stop-color:#00A9ED"/>
			<stop  offset="1" style="stop-color:#65106B"/>
		</linearGradient>
		<path id="Shape-3" fill="url(#Shape-3_1_)" d="M47.806,24.531c-0.533-0.377-1.271-0.25-1.647,0.284
			c-0.361,0.512-0.261,1.217,0.229,1.607l4.729,3.546c0.51,0.384,1.233,0.292,1.633-0.207l9.455-11.821
			c0.396-0.519,0.297-1.261-0.223-1.657c-0.503-0.384-1.218-0.304-1.624,0.181l-8.746,10.927L47.806,24.531z"/>
	</g>
</g>
</svg>
