<?xml version="1.0" encoding="utf-8"?>
<!-- Generator: Adobe Illustrator 16.0.0, SVG Export Plug-In . SVG Version: 6.00 Build 0)  -->
<!DOCTYPE svg PUBLIC "-//W3C//DTD SVG 1.1//EN" "http://www.w3.org/Graphics/SVG/1.1/DTD/svg11.dtd">
<svg version="1.1" id="Layer_1" xmlns="http://www.w3.org/2000/svg" xmlns:xlink="http://www.w3.org/1999/xlink" x="0px" y="0px"
	 width="61.811px" height="70.004px" viewBox="0 0 61.811 70.004" enable-background="new 0 0 61.811 70.004" xml:space="preserve">
<g id="kidnapping" transform="translate(-29.964)">
	
		<linearGradient id="Path_17008_1_" gradientUnits="userSpaceOnUse" x1="-239.8194" y1="425.9707" x2="-239.8194" y2="424.9961" gradientTransform="matrix(61.809 0 0 -70.004 14884.1484 29821.4063)">
		<stop  offset="0.13" style="stop-color:#00A9ED"/>
		<stop  offset="1" style="stop-color:#65106B"/>
	</linearGradient>
	<path id="Path_17008" fill="url(#Path_17008_1_)" d="M74.711,33.776h-5.279v-2.322c1.867-1.765,3.123-4.08,3.584-6.608
		c1.883-0.723,3.341-2.253,3.975-4.167c0.395-1.173,0.36-2.448-0.099-3.598c-0.435-1.121-1.346-1.99-2.487-2.372
		c-0.381-0.128-0.788-0.169-1.188-0.118V8.074c-0.005-3.491-2.834-6.32-6.325-6.324H55.298c-3.49,0.004-6.319,2.833-6.324,6.324
		v2.542c-1.964-1.133-4.127-1.878-6.373-2.194c-0.929-0.163-1.814,0.459-1.977,1.389c-0.063,0.36-0.009,0.73,0.154,1.058
		c0.587,1.198,1.272,2.346,2.048,3.431c-0.911,0.713-1.765,1.496-2.556,2.34c-0.622,0.656-0.594,1.692,0.062,2.314
		c0.255,0.242,0.581,0.395,0.929,0.437c0.932,0.116,1.871,0.176,2.81,0.181c0.293,0,0.585-0.007,0.884-0.023
		c0.041,0.386,0.122,0.766,0.242,1.134c0.633,1.914,2.092,3.444,3.974,4.167c0.46,2.529,1.716,4.845,3.584,6.61v2.321h-5.281
		c-2.945-0.001-5.837,0.785-8.376,2.279c-0.477,0.278-0.637,0.89-0.359,1.366c0.279,0.478,0.89,0.638,1.367,0.359
		c0.002-0.001,0.005-0.002,0.007-0.004c2.23-1.313,4.773-2.005,7.361-2.004h5.28v0.529c0.002,1.557,1.262,2.817,2.819,2.819h11.037
		c1.557-0.002,2.817-1.263,2.819-2.819v-0.529h5.279c4.529,0,8.799,2.117,11.542,5.723L52.22,48.325
		c-0.02,0.004-0.04,0.012-0.057,0.021l-18.092-3.634c0.66-1.583,1.596-3.038,2.764-4.295c0.357-0.422,0.304-1.053-0.118-1.408
		c-0.393-0.334-0.976-0.313-1.344,0.049c-2.838,3.051-4.415,7.065-4.409,11.234v17.912c0.003,0.991,0.806,1.793,1.797,1.795h40.526
		c0.551,0,0.999-0.447,0.999-1c0-0.551-0.448-0.998-0.999-0.998H32.961V50.293c0-1.238,0.157-2.472,0.469-3.67l55.799,11.184v10.198
		H78.053c-0.553,0-1,0.448-1,0.999c0,0.553,0.447,1,1,1h11.376c0.993-0.001,1.798-0.806,1.799-1.799V50.293
		C91.217,41.175,83.829,33.786,74.711,33.776z M50.973,16.375V14.23c0.003-2.12,1.721-3.837,3.84-3.84h12.564
		c2.119,0.002,3.837,1.72,3.84,3.84v0.333H54.7c-0.552,0-1,0.448-1,1s0.448,0.999,1,0.999h16.518v5.136H50.973V16.375z
		 M73.788,16.613c0.581,0.205,1.042,0.657,1.259,1.235c0.277,0.71,0.294,1.496,0.046,2.217c-0.357,1.011-1.022,1.886-1.9,2.503
		c0.018-0.086,0.027-5.836,0.027-5.836C73.358,16.563,73.595,16.513,73.788,16.613L73.788,16.613z M55.298,3.749h11.593
		c2.388,0.003,4.323,1.938,4.326,4.326v1.768c-1.062-0.933-2.427-1.446-3.84-1.446H54.813c-1.413,0-2.778,0.513-3.84,1.446V8.074
		C50.976,5.687,52.911,3.752,55.298,3.749z M48.062,12.415c0.318,0.237,0.624,0.491,0.915,0.76v1.416
		c-0.4-0.05-0.806-0.01-1.188,0.118c-0.409,0.133-0.793,0.333-1.137,0.591c-0.164-0.109-0.327-0.223-0.487-0.342
		c-1.393-1.254-2.525-2.769-3.333-4.46C44.685,10.787,46.461,11.438,48.062,12.415z M42.241,17.485
		c0.591-0.594,1.222-1.148,1.886-1.658c0.265,0.266,0.547,0.512,0.846,0.738c0.14,0.104,0.283,0.205,0.426,0.303
		c-0.033,0.071-0.066,0.144-0.097,0.217c-0.061,0.147-0.113,0.296-0.159,0.448c-0.969,0.063-1.94,0.045-2.905-0.052L42.241,17.485z
		 M47.102,20.064c-0.248-0.721-0.231-1.507,0.046-2.217c0.216-0.578,0.677-1.03,1.259-1.235c0.196-0.084,0.424-0.036,0.569,0.12
		v5.818C48.112,21.934,47.457,21.066,47.102,20.064L47.102,20.064z M51.05,23.883c-0.006-0.06-0.019-0.119-0.037-0.177h20.167
		c-0.018,0.058-0.03,0.117-0.037,0.177c-0.293,2.461-1.483,4.729-3.343,6.368l-0.008,0.007c-4.189,3.698-10.585,3.3-14.283-0.89
		c-1.356-1.538-2.214-3.451-2.46-5.486H51.05z M67.43,36.308c0,0.453-0.367,0.819-0.82,0.82H55.578
		c-0.454-0.001-0.82-0.367-0.821-0.82v-3.315c3.888,2.39,8.789,2.39,12.675,0v3.315H67.43z M57.226,49.354l30.208-6.055
		c1.183,2.141,1.802,4.547,1.799,6.993v5.474L57.226,49.354z"/>
	
		<linearGradient id="Path_17010_1_" gradientUnits="userSpaceOnUse" x1="-202.8121" y1="296.374" x2="-202.8121" y2="295.3984" gradientTransform="matrix(6.4481 0 0 -2.8611 1368.7013 872.8285)">
		<stop  offset="0.13" style="stop-color:#00A9ED"/>
		<stop  offset="1" style="stop-color:#65106B"/>
	</linearGradient>
	<path id="Path_17010" fill="url(#Path_17010_1_)" d="M58.127,27.408c0.41,0.369,1.042,0.335,1.411-0.075
		c0.834-0.614,1.97-0.614,2.803,0c0.37,0.41,1.002,0.442,1.411,0.073c0.409-0.369,0.443-0.999,0.076-1.409
		c-1.635-1.498-4.142-1.498-5.775,0C57.683,26.408,57.718,27.039,58.127,27.408L58.127,27.408z"/>
</g>
</svg>
