<?xml version="1.0" encoding="utf-8"?>
<!-- Generator: Adobe Illustrator 16.0.0, SVG Export Plug-In . SVG Version: 6.00 Build 0)  -->
<!DOCTYPE svg PUBLIC "-//W3C//DTD SVG 1.1//EN" "http://www.w3.org/Graphics/SVG/1.1/DTD/svg11.dtd">
<svg version="1.1" id="Layer_1" xmlns="http://www.w3.org/2000/svg" xmlns:xlink="http://www.w3.org/1999/xlink" x="0px" y="0px"
	 width="52.158px" height="73px" viewBox="0 0 52.158 73" enable-background="new 0 0 52.158 73" xml:space="preserve">
<g id="Group_1943" transform="translate(-588 -1072)">
	<g id="money_2_" transform="translate(588 1101.709)">
		
			<linearGradient id="Path_16721_1_" gradientUnits="userSpaceOnUse" x1="-271.8086" y1="378.752" x2="-271.8086" y2="377.752" gradientTransform="matrix(38.25 0 0 -15.647 10423.7725 5933.29)">
			<stop  offset="0.13" style="stop-color:#00A9ED"/>
			<stop  offset="1" style="stop-color:#65106B"/>
		</linearGradient>
		<path id="Path_16721" fill="url(#Path_16721_1_)" d="M9.693,8.693h34.771v13.908h1.739V6.954H7.954v15.647h1.739V8.693z"/>
		
			<linearGradient id="Path_16722_1_" gradientUnits="userSpaceOnUse" x1="-239.8027" y1="348.0771" x2="-239.8027" y2="347.0771" gradientTransform="matrix(6.954 0 0 -6.954 1694.6705 2434.4309)">
			<stop  offset="0.13" style="stop-color:#00A9ED"/>
			<stop  offset="1" style="stop-color:#65106B"/>
		</linearGradient>
		<path id="Path_16722" fill="url(#Path_16722_1_)" d="M23.603,17.386c0,1.921,1.557,3.478,3.477,3.478
			c1.921,0,3.478-1.557,3.478-3.478c0-1.92-1.557-3.477-3.478-3.477C25.159,13.909,23.603,15.466,23.603,17.386L23.603,17.386z
			 M28.818,17.386c0,0.961-0.778,1.739-1.739,1.739c-0.96,0-1.739-0.778-1.739-1.739c0-0.96,0.779-1.739,1.739-1.739l0,0
			C28.04,15.646,28.818,16.426,28.818,17.386z"/>
		
			<linearGradient id="Path_16723_1_" gradientUnits="userSpaceOnUse" x1="-271.0977" y1="182.4961" x2="-271.0977" y2="181.4961" gradientTransform="matrix(34.772 0 0 -1.739 9453.6973 320.8391)">
			<stop  offset="0.13" style="stop-color:#00A9ED"/>
			<stop  offset="1" style="stop-color:#65106B"/>
		</linearGradient>
		<path id="Path_16723" fill="url(#Path_16723_1_)" d="M9.693,3.477h34.771v1.739H9.693V3.477z"/>
		
			<linearGradient id="Path_16724_1_" gradientUnits="userSpaceOnUse" x1="-270.2295" y1="182.498" x2="-270.2295" y2="181.498" gradientTransform="matrix(31.3 0 0 -1.739 8485.2822 317.3641)">
			<stop  offset="0.13" style="stop-color:#00A9ED"/>
			<stop  offset="1" style="stop-color:#65106B"/>
		</linearGradient>
		<path id="Path_16724" fill="url(#Path_16724_1_)" d="M11.433,0h31.3v1.739h-31.3V0z"/>
		
			<linearGradient id="Path_16725_1_" gradientUnits="userSpaceOnUse" x1="-273.7056" y1="385.2666" x2="-273.7056" y2="384.2666" gradientTransform="matrix(52.154 0 0 -21.3029 14301.9102 8229.2764)">
			<stop  offset="0.13" style="stop-color:#00A9ED"/>
			<stop  offset="1" style="stop-color:#65106B"/>
		</linearGradient>
		<path id="Path_16725" fill="url(#Path_16725_1_)" d="M44.64,25.21l-7.563-3.043c-0.873-0.324-1.851-0.193-2.608,0.349
			L22.82,31.902L4.825,22.341c-1.274-0.673-2.853-0.21-3.563,1.043C1.092,23.768,1.003,24.182,1,24.602v2.172
			c-0.004,0.933,0.492,1.795,1.3,2.261L26.9,42.943c0.388,0.245,0.841,0.366,1.3,0.348c0.236,0.015,0.474-0.016,0.7-0.087
			l15.647-4.086h8.606V25.21H44.64z M28.383,41.551c-0.205,0.064-0.429,0.032-0.608-0.087L3.174,27.551
			c-0.271-0.167-0.437-0.464-0.435-0.783v-2.166c-0.001-0.319,0.163-0.615,0.435-0.783c0.134-0.07,0.285-0.1,0.436-0.086
			c0.15-0.014,0.302,0.016,0.435,0.086L27.95,36.598l8.606-5.041l-0.869-1.479l-7.824,4.607l-3.477-1.826l11.039-8.867
			c0.247-0.199,0.588-0.232,0.869-0.088l7.215,2.869v10.953L28.383,41.551z M51.42,37.378h-6.085V26.951h6.085V37.378z"/>
		
			<linearGradient id="Path_16726_1_" gradientUnits="userSpaceOnUse" x1="-122.498" y1="314.9639" x2="-122.498" y2="313.9639" gradientTransform="matrix(1.739 0 0 -4.347 260.9685 1397.8285)">
			<stop  offset="0.13" style="stop-color:#00A9ED"/>
			<stop  offset="1" style="stop-color:#65106B"/>
		</linearGradient>
		<path id="Path_16726" fill="url(#Path_16726_1_)" d="M47.073,28.688h1.739v4.347h-1.739V28.688z"/>
		
			<linearGradient id="Path_16727_1_" gradientUnits="userSpaceOnUse" x1="-270.23" y1="375.6777" x2="-270.23" y2="374.6777" gradientTransform="matrix(31.3 0 0 -13.905 8485.2822 5234.2319)">
			<stop  offset="0.13" style="stop-color:#00A9ED"/>
			<stop  offset="1" style="stop-color:#65106B"/>
		</linearGradient>
		<path id="Path_16727" fill="url(#Path_16727_1_)" d="M42.732,21.732v-9.562h-1.3c-0.227,0.014-0.422-0.159-0.436-0.386
			c-0.001-0.016-0.001-0.033,0-0.049v-1.305H13.171v1.301c0.014,0.227-0.158,0.421-0.385,0.435c-0.017,0.001-0.033,0.001-0.05,0
			h-1.304v10.435h1.3c0.227-0.014,0.421,0.159,0.435,0.386c0.001,0.017,0.001,0.033,0,0.05v1.3h16.518v-1.735H14.909
			c-0.186-0.854-0.875-1.51-1.739-1.651v-7.041c0.829-0.177,1.477-0.823,1.652-1.652H39.25c0.187,0.855,0.876,1.511,1.739,1.652
			v7.823H42.732z"/>
	</g>
	
		<linearGradient id="Path_16728_1_" gradientUnits="userSpaceOnUse" x1="314.5195" y1="1490.6182" x2="314.5195" y2="1489.6182" gradientTransform="matrix(50.0044 0 0 -26.6986 -15112.4219 40869.5117)">
		<stop  offset="0.13" style="stop-color:#00A9ED"/>
		<stop  offset="1" style="stop-color:#65106B"/>
	</linearGradient>
	<path id="Path_16728" fill="url(#Path_16728_1_)" d="M639.929,1097c0-13.807-11.193-25-25-25c-13.808,0-25,11.193-25,25
		c-0.012,0.588,0.455,1.074,1.044,1.085c0.499,0.01,0.938-0.329,1.056-0.814c0.286-1.137,0.778-2.212,1.453-3.171
		c0.941-0.904,2.194-1.411,3.5-1.415c1.303-0.007,2.556,0.498,3.49,1.405c0.91,0.942,1.422,2.2,1.427,3.51
		c-0.019,0.588,0.444,1.08,1.032,1.098c0.589,0.018,1.08-0.444,1.099-1.033c0.001-0.021,0.001-0.043,0-0.065
		c-0.044-2.672,2.087-4.874,4.759-4.918c0.053-0.001,0.106-0.001,0.159,0c1.302-0.008,2.555,0.495,3.49,1.4
		c0.912,0.944,1.424,2.205,1.427,3.518c0,0.588,0.477,1.065,1.065,1.065s1.065-0.477,1.065-1.065
		c-0.043-2.673,2.088-4.875,4.761-4.918c0.053-0.001,0.104-0.001,0.157,0c1.303-0.007,2.556,0.498,3.49,1.405
		c0.912,0.943,1.424,2.202,1.428,3.513c0,0.588,0.478,1.065,1.065,1.065c0.589,0,1.065-0.477,1.065-1.065
		c-0.043-2.673,2.088-4.875,4.761-4.918c0.053-0.001,0.105-0.001,0.157,0c1.302-0.008,2.555,0.495,3.489,1.4
		c0.684,0.961,1.18,2.042,1.463,3.186c0.139,0.572,0.714,0.923,1.285,0.785c0.486-0.118,0.825-0.557,0.815-1.056L639.929,1097z
		 M632.879,1090.55c-1.86,0.001-3.647,0.725-4.984,2.018l-0.045,0.046c-0.358,0.379-0.678,0.793-0.953,1.236
		c-0.275-0.443-0.595-0.857-0.952-1.236l-0.022-0.023c-2.775-2.711-7.205-2.721-9.992-0.022l-0.047,0.046
		c-0.357,0.379-0.677,0.793-0.951,1.236c-0.275-0.443-0.595-0.857-0.952-1.236l-0.023-0.023c-2.775-2.711-7.205-2.721-9.993-0.022
		l-0.046,0.046c-0.357,0.379-0.677,0.793-0.952,1.236c-0.275-0.443-0.595-0.857-0.952-1.236l-0.022-0.023
		c-2.558-2.506-6.575-2.733-9.4-0.533c2.733-12.336,14.949-20.121,27.285-17.388c8.677,1.922,15.455,8.695,17.384,17.37
		c-1.256-0.967-2.797-1.491-4.383-1.489L632.879,1090.55z"/>
</g>
</svg>
