<?xml version="1.0" encoding="utf-8"?>
<!-- Generator: Adobe Illustrator 16.0.0, SVG Export Plug-In . SVG Version: 6.00 Build 0)  -->
<!DOCTYPE svg PUBLIC "-//W3C//DTD SVG 1.1//EN" "http://www.w3.org/Graphics/SVG/1.1/DTD/svg11.dtd">
<svg version="1.1" id="gears" xmlns="http://www.w3.org/2000/svg" xmlns:xlink="http://www.w3.org/1999/xlink" x="0px" y="0px"
	 width="64.646px" height="64.646px" viewBox="0 0 64.646 64.646" enable-background="new 0 0 64.646 64.646" xml:space="preserve">
<g id="Group_1998">
	
		<linearGradient id="Path_16800_1_" gradientUnits="userSpaceOnUse" x1="-267.345" y1="420.9636" x2="-267.345" y2="419.9998" gradientTransform="matrix(49.679 0 0 -49.68 13306.3975 20915.7813)">
		<stop  offset="0.13" style="stop-color:#00A9ED"/>
		<stop  offset="1" style="stop-color:#65106B"/>
	</linearGradient>
	<path id="Path_16800" fill="url(#Path_16800_1_)" d="M32.988,40.934c-0.234-0.49-0.821-0.699-1.312-0.466
		c-0.802,0.381-1.635,0.692-2.489,0.932c-0.357,0.1-0.628,0.392-0.7,0.755l-1.042,5.205c-0.104,0.515-0.556,0.886-1.082,0.887
		h-2.839c-0.525-0.001-0.977-0.371-1.082-0.887l-1.042-5.205c-0.072-0.363-0.343-0.655-0.7-0.755
		c-1.205-0.338-2.366-0.818-3.456-1.433c-0.323-0.182-0.72-0.166-1.029,0.039l-4.42,2.943c-0.437,0.289-1.017,0.232-1.39-0.136
		l-2.007-2.011c-0.37-0.371-0.427-0.953-0.138-1.392l2.944-4.417c0.206-0.309,0.221-0.706,0.039-1.029
		c-0.614-1.09-1.094-2.25-1.431-3.456c-0.1-0.357-0.392-0.628-0.755-0.701l-5.207-1.04c-0.515-0.104-0.885-0.557-0.887-1.082v-2.839
		c0.001-0.525,0.372-0.978,0.887-1.082l5.207-1.042c0.363-0.072,0.655-0.343,0.755-0.699c0.337-1.205,0.817-2.366,1.431-3.457
		c0.182-0.323,0.167-0.72-0.039-1.029l-2.944-4.419c-0.29-0.438-0.232-1.02,0.138-1.392l2.008-2.004
		c0.373-0.368,0.952-0.426,1.389-0.138l4.417,2.944c0.308,0.206,0.706,0.22,1.029,0.039c1.09-0.614,2.251-1.094,3.456-1.431
		c0.356-0.1,0.627-0.392,0.699-0.755l1.042-5.207c0.104-0.515,0.556-0.885,1.082-0.887h2.84c0.525,0.001,0.978,0.372,1.082,0.887
		l1.04,5.207c0.074,0.363,0.344,0.655,0.701,0.755c1.205,0.337,2.366,0.817,3.456,1.431c0.323,0.182,0.72,0.167,1.029-0.039
		l4.417-2.944c0.438-0.29,1.02-0.232,1.392,0.138l2.011,2.007c0.371,0.373,0.429,0.955,0.139,1.392l-2.945,4.417
		c-0.205,0.308-0.22,0.706-0.038,1.029c0.613,1.09,1.095,2.251,1.432,3.456c0.1,0.357,0.392,0.627,0.755,0.7l5.205,1.042
		c0.516,0.104,0.887,0.556,0.889,1.082v2.839c-0.002,0.525-0.372,0.978-0.889,1.082l-5.205,1.041
		c-0.363,0.072-0.655,0.343-0.755,0.7c-0.245,0.875-0.565,1.729-0.959,2.547c-0.252,0.482-0.064,1.077,0.418,1.328
		s1.077,0.063,1.328-0.419c0.01-0.019,0.019-0.038,0.027-0.057c0.354-0.74,0.658-1.505,0.906-2.286l4.628-0.925
		c1.432-0.293,2.463-1.55,2.468-3.012v-2.839c-0.005-1.462-1.036-2.72-2.469-3.012l-4.628-0.924
		c-0.303-0.955-0.687-1.882-1.148-2.772l2.616-3.925c0.807-1.22,0.646-2.838-0.385-3.875l-2.007-2.008
		c-1.038-1.031-2.656-1.192-3.876-0.386l-3.925,2.618c-0.889-0.46-1.816-0.845-2.771-1.148L29.376,4.79
		c-0.292-1.433-1.55-2.464-3.012-2.467h-2.839c-1.462,0.006-2.72,1.037-3.012,2.469L19.589,9.42
		c-0.955,0.303-1.882,0.688-2.771,1.148l-3.924-2.617c-1.219-0.808-2.839-0.646-3.875,0.386l-2.009,2.003
		c-1.031,1.037-1.192,2.655-0.386,3.875l2.616,3.925c-0.46,0.89-0.845,1.817-1.148,2.772l-4.627,0.924
		C2.032,22.129,1.003,23.387,1,24.849v2.839c0.006,1.462,1.037,2.72,2.469,3.012l4.627,0.925c0.303,0.955,0.688,1.882,1.147,2.771
		L6.625,38.32c-0.806,1.221-0.645,2.839,0.386,3.876l2.008,2.008c1.037,1.031,2.656,1.192,3.875,0.386l3.925-2.616
		c0.89,0.461,1.817,0.845,2.771,1.148l0.925,4.627c0.29,1.434,1.549,2.466,3.012,2.47h2.837c1.462-0.006,2.72-1.037,3.012-2.47
		l0.924-4.627c0.758-0.241,1.499-0.534,2.217-0.875c0.492-0.231,0.703-0.818,0.471-1.31C32.988,40.936,32.988,40.935,32.988,40.934z
		"/>
	
		<linearGradient id="Path_16801_1_" gradientUnits="userSpaceOnUse" x1="-259.3059" y1="406.2253" x2="-259.3059" y2="405.2615" gradientTransform="matrix(19.8072 0 0 -17.2571 5162.5977 7025.4883)">
		<stop  offset="0.13" style="stop-color:#00A9ED"/>
		<stop  offset="1" style="stop-color:#65106B"/>
	</linearGradient>
	<path id="Path_16801" fill="url(#Path_16801_1_)" d="M33.467,31.736c0.483,0.249,1.075,0.059,1.324-0.424V31.31
		c2.783-5.439,0.63-12.104-4.809-14.888c-4.225-2.162-9.358-1.388-12.758,1.924c-0.396,0.372-0.417,0.994-0.046,1.391
		c0.372,0.396,0.995,0.417,1.391,0.046c0.01-0.01,0.019-0.019,0.028-0.028c3.598-3.505,9.356-3.43,12.861,0.167
		c2.723,2.794,3.359,7.014,1.584,10.487C32.794,30.894,32.983,31.487,33.467,31.736z"/>
	
		<linearGradient id="Path_16802_1_" gradientUnits="userSpaceOnUse" x1="-258.4656" y1="404.3035" x2="-258.4656" y2="403.3396" gradientTransform="matrix(18.6448 0 0 -15.8943 4841.9219 6448.1318)">
		<stop  offset="0.13" style="stop-color:#00A9ED"/>
		<stop  offset="1" style="stop-color:#65106B"/>
	</linearGradient>
	<path id="Path_16802" fill="url(#Path_16802_1_)" d="M15.734,22.059c-0.514-0.179-1.074,0.093-1.252,0.607c0,0.001,0,0.001,0,0.002
		c-1.986,5.779,1.09,12.073,6.869,14.058c3.402,1.168,7.162,0.61,10.078-1.499c0.447-0.309,0.559-0.923,0.25-1.37
		c-0.31-0.447-0.923-0.56-1.371-0.251c-0.012,0.01-0.024,0.018-0.037,0.027c-4.079,2.935-9.764,2.007-12.698-2.071
		c-1.721-2.391-2.177-5.467-1.225-8.254c0.178-0.513-0.093-1.074-0.606-1.251c-0.002-0.001-0.004-0.002-0.006-0.003V22.059z"/>
	
		<linearGradient id="Path_16803_1_" gradientUnits="userSpaceOnUse" x1="-264.7546" y1="417.1423" x2="-264.7546" y2="416.1785" gradientTransform="matrix(33.33 0 0 -33.332 8871.5215 13936.6914)">
		<stop  offset="0.13" style="stop-color:#00A9ED"/>
		<stop  offset="1" style="stop-color:#65106B"/>
	</linearGradient>
	<path id="Path_16803" fill="url(#Path_16803_1_)" d="M61.428,45.33l-2.847-0.568c-0.173-0.516-0.382-1.019-0.624-1.506l1.61-2.41
		c0.622-0.935,0.501-2.176-0.289-2.973l-1.32-1.319c-0.796-0.79-2.038-0.911-2.972-0.289l-2.41,1.609
		c-0.487-0.242-0.99-0.45-1.506-0.623l-0.568-2.846c-0.224-1.102-1.191-1.894-2.314-1.894h-1.871c-1.123,0-2.09,0.792-2.313,1.894
		l-0.568,2.846c-0.517,0.173-1.019,0.381-1.507,0.623l-2.41-1.609c-0.934-0.622-2.176-0.501-2.972,0.289l-1.32,1.319
		c-0.79,0.797-0.91,2.038-0.289,2.973l1.61,2.41c-0.334,0.67-0.603,1.37-0.805,2.091c-0.158,0.521,0.136,1.07,0.655,1.229
		c0.521,0.158,1.071-0.136,1.229-0.655c0.003-0.015,0.007-0.028,0.011-0.043c0.215-0.766,0.521-1.503,0.91-2.196
		c0.182-0.322,0.167-0.72-0.038-1.028l-1.935-2.902c-0.104-0.154-0.083-0.359,0.048-0.489l1.319-1.319
		c0.131-0.132,0.337-0.152,0.49-0.049l2.902,1.936c0.309,0.205,0.706,0.22,1.029,0.038c0.692-0.391,1.43-0.695,2.196-0.91
		c0.356-0.1,0.627-0.392,0.699-0.755l0.684-3.421c0.036-0.182,0.195-0.312,0.38-0.312h1.866c0.186,0,0.345,0.13,0.381,0.312
		l0.684,3.421c0.072,0.363,0.343,0.655,0.699,0.755c0.767,0.215,1.504,0.52,2.196,0.91c0.323,0.182,0.721,0.167,1.028-0.038
		l2.903-1.936c0.153-0.104,0.357-0.082,0.488,0.049l1.32,1.319c0.131,0.13,0.15,0.335,0.048,0.489l-1.935,2.902
		c-0.206,0.309-0.222,0.706-0.039,1.028c0.39,0.693,0.696,1.431,0.91,2.196c0.1,0.357,0.392,0.628,0.755,0.7l3.42,0.684
		c0.182,0.035,0.313,0.194,0.312,0.379v1.867c0.001,0.185-0.13,0.345-0.312,0.38l-3.42,0.683c-0.363,0.074-0.655,0.344-0.755,0.701
		c-0.214,0.765-0.521,1.502-0.91,2.195c-0.182,0.323-0.167,0.721,0.039,1.029l1.935,2.902c0.103,0.153,0.083,0.358-0.048,0.488
		l-1.32,1.32c-0.131,0.132-0.336,0.152-0.489,0.049l-2.903-1.936c-0.308-0.205-0.705-0.221-1.028-0.039
		c-0.692,0.391-1.431,0.696-2.196,0.91c-0.356,0.101-0.627,0.393-0.699,0.756l-0.685,3.42c-0.036,0.182-0.196,0.312-0.381,0.312
		h-1.871c-0.185,0-0.344-0.13-0.38-0.312l-0.685-3.42c-0.072-0.363-0.344-0.655-0.7-0.756c-0.766-0.214-1.503-0.52-2.195-0.91
		c-0.323-0.182-0.721-0.166-1.029,0.039l-2.902,1.936c-0.153,0.104-0.359,0.083-0.489-0.049l-1.32-1.32
		c-0.131-0.13-0.151-0.335-0.048-0.488l1.935-2.902c0.205-0.309,0.221-0.706,0.039-1.029c-0.391-0.693-0.696-1.431-0.911-2.195
		c-0.1-0.357-0.392-0.628-0.755-0.701l-3.42-0.683c-0.182-0.035-0.312-0.195-0.312-0.38v-1.867c0-0.185,0.13-0.344,0.312-0.379
		l0.209-0.042c0.527-0.133,0.848-0.667,0.715-1.194c-0.123-0.491-0.6-0.809-1.1-0.733l-0.209,0.041
		c-1.102,0.224-1.894,1.19-1.895,2.314v1.866c0.001,1.123,0.792,2.091,1.895,2.313l2.845,0.569c0.174,0.515,0.382,1.019,0.624,1.505
		l-1.609,2.41c-0.622,0.935-0.501,2.176,0.288,2.973l1.32,1.319c0.797,0.79,2.038,0.911,2.973,0.289l2.41-1.609
		c0.486,0.242,0.99,0.451,1.505,0.624l0.569,2.846c0.223,1.101,1.19,1.893,2.313,1.894h1.867c1.123-0.001,2.091-0.793,2.313-1.894
		l0.569-2.846c0.516-0.173,1.02-0.382,1.506-0.624l2.41,1.609c0.935,0.622,2.176,0.501,2.973-0.289l1.319-1.319
		c0.79-0.797,0.911-2.038,0.289-2.973l-1.609-2.41c0.242-0.486,0.45-0.99,0.623-1.505l2.846-0.569
		c1.102-0.223,1.894-1.19,1.894-2.313v-1.866C63.31,46.526,62.525,45.558,61.428,45.33z"/>
	
		<linearGradient id="Path_16804_1_" gradientUnits="userSpaceOnUse" x1="-249.5837" y1="394.8074" x2="-249.5837" y2="393.8435" gradientTransform="matrix(11.4345 0 0 -11.434 2901.1106 4557.2939)">
		<stop  offset="0.13" style="stop-color:#00A9ED"/>
		<stop  offset="1" style="stop-color:#65106B"/>
	</linearGradient>
	<path id="Path_16804" fill="url(#Path_16804_1_)" d="M47.249,45.031c1.955,0.003,3.54,1.587,3.543,3.543
		c-0.017,0.543,0.409,0.997,0.953,1.015c0.543,0.017,0.997-0.409,1.015-0.953c0-0.021,0-0.041,0-0.062
		c0-3.045-2.467-5.513-5.512-5.513c-3.044-0.001-5.511,2.467-5.512,5.511c0,3.044,2.467,5.512,5.511,5.512
		c1.219,0,2.403-0.403,3.368-1.148c0.435-0.325,0.523-0.942,0.197-1.377c-0.326-0.436-0.943-0.523-1.378-0.198
		c-0.008,0.006-0.016,0.012-0.022,0.018c-1.549,1.195-3.773,0.909-4.97-0.64c-1.195-1.549-0.909-3.773,0.64-4.969
		C45.702,45.29,46.465,45.03,47.249,45.031L47.249,45.031z"/>
	
		<linearGradient id="Path_16805_1_" gradientUnits="userSpaceOnUse" x1="-251.3806" y1="397.4851" x2="-251.3806" y2="396.5203" gradientTransform="matrix(12.438 0 0 -12.438 3151.6172 4964.1846)">
		<stop  offset="0.13" style="stop-color:#00A9ED"/>
		<stop  offset="1" style="stop-color:#65106B"/>
	</linearGradient>
	<path id="Path_16805" fill="url(#Path_16805_1_)" d="M30.94,26.269c0-3.312-2.685-5.996-5.996-5.996
		c-3.312,0-5.996,2.684-5.996,5.996c0,3.311,2.684,5.996,5.996,5.996l0,0C28.255,32.265,30.94,29.58,30.94,26.269z M20.913,26.269
		c0-2.224,1.803-4.027,4.027-4.027c2.225,0,4.027,1.803,4.027,4.027c0,2.225-1.803,4.027-4.027,4.027
		C22.717,30.296,20.913,28.493,20.913,26.269L20.913,26.269z"/>
</g>
</svg>
