<?xml version="1.0" encoding="utf-8"?>
<!-- Generator: Adobe Illustrator 16.0.0, SVG Export Plug-In . SVG Version: 6.00 Build 0)  -->
<!DOCTYPE svg PUBLIC "-//W3C//DTD SVG 1.1//EN" "http://www.w3.org/Graphics/SVG/1.1/DTD/svg11.dtd">
<svg version="1.1" id="Layer_1" xmlns="http://www.w3.org/2000/svg" xmlns:xlink="http://www.w3.org/1999/xlink" x="0px" y="0px"
	 width="111.971px" height="74px" viewBox="0 0 111.971 74" enable-background="new 0 0 111.971 74" xml:space="preserve">
<g id="boat" transform="translate(0 -88)">
	
		<linearGradient id="Path_16777_1_" gradientUnits="userSpaceOnUse" x1="-246.8611" y1="516.3184" x2="-246.8611" y2="515.3184" gradientTransform="matrix(111.9699 0 0 -74 27696.9902 38295.5625)">
		<stop  offset="0.13" style="stop-color:#00A9ED"/>
		<stop  offset="1" style="stop-color:#65106B"/>
	</linearGradient>
	<path id="Path_16777" fill="url(#Path_16777_1_)" d="M111.723,119.822c-0.297-0.47-0.813-0.755-1.369-0.755H86.14
		c-4.614-0.012-9.117,1.416-12.882,4.084l-3.027-10.093c-1.066-3.615-4.394-6.09-8.162-6.073h-10.5v-3.668h7.012
		c1.846-0.002,3.342-1.498,3.344-3.344v-3.451c-0.002-1.846-1.498-3.342-3.344-3.344h-7.017v-3.56c0-0.894-0.725-1.618-1.618-1.618
		s-1.618,0.725-1.618,1.618v3.56h-7.012c-1.846,0.002-3.342,1.499-3.344,3.344v3.452c0.002,1.846,1.498,3.342,3.344,3.344h7.012
		v3.668H30.959c-2.799,0.003-5.066,2.271-5.069,5.07v20.819H1.618c-0.894,0-1.618,0.725-1.617,1.618c0,0.141,0.018,0.28,0.055,0.417
		l4.854,18.199c1.401,5.24,6.146,8.885,11.569,8.891h68.362c4.606-0.016,8.8-2.658,10.801-6.809l16.17-33.809
		C112.052,120.882,112.018,120.292,111.723,119.822z M41.207,99.974v-3.452c0-0.06,0.049-0.108,0.108-0.108l0,0h17.26
		c0.06,0,0.108,0.048,0.108,0.108l0,0v3.452c0,0.06-0.049,0.108-0.108,0.108l0,0h-17.26
		C41.256,100.082,41.207,100.034,41.207,99.974L41.207,99.974z M70.207,124.245h-8.181c-2.918-0.003-5.283-2.368-5.286-5.286v-1.726
		c0-0.06,0.049-0.108,0.108-0.108l0,0h11.224L70.207,124.245z M46.492,117.125c0.06,0,0.108,0.048,0.108,0.108l0,0v6.9
		c0,0.06-0.049,0.108-0.108,0.108l0,0h-7.011v-7.12L46.492,117.125z M36.244,124.245h-7.12v-7.12h7.12V124.245z M29.124,127.48
		h17.369c1.846-0.002,3.342-1.498,3.344-3.344v-6.9c-0.002-1.846-1.498-3.342-3.344-3.344H29.126v-1.834
		c0.001-1.013,0.822-1.833,1.834-1.834h31.108c2.3-0.011,4.339,1.476,5.032,3.668H56.85c-1.847,0.002-3.342,1.498-3.345,3.344v1.726
		c0.006,4.705,3.818,8.517,8.522,8.521h6.449l-5.395,5.395H29.126L29.124,127.48z M92.725,153.796
		c-1.46,3.028-4.521,4.958-7.883,4.968H16.479c-3.958-0.004-7.42-2.663-8.443-6.486l-4.311-16.166h60.027
		c0.43,0,0.841-0.171,1.145-0.475l7.741-7.74c3.572-3.592,8.434-5.606,13.5-5.592h21.646L92.725,153.796z"/>
	
		<linearGradient id="Path_16778_1_" gradientUnits="userSpaceOnUse" x1="-225.2361" y1="483.6836" x2="-225.2361" y2="482.6836" gradientTransform="matrix(10.14 0 0 -10.14 2311.4014 5046.064)">
		<stop  offset="0.13" style="stop-color:#00A9ED"/>
		<stop  offset="1" style="stop-color:#65106B"/>
	</linearGradient>
	<path id="Path_16778" fill="url(#Path_16778_1_)" d="M27.508,141.504c-2.8,0-5.069,2.27-5.069,5.07c0,2.8,2.27,5.07,5.069,5.07
		c2.801,0,5.07-2.271,5.07-5.07C32.578,143.773,30.309,141.504,27.508,141.504L27.508,141.504z M27.508,148.404
		c-1.013,0-1.834-0.821-1.834-1.834c0-1.014,0.821-1.834,1.834-1.834c1.014,0,1.834,0.82,1.834,1.834
		C29.342,147.583,28.522,148.404,27.508,148.404L27.508,148.404z"/>
	
		<linearGradient id="Path_16779_1_" gradientUnits="userSpaceOnUse" x1="-225.2356" y1="483.6836" x2="-225.2356" y2="482.6836" gradientTransform="matrix(10.14 0 0 -10.14 2342.4639 5046.064)">
		<stop  offset="0.13" style="stop-color:#00A9ED"/>
		<stop  offset="1" style="stop-color:#65106B"/>
	</linearGradient>
	<path id="Path_16779" fill="url(#Path_16779_1_)" d="M58.575,141.504c-2.8,0-5.07,2.27-5.07,5.07c0,2.8,2.271,5.07,5.07,5.07
		s5.07-2.271,5.07-5.07C63.646,143.773,61.375,141.504,58.575,141.504L58.575,141.504z M58.575,148.404
		c-1.013,0-1.834-0.821-1.834-1.834c0-1.014,0.821-1.834,1.834-1.834s1.834,0.82,1.834,1.834
		C60.409,147.583,59.588,148.404,58.575,148.404L58.575,148.404z"/>
	
		<linearGradient id="Path_16780_1_" gradientUnits="userSpaceOnUse" x1="-225.2356" y1="483.6836" x2="-225.2356" y2="482.6836" gradientTransform="matrix(10.14 0 0 -10.14 2326.9326 5046.064)">
		<stop  offset="0.13" style="stop-color:#00A9ED"/>
		<stop  offset="1" style="stop-color:#65106B"/>
	</linearGradient>
	<path id="Path_16780" fill="url(#Path_16780_1_)" d="M43.041,141.504c-2.8,0-5.069,2.27-5.069,5.07c0,2.8,2.27,5.07,5.069,5.07
		c2.801,0,5.07-2.271,5.07-5.07C48.112,143.773,45.842,141.504,43.041,141.504L43.041,141.504z M43.041,148.404
		c-1.013,0-1.834-0.821-1.834-1.834c0-1.014,0.821-1.834,1.834-1.834s1.834,0.82,1.834,1.834
		C44.875,147.583,44.054,148.404,43.041,148.404L43.041,148.404z"/>
	
		<linearGradient id="Path_16781_1_" gradientUnits="userSpaceOnUse" x1="-225.1174" y1="499.6689" x2="-225.1174" y2="498.6689" gradientTransform="matrix(10.0896 0 0 -17.5647 2362.731 8912.084)">
		<stop  offset="0.13" style="stop-color:#00A9ED"/>
		<stop  offset="1" style="stop-color:#65106B"/>
	</linearGradient>
	<path id="Path_16781" fill="url(#Path_16781_1_)" d="M87.255,152.975c0.806,0.387,1.771,0.046,2.157-0.76
		c0,0,0.001-0.001,0.001-0.002l6.864-14.354c0.371-0.813,0.012-1.773-0.802-2.145c-0.791-0.359-1.726-0.031-2.117,0.745
		l-6.864,14.353c-0.388,0.806-0.049,1.772,0.756,2.16C87.252,152.974,87.254,152.975,87.255,152.975L87.255,152.975z"/>
	
		<linearGradient id="Path_16782_1_" gradientUnits="userSpaceOnUse" x1="-199.5706" y1="463.9561" x2="-199.5706" y2="462.9561" gradientTransform="matrix(4.8766 0 0 -6.6637 1071.8004 3217.6377)">
		<stop  offset="0.13" style="stop-color:#00A9ED"/>
		<stop  offset="1" style="stop-color:#65106B"/>
	</linearGradient>
	<path id="Path_16782" fill="url(#Path_16782_1_)" d="M97.049,132.5c0.806,0.386,1.771,0.046,2.157-0.76
		c0-0.001,0.001-0.002,0.001-0.002l1.651-3.452c0.37-0.813,0.012-1.774-0.802-2.145c-0.792-0.36-1.727-0.032-2.117,0.744
		l-1.651,3.452c-0.388,0.805-0.049,1.771,0.756,2.16C97.046,132.498,97.048,132.499,97.049,132.5L97.049,132.5z"/>
</g>
</svg>
