<?xml version="1.0" encoding="utf-8"?>
<!-- Generator: Adobe Illustrator 16.0.0, SVG Export Plug-In . SVG Version: 6.00 Build 0)  -->
<!DOCTYPE svg PUBLIC "-//W3C//DTD SVG 1.1//EN" "http://www.w3.org/Graphics/SVG/1.1/DTD/svg11.dtd">
<svg version="1.1" id="Layer_1" xmlns="http://www.w3.org/2000/svg" xmlns:xlink="http://www.w3.org/1999/xlink" x="0px" y="0px"
	 width="58.787px" height="72.527px" viewBox="0 0 58.787 72.527" enable-background="new 0 0 58.787 72.527" xml:space="preserve">
<g id="anchor" transform="translate(-48.5)">
	<g id="Group_2074" transform="translate(74.1 4.25)">
		<g id="Group_2073">
			
				<linearGradient id="Path_16964_1_" gradientUnits="userSpaceOnUse" x1="-265.8471" y1="377.5847" x2="-265.8471" y2="376.6101" gradientTransform="matrix(7.578 0 0 -7.578 2018.6359 2863.0801)">
				<stop  offset="0.13" style="stop-color:#00A9ED"/>
				<stop  offset="1" style="stop-color:#65106B"/>
			</linearGradient>
			<path id="Path_16964" fill="url(#Path_16964_1_)" d="M4.044,1.745C2.004,1.748,0.354,3.403,0.356,5.442
				C0.359,7.481,2.015,9.132,4.053,9.13c2.039-0.003,3.689-1.656,3.689-3.692c0-2.04-1.654-3.692-3.692-3.692
				C4.047,1.745,4.046,1.745,4.044,1.745z M4.044,7.06c-0.895-0.002-1.62-0.729-1.618-1.625C2.427,4.54,3.154,3.815,4.049,3.817
				c0.895,0.001,1.619,0.727,1.619,1.622c0,0.896-0.727,1.622-1.621,1.622C4.046,7.06,4.046,7.06,4.044,7.06z"/>
		</g>
	</g>
	<g id="Group_2076" transform="translate(48.501)">
		<g id="Group_2075">
			
				<linearGradient id="Path_16965_1_" gradientUnits="userSpaceOnUse" x1="-271.0484" y1="427.4421" x2="-271.0484" y2="426.4675" gradientTransform="matrix(58.7836 0 0 -72.5425 15962.8584 31009.5508)">
				<stop  offset="0.13" style="stop-color:#00A9ED"/>
				<stop  offset="1" style="stop-color:#65106B"/>
			</linearGradient>
			<path id="Path_16965" fill="url(#Path_16965_1_)" d="M57.497,41.11c-0.533-0.416-1.233-0.549-1.881-0.355l-9.314,2.791
				c-1.094,0.326-1.717,1.479-1.39,2.575c0.192,0.647,0.689,1.159,1.331,1.372l3.199,1.065c-2.575,7.005-8.658,12.131-15.999,13.484
				V29.947h2.678c2.096,1.943,5.371,1.819,7.314-0.277c1.945-2.096,1.821-5.372-0.276-7.315c-1.984-1.841-5.053-1.841-7.038,0
				h-2.678v-5.812c2.623-1.438,4.191-4.25,4.035-7.237c-0.208-4.327-3.883-7.667-8.211-7.46c-4.328,0.207-7.668,3.882-7.461,8.21
				c0.141,2.96,1.938,5.587,4.646,6.792c0.515,0.249,1.134,0.032,1.383-0.482c0.248-0.516,0.032-1.134-0.483-1.384
				c-0.019-0.008-0.038-0.017-0.058-0.026c-2.911-1.295-4.22-4.705-2.925-7.616c1.296-2.91,4.706-4.221,7.615-2.924
				c2.912,1.295,4.222,4.705,2.926,7.616c-0.579,1.303-1.622,2.345-2.926,2.924c-0.373,0.167-0.614,0.538-0.614,0.947v7.488
				c0.002,0.572,0.466,1.036,1.037,1.036l0,0h4.147c0.295,0,0.574-0.126,0.772-0.346c1.142-1.278,3.106-1.388,4.385-0.245
				c1.279,1.144,1.388,3.107,0.244,4.385c-1.143,1.279-3.106,1.389-4.386,0.245c-0.085-0.077-0.167-0.158-0.243-0.245
				c-0.198-0.22-0.478-0.345-0.772-0.345h-4.147c-0.573,0-1.037,0.463-1.037,1.035l0,0v34.336c0,0.571,0.464,1.035,1.035,1.035
				c0.046,0,0.089-0.003,0.133-0.009c8.993-1.14,16.498-7.414,19.212-16.063c0.17-0.539-0.126-1.112-0.66-1.29l-4.191-1.396
				l9.314-2.799c-0.645,12.003-9.255,22.084-21.01,24.596c-2.058,0.43-3.971,1.375-5.562,2.747
				c-1.591-1.374-3.506-2.321-5.564-2.751C12.33,64.807,3.722,54.734,3.074,42.738l9.314,2.79l-4.19,1.396
				c-0.536,0.178-0.831,0.751-0.662,1.291c2.715,8.648,10.221,14.923,19.214,16.062c0.568,0.071,1.086-0.33,1.158-0.898
				c0.005-0.043,0.008-0.086,0.008-0.13V28.911c0.001-0.572-0.462-1.036-1.034-1.037c-0.001,0-0.002,0-0.003,0h-4.149
				c-0.294,0-0.576,0.125-0.772,0.344c-1.144,1.279-3.106,1.389-4.385,0.245c-1.278-1.143-1.388-3.106-0.245-4.385
				c1.144-1.278,3.107-1.388,4.385-0.245c0.086,0.077,0.168,0.159,0.245,0.245c0.197,0.22,0.478,0.346,0.772,0.346h4.147
				c0.572,0.001,1.037-0.461,1.039-1.033v-3.348c-0.018-0.573-0.496-1.022-1.068-1.005c-0.548,0.018-0.988,0.457-1.004,1.005v2.312
				h-2.677c-2.096-1.944-5.372-1.821-7.315,0.277c-1.943,2.096-1.82,5.371,0.277,7.315c1.985,1.84,5.054,1.84,7.039,0h2.677v32.096
				c-7.341-1.354-13.423-6.479-15.999-13.484l3.199-1.065c1.085-0.36,1.672-1.532,1.313-2.617c-0.213-0.64-0.726-1.137-1.373-1.33
				l-9.313-2.791c-1.096-0.332-2.252,0.286-2.584,1.382c-0.069,0.228-0.098,0.464-0.086,0.701
				c0.697,12.935,9.977,23.797,22.644,26.506c1.942,0.403,3.726,1.359,5.135,2.755l0.129,0.128c0.404,0.401,1.057,0.401,1.462,0
				l0.128-0.128c1.41-1.396,3.193-2.352,5.135-2.755c12.669-2.709,21.947-13.571,22.646-26.506
				C58.313,42.17,58.022,41.525,57.497,41.11L57.497,41.11z"/>
		</g>
	</g>
</g>
</svg>
