<?xml version="1.0" encoding="utf-8"?>
<!-- Generator: Adobe Illustrator 16.0.0, SVG Export Plug-In . SVG Version: 6.00 Build 0)  -->
<!DOCTYPE svg PUBLIC "-//W3C//DTD SVG 1.1//EN" "http://www.w3.org/Graphics/SVG/1.1/DTD/svg11.dtd">
<svg version="1.1" id="Layer_1" xmlns="http://www.w3.org/2000/svg" xmlns:xlink="http://www.w3.org/1999/xlink" x="0px" y="0px"
	 width="74.279px" height="66.457px" viewBox="0 0 74.279 66.457" enable-background="new 0 0 74.279 66.457" xml:space="preserve">
<g id="voltage" transform="translate(-0.013 -0.5)">
	
		<linearGradient id="Path_16954_1_" gradientUnits="userSpaceOnUse" x1="-264.3417" y1="424.3584" x2="-264.3417" y2="423.4014" gradientTransform="matrix(74.2529 0 0 -66.4521 19665.6641 28202.8496)">
		<stop  offset="0.13" style="stop-color:#00A9ED"/>
		<stop  offset="1" style="stop-color:#65106B"/>
	</linearGradient>
	<path id="Path_16954" fill="url(#Path_16954_1_)" d="M71.988,55.444l-20.28-35.127c-0.292-0.505-0.936-0.678-1.44-0.388
		c-0.504,0.291-0.678,0.935-0.387,1.439l0,0L70.16,56.5c1.537,2.661,0.624,6.065-2.038,7.602c-0.846,0.487-1.805,0.745-2.78,0.745
		H9.687c-3.074-0.002-5.564-2.497-5.562-5.571c0.001-0.975,0.258-1.932,0.744-2.775L32.695,8.306
		c0.985-1.73,2.827-2.793,4.817-2.782l0,0c1.992-0.011,3.833,1.053,4.819,2.783l5.437,9.417c0.292,0.505,0.937,0.678,1.44,0.388
		c0.504-0.291,0.678-0.935,0.387-1.439L44.16,7.246c-1.359-2.386-3.899-3.854-6.646-3.837l0,0c-2.747-0.017-5.287,1.451-6.646,3.837
		L3.043,55.44c-2.12,3.671-0.862,8.364,2.809,10.483c1.167,0.674,2.49,1.028,3.837,1.028h55.653c4.237,0,7.674-3.436,7.674-7.675
		c0-1.347-0.354-2.671-1.027-3.837V55.444z"/>
	
		<linearGradient id="Path_16955_1_" gradientUnits="userSpaceOnUse" x1="-263.6816" y1="423.0996" x2="-263.6816" y2="422.1436" gradientTransform="matrix(62.4857 0 0 -54.6862 16513.8203 23146.7109)">
		<stop  offset="0.13" style="stop-color:#00A9ED"/>
		<stop  offset="1" style="stop-color:#65106B"/>
	</linearGradient>
	<path id="Path_16955" fill="url(#Path_16955_1_)" d="M17.862,60.274c0,0.581,0.471,1.052,1.052,1.052h46.424
		c1.132,0,2.049-0.918,2.049-2.05c0-0.359-0.096-0.713-0.274-1.022L39.286,10.059c-0.565-0.98-1.818-1.316-2.798-0.75
		c-0.312,0.18-0.571,0.439-0.751,0.75L7.911,58.254c-0.566,0.979-0.231,2.231,0.749,2.798c0.312,0.18,0.666,0.275,1.025,0.274h5.011
		c0.583,0,1.055-0.472,1.055-1.055c0-0.582-0.472-1.054-1.055-1.054H9.79l27.724-48.014L65.232,59.22H18.917
		c-0.581,0-1.052,0.471-1.052,1.052L17.862,60.274z"/>
	
		<linearGradient id="Path_16956_1_" gradientUnits="userSpaceOnUse" x1="-255.5541" y1="420.29" x2="-255.5541" y2="419.333" gradientTransform="matrix(21.1772 0 0 -39.1784 5449.4683 16486.748)">
		<stop  offset="0.13" style="stop-color:#00A9ED"/>
		<stop  offset="1" style="stop-color:#65106B"/>
	</linearGradient>
	<path id="Path_16956" fill="url(#Path_16956_1_)" d="M41.214,20.504c-0.446-0.16-0.945-0.001-1.218,0.389L27.623,38.542
		c-0.336,0.473-0.224,1.131,0.25,1.466c0.178,0.126,0.392,0.194,0.611,0.193H34.8L32.388,56.69c-0.091,0.573,0.3,1.111,0.875,1.203
		c0.39,0.062,0.782-0.102,1.015-0.421l13.189-17.694c0.35-0.465,0.257-1.124-0.207-1.473c-0.184-0.14-0.408-0.214-0.64-0.213h-5.907
		l1.193-16.518c0.035-0.474-0.251-0.912-0.698-1.07L41.214,20.504z M44.524,40.203l-9.44,12.666l1.982-13.568
		c0.086-0.575-0.31-1.11-0.884-1.196c-0.052-0.008-0.106-0.012-0.159-0.012h-5.509l9.018-12.863l-0.999,13.844
		c-0.044,0.579,0.391,1.084,0.971,1.128c0.027,0.002,0.054,0.002,0.081,0.002H44.524z"/>
</g>
</svg>
