<?xml version="1.0" encoding="utf-8"?>
<!-- Generator: Adobe Illustrator 16.0.0, SVG Export Plug-In . SVG Version: 6.00 Build 0)  -->
<!DOCTYPE svg PUBLIC "-//W3C//DTD SVG 1.1//EN" "http://www.w3.org/Graphics/SVG/1.1/DTD/svg11.dtd">
<svg version="1.1" id="Layer_1" xmlns="http://www.w3.org/2000/svg" xmlns:xlink="http://www.w3.org/1999/xlink" x="0px" y="0px"
	 width="48.307px" height="70.076px" viewBox="0 0 48.307 70.076" enable-background="new 0 0 48.307 70.076" xml:space="preserve">
<g id="Group_2085" transform="translate(-401 -4529.928)">
	<g id="car-insurance_4_" transform="translate(401 4529.928)">
		
			<linearGradient id="Path_17044_1_" gradientUnits="userSpaceOnUse" x1="-275.1985" y1="414.7422" x2="-275.1985" y2="413.79" gradientTransform="matrix(48.3058 0 0 -22.9519 13317.7119 9566.3301)">
			<stop  offset="0.13" style="stop-color:#00A9ED"/>
			<stop  offset="1" style="stop-color:#65106B"/>
		</linearGradient>
		<path id="Path_17044" fill="url(#Path_17044_1_)" d="M3.606,68.391c0.07,0.396,0.413,0.685,0.815,0.686
			c0.048,0,0.097-0.005,0.145-0.012l6.757-1.184c0.448-0.078,0.748-0.505,0.673-0.953l-0.132-0.753l1.576-1.28
			c0.618-0.514,1.412-0.768,2.212-0.707l11.02,0.805l0.052,0.001c2.454,0.007,4.848-0.768,6.831-2.215
			c0.031-0.023,0.062-0.048,0.089-0.076l13.131-12.861c0.313-0.306,0.332-0.803,0.045-1.133c-1.514-1.749-4.133-2.002-5.952-0.572
			l-6.028,4.508c-1.254-1.525-3.23-2.26-5.176-1.921L23.499,51.8c-0.981,0.174-1.989,0.124-2.949-0.145l-0.687-0.191
			c-3.542-1.019-7.358-0.229-10.204,2.113l-0.259-1.484c-0.079-0.447-0.504-0.747-0.953-0.672l-6.763,1.187
			c-0.447,0.079-0.748,0.505-0.672,0.953L3.606,68.391z M19.409,53.053l0.688,0.197c1.199,0.338,2.459,0.403,3.687,0.19l6.163-1.077
			c1.765-0.307,3.507,0.653,4.192,2.308l-9.228,1.613c-0.452,0.065-0.768,0.484-0.702,0.938c0.064,0.453,0.482,0.768,0.936,0.702
			c0.018-0.002,0.036-0.006,0.053-0.009l10.131-1.771c0.447-0.079,0.748-0.505,0.671-0.953c-0.064-0.378-0.171-0.747-0.313-1.103
			l6.184-4.624l0.018-0.014c0.893-0.705,2.133-0.771,3.095-0.163L32.534,61.489c-1.669,1.209-3.676,1.866-5.738,1.875h-0.031
			l-10.998-0.819c-1.224-0.095-2.438,0.289-3.383,1.072l-0.857,0.689l-1.539-8.799c2.454-2.476,6.062-3.417,9.412-2.455H19.409z
			 M7.913,53.194l2.308,13.198l-5.126,0.898l-2.31-13.2L7.913,53.194z"/>
		
			<linearGradient id="Path_17050_1_" gradientUnits="userSpaceOnUse" x1="-286.4934" y1="448.3887" x2="-286.4934" y2="447.4355" gradientTransform="matrix(-48.3066 0 0 22.9469 -13815.541 -10264.9512)">
			<stop  offset="0.13" style="stop-color:#00A9ED"/>
			<stop  offset="1" style="stop-color:#65106B"/>
		</linearGradient>
		<path id="Path_17050" fill="url(#Path_17050_1_)" d="M44.415,3c-0.069-0.395-0.412-0.684-0.814-0.685
			c-0.049,0-0.097,0.004-0.145,0.013l-6.757,1.182c-0.447,0.079-0.748,0.504-0.673,0.953l0.131,0.754l-1.574,1.28
			c-0.618,0.514-1.412,0.768-2.213,0.708L21.35,6.399h-0.051c-2.455-0.009-4.847,0.768-6.831,2.213
			c-0.031,0.023-0.061,0.049-0.089,0.077L1.249,21.545c-0.313,0.307-0.332,0.803-0.046,1.134c1.514,1.749,4.134,2.001,5.953,0.572
			l6.029-4.512c1.253,1.525,3.23,2.259,5.176,1.92l6.163-1.078c0.982-0.171,1.99-0.118,2.949,0.153l0.687,0.197
			c3.542,1.018,7.358,0.226,10.203-2.117l0.259,1.483c0.079,0.447,0.506,0.748,0.953,0.673l6.764-1.183
			c0.45-0.079,0.751-0.508,0.673-0.958L44.415,3z M28.613,18.338l-0.688-0.197c-1.199-0.339-2.459-0.404-3.687-0.19l-6.162,1.079
			c-1.765,0.305-3.507-0.653-4.192-2.308l9.227-1.616c0.452-0.064,0.768-0.483,0.702-0.936c-0.064-0.453-0.483-0.768-0.936-0.703
			c-0.018,0.003-0.036,0.005-0.052,0.009l-10.131,1.772c-0.448,0.079-0.748,0.504-0.673,0.953c0.066,0.377,0.171,0.747,0.314,1.102
			l-6.183,4.624l-0.018,0.013c-0.892,0.706-2.133,0.771-3.094,0.163L15.488,9.902c1.669-1.209,3.676-1.865,5.737-1.875h0.032
			l10.998,0.818c1.225,0.095,2.438-0.29,3.383-1.072l0.857-0.689l1.529,8.801c-2.454,2.475-6.062,3.416-9.412,2.455V18.338z
			 M40.11,18.196L37.801,4.998l5.124-0.896L45.237,17.3L40.11,18.196z"/>
	</g>
	
		<linearGradient id="Path_17048_1_" gradientUnits="userSpaceOnUse" x1="132.0583" y1="4947.7026" x2="132.0583" y2="4946.7505" gradientTransform="matrix(22.917 0 0 -28.0999 -2601.4807 143581.9375)">
		<stop  offset="0.13" style="stop-color:#00A9ED"/>
		<stop  offset="1" style="stop-color:#65106B"/>
	</linearGradient>
	<path id="Path_17048" fill="url(#Path_17048_1_)" d="M435.332,4557.247l-10.066-4.944c-0.23-0.113-0.5-0.113-0.732,0l-10.078,4.932
		c-0.287,0.137-0.472,0.424-0.476,0.742v9.146c0.124,2.857,1.528,5.506,3.824,7.21l6.622,4.514c0.282,0.191,0.653,0.191,0.936,0
		l6.628-4.513c2.296-1.705,3.699-4.354,3.824-7.211v-9.131c-0.006-0.318-0.19-0.606-0.477-0.744H435.332z M434.152,4567.122
		c-0.134,2.306-1.265,4.438-3.1,5.843l-6.155,4.191l-6.164-4.191c-1.834-1.404-2.967-3.537-3.101-5.843v-8.629l9.26-4.525
		l9.261,4.538L434.152,4567.122z"/>
	
		<linearGradient id="Path_17049_1_" gradientUnits="userSpaceOnUse" x1="147.989" y1="4907.3247" x2="147.989" y2="4906.3726" gradientTransform="matrix(9.8008 0 0 -7.1342 -1025.511 39571.957)">
		<stop  offset="0.13" style="stop-color:#00A9ED"/>
		<stop  offset="1" style="stop-color:#65106B"/>
	</linearGradient>
	<path id="Path_17049" fill="url(#Path_17049_1_)" d="M421.648,4564.966c-0.322-0.325-0.847-0.327-1.171-0.006
		c-0.325,0.322-0.328,0.846-0.005,1.171l2.578,2.624c0.152,0.162,0.363,0.257,0.586,0.266l0,0c0.222-0.008,0.432-0.102,0.584-0.263
		l5.093-5.104c0.331-0.317,0.342-0.843,0.024-1.174c-0.318-0.331-0.844-0.342-1.175-0.024c-0.007,0.007-0.013,0.013-0.021,0.021
		l-4.505,4.502L421.648,4564.966z"/>
</g>
</svg>
