<?xml version="1.0" encoding="utf-8"?>
<!-- Generator: Adobe Illustrator 16.0.0, SVG Export Plug-In . SVG Version: 6.00 Build 0)  -->
<!DOCTYPE svg PUBLIC "-//W3C//DTD SVG 1.1//EN" "http://www.w3.org/Graphics/SVG/1.1/DTD/svg11.dtd">
<svg version="1.1" id="agronomy" xmlns="http://www.w3.org/2000/svg" xmlns:xlink="http://www.w3.org/1999/xlink" x="0px" y="0px"
	 width="72px" height="72px" viewBox="0 0 72 72" enable-background="new 0 0 72 72" xml:space="preserve">
<g id="ModifiedNationalAgricultureInsurance.5e936510" transform="translate(0)">
	<g id="Group_2016" transform="translate(20.335 9.128)">
		<g id="Group_2015">
			
				<linearGradient id="Path_16851_1_" gradientUnits="userSpaceOnUse" x1="-281.0161" y1="416.1747" x2="-281.0161" y2="415.2119" gradientTransform="matrix(31.3445 0 0 -53.7382 8823.6211 22366.7617)">
				<stop  offset="0.13" style="stop-color:#00A9ED"/>
				<stop  offset="1" style="stop-color:#65106B"/>
			</linearGradient>
			<path id="Path_16851" fill="url(#Path_16851_1_)" d="M29.909,29.052c-0.12-0.412-0.431-0.742-0.835-0.891
				c-0.58-0.195-1.178-0.335-1.786-0.418c2.846-3.017,3.848-7.333,2.621-11.295c-0.12-0.413-0.431-0.744-0.835-0.892
				c-2.373-0.753-4.925-0.727-7.281,0.076c0.228-0.946,0.341-1.916,0.337-2.889c0.027-4.294-2.34-8.246-6.139-10.249
				c-0.378-0.206-0.83-0.221-1.221-0.041c-3.851,1.98-6.257,5.96-6.22,10.289c-0.003,0.977,0.11,1.949,0.339,2.898
				c-2.361-0.809-4.919-0.839-7.299-0.084c-0.404,0.147-0.714,0.479-0.835,0.892c-1.225,3.962-0.224,8.278,2.622,11.295
				c-0.607,0.082-1.206,0.222-1.786,0.417c-0.404,0.148-0.714,0.479-0.835,0.892c-1.271,4.103-0.15,8.571,2.906,11.59
				c2.13,2.2,5.066,3.437,8.129,3.422c0.731,0,1.461-0.065,2.18-0.198v8.859c0,0.749,0.607,1.354,1.354,1.354
				s1.355-0.605,1.355-1.354V43.86c0.724,0.134,1.46,0.201,2.198,0.201c3.063,0.016,5.998-1.222,8.129-3.422
				C30.061,37.621,31.181,33.154,29.909,29.052z M13.969,39.645c-0.024,0.506-0.09,1.008-0.198,1.503
				c-4.825,1.036-9.575-2.036-10.611-6.862c-0.266-1.237-0.265-2.518,0.002-3.757c1.544-0.332,3.147-0.257,4.652,0.22
				c0.128,0.049,0.257,0.095,0.385,0.137c1.185,0.455,2.258,1.159,3.147,2.063c1.577,1.526,2.514,3.597,2.62,5.788L13.969,39.645z
				 M13.969,27.041c-0.024,0.505-0.09,1.008-0.198,1.502c-1.51,0.331-3.08,0.27-4.559-0.182c-0.192-0.076-0.387-0.145-0.583-0.206
				c-1.146-0.46-2.186-1.152-3.052-2.034c-2.177-2.124-3.092-5.228-2.415-8.193c2.964-0.662,6.06,0.253,8.186,2.421l0.057,0.06
				c0.119,0.134,0.238,0.262,0.357,0.385c1.332,1.472,2.112,3.361,2.206,5.345v0.903L13.969,27.041z M15.342,20.246
				c-0.604-0.39-1.16-0.85-1.657-1.369c-0.063-0.069-0.127-0.139-0.193-0.208c-1.468-1.622-2.266-3.74-2.233-5.928
				c-0.038-3.039,1.505-5.879,4.076-7.502c2.577,1.618,4.126,4.46,4.089,7.502c0.034,2.082-0.683,4.106-2.022,5.7
				c-0.22,0.22-0.425,0.441-0.619,0.665c-0.441,0.427-0.925,0.809-1.444,1.138L15.342,20.246z M16.69,26.602
				c-0.013-2.081,0.729-4.096,2.094-5.669c0.199-0.198,0.398-0.412,0.599-0.64c2.121-2.135,5.19-3.028,8.127-2.365
				c0.677,2.966-0.237,6.071-2.415,8.196c-0.864,0.88-1.902,1.572-3.046,2.032c-0.197,0.063-0.395,0.134-0.594,0.209
				c-1.477,0.451-3.045,0.513-4.554,0.182c-0.138-0.627-0.207-1.267-0.21-1.908c-0.005-0.012-0.007-0.025-0.007-0.038L16.69,26.602z
				 M25.094,38.727c-2.123,2.177-5.226,3.095-8.191,2.422c-0.666-2.966,0.249-6.065,2.42-8.193c0.865-0.882,1.905-1.574,3.053-2.035
				c0.193-0.064,0.385-0.132,0.578-0.205c1.476-0.449,3.042-0.514,4.551-0.184c0.677,2.966-0.239,6.07-2.416,8.194L25.094,38.727z"
				/>
		</g>
	</g>
	<g id="Group_2018">
		<g id="Group_2017">
			
				<linearGradient id="Path_16852_1_" gradientUnits="userSpaceOnUse" x1="-263.1445" y1="426.668" x2="-263.1445" y2="425.7051" gradientTransform="matrix(44.623 0 0 -66.3717 11764.792 28321.2539)">
				<stop  offset="0.13" style="stop-color:#00A9ED"/>
				<stop  offset="1" style="stop-color:#65106B"/>
			</linearGradient>
			<path id="Path_16852" fill="url(#Path_16852_1_)" d="M42.891,3.417C24.165-0.575,5.748,11.369,1.756,30.095
				C-0.38,40.115,2.025,50.566,8.325,58.646c-1.535,2.388-0.844,5.568,1.544,7.103c2.387,1.535,5.567,0.844,7.103-1.544
				c1.535-2.387,0.844-5.567-1.543-7.103c-1.526-0.981-3.458-1.085-5.081-0.272C-0.414,42.83,2.21,22.757,16.21,11.995
				c7.42-5.704,16.967-7.871,26.122-5.928c0.733,0.154,1.45-0.314,1.604-1.046S43.623,3.571,42.891,3.417z M10.93,59.707
				c0.952-0.952,2.495-0.953,3.446-0.001c0.953,0.951,0.953,2.495,0.001,3.446c-0.952,0.952-2.495,0.953-3.447,0.001
				c-0.458-0.457-0.714-1.076-0.714-1.724C10.216,60.784,10.473,60.164,10.93,59.707z"/>
		</g>
	</g>
	<g id="Group_2020" transform="translate(28.484 5.632)">
		<g id="Group_2019">
			
				<linearGradient id="Path_16853_1_" gradientUnits="userSpaceOnUse" x1="-291.504" y1="421.0399" x2="-291.504" y2="420.077" gradientTransform="matrix(43.521 0 0 -66.37 12707.4639 27946.8281)">
				<stop  offset="0.13" style="stop-color:#00A9ED"/>
				<stop  offset="1" style="stop-color:#65106B"/>
			</linearGradient>
			<path id="Path_16853" fill="url(#Path_16853_1_)" d="M34.526,10.387c1.537-2.388,0.847-5.568-1.54-7.104
				c-2.387-1.536-5.567-0.846-7.104,1.541c-1.534,2.387-0.845,5.567,1.543,7.103c1.525,0.982,3.457,1.086,5.08,0.274
				c10.763,13.999,8.139,34.072-5.861,44.833c-7.134,5.485-16.249,7.709-25.106,6.128c-0.736-0.131-1.44,0.359-1.571,1.095
				c-0.131,0.737,0.359,1.44,1.096,1.571c18.846,3.384,36.865-9.151,40.249-27.997C43.051,28.135,40.584,18.155,34.526,10.387
				L34.526,10.387z M31.927,9.327c-0.952,0.952-2.496,0.952-3.448,0c-0.951-0.952-0.951-2.495,0-3.447
				c0.952-0.952,2.494-0.953,3.447-0.001c0.457,0.457,0.714,1.077,0.714,1.723C32.64,8.25,32.384,8.869,31.927,9.327z"/>
		</g>
	</g>
	<g id="Group_2022" transform="translate(21.706 66.707)">
		<g id="Group_2021">
			
				<linearGradient id="Path_16854_1_" gradientUnits="userSpaceOnUse" x1="-198.6196" y1="229.5352" x2="-198.6196" y2="228.5723" gradientTransform="matrix(2.837 0 0 -2.823 565.0445 648.1749)">
				<stop  offset="0.13" style="stop-color:#00A9ED"/>
				<stop  offset="1" style="stop-color:#65106B"/>
			</linearGradient>
			<path id="Path_16854" fill="url(#Path_16854_1_)" d="M2.064,0.298L1.552,1.55L2.06,0.298c-0.693-0.28-1.483,0.055-1.763,0.747
				c-0.28,0.693,0.054,1.483,0.748,1.764l0,0l0.042,0.018c0.698,0.269,1.481-0.077,1.751-0.775S2.761,0.568,2.064,0.3l0,0V0.298z"/>
		</g>
	</g>
	<g id="Group_2024" transform="translate(47.521 2.497)">
		<g id="Group_2023">
			
				<linearGradient id="Path_16855_1_" gradientUnits="userSpaceOnUse" x1="-224.6709" y1="292.8008" x2="-224.6709" y2="291.838" gradientTransform="matrix(2.8339 0 0 -2.8209 637.293 828.5311)">
				<stop  offset="0.13" style="stop-color:#00A9ED"/>
				<stop  offset="1" style="stop-color:#65106B"/>
			</linearGradient>
			<path id="Path_16855" fill="url(#Path_16855_1_)" d="M1.125,2.677L1.1,2.668C0.406,2.39-0.382,2.728-0.661,3.422
				s0.061,1.482,0.755,1.76l0,0l0.015,0.006c0.694,0.28,1.483-0.055,1.764-0.748C2.153,3.746,1.818,2.957,1.125,2.677L1.125,2.677z"
				/>
		</g>
	</g>
</g>
</svg>
