<?xml version="1.0" encoding="utf-8"?>
<!-- Generator: Adobe Illustrator 16.0.0, SVG Export Plug-In . SVG Version: 6.00 Build 0)  -->
<!DOCTYPE svg PUBLIC "-//W3C//DTD SVG 1.1//EN" "http://www.w3.org/Graphics/SVG/1.1/DTD/svg11.dtd">
<svg version="1.1" id="Layer_1" xmlns="http://www.w3.org/2000/svg" xmlns:xlink="http://www.w3.org/1999/xlink" x="0px" y="0px"
	 width="55.5px" height="76.887px" viewBox="0 0 55.5 76.887" enable-background="new 0 0 55.5 76.887" xml:space="preserve">
<g id="Group_1962" transform="translate(-581 -1285.609)">
	<g id="money_3_" transform="translate(581 1310.821)">
		<g id="Group_1949" transform="translate(0 16.972)">
			<g id="Group_1948">
				
					<linearGradient id="Path_16739_1_" gradientUnits="userSpaceOnUse" x1="-271.396" y1="376.2127" x2="-271.396" y2="375.2127" gradientTransform="matrix(46.183 0 0 -22.965 12557.9863 8637.7188)">
					<stop  offset="0.13" style="stop-color:#00A9ED"/>
					<stop  offset="1" style="stop-color:#65106B"/>
				</linearGradient>
				<path id="Path_16739" fill="url(#Path_16739_1_)" d="M46.421-2H1.766C1.344-2,1.001-1.658,1-1.237c0,0,0,0,0,0.001V20.2
					c0,0.422,0.342,0.765,0.765,0.765H32.13c0.423-0.015,0.754-0.37,0.738-0.793c-0.015-0.401-0.337-0.723-0.738-0.737H2.531v-19.9
					h43.123v1.914c0,0.422,0.342,0.765,0.764,0.765l0,0c0.422,0.001,0.765-0.341,0.766-0.763V1.449v-2.681
					C47.185-1.654,46.844-1.998,46.421-2L46.421-2z"/>
			</g>
		</g>
		<g id="Group_1951" transform="translate(1.786 5.363)">
			<g id="Group_1950">
				
					<linearGradient id="Path_16740_1_" gradientUnits="userSpaceOnUse" x1="-272.1107" y1="364.6654" x2="-272.1107" y2="363.6654" gradientTransform="matrix(39.0404 0 0 -9.5712 10643.832 3488.2864)">
					<stop  offset="0.13" style="stop-color:#00A9ED"/>
					<stop  offset="1" style="stop-color:#65106B"/>
				</linearGradient>
				<path id="Path_16740" fill="url(#Path_16740_1_)" d="M39.443,6.056L3.72-1.981C3.308-2.074,2.899-1.815,2.806-1.403
					c0,0.001,0,0.001-0.001,0.002L1.02,6.637C0.928,7.051,1.189,7.461,1.604,7.553c0.414,0.092,0.824-0.17,0.916-0.584l0,0
					l1.613-7.288L39.106,7.55c0.055,0.013,0.111,0.02,0.169,0.019c0.422,0.002,0.766-0.34,0.767-0.763
					c0.001-0.359-0.249-0.671-0.6-0.749L39.443,6.056z"/>
			</g>
		</g>
		<g id="Group_1953" transform="translate(11.596)">
			<g id="Group_1952">
				
					<linearGradient id="Path_16741_1_" gradientUnits="userSpaceOnUse" x1="-277.9305" y1="373.4142" x2="-277.9305" y2="372.4142" gradientTransform="matrix(24.7666 0 0 -10.4636 6896.7695 3905.249)">
					<stop  offset="0.13" style="stop-color:#00A9ED"/>
					<stop  offset="1" style="stop-color:#65106B"/>
				</linearGradient>
				<path id="Path_16741" fill="url(#Path_16741_1_)" d="M25.296,6.99L3.861-1.941C3.489-2.096,3.06-1.936,2.88-1.576L1.093,1.996
					C0.891,2.369,1.03,2.835,1.403,3.037s0.84,0.063,1.041-0.311C2.452,2.712,2.46,2.697,2.466,2.682l0,0l1.466-2.933l20.771,8.655
					c0.392,0.163,0.841-0.021,1.004-0.413c0.163-0.391-0.021-0.84-0.412-1.003V6.99z"/>
			</g>
		</g>
		<g id="Group_1955" transform="translate(28.579 20.545)">
			<g id="Group_1954">
				
					<linearGradient id="Path_16742_1_" gradientUnits="userSpaceOnUse" x1="-274.3637" y1="140.9727" x2="-274.3637" y2="139.9727" gradientTransform="matrix(8.5919 0 0 -1.531 2362.615 213.8293)">
					<stop  offset="0.13" style="stop-color:#00A9ED"/>
					<stop  offset="1" style="stop-color:#65106B"/>
				</linearGradient>
				<path id="Path_16742" fill="url(#Path_16742_1_)" d="M8.855-2H1.767C1.344-2,1.001-1.657,1.001-1.234s0.343,0.766,0.766,0.766
					h7.088c0.423-0.016,0.753-0.37,0.737-0.793C9.577-1.663,9.256-1.985,8.855-2z"/>
			</g>
		</g>
		<g id="Group_1957" transform="translate(14.34 20.596)">
			<g id="Group_1956">
				
					<linearGradient id="Path_16743_1_" gradientUnits="userSpaceOnUse" x1="-274.3903" y1="364.9578" x2="-274.3903" y2="363.9578" gradientTransform="matrix(15.718 0 0 -15.718 4321.7178 5734.4121)">
					<stop  offset="0.13" style="stop-color:#00A9ED"/>
					<stop  offset="1" style="stop-color:#65106B"/>
				</linearGradient>
				<path id="Path_16743" fill="url(#Path_16743_1_)" d="M8.859-2C4.518-2,1,1.518,1,5.859s3.519,7.859,7.859,7.859
					s7.859-3.519,7.859-7.859l0,0C16.719,1.518,13.2-2,8.859-2z M8.859,12.289c-3.551,0-6.43-2.879-6.43-6.43s2.879-6.43,6.43-6.43
					s6.43,2.879,6.43,6.43l0,0C15.289,9.41,12.41,12.289,8.859,12.289z"/>
			</g>
		</g>
		<g id="Group_1959" transform="translate(33.809 23.096)">
			<g id="Group_1958">
				
					<linearGradient id="Path_16744_1_" gradientUnits="userSpaceOnUse" x1="-297.2997" y1="373.3387" x2="-297.2997" y2="372.3387" gradientTransform="matrix(19.648 0 0 -28.578 5852.1641 10667.2686)">
					<stop  offset="0.13" style="stop-color:#00A9ED"/>
					<stop  offset="1" style="stop-color:#65106B"/>
				</linearGradient>
				<path id="Path_16744" fill="url(#Path_16744_1_)" d="M10.824-2C6.091-2,1.001-0.882,1.001,1.572v21.435
					c0,2.453,5.091,3.571,9.823,3.571c4.733,0,9.824-1.118,9.824-3.571V1.572C20.644-0.882,15.557-2,10.824-2z M18.862,22.993
					c-0.135,0.5-2.813,1.8-8.038,1.8c-5.225,0-7.899-1.3-8.037-1.785v-1.4c5.194,1.873,10.88,1.873,16.074,0L18.862,22.993z
					 M18.862,19.421c-0.135,0.5-2.813,1.801-8.038,1.801c-5.225,0-7.899-1.301-8.037-1.786v-1.4c5.194,1.873,10.88,1.873,16.074,0
					L18.862,19.421z M18.862,15.849c-0.135,0.5-2.813,1.8-8.038,1.8c-5.225,0-7.899-1.3-8.037-1.786v-1.4
					c5.194,1.873,10.88,1.873,16.074,0L18.862,15.849z M18.862,12.277c-0.135,0.5-2.813,1.8-8.038,1.8
					c-5.225,0-7.899-1.3-8.037-1.786v-1.399c5.194,1.872,10.88,1.872,16.074,0L18.862,12.277z M18.862,8.705
					c-0.135,0.5-2.813,1.8-8.038,1.8c-5.225,0-7.899-1.3-8.037-1.785v-1.4c5.194,1.873,10.88,1.873,16.074,0L18.862,8.705z
					 M18.862,5.134c-0.135,0.5-2.813,1.8-8.038,1.8c-5.225,0-7.899-1.3-8.037-1.786v-1.4c5.194,1.873,10.88,1.873,16.074,0
					L18.862,5.134z M10.824,3.36c-5.216,0-7.894-1.3-8.037-1.771V1.585c0.144-0.5,2.82-1.8,8.037-1.8
					c5.181,0,7.859,1.281,8.038,1.786C18.683,2.078,16.004,3.359,10.824,3.36L10.824,3.36z"/>
			</g>
		</g>
		<g id="Group_1961" transform="translate(3.571 20.545)">
			<g id="Group_1960">
				
					<linearGradient id="Path_16745_1_" gradientUnits="userSpaceOnUse" x1="-258.6994" y1="365.1612" x2="-258.6994" y2="364.1612" gradientTransform="matrix(12.2214 0 0 -15.817 3168.7932 5773.7466)">
					<stop  offset="0.13" style="stop-color:#00A9ED"/>
					<stop  offset="1" style="stop-color:#65106B"/>
				</linearGradient>
				<path id="Path_16745" fill="url(#Path_16745_1_)" d="M12.484,12.283H5.733l-3.2-3.5v-5.8l3.535-3.452h6.417
					c0.422-0.016,0.753-0.37,0.737-0.793C13.207-1.663,12.886-1.985,12.485-2H5.756c-0.2,0-0.393,0.077-0.536,0.217L1.232,2.108
					c-0.149,0.174-0.23,0.396-0.23,0.625v6.35c0,0.191,0.071,0.375,0.2,0.516l3.629,3.97c0.145,0.158,0.35,0.249,0.564,0.249h7.09
					c0.422-0.016,0.753-0.371,0.737-0.793c-0.015-0.401-0.336-0.724-0.737-0.738L12.484,12.283z"/>
			</g>
		</g>
	</g>
	
		<linearGradient id="Path_16746_1_" gradientUnits="userSpaceOnUse" x1="313.8159" y1="1709.4032" x2="313.8159" y2="1708.4032" gradientTransform="matrix(36.4448 16.2287 8.6539 -19.434 -25610.5996 29419.4023)">
		<stop  offset="0.13" style="stop-color:#00A9ED"/>
		<stop  offset="1" style="stop-color:#65106B"/>
	</linearGradient>
	<path id="Path_16746" fill="url(#Path_16746_1_)" d="M629.404,1318.06c4.481-10.064-0.044-21.855-10.107-26.337
		c-10.064-4.481-21.855,0.044-26.337,10.108c-0.189,0.43,0.006,0.932,0.437,1.12c0.351,0.154,0.762,0.055,1.003-0.243
		c0.578-0.736,1.286-1.361,2.09-1.843c0.979-0.354,2.058-0.316,3.011,0.104c0.949,0.418,1.697,1.192,2.083,2.155
		c0.358,0.983,0.323,2.066-0.099,3.023c-0.19,0.429,0.003,0.932,0.432,1.122c0.429,0.191,0.932-0.002,1.122-0.431
		c0.836-1.962,3.104-2.875,5.065-2.04c0.039,0.017,0.077,0.034,0.116,0.052c0.951,0.418,1.701,1.192,2.087,2.157
		c0.359,0.982,0.323,2.065-0.099,3.022c-0.19,0.43,0.002,0.933,0.432,1.123c0.429,0.191,0.932-0.002,1.122-0.431
		c0.837-1.962,3.104-2.875,5.067-2.039c0.038,0.016,0.076,0.033,0.114,0.051c0.952,0.418,1.701,1.192,2.088,2.157
		c0.358,0.982,0.323,2.065-0.1,3.022c-0.19,0.429,0.002,0.932,0.432,1.123c0.429,0.191,0.932-0.002,1.122-0.431
		c0.837-1.963,3.104-2.876,5.067-2.04c0.038,0.017,0.076,0.033,0.114,0.051c0.951,0.418,1.701,1.192,2.088,2.157
		c0.187,0.923,0.197,1.873,0.032,2.8c-0.074,0.464,0.243,0.899,0.707,0.974c0.378,0.06,0.75-0.142,0.908-0.49L629.404,1318.06z
		 M626.359,1311.07c-1.355-0.604-2.893-0.657-4.288-0.149l-0.048,0.02c-0.384,0.16-0.751,0.358-1.096,0.592
		c-0.057-0.412-0.155-0.817-0.293-1.211l-0.012-0.023c-1.144-2.877-4.369-4.322-7.277-3.26l-0.049,0.019
		c-0.384,0.16-0.751,0.358-1.096,0.592c-0.058-0.412-0.155-0.817-0.294-1.211l-0.008-0.024c-1.144-2.875-4.365-4.319-7.272-3.26
		l-0.049,0.019c-0.384,0.16-0.751,0.358-1.096,0.592c-0.058-0.412-0.155-0.817-0.294-1.21l-0.008-0.025
		c-1.051-2.655-3.903-4.124-6.675-3.438c5.997-8.104,17.429-9.813,25.533-3.815c5.699,4.217,8.441,11.353,7.033,18.301
		c-0.603-1.114-1.558-1.997-2.716-2.511L626.359,1311.07z"/>
</g>
</svg>
