<?xml version="1.0" encoding="utf-8"?>
<!-- Generator: Adobe Illustrator 16.0.0, SVG Export Plug-In . SVG Version: 6.00 Build 0)  -->
<!DOCTYPE svg PUBLIC "-//W3C//DTD SVG 1.1//EN" "http://www.w3.org/Graphics/SVG/1.1/DTD/svg11.dtd">
<svg version="1.1" id="Layer_1" xmlns="http://www.w3.org/2000/svg" xmlns:xlink="http://www.w3.org/1999/xlink" x="0px" y="0px"
	 width="89.568px" height="81.625px" viewBox="0 0 89.568 81.625" enable-background="new 0 0 89.568 81.625" xml:space="preserve">
<g id="Group_1848" transform="translate(-49.426 -905.671)">
	
		<line id="Line_125" fill="none" stroke="#147DB2" stroke-width="3" stroke-linecap="round" x1="62.5" y1="974.501" x2="78.5" y2="969.501"/>
	
		<linearGradient id="Subtraction_6_1_" gradientUnits="userSpaceOnUse" x1="-207.8511" y1="1335.9728" x2="-207.8511" y2="1334.9728" gradientTransform="matrix(85.877 0 0 -54.1504 17943.3672 73263.2578)">
		<stop  offset="0.13" style="stop-color:#00A9ED"/>
		<stop  offset="1" style="stop-color:#65106B"/>
	</linearGradient>
	<path id="Subtraction_6" fill="url(#Subtraction_6_1_)" d="M107.162,973.962H83.836c-0.586,0-1.159-0.174-1.646-0.5l-3.5-2.33
		l-1.97-2.957l-3.354-7.553h-2.621c-0.627,0-1.25-0.102-1.845-0.299l-7.206-2.4c-1.204-0.414-2.015-1.543-2.021-2.816v-0.635
		l-5.65-0.949c-0.962-0.16-1.828-0.68-2.426-1.451c-0.599-0.77-0.884-1.736-0.8-2.709c0.078-0.971,0.521-1.877,1.238-2.539
		c0.717-0.662,1.656-1.03,2.632-1.032h7.753c0.198,0.001,0.396,0.014,0.592,0.039l4.233,0.648c-1.745-1.96-1.954-4.849-0.51-7.04
		l0.953-1.481l10.579-16.137c0.703-1.074,1.836-1.791,3.107-1.967c0.199-0.027,0.399-0.041,0.6-0.041
		c1.073,0,2.111,0.388,2.921,1.092l11.573,10.078h4.52c1.07,0.005,2.107,0.374,2.941,1.045l0.434-0.257
		c0.92-0.556,1.975-0.85,3.049-0.85c1.863,0.002,3.619,0.881,4.736,2.372l0.646,0.866c1.873-1.068,3.984-1.651,6.141-1.694
		c2.918,0,4.445,4.1,4.445,8.149c0,3.2-0.908,6-2.369,7.315c0.059,0.107,0.109,0.211,0.158,0.311l0.018,0.035l0.064,0.131
		c1.447-0.246,2.914-0.369,4.383-0.369c2.678,0,5.338,0.41,7.891,1.217c1.227,0.391,2.229,1.285,2.756,2.459
		c0.703,1.598,0.41,3.457-0.75,4.76c-0.844,0.945-2.049,1.484-3.316,1.484c-0.449,0.002-0.896-0.066-1.326-0.199
		c-1.703-0.557-3.484-0.84-5.277-0.84c-8.883-0.006-16.279,6.82-16.982,15.678c-0.063,0.768-0.701,1.363-1.473,1.369
		L107.162,973.962z M125.652,950.995c-4.369-0.002-8.648,1.242-12.336,3.586c-5.754,3.646-9.594,9.66-10.475,16.416h2.992
		c0.867-5.822,4.26-10.967,9.271-14.057c3.16-1.951,6.801-2.984,10.516-2.984c2.105,0,4.199,0.334,6.201,0.986
		c0.135,0.041,0.277,0.063,0.418,0.063c0.582,0.002,1.109-0.344,1.342-0.877c0.172-0.383,0.172-0.818,0-1.201
		c-0.186-0.404-0.531-0.713-0.957-0.85c-2.254-0.717-4.605-1.082-6.971-1.082H125.652z M76.616,960.624l3.508,7.9l3.706,2.475
		h16.046c1.195-10.328,8.439-18.945,18.41-21.895c-0.178-0.332-0.371-0.666-0.596-1.016c-0.605-0.943-1.332-1.804-2.158-2.561
		c-1.861-1.73-4.309-2.691-6.85-2.687h-0.1c-0.596,0.009-1.189,0.058-1.779,0.148c-0.512,0.077-1.1,0.193-1.613,0.3l2.521,2.521
		c0.559,0.556,0.871,1.313,0.869,2.1v1.508c-0.008,1.041-0.555,2.004-1.445,2.543l-6.1,3.664l-1.367,8.213v0.02
		c-0.143,2.35-2.086,4.182-4.439,4.186h-0.18c-1.165-0.045-2.264-0.547-3.061-1.398c-0.799-0.85-1.23-1.979-1.2-3.145
		c0.023-1.162,0.505-2.27,1.339-3.08c0.83-0.814,1.947-1.27,3.11-1.266h0.018c0.742,0.004,1.471,0.195,2.117,0.559l0.445-2.713
		l-8.539,3.199c-0.098,1.215-0.606,2.357-1.443,3.242c-0.839,0.883-1.954,1.451-3.16,1.613c-0.174,0.018-0.348,0.025-0.522,0.025
		h-0.031c-1.242,0-2.441-0.449-3.377-1.268c-0.937-0.816-1.543-1.947-1.708-3.178L76.616,960.624z M95.246,962.107
		c-0.819,0-1.483,0.664-1.485,1.482c0.002,0.818,0.666,1.482,1.485,1.482c0.816-0.002,1.479-0.664,1.48-1.482
		c-0.012-0.807-0.658-1.457-1.463-1.477L95.246,962.107z M81.994,922.78c-0.07,0-0.141,0.004-0.21,0.013
		c-0.425,0.056-0.805,0.295-1.037,0.656l-11.521,17.606l-0.007,0.01c-0.504,0.786-0.608,1.764-0.282,2.639
		c0.332,0.873,1.052,1.54,1.947,1.805l8.876,2.57c0.409,0.131,0.784,0.352,1.1,0.643c0.167,0.107,0.312,0.246,0.424,0.41
		c0.396,0.514,0.612,1.143,0.616,1.791v8.967c0.001,0.629,0.271,1.229,0.74,1.648c0.405,0.371,0.936,0.576,1.485,0.574
		c0.079,0,0.157-0.004,0.235-0.012c1.179-0.195,2.031-1.234,1.992-2.428v-12.08c0.001-1.321-0.87-2.484-2.139-2.854l-5.262-1.53
		c-0.45-0.132-0.811-0.47-0.972-0.91c-0.163-0.44-0.108-0.931,0.147-1.325l5.968-9.101l-0.405-0.36
		c-0.407-0.349-0.596-0.89-0.492-1.417c0.104-0.528,0.487-0.958,1-1.122c0.147-0.048,0.302-0.073,0.457-0.073
		c0.372,0.001,0.729,0.145,1,0.399l7.314,6.49c0.813,0.722,1.864,1.122,2.952,1.125h5.246c0.203-0.003,0.404-0.045,0.592-0.125
		c0.16-0.063,0.305-0.161,0.424-0.286c0.332-0.31,0.504-0.756,0.465-1.209c-0.125-0.777-0.799-1.349-1.586-1.345H96.47
		c-0.715,0.001-1.406-0.258-1.945-0.729l-11.568-10.077c-0.25-0.22-0.567-0.349-0.9-0.364L81.994,922.78z M54.668,948.771
		c-0.478,0.004-0.873,0.373-0.913,0.848c-0.038,0.477,0.287,0.904,0.756,0.994l5.645,0.932c1.438,0.23,2.493,1.475,2.484,2.932
		v0.637l7.2,2.398c0.302,0.105,0.619,0.158,0.938,0.162h8.162v-6.375l-16.3-2.516h-0.044c-0.038,0-0.107-0.012-0.175-0.012H54.668z
		 M101.826,944.108c-2.5,0.694-5.484,1.664-8.87,2.884c-1.331,0.477-2.646,0.977-3.643,1.357v8.652l9.727-3.645l6.574-3.947v-1.508
		L101.826,944.108L101.826,944.108z M118.91,935.433c-0.4,0.177-1.439,2.04-1.439,5.185c-0.008,1.04,0.127,2.076,0.4,3.079
		c0.531,0.523,1.027,1.083,1.482,1.675c0.785-1.457,1.158-3.099,1.08-4.751c0-3.258-1.078-5.029-1.508-5.185L118.91,935.433z
		 M86.334,933.854L86.334,933.854l-4.629,7.072l3.324,0.971c1.736,0.507,3.145,1.783,3.819,3.462l0.205-0.078l0.029-0.011
		c0.942-0.357,1.917-0.728,2.876-1.068c3.812-1.366,7.082-2.417,9.72-3.125c0.012-0.004,0.023-0.007,0.035-0.009
		c0.016-0.003,0.031-0.007,0.045-0.013c1.527-0.4,2.887-0.708,4.041-0.9c1.342-1.617,2.857-3.082,4.52-4.369l-0.529-0.714
		c-0.561-0.743-1.436-1.182-2.365-1.183c-0.539,0-1.068,0.147-1.529,0.427l-0.4,0.236c0.043,0.162,0.072,0.326,0.09,0.492
		c0.127,1.316-0.352,2.618-1.299,3.539c-0.396,0.405-0.871,0.725-1.395,0.941c-0.547,0.231-1.135,0.35-1.727,0.35h-5.26
		c-1.811,0-3.558-0.666-4.909-1.872l-4.667-4.148L86.334,933.854z M115.123,936.332c-1.895,0.909-3.619,2.136-5.1,3.626
		c1.578,0.15,3.113,0.598,4.525,1.318c0-0.092-0.012-0.181-0.021-0.28c-0.01-0.115-0.023-0.245-0.023-0.379
		c0.004-1.453,0.227-2.897,0.658-4.286L115.123,936.332z"/>
	<g id="Group_1846" transform="translate(112.326 960.633)">
		
			<linearGradient id="Path_16640_1_" gradientUnits="userSpaceOnUse" x1="-301.8338" y1="350.329" x2="-301.8338" y2="349.329" gradientTransform="matrix(11.856 0 0 -11.856 3591.8777 4160.8999)">
			<stop  offset="0.13" style="stop-color:#00A9ED"/>
			<stop  offset="1" style="stop-color:#65106B"/>
		</linearGradient>
		<path id="Path_16640" fill="url(#Path_16640_1_)" d="M13.336,7.405c-3.273,0-5.928,2.654-5.928,5.928s2.654,5.928,5.928,5.928
			c3.274,0,5.929-2.654,5.929-5.928S16.61,7.405,13.336,7.405L13.336,7.405z M13.336,16.296c-1.637,0-2.963-1.326-2.963-2.963
			s1.326-2.965,2.963-2.965c1.638,0,2.965,1.328,2.965,2.965l0,0C16.3,14.97,14.973,16.296,13.336,16.296z"/>
		
			<linearGradient id="Path_16641_1_" gradientUnits="userSpaceOnUse" x1="-313.659" y1="368.0966" x2="-313.659" y2="367.0966" gradientTransform="matrix(26.681 0 0 -26.6347 8382.0781 9804.1748)">
			<stop  offset="0.13" style="stop-color:#00A9ED"/>
			<stop  offset="1" style="stop-color:#65106B"/>
		</linearGradient>
		<path id="Path_16641" fill="url(#Path_16641_1_)" d="M25.191,11.851h-0.1c-0.133-1.07-0.41-2.117-0.827-3.111l0.081-0.049
			c0.722-0.385,0.994-1.283,0.609-2.006c-0.387-0.721-1.284-0.994-2.006-0.609c-0.029,0.016-0.058,0.033-0.086,0.051l-0.1,0.053
			c-0.651-0.855-1.416-1.621-2.273-2.271l0.055-0.102c0.422-0.701,0.193-1.611-0.508-2.033c-0.701-0.42-1.612-0.193-2.033,0.51
			c-0.009,0.014-0.018,0.029-0.025,0.043l-0.048,0.08c-0.995-0.416-2.042-0.693-3.112-0.826v-0.1
			c-0.021-0.818-0.701-1.465-1.52-1.443c-0.789,0.02-1.423,0.654-1.443,1.443v0.1c-1.07,0.133-2.117,0.41-3.111,0.826l-0.047-0.08
			c-0.397-0.715-1.3-0.975-2.016-0.578C5.965,2.145,5.707,3.046,6.104,3.763c0.008,0.014,0.017,0.029,0.024,0.043l0.056,0.102
			C5.328,4.558,4.562,5.323,3.91,6.179l-0.1-0.055C3.115,5.692,2.201,5.903,1.769,6.599C1.336,7.294,1.548,8.208,2.243,8.64
			c0.028,0.018,0.056,0.033,0.085,0.049L2.41,8.737c-0.417,0.994-0.695,2.041-0.828,3.111h-0.1c-0.818,0.002-1.48,0.668-1.479,1.486
			c0.003,0.816,0.663,1.477,1.479,1.479h0.1c0.133,1.07,0.41,2.117,0.828,3.111l-0.082,0.047c-0.709,0.408-0.953,1.314-0.545,2.023
			c0.266,0.459,0.756,0.742,1.285,0.742c0.261,0,0.517-0.068,0.741-0.199l0.101-0.057c0.65,0.857,1.416,1.623,2.272,2.275
			l-0.056,0.1c-0.408,0.709-0.166,1.615,0.543,2.025s1.615,0.166,2.025-0.543l0.047-0.08c0.994,0.416,2.042,0.695,3.112,0.826v0.1
			c-0.002,0.818,0.659,1.484,1.478,1.486s1.484-0.66,1.486-1.479c0-0.002,0-0.006,0-0.008v-0.1c1.07-0.131,2.117-0.41,3.112-0.826
			l0.048,0.08c0.393,0.719,1.294,0.982,2.012,0.588c0.718-0.393,0.981-1.293,0.588-2.012c-0.011-0.02-0.021-0.039-0.033-0.059
			l-0.055-0.1c0.857-0.652,1.621-1.418,2.273-2.275l0.1,0.057c0.225,0.131,0.48,0.199,0.741,0.199c0.819,0,1.482-0.662,1.483-1.48
			c0-0.531-0.283-1.021-0.742-1.285l-0.081-0.047c0.417-0.994,0.694-2.041,0.827-3.111h0.107c0.818,0.002,1.484-0.66,1.486-1.479
			s-0.66-1.484-1.479-1.486c-0.002,0-0.005,0-0.008,0L25.191,11.851z M13.336,22.224c-4.91,0-8.891-3.98-8.891-8.891
			s3.98-8.893,8.891-8.893c4.911,0,8.892,3.982,8.892,8.893l0,0C22.227,18.243,18.247,22.224,13.336,22.224z"/>
	</g>
	<g id="Group_1847" transform="translate(49.431 960.633)">
		
			<linearGradient id="Path_16640-2_1_" gradientUnits="userSpaceOnUse" x1="-238.9384" y1="350.329" x2="-238.9384" y2="349.329" gradientTransform="matrix(11.856 0 0 -11.856 2846.1919 4160.8999)">
			<stop  offset="0.13" style="stop-color:#00A9ED"/>
			<stop  offset="1" style="stop-color:#65106B"/>
		</linearGradient>
		<path id="Path_16640-2" fill="url(#Path_16640-2_1_)" d="M13.336,7.405c-3.274,0-5.928,2.654-5.928,5.928s2.654,5.928,5.928,5.928
			s5.928-2.654,5.928-5.928S16.61,7.405,13.336,7.405L13.336,7.405z M13.336,16.296c-1.637,0-2.964-1.326-2.964-2.963
			s1.327-2.965,2.964-2.965c1.637,0,2.964,1.328,2.964,2.965l0,0C16.3,14.97,14.973,16.296,13.336,16.296z"/>
		
			<linearGradient id="Path_16641-2_1_" gradientUnits="userSpaceOnUse" x1="-250.7635" y1="368.0966" x2="-250.7635" y2="367.0966" gradientTransform="matrix(26.681 0 0 -26.6347 6703.9795 9804.1748)">
			<stop  offset="0.13" style="stop-color:#00A9ED"/>
			<stop  offset="1" style="stop-color:#65106B"/>
		</linearGradient>
		<path id="Path_16641-2" fill="url(#Path_16641-2_1_)" d="M25.191,11.851h-0.1c-0.132-1.07-0.411-2.117-0.827-3.111l0.081-0.049
			c0.722-0.385,0.995-1.283,0.609-2.006c-0.386-0.721-1.284-0.994-2.005-0.609c-0.029,0.016-0.058,0.033-0.085,0.051l-0.1,0.053
			c-0.651-0.855-1.416-1.621-2.273-2.271l0.055-0.102c0.421-0.701,0.193-1.611-0.508-2.033c-0.702-0.42-1.612-0.193-2.033,0.51
			c-0.009,0.014-0.017,0.029-0.025,0.043l-0.048,0.08c-0.995-0.416-2.042-0.693-3.112-0.826v-0.1
			c-0.021-0.818-0.701-1.465-1.52-1.443c-0.789,0.02-1.423,0.654-1.443,1.443v0.1c-1.07,0.133-2.117,0.41-3.112,0.826l-0.047-0.08
			C8.299,1.61,7.397,1.351,6.681,1.747C5.965,2.145,5.707,3.046,6.104,3.763c0.008,0.014,0.017,0.029,0.025,0.043l0.055,0.102
			C5.327,4.558,4.562,5.323,3.91,6.179l-0.1-0.055C3.115,5.692,2.202,5.903,1.769,6.599C1.336,7.294,1.548,8.208,2.243,8.64
			c0.028,0.018,0.057,0.033,0.085,0.049l0.081,0.049c-0.417,0.994-0.695,2.041-0.827,3.111h-0.1
			c-0.818,0.002-1.48,0.668-1.478,1.486c0.002,0.816,0.663,1.477,1.478,1.479h0.1c0.132,1.07,0.41,2.117,0.827,3.111l-0.082,0.047
			c-0.709,0.408-0.953,1.314-0.544,2.023c0.265,0.459,0.755,0.742,1.285,0.742c0.261,0,0.517-0.068,0.741-0.199l0.1-0.057
			c0.651,0.857,1.416,1.623,2.273,2.275l-0.055,0.1c-0.409,0.709-0.166,1.615,0.542,2.025c0.709,0.41,1.615,0.166,2.025-0.543
			l0.048-0.08c0.994,0.416,2.042,0.695,3.112,0.826v0.1c-0.002,0.818,0.66,1.484,1.478,1.486c0.819,0.002,1.484-0.66,1.486-1.479
			c0-0.002,0-0.006,0-0.008v-0.1c1.071-0.131,2.118-0.41,3.112-0.826l0.048,0.08c0.393,0.719,1.294,0.982,2.012,0.588
			c0.718-0.393,0.981-1.293,0.588-2.012c-0.011-0.02-0.022-0.039-0.034-0.059l-0.054-0.1c0.857-0.652,1.622-1.418,2.273-2.275
			l0.1,0.057c0.225,0.131,0.48,0.199,0.741,0.199c0.819,0,1.482-0.662,1.483-1.48c0-0.531-0.282-1.021-0.742-1.285l-0.081-0.047
			c0.417-0.994,0.695-2.041,0.827-3.111h0.108c0.818,0.002,1.484-0.66,1.486-1.479c0.002-0.818-0.66-1.484-1.478-1.486
			c-0.002,0-0.005,0-0.008,0L25.191,11.851z M13.336,22.224c-4.91,0-8.891-3.98-8.891-8.891s3.98-8.893,8.891-8.893
			c4.911,0,8.891,3.982,8.891,8.893l0,0C22.227,18.243,18.247,22.224,13.336,22.224z"/>
	</g>
	
		<linearGradient id="Path_16642_1_" gradientUnits="userSpaceOnUse" x1="-196.7544" y1="1324.0236" x2="-196.7544" y2="1323.0236" gradientTransform="matrix(17.9774 0 0 -20.0231 3629.7979 27416.7441)">
		<stop  offset="0.13" style="stop-color:#00A9ED"/>
		<stop  offset="1" style="stop-color:#65106B"/>
	</linearGradient>
	<path id="Path_16642" fill="url(#Path_16642_1_)" d="M99.082,909.197c-1.729-2.236-4.399-3.54-7.225-3.526
		c-3.8,0.223-6.5,3.446-7.5,4.835c-0.316,0.459-0.497,0.999-0.521,1.556l-0.148,3.161c-0.034,0.782,0.241,1.545,0.766,2.125
		l2.321,2.537l4.416,4.839c0.564,0.619,1.363,0.971,2.2,0.97c0.604,0,1.193-0.188,1.686-0.538c2.246-1.561,6.082-4.815,6.561-9.07
		c-0.002-0.053,0.002-0.106,0.01-0.159v-0.046c0.154-2.494-0.777-4.933-2.556-6.688L99.082,909.197z M97.091,919.271l-2.414-3.536
		c-0.136-0.2-0.084-0.471,0.115-0.607c0.129-0.088,0.296-0.1,0.438-0.032l3.247,1.571C98.179,917.612,97.709,918.495,97.091,919.271
		L97.091,919.271z M93.374,922.719l-4.413-4.832l-0.08-0.088l-2.233-2.441l0.123-3.14c0.577-0.8,2.657-3.437,5.258-3.589h0.234
		c1.837,0.166,3.519,1.099,4.631,2.57c0.572,0.609,1.037,1.31,1.379,2.072l-1.754-0.849c-1.686-0.826-3.723-0.129-4.549,1.558
		c-0.54,1.101-0.444,2.407,0.249,3.418l2.767,4.059c-0.516,0.448-1.055,0.869-1.614,1.263L93.374,922.719z"/>
</g>
</svg>
