<?xml version="1.0" encoding="utf-8"?>
<!-- Generator: Adobe Illustrator 16.0.0, SVG Export Plug-In . SVG Version: 6.00 Build 0)  -->
<!DOCTYPE svg PUBLIC "-//W3C//DTD SVG 1.1//EN" "http://www.w3.org/Graphics/SVG/1.1/DTD/svg11.dtd">
<svg version="1.1" id="Layer_1" xmlns="http://www.w3.org/2000/svg" xmlns:xlink="http://www.w3.org/1999/xlink" x="0px" y="0px"
	 width="104px" height="82.979px" viewBox="0 0 104 82.979" enable-background="new 0 0 104 82.979" xml:space="preserve">
<g id="Group_1850" transform="translate(12884.999 -4796.021)">
	
		<linearGradient id="Subtraction_19_1_" gradientUnits="userSpaceOnUse" x1="-13130.541" y1="5212.9561" x2="-13130.541" y2="5211.9561" gradientTransform="matrix(33 0 0 -18 420509.4375 98694.2188)">
		<stop  offset="0.13" style="stop-color:#00A9ED"/>
		<stop  offset="1" style="stop-color:#65106B"/>
	</linearGradient>
	<path id="Subtraction_19" fill="url(#Subtraction_19_1_)" d="M-12798.5,4879c-9.112,0-16.5-7.387-16.5-16.5
		c0-0.5,0.022-1,0.067-1.5h4.021c-0.824,6.854,4.063,13.079,10.918,13.904c6.854,0.824,13.078-4.063,13.903-10.918
		c0.119-0.991,0.119-1.994,0-2.986h4.022c0.045,0.5,0.067,1,0.067,1.5C-12782,4871.613-12789.388,4879-12798.5,4879L-12798.5,4879z
		 M-12798.5,4872c-5.247,0-9.5-4.253-9.5-9.5l0,0c0-0.502,0.039-1.004,0.117-1.5h3.899c-0.826,3.027,0.957,6.152,3.983,6.979
		c3.027,0.827,6.151-0.956,6.979-3.983c0.268-0.98,0.268-2.016,0-2.996h3.899c0.079,0.496,0.12,0.998,0.121,1.5
		C-12789,4867.747-12793.253,4872-12798.5,4872L-12798.5,4872z"/>
	
		<linearGradient id="Subtraction_25_1_" gradientUnits="userSpaceOnUse" x1="-13135.6309" y1="5228.709" x2="-13135.6309" y2="5227.709" gradientTransform="matrix(103.9998 0 0 -71.479 1353271.125 378538.9063)">
		<stop  offset="0.13" style="stop-color:#00A9ED"/>
		<stop  offset="1" style="stop-color:#65106B"/>
	</linearGradient>
	<path id="Subtraction_25" fill="url(#Subtraction_25_1_)" d="M-12850.777,4867.5h-0.847l0.688-3.313l0.058-0.101h19.144
		c0.632,0,2.313,0,4.001-2.5l0.053-0.073l14.875-19.449h-4.963l-3.487,4.784l-0.011,0.015v0.005l-0.006,0.008v0.005l-8.478,11.623
		c-1.001,1.671-2.883,2.605-4.818,2.396h-14.481l0.05-0.087l-14.8-0.134l0.375-1.645v-0.027l2.757-12.091
		c0.002-0.023,0.008-0.047,0.018-0.069l1.088-4.781h-4.11l-3.706,17.55c-0.002,0.023-0.007,0.046-0.014,0.068l-0.2,0.961
		l-14.546-0.133c-0.406-0.197-0.764-0.481-1.047-0.832c-0.934-1.158-1.064-2.918-0.395-5.4c0.965-3.247,3.21-5.962,6.219-7.519
		c3.105-1.689,6.577-2.591,10.111-2.625l0.438-2.071h-10.301c-3.724,0-6.324-2.355-6.324-5.728v-6.427
		c-0.072-1.479,0.489-2.919,1.545-3.959c1.094-0.961,2.513-1.47,3.969-1.422c0.146,0,0.289,0,0.426,0.012l2.723-0.012
		c1.582,0.128,3.044,0.888,4.057,2.109c0.816,0.78,1.355,1.259,1.957,1.3h29.473c1.645-1.978,3.832-3.429,6.293-4.176
		c2.808-0.936,5.751-1.399,8.711-1.374c2.407-0.012,4.804,0.293,7.132,0.906c1.656,0.42,3.229,1.125,4.644,2.083v-4.928l-6.15-0.36
		c-2.458-0.034-4.423-2.055-4.388-4.513c0.001-0.044,0.002-0.087,0.004-0.13c0.053-2.382,2.025-4.27,4.407-4.217
		c0.033,0.001,0.066,0.002,0.1,0.004h0.024l7.75,0.027l-1.978-4.5h-6.679c-1.842-0.004-3.332-1.499-3.331-3.341v-4.038
		c0.002-1.027,0.454-2.002,1.237-2.668c0.52-0.444,1.18-0.69,1.863-0.693c0.171,0,0.342,0.016,0.51,0.047l7.689,1.43
		c1.699,0.19,3.003,1.599,3.061,3.309v2.614c0.001,1.032-0.479,2.006-1.299,2.633l2.338,5.336c1.477,0.338,2.713,1.342,3.345,2.718
		c0.376,0.707,0.567,1.498,0.558,2.3v5.262c0.857-0.316,1.764-0.478,2.678-0.478h5.385c1.907,0.001,3.454,1.546,3.457,3.454v8.683
		c-0.003,1.908-1.55,3.453-3.457,3.454h-5.387c-0.914,0-1.82-0.162-2.678-0.478v4.729l1.584,3.387
		c1.169-0.183,2.35-0.274,3.533-0.274c2.773-0.008,5.523,0.517,8.1,1.543c4.277,1.653,7.712,4.951,9.537,9.157
		c0.428,0.979,1.288,3.46,0.069,5.313c-0.444,0.666-1.1,1.163-1.86,1.41l0.006,0.048l-14.777-0.104l-6.854-14.65
		c-0.023-0.044-0.045-0.088-0.064-0.136l-2.2-4.7c-0.095-0.204-0.145-0.426-0.146-0.651v-24.969c0.01-0.299-0.06-0.594-0.199-0.858
		c-0.026-0.047-0.049-0.093-0.071-0.142c-0.282-0.646-0.919-1.064-1.624-1.068l-10.109-0.033h-0.013
		c-1.265,0-1.428,0.865-1.44,1.237c-0.033,0.783,0.574,1.445,1.357,1.479c0.047,0.002,0.095,0.002,0.143-0.001l7.594,0.443
		c0.811,0.049,1.443,0.721,1.445,1.533v23.067l9.328,19.427l-14.462-0.105c-0.526-0.251-0.979-0.632-1.317-1.107
		c-0.875-1.25-0.899-3.048-0.067-5.345c1.11-2.983,3.134-5.54,5.78-7.308l-1.163-2.424l-13.88,18.138
		c-1.719,2.527-3.911,3.809-6.515,3.809h-12.014l-6.943,0.007c-0.024,0.113-0.052,0.228-0.08,0.343L-12850.777,4867.5z
		 M-12798.317,4847.222c-0.73-0.001-1.461,0.039-2.188,0.118l5.355,11.435h10.877c0.556,0,0.959-0.112,1.082-0.3
		c0.213-0.813,0.099-1.679-0.32-2.408C-12785.91,4850.521-12791.444,4847.222-12798.317,4847.222z M-12808.828,4850.436
		c-1.932,1.387-3.408,3.315-4.241,5.543c-0.561,1.546-0.457,2.321-0.307,2.537c0.299,0.215,0.668,0.308,1.031,0.259h7.521l-4-8.339
		H-12808.828z M-12833.789,4854.194c-1.549,0-2.832,1.2-2.936,2.746c-0.018,0.299,0.008,0.598,0.078,0.889h2.078
		c1.43,0,1.606-0.128,2.336-1.132l0.866-1.19C-12831.893,4854.68-12832.809,4854.184-12833.789,4854.194z M-12837.811,4842.064
		l-12.008,12.968c0.313,0.903,0.502,1.846,0.561,2.8h9.5c-0.043-0.358-0.053-0.72-0.032-1.081c0.204-3.163,2.83-5.624,6-5.624
		c1.62-0.007,3.172,0.651,4.291,1.822l3.949-5.419h-7.114c-0.848,0-1.535-0.688-1.535-1.535c0-0.849,0.688-1.536,1.535-1.536h9.353
		l1.746-2.399L-12837.811,4842.064z M-12858.098,4849.47l-1.9,8.33h6.736l0.933,0.014c-0.106-0.864-0.33-1.711-0.664-2.516v-0.01
		l-0.005-0.012C-12854.029,4852.842-12855.817,4850.806-12858.098,4849.47z M-12867.898,4847.226
		c-6.319,0.311-11.549,3.543-12.715,7.857c-0.5,1.864-0.271,2.578-0.183,2.667c0.112,0.045,0.234,0.064,0.356,0.057h10.306
		L-12867.898,4847.226z M-12856.41,4842.064l-0.979,4.29c2.539,1.287,4.674,3.252,6.166,5.676l9.229-9.967L-12856.41,4842.064
		L-12856.41,4842.064z M-12824.304,4825.464c-5.793,0-10.755,1.751-12.642,4.46v9.067h24.435v-8.28c0-2.666-3.815-4-5.456-4.449
		c-2.067-0.544-4.198-0.813-6.337-0.801V4825.464z M-12877.913,4827.6c-0.677-0.044-1.345,0.164-1.876,0.586
		c-0.424,0.47-0.633,1.094-0.579,1.724v6.428c0,1.663,1.218,2.656,3.255,2.656h37.1v-7.98h-28.871
		c-1.541-0.195-2.952-0.963-3.953-2.15c-0.814-0.78-1.346-1.258-1.939-1.261l-2.756,0.011h-0.1
		C-12877.727,4827.604-12877.819,4827.599-12877.913,4827.6z M-12800.772,4824.262c-0.957-0.001-1.892,0.292-2.678,0.838v7.775
		c0.786,0.546,1.721,0.839,2.678,0.838h5.385c0.211-0.002,0.383-0.172,0.387-0.384v-8.683c-0.004-0.212-0.176-0.382-0.387-0.384
		L-12800.772,4824.262z M-12819.581,4799.109L-12819.581,4799.109c-0.061,0.079-0.096,0.175-0.1,0.273v4.038
		c0.002,0.146,0.119,0.263,0.265,0.265h7.683c0.146,0,0.267-0.117,0.271-0.265v-2.614c0-0.087-0.239-0.232-0.547-0.289
		L-12819.581,4799.109z"/>
	
		<linearGradient id="Subtraction_24_1_" gradientUnits="userSpaceOnUse" x1="-13130.541" y1="5212.9561" x2="-13130.541" y2="5211.9561" gradientTransform="matrix(33 0 0 -18 420442.4375 98694.2188)">
		<stop  offset="0.13" style="stop-color:#00A9ED"/>
		<stop  offset="1" style="stop-color:#65106B"/>
	</linearGradient>
	<path id="Subtraction_24" fill="url(#Subtraction_24_1_)" d="M-12865.5,4879c-9.113,0-16.5-7.387-16.5-16.5
		c0-0.5,0.022-1,0.066-1.5h4.022c-0.825,6.854,4.063,13.079,10.917,13.904c6.854,0.824,13.08-4.063,13.904-10.918
		c0.119-0.991,0.119-1.994,0-2.986h4.023c0.044,0.5,0.066,1,0.066,1.5C-12849,4871.613-12856.387,4879-12865.5,4879L-12865.5,4879z
		 M-12865.5,4872c-5.246,0-9.5-4.253-9.5-9.5l0,0c0-0.502,0.039-1.004,0.117-1.5h3.9c-0.828,3.027,0.955,6.152,3.982,6.979
		s6.152-0.956,6.979-3.983c0.269-0.98,0.269-2.016,0-2.996h3.9c0.08,0.496,0.119,0.998,0.121,1.5
		C-12856,4867.747-12860.254,4872-12865.5,4872L-12865.5,4872z"/>
</g>
</svg>
