<?xml version="1.0" encoding="utf-8"?>
<!-- Generator: Adobe Illustrator 16.0.0, SVG Export Plug-In . SVG Version: 6.00 Build 0)  -->
<!DOCTYPE svg PUBLIC "-//W3C//DTD SVG 1.1//EN" "http://www.w3.org/Graphics/SVG/1.1/DTD/svg11.dtd">
<svg version="1.1" id="Layer_1" xmlns="http://www.w3.org/2000/svg" xmlns:xlink="http://www.w3.org/1999/xlink" x="0px" y="0px"
	 width="74px" height="74px" viewBox="0 0 74 74" enable-background="new 0 0 74 74" xml:space="preserve">
<linearGradient id="Path_16856_1_" gradientUnits="userSpaceOnUse" x1="-264.4849" y1="428.3184" x2="-264.4849" y2="427.3184" gradientTransform="matrix(74 0 0 -74 19608.875 31695.5625)">
	<stop  offset="0.13" style="stop-color:#00A9ED"/>
	<stop  offset="1" style="stop-color:#65106B"/>
</linearGradient>
<path id="Path_16856" fill="url(#Path_16856_1_)" d="M70.919,48.646l-5.28-0.75c-0.327-0.046-0.621-0.223-0.814-0.491l-3.936-5.511
	c-1.119-1.576-2.932-2.511-4.865-2.51h-4.711c5.231-3.391,8.382-9.208,8.363-15.444V23.17l5.618-5.618l-1.688-1.688l-3.93,3.93
	v-1.16l-4.199,1.4c-1.799,0.574-3.768,0.11-5.121-1.206l-0.225-0.223V0h-35.11L0,15.021V74h50.127V62.063h2.508
	c0.66,3.229,3.813,5.313,7.043,4.652c2.342-0.479,4.172-2.31,4.651-4.652h6.088c1.978,0,3.58-1.603,3.583-3.58v-6.289
	c0.002-1.785-1.313-3.297-3.079-3.545L70.919,48.646z M56.232,22.3l1.057-0.351v0.238l-8.355,8.355L46.2,27.8l-1.688,1.688
	l4.424,4.424l8.256-8.256c-0.541,5.237-3.631,9.871-8.258,12.384c-5.166-2.806-8.375-8.221-8.354-14.1v-2l1.049,0.349
	c2.533,0.821,5.312,0.243,7.306-1.521c1.996,1.758,4.769,2.336,7.301,1.523L56.232,22.3z M14.321,4.074v10.247H4.074L14.321,4.074z
	 M47.74,71.611H2.386v-54.9h14.322V2.386H47.74V18.6l-0.223,0.223c-1.355,1.322-3.33,1.784-5.131,1.2l-4.199-1.393v5.31
	c-0.02,6.235,3.131,12.052,8.363,15.444h-5.81c-1.997-0.003-3.863,0.995-4.969,2.658L32.9,46.363
	c-0.154,0.23-0.384,0.402-0.65,0.484l-9.41,2.818c-1.516,0.455-2.553,1.852-2.551,3.434v5.383c0.002,1.978,1.604,3.579,3.581,3.582
	h6.088c0.66,3.229,3.813,5.311,7.042,4.65c2.342-0.479,4.172-2.309,4.652-4.65h6.088V71.611z M32.224,60.87
	c0-1.978,1.602-3.581,3.58-3.582c1.977-0.001,3.581,1.603,3.583,3.58c0,1.978-1.604,3.581-3.581,3.582c-0.002,0-0.004,0-0.006,0
	C33.825,64.447,32.225,62.846,32.224,60.87z M58.482,64.45c-1.979,0-3.582-1.604-3.582-3.581c0-1.979,1.604-3.581,3.582-3.581
	c1.978,0,3.58,1.603,3.58,3.581C62.063,62.847,60.46,64.45,58.482,64.45L58.482,64.45z M71.611,58.482
	c-0.004,0.658-0.536,1.19-1.194,1.193h-6.088c-0.661-3.229-3.813-5.312-7.043-4.651c-2.342,0.479-4.173,2.31-4.651,4.651H41.652
	c-0.66-3.229-3.814-5.312-7.043-4.651c-2.342,0.479-4.172,2.31-4.651,4.651H23.87c-0.658-0.003-1.191-0.535-1.194-1.193V53.1
	c0-0.529,0.349-0.996,0.856-1.148l9.416-2.82c0.795-0.241,1.481-0.752,1.941-1.445l2.876-4.319c0.664-0.997,1.784-1.596,2.982-1.593
	h15.275c1.159-0.002,2.248,0.559,2.92,1.504l3.936,5.512c0.574,0.798,1.448,1.328,2.421,1.47l5.275,0.749
	c0.593,0.08,1.037,0.586,1.04,1.184L71.611,58.482z"/>
<linearGradient id="Path_16857_1_" gradientUnits="userSpaceOnUse" x1="-159.0342" y1="272.8545" x2="-159.0342" y2="271.8545" gradientTransform="matrix(2.387 0 0 -2.387 415.4194 710.9771)">
	<stop  offset="0.13" style="stop-color:#00A9ED"/>
	<stop  offset="1" style="stop-color:#65106B"/>
</linearGradient>
<path id="Path_16857" fill="url(#Path_16857_1_)" d="M34.612,59.676h2.387v2.387h-2.387V59.676z"/>
<linearGradient id="Path_16858_1_" gradientUnits="userSpaceOnUse" x1="-159.0347" y1="272.8545" x2="-159.0347" y2="271.8545" gradientTransform="matrix(2.387 0 0 -2.387 438.0971 710.9771)">
	<stop  offset="0.13" style="stop-color:#00A9ED"/>
	<stop  offset="1" style="stop-color:#65106B"/>
</linearGradient>
<path id="Path_16858" fill="url(#Path_16858_1_)" d="M57.289,59.676h2.387v2.387h-2.387V59.676z"/>
<linearGradient id="Path_16859_1_" gradientUnits="userSpaceOnUse" x1="-257.2305" y1="379.9531" x2="-257.2305" y2="378.9531" gradientTransform="matrix(24.153 0 0 -7.161 6261.2471 2764.9988)">
	<stop  offset="0.13" style="stop-color:#00A9ED"/>
	<stop  offset="1" style="stop-color:#65106B"/>
</linearGradient>
<path id="Path_16859" fill="url(#Path_16859_1_)" d="M39.842,44.16l-3.581,7.161h24.153l-3.581-7.161H39.842z M40.124,48.934
	l1.194-2.387h14.039l1.195,2.387H40.124z"/>
<linearGradient id="Path_16860_1_" gradientUnits="userSpaceOnUse" x1="-258.0947" y1="401.3701" x2="-258.0947" y2="400.3701" gradientTransform="matrix(26.258 0 0 -11.935 6809.2627 4795.1328)">
	<stop  offset="0.13" style="stop-color:#00A9ED"/>
	<stop  offset="1" style="stop-color:#65106B"/>
</linearGradient>
<path id="Path_16860" fill="url(#Path_16860_1_)" d="M45.354,4.773H19.095v11.935h26.258V4.773z M42.966,14.321H21.482V7.16h21.484
	V14.321z"/>
<linearGradient id="Path_16864_1_" gradientUnits="userSpaceOnUse" x1="-258.5249" y1="272.8545" x2="-258.5249" y2="271.8545" gradientTransform="matrix(27.451 0 0 -2.387 7115.2593 670.397)">
	<stop  offset="0.13" style="stop-color:#00A9ED"/>
	<stop  offset="1" style="stop-color:#65106B"/>
</linearGradient>
<path id="Path_16864" fill="url(#Path_16864_1_)" d="M4.773,19.096h27.451v2.387H4.773V19.096z"/>
<linearGradient id="Path_16865_1_" gradientUnits="userSpaceOnUse" x1="-258.5249" y1="272.8545" x2="-258.5249" y2="271.8545" gradientTransform="matrix(27.451 0 0 -2.387 7115.2593 679.9459)">
	<stop  offset="0.13" style="stop-color:#00A9ED"/>
	<stop  offset="1" style="stop-color:#65106B"/>
</linearGradient>
<path id="Path_16865" fill="url(#Path_16865_1_)" d="M4.773,28.644h27.451v2.387H4.773V28.644z"/>
<linearGradient id="Path_16866_1_" gradientUnits="userSpaceOnUse" x1="-243.7866" y1="272.8545" x2="-243.7866" y2="271.8555" gradientTransform="matrix(10.742 0 0 -2.387 2645.6123 675.1724)">
	<stop  offset="0.13" style="stop-color:#00A9ED"/>
	<stop  offset="1" style="stop-color:#65106B"/>
</linearGradient>
<path id="Path_16866" fill="url(#Path_16866_1_)" d="M21.483,23.87h10.742v2.387H21.483V23.87z"/>
<linearGradient id="Path_16867_1_" gradientUnits="userSpaceOnUse" x1="-249.8384" y1="272.8545" x2="-249.8384" y2="271.8545" gradientTransform="matrix(14.322 0 0 -2.387 3590.1282 675.1724)">
	<stop  offset="0.13" style="stop-color:#00A9ED"/>
	<stop  offset="1" style="stop-color:#65106B"/>
</linearGradient>
<path id="Path_16867" fill="url(#Path_16867_1_)" d="M4.773,23.87h14.322v2.387H4.773V23.87z"/>
<linearGradient id="Path_16868_1_" gradientUnits="userSpaceOnUse" x1="-258.5249" y1="272.8545" x2="-258.5249" y2="271.8545" gradientTransform="matrix(27.451 0 0 -2.387 7115.2593 684.7193)">
	<stop  offset="0.13" style="stop-color:#00A9ED"/>
	<stop  offset="1" style="stop-color:#65106B"/>
</linearGradient>
<path id="Path_16868" fill="url(#Path_16868_1_)" d="M4.773,33.418h27.451v2.387H4.773V33.418z"/>
<linearGradient id="Path_16869_1_" gradientUnits="userSpaceOnUse" x1="-258.5249" y1="272.8545" x2="-258.5249" y2="271.8545" gradientTransform="matrix(27.451 0 0 -2.387 7115.2593 689.4927)">
	<stop  offset="0.13" style="stop-color:#00A9ED"/>
	<stop  offset="1" style="stop-color:#65106B"/>
</linearGradient>
<path id="Path_16869" fill="url(#Path_16869_1_)" d="M4.773,38.191h27.451v2.388H4.773V38.191z"/>
<linearGradient id="Path_16870_1_" gradientUnits="userSpaceOnUse" x1="-255.9023" y1="379.9512" x2="-255.9023" y2="378.9512" gradientTransform="matrix(21.5 0 0 -7.161 5517.4219 2782.8806)">
	<stop  offset="0.13" style="stop-color:#00A9ED"/>
	<stop  offset="1" style="stop-color:#65106B"/>
</linearGradient>
<path id="Path_16870" fill="url(#Path_16870_1_)" d="M22.873,65.163c-0.573-1.312-1.357-3.101-3.182-3.101
	c-1.825,0-2.611,1.801-3.183,3.108c-0.2,0.456-0.727,1.666-0.983,1.666c-0.272,0-0.787-1.175-1.008-1.678
	c-0.573-1.308-1.358-3.101-3.181-3.101c-1.823,0-2.609,1.793-3.182,3.101c-0.22,0.5-0.731,1.671-1,1.671H4.773v2.387H7.16
	c1.825,0,2.609-1.793,3.182-3.1c0.22-0.5,0.731-1.672,1-1.672c0.269,0,0.776,1.17,0.994,1.668c0.575,1.312,1.364,3.106,3.195,3.106
	c1.831,0,2.6-1.79,3.17-3.1c0.219-0.5,0.73-1.677,1-1.677s0.776,1.172,1,1.672c0.573,1.311,1.357,3.1,3.182,3.1h2.39v-2.387h-2.4
	c-0.264,0-0.776-1.171-1-1.671V65.163z"/>
<linearGradient id="Path_16871_1_" gradientUnits="userSpaceOnUse" x1="-159.0347" y1="272.8545" x2="-159.0347" y2="271.8545" gradientTransform="matrix(2.387 0 0 -2.387 409.4526 718.1392)">
	<stop  offset="0.13" style="stop-color:#00A9ED"/>
	<stop  offset="1" style="stop-color:#65106B"/>
</linearGradient>
<path id="Path_16871" fill="url(#Path_16871_1_)" d="M28.644,66.837h2.387v2.388h-2.387V66.837z"/>
</svg>
