<?xml version="1.0" encoding="utf-8"?>
<!-- Generator: Adobe Illustrator 16.0.0, SVG Export Plug-In . SVG Version: 6.00 Build 0)  -->
<!DOCTYPE svg PUBLIC "-//W3C//DTD SVG 1.1//EN" "http://www.w3.org/Graphics/SVG/1.1/DTD/svg11.dtd">
<svg version="1.1" id="Layer_1" xmlns="http://www.w3.org/2000/svg" xmlns:xlink="http://www.w3.org/1999/xlink" x="0px" y="0px"
	 width="75.465px" height="73.686px" viewBox="0 0 75.465 73.686" enable-background="new 0 0 75.465 73.686" xml:space="preserve">
<g id="renewable-energy" transform="translate(-0.003 -6.065)">
	
		<linearGradient id="Path_17028_1_" gradientUnits="userSpaceOnUse" x1="-263.8154" y1="434.1693" x2="-263.8154" y2="433.1995" gradientTransform="matrix(75.4626 0 0 -73.6609 19946.793 31989.5977)">
		<stop  offset="0.13" style="stop-color:#00A9ED"/>
		<stop  offset="1" style="stop-color:#65106B"/>
	</linearGradient>
	<path id="Path_17028" fill="url(#Path_17028_1_)" d="M73.382,26.9l-3.018,0.705C61.281,10.063,39.697,3.207,22.155,12.29
		C7.36,19.951-0.185,36.815,3.961,52.951l-1.896,6.263c-0.233,0.783,0.212,1.606,0.995,1.84c0.246,0.073,0.507,0.081,0.757,0.023
		l3.017-0.705c2.293,4.474,5.513,8.408,9.445,11.542c0.463,0.37,1.138,0.294,1.507-0.168c0.369-0.463,0.294-1.138-0.168-1.507
		c-3.908-3.115-7.065-7.07-9.239-11.571c-0.219-0.452-0.721-0.69-1.208-0.577l-2.716,0.636l3.832-12.652l9.041,9.646l-2.394,0.561
		c-0.577,0.134-0.935,0.712-0.8,1.289c0.024,0.1,0.061,0.195,0.112,0.284c7.662,13.448,24.774,18.139,38.222,10.477
		c9.195-5.238,14.655-15.211,14.115-25.78l1.56,1.663c0.559,0.595,1.495,0.624,2.092,0.063c0.188-0.176,0.325-0.399,0.401-0.646
		l1.261-4.15c2.475,18.402-10.437,35.325-28.838,37.799c-7.407,0.996-14.935-0.505-21.394-4.264
		c-0.503-0.313-1.165-0.158-1.478,0.345c-0.313,0.503-0.158,1.164,0.345,1.478c0.017,0.011,0.034,0.02,0.052,0.03
		c17.089,9.934,38.997,4.134,48.93-12.956c4.725-8.125,6.062-17.783,3.725-26.886l1.898-6.262c0.235-0.782-0.209-1.607-0.992-1.842
		c-0.245-0.073-0.505-0.083-0.754-0.024H73.382z M68.914,41.903l-9.043-9.644l2.395-0.56c0.576-0.135,0.935-0.712,0.8-1.289
		c-0.024-0.1-0.062-0.196-0.112-0.285c-7.672-13.447-24.792-18.128-38.239-10.457c-6.622,3.779-11.419,10.091-13.287,17.483
		c-0.145,0.574,0.204,1.158,0.778,1.302c0.574,0.145,1.157-0.204,1.301-0.778l0,0C17,23.814,31.069,15.41,44.929,18.904
		c6.349,1.6,11.854,5.547,15.409,11.044l-2.08,0.485c-0.794,0.187-1.288,0.983-1.101,1.779c0.059,0.251,0.183,0.482,0.359,0.672
		l6.648,7.09c2.213,14.123-7.442,27.365-21.564,29.577c-10.103,1.583-20.19-2.931-25.743-11.519l2.08-0.484
		c0.795-0.188,1.289-0.983,1.102-1.779c-0.06-0.251-0.184-0.483-0.36-0.672l-6.649-7.09c-0.279-1.836-0.366-3.695-0.259-5.548
		c0.034-0.591-0.416-1.099-1.007-1.133c-0.59-0.035-1.098,0.416-1.133,1.006c-0.06,1.034-0.064,2.071-0.012,3.104l-1.562-1.665
		c-0.559-0.596-1.496-0.625-2.091-0.064c-0.188,0.176-0.326,0.399-0.402,0.646l-1.261,4.149C2.814,30.116,15.7,13.189,34.088,10.698
		c14.382-1.949,28.39,5.557,34.732,18.612c0.218,0.451,0.72,0.69,1.209,0.576l2.716-0.635L68.914,41.903L68.914,41.903z"/>
	
		<linearGradient id="Path_17029_1_" gradientUnits="userSpaceOnUse" x1="-258.9072" y1="430.4056" x2="-258.9072" y2="429.4349" gradientTransform="matrix(31.1402 0 0 -42.808 8101.0151 18448.0039)">
		<stop  offset="0.13" style="stop-color:#00A9ED"/>
		<stop  offset="1" style="stop-color:#65106B"/>
	</linearGradient>
	<path id="Path_17029" fill="url(#Path_17029_1_)" d="M38.601,64.751c8.438-0.099,15.198-7.019,15.099-15.457
		c-0.009-0.773-0.077-1.547-0.204-2.31c-0.096-0.585-0.647-0.98-1.23-0.884c-0.585,0.097-0.979,0.647-0.883,1.232
		c1.269,7.053-3.42,13.8-10.473,15.07c-7.053,1.27-13.8-3.419-15.07-10.472c-0.154-0.854-0.221-1.721-0.202-2.587
		c0-3.417,2.066-9.29,5.263-14.963c3.298-5.85,6.429-9.007,7.702-9.007c0.673,0,2.596,1.155,5.529,5.485
		c2.478,3.698,4.497,7.685,6.014,11.871c0.196,0.559,0.809,0.853,1.366,0.655c0.559-0.197,0.852-0.81,0.655-1.367
		c-1.576-4.359-3.678-8.511-6.256-12.363c-2.891-4.268-5.35-6.426-7.305-6.426c-3.501,0-7.856,7.062-9.569,10.099
		c-2.678,4.752-5.54,11.454-5.54,16.016C23.425,57.765,30.18,64.656,38.601,64.751z"/>
	
		<linearGradient id="Path_17030_1_" gradientUnits="userSpaceOnUse" x1="-223.4955" y1="374.597" x2="-223.4955" y2="373.6273" gradientTransform="matrix(5.9513 0 0 -5.9368 1360.8184 2266.3879)">
		<stop  offset="0.13" style="stop-color:#00A9ED"/>
		<stop  offset="1" style="stop-color:#65106B"/>
	</linearGradient>
	<path id="Path_17030" fill="url(#Path_17030_1_)" d="M31.686,42.646c-1.489-0.542-3.134,0.227-3.676,1.715
		c-0.542,1.489,0.226,3.134,1.714,3.676c0.018,0.007,0.036,0.014,0.054,0.02c0.728,0.27,1.535,0.226,2.23-0.12
		c1.423-0.704,2.005-2.43,1.3-3.853C32.976,43.41,32.393,42.895,31.686,42.646L31.686,42.646z M31.434,45.551l-0.012,0.037
		c-0.111,0.368-0.5,0.578-0.869,0.466c-0.013-0.004-0.025-0.008-0.038-0.012l-0.058-0.021c-0.348-0.13-0.533-0.509-0.421-0.862
		l0.017-0.055c0.114-0.364,0.501-0.568,0.866-0.453c0.01,0.003,0.02,0.005,0.029,0.009l0.071,0.027
		C31.366,44.817,31.549,45.198,31.434,45.551L31.434,45.551z"/>
	
		<linearGradient id="Path_17031_1_" gradientUnits="userSpaceOnUse" x1="-236.4238" y1="402.4007" x2="-236.4238" y2="401.43" gradientTransform="matrix(8.4422 0 0 -10.4063 2030.6133 4219.0415)">
		<stop  offset="0.13" style="stop-color:#00A9ED"/>
		<stop  offset="1" style="stop-color:#65106B"/>
	</linearGradient>
	<path id="Path_17031" fill="url(#Path_17031_1_)" d="M36.035,40.016c0.669-1.331,1.455-2.74,2.27-4.038
		c0.866-1.327,0.491-3.105-0.837-3.97c-1.328-0.865-3.105-0.49-3.97,0.838c-0.017,0.026-0.033,0.052-0.049,0.079
		c-0.894,1.417-1.767,2.98-2.54,4.514c-0.733,1.405-0.189,3.138,1.216,3.871c1.405,0.733,3.138,0.189,3.871-1.215
		C36.009,40.069,36.022,40.043,36.035,40.016L36.035,40.016z M34.119,39.053c-0.16,0.321-0.537,0.47-0.873,0.343l-0.037-0.014
		c-0.366-0.135-0.554-0.54-0.419-0.906c0.009-0.024,0.019-0.049,0.031-0.073c0.743-1.478,1.583-2.981,2.438-4.334
		c0.181-0.283,0.538-0.399,0.851-0.276l0.036,0.013c0.362,0.141,0.542,0.549,0.401,0.911c-0.016,0.041-0.036,0.08-0.059,0.118
		C35.637,36.194,34.823,37.649,34.119,39.053L34.119,39.053z"/>
</g>
</svg>
