<?xml version="1.0" encoding="utf-8"?>
<!-- Generator: Adobe Illustrator 16.0.0, SVG Export Plug-In . SVG Version: 6.00 Build 0)  -->
<!DOCTYPE svg PUBLIC "-//W3C//DTD SVG 1.1//EN" "http://www.w3.org/Graphics/SVG/1.1/DTD/svg11.dtd">
<svg version="1.1" id="grain" xmlns="http://www.w3.org/2000/svg" xmlns:xlink="http://www.w3.org/1999/xlink" x="0px" y="0px"
	 width="71.809px" height="71.398px" viewBox="0 0 71.809 71.398" enable-background="new 0 0 71.809 71.398" xml:space="preserve">
<g id="PradhanMantriFasalBimaYojna.4ba812fb" transform="translate(-0.002 0.031)">
	
		<linearGradient id="Path_17205_1_" gradientUnits="userSpaceOnUse" x1="-264.7468" y1="425.7588" x2="-264.7468" y2="424.7588" gradientTransform="matrix(60.0907 0 0 -60.0252 15938.8662 25567.5938)">
		<stop  offset="0.13" style="stop-color:#00A9ED"/>
		<stop  offset="1" style="stop-color:#65106B"/>
	</linearGradient>
	<path id="Path_17205" fill="url(#Path_17205_1_)" d="M51.854,23.067c3.561-0.552,6.354-3.346,6.905-6.906l1.32-4.776l-4.78,1.324
		c-3.557,0.554-6.346,3.344-6.9,6.899l-0.58,2.101l0,0L0.39,69.133c-0.525,0.512-0.536,1.352-0.024,1.876
		c0.512,0.525,1.352,0.536,1.876,0.024c0.008-0.009,0.016-0.017,0.024-0.024l47.315-47.313L51.854,23.067z M51.009,20.086
		c0.357-2.47,2.297-4.41,4.768-4.767l0.5-0.128l-0.127,0.5c-0.357,2.47-2.297,4.41-4.768,4.768l-0.5,0.127L51.009,20.086z"/>
	
		<linearGradient id="Path_17206_1_" gradientUnits="userSpaceOnUse" x1="-236.7678" y1="411.2412" x2="-236.7678" y2="410.2412" gradientTransform="matrix(8.0799 0 0 -18.386 1956.2556 7567.9648)">
		<stop  offset="0.13" style="stop-color:#00A9ED"/>
		<stop  offset="1" style="stop-color:#65106B"/>
	</linearGradient>
	<path id="Path_17206" fill="url(#Path_17206_1_)" d="M43.19,25.265l2.444-4.308c2.128-2.908,2.128-6.859,0-9.768L43.19,6.879
		l-2.443,4.311c-2.129,2.908-2.129,6.859,0,9.768L43.19,25.265z M42.93,12.701l0.262-0.44l0.26,0.44c1.494,2,1.494,4.743,0,6.742
		l-0.26,0.439l-0.26-0.439c-1.494-1.998-1.494-4.742,0-6.741L42.93,12.701z"/>
	
		<linearGradient id="Path_17207_1_" gradientUnits="userSpaceOnUse" x1="-254.8889" y1="384.5586" x2="-254.8889" y2="383.5576" gradientTransform="matrix(18.388 0 0 -8.0814 4742.2217 3131.9158)">
		<stop  offset="0.13" style="stop-color:#00A9ED"/>
		<stop  offset="1" style="stop-color:#65106B"/>
	</linearGradient>
	<path id="Path_17207" fill="url(#Path_17207_1_)" d="M50.44,25.766l-4.31,2.444l4.31,2.443c2.908,2.128,6.859,2.128,9.768,0
		l4.311-2.443l-4.311-2.444C57.301,23.636,53.348,23.636,50.44,25.766z M58.696,28.466c-2,1.493-4.742,1.493-6.741,0l-0.44-0.261
		l0.44-0.26c1.998-1.496,4.743-1.496,6.741,0l0.439,0.26L58.696,28.466z"/>
	
		<linearGradient id="Path_17208_1_" gradientUnits="userSpaceOnUse" x1="-236.7653" y1="411.2441" x2="-236.7653" y2="410.2441" gradientTransform="matrix(8.0794 0 0 -18.389 1947.6685 7577.6978)">
		<stop  offset="0.13" style="stop-color:#00A9ED"/>
		<stop  offset="1" style="stop-color:#65106B"/>
	</linearGradient>
	<path id="Path_17208" fill="url(#Path_17208_1_)" d="M34.741,33.717l2.444-4.313c2.129-2.907,2.129-6.857,0-9.765l-2.444-4.313
		l-2.444,4.313c-2.127,2.907-2.127,6.857,0,9.765L34.741,33.717z M34.481,21.151l0.26-0.439l0.261,0.439
		c1.494,1.998,1.494,4.742,0,6.74l-0.261,0.44l-0.26-0.44C32.987,25.894,32.987,23.149,34.481,21.151z"/>
	
		<linearGradient id="Path_17209_1_" gradientUnits="userSpaceOnUse" x1="-254.8893" y1="384.5479" x2="-254.8893" y2="383.5469" gradientTransform="matrix(18.388 0 0 -8.0797 4733.7842 3139.6531)">
		<stop  offset="0.13" style="stop-color:#00A9ED"/>
		<stop  offset="1" style="stop-color:#65106B"/>
	</linearGradient>
	<path id="Path_17209" fill="url(#Path_17209_1_)" d="M41.992,34.213l-4.31,2.443l4.31,2.444c2.908,2.129,6.86,2.129,9.769,0
		l4.309-2.444l-4.309-2.443C48.852,32.085,44.901,32.085,41.992,34.213z M50.246,36.912c-1.999,1.495-4.743,1.495-6.742,0
		l-0.44-0.26l0.44-0.26c1.999-1.493,4.743-1.493,6.742,0l0.44,0.26L50.246,36.912z"/>
	
		<linearGradient id="Path_17210_1_" gradientUnits="userSpaceOnUse" x1="-236.7678" y1="411.2422" x2="-236.7678" y2="410.2422" gradientTransform="matrix(8.0799 0 0 -18.387 1939.3564 7585.2983)">
		<stop  offset="0.13" style="stop-color:#00A9ED"/>
		<stop  offset="1" style="stop-color:#65106B"/>
	</linearGradient>
	<path id="Path_17210" fill="url(#Path_17210_1_)" d="M26.291,42.167l2.444-4.312c2.127-2.908,2.127-6.858,0-9.767l-2.444-4.31
		l-2.444,4.31c-2.128,2.907-2.128,6.858,0,9.767L26.291,42.167z M26.031,29.6l0.26-0.439l0.26,0.439
		c1.494,1.999,1.494,4.743,0,6.742l-0.26,0.44l-0.261-0.44C24.535,34.343,24.535,31.599,26.031,29.6L26.031,29.6z"/>
	
		<linearGradient id="Path_17211_1_" gradientUnits="userSpaceOnUse" x1="-254.8874" y1="384.5371" x2="-254.8874" y2="383.5371" gradientTransform="matrix(18.386 0 0 -8.0778 4724.7944 3147.2615)">
		<stop  offset="0.13" style="stop-color:#00A9ED"/>
		<stop  offset="1" style="stop-color:#65106B"/>
	</linearGradient>
	<path id="Path_17211" fill="url(#Path_17211_1_)" d="M33.543,42.663l-4.31,2.444l4.31,2.444c2.907,2.127,6.858,2.127,9.767,0
		l4.31-2.444l-4.31-2.444C40.4,40.538,36.451,40.538,33.543,42.663z M41.797,45.363c-1.999,1.495-4.743,1.495-6.742,0l-0.44-0.26
		l0.44-0.26c1.999-1.493,4.743-1.493,6.742,0l0.44,0.26L41.797,45.363z"/>
	
		<linearGradient id="Path_17212_1_" gradientUnits="userSpaceOnUse" x1="-236.7858" y1="411.2383" x2="-236.7858" y2="410.2383" gradientTransform="matrix(8.0844 0 0 -18.383 1932.1221 7592.0122)">
		<stop  offset="0.13" style="stop-color:#00A9ED"/>
		<stop  offset="1" style="stop-color:#65106B"/>
	</linearGradient>
	<path id="Path_17212" fill="url(#Path_17212_1_)" d="M17.842,50.617l2.445-4.308c2.128-2.908,2.128-6.859,0-9.767l-2.445-4.309
		l-2.448,4.3c-2.127,2.908-2.127,6.859,0,9.768L17.842,50.617z M17.582,38.055l0.26-0.439l0.26,0.439c1.494,2,1.494,4.744,0,6.744
		l-0.26,0.438l-0.26-0.438c-1.496-2.001-1.496-4.748,0-6.748V38.055z"/>
	
		<linearGradient id="Path_17213_1_" gradientUnits="userSpaceOnUse" x1="-254.8879" y1="384.5488" x2="-254.8879" y2="383.5488" gradientTransform="matrix(18.386 0 0 -8.0799 4716.3413 3156.6279)">
		<stop  offset="0.13" style="stop-color:#00A9ED"/>
		<stop  offset="1" style="stop-color:#65106B"/>
	</linearGradient>
	<path id="Path_17213" fill="url(#Path_17213_1_)" d="M25.092,51.112l-4.31,2.444l4.31,2.444c2.908,2.127,6.858,2.127,9.766,0
		l4.31-2.444l-4.31-2.444C31.951,48.984,27.999,48.984,25.092,51.112z M33.348,53.818c-2,1.493-4.743,1.493-6.742,0l-0.441-0.26
		l0.441-0.26c1.999-1.496,4.744-1.496,6.742,0l0.44,0.26L33.348,53.818z"/>
	
		<linearGradient id="Path_17214_1_" gradientUnits="userSpaceOnUse" x1="-236.7712" y1="411.2451" x2="-236.7712" y2="410.2451" gradientTransform="matrix(8.0809 0 0 -18.389 1922.7092 7603.0581)">
		<stop  offset="0.13" style="stop-color:#00A9ED"/>
		<stop  offset="1" style="stop-color:#65106B"/>
	</linearGradient>
	<path id="Path_17214" fill="url(#Path_17214_1_)" d="M9.392,59.066l2.444-4.311c2.128-2.907,2.128-6.859,0-9.767l-2.444-4.312
		l-2.444,4.311c-2.128,2.907-2.128,6.859,0,9.767L9.392,59.066z M9.13,46.503l0.262-0.441l0.261,0.441
		c1.495,1.998,1.495,4.741,0,6.739l-0.261,0.441L9.13,53.242C7.636,51.244,7.636,48.5,9.13,46.503L9.13,46.503z"/>
	
		<linearGradient id="Path_17215_1_" gradientUnits="userSpaceOnUse" x1="-254.8893" y1="384.5488" x2="-254.8893" y2="383.5479" gradientTransform="matrix(18.388 0 0 -8.0797 4708.4248 3165.0129)">
		<stop  offset="0.13" style="stop-color:#00A9ED"/>
		<stop  offset="1" style="stop-color:#65106B"/>
	</linearGradient>
	<path id="Path_17215" fill="url(#Path_17215_1_)" d="M16.644,59.563l-4.309,2.444l4.309,2.443c2.908,2.129,6.86,2.129,9.769,0
		l4.31-2.443l-4.31-2.444C23.504,57.436,19.553,57.436,16.644,59.563z M24.899,62.263c-1.998,1.496-4.744,1.496-6.742,0l-0.441-0.26
		l0.441-0.261c2-1.493,4.743-1.493,6.742,0l0.441,0.261L24.899,62.263z"/>
	
		<linearGradient id="Path_17216_1_" gradientUnits="userSpaceOnUse" x1="-243.319" y1="394.2041" x2="-243.319" y2="393.2041" gradientTransform="matrix(10.1335 0 0 -10.1346 2517.3596 3995.1221)">
		<stop  offset="0.13" style="stop-color:#00A9ED"/>
		<stop  offset="1" style="stop-color:#65106B"/>
	</linearGradient>
	<path id="Path_17216" fill="url(#Path_17216_1_)" d="M47.946,10.167c0.352-0.001,0.689-0.141,0.938-0.39l7.512-7.511
		c0.5-0.536,0.472-1.376-0.064-1.877c-0.51-0.477-1.303-0.477-1.813,0l-7.512,7.51c-0.518,0.52-0.518,1.36,0.002,1.878
		C47.258,10.025,47.595,10.165,47.946,10.167L47.946,10.167z"/>
	
		<linearGradient id="Path_17217_1_" gradientUnits="userSpaceOnUse" x1="-247.4636" y1="400.3047" x2="-247.4636" y2="399.3047" gradientTransform="matrix(12.0756 0 0 -12.0753 3046.5691 4833.7749)">
		<stop  offset="0.13" style="stop-color:#00A9ED"/>
		<stop  offset="1" style="stop-color:#65106B"/>
	</linearGradient>
	<path id="Path_17217" fill="url(#Path_17217_1_)" d="M52.639,11.654c0.52,0.519,1.359,0.519,1.879,0l9.387-9.388
		c0.537-0.501,0.564-1.341,0.064-1.877s-1.342-0.564-1.877-0.063c-0.021,0.021-0.043,0.041-0.064,0.063l-9.387,9.388
		c-0.52,0.518-0.52,1.357-0.002,1.875c0,0.001,0,0.002,0.002,0.002H52.639z"/>
	
		<linearGradient id="Path_17218_1_" gradientUnits="userSpaceOnUse" x1="-247.4626" y1="400.3037" x2="-247.4626" y2="399.3037" gradientTransform="matrix(12.0749 0 0 -12.0749 3053.8994 4841.1201)">
		<stop  offset="0.13" style="stop-color:#00A9ED"/>
		<stop  offset="1" style="stop-color:#65106B"/>
	</linearGradient>
	<path id="Path_17218" fill="url(#Path_17218_1_)" d="M69.545,7.9l-9.388,9.389c-0.519,0.519-0.519,1.359,0,1.878
		c0.518,0.518,1.358,0.518,1.877,0l9.388-9.389c0.536-0.501,0.564-1.341,0.063-1.877s-1.342-0.564-1.877-0.063
		C69.587,7.858,69.565,7.88,69.545,7.9L69.545,7.9z"/>
	
		<linearGradient id="Path_17219_1_" gradientUnits="userSpaceOnUse" x1="-245.5002" y1="397.416" x2="-245.5002" y2="396.416" gradientTransform="matrix(11.0704 0 0 -11.0715 2784.0313 4400.041)">
		<stop  offset="0.13" style="stop-color:#00A9ED"/>
		<stop  offset="1" style="stop-color:#65106B"/>
	</linearGradient>
	<path id="Path_17219" fill="url(#Path_17219_1_)" d="M61.089,10.717c0.518,0.519,1.358,0.519,1.877,0l0,0l8.449-8.45
		c0.5-0.536,0.471-1.375-0.064-1.876c-0.51-0.476-1.299-0.476-1.81-0.001l-8.45,8.45c-0.518,0.517-0.52,1.356-0.002,1.875
		c0.001,0.001,0.002,0.001,0.002,0.002H61.089z"/>
	
		<linearGradient id="Path_17220_1_" gradientUnits="userSpaceOnUse" x1="-243.403" y1="394.3203" x2="-243.403" y2="393.3203" gradientTransform="matrix(10.167 0 0 -10.166 2541.3674 4023.7109)">
		<stop  offset="0.13" style="stop-color:#00A9ED"/>
		<stop  offset="1" style="stop-color:#65106B"/>
	</linearGradient>
	<path id="Path_17220" fill="url(#Path_17220_1_)" d="M69.536,15.409l-7.512,7.511c-0.535,0.5-0.563,1.341-0.063,1.877
		c0.5,0.535,1.341,0.563,1.877,0.063c0.021-0.021,0.043-0.042,0.063-0.063l7.512-7.511c0.5-0.535,0.473-1.376-0.063-1.877
		C70.839,14.933,70.046,14.933,69.536,15.409z"/>
</g>
</svg>
