<svg xmlns="http://www.w3.org/2000/svg" xmlns:xlink="http://www.w3.org/1999/xlink" width="73" height="73" viewBox="0 0 73 73">
  <defs>
    <linearGradient id="linear-gradient" x1="0.5" x2="0.5" y2="1" gradientUnits="objectBoundingBox">
      <stop offset="0.13" stop-color="#00a9ed"/>
      <stop offset="1" stop-color="#65106b"/>
    </linearGradient>
  </defs>
  <path id="disabled_1_" data-name="disabled (1)" d="M73.038,65.047A4.663,4.663,0,0,0,74,62.226a4.714,4.714,0,0,0-4.71-4.71h-3.88L60.919,44.939a5.9,5.9,0,0,0-5.544-3.907h-.213V39.855a3.537,3.537,0,0,0-3.532-3.532H50.314l-1.057-8.461a11.855,11.855,0,0,0-6.327-9.048,9.416,9.416,0,1,0-9.581-.635A12.992,12.992,0,0,0,26.9,23.012V19.839a4.714,4.714,0,0,0-4.71-4.71H5.71a4.71,4.71,0,1,0,0,9.419H17.484V36.943A18.827,18.827,0,1,0,40.869,57.516h4.64l-.842,5.162A5.88,5.88,0,1,0,51.6,71.645H71.645A2.357,2.357,0,0,0,74,69.29V66.935A2.345,2.345,0,0,0,73.038,65.047ZM58.7,45.731l5.05,14.14h5.54a2.355,2.355,0,1,1,0,4.71H61.183a2.357,2.357,0,0,1-2.217-1.564L54.195,49.659A2.361,2.361,0,0,0,51.976,48.1H39.646a18.476,18.476,0,0,0-1.155-2.355H51.629a3.527,3.527,0,0,0,3.316-2.355h.43A3.538,3.538,0,0,1,58.7,45.731Zm-5.344,8.585,3.391,9.494a4.634,4.634,0,0,0,.366.771h-5.4Zm-.55-14.461V42.21a1.179,1.179,0,0,1-1.177,1.177H36.892a19.09,19.09,0,0,0-2.925-2.9v-1.81H51.629a1.179,1.179,0,0,1,1.177,1.177Zm-28.231,3.8a4.689,4.689,0,0,0,3.26,4.2l-3.265,3.265a4.709,4.709,0,0,0-1.2-.5V43.466a12.149,12.149,0,0,1,1.2.191ZM22.194,57.516a2.355,2.355,0,1,1,2.355-2.355A2.357,2.357,0,0,1,22.194,57.516Zm-1.177-6.9a4.609,4.609,0,0,0-1.2.5L14.748,46.05a11.718,11.718,0,0,1,6.269-2.6Zm-7.933-2.9,5.069,5.069a4.709,4.709,0,0,0-.5,1.2H10.479a11.709,11.709,0,0,1,2.6-6.269Zm4.568,8.623a4.609,4.609,0,0,0,.5,1.2l-5.069,5.069a11.709,11.709,0,0,1-2.6-6.269ZM19.816,59.2a4.709,4.709,0,0,0,1.2.5v7.172a11.718,11.718,0,0,1-6.269-2.6Zm3.555.5a4.609,4.609,0,0,0,1.2-.5l5.069,5.069a11.718,11.718,0,0,1-6.269,2.6Zm7.933,2.9-5.069-5.069a4.709,4.709,0,0,0,.5-1.2h7.172a11.709,11.709,0,0,1-2.6,6.269Zm-4.568-8.623a4.609,4.609,0,0,0-.5-1.2l5.071-5.071a11.679,11.679,0,0,1,2.6,6.271Zm4.877-43.565a7.065,7.065,0,1,1,7.065,7.065,7.072,7.072,0,0,1-7.065-7.065ZM37.5,19.839a9.507,9.507,0,0,1,9.419,8.315l1.021,8.169H33.968V30.234a6.819,6.819,0,0,1,2.01-4.853l-1.665-1.665a9.153,9.153,0,0,0-2.7,6.518V43.387a2.355,2.355,0,1,1-4.71,0V30.435A10.61,10.61,0,0,1,37.5,19.839ZM5.71,22.194a2.355,2.355,0,1,1,0-4.71H22.194a2.357,2.357,0,0,1,2.355,2.355V36.486a18.959,18.959,0,0,0-2.355-.164,18.725,18.725,0,0,0-2.355.164V22.194ZM22.194,71.645a16.484,16.484,0,1,1,0-32.968,16.739,16.739,0,0,1,2.355.187v2.371a14.3,14.3,0,0,0-2.355-.2,14.151,14.151,0,1,0,10.865,5.111,4.654,4.654,0,0,0,.884-2.517,16.315,16.315,0,0,1,4.734,11.535A16.5,16.5,0,0,1,22.194,71.645ZM40.428,50.452h11.2v1.177A3.537,3.537,0,0,1,48.1,55.161H41.032A19.013,19.013,0,0,0,40.428,50.452ZM48.1,57.516a5.831,5.831,0,0,0,2.45-.551L49.6,62.9a5.822,5.822,0,0,0-2.473-.653l.772-4.73ZM46.919,71.645a3.532,3.532,0,1,1,3.532-3.532A3.537,3.537,0,0,1,46.919,71.645ZM71.645,69.29H52.688a5.888,5.888,0,0,0,0-2.355H71.645Z" transform="translate(-1 -1)" fill="url(#linear-gradient)"/>
</svg>
