<svg xmlns="http://www.w3.org/2000/svg" xmlns:xlink="http://www.w3.org/1999/xlink" width="73.001" height="73" viewBox="0 0 73.001 73">
  <defs>
    <linearGradient id="linear-gradient" x1="0.5" x2="0.5" y2="1" gradientUnits="objectBoundingBox">
      <stop offset="0.13" stop-color="#00a9ed"/>
      <stop offset="1" stop-color="#65106b"/>
    </linearGradient>
  </defs>
  <path id="Union_54" data-name="Union 54" d="M-221,20191v-2.432h.709l5.731-5.727a1.211,1.211,0,0,1,1.718,0l5.726,5.727h1.931v-54.752h2.432v4.869h15.82v2.432h-15.82v3.648h7.3v-1.215h2.432v1.215h7.3v-2.432h2.432v2.432h7.3v-4.863h2.432v48.666h4.865v-57.186h-2.432a1.212,1.212,0,0,1-1.216-1.215v-1.217H-213.7v22.109a3.618,3.618,0,0,1,2.321,2.523,3.628,3.628,0,0,1-.816,3.328l3.121,4.16-.015.01a1.193,1.193,0,0,1,.258.721v4.865a1.2,1.2,0,0,1-.36.861l-2.432,2.432a1.211,1.211,0,0,1-.856.355h-4.87a1.214,1.214,0,0,1-.861-.355l-2.432-2.432a1.216,1.216,0,0,1-.355-.861v-4.865a1.193,1.193,0,0,1,.258-.721l-.015-.01,3.121-4.16a3.628,3.628,0,0,1-.932-2.412h2.432a1.22,1.22,0,0,0,1.216,1.217,1.216,1.216,0,0,0,1.216-1.217,1.212,1.212,0,0,0-1.216-1.215,1.221,1.221,0,0,1-1.216-1.217v-23.117h-3.648a1.217,1.217,0,0,1-1.216-1.221v-4.865a1.218,1.218,0,0,1,1.216-1.217h47.45v-2.432a1.214,1.214,0,0,1,1.216-1.217h12.167a1.214,1.214,0,0,1,1.216,1.217v2.432h8.518a1.221,1.221,0,0,1,1.216,1.217v4.865a1.22,1.22,0,0,1-1.216,1.221h-8.518v1.217a1.212,1.212,0,0,1-1.216,1.215h-2.432v57.186h2.164a3.616,3.616,0,0,1-.8-3.467,3.62,3.62,0,0,1,2.554-2.479,3.647,3.647,0,0,1,1.165-4.271,3.657,3.657,0,0,1,4.434,0,3.647,3.647,0,0,1,1.165,4.271,3.62,3.62,0,0,1,2.554,2.479,3.616,3.616,0,0,1-.8,3.467H-148V20191Zm54.747-2.432h2.194l-2.194-3.289Zm-36.5,0h26.77V20161.8H-184.5a1.224,1.224,0,0,1-.851-.355l-4.515-4.463h-4.368a1.214,1.214,0,0,1-1.216-1.217v-4.105h-7.3Zm-14.092,0h6.288l-3.147-3.146Zm63.979-2.437a1.217,1.217,0,0,0,1.216,1.221,1.22,1.22,0,0,0,1.216-1.221,1.22,1.22,0,0,0-1.216-1.217A1.216,1.216,0,0,0-152.864,20186.131Zm-4.87,0a1.22,1.22,0,0,0,1.216,1.221,1.217,1.217,0,0,0,1.216-1.221,1.216,1.216,0,0,0-1.216-1.217A1.22,1.22,0,0,0-157.734,20186.131Zm-8.275-4.865,2.194,3.289v-6.572Zm10.707,0a1.217,1.217,0,0,0,1.216,1.217,1.218,1.218,0,0,0,1.221-1.217,1.222,1.222,0,0,0-1.221-1.217A1.221,1.221,0,0,0-155.3,20181.266Zm-10.95-4.014,2.194-3.283-2.194-3.289Zm.243-10.584,2.194,3.277v-6.562Zm-52.558-.5,1.723,1.717h3.856l1.723-1.717v-3.146h-7.3Zm52.315-3.512,2.194-3.289-2.194-3.283Zm-51.1-2.068h4.87l-1.829-2.437h-1.216Zm34.067-1.221h7.3V20147.2h-7.3Zm-9.734-4.818h3.648a1.209,1.209,0,0,1,.856.354l2.8,2.762V20147.2h-7.3Zm27.009-2.479,2.194,3.283v-6.572Zm-36.743-2.838h7.3v-2.031h-7.3Zm36.5-1.176,2.194-3.289-2.194-3.283Zm.243-10.59,2.194,3.289v-6.572Zm-.243-4.014,1.378-2.068h-1.378Zm-3.648-4.5h9.734v-8.518H-162.6v6.086a1.219,1.219,0,0,1-1.216,1.215H-169.9Zm16.18-2.432h3.289v-2.2Zm-23.117,0h4.5v-2.437h-.851Zm-14.6,0h6.572l-3.284-2.2Zm-14.6,0h6.572l-3.289-2.2Zm-12.531,0h4.5l-3.648-2.437h-.851Zm60.833-.244,3.284-2.193h-3.284Zm-23.117,0,3.289-2.193h-6.572Zm-14.6,0,3.284-2.193h-6.567Zm-14.6,0,3.284-2.193h-6.572Zm40.148-.973h4.87v-4.869h-4.87Zm-10.95,60.828v-2.434h2.432v2.434Zm-4.865,0v-2.434h2.432v2.434Zm-4.87,0v-2.434h2.437v2.434Zm-4.865,0v-2.434h2.432v2.434Zm-4.865,0v-2.434h2.432v2.434Zm19.463-4.865v-2.432h2.432v2.432Zm-4.865,0v-2.432h2.432v2.432Zm-4.87,0v-2.432h2.437v2.432Zm-4.865,0v-2.432h2.432v2.432Zm-4.865,0v-2.432h2.432v2.432Zm19.463-4.865v-2.432h2.432v2.432Zm-4.865,0v-2.432h2.432v2.432Zm-4.87,0v-2.432h2.437v2.432Zm-4.865,0v-2.432h2.432v2.432Zm-4.865,0v-2.432h2.432v2.432Zm19.463-4.869v-2.432h2.432v2.432Zm-4.865,0v-2.432h2.432v2.432Zm-4.87,0v-2.432h2.437v2.432Zm-4.865,0v-2.432h2.432v2.432Zm-4.865,0v-2.432h2.432v2.432Zm19.463-4.863v-2.434h2.432v2.434Zm-4.865,0v-2.434h2.432v2.434Zm-4.87,0v-2.434h2.437v2.434Zm-4.865,0v-2.434h2.432v2.434Zm-4.865,0v-2.434h2.432v2.434Zm9.729-4.865v-2.437h2.437v2.438Zm-4.865,0v-2.437h2.432v2.438Zm-4.865,0v-2.437h2.432v2.438Z" transform="translate(220.999 -20118)" fill="url(#linear-gradient)"/>
</svg>
