<svg xmlns="http://www.w3.org/2000/svg" xmlns:xlink="http://www.w3.org/1999/xlink" width="70.644" height="73" viewBox="0 0 70.644 73">
  <defs>
    <linearGradient id="linear-gradient" x1="0.5" x2="0.5" y2="1" gradientUnits="objectBoundingBox">
      <stop offset="0.13" stop-color="#00a9ed"/>
      <stop offset="1" stop-color="#65106b"/>
    </linearGradient>
  </defs>
  <path id="Union_53" data-name="Union 53" d="M-159.776,20191a1.175,1.175,0,0,1-1.049-.648l-2.032-4.059h-2.8v-2.357h10.6a2.363,2.363,0,0,0,2.356-2.355v-58.871a2.361,2.361,0,0,0-2.356-2.352h-15.308v24.723h-2.356v-24.723h-15.3a2.355,2.355,0,0,0-2.356,2.352v1.18h-2.356v-1.18a4.717,4.717,0,0,1,4.713-4.709h32.968a4.709,4.709,0,0,1,4.708,4.709v58.871a4.716,4.716,0,0,1-4.708,4.713v3.531a1.178,1.178,0,0,1-1.181,1.176Zm.73-2.355h1.627v-2.352h-2.8ZM-176.26,20191a1.17,1.17,0,0,1-1.049-.654l-2.032-4.059h-22.093l-2.027,4.059a1.183,1.183,0,0,1-1.054.654h-3.532a1.178,1.178,0,0,1-1.181-1.176v-3.537a4.711,4.711,0,0,1-4.708-4.707v-4.793a8.245,8.245,0,0,1-7.059-8.479,8.271,8.271,0,0,1,7.915-7.914,8.216,8.216,0,0,1,6.035,2.295,8.234,8.234,0,0,1,2.529,5.939v4.068a53.95,53.95,0,0,1,14.128-1.713,53.919,53.919,0,0,1,14.128,1.713v-3.953a8.34,8.34,0,0,1,8.1-8.355,8.222,8.222,0,0,1,5.919,2.361,8.246,8.246,0,0,1,2.463,5.879,8.257,8.257,0,0,1-7.064,8.158v4.793a4.708,4.708,0,0,1-4.708,4.707v3.537a1.178,1.178,0,0,1-1.181,1.176Zm.73-2.355h1.627v-2.357h-2.8Zm-31.341,0h1.627l1.181-2.357h-2.807Zm-6.116-25.9a5.918,5.918,0,0,0-5.655,5.656,5.889,5.889,0,0,0,1.642,4.307,5.876,5.876,0,0,0,4.241,1.809,1.178,1.178,0,0,1,1.181,1.176v5.889a2.356,2.356,0,0,0,2.351,2.355h37.68a2.363,2.363,0,0,0,2.356-2.355v-5.889a1.177,1.177,0,0,1,1.176-1.176,5.889,5.889,0,0,0,5.837-5.937,5.89,5.89,0,0,0-5.939-5.838,5.974,5.974,0,0,0-5.787,6v4.682a19.6,19.6,0,0,1,2.934,1.242l-1.155,2.053c-.061-.035-6.223-3.385-18.262-3.385s-18.2,3.35-18.262,3.385l-1.155-2.053a19.6,19.6,0,0,1,2.934-1.242v-4.8a5.9,5.9,0,0,0-1.8-4.242,5.907,5.907,0,0,0-4.089-1.646C-212.838,20162.74-212.913,20162.742-212.988,20162.744Zm41.44,5.889a3.536,3.536,0,0,1,3.532-3.537,3.54,3.54,0,0,1,3.532,3.537,3.531,3.531,0,0,1-3.532,3.527A3.531,3.531,0,0,1-171.548,20168.633Zm2.356,0a1.177,1.177,0,0,0,1.176,1.176,1.177,1.177,0,0,0,1.176-1.176,1.176,1.176,0,0,0-1.176-1.18A1.176,1.176,0,0,0-169.191,20168.633Zm-47.1,0a3.536,3.536,0,0,1,3.532-3.537,3.54,3.54,0,0,1,3.532,3.537,3.531,3.531,0,0,1-3.532,3.527A3.531,3.531,0,0,1-216.292,20168.633Zm2.356,0a1.177,1.177,0,0,0,1.176,1.176,1.178,1.178,0,0,0,1.181-1.176,1.177,1.177,0,0,0-1.181-1.18A1.176,1.176,0,0,0-213.935,20168.633Zm28.26,0v-2.357h2.351v2.357Zm-11.776,0v-2.357h2.356v2.357Zm17.659-5.889v-2.352h2.356v2.352Zm-11.771,0v-2.352h2.351v2.352Zm-11.776,0v-2.352h2.356v2.352Zm34.148-4.707v-5.889a2.361,2.361,0,0,0-2.356-2.352h-37.68a2.353,2.353,0,0,0-2.351,2.352v5.889h-2.356v-5.889a4.711,4.711,0,0,1,4.708-4.707h37.68a4.708,4.708,0,0,1,4.708,4.707v5.889Zm-16.484-1.176v-2.357h2.351v2.357Zm-11.776,0v-2.357h2.356v2.357Zm-4.708-11.777v-2.355h-10.6a1.171,1.171,0,0,1-.867-.381,1.159,1.159,0,0,1-.3-.9l1.176-14.127a1.18,1.18,0,0,1,1.176-1.08h9.42v-2.352h2.351v2.352h9.42a1.18,1.18,0,0,1,1.176,1.08l1.176,14.127a1.182,1.182,0,0,1-.309.9,1.171,1.171,0,0,1-.867.381h-10.6v2.355Zm-9.319-4.707h20.989l-.983-11.777H-210.5Z" transform="translate(221 -20118)" fill="url(#linear-gradient)"/>
</svg>
