<svg xmlns="http://www.w3.org/2000/svg" xmlns:xlink="http://www.w3.org/1999/xlink" width="72.997" height="68.291" viewBox="0 0 72.997 68.291">
  <defs>
    <linearGradient id="linear-gradient" x1="0.5" x2="0.5" y2="1" gradientUnits="objectBoundingBox">
      <stop offset="0.13" stop-color="#00a9ed"/>
      <stop offset="1" stop-color="#65106b"/>
    </linearGradient>
  </defs>
  <path id="Union_55" data-name="Union 55" d="M-215.111,20186.293a5.893,5.893,0,0,1-5.887-5.887v-2.355a5.887,5.887,0,0,1,5.887-5.887h37.677v-9.424a1.177,1.177,0,0,1,1.175-1.176h5.887v-9.418a1.178,1.178,0,0,1,1.18-1.18H-158.6a1.178,1.178,0,0,1,1.18,1.18v9.418h2.356a1.177,1.177,0,0,1,1.175,1.176v9.424a5.89,5.89,0,0,1,5.887,5.887v2.355a5.9,5.9,0,0,1-5.887,5.887Zm-3.536-8.242v2.355a3.536,3.536,0,0,0,3.536,3.531h61.224a3.532,3.532,0,0,0,3.531-3.531v-2.355a3.53,3.53,0,0,0-3.531-3.531h-61.224A3.535,3.535,0,0,0-218.648,20178.051Zm54.162-5.887h8.243v-8.244h-8.243Zm-10.593,0h8.243v-8.244h-8.243Zm7.062-10.6h8.243v-8.242h-8.243Zm3.531,17.66a3.534,3.534,0,0,1,3.536-3.529,3.53,3.53,0,0,1,3.531,3.529,3.53,3.53,0,0,1-3.531,3.531A3.535,3.535,0,0,1-164.486,20179.225Zm2.356,0a1.178,1.178,0,0,0,1.18,1.176,1.177,1.177,0,0,0,1.175-1.176,1.175,1.175,0,0,0-1.175-1.174A1.176,1.176,0,0,0-162.13,20179.225Zm-14.129,0a3.534,3.534,0,0,1,3.536-3.529,3.53,3.53,0,0,1,3.531,3.529,3.53,3.53,0,0,1-3.531,3.531A3.535,3.535,0,0,1-176.26,20179.225Zm2.356,0a1.178,1.178,0,0,0,1.18,1.176,1.177,1.177,0,0,0,1.175-1.176,1.175,1.175,0,0,0-1.175-1.174A1.176,1.176,0,0,0-173.9,20179.225Zm-14.129,0a3.53,3.53,0,0,1,3.531-3.529,3.534,3.534,0,0,1,3.536,3.529,3.535,3.535,0,0,1-3.536,3.531A3.53,3.53,0,0,1-188.033,20179.225Zm2.356,0a1.177,1.177,0,0,0,1.175,1.176,1.178,1.178,0,0,0,1.18-1.176,1.176,1.176,0,0,0-1.18-1.174A1.175,1.175,0,0,0-185.677,20179.225Zm-14.129,0a3.53,3.53,0,0,1,3.531-3.529,3.534,3.534,0,0,1,3.536,3.529,3.535,3.535,0,0,1-3.536,3.531A3.53,3.53,0,0,1-199.807,20179.225Zm2.356,0a1.177,1.177,0,0,0,1.175,1.176,1.178,1.178,0,0,0,1.18-1.176,1.176,1.176,0,0,0-1.18-1.174A1.175,1.175,0,0,0-197.451,20179.225Zm-14.129,0a3.53,3.53,0,0,1,3.531-3.529,3.53,3.53,0,0,1,3.531,3.529,3.53,3.53,0,0,1-3.531,3.531A3.53,3.53,0,0,1-211.58,20179.225Zm2.356,0a1.177,1.177,0,0,0,1.175,1.176,1.178,1.178,0,0,0,1.18-1.176,1.176,1.176,0,0,0-1.18-1.174A1.175,1.175,0,0,0-209.225,20179.225Zm9.418-11.773a1.176,1.176,0,0,1-1.175-1.18v-6.529a17.588,17.588,0,0,1-3.992-1.658l-4.62,4.627a1.188,1.188,0,0,1-1.667,0l-5-5a1.2,1.2,0,0,1-.344-.836,1.173,1.173,0,0,1,.344-.83l4.625-4.621a17.658,17.658,0,0,1-1.662-3.992h-6.53a1.177,1.177,0,0,1-1.175-1.18v-7.062a1.177,1.177,0,0,1,1.175-1.176h6.53a17.548,17.548,0,0,1,1.662-3.992l-4.625-4.619a1.17,1.17,0,0,1-.344-.832,1.176,1.176,0,0,1,.344-.836l5-4.994a1.214,1.214,0,0,1,1.667,0l4.62,4.625a17.779,17.779,0,0,1,3.992-1.662v-6.529a1.177,1.177,0,0,1,1.175-1.176h7.067a1.177,1.177,0,0,1,1.175,1.176v6.529a17.741,17.741,0,0,1,3.987,1.662l4.625-4.625a1.178,1.178,0,0,1,1.662,0l5,4.994a1.176,1.176,0,0,1,.344.836,1.17,1.17,0,0,1-.344.832l-4.62,4.619a17.533,17.533,0,0,1,1.657,3.992h6.535a1.177,1.177,0,0,1,1.175,1.176v7.063a1.177,1.177,0,0,1-1.175,1.18h-6.535a17.643,17.643,0,0,1-1.657,3.992l4.625,4.621a1.173,1.173,0,0,1,.344.83,1.2,1.2,0,0,1-.344.836l-5,5a1.212,1.212,0,0,1-1.662,0l-4.625-4.627a17.55,17.55,0,0,1-3.987,1.658v6.529a1.176,1.176,0,0,1-1.175,1.18Zm-4.711-11.844a15.091,15.091,0,0,0,4.965,2.063,1.18,1.18,0,0,1,.922,1.148v6.277h4.711v-6.277a1.179,1.179,0,0,1,.927-1.148,15.065,15.065,0,0,0,4.96-2.062,1.175,1.175,0,0,1,1.469.162l4.443,4.443,3.333-3.334-4.443-4.443a1.173,1.173,0,0,1-.162-1.469,15.1,15.1,0,0,0,2.062-4.959,1.176,1.176,0,0,1,1.15-.928h6.277v-4.707h-6.277a1.176,1.176,0,0,1-1.15-.926,15.094,15.094,0,0,0-2.062-4.961,1.182,1.182,0,0,1,.162-1.475l4.438-4.437-3.328-3.334-4.443,4.443a1.185,1.185,0,0,1-1.469.162,15.288,15.288,0,0,0-4.96-2.066,1.177,1.177,0,0,1-.927-1.15v-6.271h-4.711v6.271a1.178,1.178,0,0,1-.922,1.15,15.314,15.314,0,0,0-4.965,2.066,1.186,1.186,0,0,1-1.469-.162l-4.443-4.443-3.328,3.334,4.443,4.443a1.179,1.179,0,0,1,.157,1.469,15.2,15.2,0,0,0-2.062,4.961,1.176,1.176,0,0,1-1.15.926h-6.277v4.707h6.277a1.176,1.176,0,0,1,1.15.928,15.245,15.245,0,0,0,2.062,4.959,1.179,1.179,0,0,1-.157,1.469l-4.443,4.443,3.328,3.334,4.443-4.443a1.177,1.177,0,0,1,.836-.348A1.17,1.17,0,0,1-204.518,20155.607Zm-4.706-12.883a12.946,12.946,0,0,1,12.949-12.949,12.951,12.951,0,0,1,12.954,12.949,12.955,12.955,0,0,1-12.954,12.953A12.966,12.966,0,0,1-209.225,20142.725Zm2.356,0a10.593,10.593,0,0,0,10.593,10.6,10.594,10.594,0,0,0,10.6-10.6,10.593,10.593,0,0,0-10.6-10.594A10.6,10.6,0,0,0-206.869,20142.725Zm1.175,0a9.416,9.416,0,0,1,9.418-9.418,9.42,9.42,0,0,1,9.423,9.418,9.42,9.42,0,0,1-9.423,9.418A9.422,9.422,0,0,1-205.693,20142.725Zm2.356,0a7.065,7.065,0,0,0,7.062,7.066,7.07,7.07,0,0,0,7.067-7.066,7.066,7.066,0,0,0-7.067-7.062A7.072,7.072,0,0,0-203.338,20142.725Z" transform="translate(220.998 -20118.002)" fill="url(#linear-gradient)"/>
</svg>
