<?xml version="1.0" encoding="utf-8"?>
<!-- Generator: Adobe Illustrator 16.0.0, SVG Export Plug-In . SVG Version: 6.00 Build 0)  -->
<!DOCTYPE svg PUBLIC "-//W3C//DTD SVG 1.1//EN" "http://www.w3.org/Graphics/SVG/1.1/DTD/svg11.dtd">
<svg version="1.1" id="Layer_1" xmlns="http://www.w3.org/2000/svg" xmlns:xlink="http://www.w3.org/1999/xlink" x="0px" y="0px"
	 width="64.48px" height="69px" viewBox="0 0 64.48 69" enable-background="new 0 0 64.48 69" xml:space="preserve">
<g id="rupee" transform="translate(-61.63 -46.468)">
	
		<linearGradient id="Path_16893_1_" gradientUnits="userSpaceOnUse" x1="-207.0206" y1="471.8479" x2="-207.0206" y2="470.8791" gradientTransform="matrix(64.472 0 0 -69.0573 13440.9307 32633.1113)">
		<stop  offset="0.13" style="stop-color:#00A9ED"/>
		<stop  offset="1" style="stop-color:#65106B"/>
	</linearGradient>
	<path id="Path_16893" fill="url(#Path_16893_1_)" d="M93.891,48.61h-0.06c-17.17-0.033-31.126,13.837-31.201,31.007
		c0.02,0.535,0.468,0.953,1.003,0.933c0.416-0.014,0.774-0.292,0.894-0.689c0.376-1.497,1.034-2.91,1.938-4.161
		c1.267-1.21,2.951-1.887,4.704-1.89h0.032c1.738-0.006,3.41,0.67,4.657,1.883c1.22,1.25,1.906,2.926,1.911,4.673
		c0.054,0.533,0.529,0.921,1.061,0.868c0.459-0.046,0.821-0.409,0.868-0.868c-0.025-1.755,0.667-3.445,1.917-4.678
		c1.259-1.237,2.963-1.914,4.728-1.874c1.737-0.004,3.406,0.672,4.651,1.883c1.221,1.25,1.906,2.927,1.912,4.674v1.791
		c-5.796,0.417-10.156,5.453-9.739,11.249c0.375,5.215,4.524,9.363,9.739,9.739v4.375c0.042,3.354-2.643,6.108-5.998,6.151
		c-3.354,0.042-6.108-2.644-6.15-5.998c0-0.051,0-0.102,0-0.153v-3.304c-0.053-0.533-0.528-0.921-1.061-0.867
		c-0.459,0.045-0.821,0.409-0.868,0.867v3.304c0.003,4.42,3.587,8.001,8.007,7.999c4.417-0.002,7.997-3.582,7.999-7.999v-4.396
		c5.785-0.555,10.025-5.692,9.471-11.477c-0.48-5.019-4.452-8.991-9.471-9.472v-1.81c-0.026-1.75,0.663-3.435,1.906-4.666
		c1.249-1.237,2.944-1.918,4.703-1.889h0.031c1.739-0.005,3.41,0.671,4.656,1.883c1.22,1.25,1.906,2.926,1.911,4.673
		c0.054,0.533,0.528,0.921,1.062,0.868c0.459-0.046,0.821-0.409,0.867-0.868c-0.026-1.755,0.666-3.446,1.917-4.679
		c1.257-1.238,2.961-1.916,4.724-1.878c1.737-0.004,3.407,0.672,4.651,1.883c0.908,1.252,1.568,2.667,1.944,4.167
		c0.153,0.512,0.694,0.803,1.207,0.649c0.397-0.12,0.674-0.479,0.689-0.893v-0.039c-0.073-17.173-14.048-31.037-31.221-30.972
		H93.891z M102.426,92.656c0.035,4.793-3.821,8.707-8.614,8.742c-4.794,0.035-8.708-3.822-8.744-8.615
		c-0.035-4.793,3.822-8.707,8.616-8.742c0.021-0.001,0.042-0.001,0.063-0.001C98.516,84.04,102.392,87.888,102.426,92.656z
		 M122.665,74.374l-0.025-0.027c-1.618-1.582-3.796-2.461-6.059-2.444c-2.253,0-4.418,0.871-6.043,2.43l-0.042,0.042
		c-0.588,0.615-1.087,1.31-1.485,2.062c-0.396-0.752-0.896-1.447-1.484-2.062l-0.025-0.027c-1.607-1.573-3.768-2.451-6.017-2.444
		c-2.267-0.011-4.45,0.86-6.085,2.431l-0.041,0.041c-0.588,0.615-1.087,1.31-1.484,2.062c-0.396-0.752-0.896-1.447-1.485-2.062
		l-0.026-0.027c-1.619-1.581-3.795-2.459-6.058-2.444c-2.252,0-4.417,0.871-6.043,2.43l-0.042,0.042
		c-0.588,0.615-1.087,1.31-1.485,2.062c-0.396-0.752-0.896-1.447-1.485-2.062l-0.025-0.027c-1.619-1.581-3.795-2.459-6.058-2.444
		c-2.254-0.001-4.421,0.87-6.047,2.43l-0.042,0.041l-0.058,0.061c2.589-13.87,14.701-23.922,28.811-23.909h0.06
		c14.125-0.035,26.258,10.028,28.835,23.918c-0.021-0.027-0.043-0.046-0.063-0.068H122.665z"/>
	
		<linearGradient id="Path_16894_1_" gradientUnits="userSpaceOnUse" x1="-171.8429" y1="436.6428" x2="-171.8429" y2="435.674" gradientTransform="matrix(6.7419 0 0 -9.4752 1252.2974 4225.8169)">
		<stop  offset="0.13" style="stop-color:#00A9ED"/>
		<stop  offset="1" style="stop-color:#65106B"/>
	</linearGradient>
	<path id="Path_16894" fill="url(#Path_16894_1_)" d="M92.716,88.544l-1.423-0.017c-0.417,0.011-0.746,0.355-0.736,0.771
		c0.009,0.396,0.324,0.718,0.72,0.736L92.7,90.05c0.366,0.004,0.715,0.153,0.969,0.414c0.067,0.069,0.127,0.146,0.178,0.227
		l-2.581-0.027h-0.008c-0.416-0.002-0.755,0.334-0.757,0.749c-0.002,0.417,0.333,0.756,0.75,0.759l0,0l2.58,0.027
		c-0.255,0.385-0.686,0.615-1.147,0.616h-0.016l-1.417-0.013c-0.416-0.004-0.756,0.329-0.761,0.744
		c-0.001,0.208,0.081,0.406,0.23,0.55l3.522,3.402c0.299,0.288,0.776,0.28,1.066-0.019c0.288-0.3,0.28-0.776-0.02-1.065l0,0
		l-2.193-2.118c1.131-0.163,2.062-0.976,2.374-2.076l0.765,0.008h0.009c0.416-0.013,0.743-0.36,0.73-0.777
		c-0.012-0.395-0.327-0.713-0.723-0.729l-0.766-0.008c-0.056-0.219-0.137-0.431-0.243-0.631l1.016,0.011h0.008
		c0.417,0.002,0.756-0.333,0.759-0.75c0.002-0.416-0.334-0.755-0.751-0.757l-3.55-0.042H92.716z"/>
</g>
</svg>
