<?xml version="1.0" encoding="utf-8"?>
<!-- Generator: Adobe Illustrator 16.0.0, SVG Export Plug-In . SVG Version: 6.00 Build 0)  -->
<!DOCTYPE svg PUBLIC "-//W3C//DTD SVG 1.1//EN" "http://www.w3.org/Graphics/SVG/1.1/DTD/svg11.dtd">
<svg version="1.1" id="Layer_1" xmlns="http://www.w3.org/2000/svg" xmlns:xlink="http://www.w3.org/1999/xlink" x="0px" y="0px"
	 width="71.713px" height="46.613px" viewBox="0 0 71.713 46.613" enable-background="new 0 0 71.713 46.613" xml:space="preserve">
<g id="credit-card_1_" transform="translate(-2 -10)">
	
		<linearGradient id="Path_16876_1_" gradientUnits="userSpaceOnUse" x1="-157.8364" y1="263.6345" x2="-157.8364" y2="262.6345" gradientTransform="matrix(2.39 0 0 -2.39 397.1572 653.2306)">
		<stop  offset="0.13" style="stop-color:#00A9ED"/>
		<stop  offset="1" style="stop-color:#65106B"/>
	</linearGradient>
	<path id="Path_16876" fill="url(#Path_16876_1_)" d="M18.733,23.147h2.39v2.39h-2.39V23.147z"/>
	
		<linearGradient id="Path_16877_1_" gradientUnits="userSpaceOnUse" x1="-256.2129" y1="263.6335" x2="-256.2129" y2="262.6335" gradientTransform="matrix(23.9 0 0 -2.39 6170.9028 683.1115)">
		<stop  offset="0.13" style="stop-color:#00A9ED"/>
		<stop  offset="1" style="stop-color:#65106B"/>
	</linearGradient>
	<path id="Path_16877" fill="url(#Path_16877_1_)" d="M35.466,53.027h23.9v2.391h-23.9V53.027z"/>
	
		<linearGradient id="Path_16878_1_" gradientUnits="userSpaceOnUse" x1="-253.4819" y1="392.8865" x2="-253.4819" y2="391.8865" gradientTransform="matrix(19.123 0 0 -10.757 4875.6318 4236.2744)">
		<stop  offset="0.13" style="stop-color:#00A9ED"/>
		<stop  offset="1" style="stop-color:#65106B"/>
	</linearGradient>
	<path id="Path_16878" fill="url(#Path_16878_1_)" d="M21.123,18.367c0.004-3.299,2.677-5.972,5.976-5.976h10.757V10H27.1
		c-4.619,0.005-8.362,3.748-8.367,8.367v2.39h2.39V18.367z"/>
	
		<linearGradient id="Path_16879_1_" gradientUnits="userSpaceOnUse" x1="-263.5005" y1="420.3142" x2="-263.5005" y2="419.3142" gradientTransform="matrix(71.713 0 0 -41.837 18934.2617 17599.4453)">
		<stop  offset="0.13" style="stop-color:#00A9ED"/>
		<stop  offset="1" style="stop-color:#65106B"/>
	</linearGradient>
	<path id="Path_16879" fill="url(#Path_16879_1_)" d="M70.127,14.781H27.1c-1.98,0-3.586,1.605-3.586,3.586l0,0v10.757h-3.586
		c-0.317,0-0.621,0.126-0.845,0.35l-5.131,5.131v-0.701c0-0.662-0.538-1.199-1.2-1.199l0,0H3.2c-0.663,0-1.2,0.537-1.2,1.199l0,0
		v21.514c0,0.662,0.537,1.199,1.2,1.199l0,0h9.562c0.663,0,1.2-0.537,1.2-1.199l0,0H27.1c0.21,0,0.417-0.055,0.6-0.16l8-4.621
		h34.427c1.98,0,3.586-1.605,3.586-3.586V18.367C73.713,16.386,72.107,14.781,70.127,14.781z M4.39,54.222V35.099h7.171v19.123H4.39
		z M71.321,47.051c0,0.664-0.537,1.201-1.199,1.201H39.837l2.344-1.354c2.86-1.648,3.842-5.305,2.193-8.166
		s-5.305-3.844-8.166-2.193l0,0l-9.708,5.6l1.2,2.068l9.7-5.6c0.546-0.311,1.164-0.477,1.792-0.479
		c1.98-0.002,3.588,1.604,3.59,3.584c0,0.316-0.041,0.631-0.123,0.936c-0.245,0.918-0.848,1.697-1.674,2.168l-14.199,8.213H13.952
		V37.98l6.471-6.471h3.091v10.762H25.9v-23.9c0-0.663,0.537-1.2,1.2-1.2l0,0h43.027c0.663,0,1.2,0.537,1.2,1.2L71.321,47.051z"/>
	
		<linearGradient id="Path_16880_1_" gradientUnits="userSpaceOnUse" x1="-248.9277" y1="402.115" x2="-248.9277" y2="401.115" gradientTransform="matrix(14.342 0 0 -14.342 3607.9827 5786.6885)">
		<stop  offset="0.13" style="stop-color:#00A9ED"/>
		<stop  offset="1" style="stop-color:#65106B"/>
	</linearGradient>
	<path id="Path_16880" fill="url(#Path_16880_1_)" d="M37.856,19.562c-3.96,0-7.171,3.21-7.171,7.171s3.21,7.171,7.171,7.171
		s7.17-3.211,7.17-7.171S41.816,19.562,37.856,19.562L37.856,19.562z M37.856,31.514c-2.641,0-4.781-2.141-4.781-4.781
		c0-2.64,2.14-4.781,4.781-4.781c2.641,0,4.782,2.141,4.782,4.781C42.638,29.373,40.497,31.514,37.856,31.514z"/>
	
		<linearGradient id="Path_16881_1_" gradientUnits="userSpaceOnUse" x1="-251.5288" y1="409.0388" x2="-251.5288" y2="408.0388" gradientTransform="matrix(16.73 0 0 -19.1231 4266.2466 7845.2275)">
		<stop  offset="0.13" style="stop-color:#00A9ED"/>
		<stop  offset="1" style="stop-color:#65106B"/>
	</linearGradient>
	<path id="Path_16881" fill="url(#Path_16881_1_)" d="M65.347,23.147H51.009c-0.662,0-1.199,0.537-1.199,1.2l0,0v9.393
		c-0.002,1.998,0.997,3.865,2.662,4.973l5.037,3.357c0.402,0.266,0.926,0.266,1.327,0l5.041-3.361
		c1.665-1.107,2.664-2.975,2.662-4.973v-9.389C66.539,23.687,66.007,23.151,65.347,23.147z M64.147,33.735
		c0.002,1.201-0.6,2.324-1.601,2.988l-4.379,2.918l-4.379-2.92c-1.001-0.664-1.602-1.785-1.601-2.986v-8.2h11.963L64.147,33.735z"/>
	
		<linearGradient id="Path_16882_1_" gradientUnits="userSpaceOnUse" x1="-237.6606" y1="371.5818" x2="-237.6606" y2="370.5818" gradientTransform="matrix(8.861 0 0 -6.821 2164.0896 2562.8374)">
		<stop  offset="0.13" style="stop-color:#00A9ED"/>
		<stop  offset="1" style="stop-color:#65106B"/>
	</linearGradient>
	<path id="Path_16882" fill="url(#Path_16882_1_)" d="M56.979,35.099c0.316-0.002,0.62-0.127,0.845-0.352l4.78-4.78l-1.689-1.69
		l-3.936,3.936l-1.545-1.545l-1.69,1.69l2.39,2.389C56.358,34.972,56.662,35.097,56.979,35.099z"/>
	
		<linearGradient id="Path_16883_1_" gradientUnits="userSpaceOnUse" x1="-157.8364" y1="263.6335" x2="-157.8364" y2="262.6335" gradientTransform="matrix(2.39 0 0 -2.39 440.1846 683.1115)">
		<stop  offset="0.13" style="stop-color:#00A9ED"/>
		<stop  offset="1" style="stop-color:#65106B"/>
	</linearGradient>
	<path id="Path_16883" fill="url(#Path_16883_1_)" d="M61.761,53.027h2.391v2.391h-2.391V53.027z"/>
</g>
</svg>
