<svg xmlns="http://www.w3.org/2000/svg" width="86.738" height="84.335" viewBox="0 0 86.738 84.335">
  <g id="pump" transform="translate(0 -0.164)">
    <path id="Union_8" data-name="Union 8" d="M20.58,29.279a.851.851,0,0,1-.851-.851V8.771H0V0H23.234A5.267,5.267,0,0,1,28.5,5.266V28.428a.851.851,0,0,1-.851.851Z" transform="translate(56.12 43.116)" fill="#fff"/>
    <path id="Path_17247" data-name="Path 17247" d="M72.91,349.9h49.876v10.155H72.91Z" transform="translate(-60.859 -291.934)" fill="#fff"/>
    <path id="Path_17248" data-name="Path 17248" d="M72.91,349.9h5.955v10.155H72.91Z" transform="translate(-60.859 -291.936)" fill="#fff"/>
    <path id="Path_17249" data-name="Path 17249" d="M21.576.165H1.18a.851.851,0,0,0-.851.851V8.328a.851.851,0,0,0,.851.851h16.8V29.346H27V5.588A5.422,5.422,0,0,0,21.576.165Z" transform="translate(-0.274 -0.001)" fill="#fff"/>
    <path id="Path_17250" data-name="Path 17250" d="M102.963,157.955H90.927a1.4,1.4,0,0,0-1.4,1.4v5.015h14.842v-5.015A1.4,1.4,0,0,0,102.963,157.955Z" transform="translate(-74.728 -131.712)" fill="#fff"/>
    <path id="Path_17251" data-name="Path 17251" d="M102.664,85.7H91.226a1.7,1.7,0,0,0-1.7,1.7v2.659a1.7,1.7,0,0,0,1.7,1.7h11.439a1.7,1.7,0,0,0,1.7-1.7V87.4a1.7,1.7,0,0,0-1.7-1.7Z" transform="translate(-74.728 -71.396)" fill="#fff"/>
    <path id="Path_17252" data-name="Path 17252" d="M7.135,9.179H1.18a.851.851,0,0,1-.851-.851V1.015A.851.851,0,0,1,1.18.164H7.135a.851.851,0,0,0-.851.851V8.328A.851.851,0,0,0,7.135,9.179Z" transform="translate(-0.274)" fill="#fff"/>
    <path id="Path_17253" data-name="Path 17253" d="M96.884,157.959a1.4,1.4,0,0,0-1.4,1.4v5.016H89.527v-5.016a1.4,1.4,0,0,1,1.4-1.4Z" transform="translate(-74.73 -131.716)" fill="#fff"/>
    <path id="Path_17254" data-name="Path 17254" d="M97.184,91.76H91.228a1.7,1.7,0,0,1-1.7-1.7V87.4a1.7,1.7,0,0,1,1.7-1.7h5.955a1.7,1.7,0,0,0-1.7,1.7v2.659A1.7,1.7,0,0,0,97.184,91.76Z" transform="translate(-74.73 -71.397)" fill="#fff"/>
    <path id="Path_17255" data-name="Path 17255" d="M277.147,57.465a1.277,1.277,0,0,0-1.6.841l-5.86,18.922a1.276,1.276,0,1,0,2.438.755l5.86-18.922A1.276,1.276,0,0,0,277.147,57.465Z" transform="translate(-225.069 -47.783)" fill="#fff"/>
    <circle id="Ellipse_201" data-name="Ellipse 201" cx="3.715" cy="3.715" r="3.715" transform="translate(47.985 7.186)" fill="#fff"/>
    <path id="Path_17256" data-name="Path 17256" d="M247.358,151.984h-10.8a2.552,2.552,0,0,0-2.5,2.028v6.364H249.91v-5.84A2.552,2.552,0,0,0,247.358,151.984Z" transform="translate(-195.378 -126.728)" fill="#fff"/>
    <path id="Path_17257" data-name="Path 17257" d="M242.514,151.988a2.551,2.551,0,0,0-2.5,2.028v6.364h-5.955v-6.364a2.552,2.552,0,0,1,2.5-2.028Z" transform="translate(-195.376 -126.732)" fill="#fff"/>
    <path id="Path_17259" data-name="Path 17259" d="M14.806,233.869,5.1,231.662a.851.851,0,0,1-.662-.83v-16.9a.851.851,0,0,1,.662-.83l9.71-2.207Z" transform="translate(-3.701 -175.903)" fill="#fff"/>
    <path id="Subtraction_30" data-name="Subtraction 30" d="M43.439,28.714H0V0H43.439V28.713h0ZM7.133,6.689a.852.852,0,0,0-.85.851V21.173a.851.851,0,0,0,.85.85H19.005a.852.852,0,0,0,.851-.85V7.541a.852.852,0,0,0-.851-.851ZM26.174,18.4a1.276,1.276,0,0,0,0,2.552H37.156a1.276,1.276,0,1,0,0-2.552Zm0-5.315a1.276,1.276,0,1,0,0,2.552H37.156a1.276,1.276,0,1,0,0-2.552Zm0-5.314a1.276,1.276,0,1,0,0,2.552H37.156a1.276,1.276,0,1,0,0-2.552Z" transform="translate(14.797 32.122)" fill="#fff"/>
    <path id="Path_17261" data-name="Path 17261" d="M52.24,222.244H47.124a2.266,2.266,0,0,1-2.266-2.266V195.8a2.266,2.266,0,0,1,2.266-2.266H52.24Z" transform="translate(-37.444 -161.409)" fill="#fff"/>
    <path id="Path_17262" data-name="Path 17262" d="M352.358,222.244h5.116a2.266,2.266,0,0,0,2.266-2.266V195.8a2.266,2.266,0,0,0-2.266-2.266h-5.116Z" transform="translate(-294.122 -161.409)" fill="#fff"/>
    <path id="Subtraction_32" data-name="Subtraction 32" d="M13.746,16.378a16.282,16.282,0,0,1-6.873-1.485L0,11.67V6.735L6.873,9.959a16.28,16.28,0,0,0,6.874,1.485,16.279,16.279,0,0,0,6.874-1.485,16.286,16.286,0,0,1,6.873-1.485A16.023,16.023,0,0,1,34.36,9.957h0a21.522,21.522,0,0,0,2.9,1.021,15.85,15.85,0,0,0,3.977.464,15.827,15.827,0,0,0,3.976-.464,21.488,21.488,0,0,0,2.892-1.017l.009,0a16.639,16.639,0,0,1,13.74,0h0a21.375,21.375,0,0,0,2.9,1.021,15.829,15.829,0,0,0,3.976.464,15.839,15.839,0,0,0,3.975-.464,21.636,21.636,0,0,0,2.9-1.021h0a16.04,16.04,0,0,1,6.866-1.483,15.485,15.485,0,0,1,4.257.542v4.935a16.785,16.785,0,0,0-4.257-.543,16.279,16.279,0,0,0-6.873,1.485,16.308,16.308,0,0,1-6.875,1.484,16.281,16.281,0,0,1-6.873-1.484,16.645,16.645,0,0,0-13.746,0,16.284,16.284,0,0,1-6.872,1.484,16.305,16.305,0,0,1-6.876-1.484,16.643,16.643,0,0,0-13.745,0A16.287,16.287,0,0,1,13.746,16.378ZM.315,16.354l0,0a.851.851,0,0,1-.248-.307.857.857,0,0,0,.249.306h0l0,0Zm13.432-6.232A16.278,16.278,0,0,1,6.874,8.637L0,5.414V.851A1,1,0,0,1,1.105,0H85.632a1,1,0,0,1,1.106.851V7.694a16.773,16.773,0,0,0-4.252-.542,16.288,16.288,0,0,0-6.878,1.485,16.272,16.272,0,0,1-6.869,1.484,16.289,16.289,0,0,1-6.878-1.484,16.652,16.652,0,0,0-13.748,0,16.266,16.266,0,0,1-6.868,1.484,16.292,16.292,0,0,1-6.878-1.484,16.656,16.656,0,0,0-13.748,0A16.276,16.276,0,0,1,13.747,10.122Z" transform="translate(0 68.121)" fill="#fff"/>
    <path id="Path_17269" data-name="Path 17269" d="M154.593,263.05a1.277,1.277,0,0,1-1.188-1.741l.495-1.265h-1.285a1.276,1.276,0,0,1-1.189-1.741L152.6,255.3a1.276,1.276,0,0,1,2.377.929l-.494,1.265h1.285a1.276,1.276,0,0,1,1.189,1.741l-1.175,3.006a1.276,1.276,0,0,1-1.189.812Z" transform="translate(-126.325 -212.289)" fill="#fff"/>
  </g>
</svg>
