<svg xmlns="http://www.w3.org/2000/svg" width="77.885" height="111.483" viewBox="0 0 77.885 111.483">
  <g id="Group_2147" data-name="Group 2147" transform="translate(-1184 -1499.572)">
    <g id="family" transform="translate(1184 1532.246) rotate(-31)">
      <g id="Group_1982" data-name="Group 1982" transform="translate(0 0)">
        <g id="Group_1981" data-name="Group 1981">
          <path id="Path_16773" data-name="Path 16773" d="M54.032,6.709a30.45,30.45,0,0,0-10.1-5.038A43.127,43.127,0,0,0,31.72,0,43.125,43.125,0,0,0,19.5,1.672a30.446,30.446,0,0,0-10.1,5.038C3.253,11.481,0,18.416,0,26.764v2.478a1.239,1.239,0,1,0,2.478,0V28H9.912v1.239a1.239,1.239,0,1,0,2.478,0V28h7.93v1.239a1.239,1.239,0,1,0,2.478,0V28h7.682V39.9a1.239,1.239,0,1,0,2.478,0V28h7.682v1.239a1.239,1.239,0,1,0,2.478,0V28h7.93v1.239a1.239,1.239,0,1,0,2.478,0V28h7.434v1.239a1.239,1.239,0,1,0,2.478,0V26.764C63.439,18.416,60.186,11.481,54.032,6.709ZM11.993,15.221a30.933,30.933,0,0,0-2.058,10.3H2.505C2.985,14.77,9.738,6.973,20.624,3.91a24.094,24.094,0,0,0-3.34,2.926,25.064,25.064,0,0,0-2.958,3.787A26.887,26.887,0,0,0,11.993,15.221Zm8.348,10.3H12.416c.313-8.507,3.755-13.91,6.665-16.984a19.906,19.906,0,0,1,9.4-5.653,34.009,34.009,0,0,0-2.908,4.168A38.292,38.292,0,0,0,20.341,25.524Zm2.479,0h0a35.825,35.825,0,0,1,4.83-17.11,29.86,29.86,0,0,1,4.07-5.447,34.291,34.291,0,0,1,8.9,22.558Zm30.683,0a33.053,33.053,0,0,0-.7-5.775A1.245,1.245,0,0,0,51.6,18.77a1.239,1.239,0,0,0-1.213,1.5,30.489,30.489,0,0,1,.64,5.255H43.1A38.293,38.293,0,0,0,37.865,7.056,34,34,0,0,0,34.96,2.891a17.887,17.887,0,0,1,4.593,1.858A21.716,21.716,0,0,1,46.789,11.6a1.239,1.239,0,0,0,2.064-1.372A25,25,0,0,0,45.1,5.792a23.808,23.808,0,0,0-2.291-1.884C53.7,6.972,60.454,14.769,60.934,25.524Z" fill="#fff"/>
        </g>
      </g>
      <g id="Group_1984" data-name="Group 1984" transform="translate(48.897 14.043)">
        <g id="Group_1983" data-name="Group 1983" transform="translate(0 0)">
          <path id="Path_16774" data-name="Path 16774" d="M2.385.767A1.238,1.238,0,0,0,.1.762a1.239,1.239,0,0,0,2.287.954A1.231,1.231,0,0,0,2.385.767Z" fill="#fff"/>
        </g>
      </g>
    </g>
    <path id="Subtraction_46" data-name="Subtraction 46" d="M11083.171-3324.2H11038.1v-58.7h30.4v14.678h14.676v44.023Zm-36.689-16.772a1.041,1.041,0,0,0-.74.307,1.051,1.051,0,0,0,0,1.483l2.1,2.095a1.034,1.034,0,0,0,.74.309,1.037,1.037,0,0,0,.653-.231l5.241-4.193a1.04,1.04,0,0,0,.388-.7,1.043,1.043,0,0,0-.224-.773,1.044,1.044,0,0,0-.817-.392,1.035,1.035,0,0,0-.654.23l-4.51,3.605-1.433-1.433A1.047,1.047,0,0,0,11046.481-3340.975Zm10.482,1.047a1.05,1.05,0,0,0-1.049,1.049,1.05,1.05,0,0,0,1.049,1.049h16.772a1.049,1.049,0,0,0,1.047-1.049,1.049,1.049,0,0,0-1.047-1.049Zm-10.482-12.578a1.04,1.04,0,0,0-.74.307,1.051,1.051,0,0,0,0,1.483l2.1,2.1a1.042,1.042,0,0,0,.74.306,1.048,1.048,0,0,0,.653-.228l5.241-4.192a1.046,1.046,0,0,0,.389-.7,1.041,1.041,0,0,0-.225-.77,1.041,1.041,0,0,0-.818-.394,1.035,1.035,0,0,0-.653.23l-4.51,3.608-1.433-1.436A1.044,1.044,0,0,0,11046.481-3352.507Zm10.482,1.05a1.05,1.05,0,0,0-1.049,1.049,1.049,1.049,0,0,0,1.049,1.046h16.772a1.048,1.048,0,0,0,1.047-1.046,1.049,1.049,0,0,0-1.047-1.049Zm-10.482-12.578a1.041,1.041,0,0,0-.74.307,1.051,1.051,0,0,0,0,1.483l2.1,2.095a1.041,1.041,0,0,0,.74.309,1.037,1.037,0,0,0,.653-.231l5.241-4.193a1.04,1.04,0,0,0,.388-.7,1.044,1.044,0,0,0-.224-.774,1.044,1.044,0,0,0-.818-.392,1.04,1.04,0,0,0-.653.228l-4.51,3.608-1.433-1.433A1.047,1.047,0,0,0,11046.481-3364.035Zm10.482,1.047a1.05,1.05,0,0,0-1.049,1.049,1.05,1.05,0,0,0,1.049,1.049h16.772a1.049,1.049,0,0,0,1.047-1.049,1.049,1.049,0,0,0-1.047-1.049Zm24.724-7.336h-11.095v-11.1l11.094,11.1Z" transform="translate(-9821.285 4935.258)" fill="#fff"/>
  </g>
</svg>
