<svg xmlns="http://www.w3.org/2000/svg" width="84.347" height="48.438" viewBox="0 0 84.347 48.438">
  <g id="Group_2115" data-name="Group 2115" transform="translate(-987 -1217.619)">
    <g id="head-of-goat" transform="translate(987 1217.619)">
      <g id="Group_2113" data-name="Group 2113" transform="translate(0 0)">
        <path id="Path_17179" data-name="Path 17179" d="M26.683,12.55c-12.594,0-9.145,14.924-8.714,16.649s4.313,14.838,9.058,14.838,7.677-11.3,8.54-14.664C41.261,11.343,26.683,12.55,26.683,12.55ZM22.392,24.066a1.336,1.336,0,1,1,1.337-1.336A1.338,1.338,0,0,1,22.392,24.066Zm3.914,17.418a.34.34,0,0,1-.22.084.333.333,0,0,1-.164-.045c-.83-.47-1.753-1.282-1.813-1.953a.7.7,0,0,1,.255-.621.53.53,0,0,1,.347-.127c.63,0,1.264,1.244,1.685,2.286A.334.334,0,0,1,26.306,41.484Zm1.875-.014a.344.344,0,0,1-.163.043.324.324,0,0,1-.221-.085.33.33,0,0,1-.089-.374c.421-1.043,1.055-2.286,1.684-2.286a.539.539,0,0,1,.348.127.705.705,0,0,1,.254.623C29.935,40.19,29.014,41,28.182,41.47ZM31.6,24.094a1.336,1.336,0,1,1,1.335-1.336A1.338,1.338,0,0,1,31.6,24.094Z" transform="translate(-7.77 -1.893)" fill="#fff"/>
        <path id="Path_17180" data-name="Path 17180" d="M31.843,49.153a5.565,5.565,0,0,1-4,1.891,5.8,5.8,0,0,1-4.274-2.285c-.626-.7-1.02-.574-.9.357a7,7,0,0,0,1.318,3.729c.585.733.968.677.964-.018s.407-.442.723.44a6.041,6.041,0,0,0,1,1.792,1.374,1.374,0,0,0,2.226.015,9.875,9.875,0,0,0,.969-1.894c.339-.874.589-1.105.626-.46s.627.7,1.159-.069a7.225,7.225,0,0,0,1.146-3.105C32.94,48.613,32.5,48.484,31.843,49.153Z" transform="translate(-8.591 -7.298)" fill="#fff"/>
        <path id="Path_17181" data-name="Path 17181" d="M14.757,14.885c-3.165-.459-4.717,3.279-4.877,4.465a6.43,6.43,0,0,1-1.39,2.878c-.588.729-.39,1.479.548,1.448a7.644,7.644,0,0,0,4.029-1.439,5.1,5.1,0,0,0,1.583-2.762,12.613,12.613,0,0,1,.863-2.571C15.912,16.056,15.685,15.019,14.757,14.885Z" transform="translate(-6.402 -2.243)" fill="#fff"/>
        <path id="Path_17182" data-name="Path 17182" d="M46.112,19.35c-.16-1.158-1.645-4.753-4.666-4.49a3.036,3.036,0,0,0-1.577.529l.042.055a10.2,10.2,0,0,1,1.774,4.273,4.493,4.493,0,0,0,1.54,2.723,7.481,7.481,0,0,0,3.727,1.237c.937.031,1.137-.719.548-1.448A6.389,6.389,0,0,1,46.112,19.35Z" transform="translate(-11.192 -2.242)" fill="#fff"/>
        <path id="Path_17183" data-name="Path 17183" d="M15.261,8.724l.956,1.779a1.285,1.285,0,0,0,2,.468,1.777,1.777,0,0,0,.548-2.3,36.524,36.524,0,0,0-1.975-3.386C16.313,4.77,6.628-.557,6.111.048,5.722.5,10.639,4.335,13.1,6.207A9.3,9.3,0,0,1,15.261,8.724Z" transform="translate(-6.089 0)" fill="#fff"/>
        <path id="Path_17184" data-name="Path 17184" d="M48.548.048c-.517-.6-10.2,4.723-10.675,5.24a33.93,33.93,0,0,0-1.895,3.24,1.617,1.617,0,0,0,.587,2.2,1.43,1.43,0,0,0,2.072-.586L39.4,8.724a9.289,9.289,0,0,1,2.161-2.517C44.02,4.334,48.936.5,48.548.048Z" transform="translate(-10.572 0)" fill="#fff"/>
      </g>
    </g>
    <g id="sheep-head" transform="translate(1025.174 1228.141)">
      <g id="Group_2114" data-name="Group 2114" transform="translate(0 0)">
        <path id="Path_17185" data-name="Path 17185" d="M92.45,42.81a3.837,3.837,0,0,0-3.887-3.656h-.1l-.85.033-.179-.761a3.882,3.882,0,0,0-3.793-2.9h-.089a3.988,3.988,0,0,0-1.743.436l-.841.429-.435-.837a3.888,3.888,0,0,0-3.481-2.071h-.131a3.892,3.892,0,0,0-3.572,2.07l-.435.837-.84-.429a3.991,3.991,0,0,0-1.743-.436h-.089a3.882,3.882,0,0,0-3.793,2.9l-.179.761-.874-.033h-.081a3.837,3.837,0,0,0-3.887,3.656,3.644,3.644,0,0,0,.933,2.5l1.136,1.277a.555.555,0,0,0,.415.186h.058a.962.962,0,0,1,.953.882c.008.051.019.127.033.225A70.4,70.4,0,0,0,68,60.912C69.674,65.7,72.583,71.4,76.938,71.4s7.262-5.7,8.936-10.482a70.421,70.421,0,0,0,3.049-13.03c.014-.1.026-.176.033-.227a.962.962,0,0,1,.953-.882h.058a.554.554,0,0,0,.415-.186l1.136-1.277A3.645,3.645,0,0,0,92.45,42.81Z" transform="translate(-53.851 -33.482)" fill="#fff"/>
        <path id="Path_17186" data-name="Path 17186" d="M8.552,140.987l-.546.124a13.076,13.076,0,0,0-7.491,6.164,4.2,4.2,0,0,0-.019,4,1.9,1.9,0,0,0,1.611,1.071c.909,0,1.992-.743,3.05-2.091A28.309,28.309,0,0,0,9.2,141.7a.555.555,0,0,0-.651-.711Z" transform="translate(0 -127.72)" fill="#fff"/>
        <path id="Path_17187" data-name="Path 17187" d="M308.344,147.275a13.077,13.077,0,0,0-7.491-6.164l-.545-.124a.555.555,0,0,0-.651.711,28.3,28.3,0,0,0,4.045,8.556c1.058,1.349,2.141,2.091,3.05,2.092h0a1.9,1.9,0,0,0,1.611-1.071A4.2,4.2,0,0,0,308.344,147.275Z" transform="translate(-262.687 -127.721)" fill="#fff"/>
      </g>
    </g>
  </g>
</svg>
