<svg xmlns="http://www.w3.org/2000/svg" width="83" height="82.999" viewBox="0 0 83 82.999">
  <g id="herbal_1_" data-name="herbal (1)" transform="translate(-2.998 -3)">
    <path id="Path_18187" data-name="Path 18187" d="M60.069,22.116l-9.832-9.832A30.133,30.133,0,0,1,46.71,13.9a26.977,26.977,0,0,0-9.672,6.229l-4.625,4.624H58.839c.373-.9.78-1.786,1.229-2.639Z" transform="translate(12.678 4.002)" fill="#fff"/>
    <path id="Path_18188" data-name="Path 18188" d="M81.706,23H7.291a4.293,4.293,0,0,0,0,8.586H81.706a4.293,4.293,0,0,0,0-8.586Z" transform="translate(0 8.62)" fill="#fff"/>
    <path id="Path_18189" data-name="Path 18189" d="M20.993,25.241A15.766,15.766,0,0,0,35.247,11H29.516a18.446,18.446,0,0,1-5.378,11.723,18.755,18.755,0,0,1-3.145,2.519Z" transform="translate(7.756 3.448)" fill="#fff"/>
    <path id="Path_18190" data-name="Path 18190" d="M58.023,17.479,49.994,9.408a29.889,29.889,0,0,1-3.35,2.609l8.794,8.794a29.725,29.725,0,0,1,2.586-3.331Z" transform="translate(18.812 2.762)" fill="#fff"/>
    <path id="Path_18191" data-name="Path 18191" d="M60.021,19.213a3.583,3.583,0,0,0,5.089,0,3.649,3.649,0,0,0,0-5.136L55.146,4.06a3.581,3.581,0,0,0-5.087,0,3.649,3.649,0,0,0,0,5.136Z" transform="translate(19.828 0)" fill="#fff"/>
    <path id="Path_18192" data-name="Path 18192" d="M23.6,8.469a1.431,1.431,0,1,1,2.823.471,35.932,35.932,0,0,1-7.058,16.1l-2.619,3.366A15.719,15.719,0,0,0,29.307,13V3.044A15.762,15.762,0,0,0,15,18.721V26l2.112-2.715A33.045,33.045,0,0,0,23.6,8.469Z" transform="translate(5.172 0.019)" fill="#fff"/>
    <path id="Path_18193" data-name="Path 18193" d="M17.311,27.521V20.933A30.015,30.015,0,0,1,6.574,9.04L6.011,7.918,8.57,6.637l.562,1.123a27.147,27.147,0,0,0,8.238,9.752,18.464,18.464,0,0,1,1.361-5.906A21.479,21.479,0,0,0,3,3.034V7.278A21.455,21.455,0,0,0,17.311,27.521Z" transform="translate(0 0.015)" fill="#fff"/>
    <path id="Path_18194" data-name="Path 18194" d="M24.858,63.364a4.583,4.583,0,0,1,2.194,2.9,4.087,4.087,0,0,1-.552,3.24,2.813,2.813,0,0,0-.459,1.763,3.035,3.035,0,0,0,3.084,2.66H57.285a3.035,3.035,0,0,0,3.085-2.659,2.822,2.822,0,0,0-.459-1.763,4.093,4.093,0,0,1-.552-3.24,4.58,4.58,0,0,1,2.194-2.9A37.308,37.308,0,0,0,80.413,31H6A37.291,37.291,0,0,0,24.858,63.364ZM74.213,36.476l2.819.494A34.421,34.421,0,0,1,58.139,61.934l-1.245-2.576a31.556,31.556,0,0,0,17.32-22.882ZM46.067,33.861h2.861v2.861H46.067Zm-2.863,0v2.861H8.861V33.861Z" transform="translate(1.294 12.068)" fill="#fff"/>
  </g>
</svg>
