<svg id="auction" xmlns="http://www.w3.org/2000/svg" width="82.333" height="82.333" viewBox="0 0 82.333 82.333">
  <g id="Group_2102" data-name="Group 2102">
    <g id="Group_2101" data-name="Group 2101">
      <path id="Path_17159" data-name="Path 17159" d="M345.648,172.6l-1.095,1.1a5.609,5.609,0,0,1-7.94,0l-14.968-14.978a5.618,5.618,0,0,1,0-7.945l1.1-1.1a1.87,1.87,0,0,1,2.646,0l20.262,20.275A1.872,1.872,0,0,1,345.648,172.6Z" transform="translate(-320 -122.964)" fill="#fff"/>
      <path id="Path_17160" data-name="Path 17160" d="M194.123,25.612a1.87,1.87,0,0,1-2.646,0L171.215,5.337a1.872,1.872,0,0,1,0-2.648l1.095-1.1a5.745,5.745,0,0,1,7.94,0l14.968,14.977a5.618,5.618,0,0,1,0,7.945Z" transform="translate(-144.47 0)" fill="#fff"/>
      <path id="Path_17161" data-name="Path 17161" d="M23.456,79.285a1.87,1.87,0,0,1-2.646,0L.548,59.01a1.872,1.872,0,0,1,0-2.648l13.42-13.429a1.87,1.87,0,0,1,2.646,0L36.876,63.209a1.872,1.872,0,0,1,0,2.648l-2.69,2.692C48.675,81.113,67.3,99.138,72.655,104.5a7.486,7.486,0,1,1-10.584,10.591c-6.447-6.451-24.022-24.663-35.97-38.45Z" transform="translate(7.485 -34.95)" fill="#fff"/>
      <path id="Path_17162" data-name="Path 17162" d="M203.227,362.667h26.2a11.193,11.193,0,0,1,11.227,11.173,7.492,7.492,0,0,1-7.485,7.485H199.485A7.492,7.492,0,0,1,192,373.84,11.193,11.193,0,0,1,203.227,362.667Z" transform="translate(-192 -299.046)" fill="#fff"/>
    </g>
  </g>
</svg>
