<svg xmlns="http://www.w3.org/2000/svg" width="73.76" height="83.674" viewBox="0 0 73.76 83.674">
  <g id="doctor" transform="translate(0 0)">
    <path id="Path_17234" data-name="Path 17234" d="M212.976,291H202.348L191,298v18.977h35.889V304.868A13.91,13.91,0,0,0,212.976,291Zm0,0" transform="translate(-153.128 -233.301)" fill="#fff"/>
    <path id="Path_17235" data-name="Path 17235" d="M307.937,120.321a3.221,3.221,0,0,0-1.938-3v6A3.223,3.223,0,0,0,307.937,120.321Zm0,0" transform="translate(-245.326 -94.058)" fill="#fff"/>
    <path id="Path_17236" data-name="Path 17236" d="M122.035,94H80v9.637l17.222,5.031a13.555,13.555,0,0,0,7.6,0l17.212-5.031ZM91,104.716a5.21,5.21,0,0,1-5.2-5.2,1.388,1.388,0,1,1,2.776,0,2.429,2.429,0,0,0,4.858,0,1.388,1.388,0,1,1,2.776,0A5.21,5.21,0,0,1,91,104.716Zm19.082,0a5.21,5.21,0,0,1-5.2-5.2,1.388,1.388,0,1,1,2.776,0,2.429,2.429,0,1,0,4.858,0,1.388,1.388,0,1,1,2.776,0A5.209,5.209,0,0,1,110.082,104.716Zm0,0" transform="translate(-64.138 -75.362)" fill="#fff"/>
    <path id="Path_17237" data-name="Path 17237" d="M112.587,2.974A3.042,3.042,0,0,0,109.532,0H68.014A3.007,3.007,0,0,0,65,2.974V15.862h47.587ZM91.569,9.319H90.181v.991a1.388,1.388,0,1,1-2.776,0V9.319h-1.19a1.388,1.388,0,1,1,0-2.776h1.19V4.957a1.388,1.388,0,1,1,2.776,0V6.543h1.388a1.388,1.388,0,0,1,0,2.776Zm0,0" transform="translate(-52.111)" fill="#fff"/>
    <path id="Path_17238" data-name="Path 17238" d="M116.323,170.552A21.51,21.51,0,0,0,122.4,157.3l-16.333,4.781a16.21,16.21,0,0,1-9.129,0L80.609,157.3a21.512,21.512,0,0,0,6.079,13.255,20.467,20.467,0,0,0,29.635,0Zm0,0" transform="translate(-64.626 -126.108)" fill="#fff"/>
    <path id="Path_17239" data-name="Path 17239" d="M57.278,123.263v-6.04a3.192,3.192,0,0,0,0,6.04Zm0,0" transform="translate(-44.192 -93.98)" fill="#fff"/>
    <path id="Path_17240" data-name="Path 17240" d="M132,257.156v4.553l10.338,6.738,10.878-6.757v-4.5a22.906,22.906,0,0,1-10.579,2.549A23.47,23.47,0,0,1,132,257.156Zm0,0" transform="translate(-105.827 -206.167)" fill="#fff"/>
    <path id="Path_17241" data-name="Path 17241" d="M35.1,297.978,24.464,291H13.913A13.91,13.91,0,0,0,0,304.868v12.107H35.1Zm0,0" transform="translate(0 -233.3)" fill="#fff"/>
  </g>
</svg>
