<svg xmlns="http://www.w3.org/2000/svg" width="81.5" height="75.697" viewBox="0 0 81.5 75.697">
  <g id="Group_2157" data-name="Group 2157" transform="translate(-862 -1666)">
    <path id="Path_17329" data-name="Path 17329" d="M320.779,119.365c-6.253-.936-10.739-3.027-14.115-6.579l-.009-.009a1.506,1.506,0,0,0-2.111-.014l-.024.024c-3.376,3.552-7.862,5.643-14.115,6.579a1.476,1.476,0,0,0-1.258,1.46V140.1a9.713,9.713,0,0,0,2.311,6.346,36.539,36.539,0,0,0,6.145,5.472,70.754,70.754,0,0,0,7.275,4.595l.069.043a1.2,1.2,0,0,0,1.331-.028c.006,0,4.606-2.644,7.3-4.61a36.556,36.556,0,0,0,6.144-5.472,9.711,9.711,0,0,0,2.311-6.346v-19.28a1.475,1.475,0,0,0-1.257-1.459ZM293.7,144.524a6.759,6.759,0,0,1-1.6-4.42V122.076a27.336,27.336,0,0,0,12.017-4.969v35.568c-1.452-.868-3.126-1.936-4.774-3.138a33.607,33.607,0,0,1-5.647-5.013Zm25.39-4.42a6.759,6.759,0,0,1-1.6,4.42,33.612,33.612,0,0,1-5.647,5.013c-1.649,1.2-3.323,2.27-4.775,3.138V117.107a27.333,27.333,0,0,0,12.017,4.969Zm0,0" transform="translate(596.851 1553.662)" fill="#fff"/>
    <g id="save-money" transform="translate(862 1741.697) rotate(-90)">
      <path id="Path_17327" data-name="Path 17327" d="M49.645,16.564l-.027-.013L38.967,11.518a8.232,8.232,0,0,0,.149-1.79,1.147,1.147,0,0,0-1.146-1.116h-.033l-15.588.429a1.148,1.148,0,0,0,.063,2.295l14.329-.394a5.916,5.916,0,0,1-5.659,4.915l-9.483.261a12.485,12.485,0,0,0-5.373,1.388l-.965.5A14.577,14.577,0,0,1,.38,17.167L0,3.372l1.63.873a7.087,7.087,0,0,0,5.284.578L23.006.306a15.031,15.031,0,0,1,9.21,1.03l22.3,14.422a4.17,4.17,0,0,1-4.867.807Zm0,0" transform="translate(10.472 0)" fill="#fff"/>
      <path id="Path_17328" data-name="Path 17328" d="M0,.223.565,20.748l8.1-.223L8.1,0Zm0,0" transform="translate(0 0.753)" fill="#fff"/>
    </g>
    <g id="save-money-2" data-name="save-money" transform="translate(922 1741.696) rotate(-90)">
      <path id="Path_17327-2" data-name="Path 17327" d="M49.645,3.091l-.027.013L38.967,8.136a8.231,8.231,0,0,1,.149,1.79,1.147,1.147,0,0,1-1.146,1.116h-.033l-15.588-.429a1.148,1.148,0,1,1,.063-2.295l14.329.394A5.916,5.916,0,0,0,31.081,3.8L21.6,3.537a12.485,12.485,0,0,1-5.373-1.388l-.965-.5A14.577,14.577,0,0,0,.38,2.488L0,16.282l1.63-.873a7.087,7.087,0,0,1,5.284-.578l16.093,4.517a15.031,15.031,0,0,0,9.21-1.03L54.511,3.9a4.17,4.17,0,0,0-4.867-.807Zm0,0" transform="translate(10.472 1.846)" fill="#fff"/>
      <path id="Path_17328-2" data-name="Path 17328" d="M0,20.524.565,0l8.1.223L8.1,20.747Zm0,0" transform="translate(0 0)" fill="#fff"/>
    </g>
  </g>
</svg>
