<svg id="Page-1" xmlns="http://www.w3.org/2000/svg" width="105.782" height="68.003" viewBox="0 0 105.782 68.003">
  <g id="_004---Cement-Mixer-Truck" data-name="004---Cement-Mixer-Truck">
    <path id="Shape" d="M9.445,26a9.445,9.445,0,1,0,6.679,2.766A9.445,9.445,0,0,0,9.445,26Zm0,15.112a5.667,5.667,0,1,1,5.667-5.667A5.667,5.667,0,0,1,9.445,41.112Z" transform="translate(0 23.113)" fill="#fff"/>
    <path id="Shape-2" data-name="Shape" d="M7.731,9.445,10.428,0H.326l2.7,9.445Z" transform="translate(0.29)" fill="#fff"/>
    <path id="Shape-3" data-name="Shape" d="M5.778,39.264V7H2V40.406A13.1,13.1,0,0,1,5.778,39.264Z" transform="translate(1.778 6.223)" fill="#fff"/>
    <ellipse id="Oval" cx="2" cy="2.5" rx="2" ry="2.5" transform="translate(7.563 56)" fill="#fff"/>
    <path id="Shape-4" data-name="Shape" d="M20.638,0H9.3L6,11.6v15.9C16.163,20.854,19.568,6.706,20.638,0Z" transform="translate(5.334)" fill="#fff"/>
    <path id="Shape-5" data-name="Shape" d="M21.683,34.84H33.616V29.173A1.889,1.889,0,0,1,35.5,27.284h5.6a57.447,57.447,0,0,0-3.128-15.478A36.5,36.5,0,0,1,21.683,34.84Z" transform="translate(19.276 10.495)" fill="#fff"/>
    <path id="Shape-6" data-name="Shape" d="M30,25.778H41.334V22H30Z" transform="translate(26.669 19.557)" fill="#fff"/>
    <path id="Shape-7" data-name="Shape" d="M6.472,31.272a28.146,28.146,0,0,0,7.252,8.011c16.357-8.769,20.7-25.858,21.77-36.2A31.937,31.937,0,0,0,24.021.074c-1.111,7.265-5,23.907-17.549,31.2Z" transform="translate(5.753 0.066)" fill="#fff"/>
    <path id="Shape-8" data-name="Shape" d="M29.889,26H28v3.778h3.778V26Z" transform="translate(24.891 23.113)" fill="#fff"/>
    <path id="Shape-9" data-name="Shape" d="M12.242,39.185A31.907,31.907,0,0,0,22.293,42.4c16.766-6.045,20.533-21.67,21.372-28.6A31.145,31.145,0,0,0,33.927,2.756C32.537,13.568,27.771,29.851,12.242,39.185Z" transform="translate(10.883 2.45)" fill="#fff"/>
    <path id="Shape-10" data-name="Shape" d="M40.987,31.667A1.889,1.889,0,0,1,39.1,33.556H31.543a1.889,1.889,0,0,1-1.889-1.889V26H21.89a12.975,12.975,0,0,1,3.835,11.334H44.917A12.975,12.975,0,0,1,48.751,26H40.987Z" transform="translate(19.46 23.113)" fill="#fff"/>
    <ellipse id="Oval-2" data-name="Oval" cx="2" cy="2.5" rx="2" ry="2.5" transform="translate(75.563 56)" fill="#fff"/>
    <path id="Shape-11" data-name="Shape" d="M56.89,57.669a13.271,13.271,0,0,1-.151,1.889H70.112A1.889,1.889,0,0,0,72,57.669V50.113H70.112a1.889,1.889,0,0,1,0-3.778H72V42.557H70.112a1.889,1.889,0,0,1,0-3.778H72V35H56.89a9.456,9.456,0,0,1-9.445-9.445V1H39.889A1.889,1.889,0,0,0,38,2.889V44.446h5.667A13.238,13.238,0,0,1,56.89,57.669Z" transform="translate(33.781 0.889)" fill="#fff"/>
    <path id="Shape-12" data-name="Shape" d="M21.445,26a9.445,9.445,0,1,0,6.679,2.766A9.445,9.445,0,0,0,21.445,26Zm0,15.112a5.667,5.667,0,1,1,5.667-5.667A5.667,5.667,0,0,1,21.445,41.112Z" transform="translate(10.668 23.113)" fill="#fff"/>
    <path id="Shape-13" data-name="Shape" d="M11.987,28.669A13.3,13.3,0,0,1,14.084,26H9.89a13.3,13.3,0,0,1,2.1,2.669Z" transform="translate(8.792 23.113)" fill="#fff"/>
    <path id="Shape-14" data-name="Shape" d="M50.667,31.224H65.779V28.173a1.878,1.878,0,0,0-.134-.7L55.529,2.188A1.878,1.878,0,0,0,53.776,1H45V25.557a5.667,5.667,0,0,0,5.667,5.667Z" transform="translate(40.004 0.889)" fill="#fff"/>
    <path id="Shape-15" data-name="Shape" d="M45.445,26a9.445,9.445,0,1,0,6.679,2.766A9.445,9.445,0,0,0,45.445,26Zm0,15.112a5.667,5.667,0,1,1,5.667-5.667A5.667,5.667,0,0,1,45.445,41.112Z" transform="translate(32.003 23.113)" fill="#fff"/>
    <circle id="Oval-3" data-name="Oval" cx="2.5" cy="2.5" r="2.5" transform="translate(29.563 56)" fill="#fff"/>
  </g>
</svg>
