<svg id="device" xmlns="http://www.w3.org/2000/svg" width="82.733" height="82.733" viewBox="0 0 82.733 82.733">
  <path id="Path_17101" data-name="Path 17101" d="M322,452v4.04a5.662,5.662,0,0,0,5.656,5.656h19.391a5.662,5.662,0,0,0,5.656-5.656V452Zm0,0" transform="translate(-269.969 -378.962)" fill="#fff"/>
  <path id="Path_17102" data-name="Path 17102" d="M352.7,237.549V207.656A5.662,5.662,0,0,0,347.046,202H327.656A5.662,5.662,0,0,0,322,207.656v29.894Zm0,0" transform="translate(-269.969 -169.359)" fill="#fff"/>
  <path id="Path_17103" data-name="Path 17103" d="M252.2,128.4s19.932-.02,20.2,0v-2.747A5.662,5.662,0,0,0,266.741,120H237.656A5.662,5.662,0,0,0,232,125.656v39.589h9.7V138.906A10.515,10.515,0,0,1,252.2,128.4Zm0,0" transform="translate(-194.512 -100.609)" fill="#fff"/>
  <path id="Path_17104" data-name="Path 17104" d="M241.7,430H232v4.04a5.662,5.662,0,0,0,5.656,5.656h4.251a10.523,10.523,0,0,1-.211-2.1Zm0,0" transform="translate(-194.512 -360.517)" fill="#fff"/>
  <path id="Path_17105" data-name="Path 17105" d="M43.144,14.543H72.23a10.438,10.438,0,0,1,4.04.809V8.887A8.9,8.9,0,0,0,67.382,0H8.887A8.9,8.9,0,0,0,0,8.887V37.165H32.641V25.046a10.515,10.515,0,0,1,10.5-10.5Zm0,0" fill="#fff"/>
  <path id="Path_17106" data-name="Path 17106" d="M0,260v.808A8.9,8.9,0,0,0,8.887,269.7H32.641V260Zm0,0" transform="translate(0 -217.987)" fill="#fff"/>
  <path id="Path_17107" data-name="Path 17107" d="M117.32,350h-5.948l-3.233,9.7A7.27,7.27,0,0,0,101,366.967a2.424,2.424,0,0,0,2.424,2.424h13.9" transform="translate(-84.68 -293.444)" fill="#fff"/>
</svg>
