<svg xmlns="http://www.w3.org/2000/svg" width="90" height="80" viewBox="0 0 90 80">
  <g id="Group_2149" data-name="Group 2149" transform="translate(-165 -1645)">
    <path id="Path_17284" data-name="Path 17284" d="M30.851,58.836l-1.92-17.279-1.563.518a1.321,1.321,0,0,1-.833,0l-1.569-.518-1.92,17.279,3.9,3.9Z" transform="translate(167.122 1653.072)" fill="#fff"/>
    <path id="Path_17285" data-name="Path 17285" d="M24.927,38.465l-.2,1.78,1.68.558,1.68-.558-.2-1.78L26.409,37.28Z" transform="translate(167.663 1651.697)" fill="#fff"/>
    <path id="Path_17286" data-name="Path 17286" d="M35.192,34.8l-2.936-.733-4.507,2.7,4,3.2Z" transform="translate(168.633 1650.666)" fill="#fff"/>
    <path id="Path_17287" data-name="Path 17287" d="M36.845,16.935,34.179,13.6,33.1,14.949a11.833,11.833,0,0,1-9.287,4.465H17v3.964a11.893,11.893,0,1,0,23.786,0V19.293A6.57,6.57,0,0,1,36.845,16.935Z" transform="translate(165.179 1644.086)" fill="#fff"/>
    <path id="Path_17288" data-name="Path 17288" d="M15,19.857h9.455a9.205,9.205,0,0,0,7.223-3.471l2.114-2.643a1.321,1.321,0,0,1,2.064,0l3.7,4.625a3.951,3.951,0,0,0,3.092,1.489h1.423V15.893A11.907,11.907,0,0,0,32.179,4H26.893A11.907,11.907,0,0,0,15,15.893Z" transform="translate(164.536 1641)" fill="#fff"/>
    <path id="Path_17289" data-name="Path 17289" d="M43.507,41.382V37.771A19.544,19.544,0,0,0,39.146,35.7L33.2,67.811l6.343.156c.025-.406,0-1.027,0-1.478V45.346A3.964,3.964,0,0,1,43.507,41.382Z" transform="translate(170.386 1651.189)" fill="#fff"/>
    <path id="Path_17290" data-name="Path 17290" d="M32.571,31.236a14.341,14.341,0,0,1-10.571,0v1.586l5.286,3.171,5.286-3.171Z" transform="translate(166.786 1649.754)" fill="#fff"/>
    <path id="Path_17291" data-name="Path 17291" d="M18.619,34.8l3.446,5.169,4-3.2-4.507-2.7Z" transform="translate(165.699 1650.666)" fill="#fff"/>
    <path id="Path_17292" data-name="Path 17292" d="M38.9,35.208l-.407-.087L33.707,42.3a1.321,1.321,0,0,1-.9.572,1.29,1.29,0,0,1-.2.016,1.321,1.321,0,0,1-.826-.289L30.4,41.494l2.2,19.749a1.321,1.321,0,0,1-.379,1.081L26.934,67.61A1.321,1.321,0,0,1,26,68h6.829Z" transform="translate(168.071 1651.003)" fill="#fff"/>
    <path id="Path_17295" data-name="Path 17295" d="M4,67.811H14.571V53.275a1.321,1.321,0,1,1,2.643,0V67.811h6.343L17.611,35.7A19.928,19.928,0,0,0,4,54.511Z" transform="translate(161 1651.189)" fill="#fff"/>
    <path id="Path_17296" data-name="Path 17296" d="M29.138,68a1.321,1.321,0,0,1-.934-.387l-5.286-5.286a1.321,1.321,0,0,1-.379-1.081l2.2-19.749L23.357,42.6a1.321,1.321,0,0,1-.826.289,1.29,1.29,0,0,1-.2-.016,1.321,1.321,0,0,1-.9-.572L16.644,35.12l-.407.087L22.309,68Z" transform="translate(164.933 1651.003)" fill="#fff"/>
    <g id="Bag" transform="translate(209 1678)">
      <path id="Path_17298" data-name="Path 17298" d="M20,17h1.5V11.75A2.25,2.25,0,0,1,23.75,9.5h10.5a2.25,2.25,0,0,1,2.25,2.25V17H38V11.75A3.755,3.755,0,0,0,34.25,8H23.75A3.755,3.755,0,0,0,20,11.75Z" transform="translate(-4)" fill="#fff"/>
      <path id="Path_17300" data-name="Path 17300" d="M4,22.75v4.131L13.255,34H22V32.5A1.5,1.5,0,0,1,23.5,31h3A1.5,1.5,0,0,1,28,32.5V34h8.745L46,26.881V22.75a.75.75,0,0,0-.75-.75H4.75A.75.75,0,0,0,4,22.75Z" transform="translate(0 -3.5)" fill="#fff"/>
      <path id="Path_17301" data-name="Path 17301" d="M30,40h3v3H30Z" transform="translate(-6.5 -8)" fill="#fff"/>
      <path id="Path_17302" data-name="Path 17302" d="M4.75,52.757h40.5a.75.75,0,0,0,.75-.75V31.03L37.457,37.6a.745.745,0,0,1-.457.156H28v3a1.5,1.5,0,0,1-1.5,1.5h-3a1.5,1.5,0,0,1-1.5-1.5v-3H13a.745.745,0,0,1-.457-.156L4,31.03V52.007A.75.75,0,0,0,4.75,52.757Z" transform="translate(0 -5.757)" fill="#fff"/>
      <path id="Path_17303" data-name="Path 17303" d="M30,36h3v1.5H30Z" transform="translate(-6.5 -7)" fill="#fff"/>
    </g>
  </g>
</svg>
