<svg id="hook_1_" data-name="hook (1)" xmlns="http://www.w3.org/2000/svg" width="48.978" height="82.891" viewBox="0 0 48.978 82.891">
  <path id="Path_17125" data-name="Path 17125" d="M43.992,234.633c.558-.006,10.031-.017,10.031-.017V211.121l-9.694,4.263-9.73-4.278v9.862a20.65,20.65,0,0,0,9.713,38.852h.046A20.464,20.464,0,0,0,59.23,253.44l1.64-1.716L49.087,239.94l-1.716,1.795a4.172,4.172,0,0,1-3.043,1.3,4.209,4.209,0,0,1-.336-8.405Zm0,0" transform="translate(-19.84 -176.928)" fill="#fff"/>
  <path id="Path_17126" data-name="Path 17126" d="M8.066,5.882H0v16.5L24.489,33.15,48.978,22.382V5.882H40.911V0H36.054V5.882H12.923V0H8.066Zm0,0" fill="#fff"/>
</svg>
