<svg xmlns="http://www.w3.org/2000/svg" width="85.49" height="76.608" viewBox="0 0 85.49 76.608">
  <path id="Subtraction_57" data-name="Subtraction 57" d="M11095.539-3308.392h-.028a9.571,9.571,0,0,1-6.766-2.85,9.574,9.574,0,0,1-2.785-6.791v-7.137a1.525,1.525,0,0,0-1.479-1.543h-35.5l.382-52.038a6.3,6.3,0,0,1,6.342-6.249h52.121a10.031,10.031,0,0,0-2.8,6.8v60.188A9.561,9.561,0,0,1,11095.539-3308.392Zm-36.407-26.831a1.484,1.484,0,0,0-1.482,1.482,1.483,1.483,0,0,0,1.482,1.479h35.528a1.48,1.48,0,0,0,1.479-1.479,1.482,1.482,0,0,0-1.479-1.482Zm0-6.847a1.483,1.483,0,0,0-1.482,1.479,1.484,1.484,0,0,0,1.482,1.482h35.528a1.482,1.482,0,0,0,1.479-1.482,1.481,1.481,0,0,0-1.479-1.479Zm17.1-35.975a1.457,1.457,0,0,0-.647.151l-11.6,5.7a1.455,1.455,0,0,0-.787,1.329v10.575a11.522,11.522,0,0,0,4.6,8.77l7.634,5.217a1.457,1.457,0,0,0,.826.257,1.462,1.462,0,0,0,.826-.257l7.611-5.217a11.515,11.515,0,0,0,4.594-8.77v-10.559a1.453,1.453,0,0,0-.787-1.329l-11.622-5.716A1.438,1.438,0,0,0,11076.235-3378.045Zm11.2,69.653h-41.92a9.58,9.58,0,0,1-9.521-9.618v-5.741h47v5.716a12.453,12.453,0,0,0,3.659,8.893,2.452,2.452,0,0,0,.26.232l.011.008.006,0,.006.006a2.572,2.572,0,0,1,.494.5Zm-11.21-40.926h0l-6.769-4.65a8.547,8.547,0,0,1-3.3-6.322v-9.652l10.085-4.974,10.084,4.988v9.638a8.539,8.539,0,0,1-3.3,6.322l-6.8,4.65Zm-4.416-14.273a1.48,1.48,0,0,0-1.043.429,1.486,1.486,0,0,0-.009,2.1l2.981,3.012a1.491,1.491,0,0,0,1.047.444,1.482,1.482,0,0,0,1.052-.438l5.89-5.892a1.484,1.484,0,0,0,0-2.094,1.469,1.469,0,0,0-1.048-.436,1.47,1.47,0,0,0-1.046.433l-4.837,4.837-1.935-1.951A1.47,1.47,0,0,0,11071.813-3363.591Zm49.675-2.9h-13.507v-11.7a6.756,6.756,0,0,1,2-4.79,6.713,6.713,0,0,1,4.78-2.012h.042a6.714,6.714,0,0,1,4.742,2.012,6.73,6.73,0,0,1,1.938,4.77v11.72h0Z" transform="translate(-11035.999 3385)" fill="#fff"/>
</svg>
