<svg xmlns="http://www.w3.org/2000/svg" width="66.084" height="83" viewBox="0 0 66.084 83">
  <g id="umbrella_5_" data-name="umbrella (5)" transform="translate(-0.16 0)">
    <path id="Path_18222" data-name="Path 18222" d="M162.774,268.84a6.468,6.468,0,0,0,6.461-6.461v-3.742a6.461,6.461,0,1,0-12.922,0v3.742A6.468,6.468,0,0,0,162.774,268.84Zm0,0" transform="translate(-129.557 -209.226)" fill="#fff"/>
    <path id="Path_18223" data-name="Path 18223" d="M290.3,285.632v3.275a5.528,5.528,0,1,0,11.057,0v-3.275a5.528,5.528,0,1,0-11.057,0Zm0,0" transform="translate(-240.727 -232.371)" fill="#fff"/>
    <path id="Path_18224" data-name="Path 18224" d="M137.968,378.7a8.274,8.274,0,0,1-12.574-.029,7.4,7.4,0,0,0-6.714,7.367v11.139h25.741V386.035a7.407,7.407,0,0,0-6.453-7.338Zm0,0" transform="translate(-98.334 -314.174)" fill="#fff"/>
    <path id="Path_18225" data-name="Path 18225" d="M11.233,393.547a7.307,7.307,0,0,1-5.376-2.539,6.393,6.393,0,0,0-5.7,6.315v6.348H18.3v-7.4a9.4,9.4,0,0,1,1.073-4.379,6.313,6.313,0,0,0-2.408-.86,7.331,7.331,0,0,1-5.734,2.512Zm0,0" transform="translate(0 -324.412)" fill="#fff"/>
    <path id="Path_18226" data-name="Path 18226" d="M289.167,391.034a7.326,7.326,0,0,1-5.542,2.514c-.064,0-.128,0-.192,0a7.308,7.308,0,0,1-5.378-2.539,6.241,6.241,0,0,0-2.618.874,9.387,9.387,0,0,1,1.086,4.391v7.4h18.112v-6.348a6.357,6.357,0,0,0-5.47-6.288Zm0,0" transform="translate(-228.392 -324.412)" fill="#fff"/>
    <path id="Path_18227" data-name="Path 18227" d="M38.63,294.435a5.534,5.534,0,0,0,5.528-5.528v-3.275a5.528,5.528,0,1,0-11.057,0v3.275a5.536,5.536,0,0,0,5.529,5.528Zm0,0" transform="translate(-27.33 -232.371)" fill="#fff"/>
    <path id="Path_18228" data-name="Path 18228" d="M49.889,34.706a1.022,1.022,0,0,0,1.022-1.022A6.841,6.841,0,0,1,57.86,26.74h.034a6.965,6.965,0,0,1,4.895,1.994,12.882,12.882,0,0,1,2.044,4.414,1.022,1.022,0,0,0,2.01-.26v-.042A32.9,32.9,0,0,0,33.977,0h-.063A32.9,32.9,0,0,0,1.07,32.889a1.022,1.022,0,0,0,2.01.259,12.9,12.9,0,0,1,2.038-4.407,7.146,7.146,0,0,1,4.945-2H10.1a6.966,6.966,0,0,1,4.9,1.995A7.147,7.147,0,0,1,17,33.684a1.022,1.022,0,0,0,2.044,0A6.841,6.841,0,0,1,26,26.74h.034a6.964,6.964,0,0,1,4.9,1.994,7.147,7.147,0,0,1,2.01,4.95v4.744a1.022,1.022,0,1,0,2.044,0V33.683a6.84,6.84,0,0,1,6.949-6.944h.034a6.965,6.965,0,0,1,4.9,2,7.146,7.146,0,0,1,2.009,4.949,1.022,1.022,0,0,0,1.023,1.022Zm0,0" transform="translate(-0.755)" fill="#fff"/>
  </g>
</svg>
