<svg xmlns="http://www.w3.org/2000/svg" width="70" height="84.075" viewBox="0 0 70 84.075">
  <g id="house" transform="translate(-24.786)">
    <path id="Path_16321" data-name="Path 16321" d="M70.814,84.982a35.025,35.025,0,0,1,6.143.558V79.586H91.438V90.213a16.151,16.151,0,0,1,4.115,2.149,7.753,7.753,0,0,1,3.5,6.035,22.631,22.631,0,0,0,7.64-3.333c.808-.555,1.778-1.042,2.346-1.459V77.067L84.13,49.23l-25.346,28V87.243c1.7-.432,3.256-.9,5.056-1.387A26.662,26.662,0,0,1,70.814,84.982Z" transform="translate(-24.344 -35.251)" fill="#fff"/>
    <path id="Path_16322" data-name="Path 16322" d="M60.2,7.187,88.359,38.656h6.423L60.139,0,45.811,15.779V9.41H35.3V27.388L25.2,38.656h6.515Z" transform="translate(-0.297)" fill="#fff"/>
    <path id="Path_16323" data-name="Path 16323" d="M91.313,197.9c-1.56,0-3.66.693-6.329,2.527a29.156,29.156,0,0,1-16.308,4.83,22.745,22.745,0,0,1-11.423-2.711c-1.433-.86-1.429-1.147-.6-1.147,1.669,0,6.674,1.158,10.066,1.158,1.669,0,2.947-.28,3.246-1.117,1.382-3.87-3.976-5.116-9.577-7.383a38.35,38.35,0,0,0-13.874-2.914,22.063,22.063,0,0,0-5.773.715c-8.274,2.256-14.254,3.955-15.957,4.507v21.716c3.407-1.253,7.354-2.454,9.6-2.454,4.122,0,20.8,5.317,30.243,5.317a15.214,15.214,0,0,0,3.492-.342c8.015-1.935,21.93-13.267,25.706-17.136A3.247,3.247,0,0,0,91.313,197.9Z" transform="translate(0 -136.867)" fill="#fff"/>
  </g>
</svg>
