<svg xmlns="http://www.w3.org/2000/svg" width="64.042" height="82.891" viewBox="0 0 64.042 82.891">
  <g id="factory_1_" data-name="factory (1)" transform="translate(-47.74)">
    <path id="Path_17086" data-name="Path 17086" d="M73.645,20.735a4.079,4.079,0,0,0,3.759-2.5,6,6,0,0,0,5.757-4.9A6.67,6.67,0,0,0,87.539,1.954,6.67,6.67,0,0,0,76.161,6.333a6,6,0,0,0-4.813,6.959,4.116,4.116,0,0,0-.585.486,4.075,4.075,0,0,0,2.882,6.957Z" transform="translate(-17.52)" fill="#fff"/>
    <path id="Path_17087" data-name="Path 17087" d="M110.558,127.579a1.427,1.427,0,0,0-1.019.465L95.4,142.183v-13.21a1.271,1.271,0,0,0-1.224-1.395,1.427,1.427,0,0,0-1.019.465L79.2,142V128.973a1.271,1.271,0,0,0-1.224-1.395,1.428,1.428,0,0,0-1.019.465L64.561,140.438V122.364a1.976,1.976,0,0,0-1.974-1.974H49.714a1.976,1.976,0,0,0-1.974,1.974v55.176a1.976,1.976,0,0,0,1.974,1.974h60.094a1.976,1.976,0,0,0,1.974-1.974V128.973A1.271,1.271,0,0,0,110.558,127.579Zm-43.175,38.9H55.295V155.757H67.383V166.48Zm18.422,0H73.716V155.757H85.805Zm18.422,0H92.139V155.757h12.089Z" transform="translate(0 -96.624)" fill="#fff"/>
  </g>
</svg>
