<svg xmlns="http://www.w3.org/2000/svg" width="68.157" height="83" viewBox="0 0 68.157 83">
  <g id="engagement" transform="translate(0)">
    <path id="Path_17188" data-name="Path 17188" d="M58.317,0H9.84A9.851,9.851,0,0,0,0,9.839V44.074a9.851,9.851,0,0,0,9.839,9.84h1.53a24.243,24.243,0,0,1,13.5-14.07l5.177,4.126a18.7,18.7,0,0,0-12.693,9.944H50.8A18.7,18.7,0,0,0,38.111,43.97l5.177-4.126a24.245,24.245,0,0,1,13.5,14.07h1.529a9.851,9.851,0,0,0,9.84-9.84V9.839A9.851,9.851,0,0,0,58.317,0ZM33.068,39.335,22.993,31.3a1.621,1.621,0,0,1-.186-2.363L26.5,24.911a1.62,1.62,0,0,1,1.2-.526H40.462a1.622,1.622,0,0,1,1.2.526l3.692,4.031a1.621,1.621,0,0,1-.186,2.363l-10.075,8.03a1.622,1.622,0,0,1-2.021,0Zm0,0" transform="translate(0)" fill="#fff"/>
    <path id="Path_17189" data-name="Path 17189" d="M65.91,366.555H3.5A2.757,2.757,0,0,0,.75,369.308v10.648a10.188,10.188,0,0,0,10.177,10.177h47.56a10.189,10.189,0,0,0,10.177-10.177V369.308a2.757,2.757,0,0,0-2.754-2.753Zm0,0" transform="translate(-0.628 -307.133)" fill="#fff"/>
  </g>
</svg>
