<svg xmlns="http://www.w3.org/2000/svg" width="80.865" height="82.701" viewBox="0 0 80.865 82.701">
  <g id="settings_1_" data-name="settings (1)" transform="translate(-5.407 0)">
    <g id="XMLID_1749_" transform="translate(5.407 0)">
      <path id="XMLID_1708_" d="M158.851,146.825l-3.8-1.783a27.194,27.194,0,0,0,.51-11.125l3.94-1.427a2.866,2.866,0,0,0,1.715-3.669l-1.512-4.144a2.866,2.866,0,0,0-3.669-1.715l-3.94,1.427a27.034,27.034,0,0,0-7.524-8.2l1.783-3.8a2.875,2.875,0,0,0-1.376-3.8l-4.008-1.868a2.875,2.875,0,0,0-3.8,1.376l-1.783,3.838a26.84,26.84,0,0,0-8.169-.781l-.051,1.1a5.857,5.857,0,0,1-5.673,5.588,18.071,18.071,0,0,1-.815,1.749,5.643,5.643,0,0,1,.866,1.563,18.927,18.927,0,0,1,4.925-1.274A18.566,18.566,0,1,1,111.788,130.5,5.854,5.854,0,0,1,110,129.349c-.594.238-1.189.459-1.817.662a5.854,5.854,0,0,1-6.063,5.146l-.408-.017a27.049,27.049,0,0,0,.17,7.49l-4.11,1.495a2.866,2.866,0,0,0-1.715,3.669l1.512,4.144a2.866,2.866,0,0,0,3.669,1.715l4.11-1.495a27.063,27.063,0,0,0,7.422,8.135l-1.851,3.94a2.875,2.875,0,0,0,1.376,3.8l4.008,1.868a2.875,2.875,0,0,0,3.8-1.376l1.834-3.923a27,27,0,0,0,11.023.527l1.461,4.042a2.866,2.866,0,0,0,3.669,1.715l4.144-1.512a2.866,2.866,0,0,0,1.715-3.669L142.5,161.7a27.022,27.022,0,0,0,8.2-7.456l3.838,1.783a2.875,2.875,0,0,0,3.8-1.376l1.868-4.008A2.857,2.857,0,0,0,158.851,146.825Z" transform="translate(-80.521 -88.364)" fill="#fff"/>
      <path id="XMLID_1570_" d="M22.714,40.713V40.8a1.807,1.807,0,0,0,1.715,1.8l2.785.119A1.8,1.8,0,0,0,29.1,41l.119-2.65a17.131,17.131,0,0,0,6.59-2.378l1.783,1.953a1.817,1.817,0,0,0,2.548.119l2.055-1.885a1.809,1.809,0,0,0,.1-2.548l-1.783-1.953a16.965,16.965,0,0,0,2.955-6.352l2.65.119A1.8,1.8,0,0,0,48,23.712l.119-2.785v-.085a1.807,1.807,0,0,0-1.715-1.8l-2.666-.119a16.941,16.941,0,0,0-2.412-6.556l1.987-1.817A1.809,1.809,0,0,0,43.417,8L41.532,5.947a1.817,1.817,0,0,0-2.548-.119l-2,1.834a17.134,17.134,0,0,0-6.318-2.921l.119-2.734V1.922a1.807,1.807,0,0,0-1.715-1.8L26.28,0A1.8,1.8,0,0,0,24.4,1.718l-.119,2.751a16.927,16.927,0,0,0-6.522,2.378L15.937,4.809A1.817,1.817,0,0,0,13.39,4.69L11.334,6.575a1.809,1.809,0,0,0-.1,2.548L13.1,11.161a16.9,16.9,0,0,0-2.938,6.284l-2.751-.119a1.8,1.8,0,0,0-1.885,1.715L5.407,21.81v.085a1.807,1.807,0,0,0,1.715,1.8l2.734.119a16.872,16.872,0,0,0,2.361,6.539l-2,1.834a1.809,1.809,0,0,0-.1,2.548L12,36.79a1.817,1.817,0,0,0,2.548.119l1.987-1.817a16.98,16.98,0,0,0,6.318,2.972Zm-2.8-13.095a9.29,9.29,0,1,1,13.112.577A9.245,9.245,0,0,1,19.911,27.619Z" transform="translate(-5.407 0)" fill="#fff"/>
      <path id="XMLID_660_" d="M221.464,212.814a13.757,13.757,0,1,0,13.757,13.757A13.754,13.754,0,0,0,221.464,212.814Zm0,9.273a4.48,4.48,0,0,0-4.484,4.484,2.055,2.055,0,1,1-4.11,0,8.6,8.6,0,0,1,8.594-8.594,2.055,2.055,0,1,1,0,4.11Z" transform="translate(-173.348 -176.669)" fill="#fff"/>
    </g>
  </g>
</svg>
