<svg xmlns="http://www.w3.org/2000/svg" width="97.001" height="86.783" viewBox="0 0 97.001 86.783">
  <g id="Group_2142" data-name="Group 2142" transform="translate(-736 -1525.002)">
    <path id="Subtraction_38" data-name="Subtraction 38" d="M11122.5-3298.216H11046.5a10.373,10.373,0,0,1-9.075-5.239,10.383,10.383,0,0,1,0-10.481l38.009-65.824a10.364,10.364,0,0,1,9.072-5.239,10.376,10.376,0,0,1,9.078,5.239L11101-3366.9a1.37,1.37,0,0,1,.156.4c.483.789.95,1.569,1.426,2.384q.457.783.924,1.589l.206.354.052.089a1.553,1.553,0,0,1,.117.173l27.7,47.972a10.369,10.369,0,0,1,0,10.478A10.372,10.372,0,0,1,11122.5-3298.216Zm-63.4-10.564a1.444,1.444,0,0,0-1.442,1.442,1.443,1.443,0,0,0,1.442,1.439h63.4a2.7,2.7,0,0,0,2.423-1.4,2.691,2.691,0,0,0,0-2.8l-38-65.821a2.7,2.7,0,0,0-2.423-1.4,2.7,2.7,0,0,0-2.422,1.4l-38,65.821a2.71,2.71,0,0,0,0,2.8,2.713,2.713,0,0,0,2.423,1.4h6.843a1.443,1.443,0,0,0,1.442-1.439,1.444,1.444,0,0,0-1.442-1.442h-6.7l37.857-65.573,37.86,65.573Zm29.964-52.957a1.443,1.443,0,0,0-1.179.612l-16.9,24.1a1.445,1.445,0,0,0-.1,1.492,1.437,1.437,0,0,0,1.277.777h8.628l-3.291,22.518a1.435,1.435,0,0,0,.874,1.537,1.41,1.41,0,0,0,.551.112,1.449,1.449,0,0,0,1.156-.581l18.012-24.164a1.441,1.441,0,0,0,.134-1.509,1.438,1.438,0,0,0-1.288-.793h-8.069l1.629-22.557a1.44,1.44,0,0,0-.953-1.461A1.434,1.434,0,0,0,11089.068-3361.738Zm-7.885,44.278h0l2.707-18.527a1.431,1.431,0,0,0-.336-1.151,1.441,1.441,0,0,0-1.09-.5h-7.524l12.319-17.567-1.366,18.9a1.449,1.449,0,0,0,.383,1.087,1.446,1.446,0,0,0,1.054.458h6.745Z" transform="translate(-10300.001 4910.001)" fill="#fff"/>
  </g>
</svg>
