<svg xmlns="http://www.w3.org/2000/svg" width="77.964" height="104.113" viewBox="0 0 77.964 104.113">
  <g id="Group_2112" data-name="Group 2112" transform="translate(-1025.721 -1229.996)">
    <g id="warehouse" transform="translate(1050.294 1264.633)">
      <path id="Path_17172" data-name="Path 17172" d="M40.095,16.239l-11.674-4.12a2.033,2.033,0,0,0-1.373,0l-11.674,4.12A2.056,2.056,0,0,0,14,18.181v9.27c0,11.512,12.377,17.1,12.9,17.335a2.058,2.058,0,0,0,1.665,0c.525-.231,12.9-5.823,12.9-17.335v-9.27A2.056,2.056,0,0,0,40.095,16.239Zm-4.823,9.71L28.094,33.4a2.061,2.061,0,0,1-1.483.629h-.058a2.067,2.067,0,0,1-1.505-.717l-3.81-4.436a2.062,2.062,0,0,1,3.129-2.686L26.7,28.9l5.606-5.818a2.06,2.06,0,1,1,2.964,2.862Z" transform="translate(-14 -11.999)" fill="#fff"/>
    </g>
    <g id="Group_2110" data-name="Group 2110" transform="matrix(-0.454, -0.891, 0.891, -0.454, 1042.554, 1339.158)">
      <rect id="Rectangle_738" data-name="Rectangle 738" width="21.324" height="8.192" transform="translate(17.827 0) rotate(25.467)" fill="#fff"/>
      <path id="Path_17178" data-name="Path 17178" d="M15.9,1.705c0-.046-.009-.092-.017-.138L15.612,0,28.571,6.172a15.218,15.218,0,0,1-5.509,14.462l-.9.719a13.4,13.4,0,0,0-3.693,4.664l-4.311,9.052a6.064,6.064,0,0,1-6.732,3.317l6.414-13.467a1.4,1.4,0,1,0-2.53-1.205L4.226,38.594a1.4,1.4,0,0,0,.663,1.868,8.864,8.864,0,0,0,1.69.6l.3,12.3c0,.012,0,.024,0,.037a4.218,4.218,0,0,1-2.525,4.084L0,30.016a15.7,15.7,0,0,1,2.908-9.21L14.158,7.193A7.677,7.677,0,0,0,15.9,1.705Z" transform="translate(0 11.122)" fill="#fff"/>
    </g>
    <g id="Group_2111" data-name="Group 2111" transform="matrix(0.454, 0.891, -0.891, 0.454, 1086.851, 1224.946)">
      <rect id="Rectangle_738-2" data-name="Rectangle 738" width="21.324" height="8.192" transform="translate(17.827 0) rotate(25.467)" fill="#fff"/>
      <path id="Path_17178-2" data-name="Path 17178" d="M15.9,1.705c0-.046-.009-.092-.017-.138L15.612,0,28.571,6.172a15.218,15.218,0,0,1-5.509,14.462l-.9.719a13.4,13.4,0,0,0-3.693,4.664l-4.311,9.052a6.064,6.064,0,0,1-6.733,3.317l6.414-13.467a1.4,1.4,0,1,0-2.53-1.205L4.226,38.594a1.4,1.4,0,0,0,.663,1.868,8.865,8.865,0,0,0,1.69.6l.3,12.3c0,.012,0,.024,0,.037a4.218,4.218,0,0,1-2.525,4.084L0,30.016a15.7,15.7,0,0,1,2.908-9.21L14.158,7.193A7.676,7.676,0,0,0,15.9,1.705Z" transform="translate(0 11.122)" fill="#fff"/>
    </g>
  </g>
</svg>
