<svg xmlns="http://www.w3.org/2000/svg" width="84.347" height="59.306" viewBox="0 0 84.347 59.306">
  <g id="motorcycle" transform="translate(0 -76)">
    <g id="Group_2090" data-name="Group 2090" transform="translate(0 76)">
      <path id="Path_17060" data-name="Path 17060" d="M69.52,105.653a15.192,15.192,0,0,0-6.074,1.335l-2.254-3.362a21.522,21.522,0,0,1,10.8-2.915,2.47,2.47,0,0,0,2.471-2.471V93.3A17.319,17.319,0,0,0,57.165,76H52.222a2.471,2.471,0,1,0,0,4.942h2.471v4.942H47.28a2.472,2.472,0,0,0-2.056,1.1l-2.561,3.842H21.914l-1.24-1.861a6.9,6.9,0,0,0-5.755-3.082H2.471A2.47,2.47,0,0,0,0,88.355a12.375,12.375,0,0,0,10.982,12.281l3.377,5.064a14.806,14.806,0,1,0,14.41,19.721H43.634a6.936,6.936,0,0,0,6.783-5.562l.35-1.75a21.5,21.5,0,0,1,6.488-11.485l2.094,3.122a14.786,14.786,0,1,0,10.172-4.093ZM14.827,125.405h8.543a9.874,9.874,0,1,1-8.543-14.81,9.788,9.788,0,0,1,3.174.565l.864,1.3a6.9,6.9,0,0,0,5.755,3.082H14.827a4.934,4.934,0,1,0,0,9.868Zm54.694,4.959a10,10,0,0,1-9.884-9.884,9.719,9.719,0,0,1,2.536-6.523l5.3,7.9a2.47,2.47,0,1,0,4.1-2.751l-5.3-7.9a8.7,8.7,0,0,1,3.247-.609,9.884,9.884,0,0,1,0,19.769Z" transform="translate(0 -76)" fill="#fff"/>
    </g>
  </g>
</svg>
