<svg xmlns="http://www.w3.org/2000/svg" width="92.431" height="83.674" viewBox="0 0 92.431 83.674">
  <g id="officers" transform="translate(-5.839 -38.709)">
    <path id="Path_17191" data-name="Path 17191" d="M228.037,85.987a7.57,7.57,0,1,0,7.57-7.57A7.579,7.579,0,0,0,228.037,85.987Z" transform="translate(-150.216 -26.844)" fill="#fff"/>
    <path id="Path_17192" data-name="Path 17192" d="M232.277,131.469l-1.925-.591a2.266,2.266,0,0,0-2.019.352l-3.8,2.848-3.8-2.848a2.264,2.264,0,0,0-2.019-.352l-1.925.591a7.5,7.5,0,0,0-5.131,7.119v11.445a2.257,2.257,0,0,0,.372,1.242l3.838,5.841v15.34a2.262,2.262,0,0,0,2.262,2.262h12.813a2.262,2.262,0,0,0,2.262-2.262v-15.34l3.838-5.841a2.261,2.261,0,0,0,.372-1.242V138.588a7.5,7.5,0,0,0-5.131-7.119Z" transform="translate(-139.139 -62.243)" fill="#fff"/>
    <path id="Path_17193" data-name="Path 17193" d="M29.795,93.558a7.57,7.57,0,1,0-7.571-7.57A7.579,7.579,0,0,0,29.795,93.558Z" transform="translate(-11.077 -26.844)" fill="#fff"/>
    <path id="Path_17194" data-name="Path 17194" d="M26.465,131.469l-1.925-.591a2.266,2.266,0,0,0-2.019.352l-3.8,2.848-3.8-2.848a2.264,2.264,0,0,0-2.019-.352l-1.925.591a7.5,7.5,0,0,0-5.131,7.119v11.445a2.257,2.257,0,0,0,.372,1.242l3.838,5.841v15.34a2.262,2.262,0,0,0,2.262,2.262H25.124a2.262,2.262,0,0,0,2.262-2.262v-15.34l3.838-5.841a2.261,2.261,0,0,0,.372-1.242V138.588A7.5,7.5,0,0,0,26.465,131.469Z" transform="translate(0 -62.243)" fill="#fff"/>
    <path id="Path_17195" data-name="Path 17195" d="M137.887,48.474a9.765,9.765,0,1,0-9.765,9.765A9.776,9.776,0,0,0,137.887,48.474Z" transform="translate(-76.068)" fill="#fff"/>
    <path id="Path_17196" data-name="Path 17196" d="M124.491,111.725l-.016-.005-2.787-.855a.866.866,0,0,0-1.067.531l-5.86,16.079a1.058,1.058,0,0,1-1.988,0l-5.86-16.079a.865.865,0,0,0-.812-.57c-.084,0-3.039.893-3.039.893a8.651,8.651,0,0,0-5.939,8.219v17.009a.867.867,0,0,0,.142.475l6.115,9.305v23.545a.865.865,0,0,0,.866.866h19.043a.865.865,0,0,0,.866-.866V146.727l6.115-9.305a.867.867,0,0,0,.142-.475V119.892a8.6,8.6,0,0,0-5.919-8.168Z" transform="translate(-61.712 -48.754)" fill="#fff"/>
    <path id="Path_17197" data-name="Path 17197" d="M145.324,111.729a1.29,1.29,0,0,0-.954-.4H141.7a1.291,1.291,0,0,0-.954.4,1.239,1.239,0,0,0-.163,1.459l1.428,2.152-.668,5.638,1.316,3.5a.4.4,0,0,0,.755,0l1.316-3.5-.668-5.638,1.428-2.152a1.238,1.238,0,0,0-.163-1.459Z" transform="translate(-90.98 -49.097)" fill="#fff"/>
  </g>
</svg>
