<svg xmlns="http://www.w3.org/2000/svg" width="69.6" height="82.678" viewBox="0 0 69.6 82.678">
  <g id="water-energy" transform="translate(-40.496)">
    <g id="Group_2109" data-name="Group 2109" transform="translate(40.496)">
      <path id="Path_17170" data-name="Path 17170" d="M100.347,24.271,76.312.421a1.451,1.451,0,0,0-2.044,0L50.241,24.276a33.407,33.407,0,0,0,0,47.166L51.7,72.9a33.36,33.36,0,0,0,47.195,0l1.458-1.458A33.409,33.409,0,0,0,100.347,24.271ZM86.753,28.208l-3.3,6.6H84a1.45,1.45,0,0,1,1.268,2.154l-6.054,10.9H81.1a1.45,1.45,0,0,1,1.141,2.347L66.29,70.52a1.451,1.451,0,0,1-1.141.554,1.428,1.428,0,0,1-.651-.155,1.45,1.45,0,0,1-.747-1.677L67.6,55.119H65.148a1.452,1.452,0,0,1-1.3-2.1l4.752-9.5h-2a1.45,1.45,0,0,1-1.243-2.2l8.7-14.506a1.45,1.45,0,0,1,1.243-.7H85.455a1.451,1.451,0,0,1,1.3,2.1Z" transform="translate(-40.496 0)" fill="#fff"/>
    </g>
  </g>
</svg>
