<svg xmlns="http://www.w3.org/2000/svg" width="84.347" height="68.883" viewBox="0 0 84.347 68.883">
  <g id="tractor_1_" data-name="tractor (1)" transform="translate(0 -46.934)">
    <g id="Group_2096" data-name="Group 2096" transform="translate(0 46.934)">
      <g id="Group_2095" data-name="Group 2095" transform="translate(0 0)">
        <path id="Path_17081" data-name="Path 17081" d="M405.285,354.134a4.217,4.217,0,1,0,4.217,4.217A4.223,4.223,0,0,0,405.285,354.134Z" transform="translate(-334.996 -303.526)" fill="#fff"/>
        <path id="Path_17082" data-name="Path 17082" d="M368.047,304.241h-.172a18.262,18.262,0,0,0-1.171-2.352l.007-.007a1.407,1.407,0,0,0,0-1.988l-2.753-2.752a1.447,1.447,0,0,0-1.988,0l-.007.006a18.044,18.044,0,0,0-2.352-1.168v-.173a1.405,1.405,0,0,0-1.406-1.406h-5.623a1.405,1.405,0,0,0-1.406,1.406v.173a18.048,18.048,0,0,0-2.352,1.168l-.007-.006a1.405,1.405,0,0,0-1.988,0l-2.753,2.752a1.407,1.407,0,0,0,0,1.988l.007.007a18.246,18.246,0,0,0-1.171,2.352h-.172a1.405,1.405,0,0,0-1.406,1.406v5.623a1.405,1.405,0,0,0,1.406,1.406h.172a18.25,18.25,0,0,0,1.171,2.352l-.007.007a1.407,1.407,0,0,0,0,1.988l2.753,2.752a1.407,1.407,0,0,0,1.988,0l.007-.007a17.884,17.884,0,0,0,2.352,1.17v.173a1.405,1.405,0,0,0,1.406,1.406h5.623a1.405,1.405,0,0,0,1.406-1.406v-.173a17.881,17.881,0,0,0,2.352-1.17l.007.007a1.407,1.407,0,0,0,1.988,0l2.753-2.752a1.407,1.407,0,0,0,0-1.988l-.007-.007a18.243,18.243,0,0,0,1.171-2.352h.172a1.405,1.405,0,0,0,1.406-1.406v-5.623A1.405,1.405,0,0,0,368.047,304.241ZM355.4,315.487a7.029,7.029,0,1,1,7.029-7.029A7.037,7.037,0,0,1,355.4,315.487Z" transform="translate(-285.106 -253.633)" fill="#fff"/>
        <path id="Path_17083" data-name="Path 17083" d="M48.291,354.134a5.623,5.623,0,1,0,5.623,5.623A5.629,5.629,0,0,0,48.291,354.134Z" transform="translate(-35.639 -303.526)" fill="#fff"/>
        <rect id="Rectangle_731" data-name="Rectangle 731" width="11.246" height="14.058" transform="translate(64.666 8.434)" fill="#fff"/>
        <path id="Path_17084" data-name="Path 17084" d="M57.073,91.306a17.085,17.085,0,0,1,2.587-2.63c.138-.113.285-.212.427-.319.318-.245.641-.482.974-.7.221-.146.451-.278.679-.413.274-.162.548-.319.829-.465.253-.131.509-.253.769-.371q.422-.19.853-.357c.26-.1.523-.2.789-.29.313-.1.633-.193.952-.278.252-.068.5-.138.756-.194.375-.082.758-.141,1.14-.2.211-.031.417-.073.631-.1a16.789,16.789,0,0,1,1.829-.1c.479,0,.954.028,1.427.068.173.015.346.035.517.056.287.032.571.074.855.122.218.038.437.072.655.117.167.035.33.082.5.121a16.865,16.865,0,0,1,1.726.513l.127.044a17.063,17.063,0,0,1,3.157,1.556c.02.011.044.011.063.022a17.059,17.059,0,0,1,2.651,2.074,1.405,1.405,0,1,0,1.946-2.028,19.748,19.748,0,0,0-2.17-1.777l2.5-5.968a1.406,1.406,0,0,0,.108-.543V48.34a1.405,1.405,0,0,0-1.406-1.406H43.579a1.405,1.405,0,0,0-1.406,1.406v4.217H57.637a1.405,1.405,0,0,1,1.406,1.406V70.832a1.405,1.405,0,0,1-1.406,1.406h-23.9V63.8A1.405,1.405,0,0,0,32.333,62.4H30.927V58.18a2.814,2.814,0,0,1,2.812-2.812,1.406,1.406,0,1,0,0-2.811,5.629,5.629,0,0,0-5.623,5.623V62.4H26.71A1.405,1.405,0,0,0,25.3,63.8v8.435H11.246a7.037,7.037,0,0,0-7.029,7.029v14.5a12.64,12.64,0,1,0,20.76,12.215h26.1a19.573,19.573,0,0,0,1.046,3.361,1.406,1.406,0,0,0,2.595-1.084,16.762,16.762,0,0,1-1.075-3.88.076.076,0,0,0,0-.018c-.072-.46-.122-.881-.159-1.286-.032-.436-.063-.87-.063-1.31s.032-.9.068-1.344c.037-.4.086-.8.155-1.253a16.876,16.876,0,0,1,2.124-5.944c.038-.063.077-.125.115-.188a16.724,16.724,0,0,1,1.057-1.544C56.984,91.427,57.027,91.365,57.073,91.306Zm4.781-37.343a1.405,1.405,0,0,1,1.406-1.406H77.318a1.405,1.405,0,0,1,1.406,1.406V70.832a1.405,1.405,0,0,1-1.406,1.406H63.26a1.405,1.405,0,0,1-1.406-1.406ZM40.768,91.919H47.8a1.406,1.406,0,1,1,0,2.811H40.768a1.406,1.406,0,1,1,0-2.811Zm-12.652-9.84V65.209h2.812V86.3H28.116ZM22.407,104.4s0,0,0,0A9.836,9.836,0,1,1,6.572,95.443a10.063,10.063,0,0,1,1.239-.835c.039-.023.076-.048.114-.069a9.687,9.687,0,0,1,1.292-.583c.105-.039.209-.08.315-.115a9.643,9.643,0,0,1,1.336-.346c.1-.018.2-.031.3-.046a9.963,9.963,0,0,1,1.482-.124,9.923,9.923,0,0,1,1.314.1c.117.015.235.034.35.053a9.6,9.6,0,0,1,1.1.252c.087.025.174.051.26.079a9.979,9.979,0,0,1,1.007.392c.15.069.3.139.444.215.25.128.492.269.73.417q.293.183.571.387c.216.158.426.321.628.495q.2.177.4.363a9.941,9.941,0,0,1,.7.74c.08.1.157.2.235.294a9.839,9.839,0,0,1,.616.886c.053.084.107.169.156.256a10.055,10.055,0,0,1,.6,1.208c.02.048.034.1.053.143.1.247.185.495.261.746.022.076.038.153.059.229.062.226.122.451.169.68.028.143.044.29.066.433.025.169.056.336.073.506.031.318.049.641.049.969A10,10,0,0,1,22.407,104.4ZM7.029,80.673V79.267a4.223,4.223,0,0,1,4.217-4.217H25.3v5.623H7.029Zm43.639,22.492H25.3a12.8,12.8,0,0,0-.076-1.361c-.014-.124-.039-.245-.056-.367-.045-.332-.1-.661-.167-.984-.008-.034-.01-.068-.018-.1H50.669c-.041.488-.06.953-.06,1.406S50.628,102.677,50.668,103.165Zm1.345-14.058H44.985a1.406,1.406,0,1,1,0-2.811h7.029a1.406,1.406,0,1,1,0,2.811Z" transform="translate(0 -46.934)" fill="#fff"/>
        <rect id="Rectangle_732" data-name="Rectangle 732" width="14.058" height="14.058" transform="translate(42.173 8.434)" fill="#fff"/>
      </g>
    </g>
  </g>
</svg>
