<svg xmlns="http://www.w3.org/2000/svg" width="70" height="70" viewBox="0 0 70 70">
  <path id="Exclusion_1" data-name="Exclusion 1" d="M35,70A35.009,35.009,0,0,1,21.376,2.75a35.009,35.009,0,0,1,27.247,64.5A34.781,34.781,0,0,1,35,70ZM22.7,13.506a.834.834,0,0,0-.823.823V27.713a12.1,12.1,0,0,0,3.589,8.6,11.967,11.967,0,0,0,8.524,3.514h.224V50.668a44.033,44.033,0,0,0-7.1.673c-2.471.463-3.889,1.308-3.889,2.317s1.417,1.855,3.889,2.318a45.765,45.765,0,0,0,7.925.672,39.132,39.132,0,0,0,7.926-.672c2.471-.464,3.888-1.309,3.888-2.318s-1.417-1.855-3.888-2.317a44.05,44.05,0,0,0-7.1-.673V39.826h.224a12.1,12.1,0,0,0,8.6-3.589,12.259,12.259,0,0,0,3.588-8.6V14.329a.833.833,0,0,0-.822-.823Zm12.337,41.5a42.631,42.631,0,0,1-7.627-.6,6.562,6.562,0,0,1-2.542-.748c0-.142.875-.351,2.324-.7l.218-.052a33.832,33.832,0,0,1,6.8-.6v1.345a.823.823,0,1,0,1.645,0V52.313a34.948,34.948,0,0,1,6.8.6,6.6,6.6,0,0,1,2.542.748c0,.144-.889.355-2.363.705l-.18.043A42.631,42.631,0,0,1,35.041,55.005Zm1.121-16.749H34.069a10.4,10.4,0,0,1-7.4-3.066,10.541,10.541,0,0,1-3.065-7.4V15.151h8.673l-3.589,5.608a.891.891,0,0,0-.1.67.722.722,0,0,0,.325.451,1.068,1.068,0,0,0,.448.149h4.561l-2.393,5.982a.929.929,0,0,0,0,.635.929.929,0,0,0,.764.486.725.725,0,0,0,.582-.3l8.972-9.72a.744.744,0,0,0,.215-.568.755.755,0,0,0-.29-.553.8.8,0,0,0-.523-.224H37.658l1.57-2.543h7.4V27.787a10.4,10.4,0,0,1-3.066,7.4A10.541,10.541,0,0,1,36.162,38.256ZM34.671,24.419h0l1.119-2.836a.565.565,0,0,0,.075-.374.834.834,0,0,0-.823-.823H30.779l3.364-5.233h3.141L35.49,18.067l0,.005a1.055,1.055,0,0,0-.148.443.834.834,0,0,0,.823.823h3.216Z" fill="#fff"/>
</svg>
