<svg xmlns="http://www.w3.org/2000/svg" width="96" height="96.449" viewBox="0 0 96 96.449">
  <g id="Group_2145" data-name="Group 2145" transform="translate(-909 -1516.551)">
    <g id="Group_2144" data-name="Group 2144">
      <path id="Subtraction_39" data-name="Subtraction 39" d="M11050-3371h-14v-14h14v14Zm-7.856-9.249a1.593,1.593,0,0,0-1.592,1.592v1.592a1.593,1.593,0,0,0,1.592,1.592h1.592a1.593,1.593,0,0,0,1.592-1.592v-1.592a1.593,1.593,0,0,0-1.592-1.592Z" transform="translate(-10122 4963)" fill="#fff"/>
      <path id="Subtraction_41" data-name="Subtraction 41" d="M11107.646-3292.659h-39.8V-3303.8h39.8v11.142Zm-6.372-7.961a1.594,1.594,0,0,0-1.59,1.595v1.59a1.592,1.592,0,0,0,1.59,1.592h1.595a1.594,1.594,0,0,0,1.593-1.592v-1.59a1.6,1.6,0,0,0-1.593-1.595Zm-9.551,0a1.6,1.6,0,0,0-1.592,1.595v1.59a1.594,1.594,0,0,0,1.592,1.592h1.593a1.594,1.594,0,0,0,1.592-1.592v-1.59a1.6,1.6,0,0,0-1.592-1.595Zm-9.553,0a1.594,1.594,0,0,0-1.59,1.595v1.59a1.592,1.592,0,0,0,1.59,1.592h1.592a1.594,1.594,0,0,0,1.593-1.592v-1.59a1.6,1.6,0,0,0-1.593-1.595Zm-9.551,0a1.6,1.6,0,0,0-1.595,1.595v1.59a1.6,1.6,0,0,0,1.595,1.592h1.593a1.592,1.592,0,0,0,1.589-1.592v-1.59a1.594,1.594,0,0,0-1.589-1.595Zm29.984-6.366h-29.722l2.336-15.186,27.258,14.344.128.841Zm-.73-4.754h0l-23.991-12.628,20.657-9.037,3.335,21.664Zm-25.91-15.264v0l2.674-17.381,17.294,8.647-19.967,8.736Zm21.812-11.377h0l-16.819-8.406,14.419-7.208,2.4,15.613Zm-18.337-11.209v0l1.754-11.406,11.485,4.788-13.238,6.619Zm15.188-9.258h0l-12.935-5.392.254-1.654h11.6l1.085,7.045Z" transform="translate(-10106.302 4902.474)" fill="#fff"/>
      <g id="Group_2143" data-name="Group 2143" transform="translate(929.698 1517.474)">
        <rect id="Rectangle_743" data-name="Rectangle 743" width="19" height="13" transform="translate(2.302 38.526)" fill="none"/>
        <g id="Group_2068" data-name="Group 2068" transform="translate(0 0)">
          <path id="Path_16962" data-name="Path 16962" d="M177.241,9.554H164.5V1.594a1.591,1.591,0,0,0-1.9-1.562L113.252,9.584l.006.03a1.569,1.569,0,0,0-1.295,1.532v6.368a1.591,1.591,0,0,0,1.59,1.592h0V30.252h-3.184a1.591,1.591,0,0,0-1.592,1.59V36.62H105.6A1.591,1.591,0,0,0,104,38.211V50.949a1.591,1.591,0,0,0,1.59,1.592H124.7a1.591,1.591,0,0,0,1.592-1.59V38.212a1.591,1.591,0,0,0-1.59-1.592h-3.186V31.844a1.591,1.591,0,0,0-1.59-1.592H116.74V19.107h29.986l-9.063,58.908h-3.41a1.591,1.591,0,0,0-1.592,1.59V93.936a1.591,1.591,0,0,0,1.59,1.592h42.988a1.591,1.591,0,0,0,1.592-1.59V79.607a1.591,1.591,0,0,0-1.59-1.592h-3.412l-9.063-58.908h12.473a1.591,1.591,0,0,0,1.592-1.59v-6.37A1.591,1.591,0,0,0,177.241,9.554ZM161.318,3.523V9.554H130.158ZM123.108,39.8v9.553H107.187V39.8Zm-4.776-6.368V36.62h-6.368V33.436Zm28.307,7.177,17.3,8.647L143.965,58Zm14.04-11.823-13.24,6.621L149.194,24Zm-10.986-8.029.255-1.654h11.6l1.084,7.047ZM175.647,81.2V92.343h-39.8V81.2Zm-5.041-3.184H140.885l2.336-15.184,27.256,14.344Zm-.731-4.754L145.882,60.634l20.66-9.039Zm-4.1-26.638-16.82-8.41L163.375,31Zm9.87-30.7h-60.5V12.739h60.5Z" transform="translate(-104.003 -0.002)" fill="none"/>
        </g>
      </g>
      <path id="Subtraction_42" data-name="Subtraction 42" d="M11055.93-3365.742h0l-6.731-3.636-5.118,1.885L11036-3385h42.148l-8.889,17.507-5.385-1.885-7.946,3.636Zm-13.373-9.862v2h13v-2Zm0-3v2h15v-2Zm0-3v2h18v-2Z" transform="translate(-10125.557 4977.603)" fill="#fff"/>
      <g id="Group_2071" data-name="Group 2071" transform="translate(909 1576.382)">
        <g id="Group_2070" data-name="Group 2070" transform="translate(0)">
          <path id="Path_16963" data-name="Path 16963" d="M44.83,311.078a1.592,1.592,0,0,0-1.35-.748H20.7V297.593A1.591,1.591,0,0,0,19.108,296H4.777a1.591,1.591,0,0,0-1.592,1.59V310.33H1.593a1.592,1.592,0,0,0-1.446,2.259l7.751,16.8a3.529,3.529,0,0,1-.471.049,3.592,3.592,0,0,1-2.676-1.208A6.631,6.631,0,0,0,0,326.251v3.184a3.592,3.592,0,0,1,2.676,1.208,6.7,6.7,0,0,0,9.47.029l.029-.029a3.566,3.566,0,0,1,5.35,0,6.7,6.7,0,0,0,9.473.028l.027-.027a3.578,3.578,0,0,1,5.364,0,6.71,6.71,0,0,0,9.489.019l.019-.019a3.6,3.6,0,0,1,2.682-1.21v-3.184a6.64,6.64,0,0,0-4.753,1.975,3.26,3.26,0,0,1-3.063,1.17l8.149-16.779A1.591,1.591,0,0,0,44.83,311.078ZM6.369,299.185H17.514V310.33H6.369Zm27.617,28.643a6.282,6.282,0,0,0-4.279-1.577,6.632,6.632,0,0,0-4.751,1.975,3.569,3.569,0,0,1-5.355,0,6.631,6.631,0,0,0-4.75-1.976,6.231,6.231,0,0,0-4.193,1.515L4.081,313.514H40.937Z" transform="translate(0 -296.001)" fill="#fff"/>
        </g>
      </g>
      <rect id="Rectangle_745" data-name="Rectangle 745" width="68" height="10" rx="2" transform="translate(937 1527)" fill="#fff"/>
      <path id="Path_17280" data-name="Path 17280" d="M-10047.308,4913.207v-9.8l-48.709,10.314" transform="translate(11036 -3385)" fill="none" stroke="#fff" stroke-width="3"/>
      <g id="Rectangle_746" data-name="Rectangle 746" transform="translate(930 1554)" fill="none" stroke="#fff" stroke-width="3">
        <rect width="22" height="16" rx="2" stroke="none"/>
        <rect x="1.5" y="1.5" width="19" height="13" rx="0.5" fill="none"/>
      </g>
      <g id="Rectangle_747" data-name="Rectangle 747" transform="translate(934 1548)" fill="none" stroke="#fff" stroke-width="3">
        <rect width="13" height="8" rx="2" stroke="none"/>
        <rect x="1.5" y="1.5" width="10" height="5" rx="0.5" fill="none"/>
      </g>
      <path id="Path_17281" data-name="Path 17281" d="M-10095.387,4920.96v13.634" transform="translate(11036 -3385)" fill="none" stroke="#fff" stroke-width="3"/>
    </g>
  </g>
</svg>
