<svg xmlns="http://www.w3.org/2000/svg" width="83.664" height="88.303" viewBox="0 0 83.664 88.303">
  <g id="Group_2137" data-name="Group 2137" transform="translate(-299.514 -1548.638)">
    <g id="Group_2136" data-name="Group 2136">
      <g id="Group_2135" data-name="Group 2135">
        <g id="accident_3_" data-name="accident (3)" transform="translate(259.135 1499.89)">
          <g id="Group_2031" data-name="Group 2031" transform="translate(40.379 134.145)">
            <g id="Group_2030" data-name="Group 2030" transform="translate(0)">
              <path id="Path_16933" data-name="Path 16933" d="M82.27,443.97H1.394a1.454,1.454,0,0,0,0,2.905H82.27a1.454,1.454,0,0,0,0-2.905Z" transform="translate(0 -443.97)" fill="#fff"/>
            </g>
          </g>
          <g id="Group_2033" data-name="Group 2033" transform="translate(42.031 109.148)">
            <g id="Group_2032" data-name="Group 2032" transform="translate(0 0)">
              <path id="Path_16934" data-name="Path 16934" d="M68.11,337.284a1.718,1.718,0,0,0-1.388-1.17l-4.875-.708-2.178-4.417a1.718,1.718,0,0,0-3.08,0l-2.177,4.417-4.879.711a1.718,1.718,0,0,0-.952,2.92l3.527,3.436-.831,4.855a1.718,1.718,0,0,0,2.491,1.811l4.36-2.292,4.358,2.3a1.718,1.718,0,0,0,2.493-1.811l-.833-4.855,3.528-3.436A1.718,1.718,0,0,0,68.11,337.284Zm-7,3.367a1.718,1.718,0,0,0-.493,1.522l.4,2.314-2.079-1.093a1.718,1.718,0,0,0-1.6,0l-2.079,1.093.4-2.314a1.718,1.718,0,0,0-.493-1.522l-1.682-1.637,2.323-.344a1.717,1.717,0,0,0,1.294-.94l1.039-2.106,1.039,2.1a1.718,1.718,0,0,0,1.294.941l2.323.344Z" transform="translate(-48.071 -330.033)" fill="#fff"/>
            </g>
          </g>
          <g id="Group_2035" data-name="Group 2035" transform="translate(42.007 48.747)">
            <g id="Group_2034" data-name="Group 2034" transform="translate(0 0)">
              <path id="Path_16935" data-name="Path 16935" d="M123.354,87.352,105.88,69.882a1.718,1.718,0,0,0-2.429,0L90.915,82.407,79.437,70.928a15.483,15.483,0,0,0,13.2-15.3v-.294a5.154,5.154,0,1,0-10.307,0,5.454,5.454,0,0,1-5.449,5.447,25.9,25.9,0,0,0-8.844,1.575A10.307,10.307,0,1,0,57.6,69.342l-.526.539a18.725,18.725,0,0,0,0,26.479l.651.651A5.359,5.359,0,0,0,65.3,89.426l-.651-.651a8.015,8.015,0,0,1-1.084-9.964l23.892,23.882H73.737a1.718,1.718,0,0,0,0,3.436H90.881l1.752,1.752v15.426a6.861,6.861,0,0,0,.929,3.436H82.326a1.718,1.718,0,1,0,0,3.436H99.5a6.871,6.871,0,0,0,6.871-6.871v-21.3a1.718,1.718,0,0,0-.5-1.215L98.5,93.416l6.16-6.15,9.395,9.386a6.576,6.576,0,1,0,9.3-9.3ZM51.4,59.068a6.871,6.871,0,1,1,6.871,6.871A6.871,6.871,0,0,1,51.4,59.068ZM120.9,94.225a3.121,3.121,0,0,1-4.414-.01l-10.6-10.591a1.718,1.718,0,0,0-2.429,0l-8.584,8.589a1.718,1.718,0,0,0,0,2.429l8.074,8.084v20.58a3.436,3.436,0,0,1-6.871,0V107.159a1.718,1.718,0,0,0-.5-1.215L64.644,75.023a1.718,1.718,0,0,0-2.429,0,11.446,11.446,0,0,0,0,16.172l.651.651a1.927,1.927,0,0,1-2.725,2.725l-.651-.651a15.289,15.289,0,0,1,0-21.621L61,70.791a22.306,22.306,0,0,1,15.876-6.578,8.893,8.893,0,0,0,8.885-8.874,1.718,1.718,0,0,1,3.436,0v.294A12.039,12.039,0,0,1,77.172,67.657a1.718,1.718,0,0,0-1.718,1.718v1.718a1.718,1.718,0,0,0,.5,1.215L89.7,86.05a1.718,1.718,0,0,0,2.429,0l12.528-12.527,16.26,16.258A3.142,3.142,0,0,1,120.9,94.225Z" transform="translate(-47.96 -48.747)" fill="#fff"/>
            </g>
          </g>
          <g id="Group_2037" data-name="Group 2037" transform="translate(64.348 126.743)">
            <g id="Group_2036" data-name="Group 2036" transform="translate(0)">
              <path id="Path_16936" data-name="Path 16936" d="M157.154,411.97h-3.436a1.718,1.718,0,0,0,0,3.436h3.436a1.718,1.718,0,0,0,0-3.436Z" transform="translate(-152 -411.97)" fill="#fff"/>
            </g>
          </g>
          <g id="Group_2039" data-name="Group 2039" transform="translate(55.758 102.693)">
            <g id="Group_2038" data-name="Group 2038" transform="translate(0 0)">
              <path id="Path_16937" data-name="Path 16937" d="M117.154,299.97h-3.436a1.718,1.718,0,1,0,0,3.436h3.436a1.718,1.718,0,1,0,0-3.436Z" transform="translate(-112 -299.97)" fill="#fff"/>
            </g>
          </g>
        </g>
      </g>
      <path id="Path_17242" data-name="Path 17242" d="M-10658.919,4974.956l-19.082-18.907-14,14.005-14.355-15.581s15.161-.344,14.358-15.183c.014.19,0-.047,0-.047s-1.709-3.8-4.71-1.467c-1.976,1.539-4.921,9.226-7.895,9.7-6.652,1.05-18.382,5.6-18.382,5.6s-7,5.427-6.652,11.2,3.5,15.23,3.5,15.23l5.252,2.8,3.852-2.8-2.976-5.6-2.1-9.628,2.977-3.151,10.329,10.5,18.906,18.907,1.576,2.976v16.981l4.376,2.976,4.9-2.976,1.05-22.408-8.753-9.979,7.7-8.053,13.479,12.254,5.427-1.926Z" transform="translate(11036 -3385)" fill="#fff"/>
    </g>
  </g>
</svg>
