<svg id="gift" xmlns="http://www.w3.org/2000/svg" width="81.535" height="81.535" viewBox="0 0 81.535 81.535">
  <path id="Path_19091" data-name="Path 19091" d="M18.13,248H46.244v42.042H18.13Z" transform="translate(-15.243 -208.506)" fill="#f2f2f2"/>
  <path id="Path_19092" data-name="Path 19092" d="M226.67,248h9.342v42.042H226.67Z" transform="translate(-190.573 -208.506)" fill="#f2f2f2"/>
  <path id="Path_19093" data-name="Path 19093" d="M317.33,248h28.114v42.042H317.33Z" transform="translate(-266.796 -208.506)" fill="#f2f2f2"/>
  <path id="Path_19094" data-name="Path 19094" d="M335.47,136h28.112v12.74H335.47Z" transform="translate(-282.047 -114.342)" fill="#f2f2f2"/>
  <path id="Path_19095" data-name="Path 19095" d="M208.53,136h15.119v12.74H208.53Z" transform="translate(-175.322 -114.342)" fill="#f2f2f2"/>
  <path id="Path_19096" data-name="Path 19096" d="M0,136H28.112v12.74H0Z" transform="translate(0 -114.342)" fill="#f2f2f2"/>
  <path id="Path_19097" data-name="Path 19097" d="M128.206,21.658c-9.4,0-24.206-2.116-24.206-11.466C104,3.715,107.715,0,114.192,0c4.675,0,8.9,3.215,12.558,9.556a47.749,47.749,0,0,1,3.891,8.8A2.549,2.549,0,0,1,128.206,21.658ZM114.192,5.1c-3.667,0-5.1,1.429-5.1,5.1,0,3.585,7.391,5.74,15.391,6.251C122.453,11.7,118.64,5.1,114.192,5.1Z" transform="translate(-87.438 0)" fill="#f2f2f2"/>
  <path id="Path_19098" data-name="Path 19098" d="M242.54,21.658a2.549,2.549,0,0,1-2.435-3.3A47.748,47.748,0,0,1,244,9.556C247.654,3.215,251.879,0,256.554,0c6.477,0,10.192,3.715,10.192,10.192C266.746,19.549,251.92,21.658,242.54,21.658ZM256.554,5.1c-4.465,0-8.272,6.606-10.3,11.348,8-.511,15.4-2.666,15.4-6.252C261.65,6.525,260.221,5.1,256.554,5.1Z" transform="translate(-201.772)" fill="#f2f2f2"/>
</svg>
