<svg id="signaling" xmlns="http://www.w3.org/2000/svg" width="67.424" height="64" viewBox="0 0 67.424 64">
  <path id="Path_17232" data-name="Path 17232" d="M0,0V3.951H9.35v8.691H13.3V3.951H54.123v8.691h3.951V3.951h9.35V0ZM0,0" fill="#fff"/>
  <path id="Path_17233" data-name="Path 17233" d="M0,173.407H67.424V126H0Zm49.646-34.239v-3.951h9.877v9.877H55.572v-3.132l-4.529,4.529L48.249,143.7l4.529-4.529Zm-1.975,15.144h3.951v3.132l4.529-4.529,2.793,2.793-4.529,4.529h3.132v3.951H47.671ZM7.9,135.218H37.794v3.951H7.9Zm0,7.9H29.893v3.951H7.9Zm0,9.218H37.794v3.951H7.9Zm0,7.9H29.893v3.951H7.9Zm0,0" transform="translate(0 -109.407)" fill="#fff"/>
</svg>
