<svg xmlns="http://www.w3.org/2000/svg" width="84.347" height="57.235" viewBox="0 0 84.347 57.235">
  <g id="credit-card" transform="translate(-4 -10)">
    <path id="Path_17144" data-name="Path 17144" d="M16,21h3.012v3.012H16Z" transform="translate(6.074 5.568)" fill="#fff"/>
    <path id="Path_17145" data-name="Path 17145" d="M30,46H60.124v3.012H30Z" transform="translate(13.161 18.223)" fill="#fff"/>
    <path id="Path_17146" data-name="Path 17146" d="M19.012,20.543a7.54,7.54,0,0,1,7.531-7.531H40.1V10H26.543A10.555,10.555,0,0,0,16,20.543v3.012h3.012Z" transform="translate(6.074)" fill="#fff"/>
    <circle id="Ellipse_199" data-name="Ellipse 199" cx="6" cy="6" r="6" transform="translate(40 25)" fill="#fff"/>
    <path id="Path_17147" data-name="Path 17147" d="M46.012,37.09l5.519,3.683,5.519-3.68a4.508,4.508,0,0,0,2.012-3.762V23H44V33.331a4.508,4.508,0,0,0,2.012,3.759Zm2.065-7.624,1.948,1.948,4.96-4.96,2.13,2.13L51.09,34.608a1.506,1.506,0,0,1-2.13,0L45.947,31.6Z" transform="translate(20.248 6.58)" fill="#fff"/>
    <path id="Path_17148" data-name="Path 17148" d="M47.572,53.456,44.62,55.161H82.791A1.506,1.506,0,0,0,84.3,53.655V17.506A1.506,1.506,0,0,0,82.791,16H28.568a1.506,1.506,0,0,0-1.506,1.506V47.63H24.05V34.074h-3.9L12,42.229V61.186H28.164L46.07,50.844a4.515,4.515,0,0,0-2.259-8.427,4.58,4.58,0,0,0-2.259.6l-12.23,7.058L27.815,47.47l12.23-7.064a7.532,7.532,0,1,1,7.526,13.05ZM42.124,37.087a9.037,9.037,0,1,1,9.037-9.037A9.037,9.037,0,0,1,42.124,37.087Zm15.062-12.05a1.506,1.506,0,0,1,1.506-1.506H76.766a1.506,1.506,0,0,1,1.506,1.506V36.874a7.519,7.519,0,0,1-3.354,6.267l-6.353,4.235a1.506,1.506,0,0,1-1.672,0L60.54,43.142a7.519,7.519,0,0,1-3.354-6.267Z" transform="translate(4.05 3.037)" fill="#fff"/>
    <path id="Path_17149" data-name="Path 17149" d="M4,31h9.037V55.1H4Z" transform="translate(0 10.63)" fill="#fff"/>
    <path id="Path_17150" data-name="Path 17150" d="M52,46h3.012v3.012H52Z" transform="translate(24.297 18.223)" fill="#fff"/>
  </g>
</svg>
