<svg xmlns="http://www.w3.org/2000/svg" width="92.752" height="112.933" viewBox="0 0 92.752 112.933">
  <g id="Group_2141" data-name="Group 2141" transform="translate(-644 -1610)">
    <g id="Group_2140" data-name="Group 2140" transform="translate(644 1610)">
      <path id="Subtraction_36" data-name="Subtraction 36" d="M59.791,37.268H6.289a17.625,17.625,0,0,1-3.158-1.2C1.693,35.349-.016,34.149.006,32.538c-.078-4.269.522-6.995,1.835-8.332a3.517,3.517,0,0,1,2.708-.985c.146,0,.283,0,.434.007h.022c.131,0,.254.007.369.007a1.076,1.076,0,0,0,.8-.2.612.612,0,0,0,.115-.488c-.459-4.92,2.369-8.217,4.24-10.4.223-.26.433-.505.624-.737,1.771-2.151,7.493-2.936,7.55-2.944l5.691,1.423a26.131,26.131,0,0,1,2.758-1.423A4.325,4.325,0,0,0,29.1,6.435c.871-1.45,2.063-3.435,6.756-5.9A39.733,39.733,0,0,1,42.112,0c6.312,0,11.167,1.882,14.428,5.6a17.238,17.238,0,0,1,3.183,5.467A24.164,24.164,0,0,1,61,16.575a27.2,27.2,0,0,1,.065,5.973l1.792.769,3.328,5.376L64.143,35.6l-4.352,1.664ZM43.9,4.171V6.4A11.082,11.082,0,0,1,54.97,17.47h2.217A13.308,13.308,0,0,0,43.9,4.171Z" transform="translate(25.59 46.254)" fill="#fff"/>
      <g id="family" transform="translate(0 35.154) rotate(-31)">
        <g id="Group_1982" data-name="Group 1982" transform="translate(0 0)">
          <g id="Group_1981" data-name="Group 1981">
            <path id="Path_16773" data-name="Path 16773" d="M58.133,7.219A32.761,32.761,0,0,0,47.27,1.8,46.4,46.4,0,0,0,34.127,0,46.4,46.4,0,0,0,20.985,1.8a32.757,32.757,0,0,0-10.863,5.42C3.5,12.353,0,19.814,0,28.795v2.666a1.333,1.333,0,1,0,2.666,0V30.128h8v1.333a1.333,1.333,0,1,0,2.666,0V30.128h8.532v1.333a1.333,1.333,0,1,0,2.666,0V30.128h8.265v12.8a1.333,1.333,0,1,0,2.666,0v-12.8h8.265v1.333a1.333,1.333,0,1,0,2.666,0V30.128h8.532v1.333a1.333,1.333,0,1,0,2.666,0V30.128h8v1.333a1.333,1.333,0,1,0,2.666,0V28.795C68.255,19.814,64.755,12.353,58.133,7.219ZM12.9,16.376a33.28,33.28,0,0,0-2.214,11.086H2.7C3.212,15.891,10.477,7.5,22.19,4.207A25.923,25.923,0,0,0,18.6,7.355a26.967,26.967,0,0,0-3.182,4.074A28.928,28.928,0,0,0,12.9,16.376Zm8.982,11.086H13.358C13.695,18.309,17.4,12.5,20.53,9.189A21.416,21.416,0,0,1,30.644,3.107a36.59,36.59,0,0,0-3.129,4.485A41.2,41.2,0,0,0,21.885,27.462Zm2.667,0h0a38.544,38.544,0,0,1,5.2-18.409,32.126,32.126,0,0,1,4.378-5.861A36.894,36.894,0,0,1,43.7,27.462Zm33.012,0a35.562,35.562,0,0,0-.749-6.214,1.34,1.34,0,0,0-1.3-1.053,1.333,1.333,0,0,0-1.305,1.613,32.8,32.8,0,0,1,.688,5.654H46.37A41.2,41.2,0,0,0,40.739,7.591,36.582,36.582,0,0,0,37.613,3.11a19.245,19.245,0,0,1,4.942,2,23.365,23.365,0,0,1,7.785,7.368A1.333,1.333,0,0,0,52.561,11a26.9,26.9,0,0,0-4.035-4.77,25.615,25.615,0,0,0-2.465-2.027c11.715,3.3,18.982,11.684,19.5,23.256Z" fill="#fff"/>
          </g>
        </g>
        <g id="Group_1984" data-name="Group 1984" transform="translate(52.608 15.109)">
          <g id="Group_1983" data-name="Group 1983" transform="translate(0 0)">
            <path id="Path_16774" data-name="Path 16774" d="M2.566.825A1.332,1.332,0,0,0,.1.82,1.333,1.333,0,0,0,2.565,1.846,1.324,1.324,0,0,0,2.566.825Z" fill="#fff"/>
          </g>
        </g>
      </g>
      <g id="SVGCleanerId_0" transform="translate(24.081 44.884)">
        <g id="Group_2040" data-name="Group 2040" transform="translate(0 0)">
          <path id="Path_16945" data-name="Path 16945" d="M63.968,25.492a20.368,20.368,0,0,0,.27-3.257,19.922,19.922,0,0,0-37.275-9.8,14.4,14.4,0,0,0-20.286,12.3A8.853,8.853,0,0,0,8.853,42.17H59.805a8.856,8.856,0,0,0,4.163-16.678ZM59.805,39.954H8.866A6.642,6.642,0,0,1,7.92,26.736l.946-.216v-.96A12.185,12.185,0,0,1,26.909,14.883l1.014.554.514-1.041A17.712,17.712,0,0,1,61.643,25.9l-.189.906.851.351A6.591,6.591,0,0,1,66.455,33.3,6.662,6.662,0,0,1,59.805,39.954Z" transform="translate(0 -2.3)" fill="#fff"/>
        </g>
      </g>
      <g id="Group_2046" data-name="Group 2046" transform="translate(46.489 86.971)">
        <g id="Group_2045" data-name="Group 2045" transform="translate(0 0)">
          <path id="Path_16948" data-name="Path 16948" d="M190.844,320.35H179.788l4.433-6.65H173.774L165.8,326.986h8.812l-7.92,12.677Zm-21.138,4.433,5.325-8.866h5.055l-4.433,6.65h8.88l-9.069,7.258,3.149-5.041Z" transform="translate(-165.8 -313.7)" fill="#fff"/>
        </g>
      </g>
      <g id="Group_2048" data-name="Group 2048" transform="translate(31.92 88.755)">
        <g id="Group_2047" data-name="Group 2047">
          <path id="Path_16949" data-name="Path 16949" d="M61.325,326.9,58,334.644l2.041.878,3.325-7.758Z" transform="translate(-58 -326.9)" fill="#fff"/>
        </g>
      </g>
      <g id="Group_2050" data-name="Group 2050" transform="translate(80.643 88.755)">
        <g id="Group_2049" data-name="Group 2049">
          <path id="Path_16950" data-name="Path 16950" d="M421.825,326.9l-3.325,7.744,2.041.878,3.325-7.758Z" transform="translate(-418.5 -326.9)" fill="#fff"/>
        </g>
      </g>
      <g id="Group_2052" data-name="Group 2052" transform="translate(36.907 99.824)">
        <g id="Group_2051" data-name="Group 2051">
          <path id="Path_16951" data-name="Path 16951" d="M98.225,408.8,94.9,416.558l2.027.865,3.325-7.744Z" transform="translate(-94.9 -408.8)" fill="#fff"/>
        </g>
      </g>
      <g id="Group_2054" data-name="Group 2054" transform="translate(70.128 99.824)">
        <g id="Group_2053" data-name="Group 2053">
          <path id="Path_16952" data-name="Path 16952" d="M344.025,408.8l-3.325,7.758,2.041.865,3.311-7.744Z" transform="translate(-340.7 -408.8)" fill="#fff"/>
        </g>
      </g>
      <g id="Group_2056" data-name="Group 2056" transform="translate(85.076 99.824)">
        <g id="Group_2055" data-name="Group 2055">
          <path id="Path_16953" data-name="Path 16953" d="M454.625,408.8l-3.325,7.758,2.041.865,3.311-7.744Z" transform="translate(-451.3 -408.8)" fill="#fff"/>
        </g>
      </g>
    </g>
  </g>
</svg>
