<?xml version="1.0" encoding="utf-8"?>
<!-- Generator: Adobe Illustrator 16.0.0, SVG Export Plug-In . SVG Version: 6.00 Build 0)  -->
<!DOCTYPE svg PUBLIC "-//W3C//DTD SVG 1.1//EN" "http://www.w3.org/Graphics/SVG/1.1/DTD/svg11.dtd">
<svg version="1.1" id="Layer_1" xmlns="http://www.w3.org/2000/svg" xmlns:xlink="http://www.w3.org/1999/xlink" x="0px" y="0px"
	 width="69.549px" height="60.727px" viewBox="0 0 69.549 60.727" enable-background="new 0 0 69.549 60.727" xml:space="preserve">
<g id="Group_2215" transform="translate(-774.142 -331.85)">
	<g id="accident_1_" transform="translate(794.91 331.85)">
		<g id="Group_2209" transform="translate(0.008 0.685)">
			<g id="Group_2208" transform="translate(0 0)">
				
					<linearGradient id="Path_17323_1_" gradientUnits="userSpaceOnUse" x1="-274.4439" y1="406.3758" x2="-274.4439" y2="405.3758" gradientTransform="matrix(15.662 0 0 -19.749 4303.1724 8026.5186)">
					<stop  offset="0.13" style="stop-color:#00A9ED"/>
					<stop  offset="1" style="stop-color:#65106B"/>
				</linearGradient>
				<path id="Path_17323" fill="url(#Path_17323_1_)" d="M10.19,10.483c2.415-1.458,3.191-4.598,1.732-7.013
					C10.465,1.055,7.325,0.279,4.91,1.737c-1.53,0.924-2.466,2.58-2.468,4.368c0,0.131,0,0.262,0.014,0.391
					c-2.605-0.381-5.027,1.422-5.408,4.027s1.421,5.026,4.027,5.408c0.256,0.037,0.515,0.054,0.773,0.05
					c-0.059,0.222-0.088,0.451-0.088,0.681c0.001,1.278,0.891,2.385,2.139,2.661c0.34,1.076,1.488,1.672,2.564,1.332
					c1.076-0.341,1.672-1.488,1.332-2.564c-0.088-0.276-0.233-0.531-0.427-0.748c2.248-0.079,4.005-1.967,3.925-4.215
					C11.259,12.141,10.866,11.201,10.19,10.483L10.19,10.483z M8.253,10.526c0.051,0.161,0.161,0.298,0.307,0.383
					c0.849,0.477,1.374,1.375,1.374,2.348c0,1.505-1.22,2.726-2.725,2.726c-0.186,0-0.37-0.019-0.551-0.057
					c-0.369-0.075-0.729,0.162-0.804,0.53c-0.011,0.057-0.016,0.113-0.013,0.17c0,0.033,0.006,0.058,0.006,0.032
					c0.001,0.18-0.032,0.357-0.1,0.524c-0.145,0.347,0.019,0.745,0.366,0.891c0,0,0,0,0,0l0,0c0.347,0.145,0.511,0.543,0.366,0.891
					c-0.145,0.347-0.543,0.511-0.891,0.366c-0.253-0.105-0.418-0.354-0.419-0.628c0-0.376-0.305-0.681-0.681-0.681
					c-0.752-0.009-1.355-0.625-1.347-1.377c0.005-0.433,0.215-0.838,0.566-1.091c0.051-0.036,0.097-0.08,0.136-0.13
					c0.068-0.002,0.135-0.015,0.2-0.037c0.063-0.023,0.127-0.042,0.193-0.056c0.37-0.068,0.614-0.424,0.546-0.793
					c-0.01-0.058-0.028-0.112-0.053-0.165c-0.007-0.015-0.029-0.054-0.042-0.08c-0.162-0.339-0.568-0.483-0.908-0.321
					c-0.032,0.016-0.063,0.033-0.092,0.054c-0.068,0.046-0.136,0.088-0.211,0.13c-0.073,0.042-0.137,0.097-0.189,0.162
					c-0.081,0.003-0.161,0.021-0.236,0.051C1.31,15.07-0.67,14.227-1.373,12.486c-0.702-1.742,0.141-3.723,1.882-4.425
					c0.821-0.331,1.74-0.329,2.559,0.007c0.348,0.145,0.746-0.02,0.891-0.367C4.021,7.553,4.028,7.387,3.98,7.234
					C3.356,5.262,4.449,3.157,6.422,2.533c1.972-0.624,4.077,0.469,4.701,2.441c0.622,1.966-0.461,4.064-2.424,4.695
					C8.34,9.782,8.14,10.164,8.252,10.523C8.252,10.524,8.253,10.525,8.253,10.526z"/>
			</g>
		</g>
		<g id="Group_2211" transform="translate(0 0)">
			<g id="Group_2210" transform="translate(0 0)">
				
					<linearGradient id="Path_17324_1_" gradientUnits="userSpaceOnUse" x1="-227.5272" y1="331.1467" x2="-227.5272" y2="330.1467" gradientTransform="matrix(4.086 0 0 -4.086 928.7166 1354.0623)">
					<stop  offset="0.13" style="stop-color:#00A9ED"/>
					<stop  offset="1" style="stop-color:#65106B"/>
				</linearGradient>
				<path id="Path_17324" fill="url(#Path_17324_1_)" d="M-0.957,0.995C-2.085,0.995-3,1.909-3,3.038
					c0,1.128,0.915,2.043,2.043,2.043s2.043-0.915,2.043-2.043l0,0C1.086,1.909,0.172,0.995-0.957,0.995z M-0.957,3.719
					c-0.376,0-0.681-0.305-0.681-0.681s0.305-0.682,0.681-0.682s0.681,0.306,0.681,0.682l0,0c0.003,0.376-0.3,0.683-0.676,0.686
					c-0.001,0-0.003,0-0.005,0V3.719z"/>
			</g>
		</g>
		<g id="Group_2213" transform="translate(12.941 17.709)">
			<g id="Group_2212" transform="translate(0)">
				
					<linearGradient id="Path_17325_1_" gradientUnits="userSpaceOnUse" x1="-177.063" y1="217.8166" x2="-177.063" y2="216.8166" gradientTransform="matrix(2.044 0 0 -2.044 359.94 446.2188)">
					<stop  offset="0.13" style="stop-color:#00A9ED"/>
					<stop  offset="1" style="stop-color:#65106B"/>
				</linearGradient>
				<path id="Path_17325" fill="url(#Path_17325_1_)" d="M-1.978,1C-2.542,1-3,1.457-3,2.022s0.458,1.022,1.022,1.022
					c0.565,0,1.022-0.458,1.022-1.022S-1.413,1-1.978,1L-1.978,1z M-1.978,2.362c-0.188,0-0.341-0.152-0.341-0.341
					S-2.166,1.68-1.978,1.68s0.341,0.152,0.341,0.341S-1.79,2.362-1.978,2.362L-1.978,2.362z"/>
			</g>
		</g>
	</g>
	<g id="Group_1849" transform="translate(787.563 352.178)">
		
			<linearGradient id="Path_16647_1_" gradientUnits="userSpaceOnUse" x1="-255.6959" y1="359.6468" x2="-255.6959" y2="358.6468" gradientTransform="matrix(9.278 0 0 -8.341 2411.5557 3018.8232)">
			<stop  offset="0.13" style="stop-color:#00A9ED"/>
			<stop  offset="1" style="stop-color:#65106B"/>
		</linearGradient>
		<path id="Path_16647" fill="url(#Path_16647_1_)" stroke="#147DB2" stroke-width="3" stroke-linecap="round" d="M43.848,27.351
			L34.57,19.01"/>
		
			<linearGradient id="Subtraction_9_1_" gradientUnits="userSpaceOnUse" x1="-278.5391" y1="395.471" x2="-278.5391" y2="394.471" gradientTransform="matrix(50.7756 0 0 -35.3488 14165.375 13980.4678)">
			<stop  offset="0.13" style="stop-color:#00A9ED"/>
			<stop  offset="1" style="stop-color:#65106B"/>
		</linearGradient>
		<path id="Subtraction_9" fill="url(#Subtraction_9_1_)" d="M23.623,36.348h-6.21c-0.455,0.001-0.825-0.368-0.825-0.823
			s0.368-0.824,0.823-0.825c0,0,0.001,0,0.002,0h5.388v-0.442h-3.979c-2.362-0.002-4.277-1.916-4.28-4.278v-5.855l0.005-0.007
			l0.06-2.557l-3.313-2.36l-9.249-6.64c-0.37-0.266-0.455-0.781-0.188-1.151c0.156-0.217,0.407-0.345,0.674-0.344
			c0.173,0.001,0.341,0.055,0.483,0.154L13.8,18.968l1.364,0.979c0.897-1.627,2.606-2.641,4.465-2.646h1.811
			c1.891-0.003,3.73-0.611,5.25-1.737l0.011-0.009l0.007-0.006c0.032-0.023,0.065-0.046,0.1-0.065l-2.947-1.125l-5.343-2.046h-6.248
			c-0.844,0-1.664-0.288-2.322-0.816L4.131,6.825h-4.65c-0.46,0.001-0.833,0.374-0.833,0.833C-1.349,7.928-1.219,8.18-1,8.338
			l1.774,1.273c0.372,0.266,0.458,0.782,0.192,1.154c-0.155,0.217-0.406,0.346-0.673,0.346c-0.173,0-0.342-0.056-0.483-0.156
			l-1.777-1.278c-1.113-0.804-1.364-2.356-0.561-3.47c0.466-0.646,1.213-1.028,2.009-1.03H4.42c0.188,0,0.37,0.063,0.517,0.181
			l6.04,4.854c0.366,0.293,0.821,0.453,1.29,0.454h5.939c1.706-2.432,4.491-3.874,7.461-3.865c2.231-0.003,4.387,0.813,6.056,2.294
			c0.031-0.923-0.151-1.841-0.531-2.682H28.53c-0.456,0-0.825-0.37-0.825-0.825c0-0.456,0.369-0.825,0.825-0.825h1.723l-0.364-0.611
			c-0.365-0.611-0.387-1.369-0.054-2c0.325-0.63,0.957-1.044,1.665-1.091C32.036,1.02,32.585,1,33.13,1
			c2.608-0.024,5.194,0.482,7.601,1.49c2.291,0.975,4.332,2.455,5.97,4.33c0.69,0.938,1.061,2.073,1.056,3.237
			c0.083,1.166-0.072,2.338-0.455,3.442c-0.197,0.504-0.515,0.954-0.924,1.309l-2.6,2.254c-0.064,0.056-0.136,0.101-0.213,0.134
			c-5.457-1.232-10.879,2.19-12.111,7.646c-0.027,0.117-0.052,0.235-0.074,0.354c-0.604,2.675-0.119,5.479,1.348,7.795
			c0.246,0.385,0.133,0.895-0.251,1.14c-0.134,0.086-0.29,0.131-0.448,0.13h-7.578v1.267C24.445,35.982,24.077,36.348,23.623,36.348
			z M19.923,18.948c-0.286-0.006-0.573,0.01-0.856,0.05c-1.662,0.27-2.881,1.707-2.875,3.391v7.593
			c0.006,1.449,1.183,2.62,2.631,2.619h11.8c-2.836-5.987-0.282-13.14,5.705-15.976c1.604-0.759,3.355-1.153,5.13-1.154
			c0.506,0.002,1.012,0.035,1.514,0.1l1.465-1.265c-2.012-0.928-2.891-3.311-1.963-5.322c0.42-0.908,1.162-1.627,2.084-2.016
			c-3.1-2.884-7.207-4.434-11.439-4.316c-0.5,0-1,0.019-1.5,0.055c-0.135,0.01-0.254,0.09-0.316,0.21
			c-0.064,0.123-0.061,0.271,0.012,0.392l0.863,1.453h1.771c0.456,0,0.825,0.369,0.825,0.825c0,0.455-0.369,0.824-0.825,0.824
			h-0.978c0.445,1.297,0.533,2.69,0.25,4.032c-0.636,3.046-2.52,4.35-4.699,5.857l-0.08,0.054l-0.195,0.135
			c-0.244,0.169-0.482,0.335-0.721,0.507c-1.901,1.362-4.203,2.051-6.539,1.959c-0.127,0-0.256,0-0.377,0h-0.051
			c-0.041,0-0.078,0-0.115,0h-0.1h-0.023h-0.387L19.923,18.948z M25.665,8.448c-2.201-0.002-4.291,0.969-5.71,2.652l1.568,0.6
			l6.889,2.634c0.096-0.079,0.196-0.152,0.3-0.221l0.011-0.008l0.047-0.033l0.016-0.009c1.152-0.707,2.045-1.769,2.545-3.025
			c-1.422-1.645-3.489-2.588-5.663-2.585L25.665,8.448z M45.732,8.332c-1.286,0.21-2.158,1.423-1.947,2.709
			c0.163,0.995,0.94,1.776,1.936,1.944C46.255,11.482,46.259,9.839,45.732,8.332z"/>
		
			<linearGradient id="Subtraction_10_1_" gradientUnits="userSpaceOnUse" x1="-270.0836" y1="386.0804" x2="-270.0836" y2="385.0804" gradientTransform="matrix(19.1202 0 0 -19.1201 5207.6206 7399.9795)">
			<stop  offset="0.13" style="stop-color:#00A9ED"/>
			<stop  offset="1" style="stop-color:#65106B"/>
		</linearGradient>
		<path id="Subtraction_10" fill="url(#Subtraction_10_1_)" d="M43.566,37.192c-5.279,0-9.56-4.279-9.56-9.56
			c0-2.535,1.007-4.967,2.8-6.76c3.734-3.733,9.787-3.733,13.521,0s3.733,9.786,0,13.52C48.538,36.191,46.103,37.199,43.566,37.192z
			 M43.566,19.76c-4.348,0-7.871,3.524-7.871,7.872s3.523,7.872,7.871,7.872s7.873-3.524,7.873-7.872l0,0
			C51.434,23.286,47.912,19.765,43.566,19.76z"/>
		<g id="Ellipse_167" transform="translate(42.069 22.133)">
			<circle fill="none" cx="1.499" cy="5.499" r="4.499"/>
			<circle fill="none" stroke="#147DB2" stroke-width="2.5" cx="1.499" cy="5.499" r="3.249"/>
		</g>
	</g>
	<g id="fire" transform="translate(774.142 363.747) rotate(-24)">
		<g id="Group_2214" transform="translate(0 0)">
			
				<linearGradient id="Path_17326_1_" gradientUnits="userSpaceOnUse" x1="-398.5422" y1="238.8504" x2="-398.5422" y2="237.8504" gradientTransform="matrix(21.6218 12.8357 9.6267 -28.8294 6326.5454 12001.168)">
				<stop  offset="0.13" style="stop-color:#00A9ED"/>
				<stop  offset="1" style="stop-color:#65106B"/>
			</linearGradient>
			<path id="Path_17326" fill="url(#Path_17326_1_)" d="M20.476,18.479l-0.022-0.309c-0.361-4.706-2.553-7.655-4.486-10.257
				c-1.79-2.41-3.336-4.49-3.336-7.561c0-0.247-0.138-0.472-0.357-0.586c-0.219-0.113-0.483-0.094-0.683,0.051
				C8.6,2.021,6.429,5.16,5.419,8.737c-0.481,2.189-0.708,4.427-0.676,6.668c-2.682-0.571-3.291-4.582-3.291-4.626
				c-0.05-0.359-0.382-0.61-0.742-0.56c-0.068,0.01-0.135,0.03-0.196,0.06c-0.141,0.068-3.451,1.75-3.644,8.467
				c-0.018,0.225-0.018,0.448-0.018,0.673c0.001,6.535,5.3,11.833,11.835,11.833c6.535-0.001,11.832-5.299,11.833-11.833
				C20.521,19.094,20.498,18.784,20.476,18.479z M8.687,29.938c-2.247-0.076-4.01-1.953-3.945-4.2c0-0.079,0-0.159,0.006-0.256
				c-0.004-0.717,0.138-1.427,0.416-2.088c0.336,0.917,1.195,1.539,2.171,1.572c0.363,0,0.657-0.294,0.657-0.657
				c-0.031-1.003,0.054-2.007,0.252-2.991c0.246-0.932,0.702-1.795,1.33-2.524c0.309,0.899,0.767,1.74,1.355,2.487
				c0.964,1.167,1.551,2.598,1.685,4.105c0.008,0.113,0.017,0.227,0.017,0.349C12.697,27.982,10.934,29.862,8.687,29.938z
				 M12.841,29.079c0.715-0.969,1.1-2.14,1.1-3.344c0-0.155-0.01-0.299-0.029-0.568c-0.162-1.703-0.828-3.32-1.913-4.643
				c-0.762-0.854-1.221-1.937-1.307-3.079c0-0.362-0.293-0.657-0.656-0.659c-0.144,0-0.284,0.047-0.398,0.134
				c-1.315,1.035-2.256,2.47-2.68,4.088c-0.168,0.767-0.26,1.548-0.276,2.333c-0.314-0.413-0.52-0.899-0.6-1.412
				c-0.048-0.36-0.38-0.614-0.741-0.565c-0.073,0.01-0.144,0.032-0.21,0.066c-0.166,0.084-1.621,0.918-1.7,3.989
				c-0.006,0.1-0.006,0.208-0.007,0.311c0.001,1.203,0.386,2.374,1.1,3.343c-3.858-1.663-6.358-5.46-6.364-9.66
				c0-0.2,0-0.394,0.013-0.613c0.113-3.941,1.374-5.9,2.201-6.758c0.574,2.055,2.078,4.74,5.022,4.74
				c0.363,0,0.657-0.294,0.657-0.657c-0.074-2.374,0.141-4.749,0.638-7.071c0.824-2.87,2.456-5.443,4.7-7.414
				c0.367,2.817,1.9,4.881,3.513,7.05c1.915,2.58,3.9,5.247,4.23,9.567l0.022,0.314c0.021,0.274,0.042,0.547,0.042,0.841
				c-0.002,4.2-2.501,7.999-6.357,9.664L12.841,29.079z"/>
		</g>
	</g>
</g>
</svg>
