<?xml version="1.0" encoding="utf-8"?>
<!-- Generator: Adobe Illustrator 16.0.0, SVG Export Plug-In . SVG Version: 6.00 Build 0)  -->
<!DOCTYPE svg PUBLIC "-//W3C//DTD SVG 1.1//EN" "http://www.w3.org/Graphics/SVG/1.1/DTD/svg11.dtd">
<svg version="1.1" id="puzzle" xmlns="http://www.w3.org/2000/svg" xmlns:xlink="http://www.w3.org/1999/xlink" x="0px" y="0px"
	 width="63px" height="63px" viewBox="0 0 63 63" enable-background="new 0 0 63 63" xml:space="preserve">
<g id="Group_2323" transform="translate(10.5 10.5)">
	<g id="Group_2322">
		
			<linearGradient id="Path_17392_1_" gradientUnits="userSpaceOnUse" x1="-278.9409" y1="410.0908" x2="-278.9409" y2="409.0908" gradientTransform="matrix(52.5 0 0 -52.5 14670.6602 21529.7813)">
			<stop  offset="0.13" style="stop-color:#00A9ED"/>
			<stop  offset="1" style="stop-color:#65106B"/>
		</linearGradient>
		<path id="Path_17392" fill="url(#Path_17392_1_)" d="M51.45,0h-25.2c-0.58,0-1.05,0.47-1.05,1.05l0,0v9.45
			c-0.003,0.58,0.466,1.052,1.046,1.054c0.114,0,0.228-0.018,0.336-0.054l1.32-0.44c1.433-0.469,2.975,0.312,3.443,1.745
			s-0.313,2.975-1.745,3.444c-0.552,0.181-1.147,0.181-1.698,0l-1.32-0.44c-0.551-0.184-1.145,0.114-1.328,0.664
			c-0.036,0.108-0.055,0.222-0.054,0.336v8.4h-8.4c-0.58-0.002-1.052,0.467-1.054,1.046c0,0.114,0.018,0.228,0.054,0.336l0.44,1.32
			c0.469,1.433-0.313,2.975-1.745,3.444c-1.433,0.469-2.975-0.313-3.444-1.746c-0.181-0.551-0.181-1.146,0-1.698l0.44-1.32
			c0.183-0.55-0.114-1.145-0.665-1.328c-0.108-0.036-0.222-0.054-0.335-0.054H1.05c-0.576,0-1.045,0.465-1.05,1.041v25.2
			c0,0.579,0.47,1.05,1.05,1.05l0,0h50.4c0.579,0,1.05-0.471,1.05-1.05l0,0V1.05C52.5,0.47,52.029,0,51.45,0L51.45,0z M25.25,41.669
			c-0.035,0.106-0.054,0.219-0.055,0.331v8.4H2.1V27.3h6.944c-0.802,2.544,0.61,5.257,3.154,6.06
			c2.544,0.801,5.257-0.611,6.059-3.154c0.298-0.945,0.298-1.96,0-2.905H25.2v8.4c-0.003,0.579,0.466,1.052,1.046,1.054
			c0.114,0,0.228-0.018,0.336-0.054l1.32-0.44c1.433-0.469,2.975,0.313,3.443,1.745s-0.313,2.976-1.745,3.444
			c-0.552,0.181-1.147,0.181-1.698,0l-1.32-0.44c-0.549-0.184-1.143,0.112-1.328,0.66H25.25z M50.4,50.4H27.3v-6.944
			c2.544,0.802,5.257-0.61,6.06-3.154c0.801-2.544-0.611-5.257-3.154-6.059c-0.945-0.298-1.96-0.298-2.905,0V27.3h8.4
			c0.579,0.003,1.052-0.466,1.054-1.046c0-0.114-0.018-0.228-0.054-0.336l-0.44-1.32c-0.469-1.433,0.313-2.975,1.745-3.443
			c1.433-0.469,2.976,0.312,3.444,1.745c0.181,0.552,0.181,1.146,0,1.698l-0.44,1.32c-0.183,0.551,0.114,1.145,0.665,1.328
			c0.107,0.036,0.221,0.055,0.335,0.054h8.4V50.4H50.4z M50.4,25.2h-6.944c0.802-2.544-0.61-5.257-3.154-6.059
			c-2.544-0.802-5.257,0.61-6.059,3.154c-0.298,0.945-0.298,1.96,0,2.905H27.3v-6.944c2.544,0.82,5.271-0.577,6.092-3.121
			s-0.577-5.271-3.121-6.092c-0.966-0.312-2.005-0.312-2.971,0V2.1H50.4V25.2z"/>
	</g>
</g>
<g id="Group_2325">
	<g id="Group_2324">
		
			<linearGradient id="Path_17393_1_" gradientUnits="userSpaceOnUse" x1="-265.5923" y1="416.418" x2="-265.5923" y2="415.417" gradientTransform="matrix(33.5839 0 0 -33.5836 8936.3857 13984.792)">
			<stop  offset="0.13" style="stop-color:#00A9ED"/>
			<stop  offset="1" style="stop-color:#65106B"/>
		</linearGradient>
		<path id="Path_17393" fill="url(#Path_17393_1_)" d="M30.205,9.044c-0.945-0.298-1.959-0.298-2.905,0V1.05
			C27.3,0.47,26.83,0,26.25,0H1.05C0.47,0,0,0.47,0,1.05l0,0v25.2c0,0.58,0.47,1.05,1.05,1.05h7.994
			c-0.802,2.544,0.61,5.257,3.154,6.06c2.544,0.801,5.257-0.611,6.059-3.155c0.298-0.945,0.298-1.959,0-2.905h7.993
			c0.58,0,1.05-0.47,1.05-1.05v-7.994c2.544,0.802,5.257-0.61,6.06-3.154C34.161,12.558,32.749,9.845,30.205,9.044L30.205,9.044z
			 M29.6,16.244c-0.552,0.181-1.148,0.181-1.7,0l-1.32-0.44c-0.55-0.184-1.145,0.114-1.328,0.664
			c-0.036,0.108-0.054,0.222-0.054,0.336v8.4H16.8c-0.58-0.002-1.052,0.466-1.054,1.046c0,0.114,0.018,0.228,0.054,0.336l0.44,1.32
			c0.469,1.433-0.313,2.975-1.745,3.444c-1.433,0.469-2.975-0.313-3.444-1.745c-0.181-0.552-0.181-1.147,0-1.699l0.44-1.32
			c0.183-0.55-0.114-1.145-0.665-1.328c-0.108-0.036-0.222-0.054-0.335-0.054H2.1V2.1h23.1v8.4c-0.002,0.58,0.466,1.052,1.046,1.054
			c0.114,0,0.228-0.018,0.336-0.054l1.32-0.44c1.433-0.469,2.975,0.312,3.445,1.745c0.469,1.433-0.312,2.975-1.745,3.444l0,0
			L29.6,16.244z"/>
	</g>
</g>
</svg>
