<?xml version="1.0" encoding="utf-8"?>
<!-- Generator: Adobe Illustrator 16.0.0, SVG Export Plug-In . SVG Version: 6.00 Build 0)  -->
<!DOCTYPE svg PUBLIC "-//W3C//DTD SVG 1.1//EN" "http://www.w3.org/Graphics/SVG/1.1/DTD/svg11.dtd">
<svg version="1.1" id="Layer_1" xmlns="http://www.w3.org/2000/svg" xmlns:xlink="http://www.w3.org/1999/xlink" x="0px" y="0px"
	 width="62.965px" height="63px" viewBox="0 0 62.965 63" enable-background="new 0 0 62.965 63" xml:space="preserve">
<g id="Group_3580" transform="translate(-589 -517.89)">
	<g id="Page-1" transform="translate(589 517.89)">
		<g id="_006---Home-Insurance" transform="translate(0 0)">
			
				<linearGradient id="Shape_1_" gradientUnits="userSpaceOnUse" x1="-264.1084" y1="417.0264" x2="-264.1084" y2="416.0264" gradientTransform="matrix(28.3378 0 0 -35.4458 7499.4111 14809.3896)">
				<stop  offset="0.13" style="stop-color:#00A9ED"/>
				<stop  offset="1" style="stop-color:#65106B"/>
			</linearGradient>
			<path id="Shape" fill="url(#Shape_1_)" d="M5.402,41.313c0.557,1.224,1.33,2.338,2.282,3.287l6.472,6.471
				c-0.365,0.387-0.568,0.898-0.57,1.43v8.4c0,1.159,0.94,2.1,2.1,2.1h11.55c1.16,0,2.1-0.94,2.1-2.1v-8.4c0-1.16-0.94-2.1-2.1-2.1
				v-1.955c0.032-2.485-0.778-4.91-2.3-6.877c-0.893-1.174-2.109-2.061-3.5-2.553c-2.211-0.929-4.245-2.234-6.01-3.857
				c-1.639-1.354-3.969-1.482-5.746-0.315l-2.266-5.29C6.667,27.86,4.69,27.093,2.997,27.84c-1.693,0.747-2.46,2.725-1.713,4.417
				l0,0L5.402,41.313z M27.233,60.9H15.684v-8.4h11.55L27.233,60.9z M3.284,30.196c0.228-0.359,0.625-0.576,1.05-0.572
				c0.5-0.001,0.952,0.297,1.148,0.757l2.348,5.479c0.624,1.461,1.522,2.788,2.647,3.91l4.8,4.801c0.41,0.41,1.075,0.41,1.485,0
				c0.41-0.41,0.41-1.075,0-1.485l0,0l-4.8-4.8c-0.482-0.48-0.916-1.008-1.295-1.573c1.008-0.775,2.418-0.751,3.4,0.058
				c1.963,1.801,4.232,3.238,6.7,4.241c1.004,0.366,1.879,1.017,2.52,1.872c1.226,1.594,1.877,3.555,1.846,5.565v1.954h-8.682
				l-7.285-7.291c-0.773-0.771-1.401-1.678-1.853-2.674l-4.116-9.049C3.019,31.002,3.051,30.552,3.284,30.196z"/>
			
				<linearGradient id="Shape-2_1_" gradientUnits="userSpaceOnUse" x1="-188.9404" y1="242.7793" x2="-188.9404" y2="241.7803" gradientTransform="matrix(3.1524 0 0 -2.1 619.176 565.4888)">
				<stop  offset="0.13" style="stop-color:#00A9ED"/>
				<stop  offset="1" style="stop-color:#65106B"/>
			</linearGradient>
			<path id="Shape-2" fill="url(#Shape-2_1_)" d="M24.083,55.65h-1.05c-0.58-0.001-1.051,0.469-1.051,1.049
				c-0.001,0.58,0.469,1.051,1.049,1.051c0,0,0.001,0,0.002,0h1.05c0.58,0,1.05-0.469,1.051-1.049c0-0.58-0.469-1.051-1.049-1.051
				C24.084,55.65,24.084,55.65,24.083,55.65z"/>
			
				<linearGradient id="Shape-3_1_" gradientUnits="userSpaceOnUse" x1="-264.103" y1="417.0137" x2="-264.103" y2="416.0137" gradientTransform="matrix(28.3206 0 0 -35.4058 7529.3413 14792.3271)">
				<stop  offset="0.13" style="stop-color:#00A9ED"/>
				<stop  offset="1" style="stop-color:#65106B"/>
			</linearGradient>
			<path id="Shape-3" fill="url(#Shape-3_1_)" d="M43.534,39.012c-1.391,0.492-2.607,1.379-3.5,2.553
				c-1.521,1.967-2.332,4.391-2.301,6.877v1.955c-1.16,0-2.1,0.939-2.1,2.1v8.4c0,1.159,0.939,2.1,2.1,2.1h11.551
				c1.16,0,2.1-0.94,2.1-2.1v-8.4c-0.002-0.531-0.205-1.043-0.57-1.43l6.473-6.471c0.951-0.949,1.723-2.061,2.279-3.283l4.117-9.054
				c0.729-1.698-0.057-3.667-1.756-4.396c-1.676-0.72-3.619,0.034-4.369,1.696l-2.268,5.287c-1.775-1.168-4.105-1.04-5.744,0.315
				C47.778,36.781,45.745,38.084,43.534,39.012z M49.284,60.9H37.733v-8.4h11.551V60.9z M54.297,36.712
				c-0.377,0.566-0.811,1.094-1.293,1.575l-4.799,4.8c-0.41,0.41-0.41,1.075,0,1.485s1.074,0.41,1.484,0l0,0l4.801-4.801
				c1.123-1.123,2.02-2.451,2.643-3.914l2.35-5.479c0.277-0.631,1.014-0.916,1.645-0.638s0.918,1.015,0.639,1.646l-4.115,9.052
				c-0.451,0.995-1.078,1.9-1.852,2.672l-7.283,7.285h-8.684v-1.951c-0.031-2.01,0.617-3.971,1.842-5.564
				c0.641-0.855,1.518-1.506,2.521-1.872c2.467-1.004,4.736-2.44,6.699-4.241C51.877,35.957,53.29,35.935,54.297,36.712z"/>
			
				<linearGradient id="Shape-4_1_" gradientUnits="userSpaceOnUse" x1="-188.9409" y1="242.7803" x2="-188.9409" y2="241.7813" gradientTransform="matrix(3.1524 0 0 -2.1 637.0271 565.4888)">
				<stop  offset="0.13" style="stop-color:#00A9ED"/>
				<stop  offset="1" style="stop-color:#65106B"/>
			</linearGradient>
			<path id="Shape-4" fill="url(#Shape-4_1_)" d="M41.934,55.65h-1.051c-0.58-0.001-1.051,0.469-1.051,1.049
				c-0.002,0.58,0.469,1.051,1.049,1.051h0.002h1.051c0.578,0,1.049-0.469,1.051-1.049c0-0.58-0.469-1.051-1.049-1.051
				C41.934,55.65,41.934,55.65,41.934,55.65z"/>
			
				<linearGradient id="Shape-5_1_" gradientUnits="userSpaceOnUse" x1="-266.0483" y1="417.1045" x2="-266.0483" y2="416.1045" gradientTransform="matrix(35.701 0 0 -35.7 9530.7031 14890.6299)">
				<stop  offset="0.13" style="stop-color:#00A9ED"/>
				<stop  offset="1" style="stop-color:#65106B"/>
			</linearGradient>
			<path id="Shape-5" fill="url(#Shape-5_1_)" d="M15.214,19.845c0.356,0.178,0.782,0.139,1.1-0.1l1.47-1.1V33.6
				c0,1.16,0.94,2.101,2.1,2.101h25.201c1.16,0,2.1-0.94,2.1-2.101V18.638l1.471,1.1c0.463,0.348,1.121,0.254,1.469-0.21
				c0.137-0.182,0.211-0.403,0.211-0.63V13.65c0-0.331-0.156-0.642-0.42-0.84L33.114,0.21c-0.374-0.28-0.887-0.28-1.261,0
				l-7.77,5.828V4.2c0-1.16-0.94-2.1-2.1-2.1l0,0h-2.1c-1.16,0-2.1,0.94-2.1,2.1l0,0v6.563l-2.73,2.047
				c-0.265,0.198-0.42,0.509-0.42,0.84v5.25C14.631,19.3,14.856,19.667,15.214,19.845z M45.083,33.6
				c-5.285,0.118-6.535,0.118-25.2,0V17.063l12.6-9.45l12.6,9.45V33.6z M19.883,4.2h2.1v3.413l-2.1,1.575V4.2z M16.733,14.175
				l15.75-11.812l15.75,11.812V16.8L33.114,5.46c-0.374-0.28-0.887-0.28-1.261,0L16.733,16.8V14.175z"/>
		</g>
	</g>
	
		<linearGradient id="Subtraction_26_1_" gradientUnits="userSpaceOnUse" x1="339.2871" y1="917.682" x2="339.2871" y2="916.682" gradientTransform="matrix(11.2 0 0 -13.789 -3178.5757 13191.7197)">
		<stop  offset="0.13" style="stop-color:#00A9ED"/>
		<stop  offset="1" style="stop-color:#65106B"/>
	</linearGradient>
	<path id="Subtraction_26" fill="url(#Subtraction_26_1_)" d="M617.575,551.592h-1.724v-13.789h11.2v13.787h-1.721v-12.064h-7.755
		V551.592L617.575,551.592z"/>
</g>
</svg>
