<?xml version="1.0" encoding="utf-8"?>
<!-- Generator: Adobe Illustrator 14.0.0, SVG Export Plug-In . SVG Version: 6.00 Build 43363)  -->
<!DOCTYPE svg PUBLIC "-//W3C//DTD SVG 1.1//EN" "http://www.w3.org/Graphics/SVG/1.1/DTD/svg11.dtd">
<svg version="1.1" id="Layer_1" xmlns="http://www.w3.org/2000/svg" xmlns:xlink="http://www.w3.org/1999/xlink" x="0px" y="0px"
	 width="65px" height="65px" viewBox="0 0 65 65" enable-background="new 0 0 65 65" xml:space="preserve">
<g id="Group_2779" transform="translate(-654 -4425.52)">
	<g id="helicopter" transform="matrix(0.839, -0.545, 0.545, 0.839, 666.846, 4447.986)">
		<g id="Group_2668" transform="translate(0 0)">
			<g id="Group_2667" transform="translate(0 0)">
				
					<linearGradient id="Path_17781_1_" gradientUnits="userSpaceOnUse" x1="177.6379" y1="-275.7203" x2="177.6379" y2="-276.7208" gradientTransform="matrix(6.3988 0.6949 4.1566 -1.0697 10.7416 -391.081)">
					<stop  offset="0.13" style="stop-color:#00A9ED"/>
					<stop  offset="1" style="stop-color:#65106B"/>
				</linearGradient>
				<path id="Path_17781" fill="url(#Path_17781_1_)" d="M5.18,27.937c0.001-0.352-0.284-0.637-0.636-0.638c0,0-0.001-0.001-0.002,0
					l-6.376,0c-0.353,0.014-0.627,0.311-0.613,0.662c0.013,0.333,0.28,0.6,0.612,0.613l6.376-0.001
					C4.893,28.574,5.179,28.289,5.18,27.937z"/>
				
					<linearGradient id="Path_17782_1_" gradientUnits="userSpaceOnUse" x1="10.5343" y1="-23.5212" x2="10.5343" y2="-24.5212" gradientTransform="matrix(26.7505 4.1706 17.3767 -6.4204 145.4943 -185.502)">
					<stop  offset="0.13" style="stop-color:#00A9ED"/>
					<stop  offset="1" style="stop-color:#65106B"/>
				</linearGradient>
				<path id="Path_17782" fill="url(#Path_17782_1_)" d="M4.542,13.271c0.644-0.001,10.458-0.932,13.391-1.213l0,3.763l-0.638,0
					c-0.352-0.013-0.649,0.261-0.662,0.613c-0.014,0.353,0.26,0.648,0.612,0.663c0.017,0.001,0.033,0.001,0.05,0l2.551,0
					c0.351-0.014,0.625-0.311,0.612-0.663c-0.013-0.332-0.279-0.599-0.613-0.612l-0.638,0l0-3.763
					c2.934,0.28,12.747,1.212,13.391,1.212c1.057,0,1.914-0.856,1.914-1.913c0-1.057-0.857-1.914-1.914-1.913
					c-0.706,0-12.429,1.119-14.028,1.272c-1.599-0.153-13.324-1.272-14.03-1.272c-1.056,0-1.913,0.856-1.913,1.913
					C2.628,12.415,3.485,13.271,4.542,13.271z M32.599,10.72c0.352,0.014,0.626,0.311,0.612,0.663
					c-0.013,0.332-0.28,0.599-0.613,0.612c-0.315,0-3.558-0.294-7.25-0.638C29.038,11.014,32.282,10.72,32.599,10.72z M4.542,10.72
					c0.316,0,3.56,0.293,7.251,0.639c-3.691,0.344-6.935,0.635-7.251,0.638c-0.352,0.013-0.648-0.261-0.662-0.613
					c-0.014-0.352,0.259-0.649,0.612-0.663c0.017-0.001,0.033,0,0.05,0L4.542,10.72z"/>
				
					<linearGradient id="Path_17783_1_" gradientUnits="userSpaceOnUse" x1="178.6527" y1="-275.0605" x2="178.6527" y2="-276.0605" gradientTransform="matrix(4.7938 0.6949 3.114 -1.0697 3.0654 -387.2579)">
					<stop  offset="0.13" style="stop-color:#00A9ED"/>
					<stop  offset="1" style="stop-color:#65106B"/>
				</linearGradient>
				<path id="Path_17783" fill="url(#Path_17783_1_)" d="M5.817,31.763c0.001-0.352-0.283-0.637-0.636-0.638l-0.002,0l-4.463,0
					c-0.352,0.014-0.626,0.31-0.612,0.663c0.013,0.332,0.28,0.599,0.612,0.612l4.462,0c0.352,0.001,0.638-0.283,0.639-0.635
					C5.818,31.765,5.818,31.763,5.817,31.763z"/>
				
					<linearGradient id="Path_17784_1_" gradientUnits="userSpaceOnUse" x1="118.6212" y1="-162.2913" x2="118.6212" y2="-163.2913" gradientTransform="matrix(1.4536 1.07 0.9442 -1.6473 10.75 -369.9685)">
					<stop  offset="0.13" style="stop-color:#00A9ED"/>
					<stop  offset="1" style="stop-color:#65106B"/>
				</linearGradient>
				<path id="Path_17784" fill="url(#Path_17784_1_)" d="M30.166,26.259c0.352-0.001,0.637-0.287,0.636-0.639
					c0-0.114-0.03-0.226-0.089-0.325c-0.155-0.263-0.325-0.517-0.508-0.763c-0.222-0.275-0.623-0.316-0.898-0.096
					c-0.258,0.209-0.314,0.582-0.125,0.857c0.155,0.21,0.301,0.429,0.434,0.654C29.732,26.141,29.94,26.259,30.166,26.259z"/>
				
					<linearGradient id="Path_17785_1_" gradientUnits="userSpaceOnUse" x1="-12.1269" y1="11.1011" x2="-12.1269" y2="10.1011" gradientTransform="matrix(32.1009 13.2054 20.8522 -20.329 173.2108 400.3608)">
					<stop  offset="0.13" style="stop-color:#00A9ED"/>
					<stop  offset="1" style="stop-color:#65106B"/>
				</linearGradient>
				<path id="Path_17785" fill="url(#Path_17785_1_)" d="M23.033,18.372L2.96,18.372c-0.437,0-0.82-0.472-1.037-0.924l-0.626-1.25
					c-0.333-0.918-1.164-1.562-2.136-1.653l-2.272,0c-0.352-0.003-0.64,0.282-0.642,0.634c0,0.028,0.002,0.055,0.005,0.082
					l0.651,5.154c0.519,2.429,2.607,4.205,5.088,4.329l7.651,0c0.353-0.014,0.627-0.311,0.612-0.663
					c-0.013-0.333-0.28-0.6-0.611-0.612l-7.652,0c-1.859-0.121-3.416-1.45-3.831-3.265l-0.548-4.385l1.55,0
					c0.392,0,0.78,0.465,0.984,0.922l0.633,1.267c0.35,0.921,1.199,1.558,2.181,1.636l20.073,0.001
					c5.629,0.007,10.192,4.569,10.199,10.2c0,5.65-2,7.652-7.651,7.652l-7.012,0c-5.857-0.001-8.54-2.178-9.577-7.777l-0.641-3.185
					c-0.054-0.348-0.38-0.587-0.729-0.533c-0.347,0.054-0.586,0.379-0.533,0.728c0.003,0.018,0.006,0.037,0.011,0.055l0.637,3.179
					c1.143,6.176,4.382,8.811,10.828,8.811l7.014,0c6.341,0,8.928-2.586,8.927-8.926C34.501,23.515,29.368,18.381,23.033,18.372z"/>
				
					<linearGradient id="Path_17786_1_" gradientUnits="userSpaceOnUse" x1="-5.0774" y1="2.5235" x2="-5.0774" y2="1.5235" gradientTransform="matrix(11.7962 8.3701 7.6626 -12.8854 65.5065 95.9052)">
					<stop  offset="0.13" style="stop-color:#00A9ED"/>
					<stop  offset="1" style="stop-color:#65106B"/>
				</linearGradient>
				<path id="Path_17786" fill="url(#Path_17786_1_)" d="M20.47,27.812l-1.275-6.377c-0.053-0.348-0.38-0.588-0.727-0.533
					c-0.349,0.053-0.588,0.38-0.533,0.728c0.002,0.018,0.006,0.037,0.011,0.055l1.276,6.384c0.363,1.7,1.254,2.737,2.537,2.991
					l0,4.529c-0.014,0.352,0.26,0.648,0.613,0.662c0.352,0.014,0.648-0.26,0.662-0.613c0-0.016,0-0.034,0-0.05l0-4.467l8.29,0
					c0.352,0.013,0.649-0.261,0.663-0.612c0.014-0.352-0.261-0.649-0.612-0.663c-0.017-0.001-0.034-0.001-0.051,0l-8.928,0.001
					C22.028,29.85,20.906,29.85,20.47,27.812z"/>
				
					<linearGradient id="Path_17787_1_" gradientUnits="userSpaceOnUse" x1="72.5908" y1="-109.4389" x2="72.5908" y2="-110.4389" gradientTransform="matrix(3.7906 1.5165 2.4623 -2.3345 20.8792 -344.3567)">
					<stop  offset="0.13" style="stop-color:#00A9ED"/>
					<stop  offset="1" style="stop-color:#65106B"/>
				</linearGradient>
				<path id="Path_17787" fill="url(#Path_17787_1_)" d="M27.782,23.847c0.271,0.225,0.673,0.187,0.897-0.084
					c0.224-0.271,0.187-0.673-0.084-0.897c-1.034-0.843-2.264-1.41-3.577-1.651c-0.351-0.04-0.667,0.214-0.706,0.564
					c-0.04,0.351,0.212,0.668,0.564,0.707l0,0C25.941,22.697,26.938,23.164,27.782,23.847z"/>
				
					<linearGradient id="Path_17788_1_" gradientUnits="userSpaceOnUse" x1="180.7305" y1="-273.7132" x2="180.7305" y2="-274.7132" gradientTransform="matrix(3.1677 0.6949 2.0577 -1.0697 -4.7431 -383.43)">
					<stop  offset="0.13" style="stop-color:#00A9ED"/>
					<stop  offset="1" style="stop-color:#65106B"/>
				</linearGradient>
				<path id="Path_17788" fill="url(#Path_17788_1_)" d="M5.817,34.951l-2.551,0.001c-0.351,0.014-0.625,0.311-0.612,0.663
					c0.013,0.332,0.279,0.598,0.613,0.612l2.549,0c0.353-0.014,0.627-0.311,0.612-0.663C6.416,35.23,6.149,34.964,5.817,34.951z"/>
				
					<linearGradient id="Path_17789_1_" gradientUnits="userSpaceOnUse" x1="43.585" y1="-74.0983" x2="43.585" y2="-75.0987" gradientTransform="matrix(22.4499 2.0864 14.5831 -3.2119 123.2244 -290.161)">
					<stop  offset="0.13" style="stop-color:#00A9ED"/>
					<stop  offset="1" style="stop-color:#65106B"/>
				</linearGradient>
				<path id="Path_17789" fill="url(#Path_17789_1_)" d="M33.875,38.777c-0.352-0.001-0.638,0.285-0.638,0.638l0,0
					c0.054,1.002-0.715,1.859-1.718,1.913c-0.065,0.004-0.13,0.004-0.195,0l-4.039,0l-0.474-1.141
					c-0.135-0.326-0.509-0.481-0.835-0.346c-0.326,0.136-0.481,0.509-0.345,0.836l0,0l0.27,0.652l-9.563,0l0.271-0.652
					c0.136-0.325-0.019-0.699-0.344-0.834c-0.326-0.136-0.7,0.018-0.836,0.344l0,0l-0.473,1.142l-6.589,0
					c-0.351,0.014-0.625,0.311-0.612,0.663c0.013,0.332,0.28,0.6,0.613,0.612l22.955,0.001c1.696,0.063,3.123-1.26,3.188-2.956
					c0.003-0.077,0.003-0.155,0-0.233C34.513,39.064,34.228,38.778,33.875,38.777L33.875,38.777z"/>
			</g>
		</g>
	</g>
	<g id="accident_1_" transform="translate(654 4425.52)">
		<g id="Group_2209" transform="translate(0.01 0.848)">
			<g id="Group_2208" transform="translate(0 0)">
				
					<linearGradient id="Path_17323_1_" gradientUnits="userSpaceOnUse" x1="22.1907" y1="41.3932" x2="22.1907" y2="40.3932" gradientTransform="matrix(19.4001 0 0 -24.4756 -418.8011 1023.0925)">
					<stop  offset="0.13" style="stop-color:#00A9ED"/>
					<stop  offset="1" style="stop-color:#65106B"/>
				</linearGradient>
				<path id="Path_17323" fill="url(#Path_17323_1_)" d="M18.348,21.72c2.993-1.806,3.956-5.696,2.15-8.689
					c-1.806-2.994-5.697-3.956-8.69-2.15c-1.897,1.145-3.058,3.199-3.06,5.415c0,0.162,0.006,0.324,0.018,0.484
					c-3.229-0.469-6.227,1.769-6.695,4.998c-0.468,3.229,1.77,6.227,4.999,6.695c0.313,0.045,0.628,0.065,0.944,0.061
					c-0.072,0.275-0.109,0.559-0.109,0.844c0,1.585,1.103,2.957,2.65,3.3c0.422,1.333,1.846,2.071,3.179,1.648
					c1.333-0.422,2.071-1.845,1.648-3.178c-0.108-0.343-0.288-0.657-0.527-0.925c2.786-0.098,4.964-2.436,4.866-5.222
					c-0.043-1.222-0.529-2.387-1.366-3.278L18.348,21.72z M15.948,21.773c0.063,0.201,0.199,0.37,0.381,0.476
					c1.051,0.591,1.701,1.703,1.7,2.909c0,1.864-1.511,3.376-3.375,3.377c-0.229,0-0.458-0.023-0.684-0.07
					c-0.457-0.094-0.903,0.2-0.997,0.656c-0.015,0.071-0.02,0.145-0.016,0.218c0,0.041,0.008,0.071,0.008,0.04
					c0,0.223-0.044,0.443-0.13,0.649c-0.177,0.429,0.026,0.92,0.454,1.1l0,0c0.431,0.179,0.634,0.673,0.456,1.104
					c-0.179,0.431-0.673,0.634-1.104,0.455c-0.315-0.131-0.52-0.438-0.52-0.779c0-0.467-0.378-0.845-0.844-0.845
					c-0.933-0.004-1.685-0.764-1.68-1.695c0.002-0.545,0.268-1.056,0.713-1.37c0.063-0.046,0.121-0.1,0.169-0.161
					c0.084-0.003,0.167-0.019,0.247-0.046c0.078-0.029,0.158-0.053,0.239-0.069c0.458-0.084,0.761-0.524,0.677-0.983
					c-0.013-0.07-0.035-0.14-0.066-0.204c-0.008-0.02-0.035-0.068-0.052-0.101c-0.201-0.42-0.705-0.598-1.126-0.396
					c-0.039,0.019-0.076,0.04-0.111,0.063c-0.084,0.058-0.169,0.109-0.261,0.161c-0.09,0.052-0.17,0.119-0.235,0.2
					c-0.1,0.004-0.199,0.025-0.292,0.063c-2.156,0.884-4.62-0.148-5.503-2.305s0.149-4.62,2.306-5.504
					c1.032-0.422,2.189-0.419,3.218,0.009c0.431,0.179,0.924-0.026,1.103-0.457c0.076-0.183,0.084-0.387,0.025-0.576
					c-0.773-2.444,0.582-5.052,3.026-5.825s5.053,0.582,5.826,3.026c0.771,2.436-0.572,5.036-3.004,5.818
					c-0.444,0.141-0.69,0.615-0.549,1.06c0,0,0,0.001,0,0.001L15.948,21.773z"/>
			</g>
		</g>
		<g id="Group_2211" transform="translate(0 0)">
			<g id="Group_2210" transform="translate(0 0)">
				
					<linearGradient id="Path_17324_1_" gradientUnits="userSpaceOnUse" x1="62.4043" y1="-16.2495" x2="62.4043" y2="-17.2495" gradientTransform="matrix(5.064 0 0 -5.064 -311.4791 -72.3255)">
					<stop  offset="0.13" style="stop-color:#00A9ED"/>
					<stop  offset="1" style="stop-color:#65106B"/>
				</linearGradient>
				<path id="Path_17324" fill="url(#Path_17324_1_)" d="M4.536,9.962c-1.398,0-2.532,1.133-2.532,2.531s1.134,2.532,2.532,2.532
					s2.532-1.134,2.532-2.532S5.934,9.962,4.536,9.962L4.536,9.962z M4.536,13.338c-0.466,0-0.844-0.378-0.844-0.845
					c0-0.466,0.378-0.844,0.844-0.844c0.466,0,0.844,0.378,0.844,0.844l0,0c0.003,0.467-0.373,0.847-0.839,0.85
					c-0.002,0-0.003,0-0.005,0V13.338z"/>
			</g>
		</g>
		<g id="Group_2213" transform="translate(16.037 21.945)">
			<g id="Group_2212" transform="translate(0)">
				
					<linearGradient id="Path_17325_1_" gradientUnits="userSpaceOnUse" x1="100.7706" y1="-111.9435" x2="100.7706" y2="-112.9435" gradientTransform="matrix(2.532 0 0 -2.532 -251.884 -273.4753)">
					<stop  offset="0.13" style="stop-color:#00A9ED"/>
					<stop  offset="1" style="stop-color:#65106B"/>
				</linearGradient>
				<path id="Path_17325" fill="url(#Path_17325_1_)" d="M3.269,9.966c-0.699,0-1.266,0.567-1.266,1.267s0.566,1.266,1.266,1.266
					s1.266-0.566,1.266-1.266l0,0C4.535,10.534,3.968,9.966,3.269,9.966z M3.269,11.655c-0.233,0-0.422-0.188-0.422-0.422
					s0.189-0.422,0.422-0.422c0.233,0,0.422,0.188,0.422,0.422l0,0C3.692,11.466,3.503,11.655,3.269,11.655z"/>
			</g>
		</g>
	</g>
</g>
</svg>
