<?xml version="1.0" encoding="utf-8"?>
<!-- Generator: Adobe Illustrator 16.0.0, SVG Export Plug-In . SVG Version: 6.00 Build 0)  -->
<!DOCTYPE svg PUBLIC "-//W3C//DTD SVG 1.1//EN" "http://www.w3.org/Graphics/SVG/1.1/DTD/svg11.dtd">
<svg version="1.1" id="Layer_1" xmlns="http://www.w3.org/2000/svg" xmlns:xlink="http://www.w3.org/1999/xlink" x="0px" y="0px"
	 width="63px" height="63px" viewBox="0 0 63 63" enable-background="new 0 0 63 63" xml:space="preserve">
<g id="assets" transform="translate(-2 -2)">
	
		<linearGradient id="Path_18115_1_" gradientUnits="userSpaceOnUse" x1="-267.2461" y1="423.8223" x2="-267.2461" y2="422.8223" gradientTransform="matrix(62.445 0 0 -62.9527 16721.4336 26682.7656)">
		<stop  offset="0" style="stop-color:#00A9E0"/>
		<stop  offset="1" style="stop-color:#801C7D"/>
	</linearGradient>
	<path id="Path_18115" fill="url(#Path_18115_1_)" d="M4.1,65.002h6.3c1.16,0,2.1-0.939,2.1-2.1v-2.101h23.736
		c13.645,0.001,25.321-9.796,27.691-23.235l0.455-2.58c0.383-2.144-1.045-4.192-3.189-4.575c-0.85-0.151-1.726-0.02-2.493,0.375
		V26.15h1.05c0.58,0,1.05-0.471,1.049-1.051c0-0.278-0.11-0.544-0.307-0.741l-8.4-8.4c-0.409-0.41-1.073-0.411-1.483-0.001
		c-0.001,0-0.001,0.001-0.001,0.001L48.2,18.365V4.102c0-0.58-0.47-1.05-1.05-1.05h-10.5c-0.58,0-1.051,0.47-1.051,1.05l0,0v11.55
		h-4.254c-0.492-1.194-1.118-2.329-1.865-3.382l2.653-6.485c0.387-0.928-0.051-1.994-0.979-2.381
		c-0.488-0.204-1.041-0.185-1.514,0.052l-1.986,0.992L26.4,2.781c-0.602-0.806-1.743-0.972-2.548-0.37
		c-0.07,0.052-0.135,0.109-0.197,0.17l-1.6,1.6l-1.049-1.4c-0.602-0.806-1.743-0.972-2.548-0.37
		c-0.069,0.052-0.135,0.109-0.196,0.17l-2.007,2.021l-3.028-0.865C12.26,3.46,11.252,4.02,10.975,4.986
		c-0.131,0.458-0.077,0.951,0.151,1.37l3.174,5.859c-2.227,2.014-4.95,7.672-4.95,12.814v3.22c0.003,3.478,2.822,6.297,6.3,6.3h40.3
		l-2.218,4.436l-5.772,2.477c-0.655-2.223-2.692-3.75-5.01-3.759H27.833c-5.417-0.008-10.728,1.499-15.333,4.351v-2.251
		c0-1.159-0.94-2.1-2.1-2.1H4.1c-1.16,0-2.1,0.94-2.1,2.1v23.101C2,64.063,2.94,65.002,4.1,65.002z M15.836,6.665
		c0.636,0.182,1.32,0.005,1.787-0.463l1.9-1.9l1.05,1.4c0.604,0.804,1.744,0.967,2.548,0.364c0.069-0.052,0.135-0.109,0.196-0.17
		l1.6-1.6l1.2,1.6c0.526,0.707,1.483,0.933,2.27,0.538l1.528-0.764l-2.369,5.782H24.7l1.34-2.681l-1.878-0.94l-1.809,3.62H20.51
		l-1.463-3.049l-1.893,0.91l1.026,2.135h-1.9l-2.99-5.51L15.836,6.665z M26.15,16.702v15.75h-10.5c-2.319,0-4.2-1.88-4.2-4.2l0,0
		v-3.22c0-5.621,3.479-10.862,4.474-11.48h11.893c0.477,0.655,0.881,1.359,1.207,2.1H27.2C26.62,15.652,26.15,16.122,26.15,16.702z
		 M28.25,17.752h7.35v14.7h-7.35V17.752z M51.35,18.187l5.865,5.865h-11.73L51.35,18.187z M37.7,5.15H46.1v15.315l-3.892,3.892
		c-0.409,0.411-0.409,1.075,0.001,1.485c0.197,0.196,0.463,0.307,0.741,0.307H44v6.3h-6.3V5.15z M46.1,26.15h10.5v6.3h-2.1v-4.2
		c0-0.58-0.471-1.05-1.05-1.05h-4.2c-0.58,0-1.05,0.47-1.05,1.05v4.2H46.1V26.15z M52.4,32.45H50.3v-3.148H52.4V32.45z
		 M27.833,39.802H42.95c1.739,0.001,3.149,1.412,3.147,3.151c0,1.738-1.409,3.148-3.147,3.148h-16.8v2.101h16.8
		c2.612-0.009,4.819-1.938,5.176-4.527l6.786-2.909c0.229-0.098,0.416-0.275,0.525-0.5l3.4-6.8c0.458-0.915,1.57-1.285,2.485-0.827
		c0.731,0.367,1.137,1.17,0.995,1.977l-0.457,2.586c-2.193,12.435-12.998,21.5-25.625,21.5H12.5V44.564
		C17.009,41.457,22.357,39.796,27.833,39.802z M4.1,39.802h6.3v23.101H4.1V39.802z"/>
	
		<linearGradient id="Path_18116_1_" gradientUnits="userSpaceOnUse" x1="-145.0239" y1="306.5205" x2="-145.0239" y2="305.5205" gradientTransform="matrix(2.1 0 0 -3.15 311.7992 1008.4907)">
		<stop  offset="0" style="stop-color:#00A9E0"/>
		<stop  offset="1" style="stop-color:#801C7D"/>
	</linearGradient>
	<path id="Path_18116" fill="url(#Path_18116_1_)" d="M6.2,42.95h2.1V46.1H6.2V42.95z"/>
	
		<linearGradient id="Path_18117_1_" gradientUnits="userSpaceOnUse" x1="-18.5474" y1="244.7813" x2="-18.5474" y2="243.7813" gradientTransform="matrix(1.05 0 0 -2.1 59.799 521.2906)">
		<stop  offset="0" style="stop-color:#00A9E0"/>
		<stop  offset="1" style="stop-color:#801C7D"/>
	</linearGradient>
	<path id="Path_18117" fill="url(#Path_18117_1_)" d="M39.8,7.25h1.05v2.1H39.8V7.25z"/>
	
		<linearGradient id="Path_18118_1_" gradientUnits="userSpaceOnUse" x1="-18.5474" y1="244.7813" x2="-18.5474" y2="243.7813" gradientTransform="matrix(1.05 0 0 -2.1 62.9494 521.2906)">
		<stop  offset="0" style="stop-color:#00A9E0"/>
		<stop  offset="1" style="stop-color:#801C7D"/>
	</linearGradient>
	<path id="Path_18118" fill="url(#Path_18118_1_)" d="M42.95,7.25H44v2.1h-1.05V7.25z"/>
	
		<linearGradient id="Path_18119_1_" gradientUnits="userSpaceOnUse" x1="-18.5474" y1="244.7813" x2="-18.5474" y2="243.7822" gradientTransform="matrix(1.05 0 0 -2.1 59.799 525.4899)">
		<stop  offset="0" style="stop-color:#00A9E0"/>
		<stop  offset="1" style="stop-color:#801C7D"/>
	</linearGradient>
	<path id="Path_18119" fill="url(#Path_18119_1_)" d="M39.8,11.45h1.05v2.1H39.8V11.45z"/>
	
		<linearGradient id="Path_18120_1_" gradientUnits="userSpaceOnUse" x1="-18.5474" y1="244.7813" x2="-18.5474" y2="243.7822" gradientTransform="matrix(1.05 0 0 -2.1 62.9494 525.4899)">
		<stop  offset="0" style="stop-color:#00A9E0"/>
		<stop  offset="1" style="stop-color:#801C7D"/>
	</linearGradient>
	<path id="Path_18120" fill="url(#Path_18120_1_)" d="M42.95,11.45H44v2.1h-1.05V11.45z"/>
	
		<linearGradient id="Path_18121_1_" gradientUnits="userSpaceOnUse" x1="-18.5474" y1="244.7803" x2="-18.5474" y2="243.7803" gradientTransform="matrix(1.05 0 0 -2.1 59.799 529.691)">
		<stop  offset="0" style="stop-color:#00A9E0"/>
		<stop  offset="1" style="stop-color:#801C7D"/>
	</linearGradient>
	<path id="Path_18121" fill="url(#Path_18121_1_)" d="M39.8,15.65h1.05v2.1H39.8V15.65z"/>
	
		<linearGradient id="Path_18122_1_" gradientUnits="userSpaceOnUse" x1="-18.5474" y1="244.7803" x2="-18.5474" y2="243.7803" gradientTransform="matrix(1.05 0 0 -2.1 62.9494 529.691)">
		<stop  offset="0" style="stop-color:#00A9E0"/>
		<stop  offset="1" style="stop-color:#801C7D"/>
	</linearGradient>
	<path id="Path_18122" fill="url(#Path_18122_1_)" d="M42.95,15.65H44v2.1h-1.05V15.65z"/>
	
		<linearGradient id="Path_18123_1_" gradientUnits="userSpaceOnUse" x1="-18.5474" y1="244.7813" x2="-18.5474" y2="243.7813" gradientTransform="matrix(1.05 0 0 -2.1 50.3498 533.8903)">
		<stop  offset="0" style="stop-color:#00A9E0"/>
		<stop  offset="1" style="stop-color:#801C7D"/>
	</linearGradient>
	<path id="Path_18123" fill="url(#Path_18123_1_)" d="M30.35,19.85h1.05v2.1h-1.05V19.85z"/>
	
		<linearGradient id="Path_18124_1_" gradientUnits="userSpaceOnUse" x1="-18.5474" y1="244.7813" x2="-18.5474" y2="243.7813" gradientTransform="matrix(1.05 0 0 -2.1 53.4992 533.8903)">
		<stop  offset="0" style="stop-color:#00A9E0"/>
		<stop  offset="1" style="stop-color:#801C7D"/>
	</linearGradient>
	<path id="Path_18124" fill="url(#Path_18124_1_)" d="M33.5,19.85h1.05v2.1H33.5V19.85z"/>
	
		<linearGradient id="Path_18125_1_" gradientUnits="userSpaceOnUse" x1="-18.5474" y1="244.7822" x2="-18.5474" y2="243.7813" gradientTransform="matrix(1.05 0 0 -2.1 50.3498 538.0895)">
		<stop  offset="0" style="stop-color:#00A9E0"/>
		<stop  offset="1" style="stop-color:#801C7D"/>
	</linearGradient>
	<path id="Path_18125" fill="url(#Path_18125_1_)" d="M30.35,24.05h1.05v2.1h-1.05V24.05z"/>
	
		<linearGradient id="Path_18126_1_" gradientUnits="userSpaceOnUse" x1="-18.5474" y1="244.7822" x2="-18.5474" y2="243.7813" gradientTransform="matrix(1.05 0 0 -2.1 53.4992 538.0895)">
		<stop  offset="0" style="stop-color:#00A9E0"/>
		<stop  offset="1" style="stop-color:#801C7D"/>
	</linearGradient>
	<path id="Path_18126" fill="url(#Path_18126_1_)" d="M33.5,24.05h1.05v2.1H33.5V24.05z"/>
	
		<linearGradient id="Path_18127_1_" gradientUnits="userSpaceOnUse" x1="-18.5474" y1="244.7813" x2="-18.5474" y2="243.7813" gradientTransform="matrix(1.05 0 0 -2.1 50.3498 542.2906)">
		<stop  offset="0" style="stop-color:#00A9E0"/>
		<stop  offset="1" style="stop-color:#801C7D"/>
	</linearGradient>
	<path id="Path_18127" fill="url(#Path_18127_1_)" d="M30.35,28.25h1.05v2.1h-1.05V28.25z"/>
	
		<linearGradient id="Path_18128_1_" gradientUnits="userSpaceOnUse" x1="-18.5474" y1="244.7813" x2="-18.5474" y2="243.7813" gradientTransform="matrix(1.05 0 0 -2.1 53.4992 542.2906)">
		<stop  offset="0" style="stop-color:#00A9E0"/>
		<stop  offset="1" style="stop-color:#801C7D"/>
	</linearGradient>
	<path id="Path_18128" fill="url(#Path_18128_1_)" d="M33.5,28.25h1.05v2.1H33.5V28.25z"/>
	
		<linearGradient id="Path_18129_1_" gradientUnits="userSpaceOnUse" x1="-18.5474" y1="244.7813" x2="-18.5474" y2="243.7813" gradientTransform="matrix(1.05 0 0 -2.1 59.799 533.8903)">
		<stop  offset="0" style="stop-color:#00A9E0"/>
		<stop  offset="1" style="stop-color:#801C7D"/>
	</linearGradient>
	<path id="Path_18129" fill="url(#Path_18129_1_)" d="M39.8,19.85h1.05v2.1H39.8V19.85z"/>
	
		<linearGradient id="Path_18130_1_" gradientUnits="userSpaceOnUse" x1="-18.5474" y1="244.7813" x2="-18.5474" y2="243.7813" gradientTransform="matrix(1.05 0 0 -2.1 62.9494 533.8903)">
		<stop  offset="0" style="stop-color:#00A9E0"/>
		<stop  offset="1" style="stop-color:#801C7D"/>
	</linearGradient>
	<path id="Path_18130" fill="url(#Path_18130_1_)" d="M42.95,19.85H44v2.1h-1.05V19.85z"/>
	
		<linearGradient id="Path_18132_1_" gradientUnits="userSpaceOnUse" x1="-145.0229" y1="244.7813" x2="-145.0229" y2="243.7813" gradientTransform="matrix(2.1 0 0 -2.1 361.1489 518.1402)">
		<stop  offset="0" style="stop-color:#00A9E0"/>
		<stop  offset="1" style="stop-color:#801C7D"/>
	</linearGradient>
	<path id="Path_18132" fill="url(#Path_18132_1_)" d="M55.55,4.1h2.101v2.1H55.55V4.1z"/>
	
		<linearGradient id="Path_18133_1_" gradientUnits="userSpaceOnUse" x1="-145.0229" y1="244.7813" x2="-145.0229" y2="243.7813" gradientTransform="matrix(2.1 0 0 -2.1 363.2485 516.0406)">
		<stop  offset="0" style="stop-color:#00A9E0"/>
		<stop  offset="1" style="stop-color:#801C7D"/>
	</linearGradient>
	<path id="Path_18133" fill="url(#Path_18133_1_)" d="M57.65,2h2.1v2.1h-2.1V2z"/>
	
		<linearGradient id="Path_18134_1_" gradientUnits="userSpaceOnUse" x1="-145.0234" y1="244.7813" x2="-145.0234" y2="243.7813" gradientTransform="matrix(2.1 0 0 -2.1 365.35 518.1402)">
		<stop  offset="0" style="stop-color:#00A9E0"/>
		<stop  offset="1" style="stop-color:#801C7D"/>
	</linearGradient>
	<path id="Path_18134" fill="url(#Path_18134_1_)" d="M59.75,4.1h2.1v2.1h-2.1V4.1z"/>
	
		<linearGradient id="Path_18135_1_" gradientUnits="userSpaceOnUse" x1="-145.0229" y1="244.7813" x2="-145.0229" y2="243.7813" gradientTransform="matrix(2.1 0 0 -2.1 363.2485 520.2399)">
		<stop  offset="0" style="stop-color:#00A9E0"/>
		<stop  offset="1" style="stop-color:#801C7D"/>
	</linearGradient>
	<path id="Path_18135" fill="url(#Path_18135_1_)" d="M57.65,6.2h2.1v2.1h-2.1V6.2z"/>
	
		<linearGradient id="Path_18136_1_" gradientUnits="userSpaceOnUse" x1="-145.0229" y1="244.7813" x2="-145.0229" y2="243.7813" gradientTransform="matrix(2.1 0 0 -2.1 368.4985 523.3903)">
		<stop  offset="0" style="stop-color:#00A9E0"/>
		<stop  offset="1" style="stop-color:#801C7D"/>
	</linearGradient>
	<path id="Path_18136" fill="url(#Path_18136_1_)" d="M62.9,9.35H65v2.1h-2.1V9.35z"/>
	
		<linearGradient id="Path_18137_1_" gradientUnits="userSpaceOnUse" x1="-145.0229" y1="244.7822" x2="-145.0229" y2="243.7822" gradientTransform="matrix(2.1 0 0 -2.1 361.1489 526.5406)">
		<stop  offset="0" style="stop-color:#00A9E0"/>
		<stop  offset="1" style="stop-color:#801C7D"/>
	</linearGradient>
	<path id="Path_18137" fill="url(#Path_18137_1_)" d="M55.55,12.5h2.101v2.1H55.55V12.5z"/>
	
		<linearGradient id="Path_18138_1_" gradientUnits="userSpaceOnUse" x1="-145.0239" y1="244.7813" x2="-145.0239" y2="243.7813" gradientTransform="matrix(2.1 0 0 -2.1 307.6 525.4899)">
		<stop  offset="0" style="stop-color:#00A9E0"/>
		<stop  offset="1" style="stop-color:#801C7D"/>
	</linearGradient>
	<path id="Path_18138" fill="url(#Path_18138_1_)" d="M2,11.45h2.1v2.1H2V11.45z"/>
	
		<linearGradient id="Path_18139_1_" gradientUnits="userSpaceOnUse" x1="-145.0239" y1="244.7813" x2="-145.0239" y2="243.7813" gradientTransform="matrix(2.1 0 0 -2.1 309.6996 523.3903)">
		<stop  offset="0" style="stop-color:#00A9E0"/>
		<stop  offset="1" style="stop-color:#801C7D"/>
	</linearGradient>
	<path id="Path_18139" fill="url(#Path_18139_1_)" d="M4.1,9.35h2.1v2.1H4.1V9.35z"/>
	
		<linearGradient id="Path_18140_1_" gradientUnits="userSpaceOnUse" x1="-145.0244" y1="244.7813" x2="-145.0244" y2="243.7813" gradientTransform="matrix(2.1 0 0 -2.1 311.7992 525.4899)">
		<stop  offset="0" style="stop-color:#00A9E0"/>
		<stop  offset="1" style="stop-color:#801C7D"/>
	</linearGradient>
	<path id="Path_18140" fill="url(#Path_18140_1_)" d="M6.2,11.45h2.1v2.1H6.2V11.45z"/>
	
		<linearGradient id="Path_18141_1_" gradientUnits="userSpaceOnUse" x1="-145.0239" y1="244.7803" x2="-145.0239" y2="243.7803" gradientTransform="matrix(2.1 0 0 -2.1 309.6996 527.5895)">
		<stop  offset="0" style="stop-color:#00A9E0"/>
		<stop  offset="1" style="stop-color:#801C7D"/>
	</linearGradient>
	<path id="Path_18141" fill="url(#Path_18141_1_)" d="M4.1,13.55h2.1v2.1H4.1V13.55z"/>
	
		<linearGradient id="Path_18142_1_" gradientUnits="userSpaceOnUse" x1="-145.0239" y1="244.7813" x2="-145.0239" y2="243.7813" gradientTransform="matrix(2.1 0 0 -2.1 307.6 533.8903)">
		<stop  offset="0" style="stop-color:#00A9E0"/>
		<stop  offset="1" style="stop-color:#801C7D"/>
	</linearGradient>
	<path id="Path_18142" fill="url(#Path_18142_1_)" d="M2,19.85h2.1v2.1H2V19.85z"/>
	
		<linearGradient id="Path_18143_1_" gradientUnits="userSpaceOnUse" x1="-145.0244" y1="244.7813" x2="-145.0244" y2="243.7813" gradientTransform="matrix(2.1 0 0 -2.1 311.7992 516.0406)">
		<stop  offset="0" style="stop-color:#00A9E0"/>
		<stop  offset="1" style="stop-color:#801C7D"/>
	</linearGradient>
	<path id="Path_18143" fill="url(#Path_18143_1_)" d="M6.2,2h2.1v2.1H6.2V2z"/>
</g>
</svg>
