<?xml version="1.0" encoding="utf-8"?>
<!-- Generator: Adobe Illustrator 14.0.0, SVG Export Plug-In . SVG Version: 6.00 Build 43363)  -->
<!DOCTYPE svg PUBLIC "-//W3C//DTD SVG 1.1//EN" "http://www.w3.org/Graphics/SVG/1.1/DTD/svg11.dtd">
<svg version="1.1" id="depreciation" xmlns="http://www.w3.org/2000/svg" xmlns:xlink="http://www.w3.org/1999/xlink" x="0px"
	 y="0px" width="65px" height="65px" viewBox="0 0 65 65" enable-background="new 0 0 65 65" xml:space="preserve">
<g id="Group_3618" transform="translate(-803 -7678)">
	
		<linearGradient id="Path_19032_1_" gradientUnits="userSpaceOnUse" x1="885.1729" y1="7681.0791" x2="885.1729" y2="7680.0791" gradientTransform="matrix(3.707 0 0 -6.707 -2458.9727 59204.4883)">
		<stop  offset="0.13" style="stop-color:#00A9ED"/>
		<stop  offset="1" style="stop-color:#65106B"/>
	</linearGradient>
	<path id="Path_19032" fill="url(#Path_19032_1_)" d="M824.246,7692.793c-1.097-1.091-1.711-2.575-1.707-4.122v-1.171h-2v1.171
		c-0.006,2.078,0.82,4.071,2.293,5.536L824.246,7692.793z"/>
	
		<linearGradient id="Path_19033_1_" gradientUnits="userSpaceOnUse" x1="815.4297" y1="7729.6143" x2="815.4297" y2="7728.6143" gradientTransform="matrix(62.077 0 0 -62.0007 -49783.918 486920.5625)">
		<stop  offset="0.13" style="stop-color:#00A9ED"/>
		<stop  offset="1" style="stop-color:#65106B"/>
	</linearGradient>
	<path id="Path_19033" fill="url(#Path_19033_1_)" d="M866.539,7689.882v-4.382c0-2.209-1.791-4-4-4h-0.185
		c-0.423-1.194-1.55-1.995-2.815-2h-4c-1.658,0-3,1.343-3,3v17h-6.461c-0.531,0-1.053,0.141-1.512,0.409l-10.54,6.149
		c-0.92,0.539-1.486,1.524-1.488,2.591v2.826c-1.324-0.771-2.74-1.369-4.215-1.782l-0.228-0.684
		c2.336-0.922,4.001-3.023,4.363-5.509h0.08c2.209,0,4-1.791,4-4c-0.004-0.912-0.321-1.795-0.9-2.5l0.806-4.837
		c0.063-0.384,0.095-0.773,0.095-1.163c-0.006-2.52-1.343-4.848-3.517-6.122l-7.114-4.154c-3.851-2.246-8.765-1.331-11.549,2.15
		l-0.4,0.5c-0.963,1.201-1.25,2.809-0.761,4.269c0.122,0.359,0.028,0.756-0.241,1.023l-1.037,1.034
		c-1.173,1.172-1.644,2.875-1.24,4.484l0.717,2.867c-0.553,0.697-0.856,1.56-0.859,2.449c0,2.209,1.791,4,4,4h0.08
		c0.362,2.485,2.027,4.587,4.363,5.51l-0.226,0.679c-7.323,2.061-12.572,8.487-13.128,16.075l-1.166,15.736h62.078v-40
		c0-1.104-0.896-2-2-2h-2v-5.382l2,1v2.382h2v-2.382c0.003-0.757-0.424-1.451-1.101-1.789l-1.664-0.829l1.658-0.829
		C866.111,7691.334,866.541,7690.641,866.539,7689.882z M858.994,7713.5h-2.912l-1.199-4h5.312L858.994,7713.5z M858.395,7715.5
		l-0.527,1.756c-0.076,0.182-0.285,0.268-0.467,0.19c-0.086-0.036-0.154-0.104-0.191-0.19l-0.526-1.756H858.395z M854.539,7707.5
		v-14h6v14H854.539z M854.838,7681.793c0.186-0.187,0.438-0.292,0.701-0.293h4c0.552,0,1,0.448,1,1v9h-6v-9
		c-0.001-0.266,0.104-0.52,0.291-0.708L854.838,7681.793z M843.157,7703.047l-2.086,4.153c-1.202-0.462-2.48-0.699-3.769-0.7h-0.064
		L843.157,7703.047z M832.539,7739.5h-6.586l3.676-3.676l-4.056-19.266l0.464-1.394l3.2,1.922l0.921-4.601
		c0.832,0.389,1.628,0.848,2.381,1.371V7739.5z M819.438,7711.568l2.02,1.011l-2.22,1.333l-0.432-2.158
		C819.016,7711.688,819.228,7711.628,819.438,7711.568L819.438,7711.568z M827.628,7711.568c0.214,0.059,0.424,0.125,0.635,0.192
		l-0.43,2.15l-2.218-1.331L827.628,7711.568z M823.539,7713.666l0.742,0.445l-0.463,1.389h-0.559l-0.463-1.389L823.539,7713.666z
		 M823.35,7717.5h0.378l3.721,17.676l-3.91,3.91l-3.91-3.91L823.35,7717.5z M832.539,7701.5v-4c1.104,0,2,0.896,2,2
		S833.643,7701.5,832.539,7701.5z M812.539,7699.5c0-1.104,0.896-2,2-2v4C813.434,7701.5,812.539,7700.604,812.539,7699.5z
		 M816.539,7702.5v-9c0-1.104,0.896-2,2-2v-2c-2.209,0-4,1.791-4,4v2c-0.479,0.004-0.953,0.094-1.4,0.267l-0.519-2.067
		c-0.231-0.928,0.042-1.908,0.719-2.583l1.036-1.035c0.808-0.802,1.089-1.993,0.725-3.071c-0.274-0.817-0.113-1.717,0.426-2.39
		l0.4-0.5c2.165-2.706,5.986-3.417,8.979-1.671l7.11,4.15c1.825,1.064,2.802,3.146,2.455,5.23l-0.649,3.9
		c-0.412-0.147-0.845-0.225-1.282-0.23h-0.026c-0.125-1.692-1.253-3.145-2.863-3.684c-1.859-0.617-3.113-2.357-3.111-4.316h-2
		c-0.002,2.82,1.803,5.324,4.479,6.214c0.909,0.302,1.522,1.153,1.521,2.111v6.675c-0.003,2.76-2.24,4.997-5,5h-4
		C818.778,7707.497,816.542,7705.26,816.539,7702.5z M821.539,7709.5h4c0.2,0,0.4-0.013,0.6-0.031l0.175,0.524l-2.775,1.389
		l-2.777-1.388l0.175-0.524c0.2,0.017,0.4,0.03,0.6,0.03H821.539z M807.622,7725.909c0.429-5.831,3.99-10.97,9.3-13.418l0.92,4.6
		l3.2-1.922l0.464,1.394l-4.057,19.262l3.676,3.676h-6.586v-17h-2v17h-5.923L807.622,7725.909z M864.539,7701.5v38h-30v-30.851
		c0.002-0.05,0.009-0.1,0.02-0.149h2.744c1.315,0.003,2.612,0.311,3.789,0.9l0.893,0.446l4.188-8.346h6.367v6.853
		c0,0.195,0.027,0.388,0.084,0.575l2.67,8.9c0.373,1.24,1.68,1.943,2.92,1.57c0.754-0.227,1.344-0.816,1.57-1.57l2.674-8.908
		c0.054-0.184,0.081-0.375,0.082-0.567v-6.853H864.539z M864.539,7689.882l-2,1v-7.382c1.104,0,2,0.896,2,2V7689.882z"/>
	
		<linearGradient id="Path_19034_1_" gradientUnits="userSpaceOnUse" x1="830.6064" y1="7709.4731" x2="830.6064" y2="7708.4731" gradientTransform="matrix(14.0241 0 0 -14.0241 -10798.9717 115841.9531)">
		<stop  offset="0.13" style="stop-color:#00A9ED"/>
		<stop  offset="1" style="stop-color:#65106B"/>
	</linearGradient>
	<path id="Path_19034" fill="url(#Path_19034_1_)" d="M853.438,7726.6c-0.491-2.153-2.635-3.502-4.789-3.011
		c-1.499,0.342-2.669,1.513-3.011,3.011c-2.154,0.491-3.502,2.635-3.012,4.789c0.342,1.499,1.513,2.67,3.012,3.012
		c0.49,2.153,2.635,3.502,4.789,3.011c1.498-0.342,2.669-1.513,3.011-3.011c2.153-0.491,3.502-2.635,3.011-4.789
		C856.107,7728.112,854.938,7726.941,853.438,7726.6z M849.539,7725.5c1.104,0,2,0.896,2,2v0.779c-1.131-1.039-2.87-1.039-4,0
		v-0.779C847.539,7726.396,848.434,7725.5,849.539,7725.5z M850.539,7730.5c0,0.553-0.448,1-1,1c-0.553,0-1-0.447-1-1s0.447-1,1-1
		C850.091,7729.5,850.539,7729.947,850.539,7730.5z M846.539,7732.5c-1.105,0-2-0.896-2-2s0.895-2,2-2h0.779
		c-1.04,1.131-1.04,2.869,0,4H846.539z M849.539,7735.5c-1.105,0-2-0.896-2-2v-0.779c1.13,1.039,2.869,1.039,4,0v0.779
		C851.539,7734.604,850.643,7735.5,849.539,7735.5z M852.539,7732.5h-0.781c1.041-1.131,1.041-2.869,0-4h0.781c1.104,0,2,0.896,2,2
		S853.643,7732.5,852.539,7732.5z"/>
	
		<linearGradient id="Path_19035_1_" gradientUnits="userSpaceOnUse" x1="948.4805" y1="7552.9995" x2="948.4805" y2="7551.9995" gradientTransform="matrix(2 0 0 -2 -1047.4219 22797.5)">
		<stop  offset="0.13" style="stop-color:#00A9ED"/>
		<stop  offset="1" style="stop-color:#65106B"/>
	</linearGradient>
	<path id="Path_19035" fill="url(#Path_19035_1_)" d="M848.539,7691.5h2v2h-2V7691.5z"/>
	
		<linearGradient id="Path_19036_1_" gradientUnits="userSpaceOnUse" x1="948.4805" y1="7552.9995" x2="948.4805" y2="7551.9995" gradientTransform="matrix(2 0 0 -2 -1051.4219 22797.5)">
		<stop  offset="0.13" style="stop-color:#00A9ED"/>
		<stop  offset="1" style="stop-color:#65106B"/>
	</linearGradient>
	<path id="Path_19036" fill="url(#Path_19036_1_)" d="M844.539,7691.5h2v2h-2V7691.5z"/>
	
		<linearGradient id="Path_19037_1_" gradientUnits="userSpaceOnUse" x1="948.4805" y1="7552.9995" x2="948.4805" y2="7551.9995" gradientTransform="matrix(2 0 0 -2 -1055.4219 22797.5)">
		<stop  offset="0.13" style="stop-color:#00A9ED"/>
		<stop  offset="1" style="stop-color:#65106B"/>
	</linearGradient>
	<path id="Path_19037" fill="url(#Path_19037_1_)" d="M840.539,7691.5h2v2h-2V7691.5z"/>
	
		<linearGradient id="Path_19038_1_" gradientUnits="userSpaceOnUse" x1="833.9136" y1="7552.9995" x2="833.9136" y2="7551.9995" gradientTransform="matrix(12 0 0 -2 -9162.4219 22817.5)">
		<stop  offset="0.13" style="stop-color:#00A9ED"/>
		<stop  offset="1" style="stop-color:#65106B"/>
	</linearGradient>
	<path id="Path_19038" fill="url(#Path_19038_1_)" d="M838.539,7711.5h12v2h-12V7711.5z"/>
	
		<linearGradient id="Path_19039_1_" gradientUnits="userSpaceOnUse" x1="833.9136" y1="7552.9995" x2="833.9136" y2="7551.9995" gradientTransform="matrix(12 0 0 -2 -9162.4219 22821.5)">
		<stop  offset="0.13" style="stop-color:#00A9ED"/>
		<stop  offset="1" style="stop-color:#65106B"/>
	</linearGradient>
	<path id="Path_19039" fill="url(#Path_19039_1_)" d="M838.539,7715.5h12v2h-12V7715.5z"/>
	
		<linearGradient id="Path_19040_1_" gradientUnits="userSpaceOnUse" x1="879.7402" y1="7552.9995" x2="879.7402" y2="7551.9995" gradientTransform="matrix(4 0 0 -2 -2678.4219 22825.5)">
		<stop  offset="0.13" style="stop-color:#00A9ED"/>
		<stop  offset="1" style="stop-color:#65106B"/>
	</linearGradient>
	<path id="Path_19040" fill="url(#Path_19040_1_)" d="M838.539,7719.5h4v2h-4V7719.5z"/>
	
		<linearGradient id="Path_19041_1_" gradientUnits="userSpaceOnUse" x1="856.8262" y1="7552.9995" x2="856.8262" y2="7551.9995" gradientTransform="matrix(6 0 0 -2 -4293.4219 22825.5)">
		<stop  offset="0.13" style="stop-color:#00A9ED"/>
		<stop  offset="1" style="stop-color:#65106B"/>
	</linearGradient>
	<path id="Path_19041" fill="url(#Path_19041_1_)" d="M844.539,7719.5h6v2h-6V7719.5z"/>
	
		<linearGradient id="Path_19042_1_" gradientUnits="userSpaceOnUse" x1="856.8262" y1="7552.9995" x2="856.8262" y2="7551.9995" gradientTransform="matrix(6 0 0 -2 -4293.4219 22813.5)">
		<stop  offset="0.13" style="stop-color:#00A9ED"/>
		<stop  offset="1" style="stop-color:#65106B"/>
	</linearGradient>
	<path id="Path_19042" fill="url(#Path_19042_1_)" d="M844.539,7707.5h6v2h-6V7707.5z"/>
</g>
</svg>
