<svg xmlns="http://www.w3.org/2000/svg" width="60.885" height="63.355" viewBox="0 0 60.885 63.355">
  <g id="notepad" transform="translate(-1.135)">
    <path id="Path_16331" data-name="Path 16331" d="M58.477,36.046l-3.1-3.1a3.326,3.326,0,0,0-4.59,0L34.055,49.682l-2.306,8.458-.564.564a1.085,1.085,0,0,0-.007,1.528l-.005.022.021-.005a1.083,1.083,0,0,0,1.529-.005l.565-.565,8.457-2.306L58.477,40.637A3.25,3.25,0,0,0,58.477,36.046Zm-21.911,14.2L47.7,39.109l4.613,4.613L41.179,54.859Zm-.981,2.094,3.5,3.5-4.814,1.313ZM56.939,39.1l-3.087,3.087-4.613-4.613,3.087-3.087a1.1,1.1,0,0,1,1.515,0l3.1,3.1A1.072,1.072,0,0,1,56.939,39.1Z" transform="translate(2.594 2.795)" fill="#147db2"/>
    <path id="Path_16332" data-name="Path 16332" d="M8.222,36.175H36.491a1.087,1.087,0,1,0,0-2.175H8.222a1.087,1.087,0,0,0,0,2.175Z" transform="translate(0.524 2.967)"/>
    <path id="Path_16333" data-name="Path 16333" d="M32.142,40H8.222a1.087,1.087,0,1,0,0,2.175h23.92a1.087,1.087,0,1,0,0-2.175Z" transform="translate(0.524 3.49)"/>
    <path id="Path_16334" data-name="Path 16334" d="M8.222,18.175H22.357a1.087,1.087,0,0,0,0-2.175H8.222a1.087,1.087,0,1,0,0,2.175Z" transform="translate(0.524 1.396)"/>
    <path id="Path_16335" data-name="Path 16335" d="M22.357,48.175a1.087,1.087,0,0,0,0-2.175H8.222a1.087,1.087,0,0,0,0,2.175Z" transform="translate(0.524 4.014)"/>
    <path id="Path_16336" data-name="Path 16336" d="M39.753,22H8.222a1.087,1.087,0,0,0,0,2.175h31.53a1.087,1.087,0,0,0,0-2.175Z" transform="translate(0.524 1.92)"/>
    <path id="Path_16337" data-name="Path 16337" d="M8.222,30.175H23.444a1.087,1.087,0,0,0,0-2.175H8.222a1.087,1.087,0,1,0,0,2.175Z" transform="translate(0.524 2.443)"/>
    <path id="Path_16338" data-name="Path 16338" d="M38.92,29.087A1.087,1.087,0,0,0,37.833,28H30.222a1.087,1.087,0,1,0,0,2.175h7.611A1.086,1.086,0,0,0,38.92,29.087Z" transform="translate(2.443 2.443)"/>
    <path id="Path_16339" data-name="Path 16339" d="M26.994,29.857a1.092,1.092,0,1,0-1.859-.772,1.119,1.119,0,0,0,.315.772,1.1,1.1,0,0,0,1.544,0Z" transform="translate(2.094 2.444)"/>
    <path id="Path_16340" data-name="Path 16340" d="M28.316,60.886H3.31V8.7H10.92v2.175a1.087,1.087,0,0,0,1.087,1.087H37.014A1.087,1.087,0,0,0,38.1,10.873V8.7h7.611v23.92a1.087,1.087,0,0,0,2.175,0V7.611A1.087,1.087,0,0,0,46.8,6.524H38.1V4.349a1.087,1.087,0,0,0-1.087-1.087H30.491V1.087A1.087,1.087,0,0,0,29.4,0H19.618a1.087,1.087,0,0,0-1.087,1.087V3.262H12.008A1.087,1.087,0,0,0,10.92,4.349V6.524h-8.7A1.087,1.087,0,0,0,1.135,7.611V61.974a1.087,1.087,0,0,0,1.087,1.087H28.316a1.087,1.087,0,1,0,0-2.175ZM20.706,2.175h7.611V6.524H20.706V2.175ZM13.095,5.436h5.436V7.611A1.087,1.087,0,0,0,19.618,8.7H29.4a1.087,1.087,0,0,0,1.087-1.087V5.436h5.436V9.785H13.095V5.436Z" transform="translate(0)"/>
  </g>
</svg>
