<?xml version="1.0" encoding="utf-8"?>
<!-- Generator: Adobe Illustrator 16.0.0, SVG Export Plug-In . SVG Version: 6.00 Build 0)  -->
<!DOCTYPE svg PUBLIC "-//W3C//DTD SVG 1.1//EN" "http://www.w3.org/Graphics/SVG/1.1/DTD/svg11.dtd">
<svg version="1.1" id="Layer_1" xmlns="http://www.w3.org/2000/svg" xmlns:xlink="http://www.w3.org/1999/xlink" x="0px" y="0px"
	 width="63px" height="55.959px" viewBox="0 0 63 55.959" enable-background="new 0 0 63 55.959" xml:space="preserve">
<g id="caution" transform="translate(-0.008 -28.615)">
	
		<linearGradient id="Path_17626_1_" gradientUnits="userSpaceOnUse" x1="-269.2596" y1="446.0632" x2="-269.2596" y2="445.0632" gradientTransform="matrix(62.9838 0 0 -55.958 16991.459 24990.3594)">
		<stop  offset="0" style="stop-color:#00A9E0"/>
		<stop  offset="1" style="stop-color:#801C7D"/>
	</linearGradient>
	<path id="Path_17626" fill="url(#Path_17626_1_)" d="M63.283,77.654l-26.213-45.4c-1.458-2.525-4.687-3.39-7.211-1.932
		c-0.803,0.463-1.469,1.129-1.932,1.932l-26.213,45.4c-1.458,2.525-0.593,5.754,1.933,7.211c0.802,0.463,1.712,0.707,2.638,0.707
		h52.428c2.915,0,5.278-2.365,5.277-5.28C63.99,79.366,63.746,78.456,63.283,77.654z M61.684,82.01
		c-0.608,1.068-1.744,1.725-2.973,1.717H6.286c-1.896,0-3.433-1.537-3.433-3.433c0-0.603,0.159-1.194,0.46-1.716l26.213-45.4
		c0.948-1.642,3.048-2.205,4.689-1.256c0.522,0.301,0.955,0.734,1.257,1.256l26.213,45.4l0,0c0.619,1.061,0.619,2.371,0,3.432
		H61.684z"/>
	
		<linearGradient id="Path_17627_1_" gradientUnits="userSpaceOnUse" x1="-261.0325" y1="442.075" x2="-261.0325" y2="441.075" gradientTransform="matrix(21.3975 0 0 -35.7073 5631.6797 15829.2549)">
		<stop  offset="0" style="stop-color:#00A9E0"/>
		<stop  offset="1" style="stop-color:#801C7D"/>
	</linearGradient>
	<path id="Path_17627" fill="url(#Path_17627_1_)" d="M37.242,44.384c-0.268-0.434-0.837-0.568-1.271-0.3
		c-0.415,0.257-0.56,0.793-0.328,1.223l18.764,32.5h-15c-0.51-0.001-0.924,0.411-0.925,0.921c-0.002,0.51,0.41,0.925,0.92,0.926
		c0.002,0,0.004,0,0.005,0h16.601c0.51,0,0.923-0.413,0.923-0.923c0-0.162-0.042-0.32-0.123-0.461L37.242,44.384z"/>
	
		<linearGradient id="Path_17628_1_" gradientUnits="userSpaceOnUse" x1="-263.6937" y1="443.8503" x2="-263.6937" y2="442.8503" gradientTransform="matrix(27.2095 0 0 -42.5648 7196.6626 18929.4961)">
		<stop  offset="0" style="stop-color:#00A9E0"/>
		<stop  offset="1" style="stop-color:#801C7D"/>
	</linearGradient>
	<path id="Path_17628" fill="url(#Path_17628_1_)" d="M25.597,77.808H10.591L32.5,39.86l1.069,1.853
		c0.269,0.434,0.838,0.568,1.272,0.3c0.415-0.257,0.559-0.792,0.328-1.223l-1.869-3.238c-0.255-0.442-0.818-0.594-1.261-0.34
		c-0.141,0.082-0.258,0.199-0.34,0.34L8.194,78.27c-0.255,0.441-0.103,1.006,0.339,1.261c0.141,0.08,0.3,0.123,0.461,0.123h16.601
		c0.51,0.002,0.924-0.41,0.926-0.92c0.001-0.51-0.411-0.925-0.921-0.926c-0.002,0-0.003,0-0.005,0H25.597z"/>
	
		<linearGradient id="Path_17629_1_" gradientUnits="userSpaceOnUse" x1="-239.1536" y1="402.4148" x2="-239.1536" y2="401.4148" gradientTransform="matrix(7.764 0 0 -7.764 1889.2913 3197.228)">
		<stop  offset="0" style="stop-color:#00A9E0"/>
		<stop  offset="1" style="stop-color:#801C7D"/>
	</linearGradient>
	<path id="Path_17629" fill="url(#Path_17629_1_)" d="M32.5,72.877c-2.145,0-3.883,1.738-3.883,3.883
		c0,2.144,1.738,3.881,3.883,3.881c2.144,0,3.882-1.737,3.882-3.881l0,0C36.382,74.615,34.644,72.877,32.5,72.877z M32.5,78.795
		c-1.125,0-2.036-0.911-2.036-2.035c0-1.125,0.911-2.037,2.036-2.037c1.124,0,2.035,0.912,2.035,2.037
		C34.535,77.884,33.624,78.795,32.5,78.795L32.5,78.795z"/>
	
		<linearGradient id="Path_17630_1_" gradientUnits="userSpaceOnUse" x1="-238.6707" y1="433.9802" x2="-238.6707" y2="432.9802" gradientTransform="matrix(7.6563 0 0 -20.585 1859.8394 8983.666)">
		<stop  offset="0" style="stop-color:#00A9E0"/>
		<stop  offset="1" style="stop-color:#801C7D"/>
	</linearGradient>
	<path id="Path_17630" fill="url(#Path_17630_1_)" d="M30.58,50.192c-1.054,0-1.908,0.855-1.908,1.909
		c0,0.033,0.001,0.066,0.003,0.1l0.882,16.768c0.053,1.014,0.892,1.809,1.907,1.809h2.073c1.016,0,1.854-0.795,1.906-1.809
		l0.882-16.768c0.056-1.053-0.753-1.951-1.806-2.006c-0.034-0.001-0.067-0.002-0.101-0.002H30.58z M34.481,52.104l-0.882,16.767
		c-0.002,0.033-0.029,0.06-0.063,0.061h-2.073c-0.034-0.001-0.062-0.027-0.063-0.061l-0.882-16.767
		c-0.002-0.036,0.025-0.065,0.061-0.067c0.001,0,0.002,0,0.002,0h3.84c0.035,0,0.063,0.03,0.063,0.065
		C34.482,52.103,34.482,52.103,34.481,52.104L34.481,52.104z"/>
</g>
</svg>
