<svg xmlns="http://www.w3.org/2000/svg" xmlns:xlink="http://www.w3.org/1999/xlink" width="63.017" height="63.017" viewBox="0 0 63.017 63.017">
  <defs>
    <linearGradient id="linear-gradient" x1="0.5" x2="0.5" y2="1" gradientUnits="objectBoundingBox">
      <stop offset="0.13" stop-color="#00a9ed"/>
      <stop offset="1" stop-color="#65106b"/>
    </linearGradient>
  </defs>
  <g id="Page-1" transform="translate(-0.014 0)">
    <g id="_033---Insurance" data-name="033---Insurance" transform="translate(0.017 0.001)">
      <path id="Shape" d="M46.978,6.984,31.224.088a1.05,1.05,0,0,0-.84,0L14.63,6.984a1.05,1.05,0,0,0-.63.962V24.435a11.567,11.567,0,0,0,4.789,9.356l10.888,7.853a1.922,1.922,0,0,0,2.254,0l10.888-7.852a11.567,11.567,0,0,0,4.789-9.356V7.946a1.05,1.05,0,0,0-.63-.962Zm-1.47,17.452a9.462,9.462,0,0,1-3.917,7.652L30.8,39.867,20.018,32.088A9.462,9.462,0,0,1,16.1,24.436V8.633L30.8,2.2,45.5,8.636Z" transform="translate(0.685 -0.001)" fill="url(#linear-gradient)"/>
      <path id="Shape-2" data-name="Shape" d="M30.183,4.454,18.63,9.512a1.05,1.05,0,0,0-.63.962V24.217a7.352,7.352,0,0,0,3.046,5.949l8.943,6.451a1.05,1.05,0,0,0,1.229,0l8.943-6.451a7.352,7.352,0,0,0,3.046-5.949V10.474a1.05,1.05,0,0,0-.63-.962L31.023,4.454a1.05,1.05,0,0,0-.84,0ZM41.1,11.16V24.217a5.252,5.252,0,0,1-2.174,4.245L30.6,34.469l-8.328-6.007A5.251,5.251,0,0,1,20.1,24.217V11.16l10.5-4.6Z" transform="translate(0.886 0.219)" fill="url(#linear-gradient)"/>
      <path id="Shape-3" data-name="Shape" d="M8.7,33.549,6.429,28.241A3.35,3.35,0,0,0,.3,30.946L4.419,40A11.155,11.155,0,0,0,6.7,43.291l6.473,6.474a2.088,2.088,0,0,0-.569,1.428v8.4a2.1,2.1,0,0,0,2.1,2.1H26.255a2.1,2.1,0,0,0,2.1-2.1v-8.4a2.1,2.1,0,0,0-2.1-2.1V47.138a11,11,0,0,0-2.3-6.879,7.562,7.562,0,0,0-3.5-2.553,20.774,20.774,0,0,1-6.013-3.859A4.831,4.831,0,0,0,8.7,33.549ZM26.255,59.6H14.7V51.2H26.255ZM22.314,41.571a8.911,8.911,0,0,1,1.841,5.567v1.954H15.47L8.184,41.806A9.084,9.084,0,0,1,6.33,39.131L2.214,30.077A1.249,1.249,0,0,1,4.5,29.069l2.349,5.479A12.393,12.393,0,0,0,9.5,38.46l4.8,4.8a1.05,1.05,0,1,0,1.485-1.485l-4.8-4.8a10.359,10.359,0,0,1-1.3-1.575,2.731,2.731,0,0,1,3.4.057,22.39,22.39,0,0,0,6.7,4.243A5.517,5.517,0,0,1,22.314,41.571Z" transform="translate(-0.017 1.318)" fill="url(#linear-gradient)"/>
      <path id="Shape-4" data-name="Shape" d="M22.1,53H21.05a1.05,1.05,0,1,0,0,2.1H22.1a1.05,1.05,0,0,0,0-2.1Z" transform="translate(0.987 2.662)" fill="url(#linear-gradient)"/>
      <path id="Shape-5" data-name="Shape" d="M56.937,40l4.116-9.054a3.348,3.348,0,1,0-6.125-2.7l-2.266,5.288a4.844,4.844,0,0,0-5.746.315A20.774,20.774,0,0,1,40.9,37.705a7.562,7.562,0,0,0-3.5,2.553,11,11,0,0,0-2.3,6.882V49.1A2.1,2.1,0,0,0,33,51.2v8.4a2.1,2.1,0,0,0,2.1,2.1H46.653a2.1,2.1,0,0,0,2.1-2.1V51.2a2.088,2.088,0,0,0-.569-1.428L54.657,43.3a11.154,11.154,0,0,0,2.28-3.3ZM46.653,59.6H35.1V51.2H46.653Zm-.768-10.5H37.2V47.141a8.911,8.911,0,0,1,1.841-5.566A5.521,5.521,0,0,1,41.563,39.7a22.381,22.381,0,0,0,6.7-4.243,2.731,2.731,0,0,1,3.408-.066,10.3,10.3,0,0,1-1.3,1.586l-4.8,4.8a1.05,1.05,0,1,0,1.485,1.485l4.8-4.8a12.392,12.392,0,0,0,2.644-3.91l2.349-5.48a1.248,1.248,0,0,1,2.283,1.009l-4.116,9.054a9.083,9.083,0,0,1-1.854,2.675Z" transform="translate(1.64 1.316)" fill="url(#linear-gradient)"/>
      <path id="Shape-6" data-name="Shape" d="M39.1,53H38.05a1.05,1.05,0,0,0,0,2.1H39.1a1.05,1.05,0,1,0,0-2.1Z" transform="translate(1.841 2.662)" fill="url(#linear-gradient)"/>
      <path id="Shape-7" data-name="Shape" d="M24.68,21.662a1.05,1.05,0,0,0-1.26,1.68l4.2,3.151a1.05,1.05,0,0,0,.63.21,1.13,1.13,0,0,0,.177-.015,1.05,1.05,0,0,0,.7-.453l8.4-12.6a1.051,1.051,0,1,0-1.748-1.166l-7.786,11.68Z" transform="translate(1.137 0.602)" fill="url(#linear-gradient)"/>
    </g>
  </g>
</svg>
