<?xml version="1.0" encoding="utf-8"?>
<!-- Generator: Adobe Illustrator 16.0.0, SVG Export Plug-In . SVG Version: 6.00 Build 0)  -->
<!DOCTYPE svg PUBLIC "-//W3C//DTD SVG 1.1//EN" "http://www.w3.org/Graphics/SVG/1.1/DTD/svg11.dtd">
<svg version="1.1" id="Layer_1" xmlns="http://www.w3.org/2000/svg" xmlns:xlink="http://www.w3.org/1999/xlink" x="0px" y="0px"
	 width="63px" height="62.165px" viewBox="0 0 63 62.165" enable-background="new 0 0 63 62.165" xml:space="preserve">
<g id="money_1_" transform="translate(0 -0.223)">
	
		<linearGradient id="Path_17446_1_" gradientUnits="userSpaceOnUse" x1="-269.2837" y1="419.9686" x2="-269.2837" y2="418.9686" gradientTransform="matrix(63 0 0 -49.686 16996.4063 20879.2793)">
		<stop  offset="0.13" style="stop-color:#00A9ED"/>
		<stop  offset="1" style="stop-color:#65106B"/>
	</linearGradient>
	<path id="Path_17446" fill="url(#Path_17446_1_)" d="M54.339,39.921c-0.333-0.166-0.688-0.283-1.055-0.35
		c-0.972-0.188-1.979-0.021-2.837,0.473l-11.564,6.674c-0.223-0.588-0.574-1.117-1.029-1.55L63,30.649L52.639,12.701L31.6,24.847
		L10.562,12.701L0.2,30.649l17.287,9.978h-1.821c-0.939,0.001-1.861,0.257-2.667,0.738l-2.638,1.579v-3.354H0v22.797h10.361v-3.636
		l3.03,1.2c0.607,0.244,1.257,0.369,1.912,0.365h16.67c0.965,0.002,1.912-0.268,2.732-0.776L54.6,47.227
		c1.28-0.74,2.064-2.111,2.055-3.59c0-0.727-0.189-1.441-0.551-2.072c-0.408-0.713-1.023-1.285-1.763-1.643L54.339,39.921z
		 M60.169,29.89l-24.5,14.145l-6.631-1.771l-5.865-10.153l28.709-16.577L60.169,29.89z M21.907,34.057
		c-1.533,0.217-2.986-0.747-3.382-2.244c-0.217-0.797-0.104-1.649,0.311-2.363c0.866-1.484,2.766-1.993,4.257-1.139
		c0.385,0.225,0.714,0.532,0.965,0.9l-3.711,2.142L21.907,34.057z M3.032,29.89l8.288-14.358l18.208,10.512l-3.685,2.128
		c-0.435-0.684-1.028-1.252-1.729-1.658c-2.481-1.421-5.645-0.573-7.081,1.9c-1.445,2.452-0.629,5.61,1.822,7.056
		c1.252,0.738,2.757,0.913,4.145,0.482l3.211,5.557l-2.621-0.699c-0.439-0.119-0.892-0.18-1.347-0.182h-0.614L3.032,29.89z
		 M8.289,60.315H2.073V41.666h6.216V60.315z M53.527,45.448L33.615,57.776c-0.493,0.305-1.062,0.467-1.641,0.467H15.3
		c-0.39,0.002-0.777-0.072-1.14-0.219l-3.8-1.5V45.362l3.7-2.215c0.483-0.29,1.036-0.443,1.6-0.445h6.579
		c0.273,0.002,0.545,0.039,0.809,0.109l5.038,1.348l5.623,1.5l1.878,0.5c0.803,0.249,1.38,0.952,1.47,1.788
		c-0.001,0.248-0.021,0.495-0.061,0.741c-0.241,0.896-1.049,1.521-1.977,1.533c-0.153-0.012-0.764-0.136-1.199-0.234l-10.765-2.881
		l-0.534,2l10.799,2.891c0.549,0.147,1.107,0.248,1.673,0.301c1.876-0.003,3.519-1.263,4.007-3.074
		c0.018-0.063,0.018-0.131,0.031-0.194l12.447-7.19c0.43-0.246,0.934-0.328,1.418-0.23c0.184,0.032,0.36,0.091,0.526,0.174
		c0.365,0.175,0.669,0.456,0.872,0.807c0.184,0.318,0.281,0.68,0.282,1.047c0.003,0.75-0.399,1.444-1.054,1.813L53.527,45.448z"/>
	
		<linearGradient id="Path_17447_1_" gradientUnits="userSpaceOnUse" x1="-247.8569" y1="390.2157" x2="-247.8569" y2="389.2157" gradientTransform="matrix(10.3573 0 0 -10.3586 2608.7908 4067.8914)">
		<stop  offset="0.13" style="stop-color:#00A9ED"/>
		<stop  offset="1" style="stop-color:#65106B"/>
	</linearGradient>
	<path id="Path_17447" fill="url(#Path_17447_1_)" d="M37.188,33.591c0.684,1.193,1.816,2.063,3.146,2.414
		c2.763,0.738,5.601-0.904,6.338-3.668c0.737-2.763-0.904-5.6-3.667-6.337c-2.764-0.737-5.602,0.904-6.339,3.667
		c-0.354,1.326-0.167,2.738,0.521,3.926L37.188,33.591z M38.672,30.191c0.447-1.657,2.152-2.639,3.81-2.192s2.64,2.152,2.192,3.809
		c-0.446,1.658-2.152,2.639-3.809,2.193c-0.262-0.07-0.512-0.175-0.746-0.311c-1.217-0.703-1.811-2.136-1.447-3.494V30.191z"/>
	
		<linearGradient id="Path_17449_1_" gradientUnits="userSpaceOnUse" x1="-260.6831" y1="409.0145" x2="-260.6831" y2="408.0145" gradientTransform="matrix(20.722 0 0 -20.722 5432.9531 8475.8232)">
		<stop  offset="0.13" style="stop-color:#00A9ED"/>
		<stop  offset="1" style="stop-color:#65106B"/>
	</linearGradient>
	<path id="Path_17449" fill="url(#Path_17449_1_)" d="M31.083,20.944c5.722,0,10.36-4.639,10.36-10.361S36.805,0.222,31.083,0.222
		c-5.722,0-10.361,4.639-10.361,10.361c0,0,0,0.001,0,0.001C20.723,16.306,25.361,20.944,31.083,20.944z M31.083,2.295
		c4.577,0,8.289,3.711,8.289,8.289c0,4.578-3.712,8.289-8.289,8.289c-4.578,0-8.289-3.711-8.289-8.289
		C22.797,6.008,26.507,2.3,31.083,2.3V2.295z"/>
</g>
</svg>
