<?xml version="1.0" encoding="utf-8"?>
<!-- Generator: Adobe Illustrator 16.0.0, SVG Export Plug-In . SVG Version: 6.00 Build 0)  -->
<!DOCTYPE svg PUBLIC "-//W3C//DTD SVG 1.1//EN" "http://www.w3.org/Graphics/SVG/1.1/DTD/svg11.dtd">
<svg version="1.1" id="Layer_1" xmlns="http://www.w3.org/2000/svg" xmlns:xlink="http://www.w3.org/1999/xlink" x="0px" y="0px"
	 width="63px" height="63px" viewBox="0 0 63 63" enable-background="new 0 0 63 63" xml:space="preserve">
<g id="Outline" transform="translate(-2 -2)">
	
		<linearGradient id="Path_17535_1_" gradientUnits="userSpaceOnUse" x1="-260.9604" y1="383.6953" x2="-260.9604" y2="382.6953" gradientTransform="matrix(25.2 0 0 -8.4 6600.2471 3229.2407)">
		<stop  offset="0" style="stop-color:#00A9E0"/>
		<stop  offset="1" style="stop-color:#801C7D"/>
	</linearGradient>
	<path id="Path_17535" fill="url(#Path_17535_1_)" d="M36.65,13.55v-6.3c0-0.58-0.471-1.05-1.051-1.05H12.5
		c-0.58,0-1.05,0.47-1.05,1.05l0,0v6.3c0,0.58,0.47,1.05,1.05,1.05l0,0h23.1C36.18,14.6,36.65,14.13,36.65,13.55z M34.55,12.5h-21
		V8.3h21V12.5z"/>
	
		<linearGradient id="Path_17536_1_" gradientUnits="userSpaceOnUse" x1="-253.4321" y1="403.5391" x2="-253.4321" y2="402.5391" gradientTransform="matrix(14.7 0 0 -14.7 3740.0515 5949.7842)">
		<stop  offset="0" style="stop-color:#00A9E0"/>
		<stop  offset="1" style="stop-color:#801C7D"/>
	</linearGradient>
	<path id="Path_17536" fill="url(#Path_17536_1_)" d="M7.25,18.8v12.6c0,0.58,0.47,1.05,1.05,1.05l0,0h12.6
		c0.58,0,1.05-0.47,1.05-1.05v-6.05l-2.1,2.1v2.9H9.35v-10.5h9.2l2.1-2.1H8.3C7.72,17.75,7.25,18.22,7.25,18.8z"/>
	
		<linearGradient id="Path_17537_1_" gradientUnits="userSpaceOnUse" x1="-251.1245" y1="391.8389" x2="-251.1245" y2="390.8389" gradientTransform="matrix(13.035 0 0 -10.1926 3291.6772 4011.907)">
		<stop  offset="0" style="stop-color:#00A9E0"/>
		<stop  offset="1" style="stop-color:#801C7D"/>
	</linearGradient>
	<path id="Path_17537" fill="url(#Path_17537_1_)" d="M23.308,18.058l-7.658,7.658l-2.408-2.408l-1.485,1.485l3.15,3.15
		c0.41,0.41,1.075,0.41,1.485,0c0,0,0,0,0,0l8.4-8.4L23.308,18.058z"/>
	
		<linearGradient id="Path_17538_1_" gradientUnits="userSpaceOnUse" x1="-253.4321" y1="403.54" x2="-253.4321" y2="402.54" gradientTransform="matrix(14.7 0 0 -14.7 3740.0515 5967.6436)">
		<stop  offset="0" style="stop-color:#00A9E0"/>
		<stop  offset="1" style="stop-color:#801C7D"/>
	</linearGradient>
	<path id="Path_17538" fill="url(#Path_17538_1_)" d="M7.25,49.25c0,0.58,0.47,1.05,1.05,1.05h12.6c0.58,0,1.05-0.47,1.05-1.05V43.2
		l-2.1,2.1v2.9H9.35V37.7h9.2l2.1-2.101H8.3c-0.58,0-1.05,0.471-1.05,1.051V49.25z"/>
	
		<linearGradient id="Path_17539_1_" gradientUnits="userSpaceOnUse" x1="-251.1235" y1="391.8398" x2="-251.1235" y2="390.8398" gradientTransform="matrix(13.035 0 0 -10.1926 3291.6772 4029.7585)">
		<stop  offset="0" style="stop-color:#00A9E0"/>
		<stop  offset="1" style="stop-color:#801C7D"/>
	</linearGradient>
	<path id="Path_17539" fill="url(#Path_17539_1_)" d="M13.243,41.158l-1.485,1.484l3.15,3.15c0.41,0.41,1.075,0.41,1.485,0l0,0
		l8.4-8.4l-1.485-1.484l-7.658,7.658L13.243,41.158z"/>
	
		<linearGradient id="Path_17540_1_" gradientUnits="userSpaceOnUse" x1="-252.0425" y1="244.7813" x2="-252.0425" y2="243.7813" gradientTransform="matrix(13.65 0 0 -2.1 3474.3999 539.1403)">
		<stop  offset="0" style="stop-color:#00A9E0"/>
		<stop  offset="1" style="stop-color:#801C7D"/>
	</linearGradient>
	<path id="Path_17540" fill="url(#Path_17540_1_)" d="M27.2,25.1H40.85v2.1H27.2V25.1z"/>
	
		<linearGradient id="Path_17541_1_" gradientUnits="userSpaceOnUse" x1="-252.0425" y1="244.7813" x2="-252.0425" y2="243.7813" gradientTransform="matrix(13.65 0 0 -2.1 3474.3999 533.8903)">
		<stop  offset="0" style="stop-color:#00A9E0"/>
		<stop  offset="1" style="stop-color:#801C7D"/>
	</linearGradient>
	<path id="Path_17541" fill="url(#Path_17541_1_)" d="M27.2,19.85H40.85v2.1H27.2V19.85z"/>
	
		<linearGradient id="Path_17542_1_" gradientUnits="userSpaceOnUse" x1="-229.3408" y1="244.7813" x2="-229.3408" y2="243.7813" gradientTransform="matrix(6.3 0 0 -2.1 1475.1985 551.7398)">
		<stop  offset="0" style="stop-color:#00A9E0"/>
		<stop  offset="1" style="stop-color:#801C7D"/>
	</linearGradient>
	<path id="Path_17542" fill="url(#Path_17542_1_)" d="M27.2,37.7h6.3v2.1h-6.3V37.7z"/>
	
		<linearGradient id="Path_17543_1_" gradientUnits="userSpaceOnUse" x1="-229.3408" y1="244.7813" x2="-229.3408" y2="243.7813" gradientTransform="matrix(6.3 0 0 -2.1 1475.1985 556.9898)">
		<stop  offset="0" style="stop-color:#00A9E0"/>
		<stop  offset="1" style="stop-color:#801C7D"/>
	</linearGradient>
	<path id="Path_17543" fill="url(#Path_17543_1_)" d="M27.2,42.95h6.3v2.1h-6.3V42.95z"/>
	
		<linearGradient id="Path_17544_1_" gradientUnits="userSpaceOnUse" x1="-265.4771" y1="423.8271" x2="-265.4771" y2="422.8271" gradientTransform="matrix(44.1 0 0 -63 11731.5996 26703.0625)">
		<stop  offset="0" style="stop-color:#00A9E0"/>
		<stop  offset="1" style="stop-color:#801C7D"/>
	</linearGradient>
	<path id="Path_17544" fill="url(#Path_17544_1_)" d="M4.1,62.9V4.1H44v22.424c0.709-0.248,1.408-0.519,2.1-0.812V3.05
		C46.1,2.47,45.63,2,45.05,2h-42C2.47,2,2,2.47,2,3.05v60.9C2,64.529,2.47,65,3.05,65h42c0.11-0.004,0.22-0.026,0.323-0.064
		c-0.991-0.613-1.939-1.293-2.837-2.035H4.1z"/>
	
		<linearGradient id="Path_17545_1_" gradientUnits="userSpaceOnUse" x1="-262.4663" y1="419.9883" x2="-262.4663" y2="418.9883" gradientTransform="matrix(29.4 0 0 -38.85 7766.8062 16342.7139)">
		<stop  offset="0" style="stop-color:#00A9E0"/>
		<stop  offset="1" style="stop-color:#801C7D"/>
	</linearGradient>
	<path id="Path_17545" fill="url(#Path_17545_1_)" d="M64.064,30.356c-4.645-0.503-9.148-1.889-13.271-4.083
		c-0.309-0.164-0.679-0.164-0.986,0c-4.124,2.194-8.629,3.58-13.271,4.083C36.003,30.415,35.6,30.864,35.6,31.4v12.437
		c0.061,9.274,5.706,17.597,14.301,21.082c0.258,0.108,0.549,0.108,0.808,0C59.299,61.432,64.941,53.109,65,43.837V31.4
		C65,30.864,64.597,30.414,64.064,30.356z M62.9,43.837c-0.059,8.265-5.004,15.712-12.601,18.97
		c-7.596-3.258-12.542-10.705-12.6-18.97V32.329c4.395-0.584,8.657-1.918,12.6-3.944c3.943,2.026,8.206,3.361,12.601,3.944V43.837z"
		/>
	
		<linearGradient id="Path_17546_1_" gradientUnits="userSpaceOnUse" x1="-258.4712" y1="402.9746" x2="-258.4712" y2="401.9746" gradientTransform="matrix(20.385 0 0 -14.3926 5319.2227 5836.8008)">
		<stop  offset="0" style="stop-color:#00A9E0"/>
		<stop  offset="1" style="stop-color:#801C7D"/>
	</linearGradient>
	<path id="Path_17546" fill="url(#Path_17546_1_)" d="M41.593,43.258l-1.485,1.485l6.301,6.3c0.41,0.41,1.074,0.41,1.484,0l0,0
		l12.601-12.6l-1.485-1.485L47.15,48.816L41.593,43.258z"/>
	
		<linearGradient id="Path_17547_1_" gradientUnits="userSpaceOnUse" x1="-235.3633" y1="244.7803" x2="-235.3633" y2="243.7813" gradientTransform="matrix(7.35 0 0 -2.1 1759.7485 571.689)">
		<stop  offset="0" style="stop-color:#00A9E0"/>
		<stop  offset="1" style="stop-color:#801C7D"/>
	</linearGradient>
	<path id="Path_17547" fill="url(#Path_17547_1_)" d="M26.15,57.65h7.35v2.1h-7.35V57.65z"/>
	
		<linearGradient id="Path_17548_1_" gradientUnits="userSpaceOnUse" x1="-255.6904" y1="244.7813" x2="-255.6904" y2="243.7822" gradientTransform="matrix(16.8 0 0 -2.1 4320.7061 567.4898)">
		<stop  offset="0" style="stop-color:#00A9E0"/>
		<stop  offset="1" style="stop-color:#801C7D"/>
	</linearGradient>
	<path id="Path_17548" fill="url(#Path_17548_1_)" d="M16.7,53.45h16.8v2.1H16.7V53.45z"/>
</g>
</svg>
