<svg xmlns="http://www.w3.org/2000/svg" xmlns:xlink="http://www.w3.org/1999/xlink" width="62.031" height="72.002" viewBox="0 0 62.031 72.002">
  <defs>
    <linearGradient id="linear-gradient" x1="0.5" x2="0.5" y2="1" gradientUnits="objectBoundingBox">
      <stop offset="0.13" stop-color="#00a9ed"/>
      <stop offset="1" stop-color="#65106b"/>
    </linearGradient>
  </defs>
  <path id="Union_48" data-name="Union 48" d="M-2079.593,20190a1.408,1.408,0,0,1-1.409-1.408v-13.533c0-7.748,8.827-13.793,16.356-14.082l3.881-3.486a18.365,18.365,0,0,1-7.438-14.74v-9.281a15.417,15.417,0,0,1,15.419-15.471h5.624a15.509,15.509,0,0,1,15.515,15.471v9.281a18.335,18.335,0,0,1-7.535,14.766l3.851,3.461c7.55.289,16.356,6.35,16.356,14.082v13.533a1.408,1.408,0,0,1-1.409,1.408Zm35.3-10.609,1.773,7.8h20.739v-12.127c0-5.795-7.043-10.8-13.2-11.248l-5.26,11.816a1.417,1.417,0,0,1-.811.756,1.43,1.43,0,0,1-1.1-.066l-.917-.461Zm-10.322,7.8h9.212l-1.474-6.471h-6.222Zm-23.572-12.127v12.127h20.684l1.834-7.818-1.145-3.553-1,.5a1.4,1.4,0,0,1-1.1.066,1.417,1.417,0,0,1-.811-.756l-5.26-11.816C-2071.146,20164.266-2078.189,20169.268-2078.189,20175.063Zm23.921-.516,1.079,3.359h6.43l1.15-3.314-4.378-2.189Zm6.293-4.281,5.761,2.883,4.631-10.414-3.638-3.271Zm-14.416-7.531,4.631,10.414,5.761-2.883-6.754-10.8Zm12.4,5.443,4.879-7.8a18.56,18.56,0,0,1-4.864.658,18.117,18.117,0,0,1-4.9-.674Zm-15.4-28.68v3.252a15.449,15.449,0,0,0,15.419,15.471,15.529,15.529,0,0,0,15.515-15.471v-3.186l-4.023-5.8a16.82,16.82,0,0,1-11.507,3.922,16.844,16.844,0,0,1-11.5-3.912Zm4.672-8.848c2.863,2.924,6.172,4.227,10.732,4.227s7.874-1.3,10.732-4.227a1.4,1.4,0,0,1,1.125-.42,1.4,1.4,0,0,1,1.034.6l2.64,3.8v-1.16a12.694,12.694,0,0,0-12.7-12.658h-5.624a12.647,12.647,0,0,0-12.607,12.658v1.043l2.5-3.674a1.4,1.4,0,0,1,1.039-.607c.04,0,.08-.006.12-.006A1.4,1.4,0,0,1-2060.718,20130.65Zm33.154,51.477a1.412,1.412,0,0,1,1.409-1.408,1.407,1.407,0,0,1,1.4,1.408,1.4,1.4,0,0,1-1.4,1.4A1.408,1.408,0,0,1-2027.564,20182.127Zm-9.764,1.4a1.408,1.408,0,0,1-1.409-1.4,1.408,1.408,0,0,1,1.409-1.408h5.624a1.408,1.408,0,0,1,1.409,1.408,1.408,1.408,0,0,1-1.409,1.4Zm-16.417-30.555a1.4,1.4,0,0,1-.669-1.869,1.4,1.4,0,0,1,1.87-.67,5.992,5.992,0,0,0,2.559.568,5.95,5.95,0,0,0,2.513-.549,1.408,1.408,0,0,1,1.865.689,1.407,1.407,0,0,1-.689,1.865,8.732,8.732,0,0,1-3.689.8A8.755,8.755,0,0,1-2053.746,20152.977Zm9.384-11.072a1.4,1.4,0,0,1,1.409-1.4,1.4,1.4,0,0,1,1.4,1.4,1.407,1.407,0,0,1-1.4,1.408A1.408,1.408,0,0,1-2044.362,20141.9Zm-14.061,0a1.4,1.4,0,0,1,1.409-1.4,1.4,1.4,0,0,1,1.4,1.4,1.407,1.407,0,0,1-1.4,1.408A1.408,1.408,0,0,1-2058.423,20141.9Z" transform="translate(2081.001 -20117.998)" fill="url(#linear-gradient)"/>
</svg>
