<svg xmlns="http://www.w3.org/2000/svg" xmlns:xlink="http://www.w3.org/1999/xlink" width="72.002" height="72.002" viewBox="0 0 72.002 72.002">
  <defs>
    <linearGradient id="linear-gradient" x1="0.5" x2="0.5" y2="1" gradientUnits="objectBoundingBox">
      <stop offset="0.13" stop-color="#00a9ed"/>
      <stop offset="1" stop-color="#65106b"/>
    </linearGradient>
  </defs>
  <path id="Union_49" data-name="Union 49" d="M-2044.559,20185.354h-35.282a1.159,1.159,0,0,1-1.16-1.16v-51.1a1.171,1.171,0,0,1,.375-.855l15.095-13.934a1.167,1.167,0,0,1,.79-.311h33.676a1.161,1.161,0,0,1,1.16,1.166v26.764a22.079,22.079,0,0,1,20.907,22.006,22.094,22.094,0,0,1-22.067,22.066A21.943,21.943,0,0,1-2044.559,20185.354Zm-6.248-17.42a19.766,19.766,0,0,0,19.741,19.746,19.763,19.763,0,0,0,19.741-19.746,19.762,19.762,0,0,0-19.741-19.74A19.765,19.765,0,0,0-2050.807,20167.934Zm-27.869,15.1h31.563a21.967,21.967,0,0,1-6.015-15.1,22.079,22.079,0,0,1,20.9-22.006v-25.6h-31.355v13.934a1.161,1.161,0,0,1-1.16,1.162h-13.934Zm.547-49.936h12.227v-11.283Zm29.642,34.836a17.445,17.445,0,0,1,17.42-17.42,17.441,17.441,0,0,1,17.42,17.42,17.438,17.438,0,0,1-17.42,17.42A17.441,17.441,0,0,1-2048.486,20167.934Zm18.581,12.775v2.264a15,15,0,0,0,8.649-3.588l-1.338-1.338,1.642-1.641,1.338,1.338a14.986,14.986,0,0,0,3.588-8.65h-2.265v-2.32h2.265a15.007,15.007,0,0,0-3.588-8.648l-1.338,1.342-1.642-1.641,1.338-1.344a15.02,15.02,0,0,0-8.649-3.588v2.266h-2.321v-2.266a15.048,15.048,0,0,0-8.649,3.588l1.343,1.344-1.642,1.641-1.343-1.342a15,15,0,0,0-3.582,8.648h2.26v2.32h-2.26a15,15,0,0,0,3.582,8.65l1.343-1.338,1.642,1.641-1.343,1.338a15.009,15.009,0,0,0,8.649,3.588v-2.264Zm-45.289,0a1.161,1.161,0,0,1-1.16-1.162v-11.613a1.161,1.161,0,0,1,1.16-1.16h11.614a1.157,1.157,0,0,1,1.16,1.16v11.613a1.158,1.158,0,0,1-1.16,1.162Zm1.16-2.322h9.293v-8.111l-3.638,6.363a1.177,1.177,0,0,1-.968.588h-.041a1.182,1.182,0,0,1-.968-.516l-2.321-3.486,1.93-1.287,1.282,1.92,2.721-4.764h-7.291Zm42.968-9.287a1.164,1.164,0,0,1-1.16-1.166v-10.447h2.321v9.287h4.646v2.326Zm-44.129-4.646a1.164,1.164,0,0,1-1.16-1.166v-11.607a1.164,1.164,0,0,1,1.16-1.166h11.614a1.161,1.161,0,0,1,1.16,1.166v11.607a1.161,1.161,0,0,1-1.16,1.166Zm1.16-2.326h9.293v-8.107l-3.638,6.365a1.162,1.162,0,0,1-.968.582h-.041a1.169,1.169,0,0,1-.968-.518l-2.321-3.48,1.93-1.287,1.282,1.916,2.721-4.758h-7.291Zm2.326-13.934v-2.32h22.062v2.32Zm-4.646,0v-2.32h2.321v2.32Zm24.388-4.646v-2.32h2.321v2.32Zm-24.388,0v-2.32h22.062v2.32Zm29.034-8.127a1.162,1.162,0,0,1-1.165-1.162v-4.164l-1.5,1.5-1.642-1.643,8.128-8.127a1.165,1.165,0,0,1,1.642,0l8.133,8.127-1.642,1.643-1.505-1.5v4.164a1.158,1.158,0,0,1-1.16,1.162Zm1.16-7.646v5.324h6.967v-5.324l-3.486-3.486Z" transform="translate(2081.001 -20117.998)" fill="url(#linear-gradient)"/>
</svg>
