<svg xmlns="http://www.w3.org/2000/svg" xmlns:xlink="http://www.w3.org/1999/xlink" width="70.996" height="71.072" viewBox="0 0 70.996 71.072">
  <defs>
    <linearGradient id="linear-gradient" x1="0.5" x2="0.5" y2="1" gradientUnits="objectBoundingBox">
      <stop offset="0.13" stop-color="#00a9ed"/>
      <stop offset="1" stop-color="#65106b"/>
    </linearGradient>
  </defs>
  <path id="Union_72" data-name="Union 72" d="M1361.292,20107h-13.983a1.041,1.041,0,0,1,0-2.08h13.317v-8.75h-4.093a1.04,1.04,0,0,1,0-2.078h4.093v-1.873h-13.438a1.039,1.039,0,0,1-1.034-.928,7.936,7.936,0,0,1,1.963-5.738c1.9-2.109,4.945-3.18,9.053-3.18h17.6c0-.584-.035-2.537-.04-2.9h-36.777v26.488a1.043,1.043,0,0,1-2.084,0v-4.855h-18.787v4.855a1.04,1.04,0,0,1-2.079,0v-34.34a1.042,1.042,0,0,1,1.04-1.045h3.992c-2.3-2.3-2.468-5.945-2.468-9a1.038,1.038,0,0,1,1.04-1.039h6.03v-1.963c-3.371.707-7.529-2.367-6.873-6.035.156-.857,1.388-1.176,2.094-1.316a5.824,5.824,0,0,1,4.779,1.281v-1.928a5.9,5.9,0,0,1-1.953-6.637c.348-1.008,1.958-3.617,3.426-3.018a3.934,3.934,0,0,1,.944.582,5.873,5.873,0,0,1-.333,9.139v1.877a5.609,5.609,0,0,1,6.434-.666,1.338,1.338,0,0,1,.495,1.221,5.86,5.86,0,0,1-6.928,5.5v1.963h5.616a1.042,1.042,0,0,1,1.04,1.039c0,3.059-.227,6.707-2.528,9h23.612v-3.75h-13.968a2.76,2.76,0,0,1-2.76-2.756V20047.9a1.04,1.04,0,0,1,2.079,0v11.021h28.335c1.221-9.6,6.959-11.945,7.231-12.051a1.042,1.042,0,0,1,1.418.969v11.082h3.174v-20.164a.68.68,0,0,0-.676-.682h-38.8a.684.684,0,0,0-.681.682v3.734a1.04,1.04,0,0,1-2.079,0v-3.734a2.761,2.761,0,0,1,2.76-2.762h38.8a2.76,2.76,0,0,1,2.755,2.762v25.311a2.759,2.759,0,0,1-2.755,2.756h-2.5v3.75h8.165a1.042,1.042,0,0,1,1.04,1.045v17.631a1.04,1.04,0,0,1-2.079,0v-9.779h-7.11c.005.348.01.7.015,1.039.081,4.395.141,7.873-1.9,9.945-1.161,1.188-2.886,1.762-5.273,1.762H1362.7v12.7h13.312a1.041,1.041,0,0,1,0,2.08h-13.983a1.007,1.007,0,0,1-.368.07A1.033,1.033,0,0,1,1361.292,20107Zm-44.21-7.973h18.787v-8.736h-18.787Zm32.584-12.082a5.75,5.75,0,0,0-1.418,3.2h21.406a5.132,5.132,0,0,0,3.79-1.141c.908-.924,1.216-2.508,1.3-4.547h-17.576C1353.677,20084.453,1351.149,20085.291,1349.665,20086.945Zm-32.584,1.268h18.787v-8.74h-18.787Zm59.713-10.82h7.125v-4.732h-7.125Zm-59.713,0h56.3a13.748,13.748,0,0,1-3.517-4.732h-52.784Zm56-25.953c-2.019,2.67-3.088,6.561-3.088,11.244s1.075,8.613,3.1,11.354a10.7,10.7,0,0,0,1.62,1.746v-26.049A10.157,10.157,0,0,0,1373.085,20051.439Zm-7.766,19.137h3.729a21.954,21.954,0,0,1-.848-3.75h-2.881Zm-8.781,0h6.7v-3.75h-6.7Zm-31.07-.127c3.956,0,5.632-2.221,5.808-7.836H1319.66C1319.826,20068.3,1321.461,20070.449,1325.468,20070.449Zm51.326-5.7h2.5a.677.677,0,0,0,.676-.678V20061h-3.174Zm-36.984-.678a.681.681,0,0,0,.681.678h27.492a31.953,31.953,0,0,1-.02-3.744H1339.81Zm-20-10.687a3.635,3.635,0,0,0,1.731,2.6,3.7,3.7,0,0,0,3.073.449,3.876,3.876,0,0,0-3.748-3.227A3.184,3.184,0,0,0,1319.811,20053.383Zm8.644.434a3.584,3.584,0,0,0-1.7,2.615,3.842,3.842,0,0,0,4.809-3.049,3.329,3.329,0,0,0-1.1-.186A3.719,3.719,0,0,0,1328.456,20053.816Zm-4.022-7.861a3.569,3.569,0,0,0,1.292,2.836,3.811,3.811,0,0,0,.005-5.7A3.509,3.509,0,0,0,1324.434,20045.955Zm59.485,60.006v-10.885a1.04,1.04,0,1,1,2.079,0v10.885a1.04,1.04,0,0,1-2.079,0Zm-61.363-10.266a1.04,1.04,0,0,1,0-2.078h7.908a1.04,1.04,0,0,1,0,2.078Zm0-10.812a1.041,1.041,0,0,1,0-2.08h7.908a1.041,1.041,0,0,1,0,2.08Z" transform="translate(-1315.002 -20035.998)" fill="url(#linear-gradient)"/>
</svg>
