<?xml version="1.0" encoding="utf-8"?>
<!-- Generator: Adobe Illustrator 14.0.0, SVG Export Plug-In . SVG Version: 6.00 Build 43363)  -->
<!DOCTYPE svg PUBLIC "-//W3C//DTD SVG 1.1//EN" "http://www.w3.org/Graphics/SVG/1.1/DTD/svg11.dtd">
<svg version="1.1" id="depreciation" xmlns="http://www.w3.org/2000/svg" xmlns:xlink="http://www.w3.org/1999/xlink" x="0px"
	 y="0px" width="65px" height="65px" viewBox="0 0 65 65" enable-background="new 0 0 65 65" xml:space="preserve">
<g id="money-coin" transform="translate(-2 -1.37)">
	
		<linearGradient id="Path_18966_1_" gradientUnits="userSpaceOnUse" x1="14.4077" y1="53.0848" x2="14.4077" y2="52.0848" gradientTransform="matrix(62.35 0 0 -62.9998 -863.8124 3346.6719)">
		<stop  offset="0.13" style="stop-color:#00A9ED"/>
		<stop  offset="1" style="stop-color:#65106B"/>
	</linearGradient>
	<path id="Path_18966" fill="url(#Path_18966_1_)" d="M60.478,38.354h-1.039V29c0-1.721-1.396-3.117-3.117-3.117l0,0h-0.134
		l1.678-3.592c0.243-0.52,0.02-1.137-0.5-1.381L17.805,2.468c-0.52-0.243-1.137-0.019-1.38,0.5L5.683,25.989
		C4.302,26.337,3.333,27.576,3.327,29v33.253c0,1.722,1.396,3.117,3.117,3.117l0,0h49.877c1.722,0,3.117-1.396,3.117-3.117l0,0
		v-9.354h1.039c2.872,0,5.2-2.328,5.2-5.199v-4.15c0-2.873-2.328-5.201-5.2-5.201l0,0V38.354z M17.867,4.791l37.674,17.561
		l-1.647,3.533H49.66c-0.82-1.471-1.174-3.157-1.013-4.834c0.041-0.437-0.196-0.853-0.594-1.039l-23.577-11
		c-0.399-0.187-0.873-0.101-1.182,0.214c-1.748,1.799-4.223,2.7-6.719,2.447c-0.439-0.046-0.859,0.193-1.045,0.594l-3.97,8.523
		c-0.186,0.399-0.101,0.872,0.214,1.18c1.091,1.073,1.862,2.428,2.23,3.914H8.027L17.867,4.791z M27.416,25.885
		c-0.567-2.218,0.771-4.477,2.988-5.045c2.219-0.568,4.478,0.771,5.045,2.989c0.173,0.674,0.173,1.381,0,2.056H27.416z
		 M34.066,19.217c-3.123-1.452-6.831-0.097-8.282,3.026c-0.528,1.136-0.701,2.406-0.498,3.642h-9.149
		c-0.353-1.802-1.178-3.479-2.391-4.857l3.372-7.237c2.62,0.074,5.169-0.856,7.125-2.6l22.295,10.393
		c-0.036,1.475,0.242,2.941,0.816,4.3h-9.769C38.051,23.121,36.608,20.39,34.066,19.217L34.066,19.217z M57.36,62.253
		c0,0.574-0.465,1.039-1.039,1.039l0,0H6.444c-0.574,0-1.039-0.465-1.039-1.039l0,0V29c0-0.574,0.465-1.039,1.039-1.039h49.877
		c0.574,0,1.039,0.465,1.039,1.039l0,0v9.353h-5.2c-2.872,0-5.2,2.328-5.2,5.199l0,0v4.156c0,2.872,2.328,5.2,5.2,5.2l0,0h5.2
		V62.253z M63.596,47.706c0,1.722-1.396,3.117-3.117,3.117l0,0h-8.314c-1.721,0-3.116-1.396-3.116-3.117l0,0V43.55
		c0-1.723,1.396-3.117,3.116-3.117l0,0h8.313c1.722,0,3.117,1.395,3.117,3.117l0,0L63.596,47.706z"/>
	
		<linearGradient id="Path_18967_1_" gradientUnits="userSpaceOnUse" x1="54.085" y1="0.4008" x2="54.085" y2="-0.5992" gradientTransform="matrix(6.234 0 0 -6.234 -282.9244 45.0076)">
		<stop  offset="0.13" style="stop-color:#00A9ED"/>
		<stop  offset="1" style="stop-color:#65106B"/>
	</linearGradient>
	<path id="Path_18967" fill="url(#Path_18967_1_)" d="M54.242,42.511c-1.722,0-3.117,1.395-3.117,3.116s1.396,3.117,3.117,3.117
		s3.117-1.396,3.117-3.117S55.964,42.511,54.242,42.511L54.242,42.511z M54.242,46.666c-0.573,0-1.039-0.465-1.039-1.039
		c0-0.573,0.466-1.039,1.039-1.039c0.574,0,1.039,0.466,1.039,1.039C55.281,46.201,54.816,46.666,54.242,46.666L54.242,46.666z"/>
	
		<linearGradient id="Path_18968_1_" gradientUnits="userSpaceOnUse" x1="18.2651" y1="45.3837" x2="18.2651" y2="44.3837" gradientTransform="matrix(33.251 0 0 -27.026 -583.2225 1260.7225)">
		<stop  offset="0.13" style="stop-color:#00A9ED"/>
		<stop  offset="1" style="stop-color:#65106B"/>
	</linearGradient>
	<path id="Path_18968" fill="url(#Path_18968_1_)" d="M33.316,44.797c2.251-0.52,3.262-1.228,3.262-2.286v-5.199
		c0-2.814-8.72-3.114-12.47-3.114c-11.254,0-12.469,2.182-12.469,3.116v2.721c-2.889,0.531-4.156,1.287-4.156,2.477v5.199
		c0,0.549,0.016,2.057,5.963,2.762c-3.885,0.76-3.885,1.893-3.885,2.435v5.2c0,2.813,8.72,3.117,12.469,3.117
		s12.469-0.301,12.469-3.117v-2.422c6.22-0.707,6.235-2.151,6.235-2.785V47.7C40.734,47.116,40.72,45.419,33.316,44.797z
		 M32.422,47.706v-0.891c1.892,0.083,3.768,0.383,5.591,0.895c-1.922,0.527-3.898,0.832-5.89,0.91
		c0.21-0.257,0.316-0.582,0.301-0.913L32.422,47.706z M31.222,43.083c-2.358,0.328-4.736,0.484-7.117,0.467
		c-0.674,0-1.339-0.01-2.044-0.029c-5.067-0.168-7.7-0.9-8.347-1.282v-2.979c2.816,1.025,7.793,1.172,10.391,1.172
		c5.563,0,8.668-0.533,10.391-1.186v2.982c-1.036,0.465-2.143,0.754-3.273,0.854V43.083z M24.104,36.276
		c3.288-0.115,6.576,0.234,9.767,1.039c-3.19,0.805-6.479,1.154-9.767,1.039c-3.287,0.114-6.573-0.235-9.762-1.039
		C17.531,36.511,20.817,36.161,24.104,36.276z M11.64,42.149v0.361c0.001,0.128,0.021,0.256,0.059,0.379
		c-0.502-0.096-0.999-0.221-1.487-0.373C10.68,42.366,11.156,42.244,11.64,42.149z M9.562,44.45
		c2.816,1.025,7.793,1.172,10.391,1.172c0.717,0,1.425-0.01,2.142-0.031l0,0c0.654,0.021,1.33,0.031,2.016,0.031
		c2.083,0.008,4.165-0.105,6.235-0.337v2.135c-0.491,0.285-2.26,0.89-6.311,1.175c-2.378,0.168-4.765,0.188-7.146,0.062
		c-4.46-0.222-6.728-0.874-7.326-1.231L9.562,44.45z M15.796,52.204v0.693c-0.01,0.25,0.049,0.498,0.172,0.717
		c-1.248-0.123-2.481-0.363-3.685-0.717c1.146-0.343,2.322-0.573,3.513-0.688V52.204z M22.031,59.131
		c-6.04,0-9.579-0.808-10.391-1.311v-2.974c2.816,1.024,7.793,1.172,10.391,1.172c1.039,0,2.11-0.028,3.148-0.084l0,0
		c1.031,0.055,2.069,0.084,3.086,0.084c1.444,0,2.824-0.063,4.156-0.156v1.962c-0.812,0.503-4.353,1.312-10.392,1.312L22.031,59.131
		z M33.364,53.711c-1.565,0.147-3.332,0.224-5.1,0.224c-0.996,0-2.018-0.027-3.065-0.082c-4.46-0.221-6.727-0.873-7.326-1.231
		v-1.854c0.7,0.024,1.395,0.056,2.078,0.056c1.432,0,2.827-0.05,4.156-0.144c1.33,0.1,2.727,0.144,4.156,0.144
		c2.6,0,7.573-0.147,10.391-1.173v2.973c-0.439,0.26-1.914,0.781-5.29,1.094V53.711z"/>
</g>
</svg>
