<?xml version="1.0" encoding="utf-8"?>
<!-- Generator: Adobe Illustrator 14.0.0, SVG Export Plug-In . SVG Version: 6.00 Build 43363)  -->
<!DOCTYPE svg PUBLIC "-//W3C//DTD SVG 1.1//EN" "http://www.w3.org/Graphics/SVG/1.1/DTD/svg11.dtd">
<svg version="1.1" id="depreciation" xmlns="http://www.w3.org/2000/svg" xmlns:xlink="http://www.w3.org/1999/xlink" x="0px"
	 y="0px" width="65px" height="65px" viewBox="0 0 65 65" enable-background="new 0 0 65 65" xml:space="preserve">
<g id="money" transform="translate(0 -0.002)">
	<g id="Group_3593" transform="translate(18.9 0.002)">
		<g id="Group_3592" transform="translate(0 0)">
			
				<linearGradient id="Path_18948_1_" gradientUnits="userSpaceOnUse" x1="-0.0465" y1="46.9814" x2="-0.0465" y2="45.9814" gradientTransform="matrix(25.2 0 0 -34.65 13.7798 1628.8875)">
				<stop  offset="0.13" style="stop-color:#00A9ED"/>
				<stop  offset="1" style="stop-color:#65106B"/>
			</linearGradient>
			<path id="Path_18948" fill="url(#Path_18948_1_)" d="M24.149,5.198h-5.25V2.049c0.002-0.58-0.467-1.051-1.047-1.052
				c-0.001,0-0.002,0-0.002,0H1.05c-0.58,0-1.05,0.47-1.05,1.05c0,0.001,0,0.001,0,0.002v28.348c0,0.58,0.47,1.05,1.05,1.05l0,0H6.3
				v3.15c0,0.58,0.47,1.05,1.05,1.05l0,0h16.799c0.58,0,1.051-0.47,1.051-1.05l0,0V6.25c0.001-0.58-0.469-1.051-1.049-1.052
				C24.151,5.198,24.151,5.198,24.149,5.198z M16.799,3.098v1.909c-0.89-0.318-1.59-1.019-1.906-1.909H16.799z M2.1,3.098h1.907
				C3.689,3.988,2.989,4.688,2.1,5.006V3.098z M2.1,29.348v-1.904c0.89,0.318,1.589,1.018,1.907,1.907L2.1,29.348z M6.2,29.348
				c-0.423-2.064-2.036-3.677-4.1-4.1V7.198c2.064-0.424,3.677-2.037,4.1-4.1h6.51c0.424,2.063,2.037,3.676,4.1,4.1v18.06
				c-2.063,0.424-3.676,2.037-4.1,4.1L6.2,29.348z M16.799,27.443v1.907h-1.906C15.21,28.461,15.911,27.761,16.799,27.443z
				 M23.1,33.551H8.399v-2.1h9.451c0.58,0,1.049-0.47,1.049-1.05l0,0V7.297H23.1V33.551z"/>
		</g>
	</g>
	<g id="Group_3595" transform="translate(24.15 10.502)">
		<g id="Group_3594">
			
				<linearGradient id="Path_18949_1_" gradientUnits="userSpaceOnUse" x1="16.4096" y1="3.6074" x2="16.4096" y2="2.6074" gradientTransform="matrix(8.4 0 0 -8.4 -133.6384 31.2969)">
				<stop  offset="0.13" style="stop-color:#00A9ED"/>
				<stop  offset="1" style="stop-color:#65106B"/>
			</linearGradient>
			<path id="Path_18949" fill="url(#Path_18949_1_)" d="M4.2,0.998c-2.32,0-4.2,1.88-4.2,4.2c0,2.319,1.88,4.2,4.2,4.2
				c2.319,0,4.199-1.88,4.199-4.2l0,0C8.399,2.878,6.519,0.998,4.2,0.998z M4.2,7.297c-1.16,0-2.1-0.94-2.1-2.1
				c0-1.16,0.94-2.1,2.1-2.1s2.1,0.94,2.1,2.1C6.3,6.357,5.359,7.297,4.2,7.297L4.2,7.297z"/>
		</g>
	</g>
	<g id="Group_3597" transform="translate(14.7 0.002)">
		<g id="Group_3596" transform="translate(0 0)">
			
				<linearGradient id="Rectangle_921_1_" gradientUnits="userSpaceOnUse" x1="130.049" y1="11.937" x2="130.049" y2="10.937" gradientTransform="matrix(2 0 0 -8 -258.8 96.5)">
				<stop  offset="0.13" style="stop-color:#00A9ED"/>
				<stop  offset="1" style="stop-color:#65106B"/>
			</linearGradient>
			<rect id="Rectangle_921" x="0.3" y="1" fill="url(#Rectangle_921_1_)" width="2" height="8"/>
		</g>
	</g>
	<g id="Group_3599" transform="translate(10.5 0.002)">
		<g id="Group_3598" transform="translate(0 0)">
			
				<linearGradient id="Rectangle_922_1_" gradientUnits="userSpaceOnUse" x1="134.249" y1="-33.625" x2="134.249" y2="-34.625" gradientTransform="matrix(2 0 0 -4 -267 -133.5)">
				<stop  offset="0.13" style="stop-color:#00A9ED"/>
				<stop  offset="1" style="stop-color:#65106B"/>
			</linearGradient>
			<rect id="Rectangle_922" x="0.5" y="1" fill="url(#Rectangle_922_1_)" width="2" height="4"/>
		</g>
	</g>
	<g id="Group_3601" transform="translate(46.201 2.102)">
		<g id="Group_3600">
			
				<linearGradient id="Rectangle_923_1_" gradientUnits="userSpaceOnUse" x1="98.549" y1="9.837" x2="98.549" y2="8.837" gradientTransform="matrix(2 0 0 -8 -196.299 79.6)">
				<stop  offset="0.13" style="stop-color:#00A9ED"/>
				<stop  offset="1" style="stop-color:#65106B"/>
			</linearGradient>
			<rect id="Rectangle_923" x="-0.201" y="0.9" fill="url(#Rectangle_923_1_)" width="2" height="8"/>
		</g>
	</g>
	<g id="Group_3603" transform="translate(50.401 0.002)">
		<g id="Group_3602" transform="translate(0 0)">
			
				<linearGradient id="Rectangle_924_1_" gradientUnits="userSpaceOnUse" x1="48.766" y1="-33.6255" x2="48.766" y2="-34.6255" gradientTransform="matrix(3 0 0 -4 -145.198 -133.5)">
				<stop  offset="0.13" style="stop-color:#00A9ED"/>
				<stop  offset="1" style="stop-color:#65106B"/>
			</linearGradient>
			<rect id="Rectangle_924" x="-0.401" y="1" fill="url(#Rectangle_924_1_)" width="3" height="4"/>
		</g>
	</g>
	<g id="Group_3605" transform="translate(0 36.753)">
		<g id="Group_3604">
			
				<linearGradient id="Path_18950_1_" gradientUnits="userSpaceOnUse" x1="12.3408" y1="6.8633" x2="12.3408" y2="5.8633" gradientTransform="matrix(62.9985 0 0 -26.25 -745.9803 181.1603)">
				<stop  offset="0.13" style="stop-color:#00A9ED"/>
				<stop  offset="1" style="stop-color:#65106B"/>
			</linearGradient>
			<path id="Path_18950" fill="url(#Path_18950_1_)" d="M61.606,2.397c-0.892-0.895-2.104-1.398-3.368-1.4h-0.277
				c-1.049,0.003-2.068,0.35-2.9,0.987L44.871,9.823c-1.48,1.136-3.215,1.895-5.055,2.211L26.45,14.323
				c-0.604,0.071-1.15-0.361-1.221-0.964c-0.065-0.557,0.298-1.073,0.844-1.2L36.318,9.96c2.446-0.533,3.997-2.949,3.464-5.395
				c-0.452-2.076-2.286-3.561-4.411-3.568h-7.909c-2.286,0.002-4.563,0.283-6.781,0.84L12.6,3.855V2.05
				c0.001-0.58-0.468-1.051-1.048-1.053c0,0-0.001,0-0.002,0h-10.5C0.47,0.997,0,1.468,0,2.048c0,0,0,0.001,0,0.002v24.148
				c0,0.579,0.47,1.049,1.05,1.049h36.535c1.744,0,3.432-0.62,4.761-1.748L61.605,9.126C63.462,7.268,63.462,4.257,61.606,2.397z
				 M10.5,25.149H2.1V3.098h8.4V25.149z M60.184,7.585L40.984,23.897c-0.949,0.806-2.154,1.248-3.4,1.248H12.6V6.016l8.592-2.147
				c2.051-0.514,4.157-0.773,6.271-0.773h7.9c1.345,0.004,2.431,1.098,2.428,2.441c-0.003,1.144-0.802,2.131-1.919,2.373
				l-10.247,2.199c-1.725,0.383-2.813,2.093-2.43,3.818c0.362,1.629,1.915,2.705,3.567,2.475l13.4-2.3
				c2.176-0.374,4.228-1.272,5.979-2.617L56.33,3.646c0.466-0.356,1.035-0.551,1.623-0.552h0.275
				c1.471,0.001,2.662,1.191,2.664,2.662c0.01,0.678-0.245,1.334-0.709,1.83V7.585z"/>
		</g>
	</g>
</g>
</svg>
