<?xml version="1.0" encoding="utf-8"?>
<!-- Generator: Adobe Illustrator 16.0.0, SVG Export Plug-In . SVG Version: 6.00 Build 0)  -->
<!DOCTYPE svg PUBLIC "-//W3C//DTD SVG 1.1//EN" "http://www.w3.org/Graphics/SVG/1.1/DTD/svg11.dtd">
<svg version="1.1" id="Layer_1" xmlns="http://www.w3.org/2000/svg" xmlns:xlink="http://www.w3.org/1999/xlink" x="0px" y="0px"
	 width="63px" height="63px" viewBox="0 0 63 63" enable-background="new 0 0 63 63" xml:space="preserve">
<linearGradient id="Path_17296_1_" gradientUnits="userSpaceOnUse" x1="-269.2847" y1="407.4199" x2="-269.2847" y2="406.4199" gradientTransform="matrix(63.0014 0 0 -18.9 16996.7773 7744.3379)">
	<stop  offset="0.13" style="stop-color:#00A9ED"/>
	<stop  offset="1" style="stop-color:#65106B"/>
</linearGradient>
<path id="Path_17296" fill="url(#Path_17296_1_)" d="M58.639,45.15h-0.16c-0.631,0-1.256,0.137-1.828,0.399l-12.781,5.9H39.1
	c1.453-2.165,0.875-5.097-1.289-6.55c-0.779-0.523-1.697-0.802-2.637-0.801H21c-0.278,0-0.545,0.111-0.742,0.309L16.365,48.3H10.5
	v-1.05c0-0.58-0.47-1.049-1.05-1.05h-8.4C0.47,46.201,0,46.67,0,47.25v14.7C0,62.529,0.47,63,1.05,63h8.4
	c0.58,0,1.049-0.471,1.05-1.05h34.65c0.18,0,0.357-0.046,0.514-0.134l15.111-8.5c2.102-1.182,2.846-3.842,1.664-5.941
	C61.668,46,60.215,45.15,58.639,45.15z M8.4,60.9H2.1V48.3h6.3V60.9z M59.746,51.484L44.875,59.85H10.5V50.4h6.3
	c0.279,0,0.546-0.111,0.742-0.309l3.892-3.892h13.74c1.449,0,2.625,1.175,2.625,2.625c0,1.449-1.176,2.625-2.625,2.625H26.25v2.1
	H44.1c0.152-0.001,0.303-0.034,0.439-0.1l12.992-6c0.297-0.138,0.619-0.208,0.947-0.208h0.16c1.248,0.001,2.262,1.016,2.26,2.265
	c0,0.817-0.441,1.569-1.152,1.97V51.484z"/>
<linearGradient id="Path_17297_1_" gradientUnits="userSpaceOnUse" x1="-267.1763" y1="418.7383" x2="-267.1763" y2="417.7383" gradientTransform="matrix(42 0 0 -42 11252.9063 17587.0313)">
	<stop  offset="0.13" style="stop-color:#00A9ED"/>
	<stop  offset="1" style="stop-color:#65106B"/>
</linearGradient>
<path id="Path_17297" fill="url(#Path_17297_1_)" d="M31.5,0c-11.598,0-21,9.402-21,21c0,11.598,9.402,21,21,21
	c11.598,0,21-9.402,21-21C52.5,9.402,43.098,0,31.5,0z M31.5,39.9c-10.438,0-18.9-8.462-18.9-18.9S21.062,2.1,31.5,2.1
	c10.438,0,18.9,8.462,18.9,18.9S41.938,39.9,31.5,39.9L31.5,39.9z"/>
<linearGradient id="Path_17298_1_" gradientUnits="userSpaceOnUse" x1="-8.3994" y1="39.041" x2="-8.3994" y2="39.041" gradientTransform="matrix(1 0 0 -1 53.3389 49.958)">
	<stop  offset="0.13" style="stop-color:#00A9ED"/>
	<stop  offset="1" style="stop-color:#65106B"/>
</linearGradient>
<path id="Path_17298" fill="url(#Path_17298_1_)" d="M44.939,10.918"/>
<linearGradient id="Path_17303_1_" gradientUnits="userSpaceOnUse" x1="-147.0239" y1="242.7813" x2="-147.0239" y2="241.7813" gradientTransform="matrix(2.1 0 0 -2.1 357.0521 546.5917)">
	<stop  offset="0.13" style="stop-color:#00A9ED"/>
	<stop  offset="1" style="stop-color:#65106B"/>
</linearGradient>
<path id="Path_17303" fill="url(#Path_17303_1_)" d="M47.25,36.75h2.1v2.1h-2.1V36.75z"/>
<linearGradient id="Path_17304_1_" gradientUnits="userSpaceOnUse" x1="-147.0239" y1="366.2607" x2="-147.0239" y2="365.2607" gradientTransform="matrix(2.1 0 0 -6.3 357.0521 2348.387)">
	<stop  offset="0.13" style="stop-color:#00A9ED"/>
	<stop  offset="1" style="stop-color:#65106B"/>
</linearGradient>
<path id="Path_17304" fill="url(#Path_17304_1_)" d="M47.25,40.95h2.1v6.3h-2.1V40.95z"/>
<linearGradient id="Path_17305_1_" gradientUnits="userSpaceOnUse" x1="-147.0239" y1="366.2598" x2="-147.0239" y2="365.2598" gradientTransform="matrix(2.1 0 0 -6.3 351.8021 2350.4846)">
	<stop  offset="0.13" style="stop-color:#00A9ED"/>
	<stop  offset="1" style="stop-color:#65106B"/>
</linearGradient>
<path id="Path_17305" fill="url(#Path_17305_1_)" d="M42,43.05h2.1v6.3H42V43.05z"/>
<g id="rupee" transform="translate(17.878 7.081)">
	<g id="Group_2186">
		<g id="Group_2185">
			
				<linearGradient id="Path_17306_1_" gradientUnits="userSpaceOnUse" x1="-281.563" y1="406.545" x2="-281.563" y2="405.545" gradientTransform="matrix(27.06 0 0 -27.06 7632.6216 11001.1123)">
				<stop  offset="0.13" style="stop-color:#00A9ED"/>
				<stop  offset="1" style="stop-color:#65106B"/>
			</linearGradient>
			<path id="Path_17306" fill="url(#Path_17306_1_)" d="M13.53,0C6.058,0,0,6.058,0,13.53c0,7.473,6.058,13.53,13.53,13.53
				S27.06,21.003,27.06,13.53l0,0C27.06,6.058,21.003,0,13.53,0z M13.53,25.369c-6.539,0-11.839-5.301-11.839-11.839
				S6.992,1.691,13.53,1.691c6.537,0,11.838,5.3,11.838,11.839S20.067,25.369,13.53,25.369L13.53,25.369z"/>
		</g>
	</g>
	<g id="Group_2188" transform="translate(8.456 6.765)">
		<g id="Group_2187">
			
				<linearGradient id="Path_17307_1_" gradientUnits="userSpaceOnUse" x1="-273.7397" y1="388.6003" x2="-273.7397" y2="387.6013" gradientTransform="matrix(10.1783 0 0 -15.2219 2791.2756 5915.2573)">
				<stop  offset="0.13" style="stop-color:#00A9ED"/>
				<stop  offset="1" style="stop-color:#65106B"/>
			</linearGradient>
			<path id="Path_17307" fill="url(#Path_17307_1_)" d="M9.303,3.383H8.369C8.24,2.768,7.973,2.19,7.588,1.692h1.715
				c0.467,0.016,0.857-0.35,0.873-0.816c0.018-0.467-0.35-0.858-0.816-0.875C9.34,0,9.32,0,9.303,0.001H0.846
				C0.379,0.017,0.014,0.409,0.03,0.876C0.045,1.32,0.402,1.676,0.846,1.692h3.383c1.071,0.003,2.025,0.68,2.38,1.691H0.846
				C0.379,3.399,0.014,3.791,0.03,4.258c0.015,0.444,0.372,0.801,0.816,0.816h5.761c-0.355,1.011-1.309,1.688-2.38,1.691H0.844
				c-0.467,0-0.846,0.38-0.845,0.847c0,0.11,0.022,0.22,0.064,0.322C0.104,8.038,0.167,8.132,0.247,8.21l6.761,6.763
				c0.33,0.332,0.865,0.333,1.197,0.003c0.332-0.33,0.332-0.866,0.002-1.197L2.886,8.457h1.341c2.007-0.001,3.74-1.415,4.142-3.383
				h0.932c0.467,0.016,0.859-0.349,0.875-0.816c0.016-0.467-0.35-0.858-0.816-0.875c-0.02,0-0.039,0-0.059,0H9.303z"/>
		</g>
	</g>
</g>
</svg>
