<?xml version="1.0" encoding="utf-8"?>
<!-- Generator: Adobe Illustrator 14.0.0, SVG Export Plug-In . SVG Version: 6.00 Build 43363)  -->
<!DOCTYPE svg PUBLIC "-//W3C//DTD SVG 1.1//EN" "http://www.w3.org/Graphics/SVG/1.1/DTD/svg11.dtd">
<svg version="1.1" id="depreciation" xmlns="http://www.w3.org/2000/svg" xmlns:xlink="http://www.w3.org/1999/xlink" x="0px"
	 y="0px" width="65px" height="65px" viewBox="0 0 65 65" enable-background="new 0 0 65 65" xml:space="preserve">
<g id="Home_insurance" transform="translate(-7 -2)">
	
		<linearGradient id="Path_18951_1_" gradientUnits="userSpaceOnUse" x1="20.6001" y1="53.417" x2="20.6001" y2="52.418" gradientTransform="matrix(50 0 0 -60.0003 -991.5 3208.5105)">
		<stop  offset="0.13" style="stop-color:#00A9ED"/>
		<stop  offset="1" style="stop-color:#65106B"/>
	</linearGradient>
	<path id="Path_18951" fill="url(#Path_18951_1_)" d="M62.779,10.54l-24-7c-0.183-0.054-0.377-0.054-0.56,0l-24,7
		c-0.427,0.125-0.72,0.516-0.72,0.96v18c0.003,6.035,2.411,11.82,6.69,16.075l0,0l17.6,17.631c0.39,0.392,1.023,0.392,1.414,0.002
		c0.001-0.001,0.001-0.001,0.002-0.002l17.601-17.632c4.28-4.254,6.689-10.039,6.693-16.074v-18
		C63.5,11.056,63.207,10.665,62.779,10.54z M61.5,29.5c-0.004,5.506-2.201,10.781-6.105,14.663L38.5,61.084L21.606,44.163
		c-3.904-3.882-6.102-9.157-6.106-14.663V12.25l23-6.708l23,6.708V29.5z"/>
	
		<linearGradient id="Path_18952_1_" gradientUnits="userSpaceOnUse" x1="21.666" y1="52.2256" x2="21.666" y2="51.2256" gradientTransform="matrix(42 0 0 -50.1763 -871.5 2628.1704)">
		<stop  offset="0.13" style="stop-color:#00A9ED"/>
		<stop  offset="1" style="stop-color:#65106B"/>
	</linearGradient>
	<path id="Path_18952" fill="url(#Path_18952_1_)" d="M38.22,7.707l-20,5.833c-0.427,0.125-0.72,0.516-0.72,0.96v15
		c0.005,4.975,1.992,9.742,5.521,13.249l0,0l14.77,14.8c0.39,0.391,1.023,0.393,1.414,0.002c0.001,0,0.002-0.001,0.002-0.002
		l14.768-14.795c3.531-3.506,5.521-8.276,5.525-13.254v-15c0-0.444-0.293-0.835-0.721-0.96l-20-5.833
		C38.597,7.653,38.403,7.653,38.22,7.707z M38.5,55.423L27.6,44.5h21.81L38.5,55.423z M39.159,15.748
		c-0.377-0.331-0.941-0.331-1.318,0L24.393,27.515l0.986-3.452L38.5,12.817l13.121,11.246l0.986,3.452L39.159,15.748z M28.5,26.579
		l10-8.75l10,8.75V42.5h-4v-13c0-0.552-0.447-1-1-1h-10c-0.552,0-1,0.448-1,1v13h-4V26.579z M42.5,42.5h-8v-12h8V42.5z M57.5,15.25
		V29.5c-0.007,4.448-1.785,8.709-4.943,11.842L50.5,43.4V28.329l3.341,2.923c0.416,0.364,1.048,0.321,1.411-0.094
		c0.224-0.255,0.303-0.606,0.209-0.933l-2-7c-0.053-0.188-0.161-0.357-0.311-0.484l-14-12c-0.374-0.32-0.925-0.32-1.299,0l-14,12
		c-0.149,0.127-0.257,0.295-0.31,0.484l-2,7c-0.151,0.531,0.156,1.084,0.688,1.236c0.326,0.093,0.677,0.014,0.933-0.209l3.339-2.923
		V43.4l-2.062-2.065c-3.154-3.132-4.931-7.39-4.938-11.835V15.25l19-5.542L57.5,15.25z"/>
</g>
</svg>
