<?xml version="1.0" encoding="utf-8"?>
<!-- Generator: Adobe Illustrator 16.0.0, SVG Export Plug-In . SVG Version: 6.00 Build 0)  -->
<!DOCTYPE svg PUBLIC "-//W3C//DTD SVG 1.1//EN" "http://www.w3.org/Graphics/SVG/1.1/DTD/svg11.dtd">
<svg version="1.1" id="Layer_1" xmlns="http://www.w3.org/2000/svg" xmlns:xlink="http://www.w3.org/1999/xlink" x="0px" y="0px"
	 width="62px" height="62px" viewBox="0 0 62 62" enable-background="new 0 0 62 62" xml:space="preserve">
<g id="interest" transform="translate(-0.999 -1)">
	
		<linearGradient id="Path_17847_1_" gradientUnits="userSpaceOnUse" x1="-268.7076" y1="422.2197" x2="-268.7076" y2="421.2197" gradientTransform="matrix(61.9927 0 0 -62.0011 16689.9844 26179.0352)">
		<stop  offset="0" style="stop-color:#00A9E0"/>
		<stop  offset="1" style="stop-color:#801C7D"/>
	</linearGradient>
	<path id="Path_17847" fill="url(#Path_17847_1_)" d="M44,55H28c-0.458,0.003-0.91,0.111-1.319,0.318
		C26.888,54.91,26.997,54.459,27,54v-2c-0.002-0.74-0.281-1.453-0.78-2c0.5-0.547,0.778-1.26,0.78-2v-2c0-1.656-1.343-3-3-3h-0.549
		c2.081-1.196,3.846-2.871,5.149-4.887c8.91,7.406,22.138,6.188,29.544-2.723c7.408-8.91,6.189-22.138-2.722-29.545
		c-8.91-7.407-22.138-6.188-29.545,2.722c-1.856,2.233-3.229,4.828-4.031,7.619c-7.622-3.233-16.422,0.324-19.655,7.946
		C-0.774,31.125,1.957,39.229,8.549,43H8c-1.657,0-3,1.344-3,3v2c0.002,0.74,0.281,1.453,0.78,2C5.281,50.547,5.002,51.26,5,52v2
		c0.002,0.74,0.281,1.453,0.78,2C5.281,56.547,5.002,57.26,5,58v2c0,1.656,1.343,3,3,3h16c0.74-0.002,1.453-0.281,2-0.78
		c0.546,0.5,1.26,0.778,2,0.78h16c1.656,0,3-1.344,3-3v-2C47,56.344,45.656,55,44,55z M8,55c-0.552,0-1-0.447-1-1v-2
		c0-0.553,0.448-1,1-1h1v2h2v-2h2v2h2v-2h2v2h2v-2h2v2h2v-2h1c0.552,0,1,0.447,1,1v2c0,0.553-0.448,1-1,1H8z M42,3
		c10.493-0.035,19.027,8.444,19.063,18.938C61.098,32.431,52.618,40.965,42.125,41c-4.609,0.016-9.067-1.646-12.543-4.674
		c3.278-6.969,0.714-15.287-5.919-19.2C25.828,8.779,33.377,2.963,42,3z M3,30c0-7.18,5.82-13,13-13s13,5.82,13,13s-5.82,13-13,13
		S3,37.18,3,30z M7,46c0-0.553,0.448-1,1-1h1v2h2v-2h2v2h2v-2h2v2h2v-2h2v2h2v-2h1c0.552,0,1,0.447,1,1v2c0,0.553-0.448,1-1,1H8
		c-0.552,0-1-0.447-1-1V46z M24,61H8c-0.552,0-1-0.447-1-1v-2c0-0.553,0.448-1,1-1h1v2h2v-2h2v2h2v-2h2v2h2v-2h2v2h2v-2h1
		c0.552,0,1,0.447,1,1v2C25,60.553,24.552,61,24,61z M45,60c0,0.553-0.447,1-1,1H28c-0.552,0-1-0.447-1-1v-2c0-0.553,0.448-1,1-1h1
		v2h2v-2h2v2h2v-2h2v2h2v-2h2v2h2v-2h1c0.553,0,1,0.447,1,1V60z"/>
	
		<linearGradient id="Path_17849_1_" gradientUnits="userSpaceOnUse" x1="-260.9053" y1="410.7979" x2="-260.9053" y2="409.7979" gradientTransform="matrix(22 0 0 -22 5755.9272 9056.5469)">
		<stop  offset="0" style="stop-color:#00A9E0"/>
		<stop  offset="1" style="stop-color:#801C7D"/>
	</linearGradient>
	<path id="Path_17849" fill="url(#Path_17849_1_)" d="M16,19C9.925,19,5,23.925,5,30s4.925,11,11,11s11-4.925,11-11S22.075,19,16,19
		z M16,39c-4.971,0-9-4.029-9-9s4.029-9,9-9s9,4.029,9,9S20.971,39,16,39z"/>
	
		<linearGradient id="Path_17850_1_" gradientUnits="userSpaceOnUse" x1="-250.8516" y1="392.5693" x2="-250.8516" y2="391.5693" gradientTransform="matrix(12.014 0 0 -10.839 3045.978 4260.5879)">
		<stop  offset="0" style="stop-color:#00A9E0"/>
		<stop  offset="1" style="stop-color:#801C7D"/>
	</linearGradient>
	<path id="Path_17850" fill="url(#Path_17850_1_)" d="M38.25,7.472l-0.5-1.936c-5.216,1.356-9.484,5.096-11.514,10.089l1.854,0.75
		c1.792-4.404,5.559-7.704,10.16-8.9V7.472z"/>
	
		<linearGradient id="Path_17851_1_" gradientUnits="userSpaceOnUse" x1="-147.7183" y1="244.4463" x2="-147.7183" y2="243.4463" gradientTransform="matrix(2.124 0 0 -2.116 354.6918 522.2466)">
		<stop  offset="0" style="stop-color:#00A9E0"/>
		<stop  offset="1" style="stop-color:#801C7D"/>
	</linearGradient>
	<path id="Path_17851" fill="url(#Path_17851_1_)" d="M42,7V5c-0.71,0-1.42,0.044-2.124,0.132l0.248,1.984
		C40.746,7.039,41.373,7,42,7z"/>
	
		<linearGradient id="Path_17852_1_" gradientUnits="userSpaceOnUse" x1="-244.9898" y1="402.0508" x2="-244.9898" y2="401.0508" gradientTransform="matrix(9.5 0 0 -14.724 2381.657 5941.7798)">
		<stop  offset="0" style="stop-color:#00A9E0"/>
		<stop  offset="1" style="stop-color:#801C7D"/>
	</linearGradient>
	<path id="Path_17852" fill="url(#Path_17852_1_)" d="M49.5,34.994l1,1.73C55.751,33.678,58.988,28.071,59,22h-2
		C56.988,27.357,54.133,32.305,49.5,34.994z"/>
	
		<linearGradient id="Path_17853_1_" gradientUnits="userSpaceOnUse" x1="-171.668" y1="276.0098" x2="-171.668" y2="275.0107" gradientTransform="matrix(2.626 0 0 -2.554 497.8637 740.8409)">
		<stop  offset="0" style="stop-color:#00A9E0"/>
		<stop  offset="1" style="stop-color:#801C7D"/>
	</linearGradient>
	<path id="Path_17853" fill="url(#Path_17853_1_)" d="M45.75,36.527l0.5,1.938c0.723-0.187,1.434-0.42,2.126-0.699l-0.751-1.854
		C47.014,36.157,46.388,36.363,45.75,36.527z"/>
	
		<linearGradient id="Path_17854_1_" gradientUnits="userSpaceOnUse" x1="-147.7183" y1="244.4443" x2="-147.7183" y2="243.4443" gradientTransform="matrix(2.124 0 0 -2.116 356.8148 554.1294)">
		<stop  offset="0" style="stop-color:#00A9E0"/>
		<stop  offset="1" style="stop-color:#801C7D"/>
	</linearGradient>
	<path id="Path_17854" fill="url(#Path_17854_1_)" d="M42,37v2c0.71,0,1.42-0.044,2.124-0.132l-0.248-1.984
		C43.254,36.961,42.627,37,42,37z"/>
	
		<linearGradient id="Path_17855_1_" gradientUnits="userSpaceOnUse" x1="-239.7388" y1="379.8174" x2="-239.7388" y2="378.8174" gradientTransform="matrix(8 0 0 -8 1964.9094 3061.5391)">
		<stop  offset="0" style="stop-color:#00A9E0"/>
		<stop  offset="1" style="stop-color:#801C7D"/>
	</linearGradient>
	<path id="Path_17855" fill="url(#Path_17855_1_)" d="M51,27c0-2.209-1.791-4-4-4s-4,1.791-4,4s1.791,4,4,4S51,29.209,51,27z M45,27
		c0-1.104,0.896-2,2-2s2,0.896,2,2s-0.896,2-2,2S45,28.104,45,27z"/>
	
		<linearGradient id="Path_17856_1_" gradientUnits="userSpaceOnUse" x1="-239.7388" y1="379.8174" x2="-239.7388" y2="378.8174" gradientTransform="matrix(8 0 0 -8 1954.9094 3051.5391)">
		<stop  offset="0" style="stop-color:#00A9E0"/>
		<stop  offset="1" style="stop-color:#801C7D"/>
	</linearGradient>
	<path id="Path_17856" fill="url(#Path_17856_1_)" d="M33,17c0,2.209,1.791,4,4,4s4-1.791,4-4s-1.791-4-4-4S33,14.791,33,17z M39,17
		c0,1.104-0.896,2-2,2s-2-0.896-2-2s0.896-2,2-2S39,15.896,39,17z"/>
	
		<linearGradient id="Path_17857_1_" gradientUnits="userSpaceOnUse" x1="-276.085" y1="196.7256" x2="-276.085" y2="195.7256" gradientTransform="matrix(19.9998 -19.9998 -1.4142 -1.4142 5841.1563 -5222.1455)">
		<stop  offset="0" style="stop-color:#00A9E0"/>
		<stop  offset="1" style="stop-color:#801C7D"/>
	</linearGradient>
	<path id="Path_17857" fill="url(#Path_17857_1_)" d="M31.293,31.292l20-20l1.414,1.414l-20,20L31.293,31.292z"/>
	
		<linearGradient id="Path_17858_1_" gradientUnits="userSpaceOnUse" x1="-253.9932" y1="233.7695" x2="-253.9932" y2="232.7695" gradientTransform="matrix(14 0 0 -2 3607.9116 512.5391)">
		<stop  offset="0" style="stop-color:#00A9E0"/>
		<stop  offset="1" style="stop-color:#801C7D"/>
	</linearGradient>
	<path id="Path_17858" fill="url(#Path_17858_1_)" d="M45,45h14v2H45V45z"/>
	
		<linearGradient id="Path_17859_1_" gradientUnits="userSpaceOnUse" x1="-253.9932" y1="233.7695" x2="-253.9932" y2="232.7695" gradientTransform="matrix(14 0 0 -2 3607.9116 516.5391)">
		<stop  offset="0" style="stop-color:#00A9E0"/>
		<stop  offset="1" style="stop-color:#801C7D"/>
	</linearGradient>
	<path id="Path_17859" fill="url(#Path_17859_1_)" d="M45,49h14v2H45V49z"/>
	
		<linearGradient id="Path_17860_1_" gradientUnits="userSpaceOnUse" x1="-139.9507" y1="233.7695" x2="-139.9507" y2="232.7695" gradientTransform="matrix(2 0 0 -2 333.9014 520.5391)">
		<stop  offset="0" style="stop-color:#00A9E0"/>
		<stop  offset="1" style="stop-color:#801C7D"/>
	</linearGradient>
	<path id="Path_17860" fill="url(#Path_17860_1_)" d="M53,53h2v2h-2V53z"/>
	
		<linearGradient id="Path_17861_1_" gradientUnits="userSpaceOnUse" x1="-139.9507" y1="233.7695" x2="-139.9507" y2="232.7695" gradientTransform="matrix(2 0 0 -2 337.9014 520.5391)">
		<stop  offset="0" style="stop-color:#00A9E0"/>
		<stop  offset="1" style="stop-color:#801C7D"/>
	</linearGradient>
	<path id="Path_17861" fill="url(#Path_17861_1_)" d="M57,53h2v2h-2V53z"/>
	
		<linearGradient id="Path_17862_1_" gradientUnits="userSpaceOnUse" x1="-139.9507" y1="233.7695" x2="-139.9507" y2="232.7695" gradientTransform="matrix(2 0 0 -2 329.9014 520.5391)">
		<stop  offset="0" style="stop-color:#00A9E0"/>
		<stop  offset="1" style="stop-color:#801C7D"/>
	</linearGradient>
	<path id="Path_17862" fill="url(#Path_17862_1_)" d="M49,53h2v2h-2V53z"/>
</g>
</svg>
