<?xml version="1.0" encoding="utf-8"?>
<!-- Generator: Adobe Illustrator 16.0.0, SVG Export Plug-In . SVG Version: 6.00 Build 0)  -->
<!DOCTYPE svg PUBLIC "-//W3C//DTD SVG 1.1//EN" "http://www.w3.org/Graphics/SVG/1.1/DTD/svg11.dtd">
<svg version="1.1" id="Layer_1" xmlns="http://www.w3.org/2000/svg" xmlns:xlink="http://www.w3.org/1999/xlink" x="0px" y="0px"
	 width="63px" height="63px" viewBox="0 0 63 63" enable-background="new 0 0 63 63" xml:space="preserve">
<g id="arrest" transform="translate(-0.997 -1)">
	
		<linearGradient id="Path_18029_1_" gradientUnits="userSpaceOnUse" x1="-268.2872" y1="422.8271" x2="-268.2872" y2="421.8271" gradientTransform="matrix(63.0026 0 0 -63 16935.2871 26639.0625)">
		<stop  offset="0" style="stop-color:#00A9E0"/>
		<stop  offset="1" style="stop-color:#801C7D"/>
	</linearGradient>
	<path id="Path_18029" fill="url(#Path_18029_1_)" d="M64.001,32.5c-0.004-7.264-2.518-14.304-7.113-19.929V4.048
		c0-0.27-0.109-0.528-0.301-0.718L54.558,1.3C54.368,1.108,54.108,1,53.839,1h-2.033c-0.27,0-0.527,0.108-0.717,0.3l-2.033,2.03
		c-0.191,0.19-0.299,0.448-0.299,0.718v1.484c-9.996-6.043-22.521-6.043-32.517,0V4.048c0-0.27-0.108-0.528-0.3-0.718L13.912,1.3
		C13.722,1.108,13.463,1,13.193,1h-2.033c-0.27,0-0.528,0.108-0.718,0.3L8.411,3.33c-0.192,0.19-0.3,0.448-0.3,0.718v8.522
		C-2.777,25.88-0.968,45.466,12.176,56.555V64h2.034V41.645h12.19V64h2.032v-4.366c2.695,0.402,5.435,0.402,8.13,0V64h2.039V41.645
		H50.79V64h2.033v-7.443C59.919,50.583,64.011,41.776,64.001,32.5z M52.227,3.032h1.191l1.436,1.437v18.465l-5.799,5.8
		c-0.191,0.19-0.301,0.448-0.301,0.718v2.032H40.63v-9.741l6.516-6.517h1.191l1.438,1.437v1.191l-3.768,3.766l1.438,1.437
		l4.064-4.065c0.191-0.19,0.301-0.448,0.301-0.718v-2.032c0-0.27-0.109-0.528-0.301-0.718l-0.717-0.718V4.469L52.227,3.032z
		 M52.827,33.516v6.101H36.565v-6.101H52.827z M32.499,3.032c5.785-0.008,11.443,1.697,16.259,4.9v5.256h-2.033
		c-0.27,0-0.527,0.108-0.717,0.3L38.899,20.6c-0.191,0.19-0.299,0.448-0.299,0.718v10.166h-3.053c-0.561,0-1.016,0.455-1.016,1.016
		v1.016h-4.064V32.5c-0.001-0.561-0.455-1.016-1.016-1.016h-3.052V21.323c0-0.27-0.108-0.528-0.3-0.718l-7.113-7.113
		c-0.19-0.192-0.449-0.3-0.718-0.3h-2.027V7.937C21.058,4.732,26.715,3.025,32.499,3.032z M34.532,37.58h-4.064v-2.032h4.066
		L34.532,37.58z M28.432,33.516v6.1H12.177v-6.1H28.432z M10.144,4.469l1.437-1.437h1.191l1.437,1.437v10.336l-0.718,0.718
		c-0.192,0.19-0.3,0.448-0.3,0.718v2.032c0,0.27,0.108,0.528,0.3,0.718l4.065,4.065l1.437-1.437l-3.767-3.767v-1.189l1.437-1.437
		h1.191l6.517,6.517v9.741h-8.13v-2.032c0-0.27-0.108-0.528-0.3-0.718l-5.8-5.8L10.144,4.469z M12.177,47.734
		C7.444,41.419,5.912,33.264,8.029,25.66L6.07,25.114c-2.528,9.079-0.222,18.821,6.107,25.806v2.906
		C1.745,43.905,0.025,27.893,8.113,15.984v7.371c0,0.27,0.108,0.528,0.3,0.718l5.8,5.8v1.612h-3.052
		c-0.561,0-1.016,0.455-1.016,1.015v8.129c0,0.561,0.455,1.016,1.016,1.016h1.016V47.734z M36.563,57.573
		c-2.691,0.429-5.436,0.429-8.129,0V41.645h1.016c0.561,0,1.015-0.455,1.016-1.016v-1.016h4.065v1.016
		c0,0.561,0.455,1.016,1.016,1.016h1.016V57.573z M52.823,53.827v-2.906c6.328-6.984,8.635-16.727,6.107-25.807l-1.959,0.546
		c2.117,7.6,0.584,15.751-4.148,22.063v-6.078h1.016c0.561,0,1.016-0.455,1.016-1.016V32.5c0-0.561-0.453-1.016-1.016-1.016H50.79
		v-1.612l5.801-5.8c0.191-0.19,0.299-0.449,0.299-0.718v-7.37c8.088,11.91,6.367,27.922-4.064,37.843H52.823z"/>
	
		<linearGradient id="Path_18030_1_" gradientUnits="userSpaceOnUse" x1="-263.4688" y1="364.4395" x2="-263.4688" y2="363.4395" gradientTransform="matrix(29.4 0 0 -6.0247 7778.4165 2200.71)">
		<stop  offset="0" style="stop-color:#00A9E0"/>
		<stop  offset="1" style="stop-color:#801C7D"/>
	</linearGradient>
	<path id="Path_18030" fill="url(#Path_18030_1_)" d="M18.822,11.091c8.293-5.293,18.896-5.326,27.222-0.086l1.084-1.718
		c-8.992-5.661-20.444-5.625-29.4,0.092L18.822,11.091z"/>
</g>
</svg>
