<?xml version="1.0" encoding="utf-8"?>
<!-- Generator: Adobe Illustrator 16.0.0, SVG Export Plug-In . SVG Version: 6.00 Build 0)  -->
<!DOCTYPE svg PUBLIC "-//W3C//DTD SVG 1.1//EN" "http://www.w3.org/Graphics/SVG/1.1/DTD/svg11.dtd">
<svg version="1.1" id="Layer_1" xmlns="http://www.w3.org/2000/svg" xmlns:xlink="http://www.w3.org/1999/xlink" x="0px" y="0px"
	 width="63px" height="62.986px" viewBox="0 0 63 62.986" enable-background="new 0 0 63 62.986" xml:space="preserve">
<g id="target" transform="translate(0 -0.052)">
	<g id="Group_2585" transform="translate(8.903 15.546)">
		<g id="Group_2584">
			
				<linearGradient id="Path_17622_1_" gradientUnits="userSpaceOnUse" x1="-275.487" y1="402.4106" x2="-275.487" y2="401.4106" gradientTransform="matrix(38.5471 0 0 -38.5523 10639.5547 15513.8398)">
				<stop  offset="0" style="stop-color:#00A9E0"/>
				<stop  offset="1" style="stop-color:#801C7D"/>
			</linearGradient>
			<path id="Path_17622" fill="url(#Path_17622_1_)" d="M38.243,12.196c-0.303-0.763-1.166-1.137-1.93-0.835
				c-0.763,0.302-1.137,1.165-0.835,1.929l0,0c3.314,8.382-0.794,17.864-9.177,21.179C17.92,37.782,8.438,33.673,5.123,25.29
				C1.809,16.909,5.918,7.426,14.301,4.112c3.857-1.524,8.15-1.523,12.006,0.002c0.763,0.305,1.628-0.067,1.931-0.83
				c0.305-0.763-0.068-1.628-0.83-1.932l0,0C17.51-2.563,6.313,2.287,2.398,12.183s0.934,21.094,10.831,25.009
				c9.897,3.915,21.094-0.935,25.009-10.831C40.037,21.811,40.039,16.747,38.243,12.196z"/>
		</g>
	</g>
	<g id="Group_2587" transform="translate(0 6.641)">
		<g id="Group_2586">
			
				<linearGradient id="Path_17623_1_" gradientUnits="userSpaceOnUse" x1="-268.7686" y1="414.5031" x2="-268.7686" y2="413.5031" gradientTransform="matrix(56.3493 0 0 -56.3565 15174.1357 23359.9219)">
				<stop  offset="0" style="stop-color:#00A9E0"/>
				<stop  offset="1" style="stop-color:#801C7D"/>
			</linearGradient>
			<path id="Path_17623" fill="url(#Path_17623_1_)" d="M56.311,20.422c-0.227-0.789-1.049-1.246-1.838-1.02
				c-0.79,0.226-1.246,1.049-1.021,1.838c3.824,13.382-3.923,27.33-17.306,31.154C22.765,56.219,8.816,48.471,4.992,35.09
				C1.168,21.708,8.916,7.759,22.297,3.935c4.532-1.295,9.336-1.293,13.868,0.006c0.789,0.226,1.612-0.23,1.839-1.019
				c0.227-0.789-0.23-1.612-1.02-1.839C22.029-3.203,6.429,5.446,2.143,20.402c-4.287,14.956,4.363,30.556,19.319,34.842
				c14.956,4.287,30.555-4.362,34.842-19.319C57.756,30.859,57.758,25.488,56.311,20.422z"/>
		</g>
	</g>
	<g id="Group_2589" transform="translate(17.808 24.449)">
		<g id="Group_2588">
			
				<linearGradient id="Path_17624_1_" gradientUnits="userSpaceOnUse" x1="-278.4784" y1="384.8786" x2="-278.4784" y2="383.8786" gradientTransform="matrix(20.78 0 0 -20.78 5798.1729 7997.7622)">
				<stop  offset="0" style="stop-color:#00A9E0"/>
				<stop  offset="1" style="stop-color:#801C7D"/>
			</linearGradient>
			<path id="Path_17624" fill="url(#Path_17624_1_)" d="M21.74,9.48c-0.073-0.817-0.795-1.422-1.612-1.349
				c-0.818,0.073-1.422,0.795-1.349,1.612l0,0c0.019,0.212,0.028,0.428,0.028,0.644c-0.001,4.097-3.322,7.417-7.419,7.417
				c-4.097-0.001-7.417-3.322-7.417-7.419c0.001-4.098,3.322-7.418,7.419-7.417l0,0c0.229,0,0.452,0.01,0.665,0.029
				c0.817,0.076,1.542-0.525,1.617-1.343s-0.526-1.542-1.343-1.617c-0.3-0.027-0.619-0.042-0.938-0.042
				C5.652-0.006,0.998,4.644,0.996,10.383C0.994,16.12,5.644,20.774,11.382,20.776c5.738,0.002,10.392-4.647,10.394-10.386
				c0-0.001,0-0.002,0-0.003C21.776,10.084,21.767,9.779,21.74,9.48z"/>
		</g>
	</g>
	<g id="Group_2591" transform="translate(27.288 0.052)">
		<g id="Group_2590">
			
				<linearGradient id="Path_17625_1_" gradientUnits="userSpaceOnUse" x1="-293.3315" y1="417.1135" x2="-293.3315" y2="416.1135" gradientTransform="matrix(35.757 0 0 -35.7455 10507.5059 14909.8633)">
				<stop  offset="0" style="stop-color:#00A9E0"/>
				<stop  offset="1" style="stop-color:#801C7D"/>
			</linearGradient>
			<path id="Path_17625" fill="url(#Path_17625_1_)" d="M36.485,9.99c-0.459-1.113-1.544-1.839-2.748-1.836h-5.183V2.971
				C28.554,1.329,27.222-0.001,25.579,0c-0.787,0.001-1.543,0.314-2.1,0.871l-8.66,8.66c-0.838,0.834-1.309,1.969-1.305,3.151v8.411
				L1.432,33.17c-0.602,0.558-0.638,1.498-0.08,2.1c0.558,0.603,1.498,0.638,2.1,0.08c0.027-0.025,0.054-0.052,0.08-0.08
				l12.081-12.08h8.42c1.183,0.004,2.317-0.466,3.152-1.305l8.659-8.66C36.694,12.376,36.946,11.098,36.485,9.99z M16.485,12.68
				c-0.002-0.394,0.155-0.771,0.435-1.05l8.66-8.658v6.052l-9.095,9.096V12.68z M25.075,19.786
				c-0.279,0.277-0.656,0.433-1.049,0.435h-5.438l9.095-9.094h6.053L25.075,19.786z"/>
		</g>
	</g>
</g>
</svg>
