<?xml version="1.0" encoding="utf-8"?>
<!-- Generator: Adobe Illustrator 16.0.0, SVG Export Plug-In . SVG Version: 6.00 Build 0)  -->
<!DOCTYPE svg PUBLIC "-//W3C//DTD SVG 1.1//EN" "http://www.w3.org/Graphics/SVG/1.1/DTD/svg11.dtd">
<svg version="1.1" id="Layer_1" xmlns="http://www.w3.org/2000/svg" xmlns:xlink="http://www.w3.org/1999/xlink" x="0px" y="0px"
	 width="34.686px" height="63px" viewBox="0 0 34.686 63" enable-background="new 0 0 34.686 63" xml:space="preserve">
<g id="old-man" transform="translate(0 0)">
	
		<linearGradient id="Path_17422_1_" gradientUnits="userSpaceOnUse" x1="-279.5916" y1="421.8262" x2="-279.5916" y2="420.8262" gradientTransform="matrix(34.6851 0 0 -63.0012 9715.002 26575.5957)">
		<stop  offset="0.13" style="stop-color:#00A9ED"/>
		<stop  offset="1" style="stop-color:#65106B"/>
	</linearGradient>
	<path id="Path_17422" fill="url(#Path_17422_1_)" d="M32.779,47.63c-1.229-1.677-2.974-2.905-4.967-3.5L25.2,43.348
		c-0.451-0.137-0.861-0.385-1.191-0.721c-0.064-0.117-0.152-0.22-0.26-0.3c-0.361-0.488-0.557-1.079-0.558-1.687v-3.567
		c3.056-2.411,4.84-6.087,4.843-9.979v-0.58h0.5c2.457-0.013,4.441-2.012,4.435-4.47v-0.909c0.002-1.866-1.153-3.537-2.9-4.194
		c0.011-0.077,0.016-0.154,0.017-0.232V11.48c0-0.51-0.413-0.923-0.923-0.923s-0.924,0.413-0.924,0.923v5.184h-4.31
		c-1.734-0.011-3.134-1.423-3.129-3.157V6.669c-0.005-1.736,1.396-3.149,3.133-3.158h1.058c1.802,0.009,3.256,1.475,3.251,3.277
		v1.034c0,0.51,0.413,0.923,0.923,0.923s0.923-0.413,0.923-0.923V6.788c0.008-2.826-2.274-5.125-5.101-5.137h-1.058
		c-0.591,0-1.176,0.106-1.729,0.313c-4.238-2.711-9.69-2.608-13.822,0.261C7.656,1.846,6.852,1.649,6.036,1.65H4.979
		C2.218,1.662-0.011,3.909,0,6.67v6.837c-0.007,1.534,0.689,2.986,1.891,3.939c-0.345,0.656-0.524,1.385-0.523,2.126v1
		c-0.007,2.507,2.017,4.546,4.523,4.559h1c2.418-0.013,4.401-1.916,4.517-4.331H13c0.111,2.417,2.098,4.323,4.518,4.335h1
		c2.507-0.013,4.531-2.052,4.524-4.559v-1c0-0.353-0.041-0.705-0.122-1.048h3.271v7.059c0,0.007,0,0.013,0,0.019v1.491
		c-0.001,3.465-1.658,6.721-4.459,8.76c-2.589,1.877-5.885,2.491-8.977,1.672l-0.023-0.006c-2.052-0.547-3.893-1.697-5.286-3.299
		c-1.422-1.625-2.322-3.64-2.584-5.783c-0.019-0.152-0.034-0.259-0.048-0.347c-0.027-0.165-0.039-0.333-0.034-0.5
		c0-0.509-0.413-0.923-0.923-0.923s-0.923,0.414-0.923,0.923l0,0c-0.006,0.261,0.013,0.522,0.055,0.78
		c0.013,0.075,0.025,0.167,0.041,0.3c0.574,4.657,3.682,8.612,8.07,10.272V40.9c0.001,0.535-0.15,1.061-0.435,1.514l0,0
		c-0.069,0.07-0.127,0.15-0.171,0.238c-0.355,0.458-0.846,0.793-1.4,0.959l-1.749,0.523c-1.992,0.596-3.737,1.824-4.968,3.5
		c-1.245,1.678-1.915,3.712-1.908,5.801v7.651c0.003,1.054,0.855,1.909,1.91,1.913h19.89c0.514,0,0.931-0.416,0.931-0.93
		s-0.417-0.93-0.931-0.93H2.379c-0.034,0-0.063-0.028-0.063-0.063v-7.651c0.008-3.45,2.26-6.495,5.558-7.512l1.748-0.524
		c0.47-0.142,0.915-0.357,1.317-0.64c0.669,1.259,1.729,2.267,3.02,2.871c1.963,0.969,2.161,3.928,2.181,4.511
		c0,0.617,0.501,1.118,1.118,1.118s1.118-0.501,1.118-1.118l0,0c0.02-0.583,0.218-3.542,2.181-4.511
		c1.322-0.618,2.4-1.66,3.064-2.96c0.329,0.199,0.683,0.356,1.052,0.468l2.612,0.785c3.297,1.017,5.549,4.062,5.556,7.512v7.652
		c-0.001,0.034-0.028,0.062-0.063,0.062h-7.3c-0.514,0-0.93,0.417-0.93,0.93c0,0.514,0.416,0.931,0.93,0.931h7.3
		c1.058-0.005,1.91-0.865,1.907-1.922v-7.652c0.006-2.089-0.663-4.123-1.908-5.8L32.779,47.63z M20.446,3.089
		c-0.959,0.944-1.5,2.234-1.5,3.58v6.837c0,0.529,0.084,1.055,0.247,1.558c-0.226-0.035-0.454-0.052-0.683-0.052h-1
		c-2.264,0.01-4.174,1.685-4.48,3.928h-1.661c-0.307-2.243-2.217-3.918-4.48-3.928h-1c-0.375,0-0.749,0.046-1.113,0.14v-2.5
		C4.77,9.295,6.326,6.126,8.986,4.078h0.007c3.296-2.542,7.772-2.927,11.453-0.984V3.089z M1.846,6.67
		C1.84,4.933,3.242,3.52,4.979,3.511h1.058c0.235,0,0.47,0.026,0.699,0.076C6.304,4.01,5.904,4.463,5.536,4.943
		c-1.694,2.208-2.609,4.917-2.601,7.7V15.9c-0.694-0.6-1.092-1.474-1.088-2.392L1.846,6.67z M9.566,20.577
		c0.005,1.484-1.193,2.692-2.678,2.7h-1c-1.484-0.007-2.684-1.215-2.679-2.7v-1c-0.005-1.485,1.194-2.693,2.679-2.7h1
		c1.484,0.008,2.683,1.216,2.678,2.7V20.577z M21.193,20.577c0.005,1.484-1.193,2.692-2.678,2.7h-1
		c-1.484-0.007-2.684-1.215-2.679-2.7v-1c-0.005-1.485,1.194-2.693,2.679-2.7h1c1.484,0.008,2.683,1.216,2.678,2.7V20.577z
		 M28.281,18.525h0.249c1.437,0.005,2.596,1.174,2.591,2.61l0,0v0.909c0.005,1.436-1.154,2.604-2.59,2.61c-0.001,0-0.001,0-0.001,0
		h-0.5v-6.129H28.281z M19.745,45.952c-1.133,0.587-2.017,1.563-2.488,2.748c-0.471-1.188-1.354-2.165-2.488-2.752
		c-1.159-0.515-2.052-1.491-2.46-2.692c0.418-0.719,0.638-1.534,0.638-2.365v-1.41c2.854,0.595,5.827,0.17,8.4-1.199v2.357
		c0,0.959,0.292,1.894,0.838,2.682c-0.423,1.172-1.304,2.123-2.439,2.635V45.952z"/>
	
		<linearGradient id="Path_17423_1_" gradientUnits="userSpaceOnUse" x1="-166.6536" y1="259.7646" x2="-166.6536" y2="258.7646" gradientTransform="matrix(2.312 0 0 -2.312 392.8445 619.5013)">
		<stop  offset="0.13" style="stop-color:#00A9ED"/>
		<stop  offset="1" style="stop-color:#65106B"/>
	</linearGradient>
	<path id="Path_17423" fill="url(#Path_17423_1_)" d="M8.701,20.074c-0.006-0.639-0.527-1.152-1.165-1.147
		c-0.639,0.005-1.152,0.526-1.147,1.165c0.005,0.636,0.521,1.148,1.157,1.147C8.187,21.236,8.703,20.715,8.701,20.074L8.701,20.074z
		"/>
	
		<linearGradient id="Path_17424_1_" gradientUnits="userSpaceOnUse" x1="-166.6545" y1="259.7637" x2="-166.6545" y2="258.7637" gradientTransform="matrix(2.312 0 0 -2.312 402.8182 619.5013)">
		<stop  offset="0.13" style="stop-color:#00A9ED"/>
		<stop  offset="1" style="stop-color:#65106B"/>
	</linearGradient>
	<path id="Path_17424" fill="url(#Path_17424_1_)" d="M18.674,20.074c-0.005-0.639-0.526-1.152-1.165-1.147
		c-0.639,0.005-1.152,0.526-1.147,1.165c0.006,0.636,0.522,1.148,1.157,1.147C18.159,21.236,18.677,20.715,18.674,20.074
		L18.674,20.074z"/>
	
		<linearGradient id="Path_17425_1_" gradientUnits="userSpaceOnUse" x1="-250.3" y1="327.4922" x2="-250.3" y2="326.4922" gradientTransform="matrix(7.4887 0 0 -3.8699 1888.334 1296.0127)">
		<stop  offset="0.13" style="stop-color:#00A9ED"/>
		<stop  offset="1" style="stop-color:#65106B"/>
	</linearGradient>
	<path id="Path_17425" fill="url(#Path_17425_1_)" d="M12.972,32.518c0.635,0,1.266-0.112,1.861-0.332
		c1.073-0.405,1.996-1.128,2.646-2.074c0.294-0.423,0.189-1.005-0.234-1.3l0,0c-0.416-0.29-0.988-0.188-1.278,0.229
		c-0.002,0.002-0.004,0.005-0.006,0.008c-0.989,1.474-2.896,2.02-4.516,1.293c-0.466-0.201-1.008,0.014-1.209,0.48
		c-0.001,0.002-0.002,0.004-0.003,0.006c-0.202,0.471,0.014,1.017,0.483,1.222c0.714,0.305,1.481,0.462,2.257,0.464L12.972,32.518z"
		/>
	
		<linearGradient id="Path_17426_1_" gradientUnits="userSpaceOnUse" x1="-166.6545" y1="259.7637" x2="-166.6545" y2="258.7637" gradientTransform="matrix(2.312 0 0 -2.312 402.3651 656.4987)">
		<stop  offset="0.13" style="stop-color:#00A9ED"/>
		<stop  offset="1" style="stop-color:#65106B"/>
	</linearGradient>
	<path id="Path_17426" fill="url(#Path_17426_1_)" d="M18.22,57.077c-0.005-0.639-0.526-1.151-1.165-1.147
		c-0.639,0.006-1.151,0.527-1.146,1.166c0.005,0.635,0.521,1.146,1.156,1.146C17.705,58.239,18.223,57.718,18.22,57.077
		L18.22,57.077z"/>
</g>
</svg>
