<?xml version="1.0" encoding="utf-8"?>
<!-- Generator: Adobe Illustrator 16.0.0, SVG Export Plug-In . SVG Version: 6.00 Build 0)  -->
<!DOCTYPE svg PUBLIC "-//W3C//DTD SVG 1.1//EN" "http://www.w3.org/Graphics/SVG/1.1/DTD/svg11.dtd">
<svg version="1.1" id="Layer_1" xmlns="http://www.w3.org/2000/svg" xmlns:xlink="http://www.w3.org/1999/xlink" x="0px" y="0px"
	 width="62.667px" height="62.667px" viewBox="0 0 62.667 62.667" enable-background="new 0 0 62.667 62.667" xml:space="preserve">
<g id="Group_2745" transform="translate(-528.825 -8717.999)">
	
		<linearGradient id="Path_17934_1_" gradientUnits="userSpaceOnUse" x1="259.3997" y1="9139.623" x2="259.3997" y2="9138.623" gradientTransform="matrix(62.668 0 0 -62.668 -15695.876 581479.9375)">
		<stop  offset="0" style="stop-color:#00A9E0"/>
		<stop  offset="1" style="stop-color:#801C7D"/>
	</linearGradient>
	<path id="Path_17934" fill="url(#Path_17934_1_)" d="M582.317,8727.176c-12.238-12.236-32.077-12.236-44.313,0
		c-12.237,12.237-12.237,32.076,0,44.314c12.236,12.236,32.075,12.236,44.313,0C594.553,8759.252,594.553,8739.413,582.317,8727.176
		L582.317,8727.176z M560.159,8778.17c-15.926,0-28.837-12.912-28.837-28.838s12.911-28.836,28.837-28.836
		c15.925,0,28.837,12.91,28.837,28.836l0,0C588.996,8765.258,576.084,8778.17,560.159,8778.17z"/>
	
		<linearGradient id="Path_17935_1_" gradientUnits="userSpaceOnUse" x1="260.4813" y1="9138.04" x2="260.4813" y2="9137.04" gradientTransform="matrix(49.934 0 0 -49.934 -12446.7002 465023.2188)">
		<stop  offset="0" style="stop-color:#00A9E0"/>
		<stop  offset="1" style="stop-color:#801C7D"/>
	</linearGradient>
	<path id="Path_17935" fill="url(#Path_17935_1_)" d="M560.16,8724.365c-13.789,0-24.967,11.179-24.967,24.967
		c0,13.789,11.178,24.967,24.967,24.967c13.79,0,24.967-11.178,24.967-24.967C585.127,8735.544,573.95,8724.365,560.16,8724.365
		L560.16,8724.365z M560.16,8771.803c-12.41,0-22.47-10.061-22.47-22.471c0-12.409,10.061-22.469,22.47-22.469
		c12.409,0,22.469,10.06,22.469,22.469C582.629,8761.742,572.569,8771.803,560.16,8771.803L560.16,8771.803z"/>
	
		<linearGradient id="Path_17936_1_" gradientUnits="userSpaceOnUse" x1="263.5975" y1="9128.9639" x2="263.5975" y2="9127.9648" gradientTransform="matrix(31.4911 0 0 -23.0693 -7739.4165 219336.6875)">
		<stop  offset="0" style="stop-color:#00A9E0"/>
		<stop  offset="1" style="stop-color:#801C7D"/>
	</linearGradient>
	<path id="Path_17936" fill="url(#Path_17936_1_)" d="M577.276,8742.583c-0.094-0.364-0.346-0.668-0.689-0.825
		c-3.225-1.4-6.594-2.438-10.049-3.092c-2.896-0.589-5.869-0.713-8.807-0.369c-3.046,0.322-5.899,1.646-8.111,3.768
		c-3.669,3.671-4.336,9.383-1.61,13.799c-0.767,1.07-1.453,2.197-2.053,3.369c-0.311,0.615-0.063,1.365,0.552,1.676
		c0.615,0.311,1.366,0.064,1.677-0.551c0.431-0.846,0.914-1.662,1.446-2.449c4.375,4.361,11.456,4.357,15.825-0.012
		c3.906-3.906,11.299-13.842,11.611-14.264C577.291,8743.332,577.367,8742.947,577.276,8742.583z M563.692,8756.137
		c-3.398,3.398-8.908,3.398-12.306,0c-3.398-3.398-3.398-8.908,0-12.307c2.423-2.423,5.849-3.236,9.364-3.236
		c3.711,0.102,7.387,0.766,10.9,1.967c-3.336,0.682-6.598,1.686-9.738,3c-0.631,0.279-0.918,1.016-0.639,1.646
		s1.016,0.916,1.646,0.639c3.264-1.347,6.656-2.357,10.125-3.018C570.121,8748.754,567,8752.529,563.692,8756.137L563.692,8756.137z
		"/>
	
		<linearGradient id="Path_17937_1_" gradientUnits="userSpaceOnUse" x1="321.8201" y1="9040.5615" x2="321.8201" y2="9039.5615" gradientTransform="matrix(3.9868 0 0 -3.6964 -724.6724 42165.1523)">
		<stop  offset="0" style="stop-color:#00A9E0"/>
		<stop  offset="1" style="stop-color:#801C7D"/>
	</linearGradient>
	<path id="Path_17937" fill="url(#Path_17937_1_)" d="M558.431,8747.441c-0.601,0.402-1.166,0.857-1.689,1.357
		c-0.495,0.48-0.507,1.27-0.027,1.766c0.48,0.494,1.27,0.506,1.765,0.025c0.419-0.398,0.872-0.762,1.353-1.084
		c0.559-0.404,0.684-1.184,0.28-1.742c-0.387-0.535-1.123-0.676-1.68-0.322H558.431z"/>
	
		<linearGradient id="Path_17938_1_" gradientUnits="userSpaceOnUse" x1="296.0901" y1="9012.1328" x2="296.0901" y2="9011.1338" gradientTransform="matrix(6.493 0 0 -2.9105 -1360.3459 34958.2109)">
		<stop  offset="0" style="stop-color:#00A9E0"/>
		<stop  offset="1" style="stop-color:#801C7D"/>
	</linearGradient>
	<path id="Path_17938" fill="url(#Path_17938_1_)" d="M560.159,8731.111c1.255-0.001,2.509,0.128,3.74,0.383
		c0.676,0.141,1.336-0.292,1.477-0.967s-0.293-1.336-0.967-1.477l0,0c-1.398-0.291-2.822-0.439-4.25-0.439
		c-0.69,0-1.25,0.559-1.25,1.25C558.909,8730.551,559.469,8731.111,560.159,8731.111L560.159,8731.111z"/>
	
		<linearGradient id="Path_17939_1_" gradientUnits="userSpaceOnUse" x1="271.1634" y1="9127.4971" x2="271.1634" y2="9126.4971" gradientTransform="matrix(16.6051 0 0 -21.2235 -3954.9626 202446.9688)">
		<stop  offset="0" style="stop-color:#00A9E0"/>
		<stop  offset="1" style="stop-color:#801C7D"/>
	</linearGradient>
	<path id="Path_17939" fill="url(#Path_17939_1_)" d="M555.137,8731.809c0.663-0.19,1.046-0.881,0.856-1.545
		c-0.189-0.662-0.881-1.045-1.543-0.855c-4.277,1.237-8.046,3.811-10.756,7.343c-2.774,3.606-4.271,8.032-4.257,12.582
		c0,0.69,0.56,1.249,1.25,1.249c0.69,0,1.25-0.559,1.25-1.249C541.959,8741.209,547.335,8734.072,555.137,8731.809z"/>
</g>
</svg>
