<?xml version="1.0" encoding="utf-8"?>
<!-- Generator: Adobe Illustrator 16.0.0, SVG Export Plug-In . SVG Version: 6.00 Build 0)  -->
<!DOCTYPE svg PUBLIC "-//W3C//DTD SVG 1.1//EN" "http://www.w3.org/Graphics/SVG/1.1/DTD/svg11.dtd">
<svg version="1.1" id="Layer_1" xmlns="http://www.w3.org/2000/svg" xmlns:xlink="http://www.w3.org/1999/xlink" x="0px" y="0px"
	 width="52px" height="62px" viewBox="0 0 52 62" enable-background="new 0 0 52 62" xml:space="preserve">
<g id="tax" transform="translate(-6 -1)">
	
		<linearGradient id="Path_17408_1_" gradientUnits="userSpaceOnUse" x1="-267.7134" y1="422.1382" x2="-267.7134" y2="421.1382" gradientTransform="matrix(51.468 0 0 -61.37 13811.4053 25908.6367)">
		<stop  offset="0" style="stop-color:#6BC4F0"/>
		<stop  offset="1" style="stop-color:#801C7D"/>
	</linearGradient>
	<path id="Path_17408" fill="url(#Path_17408_1_)" d="M7,2v47.1c0.002,0.625,0.139,1.242,0.4,1.811
		c0.217,0.475,0.516,0.906,0.883,1.275l9.9,9.9c0.371,0.369,0.804,0.668,1.28,0.883c0.566,0.264,1.182,0.398,1.805,0.4h37.199V2H7z
		 M10.379,51.483h8.5v8.5L10.379,51.483z M56.479,61.383H21.261c-0.137-0.004-0.272-0.018-0.406-0.045V49.5H9.024
		c-0.027-0.135-0.042-0.27-0.045-0.406V3.979h47.5V61.383z"/>
	
		<linearGradient id="Path_17409_1_" gradientUnits="userSpaceOnUse" x1="-245.5146" y1="231.1978" x2="-245.5146" y2="230.1987" gradientTransform="matrix(9.9 0 0 -1.979 2448.4858 490.2217)">
		<stop  offset="0" style="stop-color:#6BC4F0"/>
		<stop  offset="1" style="stop-color:#801C7D"/>
	</linearGradient>
	<path id="Path_17409" fill="url(#Path_17409_1_)" d="M12.938,32.68h9.9v1.979h-9.9V32.68z"/>
	
		<linearGradient id="Path_17410_1_" gradientUnits="userSpaceOnUse" x1="-266.1265" y1="231.1978" x2="-266.1265" y2="230.1978" gradientTransform="matrix(39.586 0 0 -1.979 10567.6143 486.2647)">
		<stop  offset="0" style="stop-color:#6BC4F0"/>
		<stop  offset="1" style="stop-color:#801C7D"/>
	</linearGradient>
	<path id="Path_17410" fill="url(#Path_17410_1_)" d="M12.938,28.722h39.585V30.7H12.938V28.722z"/>
	
		<linearGradient id="Path_17411_1_" gradientUnits="userSpaceOnUse" x1="-227.1763" y1="231.1997" x2="-227.1763" y2="230.1997" gradientTransform="matrix(5.938 0 0 -1.979 1364.8828 481.3155)">
		<stop  offset="0" style="stop-color:#6BC4F0"/>
		<stop  offset="1" style="stop-color:#801C7D"/>
	</linearGradient>
	<path id="Path_17411" fill="url(#Path_17411_1_)" d="M12.938,23.772h5.938v1.979h-5.938V23.772z"/>
	
		<linearGradient id="Path_17412_1_" gradientUnits="userSpaceOnUse" x1="-263.8359" y1="231.1978" x2="-263.8359" y2="230.1978" gradientTransform="matrix(29.69 0 0 -1.979 7870.9492 481.3155)">
		<stop  offset="0" style="stop-color:#6BC4F0"/>
		<stop  offset="1" style="stop-color:#801C7D"/>
	</linearGradient>
	<path id="Path_17412" fill="url(#Path_17412_1_)" d="M22.834,23.772h29.689v1.979H22.834V23.772z"/>
	
		<linearGradient id="Path_17413_1_" gradientUnits="userSpaceOnUse" x1="-238.6528" y1="395.6216" x2="-238.6528" y2="394.6216" gradientTransform="matrix(7.922 0 0 -11.876 1935.2141 4706.3486)">
		<stop  offset="0" style="stop-color:#6BC4F0"/>
		<stop  offset="1" style="stop-color:#801C7D"/>
	</linearGradient>
	<path id="Path_17413" fill="url(#Path_17413_1_)" d="M42.627,18.164l1.979-2.638l1.979,2.638v1.65h1.98v-2.31l-2.717-3.629
		l2.723-3.629V7.938h-1.984v1.649l-1.979,2.639l-1.98-2.639V7.938h-1.979v2.309l2.721,3.629l-2.721,3.629v2.31h1.979V18.164z"/>
	
		<linearGradient id="Path_17414_1_" gradientUnits="userSpaceOnUse" x1="-238.6304" y1="395.6304" x2="-238.6304" y2="394.6304" gradientTransform="matrix(7.917 0 0 -11.879 1921.9714 4707.6343)">
		<stop  offset="0" style="stop-color:#6BC4F0"/>
		<stop  offset="1" style="stop-color:#801C7D"/>
	</linearGradient>
	<path id="Path_17414" fill="url(#Path_17414_1_)" d="M30.751,17.838h3.958v1.979h1.98v-2.973l-2.197-8.906h-3.52l-2.165,8.666
		l-0.035,3.21h1.979V17.838z M32.951,9.921l1.484,5.938h-3.4l1.484-5.938H32.951z"/>
	
		<linearGradient id="Path_17415_1_" gradientUnits="userSpaceOnUse" x1="-245.5146" y1="395.6226" x2="-245.5146" y2="394.6226" gradientTransform="matrix(9.9 0 0 -11.876 2452.4468 4706.3486)">
		<stop  offset="0" style="stop-color:#6BC4F0"/>
		<stop  offset="1" style="stop-color:#801C7D"/>
	</linearGradient>
	<path id="Path_17415" fill="url(#Path_17415_1_)" d="M20.856,19.814h1.979v-9.9h3.962V7.938h-9.9v1.979h3.959V19.814z"/>
	
		<linearGradient id="Path_17416_1_" gradientUnits="userSpaceOnUse" x1="-264.4082" y1="412.0708" x2="-264.4082" y2="411.0718" gradientTransform="matrix(31.668 0 0 -23.7681 8409.9482 9827.8242)">
		<stop  offset="0" style="stop-color:#6BC4F0"/>
		<stop  offset="1" style="stop-color:#801C7D"/>
	</linearGradient>
	<path id="Path_17416" fill="url(#Path_17416_1_)" d="M36.689,57.42c4.975,0.193,9.414-3.1,10.672-7.916h5.162v-7.918h-5.16
		c-1.26-4.816-5.699-8.109-10.674-7.918c-4.975-0.191-9.414,3.102-10.673,7.918h-5.161v7.916h5.161
		C27.275,54.321,31.714,57.614,36.689,57.42z M36.689,55.442c-3.883,0.195-7.412-2.238-8.607-5.938h2.086
		c1.873,3.602,6.311,5.002,9.912,3.129c1.34-0.695,2.434-1.789,3.129-3.129h2.086C44.1,53.204,40.57,55.637,36.689,55.442z
		 M32.542,49.504h8.292c-1.852,2.289-5.209,2.645-7.5,0.793C33.043,50.061,32.777,49.795,32.542,49.504z M36.689,35.649
		c3.881-0.195,7.41,2.24,8.605,5.938h-2.086c-1.871-3.602-6.311-5.002-9.912-3.129c-1.339,0.697-2.432,1.789-3.129,3.129h-2.086
		C29.277,37.889,32.807,35.454,36.689,35.649z M40.836,41.586h-8.293c1.852-2.289,5.209-2.645,7.5-0.791
		C40.334,41.03,40.6,41.295,40.836,41.586z M22.836,43.567h27.709v3.959H22.834L22.836,43.567z"/>
</g>
</svg>
