<?xml version="1.0" encoding="utf-8"?>
<!-- Generator: Adobe Illustrator 16.0.0, SVG Export Plug-In . SVG Version: 6.00 Build 0)  -->
<!DOCTYPE svg PUBLIC "-//W3C//DTD SVG 1.1//EN" "http://www.w3.org/Graphics/SVG/1.1/DTD/svg11.dtd">
<svg version="1.1" id="Layer_1" xmlns="http://www.w3.org/2000/svg" xmlns:xlink="http://www.w3.org/1999/xlink" x="0px" y="0px"
	 width="63px" height="64.914px" viewBox="0 0 63 64.914" enable-background="new 0 0 63 64.914" xml:space="preserve">
<g id="Group_2810" transform="translate(-396.995 -10284.953)">
	<g id="money" transform="translate(415.944 10306.11)">
		
			<linearGradient id="Path_18023_1_" gradientUnits="userSpaceOnUse" x1="-284.4881" y1="396.4297" x2="-284.4881" y2="395.4297" gradientTransform="matrix(33.362 0 0 -34.1219 9507.7686 13536.5254)">
			<stop  offset="0" style="stop-color:#00A9E0"/>
			<stop  offset="1" style="stop-color:#801C7D"/>
		</linearGradient>
		<path id="Path_18023" fill="url(#Path_18023_1_)" d="M32.718,32.835H1.293V10.922h5.09c0.357,0,0.646-0.289,0.646-0.646
			c0-0.357-0.29-0.646-0.646-0.646l0,0H0.646C0.289,9.629,0,9.918,0,10.275l0,0v23.2c0,0.357,0.289,0.646,0.646,0.646h5.621
			l2.408,5.191c0.152,0.322,0.534,0.461,0.858,0.314l2.357-1.092l7.147,5.1c0.291,0.201,0.69,0.135,0.9-0.152l6.678-9.359h6.101
			c0.356,0,0.646-0.289,0.646-0.646s-0.289-0.646-0.646-0.646L32.718,32.835z M7.692,34.128h10.642l-8.759,4.061L7.692,34.128z
			 M19.262,42.212l-6.021-4.301l8.166-3.787h3.623L19.262,42.212z"/>
		
			<linearGradient id="Path_18024_1_" gradientUnits="userSpaceOnUse" x1="-285.0174" y1="396.4307" x2="-285.0174" y2="395.4316" gradientTransform="matrix(35.7385 0 0 -34.1279 10212.2842 13529.3457)">
			<stop  offset="0" style="stop-color:#00A9E0"/>
			<stop  offset="1" style="stop-color:#801C7D"/>
		</linearGradient>
		<path id="Path_18024" fill="url(#Path_18024_1_)" d="M43.408,9.629h-5.621L35.38,4.438c-0.153-0.321-0.534-0.46-0.858-0.314
			l-2.357,1.093l-7.146-5.1c-0.291-0.203-0.69-0.136-0.9,0.151L17.44,9.628H8.967c-0.357,0-0.646,0.29-0.646,0.646
			c0,0.357,0.29,0.646,0.646,0.646l0,0h33.8v21.914h-7.46c-0.357,0-0.646,0.289-0.646,0.646s0.289,0.646,0.646,0.646l0,0h8.105
			c0.357,0,0.646-0.289,0.646-0.646v-23.2c0.004-0.357-0.283-0.649-0.64-0.652C43.416,9.629,43.412,9.629,43.408,9.629L43.408,9.629
			z M36.363,9.629H25.722l8.759-4.063L36.363,9.629z M24.793,1.545l6.021,4.3l-8.162,3.784H19.03L24.793,1.545z"/>
		
			<linearGradient id="Path_18025_1_" gradientUnits="userSpaceOnUse" x1="-270.9187" y1="376.3467" x2="-270.9187" y2="375.3467" gradientTransform="matrix(12.336 0 0 -12.336 3364.0774 4658.3311)">
			<stop  offset="0" style="stop-color:#00A9E0"/>
			<stop  offset="1" style="stop-color:#801C7D"/>
		</linearGradient>
		<path id="Path_18025" fill="url(#Path_18025_1_)" d="M22.028,28.056c3.406,0,6.168-2.762,6.168-6.168s-2.762-6.168-6.168-6.168
			s-6.168,2.762-6.168,6.168l0,0C15.86,25.294,18.621,28.056,22.028,28.056z M22.028,17.013c2.693,0,4.875,2.182,4.875,4.875
			c0,2.691-2.182,4.875-4.875,4.875c-2.691,0-4.875-2.184-4.875-4.875C17.153,19.194,19.336,17.013,22.028,17.013L22.028,17.013z"/>
		
			<linearGradient id="Path_18026_1_" gradientUnits="userSpaceOnUse" x1="-285.3933" y1="386.4404" x2="-285.3933" y2="385.4404" gradientTransform="matrix(37.64 0 0 -18.166 10764.2178 7032.8735)">
			<stop  offset="0" style="stop-color:#00A9E0"/>
			<stop  offset="1" style="stop-color:#801C7D"/>
		</linearGradient>
		<path id="Path_18026" fill="url(#Path_18026_1_)" d="M16.557,30.958h19.688c0.356,0,0.646-0.289,0.646-0.646
			c0.133-1.756,1.553-3.139,3.312-3.223c0.357,0,0.646-0.289,0.646-0.646v-9.131c0-0.357-0.289-0.646-0.646-0.646
			c-1.759-0.086-3.179-1.467-3.312-3.225c0-0.355-0.289-0.645-0.646-0.645H7.461c-0.357,0-0.646,0.289-0.646,0.645
			c0.03,1.695-1.27,3.119-2.961,3.242c-0.357,0-0.646,0.289-0.646,0.646v9.1c0,0.355,0.289,0.646,0.646,0.646
			c1.691,0.121,2.991,1.545,2.961,3.24c0,0.357,0.289,0.646,0.646,0.646h6.511c0.356,0,0.646-0.291,0.646-0.646
			c0-0.357-0.29-0.646-0.646-0.646H8.059c-0.14-0.924-0.548-1.787-1.173-2.48c-0.62-0.707-1.46-1.186-2.386-1.354v-7.912
			c0.925-0.17,1.765-0.646,2.384-1.355c0.625-0.693,1.033-1.555,1.173-2.479h27.6c0.412,1.941,1.95,3.445,3.9,3.814v7.947
			c-1.95,0.369-3.488,1.873-3.9,3.816h-19.1c-0.357,0-0.646,0.289-0.646,0.646c0,0.355,0.289,0.646,0.646,0.646l0,0V30.958z"/>
	</g>
	<g id="gun" transform="translate(397 10284.953)">
		<g id="Group_2807">
			<g id="Group_2806">
				
					<linearGradient id="Path_18027_1_" gradientUnits="userSpaceOnUse" x1="-268.0939" y1="419.8135" x2="-268.0939" y2="418.8135" gradientTransform="matrix(49.0875 0 0 -42.4318 13184.6279 17813.4141)">
					<stop  offset="0" style="stop-color:#00A9E0"/>
					<stop  offset="1" style="stop-color:#801C7D"/>
				</linearGradient>
				<path id="Path_18027" fill="url(#Path_18027_1_)" d="M46.64,3.98V2.475C46.651,1.119,45.56,0.011,44.205,0
					c-0.113-0.001-0.226,0.006-0.338,0.021c-3.56,0.483-5.728,1.865-6.136,3.943H2.46C1.105,3.961,0.004,5.057,0.001,6.413
					c0,0.002,0,0.004,0,0.006v9.834c0,1.334,1.636,1.882,2.34,2.111l0.5,0.155c0.278,0.083,0.551,0.182,0.818,0.295
					c0.249,0.1,0.475,0.25,0.663,0.442c0.365,0.426,0.595,0.951,0.658,1.508c0.157,1.362-0.007,2.742-0.479,4.03
					c-0.524,1.42-1.175,2.789-1.947,4.091c-0.237,0.425-0.466,0.818-0.687,1.268c-0.806,1.644-1.866,3.602-1.866,5.736
					c-0.078,2.135,0.683,4.217,2.119,5.799c0.464,0.479,1.102,0.746,1.767,0.744h9.466c0.937,0.01,1.793-0.527,2.193-1.373
					c0.54-1.211,0.221-2.814-0.949-4.77c-1.4-2.332,0.892-6.244,3.493-9.131c0.153-0.17,0.371-0.268,0.6-0.27h7.02
					c1.091,0,2.051-0.72,2.356-1.767c0.565-1.931,2.25-6.414,5.473-6.414h13.09c1.355,0,2.454-1.099,2.454-2.454V6.435
					c0-1.353-1.095-2.451-2.447-2.454H46.64z M44.079,1.664c0.447-0.055,0.854,0.263,0.91,0.71c0.004,0.036,0.006,0.072,0.006,0.108
					v1.5H39.44C40.095,2.442,42.55,1.87,44.079,1.664z M22.914,5.617H33.55V8.07c0,0.452-0.367,0.818-0.818,0.818l0,0h-9
					c-0.452,0-0.818-0.366-0.818-0.818l0,0L22.914,5.617L22.914,5.617z M47.458,13.797h-18c-0.452,0-0.818,0.366-0.818,0.818
					c0,0.452,0.366,0.818,0.818,0.818h18v0.818c0,0.452-0.366,0.818-0.818,0.818l0,0H33.55c-4.329,0-6.358,5.31-7.029,7.592
					c-0.105,0.361-0.442,0.604-0.818,0.589h-6.986c-0.697,0.001-1.36,0.299-1.824,0.818c-1.865,2.07-5.956,7.281-3.682,11.07
					c1.162,1.93,1.039,2.871,0.859,3.273c-0.139,0.262-0.416,0.42-0.712,0.408H3.892c-0.234,0.002-0.458-0.096-0.614-0.27
					c-1.134-1.281-1.721-2.955-1.636-4.664c0.171-1.764,0.757-3.463,1.71-4.958c0.221-0.417,0.45-0.818,0.679-1.244
					c0.823-1.389,1.516-2.852,2.07-4.368c0.559-1.532,0.744-3.176,0.54-4.794c-0.11-0.889-0.49-1.722-1.088-2.389
					c-0.34-0.352-0.748-0.63-1.2-0.818c-0.35-0.142-0.708-0.262-1.072-0.36l-0.458-0.139c-0.425-0.111-0.825-0.303-1.178-0.565
					v-0.818h16.033c0.452,0,0.818-0.366,0.818-0.818c0-0.452-0.366-0.818-0.818-0.818H1.642V6.435c0-0.452,0.366-0.818,0.818-0.818
					l0,0h18.817V8.07c0,1.355,1.099,2.454,2.454,2.454h9c1.355,0,2.453-1.099,2.453-2.454V5.617H46.64
					c0.452,0,0.818,0.366,0.818,0.818l0,0V13.797z"/>
			</g>
		</g>
		<g id="Group_2809" transform="translate(16.368 17.071)">
			<g id="Group_2808">
				
					<linearGradient id="Path_18028_1_" gradientUnits="userSpaceOnUse" x1="-264.7461" y1="352.6312" x2="-264.7461" y2="351.6312" gradientTransform="matrix(10.5706 0 0 -6.548 2803.8003 2309.021)">
					<stop  offset="0" style="stop-color:#00A9E0"/>
					<stop  offset="1" style="stop-color:#801C7D"/>
				</linearGradient>
				<path id="Path_18028" fill="url(#Path_18028_1_)" d="M10.349,0.818C10.057,0.312,9.518,0,8.934-0.001h-7.3
					c-0.903,0-1.636,0.733-1.636,1.636l0,0v3.276c0,0.904,0.732,1.636,1.636,1.636l0,0h5.932c0.725,0.001,1.365-0.475,1.571-1.17
					C9.425,4.36,9.832,3.38,10.348,2.456C10.642,1.95,10.642,1.325,10.349,0.818z M8.934,1.636C8.349,2.669,7.888,3.767,7.56,4.909
					H1.636V1.636h7.306l0.7,0.417L8.934,1.636z"/>
			</g>
		</g>
	</g>
</g>
</svg>
