<svg xmlns="http://www.w3.org/2000/svg" xmlns:xlink="http://www.w3.org/1999/xlink" width="71.999" height="62.4" viewBox="0 0 71.999 62.4">
  <defs>
    <linearGradient id="linear-gradient" x1="0.5" x2="0.5" y2="1" gradientUnits="objectBoundingBox">
      <stop offset="0.13" stop-color="#00a9ed"/>
      <stop offset="1" stop-color="#65106b"/>
    </linearGradient>
  </defs>
  <path id="Union_36" data-name="Union 36" d="M-2052.2,20180.4a1.2,1.2,0,0,1-1.2-1.2v-2.4h-22.8a1.2,1.2,0,0,1-1.2-1.2v-28.8h-2.4a1.186,1.186,0,0,1-1.008-.547,1.2,1.2,0,0,1-.086-1.145l6-13.2a1.2,1.2,0,0,1,1.089-.705h15.6v2.4h-14.829l-4.908,10.8h18.537v-4.8h2.4v34.8h3.6v-3.6a1.2,1.2,0,0,1-1.2-1.2v-25.2h2.4v4.8h14.4v-4.8h2.4v25.2a1.2,1.2,0,0,1-1.2,1.2v3.6h3.6v-34.8h2.4v4.8h18.536l-4.908-10.8H-2031.8v-2.4h15.6a1.2,1.2,0,0,1,1.089.705l6,13.2a1.2,1.2,0,0,1-.086,1.145,1.186,1.186,0,0,1-1.008.547h-2.4v28.8a1.2,1.2,0,0,1-1.2,1.2h-22.8v2.4a1.2,1.2,0,0,1-1.2,1.2Zm1.2-2.4h12v-2.4h-12Zm20.4-3.6h15.6v-27.6h-15.6Zm-44.4,0h15.6v-27.6H-2075Zm24-1.2h12v-2.4h-12Zm7.2-4.8h6v-16.8h-6Zm-8.4,0h6v-16.8h-6Zm25.2.006a1.2,1.2,0,0,1-1.2-1.2V20151.6a1.2,1.2,0,0,1,1.2-1.2h8.4a1.2,1.2,0,0,1,1.2,1.2v15.605a1.2,1.2,0,0,1-1.2,1.2Zm1.2-2.4h6v-13.2h-6Zm-45.6,2.4a1.2,1.2,0,0,1-1.2-1.2V20151.6a1.2,1.2,0,0,1,1.2-1.2h8.4a1.2,1.2,0,0,1,1.2,1.2v15.605a1.2,1.2,0,0,1-1.2,1.2Zm1.2-2.4h6v-13.2h-6Zm24.482-18.242-6.721-5.039a8.433,8.433,0,0,1-3.358-6.721v-3.8a6.949,6.949,0,0,0-2.051-4.947,1.194,1.194,0,0,1-.223-1.383l2.4-4.8a1.2,1.2,0,0,1,1.362-.629l2.031.506a4.762,4.762,0,0,0,4.042-.814l2.517-1.885a1.185,1.185,0,0,1,1.438,0l2.517,1.885a4.762,4.762,0,0,0,4.042.814l2.031-.506a1.2,1.2,0,0,1,1.362.629l2.4,4.8a1.194,1.194,0,0,1-.223,1.383,6.949,6.949,0,0,0-2.051,4.947v3.8a8.432,8.432,0,0,1-3.358,6.721l-6.721,5.039a1.2,1.2,0,0,1-.719.238A1.2,1.2,0,0,1-2045.719,20147.76Zm-9.841-21.561a9.289,9.289,0,0,1,2.158,6v3.8a6.037,6.037,0,0,0,2.4,4.8l6,4.5,6-4.5a6.038,6.038,0,0,0,2.4-4.8v-3.8a9.289,9.289,0,0,1,2.157-6l-1.6-3.2-1.1.273a7.166,7.166,0,0,1-6.062-1.225l-1.8-1.348-1.793,1.348a7.181,7.181,0,0,1-6.068,1.225l-1.1-.273Zm8.514,10.65-3.6-3.6,1.7-1.7,2.75,2.75,5.151-5.15,1.7,1.7-6,6a1.217,1.217,0,0,1-.851.35A1.2,1.2,0,0,1-2047.046,20136.85Z" transform="translate(2081 -20118)" fill="url(#linear-gradient)"/>
</svg>
