<?xml version="1.0" encoding="utf-8"?>
<!-- Generator: Adobe Illustrator 16.0.0, SVG Export Plug-In . SVG Version: 6.00 Build 0)  -->
<!DOCTYPE svg PUBLIC "-//W3C//DTD SVG 1.1//EN" "http://www.w3.org/Graphics/SVG/1.1/DTD/svg11.dtd">
<svg version="1.1" id="Layer_1" xmlns="http://www.w3.org/2000/svg" xmlns:xlink="http://www.w3.org/1999/xlink" x="0px" y="0px"
	 width="63px" height="63px" viewBox="0 0 63 63" enable-background="new 0 0 63 63" xml:space="preserve">
<g id="investigation" transform="translate(-16 -16)">
	
		<linearGradient id="Path_18046_1_" gradientUnits="userSpaceOnUse" x1="-246.0024" y1="427.1621" x2="-246.0024" y2="426.1621" gradientTransform="matrix(23.1 0 0 -23.1 5745.9028 9898.1445)">
		<stop  offset="0" style="stop-color:#00A9E0"/>
		<stop  offset="1" style="stop-color:#801C7D"/>
	</linearGradient>
	<path id="Path_18046" fill="url(#Path_18046_1_)" d="M63.25,30.7c-6.379,0-11.55,5.171-11.55,11.55S56.871,53.8,63.25,53.8
		S74.8,48.629,74.8,42.25l0,0C74.8,35.871,69.629,30.7,63.25,30.7z M63.25,51.7c-5.219,0-9.45-4.231-9.45-9.45s4.231-9.45,9.45-9.45
		s9.45,4.231,9.45,9.45S68.469,51.7,63.25,51.7L63.25,51.7z"/>
	
		<linearGradient id="Path_18047_1_" gradientUnits="userSpaceOnUse" x1="-249.0679" y1="436.5928" x2="-249.0679" y2="435.5928" gradientTransform="matrix(31.5 0 0 -52.5051 7908.9063 22949.8066)">
		<stop  offset="0" style="stop-color:#00A9E0"/>
		<stop  offset="1" style="stop-color:#801C7D"/>
	</linearGradient>
	<path id="Path_18047" fill="url(#Path_18047_1_)" d="M79,42.25c0-8.698-7.053-15.75-15.751-15.749
		C54.551,26.502,47.5,33.554,47.5,42.252c0,6.885,4.474,12.972,11.045,15.03c-0.977,1.437-0.604,3.395,0.833,4.372
		c0.224,0.152,0.467,0.274,0.722,0.365v13.83c-0.003,1.74,1.404,3.153,3.145,3.156c1.739,0.004,3.152-1.404,3.156-3.144
		c0-0.004,0-0.009,0-0.013V62.02c1.639-0.578,2.498-2.376,1.92-4.016c-0.09-0.256-0.213-0.498-0.365-0.723
		C74.521,55.217,78.991,49.133,79,42.25z M64.3,62.2v10.5h-2.1V62.197L64.3,62.2z M63.25,76.9c-0.58-0.001-1.049-0.471-1.05-1.051
		v-1.053h2.1v1.051c-0.001,0.579-0.47,1.049-1.05,1.049V76.9z M65.35,58c0.58,0,1.05,0.471,1.049,1.051
		c0,0.58-0.47,1.049-1.049,1.049H61.15c-0.58,0.001-1.051-0.469-1.052-1.049S60.568,58,61.147,58c0.001,0,0.001,0,0.003,0H65.35z
		 M63.25,55.9c-7.539,0-13.65-6.111-13.65-13.65c0-7.539,6.111-13.65,13.65-13.65S76.9,34.711,76.9,42.25l0,0
		c-0.002,7.537-6.113,13.646-13.65,13.646V55.9z"/>
	
		<linearGradient id="Path_18048_1_" gradientUnits="userSpaceOnUse" x1="-251.1763" y1="437.3857" x2="-251.1763" y2="436.3857" gradientTransform="matrix(42 0 0 -58.8 10586.4063 25734.2441)">
		<stop  offset="0" style="stop-color:#00A9E0"/>
		<stop  offset="1" style="stop-color:#801C7D"/>
	</linearGradient>
	<path id="Path_18048" fill="url(#Path_18048_1_)" d="M18.1,18.1h5.865l3.892,3.892c0.197,0.197,0.464,0.308,0.742,0.308H55.9v3.15
		H58v-8.4c0-0.58-0.471-1.05-1.05-1.05l0,0h-39.9C16.47,16,16,16.47,16,17.05v56.7c0,0.58,0.47,1.05,1.05,1.05l0,0H28.6v-2.1H18.1
		V18.1z M26.935,18.1h5.43l2.1,2.1h-5.43L26.935,18.1z M35.335,18.1h4.38l2.1,2.1h-4.38L35.335,18.1z M55.9,20.2H44.785l-2.1-2.1
		H55.9V20.2z"/>
	
		<linearGradient id="Path_18049_1_" gradientUnits="userSpaceOnUse" x1="-250.2378" y1="436.4053" x2="-250.2378" y2="435.4053" gradientTransform="matrix(36.5773 0 0 -51.2153 9193.0068 22377.3984)">
		<stop  offset="0" style="stop-color:#00A9E0"/>
		<stop  offset="1" style="stop-color:#801C7D"/>
	</linearGradient>
	<path id="Path_18049" fill="url(#Path_18049_1_)" d="M33.394,75.637l-9.417-39.852l29.634-7l-0.483-2.044l-30.656,7.244
		c-0.564,0.134-0.914,0.699-0.78,1.263l9.9,41.9c0.134,0.563,0.699,0.912,1.263,0.779l25.386-6l-0.483-2.044L33.394,75.637z"/>
	
		<linearGradient id="Path_18050_1_" gradientUnits="userSpaceOnUse" x1="-177.0254" y1="234.6533" x2="-177.0254" y2="233.6533" gradientTransform="matrix(2.0437 -0.4831 -0.4831 -2.0437 509.1133 444.7095)">
		<stop  offset="0" style="stop-color:#00A9E0"/>
		<stop  offset="1" style="stop-color:#801C7D"/>
	</linearGradient>
	<path id="Path_18050" fill="url(#Path_18050_1_)" d="M32.947,50.919l2.044-0.483l0.483,2.044l-2.043,0.483L32.947,50.919z"/>
	
		<linearGradient id="Path_18051_1_" gradientUnits="userSpaceOnUse" x1="-239.5674" y1="234.6543" x2="-239.5674" y2="233.6543" gradientTransform="matrix(9.1712 -2.168 -0.4831 -2.0437 2352.1125 9.0466)">
		<stop  offset="0" style="stop-color:#00A9E0"/>
		<stop  offset="1" style="stop-color:#801C7D"/>
	</linearGradient>
	<path id="Path_18051" fill="url(#Path_18051_1_)" d="M37.033,49.954l9.171-2.168l0.483,2.044l-9.171,2.168L37.033,49.954z"/>
	
		<linearGradient id="Path_18052_1_" gradientUnits="userSpaceOnUse" x1="-247.4937" y1="234.6533" x2="-247.4937" y2="233.6533" gradientTransform="matrix(16.436 -3.8853 -0.4831 -2.0437 4221.2622 -428.4907)">
		<stop  offset="0" style="stop-color:#00A9E0"/>
		<stop  offset="1" style="stop-color:#801C7D"/>
	</linearGradient>
	<path id="Path_18052" fill="url(#Path_18052_1_)" d="M31.869,55.489l16.436-3.886l0.483,2.044l-16.436,3.886L31.869,55.489z"/>
	
		<linearGradient id="Path_18053_1_" gradientUnits="userSpaceOnUse" x1="-248.6665" y1="234.6523" x2="-248.6665" y2="233.6523" gradientTransform="matrix(18.6198 -4.4015 -0.4831 -2.0437 4785.6426 -557.5905)">
		<stop  offset="0" style="stop-color:#00A9E0"/>
		<stop  offset="1" style="stop-color:#801C7D"/>
	</linearGradient>
	<path id="Path_18053" fill="url(#Path_18053_1_)" d="M32.835,59.576l18.62-4.402l0.482,2.045l-18.62,4.4L32.835,59.576z"/>
	
		<linearGradient id="Path_18054_1_" gradientUnits="userSpaceOnUse" x1="-250.1841" y1="234.6523" x2="-250.1841" y2="233.6523" gradientTransform="matrix(22.4804 -5.3141 -0.4831 -2.0437 5782.646 -788.9534)">
		<stop  offset="0" style="stop-color:#00A9E0"/>
		<stop  offset="1" style="stop-color:#801C7D"/>
	</linearGradient>
	<path id="Path_18054" fill="url(#Path_18054_1_)" d="M33.801,63.662l22.48-5.314l0.483,2.044l-22.48,5.313L33.801,63.662z"/>
	
		<linearGradient id="Path_18055_1_" gradientUnits="userSpaceOnUse" x1="-248.5581" y1="234.6523" x2="-248.5581" y2="233.6523" gradientTransform="matrix(18.3931 -4.3479 -0.4831 -2.0437 4729.0732 -535.5892)">
		<stop  offset="0" style="stop-color:#00A9E0"/>
		<stop  offset="1" style="stop-color:#801C7D"/>
	</linearGradient>
	<path id="Path_18055" fill="url(#Path_18055_1_)" d="M34.767,67.748L53.16,63.4l0.482,2.043L35.25,69.791L34.767,67.748z"/>
	
		<linearGradient id="Path_18056_1_" gradientUnits="userSpaceOnUse" x1="-242.9395" y1="416.71" x2="-242.9395" y2="415.71" gradientTransform="matrix(18.2423 0 0 -14.2527 4468.8994 5973.1309)">
		<stop  offset="0" style="stop-color:#00A9E0"/>
		<stop  offset="1" style="stop-color:#801C7D"/>
	</linearGradient>
	<path id="Path_18056" fill="url(#Path_18056_1_)" d="M45.742,33.878L28.79,37.884c-0.564,0.134-0.913,0.699-0.78,1.263l1.932,8.175
		c0.132,0.563,0.696,0.912,1.26,0.78c0.001,0,0.002,0,0.003-0.001l14.437-3.412l-0.483-2.044l-13.416,3.17l-1.449-6.131l15.93-3.765
		L45.742,33.878z"/>
</g>
</svg>
