<svg xmlns="http://www.w3.org/2000/svg" xmlns:xlink="http://www.w3.org/1999/xlink" width="45.522" height="72.001" viewBox="0 0 45.522 72.001">
  <defs>
    <linearGradient id="linear-gradient" x1="0.5" x2="0.5" y2="1" gradientUnits="objectBoundingBox">
      <stop offset="0.13" stop-color="#00a9ed"/>
      <stop offset="1" stop-color="#65106b"/>
    </linearGradient>
  </defs>
  <path id="ribbon" d="M23.262,2.823a12.2,12.2,0,0,0-5.33,1.144A6.121,6.121,0,0,0,15,6.618l-1.87,5.166a18.9,18.9,0,0,1,5.824-2.1,23.218,23.218,0,0,1,8.611,0,18.9,18.9,0,0,1,5.824,2.1l-1.87-5.166a6.121,6.121,0,0,0-2.93-2.651,12.2,12.2,0,0,0-5.33-1.144ZM9.9,46.636a1.415,1.415,0,1,1-1.415,1.415A1.416,1.416,0,0,1,9.9,46.636Zm2.224-3.9a1.476,1.476,0,1,0,2.356,1.778h0C19.833,37.4,25.255,29.774,28.1,24.261c1.614-3.121,2.719-5.437,3.464-7.251a26.49,26.49,0,0,0,.909-2.491,9.774,9.774,0,0,1,1.583,1.232,6.557,6.557,0,0,1,1.614,2.316c.12.646.833,5.342-2.707,12.358A230.058,230.058,0,0,1,8.556,68.09L3.573,58.623c1.172-1.5,2.54-3.249,4.03-5.163a1.425,1.425,0,0,0-2.264-1.73C2.656,55.243.815,57.591.8,57.615a1.4,1.4,0,0,0-.136,1.518L7.037,71.252a1.406,1.406,0,0,0,2.348.219A178.214,178.214,0,0,0,22.217,53.84q.52-.8,1.036-1.591c2.312,3.564,4.74,7.159,7.084,10.436,2.408,3.365,4.744,6.418,6.8,8.786a1.455,1.455,0,0,0,.447.371,1.414,1.414,0,0,0,1.9-.59l6.378-12.119a1.407,1.407,0,0,0-.14-1.518c-.02-.028-7.363-9.4-14.2-18.775,1.674-2.874,3.045-5.35,3.95-7.147,4.269-8.463,2.938-14.279,2.934-14.295A82.047,82.047,0,0,0,34.072,5.438a8.875,8.875,0,0,0-4.25-3.994A15.051,15.051,0,0,0,23.262,0,15.065,15.065,0,0,0,16.7,1.444a8.841,8.841,0,0,0-4.281,4.062A90.065,90.065,0,0,0,8.118,17.4c0,.016-1.335,5.832,2.934,14.295.447.885,1.093,2.085,1.842,3.432.689,1.24,1.407,2.507,2.105,3.707-.957,1.312-1.926,2.623-2.878,3.907Zm4.492-29.487a21.674,21.674,0,0,0,.949,2.691c.71,1.718,1.782,3.962,3.365,7.031.335.646.817,1.479,1.379,2.4.311.506.634,1.024.961,1.543.976-1.527,1.774-2.87,2.332-3.946,1.583-3.07,2.655-5.314,3.364-7.032a21.718,21.718,0,0,0,.949-2.691,17.413,17.413,0,0,0-2.875-.8,20.506,20.506,0,0,0-7.55,0,17.392,17.392,0,0,0-2.874.8Zm4.967,16.24c-.606-.929-1.18-1.837-1.674-2.647-.6-.981-1.116-1.873-1.479-2.583-1.614-3.121-2.715-5.437-3.464-7.251a26.51,26.51,0,0,1-.909-2.491,9.853,9.853,0,0,0-1.583,1.232,6.565,6.565,0,0,0-1.614,2.316c-.119.646-.833,5.342,2.707,12.358.446.885,1.072,2.045,1.786,3.333.43.773.925,1.646,1.459,2.571,1.714-2.388,3.348-4.72,4.771-6.836Zm3.34,20.162c2.471,3.839,5.126,7.793,7.71,11.4,1.861,2.6,3.675,5.007,5.337,7.036l4.983-9.463c-1.782-2.288-7.514-9.683-12.987-17.149-1.531,2.563-3.241,5.342-5.043,8.176Zm0,0" transform="translate(-0.501 -0.001)" fill-rule="evenodd" fill="url(#linear-gradient)"/>
</svg>
