<?xml version="1.0" encoding="utf-8"?>
<!-- Generator: Adobe Illustrator 14.0.0, SVG Export Plug-In . SVG Version: 6.00 Build 43363)  -->
<!DOCTYPE svg PUBLIC "-//W3C//DTD SVG 1.1//EN" "http://www.w3.org/Graphics/SVG/1.1/DTD/svg11.dtd">
<svg version="1.1" id="depreciation" xmlns="http://www.w3.org/2000/svg" xmlns:xlink="http://www.w3.org/1999/xlink" x="0px"
	 y="0px" width="65px" height="65px" viewBox="0 0 65 65" enable-background="new 0 0 65 65" xml:space="preserve">
<g id="Group_3639" transform="translate(0 7.875)">
	
		<linearGradient id="Path_19121_1_" gradientUnits="userSpaceOnUse" x1="12.3579" y1="40.3682" x2="12.3579" y2="39.3682" gradientTransform="matrix(63 0 0 -39.375 -746 1590.4844)">
		<stop  offset="0.13" style="stop-color:#00A9ED"/>
		<stop  offset="1" style="stop-color:#65106B"/>
	</linearGradient>
	<path id="Path_19121" fill="url(#Path_19121_1_)" d="M60.063,40.375H4.938C2.765,40.373,1.003,38.611,1,36.438v-31.5
		C1.002,2.764,2.764,1.002,4.938,1h55.125C62.236,1.003,63.998,2.765,64,4.938v31.5C63.997,38.611,62.236,40.372,60.063,40.375z
		 M4.938,3.625c-0.725,0-1.313,0.588-1.313,1.313l0,0v31.5c0,0.725,0.588,1.313,1.313,1.313h55.125c0.725,0,1.313-0.588,1.313-1.313
		v-31.5c-0.001-0.724-0.587-1.312-1.312-1.312L4.938,3.625z"/>
</g>
<g id="Group_3640" transform="translate(7.875 44.625)">
	
		<linearGradient id="Path_19122_1_" gradientUnits="userSpaceOnUse" x1="104.6953" y1="-7" x2="104.6953" y2="-8" gradientTransform="matrix(2.625 0 0 -18.3388 -272.5156 -127.3446)">
		<stop  offset="0.13" style="stop-color:#00A9ED"/>
		<stop  offset="1" style="stop-color:#65106B"/>
	</linearGradient>
	<path id="Path_19122" fill="url(#Path_19122_1_)" d="M2.313,19.375C1.588,19.375,1,18.787,1,18.063V2.313
		c0.02-0.725,0.624-1.296,1.349-1.275c0.697,0.02,1.257,0.579,1.276,1.275v15.75C3.625,18.787,3.038,19.375,2.313,19.375z"/>
</g>
<g id="Group_3641" transform="translate(13.125 44.625)">
	
		<linearGradient id="Path_19123_1_" gradientUnits="userSpaceOnUse" x1="99.4453" y1="-7" x2="99.4453" y2="-8" gradientTransform="matrix(2.625 0 0 -18.3388 -258.7344 -127.3446)">
		<stop  offset="0.13" style="stop-color:#00A9ED"/>
		<stop  offset="1" style="stop-color:#65106B"/>
	</linearGradient>
	<path id="Path_19123" fill="url(#Path_19123_1_)" d="M2.313,19.375C1.588,19.375,1,18.787,1,18.063V2.313
		c0.02-0.725,0.624-1.296,1.349-1.275c0.697,0.02,1.257,0.579,1.276,1.275v15.75C3.625,18.787,3.038,19.375,2.313,19.375z"/>
</g>
<g id="Group_3642" transform="translate(47.25 44.625)">
	
		<linearGradient id="Path_19124_1_" gradientUnits="userSpaceOnUse" x1="65.3203" y1="-7" x2="65.3203" y2="-8" gradientTransform="matrix(2.625 0 0 -18.3388 -169.1563 -127.3446)">
		<stop  offset="0.13" style="stop-color:#00A9ED"/>
		<stop  offset="1" style="stop-color:#65106B"/>
	</linearGradient>
	<path id="Path_19124" fill="url(#Path_19124_1_)" d="M2.313,19.375C1.588,19.375,1,18.787,1,18.063V2.313
		c0.02-0.725,0.624-1.296,1.349-1.275c0.696,0.02,1.257,0.579,1.276,1.275v15.75C3.625,18.787,3.037,19.375,2.313,19.375z"/>
</g>
<g id="Group_3643" transform="translate(52.5 44.625)">
	
		<linearGradient id="Path_19125_1_" gradientUnits="userSpaceOnUse" x1="60.0703" y1="-7" x2="60.0703" y2="-8" gradientTransform="matrix(2.625 0 0 -18.3388 -155.375 -127.3446)">
		<stop  offset="0.13" style="stop-color:#00A9ED"/>
		<stop  offset="1" style="stop-color:#65106B"/>
	</linearGradient>
	<path id="Path_19125" fill="url(#Path_19125_1_)" d="M2.313,19.375C1.588,19.375,1,18.787,1,18.063V2.313
		c0.02-0.725,0.624-1.296,1.349-1.275c0.696,0.02,1.257,0.579,1.276,1.275v15.75C3.625,18.787,3.037,19.375,2.313,19.375z"/>
</g>
<g id="Group_3644" transform="translate(11.813)">
	
		<linearGradient id="Path_19126_1_" gradientUnits="userSpaceOnUse" x1="100.7583" y1="17.6714" x2="100.7583" y2="16.6714" gradientTransform="matrix(2.625 0 0 -9.1518 -262.1789 162.7665)">
		<stop  offset="0.13" style="stop-color:#00A9ED"/>
		<stop  offset="1" style="stop-color:#65106B"/>
	</linearGradient>
	<path id="Path_19126" fill="url(#Path_19126_1_)" d="M2.313,10.188C1.588,10.188,1,9.6,1,8.875l0,0V2.313
		c0.02-0.725,0.624-1.296,1.349-1.276c0.697,0.02,1.257,0.58,1.276,1.276v6.562C3.625,9.6,3.038,10.188,2.313,10.188z"/>
</g>
<g id="Group_3645" transform="translate(7.875)">
	
		<linearGradient id="Path_19127_1_" gradientUnits="userSpaceOnUse" x1="26.4463" y1="-81.3569" x2="26.4463" y2="-82.3569" gradientTransform="matrix(10.4286 0 0 -2.625 -269.5566 -212.5625)">
		<stop  offset="0.13" style="stop-color:#00A9ED"/>
		<stop  offset="1" style="stop-color:#65106B"/>
	</linearGradient>
	<path id="Path_19127" fill="url(#Path_19127_1_)" d="M10.188,3.625H2.313c-0.725-0.02-1.296-0.624-1.276-1.349
		C1.056,1.58,1.616,1.019,2.313,1h7.875c0.725,0.02,1.296,0.624,1.276,1.349C11.445,3.045,10.885,3.606,10.188,3.625z"/>
</g>
<g id="Group_3646" transform="translate(30.188)">
	
		<linearGradient id="Path_19128_1_" gradientUnits="userSpaceOnUse" x1="82.3833" y1="17.6714" x2="82.3833" y2="16.6714" gradientTransform="matrix(2.625 0 0 -9.1518 -213.9445 162.7665)">
		<stop  offset="0.13" style="stop-color:#00A9ED"/>
		<stop  offset="1" style="stop-color:#65106B"/>
	</linearGradient>
	<path id="Path_19128" fill="url(#Path_19128_1_)" d="M2.313,10.188C1.588,10.188,1,9.6,1,8.875V2.313
		c0.02-0.725,0.624-1.296,1.349-1.276c0.697,0.02,1.257,0.58,1.276,1.276v6.562C3.625,9.6,3.038,10.188,2.313,10.188z"/>
</g>
<g id="Group_3647" transform="translate(26.25)">
	
		<linearGradient id="Path_19129_1_" gradientUnits="userSpaceOnUse" x1="8.0723" y1="-81.3569" x2="8.0723" y2="-82.3569" gradientTransform="matrix(10.4286 0 0 -2.625 -77.9318 -212.5625)">
		<stop  offset="0.13" style="stop-color:#00A9ED"/>
		<stop  offset="1" style="stop-color:#65106B"/>
	</linearGradient>
	<path id="Path_19129" fill="url(#Path_19129_1_)" d="M10.188,3.625H2.313c-0.725-0.02-1.296-0.624-1.276-1.349
		C1.056,1.58,1.616,1.019,2.313,1h7.875c0.726,0.02,1.297,0.624,1.277,1.349C11.445,3.045,10.885,3.606,10.188,3.625z"/>
</g>
<g id="Group_3648" transform="translate(48.563)">
	
		<linearGradient id="Path_19130_1_" gradientUnits="userSpaceOnUse" x1="64.0083" y1="17.6714" x2="64.0083" y2="16.6714" gradientTransform="matrix(2.625 0 0 -9.1518 -165.7101 162.7665)">
		<stop  offset="0.13" style="stop-color:#00A9ED"/>
		<stop  offset="1" style="stop-color:#65106B"/>
	</linearGradient>
	<path id="Path_19130" fill="url(#Path_19130_1_)" d="M2.313,10.188C1.587,10.188,1,9.6,1,8.875V2.313
		c0.021-0.725,0.625-1.296,1.35-1.276c0.696,0.02,1.257,0.58,1.275,1.276v6.562C3.625,9.6,3.038,10.188,2.313,10.188z"/>
</g>
<g id="Group_3649" transform="translate(44.625)">
	
		<linearGradient id="Path_19131_1_" gradientUnits="userSpaceOnUse" x1="-10.3027" y1="-81.3569" x2="-10.3027" y2="-82.3569" gradientTransform="matrix(10.4286 0 0 -2.625 113.6929 -212.5625)">
		<stop  offset="0.13" style="stop-color:#00A9ED"/>
		<stop  offset="1" style="stop-color:#65106B"/>
	</linearGradient>
	<path id="Path_19131" fill="url(#Path_19131_1_)" d="M10.188,3.625H2.313c-0.725-0.02-1.296-0.624-1.275-1.349
		C1.057,1.58,1.616,1.019,2.313,1h7.875c0.726,0.02,1.297,0.624,1.277,1.349C11.445,3.045,10.885,3.606,10.188,3.625z"/>
</g>
</svg>
