<svg xmlns="http://www.w3.org/2000/svg" xmlns:xlink="http://www.w3.org/1999/xlink" width="71.998" height="70.803" viewBox="0 0 71.998 70.803">
  <defs>
    <linearGradient id="linear-gradient" x1="0.5" x2="0.5" y2="1" gradientUnits="objectBoundingBox">
      <stop offset="0.13" stop-color="#00a9ed"/>
      <stop offset="1" stop-color="#65106b"/>
    </linearGradient>
  </defs>
  <path id="Union_47" data-name="Union 47" d="M-2081,20188.8v-2.4h4.8v-3.6a1.2,1.2,0,0,1,1.2-1.2h4.8v-46.8h-2.4a1.2,1.2,0,0,1-1.2-1.2v-2.859l-4.139-2.066a1.2,1.2,0,0,1-.664-1.074v-1.2h-2.4v-2.4h2.4v-1.2a1.2,1.2,0,0,1,1.2-1.2h3.6v-2.4a1.2,1.2,0,0,1,1.2-1.2h14.4a1.2,1.2,0,0,1,1.2,1.2v3.6h38.4a1.209,1.209,0,0,1,.851.35l4.8,4.8a1.212,1.212,0,0,1,.263,1.313,1.206,1.206,0,0,1-1.11.74H-2057v3.6a1.2,1.2,0,0,1-1.2,1.2h-2.4v46.8h4.8a1.2,1.2,0,0,1,1.2,1.2v3.6h2.4v-33.6a1.2,1.2,0,0,1,1.2-1.2h1.2v-2.4h-2.4v-2.4h2.4v-7.205h-2.4v-2.4h2.4v-2.4h2.4v2.4h2.4v2.4h-2.4v7.205h2.4v2.4h-2.4v2.4h4.8v-7.2h-2.4v-2.4h2.4v-2.4h2.4v2.4h2.4v-4.8h2.4v4.8h2.4v2.4h-2.4v7.2h2.4v-4.8h2.4v4.8h1.2a1.2,1.2,0,0,1,1.2,1.2v3.76l4.8.684V20154h-2.4v-2.4h2.4v-4.8h-2.4v-2.4h2.4v-2.4h2.4v2.4h2.4v2.4h-2.4v4.8h3.6v-2.4h2.4v2.4h2.4v2.4h-2.4v4.443l2.569.365a1.206,1.206,0,0,1,1.034,1.191v26.4h2.4v2.4Zm52.8-2.4h14.4v-25.359l-14.4-2.057Zm-21.6,0h19.2V20154h-19.2Zm-24,0h16.8v-2.4h-16.8Zm7.7-4.8h3.1v-3.107Zm-1.7-6.7v5.006l4.8-4.8v-5.006Zm0-8.4v5.006l4.8-4.8v-5.006Zm0-8.4v5.006l4.8-4.8v-5.006Zm46.8-.506,3.6.512v-4.1h-3.6Zm-46.8-7.895v5.006l4.8-4.8v-5.008Zm27.6,1.906h2.4v-7.2h-2.4Zm-27.6-10.307v5.006l4.8-4.8v-5.006Zm0-3.395,3.1-3.1h-3.1Zm-3.6-5.5h12v-12h-12Zm-4.8-5.543,2.4,1.2V20124h-2.4Zm55.7.74h3.805l-2.4-2.4h-3.805Zm-7.2,0h3.805l-2.4-2.4h-3.805Zm-7.2,0h3.805l-2.4-2.4h-3.805Zm-7.2,0h3.805l-2.4-2.4h-3.805Zm-7.2,0h3.805l-2.4-2.4h-3.805Zm-7.7,0h4.3l-2.4-2.4h-1.9Zm37.2,52.8v-2.4h2.4v2.4Zm-4.8,0v-2.4h2.4v2.4Zm-12,0v-2.4h2.4v2.4Zm-4.8,0v-2.4h2.4v2.4Zm-4.8,0v-2.4h2.4v2.4Zm26.4-4.8v-2.4h2.4v2.4Zm-4.8,0v-2.4h2.4v2.4Zm-12,0v-2.4h2.4v2.4Zm-4.8,0v-2.4h2.4v2.4Zm-4.8,0v-2.4h2.4v2.4Zm26.4-4.8v-2.4h2.4v2.4Zm-4.8,0v-2.4h2.4v2.4Zm-12,0v-2.4h2.4v2.4Zm-4.8,0v-2.4h2.4v2.4Zm-4.8,0v-2.4h2.4v2.4Zm26.4-4.8v-2.4h2.4v2.4Zm-4.8,0v-2.4h2.4v2.4Zm-12,0v-2.4h2.4v2.4Zm-4.8,0v-2.4h2.4v2.4Zm-4.8,0v-2.4h2.4v2.4Zm9.6-4.8v-2.4h2.4v2.4Zm-4.8,0v-2.4h2.4v2.4Zm-4.8,0v-2.4h2.4v2.4Zm22.8-21.605v-2.4h2.4v2.4Zm-14.4-4.8v-2.4h2.4v2.4Zm-30-4.8a1.2,1.2,0,0,1-1.2-1.2v-4.8a1.2,1.2,0,0,1,1.2-1.2h4.8a1.2,1.2,0,0,1,1.2,1.2v4.8a1.2,1.2,0,0,1-1.2,1.2Zm1.2-2.4h2.4v-2.4h-2.4Z" transform="translate(2080.999 -20117.998)" fill="url(#linear-gradient)"/>
</svg>
