<svg xmlns="http://www.w3.org/2000/svg" xmlns:xlink="http://www.w3.org/1999/xlink" width="72" height="58.864" viewBox="0 0 72 58.864">
  <defs>
    <linearGradient id="linear-gradient" x1="0.5" x2="0.5" y2="1" gradientUnits="objectBoundingBox">
      <stop offset="0.13" stop-color="#00a9ed"/>
      <stop offset="1" stop-color="#65106b"/>
    </linearGradient>
  </defs>
  <g id="hospitalisation" transform="translate(0 -46.705)">
    <circle id="Ellipse_227" data-name="Ellipse 227" cx="1.274" cy="1.274" r="1.274" transform="translate(23.571 65.344) rotate(-5.682)" fill="url(#linear-gradient)"/>
    <circle id="Ellipse_228" data-name="Ellipse 228" cx="1.274" cy="1.274" r="1.274" transform="translate(32.247 65.34) rotate(-5.682)" fill="url(#linear-gradient)"/>
    <path id="Path_19259" data-name="Path 19259" d="M190.862,219.565h-3.829a1.064,1.064,0,1,0,0,2.127h3.829a1.064,1.064,0,1,0,0-2.127Z" transform="translate(-159.818 -148.552)" fill="url(#linear-gradient)"/>
    <path id="Path_19260" data-name="Path 19260" d="M70,51.513H66.785V48.832h4.15a1.064,1.064,0,1,0,0-2.127H16.27a1.064,1.064,0,0,0,0,2.127H64.658v2.681H61.445a2,2,0,0,0-2,2v9.254a6.281,6.281,0,0,0,3.27,5.508l-.695,1.117a5.7,5.7,0,0,0-.251,5.541l2.889,5.747a3.563,3.563,0,0,1-.736,4.17l-5.287,4.783V69.127a2.974,2.974,0,0,0-2.971-2.971H52.589a10.367,10.367,0,0,0-.357-1.536,2.656,2.656,0,0,1-.062-1.354l.784-3.637a2.074,2.074,0,0,0-2.464-2.464c-1.1.145-3.8,1.1-4.925.689a10.434,10.434,0,0,0-1.284-.337,1.064,1.064,0,0,0-.406,2.088,8.278,8.278,0,0,1,1.021.268,4.771,4.771,0,0,0,2.507.133l3.455-.745-.767,3.557c-.4,1.525.522,3.168.492,4.93v11A8.287,8.287,0,0,1,50.2,81.26a4.748,4.748,0,0,0-.176.789,13.522,13.522,0,0,0-8.99-3.412H36.466V77.592a10.276,10.276,0,0,0,2.953-5.42,5.82,5.82,0,0,0,3.327-3.578,4.08,4.08,0,0,0-2.3-5.262h0a2.587,2.587,0,0,0-.828-.129V58.136a5.608,5.608,0,0,0-5.6-5.6H24.576a5.61,5.61,0,0,0-5.542,4.792H16.3c-1.5-.153-3.024.758-4.666.6L8.1,57.165a2.074,2.074,0,0,0-2.464,2.464l.784,3.638a2.655,2.655,0,0,1-.062,1.354A10.361,10.361,0,0,0,6,66.157H3.3V51.124a2.3,2.3,0,0,1,2.292-2.292h5.783a1.064,1.064,0,1,0,0-2.127H5.594a4.424,4.424,0,0,0-4.419,4.419V66.766A2.964,2.964,0,0,0,0,69.127l.026,34.582a1.862,1.862,0,0,0,1.86,1.86H56.757a1.862,1.862,0,0,0,1.86-1.86L58.634,92.5l6.722-6.081.014-.013a5.7,5.7,0,0,0,1.188-6.683L63.668,73.98a3.565,3.565,0,0,1,.157-3.462l.959-1.542a6.3,6.3,0,0,0,.937.07h0a6.28,6.28,0,0,0,5.367-3.025A6.582,6.582,0,0,0,72,62.769V53.514A2,2,0,0,0,70,51.513ZM56.507,69.127V91.56l-1.162,1.052q-.364-.329-.739-.641a13.492,13.492,0,0,0-2.068-6.954c-.157-.926-.63-2.082-.314-3.112a10.409,10.409,0,0,0,.487-3.154V68.284h2.953a.844.844,0,0,1,.843.843ZM24.251,79.175a10.309,10.309,0,0,0,10.088,0v1.931a.874.874,0,0,1-.873.873H25.124a.874.874,0,0,1-.873-.873Zm15.535-13.82a1.974,1.974,0,0,1,.938,2.581c-.362,1.112-1.5,2.243-2.293,2.283a1.064,1.064,0,0,0-1,.936,8.192,8.192,0,0,1-16.265,0,1.063,1.063,0,0,0-1-.936c-.8-.04-1.932-1.171-2.293-2.283a1.974,1.974,0,0,1,.938-2.581.385.385,0,0,1,.113-.026c.069,0,.131.05.255.224a1.063,1.063,0,0,0,1.19.4c.549-.156.844-.931.74-1.67a4.091,4.091,0,0,1,4.087-4.087H33.4a4.091,4.091,0,0,1,4.087,4.087c-.024.566-.066,1.322.74,1.67a1.063,1.063,0,0,0,1.19-.4c.183-.257.23-.242.367-.2ZM21.1,58.136a3.478,3.478,0,0,1,3.474-3.474h9.438a3.478,3.478,0,0,1,3.474,3.474V59.6A6.187,6.187,0,0,0,33.4,58.066H25.188A6.187,6.187,0,0,0,21.1,59.6Zm-9.914,1.871a4.777,4.777,0,0,0,2.507-.133,8.264,8.264,0,0,1,2.608-.42h2.672V63.2a2.573,2.573,0,0,0-.828.129,4.08,4.08,0,0,0-2.3,5.262,5.817,5.817,0,0,0,3.327,3.578,10.276,10.276,0,0,0,2.953,5.42v1.045H17.56a13.522,13.522,0,0,0-8.99,3.412,4.757,4.757,0,0,0-.176-.789,8.287,8.287,0,0,1-.387-2.511v-11c-.09-1.521.886-3.18.492-4.93l-.767-3.557Zm-9.06,9.12a.844.844,0,0,1,.843-.843H5.88V78.749A10.409,10.409,0,0,0,6.367,81.9c.321.649-.167,2.41-.314,3.112A13.492,13.492,0,0,0,3.984,91.98q-.637.53-1.241,1.107a8.715,8.715,0,0,0-.617.655V69.127ZM56.49,103.442H2.154V99.459a6.728,6.728,0,0,1,2.062-4.836,21.164,21.164,0,0,1,10.565-5.5,1.064,1.064,0,1,0-.411-2.087,23.22,23.22,0,0,0-8.1,3.271A11.468,11.468,0,0,1,17.56,80.765h4.564v.341a3,3,0,0,0,3,3h8.342a3,3,0,0,0,3-3v-.341H41.03a11.468,11.468,0,0,1,11.287,9.528,23.253,23.253,0,0,0-12.625-3.7H19.536a1.064,1.064,0,1,0,0,2.127H39.692A21.127,21.127,0,0,1,52.863,93.3l.03.024q.8.637,1.548,1.356A6.737,6.737,0,0,1,56.49,99.5v3.942Zm13.382-49.8v2.934h-8.3V53.64Zm-.327,10.742a4.328,4.328,0,0,1-3.824,2.536,4.155,4.155,0,0,1-4.15-4.15V58.7h8.3v4.067A4.138,4.138,0,0,1,69.545,64.383Z" fill="url(#linear-gradient)"/>
  </g>
</svg>
