<?xml version="1.0" encoding="utf-8"?>
<!-- Generator: Adobe Illustrator 14.0.0, SVG Export Plug-In . SVG Version: 6.00 Build 43363)  -->
<!DOCTYPE svg PUBLIC "-//W3C//DTD SVG 1.1//EN" "http://www.w3.org/Graphics/SVG/1.1/DTD/svg11.dtd">
<svg version="1.1" id="Layer_1" xmlns="http://www.w3.org/2000/svg" xmlns:xlink="http://www.w3.org/1999/xlink" x="0px" y="0px"
	 width="65.914px" height="65.936px" viewBox="0 0 65.914 65.936" enable-background="new 0 0 65.914 65.936" xml:space="preserve">
<g id="Group_2256" transform="translate(-1045.682 -812.477)">
	<g id="accident_1_" transform="translate(1045.768 817.524)">
		<g id="Group_2209" transform="translate(0.009 0.768)">
			<g id="Group_2208" transform="translate(0 0)">
				
					<linearGradient id="Path_17323_1_" gradientUnits="userSpaceOnUse" x1="24.0232" y1="35.4885" x2="24.0232" y2="34.4885" gradientTransform="matrix(17.5587 0 0 -22.1466 -411.0816 791.9694)">
					<stop  offset="0.13" style="stop-color:#00A9ED"/>
					<stop  offset="1" style="stop-color:#65106B"/>
				</linearGradient>
				<path id="Path_17323" fill="url(#Path_17323_1_)" d="M16.75,16.632c2.708-1.635,3.578-5.154,1.943-7.862
					s-5.155-3.577-7.863-1.942C9.114,7.862,8.065,9.72,8.063,11.725c0,0.146,0.005,0.293,0.016,0.438
					c-2.921-0.427-5.636,1.596-6.063,4.517c-0.427,2.922,1.595,5.636,4.517,6.063c0.287,0.042,0.576,0.061,0.865,0.055
					c-0.066,0.25-0.1,0.507-0.1,0.765c0.002,1.434,1,2.675,2.4,2.983c0.38,1.207,1.667,1.877,2.874,1.497
					c1.207-0.381,1.877-1.667,1.497-2.874c-0.099-0.312-0.263-0.6-0.481-0.843c2.521-0.09,4.491-2.207,4.4-4.728
					C17.948,18.492,17.508,17.44,16.75,16.632L16.75,16.632z M14.578,16.681c0.057,0.181,0.18,0.334,0.344,0.43
					c0.952,0.534,1.54,1.541,1.54,2.632c0,1.688-1.368,3.055-3.055,3.055c-0.208,0-0.414-0.021-0.617-0.063
					c-0.413-0.085-0.817,0.182-0.901,0.596c-0.013,0.063-0.018,0.129-0.015,0.194c0,0.037,0.007,0.063,0.007,0.036
					c0,0.201-0.041,0.4-0.118,0.587c-0.163,0.389,0.021,0.837,0.41,0.999c0,0.001,0,0.001,0.001,0.001l0,0
					c0.39,0.162,0.574,0.608,0.413,0.998c-0.162,0.39-0.609,0.575-0.999,0.413c-0.287-0.119-0.473-0.4-0.471-0.711
					c0-0.422-0.342-0.765-0.764-0.765l0,0C9.51,25.08,8.829,24.394,8.832,23.55c0.002-0.493,0.243-0.956,0.646-1.24
					c0.058-0.042,0.109-0.091,0.153-0.146c0.076-0.003,0.152-0.017,0.224-0.042c0.07-0.026,0.143-0.048,0.216-0.063
					c0.415-0.077,0.688-0.476,0.611-0.891c-0.012-0.063-0.031-0.125-0.059-0.184c-0.008-0.018-0.032-0.062-0.047-0.089
					c-0.183-0.381-0.639-0.541-1.02-0.358c-0.035,0.017-0.068,0.036-0.101,0.059c-0.076,0.052-0.153,0.1-0.236,0.146
					c-0.082,0.047-0.153,0.108-0.212,0.182c-0.091,0.004-0.18,0.023-0.264,0.058c-1.951,0.797-4.18-0.139-4.977-2.09
					s0.138-4.18,2.089-4.978c0.932-0.381,1.977-0.378,2.907,0.008c0.39,0.162,0.837-0.023,0.998-0.413
					c0.069-0.166,0.077-0.351,0.023-0.521c-0.699-2.212,0.527-4.571,2.738-5.271c2.212-0.699,4.572,0.526,5.271,2.738
					c0.697,2.204-0.518,4.557-2.718,5.265c-0.402,0.126-0.626,0.556-0.499,0.958C14.577,16.678,14.577,16.679,14.578,16.681z"/>
			</g>
		</g>
		<g id="Group_2211" transform="translate(0 0)">
			<g id="Group_2210" transform="translate(0 0)">
				
					<linearGradient id="Path_17324_1_" gradientUnits="userSpaceOnUse" x1="68.3892" y1="-27.6195" x2="68.3892" y2="-28.6195" gradientTransform="matrix(4.582 0 0 -4.582 -309.1038 -120.5558)">
					<stop  offset="0.13" style="stop-color:#00A9ED"/>
					<stop  offset="1" style="stop-color:#65106B"/>
				</linearGradient>
				<path id="Path_17324" fill="url(#Path_17324_1_)" d="M4.253,5.996c-1.265,0-2.291,1.025-2.291,2.291
					c0,1.265,1.026,2.291,2.291,2.291s2.291-1.026,2.291-2.291l0,0C6.544,7.021,5.518,5.996,4.253,5.996z M4.253,9.05
					c-0.422,0-0.764-0.342-0.764-0.764s0.342-0.765,0.764-0.765s0.764,0.343,0.764,0.765C5.02,8.709,4.68,9.052,4.258,9.055
					c-0.001,0-0.003,0-0.005,0V9.05z"/>
			</g>
		</g>
		<g id="Group_2213" transform="translate(14.509 19.855)">
			<g id="Group_2212" transform="translate(0)">
				
					<linearGradient id="Path_17325_1_" gradientUnits="userSpaceOnUse" x1="113.9495" y1="-128.0853" x2="113.9495" y2="-129.0853" gradientTransform="matrix(2.29 0 0 -2.29 -257.8394 -287.3136)">
					<stop  offset="0.13" style="stop-color:#00A9ED"/>
					<stop  offset="1" style="stop-color:#65106B"/>
				</linearGradient>
				<path id="Path_17325" fill="url(#Path_17325_1_)" d="M3.107,6C2.474,6.001,1.962,6.514,1.963,7.147
					C1.964,7.778,2.476,8.291,3.109,8.29c0.632,0,1.144-0.513,1.144-1.145C4.252,6.513,3.74,6,3.107,6z M3.107,7.527
					c-0.211,0-0.382-0.171-0.382-0.382s0.171-0.382,0.382-0.382s0.382,0.171,0.382,0.382l0,0C3.489,7.357,3.318,7.527,3.107,7.527z"
					/>
			</g>
		</g>
	</g>
	
		<linearGradient id="Subtraction_9_1_" gradientUnits="userSpaceOnUse" x1="1051.5551" y1="858.5246" x2="1051.5551" y2="857.5246" gradientTransform="matrix(31.15 -42.8743 -29.8209 -21.6662 -6090.0503 64526.2109)">
		<stop  offset="0.13" style="stop-color:#00A9ED"/>
		<stop  offset="1" style="stop-color:#65106B"/>
	</linearGradient>
	<path id="Subtraction_9" fill="url(#Subtraction_9_1_)" d="M1094.363,861.348l-3.778,5.269c-0.272,0.382-0.803,0.471-1.185,0.198
		c-0.003-0.002-0.007-0.004-0.009-0.006c-0.381-0.284-0.465-0.821-0.188-1.208l3.275-4.567l-0.371-0.271l-2.42,3.372
		c-1.409,1.979-4.156,2.441-6.137,1.032c-0.017-0.013-0.034-0.025-0.051-0.038l-4.905-3.609l-0.001-0.008l-2.106-1.627l-3.994,1.355
		l-11.188,3.748c-0.451,0.146-0.935-0.101-1.082-0.551c0-0.001,0-0.001,0-0.002c-0.083-0.264-0.04-0.552,0.12-0.778
		c0.105-0.146,0.252-0.254,0.421-0.313l13.057-4.374l1.65-0.554c-0.818-1.766-0.628-3.834,0.499-5.421l1.102-1.535
		c1.15-1.609,1.759-3.542,1.742-5.521l-0.002-0.015l-0.001-0.009c-0.001-0.041,0.001-0.081,0.004-0.121l-2.733,1.803l-4.962,3.269
		l-3.803,5.301c-0.511,0.715-1.251,1.232-2.098,1.467l-7.451,2.053l-2.83,3.945c-0.279,0.391-0.194,0.934,0.191,1.22
		c0.226,0.162,0.514,0.207,0.778,0.12l2.153-0.719c0.215-0.072,0.451-0.054,0.652,0.05c0.203,0.104,0.356,0.283,0.426,0.5
		c0.087,0.265,0.043,0.554-0.118,0.78c-0.105,0.145-0.254,0.253-0.424,0.31l-2.151,0.725c-0.787,0.262-1.652,0.125-2.32-0.367
		c-1.15-0.854-1.404-2.471-0.572-3.637l3.012-4.186c0.114-0.159,0.278-0.275,0.467-0.328l7.741-2.133
		c0.47-0.131,0.881-0.418,1.166-0.814l3.614-5.038c-0.997-2.943-0.511-6.187,1.305-8.709c1.345-1.889,3.34-3.215,5.602-3.726
		c-0.753-0.594-1.633-1.005-2.571-1.201l-1.62,2.258c-0.271,0.382-0.801,0.472-1.183,0.2c-0.003-0.003-0.007-0.005-0.01-0.008
		c-0.382-0.284-0.466-0.821-0.189-1.209l1.049-1.463l-0.733-0.067c-0.738-0.07-1.385-0.521-1.707-1.188
		c-0.33-0.664-0.293-1.452,0.098-2.082c0.293-0.481,0.612-0.96,0.941-1.418c1.561-2.224,3.559-4.105,5.872-5.53
		c2.206-1.342,4.689-2.162,7.262-2.396c1.207-0.009,2.386,0.376,3.355,1.096c1.029,0.651,1.916,1.506,2.605,2.511
		c0.303,0.479,0.486,1.024,0.534,1.59l0.302,3.599c0.008,0.088,0.002,0.177-0.017,0.264c-0.587,0.521-1.113,1.106-1.571,1.745
		c-2.963,4.137-2.606,9.788,0.854,13.521c1.863,2.153,4.51,3.472,7.352,3.661c0.313,0.021,0.59,0.211,0.723,0.495
		c0.131,0.286,0.1,0.62-0.083,0.877l-4.61,6.426l1.061,0.78C1094.557,860.423,1094.641,860.961,1094.363,861.348z M1077.536,853.761
		c-0.18,0.239-0.341,0.493-0.481,0.758c-0.788,1.574-0.329,3.487,1.087,4.531l6.364,4.682c1.201,0.884,2.892,0.626,3.775-0.576
		c0.008-0.012,0.016-0.023,0.024-0.035l7.183-10.011c-1.813-0.343-3.525-1.091-5.008-2.188c-5.621-4.163-6.803-12.094-2.641-17.714
		c0.277-0.376,0.576-0.736,0.895-1.078l-0.168-2.022c-1.414,0.795-3.162,0.69-4.47-0.269c-1.356-1.002-1.986-2.716-1.603-4.358
		c-4.317,0.861-8.119,3.394-10.579,7.045c-0.305,0.42-0.595,0.861-0.87,1.31c-0.118,0.197-0.054,0.454,0.144,0.572
		c0.053,0.032,0.113,0.052,0.175,0.058l1.744,0.162l1.077-1.5c0.272-0.382,0.802-0.472,1.184-0.199
		c0.003,0.003,0.007,0.005,0.01,0.008c0.381,0.284,0.464,0.821,0.188,1.208l-0.598,0.828c1.361,0.423,2.582,1.208,3.53,2.272
		c2.165,2.417,2.109,4.817,2.046,7.598l-0.003,0.102l-0.003,0.245c-0.006,0.311-0.012,0.615-0.015,0.924
		c-0.014,2.447-0.836,4.822-2.339,6.754c-0.077,0.106-0.156,0.216-0.231,0.319l-0.031,0.043c-0.024,0.033-0.047,0.065-0.07,0.096
		l-0.063,0.087l-0.015,0.021l-0.235,0.323L1077.536,853.761z M1072.239,842.421c-1.346,1.872-1.807,4.239-1.261,6.479l1.456-0.963
		l6.4-4.217c-0.008-0.128-0.008-0.257-0.004-0.386v-0.014l0.002-0.061l0.002-0.019c0.109-1.412-0.236-2.821-0.986-4.022
		C1075.6,839.416,1073.551,840.585,1072.239,842.421z M1084.354,825.326c-0.541,1.081-0.227,2.396,0.746,3.114
		c0.961,0.713,2.3,0.612,3.145-0.235C1087.316,826.829,1085.942,825.813,1084.354,825.326z"/>
	<g id="Group_2255" transform="matrix(0.921, -0.391, 0.391, 0.921, 1086.523, 828.896)">
		
			<linearGradient id="Path_16647_1_" gradientUnits="userSpaceOnUse" x1="-14.2989" y1="-19.1335" x2="-14.2989" y2="-20.134" gradientTransform="matrix(8.545 3.2613 3.6277 -7.6821 196.2571 -93.1226)">
			<stop  offset="0.13" style="stop-color:#00A9ED"/>
			<stop  offset="1" style="stop-color:#65106B"/>
		</linearGradient>
		<path id="Path_16647" fill="url(#Path_16647_1_)" stroke="#147DB2" stroke-width="3" stroke-linecap="round" d="M9.302,15.566
			L0.024,7.224"/>
		
			<linearGradient id="Subtraction_10_1_" gradientUnits="userSpaceOnUse" x1="-31.6531" y1="6.2966" x2="-31.6531" y2="5.2966" gradientTransform="matrix(17.6097 7.476 7.476 -17.6096 519.3551 353.7893)">
			<stop  offset="0.13" style="stop-color:#00A9ED"/>
			<stop  offset="1" style="stop-color:#65106B"/>
		</linearGradient>
		<path id="Subtraction_10" fill="url(#Subtraction_10_1_)" d="M9.021,25.406c-5.279,0-9.559-4.28-9.56-9.56
			c0-2.535,1.007-4.967,2.801-6.76c3.733-3.733,9.786-3.733,13.519,0s3.734,9.787,0.001,13.521l0,0
			C13.992,24.405,11.558,25.413,9.021,25.406z M9.022,7.975c-4.347,0-7.873,3.524-7.872,7.872c-0.001,4.347,3.524,7.872,7.871,7.871
			c4.348,0.001,7.872-3.524,7.873-7.872l0,0C16.888,11.501,13.367,7.98,9.022,7.975z"/>
		<g id="Ellipse_167" transform="translate(5.062 5.062)">
			<circle fill="none" cx="3.961" cy="10.786" r="4.499"/>
			<circle fill="none" stroke="#147DB2" stroke-width="2.5" cx="3.961" cy="10.786" r="3.249"/>
		</g>
	</g>
</g>
</svg>
