<?xml version="1.0" encoding="utf-8"?>
<!-- Generator: Adobe Illustrator 16.0.0, SVG Export Plug-In . SVG Version: 6.00 Build 0)  -->
<!DOCTYPE svg PUBLIC "-//W3C//DTD SVG 1.1//EN" "http://www.w3.org/Graphics/SVG/1.1/DTD/svg11.dtd">
<svg version="1.1" id="lost" xmlns="http://www.w3.org/2000/svg" xmlns:xlink="http://www.w3.org/1999/xlink" x="0px" y="0px"
	 width="60.375px" height="63px" viewBox="0 0 60.375 63" enable-background="new 0 0 60.375 63" xml:space="preserve">
<g id="Group_1226" transform="translate(0)">
	<g id="Group_1225">
		
			<linearGradient id="Path_16026_1_" gradientUnits="userSpaceOnUse" x1="-173.6338" y1="280.5547" x2="-173.6338" y2="279.5547" gradientTransform="matrix(2.6381 0 0 -2.638 466.4005 754.0166)">
			<stop  offset="0.13" style="stop-color:#00A9ED"/>
			<stop  offset="1" style="stop-color:#65106B"/>
		</linearGradient>
		<path id="Path_16026" fill="url(#Path_16026_1_)" d="M8.351,13.918H8.325c-0.718,0-1.3,0.582-1.3,1.3c0,0.004,0,0.009,0,0.013
			c-0.003,0.729,0.584,1.322,1.313,1.325c0.729,0.003,1.322-0.584,1.325-1.313C9.667,14.515,9.079,13.922,8.351,13.918z"/>
		
			<linearGradient id="Path_16027_1_" gradientUnits="userSpaceOnUse" x1="-270.3911" y1="421.8271" x2="-270.3911" y2="420.8271" gradientTransform="matrix(60.375 0 0 -63 16355.0859 26575.0625)">
			<stop  offset="0.13" style="stop-color:#00A9ED"/>
			<stop  offset="1" style="stop-color:#65106B"/>
		</linearGradient>
		<path id="Path_16027" fill="url(#Path_16027_1_)" d="M59.063,26.25h-2.107l3.365-11.442c0.204-0.695-0.193-1.424-0.889-1.629
			c-0.596-0.175-1.233,0.091-1.527,0.639c-0.506,0.95-2.668,1.932-5.399,1.932c-3.006,0-5.25-1.386-5.25-2.625V5.25
			c0-2.899-2.351-5.25-5.25-5.25s-5.25,2.351-5.25,5.25v1.313c0.021,0.725,0.624,1.296,1.349,1.276
			c0.697-0.02,1.258-0.58,1.276-1.276V5.25c0-1.45,1.175-2.625,2.625-2.625S44.63,3.8,44.63,5.25v7.875
			c0,1.239-2.243,2.625-5.25,2.625c-2.735,0-4.899-0.982-5.407-1.932c-0.344-0.638-1.139-0.878-1.777-0.536
			c-0.547,0.293-0.813,0.931-0.639,1.526l3.361,11.442h-4.389L22.126,7.57c-0.893-1.981-3.223-2.863-5.205-1.97c0,0,0,0,0,0
			L4.948,10.98c-1.979,0.896-2.862,3.223-1.974,5.205L7.5,26.25H1.313C0.588,26.25,0,26.838,0,27.563v23.625
			C0.008,57.709,5.292,62.992,11.813,63h36.75c6.521-0.008,11.805-5.292,11.813-11.813V27.563
			C60.375,26.838,59.787,26.25,59.063,26.25z M47.25,17.057c1.603,0.896,3.414,1.35,5.25,1.318c1.443,0.003,2.879-0.234,4.245-0.7
			l-2.522,8.575H47.25V17.057z M39.375,18.375c1.836,0.032,3.647-0.422,5.25-1.318v9.193h-6.969l-2.522-8.576
			C36.499,18.141,37.932,18.377,39.375,18.375z M5.368,15.112c-0.298-0.66-0.004-1.437,0.656-1.735l11.973-5.384
			c0.658-0.298,1.433-0.006,1.731,0.652c0,0.001,0.001,0.002,0.002,0.004l7.917,17.6h-17.27L5.368,15.112z M57.75,51.188
			c-0.007,5.072-4.116,9.182-9.188,9.188h-36.75c-5.072-0.007-9.181-4.116-9.188-9.188V28.875H57.75V51.188z"/>
		
			<linearGradient id="Path_16028_1_" gradientUnits="userSpaceOnUse" x1="-254.4814" y1="403.252" x2="-254.4814" y2="402.252" gradientTransform="matrix(13.1284 0 0 -15.7168 3371.116 6371.9585)">
			<stop  offset="0.13" style="stop-color:#00A9ED"/>
			<stop  offset="1" style="stop-color:#65106B"/>
		</linearGradient>
		<path id="Path_16028" fill="url(#Path_16028_1_)" d="M24.848,41.359c0.711,0.061,1.336-0.467,1.397-1.178
			c0.001-0.015,0.002-0.029,0.003-0.043c0.319-2.169,2.334-3.668,4.503-3.35c1.815,0.268,3.212,1.744,3.375,3.572
			c0,2.349-2.006,3.129-3.969,3.58l-0.291,0.072c-0.58,0.146-0.985,0.669-0.984,1.268v3.281c0.02,0.725,0.624,1.296,1.349,1.275
			c0.697-0.019,1.257-0.579,1.276-1.275v-2.261c3.483-1,5.247-3,5.247-5.946c-0.196-3.633-3.301-6.42-6.935-6.224
			c-3.207,0.173-5.822,2.634-6.19,5.824c-0.051,0.724,0.493,1.352,1.217,1.403C24.846,41.359,24.847,41.359,24.848,41.359z"/>
		
			<linearGradient id="Path_16029_1_" gradientUnits="userSpaceOnUse" x1="-173.1694" y1="279.8359" x2="-173.1694" y2="278.8359" gradientTransform="matrix(2.626 0 0 -2.6252 484.9313 787.137)">
			<stop  offset="0.13" style="stop-color:#00A9ED"/>
			<stop  offset="1" style="stop-color:#65106B"/>
		</linearGradient>
		<path id="Path_16029" fill="url(#Path_16029_1_)" d="M29.269,52.893c-0.518,0.508-0.526,1.34-0.019,1.857
			c0.507,0.518,1.338,0.526,1.857,0.019c0.518-0.508,0.525-1.339,0.019-1.856c-0.007-0.007-0.013-0.013-0.019-0.02
			C30.596,52.394,29.78,52.394,29.269,52.893z"/>
	</g>
</g>
</svg>
