<?xml version="1.0" encoding="utf-8"?>
<!-- Generator: Adobe Illustrator 14.0.0, SVG Export Plug-In . SVG Version: 6.00 Build 43363)  -->
<!DOCTYPE svg PUBLIC "-//W3C//DTD SVG 1.1//EN" "http://www.w3.org/Graphics/SVG/1.1/DTD/svg11.dtd">
<svg version="1.1" id="Layer_1" xmlns="http://www.w3.org/2000/svg" xmlns:xlink="http://www.w3.org/1999/xlink" x="0px" y="0px"
	 width="63px" height="63px" viewBox="0 0 63 63" enable-background="new 0 0 63 63" xml:space="preserve">
<g id="Group_3617">
	<g id="Group_3616">
		
			<linearGradient id="Path_19012_1_" gradientUnits="userSpaceOnUse" x1="11.3579" y1="50.7163" x2="11.3579" y2="49.7163" gradientTransform="matrix(63 0 0 -63 -684 3195.0313)">
			<stop  offset="0.13" style="stop-color:#00A9ED"/>
			<stop  offset="1" style="stop-color:#65106B"/>
		</linearGradient>
		<path id="Path_19012" fill="url(#Path_19012_1_)" d="M57.75,0H5.25C2.352,0.004,0.003,2.353,0,5.25v52.5
			c0.003,2.898,2.352,5.246,5.25,5.25h52.5c2.898-0.004,5.246-2.352,5.25-5.25V5.25C62.996,2.353,60.648,0.004,57.75,0z M60.9,57.75
			c-0.002,1.739-1.411,3.148-3.15,3.15H5.25c-1.739-0.002-3.148-1.411-3.15-3.15V5.25c0.001-1.739,1.411-3.148,3.15-3.15h52.5
			c1.739,0.001,3.148,1.411,3.15,3.15V57.75z"/>
		
			<linearGradient id="Path_19013_1_" gradientUnits="userSpaceOnUse" x1="12.0273" y1="49.8247" x2="12.0273" y2="48.8247" gradientTransform="matrix(54.6 0 0 -54.6 -625.2001 2724.6335)">
			<stop  offset="0.13" style="stop-color:#00A9ED"/>
			<stop  offset="1" style="stop-color:#65106B"/>
		</linearGradient>
		<path id="Path_19013" fill="url(#Path_19013_1_)" d="M55.65,4.201H7.35C5.611,4.202,4.202,5.611,4.2,7.351v48.3
			c0.001,1.738,1.411,3.148,3.15,3.149h48.3c1.738-0.001,3.148-1.411,3.149-3.149v-48.3C58.799,5.611,57.389,4.202,55.65,4.201z
			 M28.35,13.65V10.5h6.3v3.15H28.35z M32.55,15.75v2.1c0.001,0.58-0.469,1.05-1.049,1.051c-0.58,0-1.05-0.469-1.051-1.049
			c0-0.001,0-0.002,0-0.002v-2.1H32.55z M30.45,6.3h2.1v2.1h-2.1V6.3z M56.7,55.651c-0.001,0.579-0.471,1.049-1.05,1.05H7.35
			c-0.58-0.001-1.049-0.471-1.05-1.05v-48.3c0.001-0.58,0.471-1.049,1.05-1.05h21v2.1c-1.16,0-2.1,0.94-2.1,2.1v3.15
			c0,1.16,0.94,2.1,2.1,2.1v2.1c0.001,0.236,0.029,0.47,0.083,0.7L24.8,23.92l-0.6-0.115c-1.137-0.218-2.236,0.525-2.457,1.662l0,0
			l-3.094-0.592c-1.139-0.218-2.239,0.528-2.458,1.667l0,0l-0.593,3.094c-0.067,0.363-0.037,0.738,0.089,1.085
			c-0.245,0.277-0.412,0.614-0.484,0.977l-0.593,3.094c-0.067,0.363-0.037,0.738,0.089,1.086c-0.246,0.276-0.413,0.614-0.484,0.978
			l-0.593,3.093c-0.067,0.363-0.037,0.738,0.089,1.086c-0.245,0.276-0.412,0.614-0.484,0.977l-0.593,3.095
			c-0.22,1.139,0.524,2.24,1.663,2.46c0.002,0.001,0.005,0.001,0.007,0.001l3.095,0.594c-0.215,1.138,0.531,2.234,1.668,2.453
			l2.062,0.395c1.139,0.219,2.24-0.526,2.459-1.666c0,0,0,0,0-0.001l0,0l12.374,2.37c-0.218,1.139,0.528,2.238,1.667,2.456
			l2.063,0.396c1.139,0.219,2.239-0.527,2.459-1.666c0,0,0-0.001,0-0.002l0,0l3.093,0.592c1.139,0.22,2.239-0.526,2.458-1.665
			c0-0.001,0.001-0.001,0.001-0.001l0.592-3.094c0.067-0.364,0.036-0.738-0.089-1.086c0.246-0.277,0.412-0.615,0.484-0.978
			l0.593-3.093c0.067-0.364,0.036-0.739-0.089-1.088c0.245-0.276,0.412-0.613,0.483-0.977l0.593-3.093
			c0.067-0.36,0.037-0.732-0.086-1.078c0.246-0.28,0.412-0.62,0.481-0.985l0.593-3.094c0.219-1.139-0.528-2.238-1.667-2.457
			l-3.094-0.593l0,0c0.187-0.982-0.345-1.959-1.269-2.339c0.201-0.76,0.729-1.392,1.438-1.728c0.519-0.259,0.729-0.89,0.47-1.409
			c-0.259-0.519-0.89-0.729-1.408-0.47l0,0c-1.285,0.62-2.222,1.786-2.549,3.174l-0.418-0.08c-1.139-0.218-2.239,0.528-2.457,1.667
			l0,0l0,0l-12.375-2.37l0,0c0.161-0.858-0.226-1.727-0.972-2.181l2.737-4.046c1.138,0.81,2.677,0.759,3.759-0.125
			c0.962,1.021,2.247,1.679,3.638,1.861c0.1,0.007,0.2,0.011,0.301,0.011c1.238-0.028,2.412-0.563,3.246-1.48
			c0.41-0.41,0.41-1.075,0-1.485s-1.074-0.41-1.484,0c-0.473,0.559-1.173,0.875-1.905,0.861c-1.05-0.206-1.993-0.778-2.66-1.616
			c0.04-0.198,0.06-0.398,0.062-0.6v-2.1c1.159,0,2.1-0.94,2.1-2.1v-3.15c0-1.16-0.94-2.1-2.1-2.1v-2.1h21
			c0.579,0.001,1.049,0.471,1.05,1.05V55.651L56.7,55.651z M48.2,38.018l-0.593,3.094l-3.094-0.592l0.592-3.094l0.11,0.021
			L48.2,38.018z M45.507,35.368l0.593-3.094l3.094,0.593L48.6,35.959l-2.062-0.395L45.507,35.368z M47.217,43.178l-0.591,3.09
			l-3.094-0.593l0.592-3.094L47.217,43.178z M46.23,48.334l-0.592,3.094l-3.095-0.592l0.592-3.094L46.23,48.334z M44.23,30.844
			L44.23,30.844l-0.983,5.153v0.007l-0.986,5.148l0,0v0.005l-0.985,5.145v0.007v0.006l-0.983,5.143v0.008v0.008l-0.2,1.023l0,0
			l-2.063-0.4l3.16-16.5l0,0l0.985-5.151v-0.006l0.2-1.029l2.063,0.4L44.23,30.844z M23.696,37.608l-0.985,5.145v0.006v0.01
			l-0.985,5.142v0.008v0.008l-0.2,1.023l0,0l-2.062-0.4l3.159-16.5l0,0l0.986-5.153l0,0l0.2-1.028l2.063,0.4l-0.2,1.029l0,0
			l-0.986,5.149l0,0l0,0l-0.989,5.152l0,0L23.696,37.608z M15.688,40.344l0.592-3.094l3.095,0.593l-0.593,3.095l-0.111-0.021
			L15.688,40.344z M18.388,43l-0.593,3.094L14.701,45.5l0.593-3.093l2.062,0.395L18.388,43z M16.677,35.188l0.592-3.094l3.094,0.594
			l-0.596,3.092L16.677,35.188z M17.664,30.031l0.592-3.094l3.095,0.592l-0.593,3.094L17.664,30.031z M24.576,44.184l12.374,2.369
			l-0.593,3.094l-12.375-2.369L24.576,44.184z M24.971,42.123l0.592-3.095l12.373,2.369l-0.592,3.095L24.971,42.123z M25.957,36.967
			l0.593-3.094l12.374,2.37l-0.592,3.094L25.957,36.967z M39.318,34.18l-12.374-2.37l0.592-3.094l12.374,2.37L39.318,34.18z"/>
	</g>
</g>
</svg>
