<?xml version="1.0" encoding="utf-8"?>
<!-- Generator: Adobe Illustrator 16.0.0, SVG Export Plug-In . SVG Version: 6.00 Build 0)  -->
<!DOCTYPE svg PUBLIC "-//W3C//DTD SVG 1.1//EN" "http://www.w3.org/Graphics/SVG/1.1/DTD/svg11.dtd">
<svg version="1.1" id="Layer_1" xmlns="http://www.w3.org/2000/svg" xmlns:xlink="http://www.w3.org/1999/xlink" x="0px" y="0px"
	 width="63px" height="63px" viewBox="0 0 63 63" enable-background="new 0 0 63 63" xml:space="preserve">
<g id="settings" transform="translate(-0.002 -0.001)">
	<g id="Group_2731" transform="translate(0 21.263)">
		<g id="Group_2730">
			
				<linearGradient id="Path_17907_1_" gradientUnits="userSpaceOnUse" x1="-267.1352" y1="397.4211" x2="-267.1352" y2="396.4211" gradientTransform="matrix(41.7426 0 0 -41.7422 11171.8096 16589.2051)">
				<stop  offset="0.13" style="stop-color:#00A9ED"/>
				<stop  offset="1" style="stop-color:#65106B"/>
			</linearGradient>
			<path id="Path_17907" fill="url(#Path_17907_1_)" d="M40.463,24.11c-0.662-0.4-1.342-0.801-2.021-1.19
				c0.158-1.362,0.158-2.738,0-4.101c0.682-0.394,1.361-0.793,2.02-1.189c1.115-0.679,1.57-2.066,1.076-3.273l0,0l-1.447-3.5
				c-0.504-1.202-1.807-1.861-3.074-1.554c-0.748,0.186-1.512,0.384-2.271,0.588c-0.852-1.076-1.824-2.049-2.9-2.9
				c0.199-0.761,0.4-1.524,0.588-2.272c0.307-1.268-0.352-2.57-1.554-3.075l-3.496-1.444c-1.208-0.494-2.595-0.038-3.274,1.076
				c-0.4,0.661-0.8,1.341-1.19,2.022c-1.362-0.16-2.738-0.16-4.1,0c-0.394-0.683-0.794-1.363-1.19-2.021
				c-0.679-1.114-2.065-1.57-3.273-1.077l-3.5,1.448C9.651,2.151,8.992,3.455,9.3,4.723c0.186,0.749,0.384,1.512,0.588,2.271
				c-1.077,0.851-2.05,1.824-2.9,2.9c-0.762-0.2-1.526-0.4-2.272-0.588c-1.268-0.307-2.57,0.352-3.075,1.554L0.2,14.356
				c-0.494,1.207-0.038,2.595,1.076,3.273c0.661,0.4,1.341,0.8,2.022,1.189c-0.16,1.362-0.16,2.738,0,4.101
				c-0.681,0.394-1.361,0.793-2.022,1.19c-1.114,0.678-1.569,2.065-1.076,3.272l1.449,3.5c0.504,1.203,1.808,1.862,3.075,1.554
				c0.746-0.186,1.51-0.383,2.271-0.588c0.85,1.076,1.824,2.05,2.9,2.9c-0.2,0.762-0.4,1.525-0.588,2.271
				C9,38.287,9.658,39.59,10.861,40.095l3.5,1.448c0.317,0.131,0.657,0.199,1,0.199c0.928,0.002,1.79-0.48,2.273-1.273
				c0.394-0.656,0.794-1.336,1.19-2.021c1.362,0.159,2.738,0.159,4.1,0c0.391,0.678,0.791,1.357,1.19,2.021
				c0.679,1.114,2.067,1.57,3.274,1.076l3.5-1.448c1.202-0.504,1.86-1.807,1.553-3.074c-0.186-0.742-0.383-1.507-0.587-2.271
				c1.076-0.851,2.048-1.824,2.9-2.9c0.76,0.2,1.523,0.4,2.271,0.588c1.268,0.309,2.57-0.351,3.074-1.554l1.447-3.5
				C42.041,26.174,41.58,24.785,40.463,24.11z M37.543,29.658c-0.719-0.18-1.451-0.369-2.178-0.565
				c-1.025-0.278-2.119,0.085-2.771,0.925c-0.75,0.963-1.617,1.83-2.58,2.58c-0.838,0.652-1.202,1.746-0.922,2.77
				c0.2,0.734,0.387,1.465,0.566,2.178l-3.214,1.331c-0.382-0.638-0.765-1.29-1.139-1.94c-0.527-0.922-1.557-1.438-2.611-1.307
				c-1.211,0.15-2.437,0.15-3.649,0c-1.055-0.133-2.085,0.383-2.613,1.307c-0.379,0.657-0.762,1.309-1.14,1.94l-3.214-1.331
				c0.18-0.717,0.37-1.449,0.566-2.178c0.279-1.025-0.085-2.119-0.924-2.771c-0.963-0.75-1.83-1.617-2.581-2.58
				c-0.653-0.838-1.746-1.201-2.77-0.922c-0.729,0.2-1.461,0.387-2.177,0.566l-1.331-3.215c0.635-0.381,1.287-0.764,1.94-1.139
				c0.922-0.527,1.438-1.557,1.307-2.609c-0.15-1.212-0.15-2.438,0-3.649c0.132-1.056-0.384-2.087-1.308-2.614
				c-0.653-0.377-1.3-0.76-1.941-1.141l1.331-3.215c0.716,0.181,1.448,0.371,2.178,0.566c1.025,0.279,2.118-0.085,2.771-0.924
				c0.75-0.963,1.617-1.831,2.58-2.581c0.838-0.653,1.202-1.746,0.922-2.771c-0.2-0.726-0.386-1.458-0.566-2.177l3.214-1.331
				c0.379,0.633,0.762,1.285,1.139,1.94c0.527,0.923,1.557,1.438,2.611,1.307c1.211-0.151,2.437-0.151,3.649,0
				c1.055,0.13,2.085-0.386,2.612-1.31c0.376-0.653,0.759-1.3,1.14-1.941l3.214,1.331c-0.18,0.718-0.37,1.45-0.566,2.178
				c-0.279,1.025,0.085,2.118,0.924,2.771c0.964,0.75,1.831,1.616,2.58,2.58c0.654,0.838,1.746,1.202,2.771,0.922
				c0.727-0.2,1.459-0.386,2.176-0.565l1.332,3.213c-0.635,0.381-1.287,0.764-1.939,1.14c-0.924,0.527-1.439,1.557-1.309,2.61
				c0.15,1.213,0.15,2.438,0,3.65c-0.131,1.054,0.385,2.084,1.307,2.611c0.652,0.375,1.301,0.758,1.941,1.141L37.543,29.658z"/>
		</g>
	</g>
	<g id="Group_2733" transform="translate(11.258 32.521)">
		<g id="Group_2732">
			
				<linearGradient id="Path_17908_1_" gradientUnits="userSpaceOnUse" x1="-270.9576" y1="375.2744" x2="-270.9576" y2="374.2744" gradientTransform="matrix(19.249 0 0 -19.2491 5225.2705 7223.6523)">
				<stop  offset="0.13" style="stop-color:#00A9ED"/>
				<stop  offset="1" style="stop-color:#65106B"/>
			</linearGradient>
			<path id="Path_17908" fill="url(#Path_17908_1_)" d="M18.49,5.934L18.49,5.934c-2.028-4.912-7.654-7.25-12.566-5.223
				C1.012,2.74-1.325,8.365,0.703,13.277c2.028,4.912,7.654,7.25,12.566,5.222c0.007-0.003,0.015-0.006,0.021-0.009
				C18.188,16.453,20.515,10.836,18.49,5.934z M12.209,15.885c-3.452,1.405-7.39-0.254-8.795-3.707
				C2.009,8.726,3.668,4.787,7.121,3.383c3.452-1.405,7.39,0.254,8.795,3.707c0.669,1.645,0.664,3.486-0.016,5.127
				C15.205,13.881,13.877,15.201,12.209,15.885z"/>
		</g>
	</g>
	<g id="Group_2735" transform="translate(30.989)">
		<g id="Group_2734">
			
				<linearGradient id="Path_17909_1_" gradientUnits="userSpaceOnUse" x1="-296.1931" y1="415.8492" x2="-296.1931" y2="414.8492" gradientTransform="matrix(32.022 0 0 -32.009 9500.6836 13310.9316)">
				<stop  offset="0.13" style="stop-color:#00A9ED"/>
				<stop  offset="1" style="stop-color:#65106B"/>
			</linearGradient>
			<path id="Path_17909" fill="url(#Path_17909_1_)" d="M30.111,12.42c-0.488-0.073-0.988-0.144-1.49-0.211
				c-0.254-0.845-0.594-1.662-1.012-2.439c0.309-0.4,0.611-0.807,0.9-1.2c0.65-0.891,0.559-2.123-0.219-2.907l-1.938-1.947
				c-0.783-0.777-2.016-0.87-2.906-0.219c-0.4,0.294-0.801,0.6-1.201,0.905c-0.777-0.418-1.594-0.757-2.439-1.011
				c-0.066-0.5-0.137-1-0.211-1.49c-0.17-1.09-1.105-1.895-2.209-1.9h-2.752c-1.104,0.005-2.039,0.81-2.209,1.9
				c-0.074,0.486-0.143,0.986-0.211,1.49C11.368,3.644,10.548,3.982,9.771,4.4C9.37,4.093,8.97,3.789,8.572,3.5
				C7.679,2.849,6.447,2.942,5.663,3.719L3.716,5.66C2.939,6.444,2.845,7.676,3.497,8.567c0.293,0.4,0.6,0.8,0.898,1.2
				c-0.418,0.777-0.756,1.594-1.01,2.439c-0.5,0.067-1,0.138-1.49,0.211c-1.09,0.17-1.895,1.107-1.9,2.21v2.751
				c0.005,1.104,0.81,2.04,1.9,2.21c0.486,0.073,0.986,0.144,1.49,0.211c0.254,0.845,0.592,1.662,1.01,2.439
				c-0.307,0.4-0.609,0.806-0.904,1.2c-0.65,0.891-0.559,2.124,0.219,2.907l1.943,1.945c0.783,0.777,2.016,0.87,2.906,0.219
				c0.4-0.294,0.801-0.6,1.199-0.9c0.777,0.418,1.596,0.757,2.439,1.011c0.066,0.5,0.139,1,0.211,1.49
				c0.17,1.09,1.107,1.896,2.211,1.899h2.75c1.104-0.004,2.039-0.809,2.211-1.899c0.072-0.487,0.143-0.987,0.211-1.49
				c0.844-0.254,1.662-0.593,2.438-1.011c0.4,0.307,0.801,0.611,1.201,0.9c0.891,0.662,2.133,0.573,2.922-0.209l1.945-1.945
				c0.777-0.784,0.869-2.016,0.219-2.907c-0.295-0.4-0.6-0.8-0.9-1.2c0.418-0.777,0.758-1.594,1.012-2.439
				c0.5-0.067,1-0.138,1.49-0.211c1.09-0.17,1.895-1.107,1.898-2.21V14.63C32.013,13.524,31.202,12.587,30.111,12.42z M29.331,17
				c-0.441,0.064-0.893,0.126-1.344,0.185c-0.893,0.114-1.629,0.751-1.867,1.618c-0.229,0.831-0.559,1.629-0.984,2.378
				c-0.445,0.782-0.375,1.753,0.174,2.465c0.277,0.361,0.555,0.724,0.822,1.083l-1.4,1.4c-0.359-0.269-0.723-0.544-1.082-0.821
				c-0.713-0.55-1.684-0.619-2.467-0.175c-0.748,0.426-1.547,0.757-2.377,0.986c-0.867,0.238-1.504,0.975-1.619,1.866
				c-0.059,0.452-0.119,0.901-0.184,1.346h-1.99c-0.064-0.442-0.127-0.893-0.186-1.345c-0.113-0.891-0.752-1.627-1.617-1.866
				c-0.83-0.229-1.629-0.56-2.379-0.985C10.05,24.69,9.077,24.76,8.367,25.31c-0.359,0.277-0.723,0.552-1.082,0.821l-1.4-1.4
				c0.268-0.359,0.543-0.722,0.82-1.083c0.551-0.711,0.619-1.684,0.174-2.465c-0.424-0.749-0.756-1.548-0.984-2.378
				c-0.238-0.867-0.975-1.504-1.865-1.618c-0.451-0.058-0.9-0.121-1.348-0.187v-1.987c0.443-0.064,0.895-0.126,1.346-0.185
				c0.891-0.114,1.627-0.752,1.865-1.618c0.23-0.83,0.561-1.629,0.986-2.378c0.445-0.782,0.377-1.754-0.174-2.465
				c-0.277-0.361-0.553-0.724-0.82-1.083l1.4-1.4c0.359,0.269,0.723,0.544,1.082,0.82c0.711,0.55,1.684,0.619,2.465,0.175
				c0.75-0.425,1.549-0.757,2.379-0.986c0.865-0.239,1.504-0.975,1.617-1.866c0.061-0.452,0.121-0.9,0.186-1.345h1.984
				c0.064,0.442,0.127,0.893,0.186,1.345c0.113,0.892,0.752,1.627,1.617,1.866c0.83,0.229,1.629,0.561,2.379,0.986
				c0.781,0.444,1.754,0.375,2.465-0.175c0.359-0.277,0.723-0.552,1.082-0.821l1.4,1.4c-0.268,0.359-0.543,0.722-0.82,1.083
				c-0.551,0.711-0.619,1.683-0.176,2.465c0.426,0.749,0.756,1.548,0.986,2.378c0.238,0.866,0.975,1.504,1.865,1.618
				c0.451,0.059,0.9,0.121,1.346,0.185V17H29.331z"/>
		</g>
	</g>
	<g id="Group_2737" transform="translate(41.285 10.296)">
		<g id="Group_2736">
			
				<linearGradient id="Path_17910_1_" gradientUnits="userSpaceOnUse" x1="-291.5252" y1="383.6469" x2="-291.5252" y2="382.6469" gradientTransform="matrix(11.42 0 0 -11.42 3334.9321 4381.2388)">
				<stop  offset="0.13" style="stop-color:#00A9ED"/>
				<stop  offset="1" style="stop-color:#65106B"/>
			</linearGradient>
			<path id="Path_17910" fill="url(#Path_17910_1_)" d="M5.709,0C2.557,0,0,2.557,0,5.71c0,3.154,2.557,5.71,5.709,5.71
				c3.154,0,5.711-2.556,5.711-5.71l0,0C11.42,2.557,8.863,0,5.709,0z M5.709,8.881c-1.752,0-3.172-1.42-3.172-3.172
				s1.42-3.172,3.172-3.172s3.172,1.42,3.172,3.172l0,0C8.881,7.461,7.461,8.881,5.709,8.881z"/>
		</g>
	</g>
</g>
</svg>
