<?xml version="1.0" encoding="utf-8"?>
<!-- Generator: Adobe Illustrator 14.0.0, SVG Export Plug-In . SVG Version: 6.00 Build 43363)  -->
<!DOCTYPE svg PUBLIC "-//W3C//DTD SVG 1.1//EN" "http://www.w3.org/Graphics/SVG/1.1/DTD/svg11.dtd">
<svg version="1.1" id="depreciation" xmlns="http://www.w3.org/2000/svg" xmlns:xlink="http://www.w3.org/1999/xlink" x="0px"
	 y="0px" width="65px" height="65px" viewBox="0 0 65 65" enable-background="new 0 0 65 65" xml:space="preserve">
<g id="Maintenance_tools" transform="translate(-2 -2.384)">
	
		<linearGradient id="Path_19060_1_" gradientUnits="userSpaceOnUse" x1="16.6294" y1="51.0598" x2="16.6294" y2="50.0598" gradientTransform="matrix(41.4097 0 0 -41.4168 -643.3699 2119.0957)">
		<stop  offset="0.13" style="stop-color:#00A9ED"/>
		<stop  offset="1" style="stop-color:#65106B"/>
	</linearGradient>
	<path id="Path_19060" fill="url(#Path_19060_1_)" d="M57.334,29.775c0.578-1.206,0.335-2.646-0.607-3.594
		c-1.254-1.195-3.225-1.195-4.479,0l-0.745,0.746l-1.056-1.056l1.689-1.689c0.762-0.73,1.828-1.051,2.867-0.859
		c2.982,0.437,5.995-0.556,8.135-2.679c2.746-2.731,3.553-6.86,2.036-10.425c-0.228-0.537-0.847-0.789-1.384-0.562
		c-0.125,0.053-0.238,0.13-0.335,0.226l-5.142,5.139l-2.487-0.5l-0.5-2.486l5.139-5.141c0.413-0.411,0.415-1.08,0.003-1.493
		c-0.096-0.097-0.209-0.174-0.335-0.227c-4.829-2.051-10.406,0.202-12.457,5.032c-0.688,1.619-0.911,3.398-0.647,5.138
		c0.188,1.037-0.133,2.103-0.86,2.865l-1.688,1.688l-7.037-7.034l-1.42-2.829c-0.096-0.19-0.246-0.348-0.432-0.451l-6.713-3.728
		c-0.412-0.228-0.926-0.155-1.259,0.179l-1.486,1.485c-0.333,0.333-0.404,0.847-0.176,1.258l3.726,6.715
		c0.103,0.186,0.26,0.336,0.45,0.432l2.835,1.422L40,24.379l-1.689,1.688c-0.762,0.731-1.829,1.051-2.867,0.859
		c-5.192-0.781-10.035,2.795-10.816,7.986c-0.261,1.734-0.037,3.507,0.646,5.122c0.227,0.537,0.847,0.788,1.384,0.562
		c0.125-0.054,0.239-0.13,0.335-0.226l5.141-5.143l2.487,0.5l0.5,2.488l-5.139,5.14c-0.412,0.413-0.412,1.081,0.001,1.494
		c0.096,0.096,0.21,0.172,0.335,0.226c4.83,2.05,10.407-0.203,12.458-5.032c0.688-1.62,0.912-3.398,0.647-5.139
		c-0.19-1.038,0.128-2.105,0.856-2.87l1.689-1.689l1.057,1.056l-0.744,0.748c-1.243,1.224-1.26,3.223-0.036,4.466
		c0.952,0.968,2.416,1.219,3.636,0.623l6.234,6.235c2.061,2.062,5.402,2.062,7.465,0.001c2.061-2.062,2.061-5.403,0-7.465l0,0
		L57.334,29.775z M34.334,15.735c-0.079-0.081-0.171-0.148-0.272-0.199l-2.7-1.353l-3.175-5.736l0.359-0.358l5.733,3.183
		l1.355,2.695c0.052,0.102,0.119,0.193,0.2,0.272l7.152,7.154l-1.494,1.494L34.334,15.735z M42.792,30.548
		c-1.206,1.234-1.747,2.972-1.456,4.672c0.609,4.038-2.17,7.806-6.207,8.415c-0.799,0.12-1.612,0.109-2.407-0.033l4.292-4.291
		c0.248-0.249,0.356-0.604,0.288-0.95l-0.752-3.731c-0.083-0.421-0.411-0.749-0.832-0.832l-3.732-0.746
		c-0.345-0.068-0.701,0.04-0.95,0.288l-4.291,4.291c-0.718-4.023,1.961-7.867,5.985-8.585c0.794-0.142,1.606-0.152,2.404-0.032
		c1.7,0.28,3.434-0.259,4.675-1.455l7.853-7.852c1.204-1.235,1.744-2.972,1.452-4.671c-0.609-4.038,2.17-7.806,6.207-8.415
		c0.799-0.121,1.611-0.109,2.406,0.032l-4.293,4.291c-0.248,0.249-0.355,0.605-0.287,0.95l0.746,3.732
		c0.083,0.418,0.41,0.744,0.828,0.828l3.731,0.746c0.345,0.067,0.7-0.04,0.95-0.288l4.3-4.287c0.714,4.023-1.971,7.864-5.995,8.578
		c-0.789,0.14-1.596,0.15-2.389,0.031c-1.701-0.279-3.436,0.262-4.674,1.46L42.792,30.548z M48.959,27.369l1.057,1.056l-1.5,1.494
		l-1.057-1.057L48.959,27.369z M47.777,35.135c-0.412-0.412-0.412-1.081,0-1.493l5.973-5.972c0.412-0.412,1.081-0.412,1.494,0
		c0.412,0.413,0.412,1.081-0.001,1.494l-5.974,5.971c-0.419,0.403-1.082,0.403-1.5,0H47.777z M62.089,41.982
		c-1.237,1.234-3.241,1.234-4.479,0l-6.1-6.1l4.479-4.479l6.1,6.101C63.326,38.74,63.326,40.746,62.089,41.982L62.089,41.982
		L62.089,41.982z"/>
	
		<linearGradient id="Path_19061_1_" gradientUnits="userSpaceOnUse" x1="14.3564" y1="42.5695" x2="14.3564" y2="41.5695" gradientTransform="matrix(62.9997 0 0 -21.112 -869.9901 944.9734)">
		<stop  offset="0.13" style="stop-color:#00A9ED"/>
		<stop  offset="1" style="stop-color:#65106B"/>
	</linearGradient>
	<path id="Path_19061" fill="url(#Path_19061_1_)" d="M65.436,49.298c-1.16-2.019-3.738-2.714-5.758-1.553
		c-0.001,0-0.002,0.001-0.003,0.002L49.382,53.69c-0.56-0.842-1.406-1.453-2.382-1.72l-15.752-4.222
		c-1.212-0.325-2.487-0.337-3.705-0.032L22,49.107v-1.813c0-0.583-0.472-1.056-1.055-1.057H12.5c-0.583,0-1.056,0.474-1.056,1.057
		v1.056H4.056C3.473,48.349,3,48.821,3,49.404v14.778c0,0.583,0.473,1.055,1.056,1.055h7.389v1.057c0,0.583,0.472,1.056,1.055,1.056
		h8.445c0.583,0,1.055-0.473,1.055-1.056v-1.456l1.357,0.679c1.025,0.512,2.155,0.778,3.3,0.78h15.81
		c1.297-0.001,2.572-0.342,3.695-0.99L63.9,55.064C65.91,53.891,66.596,51.316,65.436,49.298z M5.111,63.127V50.459h6.334v12.668
		H5.111z M19.89,65.237h-6.334V48.348h6.334V65.237z M62.842,53.237L45.107,63.479c-0.802,0.464-1.712,0.707-2.639,0.707H26.662
		c-0.819-0.001-1.626-0.191-2.359-0.557L22,62.474V51.285l6.053-1.515c0.87-0.217,1.78-0.209,2.647,0.022l15.75,4.223
		c1.128,0.296,1.802,1.449,1.507,2.577s-1.449,1.803-2.577,1.507c-0.008-0.002-0.015-0.004-0.022-0.006l-12.59-3.376
		c-0.558-0.17-1.148,0.146-1.317,0.703c-0.169,0.559,0.146,1.148,0.704,1.317c0.022,0.007,0.045,0.013,0.068,0.019l12.589,3.38
		c0.358,0.097,0.729,0.146,1.1,0.146c2.304,0.021,4.188-1.831,4.207-4.136c0.002-0.141-0.004-0.282-0.018-0.423l10.633-6.138
		c1.011-0.559,2.282-0.217,2.877,0.772C64.185,51.366,63.842,52.65,62.842,53.237z"/>
</g>
</svg>
