<?xml version="1.0" encoding="utf-8"?>
<!-- Generator: Adobe Illustrator 16.0.0, SVG Export Plug-In . SVG Version: 6.00 Build 0)  -->
<!DOCTYPE svg PUBLIC "-//W3C//DTD SVG 1.1//EN" "http://www.w3.org/Graphics/SVG/1.1/DTD/svg11.dtd">
<svg version="1.1" id="Layer_1" xmlns="http://www.w3.org/2000/svg" xmlns:xlink="http://www.w3.org/1999/xlink" x="0px" y="0px"
	 width="63px" height="62.486px" viewBox="0 0 63 62.486" enable-background="new 0 0 63 62.486" xml:space="preserve">
<g id="house" transform="translate(0 -2.086)">
	<g id="Group_2290" transform="translate(32.815 35.797)">
		<g id="Group_2289">
			
				<linearGradient id="Path_17364_1_" gradientUnits="userSpaceOnUse" x1="-292.7398" y1="371.6755" x2="-292.7398" y2="370.6755" gradientTransform="matrix(19.565 0 0 -17.41 5737.2397 6470.877)">
				<stop  offset="0" style="stop-color:#6BC4F0"/>
				<stop  offset="0.628" style="stop-color:#1C5880"/>
				<stop  offset="1" style="stop-color:#801C7D"/>
			</linearGradient>
			<path id="Path_17364" fill="url(#Path_17364_1_)" d="M18.626,0H0.939C0.42,0-0.001,0.421-0.001,0.939v15.532
				c0,0.519,0.421,0.938,0.939,0.938h17.688c0.518,0,0.938-0.42,0.938-0.938V0.944C19.568,0.425,19.15,0.003,18.63,0
				C18.63,0,18.628,0,18.626,0z M17.688,15.532H1.878V1.879h15.81V15.532L17.688,15.532z"/>
		</g>
	</g>
	<g id="Group_2292" transform="translate(26.239 19.474)">
		<g id="Group_2291">
			
				<linearGradient id="Path_17365_1_" gradientUnits="userSpaceOnUse" x1="-274.4963" y1="373.3657" x2="-274.4963" y2="372.3657" gradientTransform="matrix(10.522 0 0 -10.522 2893.5188 3928.5381)">
				<stop  offset="0" style="stop-color:#6BC4F0"/>
				<stop  offset="0.628" style="stop-color:#1C5880"/>
				<stop  offset="1" style="stop-color:#801C7D"/>
			</linearGradient>
			<path id="Path_17365" fill="url(#Path_17365_1_)" d="M5.261-0.002C2.355-0.002,0,2.354,0,5.26c0,2.905,2.355,5.261,5.261,5.261
				c2.906,0,5.262-2.355,5.262-5.261C10.519,2.356,8.165,0.002,5.261-0.002z M5.261,8.641c-1.868,0-3.382-1.515-3.382-3.382
				c0-1.868,1.514-3.382,3.382-3.382c1.867,0,3.382,1.514,3.382,3.382C8.642,7.126,7.128,8.64,5.261,8.641L5.261,8.641z"/>
		</g>
	</g>
	<g id="Group_2294" transform="translate(0 2.086)">
		<g id="Group_2293" transform="translate(0)">
			
				<linearGradient id="Path_17366_1_" gradientUnits="userSpaceOnUse" x1="-269.2837" y1="421.5144" x2="-269.2837" y2="420.5144" gradientTransform="matrix(62.9985 0 0 -62.486 16995.9863 26338.6973)">
				<stop  offset="0" style="stop-color:#6BC4F0"/>
				<stop  offset="0.628" style="stop-color:#1C5880"/>
				<stop  offset="1" style="stop-color:#801C7D"/>
			</linearGradient>
			<path id="Path_17366" fill="url(#Path_17366_1_)" d="M62.954,29.708c-0.054-0.155-0.144-0.295-0.265-0.407l-6.451-6.143V10.125
				c0.004-0.222-0.069-0.438-0.206-0.612c-0.269-0.334-0.727-0.444-1.117-0.271l-3.623,1.621l-0.668-4.654
				c-0.066-0.462-0.463-0.806-0.931-0.806h-6.17c-0.518,0-0.938,0.42-0.938,0.938v3.814l-8.577-8.169l-1.867-1.736
				c-0.361-0.334-0.918-0.334-1.279,0l-1.88,1.744l-9.136,8.7c-0.123,0.117-0.211,0.265-0.257,0.428l-1.864,6.691l-1.112-2.317
				c-0.086-0.188-0.231-0.343-0.413-0.441c-0.358-0.189-0.797-0.13-1.09,0.149L0.292,29.314c-0.277,0.264-0.366,0.67-0.226,1.025
				c0.063,0.152,0.162,0.286,0.289,0.391l3.73,3.131c0.367,0.309,0.907,0.291,1.253-0.04l1.675-1.6v15.671
				c0,0.519,0.42,0.939,0.939,0.939c0.519,0,0.939-0.421,0.939-0.939V30.434l9.717-9.278L31.5,8.848l10.771,10.284
				c0.376,0.359,0.971,0.346,1.33-0.029s0.346-0.971-0.029-1.329l0,0l-11.42-10.9c-0.364-0.349-0.937-0.349-1.3,0L19.781,17.439
				l1.548-5.561l8.94-8.515L31.5,2.222l1.221,1.134l27.932,26.6l-2.301,1.932L46.756,20.814c-0.375-0.359-0.971-0.346-1.33,0.029
				c-0.358,0.375-0.346,0.971,0.03,1.329l8.651,8.26v30.176H30.185v-1.757l0.548-0.094c0.129-0.02,0.253-0.064,0.365-0.134
				c0.32-0.203,0.487-0.579,0.424-0.953l-0.918-5.399l0.918-5.4c0.063-0.374-0.104-0.75-0.424-0.953
				c-0.112-0.068-0.236-0.114-0.365-0.134l-0.548-0.093v-3.834l0.548-0.093c0.129-0.021,0.253-0.065,0.365-0.135
				c0.32-0.203,0.487-0.578,0.424-0.953l-0.945-5.557c-0.043-0.255-0.19-0.481-0.406-0.624c-0.076-0.452-0.467-0.784-0.926-0.784
				H13.714c-0.519,0-0.939,0.421-0.939,0.939v2.544l-0.548,0.093c-0.129,0.02-0.253,0.065-0.365,0.134
				c-0.32,0.204-0.487,0.579-0.424,0.953l0.918,5.4l-0.918,5.399c-0.063,0.374,0.104,0.75,0.424,0.953
				c0.112,0.069,0.236,0.114,0.365,0.135l0.548,0.093v3.836l-0.548,0.093c-0.129,0.02-0.253,0.065-0.365,0.134
				c-0.32,0.203-0.487,0.579-0.424,0.953l0.891,5.238H8.891v-8.332c0-0.519-0.421-0.939-0.939-0.939
				c-0.519,0-0.939,0.421-0.939,0.939v9.27c0,0.519,0.42,0.939,0.939,0.939h47.1c0.52,0,0.939-0.421,0.939-0.939V32.228l1.675,1.6
				c0.347,0.331,0.886,0.348,1.253,0.04l3.747-3.154C62.956,30.469,63.07,30.071,62.954,29.708z M4.648,31.887l-2.3-1.932
				l13.122-12.5l1.348,2.81L4.648,31.887z M54.359,21.368l-9.899-9.424V7.282h4.416l0.729,5.081c0.072,0.514,0.549,0.87,1.063,0.797
				c0.086-0.013,0.171-0.037,0.251-0.073l3.437-1.537v9.819L54.359,21.368z M14.653,35.59h7.555l-7.555,1.285V35.59z M28.306,60.608
				H19.86l8.446-1.438V60.608z M14.077,59.686l-0.63-3.7l15.436-2.626l0.63,3.7L14.077,59.686z M14.653,53.87v-3.2l9.4,1.601
				L14.653,53.87z M28.882,51.188l-15.435-2.626l0.63-3.7l15.435,2.622L28.882,51.188z M18.91,43.774l9.4-1.601v3.2L18.91,43.774z
				 M14.077,42.69l-0.63-3.7l15.436-2.626l0.63,3.7L14.077,42.69z"/>
		</g>
	</g>
	<g id="Group_2296" transform="translate(26.552 50.076)">
		<g id="Group_2295">
			
				<linearGradient id="Path_17367_1_" gradientUnits="userSpaceOnUse" x1="-158.4656" y1="172.5586" x2="-158.4656" y2="171.5586" gradientTransform="matrix(1.8759 0 0 -1.8785 298.2018 324.1526)">
				<stop  offset="0" style="stop-color:#6BC4F0"/>
				<stop  offset="0.628" style="stop-color:#1C5880"/>
				<stop  offset="1" style="stop-color:#801C7D"/>
			</linearGradient>
			<path id="Path_17367" fill="url(#Path_17367_1_)" d="M1.807,0.58C1.608,0.101,1.059-0.126,0.58,0.073
				C0.101,0.271-0.126,0.821,0.073,1.3C0.272,1.779,0.821,2.006,1.3,1.808c0.045-0.02,0.088-0.041,0.13-0.066
				C1.821,1.497,1.98,1.007,1.807,0.58z"/>
		</g>
	</g>
	<g id="Group_2298" transform="translate(26.554 39.482)">
		<g id="Group_2297">
			
				<linearGradient id="Path_17368_1_" gradientUnits="userSpaceOnUse" x1="-158.2259" y1="182.1887" x2="-158.2259" y2="181.1887" gradientTransform="matrix(1.8727 0 0 -1.8698 297.2454 340.6635)">
				<stop  offset="0" style="stop-color:#6BC4F0"/>
				<stop  offset="0.628" style="stop-color:#1C5880"/>
				<stop  offset="1" style="stop-color:#801C7D"/>
			</linearGradient>
			<path id="Path_17368" fill="url(#Path_17368_1_)" d="M0.463,0.126C0.015,0.388-0.135,0.963,0.128,1.41
				C0.39,1.859,0.965,2.008,1.412,1.746c0.19-0.111,0.335-0.286,0.41-0.494C1.988,0.756,1.721,0.22,1.225,0.055
				C0.972-0.03,0.695-0.005,0.463,0.126z"/>
		</g>
	</g>
	<g id="Group_2300" transform="translate(14.402 47.947)">
		<g id="Group_2299">
			
				<linearGradient id="Path_17369_1_" gradientUnits="userSpaceOnUse" x1="-146.341" y1="174.6876" x2="-146.341" y2="173.6876" gradientTransform="matrix(1.8762 0 0 -1.8785 275.5079 328.152)">
				<stop  offset="0" style="stop-color:#6BC4F0"/>
				<stop  offset="0.628" style="stop-color:#1C5880"/>
				<stop  offset="1" style="stop-color:#801C7D"/>
			</linearGradient>
			<path id="Path_17369" fill="url(#Path_17369_1_)" d="M1.807,0.579C1.608,0.1,1.059-0.127,0.58,0.071
				C0.101,0.271-0.126,0.82,0.073,1.299C0.271,1.778,0.821,2.005,1.3,1.807C1.356,1.783,1.41,1.754,1.461,1.72
				C1.831,1.469,1.975,0.993,1.807,0.579z"/>
		</g>
	</g>
	<g id="Group_2302" transform="translate(14.261 41.688)">
		<g id="Group_2301">
			
				<linearGradient id="Path_17370_1_" gradientUnits="userSpaceOnUse" x1="-145.9548" y1="180.0706" x2="-145.9548" y2="179.0706" gradientTransform="matrix(1.873 0 0 -1.8706 274.3052 336.8459)">
				<stop  offset="0" style="stop-color:#6BC4F0"/>
				<stop  offset="0.628" style="stop-color:#1C5880"/>
				<stop  offset="1" style="stop-color:#801C7D"/>
			</linearGradient>
			<path id="Path_17370" fill="url(#Path_17370_1_)" d="M0.488,0.111C0.033,0.36-0.135,0.93,0.114,1.385
				C0.362,1.84,0.932,2.008,1.387,1.76C1.59,1.649,1.744,1.468,1.822,1.251c0.167-0.496-0.101-1.032-0.596-1.198
				C0.983-0.029,0.716-0.008,0.488,0.111z"/>
		</g>
	</g>
	<g id="Group_2304" transform="translate(26.554 56.393)">
		<g id="Group_2303">
			
				<linearGradient id="Path_17371_1_" gradientUnits="userSpaceOnUse" x1="-158.491" y1="166.1888" x2="-158.491" y2="165.1888" gradientTransform="matrix(1.8762 0 0 -1.878 298.3005 312.1011)">
				<stop  offset="0" style="stop-color:#6BC4F0"/>
				<stop  offset="0.628" style="stop-color:#1C5880"/>
				<stop  offset="1" style="stop-color:#801C7D"/>
			</linearGradient>
			<path id="Path_17371" fill="url(#Path_17371_1_)" d="M1.586,0.256c-0.375-0.358-0.97-0.344-1.328,0.032
				c-0.358,0.375-0.343,0.97,0.032,1.327s0.97,0.344,1.328-0.032c0.08-0.084,0.144-0.182,0.188-0.288
				C1.951,0.936,1.864,0.525,1.586,0.256z"/>
		</g>
	</g>
	<g id="Group_2306" transform="translate(14.261 58.598)">
		<g id="Group_2305">
			
				<linearGradient id="Path_17372_1_" gradientUnits="userSpaceOnUse" x1="-145.8406" y1="162.9301" x2="-145.8406" y2="161.9292" gradientTransform="matrix(1.8715 0 0 -1.8685 273.8748 304.4453)">
				<stop  offset="0" style="stop-color:#6BC4F0"/>
				<stop  offset="0.628" style="stop-color:#1C5880"/>
				<stop  offset="1" style="stop-color:#801C7D"/>
			</linearGradient>
			<path id="Path_17372" fill="url(#Path_17372_1_)" d="M0.489,0.112C0.034,0.361-0.134,0.931,0.115,1.386S0.934,2.009,1.389,1.76
				c0.202-0.11,0.356-0.291,0.434-0.507c0.165-0.497-0.104-1.034-0.602-1.198C0.98-0.025,0.716-0.004,0.489,0.112z"/>
		</g>
	</g>
	<g id="Group_2308" transform="translate(36.087 37.926)">
		<g id="Group_2307">
			
				<linearGradient id="Path_17373_1_" gradientUnits="userSpaceOnUse" x1="-291.127" y1="361.44" x2="-291.127" y2="360.441" gradientTransform="matrix(14.3879 0 0 -12.7766 4195.896 4617.9858)">
				<stop  offset="0" style="stop-color:#6BC4F0"/>
				<stop  offset="0.628" style="stop-color:#1C5880"/>
				<stop  offset="1" style="stop-color:#801C7D"/>
			</linearGradient>
			<path id="Path_17373" fill="url(#Path_17373_1_)" d="M14.325,4.687c-0.133-0.346-0.457-0.58-0.827-0.601l-3.7-0.199L8.403,0.577
				C8.2,0.099,7.649-0.125,7.171,0.077C6.988,0.155,6.835,0.288,6.731,0.458L4.987,3.364L1.876,0.956
				c-0.41-0.317-1-0.243-1.317,0.167C0.373,1.362,0.314,1.676,0.401,1.967L2.011,7.38l-1.89,3.373
				c-0.254,0.453-0.093,1.025,0.359,1.279c0.214,0.12,0.468,0.151,0.704,0.087l4.719-1.273l5.422,1.881
				c0.49,0.17,1.025-0.089,1.195-0.578c0.08-0.23,0.068-0.483-0.035-0.705l-1.313-2.827l2.941-2.927
				C14.377,5.427,14.46,5.034,14.325,4.687z M9.377,7.748c-0.28,0.279-0.355,0.703-0.188,1.062l0.656,1.415l-3.6-1.25
				c-0.178-0.062-0.371-0.068-0.553-0.02L2.85,9.722l0.992-1.771c0.123-0.222,0.152-0.483,0.08-0.727l-0.891-3l1.641,1.27
				c0.41,0.317,1,0.243,1.317-0.167c0.022-0.029,0.044-0.061,0.063-0.092L7.39,3.009l0.9,2.146c0.14,0.331,0.456,0.554,0.814,0.573
				l2.182,0.117L9.377,7.748z"/>
		</g>
	</g>
</g>
</svg>
