<?xml version="1.0" encoding="utf-8"?>
<!-- Generator: Adobe Illustrator 16.0.0, SVG Export Plug-In . SVG Version: 6.00 Build 0)  -->
<!DOCTYPE svg PUBLIC "-//W3C//DTD SVG 1.1//EN" "http://www.w3.org/Graphics/SVG/1.1/DTD/svg11.dtd">
<svg version="1.1" id="Layer_1" xmlns="http://www.w3.org/2000/svg" xmlns:xlink="http://www.w3.org/1999/xlink" x="0px" y="0px"
	 width="63px" height="63px" viewBox="0 0 63 63" enable-background="new 0 0 63 63" xml:space="preserve">
<g id="Group_3579">
	
		<linearGradient id="Path_18942_1_" gradientUnits="userSpaceOnUse" x1="-269.2837" y1="421.8271" x2="-269.2837" y2="420.8271" gradientTransform="matrix(63 0 0 -63 16996.4063 26575.0625)">
		<stop  offset="0.13" style="stop-color:#00A9ED"/>
		<stop  offset="1" style="stop-color:#65106B"/>
	</linearGradient>
	<path id="Path_18942" fill="url(#Path_18942_1_)" d="M62.064,0H0.936C0.419,0,0,0.419,0,0.936l0,0v61.128
		C0,62.581,0.419,63,0.936,63l0,0h61.128C62.581,63,63,62.581,63,62.064l0,0V0.936C63,0.419,62.581,0,62.064,0L62.064,0z
		 M46.346,1.871c-1.133,0.267-2.27,0.561-3.41,0.882C37.678,4.26,32.576,6.266,27.7,8.744c-0.976-0.62-1.897-1.323-2.753-2.1
		c-1.504-1.284-2.66-2.927-3.36-4.776L46.346,1.871z M19.646,1.871c0.91,3.7,4.233,6.5,6.161,7.859
		c-3.925,2.075-7.679,4.461-11.223,7.135c-3.2-6.484-8.567-12.272-11.31-14.993L19.646,1.871z M1.871,3.126
		c2.689,2.672,8.2,8.594,11.243,15c-3.145,3.005-7.021,5.136-11.243,6.181V3.126z M1.871,26.226
		c4.294-0.957,8.277-2.981,11.581-5.887c0.055,1.059,0.1,2.53,0.072,4.338c-0.008,0.517,0.405,0.941,0.921,0.949
		c0,0,0.001,0,0.001,0h0.014c0.511,0,0.927-0.411,0.935-0.922c0.043-2.981-0.1-5.052-0.175-5.964
		c1.899-1.475,3.872-2.853,5.911-4.127c-0.083,1.317-0.062,2.638,0.063,3.951c0.251,3.792,1.725,7.401,4.2,10.286
		c-1.489,2.796-2.577,5.789-3.232,8.888c-2.457-1.063-4.976-1.977-7.543-2.734c0.329-2.461,0.53-4.717,0.645-6.711
		c0.014-0.517-0.394-0.947-0.911-0.961c-0.494-0.014-0.914,0.36-0.958,0.853c-0.274,4.653-0.91,9.278-1.9,13.833
		c-3.667,0.334-7.528,2.963-9.623,4.611v-20.4L1.871,26.226z M32.135,43.014c3.575-3.892,9.622-4.109,12.045-4.024
		c-0.473,4.055-1.279,8.063-2.416,11.983C38.899,47.928,35.664,45.254,32.135,43.014z M35.936,48.07
		c-8.641,4.936-21.622,5.348-25.719,5.347c1.882-5.374,3.265-10.909,4.133-16.536c7.823,2.364,15.141,6.158,21.582,11.189H35.936z
		 M39.091,37.482c-2.123-4.717-5.251-8.915-9.164-12.299c0.22-0.3,0.437-0.577,0.648-0.844c1.502-1.93,3.222-3.681,5.125-5.217
		c2.937-1.485,5.987-2.735,9.122-3.738c0.33,5.796,0.311,11.606-0.059,17.4c-0.093,1.383-0.214,2.841-0.373,4.342
		c-1.775-0.078-3.554,0.042-5.303,0.356H39.091z M37.229,37.923c-2.588,0.67-4.92,2.093-6.7,4.087
		c-2.034-1.223-4.131-2.338-6.283-3.339l-0.329-0.151c0.849-4.221,2.524-8.23,4.928-11.801c3.537,3.117,6.389,6.932,8.379,11.204
		H37.229z M1.871,61.129V49.063c1.043-0.906,2.146-1.741,3.3-2.5c1.768-1.248,3.767-2.132,5.879-2.601
		c-1.414,5.912-3.428,11.664-6.011,17.167H1.871z M7.104,61.129c0.903-1.971,1.714-3.918,2.431-5.842c0.225,0,0.5,0.006,0.826,0.006
		c3.008-0.008,6.013-0.186,9-0.533c7.547-0.88,13.624-2.699,18.083-5.404c1.295,1.146,2.516,2.374,3.656,3.675
		c-0.955,2.892-2.343,5.622-4.113,8.1H7.1L7.104,61.129z M39.268,61.129c2.352-3.779,4.053-7.927,5.032-12.27
		c0.333-1.328,0.634-2.721,0.9-4.176c1.851-0.775,3.796-1.305,5.784-1.574c0.054,3.109,0.488,12.244,3.666,18.02H39.268z
		 M61.129,42.54c-0.715-0.311-1.45-0.573-2.199-0.786c-0.504-0.121-1.009,0.188-1.13,0.69c-0.114,0.476,0.155,0.958,0.62,1.11
		c0.934,0.264,1.84,0.613,2.709,1.045v16.529h-4.3c-3.479-5.245-3.923-15.199-3.976-18.188c0.947-0.043,1.898-0.014,2.842,0.088
		c0.516,0.036,0.963-0.353,0.999-0.868c0.034-0.489-0.314-0.922-0.8-0.992c-3.5-0.331-7.031,0.13-10.328,1.351
		c0.477-2.994,0.832-6.217,1.059-9.64c0.02-0.296,0.039-0.591,0.055-0.884c1.933-1.761,3.721-3.674,5.348-5.72
		c0.16-0.2,0.318-0.4,0.472-0.6c1.981,3.288,5.021,5.807,8.62,7.143v9.722H61.129z M46.664,14.83
		c3.262-0.974,6.644-1.485,10.047-1.519C55.736,17.895,52.9,22.2,50.6,25.08c-1.178,1.474-2.438,2.879-3.775,4.21
		C47.087,22.447,46.793,16.821,46.664,14.83z M61.129,30.781c-3.186-1.318-5.801-3.724-7.379-6.789
		c2.336-3.15,3.988-6.754,4.85-10.58c0.852,0.081,1.695,0.224,2.526,0.427L61.129,30.781z M61.129,11.917
		c-4.586-1.014-10.29-0.441-16.979,1.709c-2.354,0.76-4.664,1.653-6.918,2.674l1.642-3.349c0.218-0.469,0.016-1.025-0.453-1.244
		c-0.456-0.212-0.998-0.026-1.228,0.421l-2.738,5.589c-1.967,1.595-3.748,3.406-5.309,5.4c-1.01,1.271-1.937,2.607-2.773,4
		C22.308,22.159,22.9,15.142,23.13,13.39c1.58-0.94,3.358-1.932,5.311-2.923c3.873-1.97,7.889-3.641,12.016-5l-1.791,3.658
		c-0.236,0.46-0.055,1.024,0.404,1.26c0.461,0.236,1.025,0.055,1.261-0.405c0.005-0.011,0.011-0.021,0.017-0.032l2.566-5.24
		c0.178-0.052,0.355-0.1,0.533-0.155c5.752-1.657,11.696-2.556,17.682-2.673V11.917z"/>
</g>
</svg>
