<?xml version="1.0" encoding="utf-8"?>
<!-- Generator: Adobe Illustrator 16.0.0, SVG Export Plug-In . SVG Version: 6.00 Build 0)  -->
<!DOCTYPE svg PUBLIC "-//W3C//DTD SVG 1.1//EN" "http://www.w3.org/Graphics/SVG/1.1/DTD/svg11.dtd">
<svg version="1.1" id="Layer_1" xmlns="http://www.w3.org/2000/svg" xmlns:xlink="http://www.w3.org/1999/xlink" x="0px" y="0px"
	 width="65px" height="65px" viewBox="0 0 65 65" enable-background="new 0 0 65 65" xml:space="preserve">
<g id="outline" transform="translate(-5.692 -8.021)">
	
		<linearGradient id="Path_16320_1_" gradientUnits="userSpaceOnUse" x1="-255.3515" y1="426.0757" x2="-255.3515" y2="425.0757" gradientTransform="matrix(23.3601 0 0 -36.085 6023.001 15408.2324)">
		<stop  offset="0" style="stop-color:#00A9E0"/>
		<stop  offset="1" style="stop-color:#801C7D"/>
	</linearGradient>
	<path id="Path_16320" fill="url(#Path_16320_1_)" d="M66.082,33.305c-1.964,0-3.556,1.591-3.557,3.555v9.751
		c-1.264-1.477-3.485-1.65-4.963-0.387c-0.139,0.117-0.268,0.248-0.386,0.387l-4.434,5.184c-3.985,2.063-6.482,6.182-6.469,10.668
		v6.393H48.3v-6.393c-0.011-3.791,2.135-7.26,5.532-8.945c0.12-0.061,0.229-0.145,0.316-0.246l4.564-5.326
		c0.545-0.619,1.489-0.68,2.108-0.135c0.62,0.545,0.681,1.49,0.136,2.109l0,0l-5.301,6.086c-0.395,0.4-0.391,1.043,0.009,1.438
		c0.399,0.396,1.043,0.393,1.438-0.008l0,0c0.03-0.029,0.058-0.061,0.082-0.094l7.115-8.125c0.162-0.186,0.252-0.426,0.251-0.674
		V36.859c0-0.842,0.683-1.525,1.525-1.525s1.525,0.683,1.525,1.525v13.994c0,0.953-0.268,1.885-0.771,2.691l-9.23,14.77l1.729,1.076
		l9.229-14.77c0.706-1.131,1.079-2.438,1.077-3.77V36.859c0.002-1.961-1.587-3.552-3.548-3.554
		C66.085,33.305,66.083,33.305,66.082,33.305z"/>
	
		<linearGradient id="Path_16321_1_" gradientUnits="userSpaceOnUse" x1="-255.3529" y1="426.0776" x2="-255.3529" y2="425.0776" gradientTransform="matrix(23.3621 0 0 -36.087 5985.9546 15409.127)">
		<stop  offset="0" style="stop-color:#00A9E0"/>
		<stop  offset="1" style="stop-color:#801C7D"/>
	</linearGradient>
	<path id="Path_16321" fill="url(#Path_16321_1_)" d="M19.007,69.392l1.727-1.078l-9.233-14.77c-0.505-0.807-0.772-1.74-0.771-2.691
		V36.859c0-0.842,0.683-1.525,1.525-1.525c0.842,0,1.524,0.683,1.524,1.525l0,0v11.68c0.001,0.246,0.09,0.484,0.252,0.67
		l7.109,8.125c0.344,0.445,0.981,0.525,1.426,0.182c0.443-0.344,0.524-0.98,0.182-1.426c-0.026-0.031-0.054-0.061-0.082-0.09
		l-5.306-6.092c-0.552-0.613-0.502-1.559,0.112-2.111s1.56-0.502,2.112,0.111l0.026,0.031l4.564,5.324
		c0.088,0.104,0.195,0.188,0.316,0.248c3.398,1.686,5.544,5.156,5.531,8.949v6.393h2.031v-6.4c0.015-4.488-2.483-8.607-6.469-10.67
		l-4.435-5.174c-1.212-1.406-3.305-1.635-4.792-0.525c-0.204,0.152-0.391,0.326-0.557,0.52v-9.744c0-1.963-1.592-3.555-3.555-3.555
		c-1.964,0-3.556,1.591-3.556,3.555v13.994c-0.001,1.334,0.372,2.639,1.077,3.77L19.007,69.392z"/>
	
		<linearGradient id="Path_16322_1_" gradientUnits="userSpaceOnUse" x1="-260.1615" y1="417.1802" x2="-260.1615" y2="416.1802" gradientTransform="matrix(40.26 0 0 -19.9068 10513.3594 8336.3984)">
		<stop  offset="0" style="stop-color:#00A9E0"/>
		<stop  offset="1" style="stop-color:#801C7D"/>
	</linearGradient>
	<path id="Path_16322" fill="url(#Path_16322_1_)" d="M23.489,39.329L38.53,51.363c0.381,0.303,0.923,0.295,1.293-0.02L55.188,38.28
		c1.857-1.582,3.305-3.589,4.218-5.852l-1.885-0.75c-0.789,1.957-2.04,3.694-3.646,5.062L39.145,49.25L24.756,37.742
		c-1.619-1.297-2.906-2.96-3.756-4.852l-1.854,0.828c0.981,2.188,2.469,4.111,4.34,5.611H23.489z"/>
	
		<linearGradient id="Path_16323_1_" gradientUnits="userSpaceOnUse" x1="-262.4169" y1="420.1147" x2="-262.4169" y2="419.1147" gradientTransform="matrix(60.935 0 0 -23.3607 16029.5273 9829.1582)">
		<stop  offset="0" style="stop-color:#00A9E0"/>
		<stop  offset="1" style="stop-color:#801C7D"/>
	</linearGradient>
	<path id="Path_16323" fill="url(#Path_16323_1_)" d="M60.496,26.809c0-6.51-5.277-11.787-11.787-11.788
		c-3.127,0-6.127,1.243-8.337,3.455l-1.205,1.2l-1.206-1.2c-4.604-4.604-12.066-4.604-16.67-0.001
		c-2.21,2.211-3.452,5.209-3.452,8.335v0.761c0.003,0.559,0.036,1.116,0.1,1.671H8.7v2.031h20.31c0.356,0,0.688-0.187,0.872-0.492
		l2.165-3.607l6.245,10.7c0.181,0.314,0.515,0.507,0.877,0.508h0.02c0.368-0.007,0.703-0.212,0.876-0.538l7.261-13.61l3.147,5.513
		c0.183,0.315,0.52,0.509,0.884,0.509h18.279v-2.03h-9.21C60.468,27.755,60.496,27.283,60.496,26.809z M58.378,28.226h-6.436
		l-3.769-6.6c-0.281-0.486-0.903-0.652-1.39-0.371c-0.165,0.095-0.299,0.234-0.389,0.402l-7.27,13.628l-6.192-10.613
		c-0.18-0.312-0.511-0.505-0.871-0.508h-0.006c-0.356,0-0.687,0.188-0.87,0.493l-2.751,4.586h-8.446
		c-0.075-0.554-0.116-1.112-0.121-1.671v-0.761c0-5.389,4.368-9.757,9.757-9.758c2.588,0,5.069,1.028,6.899,2.858l1.924,1.923
		c0.397,0.396,1.04,0.396,1.437,0l1.922-1.923c3.812-3.811,9.989-3.81,13.8,0.002c1.829,1.83,2.857,4.311,2.857,6.898
		C58.46,27.284,58.43,27.756,58.378,28.226z"/>
</g>
</svg>
