<svg xmlns="http://www.w3.org/2000/svg" xmlns:xlink="http://www.w3.org/1999/xlink" width="71.998" height="66.588" viewBox="0 0 71.998 66.588">
  <defs>
    <linearGradient id="linear-gradient" x1="0.5" x2="0.5" y2="1" gradientUnits="objectBoundingBox">
      <stop offset="0.13" stop-color="#00a9ed"/>
      <stop offset="1" stop-color="#65106b"/>
    </linearGradient>
  </defs>
  <path id="Union_51" data-name="Union 51" d="M-2035.521,20184.586a1.4,1.4,0,0,1-1.4-1.408v-16.615a15.143,15.143,0,0,1,4.488-10.719l9.8-9.66v-10.4a4.267,4.267,0,0,1,4.26-4.266l.152.006a4.124,4.124,0,0,1,.709.086v-1.039a4.293,4.293,0,0,1,4.058-4.336,4.528,4.528,0,0,1,3.293,1.205,3.5,3.5,0,0,1,1.13,2.543c0,3.318.02,18.77.03,23.605v.34a12.893,12.893,0,0,1-4.189,9.18.4.4,0,0,1-.071.061l-10.967,8.844v11.166a1.4,1.4,0,0,1-1.4,1.408Zm15.192-36.727-.015.016-10.121,9.969a12.338,12.338,0,0,0-3.647,8.719v15.211h7.072v-10.43a1.423,1.423,0,0,1,.522-1.1l11.453-9.234a10.057,10.057,0,0,0,3.252-7.133v-.283c-.015-4.838-.035-20.293-.035-23.611a.7.7,0,0,0-.253-.506,1.727,1.727,0,0,0-1.221-.436,1.506,1.506,0,0,0-1.378,1.529v17.285a3.66,3.66,0,0,1,.111.521,4.57,4.57,0,0,1-1.246,3.895l-4.99,5.188a1.408,1.408,0,0,1-1.991.041,1.4,1.4,0,0,1-.036-1.986l4.995-5.2c.005-.006.005-.01.01-.016a1.725,1.725,0,0,0,.481-1.488,1.726,1.726,0,0,0-.461-.937l-.187-.168a1.73,1.73,0,0,0-1.071-.371A1.741,1.741,0,0,0-2020.329,20147.859Zm2.817-3.055v-10.191a1.446,1.446,0,0,0-.8-.279h-.071a1.45,1.45,0,0,0-1.439,1.449v8.793a4.755,4.755,0,0,1,.726-.057A4.523,4.523,0,0,1-2017.512,20144.8Zm-46.852,39.781a1.406,1.406,0,0,1-1.408-1.408v-11.166l-10.967-8.844a.372.372,0,0,1-.066-.061,12.873,12.873,0,0,1-4.189-9.18c-.005-.111-.005-.223-.005-.34.015-4.836.035-20.287.035-23.605a3.514,3.514,0,0,1,1.125-2.543,4.544,4.544,0,0,1,3.293-1.205,4.29,4.29,0,0,1,4.058,4.336v1.039a4.245,4.245,0,0,1,.714-.086l.147-.006a4.272,4.272,0,0,1,4.265,4.266v10.4l9.8,9.66a15.142,15.142,0,0,1,4.488,10.719v16.615a1.409,1.409,0,0,1-1.408,1.408Zm-13.535-55.109a.718.718,0,0,0-.253.506c0,3.318-.02,18.773-.035,23.611,0,.1,0,.188,0,.283a10.073,10.073,0,0,0,3.247,7.133l11.454,9.234a1.424,1.424,0,0,1,.522,1.1v10.43h7.072v-15.211a12.317,12.317,0,0,0-3.647-8.719l-10.121-9.969-.015-.016a1.734,1.734,0,0,0-2.315-.152c-.045.041-.137.127-.182.168a1.694,1.694,0,0,0-.461.938,1.707,1.707,0,0,0,.476,1.488l.015.016,9.914,10.369a1.4,1.4,0,0,1-.046,1.986,1.408,1.408,0,0,1-1.991-.041l-9.9-10.363a4.558,4.558,0,0,1-1.246-3.891,4.56,4.56,0,0,1,.111-.521v-17.285a1.506,1.506,0,0,0-1.378-1.529c-.023,0-.047,0-.071,0A1.733,1.733,0,0,0-2077.9,20129.477Zm5.41,5.137v10.191a4.582,4.582,0,0,1,2.31-.229v-8.793a1.449,1.449,0,0,0-1.449-1.449h-.056A1.476,1.476,0,0,0-2072.49,20134.613Zm45.419,27.623a1.425,1.425,0,0,1-.542-1.506,1.417,1.417,0,0,1,1.231-1.037,1.406,1.406,0,0,1,1.423.861,1.42,1.42,0,0,1-.5,1.7,1.4,1.4,0,0,1-.8.246A1.4,1.4,0,0,1-2027.071,20162.236Zm-14.265-6.605a4.658,4.658,0,0,1-3.394-1.281c-.1-.1-.182-.193-.268-.295-.086.1-.177.2-.274.295a4.638,4.638,0,0,1-3.389,1.281h-.1a6.406,6.406,0,0,1-5.663-3.318c-4.052-.2-6.545-2.812-6.545-6.914a6.955,6.955,0,0,1,.056-.922c-2.72-1.738-3.89-4.059-3.89-7.66s1.17-5.928,3.89-7.664a6.977,6.977,0,0,1-.056-.918c0-4.107,2.492-6.717,6.545-6.918a6.4,6.4,0,0,1,5.663-3.318,4.688,4.688,0,0,1,3.485,1.285,3.006,3.006,0,0,1,.274.295,2.932,2.932,0,0,1,.268-.295,4.688,4.688,0,0,1,3.485-1.285,6.4,6.4,0,0,1,5.663,3.318c4.052.2,6.545,2.811,6.545,6.918a7.95,7.95,0,0,1-.051.918c2.715,1.736,3.885,4.063,3.885,7.664s-1.17,5.922-3.885,7.66a7.922,7.922,0,0,1,.051.922c0,4.1-2.492,6.717-6.545,6.914a6.406,6.406,0,0,1-5.663,3.318Zm-1.418-34.346a4.645,4.645,0,0,0-.841,3.207v24.648a4.628,4.628,0,0,0,.841,3.2,1.946,1.946,0,0,0,1.474.477,3.719,3.719,0,0,0,2.9-1.348,4.421,4.421,0,0,1-1.479-4.562,1.4,1.4,0,0,1,1.717-1,1.405,1.405,0,0,1,1,1.721,1.6,1.6,0,0,0,.917,1.885h.142c2.817,0,4.24-1.387,4.24-4.117a5.2,5.2,0,0,0-.091-.969,1.982,1.982,0,0,1,.957-2.092c2.188-1.262,2.969-2.705,2.969-5.521s-.78-4.26-2.974-5.527a1.982,1.982,0,0,1-.952-2.092,5.087,5.087,0,0,0,.091-.963c0-2.547-1.241-3.926-3.693-4.1a5.034,5.034,0,0,1-1.91,1.951,4.99,4.99,0,0,1-2.523.684,5.139,5.139,0,0,1-1.317-.172,1.409,1.409,0,0,1-1-1.723,1.413,1.413,0,0,1,1.727-1,2.228,2.228,0,0,0,1.7-.223,2.238,2.238,0,0,0,.861-.893,3.614,3.614,0,0,0-3.283-1.949h-.059A1.929,1.929,0,0,0-2042.755,20121.285Zm-8.384,28.691a2.247,2.247,0,0,0-.866.887,3.616,3.616,0,0,0,3.288,1.955,1.969,1.969,0,0,0,1.474-.477,4.63,4.63,0,0,0,.836-3.2v-24.648a4.648,4.648,0,0,0-.836-3.207,1.976,1.976,0,0,0-1.474-.471,3.71,3.71,0,0,0-2.9,1.342,4.421,4.421,0,0,1,1.484,4.564,1.409,1.409,0,0,1-1.357,1.049,1.3,1.3,0,0,1-.365-.051,1.405,1.405,0,0,1-1-1.717,1.608,1.608,0,0,0-.917-1.891.845.845,0,0,1-.122.006h-.02c-2.812,0-4.24,1.383-4.24,4.117a5.117,5.117,0,0,0,.091.963,1.974,1.974,0,0,1-.952,2.092c-2.193,1.262-2.969,2.711-2.969,5.527s.775,4.26,2.969,5.521a1.978,1.978,0,0,1,.952,2.092,5.194,5.194,0,0,0-.091.969c0,2.547,1.241,3.926,3.693,4.1a5,5,0,0,1,1.915-1.955,5.011,5.011,0,0,1,3.84-.508,1.406,1.406,0,0,1,.993,1.723,1.407,1.407,0,0,1-1.722.994,2.209,2.209,0,0,0-.583-.08A2.218,2.218,0,0,0-2051.138,20149.977Zm14.979-8.971a1.407,1.407,0,0,1,0-1.986,1.29,1.29,0,0,0,.1-.1,1.257,1.257,0,0,0,.233-1.383,1.284,1.284,0,0,0-1.2-.785,1.4,1.4,0,0,1-1.4-1.408,1.4,1.4,0,0,1,1.4-1.4,4.057,4.057,0,0,1,3.774,2.477,4.028,4.028,0,0,1-.755,4.422c-.051.057-.106.117-.167.174a1.4,1.4,0,0,1-.993.41A1.382,1.382,0,0,1-2036.159,20141.006Zm-19.67,0c-.056-.057-.111-.111-.167-.172a4.039,4.039,0,0,1-.755-4.418,4.067,4.067,0,0,1,3.774-2.482,1.411,1.411,0,0,1,1.408,1.408,1.411,1.411,0,0,1-1.408,1.408,1.291,1.291,0,0,0-1.2.785,1.267,1.267,0,0,0,.233,1.383,1.019,1.019,0,0,1,.1.1,1.4,1.4,0,0,1,.005,1.986,1.427,1.427,0,0,1-1,.416A1.382,1.382,0,0,1-2055.829,20141.006Z" transform="translate(2081 -20117.998)" fill="url(#linear-gradient)"/>
</svg>
