<?xml version="1.0" encoding="utf-8"?>
<!-- Generator: Adobe Illustrator 14.0.0, SVG Export Plug-In . SVG Version: 6.00 Build 43363)  -->
<!DOCTYPE svg PUBLIC "-//W3C//DTD SVG 1.1//EN" "http://www.w3.org/Graphics/SVG/1.1/DTD/svg11.dtd">
<svg version="1.1" id="Layer_1" xmlns="http://www.w3.org/2000/svg" xmlns:xlink="http://www.w3.org/1999/xlink" x="0px" y="0px"
	 width="51.666px" height="62px" viewBox="0 0 51.666 62" enable-background="new 0 0 51.666 62" xml:space="preserve">
<g id="outline" transform="translate(-56 -16)">
	
		<linearGradient id="Path_17490_1_" gradientUnits="userSpaceOnUse" x1="64.4688" y1="60.6055" x2="64.4688" y2="59.6055" gradientTransform="matrix(39.2602 0 0 -32.0307 -2448.1992 1968.5825)">
		<stop  offset="0.13" style="stop-color:#00A9ED"/>
		<stop  offset="1" style="stop-color:#65106B"/>
	</linearGradient>
	<path id="Path_17490" fill="url(#Path_17490_1_)" d="M83.112,27.731c-0.197,0.232-0.281,0.538-0.231,0.838l0.819,4.912
		c-0.73-0.405-1.4-0.91-1.991-1.5l-1.211-1.211l-1.461,1.461l1.211,1.211c0.315,0.315,0.649,0.611,1,0.886
		c-2.089,0.907-3.774,2.544-4.742,4.606c-1.599-1.627-4.214-1.649-5.841-0.051c-0.936,0.92-1.379,2.23-1.193,3.53
		c-1.961-1.166-4.496-0.521-5.662,1.44c-0.783,1.318-0.771,2.963,0.03,4.271c-0.371,0.166-0.61,0.535-0.61,0.941v8.268
		c0,0.57,0.463,1.033,1.033,1.033c0.002,0,0.002,0,0.004,0h12.399c0.241,0,0.475-0.084,0.66-0.238
		c0.502,0.156,1.025,0.238,1.552,0.238h5.301c2.381,1.375,5.317,1.375,7.699,0h5.301c1.728,0.002,3.342-0.861,4.299-2.301l0.84-1.26
		c0.271-0.408,0.218-0.951-0.129-1.299l-1.764-1.764v-8.877c-0.004-3.711-2.211-7.066-5.617-8.539c0.352-0.275,0.686-0.571,1-0.886
		l1.211-1.211l-1.461-1.461l-1.211,1.211c-0.59,0.59-1.261,1.095-1.99,1.5l0.818-4.912c0.092-0.563-0.289-1.094-0.852-1.187
		c-0.056-0.009-0.111-0.013-0.167-0.013H83.89c-0.305,0-0.592,0.133-0.789,0.365L83.112,27.731z M71.5,54.23h2.067
		c0,0.205,0.06,0.404,0.173,0.574l0.84,1.258c0.053,0.08,0.108,0.158,0.167,0.234h-3.246L71.5,54.23z M75.633,51.736l-0.428,0.428
		H71.5v-2.066h4.133V51.736z M65.3,50.098h4.133v2.068H65.3V50.098z M75.633,48.029H71.5v-2.063h4.133V48.029z M73.565,39.764
		c1.143,0,2.067,0.925,2.067,2.067s-0.925,2.067-2.067,2.067c-1.141,0-2.066-0.925-2.066-2.067S72.425,39.764,73.565,39.764
		L73.565,39.764z M67.366,43.896c1.142,0,2.066,0.925,2.066,2.067s-0.925,2.066-2.066,2.066s-2.067-0.924-2.067-2.066
		S66.225,43.896,67.366,43.896L67.366,43.896z M65.299,54.229h4.134v2.068H65.3L65.299,54.229z M98.366,42.867v9.299
		c-0.001,0.273,0.107,0.537,0.3,0.73l1.467,1.471l-0.37,0.553c-0.574,0.863-1.542,1.383-2.578,1.381h-5.59
		c-0.195,0-0.387,0.055-0.552,0.16c-1.839,1.164-4.187,1.164-6.026,0c-0.164-0.105-0.355-0.16-0.551-0.16h-5.59
		c-1.037,0.002-2.005-0.518-2.579-1.381l-0.364-0.553l1.469-1.469c0.192-0.195,0.301-0.457,0.3-0.73v-9.3
		c0.005-3.491,2.499-6.482,5.933-7.114c2.807,1.219,5.994,1.219,8.801,0C95.866,36.386,98.36,39.376,98.366,42.867z M90.946,29.434
		l-0.82,4.92c-1.377,0.329-2.811,0.329-4.188,0l-0.819-4.92H90.946z"/>
	
		<linearGradient id="Path_17491_1_" gradientUnits="userSpaceOnUse" x1="62.7563" y1="66.1133" x2="62.7563" y2="65.1133" gradientTransform="matrix(51.666 0 0 -62.001 -3160.5181 4115.0801)">
		<stop  offset="0.13" style="stop-color:#00A9ED"/>
		<stop  offset="1" style="stop-color:#65106B"/>
	</linearGradient>
	<path id="Path_17491" fill="url(#Path_17491_1_)" d="M106.96,24.319l-24.8-8.267c-0.212-0.07-0.442-0.07-0.654,0l-24.8,8.267
		C56.284,24.46,56,24.855,56,25.3v17.258c-0.015,16.061,10.265,30.324,25.506,35.389c0.212,0.07,0.441,0.07,0.653,0
		c15.241-5.064,25.521-19.326,25.507-35.388V25.3C107.666,24.855,107.381,24.461,106.96,24.319L106.96,24.319z M105.601,42.559
		c0.014,15.045-9.537,28.434-23.768,33.316c-14.229-4.883-23.78-18.273-23.766-33.316V26.044l23.767-7.922l23.767,7.922V42.559z"/>
	
		<linearGradient id="Path_17493_1_" gradientUnits="userSpaceOnUse" x1="67.3262" y1="45.5093" x2="67.3262" y2="44.5088" gradientTransform="matrix(28.037 0 0 -13.7783 -1805.7252 687.1265)">
		<stop  offset="0.13" style="stop-color:#00A9ED"/>
		<stop  offset="1" style="stop-color:#65106B"/>
	</linearGradient>
	<path id="Path_17493" fill="url(#Path_17493_1_)" d="M86.101,69.328l-4.269,2.328l-4.269-2.328c-1.823-0.994-3.447-2.316-4.791-3.9
		c-1.313-1.57-2.31-3.377-2.939-5.324l-1.96,0.654c0.713,2.197,1.841,4.238,3.324,6.01c1.508,1.775,3.331,3.258,5.377,4.373
		l4.762,2.6c0.309,0.168,0.682,0.168,0.99,0l4.762-2.6c4.122-2.246,7.265-5.939,8.822-10.367l-1.949-0.686
		C92.575,64.035,89.773,67.328,86.101,69.328z"/>
	
		<linearGradient id="Path_17494_1_" gradientUnits="userSpaceOnUse" x1="67.6362" y1="51.459" x2="67.6362" y2="50.459" gradientTransform="matrix(27.1932 0 0 -17.7691 -1764.4705 935.549)">
		<stop  offset="0.13" style="stop-color:#00A9ED"/>
		<stop  offset="1" style="stop-color:#65106B"/>
	</linearGradient>
	<path id="Path_17494" fill="url(#Path_17494_1_)" d="M81.476,21.23l-19.633,7.236c-0.477,0.176-0.756,0.673-0.656,1.172l1.86,9.3
		l2.026-0.405l-1.688-8.433l18.465-6.8l5.855,1.952l0.654-1.961l-6.2-2.067C81.938,21.149,81.696,21.151,81.476,21.23z"/>
</g>
</svg>
