<?xml version="1.0" encoding="utf-8"?>
<!-- Generator: Adobe Illustrator 14.0.0, SVG Export Plug-In . SVG Version: 6.00 Build 43363)  -->
<!DOCTYPE svg PUBLIC "-//W3C//DTD SVG 1.1//EN" "http://www.w3.org/Graphics/SVG/1.1/DTD/svg11.dtd">
<svg version="1.1" id="depreciation" xmlns="http://www.w3.org/2000/svg" xmlns:xlink="http://www.w3.org/1999/xlink" x="0px"
	 y="0px" width="65px" height="65px" viewBox="0 0 65 65" enable-background="new 0 0 65 65" xml:space="preserve">
<g id="Outline" transform="translate(-2 -2)">
	
		<linearGradient id="Path_17535_1_" gradientUnits="userSpaceOnUse" x1="20.8931" y1="16.1069" x2="20.8931" y2="15.1069" gradientTransform="matrix(25.2 0 0 -8.4 -501.4531 142.5)">
		<stop  offset="0.13" style="stop-color:#00A9ED"/>
		<stop  offset="1" style="stop-color:#65106B"/>
	</linearGradient>
	<path id="Path_17535" fill="url(#Path_17535_1_)" d="M37.65,14.55v-6.3c0-0.58-0.471-1.05-1.051-1.05H13.5
		c-0.58,0-1.05,0.47-1.05,1.05l0,0v6.3c0,0.58,0.47,1.05,1.05,1.05l0,0h23.1C37.18,15.6,37.65,15.13,37.65,14.55z M35.55,13.5h-21
		V9.3h21V13.5z"/>
	
		<linearGradient id="Path_17536_1_" gradientUnits="userSpaceOnUse" x1="28.6733" y1="34.7041" x2="28.6733" y2="33.7041" gradientTransform="matrix(14.7 0 0 -14.7 -405.8984 528.8984)">
		<stop  offset="0.13" style="stop-color:#00A9ED"/>
		<stop  offset="1" style="stop-color:#65106B"/>
	</linearGradient>
	<path id="Path_17536" fill="url(#Path_17536_1_)" d="M8.25,19.8v12.6c0,0.58,0.47,1.05,1.05,1.05l0,0h12.6
		c0.58,0,1.05-0.47,1.05-1.05v-6.05l-2.1,2.1v2.9h-10.5v-10.5h9.2l2.1-2.1H9.3C8.72,18.75,8.25,19.22,8.25,19.8z"/>
	
		<linearGradient id="Path_17537_1_" gradientUnits="userSpaceOnUse" x1="31.0581" y1="23.7378" x2="31.0581" y2="22.7378" gradientTransform="matrix(13.035 0 0 -10.1926 -385.5765 261.0135)">
		<stop  offset="0.13" style="stop-color:#00A9ED"/>
		<stop  offset="1" style="stop-color:#65106B"/>
	</linearGradient>
	<path id="Path_17537" fill="url(#Path_17537_1_)" d="M24.308,19.058l-7.658,7.658l-2.408-2.408l-1.485,1.485l3.15,3.15
		c0.41,0.41,1.075,0.41,1.485,0l0,0l8.4-8.4L24.308,19.058z"/>
	
		<linearGradient id="Path_17538_1_" gradientUnits="userSpaceOnUse" x1="28.6733" y1="34.7036" x2="28.6733" y2="33.7036" gradientTransform="matrix(14.7 0 0 -14.7 -405.8984 546.75)">
		<stop  offset="0.13" style="stop-color:#00A9ED"/>
		<stop  offset="1" style="stop-color:#65106B"/>
	</linearGradient>
	<path id="Path_17538" fill="url(#Path_17538_1_)" d="M8.25,50.25c0,0.58,0.47,1.05,1.05,1.05h12.6c0.58,0,1.05-0.47,1.05-1.05V44.2
		l-2.1,2.1v2.9h-10.5V38.7h9.2l2.1-2.101H9.3c-0.58,0-1.05,0.471-1.05,1.051V50.25z"/>
	
		<linearGradient id="Path_17539_1_" gradientUnits="userSpaceOnUse" x1="31.0591" y1="23.7388" x2="31.0591" y2="22.7388" gradientTransform="matrix(13.035 0 0 -10.1926 -385.5765 278.8652)">
		<stop  offset="0.13" style="stop-color:#00A9ED"/>
		<stop  offset="1" style="stop-color:#65106B"/>
	</linearGradient>
	<path id="Path_17539" fill="url(#Path_17539_1_)" d="M14.243,42.158l-1.485,1.484l3.15,3.15c0.41,0.41,1.075,0.41,1.485,0l0,0
		l8.4-8.4l-1.485-1.484l-7.658,7.658L14.243,42.158z"/>
	
		<linearGradient id="Path_17540_1_" gradientUnits="userSpaceOnUse" x1="30.1099" y1="-114.0713" x2="30.1099" y2="-115.0718" gradientTransform="matrix(13.65 0 0 -2.1 -375.9766 -213.4492)">
		<stop  offset="0.13" style="stop-color:#00A9ED"/>
		<stop  offset="1" style="stop-color:#65106B"/>
	</linearGradient>
	<path id="Path_17540" fill="url(#Path_17540_1_)" d="M28.2,26.1H41.85v2.1H28.2V26.1z"/>
	
		<linearGradient id="Path_17541_1_" gradientUnits="userSpaceOnUse" x1="30.1099" y1="-114.0713" x2="30.1099" y2="-115.0718" gradientTransform="matrix(13.65 0 0 -2.1 -375.9766 -218.6992)">
		<stop  offset="0.13" style="stop-color:#00A9ED"/>
		<stop  offset="1" style="stop-color:#65106B"/>
	</linearGradient>
	<path id="Path_17541" fill="url(#Path_17541_1_)" d="M28.2,20.85H41.85v2.1H28.2V20.85z"/>
	
		<linearGradient id="Path_17542_1_" gradientUnits="userSpaceOnUse" x1="53.5713" y1="-114.0718" x2="53.5713" y2="-115.0718" gradientTransform="matrix(6.3 0 0 -2.1 -306.1484 -200.8496)">
		<stop  offset="0.13" style="stop-color:#00A9ED"/>
		<stop  offset="1" style="stop-color:#65106B"/>
	</linearGradient>
	<path id="Path_17542" fill="url(#Path_17542_1_)" d="M28.2,38.7h6.3v2.1h-6.3V38.7z"/>
	
		<linearGradient id="Path_17543_1_" gradientUnits="userSpaceOnUse" x1="53.5713" y1="-114.0718" x2="53.5713" y2="-115.0718" gradientTransform="matrix(6.3 0 0 -2.1 -306.1484 -195.5997)">
		<stop  offset="0.13" style="stop-color:#00A9ED"/>
		<stop  offset="1" style="stop-color:#65106B"/>
	</linearGradient>
	<path id="Path_17543" fill="url(#Path_17543_1_)" d="M28.2,43.95h6.3v2.1h-6.3V43.95z"/>
	
		<linearGradient id="Path_17544_1_" gradientUnits="userSpaceOnUse" x1="16.2246" y1="53.7158" x2="16.2246" y2="52.7158" gradientTransform="matrix(44.1 0 0 -63 -690.4374 3387)">
		<stop  offset="0.13" style="stop-color:#00A9ED"/>
		<stop  offset="1" style="stop-color:#65106B"/>
	</linearGradient>
	<path id="Path_17544" fill="url(#Path_17544_1_)" d="M5.1,63.9V5.1H45v22.424c0.709-0.248,1.408-0.519,2.1-0.812V4.05
		C47.1,3.47,46.63,3,46.05,3h-42C3.47,3,3,3.47,3,4.05v60.9C3,65.529,3.47,66,4.05,66h42c0.11-0.004,0.22-0.026,0.323-0.064
		c-0.991-0.613-1.939-1.293-2.837-2.035H5.1z"/>
	
		<linearGradient id="Path_17545_1_" gradientUnits="userSpaceOnUse" x1="19.3369" y1="50.1182" x2="19.3369" y2="49.1182" gradientTransform="matrix(29.4 0 0 -38.85 -517.2032 1974.22)">
		<stop  offset="0.13" style="stop-color:#00A9ED"/>
		<stop  offset="1" style="stop-color:#65106B"/>
	</linearGradient>
	<path id="Path_17545" fill="url(#Path_17545_1_)" d="M65.064,31.356c-4.644-0.503-9.148-1.889-13.271-4.083
		c-0.309-0.164-0.679-0.164-0.986,0c-4.124,2.194-8.629,3.58-13.271,4.083C37.003,31.415,36.6,31.864,36.6,32.4v12.437
		c0.061,9.274,5.706,17.597,14.301,21.082c0.258,0.108,0.549,0.108,0.808,0C60.299,62.432,65.941,54.109,66,44.837V32.4
		C66,31.864,65.597,31.414,65.064,31.356z M63.9,44.837c-0.059,8.265-5.004,15.712-12.601,18.97
		c-7.596-3.258-12.542-10.705-12.6-18.97V33.329c4.395-0.584,8.657-1.918,12.6-3.944c3.943,2.026,8.206,3.361,12.601,3.944V44.837z"
		/>
	
		<linearGradient id="Path_17546_1_" gradientUnits="userSpaceOnUse" x1="23.4653" y1="34.1743" x2="23.4653" y2="33.1743" gradientTransform="matrix(20.385 0 0 -14.3926 -427.0532 529.8182)">
		<stop  offset="0.13" style="stop-color:#00A9ED"/>
		<stop  offset="1" style="stop-color:#65106B"/>
	</linearGradient>
	<path id="Path_17546" fill="url(#Path_17546_1_)" d="M42.593,44.258l-1.485,1.485l6.301,6.3c0.41,0.41,1.074,0.41,1.484,0l0,0
		l12.601-12.6l-1.485-1.485L48.15,49.816L42.593,44.258z"/>
	
		<linearGradient id="Path_17547_1_" gradientUnits="userSpaceOnUse" x1="47.3477" y1="-114.0713" x2="47.3477" y2="-115.0713" gradientTransform="matrix(7.35 0 0 -2.1 -317.1757 -180.9004)">
		<stop  offset="0.13" style="stop-color:#00A9ED"/>
		<stop  offset="1" style="stop-color:#65106B"/>
	</linearGradient>
	<path id="Path_17547" fill="url(#Path_17547_1_)" d="M27.15,58.65h7.35v2.1h-7.35V58.65z"/>
	
		<linearGradient id="Path_17548_1_" gradientUnits="userSpaceOnUse" x1="26.3394" y1="-114.0713" x2="26.3394" y2="-115.0713" gradientTransform="matrix(16.8 0 0 -2.1 -416.4063 -185.0997)">
		<stop  offset="0.13" style="stop-color:#00A9ED"/>
		<stop  offset="1" style="stop-color:#65106B"/>
	</linearGradient>
	<path id="Path_17548" fill="url(#Path_17548_1_)" d="M17.7,54.45h16.8v2.1H17.7V54.45z"/>
</g>
</svg>
