<?xml version="1.0" encoding="utf-8"?>
<!-- Generator: Adobe Illustrator 16.0.0, SVG Export Plug-In . SVG Version: 6.00 Build 0)  -->
<!DOCTYPE svg PUBLIC "-//W3C//DTD SVG 1.1//EN" "http://www.w3.org/Graphics/SVG/1.1/DTD/svg11.dtd">
<svg version="1.1" id="Layer_1" xmlns="http://www.w3.org/2000/svg" xmlns:xlink="http://www.w3.org/1999/xlink" x="0px" y="0px"
	 width="65px" height="65px" viewBox="0 0 65 65" enable-background="new 0 0 65 65" xml:space="preserve">
<g id="Group_3525" transform="translate(-672.988 -731.271)">
	
		<linearGradient id="Subtraction_5_1_" gradientUnits="userSpaceOnUse" x1="404.4914" y1="1153.8325" x2="404.4914" y2="1152.8325" gradientTransform="matrix(66.0891 0 0 -60.571 -26026.4551 70624.2344)">
		<stop  offset="0.13" style="stop-color:#00A9ED"/>
		<stop  offset="1" style="stop-color:#65106B"/>
	</linearGradient>
	<path id="Subtraction_5" fill="url(#Subtraction_5_1_)" d="M702.177,796c-7.592,0-13.768-6.629-13.768-14.776v-1.88
		c-1.6,0-3.3-1.158-3.3-4.405v-2.771c-3.407-0.862-6.454-2.778-8.707-5.476c-1.073-1.294-1.922-2.757-2.513-4.33
		c-0.594-1.586-0.899-3.267-0.9-4.96v-2.291h2.2v-14.319c0.004-2.533,1.739-4.735,4.2-5.334v2.315c-1.208,0.518-1.994,1.704-2,3.019
		v14.319h3.3v2.328c0.072,3.833,2.64,7.168,6.327,8.218c1.971,0.625,4.087,0.625,6.058,0c3.69-1.047,6.264-4.383,6.34-8.218v-2.328
		h2.2l-0.05-14.329c-0.018-1.349-0.846-2.554-2.099-3.053v-2.3c2.51,0.559,4.301,2.777,4.317,5.349l0.046,14.335h2.2v2.3
		c-0.001,1.692-0.306,3.371-0.9,4.955c-0.589,1.572-1.437,3.035-2.508,4.328c-2.254,2.696-5.301,4.613-8.708,5.477v2.771
		c0,3.248-1.707,4.405-3.3,4.405v1.88c0,6.934,5.188,12.575,11.566,12.575c6.377,0,11.565-5.642,11.565-12.575v-21.711l0.064-0.012
		h-0.064c0.151-5.361,4.352-9.724,9.363-9.724c5.162,0,9.361,4.5,9.361,10.023v2c4.215,0.607,7.139,4.517,6.531,8.731
		c-0.488,3.384-3.146,6.042-6.531,6.53c-0.367,0.053-0.738,0.08-1.11,0.08c-4.259-0.009-7.704-3.468-7.695-7.727
		c0.008-3.825,2.817-7.066,6.603-7.615v-2c0-4.313-3.211-7.82-7.158-7.82c-3.838,0-7.051,3.4-7.16,7.582v21.656
		C715.945,789.371,709.769,796,702.177,796z M687.307,772.6v2.337c0,0.662,0.107,2.2,1.1,2.2h2.2c0.994,0,1.1-1.541,1.1-2.2V772.6
		l-0.093,0.009h-0.047l-0.124,0.011c-0.073,0.008-0.146,0.015-0.219,0.021h-0.005l-0.113,0.01c-0.606,0.053-1.1,0.078-1.57,0.078
		h-0.055c-0.474,0-0.975-0.026-1.577-0.078l-0.085-0.007h-0.013c-0.077-0.007-0.154-0.015-0.232-0.022h-0.053l-0.058-0.005
		C687.405,772.61,687.353,772.606,687.307,772.6z M731.365,763.921c-3.042,0-5.509,2.466-5.509,5.508s2.465,5.508,5.507,5.509
		c3.042,0,5.509-2.465,5.509-5.507c0-0.001,0-0.002,0-0.002C736.868,766.389,734.405,763.925,731.365,763.921z M675.189,757.313
		v0.088c0,6.128,4.725,11.52,11.235,12.821c0.502,0.104,1.01,0.181,1.521,0.229c0.516,0.051,1.041,0.077,1.559,0.077
		c1.036,0.002,2.069-0.099,3.085-0.3c6.51-1.3,11.235-6.7,11.235-12.823v-0.088h-2.2v0.126c-0.085,4.789-3.273,8.967-7.869,10.313
		c-2.408,0.763-4.992,0.763-7.4,0c-4.595-1.349-7.779-5.529-7.86-10.317v-0.126H675.189z"/>
	<g id="Group_1433" transform="translate(678.778 731.271)">
		<g id="Group_1431" transform="translate(0 0)">
			
				<linearGradient id="Path_16142_1_" gradientUnits="userSpaceOnUse" x1="-242.0542" y1="375.5957" x2="-242.0542" y2="374.5957" gradientTransform="matrix(7.302 0 0 -7.302 1771.127 2744.5913)">
				<stop  offset="0.13" style="stop-color:#00A9ED"/>
				<stop  offset="1" style="stop-color:#65106B"/>
			</linearGradient>
			<path id="Path_16142" fill="url(#Path_16142_1_)" d="M3.651,2C1.635,2,0,3.635,0,5.65c0,2.017,1.635,3.651,3.651,3.651
				c2.017,0,3.651-1.635,3.651-3.651C7.302,3.635,5.667,2,3.651,2L3.651,2z M3.651,6.867c-0.672,0-1.217-0.545-1.217-1.218
				c0-0.672,0.545-1.217,1.217-1.217c0.672,0,1.217,0.545,1.217,1.217C4.868,6.322,4.323,6.867,3.651,6.867L3.651,6.867z"/>
		</g>
	</g>
	<g id="Group_1434" transform="translate(693.38 731.271)">
		<g id="Group_1431-2" transform="translate(0 0)">
			
				<linearGradient id="Path_16142-2_1_" gradientUnits="userSpaceOnUse" x1="-256.6567" y1="375.5957" x2="-256.6567" y2="374.5957" gradientTransform="matrix(7.302 0 0 -7.302 1877.75 2744.5913)">
				<stop  offset="0.13" style="stop-color:#00A9ED"/>
				<stop  offset="1" style="stop-color:#65106B"/>
			</linearGradient>
			<path id="Path_16142-2" fill="url(#Path_16142-2_1_)" d="M3.651,2C1.635,2,0,3.635,0,5.65c0,2.017,1.635,3.651,3.651,3.651
				c2.017,0,3.651-1.635,3.651-3.651C7.302,3.635,5.668,2,3.651,2L3.651,2z M3.651,6.867c-0.672,0-1.217-0.545-1.217-1.218
				c0-0.672,0.545-1.217,1.217-1.217c0.672,0,1.217,0.545,1.217,1.217C4.868,6.322,4.323,6.867,3.651,6.867L3.651,6.867z"/>
		</g>
	</g>
	<g id="Group_1435" transform="translate(728.06 764.126)">
		<g id="Group_1431-3" transform="translate(0 0)">
			
				<linearGradient id="Path_16142-3_1_" gradientUnits="userSpaceOnUse" x1="-291.3362" y1="342.7407" x2="-291.3362" y2="341.7407" gradientTransform="matrix(7.302 0 0 -7.302 2130.9832 2504.6892)">
				<stop  offset="0.13" style="stop-color:#00A9ED"/>
				<stop  offset="1" style="stop-color:#65106B"/>
			</linearGradient>
			<path id="Path_16142-3" fill="url(#Path_16142-3_1_)" d="M3.652,2C1.634,2-0.001,3.634-0.001,5.651s1.635,3.651,3.652,3.651
				c2.016,0,3.65-1.635,3.65-3.651S5.667,2,3.652,2L3.652,2z M3.652,6.867c-0.673,0-1.218-0.545-1.218-1.217
				s0.545-1.217,1.218-1.217c0.672,0,1.217,0.545,1.217,1.217S4.323,6.867,3.652,6.867L3.652,6.867z"/>
		</g>
	</g>
</g>
</svg>
