<?xml version="1.0" encoding="utf-8"?>
<!-- Generator: Adobe Illustrator 16.0.0, SVG Export Plug-In . SVG Version: 6.00 Build 0)  -->
<!DOCTYPE svg PUBLIC "-//W3C//DTD SVG 1.1//EN" "http://www.w3.org/Graphics/SVG/1.1/DTD/svg11.dtd">
<svg version="1.1" id="Layer_1" xmlns="http://www.w3.org/2000/svg" xmlns:xlink="http://www.w3.org/1999/xlink" x="0px" y="0px"
	 width="63px" height="63px" viewBox="0 0 63 63" enable-background="new 0 0 63 63" xml:space="preserve">
<g id="folder" transform="translate(-0.004)">
	<g id="Group_2328" transform="translate(0.004)">
		<g id="Group_2327">
			
				<linearGradient id="Path_17417_1_" gradientUnits="userSpaceOnUse" x1="-269.2842" y1="421.8271" x2="-269.2842" y2="420.8271" gradientTransform="matrix(63.0002 0 0 -63.0004 16996.502 26575.2461)">
				<stop  offset="0.13" style="stop-color:#00A9ED"/>
				<stop  offset="1" style="stop-color:#65106B"/>
			</linearGradient>
			<path id="Path_17417" fill="url(#Path_17417_1_)" d="M62.805,40.342c-0.197-0.277-0.517-0.441-0.856-0.441h-9.453V9.45
				c0-0.58-0.47-1.05-1.05-1.05h-3.149V5.25c0-0.58-0.471-1.05-1.051-1.05h-25.2c0-2.32-1.88-4.2-4.2-4.2c-2.32,0-4.2,1.88-4.2,4.2
				h-3.15c-0.58,0-1.05,0.47-1.05,1.05l0,0V39.9h-8.4c-0.58,0-1.05,0.47-1.05,1.05c0,0.177,0.044,0.351,0.13,0.506l11.55,21
				C11.86,62.791,12.213,63,12.596,63h42c0.45,0.014,0.853-0.275,0.985-0.706h0.006l7.35-21C63.049,40.975,63,40.619,62.805,40.342z
				 M48.296,48.3V10.5h2.1v41.635L48.291,48.3H48.296z M17.85,2.1c1.16,0,2.1,0.94,2.1,2.1l0,0h-4.2C15.75,3.04,16.69,2.1,17.85,2.1
				z M11.55,6.3h8.4v3.15c0,0.58-0.47,1.05-1.05,1.05c-0.58,0-1.05-0.47-1.05-1.05l0,0V8.4h-2.1v1.05
				c-0.001,1.739,1.409,3.15,3.148,3.151s3.15-1.408,3.151-3.148c0-0.001,0-0.002,0-0.003V6.3h24.146v38.2l-2.229-4.055
				c-0.186-0.336-0.537-0.545-0.92-0.545h-31.5V6.3H11.55z M13.221,60.9L2.825,42h39.6l10.398,18.9H13.221z M54.39,59.383
				l-1.895-3.43V42h7.969L54.39,59.383z"/>
		</g>
	</g>
	<g id="Group_2330" transform="translate(50.404 4.2)">
		<g id="Group_2329">
			
				<linearGradient id="Path_17418_1_" gradientUnits="userSpaceOnUse" x1="-281.7423" y1="403.2209" x2="-281.7423" y2="402.2209" gradientTransform="matrix(6.3 0 0 -18.9 1778.1254 7620.8545)">
				<stop  offset="0.13" style="stop-color:#00A9ED"/>
				<stop  offset="1" style="stop-color:#65106B"/>
			</linearGradient>
			<path id="Path_17418" fill="url(#Path_17418_1_)" d="M2.098,0h-2.101v2.1h2.101c1.159,0,2.1,0.94,2.1,2.1l0,0v14.7h2.1V4.2
				C6.297,1.881,4.416,0,2.098,0L2.098,0z"/>
		</g>
	</g>
	<g id="Group_2332" transform="translate(54.492 25.13)">
		<g id="Group_2331" transform="translate(0 0)">
			
				<linearGradient id="Rectangle_752_1_" gradientUnits="userSpaceOnUse" x1="-239.4548" y1="208.3895" x2="-239.4548" y2="207.3895" gradientTransform="matrix(3 0 0 -2 719.3773 416.649)">
				<stop  offset="0.13" style="stop-color:#00A9ED"/>
				<stop  offset="1" style="stop-color:#65106B"/>
			</linearGradient>
			<rect id="Rectangle_752" x="-0.488" y="-0.13" fill="url(#Rectangle_752_1_)" width="3" height="2"/>
		</g>
	</g>
	<g id="Group_2334" transform="translate(5.171 20.903)">
		<g id="Group_2333" transform="translate(0 0)">
			
				<linearGradient id="Rectangle_753_1_" gradientUnits="userSpaceOnUse" x1="-145.8672" y1="381.1663" x2="-145.8672" y2="380.1663" gradientTransform="matrix(2 0 0 -15 292.5679 5717.5986)">
				<stop  offset="0.13" style="stop-color:#00A9ED"/>
				<stop  offset="1" style="stop-color:#65106B"/>
			</linearGradient>
			<rect id="Rectangle_753" x="-0.167" y="0.097" fill="url(#Rectangle_753_1_)" width="2" height="15"/>
		</g>
	</g>
	<g id="Group_2336" transform="translate(5.171 16.91)">
		<g id="Group_2335" transform="translate(0 0)">
			
				<linearGradient id="Rectangle_754_1_" gradientUnits="userSpaceOnUse" x1="-145.8672" y1="216.6095" x2="-145.8672" y2="215.6095" gradientTransform="matrix(2 0 0 -2 292.5679 433.3091)">
				<stop  offset="0.13" style="stop-color:#00A9ED"/>
				<stop  offset="1" style="stop-color:#65106B"/>
			</linearGradient>
			<rect id="Rectangle_754" x="-0.167" y="0.09" fill="url(#Rectangle_754_1_)" width="2" height="2"/>
		</g>
	</g>
	<g id="Group_2338" transform="translate(22.054 9.45)">
		<g id="Group_2337">
			
				<linearGradient id="Path_17419_1_" gradientUnits="userSpaceOnUse" x1="-277.4826" y1="392.09" x2="-277.4826" y2="391.09" gradientTransform="matrix(14.7 0 0 -14.7 4086.3357 5763.7207)">
				<stop  offset="0.13" style="stop-color:#00A9ED"/>
				<stop  offset="1" style="stop-color:#65106B"/>
			</linearGradient>
			<path id="Path_17419" fill="url(#Path_17419_1_)" d="M13.651,4.2h-3.154V1.05c0-0.58-0.47-1.05-1.049-1.05l0,0h-4.2
				c-0.58,0-1.05,0.47-1.05,1.05l0,0V4.2h-3.15c-0.58,0-1.05,0.47-1.05,1.05l0,0v4.2c0,0.58,0.47,1.05,1.05,1.05l0,0h3.15v3.15
				c0,0.58,0.47,1.05,1.05,1.05l0,0h4.2c0.58,0,1.049-0.47,1.049-1.05l0,0V10.5h3.15c0.58,0,1.051-0.47,1.051-1.05l0,0v-4.2
				C14.698,4.671,14.229,4.202,13.651,4.2z M12.6,8.4H9.45C8.87,8.4,8.4,8.87,8.4,9.45l0,0v3.15H6.3V9.45
				c0-0.58-0.47-1.05-1.05-1.05l0,0H2.097V6.3h3.15c0.58,0,1.05-0.47,1.05-1.05l0,0V2.1h2.1v3.15c0,0.58,0.47,1.05,1.05,1.05l0,0
				h3.15L12.6,8.4z"/>
		</g>
	</g>
	<g id="Group_2340" transform="translate(16.914 26.304)">
		<g id="Group_2339" transform="translate(0 0)">
			
				<linearGradient id="Rectangle_755_1_" gradientUnits="userSpaceOnUse" x1="-157.6102" y1="207.2155" x2="-157.6102" y2="206.2155" gradientTransform="matrix(2 0 0 -2 316.3109 414.127)">
				<stop  offset="0.13" style="stop-color:#00A9ED"/>
				<stop  offset="1" style="stop-color:#65106B"/>
			</linearGradient>
			<rect id="Rectangle_755" x="0.09" y="-0.304" fill="url(#Rectangle_755_1_)" width="2" height="2"/>
		</g>
	</g>
	<g id="Group_2342" transform="translate(20.907 26.304)">
		<g id="Group_2341" transform="translate(0 0)">
			
				<linearGradient id="Rectangle_756_1_" gradientUnits="userSpaceOnUse" x1="-282.3307" y1="207.2155" x2="-282.3307" y2="206.2155" gradientTransform="matrix(22 0 0 -2 6222.3794 414.127)">
				<stop  offset="0.13" style="stop-color:#00A9ED"/>
				<stop  offset="1" style="stop-color:#65106B"/>
			</linearGradient>
			<rect id="Rectangle_756" x="0.097" y="-0.304" fill="url(#Rectangle_756_1_)" width="22" height="2"/>
		</g>
	</g>
	<g id="Group_2344" transform="translate(14.8 30.532)">
		<g id="Group_2343" transform="translate(0 0)">
			
				<linearGradient id="Rectangle_757_1_" gradientUnits="userSpaceOnUse" x1="-278.8106" y1="202.9875" x2="-278.8106" y2="201.9875" gradientTransform="matrix(28 0 0 -2 7820.9106 406.443)">
				<stop  offset="0.13" style="stop-color:#00A9ED"/>
				<stop  offset="1" style="stop-color:#65106B"/>
			</linearGradient>
			<rect id="Rectangle_757" x="0.204" y="0.468" fill="url(#Rectangle_757_1_)" width="28" height="2"/>
		</g>
	</g>
	<g id="Group_2346" transform="translate(14.8 34.759)">
		<g id="Group_2345" transform="translate(0 0)">
			
				<linearGradient id="Rectangle_758_1_" gradientUnits="userSpaceOnUse" x1="-277.23" y1="198.7605" x2="-277.23" y2="197.7605" gradientTransform="matrix(24 0 0 -2 6665.7246 397.7621)">
				<stop  offset="0.13" style="stop-color:#00A9ED"/>
				<stop  offset="1" style="stop-color:#65106B"/>
			</linearGradient>
			<rect id="Rectangle_758" x="0.204" y="0.241" fill="url(#Rectangle_758_1_)" width="24" height="2"/>
		</g>
	</g>
	<g id="Group_2348" transform="translate(41.824 9.45)">
		<g id="Group_2347">
			
				<linearGradient id="Rectangle_759_1_" gradientUnits="userSpaceOnUse" x1="-192.3571" y1="233.3312" x2="-192.3571" y2="232.3312" gradientTransform="matrix(2.16 0 0 -2.1 416.5725 489.9952)">
				<stop  offset="0.13" style="stop-color:#00A9ED"/>
				<stop  offset="1" style="stop-color:#65106B"/>
			</linearGradient>
			<rect id="Rectangle_759" x="0" y="0" fill="url(#Rectangle_759_1_)" width="2.16" height="2.1"/>
		</g>
	</g>
	<g id="Group_2350" transform="translate(42.044 13.622)">
		<g id="Group_2349" transform="translate(0 0)">
			
				<linearGradient id="Rectangle_760_1_" gradientUnits="userSpaceOnUse" x1="-182.7402" y1="219.8975" x2="-182.7402" y2="218.8975" gradientTransform="matrix(2 0 0 -2 366.4409 440.173)">
				<stop  offset="0.13" style="stop-color:#00A9ED"/>
				<stop  offset="1" style="stop-color:#65106B"/>
			</linearGradient>
			<rect id="Rectangle_760" x="-0.04" y="0.378" fill="url(#Rectangle_760_1_)" width="2" height="2"/>
		</g>
	</g>
</g>
</svg>
