<?xml version="1.0" encoding="utf-8"?>
<!-- Generator: Adobe Illustrator 16.0.0, SVG Export Plug-In . SVG Version: 6.00 Build 0)  -->
<!DOCTYPE svg PUBLIC "-//W3C//DTD SVG 1.1//EN" "http://www.w3.org/Graphics/SVG/1.1/DTD/svg11.dtd">
<svg version="1.1" id="Layer_1" xmlns="http://www.w3.org/2000/svg" xmlns:xlink="http://www.w3.org/1999/xlink" x="0px" y="0px"
	 width="53.137px" height="63px" viewBox="0 0 53.137 63" enable-background="new 0 0 53.137 63" xml:space="preserve">
<g id="nurse" transform="translate(-40.004)">
	
		<linearGradient id="Path_17420_1_" gradientUnits="userSpaceOnUse" x1="-233.3361" y1="421.8115" x2="-233.3361" y2="420.8115" gradientTransform="matrix(53.136 0 0 -63.0001 12465.1563 26575.125)">
		<stop  offset="0" style="stop-color:#6BC4F0"/>
		<stop  offset="1" style="stop-color:#801C7D"/>
	</linearGradient>
	<path id="Path_17420" fill="url(#Path_17420_1_)" d="M93.121,59.925c-0.278-4.661-3.278-8.72-7.654-10.353
		c1.95-7.057,2.277-14.464,0.957-21.665c-0.601-3.685-1.715-7.266-3.309-10.641l4.435-4.435c0.578-0.579,0.886-1.373,0.851-2.189
		c-0.036-0.807-0.409-1.562-1.027-2.081c-12.034-10.082-29.565-10.082-41.6,0c-0.619,0.519-0.991,1.274-1.027,2.081
		c-0.036,0.816,0.272,1.61,0.849,2.188l4.532,4.532c-1.559,3.352-2.654,6.899-3.257,10.545c-1.317,7.185-0.994,14.573,0.944,21.616
		c-4.443,1.596-7.508,5.687-7.79,10.399c-0.014,0.063-0.021,0.126-0.021,0.19v0.492c0,0.156,0.039,0.311,0.115,0.447
		c0.433,1.73,1.985,2.944,3.768,2.947h45.37c1.782-0.002,3.334-1.215,3.769-2.943c0.075-0.137,0.115-0.29,0.115-0.447v-0.492
		C93.14,60.053,93.134,59.988,93.121,59.925z M84.6,28.235c1.265,6.924,0.951,14.044-0.917,20.83
		c-0.733-0.146-1.479-0.223-2.228-0.229c-0.223-0.422-0.593-0.748-1.041-0.913l-4.835-1.758c-0.179-0.065-0.367-0.103-0.557-0.112
		c-0.481-1.258-0.678-2.608-0.573-3.951c0-0.068-0.008-0.135-0.022-0.201c0.711-0.674,1.377-1.395,1.994-2.155
		c3.056-3.754,4.879-8.306,4.879-12.175c0-2.967-1.275-4.593-4.55-5.8c-2.029-0.61-4.137-0.921-6.256-0.922
		c-4.234-0.229-8.608-0.468-11.837-4.4c6.925-3.243,15.127-1.935,20.7,3.3c0.364,0.339,0.932,0.329,1.284-0.023l1.087-1.087
		C83.069,21.709,84.033,24.932,84.6,28.235z M71.375,62.15c1.4-5.33,2.863-11.264,3.491-14.2c0.006-0.032,0.036-0.055,0.069-0.05
		c0.005,0.002,0.009,0.003,0.014,0.005l4.835,1.758c0.019,0.007,0.034,0.021,0.042,0.039c0.006,0.011,0.006,0.024,0,0.036
		c-1.51,3.679-3.482,8.369-5.5,12.414L71.375,62.15z M63.499,62.15c-1.006-3.806-2.055-7.977-2.813-11.164
		c3.398,2.573,8.074,2.643,11.548,0.172c-0.755,3.165-1.784,7.254-2.772,10.992H63.499z M58.747,62.15
		c-1.739-3.4-3.626-7.569-5.615-12.414c-0.005-0.012-0.005-0.025,0-0.036c0.008-0.018,0.022-0.032,0.04-0.038l4.839-1.76
		c0.017-0.008,0.035-0.008,0.052,0c0.016,0.008,0.026,0.023,0.029,0.041c0.628,2.94,2.09,8.875,3.491,14.201L58.747,62.15z
		 M53.689,19.823c0.031-0.022,0.061-0.046,0.089-0.072c0.985-0.919,2.065-1.731,3.222-2.422c3.764,4.842,8.882,5.12,13.4,5.365
		c1.934,0,3.858,0.273,5.716,0.811c2.84,1.046,3.34,2.144,3.34,4.064c0,3.458-1.669,7.574-4.464,11.008
		c-2.674,3.286-5.9,5.327-8.419,5.327c-2.52,0-5.745-2.041-8.419-5.327c-2.8-3.435-4.464-7.55-4.464-11.008L53.689,19.823z
		 M66.572,45.753c2.211-0.129,4.327-0.946,6.051-2.338c0.005,1.142,0.236,2.271,0.681,3.321c-0.089,0.096-0.157,0.21-0.199,0.334
		c-0.801,2.382-3.482,4.046-6.535,4.046s-5.74-1.664-6.535-4.046c-0.036-0.107-0.092-0.208-0.164-0.295
		c0.454-1.049,0.692-2.18,0.7-3.322C62.283,44.824,64.381,45.628,66.572,45.753z M46.593,10.724c0.011-0.289,0.144-0.56,0.366-0.745
		c11.348-9.507,27.88-9.507,39.228,0c0.222,0.185,0.355,0.456,0.365,0.745c0.016,0.298-0.097,0.589-0.309,0.8L79.961,17.8
		c-7.697-6.623-19.08-6.623-26.777,0L46.9,11.522C46.689,11.312,46.577,11.021,46.593,10.724z M48.693,28.235
		c0.562-3.264,1.507-6.451,2.817-9.493l0.332,0.332v8.494c0,3.869,1.824,8.421,4.879,12.175c0.631,0.777,1.312,1.513,2.039,2.2
		c-0.009,0.051-0.014,0.103-0.014,0.154c0.104,1.346-0.092,2.696-0.576,3.955c-0.268-0.019-0.536,0.02-0.788,0.111l-4.839,1.76
		c-0.447,0.166-0.818,0.491-1.04,0.914c-0.638,0.016-1.272,0.082-1.899,0.2c-1.864-6.778-2.177-13.888-0.915-20.803H48.693z
		 M41.863,60.27c0.187-5.246,4.42-9.441,9.667-9.58c1.808,4.394,3.536,8.24,5.147,11.459H43.887
		c-1.063-0.001-1.945-0.82-2.027-1.879H41.863z M89.263,62.15H76.395c1.852-3.807,3.637-8.043,5.043-11.465
		c5.318,0.045,9.658,4.269,9.847,9.584c-0.081,1.06-0.965,1.879-2.028,1.881H89.263z"/>
	
		<linearGradient id="Path_17421_1_" gradientUnits="userSpaceOnUse" x1="-203.8678" y1="377.7939" x2="-203.8678" y2="376.7939" gradientTransform="matrix(7.8278 0 0 -7.767 1662.4113 2938.3164)">
		<stop  offset="0" style="stop-color:#6BC4F0"/>
		<stop  offset="1" style="stop-color:#801C7D"/>
	</linearGradient>
	<path id="Path_17421" fill="url(#Path_17421_1_)" d="M63.614,8.767h2.034v2.034c-0.017,0.511,0.383,0.938,0.894,0.955
		s0.938-0.383,0.955-0.894c0.001-0.02,0.001-0.041,0-0.061V8.767h2.034c0.511,0.017,0.938-0.384,0.955-0.894
		c0.017-0.511-0.384-0.938-0.895-0.955c-0.021,0-0.04,0-0.061,0h-2.034V4.884c-0.017-0.51-0.444-0.911-0.955-0.894
		c-0.486,0.016-0.878,0.407-0.894,0.894v2.034h-2.034c-0.511-0.017-0.938,0.383-0.955,0.894s0.384,0.938,0.895,0.955
		C63.573,8.768,63.594,8.768,63.614,8.767z"/>
</g>
</svg>
