<?xml version="1.0" encoding="utf-8"?>
<!-- Generator: Adobe Illustrator 16.0.0, SVG Export Plug-In . SVG Version: 6.00 Build 0)  -->
<!DOCTYPE svg PUBLIC "-//W3C//DTD SVG 1.1//EN" "http://www.w3.org/Graphics/SVG/1.1/DTD/svg11.dtd">
<svg version="1.1" id="Layer_1" xmlns="http://www.w3.org/2000/svg" xmlns:xlink="http://www.w3.org/1999/xlink" x="0px" y="0px"
	 width="62px" height="62.145px" viewBox="0 0 62 62.145" enable-background="new 0 0 62 62.145" xml:space="preserve">
<g id="microscope" transform="translate(-0.561)">
	<g id="Group_2789" transform="translate(6.761 47.678)">
		<g id="Group_2788">
			
				<linearGradient id="Path_17999_1_" gradientUnits="userSpaceOnUse" x1="-265.8938" y1="191.5117" x2="-265.8938" y2="190.5107" gradientTransform="matrix(18.601 0 0 -2.067 4955.1948 395.8488)">
				<stop  offset="0" style="stop-color:#00A9E0"/>
				<stop  offset="1" style="stop-color:#801C7D"/>
			</linearGradient>
			<path id="Path_17999" fill="url(#Path_17999_1_)" d="M17.567,0H1.033C0.462,0,0,0.463,0,1.033c0,0.571,0.462,1.034,1.033,1.034
				h16.534c0.571,0,1.033-0.463,1.033-1.034C18.6,0.463,18.138,0,17.567,0z"/>
		</g>
	</g>
	<g id="Group_2791" transform="translate(0.561 0)">
		<g id="Group_2790" transform="translate(0 0)">
			
				<linearGradient id="Path_18000_1_" gradientUnits="userSpaceOnUse" x1="-269.708" y1="421.3069" x2="-269.708" y2="420.3079" gradientTransform="matrix(61.999 0 0 -62.144 16752.625 26181.6758)">
				<stop  offset="0" style="stop-color:#00A9E0"/>
				<stop  offset="1" style="stop-color:#801C7D"/>
			</linearGradient>
			<path id="Path_18000" fill="url(#Path_18000_1_)" d="M56.833,51.811h-2.739c2.479-4.041,3.785-8.691,3.773-13.433
				c-0.023-8.997-4.712-17.338-12.387-22.033c-0.345-1.792-1.35-3.39-2.815-4.477l1.785-3.084c0.286-0.494,0.116-1.126-0.377-1.412
				c-0.001,0-0.001,0-0.001,0L31.539,0.139c-0.494-0.285-1.126-0.117-1.412,0.377c0,0,0,0.001,0,0.001l-15.5,26.845
				c-0.285,0.493-0.118,1.122,0.373,1.409l0.827,0.479c0.01,0.006,0.016,0.017,0.025,0.022l1.837,1.059l-3.617,6.26
				c-0.285,0.493-0.116,1.124,0.377,1.41l5.363,3.1c0.494,0.286,1.126,0.117,1.412-0.377c0,0,0-0.001,0-0.001l3.615-6.266
				l2.687,1.55c0.494,0.285,1.126,0.117,1.412-0.377l0-0.001l6.541-11.3c0.027,0.011,0.056,0.018,0.084,0.029
				c0.14,0.06,0.283,0.101,0.426,0.155s0.31,0.114,0.467,0.157c0.156,0.043,0.3,0.066,0.443,0.1c0.145,0.033,0.311,0.07,0.474,0.093
				c0.163,0.023,0.3,0.028,0.457,0.04c0.157,0.013,0.31,0.029,0.473,0.031h0.085c0.081,0,0.161-0.017,0.242-0.019
				c0.242-0.008,0.482-0.025,0.723-0.058c0.127-0.017,0.25-0.04,0.375-0.063c0.223-0.041,0.441-0.094,0.66-0.156
				c0.123-0.036,0.245-0.071,0.367-0.114c0.229-0.079,0.451-0.174,0.672-0.274c0.1-0.048,0.207-0.088,0.301-0.139
				c0.092-0.05,0.188-0.1,0.282-0.16c7.976,5.495,9.987,16.415,4.491,24.391c-0.891,1.292-1.949,2.46-3.15,3.47H5.167
				C2.315,51.815,0.003,54.126,0,56.978v4.133c0,0.571,0.462,1.033,1.033,1.033l0,0h59.933c0.571,0,1.033-0.462,1.033-1.033l0,0
				v-4.133C61.996,54.126,59.686,51.815,56.833,51.811z M19.96,38.791l-3.573-2.067l3.1-5.366l3.576,2.067L19.96,38.791z
				 M27.677,33.7l-2.824-1.627l-5.227-3.021c-0.011-0.006-0.024-0.006-0.034-0.011l-2.661-1.533L31.398,2.448l10.747,6.199
				l-1.299,2.244c-0.041-0.014-0.086-0.021-0.127-0.035c-0.15-0.052-0.3-0.086-0.453-0.127c-0.223-0.061-0.445-0.12-0.67-0.158
				c-0.164-0.028-0.328-0.043-0.492-0.061c-0.215-0.022-0.431-0.038-0.646-0.041c-0.168,0-0.335,0-0.5,0.013
				c-0.207,0.013-0.421,0.034-0.629,0.065c-0.167,0.025-0.332,0.053-0.5,0.089c-0.207,0.045-0.413,0.1-0.613,0.168
				c-0.158,0.05-0.316,0.1-0.472,0.159c-0.207,0.081-0.4,0.179-0.601,0.278c-0.143,0.071-0.287,0.137-0.425,0.22
				c-0.21,0.127-0.413,0.265-0.608,0.413c-0.113,0.083-0.229,0.153-0.338,0.244c-0.303,0.252-0.586,0.528-0.845,0.826
				c-0.309,0.35-0.579,0.73-0.806,1.138c-1.068,1.836-1.268,4.051-0.545,6.048c0.123,0.345,0.273,0.679,0.449,1
				c0.057,0.1,0.121,0.207,0.184,0.3c0.127,0.212,0.265,0.416,0.413,0.613c0.083,0.109,0.167,0.216,0.256,0.319
				c0.153,0.182,0.317,0.351,0.488,0.518c0.093,0.091,0.182,0.185,0.28,0.27c0.027,0.025,0.051,0.054,0.08,0.076L27.677,33.7z
				 M42.854,20.285c-0.356,0.624-0.842,1.165-1.424,1.588c-1.658,1.201-3.867,1.314-5.638,0.287
				c-0.047-0.028-0.095-0.055-0.162-0.101c-2.349-1.482-3.105-4.557-1.713-6.96c0.157-0.282,0.346-0.547,0.562-0.789
				c0.227-0.257,0.479-0.491,0.752-0.7c0.08-0.061,0.164-0.112,0.246-0.168c0.201-0.14,0.412-0.265,0.633-0.374
				c0.086-0.043,0.175-0.085,0.263-0.123c0.263-0.112,0.534-0.202,0.813-0.269c0.039-0.009,0.08-0.025,0.119-0.033
				c0.347-0.073,0.7-0.111,1.055-0.111c0.367,0.002,0.732,0.044,1.092,0.123c0.1,0.021,0.191,0.04,0.287,0.067
				c0.131,0.035,0.261,0.076,0.392,0.123c0.205,0.071,0.405,0.156,0.601,0.253c0.045,0.022,0.092,0.038,0.136,0.063
				c0.034,0.017,0.067,0.036,0.1,0.058c2.469,1.419,3.319,4.571,1.901,7.04c-0.006,0.008-0.01,0.017-0.016,0.025L42.854,20.285z
				 M59.934,60.078H2.067v-3.101c0-1.712,1.388-3.1,3.1-3.1h38.554c0.236,0,0.465-0.081,0.649-0.23
				c8.43-6.803,9.749-19.151,2.946-27.581c-1.052-1.303-2.266-2.466-3.612-3.461c0.01-0.011,0.019-0.023,0.028-0.035
				c0.113-0.122,0.215-0.255,0.317-0.385c0.058-0.071,0.119-0.141,0.173-0.215c0.125-0.172,0.238-0.351,0.348-0.534
				c0.025-0.04,0.054-0.076,0.076-0.118c0.176-0.31,0.33-0.632,0.459-0.965c0.019-0.045,0.039-0.091,0.057-0.137
				c0.117-0.315,0.213-0.64,0.283-0.969c0.013-0.058,0.025-0.113,0.035-0.169c0.017-0.083,0.037-0.164,0.052-0.248
				c6.415,4.443,10.249,11.743,10.268,19.547c0.015,4.978-1.553,9.831-4.474,13.861c-0.335,0.462-0.231,1.107,0.23,1.442
				c0.176,0.128,0.389,0.196,0.606,0.196h4.671c1.712,0,3.1,1.388,3.1,3.1V60.078L59.934,60.078z"/>
		</g>
	</g>
</g>
</svg>
