<?xml version="1.0" encoding="utf-8"?>
<!-- Generator: Adobe Illustrator 16.0.0, SVG Export Plug-In . SVG Version: 6.00 Build 0)  -->
<!DOCTYPE svg PUBLIC "-//W3C//DTD SVG 1.1//EN" "http://www.w3.org/Graphics/SVG/1.1/DTD/svg11.dtd">
<svg version="1.1" id="caution_1_" xmlns="http://www.w3.org/2000/svg" xmlns:xlink="http://www.w3.org/1999/xlink" x="0px" y="0px"
	 width="63px" height="63px" viewBox="0 0 63 63" enable-background="new 0 0 63 63" xml:space="preserve">
<g id="Group_2656">
	
		<linearGradient id="Path_17761_1_" gradientUnits="userSpaceOnUse" x1="-269.2837" y1="421.8262" x2="-269.2837" y2="420.8262" gradientTransform="matrix(63.0001 0 0 -63.0001 16996.4043 26575.0645)">
		<stop  offset="0" style="stop-color:#00A9E0"/>
		<stop  offset="1" style="stop-color:#801C7D"/>
	</linearGradient>
	<path id="Path_17761" fill="url(#Path_17761_1_)" d="M60.829,16.281l-14.11-14.11C45.332,0.776,43.445-0.005,41.479,0H21.522
		c-1.967-0.005-3.854,0.776-5.241,2.171l-14.11,14.11C0.776,17.668-0.005,19.555,0,21.522v19.957
		c-0.005,1.967,0.776,3.854,2.171,5.24l14.11,14.11c1.387,1.395,3.274,2.177,5.241,2.171h19.957c1.967,0.006,3.854-0.776,5.24-2.171
		l14.11-14.111c1.395-1.386,2.177-3.273,2.171-5.239V21.522C63.006,19.555,62.224,17.668,60.829,16.281z M60.539,41.48L60.539,41.48
		c0.004,1.314-0.519,2.574-1.45,3.5l-14.11,14.108c-0.927,0.932-2.188,1.454-3.5,1.45H21.522c-1.313,0.004-2.574-0.519-3.5-1.45
		L3.911,44.979c-0.932-0.927-1.454-2.188-1.45-3.5V21.522c-0.003-1.313,0.519-2.574,1.45-3.5L18.022,3.911
		c0.926-0.932,2.187-1.454,3.5-1.45h19.957c1.313-0.003,2.573,0.519,3.5,1.45l14.11,14.111c0.932,0.926,1.454,2.187,1.45,3.5V41.48z
		"/>
	
		<linearGradient id="Path_17762_1_" gradientUnits="userSpaceOnUse" x1="-268.0576" y1="420.0322" x2="-268.0576" y2="419.0322" gradientTransform="matrix(48.8091 0 0 -48.8121 13115.1719 20509.7051)">
		<stop  offset="0" style="stop-color:#00A9E0"/>
		<stop  offset="1" style="stop-color:#801C7D"/>
	</linearGradient>
	<path id="Path_17762" fill="url(#Path_17762_1_)" d="M44.33,9.812c-1.736-1.745-4.098-2.723-6.559-2.716H25.23
		c-2.461-0.007-4.822,0.971-6.558,2.716l-8.863,8.863c-1.743,1.735-2.72,4.095-2.713,6.554v12.539
		c-0.008,2.462,0.971,4.825,2.717,6.562l8.863,8.862c1.736,1.746,4.097,2.724,6.558,2.717h12.534
		c2.461,0.006,4.822-0.972,6.558-2.717l8.862-8.862c1.746-1.735,2.725-4.097,2.717-6.558V25.229
		c0.008-2.461-0.971-4.823-2.717-6.558L44.33,9.812z M53.448,37.768c0.003,1.809-0.717,3.543-2,4.817l-8.863,8.863
		c-1.274,1.283-3.009,2.003-4.817,2H25.23c-1.809,0.003-3.543-0.717-4.818-2l-8.863-8.863c-1.283-1.274-2.003-3.009-2-4.817V25.229
		c-0.003-1.809,0.717-3.543,2-4.818l8.863-8.863c1.274-1.283,3.009-2.004,4.818-2h12.538c1.809-0.004,3.543,0.717,4.817,2
		l8.862,8.863c1.284,1.274,2.004,3.009,2,4.818L53.448,37.768z"/>
	
		<linearGradient id="Path_17763_1_" gradientUnits="userSpaceOnUse" x1="-247.3896" y1="415.3301" x2="-247.3896" y2="414.3301" gradientTransform="matrix(10.1722 0 0 -30.699 2547.9971 12761.9629)">
		<stop  offset="0" style="stop-color:#00A9E0"/>
		<stop  offset="1" style="stop-color:#801C7D"/>
	</linearGradient>
	<path id="Path_17763" fill="url(#Path_17763_1_)" d="M31.5,11.749c-2.81,0-5.087,2.277-5.087,5.087
		c0,0.059,0.001,0.118,0.003,0.177l0.8,22.994c0.042,1.364,1.163,2.446,2.527,2.441h3.51c1.364,0.005,2.484-1.077,2.526-2.441
		l0.334-9.572c0.038-0.679-0.482-1.259-1.16-1.297c-0.68-0.037-1.26,0.483-1.297,1.162c-0.002,0.017-0.002,0.033-0.002,0.049
		l-0.334,9.572c-0.002,0.036-0.031,0.065-0.068,0.065h-3.51c-0.037,0-0.067-0.029-0.068-0.065l-0.8-22.994
		c-0.049-1.449,1.086-2.664,2.536-2.713c1.45-0.049,2.665,1.086,2.713,2.535c0.002,0.06,0.002,0.119,0,0.178l-0.133,3.827
		c-0.023,0.679,0.508,1.249,1.186,1.272c0.68,0.024,1.25-0.507,1.273-1.187l0.133-3.827c0.098-2.808-2.1-5.163-4.907-5.261
		c-0.059-0.002-0.118-0.003-0.177-0.003H31.5z"/>
	
		<linearGradient id="Path_17764_1_" gradientUnits="userSpaceOnUse" x1="-240.1201" y1="375.3164" x2="-240.1201" y2="374.3164" gradientTransform="matrix(7.957 0 0 -7.383 1942.1377 2814.7246)">
		<stop  offset="0" style="stop-color:#00A9E0"/>
		<stop  offset="1" style="stop-color:#801C7D"/>
	</linearGradient>
	<path id="Path_17764" fill="url(#Path_17764_1_)" d="M31.787,43.764h-0.574c-2.039,0-3.691,1.652-3.691,3.691
		s1.653,3.691,3.691,3.691h0.574c2.039,0,3.691-1.652,3.691-3.691S33.826,43.764,31.787,43.764z M31.787,48.686h-0.574
		c-0.68,0-1.23-0.551-1.23-1.23s0.551-1.23,1.23-1.23h0.574c0.68,0.02,1.215,0.586,1.195,1.266
		C32.964,48.143,32.439,48.668,31.787,48.686z"/>
	
		<linearGradient id="Path_17765_1_" gradientUnits="userSpaceOnUse" x1="-165.604" y1="269.9355" x2="-165.604" y2="268.9355" gradientTransform="matrix(2.4616 0 0 -2.4608 442.708 688.6938)">
		<stop  offset="0" style="stop-color:#00A9E0"/>
		<stop  offset="1" style="stop-color:#801C7D"/>
	</linearGradient>
	<path id="Path_17765" fill="url(#Path_17765_1_)" d="M36.188,25.204c-0.031-0.075-0.068-0.146-0.113-0.213
		c-0.045-0.067-0.096-0.13-0.153-0.187c-0.292-0.289-0.708-0.415-1.11-0.336c-0.079,0.017-0.156,0.04-0.23,0.07
		c-0.074,0.031-0.145,0.068-0.212,0.113s-0.13,0.096-0.187,0.153c-0.115,0.114-0.206,0.25-0.268,0.4
		c-0.03,0.074-0.054,0.151-0.068,0.23c-0.033,0.159-0.033,0.322,0,0.481c0.016,0.079,0.038,0.156,0.068,0.23
		c0.062,0.15,0.152,0.286,0.268,0.4c0.057,0.058,0.119,0.109,0.187,0.154c0.067,0.044,0.138,0.082,0.212,0.113
		c0.074,0.03,0.151,0.054,0.23,0.07c0.238,0.048,0.486,0.023,0.711-0.07c0.225-0.092,0.418-0.25,0.553-0.454
		c0.045-0.067,0.082-0.138,0.113-0.212c0.029-0.074,0.053-0.151,0.069-0.23c0.017-0.079,0.024-0.16,0.025-0.241
		c-0.001-0.081-0.009-0.161-0.025-0.24C36.241,25.356,36.218,25.278,36.188,25.204z"/>
</g>
</svg>
