<?xml version="1.0" encoding="utf-8"?>
<!-- Generator: Adobe Illustrator 14.0.0, SVG Export Plug-In . SVG Version: 6.00 Build 43363)  -->
<!DOCTYPE svg PUBLIC "-//W3C//DTD SVG 1.1//EN" "http://www.w3.org/Graphics/SVG/1.1/DTD/svg11.dtd">
<svg version="1.1" id="depreciation" xmlns="http://www.w3.org/2000/svg" xmlns:xlink="http://www.w3.org/1999/xlink" x="0px"
	 y="0px" width="65px" height="65px" viewBox="-7.836 -4.277 65 65" enable-background="new -7.836 -4.277 65 65"
	 xml:space="preserve">
<path id="Path_16030" d="M49.328,27.525h-7.725V0H7.722v27.525H0l21.854,25.614H9.963v3.307h29.4v-3.307H27.475L49.328,27.525z
	 M11.029,3.307h27.268v27.525h3.862l-17.495,20.5L7.17,30.833h3.859V3.307z"/>
<path id="Path_16031" fill="#3C92BD" d="M21.313,25.655l10.371-15.187h-3.67L17.643,25.655H21.313z"/>
<path id="Path_16032" fill="#147DB2" d="M26.191,21.641c0.105,2.229,1.998,3.95,4.227,3.845c2.229-0.104,3.95-1.996,3.846-4.225
	c-0.102-2.155-1.879-3.851-4.037-3.851c-2.141-0.095-3.952,1.564-4.047,3.705C26.172,21.291,26.176,21.467,26.191,21.641z
	 M31.182,21.641c0,1.454-0.477,1.887-0.955,1.887c-0.478,0-0.953-0.435-0.953-1.887c0-1.453,0.477-1.888,0.953-1.888
	C30.704,19.754,31.182,20.187,31.182,21.641z"/>
<path id="Path_16033" fill="#147DB2" d="M19.098,18.712c2.336,0.11,4.32-1.693,4.43-4.03c0.11-2.336-1.694-4.319-4.03-4.43
	s-4.32,1.693-4.43,4.03c-0.003,0.066-0.005,0.133-0.005,0.199c-0.196,2.134,1.375,4.022,3.509,4.219
	C18.747,18.716,18.922,18.719,19.098,18.712z M19.098,12.594c0.477,0,0.955,0.435,0.955,1.888s-0.477,1.888-0.955,1.888
	s-0.95-0.434-0.95-1.888S18.621,12.594,19.098,12.594L19.098,12.594z"/>
</svg>
