<svg xmlns="http://www.w3.org/2000/svg" xmlns:xlink="http://www.w3.org/1999/xlink" width="53.866" height="72.002" viewBox="0 0 53.866 72.002">
  <defs>
    <linearGradient id="linear-gradient" x1="0.5" x2="0.5" y2="1" gradientUnits="objectBoundingBox">
      <stop offset="0.13" stop-color="#00a9ed"/>
      <stop offset="1" stop-color="#65106b"/>
    </linearGradient>
  </defs>
  <path id="Union_67" data-name="Union 67" d="M1327.619,20108a5.4,5.4,0,0,1-5.385-5.389v-1.838h-1.842a5.4,5.4,0,0,1-5.39-5.395v-4.773a1.052,1.052,0,1,1,2.1,0v4.773a3.3,3.3,0,0,0,3.285,3.285h1.842v-42.041a1.062,1.062,0,0,1,.3-.838q6.124-6.123,12.243-12.242a1.12,1.12,0,0,1,.848-.309h23.905v-1.842a3.3,3.3,0,0,0-3.285-3.285h-35.855a3.308,3.308,0,0,0-3.285,3.285v44.434a1.052,1.052,0,1,1-2.1,0v-44.434a5.4,5.4,0,0,1,5.39-5.395h35.855a5.409,5.409,0,0,1,5.395,5.395v1.842h1.837a5.4,5.4,0,0,1,5.39,5.385v4.779a1.055,1.055,0,0,1-2.109,0v-4.779a3.3,3.3,0,0,0-3.28-3.285h-26.892v5.92a6.338,6.338,0,0,1-6.328,6.332h-5.919v45.025a3.289,3.289,0,0,0,3.28,3.279h35.86a3.289,3.289,0,0,0,3.28-3.279v-44.434a1.055,1.055,0,0,1,2.109,0v44.434a5.409,5.409,0,0,1-5.39,5.389Zm-1.786-52.523h4.426a4.237,4.237,0,0,0,4.219-4.223v-4.426Zm4.163,47.084a1.052,1.052,0,0,1,0-2.1h16.774a1.052,1.052,0,0,1,0,2.1Zm27.927-.479-8.17-8.166a.964.964,0,0,1-.222-.338.99.99,0,0,1,0-.777,1.03,1.03,0,0,1,.555-.555,1.019,1.019,0,0,1,.389-.076h4.088a3.053,3.053,0,0,0,2.871-2.043h-6.959a1.022,1.022,0,0,1,0-2.045h6.959a3.049,3.049,0,0,0-2.871-2.039h-4.088a1.021,1.021,0,0,1,0-2.043h10.214a1.021,1.021,0,0,1,0,2.043h-2.069a5.115,5.115,0,0,1,.944,2.039h1.125a1.022,1.022,0,0,1,0,2.045h-1.125a5.117,5.117,0,0,1-5,4.086h-1.62l6.424,6.43a1.021,1.021,0,0,1-.722,1.742A1.007,1.007,0,0,1,1357.922,20102.082Zm-27.927-3.709a1.05,1.05,0,0,1,0-2.1h16.774a1.05,1.05,0,0,1,0,2.1Zm0-4.189a1.05,1.05,0,0,1,0-2.1h16.774a1.05,1.05,0,0,1,0,2.1Zm0-4.184a1.055,1.055,0,0,1,0-2.109h16.774a1.055,1.055,0,0,1,0,2.109Zm0-4.193a1.05,1.05,0,0,1,0-2.1h16.774a1.05,1.05,0,0,1,0,2.1Zm0-4.189a1.049,1.049,0,1,1,0-2.1H1361.1a1.049,1.049,0,1,1,0,2.1Zm0-4.184a1.052,1.052,0,0,1,0-2.1H1361.1a1.052,1.052,0,0,1,0,2.1Zm0-4.187a1.053,1.053,0,0,1,0-2.105H1361.1a1.053,1.053,0,0,1,0,2.105Zm14.13-4.381a2.747,2.747,0,0,1-2.735-2.74v-2.225h-2.23a2.75,2.75,0,0,1-2.735-2.74v-2.842a2.74,2.74,0,0,1,2.735-2.74h2.23v-2.225a2.737,2.737,0,0,1,2.735-2.74h2.846a2.737,2.737,0,0,1,2.735,2.74v2.225h2.231a2.749,2.749,0,0,1,2.74,2.74v2.842a2.759,2.759,0,0,1-2.74,2.74h-2.231v2.225a2.747,2.747,0,0,1-2.735,2.74Zm-5.4-10.99a.627.627,0,0,0-.192.443v2.842a.627.627,0,0,0,.192.443.6.6,0,0,0,.439.188h3.28a1.055,1.055,0,0,1,1.06,1.055v3.279a.63.63,0,0,0,.187.445.642.642,0,0,0,.439.186h2.846a.636.636,0,0,0,.626-.631v-3.279a1.055,1.055,0,0,1,1.06-1.055h3.28a.622.622,0,0,0,.444-.187.644.644,0,0,0,.187-.443v-2.842a.639.639,0,0,0-.631-.631h-3.28a1.059,1.059,0,0,1-1.06-1.055v-3.279a.62.62,0,0,0-.187-.445.608.608,0,0,0-.439-.186h-2.846a.608.608,0,0,0-.439.186.62.62,0,0,0-.187.445v3.279a1.059,1.059,0,0,1-1.06,1.055h-3.28A.6.6,0,0,0,1338.721,20057.875Z" transform="translate(-1315.002 -20035.998)" fill="url(#linear-gradient)"/>
</svg>
