<svg xmlns="http://www.w3.org/2000/svg" xmlns:xlink="http://www.w3.org/1999/xlink" width="54.969" height="72" viewBox="0 0 54.969 72">
  <defs>
    <linearGradient id="linear-gradient" x1="0.5" x2="0.5" y2="1" gradientUnits="objectBoundingBox">
      <stop offset="0.13" stop-color="#00a9ed"/>
      <stop offset="1" stop-color="#65106b"/>
    </linearGradient>
  </defs>
  <path id="Path_19367" data-name="Path 19367" d="M112.016,62.985l-1.063-23.392a4.279,4.279,0,0,0-4.217-4.155H96.892a5.631,5.631,0,0,0-5.625-5.625H84.235V18.562a5.594,5.594,0,0,0-.387-2.047A8.436,8.436,0,1,0,72.986,8.437a8.382,8.382,0,0,0,2.189,5.676,5.617,5.617,0,0,0-2.189,4.449V48.8L60.968,60.82a1.406,1.406,0,0,0,0,1.989l5.966,5.966a1.406,1.406,0,0,0,1.989,0l4.063-4.063v5.881A1.406,1.406,0,0,0,74.392,72h8.437a1.406,1.406,0,0,0,1.406-1.406V62.156a1.406,1.406,0,1,0-2.812,0v7.032H75.8V40.306a5.589,5.589,0,0,0,2.812.757h2.812V49.5a1.406,1.406,0,1,0,2.812,0V41.063H91.2L89.863,70.53A1.406,1.406,0,0,0,91.2,72h.065a1.406,1.406,0,0,0,1.4-1.342L93.686,48.34h14.849l.676,14.866a4.571,4.571,0,1,0,2.805-.221ZM75.8,8.437a5.625,5.625,0,1,1,6.147,5.6,5.594,5.594,0,0,0-3.335-1.1c-.177,0-.352.009-.526.025A5.587,5.587,0,0,1,75.8,8.437ZM67.928,65.792l-3.978-3.978,9.035-9.034v7.955ZM78.61,38.25A2.816,2.816,0,0,1,75.8,35.438V18.562a2.812,2.812,0,1,1,5.625,0V31.219a1.406,1.406,0,0,0,1.406,1.406h8.438a2.816,2.816,0,0,1,2.812,2.812V38.25H78.61Zm15.2,7.277.2-4.465h1.469a1.406,1.406,0,0,0,1.406-1.406V38.25h9.844a1.474,1.474,0,0,1,1.408,1.47l.264,5.807Zm17.14,23.66a1.758,1.758,0,1,1,1.758-1.758A1.76,1.76,0,0,1,110.954,69.188Z" transform="translate(-60.556)" fill="url(#linear-gradient)"/>
</svg>
