<svg xmlns="http://www.w3.org/2000/svg" xmlns:xlink="http://www.w3.org/1999/xlink" width="71" height="65.07" viewBox="0 0 71 65.07">
  <defs>
    <linearGradient id="linear-gradient" x1="0.5" x2="0.5" y2="1" gradientUnits="objectBoundingBox">
      <stop offset="0.13" stop-color="#00a9ed"/>
      <stop offset="1" stop-color="#65106b"/>
    </linearGradient>
  </defs>
  <path id="Union_50" data-name="Union 50" d="M-2079.816,20183.072a1.185,1.185,0,0,1-1.185-1.18,1.186,1.186,0,0,1,1.185-1.186h68.635a1.182,1.182,0,0,1,1.18,1.186,1.181,1.181,0,0,1-1.18,1.18Zm41.383-4.73h-11.8a1.183,1.183,0,0,1-1.18-1.186,1.177,1.177,0,0,1,1.18-1.18h7.74a4.744,4.744,0,0,1-.638-2.371v-10.627l-1.206-1.205h-11.812a1.18,1.18,0,0,1-1.18-1.186,1.181,1.181,0,0,1,1.18-1.18h9.447l-16.457-16.453a5.517,5.517,0,0,0,.75,6.863l.446.451a3.684,3.684,0,0,1,1.084,2.613,3.709,3.709,0,0,1-1.074,2.594,3.691,3.691,0,0,1-5.222.016l-.451-.445a12.9,12.9,0,0,1,0-18.24l.365-.375a6.893,6.893,0,0,1-1.813-.355,7.1,7.1,0,0,1-4.452-9,7.1,7.1,0,0,1,9-4.453,7.1,7.1,0,0,1,4.452,9,17.79,17.79,0,0,1,6.089-1.084,3.759,3.759,0,0,0,3.753-3.754,3.551,3.551,0,0,1,3.551-3.551,3.551,3.551,0,0,1,3.551,3.551v.2a10.663,10.663,0,0,1-9.092,10.535l7.907,7.906,8.636-8.625a1.183,1.183,0,0,1,1.672,0l12.04,12.035a4.527,4.527,0,0,1,0,6.4,4.527,4.527,0,0,1-6.408,0l-6.473-6.463-4.245,4.238,5.08,5.076a1.191,1.191,0,0,1,.35.836v14.674a4.739,4.739,0,0,1-4.736,4.736Zm-23.979-37.994,21.3,21.3a1.176,1.176,0,0,1,.344.836v11.123a2.37,2.37,0,0,0,2.365,2.371,2.374,2.374,0,0,0,2.37-2.371v-14.172l-5.562-5.572a1.175,1.175,0,0,1,0-1.672l5.911-5.916a1.183,1.183,0,0,1,1.672,0l7.3,7.293a2.173,2.173,0,0,0,1.53.635,2.161,2.161,0,0,0,1.509-.629,2.16,2.16,0,0,0,.015-3.059l-11.2-11.2-8.631,8.633a1.183,1.183,0,0,1-1.672,0l-9.467-9.467a1.189,1.189,0,0,1-.344-.836v-1.186a1.182,1.182,0,0,1,1.18-1.186,8.293,8.293,0,0,0,8.287-8.281v-.2a1.186,1.186,0,0,0-1.185-1.186,1.186,1.186,0,0,0-1.185,1.186,6.121,6.121,0,0,1-6.119,6.113,15.363,15.363,0,0,0-10.936,4.533l-1.038,1.039a10.53,10.53,0,0,0,0,14.893l.446.445a1.344,1.344,0,0,0,.942.391,1.333,1.333,0,0,0,.937-.391,1.328,1.328,0,0,0,0-1.875l-.451-.451a7.885,7.885,0,0,1,0-11.137,1.189,1.189,0,0,1,.838-.346A1.189,1.189,0,0,1-2062.412,20140.348Zm-9.123-10.992a4.739,4.739,0,0,0,4.736,4.736,4.735,4.735,0,0,0,4.731-4.736,4.73,4.73,0,0,0-4.731-4.73A4.734,4.734,0,0,0-2071.534,20129.355Zm14.2,48.986a1.188,1.188,0,0,1-1.185-1.186,1.182,1.182,0,0,1,1.185-1.18h2.365a1.177,1.177,0,0,1,1.18,1.18,1.183,1.183,0,0,1-1.18,1.186Zm-6.63-1.322-3-1.586-3,1.58a1.166,1.166,0,0,1-.75.117,1.178,1.178,0,0,1-.968-1.363l.572-3.348-2.431-2.365a1.177,1.177,0,0,1-.334-.664,1.18,1.18,0,0,1,.993-1.348l3.358-.49,1.5-3.039a1.166,1.166,0,0,1,.537-.537,1.182,1.182,0,0,1,1.585.537l1.5,3.039,3.358.49a1.175,1.175,0,0,1,.957.807,1.179,1.179,0,0,1-.3,1.215l-2.431,2.365.572,3.344a1.163,1.163,0,0,1-.116.75,1.183,1.183,0,0,1-1.049.633A1.2,1.2,0,0,1-2063.962,20177.02Zm-2.447-3.961,1.434.754-.274-1.6a1.174,1.174,0,0,1,.339-1.043l1.16-1.131-1.6-.238a1.182,1.182,0,0,1-.891-.648l-.714-1.447-.719,1.453a1.18,1.18,0,0,1-.886.643l-1.6.238,1.155,1.131a1.161,1.161,0,0,1,.339,1.043l-.269,1.6,1.428-.754a1.166,1.166,0,0,1,.55-.137A1.166,1.166,0,0,1-2066.408,20173.059Zm3.156-11.285a1.18,1.18,0,0,1-1.18-1.186,1.181,1.181,0,0,1,1.18-1.18h2.37a1.181,1.181,0,0,1,1.18,1.18,1.18,1.18,0,0,1-1.18,1.186Zm43.318-19.031-3.409-1.463a9.175,9.175,0,0,1-4.275-3.754,9.309,9.309,0,0,1-1.317-4.771v-11.914a1.292,1.292,0,0,1,.025-.238,1.186,1.186,0,0,1,1.4-.922,9.653,9.653,0,0,0,6.919-1.205l.517-.314c.036-.014.071-.029.1-.039a.84.84,0,0,1,.106-.047,1.194,1.194,0,0,1,.816,0,.775.775,0,0,1,.1.047.722.722,0,0,1,.1.039l.522.314a9.644,9.644,0,0,0,6.919,1.205h-.01a1.354,1.354,0,0,1,.238-.025,1.183,1.183,0,0,1,1.18,1.186v11.914a9.309,9.309,0,0,1-1.317,4.771,9.187,9.187,0,0,1-4.28,3.754l-3.409,1.463a1.126,1.126,0,0,1-.464.1A1.125,1.125,0,0,1-2019.934,20142.742Zm1.651-2.881,1.758-.756a6.84,6.84,0,0,0,3.186-2.795,6.95,6.95,0,0,0,.978-3.547l-.005-10.566a12,12,0,0,1-5.916-1.033Zm-8.277-7.1a6.9,6.9,0,0,0,.978,3.547,6.823,6.823,0,0,0,3.181,2.791l1.758.76v-18.7a12,12,0,0,1-5.916,1.033Z" transform="translate(2081.001 -20118.002)" fill="url(#linear-gradient)"/>
</svg>
