<svg id="Group_3675" data-name="Group 3675" xmlns="http://www.w3.org/2000/svg" xmlns:xlink="http://www.w3.org/1999/xlink" width="72" height="62.4" viewBox="0 0 72 62.4">
  <defs>
    <linearGradient id="linear-gradient" x1="0.5" x2="0.5" y2="1" gradientUnits="objectBoundingBox">
      <stop offset="0.13" stop-color="#00a9ed"/>
      <stop offset="1" stop-color="#65106b"/>
    </linearGradient>
  </defs>
  <path id="Path_19267" data-name="Path 19267" d="M68.4,53.333v-2.4a4.805,4.805,0,0,0-4.8-4.8H58.8v-6a6.007,6.007,0,0,0-6-6H19.2a6.007,6.007,0,0,0-6,6v6H8.4a4.805,4.805,0,0,0-4.8,4.8v2.4a3.6,3.6,0,0,0-3.6,3.6v2.4a3.592,3.592,0,0,0,2.5,3.41L5.548,91.172a5.989,5.989,0,0,0,5.966,5.361H60.486a5.989,5.989,0,0,0,5.966-5.361L69.5,62.743a3.592,3.592,0,0,0,2.5-3.41v-2.4A3.6,3.6,0,0,0,68.4,53.333Zm-52.8-13.2a3.6,3.6,0,0,1,3.6-3.6H52.8a3.6,3.6,0,0,1,3.6,3.6v6H54v-3.6a3.6,3.6,0,0,0-3.6-3.6H21.6a3.6,3.6,0,0,0-3.6,3.6v3.6H15.6Zm36,2.4v3.6H20.4v-3.6a1.2,1.2,0,0,1,1.2-1.2H50.4A1.2,1.2,0,0,1,51.6,42.533ZM6,50.933a2.4,2.4,0,0,1,2.4-2.4H63.6a2.4,2.4,0,0,1,2.4,2.4v2.4H6ZM64.066,90.917a3.594,3.594,0,0,1-3.58,3.216H11.514a3.594,3.594,0,0,1-3.58-3.216l-3-27.984H67.064ZM69.6,59.333a1.2,1.2,0,0,1-1.2,1.2H3.6a1.2,1.2,0,0,1-1.2-1.2v-2.4a1.2,1.2,0,0,1,1.2-1.2H68.4a1.2,1.2,0,0,1,1.2,1.2Z" transform="translate(0 -34.133)" fill="url(#linear-gradient)"/>
  <path id="Path_19268" data-name="Path 19268" d="M110.933,274.8v.68a6.921,6.921,0,0,0,12.238,4.43l1.5-1.8a13.229,13.229,0,0,0,3.059-8.45v-2.358l3.6-3.6,3.6,3.6v2.358a13.229,13.229,0,0,0,3.059,8.45l1.5,1.8a6.921,6.921,0,0,0,12.237-4.431v-.68a10.867,10.867,0,0,0-2.16-6.48l-8.161-10.88a3.6,3.6,0,0,0-6.479,2.16v4.3l-2.4-2.4v-4.3a1.2,1.2,0,0,0-2.4,0v4.3l-2.4,2.4v-4.3a3.6,3.6,0,0,0-6.479-2.16l-8.161,10.881A10.865,10.865,0,0,0,110.933,274.8Zm26.4-15.2a1.2,1.2,0,0,1,2.159-.721h0l8.161,10.88a8.457,8.457,0,0,1,1.679,5.04v.68a4.521,4.521,0,0,1-7.993,2.894l-1.5-1.8a10.817,10.817,0,0,1-2.5-6.914V259.6Zm-24,15.2a8.454,8.454,0,0,1,1.679-5.04l8.161-10.88h0a1.2,1.2,0,0,1,2.159.721v10.055a10.818,10.818,0,0,1-2.5,6.914l-1.5,1.8a4.521,4.521,0,0,1-7.995-2.893Z" transform="translate(-95.333 -224.797)" fill="url(#linear-gradient)"/>
  <path id="Path_19269" data-name="Path 19269" d="M86.535,259.6a1.2,1.2,0,0,0,1.2-1.2v-1.2a1.2,1.2,0,0,0-2.4,0v1.2a1.2,1.2,0,0,0,1.2,1.2Z" transform="translate(-73.335 -224.8)" fill="url(#linear-gradient)"/>
  <path id="Path_19270" data-name="Path 19270" d="M86.533,298.667a1.2,1.2,0,0,0-1.2,1.2v1.2a1.2,1.2,0,0,0,2.4,0v-1.2a1.2,1.2,0,0,0-1.2-1.2Z" transform="translate(-73.333 -261.467)" fill="url(#linear-gradient)"/>
  <path id="Path_19271" data-name="Path 19271" d="M60.934,284h1.2a1.2,1.2,0,1,0,0-2.4h-1.2a1.2,1.2,0,1,0,0,2.4Z" transform="translate(-51.334 -246.801)" fill="url(#linear-gradient)"/>
  <path id="Path_19272" data-name="Path 19272" d="M103.6,284h1.2a1.2,1.2,0,1,0,0-2.4h-1.2a1.2,1.2,0,0,0,0,2.4Z" transform="translate(-88 -246.801)" fill="url(#linear-gradient)"/>
  <path id="Path_19273" data-name="Path 19273" d="M410.8,259.6a1.2,1.2,0,0,0,1.2-1.2v-1.2a1.2,1.2,0,0,0-2.4,0v1.2a1.2,1.2,0,0,0,1.2,1.2Z" transform="translate(-352.001 -224.8)" fill="url(#linear-gradient)"/>
  <path id="Path_19274" data-name="Path 19274" d="M410.8,298.667a1.2,1.2,0,0,0-1.2,1.2v1.2a1.2,1.2,0,0,0,2.4,0v-1.2a1.2,1.2,0,0,0-1.2-1.2Z" transform="translate(-351.999 -261.467)" fill="url(#linear-gradient)"/>
  <path id="Path_19275" data-name="Path 19275" d="M385.2,284h1.2a1.2,1.2,0,0,0,0-2.4h-1.2a1.2,1.2,0,0,0,0,2.4Z" transform="translate(-330 -246.801)" fill="url(#linear-gradient)"/>
  <path id="Path_19276" data-name="Path 19276" d="M427.867,284h1.2a1.2,1.2,0,0,0,0-2.4h-1.2a1.2,1.2,0,0,0,0,2.4Z" transform="translate(-366.667 -246.801)" fill="url(#linear-gradient)"/>
</svg>
