<?xml version="1.0" encoding="utf-8"?>
<!-- Generator: Adobe Illustrator 14.0.0, SVG Export Plug-In . SVG Version: 6.00 Build 43363)  -->
<!DOCTYPE svg PUBLIC "-//W3C//DTD SVG 1.1//EN" "http://www.w3.org/Graphics/SVG/1.1/DTD/svg11.dtd">
<svg version="1.1" id="depreciation" xmlns="http://www.w3.org/2000/svg" xmlns:xlink="http://www.w3.org/1999/xlink" x="0px"
	 y="0px" width="65px" height="65px" viewBox="0 0 65 65" enable-background="new 0 0 65 65" xml:space="preserve">
<g id="product" transform="translate(0)">
	
		<linearGradient id="Path_19020_1_" gradientUnits="userSpaceOnUse" x1="17.0679" y1="49.8252" x2="17.0679" y2="48.8252" gradientTransform="matrix(30.27 0 0 -47.493 -500.5206 2382.8623)">
		<stop  offset="0.13" style="stop-color:#00A9ED"/>
		<stop  offset="1" style="stop-color:#65106B"/>
	</linearGradient>
	<path id="Path_19020" fill="url(#Path_19020_1_)" d="M9.842,52.448l5.924,2.961v7.36c-0.002,0.68,0.548,1.232,1.228,1.234
		c0.002,0,0.004,0,0.006,0h13.039c0.679,0,1.229-0.551,1.23-1.23V45.975c0.012-3.756-2.833-6.904-6.57-7.271
		c-0.015,0-5.2-0.814-7.613-3.223l-2.763-2.761c-0.921-0.926-2.174-1.446-3.48-1.442v-9.844c0-2.718-2.204-4.922-4.922-4.922
		s-4.922,2.204-4.922,4.922l0,0v16.715C1,44.207,4.423,49.744,9.841,52.455L9.842,52.448z M3.461,21.426
		c0-1.359,1.102-2.461,2.461-2.461c1.359,0,2.461,1.102,2.461,2.461v10.5c-2.354,1.359-3.16,4.369-1.801,6.723
		c0.215,0.373,0.478,0.715,0.783,1.02l6.3,6.3c0.48,0.481,1.259,0.481,1.74,0c0.48-0.48,0.48-1.259,0-1.739l-6.3-6.301
		c-0.961-0.961-0.961-2.52,0-3.48c0.259-0.259,0.573-0.457,0.919-0.579l0,0c0.894-0.315,1.89-0.089,2.559,0.582l2.763,2.762
		c2.853,2.853,9.086,3.927,9.1,3.931c2.48,0.241,4.37,2.33,4.363,4.822v15.572H18.227v-6.891c0-0.467-0.263-0.893-0.68-1.101
		l-6.6-3.3c-4.597-2.279-7.499-6.975-7.482-12.105L3.461,21.426z"/>
	
		<linearGradient id="Path_19021_1_" gradientUnits="userSpaceOnUse" x1="16.5811" y1="45.458" x2="16.5811" y2="44.458" gradientTransform="matrix(31.991 0 0 -30.27 -497.9217 1377.0194)">
		<stop  offset="0.13" style="stop-color:#00A9ED"/>
		<stop  offset="1" style="stop-color:#65106B"/>
	</linearGradient>
	<path id="Path_19021" fill="url(#Path_19021_1_)" d="M17.734,31.27h29.532c0.678,0,1.229-0.551,1.229-1.23V2.23
		c-0.001-0.679-0.55-1.229-1.229-1.23H17.734c-0.679,0-1.229,0.551-1.23,1.23v27.809C16.504,30.718,17.055,31.27,17.734,31.27z
		 M28.804,3.461h7.383v6.631L32.987,8.51c-0.346-0.173-0.753-0.173-1.1,0l-3.083,1.564V3.461z M18.96,3.461h7.383v8.613
		c-0.001,0.679,0.549,1.231,1.228,1.232c0.193,0,0.384-0.045,0.557-0.132l4.322-2.183l4.421,2.188
		c0.608,0.301,1.347,0.052,1.648-0.556c0.084-0.169,0.127-0.355,0.127-0.544V3.461h7.383v25.348H18.96V3.461z"/>
	
		<linearGradient id="Path_19022_1_" gradientUnits="userSpaceOnUse" x1="35.8848" y1="-90.6108" x2="35.8848" y2="-91.6104" gradientTransform="matrix(9.844 0 0 -2.461 -314.6018 -200.3359)">
		<stop  offset="0.13" style="stop-color:#00A9ED"/>
		<stop  offset="1" style="stop-color:#65106B"/>
	</linearGradient>
	<path id="Path_19022" fill="url(#Path_19022_1_)" d="M42.343,22.656H34.96c-0.68,0-1.23,0.551-1.23,1.23
		c0,0.679,0.551,1.23,1.23,1.23h7.383c0.68,0,1.23-0.551,1.23-1.23C43.573,23.207,43.022,22.656,42.343,22.656z"/>
	
		<linearGradient id="Ellipse_223_1_" gradientUnits="userSpaceOnUse" x1="99.5" y1="-64" x2="99.5" y2="-65" gradientTransform="matrix(3 0 0 -3 -241 -144)">
		<stop  offset="0.13" style="stop-color:#00A9ED"/>
		<stop  offset="1" style="stop-color:#65106B"/>
	</linearGradient>
	<circle id="Ellipse_223" fill="url(#Ellipse_223_1_)" cx="57.5" cy="49.5" r="1.5"/>
	
		<linearGradient id="Path_19023_1_" gradientUnits="userSpaceOnUse" x1="17.0698" y1="49.8252" x2="17.0698" y2="48.8252" gradientTransform="matrix(30.268 0 0 -47.494 -467.7807 2382.8958)">
		<stop  offset="0.13" style="stop-color:#00A9ED"/>
		<stop  offset="1" style="stop-color:#65106B"/>
	</linearGradient>
	<path id="Path_19023" fill="url(#Path_19023_1_)" d="M59.078,16.504c-2.717,0.003-4.92,2.205-4.922,4.922v9.844
		c-1.307-0.003-2.56,0.516-3.48,1.442l-2.764,2.763c-1.514,1.515-5.348,2.996-7.521,3.213l-0.082,0.01
		c-3.74,0.365-6.589,3.514-6.578,7.271v16.8c0,0.68,0.551,1.23,1.229,1.23h13.043c0.679,0,1.229-0.551,1.229-1.23v-7.36l4.027-2.013
		c0.595-0.33,0.809-1.08,0.479-1.674c-0.311-0.559-0.995-0.787-1.578-0.527l-4.708,2.354c-0.417,0.209-0.68,0.635-0.681,1.1v6.892
		h-10.58v-15.57c-0.007-2.495,1.888-4.585,4.371-4.823l0.082-0.01c2.67-0.268,7.088-2,9.008-3.92l2.764-2.763
		c0.67-0.671,1.665-0.897,2.559-0.582l0,0c1.282,0.455,1.952,1.863,1.497,3.146c-0.122,0.344-0.319,0.656-0.577,0.916l-6.301,6.299
		c-0.48,0.48-0.48,1.26,0,1.74s1.26,0.48,1.74,0l0,0l6.3-6.3c1.923-1.921,1.923-5.037,0.001-6.959
		c-0.305-0.305-0.646-0.568-1.02-0.783v-10.5c0.001-1.359,1.104-2.46,2.463-2.458c1.357,0.001,2.457,1.101,2.459,2.458v16.715
		c-0.002,2.257-0.566,4.479-1.643,6.463c-0.325,0.597-0.104,1.344,0.493,1.668s1.344,0.104,1.669-0.493
		c1.271-2.345,1.939-4.972,1.941-7.64V21.426C63.995,18.709,61.795,16.508,59.078,16.504z"/>
</g>
</svg>
