<?xml version="1.0" encoding="utf-8"?>
<!-- Generator: Adobe Illustrator 16.0.0, SVG Export Plug-In . SVG Version: 6.00 Build 0)  -->
<!DOCTYPE svg PUBLIC "-//W3C//DTD SVG 1.1//EN" "http://www.w3.org/Graphics/SVG/1.1/DTD/svg11.dtd">
<svg version="1.1" id="Layer_1" xmlns="http://www.w3.org/2000/svg" xmlns:xlink="http://www.w3.org/1999/xlink" x="0px" y="0px"
	 width="63px" height="54.906px" viewBox="0 0 63 54.906" enable-background="new 0 0 63 54.906" xml:space="preserve">
<g id="team_1_" transform="translate(0 -0.25)">
	
		<linearGradient id="Path_17610_1_" gradientUnits="userSpaceOnUse" x1="-269.2837" y1="414.1509" x2="-269.2837" y2="413.1499" gradientTransform="matrix(63.0002 0 0 -39.0952 16996.4609 16207.3223)">
		<stop  offset="0" style="stop-color:#00A9E0"/>
		<stop  offset="1" style="stop-color:#801C7D"/>
	</linearGradient>
	<path id="Path_17610" fill="url(#Path_17610_1_)" d="M57.475,29.214v-3.199c0.074-5.43-4.267-9.891-9.696-9.965
		c-0.071-0.001-0.144-0.001-0.214-0.001h-3.092c-3.956,0.017-7.542,2.332-9.185,5.931c-1.517-0.897-3.247-1.373-5.009-1.378h-3.106
		c-1.757,0.002-3.482,0.471-5,1.358c-1.628-3.589-5.2-5.898-9.141-5.91H9.953C4.461,16.049,0.007,20.497,0,25.989
		c0,0.016,0.032,0.015,0.032,0.031v9.649C0,36.259,0.449,36.764,1.038,36.8h16.133v3.584c0.007,0.601,0.488,1.088,1.088,1.101
		h15.705c0.481,8.011,7.366,14.114,15.378,13.632c8.01-0.481,14.113-7.366,13.632-15.377c-0.249-4.133-2.249-7.965-5.499-10.531
		V29.214z M44.475,18.193h3.09c4.291,0,7.771,3.479,7.771,7.771c0,0.017,0,0.034,0,0.051v1.781
		c-2.108-1.155-4.476-1.757-6.879-1.748c-3.009-0.003-5.944,0.935-8.394,2.683c-0.395-2.088-1.451-3.994-3.011-5.437
		C38.244,20.23,41.188,18.208,44.475,18.193L44.475,18.193z M2.175,34.664v-8.676c-0.018-4.287,3.443-7.776,7.73-7.794
		c0.017,0,0.034,0,0.05,0h3.073c3.27,0.009,6.198,2.026,7.37,5.078c-0.093,0.085-0.193,0.162-0.283,0.252
		c-1.886,1.861-2.946,4.4-2.944,7.049v4.092H2.175z M19.314,30.574c0.016-4.331,3.531-7.831,7.861-7.828h3.1
		c4.26,0.018,7.731,3.426,7.825,7.685c-2.367,2.402-3.82,5.557-4.109,8.918H19.313L19.314,30.574z M48.482,53.001
		c-6.848,0-12.399-5.553-12.399-12.4s5.552-12.4,12.399-12.4c6.85,0,12.4,5.552,12.4,12.4l0,0
		C60.883,47.449,55.332,53.001,48.482,53.001z"/>
	
		<linearGradient id="Path_17611_1_" gradientUnits="userSpaceOnUse" x1="-240.9922" y1="385.1069" x2="-240.9922" y2="384.1069" gradientTransform="matrix(8.1703 0 0 -10.0523 2019.7051 3904.002)">
		<stop  offset="0" style="stop-color:#00A9E0"/>
		<stop  offset="1" style="stop-color:#801C7D"/>
	</linearGradient>
	<path id="Path_17611" fill="url(#Path_17611_1_)" d="M53.729,40.689h-4.957v-6.837c0.002-0.591-0.478-1.071-1.069-1.072
		c-0.591-0.001-1.071,0.478-1.072,1.069c0,0.001,0,0.002,0,0.003v7.866c0.013,0.605,0.499,1.096,1.104,1.113h5.994
		c0.591,0.001,1.071-0.478,1.072-1.069c0-0.591-0.479-1.071-1.07-1.072L53.729,40.689L53.729,40.689z"/>
	
		<linearGradient id="Path_17612_1_" gradientUnits="userSpaceOnUse" x1="-254.1968" y1="396.5132" x2="-254.1968" y2="395.5132" gradientTransform="matrix(13.7594 0 0 -14.193 3526.3086 5632.6387)">
		<stop  offset="0" style="stop-color:#00A9E0"/>
		<stop  offset="1" style="stop-color:#801C7D"/>
	</linearGradient>
	<path id="Path_17612" fill="url(#Path_17612_1_)" d="M28.713,4.937c-3.919,0.123-6.997,3.4-6.874,7.319
		c0.118,3.747,3.127,6.756,6.874,6.874h0.009c3.918-0.125,6.995-3.404,6.87-7.323C35.472,8.061,32.461,5.053,28.713,4.937
		L28.713,4.937z M28.722,7.079c2.736,0,4.954,2.218,4.954,4.955c0,2.736-2.217,4.955-4.954,4.955h-0.008
		c-2.736,0-4.955-2.219-4.955-4.955c0-2.736,2.218-4.955,4.955-4.955H28.722z"/>
	
		<linearGradient id="Path_17613_1_" gradientUnits="userSpaceOnUse" x1="-254.8345" y1="396.771" x2="-254.8345" y2="395.771" gradientTransform="matrix(14.2298 0 0 -14.327 3672.2236 5684.793)">
		<stop  offset="0" style="stop-color:#00A9E0"/>
		<stop  offset="1" style="stop-color:#801C7D"/>
	</linearGradient>
	<path id="Path_17613" fill="url(#Path_17613_1_)" d="M45.934,0.25c-3.956,0.047-7.125,3.292-7.078,7.248
		c0.045,3.891,3.188,7.033,7.078,7.079h0.101c1.873-0.073,3.653-0.835,5-2.14c2.772-2.826,2.728-7.365-0.099-10.137
		c-1.335-1.309-3.128-2.044-4.998-2.05H45.934z M45.943,2.392c2.779,0.026,5.012,2.301,4.984,5.081
		c-0.012,1.292-0.521,2.531-1.422,3.458c-0.913,0.948-2.17,1.488-3.486,1.5h-0.082c-2.773,0-5.021-2.249-5.021-5.021
		c0-2.773,2.248-5.021,5.021-5.021L45.943,2.392z"/>
	
		<linearGradient id="Path_17614_1_" gradientUnits="userSpaceOnUse" x1="-254.8403" y1="396.771" x2="-254.8403" y2="395.771" gradientTransform="matrix(14.2344 0 0 -14.327 3639.0239 5684.793)">
		<stop  offset="0" style="stop-color:#00A9E0"/>
		<stop  offset="1" style="stop-color:#801C7D"/>
	</linearGradient>
	<path id="Path_17614" fill="url(#Path_17614_1_)" d="M11.492,0.25C7.536,0.297,4.366,3.542,4.413,7.498
		c0.046,3.891,3.188,7.033,7.079,7.079l0,0c3.937-0.046,7.116-3.23,7.155-7.167V7.384c-0.013-3.941-3.209-7.13-7.151-7.134H11.492z
		 M11.501,2.392c2.757,0.039,4.96,2.305,4.921,5.062c-0.038,2.702-2.219,4.883-4.921,4.921l0,0
		c-2.757-0.039-4.961-2.306-4.922-5.063c0.038-2.703,2.22-4.884,4.922-4.922V2.392z"/>
</g>
</svg>
