<?xml version="1.0" encoding="utf-8"?>
<!-- Generator: Adobe Illustrator 16.0.0, SVG Export Plug-In . SVG Version: 6.00 Build 0)  -->
<!DOCTYPE svg PUBLIC "-//W3C//DTD SVG 1.1//EN" "http://www.w3.org/Graphics/SVG/1.1/DTD/svg11.dtd">
<svg version="1.1" id="Layer_1" xmlns="http://www.w3.org/2000/svg" xmlns:xlink="http://www.w3.org/1999/xlink" x="0px" y="0px"
	 width="59.818px" height="63px" viewBox="0 0 59.818 63" enable-background="new 0 0 59.818 63" xml:space="preserve">
<g id="accident" transform="translate(-11.229 -26.753)">
	<g id="Group_2192" transform="translate(11.247 73.483)">
		<g id="Group_2191">
			
				<linearGradient id="Path_17309_1_" gradientUnits="userSpaceOnUse" x1="-257.947" y1="355.2368" x2="-257.947" y2="354.2368" gradientTransform="matrix(15.5695 0 0 -14.9412 4023.8835 5307.6719)">
				<stop  offset="0.13" style="stop-color:#00A9ED"/>
				<stop  offset="1" style="stop-color:#65106B"/>
			</linearGradient>
			<path id="Path_17309" fill="url(#Path_17309_1_)" d="M15.503,5.61c-0.156-0.481-0.572-0.832-1.074-0.904l-3.771-0.549
				L8.972,0.741c-0.325-0.658-1.123-0.929-1.78-0.604C6.93,0.266,6.719,0.479,6.589,0.741L4.905,4.157L1.131,4.707
				C0.405,4.816-0.095,5.493,0.013,6.218c0.043,0.284,0.176,0.547,0.381,0.749l2.729,2.658L2.48,13.381
				c-0.123,0.723,0.363,1.41,1.087,1.533c0.287,0.049,0.582,0.002,0.84-0.134l3.373-1.772l3.372,1.779
				c0.649,0.342,1.453,0.092,1.794-0.559c0.136-0.258,0.183-0.554,0.134-0.841l-0.645-3.757l2.729-2.657
				C15.528,6.622,15.66,6.092,15.503,5.61z M10.089,8.209C9.775,8.516,9.634,8.957,9.708,9.388l0.307,1.79l-1.608-0.846
				c-0.387-0.202-0.849-0.202-1.235,0l-1.607,0.846l0.306-1.79c0.075-0.432-0.067-0.872-0.381-1.179l-1.3-1.267l1.8-0.266
				c0.433-0.063,0.807-0.335,1-0.728l0.8-1.629l0.8,1.629c0.193,0.392,0.567,0.664,1,0.728l1.8,0.266L10.089,8.209z"/>
		</g>
	</g>
	<g id="Group_2194" transform="translate(11.229 26.753)">
		<g id="Group_2193" transform="translate(0 0)">
			
				<linearGradient id="Path_17310_1_" gradientUnits="userSpaceOnUse" x1="-270.6243" y1="421.8262" x2="-270.6243" y2="420.8262" gradientTransform="matrix(59.8232 0 0 -63.0042 16219.5342 26576.8496)">
				<stop  offset="0.13" style="stop-color:#00A9ED"/>
				<stop  offset="1" style="stop-color:#65106B"/>
			</linearGradient>
			<path id="Path_17310" fill="url(#Path_17310_1_)" d="M58.329,29.867L44.81,16.353c-0.519-0.519-1.36-0.519-1.879,0l-9.7,9.69
				l-8.881-8.881c5.863-0.875,10.204-5.906,10.21-11.834V5.101c-0.001-2.202-1.787-3.986-3.988-3.985
				C28.37,1.117,26.587,2.9,26.586,5.101c-0.004,2.327-1.89,4.212-4.216,4.214c-2.334,0.004-4.648,0.417-6.841,1.218
				c1.413-4.171-0.824-8.698-4.995-10.11C6.363-0.989,1.836,1.248,0.424,5.419s0.824,8.698,4.996,10.11
				c0.658,0.223,1.343,0.359,2.037,0.404L7.05,16.35c-5.657,5.657-5.657,14.829,0,20.486l0.5,0.5
				c1.638,1.601,4.263,1.57,5.863-0.068c1.576-1.613,1.573-4.19-0.006-5.801l-0.5-0.5c-2.051-2.056-2.399-5.259-0.84-7.708
				l18.485,18.478H19.94c-0.733-0.002-1.329,0.593-1.331,1.326c-0.001,0.734,0.594,1.33,1.327,1.332c0.002,0,0.003,0,0.004,0h13.267
				l1.355,1.358v11.935c0.002,0.935,0.25,1.852,0.719,2.658h-8.692c-0.734-0.001-1.33,0.594-1.331,1.327
				c-0.001,0.734,0.593,1.33,1.327,1.331c0.001,0,0.003,0,0.004,0h13.29c2.936,0,5.315-2.38,5.315-5.316l0,0V41.204
				c0.001-0.353-0.14-0.69-0.389-0.94l-5.706-5.705l4.767-4.759l7.268,7.263c1.988,1.988,5.212,1.988,7.2,0s1.988-5.212,0-7.201
				L58.329,29.867z M2.665,7.985c0-2.936,2.38-5.316,5.315-5.316c2.937,0,5.316,2.38,5.316,5.316s-2.38,5.316-5.316,5.316
				C5.045,13.301,2.665,10.921,2.665,7.985L2.665,7.985z M56.428,35.186c-0.945,0.94-2.474,0.938-3.415-0.008l-8.2-8.194
				c-0.519-0.519-1.359-0.519-1.879,0l-6.644,6.644c-0.519,0.519-0.519,1.36,0,1.879l6.25,6.255v15.922
				c0,1.469-1.19,2.658-2.658,2.658s-2.658-1.189-2.658-2.658V45.191c-0.002-0.354-0.144-0.69-0.394-0.938L12.908,20.329
				c-0.52-0.519-1.36-0.519-1.88,0c-3.45,3.457-3.45,9.055,0,12.512l0.5,0.5c0.584,0.581,0.585,1.525,0.004,2.108
				c-0.581,0.584-1.525,0.585-2.108,0.004l0,0l-0.5-0.5c-4.619-4.619-4.619-12.108,0-16.727l1.165-1.173
				c3.25-3.269,7.673-5.101,12.283-5.089c3.792-0.003,6.866-3.074,6.874-6.866c-0.001-0.734,0.593-1.33,1.327-1.331
				c0.733-0.001,1.329,0.593,1.33,1.327c0,0.001,0,0.002,0,0.004v0.227c-0.007,5.133-4.167,9.292-9.3,9.3
				c-0.733,0-1.329,0.595-1.329,1.329l0,0v1.329c0,0.353,0.14,0.69,0.39,0.94L32.293,28.86c0.519,0.519,1.359,0.519,1.879,0
				l9.693-9.691L56.44,31.747c0.945,0.952,0.94,2.491-0.012,3.437V35.186z"/>
		</g>
	</g>
	<g id="Group_2196" transform="translate(28.513 87.095)">
		<g id="Group_2195">
			
				<linearGradient id="Path_17311_1_" gradientUnits="userSpaceOnUse" x1="-242.1133" y1="221.3221" x2="-242.1133" y2="220.3221" gradientTransform="matrix(5.316 0 0 -2.658 1289.7246 588.2699)">
				<stop  offset="0.13" style="stop-color:#00A9ED"/>
				<stop  offset="1" style="stop-color:#65106B"/>
			</linearGradient>
			<path id="Path_17311" fill="url(#Path_17311_1_)" d="M3.987,0H1.329c-0.733-0.002-1.33,0.592-1.332,1.326
				c-0.002,0.733,0.591,1.33,1.325,1.332c0.002,0,0.005,0,0.007,0h2.658c0.734-0.002,1.327-0.599,1.325-1.332
				C5.31,0.595,4.718,0.002,3.987,0z"/>
		</g>
	</g>
	<g id="Group_2198" transform="translate(21.867 68.489)">
		<g id="Group_2197">
			
				<linearGradient id="Path_17312_1_" gradientUnits="userSpaceOnUse" x1="-235.5377" y1="239.928" x2="-235.5377" y2="238.928" gradientTransform="matrix(5.3235 0 0 -2.658 1256.5339 637.7249)">
				<stop  offset="0.13" style="stop-color:#00A9ED"/>
				<stop  offset="1" style="stop-color:#65106B"/>
			</linearGradient>
			<path id="Path_17312" fill="url(#Path_17312_1_)" d="M3.987,0H1.329C0.595-0.002-0.002,0.591-0.004,1.326
				c-0.002,0.733,0.592,1.331,1.325,1.333c0.003,0,0.005,0,0.008,0h2.658c0.733,0.002,1.33-0.592,1.332-1.326
				C5.322,0.599,4.728,0.002,3.994,0C3.992,0,3.989,0,3.987,0z"/>
		</g>
	</g>
</g>
</svg>
