<svg xmlns="http://www.w3.org/2000/svg" width="62.998" height="63" viewBox="0 0 62.998 63">
  <g id="Page-1" transform="translate(0.002 0.003)">
    <g id="_010---Idea" data-name="010---Idea" transform="translate(-0.002 -0.003)">
      <path id="Shape" d="M2.546,40.258a7.494,7.494,0,0,0,1.091.63c.454.232,1.214.621,1.267.892a1.824,1.824,0,0,1-.124,1.064c-.156.336-.32.625-.462.874-.384.679-1.028,1.817-.058,2.61.227.21.618.513.975.787a2.645,2.645,0,0,0-.341,1.515,1.512,1.512,0,0,0,.623,1.032c.233.165.482.308.728.447.621.354.863.519.945.847a2.893,2.893,0,0,1-.1,1.26c-.062.28-.122.562-.157.84a6.248,6.248,0,0,0,.345,2.829,3.933,3.933,0,0,0,3.714,2.861,4.222,4.222,0,0,0,.861-.091A79.673,79.673,0,0,0,20.7,56.007c2.366,1.388,3.86,5.609,4.249,7.193a1.05,1.05,0,0,0,1.019.8l26.354-.073a1.05,1.05,0,0,0,1-1.365,8.1,8.1,0,0,0-1.064-1.995,9.8,9.8,0,0,1-.679-1.136,19.833,19.833,0,0,1-1.185-2.986A35.428,35.428,0,0,1,49.16,50.3a1.05,1.05,0,1,0-2.083.256,37.456,37.456,0,0,0,1.309,6.51,22.006,22.006,0,0,0,1.3,3.286,11.648,11.648,0,0,0,.814,1.372l.07.1L26.761,61.9a16.726,16.726,0,0,0-3.7-6.7l.945-.331c.7-.246,1.234-.43,1.506-.518,4.5-1.423,6.747-3.471,6.686-6.09a1.023,1.023,0,0,0-1.069-1.025A1.05,1.05,0,0,0,30.109,48.3c.025,1.08-.86,2.656-5.225,4.037-.285.091-.833.282-1.56.537-.78.273-1.772.619-2.866.991H20.45a81.694,81.694,0,0,1-9.029,2.73A1.858,1.858,0,0,1,9.26,55.2a4.175,4.175,0,0,1-.247-1.873c.027-.22.078-.439.126-.658a4.6,4.6,0,0,0,.091-2.235,3.489,3.489,0,0,0-1.943-2.146l-.218-.125a3.936,3.936,0,0,1,.4-.649,1.05,1.05,0,0,0-.2-1.5c-.252-.185-.846-.63-1.281-.981.05-.091.1-.192.157-.283.165-.289.353-.625.537-1.013a3.936,3.936,0,0,0,.28-2.35c-.252-1.281-1.478-1.909-2.374-2.367a5.967,5.967,0,0,1-.863-.5,4.459,4.459,0,0,1-.63-.512c0-.159.17-.543.97-1.518a42.234,42.234,0,0,0,4.806-7.805,3.1,3.1,0,0,0,.406-1.421,3.675,3.675,0,0,0-1.534-2.625c-.425-.39-.825-.757-.871-1.1a1.908,1.908,0,0,1,.164-.721c.171-.45.369-.891.567-1.333a15.339,15.339,0,0,0,1.027-2.769l.1-.447a26.252,26.252,0,0,1,.859-3.1,18.006,18.006,0,0,1,3.767-6.154c2.009-2.125,5.17-3.629,9.412-4.472a68.246,68.246,0,0,1,9.851-1.42,22.393,22.393,0,0,1,4.942.28,1.05,1.05,0,0,0,.359-2.068,24.385,24.385,0,0,0-5.41-.309A70.078,70.078,0,0,0,22.361,2.49c-4.734.945-8.175,2.6-10.524,5.087a20.117,20.117,0,0,0-4.211,6.87A28.479,28.479,0,0,0,6.7,17.8l-.1.443a13.7,13.7,0,0,1-.9,2.392c-.21.479-.428.958-.616,1.453A3.516,3.516,0,0,0,4.8,23.844,4.009,4.009,0,0,0,6.33,26.188c.513.471.85.8.855,1.092a1.743,1.743,0,0,1-.18.457,40.506,40.506,0,0,1-4.6,7.472c-.759.925-1.554,2-1.385,3.082A3.205,3.205,0,0,0,2.546,40.258Z" transform="translate(-0.998 -0.997)"/>
      <path id="Shape-2" data-name="Shape" d="M12.266,19.387l.1-.467a23.4,23.4,0,0,1,.7-2.581,13.835,13.835,0,0,1,2.881-4.725,10.993,10.993,0,0,1,4.839-2.657,1.05,1.05,0,1,0-.611-2.009,13,13,0,0,0-5.755,3.224A15.939,15.939,0,0,0,11.1,15.615a25.026,25.026,0,0,0-.778,2.844l-.1.455a1.05,1.05,0,0,0,.784,1.26,1.029,1.029,0,0,0,.238.027A1.05,1.05,0,0,0,12.266,19.387Z" transform="translate(-0.539 -0.702)"/>
      <ellipse id="Oval" cx="1.5" cy="1" rx="1.5" ry="1" transform="translate(8 21)"/>
      <path id="Shape-3" data-name="Shape" d="M28,21.87a14.391,14.391,0,0,0,3.548,9.754,18.037,18.037,0,0,0,2.415,2.1c1.536,1.187,2.991,2.322,3.378,3.9a3.15,3.15,0,0,0-1.991,2.923v2.1a3.15,3.15,0,0,0,2.1,2.957V45.8a4.2,4.2,0,1,0,8.4,0V45.6a3.15,3.15,0,0,0,2.1-2.957v-2.1a3.15,3.15,0,0,0-1.995-2.923c.385-1.575,1.842-2.714,3.378-3.9a18.115,18.115,0,0,0,2.415-2.1A14.4,14.4,0,0,0,55.3,21.87,13.926,13.926,0,0,0,41.649,8,13.926,13.926,0,0,0,28,21.87Zm10.5,1.879H37.45A1.05,1.05,0,1,1,38.5,22.7ZM42.7,37.4H40.6V25.849h2.1Zm-1.05,10.5a2.1,2.1,0,0,1-2.1-2.1h4.2A2.1,2.1,0,0,1,41.649,47.9Zm4.2-5.25A1.05,1.05,0,0,1,44.8,43.7H38.5a1.05,1.05,0,0,1-1.05-1.05v-2.1A1.05,1.05,0,0,1,38.5,39.5h6.3a1.05,1.05,0,0,1,1.05,1.05ZM53.2,21.9a12.277,12.277,0,0,1-3.006,8.314,16.408,16.408,0,0,1-2.139,1.845A14.7,14.7,0,0,0,44.8,35.168V25.849h1.05A3.15,3.15,0,1,0,42.7,22.7v1.05H40.6V22.7a3.15,3.15,0,1,0-3.15,3.15H38.5v9.319a14.682,14.682,0,0,0-3.25-3.106,16.44,16.44,0,0,1-2.14-1.846A12.271,12.271,0,0,1,30.1,21.9c.1-6.4,5.388-11.8,11.549-11.8S53.1,15.5,53.2,21.9Zm-8.4,1.847V22.7a1.05,1.05,0,1,1,1.05,1.05Z" transform="translate(0.35 -0.647)" fill="#147db2"/>
      <path id="Shape-4" data-name="Shape" d="M57.05,22.1H60.2a1.05,1.05,0,1,0,0-2.1H57.05a1.05,1.05,0,0,0,0,2.1Z" transform="translate(1.749 -0.048)" fill="#147db2"/>
      <path id="Shape-5" data-name="Shape" d="M52.363,10.893a1.05,1.05,0,0,0,.743-.308l2.227-2.228a1.05,1.05,0,1,0-1.485-1.485L51.621,9.1a1.05,1.05,0,0,0,.742,1.793Z" transform="translate(1.515 -0.719)" fill="#147db2"/>
      <path id="Shape-6" data-name="Shape" d="M41.05,6.25A1.05,1.05,0,0,0,42.1,5.2V2.05a1.05,1.05,0,1,0-2.1,0V5.2A1.05,1.05,0,0,0,41.05,6.25Z" transform="translate(0.95 -0.997)" fill="#147db2"/>
      <path id="Shape-7" data-name="Shape" d="M30.586,10.586a1.05,1.05,0,0,0,0-1.486L28.358,6.873a1.05,1.05,0,1,0-1.485,1.485L29.1,10.586a1.05,1.05,0,0,0,1.486,0Z" transform="translate(0.278 -0.719)" fill="#147db2"/>
      <path id="Shape-8" data-name="Shape" d="M22.05,20a1.05,1.05,0,0,0,0,2.1H25.2a1.05,1.05,0,0,0,0-2.1Z" transform="translate(0.001 -0.048)" fill="#147db2"/>
    </g>
  </g>
</svg>
