<?xml version="1.0" encoding="utf-8"?>
<!-- Generator: Adobe Illustrator 14.0.0, SVG Export Plug-In . SVG Version: 6.00 Build 43363)  -->
<!DOCTYPE svg PUBLIC "-//W3C//DTD SVG 1.1//EN" "http://www.w3.org/Graphics/SVG/1.1/DTD/svg11.dtd">
<svg version="1.1" id="depreciation" xmlns="http://www.w3.org/2000/svg" xmlns:xlink="http://www.w3.org/1999/xlink" x="0px"
	 y="0px" width="65px" height="65px" viewBox="0 0 65 65" enable-background="new 0 0 65 65" xml:space="preserve">
<g id="contract_1_" transform="translate(0.001)">
	
		<linearGradient id="Path_19092_1_" gradientUnits="userSpaceOnUse" x1="12.3559" y1="51.0381" x2="12.3559" y2="50.0381" gradientTransform="matrix(63.0008 0 0 -56.878 -745.933 2906.9756)">
		<stop  offset="0.13" style="stop-color:#00A9ED"/>
		<stop  offset="1" style="stop-color:#65106B"/>
	</linearGradient>
	<path id="Path_19092" fill="url(#Path_19092_1_)" d="M57.356,4.061H16.618c-3.52-0.014-6.387,2.822-6.412,6.341L9.943,46.273h-7.95
		C1.427,46.297,0.985,46.77,1,47.335v4.937c0.015,4.577,3.592,8.351,8.162,8.608v0.06h34.305v-0.067
		c0.255,0.01,0.409,0.067,0.585,0.067h0.024c4.761-0.028,8.598-3.908,8.573-8.67V20.895h10.356c0.568-0.027,1.011-0.504,0.994-1.073
		v-9.061C64.005,7.081,61.036,4.087,57.356,4.061z M9.608,58.898H9.6c-3.638-0.027-6.569-2.99-6.56-6.627v-3.957h32.393v3.939
		c-0.008,2.297,0.9,4.502,2.521,6.127c0.196,0.154,0.376,0.328,0.537,0.518H9.608z M50.608,52.27c0.022,3.634-2.9,6.6-6.534,6.629
		h-0.021c-3.649-0.025-6.591-2.996-6.582-6.645v-4.919c0.004-0.571-0.448-1.042-1.02-1.062H11.984l0.263-35.865
		c0.021-2.395,1.976-4.321,4.371-4.307h35.921c-1.21,1.265-1.899,2.939-1.931,4.69V52.27z M61.959,10.782v8.073h-9.31v-8.066
		c0.02-2.577,2.1-4.662,4.677-4.688h0.028c2.557,0.028,4.611,2.116,4.6,4.673L61.959,10.782z"/>
	
		<linearGradient id="Path_19093_1_" gradientUnits="userSpaceOnUse" x1="23.2636" y1="40.8369" x2="23.2636" y2="39.8369" gradientTransform="matrix(17.9827 0 0 -22.0583 -387.5683 911.6901)">
		<stop  offset="0.13" style="stop-color:#00A9ED"/>
		<stop  offset="1" style="stop-color:#65106B"/>
	</linearGradient>
	<path id="Path_19093" fill="url(#Path_19093_1_)" d="M24.956,29.173l5.26,3.6c0.343,0.238,0.797,0.238,1.14,0l5.245-3.6
		c1.913-1.434,3.077-3.655,3.166-6.045v-7.275c0.01-0.385-0.201-0.741-0.543-0.916l-8.01-3.939c-0.281-0.14-0.611-0.14-0.892,0
		l-7.994,3.929c-0.342,0.175-0.553,0.531-0.543,0.916v7.287C21.876,25.52,23.041,27.74,24.956,29.173z M23.827,16.479l6.95-3.429
		l6.951,3.439v6.641c-0.086,1.716-0.919,3.308-2.278,4.358l-4.684,3.2l-4.666-3.2c-1.358-1.051-2.188-2.643-2.273-4.358
		L23.827,16.479z"/>
	
		<linearGradient id="Path_19094_1_" gradientUnits="userSpaceOnUse" x1="41.5166" y1="-2.5562" x2="41.5166" y2="-3.5562" gradientTransform="matrix(8.1898 0 0 -6.1203 -309.2392 3.2124)">
		<stop  offset="0.13" style="stop-color:#00A9ED"/>
		<stop  offset="1" style="stop-color:#65106B"/>
	</linearGradient>
	<path id="Path_19094" fill="url(#Path_19094_1_)" d="M29.052,24.67c0.19,0.194,0.45,0.305,0.722,0.306l0,0
		c0.271,0,0.53-0.108,0.721-0.3l4.059-4.06c0.408-0.389,0.424-1.035,0.035-1.444c-0.389-0.408-1.035-0.424-1.443-0.035
		c-0.012,0.012-0.023,0.023-0.035,0.035l-3.333,3.333l-1.333-1.346c-0.387-0.41-1.033-0.428-1.443-0.041
		c-0.41,0.387-0.428,1.033-0.041,1.443c0.011,0.012,0.022,0.023,0.034,0.034L29.052,24.67z"/>
	
		<linearGradient id="Path_19095_1_" gradientUnits="userSpaceOnUse" x1="18.3467" y1="-122.6782" x2="18.3467" y2="-123.6782" gradientTransform="matrix(26.526 0 0 -2.04 -455.4575 -214.5728)">
		<stop  offset="0.13" style="stop-color:#00A9ED"/>
		<stop  offset="1" style="stop-color:#65106B"/>
	</linearGradient>
	<path id="Path_19095" fill="url(#Path_19095_1_)" d="M43.467,35.689H18.981c-0.563,0.001-1.019,0.459-1.017,1.021
		c0.001,0.563,0.456,1.017,1.017,1.018h24.486c0.563,0.002,1.021-0.453,1.022-1.018c0.002-0.563-0.453-1.021-1.018-1.021
		C43.471,35.689,43.469,35.689,43.467,35.689L43.467,35.689z"/>
	
		<linearGradient id="Path_19096_1_" gradientUnits="userSpaceOnUse" x1="18.3476" y1="-122.6768" x2="18.3476" y2="-123.6768" gradientTransform="matrix(26.526 0 0 -2.04 -455.458 -209.8536)">
		<stop  offset="0.13" style="stop-color:#00A9ED"/>
		<stop  offset="1" style="stop-color:#65106B"/>
	</linearGradient>
	<path id="Path_19096" fill="url(#Path_19096_1_)" d="M43.467,40.407H18.981c-0.563,0-1.02,0.456-1.02,1.021
		c0,0.563,0.457,1.02,1.02,1.02h24.486c0.563,0,1.021-0.457,1.021-1.02C44.487,40.863,44.03,40.407,43.467,40.407L43.467,40.407z"/>
</g>
</svg>
