<svg xmlns="http://www.w3.org/2000/svg" xmlns:xlink="http://www.w3.org/1999/xlink" width="62.993" height="70" viewBox="0 0 62.993 70">
  <defs>
    <linearGradient id="linear-gradient" x1="0.5" x2="0.5" y2="1" gradientUnits="objectBoundingBox">
      <stop offset="0.13" stop-color="#00a9ed"/>
      <stop offset="1" stop-color="#65106b"/>
    </linearGradient>
  </defs>
  <path id="Path_19206" data-name="Path 19206" d="M75.583,34.378h4.883a2,2,0,0,0,2-2V27.494a2,2,0,0,0-2-2H75.583a2,2,0,0,0-2,2v4.883A2,2,0,0,0,75.583,34.378Zm.049-6.836h4.785v4.785H75.631Zm-.049,19.824h4.883a2,2,0,0,0,2-2V40.482a2,2,0,0,0-2-2H75.583a2,2,0,0,0-2,2v4.883A2,2,0,0,0,75.583,47.367Zm.049-6.836h4.785v4.785H75.631ZM61.649,34.378h4.883a2,2,0,0,0,2-2V27.494a2,2,0,0,0-2-2H61.649a2,2,0,0,0-2,2v4.883A2,2,0,0,0,61.649,34.378Zm.049-6.836h4.785v4.785H61.7ZM38.664,50.859H33.781a2,2,0,0,0-2,2v4.883a2,2,0,0,0,2,2h4.883a2,2,0,0,0,2-2V52.861a2,2,0,0,0-2-2ZM38.615,57.7H33.83V52.91h4.785Zm.049-32.2H33.781a2,2,0,0,0-2,2v4.883a2,2,0,0,0,2,2h4.883a2,2,0,0,0,2-2V27.494a2,2,0,0,0-2-2Zm-.049,6.836H33.83V27.543h4.785ZM61.649,47.062h4.883a2,2,0,0,0,2-2V40.178a2,2,0,0,0-2-2H61.649a2,2,0,0,0-2,2V45.06A2,2,0,0,0,61.649,47.062Zm.049-6.836h4.785v4.785H61.7ZM83.486,4.686H79.1V3.118A3.122,3.122,0,0,0,75.984,0h-.471a3.122,3.122,0,0,0-3.118,3.118V4.686H41.852V3.118A3.122,3.122,0,0,0,38.734,0h-.471a3.122,3.122,0,0,0-3.118,3.118V4.686H30.761A5.14,5.14,0,0,0,25.627,9.82V64.873A5.133,5.133,0,0,0,30.754,70H83.493a5.133,5.133,0,0,0,5.127-5.127V9.82a5.14,5.14,0,0,0-5.134-5.134Zm-9.04-1.568a1.069,1.069,0,0,1,1.067-1.067h.471a1.069,1.069,0,0,1,1.067,1.067V4.686H74.446Zm-37.25,0a1.069,1.069,0,0,1,1.067-1.067h.471A1.069,1.069,0,0,1,39.8,3.118V4.686H37.2V3.118ZM86.569,64.873a3.08,3.08,0,0,1-3.076,3.076H30.754a3.08,3.08,0,0,1-3.076-3.076v-.006A5.107,5.107,0,0,0,30.761,65.9H72.335a5.1,5.1,0,0,0,3.63-1.5l10.6-10.6Zm-11.65-2.332a4.386,4.386,0,0,0,.124-1.034V54.662a2.344,2.344,0,0,1,2.341-2.341h6.845a4.386,4.386,0,0,0,1.034-.124Zm11.65-43.2H42.877a1.025,1.025,0,0,0,0,2.051H86.569V47.93a2.344,2.344,0,0,1-2.341,2.341H77.384a4.4,4.4,0,0,0-4.392,4.392v6.845a2.344,2.344,0,0,1-2.341,2.341H30.761a3.087,3.087,0,0,1-3.083-3.083V21.39h11.1a1.025,1.025,0,0,0,0-2.051h-11.1V9.82a3.087,3.087,0,0,1,3.083-3.083h4.384V9.752a3.122,3.122,0,0,0,3.118,3.118,1.025,1.025,0,0,0,0-2.051A1.069,1.069,0,0,1,37.2,9.752V6.737h35.2V9.752a3.122,3.122,0,0,0,3.118,3.118,1.025,1.025,0,0,0,0-2.051,1.069,1.069,0,0,1-1.067-1.067V6.737h9.04A3.087,3.087,0,0,1,86.569,9.82ZM38.664,38.176H33.781a2,2,0,0,0-2,2V45.06a2,2,0,0,0,2,2h4.883a2,2,0,0,0,2-2V40.178A2,2,0,0,0,38.664,38.176Zm-.049,6.836H33.83V40.226h4.785Zm9.1-10.633H52.6a2,2,0,0,0,2-2V27.494a2,2,0,0,0-2-2H47.715a2,2,0,0,0-2,2v4.883A2,2,0,0,0,47.715,34.378Zm.049-6.836h4.785v4.785H47.764ZM61.7,57.7a1.025,1.025,0,0,0-2.05.049,2,2,0,0,0,2,2h4.883a2,2,0,0,0,2-2V52.861a2,2,0,0,0-2-2H61.649a2,2,0,0,0-2,2V54.27a1.025,1.025,0,0,0,2.051,0V52.91h4.785V57.7ZM47.715,47.062H52.6a2,2,0,0,0,2-2V40.178a2,2,0,0,0-2-2H47.715a2,2,0,0,0-2,2V45.06A2,2,0,0,0,47.715,47.062Zm.049-6.836h4.785v4.785H47.764Zm-.049,19.52H52.6a2,2,0,0,0,2-2V52.861a2,2,0,0,0-2-2H47.715a2,2,0,0,0-2,2v4.883A2,2,0,0,0,47.715,59.746Zm.049-6.836h4.785V57.7H47.764Z" transform="translate(-25.627)" fill="url(#linear-gradient)"/>
</svg>
