<?xml version="1.0" encoding="utf-8"?>
<!-- Generator: Adobe Illustrator 16.0.0, SVG Export Plug-In . SVG Version: 6.00 Build 0)  -->
<!DOCTYPE svg PUBLIC "-//W3C//DTD SVG 1.1//EN" "http://www.w3.org/Graphics/SVG/1.1/DTD/svg11.dtd">
<svg version="1.1" id="Layer_1" xmlns="http://www.w3.org/2000/svg" xmlns:xlink="http://www.w3.org/1999/xlink" x="0px" y="0px"
	 width="47.715px" height="63px" viewBox="0 0 47.715 63" enable-background="new 0 0 47.715 63" xml:space="preserve">
<g id="records" transform="translate(-76 -19)">
	
		<linearGradient id="Path_17401_1_" gradientUnits="userSpaceOnUse" x1="-187.8706" y1="422.4141" x2="-187.8706" y2="421.4141" gradientTransform="matrix(15.8195 0 0 -15.8201 3075.4648 6707.8486)">
		<stop  offset="0" style="stop-color:#6BC4F0"/>
		<stop  offset="1" style="stop-color:#801C7D"/>
	</linearGradient>
	<path id="Path_17401" fill="url(#Path_17401_1_)" d="M96.801,35.747h3.922v4.12c0.029,0.674,0.588,1.204,1.262,1.2h3.324
		c0.63-0.006,1.137-0.521,1.131-1.152c0-0.016,0-0.032-0.002-0.047v-4.12h3.789c0.63-0.006,1.137-0.522,1.131-1.152
		c0-0.016,0-0.032-0.002-0.048v-3.19c0.033-0.63-0.452-1.167-1.082-1.199c-0.016,0-0.031-0.001-0.047-0.001h-3.789v-3.71
		c0.033-0.63-0.452-1.167-1.082-1.199c-0.016-0.001-0.031-0.001-0.047-0.001h-3.324c-0.674-0.004-1.232,0.525-1.262,1.2v3.722
		h-3.922c-0.675-0.004-1.233,0.525-1.263,1.2v3.178C95.568,35.222,96.126,35.751,96.801,35.747z M97.401,32.025h4.054
		c0.631-0.006,1.137-0.521,1.131-1.152c0-0.016,0-0.032-0.001-0.047v-3.717h1.994v3.722c0.03,0.674,0.588,1.204,1.263,1.2h3.655
		v1.861h-3.659c-0.675-0.004-1.232,0.525-1.263,1.2v4.12h-1.994v-4.12c0.032-0.63-0.452-1.167-1.083-1.198
		c-0.016-0.001-0.031-0.001-0.047-0.001h-4.054L97.401,32.025z"/>
	
		<linearGradient id="Path_17402_1_" gradientUnits="userSpaceOnUse" x1="-199.417" y1="440.8262" x2="-199.417" y2="439.8262" gradientTransform="matrix(47.7152 0 0 -63 9615.0361 27791.0625)">
		<stop  offset="0" style="stop-color:#6BC4F0"/>
		<stop  offset="1" style="stop-color:#801C7D"/>
	</linearGradient>
	<path id="Path_17402" fill="url(#Path_17402_1_)" d="M117.535,25.114L117.535,25.114c-0.076-3.396-2.85-6.111-6.247-6.114H86.244
		c-0.232,0-0.456,0.086-0.627,0.243l-9.28,8.422c-0.202,0.173-0.324,0.422-0.337,0.688v41.286c0.035,3.461,2.852,6.248,6.313,6.247
		h0.134c0.076,3.396,2.849,6.11,6.246,6.114h28.842c3.424-0.011,6.191-2.796,6.18-6.22c0-0.009,0-0.019,0-0.027V31.361
		c0.026-3.424-2.729-6.221-6.152-6.247C117.553,25.114,117.544,25.114,117.535,25.114z M85.3,21.985v4.06
		c0.03,0.924-0.695,1.697-1.619,1.727c-0.014,0-0.028,0.001-0.042,0.001h-4.623L85.3,21.985z M82.313,74.025
		c-2.435,0.002-4.419-1.952-4.453-4.387V29.633h5.782c1.953-0.007,3.53-1.597,3.522-3.549c0-0.013,0-0.026,0-0.04v-5.183h24.123
		c2.394,0.008,4.328,1.954,4.32,4.348c0,0.013,0,0.026,0,0.039v44.392c0.028,2.394-1.889,4.357-4.282,4.387
		c-0.013,0-0.025,0-0.038,0H82.313z M121.854,75.753c0.029,2.394-1.888,4.356-4.281,4.386c-0.013,0-0.025,0-0.038,0H88.693
		c-2.369-0.002-4.31-1.885-4.384-4.253h26.979c3.424-0.011,6.19-2.796,6.181-6.22c0-0.009,0-0.018-0.001-0.027V26.975
		c2.388-0.035,4.352,1.873,4.386,4.261c0.001,0.042,0.001,0.083,0,0.125V75.753z"/>
	
		<linearGradient id="Path_17403_1_" gradientUnits="userSpaceOnUse" x1="-180.6606" y1="237.9922" x2="-180.6606" y2="236.9922" gradientTransform="matrix(11.161 0 0 -1.861 2104.1113 484.1)">
		<stop  offset="0" style="stop-color:#6BC4F0"/>
		<stop  offset="1" style="stop-color:#801C7D"/>
	</linearGradient>
	<path id="Path_17403" fill="url(#Path_17403_1_)" d="M83.11,43.057h9.3c0.514,0,0.93-0.417,0.93-0.931s-0.417-0.931-0.93-0.931l0,0
		h-9.3c-0.514,0-0.93,0.417-0.93,0.931S82.596,43.057,83.11,43.057z"/>
	
		<linearGradient id="Path_17404_1_" gradientUnits="userSpaceOnUse" x1="-188.0112" y1="237.9932" x2="-188.0112" y2="236.9932" gradientTransform="matrix(15.95 0 0 -1.861 3088.9324 490.6136)">
		<stop  offset="0" style="stop-color:#6BC4F0"/>
		<stop  offset="1" style="stop-color:#801C7D"/>
	</linearGradient>
	<path id="Path_17404" fill="url(#Path_17404_1_)" d="M83.11,49.57h14.089c0.514,0,0.93-0.417,0.93-0.93
		c0-0.514-0.417-0.931-0.93-0.931H83.11c-0.514,0-0.93,0.417-0.93,0.931C82.18,49.153,82.596,49.57,83.11,49.57z"/>
	
		<linearGradient id="Path_17405_1_" gradientUnits="userSpaceOnUse" x1="-188.0112" y1="237.9922" x2="-188.0112" y2="236.9922" gradientTransform="matrix(15.95 0 0 -1.861 3088.9324 497.1254)">
		<stop  offset="0" style="stop-color:#6BC4F0"/>
		<stop  offset="1" style="stop-color:#801C7D"/>
	</linearGradient>
	<path id="Path_17405" fill="url(#Path_17405_1_)" d="M83.11,56.083h14.089c0.514,0,0.93-0.417,0.93-0.931s-0.417-0.93-0.93-0.93
		H83.11c-0.514,0-0.93,0.416-0.93,0.93S82.596,56.083,83.11,56.083z"/>
	
		<linearGradient id="Path_17406_1_" gradientUnits="userSpaceOnUse" x1="-193.7861" y1="237.9922" x2="-193.7861" y2="236.9932" gradientTransform="matrix(24.061 0 0 -1.861 4756.8994 503.6371)">
		<stop  offset="0" style="stop-color:#6BC4F0"/>
		<stop  offset="1" style="stop-color:#801C7D"/>
	</linearGradient>
	<path id="Path_17406" fill="url(#Path_17406_1_)" d="M83.11,62.595h22.201c0.514,0,0.93-0.417,0.93-0.931s-0.416-0.93-0.93-0.93
		H83.11c-0.514,0-0.93,0.416-0.93,0.93S82.596,62.595,83.11,62.595z"/>
	
		<linearGradient id="Path_17407_1_" gradientUnits="userSpaceOnUse" x1="-195.9648" y1="237.9932" x2="-195.9648" y2="236.9941" gradientTransform="matrix(29.7725 0 0 -1.861 5931.4292 510.1508)">
		<stop  offset="0" style="stop-color:#6BC4F0"/>
		<stop  offset="1" style="stop-color:#801C7D"/>
	</linearGradient>
	<path id="Path_17407" fill="url(#Path_17407_1_)" d="M111.952,68.178c0-0.514-0.417-0.931-0.931-0.931H83.11
		c-0.514,0-0.93,0.417-0.93,0.931s0.417,0.93,0.93,0.93h27.912c0.514,0.001,0.93-0.414,0.931-0.928
		C111.952,68.178,111.952,68.178,111.952,68.178z"/>
</g>
</svg>
