<?xml version="1.0" encoding="utf-8"?>
<!-- Generator: Adobe Illustrator 14.0.0, SVG Export Plug-In . SVG Version: 6.00 Build 43363)  -->
<!DOCTYPE svg PUBLIC "-//W3C//DTD SVG 1.1//EN" "http://www.w3.org/Graphics/SVG/1.1/DTD/svg11.dtd">
<svg version="1.1" id="depreciation" xmlns="http://www.w3.org/2000/svg" xmlns:xlink="http://www.w3.org/1999/xlink" x="0px"
	 y="0px" width="65px" height="65px" viewBox="0 0 65 65" enable-background="new 0 0 65 65" xml:space="preserve">
<g id="Group_3590" transform="translate(-943 -6677.9)">
	<g id="money" transform="translate(943 6701.417)">
		<g id="Group_2358" transform="translate(0 15.628)">
			<g id="Group_2357">
				
					<linearGradient id="Path_17439_1_" gradientUnits="userSpaceOnUse" x1="14.5996" y1="1.4457" x2="14.5996" y2="0.4457" gradientTransform="matrix(42.517 0 0 -21.138 -592.3737 24.4912)">
					<stop  offset="0.13" style="stop-color:#00A9ED"/>
					<stop  offset="1" style="stop-color:#65106B"/>
				</linearGradient>
				<path id="Path_17439" fill="url(#Path_17439_1_)" d="M48.902-6.049H7.778c-0.387,0-0.7,0.313-0.7,0.7v19.737
					c0,0.387,0.313,0.7,0.7,0.7h27.965c0.39,0,0.705-0.315,0.705-0.705s-0.315-0.705-0.705-0.705H8.488V-4.64h39.707v1.762
					c0,0.387,0.313,0.7,0.699,0.7l0,0c0.387,0,0.701-0.313,0.701-0.7v-2.469C49.596-5.732,49.287-6.045,48.902-6.049z"/>
			</g>
		</g>
		<g id="Group_2360" transform="translate(1.644 4.938)">
			<g id="Group_2359">
				
					<linearGradient id="Path_17440_1_" gradientUnits="userSpaceOnUse" x1="14.146" y1="-11.502" x2="14.146" y2="-12.5015" gradientTransform="matrix(36.0173 0 0 -8.8157 -484.4073 -107.4512)">
					<stop  offset="0.13" style="stop-color:#00A9ED"/>
					<stop  offset="1" style="stop-color:#65106B"/>
				</linearGradient>
				<path id="Path_17440" fill="url(#Path_17440_1_)" d="M42.477,1.368l-32.894-7.4C9.207-6.12,8.83-5.886,8.743-5.51
					C8.742-5.506,8.741-5.502,8.74-5.498l-1.645,7.4C7.011,2.282,7.251,2.659,7.63,2.744c0.38,0.084,0.757-0.155,0.842-0.536
					l1.491-6.711l32.2,7.246c0.051,0.012,0.104,0.018,0.155,0.018c0.385,0.042,0.73-0.235,0.773-0.619
					c0.042-0.385-0.235-0.73-0.619-0.773H42.477z"/>
			</g>
		</g>
		<g id="Group_2362" transform="translate(10.678 0)">
			<g id="Group_2361">
				
					<linearGradient id="Path_17441_1_" gradientUnits="userSpaceOnUse" x1="9.5993" y1="-3.022" x2="9.5993" y2="-4.022" gradientTransform="matrix(22.854 0 0 -9.6597 -200.8716 -35.2356)">
					<stop  offset="0.13" style="stop-color:#00A9ED"/>
					<stop  offset="1" style="stop-color:#65106B"/>
				</linearGradient>
				<path id="Path_17441" fill="url(#Path_17441_1_)" d="M29.449,2.228L9.712-5.995c-0.342-0.141-0.734,0.006-0.9,0.336L7.167-2.37
					C6.981-2.026,7.109-1.597,7.453-1.411c0.343,0.186,0.772,0.058,0.958-0.286c0.007-0.013,0.014-0.026,0.021-0.041l0,0l1.349-2.7
					l19.122,7.971c0.347,0.18,0.773,0.044,0.953-0.303s0.044-0.773-0.302-0.953c-0.035-0.018-0.07-0.032-0.107-0.044L29.449,2.228z"
					/>
			</g>
		</g>
		<g id="Group_2364" transform="translate(26.315 18.918)">
			<g id="Group_2363">
				
					<linearGradient id="Path_17442_1_" gradientUnits="userSpaceOnUse" x1="17.0346" y1="-238.4458" x2="17.0346" y2="-239.4458" gradientTransform="matrix(7.937 0 0 -1.41 -124.1707 -342.2581)">
					<stop  offset="0.13" style="stop-color:#00A9ED"/>
					<stop  offset="1" style="stop-color:#65106B"/>
				</linearGradient>
				<path id="Path_17442" fill="url(#Path_17442_1_)" d="M14.31-6.049H7.779c-0.391,0-0.705,0.315-0.705,0.705
					c0,0.389,0.314,0.705,0.705,0.705h6.526c0.39,0,0.705-0.316,0.705-0.705c0-0.39-0.315-0.705-0.705-0.705H14.31z"/>
			</g>
		</g>
		<g id="Group_2366" transform="translate(13.204 18.964)">
			<g id="Group_2365">
				
					<linearGradient id="Path_17443_1_" gradientUnits="userSpaceOnUse" x1="14.1808" y1="-9.6774" x2="14.1808" y2="-10.6774" gradientTransform="matrix(14.474 0 0 -14.474 -190.9422 -146.1166)">
					<stop  offset="0.13" style="stop-color:#00A9ED"/>
					<stop  offset="1" style="stop-color:#65106B"/>
				</linearGradient>
				<path id="Path_17443" fill="url(#Path_17443_1_)" d="M14.315-6.049c-3.997,0-7.237,3.24-7.237,7.237
					c0,3.996,3.24,7.236,7.237,7.236c3.997,0,7.237-3.24,7.237-7.236l0,0C21.552-2.809,18.312-6.049,14.315-6.049z M14.315,7.109
					c-3.27,0-5.921-2.651-5.921-5.921c0-3.271,2.651-5.922,5.921-5.922s5.92,2.651,5.92,5.922
					C20.235,4.457,17.585,7.109,14.315,7.109L14.315,7.109z"/>
			</g>
		</g>
		<g id="Group_2368" transform="translate(31.132 21.267)">
			<g id="Group_2367">
				
					<linearGradient id="Path_17444_1_" gradientUnits="userSpaceOnUse" x1="-7.6227" y1="-0.8671" x2="-7.6227" y2="-1.8671" gradientTransform="matrix(18.092 0 0 -26.316 154.0409 -28.8629)">
					<stop  offset="0.13" style="stop-color:#00A9ED"/>
					<stop  offset="1" style="stop-color:#65106B"/>
				</linearGradient>
				<path id="Path_17444" fill="url(#Path_17444_1_)" d="M16.122-6.05c-4.357,0-9.046,1.03-9.046,3.289v19.738
					c0,2.26,4.687,3.289,9.046,3.289s9.047-1.03,9.047-3.289V-2.761C25.171-5.022,20.482-6.05,16.122-6.05z M23.522,16.963
					c-0.124,0.456-2.59,1.657-7.4,1.657c-4.81,0-7.277-1.2-7.4-1.645v-1.293c4.783,1.724,10.018,1.724,14.801,0V16.963z
					 M23.522,13.674c-0.124,0.456-2.59,1.657-7.4,1.657c-4.81,0-7.277-1.2-7.4-1.645v-1.293c4.783,1.724,10.018,1.724,14.801,0
					V13.674z M23.522,10.386c-0.124,0.455-2.59,1.656-7.4,1.656c-4.81,0-7.277-1.199-7.4-1.645V9.105
					c4.783,1.724,10.018,1.724,14.801,0V10.386z M23.522,7.097c-0.124,0.456-2.59,1.656-7.4,1.656c-4.81,0-7.277-1.199-7.4-1.645
					V5.816c4.783,1.724,10.018,1.724,14.801,0V7.097z M23.522,3.808c-0.124,0.456-2.59,1.656-7.4,1.656
					c-4.81,0-7.277-1.199-7.4-1.645V2.526c4.783,1.724,10.018,1.724,14.801,0V3.808z M23.522,0.519
					c-0.124,0.456-2.59,1.657-7.4,1.657c-4.81,0-7.277-1.2-7.4-1.646v-1.293c4.783,1.724,10.018,1.724,14.801,0V0.519z
					 M16.122-1.113c-4.8,0-7.269-1.2-7.4-1.631l0,0c0.133-0.458,2.601-1.654,7.4-1.654c4.77,0,7.237,1.179,7.4,1.645
					c-0.161,0.459-2.629,1.639-7.4,1.639V-1.113z"/>
			</g>
		</g>
		<g id="Group_2370" transform="translate(3.289 18.918)">
			<g id="Group_2369">
				
					<linearGradient id="Path_17445_1_" gradientUnits="userSpaceOnUse" x1="29.5826" y1="-9.4654" x2="29.5826" y2="-10.4654" gradientTransform="matrix(11.281 0 0 -14.572 -321.0058 -143.978)">
					<stop  offset="0.13" style="stop-color:#00A9ED"/>
					<stop  offset="1" style="stop-color:#65106B"/>
				</linearGradient>
				<path id="Path_17445" fill="url(#Path_17445_1_)" d="M17.652,7.108h-6.216l-2.95-3.225v-5.35l3.255-3.179h5.909
					c0.39,0,0.705-0.315,0.705-0.704c0-0.39-0.315-0.705-0.705-0.705h-6.193c-0.184-0.001-0.361,0.071-0.493,0.199L7.286-2.266
					c-0.137,0.16-0.212,0.364-0.212,0.575v5.85c0,0.176,0.065,0.345,0.184,0.475l3.341,3.655c0.133,0.146,0.323,0.229,0.521,0.229
					h6.528c0.389,0,0.705-0.315,0.705-0.704s-0.315-0.704-0.705-0.704L17.652,7.108z"/>
			</g>
		</g>
	</g>
	
		<linearGradient id="Path_17489_1_" gradientUnits="userSpaceOnUse" x1="961.3599" y1="6726.021" x2="961.3599" y2="6725.021" gradientTransform="matrix(35.4745 17.2835 9.2674 -19.0215 -95449.4766 118003.7969)">
		<stop  offset="0.13" style="stop-color:#00A9ED"/>
		<stop  offset="1" style="stop-color:#65106B"/>
	</linearGradient>
	<path id="Path_17489" fill="url(#Path_17489_1_)" d="M961.41,6690.839L961.41,6690.839c0.538,0.263,1.187,0.039,1.45-0.499
		c0,0,0,0,0-0.001l0,0c0.005-0.011,0.038-0.078,0.1-0.19c1.111-2.009,3.6-2.797,5.666-1.795l0,0
		c1.934,0.943,2.877,3.167,2.211,5.213c-0.23,0.375-0.338,0.813-0.31,1.252c0.068,0.328,0.284,0.606,0.585,0.753l0,0
		c0.539,0.263,1.187,0.038,1.45-0.5l0,0c1.425-2.915,4.748-4.375,7.859-3.453l-3.112,6.389c-0.262,0.538-0.039,1.188,0.5,1.449
		c0.539,0.263,1.188,0.039,1.45-0.5l3.114-6.393c1.152,0.812,2.023,1.961,2.494,3.289c0.609,1.659,0.518,3.495-0.254,5.086
		c-0.266,0.536-0.046,1.187,0.49,1.452c0.503,0.249,1.113,0.073,1.406-0.405c0.018-0.035,0.146-0.237,0.336-0.585
		c0.535-0.79,1.321-1.377,2.231-1.666c1.108-0.367,2.317-0.287,3.368,0.225l0,0c2.043,1.002,2.959,3.416,2.093,5.521
		c-0.067,0.155-0.108,0.24-0.11,0.245l0,0c-0.263,0.538-0.039,1.188,0.498,1.45c0.002,0.001,0.004,0.002,0.006,0.003l0,0
		c0.539,0.263,1.188,0.039,1.45-0.5l0,0c0.042-0.086,0.082-0.173,0.12-0.26c1.292-3.016,1.946-6.266,1.921-9.546
		c-0.088-4.991-2.106-11.868-11.194-16.363l-0.172-0.083c-5.191-2.529-10.128-3.011-14.667-1.442
		c-7.102,2.453-10.794,9.079-11.399,10.24c-0.024,0.051-0.049,0.101-0.073,0.151l-0.007,0.015
		C960.647,6689.928,960.871,6690.577,961.41,6690.839z M982.387,6690.06c-2.115-1.032-4.557-1.172-6.776-0.387
		c0.103-0.138,0.208-0.275,0.314-0.416c2.466-3.382,6.081-5.747,10.167-6.652c1.804,3.776,2.168,8.08,1.023,12.104
		c-0.051,0.198-0.1,0.387-0.151,0.576c-0.019-0.055-0.035-0.108-0.054-0.162C986.126,6692.907,984.501,6691.087,982.387,6690.06z
		 M996.251,6696.834c0.021,1.168-0.062,2.334-0.246,3.487c-0.641-0.997-1.544-1.798-2.61-2.314l0,0
		c-1.525-0.743-3.279-0.873-4.898-0.363c0.252-0.715,0.494-1.501,0.705-2.345c1.001-3.7,0.934-7.607-0.193-11.271
		c4.467,2.729,7.207,7.573,7.245,12.809L996.251,6696.834z M973.1,6681.036c3.284-1.08,6.834-1.028,10.085,0.146
		c-3.585,1.368-6.709,3.726-9.008,6.799c-0.521,0.669-0.98,1.327-1.382,1.951c-0.581-1.545-1.733-2.808-3.219-3.528l0,0
		c-1.073-0.524-2.271-0.74-3.46-0.623C968.02,6683.65,970.418,6682.02,973.1,6681.036z"/>
</g>
</svg>
