<?xml version="1.0" encoding="utf-8"?>
<!-- Generator: Adobe Illustrator 14.0.0, SVG Export Plug-In . SVG Version: 6.00 Build 43363)  -->
<!DOCTYPE svg PUBLIC "-//W3C//DTD SVG 1.1//EN" "http://www.w3.org/Graphics/SVG/1.1/DTD/svg11.dtd">
<svg version="1.1" id="Layer_1" xmlns="http://www.w3.org/2000/svg" xmlns:xlink="http://www.w3.org/1999/xlink" x="0px" y="0px"
	 width="54.879px" height="62.787px" viewBox="0 0 54.879 62.787" enable-background="new 0 0 54.879 62.787" xml:space="preserve">
<g id="hurricane" transform="translate(-71.282 -0.774)">
	
		<linearGradient id="Path_18015_1_" gradientUnits="userSpaceOnUse" x1="79.2971" y1="47.524" x2="79.2971" y2="46.525" gradientTransform="matrix(54.8799 0 0 -37.8079 -4253.1001 1797.5416)">
		<stop  offset="0.13" style="stop-color:#00A9ED"/>
		<stop  offset="1" style="stop-color:#65106B"/>
	</linearGradient>
	<path id="Path_18015" fill="url(#Path_18015_1_)" d="M125.999,33.068L110.599,9.813c-0.304-0.428-0.896-0.529-1.324-0.225
		c-0.409,0.29-0.522,0.848-0.259,1.274l14.883,22.462l-4.513,2.99l-16.553-24.982c-0.29-0.437-0.878-0.557-1.315-0.268
		c0,0,0,0-0.001,0L76.535,27.612l-2.989-4.511l30.286-20.063l3.088,4.663c0.317,0.418,0.913,0.5,1.331,0.182
		c0.381-0.29,0.487-0.817,0.247-1.232l-3.607-5.45c-0.289-0.437-0.879-0.557-1.316-0.268L71.706,22.042
		c-0.437,0.29-0.556,0.879-0.267,1.316l4.038,6.1c0.29,0.437,0.878,0.557,1.315,0.268c0,0,0,0,0.001,0l24.982-16.548l16.547,24.981
		c0.289,0.438,0.879,0.558,1.316,0.268l0,0l6.1-4.038c0.437-0.292,0.554-0.882,0.262-1.317
		C126.001,33.069,126.001,33.068,125.999,33.068z"/>
	
		<linearGradient id="Path_18016_1_" gradientUnits="userSpaceOnUse" x1="89.8728" y1="36.6822" x2="89.8728" y2="35.6822" gradientTransform="matrix(17.798 0 0 -17.798 -1502.0974 688.1473)">
		<stop  offset="0.13" style="stop-color:#00A9ED"/>
		<stop  offset="1" style="stop-color:#65106B"/>
	</linearGradient>
	<path id="Path_18016" fill="url(#Path_18016_1_)" d="M105.409,53.088c0.524-0.001,0.949-0.425,0.949-0.948V36.242
		c0-0.523-0.425-0.949-0.949-0.949H89.51c-0.524,0-0.949,0.426-0.949,0.949v15.9c0,0.523,0.425,0.947,0.949,0.948L105.409,53.088z
		 M104.461,51.189h-6.053v-14h6.053V51.189z M90.461,37.189h6.052v14h-6.052V37.189z"/>
	
		<linearGradient id="Path_18017_1_" gradientUnits="userSpaceOnUse" x1="81.1995" y1="49.1353" x2="81.1995" y2="48.1343" gradientTransform="matrix(39.92 0 0 -45.3844 -3144.23 2248.0784)">
		<stop  offset="0.13" style="stop-color:#00A9ED"/>
		<stop  offset="1" style="stop-color:#65106B"/>
	</linearGradient>
	<path id="Path_18017" fill="url(#Path_18017_1_)" d="M97.909,18.455c-0.37-0.371-0.971-0.372-1.342-0.001c0,0-0.001,0-0.001,0.001
		l-19.01,19.011c-0.178,0.179-0.278,0.419-0.278,0.671v6.758c0,0.523,0.425,0.949,0.95,0.949c0.524,0,0.95-0.426,0.95-0.949v-6.365
		L97.24,20.468l18.062,18.061v23.133H79.178V48.691c0-0.523-0.425-0.949-0.95-0.949c-0.525,0-0.95,0.426-0.95,0.949v13.92
		c0,0.524,0.425,0.949,0.949,0.949h38.022c0.523,0,0.948-0.425,0.949-0.949V38.136c0-0.252-0.101-0.494-0.278-0.672L97.909,18.455z"
		/>
</g>
</svg>
