<?xml version="1.0" encoding="utf-8"?>
<!-- Generator: Adobe Illustrator 16.0.0, SVG Export Plug-In . SVG Version: 6.00 Build 0)  -->
<!DOCTYPE svg PUBLIC "-//W3C//DTD SVG 1.1//EN" "http://www.w3.org/Graphics/SVG/1.1/DTD/svg11.dtd">
<svg version="1.1" id="Layer_1" xmlns="http://www.w3.org/2000/svg" xmlns:xlink="http://www.w3.org/1999/xlink" x="0px" y="0px"
	 width="61.035px" height="63px" viewBox="0 0 61.035 63" enable-background="new 0 0 61.035 63" xml:space="preserve">
<g id="placard" transform="translate(-0.015 -30)">
	
		<linearGradient id="Path_18908_1_" gradientUnits="userSpaceOnUse" x1="-147.9542" y1="415" x2="-147.9542" y2="414.1113" gradientTransform="matrix(2.091 0 0 -9.0417 349.1779 3815.1768)">
		<stop  offset="0.13" style="stop-color:#00A9ED"/>
		<stop  offset="1" style="stop-color:#65106B"/>
	</linearGradient>
	<path id="Path_18908" fill="url(#Path_18908_1_)" d="M39.804,70.895c-0.513,0.001-0.929-0.414-0.93-0.926c0-0.002,0-0.003,0-0.004
		v-6.206c0.016-0.513,0.445-0.917,0.959-0.901c0.49,0.016,0.885,0.41,0.9,0.901v6.206C40.734,70.478,40.319,70.895,39.804,70.895
		C39.805,70.895,39.805,70.895,39.804,70.895z"/>
	
		<linearGradient id="Path_18909_1_" gradientUnits="userSpaceOnUse" x1="-147.6222" y1="415.0479" x2="-147.6222" y2="414.1592" gradientTransform="matrix(2.091 0 0 -9.0517 342.9083 3819.7534)">
		<stop  offset="0.13" style="stop-color:#00A9ED"/>
		<stop  offset="1" style="stop-color:#65106B"/>
	</linearGradient>
	<path id="Path_18909" fill="url(#Path_18909_1_)" d="M34.233,70.901c-0.515,0-0.93-0.415-0.931-0.929c0,0,0,0,0-0.001v-6.216
		c0.016-0.513,0.445-0.916,0.958-0.9c0.491,0.016,0.886,0.409,0.901,0.9v6.217C35.161,70.485,34.745,70.901,34.233,70.901z"/>
	
		<linearGradient id="Path_18910_1_" gradientUnits="userSpaceOnUse" x1="-218.671" y1="404.9922" x2="-218.671" y2="404.1035" gradientTransform="matrix(4.7343 0 0 -7.32 1078.1221 3033.6008)">
		<stop  offset="0.13" style="stop-color:#00A9ED"/>
		<stop  offset="1" style="stop-color:#65106B"/>
	</linearGradient>
	<path id="Path_18910" fill="url(#Path_18910_1_)" d="M41.673,75.55c-0.513-0.016-0.916-0.444-0.9-0.958
		c0.016-0.491,0.41-0.885,0.9-0.9c0.771,0,1.395-0.625,1.395-1.395s-0.623-1.395-1.395-1.395c-0.513-0.016-0.916-0.444-0.9-0.958
		c0.016-0.491,0.41-0.886,0.9-0.901c1.797-0.029,3.278,1.403,3.308,3.2s-1.403,3.276-3.2,3.307
		C41.745,75.551,41.71,75.551,41.673,75.55z"/>
	
		<linearGradient id="Path_18911_1_" gradientUnits="userSpaceOnUse" x1="-217.2238" y1="405.0801" x2="-217.2238" y2="404.1914" gradientTransform="matrix(4.6147 0 0 -7.321 1045.2365 3039.2864)">
		<stop  offset="0.13" style="stop-color:#00A9ED"/>
		<stop  offset="1" style="stop-color:#65106B"/>
	</linearGradient>
	<path id="Path_18911" fill="url(#Path_18911_1_)" d="M41.673,80.207c-0.513-0.016-0.916-0.445-0.9-0.957
		c0.016-0.491,0.41-0.886,0.9-0.901c0.771,0,1.396-0.625,1.396-1.396c0-0.77-0.625-1.395-1.396-1.395
		c-0.513-0.016-0.916-0.445-0.9-0.958c0.016-0.491,0.41-0.886,0.9-0.901c1.797,0.03,3.231,1.511,3.201,3.308
		C44.845,78.762,43.429,80.179,41.673,80.207z"/>
	
		<linearGradient id="Path_18912_1_" gradientUnits="userSpaceOnUse" x1="-217.2238" y1="405.1582" x2="-217.2238" y2="404.2695" gradientTransform="matrix(4.6147 0 0 -7.321 1045.2365 3044.4973)">
		<stop  offset="0.13" style="stop-color:#00A9ED"/>
		<stop  offset="1" style="stop-color:#65106B"/>
	</linearGradient>
	<path id="Path_18912" fill="url(#Path_18912_1_)" d="M41.673,84.838c-0.513-0.016-0.916-0.444-0.9-0.958
		c0.016-0.491,0.41-0.885,0.9-0.9c0.771,0,1.396-0.625,1.396-1.396s-0.625-1.395-1.396-1.395c-0.513-0.016-0.916-0.445-0.9-0.959
		c0.016-0.491,0.41-0.885,0.9-0.9c1.797,0.029,3.231,1.51,3.201,3.307C44.845,83.393,43.429,84.809,41.673,84.838z"/>
	
		<linearGradient id="Path_18913_1_" gradientUnits="userSpaceOnUse" x1="-217.8654" y1="405.1621" x2="-217.8654" y2="404.2725" gradientTransform="matrix(4.6792 0 0 -7.3215 1056.7307 3044.731)">
		<stop  offset="0.13" style="stop-color:#00A9ED"/>
		<stop  offset="1" style="stop-color:#65106B"/>
	</linearGradient>
	<path id="Path_18913" fill="url(#Path_18913_1_)" d="M38.408,84.836c-1.798-0.029-3.23-1.51-3.201-3.308
		c0.029-1.755,1.445-3.171,3.201-3.2c0.513,0.016,0.916,0.445,0.9,0.958c-0.015,0.491-0.41,0.886-0.9,0.901
		c-0.771,0-1.396,0.624-1.396,1.395s0.625,1.396,1.396,1.396c0.513-0.016,0.941,0.387,0.958,0.901
		c0.016,0.513-0.389,0.941-0.9,0.957C38.446,84.837,38.427,84.837,38.408,84.836z"/>
	
		<linearGradient id="Path_18914_1_" gradientUnits="userSpaceOnUse" x1="-218.5148" y1="405.2451" x2="-218.5148" y2="404.3564" gradientTransform="matrix(4.7336 0 0 -7.322 1071.6211 3050.175)">
		<stop  offset="0.13" style="stop-color:#00A9ED"/>
		<stop  offset="1" style="stop-color:#65106B"/>
	</linearGradient>
	<path id="Path_18914" fill="url(#Path_18914_1_)" d="M38.408,89.488c-1.798-0.004-3.252-1.462-3.25-3.26
		c0.004-1.794,1.457-3.247,3.25-3.249c0.513,0.016,0.916,0.444,0.9,0.958c-0.015,0.49-0.41,0.886-0.9,0.9
		c-0.771,0.02-1.38,0.659-1.361,1.43c0.02,0.744,0.617,1.342,1.361,1.361c0.513-0.017,0.941,0.387,0.958,0.899
		c0.016,0.514-0.389,0.942-0.9,0.958c-0.02,0.002-0.038,0.002-0.058,0V89.488z"/>
	
		<linearGradient id="Path_18915_1_" gradientUnits="userSpaceOnUse" x1="-218.6613" y1="405.2451" x2="-218.6613" y2="404.3564" gradientTransform="matrix(4.7336 0 0 -7.322 1077.8711 3050.175)">
		<stop  offset="0.13" style="stop-color:#00A9ED"/>
		<stop  offset="1" style="stop-color:#65106B"/>
	</linearGradient>
	<path id="Path_18915" fill="url(#Path_18915_1_)" d="M41.673,89.488c-0.513,0.016-0.941-0.388-0.957-0.901
		c-0.017-0.513,0.387-0.942,0.9-0.958c0.019,0,0.038,0,0.057,0c0.771-0.02,1.381-0.66,1.36-1.43c-0.019-0.744-0.617-1.342-1.36-1.36
		c-0.513-0.016-0.916-0.444-0.9-0.959c0.016-0.49,0.41-0.885,0.9-0.899c1.798,0.002,3.252,1.461,3.25,3.259
		C44.92,88.033,43.467,89.486,41.673,89.488L41.673,89.488z"/>
	
		<linearGradient id="Path_18916_1_" gradientUnits="userSpaceOnUse" x1="-238.3004" y1="375.166" x2="-238.3004" y2="374.2773" gradientTransform="matrix(7.319 0 0 -4.6737 1782.5231 1829.4775)">
		<stop  offset="0.13" style="stop-color:#00A9ED"/>
		<stop  offset="1" style="stop-color:#65106B"/>
	</linearGradient>
	<path id="Path_18916" fill="url(#Path_18916_1_)" d="M38.408,80.202c-1.796-0.002-3.252-1.457-3.253-3.253
		c0.016-0.514,0.444-0.917,0.957-0.9c0.49,0.015,0.886,0.409,0.9,0.9c0,0.77,0.625,1.394,1.395,1.394
		c0.771,0,1.395-0.624,1.395-1.394c0.016-0.514,0.445-0.917,0.957-0.9c0.491,0.015,0.886,0.409,0.901,0.9
		C41.659,78.745,40.203,80.199,38.408,80.202z"/>
	
		<linearGradient id="Path_18917_1_" gradientUnits="userSpaceOnUse" x1="-228.049" y1="272.9902" x2="-228.049" y2="272.1016" gradientTransform="matrix(5.6985 0 0 -2.091 1339.5707 649.162)">
		<stop  offset="0.13" style="stop-color:#00A9ED"/>
		<stop  offset="1" style="stop-color:#65106B"/>
	</linearGradient>
	<path id="Path_18917" fill="url(#Path_18917_1_)" d="M41.671,80.197h-3.264c-0.514-0.017-0.916-0.445-0.9-0.959
		c0.015-0.49,0.409-0.885,0.9-0.899l0,0h3.263c0.514,0.016,0.916,0.444,0.9,0.957C42.555,79.787,42.161,80.182,41.671,80.197
		L41.671,80.197z"/>
	
		<linearGradient id="Path_18918_1_" gradientUnits="userSpaceOnUse" x1="-228.0587" y1="273.2676" x2="-228.0587" y2="272.3789" gradientTransform="matrix(5.6995 0 0 -2.091 1339.8475 654.3885)">
		<stop  offset="0.13" style="stop-color:#00A9ED"/>
		<stop  offset="1" style="stop-color:#65106B"/>
	</linearGradient>
	<path id="Path_18918" fill="url(#Path_18918_1_)" d="M41.671,84.842h-3.266c-0.513-0.016-0.916-0.444-0.9-0.958
		c0.016-0.49,0.409-0.886,0.9-0.9l0,0h3.265c0.514,0.017,0.916,0.445,0.9,0.958C42.555,84.433,42.161,84.827,41.671,84.842
		L41.671,84.842z"/>
	
		<linearGradient id="Path_18919_1_" gradientUnits="userSpaceOnUse" x1="-253.4894" y1="272.5273" x2="-253.4894" y2="271.6387" gradientTransform="matrix(12.6266 0 0 -2.092 3237.7256 639.1782)">
		<stop  offset="0.13" style="stop-color:#00A9ED"/>
		<stop  offset="1" style="stop-color:#65106B"/>
	</linearGradient>
	<path id="Path_18919" fill="url(#Path_18919_1_)" d="M41.675,70.901h-9.308c-0.513,0.016-0.941-0.388-0.957-0.901
		c-0.016-0.513,0.387-0.941,0.9-0.958c0.019,0,0.038,0,0.057,0h9.308c0.513-0.016,0.941,0.388,0.957,0.9
		c0.017,0.515-0.387,0.943-0.899,0.959C41.713,70.901,41.695,70.901,41.675,70.901z"/>
	
		<linearGradient id="Path_18920_1_" gradientUnits="userSpaceOnUse" x1="-253.4786" y1="273.6387" x2="-253.4786" y2="272.75" gradientTransform="matrix(12.6206 0 0 -2.092 3236.0767 660.104)">
		<stop  offset="0.13" style="stop-color:#00A9ED"/>
		<stop  offset="1" style="stop-color:#65106B"/>
	</linearGradient>
	<path id="Path_18920" fill="url(#Path_18920_1_)" d="M41.67,89.5H32.37c-0.514,0.016-0.942-0.387-0.959-0.901
		c-0.016-0.513,0.388-0.941,0.901-0.957c0.019-0.001,0.038-0.001,0.058,0h9.301c0.514-0.017,0.942,0.387,0.958,0.9
		s-0.387,0.942-0.901,0.958C41.708,89.5,41.689,89.5,41.67,89.5z"/>
	
		<linearGradient id="Path_18921_1_" gradientUnits="userSpaceOnUse" x1="-148.0099" y1="418.873" x2="-148.0099" y2="417.9844" gradientTransform="matrix(2.091 0 0 -9.9167 350.2169 4222.9033)">
		<stop  offset="0.13" style="stop-color:#00A9ED"/>
		<stop  offset="1" style="stop-color:#65106B"/>
	</linearGradient>
	<path id="Path_18921" fill="url(#Path_18921_1_)" d="M40.727,77.879c-0.513,0-0.929-0.415-0.93-0.929c0-0.001,0-0.001,0-0.001
		v-6.984c0.016-0.514,0.444-0.916,0.958-0.9c0.491,0.016,0.885,0.409,0.9,0.9v6.984c0.001,0.513-0.413,0.929-0.926,0.93
		C40.729,77.879,40.728,77.879,40.727,77.879z"/>
	
		<linearGradient id="Path_18922_1_" gradientUnits="userSpaceOnUse" x1="-223.0109" y1="272.7129" x2="-223.0109" y2="271.8242" gradientTransform="matrix(5.1535 0 0 -2.091 1183.972 643.9354)">
		<stop  offset="0.13" style="stop-color:#00A9ED"/>
		<stop  offset="1" style="stop-color:#65106B"/>
	</linearGradient>
	<path id="Path_18922" fill="url(#Path_18922_1_)" d="M36.078,75.551h-2.779c-0.513-0.017-0.916-0.445-0.9-0.959
		c0.016-0.491,0.409-0.885,0.9-0.9h2.779c0.513,0.016,0.916,0.444,0.9,0.958C36.963,75.141,36.569,75.535,36.078,75.551z"/>
	
		<linearGradient id="Path_18923_1_" gradientUnits="userSpaceOnUse" x1="-192.0245" y1="272.8037" x2="-192.0245" y2="271.915" gradientTransform="matrix(3.2066 0 0 -2.092 656.9532 644.4087)">
		<stop  offset="0.13" style="stop-color:#00A9ED"/>
		<stop  offset="1" style="stop-color:#65106B"/>
	</linearGradient>
	<path id="Path_18923" fill="url(#Path_18923_1_)" d="M41.673,75.551h-0.932c-0.514,0.016-0.942-0.389-0.959-0.901
		c-0.016-0.514,0.389-0.942,0.901-0.958c0.019,0,0.038,0,0.058,0h0.934c0.513-0.016,0.941,0.387,0.957,0.9
		c0.017,0.514-0.387,0.942-0.899,0.959c-0.02,0-0.038,0-0.058,0H41.673z"/>
	
		<linearGradient id="Path_18924_1_" gradientUnits="userSpaceOnUse" x1="-147.7941" y1="376.3008" x2="-147.7941" y2="375.4121" gradientTransform="matrix(2.092 0 0 -4.7423 345.2698 1858.2004)">
		<stop  offset="0.13" style="stop-color:#00A9ED"/>
		<stop  offset="1" style="stop-color:#65106B"/>
	</linearGradient>
	<path id="Path_18924" fill="url(#Path_18924_1_)" d="M36.078,77.879c-0.514,0-0.93-0.415-0.93-0.929c0-0.001,0-0.001,0-0.001
		v-2.328c-0.016-0.513,0.387-0.941,0.9-0.958c0.514-0.016,0.942,0.388,0.959,0.901c0,0.019,0,0.038,0,0.057v2.329
		C37.007,77.464,36.591,77.879,36.078,77.879L36.078,77.879z"/>
	
		<linearGradient id="Path_18925_1_" gradientUnits="userSpaceOnUse" x1="-240.0465" y1="273.3613" x2="-240.0465" y2="272.4727" gradientTransform="matrix(7.7506 0 0 -2.092 1882.3495 654.8774)">
		<stop  offset="0.13" style="stop-color:#00A9ED"/>
		<stop  offset="1" style="stop-color:#65106B"/>
	</linearGradient>
	<path id="Path_18925" fill="url(#Path_18925_1_)" d="M19.365,84.855c-0.513,0.016-0.942-0.387-0.958-0.9s0.387-0.943,0.9-0.959
		c0.019,0,0.038,0,0.057,0h4.973c0.513-0.016,0.942,0.388,0.958,0.901c0.016,0.513-0.387,0.942-0.9,0.958c-0.019,0-0.039,0-0.058,0
		H19.365z"/>
	
		<linearGradient id="Path_18926_1_" gradientUnits="userSpaceOnUse" x1="-240.0465" y1="272.8066" x2="-240.0465" y2="271.917" gradientTransform="matrix(7.7506 0 0 -2.092 1882.3495 644.4126)">
		<stop  offset="0.13" style="stop-color:#00A9ED"/>
		<stop  offset="1" style="stop-color:#65106B"/>
	</linearGradient>
	<path id="Path_18926" fill="url(#Path_18926_1_)" d="M19.365,75.552c-0.513,0.016-0.942-0.387-0.958-0.899
		c-0.016-0.514,0.387-0.942,0.9-0.959c0.019-0.001,0.038-0.001,0.057,0h4.973c0.513-0.016,0.942,0.389,0.958,0.901
		c0.016,0.513-0.387,0.941-0.9,0.957c-0.019,0.001-0.039,0.001-0.058,0H19.365z"/>
	
		<linearGradient id="Path_18927_1_" gradientUnits="userSpaceOnUse" x1="-146.7335" y1="434.7783" x2="-146.7335" y2="433.8896" gradientTransform="matrix(2.091 0 0 -16.6947 326.1661 7330.3906)">
		<stop  offset="0.13" style="stop-color:#00A9ED"/>
		<stop  offset="1" style="stop-color:#65106B"/>
	</linearGradient>
	<path id="Path_18927" fill="url(#Path_18927_1_)" d="M19.35,86.712c-0.513,0-0.929-0.415-0.93-0.929c0,0,0-0.001,0-0.002V72.772
		c0.016-0.513,0.445-0.917,0.958-0.9c0.491,0.015,0.885,0.41,0.9,0.9v13.011c0,0.512-0.415,0.928-0.927,0.929
		C19.351,86.712,19.351,86.712,19.35,86.712z"/>
	
		<linearGradient id="Path_18928_1_" gradientUnits="userSpaceOnUse" x1="-232.2999" y1="273.4727" x2="-232.2999" y2="272.584" gradientTransform="matrix(6.3396 0 0 -2.092 1490.1726 656.9673)">
		<stop  offset="0.13" style="stop-color:#00A9ED"/>
		<stop  offset="1" style="stop-color:#65106B"/>
	</linearGradient>
	<path id="Path_18928" fill="url(#Path_18928_1_)" d="M19.349,86.712h-3.718c-0.513,0.016-0.942-0.388-0.958-0.901
		c-0.016-0.513,0.387-0.941,0.9-0.958c0.02,0,0.039,0,0.058,0h3.718c0.514-0.016,0.942,0.388,0.958,0.901
		c0.016,0.514-0.388,0.942-0.9,0.958C19.388,86.712,19.369,86.712,19.349,86.712z"/>
	
		<linearGradient id="Path_18929_1_" gradientUnits="userSpaceOnUse" x1="-232.2999" y1="272.6953" x2="-232.2999" y2="271.8066" gradientTransform="matrix(6.3396 0 0 -2.092 1490.1726 642.3306)">
		<stop  offset="0.13" style="stop-color:#00A9ED"/>
		<stop  offset="1" style="stop-color:#65106B"/>
	</linearGradient>
	<path id="Path_18929" fill="url(#Path_18929_1_)" d="M19.349,73.701h-3.718c-0.513,0.016-0.942-0.387-0.958-0.9
		c-0.016-0.513,0.387-0.941,0.9-0.958c0.02-0.001,0.039-0.001,0.058,0h3.718c0.514-0.016,0.942,0.388,0.958,0.901
		c0.016,0.513-0.388,0.941-0.9,0.957C19.388,73.702,19.369,73.702,19.349,73.701z"/>
	
		<linearGradient id="Path_18930_1_" gradientUnits="userSpaceOnUse" x1="-146.5704" y1="439.4756" x2="-146.5704" y2="438.5859" gradientTransform="matrix(2.092 0 0 -20.9393 322.2614 9272.2617)">
		<stop  offset="0.13" style="stop-color:#00A9ED"/>
		<stop  offset="1" style="stop-color:#65106B"/>
	</linearGradient>
	<path id="Path_18930" fill="url(#Path_18930_1_)" d="M15.632,88.57c-0.513,0.001-0.929-0.415-0.93-0.928c0-0.001,0-0.002,0-0.002
		V70.916c-0.016-0.514,0.387-0.942,0.9-0.958s0.942,0.388,0.958,0.9c0,0.02,0,0.038,0,0.058v16.726c0,0.512-0.415,0.928-0.927,0.929
		C15.633,88.57,15.633,88.57,15.632,88.57z"/>
	
		<linearGradient id="Path_18931_1_" gradientUnits="userSpaceOnUse" x1="-257.2892" y1="272.4922" x2="-257.2892" y2="271.6035" gradientTransform="matrix(15.6205 0 0 -2.091 4028.5786 639.7675)">
		<stop  offset="0.13" style="stop-color:#00A9ED"/>
		<stop  offset="1" style="stop-color:#65106B"/>
	</linearGradient>
	<path id="Path_18931" fill="url(#Path_18931_1_)" d="M15.631,71.846H3.548c-0.513-0.017-0.916-0.445-0.9-0.959
		c0.015-0.491,0.41-0.885,0.9-0.9h12.083c0.513,0.016,0.917,0.444,0.901,0.958C16.517,71.436,16.122,71.83,15.631,71.846z"/>
	
		<linearGradient id="Path_18932_1_" gradientUnits="userSpaceOnUse" x1="-257.2892" y1="273.4912" x2="-257.2892" y2="272.6025" gradientTransform="matrix(15.6205 0 0 -2.091 4028.5786 658.5839)">
		<stop  offset="0.13" style="stop-color:#00A9ED"/>
		<stop  offset="1" style="stop-color:#65106B"/>
	</linearGradient>
	<path id="Path_18932" fill="url(#Path_18932_1_)" d="M15.631,88.57H3.548c-0.513-0.017-0.916-0.445-0.9-0.958
		c0.015-0.491,0.41-0.886,0.9-0.9h12.083c0.513,0.016,0.917,0.444,0.901,0.958C16.517,88.16,16.122,88.556,15.631,88.57z"/>
	
		<linearGradient id="Path_18933_1_" gradientUnits="userSpaceOnUse" x1="-269.4005" y1="446.7139" x2="-269.4005" y2="445.8252" gradientTransform="matrix(52.275 0 0 -34.776 14119.9229 15568.4395)">
		<stop  offset="0.13" style="stop-color:#00A9ED"/>
		<stop  offset="1" style="stop-color:#65106B"/>
	</linearGradient>
	<path id="Path_18933" fill="url(#Path_18933_1_)" d="M59.32,64.411H14.711c-0.513,0-0.928-0.415-0.928-0.927
		c0-0.001,0-0.002,0-0.002V34.43c0-0.513,0.414-0.929,0.926-0.93c0,0,0.001,0,0.002,0H59.32c0.514-0.001,0.93,0.414,0.93,0.926
		c0,0.001,0,0.002,0,0.003v29.053c0.001,0.513-0.413,0.929-0.926,0.929C59.323,64.411,59.321,64.411,59.32,64.411z M15.64,62.552
		h42.75V35.358H15.64V62.552z"/>
	<g id="Group_3578" transform="translate(23.027 40.985)">
		
			<linearGradient id="Path_18937_1_" gradientUnits="userSpaceOnUse" x1="-289.0496" y1="229.9994" x2="-289.0496" y2="229.1107" gradientTransform="matrix(31.368 0 0 -2.092 9080.9355 483.4402)">
			<stop  offset="0.13" style="stop-color:#00A9ED"/>
			<stop  offset="1" style="stop-color:#65106B"/>
		</linearGradient>
		<path id="Path_18937" fill="url(#Path_18937_1_)" d="M27,4.138H0.977C0.463,4.122,0.06,3.693,0.076,3.18
			c0.016-0.491,0.41-0.886,0.901-0.901H27c0.513-0.016,0.941,0.388,0.957,0.901c0.017,0.513-0.387,0.942-0.899,0.958
			C27.038,4.139,27.019,4.139,27,4.138z"/>
		
			<linearGradient id="Path_18938_1_" gradientUnits="userSpaceOnUse" x1="-289.0496" y1="230.2904" x2="-289.0496" y2="229.4017" gradientTransform="matrix(31.368 0 0 -2.092 9080.873 488.9285)">
			<stop  offset="0.13" style="stop-color:#00A9ED"/>
			<stop  offset="1" style="stop-color:#65106B"/>
		</linearGradient>
		<path id="Path_18938" fill="url(#Path_18938_1_)" d="M27,9.017H0.977c-0.514,0.016-0.942-0.387-0.958-0.9
			C0.003,7.603,0.406,7.174,0.92,7.159c0.019-0.001,0.038-0.001,0.057,0H27c0.513,0.016,0.917,0.445,0.9,0.958
			C27.885,8.607,27.49,9.002,27,9.017z"/>
		
			<linearGradient id="Path_18939_1_" gradientUnits="userSpaceOnUse" x1="-283.468" y1="230.5824" x2="-283.468" y2="229.6937" gradientTransform="matrix(18.8856 0 0 -2.092 5367.4619 494.4187)">
			<stop  offset="0.13" style="stop-color:#00A9ED"/>
			<stop  offset="1" style="stop-color:#65106B"/>
		</linearGradient>
		<path id="Path_18939" fill="url(#Path_18939_1_)" d="M21.423,13.897H6.552c-0.513,0.016-0.942-0.388-0.958-0.9
			c-0.016-0.514,0.387-0.942,0.9-0.958c0.019,0,0.038,0,0.057,0h14.87c0.514-0.016,0.942,0.388,0.958,0.9
			c0.016,0.514-0.387,0.942-0.9,0.958C21.461,13.898,21.441,13.898,21.423,13.897z"/>
	</g>
	
		<linearGradient id="Path_18940_1_" gradientUnits="userSpaceOnUse" x1="-252.4137" y1="416.8584" x2="-252.4137" y2="415.9697" gradientTransform="matrix(12.0624 0 0 -9.3944 3072.6563 3997.2861)">
		<stop  offset="0.13" style="stop-color:#00A9ED"/>
		<stop  offset="1" style="stop-color:#65106B"/>
	</linearGradient>
	<path id="Path_18940" fill="url(#Path_18940_1_)" d="M32.38,89.486c-4.464,0.015-8.417-2.881-9.749-7.141
		c-0.155-0.49,0.116-1.012,0.605-1.166c0.489-0.155,1.011,0.116,1.166,0.605c1.092,3.484,4.325,5.852,7.978,5.842
		c0.514,0,0.93,0.416,0.93,0.93S32.894,89.486,32.38,89.486z"/>
	
		<linearGradient id="Path_18941_1_" gradientUnits="userSpaceOnUse" x1="-252.4894" y1="416.8193" x2="-252.4894" y2="415.9307" gradientTransform="matrix(12.1044 0 0 -9.4225 3084.2124 3996.5356)">
		<stop  offset="0.13" style="stop-color:#00A9ED"/>
		<stop  offset="1" style="stop-color:#65106B"/>
	</linearGradient>
	<path id="Path_18941" fill="url(#Path_18941_1_)" d="M23.508,77.418c-0.094,0-0.188-0.015-0.277-0.043
		c-0.49-0.152-0.762-0.674-0.609-1.163c0,0,0,0,0-0.001c1.323-4.275,5.283-7.184,9.759-7.168c0.513-0.016,0.941,0.388,0.957,0.9
		c0.017,0.514-0.387,0.942-0.9,0.959c-0.019,0-0.038,0-0.057,0c-3.662-0.014-6.902,2.368-7.984,5.866
		C24.273,77.156,23.914,77.418,23.508,77.418z"/>
</g>
</svg>
