<?xml version="1.0" encoding="utf-8"?>
<!-- Generator: Adobe Illustrator 14.0.0, SVG Export Plug-In . SVG Version: 6.00 Build 43363)  -->
<!DOCTYPE svg PUBLIC "-//W3C//DTD SVG 1.1//EN" "http://www.w3.org/Graphics/SVG/1.1/DTD/svg11.dtd">
<svg version="1.1" id="depreciation" xmlns="http://www.w3.org/2000/svg" xmlns:xlink="http://www.w3.org/1999/xlink" x="0px"
	 y="0px" width="65px" height="65px" viewBox="0 0 65 65" enable-background="new 0 0 65 65" xml:space="preserve">
<g id="rent" transform="translate(-0.33 0.001)">
	
		<linearGradient id="Path_18982_1_" gradientUnits="userSpaceOnUse" x1="16.599" y1="45.1338" x2="16.599" y2="44.1338" gradientTransform="matrix(34.3998 0 0 -29.4771 -538.8728 1364.932)">
		<stop  offset="0.13" style="stop-color:#00A9ED"/>
		<stop  offset="1" style="stop-color:#65106B"/>
	</linearGradient>
	<path id="Path_18982" fill="url(#Path_18982_1_)" d="M32.578,34.667c-0.266-0.193-0.626-0.193-0.892,0L15.262,46.624
		c-0.346,0.236-0.434,0.708-0.198,1.054c0.237,0.345,0.708,0.434,1.054,0.197c0.012-0.009,0.024-0.017,0.036-0.026l3.607-2.625
		v18.018c0,0.418,0.34,0.758,0.758,0.758h23.226c0.419,0,0.758-0.34,0.758-0.758V45.224l3.607,2.625
		c0.331,0.256,0.807,0.195,1.063-0.135c0.257-0.332,0.195-0.808-0.136-1.064c-0.012-0.008-0.023-0.018-0.035-0.025l-4.5-3.275
		v-7.195c0-0.418-0.34-0.758-0.758-0.758h-3.688c-0.419,0-0.758,0.34-0.758,0.758v3.406L32.578,34.667z M31.421,62.481h-3.537v-7.6
		h3.537V62.481z M42.986,62.481H32.938v-8.353c0-0.419-0.339-0.758-0.758-0.758h-5.054c-0.418,0-0.758,0.339-0.758,0.758v8.353
		h-5.092V44.12l10.855-7.9l10.855,7.9V62.481z M40.814,36.912h2.172v5.333l-2.172-1.582V36.912z"/>
	
		<linearGradient id="Path_18983_1_" gradientUnits="userSpaceOnUse" x1="51.6269" y1="-11.1958" x2="51.6269" y2="-12.1958" gradientTransform="matrix(6.57 0 0 -5.306 -300.7885 -10.2365)">
		<stop  offset="0.13" style="stop-color:#00A9ED"/>
		<stop  offset="1" style="stop-color:#65106B"/>
	</linearGradient>
	<path id="Path_18983" fill="url(#Path_18983_1_)" d="M35.873,54.479h5.053c0.42,0,0.759-0.339,0.759-0.758v-3.789
		c0-0.42-0.339-0.759-0.759-0.759h-5.053c-0.419,0-0.758,0.339-0.758,0.759v3.789C35.115,54.141,35.454,54.479,35.873,54.479z
		 M36.631,50.69h3.537v2.273h-3.537V50.69z"/>
	
		<linearGradient id="Path_18984_1_" gradientUnits="userSpaceOnUse" x1="195.9687" y1="-26.7989" x2="195.9687" y2="-27.7989" gradientTransform="matrix(1.516 0 0 -4.324 -264.9925 -86.8561)">
		<stop  offset="0.13" style="stop-color:#00A9ED"/>
		<stop  offset="1" style="stop-color:#65106B"/>
	</linearGradient>
	<path id="Path_18984" fill="url(#Path_18984_1_)" d="M31.339,32.582c0,0.419,0.339,0.758,0.758,0.758
		c0.418,0,0.758-0.339,0.758-0.758v-2.808c0-0.418-0.339-0.758-0.758-0.758c-0.419,0-0.758,0.339-0.758,0.758V32.582z"/>
	
		<linearGradient id="Path_18985_1_" gradientUnits="userSpaceOnUse" x1="195.9687" y1="-72.2154" x2="195.9687" y2="-73.2149" gradientTransform="matrix(1.516 0 0 -2.81 -264.9925 -177.062)">
		<stop  offset="0.13" style="stop-color:#00A9ED"/>
		<stop  offset="1" style="stop-color:#65106B"/>
	</linearGradient>
	<path id="Path_18985" fill="url(#Path_18985_1_)" d="M31.339,27.916c0,0.418,0.339,0.758,0.758,0.758
		c0.418,0,0.758-0.339,0.758-0.758v-1.294c0-0.419-0.339-0.758-0.758-0.758c-0.419,0-0.758,0.339-0.758,0.758V27.916z"/>
	
		<linearGradient id="Path_18986_1_" gradientUnits="userSpaceOnUse" x1="195.9687" y1="-8.3311" x2="195.9687" y2="-9.3311" gradientTransform="matrix(1.516 0 0 -5.537 -264.9925 -26.5359)">
		<stop  offset="0.13" style="stop-color:#00A9ED"/>
		<stop  offset="1" style="stop-color:#65106B"/>
	</linearGradient>
	<path id="Path_18986" fill="url(#Path_18986_1_)" d="M32.098,25.13c0.418,0,0.758-0.339,0.758-0.758v-4.021
		c0-0.418-0.339-0.758-0.758-0.758c-0.419,0-0.758,0.339-0.758,0.758v4.021C31.339,24.791,31.679,25.13,32.098,25.13L32.098,25.13z"
		/>
	
		<linearGradient id="Path_18987_1_" gradientUnits="userSpaceOnUse" x1="195.9687" y1="-151.8643" x2="195.9687" y2="-152.8638" gradientTransform="matrix(1.516 0 0 -1.741 -268.7884 -233.9405)">
		<stop  offset="0.13" style="stop-color:#00A9ED"/>
		<stop  offset="1" style="stop-color:#65106B"/>
	</linearGradient>
	<path id="Path_18987" fill="url(#Path_18987_1_)" d="M27.543,31.436c0,0.418,0.339,0.758,0.758,0.758
		c0.419,0,0.758-0.339,0.758-0.758v-0.225c0-0.418-0.339-0.758-0.758-0.758c-0.418,0-0.758,0.339-0.758,0.758V31.436z"/>
	
		<linearGradient id="Path_18988_1_" gradientUnits="userSpaceOnUse" x1="195.9687" y1="12.56" x2="195.9687" y2="11.56" gradientTransform="matrix(1.516 0 0 -8.111 -268.7884 123.3802)">
		<stop  offset="0.13" style="stop-color:#00A9ED"/>
		<stop  offset="1" style="stop-color:#65106B"/>
	</linearGradient>
	<path id="Path_18988" fill="url(#Path_18988_1_)" d="M28.301,29.619c0.419,0,0.758-0.339,0.758-0.758v-6.595
		c0-0.419-0.339-0.758-0.758-0.758c-0.418,0-0.758,0.339-0.758,0.758v6.595C27.543,29.28,27.883,29.619,28.301,29.619L28.301,29.619
		z"/>
	
		<linearGradient id="Path_18989_1_" gradientUnits="userSpaceOnUse" x1="195.9687" y1="-31.0586" x2="195.9687" y2="-32.0586" gradientTransform="matrix(1.516 0 0 -4.116 -261.4495 -101.3725)">
		<stop  offset="0.13" style="stop-color:#00A9ED"/>
		<stop  offset="1" style="stop-color:#65106B"/>
	</linearGradient>
	<path id="Path_18989" fill="url(#Path_18989_1_)" d="M34.883,29.821c0,0.419,0.339,0.758,0.758,0.758
		c0.418,0,0.758-0.339,0.758-0.758v-2.6c0-0.419-0.34-0.758-0.758-0.758c-0.419,0-0.758,0.339-0.758,0.758V29.821z"/>
	
		<linearGradient id="Path_18990_1_" gradientUnits="userSpaceOnUse" x1="195.9687" y1="-13.2373" x2="195.9687" y2="-14.2373" gradientTransform="matrix(1.516 0 0 -5.153 -261.4495 -47.754)">
		<stop  offset="0.13" style="stop-color:#00A9ED"/>
		<stop  offset="1" style="stop-color:#65106B"/>
	</linearGradient>
	<path id="Path_18990" fill="url(#Path_18990_1_)" d="M35.641,25.607c0.418,0,0.758-0.339,0.758-0.758v-3.637
		c0-0.418-0.34-0.758-0.758-0.758c-0.419,0-0.758,0.339-0.758,0.758v3.637C34.883,25.268,35.222,25.607,35.641,25.607L35.641,25.607
		z"/>
	
		<linearGradient id="Path_18991_1_" gradientUnits="userSpaceOnUse" x1="28.434" y1="33.4697" x2="28.434" y2="32.4692" gradientTransform="matrix(14.1494 0 0 -15.1686 -370.1929 513.7184)">
		<stop  offset="0.13" style="stop-color:#00A9ED"/>
		<stop  offset="1" style="stop-color:#65106B"/>
	</linearGradient>
	<path id="Path_18991" fill="url(#Path_18991_1_)" d="M25.123,13.64c0.126,0.28,0.408,0.456,0.715,0.446l1.647-0.052l0.057,6.431
		c0.004,0.416,0.342,0.751,0.758,0.751h0.007c0.418-0.003,0.755-0.346,0.751-0.765l0,0l-0.064-7.206
		c-0.004-0.419-0.346-0.755-0.765-0.751c-0.006,0-0.012,0-0.018,0l-0.593,0.019l4.346-4.63l4.63,4.346l-0.979,0.031
		c-0.41,0.013-0.734,0.348-0.734,0.758v6.155c-0.001,0.419,0.338,0.759,0.757,0.759s0.759-0.338,0.759-0.757c0,0,0-0.001,0-0.002
		v-5.42l2.073-0.066c0.419-0.013,0.747-0.363,0.733-0.782c-0.006-0.201-0.092-0.391-0.238-0.528l-6.516-6.124
		c-0.305-0.287-0.785-0.271-1.072,0.034c0,0,0,0,0,0l-6.117,6.517c-0.21,0.223-0.265,0.551-0.138,0.831V13.64z"/>
	
		<linearGradient id="Path_18992_1_" gradientUnits="userSpaceOnUse" x1="195.9706" y1="-8.3511" x2="195.9706" y2="-9.3511" gradientTransform="matrix(1.516 0 0 -5.5354 -249.8327 -12.1039)">
		<stop  offset="0.13" style="stop-color:#00A9ED"/>
		<stop  offset="1" style="stop-color:#65106B"/>
	</linearGradient>
	<path id="Path_18992" fill="url(#Path_18992_1_)" d="M47.258,34.117c-0.419,0-0.758,0.339-0.758,0.758v4.022
		c0.001,0.418,0.342,0.756,0.76,0.755c0.417-0.001,0.754-0.339,0.756-0.755v-4.022C48.016,34.456,47.676,34.117,47.258,34.117z"/>
	
		<linearGradient id="Path_18993_1_" gradientUnits="userSpaceOnUse" x1="195.9706" y1="16.3911" x2="195.9706" y2="15.3906" gradientTransform="matrix(1.516 0 0 -8.867 -249.8327 169.3039)">
		<stop  offset="0.13" style="stop-color:#00A9ED"/>
		<stop  offset="1" style="stop-color:#65106B"/>
	</linearGradient>
	<path id="Path_18993" fill="url(#Path_18993_1_)" d="M48.016,24.717c-0.002-0.418-0.342-0.757-0.761-0.755
		c-0.417,0.001-0.754,0.339-0.755,0.755v7.351c-0.002,0.419,0.336,0.759,0.755,0.761s0.759-0.337,0.761-0.755
		c0-0.002,0-0.003,0-0.005V24.717z"/>
	
		<linearGradient id="Path_18994_1_" gradientUnits="userSpaceOnUse" x1="195.9706" y1="-72.0244" x2="195.9706" y2="-73.0244" gradientTransform="matrix(1.516 0 0 -2.8141 -249.8327 -181.8811)">
		<stop  offset="0.13" style="stop-color:#00A9ED"/>
		<stop  offset="1" style="stop-color:#65106B"/>
	</linearGradient>
	<path id="Path_18994" fill="url(#Path_18994_1_)" d="M48.016,21.569c0.002-0.418-0.337-0.759-0.756-0.76
		c-0.418-0.001-0.759,0.336-0.76,0.755c0,0.001,0,0.003,0,0.005v1.293c-0.002,0.419,0.336,0.759,0.755,0.761
		s0.759-0.337,0.761-0.755c0-0.002,0-0.003,0-0.005V21.569z"/>
	
		<linearGradient id="Path_18995_1_" gradientUnits="userSpaceOnUse" x1="195.9706" y1="-8.2696" x2="195.9706" y2="-9.2696" gradientTransform="matrix(1.516 0 0 -5.5422 -249.8327 -31.2944)">
		<stop  offset="0.13" style="stop-color:#00A9ED"/>
		<stop  offset="1" style="stop-color:#65106B"/>
	</linearGradient>
	<path id="Path_18995" fill="url(#Path_18995_1_)" d="M48.016,15.298c0.002-0.418-0.337-0.759-0.756-0.76
		c-0.418-0.001-0.759,0.336-0.76,0.755c0,0.001,0,0.003,0,0.005v4.021c-0.002,0.419,0.336,0.759,0.755,0.761
		s0.759-0.337,0.761-0.755c0-0.002,0-0.003,0-0.005V15.298z"/>
	
		<linearGradient id="Path_18996_1_" gradientUnits="userSpaceOnUse" x1="195.9657" y1="-8.4029" x2="195.9657" y2="-9.4033" gradientTransform="matrix(1.516 0 0 -5.531 -253.6267 -21.0732)">
		<stop  offset="0.13" style="stop-color:#00A9ED"/>
		<stop  offset="1" style="stop-color:#65106B"/>
	</linearGradient>
	<path id="Path_18996" fill="url(#Path_18996_1_)" d="M43.463,25.4c-0.419,0-0.758,0.339-0.758,0.758v4.015
		c0,0.419,0.339,0.758,0.758,0.758c0.418,0,0.758-0.339,0.758-0.758v-4.01c0.002-0.418-0.334-0.76-0.753-0.763
		C43.466,25.4,43.465,25.4,43.463,25.4z"/>
	
		<linearGradient id="Path_18997_1_" gradientUnits="userSpaceOnUse" x1="195.9687" y1="12.56" x2="195.9687" y2="11.56" gradientTransform="matrix(1.516 0 0 -8.111 -253.6272 118.3258)">
		<stop  offset="0.13" style="stop-color:#00A9ED"/>
		<stop  offset="1" style="stop-color:#65106B"/>
	</linearGradient>
	<path id="Path_18997" fill="url(#Path_18997_1_)" d="M44.221,17.212c0-0.418-0.34-0.758-0.758-0.758
		c-0.419,0-0.758,0.339-0.758,0.758v6.595c0,0.418,0.339,0.758,0.758,0.758c0.418,0,0.758-0.339,0.758-0.758V17.212z"/>
	
		<linearGradient id="Path_18998_1_" gradientUnits="userSpaceOnUse" x1="195.9697" y1="19.5093" x2="195.9697" y2="18.5093" gradientTransform="matrix(1.516 0 0 -9.595 -246.2878 208.6083)">
		<stop  offset="0.13" style="stop-color:#00A9ED"/>
		<stop  offset="1" style="stop-color:#65106B"/>
	</linearGradient>
	<path id="Path_18998" fill="url(#Path_18998_1_)" d="M50.043,30.244c-0.001,0.418,0.338,0.759,0.756,0.76
		c0.419,0.001,0.76-0.336,0.761-0.755c0-0.001,0-0.003,0-0.005v-8.079c-0.001-0.418-0.342-0.757-0.761-0.755
		c-0.416,0.001-0.754,0.339-0.756,0.755V30.244z"/>
	
		<linearGradient id="Path_18999_1_" gradientUnits="userSpaceOnUse" x1="195.9706" y1="14.8882" x2="195.9706" y2="13.8877" gradientTransform="matrix(1.516 0 0 -8.554 -246.2878 159.8271)">
		<stop  offset="0.13" style="stop-color:#00A9ED"/>
		<stop  offset="1" style="stop-color:#65106B"/>
	</linearGradient>
	<path id="Path_18999" fill="url(#Path_18999_1_)" d="M50.043,40.27c-0.001,0.419,0.338,0.76,0.756,0.762
		c0.419,0.001,0.76-0.338,0.761-0.756c0-0.002,0-0.004,0-0.006v-7.037c-0.001-0.419-0.342-0.757-0.761-0.756
		c-0.416,0.001-0.754,0.339-0.756,0.756V40.27z"/>
	
		<linearGradient id="Path_19000_1_" gradientUnits="userSpaceOnUse" x1="195.9706" y1="-129.3457" x2="195.9706" y2="-130.3462" gradientTransform="matrix(1.516 0 0 -1.9508 -246.2878 -209.808)">
		<stop  offset="0.13" style="stop-color:#00A9ED"/>
		<stop  offset="1" style="stop-color:#65106B"/>
	</linearGradient>
	<path id="Path_19000" fill="url(#Path_19000_1_)" d="M50.043,43.718c0.002,0.419,0.342,0.757,0.762,0.756
		c0.416-0.002,0.754-0.339,0.755-0.756v-0.439c-0.001-0.419-0.342-0.758-0.761-0.756c-0.416,0.002-0.754,0.339-0.756,0.756V43.718z"
		/>
	
		<linearGradient id="Path_19001_1_" gradientUnits="userSpaceOnUse" x1="195.9706" y1="-13.2725" x2="195.9706" y2="-14.2725" gradientTransform="matrix(1.516 0 0 -5.1504 -246.2878 -52.9526)">
		<stop  offset="0.13" style="stop-color:#00A9ED"/>
		<stop  offset="1" style="stop-color:#65106B"/>
	</linearGradient>
	<path id="Path_19001" fill="url(#Path_19001_1_)" d="M50.802,20.554c0.419,0,0.758-0.339,0.758-0.758v-3.637
		c-0.001-0.419-0.342-0.757-0.761-0.755c-0.416,0.001-0.754,0.338-0.756,0.755v3.637C50.043,20.215,50.383,20.554,50.802,20.554z"/>
	
		<linearGradient id="Path_19002_1_" gradientUnits="userSpaceOnUse" x1="28.4272" y1="31.7524" x2="28.4272" y2="30.7529" gradientTransform="matrix(14.1539 0 0 -14.1576 -355.069 450.544)">
		<stop  offset="0.13" style="stop-color:#00A9ED"/>
		<stop  offset="1" style="stop-color:#65106B"/>
	</linearGradient>
	<path id="Path_19002" fill="url(#Path_19002_1_)" d="M41,9.032l1.647-0.052l0.056,5.422c0.005,0.416,0.343,0.75,0.758,0.75h0.009
		c0.419-0.004,0.755-0.347,0.75-0.766l0,0l-0.064-6.2c-0.005-0.419-0.349-0.755-0.768-0.75c-0.005,0-0.009,0-0.015,0L42.78,7.455
		l4.351-4.627l4.631,4.346l-0.979,0.031c-0.41,0.013-0.734,0.349-0.734,0.758v6.156c0,0.418,0.339,0.758,0.758,0.758
		c0.418,0,0.758-0.339,0.758-0.758l0,0V8.7l2.073-0.066c0.419-0.013,0.747-0.363,0.733-0.781c-0.006-0.201-0.092-0.391-0.238-0.528
		L47.611,1.2c-0.305-0.287-0.785-0.272-1.071,0.033l-0.001,0l-6.117,6.517c-0.285,0.306-0.27,0.785,0.035,1.071
		C40.603,8.96,40.799,9.033,41,9.027V9.032z"/>
	
		<linearGradient id="Path_19003_1_" gradientUnits="userSpaceOnUse" x1="195.9687" y1="-145.5528" x2="195.9687" y2="-146.5528" gradientTransform="matrix(1.516 0 0 -1.7951 -278.7578 -223.4265)">
		<stop  offset="0.13" style="stop-color:#00A9ED"/>
		<stop  offset="1" style="stop-color:#65106B"/>
	</linearGradient>
	<path id="Path_19003" fill="url(#Path_19003_1_)" d="M17.574,38.895c0,0.418,0.34,0.757,0.759,0.756
		c0.418,0,0.756-0.338,0.757-0.756v-0.281c0-0.419-0.34-0.758-0.759-0.758c-0.418,0.001-0.756,0.34-0.757,0.758V38.895z"/>
	
		<linearGradient id="Path_19004_1_" gradientUnits="userSpaceOnUse" x1="195.9687" y1="-10.7862" x2="195.9687" y2="-11.7862" gradientTransform="matrix(1.516 0 0 -5.3379 -278.7578 -26.6518)">
		<stop  offset="0.13" style="stop-color:#00A9ED"/>
		<stop  offset="1" style="stop-color:#65106B"/>
	</linearGradient>
	<path id="Path_19004" fill="url(#Path_19004_1_)" d="M17.574,35.501c-0.001,0.418,0.338,0.758,0.757,0.759s0.758-0.339,0.759-0.757
		v-0.002v-3.82c0-0.419-0.338-0.759-0.757-0.759s-0.758,0.338-0.759,0.757c0,0,0,0.001,0,0.002V35.501z"/>
	
		<linearGradient id="Path_19005_1_" gradientUnits="userSpaceOnUse" x1="195.9687" y1="-63.5596" x2="195.9687" y2="-64.5596" gradientTransform="matrix(1.516 0 0 -3.011 -278.7578 -164.2011)">
		<stop  offset="0.13" style="stop-color:#00A9ED"/>
		<stop  offset="1" style="stop-color:#65106B"/>
	</linearGradient>
	<path id="Path_19005" fill="url(#Path_19005_1_)" d="M18.331,30.184c0.418,0,0.758-0.339,0.758-0.758v-1.494
		c0-0.419-0.338-0.758-0.757-0.759c-0.418,0-0.758,0.339-0.759,0.757c0,0,0,0.001,0,0.002v1.494
		C17.574,29.845,17.913,30.184,18.331,30.184z"/>
	
		<linearGradient id="Path_19006_1_" gradientUnits="userSpaceOnUse" x1="195.9687" y1="-129.3291" x2="195.9687" y2="-130.3291" gradientTransform="matrix(1.516 0 0 -1.951 -282.5538 -209.4426)">
		<stop  offset="0.13" style="stop-color:#00A9ED"/>
		<stop  offset="1" style="stop-color:#65106B"/>
	</linearGradient>
	<path id="Path_19006" fill="url(#Path_19006_1_)" d="M13.777,44.069c0,0.42,0.339,0.759,0.758,0.759
		c0.418,0,0.758-0.339,0.758-0.759v-0.435c0-0.419-0.339-0.758-0.758-0.758c-0.419,0-0.758,0.339-0.758,0.758V44.069z"/>
	
		<linearGradient id="Path_19007_1_" gradientUnits="userSpaceOnUse" x1="195.9687" y1="1.0566" x2="195.9687" y2="0.0566" gradientTransform="matrix(1.516 0 0 -6.458 -282.5538 42.3323)">
		<stop  offset="0.13" style="stop-color:#00A9ED"/>
		<stop  offset="1" style="stop-color:#65106B"/>
	</linearGradient>
	<path id="Path_19007" fill="url(#Path_19007_1_)" d="M13.777,41.207c0,0.419,0.339,0.758,0.758,0.758
		c0.418,0,0.758-0.339,0.758-0.758v-4.942c0-0.418-0.339-0.758-0.758-0.758c-0.419,0-0.758,0.34-0.758,0.758V41.207z"/>
	
		<linearGradient id="Path_19008_1_" gradientUnits="userSpaceOnUse" x1="195.9687" y1="24.4106" x2="195.9687" y2="23.4106" gradientTransform="matrix(1.516 0 0 -11.016 -282.5538 292.5626)">
		<stop  offset="0.13" style="stop-color:#00A9ED"/>
		<stop  offset="1" style="stop-color:#65106B"/>
	</linearGradient>
	<path id="Path_19008" fill="url(#Path_19008_1_)" d="M14.536,34.672c0.418,0,0.758-0.339,0.758-0.758v-9.5
		c0-0.418-0.339-0.758-0.758-0.758c-0.419,0-0.758,0.339-0.758,0.758v9.5C13.777,34.333,14.117,34.672,14.536,34.672z"/>
	
		<linearGradient id="Path_19009_1_" gradientUnits="userSpaceOnUse" x1="195.9697" y1="-172.4527" x2="195.9697" y2="-173.4527" gradientTransform="matrix(1.516 0 0 -1.5851 -275.2148 -239.311)">
		<stop  offset="0.13" style="stop-color:#00A9ED"/>
		<stop  offset="1" style="stop-color:#65106B"/>
	</linearGradient>
	<path id="Path_19009" fill="url(#Path_19009_1_)" d="M21.117,34.875c0,0.419,0.34,0.758,0.759,0.757
		c0.418,0,0.756-0.339,0.757-0.757v-0.071c0-0.418-0.34-0.758-0.759-0.757c-0.418,0.001-0.756,0.339-0.757,0.757V34.875z"/>
	
		<linearGradient id="Path_19010_1_" gradientUnits="userSpaceOnUse" x1="195.9697" y1="23.8637" x2="195.9697" y2="22.8637" gradientTransform="matrix(1.516 0 0 -10.8371 -275.2139 280.9702)">
		<stop  offset="0.13" style="stop-color:#00A9ED"/>
		<stop  offset="1" style="stop-color:#65106B"/>
	</linearGradient>
	<path id="Path_19010" fill="url(#Path_19010_1_)" d="M21.875,33.187c0.418,0,0.758-0.339,0.758-0.757v-9.322
		c0-0.418-0.34-0.757-0.759-0.757c-0.418,0-0.756,0.339-0.757,0.757v9.322C21.118,32.848,21.457,33.187,21.875,33.187z"/>
	
		<linearGradient id="Path_19011_1_" gradientUnits="userSpaceOnUse" x1="28.4345" y1="40.5332" x2="28.4345" y2="39.5332" gradientTransform="matrix(14.1489 0 0 -21.4827 -383.9572 871.7349)">
		<stop  offset="0.13" style="stop-color:#00A9ED"/>
		<stop  offset="1" style="stop-color:#65106B"/>
	</linearGradient>
	<path id="Path_19011" fill="url(#Path_19011_1_)" d="M12.074,9.032l1.644-0.052l0.061,12.744c0.002,0.417,0.341,0.755,0.758,0.755
		l0,0c0.418-0.001,0.756-0.342,0.755-0.761c0,0,0,0,0,0L15.229,8.194c-0.002-0.419-0.344-0.757-0.764-0.754
		c-0.006,0-0.012,0-0.018,0l-0.594,0.019l4.346-4.63l4.63,4.346l-0.978,0.031c-0.409,0.013-0.734,0.349-0.734,0.758v12.472
		c0,0.418,0.34,0.758,0.758,0.757c0.418,0,0.757-0.339,0.757-0.757V8.7l2.074-0.066c0.418-0.014,0.747-0.364,0.732-0.782
		c-0.006-0.201-0.092-0.39-0.238-0.527L18.684,1.2c-0.306-0.286-0.786-0.269-1.071,0.037c0,0,0,0-0.001,0.001l-6.116,6.518
		c-0.286,0.306-0.271,0.785,0.035,1.072C11.678,8.965,11.872,9.039,12.074,9.032z"/>
</g>
</svg>
