<svg xmlns="http://www.w3.org/2000/svg" xmlns:xlink="http://www.w3.org/1999/xlink" width="72" height="55.467" viewBox="0 0 72 55.467">
  <defs>
    <linearGradient id="linear-gradient" x1="0.5" x2="0.5" y2="1" gradientUnits="objectBoundingBox">
      <stop offset="0.13" stop-color="#00a9ed"/>
      <stop offset="1" stop-color="#65106b"/>
    </linearGradient>
  </defs>
  <path id="Union_27" data-name="Union 27" d="M-2030.721,20168.121h-28.558a6.39,6.39,0,0,1-6.294,5.348,6.374,6.374,0,0,1-6.291-5.348h-6.051a3.091,3.091,0,0,1-3.088-3.088v-30.445a3.088,3.088,0,0,1,3.088-3.084h30.405v-1.172a5.754,5.754,0,0,1,5.754-5.752,5.751,5.751,0,0,1,5.754,5.752v1.172h3.541a4.2,4.2,0,0,1,3.156,1.428l12.961,14.736,3.775,1.436a5.586,5.586,0,0,1,3.567,5.193v10.736a3.087,3.087,0,0,1-3.083,3.088h-6.052a6.39,6.39,0,0,1-6.294,5.348A6.374,6.374,0,0,1-2030.721,20168.121Zm1.974-1.031a4.322,4.322,0,0,0,4.317,4.324,4.323,4.323,0,0,0,4.322-4.324,4.32,4.32,0,0,0-4.322-4.32A4.319,4.319,0,0,0-2028.747,20167.09Zm-41.142,0a4.322,4.322,0,0,0,4.317,4.324,4.326,4.326,0,0,0,4.322-4.324,4.323,4.323,0,0,0-4.322-4.32A4.319,4.319,0,0,0-2069.889,20167.09Zm57.805-1.023a1.03,1.03,0,0,0,1.026-1.033V20154.3a3.52,3.52,0,0,0-2.25-3.27l-4.01-1.531a1.017,1.017,0,0,1-.406-.281l-13.127-14.924a2.14,2.14,0,0,0-1.609-.73h-45.454a1.029,1.029,0,0,0-1.031,1.027v30.445a1.034,1.034,0,0,0,1.031,1.033h6.05a6.378,6.378,0,0,1,6.291-5.354,6.38,6.38,0,0,1,6.3,5.354h28.555a6.379,6.379,0,0,1,6.291-5.354,6.381,6.381,0,0,1,6.3,5.354Zm-33.368-35.734v.965h7.394v-.965a3.7,3.7,0,0,0-3.7-3.7A3.7,3.7,0,0,0-2045.452,20130.332Zm-18.23,23.633a1.03,1.03,0,0,1-1.031-1.027v-3.473h-3.473a1.025,1.025,0,0,1-1.026-1.025v-4.926a1.025,1.025,0,0,1,1.026-1.027h3.473v-3.473a1.031,1.031,0,0,1,1.031-1.031h4.926a1.026,1.026,0,0,1,1.026,1.031v3.473h3.473a1.03,1.03,0,0,1,1.031,1.027v4.926a1.029,1.029,0,0,1-1.031,1.025h-3.473v3.473a1.025,1.025,0,0,1-1.026,1.027Zm-3.473-6.559h3.473a1.03,1.03,0,0,1,1.026,1.033v3.467h2.869v-3.467a1.035,1.035,0,0,1,1.031-1.033h3.473v-2.861h-3.473a1.034,1.034,0,0,1-1.031-1.031v-3.475h-2.869v3.475a1.03,1.03,0,0,1-1.026,1.031h-3.473Zm28.728,2.162a1.03,1.03,0,0,1-1.026-1.031v-11.58a1.025,1.025,0,0,1,1.026-1.031h4.968a1.032,1.032,0,0,1,.776.354l10.06,11.582a1.03,1.03,0,0,1,.162,1.1,1.035,1.035,0,0,1-.937.605Zm1.031-2.057h11.742l-8.274-9.529h-3.468Zm3.51-20.49a1.023,1.023,0,0,1,.828-1.1l1.844-.361a1.041,1.041,0,0,1,1.208.818,1.029,1.029,0,0,1-.818,1.2l-1.843.359a.717.717,0,0,1-.193.018A1.03,1.03,0,0,1-2033.887,20127.021Zm-16.955.916-1.844-.359a1.022,1.022,0,0,1-.812-1.2,1.033,1.033,0,0,1,1.2-.818l1.844.361a1.023,1.023,0,0,1,.828,1.1,1.022,1.022,0,0,1-1.021.934A1.352,1.352,0,0,1-2050.841,20127.938Zm3.406-4.223a1.039,1.039,0,0,1-.823-.4l-1.01-1.328a1.03,1.03,0,0,1,.2-1.443,1.028,1.028,0,0,1,1.442.2l1.01,1.322a1.02,1.02,0,0,1,.1,1.082,1.029,1.029,0,0,1-.922.572Zm10.44-.568a1.029,1.029,0,0,1,.1-1.082l1.01-1.328a1.029,1.029,0,0,1,1.443-.193,1.031,1.031,0,0,1,.2,1.443l-1,1.328a1.04,1.04,0,0,1-.823.4h-.013A1.016,1.016,0,0,1-2037,20123.146Zm-5.785-2.566v-1.551a1.025,1.025,0,0,1,1.026-1.027,1.03,1.03,0,0,1,1.031,1.027v1.551a1.028,1.028,0,0,1-1.031,1.025A1.024,1.024,0,0,1-2042.781,20120.58Z" transform="translate(2081.001 -20118.002)" fill="url(#linear-gradient)"/>
</svg>
