<?xml version="1.0" encoding="utf-8"?>
<!-- Generator: Adobe Illustrator 14.0.0, SVG Export Plug-In . SVG Version: 6.00 Build 43363)  -->
<!DOCTYPE svg PUBLIC "-//W3C//DTD SVG 1.1//EN" "http://www.w3.org/Graphics/SVG/1.1/DTD/svg11.dtd">
<svg version="1.1" id="depreciation" xmlns="http://www.w3.org/2000/svg" xmlns:xlink="http://www.w3.org/1999/xlink" x="0px"
	 y="0px" width="65px" height="65px" viewBox="0 0 65 65" enable-background="new 0 0 65 65" xml:space="preserve">
<g id="cog" transform="translate(-0.294)">
	
		<linearGradient id="Path_19097_1_" gradientUnits="userSpaceOnUse" x1="33.6631" y1="23.8145" x2="33.6631" y2="22.8145" gradientTransform="matrix(10.82 0 0 -10.82 -351.2205 264.9662)">
		<stop  offset="0.13" style="stop-color:#00A9ED"/>
		<stop  offset="1" style="stop-color:#65106B"/>
	</linearGradient>
	<path id="Path_19097" fill="url(#Path_19097_1_)" d="M13.022,18.113c2.988,0,5.41-2.423,5.41-5.41c0-2.988-2.422-5.41-5.41-5.41
		s-5.41,2.422-5.41,5.41l0,0C7.612,15.69,10.034,18.113,13.022,18.113z M13.022,9.393c1.829,0,3.312,1.481,3.312,3.311
		c0,1.828-1.481,3.312-3.31,3.312c-1.829,0.001-3.312-1.481-3.312-3.31c0-0.001,0-0.002,0-0.002
		C9.712,10.875,11.194,9.393,13.022,9.393L13.022,9.393z"/>
	
		<linearGradient id="Path_19098_1_" gradientUnits="userSpaceOnUse" x1="12.6519" y1="51.7012" x2="12.6519" y2="50.7012" gradientTransform="matrix(62.996 0 0 -62.846 -764.1888 3250.3555)">
		<stop  offset="0.13" style="stop-color:#00A9ED"/>
		<stop  offset="1" style="stop-color:#65106B"/>
	</linearGradient>
	<path id="Path_19098" fill="url(#Path_19098_1_)" d="M60.09,47.6l-0.405-10.59l1.976-2.716l-2.396-4.4l0.481-1.479l4.524-2.154
		v-4.388l-4.524-2.154l-0.481-1.479l2.396-4.4l-2.578-3.546l-4.927,0.916l-1.256-0.917l-0.65-4.968l-4.171-1.355L44.63,7.604h-1.557
		l-3.446-3.637l-4.169,1.355l-0.2,1.549L20.677,6.004l-0.982-0.982l-0.272-2.199l-3.934-1.642l-1.753,1.371h-1.421l-1.758-1.371
		L6.621,2.815l-0.271,2.2L5.343,6.027l-2.2,0.271L1.5,10.237l1.372,1.757v1.424L1.5,15.168l1.3,3.138L1.356,36.875
		C1.323,37.111,1.305,37.35,1.3,37.588v0.039H1.294v0.082c-0.005,3.474,2.807,6.293,6.28,6.298c0.882,0.001,1.754-0.184,2.56-0.541
		l6.211-2.585c-1.003,2.84,0.16,5.992,2.767,7.5l-9.595,3.1c-3.407,0.706-5.598,4.039-4.893,7.446
		c0.602,2.905,3.148,4.998,6.115,5.023h0.06l38.648-2.027l0.593,1.419l3.337,0.686l2.709-2.633l0.689-0.229l3.746,0.482l2.263-2.549
		l-0.925-3.662L62,54.725l2.29-3l-1.073-3.232L60.09,47.6z M37.366,6.909l1.648-0.535l3.156,3.33h3.359l3.156-3.33l1.649,0.535
		l0.601,4.551l2.717,1.975l4.514-0.839l1.018,1.4l-2.191,4.032l1.039,3.199l4.143,1.974v1.731l-4.143,1.974l-1.039,3.199
		l2.191,4.031l-1.018,1.4l-4.514-0.839l-2.717,1.975l-0.601,4.55l-1.649,0.536l-3.156-3.33h-3.358l-3.157,3.33l-1.647-0.536
		l-0.601-4.548l-2.718-1.976l-4.514,0.839l-1.018-1.4l2.191-4.03l-1.038-3.199l-4.139-1.978v-1.731l4.143-1.974l1.038-3.199
		l-2.191-4.03l1.018-1.4l4.514,0.839l2.718-1.978L37.366,6.909z M3.917,9.909L4.61,8.23l1.71-0.21l2.028-2.024l0.21-1.71
		l1.679-0.693l1.357,1.061h2.871l1.351-1.058l1.679,0.693l0.21,1.709l2.023,2.028l1.71,0.21l0.694,1.679l-1.06,1.356v2.871
		l1.06,1.357l-0.694,1.681l-1.71,0.21L17.7,19.418l-0.21,1.71l-1.679,0.693l-1.357-1.061h-2.866l-1.357,1.061l-1.679-0.693
		l-0.21-1.71l-2.026-2.037l-1.709-0.21l-0.692-1.679l1.06-1.357v-2.868L3.917,9.909z M3.393,37.728l0.012-0.164
		c0.206-2.184,2.143-3.788,4.327-3.582c2.184,0.205,3.788,2.142,3.583,4.326c-0.205,2.184-2.142,3.788-4.326,3.583
		C4.867,41.69,3.282,39.854,3.393,37.728z M22.286,38.759c2.319,0,4.2,1.881,4.2,4.2s-1.88,4.2-4.2,4.2c-2.32,0-4.2-1.881-4.2-4.2
		S19.966,38.759,22.286,38.759z M6.542,57.652c0.004-1.632,0.953-3.114,2.433-3.801l1.015-0.325
		c2.281-0.402,4.455,1.121,4.857,3.401c0.401,2.281-1.122,4.455-3.402,4.857c-0.22,0.038-0.441,0.06-0.665,0.063h-0.053
		c-2.314-0.008-4.186-1.886-4.186-4.2L6.542,57.652z M15.642,61.591c2.178-2.696,1.758-6.647-0.938-8.826
		c-0.234-0.188-0.482-0.361-0.741-0.515l10.252-3.3c3.331-1.007,5.215-4.522,4.208-7.854c-1.006-3.33-4.522-5.215-7.853-4.208
		c-0.223,0.067-0.441,0.146-0.655,0.238l-6.377,2.658c1.151-3.274-0.569-6.863-3.844-8.015c-1.999-0.703-4.217-0.352-5.9,0.935
		l1.05-13.392l0.509,0.063l1.007,1.009l0.271,2.2l3.937,1.629l1.753-1.364h1.424l1.755,1.368l3.926-1.625l0.272-2.2l1.002-1.013
		l2.2-0.272l1.635-3.928l-1.365-1.752v-1.43l1.365-1.753l-0.806-1.948l11.256,0.666l-0.174,1.333l-1.26,0.914l-4.926-0.916
		l-2.578,3.546l2.394,4.4l-0.48,1.477l-4.524,2.153v4.385l4.524,2.154l0.481,1.479l-2.394,4.4l2.578,3.546l4.926-0.916l1.261,0.914
		l0.649,4.969l4.168,1.355l3.448-3.638h1.555l3.448,3.638l4.168-1.355l0.651-4.968l1.259-0.915l3.45,0.642l0.252,6.568l-0.269-0.642
		l-3.338-0.687l-2.715,2.63l-0.69,0.23l-3.746-0.481l-2.262,2.548l0.924,3.662l-0.147,0.712l-2.29,3l1.07,3.237l3.633,1.033
		l0.546,0.482v0.008L15.642,61.591z M60.042,53.833L59.7,55.48l0.769,3.052l-0.788,0.887l-3.121-0.4l-1.6,0.531l-2.258,2.19
		l-1.162-0.237l-1.212-2.9l-1.253-1.122l-3.026-0.86l-0.376-1.128l1.909-2.5l0.339-1.651l-0.77-3.051l0.789-0.888l3.121,0.399
		l1.6-0.531l2.258-2.189l1.162,0.239l1.213,2.899l1.259,1.118l3.026,0.859l0.375,1.128L60.042,53.833z"/>
	
		<linearGradient id="Path_19099_1_" gradientUnits="userSpaceOnUse" x1="73.6504" y1="-29.2798" x2="73.6504" y2="-30.2798" gradientTransform="matrix(4.2 0 0 -4.2 -301.7439 -87.3644)">
		<stop  offset="0.13" style="stop-color:#00A9ED"/>
		<stop  offset="1" style="stop-color:#65106B"/>
	</linearGradient>
	<path id="Path_19099" fill="url(#Path_19099_1_)" d="M9.69,37.71c0,1.16-0.94,2.1-2.1,2.1s-2.1-0.939-2.1-2.1s0.94-2.101,2.1-2.101
		C8.75,35.609,9.69,36.55,9.69,37.71L9.69,37.71z"/>
	
		<linearGradient id="Path_19100_1_" gradientUnits="userSpaceOnUse" x1="73.6514" y1="-29.2793" x2="73.6514" y2="-30.2793" gradientTransform="matrix(4.2 0 0 -4.2 -287.0485 -82.1144)">
		<stop  offset="0.13" style="stop-color:#00A9ED"/>
		<stop  offset="1" style="stop-color:#65106B"/>
	</linearGradient>
	<path id="Path_19100" fill="url(#Path_19100_1_)" d="M24.385,42.958c0,1.16-0.94,2.1-2.1,2.1c-1.16,0-2.1-0.939-2.1-2.1
		s0.94-2.101,2.1-2.101C23.445,40.857,24.385,41.798,24.385,42.958L24.385,42.958z"/>
	
		<linearGradient id="Path_19101_1_" gradientUnits="userSpaceOnUse" x1="73.6504" y1="-29.2788" x2="73.6504" y2="-30.2793" gradientTransform="matrix(4.2 0 0 -4.2 -298.5955 -67.4191)">
		<stop  offset="0.13" style="stop-color:#00A9ED"/>
		<stop  offset="1" style="stop-color:#65106B"/>
	</linearGradient>
	<path id="Path_19101" fill="url(#Path_19101_1_)" d="M12.839,57.653c0,1.159-0.94,2.1-2.1,2.1c-1.16,0-2.1-0.94-2.1-2.1
		c0-1.16,0.94-2.101,2.1-2.101C11.899,55.553,12.839,56.493,12.839,57.653L12.839,57.653z"/>
	
		<linearGradient id="Path_19102_1_" gradientUnits="userSpaceOnUse" x1="34.4463" y1="22.7749" x2="34.4463" y2="21.7749" gradientTransform="matrix(10.496 0 0 -10.496 -307.7771 287.2509)">
		<stop  offset="0.13" style="stop-color:#00A9ED"/>
		<stop  offset="1" style="stop-color:#65106B"/>
	</linearGradient>
	<path id="Path_19102" fill="url(#Path_19102_1_)" d="M53.774,48.206c-2.898,0-5.248,2.35-5.248,5.248s2.35,5.248,5.248,5.248
		s5.248-2.35,5.248-5.248l0,0C59.023,50.556,56.673,48.206,53.774,48.206z M53.774,56.605c-1.74,0-3.149-1.409-3.149-3.148
		s1.409-3.149,3.149-3.149c1.738,0,3.148,1.41,3.148,3.149l0,0C56.923,55.196,55.513,56.605,53.774,56.605z"/>
	
		<linearGradient id="Path_19103_1_" gradientUnits="userSpaceOnUse" x1="21.3658" y1="40.1445" x2="21.3658" y2="39.1445" gradientTransform="matrix(21 0 0 -21 -405.3956 856.5938)">
		<stop  offset="0.13" style="stop-color:#00A9ED"/>
		<stop  offset="1" style="stop-color:#65106B"/>
	</linearGradient>
	<path id="Path_19103" fill="url(#Path_19103_1_)" d="M43.278,34.56c5.799,0,10.5-4.701,10.5-10.5s-4.701-10.5-10.5-10.5
		s-10.5,4.701-10.5,10.5S37.48,34.56,43.278,34.56L43.278,34.56z M43.278,15.667c4.639,0,8.399,3.761,8.399,8.399
		c0,4.64-3.761,8.4-8.399,8.4c-4.64,0-8.4-3.761-8.4-8.4l0,0C34.878,19.428,38.64,15.668,43.278,15.667L43.278,15.667z"/>
	
		<linearGradient id="Path_19104_1_" gradientUnits="userSpaceOnUse" x1="30.0801" y1="28.5737" x2="30.0801" y2="27.5732" gradientTransform="matrix(12.6 0 0 -12.6 -335.7262 377.7924)">
		<stop  offset="0.13" style="stop-color:#00A9ED"/>
		<stop  offset="1" style="stop-color:#65106B"/>
	</linearGradient>
	<path id="Path_19104" fill="url(#Path_19104_1_)" d="M43.278,30.367c3.479,0,6.3-2.821,6.3-6.3c0-3.479-2.821-6.301-6.3-6.301
		c-3.479,0-6.301,2.821-6.301,6.3l0,0C36.978,27.546,39.798,30.367,43.278,30.367z M43.278,19.867c2.319,0,4.199,1.88,4.199,4.2
		c0,2.319-1.88,4.199-4.199,4.199c-2.32,0-4.2-1.88-4.2-4.2C39.078,21.747,40.958,19.867,43.278,19.867L43.278,19.867z"/>
	
		<linearGradient id="Path_19105_1_" gradientUnits="userSpaceOnUse" x1="51.879" y1="-0.3711" x2="51.879" y2="-1.3711" gradientTransform="matrix(6.298 0 0 -6.298 -265.6144 -1.3652)">
		<stop  offset="0.13" style="stop-color:#00A9ED"/>
		<stop  offset="1" style="stop-color:#65106B"/>
	</linearGradient>
	<path id="Path_19105" fill="url(#Path_19105_1_)" d="M57.974,4.122c0,1.739,1.409,3.148,3.148,3.148s3.148-1.409,3.148-3.148
		s-1.409-3.149-3.148-3.149l0,0C59.383,0.973,57.974,2.383,57.974,4.122z M62.173,4.122c0,0.58-0.471,1.05-1.05,1.05
		c-0.58,0-1.05-0.47-1.05-1.05s0.47-1.05,1.05-1.05l0,0c0.579,0.001,1.048,0.471,1.048,1.05H62.173z"/>
	
		<linearGradient id="Path_19106_1_" gradientUnits="userSpaceOnUse" x1="73.6514" y1="-29.2798" x2="73.6514" y2="-30.2798" gradientTransform="matrix(4.2 0 0 -4.2 -280.7516 -122.0016)">
		<stop  offset="0.13" style="stop-color:#00A9ED"/>
		<stop  offset="1" style="stop-color:#65106B"/>
	</linearGradient>
	<path id="Path_19106" fill="url(#Path_19106_1_)" d="M30.682,3.073c0,1.159-0.94,2.1-2.1,2.1c-1.16,0-2.1-0.94-2.1-2.1
		c0-1.16,0.94-2.101,2.1-2.101C29.742,0.973,30.682,1.913,30.682,3.073L30.682,3.073z"/>
</g>
</svg>
