<?xml version="1.0" encoding="utf-8"?>
<!-- Generator: Adobe Illustrator 16.0.0, SVG Export Plug-In . SVG Version: 6.00 Build 0)  -->
<!DOCTYPE svg PUBLIC "-//W3C//DTD SVG 1.1//EN" "http://www.w3.org/Graphics/SVG/1.1/DTD/svg11.dtd">
<svg version="1.1" id="Layer_1" xmlns="http://www.w3.org/2000/svg" xmlns:xlink="http://www.w3.org/1999/xlink" x="0px" y="0px"
	 width="65px" height="65px" viewBox="0 0 65 65" enable-background="new 0 0 65 65" xml:space="preserve">
<g id="storm" transform="translate(0)">
	
		<linearGradient id="Path_18902_1_" gradientUnits="userSpaceOnUse" x1="-229.3359" y1="391.9082" x2="-229.3359" y2="390.9082" gradientTransform="matrix(6.1532 0 0 -10.4865 1418.052 4149.8125)">
		<stop  offset="0.13" style="stop-color:#00A9ED"/>
		<stop  offset="1" style="stop-color:#65106B"/>
	</linearGradient>
	<path id="Path_18902" fill="url(#Path_18902_1_)" d="M9.45,40.143c-0.462-0.229-1.022-0.041-1.252,0.42
		c-0.001,0.001-0.001,0.001-0.001,0.002l-4.284,8.617c-0.229,0.461-0.041,1.021,0.421,1.252c0.462,0.229,1.022,0.041,1.252-0.42l0,0
		l4.284-8.617C10.101,40.935,9.913,40.373,9.45,40.143L9.45,40.143z"/>
	
		<linearGradient id="Path_18903_1_" gradientUnits="userSpaceOnUse" x1="-229.3364" y1="391.9082" x2="-229.3364" y2="390.9082" gradientTransform="matrix(6.1532 0 0 -10.4865 1424.2379 4149.8125)">
		<stop  offset="0.13" style="stop-color:#00A9ED"/>
		<stop  offset="1" style="stop-color:#65106B"/>
	</linearGradient>
	<path id="Path_18903" fill="url(#Path_18903_1_)" d="M15.637,40.143c-0.462-0.229-1.023-0.041-1.253,0.42
		c0,0.001,0,0.001-0.001,0.002L10.1,49.182c-0.23,0.461-0.042,1.021,0.42,1.252c0.462,0.229,1.023,0.041,1.253-0.42l0,0l4.284-8.617
		C16.286,40.935,16.099,40.373,15.637,40.143L15.637,40.143z"/>
	
		<linearGradient id="Path_18904_1_" gradientUnits="userSpaceOnUse" x1="-229.3335" y1="391.9092" x2="-229.3335" y2="390.9092" gradientTransform="matrix(6.1529 0 0 -10.4865 1461.3491 4149.8125)">
		<stop  offset="0.13" style="stop-color:#00A9ED"/>
		<stop  offset="1" style="stop-color:#65106B"/>
	</linearGradient>
	<path id="Path_18904" fill="url(#Path_18904_1_)" d="M52.845,40.143c-0.462-0.229-1.022-0.041-1.253,0.42
		c0,0.001,0,0.001-0.001,0.002l-4.283,8.617c-0.23,0.461-0.042,1.021,0.42,1.252c0.462,0.229,1.023,0.041,1.253-0.42l4.284-8.617
		C53.494,40.934,53.306,40.373,52.845,40.143z"/>
	
		<linearGradient id="Path_18905_1_" gradientUnits="userSpaceOnUse" x1="-229.3354" y1="391.9082" x2="-229.3354" y2="390.9082" gradientTransform="matrix(6.1532 0 0 -10.4865 1467.6244 4149.8125)">
		<stop  offset="0.13" style="stop-color:#00A9ED"/>
		<stop  offset="1" style="stop-color:#65106B"/>
	</linearGradient>
	<path id="Path_18905" fill="url(#Path_18905_1_)" d="M59.029,40.143c-0.462-0.229-1.022-0.041-1.252,0.42
		c-0.001,0.001-0.001,0.001-0.001,0.002l-4.284,8.617c-0.229,0.461-0.041,1.021,0.421,1.252c0.462,0.229,1.022,0.041,1.252-0.42
		l4.284-8.617C59.68,40.935,59.492,40.373,59.029,40.143L59.029,40.143z"/>
	
		<linearGradient id="Path_18906_1_" gradientUnits="userSpaceOnUse" x1="-261.3335" y1="420.2461" x2="-261.3335" y2="419.2461" gradientTransform="matrix(23.7869 0 0 -44.4321 6246.7725 18691.9844)">
		<stop  offset="0.13" style="stop-color:#00A9ED"/>
		<stop  offset="1" style="stop-color:#65106B"/>
	</linearGradient>
	<path id="Path_18906" fill="url(#Path_18906_1_)" d="M40.792,37.325l-6.386-0.134l5.1-16.046c0.203-0.644-0.154-1.331-0.799-1.534
		c-0.479-0.151-1.002,0.006-1.317,0.396L20.281,41.234c-0.543,0.674-0.438,1.66,0.235,2.204c0.279,0.226,0.626,0.348,0.984,0.348
		h6.058l-8.9,18.453c-0.29,0.61-0.03,1.339,0.58,1.629c0.487,0.231,1.067,0.116,1.43-0.282l21.257-23.646
		c0.579-0.645,0.526-1.635-0.118-2.213C41.527,37.475,41.168,37.333,40.792,37.325z M22.315,58.962l7.134-14.8
		c0.376-0.779,0.049-1.717-0.73-2.092c-0.212-0.104-0.445-0.156-0.682-0.156H22.13l14.551-18.053l-4.176,13.148
		c-0.262,0.825,0.193,1.706,1.019,1.969c0.143,0.046,0.292,0.07,0.442,0.073l6.133,0.129L22.315,58.962z"/>
	
		<linearGradient id="Path_18907_1_" gradientUnits="userSpaceOnUse" x1="-268.3359" y1="417.7305" x2="-268.3359" y2="416.7305" gradientTransform="matrix(63.7822 0 0 -34.517 17147.9492 14419.8232)">
		<stop  offset="0.13" style="stop-color:#00A9ED"/>
		<stop  offset="1" style="stop-color:#65106B"/>
	</linearGradient>
	<path id="Path_18907" fill="url(#Path_18907_1_)" d="M57.349,17.387c0.48-7.47-7.429-12.315-13.478-8.352
		C40.595,4.036,35.026,1.018,29.049,1C19.97,1.149,12.367,7.923,11.176,16.926C5.407,17.205,0.901,22.015,1,27.79v0.086
		c0.054,4.23,3.498,7.631,7.729,7.631h13.336c0.516,0,0.935-0.418,0.935-0.935c0-0.516-0.419-0.934-0.935-0.934l0,0H8.729
		c-3.204,0.002-5.815-2.571-5.859-5.774V27.79c-0.113-4.849,3.725-8.872,8.573-8.985c0.168-0.004,0.335-0.003,0.502,0.002
		c0.498,0.029,0.932-0.339,0.982-0.836c0.888-8.512,7.786-15.1,16.122-15.1c5.686,0.03,10.928,3.076,13.77,8
		c0.267,0.442,0.842,0.585,1.285,0.318c0.04-0.024,0.078-0.052,0.114-0.082c4.923-4.144,12.2,0.251,11.188,6.84
		c-0.074,0.485,0.24,0.945,0.719,1.053c4.028,1.006,6.836,4.649,6.782,8.8v0.072c-0.043,3.204-2.654,5.778-5.859,5.776H38.045
		c-0.516,0-0.935,0.418-0.935,0.934c0,0.517,0.419,0.936,0.935,0.936h19.008c4.23-0.002,7.675-3.403,7.728-7.634V27.79
		c0.051-4.715-2.955-8.92-7.432-10.4V17.387z"/>
</g>
</svg>
