<svg xmlns="http://www.w3.org/2000/svg" xmlns:xlink="http://www.w3.org/1999/xlink" width="60.191" height="63" viewBox="0 0 60.191 63">
  <defs>
    <linearGradient id="linear-gradient" x1="0.5" x2="0.5" y2="1" gradientUnits="objectBoundingBox">
      <stop offset="0.13" stop-color="#00a9ed"/>
      <stop offset="1" stop-color="#65106b"/>
    </linearGradient>
  </defs>
  <g id="Group_3588" data-name="Group 3588" transform="translate(-1174 -908)">
    <path id="tornado" d="M60.535,29.984c-1.119-3.082-5.458-2.846-5.643-2.835a.963.963,0,0,0,.12,1.922c.032,0,3.09-.143,3.713,1.571.027.075.11.305-.148.77-.538.961-2.082,2.137-4.415,3.353a14.8,14.8,0,0,0-.572-1.9,13.31,13.31,0,0,1-.776-7.876c4.669-1.477,7.3-3.563,7.3-6.084a.963.963,0,1,0-1.926,0c0,1.172-1.5,2.549-4.622,3.742A39.306,39.306,0,0,1,55.53,18.71c1.585-2.9,3.378-6.186,3.894-10.649a2.63,2.63,0,0,0,.055-.519C59.478,2.591,45.633,0,31.957,0,18.4,0,4.688,2.547,4.446,7.415c0,.012-.006.022-.007.034-.6,6.077-.275,10.558.7,14C3.364,20.583,2.417,19.7,2.417,18.9a.963.963,0,0,0-1.926,0C.491,20.89,2.6,22.55,6,23.861c2.351,5.348,6.654,7.669,11.331,10.193.994.536,2.021,1.09,3.056,1.686a26.585,26.585,0,0,1,7.126,5.868,48.627,48.627,0,0,1-6.175.083c-4.693-.275-6.557-1.344-6.728-2.178a.963.963,0,0,0-1.887.385c.44,2.162,3.3,3.412,8.5,3.716q1.17.069,2.445.068c1.62,0,3.357-.083,5.176-.244a15.181,15.181,0,0,1,1.969,4.5,14.017,14.017,0,0,1,.33,4.838c-1.188-.555-1.841-1.163-1.971-1.732a.963.963,0,1,0-1.878.427c.335,1.473,1.716,2.522,3.522,3.269a22.211,22.211,0,0,1-2.938,6.79.963.963,0,0,0,.959,1.464,34.354,34.354,0,0,0,15.579-6.433c5.179-.242,8.191-1.775,9.733-4.839a.963.963,0,1,0-1.721-.866c-.927,1.842-2.645,2.976-5.407,3.491a26.617,26.617,0,0,0,4.6-5.753,19.759,19.759,0,0,0,2.865-11.813c2.916-1.46,4.968-2.989,5.772-4.423a2.772,2.772,0,0,0,.279-2.368ZM31.956,13.158c-8.817,0-15.737-1.012-20.149-2.311,4.9-1.463,12.285-2.341,20.149-2.341,7.832,0,15.191.871,20.091,2.323A71.59,71.59,0,0,1,33.409,13.15q-.717.006-1.453.008Zm0-11.234c15.856,0,25.6,3.274,25.6,5.617a.921.921,0,0,1-.02.157c-.145.645-1.038,1.376-2.607,2.082C49.936,7.771,41.413,6.575,31.957,6.575c-9.49,0-18.04,1.2-23.021,3.227C7.258,9.039,6.363,8.247,6.363,7.538c0-2.34,9.736-5.614,25.593-5.614ZM6.142,10.349c.026.02.055.039.081.058.049.037.1.073.154.11q.165.115.341.228c.055.035.11.071.17.106q.2.125.426.247c.041.023.08.046.123.069q.288.155.6.3l.141.065c.166.077.335.153.509.227l.22.091q.244.1.5.2l.22.083q.323.12.66.235l.081.028c.258.086.524.17.8.253l.207.061q.309.092.628.179l.268.073q.315.085.641.166l.244.061q.895.218,1.853.41l.27.055c.236.047.474.091.715.135l.31.055q.378.067.765.13l.247.041q.513.083,1.037.159l.131.018q.458.065.925.126l.32.041q.385.048.775.094l.341.039q.435.048.876.093l.225.023q.555.055,1.118.1l.247.02q.44.036.886.07l.367.026.81.055.358.022q.495.029,1,.055l.156.009q.578.027,1.16.048l.33.011q.42.015.842.025l.4.009q.41.009.822.015l.361,0q.584.006,1.168.007.555,0,1.112-.006l.461-.006.569-.01c9.384-.185,18.5-1.589,22.8-4.135a32.459,32.459,0,0,1-3.062,6.859,31.194,31.194,0,0,0-2.6,5.618c-4.3,1.214-10.655,2.091-19.283,2.091-11.069,0-19.547-1.405-24.524-3.125-1.1-2.885-1.6-6.693-1.293-12.024Zm15.2,23.722c-1.057-.608-2.1-1.169-3.1-1.712-4.02-2.168-7.47-4.034-9.664-7.635,6.122,1.772,14.9,2.7,23.377,2.7A80.508,80.508,0,0,0,50.734,25.57a15.594,15.594,0,0,0,1.054,7.97,13.053,13.053,0,0,1,.586,2.091A70.759,70.759,0,0,1,37.7,40.178c-2.724.557-5.392.964-7.917,1.228a27.653,27.653,0,0,0-8.441-7.335Zm11.3,21.294a35.954,35.954,0,0,0,6.817,1.1c.541.039,1.063.069,1.571.092a32.665,32.665,0,0,1-10.468,4.17,22.75,22.75,0,0,0,2.081-5.36Zm17.309-7.752a25.468,25.468,0,0,1-6.227,7.043c-1.234.031-2.6-.007-4.124-.119A32.3,32.3,0,0,1,33,53.457a16,16,0,0,0-.323-5.988,16.765,16.765,0,0,0-1.727-4.25c2.3-.275,4.7-.656,7.136-1.155A74.319,74.319,0,0,0,52.62,37.647a18.126,18.126,0,0,1-2.662,9.967ZM45.872,5.641a.963.963,0,0,1,1.114-.787c1.385.236,2.774.5,4.132.787a.963.963,0,1,1-.4,1.884c-1.333-.281-2.7-.541-4.058-.773a.963.963,0,0,1-.789-1.112ZM32.611,20.67a.963.963,0,0,1-.944-.981.952.952,0,0,1,.981-.944c.1,0,9.942.165,16.957-1.885a.963.963,0,0,1,.54,1.848c-6.218,1.816-14.263,1.968-16.769,1.968-.435,0-.7,0-.765-.006Zm-4.153-1.092a.962.962,0,0,1-1.06.851c-2.52-.279-4.2-.574-4.275-.586a.963.963,0,0,1,.334-1.9c.017,0,1.7.3,4.153.569a.963.963,0,0,1,.848,1.063Zm6.981,25.84c7.712-.612,11.176-2.491,11.211-2.509a.963.963,0,0,1,.943,1.679c-.152.085-3.805,2.1-12,2.751l-.077,0a.963.963,0,0,1-.075-1.923Z" transform="translate(1173.509 908)" fill="url(#linear-gradient)"/>
    <path id="tornado-2" data-name="tornado" d="M41.864,33.412l.407-3a.963.963,0,0,0-1.084-1.084l-3,.407a5.074,5.074,0,0,0-4.305,5.956l.1.557-.836.837a.963.963,0,0,0,1.362,1.362l.837-.836.557.1a5.06,5.06,0,0,0,5.956-4.305Zm-3.183,1.871a3.111,3.111,0,0,1-1.582.584l.715-.715a.963.963,0,0,0-1.362-1.362l-.715.715a3.144,3.144,0,0,1,2.711-2.858l1.744-.236-.236,1.744a3.122,3.122,0,0,1-1.275,2.127Zm-15.3,18.5-1.039-.567-.055-.564a5.073,5.073,0,0,0-5.81-4.5l-2.991.455a.963.963,0,0,0-.734,1.346l1.236,2.761a5.073,5.073,0,0,0,6.928,2.451l.506-.257,1.038.566a.963.963,0,1,0,.923-1.69ZM17.567,53.6a3.118,3.118,0,0,1-1.823-1.682l-.719-1.6,1.74-.265a3.144,3.144,0,0,1,3.407,1.976l-.886-.483a.963.963,0,0,0-.923,1.69l.885.483a3.112,3.112,0,0,1-1.682-.117ZM11.124,32.732a5.074,5.074,0,0,0-7.35-.039l-2.1,2.181a.963.963,0,0,0,.235,1.514l2.66,1.439a5.049,5.049,0,0,0,2.407.616,5.12,5.12,0,0,0,1.574-.251,5.031,5.031,0,0,0,3.009-2.634l.464-.969a.961.961,0,0,0-.165-1.076Zm-1.3,2A3.147,3.147,0,0,1,5.49,36.135L3.942,35.3l1.22-1.266a3.065,3.065,0,0,1,2.285-.965,3.122,3.122,0,0,1,2.275.99l.284.3Zm0,0" transform="translate(1173.509 908)" fill="url(#linear-gradient)"/>
  </g>
</svg>
