<?xml version="1.0" encoding="utf-8"?>
<!-- Generator: Adobe Illustrator 16.0.0, SVG Export Plug-In . SVG Version: 6.00 Build 0)  -->
<!DOCTYPE svg PUBLIC "-//W3C//DTD SVG 1.1//EN" "http://www.w3.org/Graphics/SVG/1.1/DTD/svg11.dtd">
<svg version="1.1" id="Layer_1" xmlns="http://www.w3.org/2000/svg" xmlns:xlink="http://www.w3.org/1999/xlink" x="0px" y="0px"
	 width="63.007px" height="62.957px" viewBox="0 0 63.007 62.957" enable-background="new 0 0 63.007 62.957" xml:space="preserve">
<g id="Outline" transform="translate(-2 -2.048)">
	
		<linearGradient id="Path_17477_1_" gradientUnits="userSpaceOnUse" x1="-267.2813" y1="423.8522" x2="-267.2813" y2="422.8532" gradientTransform="matrix(63.007 0 0 -63.0087 16874.082 26708.4316)">
		<stop  offset="0.13" style="stop-color:#00A9ED"/>
		<stop  offset="1" style="stop-color:#65106B"/>
	</linearGradient>
	<path id="Path_17477" fill="url(#Path_17477_1_)" d="M59.755,24.05H56.58C56.005,11.305,45.207,1.44,32.462,2.015
		C20.522,2.554,10.966,12.111,10.427,24.05H7.251C4.353,24.053,2.004,26.402,2,29.3v8.4c0.003,2.898,2.353,5.248,5.251,5.251h4.2
		c1.74-0.001,3.149-1.411,3.149-3.151V27.2c-0.006-1.313-0.826-2.484-2.057-2.94C12.996,12.685,22.746,3.668,34.322,4.12
		c10.94,0.428,19.711,9.199,20.139,20.14c-1.23,0.456-2.051,1.627-2.057,2.94v12.6c0.006,1.33,0.846,2.514,2.1,2.957V46.1
		c-0.01,7.188-5.589,13.138-12.762,13.609c-0.492-1.83-2.147-3.104-4.041-3.109H29.3c-2.319,0-4.2,1.881-4.2,4.199
		c0,2.32,1.88,4.201,4.2,4.201h8.401c1.929-0.007,3.605-1.326,4.065-3.201c8.319-0.484,14.823-7.365,14.84-15.699v-3.15h3.149
		c2.898-0.003,5.248-2.352,5.252-5.25v-8.4C65.003,26.402,62.655,24.052,59.755,24.05L59.755,24.05z M8.3,40.852H7.251
		c-1.74,0-3.15-1.41-3.151-3.148c0-0.002,0-0.003,0-0.004v-8.4c0-1.74,1.41-3.15,3.15-3.15H8.3V40.852z M12.5,39.801
		c0,0.58-0.47,1.051-1.05,1.051H10.4V26.15h1.05c0.58,0,1.05,0.47,1.05,1.05l0,0V39.801z M37.701,62.9H29.3
		c-1.16,0-2.1-0.94-2.1-2.101c0-1.159,0.94-2.1,2.1-2.1h8.401c1.159,0,2.1,0.94,2.1,2.1C39.8,61.96,38.86,62.9,37.701,62.9z
		 M56.6,40.848h-1.05c-0.58,0-1.051-0.471-1.051-1.051V27.2c0-0.58,0.471-1.05,1.051-1.05h1.05V40.848z M62.9,37.698
		c0,1.74-1.41,3.15-3.15,3.15l0,0h-1.049V26.15h1.049c1.74,0,3.15,1.41,3.15,3.15l0,0V37.698z"/>
	
		<linearGradient id="Path_17478_1_" gradientUnits="userSpaceOnUse" x1="-262.4624" y1="416.7965" x2="-262.4624" y2="415.7965" gradientTransform="matrix(29.4 0 0 -29.4 7749.9121 12272.5791)">
		<stop  offset="0.13" style="stop-color:#00A9ED"/>
		<stop  offset="1" style="stop-color:#65106B"/>
	</linearGradient>
	<path id="Path_17478" fill="url(#Path_17478_1_)" d="M48.203,33.499c0-8.118-6.582-14.7-14.701-14.7
		c-8.118,0-14.699,6.582-14.699,14.7c0,8.119,6.581,14.7,14.699,14.7C41.621,48.199,48.203,41.618,48.203,33.499L48.203,33.499z
		 M20.902,33.499c0-6.958,5.642-12.6,12.6-12.6c6.959,0,12.601,5.641,12.601,12.6c0,6.959-5.642,12.6-12.601,12.6l0,0
		C26.543,46.098,20.902,40.458,20.902,33.499z"/>
	
		<linearGradient id="Path_17479_1_" gradientUnits="userSpaceOnUse" x1="-251.1226" y1="389.4098" x2="-251.1226" y2="388.4098" gradientTransform="matrix(13.036 0 0 -9.577 3307.7114 3758.7839)">
		<stop  offset="0.13" style="stop-color:#00A9ED"/>
		<stop  offset="1" style="stop-color:#65106B"/>
	</linearGradient>
	<path id="Path_17479" fill="url(#Path_17479_1_)" d="M40.597,30.893l-1.485-1.485l-6.608,6.606l-3.458-3.458l-1.485,1.485
		l4.943,4.943L40.597,30.893z"/>
</g>
</svg>
