<?xml version="1.0" encoding="utf-8"?>
<!-- Generator: Adobe Illustrator 16.0.0, SVG Export Plug-In . SVG Version: 6.00 Build 0)  -->
<!DOCTYPE svg PUBLIC "-//W3C//DTD SVG 1.1//EN" "http://www.w3.org/Graphics/SVG/1.1/DTD/svg11.dtd">
<svg version="1.1" id="Layer_1" xmlns="http://www.w3.org/2000/svg" xmlns:xlink="http://www.w3.org/1999/xlink" x="0px" y="0px"
	 width="50.26px" height="62.938px" viewBox="0 0 50.26 62.938" enable-background="new 0 0 50.26 62.938" xml:space="preserve">
<g id="insurance" transform="translate(-51.569)">
	<g id="Group_2441" transform="translate(51.569)">
		
			<linearGradient id="Path_17486_1_" gradientUnits="userSpaceOnUse" x1="-274.459" y1="412.7834" x2="-274.459" y2="411.7834" gradientTransform="matrix(50.2579 0 0 -25.6157 13818.8682 10611.0654)">
			<stop  offset="0" style="stop-color:#00A9E0"/>
			<stop  offset="1" style="stop-color:#801C7D"/>
		</linearGradient>
		<path id="Path_17486" fill="url(#Path_17486_1_)" d="M50.164,54.346c-0.505-2.43-2.885-3.989-5.313-3.483
			c-0.029,0.006-0.059,0.012-0.086,0.019l-9.726,2.227c-1.536,0.353-3.134,0.318-4.653-0.1c0.537-0.473,0.961-1.062,1.238-1.721
			l0.034-0.079c0.991-2.343-0.104-5.046-2.446-6.037c-0.012-0.005-0.023-0.01-0.033-0.014l-9.907-4.101
			c-0.149-0.062-0.309-0.093-0.47-0.093h-8.011V38.55c0-0.679-0.55-1.229-1.229-1.229l0,0H1.231c-0.679,0-1.229,0.55-1.229,1.229
			l0,0v20.765c0,0.679,0.55,1.229,1.229,1.229l0,0h8.333c0.679,0,1.229-0.551,1.229-1.229l0,0v-3h2.37l14.759,5.789
			c2.341,0.923,4.911,1.083,7.349,0.459l11.6-2.948C49.204,59.027,50.657,56.701,50.164,54.346z M8.331,58.085H2.458v-18.3h5.873
			V58.085z M46.265,57.229l-11.6,2.949c-1.938,0.497-3.984,0.369-5.846-0.365l-14.974-5.874c-0.143-0.056-0.295-0.085-0.449-0.085
			h-2.6v-10.43h7.765l9.68,4.007c1.096,0.454,1.616,1.709,1.162,2.805c-0.002,0.006-0.004,0.011-0.006,0.017l-0.035,0.08
			c-0.446,1.078-1.646,1.634-2.758,1.275l-6.526-2.509l-0.091-0.035c-0.634-0.243-1.345,0.073-1.588,0.707s0.073,1.345,0.707,1.588
			l0.038,0.016l0,0c0.405,0.156,3.817,1.467,6.456,2.486c0.058,0.022,0.117,0.044,0.175,0.063l2.82,1.085
			c2.229,0.86,4.665,1.035,6.994,0.5l9.725-2.227c1.093-0.264,2.191,0.407,2.455,1.5c0.264,1.092-0.407,2.191-1.5,2.455
			L46.265,57.229z"/>
		
			<linearGradient id="Path_17487_1_" gradientUnits="userSpaceOnUse" x1="-245.1406" y1="384.3723" x2="-245.1406" y2="383.3723" gradientTransform="matrix(7.831 0 0 -8.9225 1943.4341 3460.189)">
			<stop  offset="0" style="stop-color:#00A9E0"/>
			<stop  offset="1" style="stop-color:#801C7D"/>
		</linearGradient>
		<path id="Path_17487" fill="url(#Path_17487_1_)" d="M23.743,37.09c-0.804-0.001-1.456-0.652-1.457-1.457
			c0.001-0.679-0.547-1.23-1.226-1.232c-0.679-0.001-1.23,0.548-1.232,1.227c0,0.002,0,0.004,0,0.006
			c0,2.162,1.753,3.915,3.916,3.915c2.162,0,3.916-1.753,3.916-3.915l0,0v-3.775c0.002-0.679-0.547-1.229-1.227-1.231
			c-0.678-0.002-1.23,0.547-1.231,1.226c0,0.002,0,0.004,0,0.006v3.775C25.2,36.438,24.547,37.089,23.743,37.09z"/>
		
			<linearGradient id="Path_17488_1_" gradientUnits="userSpaceOnUse" x1="-169.1465" y1="269.7561" x2="-169.1465" y2="268.7561" gradientTransform="matrix(2.4563 0 0 -2.4586 441.9077 689.2492)">
			<stop  offset="0" style="stop-color:#00A9E0"/>
			<stop  offset="1" style="stop-color:#801C7D"/>
		</linearGradient>
		<path id="Path_17488" fill="url(#Path_17488_1_)" d="M25.295,27.712c0.258,0.628,0.976,0.928,1.604,0.67
			c0.627-0.258,0.928-0.977,0.67-1.604c-0.259-0.628-0.977-0.928-1.604-0.67c-0.069,0.028-0.136,0.063-0.198,0.104
			C25.271,26.535,25.074,27.163,25.295,27.712z"/>
		
			<linearGradient id="Path_17489_1_" gradientUnits="userSpaceOnUse" x1="-273.7891" y1="411.7542" x2="-273.7891" y2="410.7542" gradientTransform="matrix(44.724 0 0 -23.988 12271.5146 9877.1221)">
			<stop  offset="0" style="stop-color:#00A9E0"/>
			<stop  offset="1" style="stop-color:#801C7D"/>
		</linearGradient>
		<path id="Path_17489" fill="url(#Path_17489_1_)" d="M5.438,23.346L5.438,23.346c0.679,0,1.229-0.55,1.229-1.229l0,0
			c0-0.016,0-0.101,0.006-0.243c0.137-2.599,2.282-4.638,4.884-4.643l0,0c2.439,0.001,4.505,1.799,4.842,4.214
			c-0.048,0.498,0.059,0.997,0.306,1.432c0.232,0.301,0.59,0.477,0.97,0.477l0,0c0.679,0,1.229-0.55,1.229-1.229l0,0
			c0.006-3.679,2.667-6.815,6.295-7.421v8.055c0,0.679,0.55,1.229,1.229,1.229c0.678,0,1.229-0.55,1.229-1.229v-8.064
			c1.576,0.256,3.034,0.994,4.173,2.114c1.444,1.389,2.263,3.306,2.267,5.31c-0.004,0.679,0.545,1.23,1.224,1.233
			c0.634,0.003,1.165-0.478,1.228-1.107c0-0.044,0.031-0.313,0.053-0.764c0.152-1.07,0.662-2.059,1.446-2.805
			c0.947-0.926,2.219-1.444,3.543-1.446l0,0c2.58,0.006,4.714,2.012,4.879,4.586c0.009,0.192,0.009,0.301,0.009,0.306l0,0
			c0,0.679,0.55,1.229,1.229,1.229c0,0,0,0,0.001,0l0,0c0.679,0,1.229-0.55,1.229-1.228l0,0c0-0.109-0.003-0.217-0.008-0.325
			c-0.181-3.713-1.128-7.348-2.781-10.676C43.585,6.074,38.112,0.068,26.62,0h-0.217C19.858,0.005,14.588,1.961,10.74,5.813
			c-6.019,6.025-6.492,14.61-6.528,16.096c0,0.063,0,0.127,0,0.19v0.02C4.212,22.795,4.761,23.344,5.438,23.346z M26.431,12.137
			c-2.67-0.002-5.228,1.068-7.101,2.97c0.036-0.191,0.075-0.384,0.117-0.58c0.833-4.67,3.342-8.875,7.056-11.826
			c3.713,2.951,6.221,7.157,7.053,11.826c0.047,0.224,0.09,0.443,0.131,0.662c-0.045-0.046-0.088-0.093-0.136-0.138
			C31.652,13.182,29.095,12.135,26.431,12.137z M43.923,12.158c0.602,1.179,1.098,2.408,1.48,3.675
			c-1.146-0.698-2.465-1.066-3.809-1.063l0,0c-1.924,0.001-3.775,0.739-5.172,2.063c-0.1-0.854-0.242-1.775-0.445-2.74
			C35.16,9.824,33.15,5.874,30.181,2.7C36.522,3.569,41.136,6.738,43.923,12.158L43.923,12.158z M12.48,7.551
			c2.811-2.732,6.457-4.443,10.355-4.859c-2.972,3.176-4.983,7.129-5.8,11.4c-0.2,0.941-0.339,1.84-0.438,2.675
			c-1.359-1.287-3.161-2.003-5.032-2l0,0c-1.354-0.002-2.683,0.373-3.836,1.083C8.608,12.736,10.24,9.886,12.48,7.551z"/>
	</g>
</g>
</svg>
